<svg width="754" height="182" viewBox="0 0 754 182" fill="none" xmlns="http://www.w3.org/2000/svg">
<g opacity="0.2">
<path fill-rule="evenodd" clip-rule="evenodd" d="M334.651 178.035C334.651 178.035 365.231 147.355 339.822 114.139C317.279 84.6671 290.996 86.6825 271.708 98.6421C263.496 103.733 239.816 99.2699 219.658 69.2816C192.181 28.3852 96.9087 53.1908 114.28 116.108C122.686 146.557 88.696 147.663 106.016 178.099L334.651 178.035Z" fill="white"/>
<path fill-rule="evenodd" clip-rule="evenodd" d="M596.467 178.035C596.467 178.035 627.047 147.355 601.638 114.139C579.095 84.6671 552.813 86.6825 533.525 98.6421C525.312 103.733 501.632 99.2699 481.474 69.2816C453.997 28.3852 358.725 53.1908 376.097 116.108C384.502 146.557 350.512 147.663 367.832 178.099L596.467 178.035Z" fill="white"/>
<path opacity="0.5" fill-rule="evenodd" clip-rule="evenodd" d="M334.651 178.035C334.651 178.035 365.231 147.355 339.822 114.139C317.279 84.6671 290.996 86.6825 271.708 98.6421C263.496 103.733 239.816 99.2699 219.658 69.2816C192.181 28.3852 96.9087 53.1908 114.28 116.108C122.686 146.557 88.696 147.663 106.016 178.099L334.651 178.035Z" stroke="#333739" stroke-width="1.149"/>
<path opacity="0.5" fill-rule="evenodd" clip-rule="evenodd" d="M314.825 41.7645C313.667 41.7645 312.728 40.8252 312.728 39.6674C312.728 38.509 313.667 37.5703 314.825 37.5703C315.983 37.5703 316.922 38.509 316.922 39.6674C316.922 40.8252 315.983 41.7645 314.825 41.7645Z" fill="#333739"/>
<path opacity="0.5" fill-rule="evenodd" clip-rule="evenodd" d="M318.453 142L315.438 39.7367C315.438 39.6059 315.386 39.4809 315.293 39.3881C315.201 39.2957 315.076 39.2441 314.945 39.2441C314.814 39.2441 314.689 39.2957 314.597 39.3881C314.505 39.4809 314.453 39.6059 314.453 39.7367L311.52 141.999L318.453 142Z" fill="#FFAB00"/>
<mask id="mask0_651_53405" style="mask-type:alpha" maskUnits="userSpaceOnUse" x="310" y="0" width="7" height="40">
<path fill-rule="evenodd" clip-rule="evenodd" d="M316.051 0H310.846V39.2267H316.051V0Z" fill="white"/>
</mask>
<g mask="url(#mask0_651_53405)">
<path opacity="0.5" fill-rule="evenodd" clip-rule="evenodd" d="M311.075 20.5075C311.602 28.1209 312.983 34.8139 314.216 38.8591C314.25 38.9721 314.321 39.069 314.418 39.1355C314.515 39.202 314.631 39.2335 314.748 39.2255C314.866 39.2175 314.977 39.1705 315.064 39.0914C315.15 39.0122 315.208 38.9061 315.227 38.7903C315.892 34.6333 316.347 27.8628 315.822 20.2524C315.208 11.2795 313.392 3.58191 312.048 0C311.197 3.73328 310.456 11.5347 311.075 20.5075Z" fill="#FFAB00"/>
</g>
<path opacity="0.5" fill-rule="evenodd" clip-rule="evenodd" d="M332.894 47.595C326.683 43.9649 320.701 41.4151 316.656 40.0803C315.962 39.8509 315.455 40.7351 316.002 41.2213C318.673 43.5796 323.709 47.4442 330.71 51.5352C338.474 56.073 345.565 59.0259 349.285 59.9261C346.673 57.1234 340.66 52.1373 332.894 47.595Z" fill="#FFAB00"/>
<path opacity="0.5" fill-rule="evenodd" clip-rule="evenodd" d="M298.053 45.7975C290.855 49.544 284.975 54.076 282.55 56.5793C285.994 56.0283 292.566 53.4647 299.769 49.7183C305.599 46.6857 310.557 43.5464 313.524 41.133C314.051 40.7082 313.629 39.8716 312.974 40.0293C309.293 40.9175 303.881 42.766 298.053 45.7975Z" fill="#FFAB00"/>
<path opacity="0.5" fill-rule="evenodd" clip-rule="evenodd" d="M269.027 149.053L266.394 59.8572C266.394 59.7431 266.349 59.6336 266.268 59.5539C266.188 59.4736 266.078 59.4277 265.964 59.4277C265.851 59.4277 265.741 59.4736 265.661 59.5539C265.58 59.6336 265.535 59.7431 265.535 59.8572L262.977 149.053H269.027Z" fill="#FFAB00"/>
<path opacity="0.5" fill-rule="evenodd" clip-rule="evenodd" d="M260.428 46.696C261.931 52.1179 263.916 56.7514 265.408 59.4893C265.449 59.5656 265.515 59.6252 265.595 59.659C265.675 59.6934 265.764 59.6992 265.848 59.6762C265.931 59.6533 266.004 59.6023 266.056 59.5317C266.107 59.4618 266.133 59.3764 266.128 59.2898C265.996 56.1884 265.325 51.2309 263.821 45.8096C262.049 39.4204 259.608 34.127 258.102 31.7383C258.04 34.5593 258.656 40.3063 260.428 46.696Z" fill="#FFAB00"/>
<path opacity="0.5" fill-rule="evenodd" clip-rule="evenodd" d="M280.192 63.0395C275.169 61.3337 270.472 60.3744 267.35 60.0075C267.238 59.9937 267.123 60.0201 267.027 60.0803C266.931 60.1416 266.858 60.234 266.823 60.3429C266.787 60.4507 266.79 60.5677 266.831 60.6743C266.872 60.7798 266.948 60.8687 267.047 60.9255C269.324 62.2356 273.532 64.2832 279.193 66.2057C285.473 68.337 291.03 69.4235 293.852 69.5256C291.552 67.888 286.473 65.1713 280.192 63.0395Z" fill="#FFAB00"/>
<path opacity="0.5" fill-rule="evenodd" clip-rule="evenodd" d="M254.758 66.8833C250.106 70.6521 246.535 74.793 245.151 76.9599C247.557 76.0528 251.926 73.2317 256.577 69.4629C260.342 66.4108 263.459 63.4069 265.246 61.2297C265.314 61.1477 265.35 61.0457 265.352 60.9396C265.353 60.8347 265.318 60.7309 265.253 60.6477C265.187 60.564 265.096 60.5055 264.993 60.4815C264.89 60.4568 264.782 60.4683 264.686 60.5136C262.161 61.7045 258.52 63.8369 254.758 66.8833Z" fill="#FFAB00"/>
<path opacity="0.5" fill-rule="evenodd" clip-rule="evenodd" d="M265.787 61.68C264.777 61.68 263.958 60.8612 263.958 59.8513C263.958 58.8404 264.777 58.0215 265.787 58.0215C266.798 58.0215 267.617 58.8404 267.617 59.8513C267.617 60.8612 266.798 61.68 265.787 61.68Z" fill="#333739"/>
<path fill-rule="evenodd" clip-rule="evenodd" d="M408.324 178.545H117.224C117.224 178.545 145.357 141.994 195.313 149.943C260.918 160.382 285.277 137.785 316.78 129.766C346.799 122.122 369.721 132.245 385.178 144.843C397.772 155.107 408.324 166.785 408.324 178.547L408.324 178.545Z" fill="white"/>
<path opacity="0.5" fill-rule="evenodd" clip-rule="evenodd" d="M408.32 178.545H117.22C117.22 178.545 145.353 141.994 195.309 149.943C260.914 160.382 285.273 137.785 316.776 129.766C346.795 122.122 369.717 132.245 385.174 144.843C397.768 155.107 408.32 166.785 408.32 178.547L408.32 178.545Z" stroke="#333739" stroke-width="1.149"/>
<path opacity="0.5" fill-rule="evenodd" clip-rule="evenodd" d="M713.574 178.643H379.208C379.208 178.643 411.521 142.127 468.903 150.069C544.258 160.498 572.238 137.923 608.424 129.911C642.904 122.276 669.234 132.388 686.987 144.974C701.454 155.228 713.574 166.895 713.574 178.645L713.574 178.643Z" stroke="#333739" stroke-width="1.149"/>
<path fill-rule="evenodd" clip-rule="evenodd" d="M305.215 178.543C305.215 178.543 290.405 159.262 252.901 164.247C200.768 171.181 182.132 132.931 137.665 130.791C56.173 126.869 25.6592 178.543 25.6592 178.543H305.215Z" fill="white"/>
<path opacity="0.5" fill-rule="evenodd" clip-rule="evenodd" d="M305.215 178.543C305.215 178.543 290.405 159.262 252.901 164.247C200.768 171.181 182.132 132.931 137.665 130.791C56.173 126.869 25.6592 178.543 25.6592 178.543H305.215Z" stroke="#333739" stroke-width="1.149"/>
<path opacity="0.5" fill-rule="evenodd" clip-rule="evenodd" d="M4.42516 54.6985C1.51726 54.6985 -0.0718982 51.2754 1.82039 49.0679C3.43595 47.1883 5.91556 46.0186 8.63228 45.4252C13.386 44.3891 19.169 47.662 20.567 48.4853C20.9299 42.0101 26.5746 36.8692 33.4846 36.8692C33.7619 36.8692 34.045 36.8778 34.3223 36.8956C36.0894 27.6217 44.9141 20.5703 55.537 20.5703C67.4333 20.5703 77.0767 29.4124 77.0767 40.3187C77.0779 41.1656 77.0193 42.0113 76.9016 42.8496C77.4258 42.7865 77.9528 42.7544 78.4816 42.7532C83.2043 42.7532 88.6279 45.6763 89.2681 50.3717C89.2681 50.3717 114.794 43.4505 114.941 54.8412L4.42516 54.6985Z" stroke="#333739" stroke-width="1.149"/>
<path opacity="0.5" fill-rule="evenodd" clip-rule="evenodd" d="M408.448 49.4235H324.29C324.452 48.6162 326.133 39.9679 346.853 47.8438C346.853 47.8438 345.83 43.5435 352.046 45.4523C358.262 47.3611 356.049 38.8269 361.509 37.4594C364.765 36.6457 366.614 37.9863 367.917 39.4788C368.544 30.9492 376.053 24.2148 385.225 24.2148C394.808 24.2148 402.575 31.5661 402.575 40.6364C402.576 41.1938 402.546 41.75 402.487 42.3038C403.471 41.0854 405.638 39.9937 408.597 40.0642C408.664 40.0642 408.733 40.0642 408.799 40.0728C414.794 40.4226 414.457 49.4235 408.448 49.4235Z" stroke="#333739" stroke-width="1.149"/>
<path fill-rule="evenodd" clip-rule="evenodd" d="M410.837 178.542L421.297 167.907L409.468 176.105L409.852 168.324L404.308 175.089L405.285 150.879L401.155 172.482L397.202 168.728L397.568 175.227L393.104 173.382L396.614 178.534L410.837 178.542Z" fill="white"/>
<path opacity="0.5" fill-rule="evenodd" clip-rule="evenodd" d="M410.837 178.542L421.297 167.907L409.468 176.105L409.852 168.324L404.308 175.089L405.285 150.879L401.155 172.482L397.202 168.728L397.568 175.227L393.104 173.382L396.614 178.534L410.837 178.542Z" stroke="#333739" stroke-width="1.149"/>
<path opacity="0.5" fill-rule="evenodd" clip-rule="evenodd" d="M97.8515 135.255C97.7148 135.146 97.5162 135.168 97.4071 135.303C97.298 135.44 97.3193 135.639 97.4565 135.748L97.4932 135.779L97.5173 135.799C97.5638 135.84 97.6178 135.887 97.6769 135.942L97.7079 135.969C97.9141 136.161 98.1466 136.394 98.3975 136.668C99.1151 137.455 99.8345 138.413 100.507 139.547C101.82 141.762 102.788 144.365 103.265 147.37C103.855 151.088 103.66 155.238 102.533 159.833C102.492 160.003 102.596 160.174 102.766 160.215C102.935 160.256 103.106 160.153 103.148 159.983C104.295 155.308 104.493 151.073 103.889 147.272C103.4 144.185 102.404 141.507 101.052 139.225C100.356 138.053 99.6106 137.06 98.8648 136.243C98.6208 135.975 98.3923 135.745 98.185 135.55L98.1374 135.505C98.0036 135.382 97.906 135.298 97.8515 135.255Z" fill="#333739"/>
<path opacity="0.5" fill-rule="evenodd" clip-rule="evenodd" d="M101.102 155.688C101.344 155.477 101.46 155.172 101.428 154.856C100.765 148.748 98.0028 142.463 93.7009 140.157C89.2831 137.788 86.2684 144.368 92.3937 150.476C97.0009 155.077 99.4679 155.825 100.407 155.919C100.659 155.94 100.912 155.856 101.102 155.688Z" stroke="#333739" stroke-width="1.149"/>
<path opacity="0.5" fill-rule="evenodd" clip-rule="evenodd" d="M110.797 154.277C108.984 154.433 107.552 155.425 106.465 156.969C106.053 157.554 105.72 158.177 105.458 158.802C105.377 158.996 105.307 159.179 105.25 159.345L105.228 159.407C105.191 159.519 105.166 159.599 105.153 159.645C105.107 159.813 105.205 159.988 105.374 160.034C105.536 160.079 105.704 159.989 105.758 159.832L105.777 159.763L105.795 159.708C105.805 159.677 105.816 159.645 105.828 159.609C105.885 159.439 105.956 159.25 106.042 159.045C106.287 158.461 106.599 157.876 106.982 157.332C107.971 155.929 109.247 155.044 110.852 154.906C111.025 154.891 111.155 154.738 111.139 154.564C111.124 154.397 110.981 154.27 110.816 154.276L110.797 154.277Z" fill="#333739"/>
<path opacity="0.5" fill-rule="evenodd" clip-rule="evenodd" d="M89.8942 140.469C89.7754 140.588 89.7714 140.777 89.8799 140.901L89.9034 140.925L90.0269 141.051L90.1434 141.17C90.1968 141.226 90.2536 141.285 90.3145 141.348L90.4087 141.445C90.8186 141.874 91.2773 142.367 91.7705 142.913C93.1805 144.472 94.5899 146.152 95.9052 147.885C97.4714 149.949 98.7953 151.953 99.8018 153.841C100.121 154.44 100.406 155.025 100.656 155.592C100.726 155.752 100.913 155.825 101.073 155.755C101.232 155.685 101.305 155.498 101.235 155.339C100.979 154.756 100.686 154.157 100.36 153.544C99.3367 151.623 97.9939 149.593 96.4099 147.503C95.082 145.754 93.661 144.061 92.2401 142.488L92.0656 142.297C91.6631 141.855 91.2853 141.449 90.9397 141.086L90.7261 140.863C90.6515 140.786 90.5815 140.714 90.5177 140.648L90.3415 140.469C90.2186 140.346 90.0177 140.346 89.8942 140.469Z" fill="#333739"/>
<path opacity="0.5" fill-rule="evenodd" clip-rule="evenodd" d="M92.2685 148.796L92.16 148.791C91.9493 148.781 91.7685 148.777 91.6226 148.777L91.4797 148.779C91.3046 148.785 91.1679 148.931 91.1737 149.105C91.1794 149.273 91.3155 149.407 91.482 149.411L91.5313 149.41C91.6978 149.407 91.9361 149.411 92.2346 149.427C92.683 149.451 93.1727 149.498 93.6946 149.573C95.1282 149.781 96.5761 150.167 97.9626 150.775C98.1228 150.844 98.3088 150.771 98.38 150.612C98.4494 150.452 98.3765 150.265 98.2163 150.195C96.7736 149.564 95.2717 149.164 93.7853 148.949C93.2439 148.87 92.7347 148.821 92.2685 148.796Z" fill="#333739"/>
<path opacity="0.5" fill-rule="evenodd" clip-rule="evenodd" d="M95.0435 141.186C94.8902 141.272 94.8357 141.464 94.9212 141.616L94.9953 141.75C95.0188 141.794 95.0446 141.843 95.0734 141.895L95.1761 142.087C95.2708 142.264 95.3725 142.457 95.4787 142.663C95.8984 143.475 96.3169 144.336 96.7084 145.206C97.0179 145.895 97.2975 146.562 97.538 147.197L97.5989 147.358C98.2361 149.071 98.5525 150.447 98.4669 151.341C98.4503 151.514 98.5777 151.669 98.7517 151.685C98.9262 151.701 99.0801 151.574 99.0967 151.4C99.1966 150.355 98.8401 148.846 98.1294 146.973C97.8836 146.325 97.6 145.646 97.286 144.947C96.8898 144.065 96.4656 143.195 96.0413 142.374L95.9219 142.144C95.8318 141.971 95.7451 141.809 95.6647 141.659L95.5499 141.448L95.4741 141.308C95.3885 141.156 95.1956 141.102 95.0435 141.186Z" fill="#333739"/>
<path opacity="0.5" fill-rule="evenodd" clip-rule="evenodd" d="M96.5829 152.604C96.1392 152.566 95.7551 152.556 95.4588 152.559L95.3584 152.562C95.1838 152.568 95.0472 152.714 95.0535 152.889C95.0604 153.057 95.1959 153.189 95.3629 153.193L95.4244 153.192C95.7057 153.187 96.0863 153.196 96.5296 153.234C97.1978 153.289 97.8575 153.398 98.4701 153.57C99.0482 153.731 99.5603 153.943 99.9897 154.209C100.138 154.301 100.333 154.255 100.425 154.107C100.517 153.959 100.471 153.764 100.323 153.672C99.8388 153.372 99.2727 153.138 98.6411 152.961C97.9855 152.777 97.288 152.663 96.5829 152.604Z" fill="#333739"/>
<path opacity="0.5" fill-rule="evenodd" clip-rule="evenodd" d="M106.564 150.106C106.891 150.338 107.27 150.369 107.566 150.212C113.333 147.042 118.203 141.125 118.277 134.744C118.362 128.184 110.201 126.805 107.26 136.977C105.046 144.632 105.573 148.074 105.974 149.306C106.089 149.623 106.301 149.918 106.564 150.106Z" stroke="#333739" stroke-width="1.149"/>
<path opacity="0.5" fill-rule="evenodd" clip-rule="evenodd" d="M116.309 130.51C116.226 130.356 116.034 130.299 115.881 130.382C113.175 131.843 110.991 135.246 109.249 140.003C108.428 142.246 107.759 144.646 107.231 147.046L107.171 147.324C107.032 147.967 106.912 148.572 106.81 149.13L106.768 149.366C106.724 149.612 106.687 149.83 106.656 150.018L106.62 150.251C106.595 150.423 106.714 150.584 106.886 150.609C107.06 150.635 107.22 150.516 107.246 150.343L107.275 150.156L107.3 150.005C107.323 149.866 107.348 149.714 107.377 149.549L107.39 149.477C107.514 148.785 107.666 148.013 107.849 147.182C108.371 144.808 109.032 142.434 109.843 140.221C111.537 135.596 113.648 132.306 116.182 130.937C116.335 130.854 116.393 130.663 116.309 130.51Z" fill="#333739"/>
<path opacity="0.5" fill-rule="evenodd" clip-rule="evenodd" d="M118.238 135.592C118.166 135.433 117.979 135.363 117.819 135.434C116.528 136.014 115.052 136.737 113.618 137.534L113.433 137.636C111.415 138.77 109.861 139.852 108.965 140.837C108.847 140.966 108.857 141.167 108.986 141.283C109.116 141.401 109.315 141.391 109.433 141.262C110.298 140.312 111.873 139.226 113.925 138.086C115.342 137.299 116.802 136.584 118.079 136.01C118.238 135.939 118.309 135.752 118.238 135.592Z" fill="#333739"/>
<path opacity="0.5" fill-rule="evenodd" clip-rule="evenodd" d="M107.638 136.578C107.464 136.561 107.31 136.689 107.294 136.863C107.156 138.33 107.086 139.749 107.119 140.99L107.125 141.143C107.179 142.736 107.406 143.883 107.874 144.496C107.98 144.635 108.178 144.662 108.318 144.556C108.455 144.451 108.482 144.252 108.377 144.113C107.675 143.192 107.599 140.384 107.924 136.922C107.94 136.748 107.812 136.594 107.638 136.578Z" fill="#333739"/>
<path opacity="0.5" fill-rule="evenodd" clip-rule="evenodd" d="M115.582 142.885C115.471 142.749 115.272 142.728 115.137 142.838C114.405 143.43 113.324 144.057 111.989 144.694C111.053 145.141 110.048 145.567 109.042 145.955L108.869 146.022C108.641 146.11 108.424 146.192 108.221 146.265L107.946 146.364L107.706 146.449C107.541 146.506 107.452 146.686 107.509 146.851C107.564 147.01 107.733 147.098 107.894 147.053L107.949 147.033L108.082 146.987C108.119 146.974 108.159 146.96 108.2 146.945L108.438 146.859C108.695 146.764 108.975 146.66 109.272 146.544C110.291 146.15 111.31 145.719 112.262 145.264L112.443 145.177C113.736 144.55 114.792 143.931 115.535 143.329C115.671 143.219 115.692 143.02 115.582 142.885Z" fill="#333739"/>
<path opacity="0.5" fill-rule="evenodd" clip-rule="evenodd" d="M110.181 152.951C110.06 152.063 110.196 151.313 110.485 151.273C110.773 151.234 111.105 151.922 111.225 152.809C111.347 153.696 111.21 154.448 110.921 154.487C110.633 154.526 110.301 153.838 110.181 152.951Z" stroke="#333739" stroke-width="1.149"/>
<path opacity="0.5" fill-rule="evenodd" clip-rule="evenodd" d="M110.916 154.483C110.746 154.277 111.117 153.689 111.746 153.172C112.375 152.653 113.023 152.401 113.193 152.607C113.363 152.813 112.992 153.401 112.363 153.919C111.734 154.437 111.086 154.69 110.916 154.483Z" stroke="#333739" stroke-width="1.149"/>
<path opacity="0.5" fill-rule="evenodd" clip-rule="evenodd" d="M109.239 154.175C108.455 153.764 107.931 153.219 108.069 152.956C108.207 152.693 108.954 152.813 109.738 153.223C110.521 153.633 111.045 154.179 110.908 154.442C110.77 154.704 110.023 154.585 109.239 154.175Z" stroke="#333739" stroke-width="1.149"/>
<path opacity="0.5" fill-rule="evenodd" clip-rule="evenodd" d="M111.972 155.611C111.257 155.219 110.782 154.712 110.91 154.477C111.039 154.243 111.723 154.369 112.438 154.761C113.153 155.153 113.628 155.66 113.498 155.895C113.37 156.129 112.686 156.002 111.972 155.611Z" stroke="#333739" stroke-width="1.149"/>
<path opacity="0.5" fill-rule="evenodd" clip-rule="evenodd" d="M109.67 157.182C109.426 157.07 109.506 156.375 109.846 155.63C110.187 154.884 110.662 154.37 110.905 154.48C111.149 154.591 111.07 155.286 110.729 156.033C110.388 156.778 109.914 157.293 109.67 157.182Z" stroke="#333739" stroke-width="1.149"/>
<path fill-rule="evenodd" clip-rule="evenodd" d="M94.207 160.772L98.1082 178.419H110.496L114.397 160.772C114.618 159.762 113.986 158.771 113.121 158.771H95.4724C94.6083 158.782 93.9757 159.771 94.207 160.772Z" fill="white"/>
<path opacity="0.5" fill-rule="evenodd" clip-rule="evenodd" d="M95.4733 159.089L95.4515 159.089C94.8245 159.116 94.3417 159.878 94.5088 160.67L98.3628 178.106H110.242L114.088 160.706C114.269 159.878 113.766 159.089 113.121 159.089H95.4733ZM95.4693 158.457H113.122C114.207 158.457 114.967 159.649 114.706 160.841L110.806 178.488C110.773 178.633 110.645 178.736 110.497 178.736H98.1091C97.9609 178.736 97.8312 178.633 97.8002 178.488L93.8985 160.842C93.6258 159.664 94.3842 158.47 95.4693 158.457Z" fill="#333739"/>
<path fill-rule="evenodd" clip-rule="evenodd" d="M49.5708 104.993C40.9528 96.3767 40.9528 82.4051 49.5708 73.7872C58.1889 65.1699 72.1606 65.1699 80.7786 73.7872C89.3967 82.4051 89.3967 96.3767 80.7786 104.993C72.1606 113.611 58.1889 113.611 49.5708 104.993Z" fill="#FFAB00"/>
<path fill-rule="evenodd" clip-rule="evenodd" d="M51.4804 105.236C42.8623 96.6183 42.8623 82.6467 51.4804 74.0294C60.0979 65.4121 74.0707 65.4121 82.6888 74.0294C91.3069 82.6467 91.3069 96.6183 82.6888 105.236C74.0707 113.852 60.0979 113.852 51.4804 105.236Z" fill="#FFAB00"/>
<path fill-rule="evenodd" clip-rule="evenodd" d="M69.4107 71.1346C79.7551 72.4373 87.113 81.9118 85.8086 92.2545C84.5042 102.597 75.0307 109.956 64.6874 108.65C54.3441 107.345 46.9851 97.8736 48.2906 87.5315C49.5967 77.1889 59.0674 69.833 69.4107 71.1317V71.1346ZM64.5395 109.839C69.1543 110.42 73.8282 109.383 77.7649 106.904C81.7004 104.426 84.6554 100.659 86.1257 96.2466C87.5955 91.8338 87.4904 87.0478 85.8278 82.7033C84.164 78.3594 81.0465 74.727 77.0047 72.4243C72.9635 70.1211 68.2483 69.2914 63.6634 70.0741C59.078 70.8584 54.9064 73.2076 51.8596 76.7213C48.8122 80.2361 47.0784 84.6975 46.9521 89.3471C46.8263 93.9972 48.3167 98.5464 51.1684 102.22C52.7828 104.311 54.7962 106.061 57.0904 107.369C59.3857 108.677 61.9181 109.516 64.5395 109.839Z" fill="white"/>
<path fill-rule="evenodd" clip-rule="evenodd" d="M70.4552 95.3351C70.4598 94.9429 70.3949 94.553 70.2634 94.1826C70.1285 93.8403 69.9184 93.5324 69.6491 93.283C69.323 92.9854 68.9562 92.7354 68.5606 92.5421C68.0353 92.2836 67.4916 92.0628 66.9353 91.8828C65.9168 91.5387 64.9167 91.1425 63.939 90.6959C63.1065 90.3237 62.3291 89.8387 61.6281 89.255C60.9995 88.7252 60.4891 88.0704 60.1286 87.3318C59.7715 86.5962 59.5889 85.7189 59.5814 84.7C59.5642 83.8709 59.7186 83.0464 60.035 82.2792C60.3381 81.5556 60.7917 80.9042 61.3646 80.3676C61.9738 79.8045 62.6776 79.3532 63.4447 79.0379C64.3139 78.6795 65.2325 78.4553 66.1688 78.3716L66.1447 75.0345L68.8299 75.0156L68.8546 78.3991C69.7651 78.5024 70.6515 78.7541 71.4794 79.144C72.2441 79.5018 72.9296 80.0086 73.4946 80.6348C74.0595 81.262 74.4935 81.9954 74.7703 82.793C75.0843 83.6966 75.2422 84.6478 75.2359 85.6042L70.3834 85.6398C70.3754 84.3921 70.0918 83.4609 69.5337 82.8457C68.9746 82.2316 68.2305 81.9277 67.301 81.9346C66.8584 81.9272 66.418 82.0017 66.0023 82.1542C65.6648 82.2809 65.3599 82.4799 65.109 82.7379C64.8759 82.9856 64.7008 83.2826 64.5969 83.6066C64.4855 83.9546 64.4316 84.3187 64.4373 84.684C64.435 85.0389 64.4941 85.3927 64.6124 85.7269C64.7376 86.0566 64.9385 86.3514 65.1974 86.5893C65.5258 86.8875 65.8956 87.1369 66.294 87.3301C66.844 87.6013 67.4095 87.841 67.9871 88.0457C69.0756 88.443 70.0642 88.8524 70.9541 89.2739C71.7837 89.654 72.5588 90.1437 73.2569 90.7314C73.8838 91.2647 74.3942 91.9217 74.7565 92.662C75.1142 93.3976 75.2967 94.2697 75.3036 95.2783C75.3231 96.1235 75.167 96.9635 74.8432 97.745C74.536 98.4646 74.0796 99.1108 73.5049 99.6406C72.8912 100.198 72.1793 100.637 71.4071 100.935C70.5281 101.277 69.6061 101.494 68.6663 101.579L68.6886 104.681L66.019 104.7L65.9978 101.613C65.0774 101.528 64.1703 101.331 63.2988 101.024C62.4491 100.73 61.6632 100.279 60.9811 99.6945C60.2847 99.0838 59.7295 98.3293 59.3535 97.4835C58.9447 96.5965 58.7357 95.5272 58.7266 94.2749L63.5779 94.2411C63.5824 94.9796 63.691 95.5931 63.9011 96.0828C64.0842 96.5375 64.3724 96.9411 64.7416 97.2628C65.0866 97.5541 65.4925 97.7639 65.9294 97.8769C66.3704 97.9927 66.8256 98.0506 67.2821 98.0466C67.7517 98.0512 68.219 97.9801 68.6657 97.8339C69.032 97.7129 69.3695 97.5197 69.6606 97.2651C69.9236 97.0306 70.128 96.7376 70.2583 96.4107C70.3949 96.069 70.4615 95.7032 70.4552 95.3351Z" fill="white"/>
<path fill-rule="evenodd" clip-rule="evenodd" d="M91.0695 140.656C87.193 136.78 87.193 130.494 91.0695 126.618C94.9459 122.742 101.232 122.742 105.108 126.618C108.985 130.494 108.985 136.78 105.108 140.656C101.232 144.532 94.9459 144.532 91.0695 140.656Z" fill="#FFAB00"/>
<path fill-rule="evenodd" clip-rule="evenodd" d="M98.3137 143.666C92.8435 143.308 88.6972 138.585 89.0538 133.115C89.4103 127.644 94.1347 123.499 99.6054 123.855C105.076 124.213 109.222 128.937 108.865 134.406C108.509 139.877 103.784 144.022 98.3137 143.666Z" fill="#FFAB00"/>
<path fill-rule="evenodd" clip-rule="evenodd" d="M99.9936 125.428C101.663 125.638 103.231 126.338 104.503 127.44C105.773 128.542 106.689 129.996 107.133 131.619C107.577 133.24 107.531 134.958 107 136.553C106.468 138.149 105.475 139.551 104.146 140.582C102.818 141.614 101.213 142.229 99.5355 142.347C97.8573 142.467 96.1815 142.086 94.7204 141.253C93.2592 140.42 92.0771 139.174 91.325 137.669C90.5729 136.165 90.283 134.471 90.4937 132.802C90.7785 130.566 91.9382 128.534 93.7185 127.151C95.4994 125.768 97.7569 125.149 99.9936 125.428ZM97.8019 142.837C99.8779 143.099 101.98 142.632 103.751 141.518C105.521 140.403 106.852 138.709 107.512 136.724C108.174 134.738 108.127 132.585 107.379 130.631C106.631 128.677 105.228 127.043 103.41 126.006C101.592 124.97 99.4703 124.597 97.408 124.95C95.3458 125.302 93.469 126.359 92.098 127.94C90.727 129.521 89.9468 131.528 89.8911 133.619C89.8343 135.711 90.5043 137.758 91.788 139.41C92.5137 140.351 93.4191 141.139 94.4519 141.726C95.4842 142.315 96.6221 142.692 97.8019 142.837Z" fill="white"/>
<path fill-rule="evenodd" clip-rule="evenodd" d="M100.46 136.309C100.461 136.132 100.432 135.956 100.373 135.79C100.314 135.634 100.219 135.494 100.097 135.38C99.951 135.246 99.7862 135.135 99.6082 135.048C99.3717 134.931 99.1277 134.832 98.878 134.751C98.4198 134.596 97.9703 134.418 97.5299 134.218C97.155 134.05 96.8054 133.831 96.4902 133.568C96.2072 133.331 95.9781 133.036 95.8162 132.703C95.5033 131.982 95.4866 131.165 95.7726 130.431C95.9092 130.106 96.113 129.813 96.3702 129.572C96.6441 129.318 96.9616 129.114 97.3066 128.972C97.6981 128.811 98.1132 128.71 98.5346 128.672L98.5249 127.171L99.7317 127.162L99.7432 128.684C100.152 128.731 100.552 128.844 100.924 129.02C101.267 129.18 101.576 129.407 101.83 129.689C102.085 129.969 102.28 130.299 102.405 130.657C102.544 131.065 102.614 131.492 102.609 131.922L100.426 131.937C100.423 131.377 100.295 130.957 100.044 130.68C99.9171 130.543 99.761 130.435 99.5881 130.364C99.4142 130.293 99.2276 130.262 99.0399 130.272C98.8406 130.27 98.6426 130.304 98.4554 130.374C98.3044 130.431 98.1672 130.52 98.0535 130.636C97.9485 130.747 97.8698 130.881 97.8222 131.027C97.7722 131.183 97.7487 131.347 97.751 131.512C97.7498 131.672 97.7768 131.831 97.8296 131.981C97.8865 132.129 97.976 132.261 98.0926 132.368C98.2407 132.502 98.4066 132.616 98.5857 132.702C98.8332 132.823 99.0875 132.931 99.3476 133.022C99.8362 133.202 100.282 133.385 100.684 133.573C101.057 133.745 101.405 133.965 101.719 134.23C102.002 134.469 102.233 134.765 102.394 135.098C102.708 135.825 102.722 136.646 102.433 137.384C102.295 137.707 102.09 137.998 101.832 138.237C101.555 138.488 101.235 138.685 100.887 138.819C100.494 138.973 100.08 139.07 99.6593 139.108L99.6697 140.504L98.468 140.513L98.4589 139.124C98.0443 139.086 97.6367 138.997 97.244 138.859C96.8622 138.727 96.5086 138.524 96.202 138.259C95.8891 137.985 95.6394 137.646 95.47 137.265C95.2748 136.81 95.1789 136.318 95.1881 135.822L97.3703 135.807C97.3634 136.091 97.4134 136.372 97.5156 136.637C97.5977 136.841 97.7269 137.024 97.8928 137.168C98.0484 137.299 98.2315 137.393 98.4273 137.444C98.6265 137.496 98.8309 137.521 99.0364 137.521C99.2477 137.523 99.4572 137.491 99.6582 137.425C99.8235 137.371 99.9757 137.283 100.106 137.169C100.224 137.063 100.316 136.932 100.375 136.786C100.434 136.633 100.463 136.472 100.46 136.309Z" fill="white"/>
<path opacity="0.5" fill-rule="evenodd" clip-rule="evenodd" d="M31.8892 150.79C31.8013 150.721 31.6739 150.735 31.6038 150.822C31.5338 150.91 31.5476 151.038 31.6354 151.108L31.659 151.128L31.675 151.141C31.7043 151.167 31.7393 151.196 31.7772 151.232L31.7968 151.25C31.9299 151.373 32.0792 151.523 32.24 151.699C32.7016 152.204 33.1637 152.82 33.5966 153.549C34.44 154.973 35.0623 156.645 35.3689 158.577C35.7478 160.967 35.6227 163.634 34.8987 166.587C34.8717 166.696 34.9389 166.806 35.0474 166.833C35.1571 166.859 35.2667 166.793 35.2931 166.684C36.0303 163.679 36.1583 160.957 35.7702 158.514C35.455 156.53 34.8155 154.809 33.9462 153.343C33.4996 152.589 33.0202 151.951 32.5402 151.425C32.3841 151.254 32.2371 151.106 32.1039 150.98L32.0729 150.952C31.9868 150.872 31.9248 150.819 31.8892 150.79Z" fill="#333739"/>
<path opacity="0.5" fill-rule="evenodd" clip-rule="evenodd" d="M33.9742 163.923C34.1297 163.787 34.2044 163.592 34.1843 163.388C33.7571 159.463 31.982 155.423 29.2176 153.941C26.378 152.419 24.4404 156.648 28.3771 160.573C31.3384 163.53 32.9235 164.011 33.5269 164.071C33.6894 164.085 33.8524 164.031 33.9742 163.923Z" stroke="#333739" stroke-width="0.738"/>
<path opacity="0.5" fill-rule="evenodd" clip-rule="evenodd" d="M40.209 163.017C39.0436 163.117 38.1233 163.755 37.4246 164.747C37.1599 165.123 36.9463 165.524 36.7775 165.925C36.7253 166.05 36.6805 166.167 36.6432 166.275L36.63 166.314C36.6059 166.386 36.5892 166.438 36.5818 166.468C36.5513 166.576 36.6151 166.687 36.7236 166.717C36.8275 166.747 36.9354 166.688 36.9699 166.588L36.9825 166.544L36.994 166.507C37.0009 166.488 37.0072 166.467 37.0152 166.444C37.052 166.335 37.0973 166.213 37.1524 166.082C37.3103 165.706 37.5107 165.331 37.757 164.981C38.392 164.079 39.2124 163.51 40.244 163.422C40.3554 163.411 40.4387 163.313 40.4289 163.201C40.4191 163.094 40.3279 163.013 40.2211 163.016L40.209 163.017Z" fill="#333739"/>
<path opacity="0.5" fill-rule="evenodd" clip-rule="evenodd" d="M26.7723 154.144C26.696 154.219 26.6931 154.341 26.7626 154.421L26.7781 154.437L26.8579 154.518L26.9325 154.594C26.967 154.63 27.0031 154.668 27.0427 154.708L27.103 154.771C27.3665 155.047 27.6611 155.363 27.9785 155.714C28.8845 156.716 29.7905 157.796 30.6356 158.91C31.642 160.236 32.4934 161.524 33.1399 162.738C33.3454 163.123 33.5285 163.498 33.6887 163.864C33.7335 163.966 33.8541 164.013 33.9568 163.967C34.0596 163.923 34.1061 163.803 34.0608 163.7C33.8966 163.326 33.7088 162.941 33.4987 162.547C32.8413 161.313 31.9779 160.008 30.9599 158.664C30.1068 157.54 29.1928 156.452 28.28 155.441L28.168 155.318C27.9091 155.034 27.6668 154.773 27.444 154.54L27.3068 154.397C27.2592 154.347 27.2138 154.3 27.1731 154.259L27.0594 154.144C26.9807 154.064 26.8516 154.064 26.7723 154.144Z" fill="#333739"/>
<path opacity="0.5" fill-rule="evenodd" clip-rule="evenodd" d="M28.2973 159.493L28.2279 159.489C28.0924 159.483 27.9764 159.48 27.8823 159.48L27.7904 159.482C27.6779 159.486 27.59 159.579 27.594 159.692C27.5975 159.799 27.6848 159.885 27.7921 159.888L27.8237 159.887C27.9311 159.885 28.0838 159.888 28.2755 159.899C28.5637 159.913 28.8784 159.944 29.2142 159.993C30.1357 160.126 31.0663 160.374 31.9574 160.764C32.0601 160.809 32.1796 160.762 32.2249 160.659C32.2703 160.557 32.2232 160.437 32.1204 160.392C31.1932 159.986 30.2275 159.729 29.2722 159.591C28.9243 159.54 28.597 159.509 28.2973 159.493Z" fill="#333739"/>
<path opacity="0.5" fill-rule="evenodd" clip-rule="evenodd" d="M30.0795 154.601C29.9813 154.657 29.9463 154.78 30.0009 154.878L30.0485 154.964C30.0634 154.993 30.0801 155.023 30.0985 155.057L30.1651 155.181C30.2253 155.294 30.2908 155.418 30.3591 155.551C30.6289 156.072 30.8982 156.626 31.1497 157.185C31.3483 157.628 31.528 158.057 31.6824 158.464L31.7215 158.568C32.1314 159.669 32.3346 160.554 32.2801 161.128C32.2692 161.24 32.3513 161.339 32.4626 161.349C32.5752 161.36 32.6739 161.278 32.6848 161.167C32.7486 160.495 32.5195 159.525 32.0625 158.32C31.9052 157.905 31.7226 157.468 31.5205 157.019C31.2662 156.452 30.9935 155.892 30.7208 155.365L30.6439 155.217C30.5859 155.106 30.5308 155.002 30.4785 154.905L30.405 154.769L30.3562 154.68C30.3011 154.583 30.1771 154.548 30.0795 154.601Z" fill="#333739"/>
<path opacity="0.5" fill-rule="evenodd" clip-rule="evenodd" d="M31.0703 161.939C30.785 161.915 30.5381 161.908 30.3481 161.911L30.2832 161.912C30.1713 161.916 30.0834 162.01 30.0875 162.122C30.0915 162.231 30.1793 162.316 30.2861 162.318L30.3257 162.317C30.5066 162.314 30.7511 162.32 31.0359 162.344C31.4653 162.38 31.8896 162.45 32.2834 162.56C32.6549 162.663 32.9839 162.8 33.26 162.971C33.3553 163.03 33.4811 163.001 33.5396 162.905C33.5988 162.81 33.57 162.685 33.4742 162.626C33.163 162.433 32.799 162.283 32.3937 162.169C31.9717 162.05 31.5233 161.977 31.0703 161.939Z" fill="#333739"/>
<path opacity="0.5" fill-rule="evenodd" clip-rule="evenodd" d="M37.4874 160.336C37.6975 160.485 37.9415 160.505 38.131 160.404C41.8375 158.366 44.9676 154.563 45.0152 150.462C45.0697 146.246 39.8246 145.36 37.9346 151.897C36.5114 156.817 36.8501 159.03 37.1079 159.822C37.182 160.025 37.318 160.214 37.4874 160.336Z" stroke="#333739" stroke-width="0.738"/>
<path opacity="0.5" fill-rule="evenodd" clip-rule="evenodd" d="M43.7489 147.74C43.6955 147.641 43.5721 147.604 43.4734 147.658C41.7344 148.597 40.3307 150.784 39.2111 153.841C38.6835 155.283 38.2535 156.825 37.9142 158.368L37.8752 158.547C37.7862 158.959 37.7093 159.348 37.6438 159.707L37.6163 159.859C37.5881 160.017 37.5646 160.157 37.5445 160.278L37.5215 160.427C37.5055 160.538 37.5818 160.641 37.6932 160.658C37.8046 160.674 37.9073 160.598 37.924 160.486L37.9424 160.367L37.9584 160.269C37.9728 160.18 37.9894 160.082 38.0078 159.976L38.0164 159.93C38.0962 159.485 38.1938 158.989 38.3115 158.455C38.6468 156.929 39.0722 155.403 39.5929 153.981C40.6814 151.008 42.0386 148.894 43.6668 148.014C43.7656 147.961 43.8023 147.838 43.7489 147.74Z" fill="#333739"/>
<path opacity="0.5" fill-rule="evenodd" clip-rule="evenodd" d="M44.9899 151.008C44.944 150.906 44.8234 150.861 44.7212 150.907C43.891 151.279 42.9426 151.744 42.0206 152.256L41.9023 152.322C40.6048 153.051 39.6064 153.746 39.0306 154.379C38.9548 154.462 38.9605 154.592 39.0438 154.666C39.127 154.742 39.2556 154.735 39.3314 154.653C39.8871 154.042 40.8993 153.344 42.2181 152.611C43.1286 152.105 44.0679 151.646 44.8883 151.276C44.9905 151.231 45.0358 151.111 44.9899 151.008Z" fill="#333739"/>
<path opacity="0.5" fill-rule="evenodd" clip-rule="evenodd" d="M38.175 151.64C38.063 151.629 37.9643 151.711 37.9539 151.822C37.8649 152.766 37.8201 153.678 37.8413 154.475L37.8448 154.574C37.8798 155.597 38.0257 156.335 38.3261 156.729C38.3944 156.818 38.5219 156.836 38.6115 156.767C38.7005 156.7 38.7178 156.573 38.65 156.483C38.1992 155.891 38.1498 154.086 38.3582 151.86C38.3686 151.749 38.2865 151.65 38.175 151.64Z" fill="#333739"/>
<path opacity="0.5" fill-rule="evenodd" clip-rule="evenodd" d="M43.283 155.695C43.2118 155.607 43.0838 155.594 42.9965 155.665C42.5263 156.045 41.8316 156.448 40.9739 156.857C40.3722 157.145 39.7263 157.418 39.0799 157.668L38.9685 157.711C38.8215 157.768 38.682 157.82 38.5517 157.867L38.3754 157.931L38.221 157.985C38.1148 158.022 38.058 158.137 38.0941 158.243C38.1291 158.346 38.2382 158.402 38.3416 158.374L38.3772 158.361L38.4627 158.331C38.4868 158.323 38.5115 158.313 38.5385 158.304L38.6918 158.249C38.8565 158.188 39.0368 158.121 39.2274 158.047C39.8819 157.793 40.537 157.516 41.149 157.224L41.2655 157.167C42.0969 156.765 42.7749 156.367 43.2525 155.98C43.3398 155.91 43.3536 155.782 43.283 155.695Z" fill="#333739"/>
<path opacity="0.5" fill-rule="evenodd" clip-rule="evenodd" d="M39.8079 162.165C39.7304 161.594 39.8183 161.112 40.0038 161.087C40.1893 161.062 40.4023 161.504 40.4793 162.074C40.5574 162.644 40.4695 163.127 40.284 163.153C40.0985 163.177 39.8855 162.736 39.8079 162.165Z" stroke="#333739" stroke-width="0.738"/>
<path opacity="0.5" fill-rule="evenodd" clip-rule="evenodd" d="M40.2825 163.147C40.1734 163.014 40.4123 162.637 40.8166 162.304C41.2204 161.971 41.6373 161.808 41.747 161.94C41.8561 162.073 41.6172 162.451 41.2135 162.784C40.8092 163.117 40.3922 163.279 40.2825 163.147Z" stroke="#333739" stroke-width="0.738"/>
<path opacity="0.5" fill-rule="evenodd" clip-rule="evenodd" d="M39.2064 162.949C38.7023 162.686 38.3659 162.335 38.4543 162.166C38.5427 161.997 39.0233 162.074 39.5273 162.338C40.0308 162.601 40.3673 162.952 40.2789 163.121C40.1904 163.29 39.7099 163.213 39.2064 162.949Z" stroke="#333739" stroke-width="0.738"/>
<path opacity="0.5" fill-rule="evenodd" clip-rule="evenodd" d="M40.9618 163.873C40.5024 163.621 40.1969 163.295 40.2796 163.144C40.3623 162.993 40.8016 163.075 41.2611 163.326C41.7211 163.578 42.0266 163.904 41.9434 164.055C41.8607 164.206 41.4207 164.124 40.9618 163.873Z" stroke="#333739" stroke-width="0.738"/>
<path opacity="0.5" fill-rule="evenodd" clip-rule="evenodd" d="M39.4864 164.883C39.3297 164.811 39.3808 164.364 39.5996 163.886C39.8184 163.406 40.1233 163.075 40.2801 163.146C40.4369 163.218 40.3858 163.664 40.167 164.144C39.9482 164.623 39.6432 164.954 39.4864 164.883Z" stroke="#333739" stroke-width="0.738"/>
<path fill-rule="evenodd" clip-rule="evenodd" d="M29.5456 167.19L32.0533 178.532H40.0146L42.5223 167.19C42.6642 166.541 42.2577 165.904 41.7019 165.904H30.3591C29.8034 165.911 29.3969 166.547 29.5456 167.19Z" fill="white"/>
<path opacity="0.5" fill-rule="evenodd" clip-rule="evenodd" d="M30.3558 166.107H30.342C29.939 166.125 29.6284 166.614 29.7358 167.123L32.2131 178.329H39.8482L42.3198 167.146C42.4364 166.614 42.1131 166.107 41.698 166.107H30.3558ZM30.3531 165.703H41.6982C42.3958 165.703 42.8849 166.469 42.7167 167.235L40.2101 178.577C40.1889 178.67 40.1068 178.737 40.0115 178.737H32.0496C31.9543 178.737 31.8711 178.67 31.851 178.577L29.3438 167.235C29.1681 166.479 29.6556 165.711 30.3531 165.703Z" fill="#333739"/>
<path fill-rule="evenodd" clip-rule="evenodd" d="M25.8655 150.939C25.1323 147.494 27.3329 144.105 30.781 143.369C34.228 142.633 37.6176 144.827 38.3513 148.272C39.0845 151.715 36.8833 155.105 33.4363 155.842C29.9882 156.578 26.5986 154.383 25.8655 150.939Z" fill="#FFAB00"/>
<path fill-rule="evenodd" clip-rule="evenodd" d="M28.719 155.091C25.8944 152.988 25.3122 148.992 27.4198 146.167C29.528 143.342 33.5267 142.757 36.3519 144.86C39.1765 146.963 39.7587 150.958 37.6511 153.783C35.5435 156.608 31.5442 157.194 28.719 155.091Z" fill="#FFAB00"/>
<path fill-rule="evenodd" clip-rule="evenodd" d="M36.0112 145.843C36.8379 146.539 37.4384 147.465 37.7381 148.503C38.0378 149.541 38.0223 150.645 37.6939 151.674C37.3655 152.704 36.7397 153.615 35.894 154.289C35.0484 154.964 34.0224 155.373 32.9448 155.465C31.8672 155.557 30.7861 155.328 29.84 154.807C28.8933 154.285 28.1228 153.494 27.6268 152.535C27.1301 151.576 26.9298 150.49 27.0509 149.416C27.1721 148.342 27.609 147.328 28.3065 146.502C29.2429 145.395 30.58 144.704 32.0245 144.581C33.469 144.457 34.9025 144.911 36.0112 145.843ZM28.7342 154.466C29.7624 155.332 31.0594 155.815 32.4045 155.832C33.7497 155.849 35.0598 155.4 36.1116 154.56C37.164 153.721 37.8919 152.544 38.1727 151.228C38.4534 149.913 38.2697 148.542 37.6514 147.348C37.0342 146.154 36.0209 145.212 34.7854 144.682C33.5493 144.152 32.168 144.066 30.8745 144.44C29.5822 144.814 28.4586 145.624 27.6962 146.732C26.9326 147.84 26.5772 149.178 26.6915 150.517C26.7535 151.278 26.9659 152.019 27.3167 152.697C27.6675 153.374 28.1492 153.976 28.7342 154.466Z" fill="#FFAB00"/>
<path fill-rule="evenodd" clip-rule="evenodd" d="M33.9278 150.795C33.8669 150.7 33.7889 150.615 33.6993 150.545C33.6126 150.482 33.5127 150.44 33.4071 150.422C33.2813 150.4 33.1533 150.397 33.027 150.413C32.8588 150.432 32.6923 150.465 32.5293 150.508C32.2278 150.584 31.923 150.645 31.6158 150.69C31.3552 150.732 31.0899 150.736 30.8276 150.704C30.5916 150.674 30.3648 150.595 30.161 150.473C29.7402 150.193 29.4451 149.758 29.3423 149.263C29.3016 149.039 29.309 148.811 29.3636 148.591C29.4221 148.359 29.522 148.138 29.6587 147.941C29.8131 147.716 30.0014 147.517 30.2161 147.349L29.6851 146.544L30.3327 146.117L30.8718 146.934C31.1089 146.817 31.3632 146.738 31.6262 146.703C31.8673 146.669 32.113 146.684 32.349 146.747C32.5844 146.809 32.8048 146.919 32.9977 147.068C33.2159 147.239 33.4025 147.446 33.5506 147.679L32.3794 148.45C32.1813 148.149 31.9655 147.967 31.733 147.906C31.6164 147.876 31.4941 147.872 31.3764 147.894C31.2582 147.916 31.1462 147.965 31.048 148.036C30.9401 148.105 30.8454 148.192 30.769 148.295C30.7076 148.379 30.6645 148.474 30.6439 148.576C30.6266 148.673 30.6307 148.773 30.6559 148.868C30.684 148.97 30.7283 149.067 30.7874 149.155C30.8431 149.241 30.9131 149.317 30.9946 149.38C31.0767 149.441 31.1715 149.48 31.2719 149.497C31.3982 149.518 31.5274 149.521 31.6543 149.505C31.83 149.484 32.0051 149.453 32.1773 149.411C32.504 149.338 32.8083 149.281 33.0907 149.242C33.352 149.204 33.6166 149.201 33.879 149.235C34.115 149.265 34.3429 149.344 34.5473 149.467C34.971 149.749 35.2661 150.187 35.3683 150.686C35.4073 150.908 35.3987 151.137 35.343 151.356C35.281 151.588 35.1776 151.806 35.037 152C34.8785 152.22 34.6897 152.417 34.4767 152.585L34.9704 153.334L34.3257 153.758L33.8342 153.012C33.5977 153.137 33.3468 153.231 33.0867 153.294C32.8347 153.356 32.5729 153.369 32.3145 153.334C32.0499 153.296 31.7967 153.2 31.5716 153.053C31.3075 152.876 31.0831 152.645 30.9148 152.374L32.086 151.604C32.1813 151.759 32.3071 151.893 32.4552 152.001C32.5712 152.082 32.7044 152.135 32.8444 152.155C32.9742 152.172 33.1057 152.158 33.2291 152.118C33.3548 152.076 33.4737 152.018 33.5845 151.946C33.6993 151.873 33.8009 151.783 33.8865 151.677C33.9559 151.59 34.0082 151.49 34.038 151.383C34.0644 151.285 34.0685 151.182 34.0484 151.082C34.0271 150.979 33.9864 150.882 33.9278 150.795Z" fill="white"/>
<path opacity="0.4" fill-rule="evenodd" clip-rule="evenodd" d="M71.2808 134.488C71.2808 134.426 70.9427 127.468 74.3047 125.866L74.0676 125.639C72.5324 126.176 70.8204 127.839 70.1366 130.186C69.6256 131.926 70.0155 132.313 70.0132 132.379L71.2808 134.488Z" fill="#333739"/>
<path opacity="0.4" fill-rule="evenodd" clip-rule="evenodd" d="M80.0575 120.705C80.0575 120.705 80.441 124.287 78.5671 125.809C76.692 127.33 73.2663 126.217 73.2663 126.217C73.2663 126.217 72.8822 122.636 74.7584 121.116C76.634 119.595 80.0575 120.705 80.0575 120.705Z" fill="#333739"/>
<path opacity="0.4" fill-rule="evenodd" clip-rule="evenodd" d="M71.8509 147.54C71.9141 147.19 73.1272 138.996 70.0241 129.863C67.0438 121.088 68.6938 113.648 68.7065 113.574H66.5145C66.4576 113.892 66.3095 121.194 68.6416 131.202C70.7429 140.206 66.8182 147.54 67.6541 147.54H71.8509Z" fill="#333739"/>
<path opacity="0.4" fill-rule="evenodd" clip-rule="evenodd" d="M67.2492 123.345C67.2377 123.299 66.1917 117.295 63.3751 116.611C64.6341 116.775 66.233 117.677 67.1281 119.356C67.7929 120.602 67.5592 120.956 67.5713 121.005L67.2492 123.345Z" fill="#333739"/>
<path opacity="0.4" fill-rule="evenodd" clip-rule="evenodd" d="M78.5177 107.419C78.5177 107.419 81.556 103.131 85.0058 101.871C85.0058 101.871 83.7152 111.931 85.6023 112.056C87.4883 112.18 86.231 100.742 86.231 100.742C86.231 100.742 95.2188 95.7539 98.8673 95.8921C98.8673 95.8921 93.7014 105.943 95.5598 105.599C97.4194 105.255 103.281 95.0452 103.281 95.0452C103.281 95.0452 112.66 92.7351 114.511 98.2636C116.362 103.792 114.068 106.746 112.683 107.18C111.299 107.614 102.28 108.024 102.582 109.181C102.883 110.338 109.081 111.854 112.415 110.602C112.415 110.602 109.211 120.068 104.267 119.888C99.3231 119.707 97.6232 116.754 94.566 116.697C91.5077 116.641 89.3324 117.592 90.9026 118.321C92.4722 119.051 97.5899 118.199 100.171 120.144C102.752 122.089 104.817 123.261 100.306 124.465C95.7958 125.669 88.989 124.31 85.7579 122.157C85.7487 122.151 83.113 121.941 81.0387 134.142C80.2384 138.849 80.8532 145.823 80.8532 145.823L79.1785 145.567C78.2514 131.892 83.187 120.522 83.187 120.522C83.187 120.522 74.8118 114.335 78.5177 107.419Z" fill="#333739"/>
<path opacity="0.5" fill-rule="evenodd" clip-rule="evenodd" d="M78.5177 107.419C78.5177 107.419 81.556 103.131 85.0058 101.871C85.0058 101.871 83.7152 111.931 85.6023 112.056C87.4883 112.18 86.231 100.742 86.231 100.742C86.231 100.742 95.2188 95.7539 98.8673 95.8921C98.8673 95.8921 93.7014 105.943 95.5598 105.599C97.4194 105.255 103.281 95.0452 103.281 95.0452C103.281 95.0452 112.66 92.7351 114.511 98.2636C116.362 103.792 114.068 106.746 112.683 107.18C111.299 107.614 102.28 108.024 102.582 109.181C102.883 110.338 109.081 111.854 112.415 110.602C112.415 110.602 109.211 120.068 104.267 119.888C99.3231 119.707 97.6232 116.754 94.566 116.697C91.5077 116.641 89.3324 117.592 90.9026 118.321C92.4722 119.051 97.5899 118.199 100.171 120.144C102.752 122.089 104.817 123.261 100.306 124.465C95.7958 125.669 88.989 124.31 85.7579 122.157C85.7487 122.151 83.113 121.941 81.0387 134.142C80.2384 138.849 80.8532 145.823 80.8532 145.823L79.1785 145.567C78.2513 131.892 83.187 120.522 83.187 120.522C83.187 120.522 74.8118 114.335 78.5177 107.419Z" stroke="#333739" stroke-width="1.149"/>
<path opacity="0.4" fill-rule="evenodd" clip-rule="evenodd" d="M23.5864 103.904C23.5864 103.904 49.1811 115.515 51.1325 125.471C51.1325 125.471 50.5188 129.759 52.6172 134.994L52.4019 136.891C52.4019 136.891 50.3494 130.124 48.9314 129.068C48.9279 129.068 55.8202 121.391 23.5864 103.904Z" fill="#333739"/>
<path opacity="0.4" fill-rule="evenodd" clip-rule="evenodd" d="M52.6146 134.995C52.6146 134.995 56.0076 141.68 52.8144 148.989L51.7902 148.586C51.7902 148.586 53.7582 140.36 52.0893 135.923C50.4209 131.485 52.6146 134.995 52.6146 134.995Z" fill="#333739"/>
<path opacity="0.4" fill-rule="evenodd" clip-rule="evenodd" d="M89.5999 79.547C85.4651 83.946 87.6158 92.6854 87.6158 92.6854C87.6158 92.6854 96.4721 94.2909 100.611 89.8902C104.75 85.4889 102.596 76.7501 102.596 76.7501C102.596 76.7501 93.7364 75.1457 89.5999 79.547Z" fill="#333739"/>
<path opacity="0.5" fill-rule="evenodd" clip-rule="evenodd" d="M89.5999 79.547C85.4651 83.946 87.6158 92.6854 87.6158 92.6854C87.6158 92.6854 96.4721 94.2909 100.611 89.8902C104.75 85.489 102.596 76.7501 102.596 76.7501C102.596 76.7501 93.7364 75.1457 89.5999 79.547Z" stroke="#333739" stroke-width="1.149"/>
<path opacity="0.1" fill-rule="evenodd" clip-rule="evenodd" d="M89.6009 79.547C85.4661 83.946 87.6168 92.6854 87.6168 92.6854L102.594 76.7501C102.594 76.7501 93.7374 75.1457 89.6009 79.547Z" fill="#333739"/>
<path opacity="0.4" fill-rule="evenodd" clip-rule="evenodd" d="M36.2679 96.3082C38.4254 98.8081 43.3014 98.1356 43.3014 98.1356C43.3014 98.1356 44.6787 93.4109 42.5206 90.9098C40.3625 88.4093 35.4859 89.0825 35.4859 89.0825C35.4859 89.0825 34.1086 93.8077 36.2679 96.3082Z" fill="#333739"/>
<path opacity="0.5" fill-rule="evenodd" clip-rule="evenodd" d="M36.2679 96.3082C38.4254 98.8081 43.3014 98.1356 43.3014 98.1356C43.3014 98.1356 44.6787 93.4109 42.5206 90.9098C40.3625 88.4093 35.4859 89.0825 35.4859 89.0825C35.4859 89.0825 34.1086 93.8077 36.2679 96.3082Z" stroke="#333739" stroke-width="1.149"/>
<path opacity="0.4" fill-rule="evenodd" clip-rule="evenodd" d="M61.7719 118.3C63.2193 118.701 64.8945 117.217 64.8945 117.217C64.8945 117.217 64.2228 115.083 62.776 114.682C61.3293 114.281 59.6551 115.765 59.6551 115.765C59.6551 115.765 60.3246 117.899 61.7719 118.3Z" fill="#333739"/>
<path opacity="0.4" fill-rule="evenodd" clip-rule="evenodd" d="M87.3166 71.3863C86.3251 73.7394 88.4614 76.8838 88.4614 76.8838C88.4614 76.8838 92.2064 76.2176 93.1985 73.8667C94.19 71.5153 92.0531 68.3691 92.0531 68.3691C92.0531 68.3691 88.3087 69.0348 87.3166 71.3863Z" fill="#333739"/>
<path opacity="0.5" fill-rule="evenodd" clip-rule="evenodd" d="M87.3166 71.3863C86.3251 73.7394 88.4614 76.8838 88.4614 76.8838C88.4614 76.8838 92.2064 76.2176 93.1985 73.8667C94.19 71.5153 92.0531 68.3691 92.0531 68.3691C92.0531 68.3691 88.3087 69.0348 87.3166 71.3863Z" stroke="#333739" stroke-width="1.149"/>
<path fill-rule="evenodd" clip-rule="evenodd" d="M50.6004 148.294L57.2527 178.633H78.3801L85.0336 148.294C85.4108 146.556 84.3326 144.854 82.8577 144.854H52.7579C51.2836 144.872 50.2048 146.574 50.6004 148.294Z" fill="white"/>
<path opacity="0.5" fill-rule="evenodd" clip-rule="evenodd" d="M52.5525 145.254L52.5163 145.255C51.437 145.302 50.6074 146.61 50.8944 147.975L57.522 177.957H77.952L84.5664 148.035C84.8781 146.612 84.0123 145.254 82.9037 145.254H52.5525ZM52.5466 144.168H82.9047C84.7711 144.168 86.079 146.217 85.63 148.268L78.9215 178.618C78.8664 178.867 78.6453 179.044 78.3904 179.044H57.0861C56.8306 179.044 56.6096 178.867 56.5545 178.618L49.8459 148.269C49.3763 146.244 50.6795 144.191 52.5466 144.168Z" fill="#FFAB00"/>
<path fill-rule="evenodd" clip-rule="evenodd" d="M711.541 173.537C711.569 173.537 711.596 173.531 711.621 173.521C711.646 173.51 711.669 173.496 711.688 173.476C711.708 173.457 711.723 173.434 711.733 173.408C711.743 173.383 711.749 173.357 711.749 173.33V97.4401C711.75 97.412 711.746 97.3833 711.737 97.3564C711.727 97.33 711.712 97.3048 711.693 97.2847C711.673 97.2635 711.65 97.2468 711.624 97.236C711.598 97.2245 711.569 97.2188 711.541 97.2188C711.513 97.2188 711.484 97.2245 711.458 97.236C711.433 97.2468 711.408 97.2635 711.39 97.2847C711.369 97.3048 711.354 97.33 711.345 97.3564C711.336 97.3833 711.332 97.412 711.333 97.4401V173.33C711.333 173.385 711.356 173.438 711.395 173.477C711.434 173.514 711.487 173.537 711.541 173.537Z" fill="#FFAB00"/>
<path opacity="0.5" fill-rule="evenodd" clip-rule="evenodd" d="M715.72 77.5175C715.193 80.1556 714.125 82.3121 713.018 83.2094C712.34 81.9566 712.18 79.557 712.706 76.9177C713.23 74.2784 714.299 72.1231 715.407 71.2246C716.084 72.478 716.244 74.8799 715.72 77.5175Z" fill="#FFAB00"/>
<path opacity="0.5" fill-rule="evenodd" clip-rule="evenodd" d="M710.661 102.909C710.134 105.546 709.066 107.702 707.961 108.601C707.283 107.347 707.121 104.948 707.647 102.308C708.173 99.6679 709.241 97.5131 710.349 96.6152C711.023 97.8686 711.187 100.269 710.661 102.909Z" fill="#FFAB00"/>
<path opacity="0.5" fill-rule="evenodd" clip-rule="evenodd" d="M699.357 85.893C701.995 86.4188 704.152 87.4866 705.051 88.5939C703.796 89.2717 701.398 89.4317 698.758 88.9058C696.118 88.3806 693.962 87.3122 693.065 86.2055C694.318 85.5277 696.719 85.366 699.357 85.893Z" fill="#FFAB00"/>
<path opacity="0.5" fill-rule="evenodd" clip-rule="evenodd" d="M724.748 90.9506C727.387 91.4776 729.543 92.5442 730.441 93.6498C729.188 94.3288 726.788 94.4899 724.149 93.9635C721.509 93.4382 719.353 92.3693 718.456 91.2631C719.713 90.5819 722.115 90.4236 724.748 90.9506Z" fill="#FFAB00"/>
<path opacity="0.5" fill-rule="evenodd" clip-rule="evenodd" d="M705.815 78.3297C707.307 80.567 708.078 82.8473 707.932 84.2647C706.566 83.8576 704.753 82.2722 703.259 80.0366C701.767 77.8016 700.996 75.5184 701.144 74.1016C702.509 74.5081 704.321 76.0935 705.815 78.3297Z" fill="#FFAB00"/>
<path opacity="0.5" fill-rule="evenodd" clip-rule="evenodd" d="M720.194 99.8615C721.686 102.097 722.457 104.377 722.31 105.794C720.944 105.387 719.133 103.802 717.638 101.567C716.143 99.3311 715.376 97.0496 715.523 95.6328C716.888 96.0388 718.7 97.623 720.194 99.8615Z" fill="#FFAB00"/>
<path opacity="0.5" fill-rule="evenodd" clip-rule="evenodd" d="M700.168 95.8198C702.405 94.3273 704.685 93.5556 706.102 93.7035C705.695 95.0693 704.109 96.8812 701.873 98.3743C699.638 99.8691 697.356 100.638 695.939 100.49C696.346 99.1254 697.935 97.3135 700.168 95.8198Z" fill="#FFAB00"/>
<path opacity="0.5" fill-rule="evenodd" clip-rule="evenodd" d="M721.698 81.4416C723.936 79.9491 726.216 79.1791 727.633 79.3264C727.226 80.6922 725.64 82.5035 723.404 83.9978C721.169 85.4908 718.887 86.2603 717.469 86.1135C717.876 84.7477 719.461 82.9359 721.698 81.4416Z" fill="#FFAB00"/>
<path opacity="0.5" fill-rule="evenodd" clip-rule="evenodd" d="M710.949 77.3504C711.406 79.9077 711.206 82.2236 710.528 83.4197C709.475 82.5326 708.485 80.4358 708.028 77.8739C707.571 75.3115 707.771 73.0013 708.45 71.8047C709.5 72.6917 710.487 74.7943 710.949 77.3504Z" fill="#FFAB00"/>
<path opacity="0.5" fill-rule="evenodd" clip-rule="evenodd" d="M715.351 101.956C715.808 104.513 715.608 106.828 714.93 108.026C713.876 107.138 712.888 105.041 712.43 102.479C711.971 99.9175 712.174 97.6074 712.851 96.4102C713.902 97.3046 714.894 99.4032 715.351 101.956Z" fill="#FFAB00"/>
<path opacity="0.5" fill-rule="evenodd" clip-rule="evenodd" d="M699.196 90.6409C701.753 90.1839 704.069 90.3846 705.266 91.0624C704.378 92.1158 702.277 93.105 699.719 93.5626C697.161 94.0196 694.847 93.8189 693.649 93.1411C694.537 92.0894 696.639 91.0985 699.196 90.6409Z" fill="#FFAB00"/>
<path opacity="0.5" fill-rule="evenodd" clip-rule="evenodd" d="M723.805 86.2424C726.362 85.7854 728.677 85.9861 729.875 86.6645C728.987 87.7179 726.886 88.7059 724.328 89.1647C721.771 89.6234 719.456 89.4204 718.258 88.7426C719.146 87.6881 721.248 86.6966 723.805 86.2424Z" fill="#FFAB00"/>
<path opacity="0.5" fill-rule="evenodd" clip-rule="evenodd" d="M702.251 81.9334C704.391 83.3537 705.909 85.0802 706.301 86.3829C704.947 86.5274 702.768 85.802 700.627 84.3783C698.486 82.9541 696.969 81.2316 696.575 79.9283C697.936 79.7833 700.112 80.512 702.251 81.9334Z" fill="#FFAB00"/>
<path opacity="0.5" fill-rule="evenodd" clip-rule="evenodd" d="M722.855 95.6047C724.995 97.0262 726.513 98.7515 726.906 100.055C725.553 100.199 723.373 99.4739 721.231 98.0502C719.09 96.6265 717.573 94.9024 717.181 93.6002C718.534 93.4551 720.714 94.1833 722.855 95.6047Z" fill="#FFAB00"/>
<path opacity="0.5" fill-rule="evenodd" clip-rule="evenodd" d="M703.724 99.4214C705.144 97.2822 706.871 95.7633 708.173 95.3711C708.317 96.7231 707.592 98.9048 706.169 101.044C704.745 103.185 703.021 104.703 701.719 105.095C701.573 103.743 702.302 101.562 703.724 99.4214Z" fill="#FFAB00"/>
<path opacity="0.5" fill-rule="evenodd" clip-rule="evenodd" d="M717.395 78.8199C718.816 76.6806 720.542 75.1617 721.845 74.7695C721.99 76.1233 721.265 78.3033 719.84 80.4431C718.417 82.583 716.693 84.1019 715.39 84.4952C715.246 83.142 715.974 80.9609 717.395 78.8199Z" fill="#FFAB00"/>
<path opacity="0.5" fill-rule="evenodd" clip-rule="evenodd" d="M713.599 125.907V122.148C713.599 119.634 714.423 117.189 715.944 115.187C717.466 113.186 719.603 111.738 722.025 111.067L728.09 109.723L725.07 117.916C724.542 119.445 723.55 120.772 722.233 121.71C720.915 122.65 719.338 123.154 717.72 123.154C716.861 123.154 716.019 123.402 715.297 123.869C714.576 124.336 714.005 125.002 713.653 125.786L713.599 125.907Z" stroke="#FFAB00" stroke-width="1.149"/>
<path opacity="0.5" fill-rule="evenodd" clip-rule="evenodd" d="M708.898 137.255V133.852C708.898 127.045 703.983 121.529 697.921 121.529H692.735C692.735 125.699 694.392 129.698 697.341 132.646C700.289 135.595 704.289 137.251 708.459 137.251L708.898 137.255Z" stroke="#FFAB00" stroke-width="1.149"/>
<path fill-rule="evenodd" clip-rule="evenodd" d="M708.901 137.383C708.956 137.383 709.009 137.361 709.048 137.322C709.087 137.283 709.109 137.23 709.109 137.175V133.772C709.109 126.863 704.092 121.242 697.924 121.242H692.738C692.683 121.242 692.63 121.264 692.591 121.303C692.552 121.341 692.531 121.395 692.531 121.449C692.531 121.505 692.552 121.557 692.591 121.596C692.63 121.635 692.683 121.657 692.738 121.657H697.924C703.863 121.657 708.694 127.092 708.694 133.769V137.171C708.693 137.199 708.698 137.226 708.709 137.252C708.719 137.277 708.734 137.301 708.753 137.32C708.772 137.34 708.795 137.356 708.821 137.366C708.846 137.378 708.873 137.383 708.901 137.383Z" fill="white"/>
<path fill-rule="evenodd" clip-rule="evenodd" d="M711.541 146.43C711.55 146.431 711.559 146.431 711.568 146.43C711.595 146.427 711.621 146.417 711.645 146.404C711.668 146.39 711.688 146.371 711.705 146.35C711.722 146.328 711.732 146.303 711.74 146.277C711.746 146.251 711.748 146.224 711.744 146.197C711.74 146.163 711.271 142.774 709.644 138.633C708.139 134.801 705.309 129.515 700.367 126.081C700.344 126.066 700.319 126.055 700.293 126.049C700.266 126.044 700.239 126.043 700.212 126.048C700.185 126.053 700.159 126.063 700.136 126.077C700.113 126.093 700.094 126.112 700.078 126.134C700.062 126.156 700.052 126.182 700.046 126.208C700.04 126.235 700.04 126.262 700.045 126.289C700.049 126.316 700.06 126.341 700.074 126.364C700.089 126.387 700.108 126.407 700.13 126.422C704.984 129.791 707.767 134.996 709.253 138.771C710.863 142.871 711.328 146.216 711.332 146.25C711.339 146.299 711.364 146.346 711.402 146.38C711.441 146.412 711.49 146.431 711.541 146.43Z" fill="#FFAB00"/>
<path fill-rule="evenodd" clip-rule="evenodd" d="M711.539 137.598H711.546C711.601 137.596 711.653 137.572 711.691 137.532C711.728 137.491 711.748 137.438 711.746 137.383C711.746 137.345 711.629 133.433 712.852 128.744C713.568 125.996 714.599 123.521 715.914 121.389C717.554 118.729 719.643 116.597 722.127 115.053C722.151 115.039 722.172 115.021 722.189 114.998C722.205 114.975 722.218 114.95 722.224 114.924C722.231 114.896 722.232 114.868 722.228 114.841C722.224 114.814 722.214 114.787 722.199 114.763C722.184 114.74 722.165 114.72 722.141 114.704C722.119 114.688 722.094 114.677 722.066 114.671C722.039 114.665 722.011 114.665 721.984 114.67C721.957 114.675 721.93 114.686 721.907 114.701C719.368 116.282 717.231 118.46 715.556 121.177C714.22 123.346 713.173 125.862 712.447 128.652C711.211 133.397 711.33 137.358 711.331 137.398C711.334 137.452 711.356 137.502 711.395 137.54C711.434 137.577 711.485 137.598 711.539 137.598Z" fill="#FFAB00"/>
<path opacity="0.5" fill-rule="evenodd" clip-rule="evenodd" d="M696.578 180.934V181.001H753V180.713C752.726 179.979 752.3 179.312 751.749 178.755C751.198 178.199 750.535 177.765 749.803 177.485C749.073 177.205 748.29 177.082 747.508 177.127C746.726 177.171 745.962 177.382 745.268 177.744C744.883 176.576 744.119 175.569 743.097 174.884C742.076 174.198 740.855 173.873 739.628 173.959C738.4 174.046 737.236 174.539 736.321 175.361C735.406 176.183 734.791 177.287 734.573 178.498H730.87C730.49 176.578 728.32 175.694 726.399 175.694C726.142 175.693 725.886 175.712 725.632 175.75C725.675 175.473 725.696 175.193 725.696 174.911C725.696 171.364 722.311 168.486 718.135 168.486C714.316 168.486 711.155 170.894 710.646 174.02C709.855 173.492 708.937 173.182 707.988 173.123C707.038 173.063 706.089 173.256 705.238 173.681C704.387 174.106 703.663 174.749 703.14 175.543C702.618 176.339 702.314 177.257 702.261 178.208C701.646 177.831 700.937 177.633 700.215 177.636C698.206 177.636 696.578 179.112 696.578 180.934Z" stroke="#FFAB00" stroke-width="1.149"/>
<path fill-rule="evenodd" clip-rule="evenodd" d="M711.757 97.5995C707.52 97.5995 704.085 94.165 704.085 89.9283C704.085 85.691 707.52 82.2559 711.757 82.2559C715.994 82.2559 719.43 85.691 719.43 89.9283C719.43 94.165 715.994 97.5995 711.757 97.5995Z" fill="white"/>
<path opacity="0.6" fill-rule="evenodd" clip-rule="evenodd" d="M705.562 85.3984V94.4532C705.485 94.3495 705.411 94.2434 705.34 94.1339V85.7155C705.411 85.6094 705.485 85.5034 705.562 85.3984Z" fill="#FFAB00"/>
<path opacity="0.6" fill-rule="evenodd" clip-rule="evenodd" d="M707.139 83.8008V96.0608C707.066 96.0052 706.992 95.9461 706.919 95.8859V83.9745C706.992 83.9149 707.064 83.8587 707.139 83.8008Z" fill="#FFAB00"/>
<path opacity="0.6" fill-rule="evenodd" clip-rule="evenodd" d="M708.718 82.8809V96.9734C708.643 96.9413 708.569 96.908 708.497 96.873V82.9812C708.569 82.9445 708.643 82.9135 708.718 82.8809Z" fill="#FFAB00"/>
<path opacity="0.6" fill-rule="evenodd" clip-rule="evenodd" d="M710.296 82.3965V97.4621C710.222 97.4483 710.149 97.4328 710.075 97.4168V82.4424C710.149 82.4257 710.218 82.4102 710.296 82.3965Z" fill="#FFAB00"/>
<path opacity="0.6" fill-rule="evenodd" clip-rule="evenodd" d="M711.875 82.2605V97.6002H711.652V82.2605H711.755C711.788 82.2605 711.835 82.2588 711.875 82.2605Z" fill="#FFAB00"/>
<path opacity="0.6" fill-rule="evenodd" clip-rule="evenodd" d="M713.456 82.448V97.4144C713.384 97.431 713.309 97.4459 713.235 97.4602V82.4004C713.305 82.4142 713.384 82.4302 713.456 82.448Z" fill="#FFAB00"/>
<path opacity="0.6" fill-rule="evenodd" clip-rule="evenodd" d="M715.034 82.9899V96.864C714.962 96.899 714.888 96.9328 714.813 96.9649V82.8867C714.886 82.9205 714.96 82.9544 715.034 82.9899Z" fill="#FFAB00"/>
<path opacity="0.6" fill-rule="evenodd" clip-rule="evenodd" d="M716.612 83.9868V95.8661C716.541 95.9263 716.467 95.9848 716.391 96.041V83.8125C716.466 83.8727 716.54 83.9272 716.612 83.9868Z" fill="#FFAB00"/>
<path opacity="0.6" fill-rule="evenodd" clip-rule="evenodd" d="M718.186 85.7494V94.1087C718.117 94.2194 718.044 94.3272 717.966 94.4298V85.4277C718.042 85.5338 718.116 85.641 718.186 85.7494Z" fill="#FFAB00"/>
<path opacity="0.6" fill-rule="evenodd" clip-rule="evenodd" d="M716.332 96.0859C716.229 96.1628 716.125 96.2379 716.019 96.3078H707.496C707.39 96.2379 707.286 96.1628 707.183 96.0859H716.332Z" fill="#FFAB00"/>
<path opacity="0.6" fill-rule="evenodd" clip-rule="evenodd" d="M717.91 94.51C717.854 94.5852 717.799 94.6591 717.74 94.7314H705.773C705.713 94.6591 705.657 94.5852 705.598 94.51H717.91Z" fill="#FFAB00"/>
<path opacity="0.6" fill-rule="evenodd" clip-rule="evenodd" d="M718.816 92.9294C718.785 93.0051 718.753 93.0791 718.718 93.1519H704.79C704.756 93.0791 704.723 93.0051 704.691 92.9294H718.816Z" fill="#FFAB00"/>
<path opacity="0.6" fill-rule="evenodd" clip-rule="evenodd" d="M719.297 91.3518C719.283 91.4275 719.269 91.4998 719.251 91.5732H704.261C704.244 91.4998 704.229 91.4275 704.215 91.3518H719.297Z" fill="#FFAB00"/>
<path opacity="0.6" fill-rule="evenodd" clip-rule="evenodd" d="M719.43 89.9296V89.9967H704.082V89.7759H719.429C719.429 89.8235 719.43 89.8757 719.43 89.9296Z" fill="#FFAB00"/>
<path opacity="0.6" fill-rule="evenodd" clip-rule="evenodd" d="M719.277 88.4169H704.23C704.245 88.3424 704.26 88.2695 704.277 88.1956H719.23C719.246 88.2695 719.264 88.3407 719.277 88.4169Z" fill="#FFAB00"/>
<path opacity="0.6" fill-rule="evenodd" clip-rule="evenodd" d="M718.777 86.8363H704.733C704.766 86.7634 704.799 86.6895 704.835 86.6161H718.676C718.711 86.6895 718.745 86.7617 718.777 86.8363Z" fill="#FFAB00"/>
<path opacity="0.6" fill-rule="evenodd" clip-rule="evenodd" d="M717.844 85.2629H705.667C705.724 85.1878 705.783 85.1127 705.842 85.041H717.666C717.727 85.1138 717.786 85.1878 717.844 85.2629Z" fill="#FFAB00"/>
<path opacity="0.6" fill-rule="evenodd" clip-rule="evenodd" d="M716.215 83.6806H707.303C707.414 83.6043 707.524 83.5304 707.635 83.4593H715.892C715.998 83.5304 716.109 83.6095 716.215 83.6806Z" fill="#FFAB00"/>
</g>
</svg>
