<svg width="375" height="92" viewBox="0 0 375 92" fill="none" xmlns="http://www.w3.org/2000/svg">
    <g opacity=".2">
        <path fill-rule="evenodd" clip-rule="evenodd" d="M166.382 89.258s15.249-15.381 2.578-32.034c-11.241-14.775-24.348-13.765-33.966-7.77-4.095 2.553-15.904.316-25.956-14.719-13.702-20.503-61.211-8.067-52.549 23.477 4.192 15.264-12.758 15.82-4.12 31.078l114.013-.032zM296.941 89.258s15.249-15.381 2.579-32.034c-11.242-14.775-24.348-13.765-33.967-7.77-4.095 2.553-15.903.316-25.956-14.719-13.701-20.503-61.211-8.067-52.548 23.477 4.191 15.264-12.758 15.82-4.121 31.078l114.013-.032z" fill="#fff"/>
        <path opacity=".5" clip-rule="evenodd" d="M166.382 89.256s15.249-15.381 2.578-32.034c-11.241-14.775-24.348-13.765-33.966-7.77-4.095 2.553-15.904.316-25.956-14.719C95.336 14.23 47.827 26.666 56.49 58.21c4.191 15.265-12.759 15.82-4.122 31.078l114.014-.032z" stroke="#333739" stroke-width="1.149"/>
        <path opacity=".5" fill-rule="evenodd" clip-rule="evenodd" d="M156.496 20.939a1.049 1.049 0 0 1-1.046-1.052c0-.58.468-1.051 1.046-1.051.577 0 1.046.47 1.046 1.051a1.05 1.05 0 0 1-1.046 1.052z" fill="#333739"/>
        <path opacity=".5" fill-rule="evenodd" clip-rule="evenodd" d="M158.304 71.19 156.8 19.92a.244.244 0 0 0-.245-.246.246.246 0 0 0-.246.247l-1.462 51.268h3.457z" fill="#FFAB00"/>
        <mask id="zntr665vfa" style="mask-type:alpha" maskUnits="userSpaceOnUse" x="154" y="0" width="4" height="20">
            <path fill-rule="evenodd" clip-rule="evenodd" d="M157.106 0h-2.595v19.666h2.595V0z" fill="#fff"/>
        </mask>
        <g mask="url(#zntr665vfa)">
            <path opacity=".5" fill-rule="evenodd" clip-rule="evenodd" d="M154.625 10.281c.262 3.817.952 7.173 1.566 9.2a.26.26 0 0 0 .423.117.26.26 0 0 0 .081-.15c.332-2.085.559-5.48.297-9.295-.306-4.498-1.212-8.357-1.882-10.153-.424 1.872-.794 5.783-.485 10.281z" fill="#FFAB00"/>
        </g>
        <path opacity=".5" fill-rule="evenodd" clip-rule="evenodd" d="M165.506 23.86c-3.097-1.82-6.08-3.098-8.097-3.767-.346-.115-.599.328-.326.572 1.332 1.182 3.843 3.12 7.334 5.17 3.872 2.276 7.408 3.756 9.263 4.207-1.303-1.405-4.301-3.904-8.174-6.182zM148.131 22.96c-3.589 1.878-6.522 4.15-7.731 5.406 1.718-.277 4.995-1.562 8.587-3.44 2.907-1.52 5.38-3.094 6.859-4.304.263-.213.052-.633-.274-.554-1.836.446-4.534 1.372-7.441 2.892zM133.657 74.726l-1.313-44.718a.216.216 0 0 0-.214-.215.215.215 0 0 0-.214.215l-1.276 44.718h3.017z" fill="#FFAB00"/>
        <path opacity=".5" fill-rule="evenodd" clip-rule="evenodd" d="M129.369 23.411c.749 2.718 1.739 5.041 2.483 6.414a.19.19 0 0 0 .359-.1c-.066-1.555-.4-4.04-1.151-6.758-.883-3.203-2.1-5.857-2.851-7.055-.031 1.414.276 4.296 1.16 7.5zM139.224 31.604c-2.505-.855-4.847-1.336-6.403-1.52a.248.248 0 0 0-.264.168.256.256 0 0 0 .004.166.253.253 0 0 0 .108.126c1.136.657 3.234 1.683 6.057 2.647 3.132 1.069 5.903 1.613 7.31 1.665-1.147-.821-3.68-2.183-6.812-3.252zM126.541 33.532c-2.32 1.89-4.1 3.966-4.791 5.052 1.2-.455 3.379-1.869 5.698-3.758 1.878-1.53 3.432-3.037 4.323-4.128a.234.234 0 0 0-.126-.375.23.23 0 0 0-.153.016c-1.259.597-3.075 1.666-4.951 3.193z" fill="#FFAB00"/>
        <path opacity=".5" fill-rule="evenodd" clip-rule="evenodd" d="M132.042 30.924a.915.915 0 0 1-.912-.917c0-.507.409-.917.912-.917.504 0 .913.41.913.917a.915.915 0 0 1-.913.917z" fill="#333739"/>
        <path fill-rule="evenodd" clip-rule="evenodd" d="M203.119 89.512H57.957s14.028-18.325 38.94-14.34c32.715 5.234 44.862-6.095 60.572-10.116 14.97-3.832 26.4 1.243 34.108 7.56 6.28 5.145 11.543 11 11.543 16.896h-.001z" fill="#fff"/>
        <path opacity=".5" clip-rule="evenodd" d="M203.119 89.512H57.956s14.029-18.325 38.94-14.34c32.716 5.234 44.863-6.095 60.573-10.116 14.969-3.832 26.4 1.243 34.108 7.56 6.28 5.145 11.542 11 11.542 16.896z" stroke="#333739" stroke-width="1.149"/>
        <path opacity=".5" clip-rule="evenodd" d="M355.339 89.563H188.601s16.114-18.307 44.728-14.326c37.578 5.229 51.53-6.09 69.575-10.106 17.195-3.828 30.324 1.242 39.177 7.552 7.214 5.14 13.259 10.99 13.259 16.88h-.001z" stroke="#333739" stroke-width="1.149"/>
        <path fill-rule="evenodd" clip-rule="evenodd" d="M151.703 89.512s-7.386-9.667-26.088-7.168c-25.997 3.477-35.29-15.7-57.465-16.773-40.637-1.966-55.854 23.941-55.854 23.941h139.407z" fill="#fff"/>
        <path opacity=".5" clip-rule="evenodd" d="M151.703 89.512s-7.386-9.667-26.088-7.168c-25.997 3.477-35.29-15.7-57.465-16.773-40.637-1.966-55.854 23.941-55.854 23.941h139.407zM1.709 27.422c-1.45 0-2.243-1.716-1.3-2.822.806-.943 2.043-1.53 3.398-1.827 2.37-.52 5.254 1.122 5.951 1.535.18-3.247 2.996-5.824 6.442-5.824.138 0 .28.004.417.013.882-4.65 5.282-8.184 10.58-8.184 5.932 0 10.74 4.432 10.74 9.9.001.425-.028.849-.087 1.27.262-.032.525-.049.788-.05 2.355 0 5.06 1.466 5.38 3.82 0 0 12.728-3.47 12.802 2.241l-55.111-.072zM203.182 24.779h-41.967c.08-.405.919-4.74 11.251-.792 0 0-.51-2.156 2.59-1.2 3.099.958 1.996-3.32 4.719-4.006 1.623-.408 2.545.264 3.195 1.012.313-4.276 4.057-7.652 8.631-7.652 4.779 0 8.652 3.685 8.652 8.232 0 .28-.015.559-.044.836.491-.61 1.571-1.158 3.047-1.122.033 0 .068 0 .101.004 2.989.175 2.821 4.688-.175 4.688z" stroke="#333739" stroke-width="1.149"/>
        <path fill-rule="evenodd" clip-rule="evenodd" d="m204.373 89.511 5.216-5.331-5.899 4.11.192-3.901-2.765 3.391.488-12.137-2.06 10.83-1.971-1.882.182 3.258-2.226-.924 1.75 2.582 7.093.004z" fill="#fff"/>
        <path opacity=".5" clip-rule="evenodd" d="m204.373 89.511 5.216-5.331-5.899 4.11.192-3.901-2.765 3.391.488-12.137-2.06 10.83-1.971-1.882.182 3.258-2.226-.924 1.75 2.582 7.093.004z" stroke="#333739" stroke-width="1.149"/>
        <path opacity=".5" fill-rule="evenodd" clip-rule="evenodd" d="M48.298 67.81a.158.158 0 0 0-.222.025.16.16 0 0 0 .025.223l.018.015.012.01.08.071.015.014c.103.096.219.213.344.35.358.395.716.875 1.052 1.444.655 1.11 1.137 2.415 1.375 3.922.294 1.864.197 3.944-.365 6.248-.02.085.032.171.116.192.085.02.17-.031.19-.116.573-2.344.671-4.467.37-6.373-.244-1.548-.74-2.89-1.414-4.034a9.119 9.119 0 0 0-1.091-1.496 6.383 6.383 0 0 0-.339-.347l-.024-.022a2.93 2.93 0 0 0-.142-.126z" fill="#333739"/>
        <path opacity=".5" clip-rule="evenodd" d="M49.918 78.052a.484.484 0 0 0 .163-.417c-.33-3.062-1.708-6.213-3.853-7.37-2.203-1.187-3.706 2.112-.652 5.174 2.297 2.307 3.528 2.682 3.996 2.729a.464.464 0 0 0 .346-.116z" stroke="#333739" stroke-width="1.149"/>
        <path opacity=".5" fill-rule="evenodd" clip-rule="evenodd" d="M54.752 77.346c-.904.078-1.618.576-2.16 1.35a4.868 4.868 0 0 0-.606 1.192l-.011.03a2.694 2.694 0 0 0-.038.12.158.158 0 0 0 .301.093l.01-.034.01-.028.016-.05a4.581 4.581 0 0 1 .575-1.141c.494-.704 1.13-1.147 1.93-1.216a.158.158 0 0 0-.018-.316h-.009zM44.33 70.423a.159.159 0 0 0-.008.216l.012.013.062.063.058.06.085.089.047.049a37.872 37.872 0 0 1 2.741 3.228c.78 1.035 1.441 2.04 1.943 2.986.16.3.301.594.426.878a.158.158 0 1 0 .289-.127 13.24 13.24 0 0 0-.437-.9c-.51-.963-1.18-1.98-1.97-3.028a38.515 38.515 0 0 0-2.079-2.514l-.087-.097c-.2-.221-.389-.425-.561-.607l-.107-.111a35.962 35.962 0 0 0-.104-.108l-.087-.09a.157.157 0 0 0-.224 0z" fill="#333739"/>
        <path opacity=".5" fill-rule="evenodd" clip-rule="evenodd" d="m45.512 74.597-.054-.002a6.251 6.251 0 0 0-.268-.007h-.071a.158.158 0 0 0 .001.317h.025c.083-.001.201 0 .35.009.224.011.468.035.728.073a8.227 8.227 0 0 1 2.129.602.159.159 0 0 0 .126-.29 8.536 8.536 0 0 0-2.21-.625 8.414 8.414 0 0 0-.756-.077z" fill="#333739"/>
        <path opacity=".5" fill-rule="evenodd" clip-rule="evenodd" d="M46.897 70.784a.158.158 0 0 0-.06.215l.036.067.039.073.051.096.151.289c.21.407.418.839.613 1.275.155.345.294.68.414.998l.03.08c.318.86.476 1.55.433 1.998a.158.158 0 1 0 .314.03c.05-.525-.128-1.281-.482-2.22a18.638 18.638 0 0 0-.42-1.016 26.23 26.23 0 0 0-.621-1.29l-.06-.115a21.478 21.478 0 0 0-.128-.243l-.057-.106-.038-.07a.158.158 0 0 0-.215-.061zM47.664 76.507a5.857 5.857 0 0 0-.561-.022h-.05a.158.158 0 0 0 .002.317h.03c.141-.003.33.002.552.02.333.029.662.083.968.17.288.08.543.187.758.32a.157.157 0 0 0 .217-.051.159.159 0 0 0-.051-.219 3.266 3.266 0 0 0-.839-.356 5.495 5.495 0 0 0-1.026-.179z" fill="#333739"/>
        <path opacity=".5" clip-rule="evenodd" d="M52.64 75.254c.164.117.353.132.5.054 2.876-1.59 5.305-4.556 5.341-7.755.043-3.289-4.027-3.98-5.493 1.12-1.104 3.837-.842 5.563-.642 6.18a.865.865 0 0 0 .295.401z" stroke="#333739" stroke-width="1.149"/>
        <path opacity=".5" fill-rule="evenodd" clip-rule="evenodd" d="M57.502 65.43a.157.157 0 0 0-.214-.063c-1.35.733-2.439 2.438-3.307 4.823a27.777 27.777 0 0 0-1.007 3.531l-.03.14c-.07.322-.129.625-.18.905l-.02.119c-.023.123-.041.232-.056.326l-.018.117a.158.158 0 1 0 .312.046l.014-.094.013-.076.038-.228.007-.036c.061-.347.137-.734.229-1.15.26-1.191.59-2.381.994-3.49.844-2.32 1.898-3.969 3.16-4.655a.159.159 0 0 0 .065-.214z" fill="#333739"/>
        <path opacity=".5" fill-rule="evenodd" clip-rule="evenodd" d="M58.463 67.978a.158.158 0 0 0-.209-.08c-.644.292-1.38.654-2.095 1.053l-.092.052c-1.006.568-1.781 1.11-2.228 1.604a.159.159 0 0 0 .01.224.157.157 0 0 0 .223-.01c.431-.477 1.217-1.021 2.24-1.593a27.909 27.909 0 0 1 2.072-1.04.158.158 0 0 0 .079-.21zM53.177 68.473a.158.158 0 0 0-.172.143 17.867 17.867 0 0 0-.087 2.07l.002.076c.028.799.14 1.374.374 1.681.053.07.152.083.221.03a.16.16 0 0 0 .03-.222c-.35-.462-.388-1.87-.226-3.605a.158.158 0 0 0-.142-.173zM57.138 71.635a.157.157 0 0 0-.221-.023c-.366.296-.905.61-1.57.93-.467.224-.968.437-1.47.632l-.086.034c-.114.044-.222.085-.323.122l-.137.05-.12.042a.159.159 0 0 0 .093.303l.028-.01.066-.023.06-.022.118-.043a21.487 21.487 0 0 0 1.907-.8l.09-.043c.645-.314 1.171-.625 1.542-.926a.16.16 0 0 0 .023-.223z" fill="#333739"/>
        <path opacity=".5" clip-rule="evenodd" d="M54.445 76.682c-.06-.445.007-.822.152-.841.143-.02.309.325.369.77s-.008.822-.152.841c-.144.02-.309-.325-.37-.77z" stroke="#333739" stroke-width="1.149"/>
        <path opacity=".5" clip-rule="evenodd" d="M54.81 77.45c-.084-.104.101-.399.415-.658.313-.26.636-.387.721-.283.085.103-.1.397-.413.657-.314.26-.637.387-.722.283z" stroke="#333739" stroke-width="1.149"/>
        <path opacity=".5" clip-rule="evenodd" d="M53.975 77.294c-.391-.206-.652-.479-.583-.61.068-.133.44-.073.832.133.39.206.652.48.583.611-.068.132-.44.072-.832-.134zM55.339 78.014c-.357-.196-.594-.45-.53-.569.064-.117.405-.053.762.143.357.197.593.45.529.569-.064.117-.405.053-.761-.143z" stroke="#333739" stroke-width="1.149"/>
        <path opacity=".5" clip-rule="evenodd" d="M54.192 78.802c-.122-.056-.083-.405.087-.778.17-.374.407-.632.528-.577.122.056.082.404-.088.778-.17.374-.406.632-.527.577z" stroke="#333739" stroke-width="1.149"/>
        <path fill-rule="evenodd" clip-rule="evenodd" d="m46.48 80.603 1.945 8.847h6.177l1.946-8.847c.11-.507-.205-1.003-.637-1.003h-8.8c-.431.005-.747.5-.631 1.003z" fill="#fff"/>
        <path opacity=".5" fill-rule="evenodd" clip-rule="evenodd" d="M47.11 79.758h-.01c-.313.014-.553.396-.47.793l1.922 8.741h5.924l1.917-8.723c.09-.415-.16-.81-.482-.81h-8.8zm-.001-.317h8.802c.542 0 .92.598.79 1.196l-1.944 8.847a.158.158 0 0 1-.154.124h-6.178a.158.158 0 0 1-.154-.124l-1.946-8.847c-.136-.59.243-1.189.784-1.196z" fill="#333739"/>
        <path fill-rule="evenodd" clip-rule="evenodd" d="M24.22 52.637c-4.297-4.32-4.297-11.324 0-15.645a10.963 10.963 0 0 1 15.563 0c4.297 4.32 4.297 11.325 0 15.645a10.963 10.963 0 0 1-15.563 0z" fill="#FFAB00"/>
        <path fill-rule="evenodd" clip-rule="evenodd" d="M25.173 52.758c-4.298-4.32-4.298-11.325 0-15.645a10.964 10.964 0 0 1 15.563 0c4.297 4.32 4.297 11.325 0 15.645a10.964 10.964 0 0 1-15.563 0z" fill="#FFAB00"/>
        <path fill-rule="evenodd" clip-rule="evenodd" d="M34.114 35.662c5.158.653 8.828 5.403 8.177 10.588-.65 5.185-5.374 8.875-10.532 8.22-5.158-.654-8.828-5.403-8.177-10.588.651-5.185 5.374-8.873 10.532-8.222v.002zm-2.43 19.404a9.982 9.982 0 0 0 6.596-1.471 10.071 10.071 0 0 0 4.17-5.343c.732-2.213.68-4.612-.15-6.79a10.065 10.065 0 0 0-4.4-5.154 9.982 9.982 0 0 0-6.652-1.178 10.016 10.016 0 0 0-5.886 3.333 10.116 10.116 0 0 0 2.608 15.365 9.922 9.922 0 0 0 3.715 1.238z" fill="#fff"/>
        <path fill-rule="evenodd" clip-rule="evenodd" d="M34.636 47.796a1.675 1.675 0 0 0-.096-.577 1.23 1.23 0 0 0-.306-.451 2.311 2.311 0 0 0-.543-.372 6.06 6.06 0 0 0-.81-.33 15.612 15.612 0 0 1-1.495-.595 4.97 4.97 0 0 1-1.152-.723 2.954 2.954 0 0 1-.748-.964c-.178-.369-.27-.809-.273-1.32a3.033 3.033 0 0 1 .226-1.213c.152-.363.378-.69.663-.959a3.475 3.475 0 0 1 1.038-.666c.433-.18.891-.292 1.358-.334l-.012-1.673 1.34-.01.011 1.697c.454.051.897.178 1.31.373a3.155 3.155 0 0 1 1.64 1.83c.157.453.236.93.233 1.409l-2.42.018c-.004-.626-.146-1.093-.424-1.401-.279-.308-.65-.46-1.113-.457-.221-.004-.44.034-.648.11a1.147 1.147 0 0 0-.7.728 1.694 1.694 0 0 0-.08.54c-.001.178.028.356.087.523.062.166.163.313.292.433.163.15.348.274.547.371.274.136.556.256.844.359.543.2 1.036.404 1.48.616.413.19.8.436 1.148.73.312.268.567.597.748.968.178.37.269.806.272 1.312a3.06 3.06 0 0 1-.23 1.237c-.152.36-.38.684-.667.95-.306.28-.66.5-1.046.649-.438.171-.898.28-1.366.323l.01 1.555-1.33.01-.011-1.548a5.562 5.562 0 0 1-1.346-.296 3.556 3.556 0 0 1-1.156-.666 3.205 3.205 0 0 1-.811-1.108c-.204-.445-.309-.981-.313-1.61l2.42-.016c.001.37.055.678.16.923.092.228.235.43.42.592.172.146.374.251.592.308.22.058.447.087.674.085a2.14 2.14 0 0 0 .69-.107c.183-.06.351-.157.496-.285.132-.117.233-.264.298-.428.069-.172.102-.355.099-.54z" fill="#fff"/>
        <path fill-rule="evenodd" clip-rule="evenodd" d="M44.916 70.517a4.995 4.995 0 0 1 0-7.038 4.932 4.932 0 0 1 7 0 4.995 4.995 0 0 1 0 7.038 4.932 4.932 0 0 1-7 0z" fill="#FFAB00"/>
        <path fill-rule="evenodd" clip-rule="evenodd" d="M48.528 72.026c-2.727-.179-4.795-2.547-4.617-5.29.178-2.742 2.533-4.82 5.261-4.641 2.728.179 4.796 2.547 4.618 5.29-.178 2.742-2.534 4.82-5.262 4.641z" fill="#FFAB00"/>
        <path fill-rule="evenodd" clip-rule="evenodd" d="M49.365 62.883a4.226 4.226 0 0 1 2.249 1.009 4.267 4.267 0 0 1 1.312 2.094 4.287 4.287 0 0 1-.067 2.474c-.265.8-.76 1.504-1.423 2.02a4.221 4.221 0 0 1-4.7.337 4.255 4.255 0 0 1-1.694-1.797 4.276 4.276 0 0 1 1.194-5.273 4.23 4.23 0 0 1 3.13-.864zm-1.093 8.728a4.492 4.492 0 0 0 2.967-.662 4.53 4.53 0 0 0 1.876-2.403 4.556 4.556 0 0 0-.067-3.055 4.525 4.525 0 0 0-1.98-2.318 4.489 4.489 0 0 0-5.64.97 4.543 4.543 0 0 0-1.1 2.846 4.547 4.547 0 0 0 2.274 4.065 4.459 4.459 0 0 0 1.67.557z" fill="#fff"/>
        <path fill-rule="evenodd" clip-rule="evenodd" d="M49.597 68.338a.764.764 0 0 0-.043-.26.546.546 0 0 0-.137-.206 1.027 1.027 0 0 0-.244-.167 2.749 2.749 0 0 0-.364-.148 7.16 7.16 0 0 1-.672-.268 2.234 2.234 0 0 1-.519-.325 1.32 1.32 0 0 1-.336-.434 1.504 1.504 0 0 1-.022-1.14c.068-.162.17-.31.298-.43.137-.127.295-.23.467-.3.195-.082.402-.132.613-.15l-.005-.753.601-.005.006.763c.204.024.403.08.59.168a1.418 1.418 0 0 1 .738.821c.069.204.104.419.101.634l-1.088.008c-.002-.28-.066-.491-.19-.63a.64.64 0 0 0-.502-.205c-.099-.001-.198.016-.29.051a.554.554 0 0 0-.201.131.524.524 0 0 0-.116.196.768.768 0 0 0 .004.48.51.51 0 0 0 .131.193c.074.067.157.124.246.167.123.061.25.115.38.16.244.091.466.183.666.277.186.086.36.196.516.33.142.12.257.268.337.435.157.364.163.776.02 1.145a1.25 1.25 0 0 1-.3.428 1.51 1.51 0 0 1-.471.292 2.236 2.236 0 0 1-.613.145l.006.7-.6.004-.004-.696a2.5 2.5 0 0 1-.606-.133 1.59 1.59 0 0 1-.52-.3 1.439 1.439 0 0 1-.365-.499 1.762 1.762 0 0 1-.14-.723l1.088-.008c-.004.142.021.283.072.416a.677.677 0 0 0 .455.404c.1.027.201.04.304.04a.952.952 0 0 0 .31-.049.643.643 0 0 0 .223-.128.52.52 0 0 0 .134-.192.634.634 0 0 0 .042-.24z" fill="#fff"/>
        <path opacity=".5" fill-rule="evenodd" clip-rule="evenodd" d="M15.403 75.598a.101.101 0 0 0-.142.016.102.102 0 0 0 .015.143l.012.01.008.007.051.046.01.009c.066.062.14.137.22.225.231.253.461.562.677.927.42.714.731 1.553.884 2.521.19 1.198.127 2.535-.234 4.016a.101.101 0 1 0 .197.049c.367-1.507.43-2.872.237-4.097a7.312 7.312 0 0 0-.91-2.592 5.85 5.85 0 0 0-.7-.961 4.087 4.087 0 0 0-.218-.223l-.015-.015a1.825 1.825 0 0 0-.092-.08z" fill="#333739"/>
        <path opacity=".5" clip-rule="evenodd" d="M16.444 82.181a.312.312 0 0 0 .105-.268c-.213-1.968-1.098-3.993-2.477-4.736-1.416-.763-2.382 1.357-.42 3.325 1.478 1.483 2.268 1.723 2.569 1.754a.299.299 0 0 0 .223-.075z" stroke="#333739" stroke-width=".738"/>
        <path opacity=".5" fill-rule="evenodd" clip-rule="evenodd" d="M19.552 81.727c-.581.05-1.04.37-1.389.868a3.138 3.138 0 0 0-.39.765l-.006.02-.024.077a.101.101 0 0 0 .193.06l.007-.022.005-.018.011-.032a2.939 2.939 0 0 1 .37-.734c.316-.451.726-.737 1.24-.78a.102.102 0 0 0-.011-.204h-.006zM12.852 77.278a.102.102 0 0 0-.005.139l.008.008.04.04.037.039.055.057.03.031a24.386 24.386 0 0 1 1.762 2.075c.501.666.926 1.311 1.248 1.92.103.193.194.38.274.564a.102.102 0 1 0 .186-.082 8.425 8.425 0 0 0-.28-.578 14.85 14.85 0 0 0-1.267-1.947 24.651 24.651 0 0 0-1.336-1.615l-.056-.062c-.13-.143-.25-.273-.361-.39l-.069-.072a6.49 6.49 0 0 0-.066-.07l-.057-.057a.1.1 0 0 0-.143 0z" fill="#333739"/>
        <path opacity=".5" fill-rule="evenodd" clip-rule="evenodd" d="m13.613 79.961-.035-.002a3.658 3.658 0 0 0-.172-.004h-.046a.101.101 0 0 0-.098.106.101.101 0 0 0 .099.098h.016c.053 0 .13 0 .225.006a5.271 5.271 0 0 1 1.836.434.101.101 0 0 0 .133-.053.102.102 0 0 0-.052-.134 5.486 5.486 0 0 0-1.906-.45z" fill="#333739"/>
        <path opacity=".5" fill-rule="evenodd" clip-rule="evenodd" d="M14.502 77.509a.102.102 0 0 0-.04.138l.024.044.025.046.034.062.096.186c.135.261.27.538.395.82.099.221.188.436.265.64l.02.052c.204.552.306.996.278 1.284a.101.101 0 1 0 .202.02c.032-.338-.082-.824-.31-1.428a11.76 11.76 0 0 0-.27-.652 16.59 16.59 0 0 0-.4-.83l-.038-.074a11.186 11.186 0 0 0-.082-.156l-.037-.068-.024-.045a.102.102 0 0 0-.138-.04zM14.995 81.188a3.8 3.8 0 0 0-.36-.014h-.033a.101.101 0 0 0-.097.106.101.101 0 0 0 .099.098h.02c.09-.002.212.001.354.013.214.018.425.053.622.109.185.052.35.12.487.206a.102.102 0 0 0 .107-.173 2.098 2.098 0 0 0-.54-.23 3.546 3.546 0 0 0-.66-.115z" fill="#333739"/>
        <path opacity=".5" clip-rule="evenodd" d="M18.195 80.383c.104.075.226.085.32.034 1.849-1.022 3.41-2.928 3.433-4.984.028-2.114-2.588-2.558-3.53.72-.71 2.466-.541 3.575-.413 3.972a.555.555 0 0 0 .19.258z" stroke="#333739" stroke-width=".738"/>
        <path opacity=".5" fill-rule="evenodd" clip-rule="evenodd" d="M21.317 74.067a.1.1 0 0 0-.137-.04c-.867.47-1.567 1.566-2.126 3.1a17.835 17.835 0 0 0-.646 2.269l-.02.09c-.044.206-.083.401-.115.581l-.014.076-.036.21-.011.075a.102.102 0 1 0 .2.03l.01-.06.008-.05.024-.146.005-.023c.04-.223.088-.472.147-.74.167-.765.38-1.53.639-2.243.543-1.49 1.22-2.55 2.031-2.991a.102.102 0 0 0 .041-.138z" fill="#333739"/>
        <path opacity=".5" fill-rule="evenodd" clip-rule="evenodd" d="M21.936 75.708a.101.101 0 0 0-.134-.05c-.414.186-.887.42-1.347.676l-.059.033c-.647.366-1.145.714-1.432 1.031a.102.102 0 0 0 .15.138c.277-.307.782-.657 1.44-1.024.454-.254.922-.484 1.332-.67a.102.102 0 0 0 .05-.134zM18.539 76.024a.101.101 0 0 0-.11.092c-.045.472-.067.93-.057 1.33l.002.049c.017.513.09.883.24 1.08a.101.101 0 0 0 .142.02.102.102 0 0 0 .02-.143c-.225-.297-.25-1.202-.146-2.317a.102.102 0 0 0-.091-.111zM21.085 78.057a.101.101 0 0 0-.143-.015c-.235.191-.581.393-1.009.598-.3.144-.622.281-.944.407l-.056.021a13.74 13.74 0 0 1-.208.079l-.088.032-.076.027a.102.102 0 0 0-.064.13c.018.05.072.079.124.064l.017-.006.043-.015.038-.014.076-.027a15.695 15.695 0 0 0 1.226-.514l.058-.028c.414-.202.752-.402.99-.596.044-.035.05-.099.016-.143z" fill="#333739"/>
        <path opacity=".5" clip-rule="evenodd" d="M19.353 81.3c-.039-.285.005-.527.098-.54.092-.012.198.21.237.495.039.286-.005.528-.097.54-.093.013-.2-.208-.238-.494z" stroke="#333739" stroke-width=".738"/>
        <path opacity=".5" clip-rule="evenodd" d="M19.59 81.792c-.055-.067.064-.256.265-.423.202-.167.41-.248.465-.182.054.067-.065.256-.267.423-.201.167-.41.248-.464.182z" stroke="#333739" stroke-width=".738"/>
        <path opacity=".5" clip-rule="evenodd" d="M19.052 81.694c-.251-.133-.419-.308-.375-.393.044-.085.284-.046.535.086.252.132.42.308.375.393-.044.084-.284.046-.535-.086zM19.928 82.157c-.23-.126-.381-.29-.34-.365.041-.076.26-.035.49.091.229.127.381.29.34.366-.042.075-.261.034-.49-.092z" stroke="#333739" stroke-width=".738"/>
        <path opacity=".5" clip-rule="evenodd" d="M19.191 82.662c-.078-.036-.052-.26.057-.5s.261-.406.34-.37c.077.036.052.26-.057.5-.11.24-.261.406-.34.37z" stroke="#333739" stroke-width=".738"/>
        <path fill-rule="evenodd" clip-rule="evenodd" d="m14.234 83.82 1.25 5.687h3.97l1.251-5.687c.071-.325-.132-.644-.409-.644H14.64c-.277.003-.48.322-.406.644z" fill="#fff"/>
        <path opacity=".5" fill-rule="evenodd" clip-rule="evenodd" d="M14.64 83.277h-.007c-.201.009-.356.254-.302.51l1.235 5.617h3.807l1.233-5.606c.058-.267-.103-.521-.31-.521H14.64zm-.002-.203h5.658c.348 0 .592.384.508.768l-1.25 5.687a.102.102 0 0 1-.1.08h-3.97a.102.102 0 0 1-.099-.08l-1.25-5.687c-.087-.379.156-.764.504-.768z" fill="#333739"/>
        <path fill-rule="evenodd" clip-rule="evenodd" d="M12.399 75.673a3.201 3.201 0 0 1 2.451-3.795 3.18 3.18 0 0 1 3.775 2.458 3.201 3.201 0 0 1-2.45 3.795 3.18 3.18 0 0 1-3.776-2.458z" fill="#FFAB00"/>
        <path fill-rule="evenodd" clip-rule="evenodd" d="M13.822 77.754a3.206 3.206 0 0 1-.648-4.474 3.174 3.174 0 0 1 4.454-.655 3.206 3.206 0 0 1 .648 4.474 3.175 3.175 0 0 1-4.454.655z" fill="#FFAB00"/>
        <path fill-rule="evenodd" clip-rule="evenodd" d="M17.459 73.117a2.749 2.749 0 0 1-.058 4.234 2.721 2.721 0 0 1-4.124-.879 2.747 2.747 0 0 1 .34-3.025 2.72 2.72 0 0 1 3.842-.33zm-3.63 4.323a2.888 2.888 0 0 0 3.68.047 2.923 2.923 0 0 0 .768-3.616 2.898 2.898 0 0 0-3.38-1.457 2.92 2.92 0 0 0-2.086 3.047 2.9 2.9 0 0 0 1.019 1.979z" fill="#FFAB00"/>
        <path fill-rule="evenodd" clip-rule="evenodd" d="M16.42 75.601a.498.498 0 0 0-.113-.125.349.349 0 0 0-.146-.062.658.658 0 0 0-.19-.005 1.74 1.74 0 0 0-.248.048c-.15.039-.302.069-.455.092-.13.02-.263.022-.394.007a.854.854 0 0 1-.332-.116.965.965 0 0 1-.408-.607.806.806 0 0 1 .01-.337c.03-.117.08-.227.148-.326.077-.112.17-.212.278-.296l-.265-.404.323-.214.269.41c.118-.06.245-.099.376-.117a.913.913 0 0 1 .684.184c.108.085.202.189.275.306l-.584.386c-.098-.15-.206-.242-.322-.272a.407.407 0 0 0-.341.065.528.528 0 0 0-.14.13.36.36 0 0 0-.062.14.34.34 0 0 0 .006.147.498.498 0 0 0 .169.257c.04.03.088.05.138.058.063.01.127.012.19.004a2.31 2.31 0 0 0 .262-.047c.162-.036.314-.065.455-.084.13-.02.262-.02.393-.004a.853.853 0 0 1 .333.116.967.967 0 0 1 .41.611.807.807 0 0 1-.013.336.989.989 0 0 1-.152.323c-.08.11-.174.21-.28.293l.246.376-.321.213-.245-.374a1.6 1.6 0 0 1-.373.14 1.025 1.025 0 0 1-.385.021.916.916 0 0 1-.37-.14 1.125 1.125 0 0 1-.328-.341l.584-.386a.69.69 0 0 0 .184.198c.058.041.124.068.194.078.065.008.13.001.192-.019a.762.762 0 0 0 .177-.086.622.622 0 0 0 .15-.135.415.415 0 0 0 .076-.147.33.33 0 0 0 .006-.151.403.403 0 0 0-.06-.144z" fill="#fff"/>
        <path opacity=".4" fill-rule="evenodd" clip-rule="evenodd" d="M35.046 67.425c0-.031-.169-3.52 1.508-4.323l-.118-.114c-.766.27-1.62 1.104-1.96 2.28-.255.872-.06 1.067-.062 1.1l.632 1.057z" fill="#333739"/>
        <path opacity=".4" fill-rule="evenodd" clip-rule="evenodd" d="M39.423 60.514s.192 1.796-.743 2.559c-.935.763-2.643.205-2.643.205s-.192-1.796.744-2.558c.935-.762 2.642-.206 2.642-.206zM35.332 73.968c.031-.175.636-4.284-.911-8.862-1.487-4.4-.664-8.13-.657-8.166H32.67c-.028.159-.102 3.82 1.061 8.837 1.048 4.514-.91 8.191-.492 8.191h2.093z" fill="#333739"/>
        <path opacity=".4" fill-rule="evenodd" clip-rule="evenodd" d="M33.036 61.839c-.005-.023-.527-3.033-1.932-3.376.628.082 1.426.534 1.872 1.376.331.625.215.802.22.827l-.16 1.173zM38.655 53.854s1.515-2.15 3.235-2.782c0 0-.643 5.044.298 5.106.94.063.313-5.672.313-5.672s4.482-2.5 6.302-2.431c0 0-2.576 5.039-1.65 4.866.928-.172 3.85-5.29 3.85-5.29s4.678-1.159 5.6 1.613c.924 2.771-.22 4.252-.91 4.47-.69.217-5.188.423-5.038 1.003.15.58 3.241 1.34 4.903.712 0 0-1.597 4.746-4.063 4.656-2.465-.09-3.313-1.571-4.837-1.6-1.525-.028-2.61.449-1.827.814.783.366 3.335-.06 4.622.914 1.287.976 2.317 1.563.067 2.167-2.249.604-5.643-.078-7.255-1.157-.004-.003-1.319-.109-2.353 6.008-.399 2.36-.092 5.856-.092 5.856l-.836-.128c-.462-6.856 2-12.556 2-12.556s-4.177-3.102-2.329-6.57z" fill="#333739"/>
        <path opacity=".5" clip-rule="evenodd" d="M38.655 53.854s1.515-2.15 3.235-2.782c0 0-.643 5.044.298 5.106.94.063.313-5.672.313-5.672s4.482-2.5 6.302-2.431c0 0-2.576 5.039-1.65 4.866.928-.172 3.85-5.29 3.85-5.29s4.678-1.159 5.6 1.613c.924 2.771-.22 4.252-.91 4.47-.69.217-5.188.423-5.038 1.003.15.58 3.241 1.34 4.903.712 0 0-1.597 4.746-4.063 4.656-2.465-.09-3.313-1.571-4.837-1.6-1.525-.028-2.61.449-1.827.814.783.366 3.335-.06 4.622.914 1.287.976 2.317 1.563.067 2.167-2.249.604-5.643-.078-7.255-1.157-.004-.003-1.319-.109-2.353 6.008-.399 2.36-.092 5.856-.092 5.856l-.836-.128c-.462-6.856 2-12.556 2-12.556s-4.177-3.102-2.329-6.57z" stroke="#333739" stroke-width="1.149"/>
        <path opacity=".4" fill-rule="evenodd" clip-rule="evenodd" d="M11.263 52.092S24.026 57.912 25 62.904c0 0-.306 2.15.74 4.774l-.107.952s-1.024-3.393-1.731-3.923c-.002 0 3.435-3.848-12.639-12.615z" fill="#333739"/>
        <path opacity=".4" fill-rule="evenodd" clip-rule="evenodd" d="M25.739 67.678s1.692 3.352.1 7.016l-.511-.202s.98-4.124.149-6.349c-.832-2.225.262-.465.262-.465zM44.182 39.881c-2.062 2.206-.99 6.587-.99 6.587s4.417.805 6.481-1.401c2.064-2.207.99-6.588.99-6.588s-4.418-.804-6.48 1.402z" fill="#333739"/>
        <path opacity=".5" clip-rule="evenodd" d="M44.182 39.881c-2.062 2.206-.99 6.587-.99 6.587s4.417.805 6.481-1.401c2.064-2.207.99-6.588.99-6.588s-4.418-.804-6.48 1.402z" stroke="#333739" stroke-width="1.149"/>
        <path opacity=".1" fill-rule="evenodd" clip-rule="evenodd" d="M44.183 39.881c-2.062 2.206-.99 6.587-.99 6.587l7.469-7.99s-4.416-.803-6.48 1.403z" fill="#333739"/>
        <path opacity=".4" fill-rule="evenodd" clip-rule="evenodd" d="M17.587 48.283c1.076 1.253 3.507.916 3.507.916s.687-2.368-.389-3.622-3.508-.916-3.508-.916-.687 2.368.39 3.622z" fill="#333739"/>
        <path opacity=".5" clip-rule="evenodd" d="M17.587 48.283c1.076 1.253 3.507.916 3.507.916s.687-2.368-.389-3.622-3.508-.916-3.508-.916-.687 2.368.39 3.622z" stroke="#333739" stroke-width="1.149"/>
        <path opacity=".4" fill-rule="evenodd" clip-rule="evenodd" d="M30.305 59.31c.722.2 1.557-.544 1.557-.544s-.335-1.07-1.056-1.27c-.722-.202-1.556.542-1.556.542s.334 1.07 1.055 1.271zM43.044 35.79c-.494 1.18.57 2.756.57 2.756s1.868-.334 2.363-1.513c.494-1.178-.571-2.756-.571-2.756s-1.867.334-2.362 1.513z" fill="#333739"/>
        <path opacity=".5" clip-rule="evenodd" d="M43.044 35.79c-.494 1.18.57 2.756.57 2.756s1.868-.334 2.363-1.513c.494-1.178-.571-2.756-.571-2.756s-1.867.334-2.362 1.513z" stroke="#333739" stroke-width="1.149"/>
        <path fill-rule="evenodd" clip-rule="evenodd" d="m24.735 74.346 3.317 15.21h10.535l3.318-15.21c.188-.871-.35-1.725-1.085-1.725H25.81c-.735.01-1.273.863-1.075 1.725z" fill="#fff"/>
        <path opacity=".5" fill-rule="evenodd" clip-rule="evenodd" d="M25.707 72.822h-.018c-.538.024-.951.68-.808 1.364l3.305 15.031h10.188l3.298-15.001c.155-.713-.276-1.394-.83-1.394H25.709zm-.002-.545h15.138c.931 0 1.583 1.028 1.36 2.056l-3.346 15.216a.272.272 0 0 1-.265.213H27.968a.272.272 0 0 1-.265-.213l-3.345-15.215c-.234-1.016.416-2.045 1.347-2.057z" fill="#FFAB00"/>
        <path fill-rule="evenodd" clip-rule="evenodd" d="M354.325 87.002a.106.106 0 0 0 .074-.03.108.108 0 0 0 .03-.074V48.851a.1.1 0 0 0-.006-.042.118.118 0 0 0-.022-.036.099.099 0 0 0-.034-.024.105.105 0 0 0-.083 0 .09.09 0 0 0-.034.024.089.089 0 0 0-.022.036.1.1 0 0 0-.006.042v38.047c0 .028.011.054.03.074.02.019.046.03.073.03z" fill="#FFAB00"/>
        <path opacity=".5" fill-rule="evenodd" clip-rule="evenodd" d="M356.409 38.864c-.262 1.323-.795 2.404-1.347 2.854-.338-.629-.418-1.832-.156-3.155.262-1.323.795-2.404 1.347-2.854.338.628.418 1.832.156 3.155zM353.887 51.595c-.262 1.322-.795 2.403-1.346 2.853-.338-.628-.419-1.83-.157-3.154.263-1.324.795-2.404 1.347-2.854.337.628.419 1.831.156 3.155zM348.25 43.063c1.315.264 2.391.799 2.839 1.354-.626.34-1.822.42-3.138.157-1.317-.264-2.392-.8-2.839-1.354.625-.34 1.822-.421 3.138-.157zM360.911 45.599c1.316.264 2.391.799 2.839 1.353-.625.34-1.822.421-3.138.157-1.317-.263-2.391-.799-2.839-1.354.627-.341 1.825-.42 3.138-.156zM351.47 39.272c.744 1.122 1.128 2.265 1.055 2.976-.681-.204-1.585-1-2.33-2.12-.744-1.12-1.129-2.265-1.055-2.976.681.204 1.585.999 2.33 2.12zM358.64 50.065c.744 1.121 1.129 2.264 1.055 2.975-.681-.204-1.584-.999-2.33-2.12-.745-1.12-1.128-2.264-1.054-2.975.68.204 1.584.998 2.329 2.12zM348.655 48.04c1.115-.748 2.252-1.134 2.959-1.06-.203.684-.994 1.593-2.109 2.341-1.114.75-2.252 1.135-2.959 1.061.203-.684.996-1.592 2.109-2.341zM359.391 40.831c1.116-.748 2.253-1.134 2.959-1.06-.202.684-.993 1.593-2.108 2.342-1.115.748-2.253 1.134-2.96 1.06.203-.684.993-1.593 2.109-2.342zM354.03 38.78c.228 1.282.128 2.444-.209 3.043-.526-.445-1.019-1.496-1.247-2.78-.228-1.285-.128-2.443.21-3.043.524.445 1.016 1.499 1.246 2.78zM356.225 51.117c.229 1.281.129 2.442-.21 3.042-.525-.445-1.018-1.496-1.246-2.78-.229-1.285-.128-2.443.21-3.043.524.448 1.018 1.5 1.246 2.78zM348.169 45.444c1.275-.23 2.43-.129 3.027.211-.443.528-1.49 1.024-2.766 1.254-1.275.229-2.43.128-3.027-.212.443-.527 1.491-1.024 2.766-1.253zM360.442 43.239c1.275-.23 2.429-.129 3.027.211-.443.528-1.491 1.024-2.766 1.254-1.276.23-2.43.128-3.027-.212.442-.528 1.491-1.026 2.766-1.253zM349.692 41.077c1.067.712 1.825 1.578 2.02 2.23-.675.073-1.762-.29-2.83-1.004-1.067-.714-1.824-1.578-2.02-2.231.678-.073 1.764.292 2.83 1.005zM359.968 47.932c1.067.713 1.824 1.578 2.02 2.231-.675.072-1.762-.291-2.83-1.005s-1.824-1.578-2.02-2.23c.676-.074 1.762.291 2.83 1.004zM350.427 49.845c.708-1.072 1.569-1.834 2.219-2.03.072.677-.29 1.771-1 2.844s-1.57 1.834-2.219 2.03c-.073-.677.291-1.77 1-2.844zM357.245 39.517c.708-1.073 1.569-1.834 2.219-2.03.072.678-.29 1.771-1 2.844s-1.569 1.834-2.219 2.031c-.072-.678.291-1.772 1-2.845z" fill="#FFAB00"/>
        <path opacity=".5" clip-rule="evenodd" d="M355.352 63.124v-1.885c0-1.26.411-2.486 1.17-3.49a5.733 5.733 0 0 1 3.032-2.065l3.024-.674-1.506 4.108a3.893 3.893 0 0 1-1.415 1.902 3.86 3.86 0 0 1-2.25.723 2.227 2.227 0 0 0-2.028 1.32l-.027.06zM353.008 68.814v-1.706c0-3.413-2.452-6.178-5.474-6.178h-2.586c0 2.09.826 4.095 2.296 5.573a7.819 7.819 0 0 0 5.544 2.309l.22.002z" stroke="#FFAB00" stroke-width="1.149"/>
        <path fill-rule="evenodd" clip-rule="evenodd" d="M353.009 68.877c.027 0 .053-.01.073-.03a.107.107 0 0 0 .03-.074v-1.706c0-3.464-2.502-6.282-5.577-6.282h-2.587a.105.105 0 0 0-.073.03.105.105 0 0 0 0 .148c.02.02.046.03.073.03h2.587c2.961 0 5.37 2.725 5.37 6.072v1.706c0 .014.002.028.008.04a.096.096 0 0 0 .022.035c.009.01.021.018.034.023a.094.094 0 0 0 .04.008z" fill="#fff"/>
        <path fill-rule="evenodd" clip-rule="evenodd" d="M354.326 73.413h.014a.104.104 0 0 0 .088-.117c-.002-.016-.236-1.716-1.048-3.792-.75-1.92-2.161-4.571-4.626-6.292a.11.11 0 0 0-.037-.017.11.11 0 0 0-.04 0 .12.12 0 0 0-.038.015.102.102 0 0 0-.045.106.1.1 0 0 0 .042.066c2.421 1.69 3.808 4.299 4.55 6.191.802 2.056 1.034 3.733 1.036 3.75a.11.11 0 0 0 .035.065.105.105 0 0 0 .069.025zM354.325 68.985h.003a.104.104 0 0 0 .073-.033.106.106 0 0 0 .027-.075c0-.019-.058-1.98.551-4.33.358-1.379.872-2.62 1.528-3.688.817-1.334 1.859-2.402 3.098-3.177a.092.092 0 0 0 .03-.027.092.092 0 0 0 .018-.038.098.098 0 0 0 .002-.041.11.11 0 0 0-.014-.039.107.107 0 0 0-.067-.046.1.1 0 0 0-.079.015c-1.266.792-2.332 1.884-3.167 3.247-.666 1.087-1.188 2.348-1.55 3.747-.617 2.379-.557 4.365-.557 4.385a.105.105 0 0 0 .104.1z" fill="#FFAB00"/>
        <path opacity=".5" clip-rule="evenodd" d="M346.864 90.712v.033H375V90.6a2.752 2.752 0 0 0-2.739-1.798c-.39.023-.77.128-1.117.31a2.771 2.771 0 0 0-1.082-1.434 2.75 2.75 0 0 0-3.379.24 2.781 2.781 0 0 0-.872 1.572h-1.847c-.189-.962-1.271-1.406-2.229-1.406-.128 0-.256.01-.383.028.022-.139.032-.28.032-.42 0-1.779-1.688-3.221-3.77-3.221-1.905 0-3.481 1.207-3.735 2.774a2.68 2.68 0 0 0-3.743.764c-.26.398-.411.859-.438 1.336a1.923 1.923 0 0 0-1.02-.287c-1.002 0-1.814.74-1.814 1.653z" stroke="#FFAB00" stroke-width="1.149"/>
        <path fill-rule="evenodd" clip-rule="evenodd" d="M354.433 48.933c-2.113 0-3.826-1.722-3.826-3.846 0-2.125 1.713-3.847 3.826-3.847s3.826 1.722 3.826 3.847c0 2.124-1.713 3.846-3.826 3.846z" fill="#fff"/>
        <path opacity=".6" fill-rule="evenodd" clip-rule="evenodd" d="M351.344 42.815v4.539a2.562 2.562 0 0 1-.111-.16v-4.22c.035-.054.072-.107.111-.16zM352.13 42.014v6.146a5.614 5.614 0 0 1-.11-.087V42.1l.11-.087zM352.917 41.553v7.065a2.74 2.74 0 0 1-.11-.05v-6.965c.036-.018.073-.034.11-.05zM353.705 41.309v7.553a3.578 3.578 0 0 1-.11-.023v-7.507c.037-.009.071-.017.11-.023zM354.492 41.24v7.691h-.111v-7.69H354.492zM355.28 41.336v7.504a3.285 3.285 0 0 1-.11.023v-7.55c.035.006.074.014.11.023zM356.068 41.606v6.956a2.745 2.745 0 0 1-.11.05v-7.057l.11.051zM356.855 42.107v5.956c-.036.03-.073.06-.11.087v-6.13c.037.03.074.057.11.087zM357.64 42.991v4.191c-.034.056-.071.11-.11.161V42.83c.038.053.075.107.11.161z" fill="#FFAB00"/>
        <path opacity=".6" fill-rule="evenodd" clip-rule="evenodd" d="M356.714 48.172a3.116 3.116 0 0 1-.156.111h-4.25a3.116 3.116 0 0 1-.156-.11h4.562zM357.502 47.383a4.113 4.113 0 0 1-.085.111h-5.967l-.088-.11h6.14zM357.954 46.59a3.26 3.26 0 0 1-.049.111h-6.945a3.267 3.267 0 0 1-.05-.111h7.044zM358.193 45.8a1.964 1.964 0 0 1-.023.11h-7.475l-.023-.11h7.521zM358.259 45.087v.034h-7.653v-.11h7.653v.076zM358.184 44.328h-7.503a2.14 2.14 0 0 1 .023-.11h7.456c.009.036.017.072.024.11zM357.935 43.537h-7.004c.017-.037.033-.074.051-.11h6.902c.017.036.035.072.051.11zM357.469 42.746h-6.072l.087-.111h5.896c.031.037.06.074.089.111zM356.656 41.953h-4.444c.055-.038.11-.075.165-.11h4.118c.053.035.108.074.161.11z" fill="#FFAB00"/>
    </g>
</svg>
