<svg width="416" height="259" viewBox="0 0 416 259" fill="none" xmlns="http://www.w3.org/2000/svg">
<mask id="mask0" mask-type="alpha" maskUnits="userSpaceOnUse" x="26" y="230" width="388" height="19">
<path fill-rule="evenodd" clip-rule="evenodd" d="M26.0503 248.98H413.049V230.651H26.0503V248.98Z" fill="white"/>
</mask>
<g mask="url(#mask0)">
<path opacity="0.3" fill-rule="evenodd" clip-rule="evenodd" d="M92.6337 241.274C92.6337 241.274 25.9295 241.327 26.0505 239.938C26.4558 235.287 78.9117 238.01 83.2194 236.612C85.334 235.927 82.9956 234.434 86.7225 233.468C101.546 229.624 153.115 233.112 171.529 233.085C221.683 233.009 234.382 231.28 240.206 231.057C256.548 230.437 302.781 230.679 315.795 230.801C342.558 231.051 414.547 230.028 413.026 233.957C412.345 235.72 343.218 239.439 331.45 239.916C321.379 240.322 314.461 242.771 305.431 244.208C292.783 246.219 278.909 247.435 265.257 248.2C208.064 251.401 149.434 243.889 92.6337 241.274Z" fill="#333739"/>
</g>
<path fill-rule="evenodd" clip-rule="evenodd" d="M363.435 189.592L283.064 199.067C280.685 199.346 278.478 197.836 277.938 195.558L267.126 149.926C266.418 146.941 268.85 144.123 271.981 144.296L358.007 149.042C360.309 149.168 362.169 150.907 362.401 153.146L365.874 186.619C366.025 188.092 364.941 189.415 363.435 189.592Z" stroke="white"/>
<path d="M270.271 161.135L362.734 163.143" stroke="white"/>
<path d="M274.541 180.22L364.378 175.215" stroke="white"/>
<path fill-rule="evenodd" clip-rule="evenodd" d="M265.331 178.529C264.894 175.529 264.007 172.622 263.334 169.662C262.284 165.078 261.18 160.503 260.088 155.925C259.678 154.21 259.237 152.499 258.811 150.787C258.466 149.334 258.228 147.849 257.747 146.435C257.23 144.913 256.389 143.525 254.717 142.749C253.211 141.477 251.361 141.093 249.356 141.116L249.38 141.128L249.087 140.908C247.748 140.901 246.404 140.849 245.067 140.907C243.95 140.953 243.043 140.71 242.694 139.699C242.33 138.642 242.642 137.74 243.82 137.183C243.993 137.102 244.129 136.96 244.284 136.847C245.669 137.203 247.064 136.819 248.455 136.838C248.716 137.039 249.016 137.021 249.327 136.955L253.402 137.562L254.656 138.006L257.695 139.485C260.427 141.539 261.803 144.31 262.676 147.345C264.125 154.292 265.905 161.181 267.554 168.091C269.351 175.617 271.078 183.157 272.862 190.686C273.832 194.781 274.853 198.864 275.852 202.953C275.652 205.116 274.529 207.042 273.809 209.068C272.405 213.012 270.909 216.93 269.362 220.831C268.937 221.902 269.237 222.036 270.343 221.955C278.208 221.37 286.078 220.826 293.945 220.272C317.397 218.613 340.85 216.96 364.304 215.314C364.991 215.265 366.014 214.799 366.326 215.628C366.722 216.678 366.737 217.848 366.548 218.98C366.528 219.097 366.142 219.209 365.918 219.252C365.57 219.299 365.222 219.328 364.87 219.339L264.44 226.437C262.503 226.574 262.529 226.579 263.149 224.952C265.803 217.978 268.421 210.988 271.115 204.023C271.548 202.898 271.019 201.948 270.792 200.974C269.114 193.645 267.334 186.337 265.584 179.025C265.546 178.845 265.42 178.691 265.331 178.529Z" fill="white"/>
<path opacity="0.5" fill-rule="evenodd" clip-rule="evenodd" d="M265.331 178.529C264.894 175.529 264.007 172.622 263.334 169.662C262.284 165.078 261.18 160.503 260.088 155.925C259.678 154.21 259.237 152.499 258.811 150.787C258.466 149.334 258.228 147.849 257.747 146.435C257.23 144.913 256.389 143.525 254.717 142.749C253.211 141.477 251.361 141.093 249.356 141.116L249.38 141.128L249.087 140.908C247.748 140.901 246.404 140.849 245.067 140.907C243.95 140.953 243.043 140.71 242.694 139.699C242.33 138.642 242.642 137.74 243.82 137.183C243.993 137.102 244.129 136.96 244.284 136.847C245.669 137.203 247.064 136.819 248.455 136.838C248.716 137.039 249.016 137.021 249.327 136.955L253.402 137.562L254.656 138.006L257.695 139.485C260.427 141.539 261.803 144.31 262.676 147.345C264.125 154.292 265.905 161.181 267.554 168.091C269.351 175.617 271.078 183.157 272.862 190.686C273.832 194.781 274.853 198.864 275.852 202.953C275.652 205.116 274.529 207.042 273.809 209.068C272.405 213.012 270.909 216.93 269.362 220.831C268.937 221.902 269.237 222.036 270.343 221.955C278.208 221.37 286.078 220.826 293.945 220.272C317.397 218.613 340.85 216.96 364.304 215.314C364.991 215.265 366.014 214.799 366.326 215.628C366.722 216.678 366.737 217.848 366.548 218.98C366.528 219.097 366.142 219.209 365.918 219.252C365.57 219.299 365.222 219.328 364.87 219.339L264.44 226.437C262.503 226.574 262.529 226.579 263.149 224.952C265.803 217.978 268.421 210.988 271.115 204.023C271.548 202.898 271.019 201.948 270.792 200.974C269.114 193.645 267.334 186.337 265.584 179.025C265.546 178.845 265.42 178.691 265.331 178.529Z" fill="#333739"/>
<path fill-rule="evenodd" clip-rule="evenodd" d="M284.393 235.104C282.888 239.743 277.833 240.719 274.631 238.537C273.643 237.865 273.109 236.88 272.48 235.944C271.355 232.296 272.548 229.098 275.654 227.831C277.897 226.916 280.188 226.961 282.143 228.537C284.234 230.223 284.913 232.489 284.393 235.104Z" fill="white"/>
<path fill-rule="evenodd" clip-rule="evenodd" d="M359.256 229.812C357.751 234.451 352.696 235.427 349.494 233.245C348.506 232.573 347.972 231.588 347.344 230.652C346.218 227.004 347.411 223.806 350.518 222.539C352.76 221.624 355.051 221.669 357.006 223.246C359.097 224.931 359.777 227.198 359.256 229.812Z" fill="white"/>
<path opacity="0.5" fill-rule="evenodd" clip-rule="evenodd" d="M284.393 235.104C282.888 239.743 277.833 240.719 274.631 238.537C273.643 237.865 273.109 236.88 272.48 235.944C271.355 232.296 272.548 229.098 275.654 227.831C277.897 226.916 280.188 226.961 282.143 228.537C284.234 230.223 284.913 232.489 284.393 235.104Z" fill="#333739"/>
<path opacity="0.5" fill-rule="evenodd" clip-rule="evenodd" d="M359.256 229.812C357.751 234.451 352.696 235.427 349.494 233.245C348.506 232.573 347.972 231.588 347.344 230.652C346.218 227.004 347.411 223.806 350.518 222.539C352.76 221.624 355.051 221.669 357.006 223.246C359.097 224.931 359.777 227.198 359.256 229.812Z" fill="#333739"/>
<path opacity="0.5" fill-rule="evenodd" clip-rule="evenodd" d="M272.009 143.794C268.559 143.604 265.848 146.715 266.637 150.042L277.449 195.674C278.05 198.208 280.499 199.874 283.122 199.565L363.494 190.09C365.262 189.882 366.554 188.323 366.374 186.568L362.228 153.052L362.228 153.047C361.967 150.556 359.9 148.638 357.362 148.498L272.009 143.794ZM271.954 144.797C269.141 144.642 266.988 147.168 267.615 149.81L270.274 161.03L270.282 160.633L362.401 162.634L361.229 153.155C361.022 151.17 359.37 149.614 357.306 149.5L271.954 144.797ZM362.525 163.641L270.418 161.64L274.699 179.709L363.898 174.739L362.525 163.641ZM278.427 195.442L274.934 180.701L364.022 175.738L365.374 186.671L365.374 186.675C365.494 187.863 364.618 188.947 363.377 189.093L283.005 198.568C280.871 198.819 278.906 197.463 278.427 195.442Z" fill="#333739"/>
<path fill-rule="evenodd" clip-rule="evenodd" d="M229.068 120.311L216.266 99.9102L210.285 106.518L221.877 122.241L236.626 135.789L242.816 132.317L236.626 135.789L237.591 139.064C237.591 139.064 239.327 139.883 239.486 139.914C239.645 139.946 241.523 139.622 241.675 139.646C241.826 139.672 242.536 140.271 242.775 140.323C243.013 140.375 244.941 139.981 245.126 140.031C245.309 140.082 246.808 141.139 247.047 141.163C247.286 141.187 249.371 138.768 249.371 138.768L246.735 134.722L243.406 131.987" fill="#FFDDC5"/>
<path fill-rule="evenodd" clip-rule="evenodd" d="M227.538 120.311L214.737 99.9102L208.756 106.518L220.347 122.241L235.096 135.789L241.286 132.317L235.096 135.789L236.061 139.064C236.061 139.064 237.797 139.883 237.956 139.914C238.116 139.946 239.994 139.622 240.145 139.646C240.297 139.672 241.007 140.271 241.245 140.323C241.484 140.375 243.411 139.981 243.596 140.031C243.78 140.082 245.279 141.139 245.517 141.163C245.756 141.187 247.841 138.768 247.841 138.768L245.205 134.722L241.877 131.987" fill="#FFDDC5"/>
<path fill-rule="evenodd" clip-rule="evenodd" d="M135.073 166.655L134.396 174.537C134.396 174.537 129.014 178.741 127.703 180.401C126.391 182.06 124.363 188.312 124.363 188.312L122.418 188.156L122.871 182.547C122.871 182.547 128.959 171.261 125.138 169.008C123.713 168.168 124.349 164.665 124.349 164.665L135.17 165.527" fill="#333739"/>
<path d="M226.594 239.31L222.75 239.847C222.736 239.849 222.722 239.851 222.72 239.836L221.602 229.256C221.6 229.241 221.611 229.224 221.625 229.222L230.136 227.998C230.15 227.996 230.15 227.996 230.15 227.996C230.286 228.164 235.092 233.904 243.232 234.592C244.398 234.689 245.313 235.479 245.424 236.54C245.427 236.555 245.415 236.572 245.401 236.574L229.431 238.902" fill="#333739"/>
<path d="M221.351 229.206L230.414 227.903L232.928 230.205C232.928 230.205 230.798 232.533 227.87 232.954C224.941 233.375 221.662 232.499 221.662 232.499L221.327 229.242L221.351 229.206Z" fill="#FFDDC5"/>
<path fill-rule="evenodd" clip-rule="evenodd" d="M208.518 90.4256C208.556 90.4607 203.334 91.2993 200.285 89.2754C197.415 87.3736 195.939 81.8716 195.987 81.8777C197.409 82.0549 199.171 81.0865 201.753 73.2031L202.318 73.5208L211.803 78.8839C211.803 78.8839 210.515 81.9969 209.512 84.9999C208.669 87.5218 208.028 89.9658 208.518 90.4256Z" fill="#FFDDC5"/>
<path opacity="0.1" fill-rule="evenodd" clip-rule="evenodd" d="M211.486 79.7434C211.486 79.7434 210.228 82.7815 209.251 85.7113C203.76 83.724 202.504 77.7072 202.231 74.5117L211.486 79.7434Z" fill="#333739"/>
<path fill-rule="evenodd" clip-rule="evenodd" d="M212.652 82.917C212.652 82.917 199.399 79.0204 201.957 70.8165C204.515 62.6127 204.527 56.5841 213.097 58.726C221.665 60.8679 222.325 64.5065 222.139 67.452C221.952 70.3975 216.164 83.7198 212.652 82.917Z" fill="#FFDDC5"/>
<path fill-rule="evenodd" clip-rule="evenodd" d="M209.059 134.402L188.797 136.552L220.64 229.722L230.446 228.254" fill="#333739"/>
<path fill-rule="evenodd" clip-rule="evenodd" d="M208.968 135.91L185.433 126.681L166.221 167.191L134.176 164.918L132.887 176.99C132.887 176.99 170.764 181.875 174.959 180.247C179.155 178.617 208.968 135.91 208.968 135.91Z" fill="#333739"/>
<path fill-rule="evenodd" clip-rule="evenodd" d="M210.861 135.621C210.861 135.621 202.59 134.813 202.31 134.587C201.961 134.304 205.063 103.91 205.063 103.929L206.859 108.898" fill="white"/>
<mask id="mask1" mask-type="alpha" maskUnits="userSpaceOnUse" x="201" y="52" width="27" height="21">
<path fill-rule="evenodd" clip-rule="evenodd" d="M201.048 53.2207L226.941 52.7873L227.266 72.1264L201.373 72.5598L201.048 53.2207Z" fill="white"/>
</mask>
<g mask="url(#mask1)">
<path fill-rule="evenodd" clip-rule="evenodd" d="M226.302 58.2449C228.374 63.8781 226.16 66.0143 222.251 64.7338C218.339 63.4548 212.823 61.0249 212.823 61.0249C212.823 61.0249 206.199 73.6555 206.903 70.2125C207.607 66.7709 209.493 66.9379 208.804 64.0941C208.115 61.2549 205.986 62.1033 205.364 63.7514C204.744 65.4011 201.373 72.5599 201.373 72.5599C201.373 72.5599 202.038 63.6681 204.367 59.0642C206.696 54.4649 210.37 51.3021 214.965 54.0959C219.563 56.8941 219.497 58.6949 222.696 59.341C225.893 59.9888 226.302 58.2449 226.302 58.2449Z" fill="#333739"/>
</g>
<path fill-rule="evenodd" clip-rule="evenodd" d="M209.193 107.41L205.953 102.734C205.953 102.734 203.44 132.487 203.265 134.242C203.088 135.999 202.349 137.514 200.85 139.973C199.349 142.431 197.304 142.5 195.108 143.415C192.913 144.329 176.206 140.179 176.206 140.179C176.206 140.179 174.358 126.808 181.823 106.654C189.288 86.5018 196.48 79.4922 196.48 79.4922C204.128 85.6021 210.511 87.1235 210.511 87.1235L218.371 101.3" fill="#FF6666"/>
<path fill-rule="evenodd" clip-rule="evenodd" d="M115.111 208.059C134.627 209.489 146.182 176.413 162.546 167.552C166.897 165.197 172.088 164.538 175.589 168.754C176.811 170.227 177.292 174.541 175.165 175.784C173.484 176.766 172.925 173.939 170.953 173.827C167.692 173.642 164.977 178.219 163.863 180.089C160.823 185.189 156.773 193.222 153.959 198.435C147.162 211.027 138.904 220.246 124.075 222.266L115.111 208.059Z" fill="#E52B31"/>
<mask id="mask2" mask-type="alpha" maskUnits="userSpaceOnUse" x="115" y="165" width="62" height="58">
<path fill-rule="evenodd" clip-rule="evenodd" d="M162.546 167.552C146.182 176.413 134.627 209.489 115.111 208.059L124.075 222.266C138.904 220.246 147.162 211.027 153.959 198.435C156.773 193.222 160.823 185.189 163.863 180.089C164.977 178.219 167.692 173.642 170.953 173.827C172.925 173.939 173.484 176.766 175.165 175.784C177.292 174.541 176.811 170.227 175.589 168.754C173.765 166.558 171.483 165.685 169.1 165.685C166.908 165.685 164.63 166.424 162.546 167.552Z" fill="white"/>
</mask>
<g mask="url(#mask2)">
<path fill-rule="evenodd" clip-rule="evenodd" d="M177.884 174.954C174.292 168.697 167.001 170.24 162.989 175.097C159.254 179.618 156.399 184.703 153.69 189.855C148.93 198.905 133.299 215.524 127.11 204.526C124.884 200.572 124.304 204.572 119.796 205.927C119.534 215.07 128.525 219.939 132.649 220.055C151.046 220.571 154.424 200.937 164.536 189.936C168.225 185.923 176.319 180.284 177.884 174.954Z" fill="#BA1918"/>
</g>
<mask id="mask3" mask-type="alpha" maskUnits="userSpaceOnUse" x="115" y="165" width="62" height="58">
<path fill-rule="evenodd" clip-rule="evenodd" d="M162.546 167.552C146.182 176.413 134.627 209.489 115.111 208.059L124.075 222.266C138.904 220.246 147.162 211.027 153.959 198.435C156.773 193.222 160.823 185.189 163.863 180.089C164.977 178.219 167.692 173.642 170.953 173.827C172.925 173.939 173.484 176.766 175.165 175.784C177.292 174.541 176.811 170.227 175.589 168.754C173.765 166.558 171.483 165.685 169.1 165.685C166.908 165.685 164.63 166.424 162.546 167.552Z" fill="white"/>
</mask>
<g mask="url(#mask3)">
<path fill-rule="evenodd" clip-rule="evenodd" d="M126.222 204.315C135.278 205.895 149.341 180.691 158.113 173.026C162.46 169.227 168.876 164.285 175.096 166.763C169.44 162.493 161.794 165.421 156.779 169.327C148.656 175.655 142.391 184.153 136.012 192.108C133.171 195.65 128.273 200.208 126.222 204.315Z" fill="#F090AD"/>
</g>
<path fill-rule="evenodd" clip-rule="evenodd" d="M115.111 208.059C134.627 209.489 146.182 176.413 162.546 167.552C166.897 165.197 172.088 164.538 175.589 168.754C176.812 170.227 177.292 174.541 175.165 175.784C173.484 176.766 172.926 173.939 170.953 173.827C167.693 173.642 164.977 178.219 163.863 180.089C160.824 185.189 156.773 193.222 153.96 198.435C147.163 211.027 138.905 220.246 124.075 222.266L115.111 208.059Z" stroke="black" stroke-width="0.868854" stroke-linecap="round" stroke-linejoin="round"/>
<path fill-rule="evenodd" clip-rule="evenodd" d="M78.5392 211.951C61.2426 203.455 55.6806 187.515 45.9962 171.795C41.8197 165.015 37.7734 160.039 30.1534 159.022C26.6571 158.554 22.3733 161.562 24.078 165.684C24.2037 165.988 30.5575 164.304 33.3858 171.143C35.7319 176.816 39.4436 186.919 41.1636 192.715C45.5039 207.341 53.5292 219.487 68.4356 225.097L78.5392 211.951Z" fill="#E52B31"/>
<mask id="mask4" mask-type="alpha" maskUnits="userSpaceOnUse" x="23" y="158" width="56" height="68">
<path fill-rule="evenodd" clip-rule="evenodd" d="M24.078 165.684C24.1018 165.742 24.3484 165.728 24.7518 165.715C26.4813 165.656 31.0925 165.598 33.3859 171.143C35.7319 176.816 39.4437 186.919 41.1637 192.715C45.504 207.341 53.5293 219.487 68.4358 225.097L78.5393 211.951C61.2427 203.455 55.6806 187.515 45.9963 171.795C41.8197 165.015 37.7734 160.04 30.1535 159.022C29.9127 158.989 29.668 158.974 29.422 158.974C26.0953 158.973 22.4906 161.846 24.078 165.684Z" fill="white"/>
</mask>
<g mask="url(#mask4)">
<path fill-rule="evenodd" clip-rule="evenodd" d="M77.1247 210.472C74.7144 210.791 74.9569 208.146 72.9493 206.82C61.6315 199.345 56.9292 185.076 51.2934 173.92C48.98 169.34 45.8435 165.232 41.4168 162.498C40.2183 161.758 38.906 161.077 37.5869 160.573C37.4568 160.523 36.0171 160.106 36.0163 160.13C35.9318 162.422 37.0199 165.145 35.6613 169.759C34.3057 174.364 33.7426 173.123 34.2203 178.593C34.2508 178.941 34.2084 180.568 34.4999 180.313C35.3596 179.559 41.3568 175.209 46.1293 181.46C51.3172 188.254 53.7123 205.417 60.2948 211.55C67.469 218.235 73.4739 217.579 77.1247 210.472Z" fill="#BA1918"/>
</g>
<mask id="mask5" mask-type="alpha" maskUnits="userSpaceOnUse" x="23" y="158" width="56" height="68">
<path fill-rule="evenodd" clip-rule="evenodd" d="M24.078 165.684C24.1018 165.742 24.3484 165.728 24.7518 165.715C26.4813 165.656 31.0925 165.598 33.3859 171.143C35.7319 176.816 39.4437 186.919 41.1637 192.715C45.504 207.341 53.5293 219.487 68.4358 225.097L78.5393 211.951C61.2427 203.455 55.6806 187.515 45.9963 171.795C41.8197 165.015 37.7734 160.04 30.1535 159.022C29.9127 158.989 29.668 158.974 29.422 158.974C26.0953 158.973 22.4906 161.846 24.078 165.684Z" fill="white"/>
</mask>
<g mask="url(#mask5)">
<path fill-rule="evenodd" clip-rule="evenodd" d="M35.6582 179.496C41.7614 184.417 43.0055 192.865 45.6521 199.694C47.5019 204.467 50.8938 209.48 54.4592 213.174C51.4171 211.806 48.3774 210.067 46.1457 207.567C41.5011 202.364 36.8618 186.792 35.6582 179.496Z" fill="#F090AD"/>
</g>
<mask id="mask6" mask-type="alpha" maskUnits="userSpaceOnUse" x="23" y="158" width="56" height="68">
<path fill-rule="evenodd" clip-rule="evenodd" d="M24.078 165.684C24.1018 165.742 24.3484 165.728 24.7518 165.715C26.4813 165.656 31.0925 165.598 33.3859 171.143C35.7319 176.816 39.4437 186.919 41.1637 192.715C45.504 207.341 53.5293 219.487 68.4358 225.097L78.5393 211.951C61.2427 203.455 55.6806 187.515 45.9963 171.795C41.8197 165.015 37.7734 160.04 30.1535 159.022C29.9127 158.989 29.668 158.974 29.422 158.974C26.0953 158.973 22.4906 161.846 24.078 165.684Z" fill="white"/>
</mask>
<g mask="url(#mask6)">
<path fill-rule="evenodd" clip-rule="evenodd" d="M24.7526 164.755C26.1679 161.43 29.02 158.674 32.8863 159.447C29.2626 158.493 20.9262 159.094 21.9956 164.866C22.5478 164.818 24.1984 164.777 24.7526 164.755Z" fill="#F090AD"/>
</g>
<path fill-rule="evenodd" clip-rule="evenodd" d="M78.5392 211.951C61.2426 203.455 55.6806 187.515 45.9962 171.795C41.8197 165.015 37.7734 160.039 30.1534 159.022C26.6571 158.554 22.3733 161.562 24.078 165.684C24.2037 165.988 30.5575 164.304 33.3858 171.143C35.7319 176.816 39.4436 186.919 41.1636 192.715C45.5039 207.341 53.5292 219.487 68.4356 225.097L78.5392 211.951Z" stroke="black" stroke-width="0.868854" stroke-linecap="round" stroke-linejoin="round"/>
<path fill-rule="evenodd" clip-rule="evenodd" d="M118.329 212.512C120.89 213.016 124.126 213.304 127.399 213.068C141.8 212.03 149.497 202.35 161.562 195.931C164.731 194.244 173.196 189.736 178.897 191.438C184.245 193.036 184.583 199.644 179.626 202.669C176.595 204.519 172.531 203.015 172.699 199.23C170.265 200.583 167.834 202.173 165.848 204.133C157.711 212.157 147.641 226.524 134.847 227.71L118.329 212.512Z" fill="#E52B31"/>
<mask id="mask7" mask-type="alpha" maskUnits="userSpaceOnUse" x="118" y="191" width="66" height="37">
<path fill-rule="evenodd" clip-rule="evenodd" d="M161.562 195.931C149.497 202.35 141.8 212.03 127.399 213.068C124.126 213.304 120.889 213.016 118.329 212.512L134.847 227.71C147.641 226.524 157.711 212.157 165.848 204.133C167.834 202.173 170.265 200.583 172.699 199.23C172.531 203.015 176.595 204.519 179.626 202.669C184.583 199.644 184.245 193.035 178.897 191.438C178.017 191.175 177.071 191.061 176.088 191.061C170.708 191.061 164.242 194.505 161.562 195.931Z" fill="white"/>
</mask>
<g mask="url(#mask7)">
<path fill-rule="evenodd" clip-rule="evenodd" d="M131.025 210.952C134.59 220.034 142.476 218.105 147.811 214.444C155.453 209.201 165.399 196.273 175.424 195.389C173.027 196.977 170.838 201.736 175.335 201.927C180.854 202.163 181.584 194.87 178.869 191.598C183.915 192.912 185.197 198.691 182.24 202.645C180.765 204.617 178.526 205.966 176.483 207.283C173.039 209.502 169.376 211.362 165.986 213.669C154.023 221.812 137.802 235.331 125.115 220.304C123.262 218.11 121.766 215.375 121.401 212.51C124.259 212.658 128.17 211.066 131.025 210.952Z" fill="#BA1918"/>
</g>
<mask id="mask8" mask-type="alpha" maskUnits="userSpaceOnUse" x="118" y="191" width="66" height="37">
<path fill-rule="evenodd" clip-rule="evenodd" d="M161.562 195.931C149.497 202.35 141.8 212.03 127.399 213.068C124.126 213.304 120.889 213.016 118.329 212.512L134.847 227.71C147.641 226.524 157.711 212.157 165.848 204.133C167.834 202.173 170.265 200.583 172.699 199.23C172.531 203.015 176.595 204.519 179.626 202.669C184.583 199.644 184.245 193.035 178.897 191.438C178.017 191.175 177.071 191.061 176.088 191.061C170.708 191.061 164.242 194.505 161.562 195.931Z" fill="white"/>
</mask>
<g mask="url(#mask8)">
<path fill-rule="evenodd" clip-rule="evenodd" d="M132.119 211.978C138.633 214.495 149.995 205.985 156.591 201.346C162.693 197.054 171.429 191.753 179.093 191.146C164.737 189.307 157.363 198.664 146.454 205.096C142.453 207.455 135.967 209.412 132.119 211.978Z" fill="#F090AD"/>
</g>
<path fill-rule="evenodd" clip-rule="evenodd" d="M118.329 212.512C120.89 213.016 124.126 213.304 127.399 213.068C141.8 212.03 149.497 202.35 161.562 195.931C164.731 194.244 173.196 189.736 178.897 191.438C184.245 193.036 184.583 199.644 179.626 202.669C176.595 204.519 172.531 203.015 172.699 199.23C170.265 200.583 167.834 202.173 165.848 204.133C157.711 212.157 147.641 226.524 134.847 227.71L118.329 212.512Z" stroke="black" stroke-width="0.868854" stroke-linecap="round" stroke-linejoin="round"/>
<path fill-rule="evenodd" clip-rule="evenodd" d="M110.349 134.6C93.367 131.665 87.3931 134.641 83.4017 138.223C70.328 149.96 66.7833 168.035 72.8419 184.428C75.0139 190.305 80.2859 195.742 80.7605 202.123C81.5295 212.47 68.5751 215.743 60.6979 212.843C49.001 208.536 39.8675 199.556 28.8666 194.606C27.3614 193.929 25.7624 193.453 24.1393 193.296C22.816 193.168 21.4345 193.305 20.1315 193.563C14.0646 194.768 15.0645 203.18 21.1694 203.371C22.6967 203.419 23.9565 202.497 24.6571 201.21C29.8869 202.87 32.9011 207.593 36.0712 211.673C40.1723 216.952 45.7104 223.204 51.7982 226.244C45.5343 227.479 38.2967 228.966 33.7874 234.015C24.4995 244.413 35.0268 252.037 45.4545 252.959C62.7914 254.492 71.3461 239.644 84.8384 236.923C85.8815 236.713 92.1716 236.438 90.7435 234.171C90.2524 233.392 89.4292 232.641 88.636 232.175C107.272 226.308 127.249 255.977 144.322 245.746C151.38 241.517 150.346 233.073 139.829 225.079C130.562 218.035 122.15 214.556 120.45 208.18C119.187 203.44 127.148 196.568 134.055 189.009C143.493 178.678 152.578 141.9 110.349 134.6Z" fill="#E52B31"/>
<mask id="mask9" mask-type="alpha" maskUnits="userSpaceOnUse" x="16" y="133" width="133" height="121">
<path fill-rule="evenodd" clip-rule="evenodd" d="M83.4017 138.223C70.3281 149.96 66.7833 168.035 72.8419 184.428C75.0139 190.305 80.2859 195.742 80.7605 202.123C81.5294 212.47 68.5751 215.743 60.6979 212.843C49.0011 208.536 39.8675 199.556 28.8666 194.606C27.3614 193.928 25.7624 193.453 24.1393 193.296C22.8161 193.168 21.4345 193.305 20.1315 193.563C14.0646 194.768 15.0645 203.18 21.1694 203.371C22.6968 203.419 23.9565 202.497 24.6571 201.21C29.887 202.87 32.9011 207.593 36.0712 211.673C40.1723 216.952 45.7104 223.204 51.7983 226.244C45.5343 227.479 38.2967 228.966 33.7874 234.015C24.4995 244.413 35.0267 252.037 45.4545 252.959C62.7914 254.492 71.3461 239.644 84.8384 236.923C85.8814 236.713 92.1716 236.438 90.7435 234.171C90.2524 233.392 89.4292 232.641 88.636 232.175C97.4152 229.411 106.492 234.533 115.422 239.655C125.449 245.406 135.292 251.157 144.322 245.746C151.38 241.517 150.346 233.073 139.829 225.079C130.562 218.035 122.15 214.556 120.45 208.18C119.187 203.44 127.148 196.568 134.055 189.009C143.493 178.678 152.578 141.9 110.349 134.6C105.516 133.765 101.573 133.408 98.3148 133.408C90.1258 133.408 86.2571 135.66 83.4017 138.223Z" fill="white"/>
</mask>
<g mask="url(#mask9)">
<path fill-rule="evenodd" clip-rule="evenodd" d="M127.213 146.47C130.114 151.118 130.875 156.825 129.854 162.141C128.593 168.7 125.587 174.898 121.383 180.105C114.882 188.155 103.732 194.068 105.418 206.035C107.369 219.892 124.461 222.463 134.658 228.104C138.058 229.984 144.325 234.962 139.831 238.958C134.248 243.922 115.065 232.866 109.305 230.754C105.479 229.351 90.7252 225.729 87.7879 230.485C84.8475 235.245 98.3733 236.531 100.769 237.374C106.464 239.379 111.113 243.04 116.357 245.873C120.957 248.358 125.585 249.902 130.678 251.062C134.927 252.031 139.066 252.716 143.395 251.809C147.183 251.015 150.204 248.865 152 245.441C159.834 230.504 137.862 223.748 137.018 210.671C136.438 201.695 143.788 193.312 146.198 184.902C148.033 178.502 149.091 170.982 147.986 164.37C145.73 150.881 141.103 147.896 127.213 146.47Z" fill="#BA1918"/>
</g>
<mask id="mask10" mask-type="alpha" maskUnits="userSpaceOnUse" x="16" y="133" width="133" height="121">
<path fill-rule="evenodd" clip-rule="evenodd" d="M83.4017 138.223C70.3281 149.96 66.7833 168.035 72.8419 184.428C75.0139 190.305 80.2859 195.742 80.7605 202.123C81.5294 212.47 68.5751 215.743 60.6979 212.843C49.0011 208.536 39.8675 199.556 28.8666 194.606C27.3614 193.928 25.7624 193.453 24.1393 193.296C22.8161 193.168 21.4345 193.305 20.1315 193.563C14.0646 194.768 15.0645 203.18 21.1694 203.371C22.6968 203.419 23.9565 202.497 24.6571 201.21C29.887 202.87 32.9011 207.593 36.0712 211.673C40.1723 216.952 45.7104 223.204 51.7983 226.244C45.5343 227.479 38.2967 228.966 33.7874 234.015C24.4995 244.413 35.0267 252.037 45.4545 252.959C62.7914 254.492 71.3461 239.644 84.8384 236.923C85.8814 236.713 92.1716 236.438 90.7435 234.171C90.2524 233.392 89.4292 232.641 88.636 232.175C97.4152 229.411 106.492 234.533 115.422 239.655C125.449 245.406 135.292 251.157 144.322 245.746C151.38 241.517 150.346 233.073 139.829 225.079C130.562 218.035 122.15 214.556 120.45 208.18C119.187 203.44 127.148 196.568 134.055 189.009C143.493 178.678 152.578 141.9 110.349 134.6C105.516 133.765 101.573 133.408 98.3148 133.408C90.1258 133.408 86.2571 135.66 83.4017 138.223Z" fill="white"/>
</mask>
<g mask="url(#mask10)">
<path fill-rule="evenodd" clip-rule="evenodd" d="M29.6008 244.109C41.669 258.73 62.603 240.842 75.3038 236.027C78.1375 234.952 91.3093 229.781 93.2779 233.066C96.1482 237.856 82.0814 245.814 78.9594 248.177C65.8943 258.063 37.997 267.153 29.6008 244.109Z" fill="#BA1918"/>
</g>
<mask id="mask11" mask-type="alpha" maskUnits="userSpaceOnUse" x="16" y="133" width="133" height="121">
<path fill-rule="evenodd" clip-rule="evenodd" d="M83.4017 138.223C70.3281 149.96 66.7833 168.035 72.8419 184.428C75.0139 190.305 80.2859 195.742 80.7605 202.123C81.5294 212.47 68.5751 215.743 60.6979 212.843C49.0011 208.536 39.8675 199.556 28.8666 194.606C27.3614 193.928 25.7624 193.453 24.1393 193.296C22.8161 193.168 21.4345 193.305 20.1315 193.563C14.0646 194.768 15.0645 203.18 21.1694 203.371C22.6968 203.419 23.9565 202.497 24.6571 201.21C29.887 202.87 32.9011 207.593 36.0712 211.673C40.1723 216.952 45.7104 223.204 51.7983 226.244C45.5343 227.479 38.2967 228.966 33.7874 234.015C24.4995 244.413 35.0267 252.037 45.4545 252.959C62.7914 254.492 71.3461 239.644 84.8384 236.923C85.8814 236.713 92.1716 236.438 90.7435 234.171C90.2524 233.392 89.4292 232.641 88.636 232.175C97.4152 229.411 106.492 234.533 115.422 239.655C125.449 245.406 135.292 251.157 144.322 245.746C151.38 241.517 150.346 233.073 139.829 225.079C130.562 218.035 122.15 214.556 120.45 208.18C119.187 203.44 127.148 196.568 134.055 189.009C143.493 178.678 152.578 141.9 110.349 134.6C105.516 133.765 101.573 133.408 98.3148 133.408C90.1258 133.408 86.2571 135.66 83.4017 138.223Z" fill="white"/>
</mask>
<g mask="url(#mask11)">
<path fill-rule="evenodd" clip-rule="evenodd" d="M76.3349 216.999C72.3124 219.946 68.5825 220.534 63.5061 220.22C46.9571 219.193 39.61 201.623 24.4519 199.352C24.4556 199.387 24.4588 199.422 24.4614 199.458C24.2581 198.848 23.9162 198.153 23.3986 197.743C23.2287 197.608 23.0318 197.509 22.8349 197.418C22.7323 197.371 22.5066 197.183 22.5194 197.295C22.5964 197.966 23.0325 198.465 22.9767 199.194C22.777 201.8 20.3786 202.176 18.2526 202.183C18.1707 202.183 18.4381 202.784 18.4714 202.835C18.7562 203.268 19.2468 203.566 19.7265 203.742C21.1363 204.258 22.464 203.814 23.6562 203.059C27.6394 207.265 33.2626 212.726 36.8414 217.096C38.9531 219.674 40.8191 222.714 43.288 225.002C46.9583 228.403 55.7568 225.866 61.819 224.393C65.0104 223.618 72.8882 221.156 76.3349 216.999Z" fill="#BA1918"/>
</g>
<mask id="mask12" mask-type="alpha" maskUnits="userSpaceOnUse" x="16" y="133" width="133" height="121">
<path fill-rule="evenodd" clip-rule="evenodd" d="M83.4017 138.223C70.3281 149.96 66.7833 168.035 72.8419 184.428C75.0139 190.305 80.2859 195.742 80.7605 202.123C81.5294 212.47 68.5751 215.743 60.6979 212.843C49.0011 208.536 39.8675 199.556 28.8666 194.606C27.3614 193.928 25.7624 193.453 24.1393 193.296C22.8161 193.168 21.4345 193.305 20.1315 193.563C14.0646 194.768 15.0645 203.18 21.1694 203.371C22.6968 203.419 23.9565 202.497 24.6571 201.21C29.887 202.87 32.9011 207.593 36.0712 211.673C40.1723 216.952 45.7104 223.204 51.7983 226.244C45.5343 227.479 38.2967 228.966 33.7874 234.015C24.4995 244.413 35.0267 252.037 45.4545 252.959C62.7914 254.492 71.3461 239.644 84.8384 236.923C85.8814 236.713 92.1716 236.438 90.7435 234.171C90.2524 233.392 89.4292 232.641 88.636 232.175C97.4152 229.411 106.492 234.533 115.422 239.655C125.449 245.406 135.292 251.157 144.322 245.746C151.38 241.517 150.346 233.073 139.829 225.079C130.562 218.035 122.15 214.556 120.45 208.18C119.187 203.44 127.148 196.568 134.055 189.009C143.493 178.678 152.578 141.9 110.349 134.6C105.516 133.765 101.573 133.408 98.3148 133.408C90.1258 133.408 86.2571 135.66 83.4017 138.223Z" fill="white"/>
</mask>
<g mask="url(#mask12)">
<path fill-rule="evenodd" clip-rule="evenodd" d="M16.5401 202.176C17.0195 193.599 24.6417 192.492 31.2471 195.338C27.8086 192.627 22.8777 190.785 18.6073 192.749C15.9184 193.985 13.2417 199.678 16.5401 202.176Z" fill="#F090AD"/>
</g>
<mask id="mask13" mask-type="alpha" maskUnits="userSpaceOnUse" x="16" y="133" width="133" height="121">
<path fill-rule="evenodd" clip-rule="evenodd" d="M83.4017 138.223C70.3281 149.96 66.7833 168.035 72.8419 184.428C75.0139 190.305 80.2859 195.742 80.7605 202.123C81.5294 212.47 68.5751 215.743 60.6979 212.843C49.0011 208.536 39.8675 199.556 28.8666 194.606C27.3614 193.928 25.7624 193.453 24.1393 193.296C22.8161 193.168 21.4345 193.305 20.1315 193.563C14.0646 194.768 15.0645 203.18 21.1694 203.371C22.6968 203.419 23.9565 202.497 24.6571 201.21C29.887 202.87 32.9011 207.593 36.0712 211.673C40.1723 216.952 45.7104 223.204 51.7983 226.244C45.5343 227.479 38.2967 228.966 33.7874 234.015C24.4995 244.413 35.0267 252.037 45.4545 252.959C62.7914 254.492 71.3461 239.644 84.8384 236.923C85.8814 236.713 92.1716 236.438 90.7435 234.171C90.2524 233.392 89.4292 232.641 88.636 232.175C97.4152 229.411 106.492 234.533 115.422 239.655C125.449 245.406 135.292 251.157 144.322 245.746C151.38 241.517 150.346 233.073 139.829 225.079C130.562 218.035 122.15 214.556 120.45 208.18C119.187 203.44 127.148 196.568 134.055 189.009C143.493 178.678 152.578 141.9 110.349 134.6C105.516 133.765 101.573 133.408 98.3148 133.408C90.1258 133.408 86.2571 135.66 83.4017 138.223Z" fill="white"/>
</mask>
<g mask="url(#mask13)">
<path fill-rule="evenodd" clip-rule="evenodd" d="M48.97 207.203C53.8594 210.837 60.0721 215.57 68.7207 215.92C83.9415 216.535 82.7041 205.836 80.4333 198.898C80.3224 209.534 69.9429 214.184 60.5717 212.131C56.6523 211.272 52.4111 209.135 48.97 207.203Z" fill="#F090AD"/>
</g>
<mask id="mask14" mask-type="alpha" maskUnits="userSpaceOnUse" x="16" y="133" width="133" height="121">
<path fill-rule="evenodd" clip-rule="evenodd" d="M83.4017 138.223C70.3281 149.96 66.7833 168.035 72.8419 184.428C75.0139 190.305 80.2859 195.742 80.7605 202.123C81.5294 212.47 68.5751 215.743 60.6979 212.843C49.0011 208.536 39.8675 199.556 28.8666 194.606C27.3614 193.928 25.7624 193.453 24.1393 193.296C22.8161 193.168 21.4345 193.305 20.1315 193.563C14.0646 194.768 15.0645 203.18 21.1694 203.371C22.6968 203.419 23.9565 202.497 24.6571 201.21C29.887 202.87 32.9011 207.593 36.0712 211.673C40.1723 216.952 45.7104 223.204 51.7983 226.244C45.5343 227.479 38.2967 228.966 33.7874 234.015C24.4995 244.413 35.0267 252.037 45.4545 252.959C62.7914 254.492 71.3461 239.644 84.8384 236.923C85.8814 236.713 92.1716 236.438 90.7435 234.171C90.2524 233.392 89.4292 232.641 88.636 232.175C97.4152 229.411 106.492 234.533 115.422 239.655C125.449 245.406 135.292 251.157 144.322 245.746C151.38 241.517 150.346 233.073 139.829 225.079C130.562 218.035 122.15 214.556 120.45 208.18C119.187 203.44 127.148 196.568 134.055 189.009C143.493 178.678 152.578 141.9 110.349 134.6C105.516 133.765 101.573 133.408 98.3148 133.408C90.1258 133.408 86.2571 135.66 83.4017 138.223Z" fill="white"/>
</mask>
<g mask="url(#mask14)">
<path fill-rule="evenodd" clip-rule="evenodd" d="M76.6154 217.199C75.6589 219.918 75.1897 220.662 73.4813 222.128C70.9151 224.331 66.5734 225.556 63.3693 226.205C56.2049 227.655 48.4397 227.822 41.7043 230.791C37.0738 232.832 32.9397 236.366 31.5954 241.375C31.1325 243.1 31.0165 244.763 31.4946 246.492C31.6703 247.128 31.8445 247.77 32.0653 248.392C32.1448 248.616 32.5369 249.137 32.3097 249.062C31.515 248.797 30.8286 248.023 30.3003 247.395C27.4619 244.026 27.8577 239.271 29.986 235.646C35.805 225.733 48.5414 226.755 58.4061 225.062C62.5949 224.343 66.8397 223.001 70.6379 221.116C72.8196 220.034 74.9168 218.974 76.6154 217.199Z" fill="#F090AD"/>
</g>
<mask id="mask15" mask-type="alpha" maskUnits="userSpaceOnUse" x="16" y="133" width="133" height="121">
<path fill-rule="evenodd" clip-rule="evenodd" d="M83.4017 138.223C70.3281 149.96 66.7833 168.035 72.8419 184.428C75.0139 190.305 80.2859 195.742 80.7605 202.123C81.5294 212.47 68.5751 215.743 60.6979 212.843C49.0011 208.536 39.8675 199.556 28.8666 194.606C27.3614 193.928 25.7624 193.453 24.1393 193.296C22.8161 193.168 21.4345 193.305 20.1315 193.563C14.0646 194.768 15.0645 203.18 21.1694 203.371C22.6968 203.419 23.9565 202.497 24.6571 201.21C29.887 202.87 32.9011 207.593 36.0712 211.673C40.1723 216.952 45.7104 223.204 51.7983 226.244C45.5343 227.479 38.2967 228.966 33.7874 234.015C24.4995 244.413 35.0267 252.037 45.4545 252.959C62.7914 254.492 71.3461 239.644 84.8384 236.923C85.8814 236.713 92.1716 236.438 90.7435 234.171C90.2524 233.392 89.4292 232.641 88.636 232.175C97.4152 229.411 106.492 234.533 115.422 239.655C125.449 245.406 135.292 251.157 144.322 245.746C151.38 241.517 150.346 233.073 139.829 225.079C130.562 218.035 122.15 214.556 120.45 208.18C119.187 203.44 127.148 196.568 134.055 189.009C143.493 178.678 152.578 141.9 110.349 134.6C105.516 133.765 101.573 133.408 98.3148 133.408C90.1258 133.408 86.2571 135.66 83.4017 138.223Z" fill="white"/>
</mask>
<g mask="url(#mask15)">
<path fill-rule="evenodd" clip-rule="evenodd" d="M77.7757 146.977C73.9044 153.802 71.4289 162.415 71.9267 170.306C72.1704 174.17 73.0964 177.859 73.9818 181.609C74.3693 183.25 75.1339 184.765 75.6591 186.361C76.5889 189.185 77.3334 192.066 78.2369 194.9C78.6469 196.186 79.0247 197.485 79.2355 198.82C79.2434 198.868 79.3214 199.32 79.3074 199.324C76.707 200.055 71.53 187.7 70.8081 185.848C69.199 181.722 67.992 177.423 67.7166 172.982C67.2725 165.82 68.9839 149.816 77.7757 146.977Z" fill="#F090AD"/>
</g>
<mask id="mask16" mask-type="alpha" maskUnits="userSpaceOnUse" x="16" y="133" width="133" height="121">
<path fill-rule="evenodd" clip-rule="evenodd" d="M83.4017 138.223C70.3281 149.96 66.7833 168.035 72.8419 184.428C75.0139 190.305 80.2859 195.742 80.7605 202.123C81.5294 212.47 68.5751 215.743 60.6979 212.843C49.0011 208.536 39.8675 199.556 28.8666 194.606C27.3614 193.928 25.7624 193.453 24.1393 193.296C22.8161 193.168 21.4345 193.305 20.1315 193.563C14.0646 194.768 15.0645 203.18 21.1694 203.371C22.6968 203.419 23.9565 202.497 24.6571 201.21C29.887 202.87 32.9011 207.593 36.0712 211.673C40.1723 216.952 45.7104 223.204 51.7983 226.244C45.5343 227.479 38.2967 228.966 33.7874 234.015C24.4995 244.413 35.0267 252.037 45.4545 252.959C62.7914 254.492 71.3461 239.644 84.8384 236.923C85.8814 236.713 92.1716 236.438 90.7435 234.171C90.2524 233.392 89.4292 232.641 88.636 232.175C97.4152 229.411 106.492 234.533 115.422 239.655C125.449 245.406 135.292 251.157 144.322 245.746C151.38 241.517 150.346 233.073 139.829 225.079C130.562 218.035 122.15 214.556 120.45 208.18C119.187 203.44 127.148 196.568 134.055 189.009C143.493 178.678 152.578 141.9 110.349 134.6C105.516 133.765 101.573 133.408 98.3148 133.408C90.1258 133.408 86.2571 135.66 83.4017 138.223Z" fill="white"/>
</mask>
<g mask="url(#mask16)">
<path fill-rule="evenodd" clip-rule="evenodd" d="M46.2463 236.445C51.6164 240.177 57.722 237.706 63.3169 235.711C70.4978 233.15 76.6155 231.889 81.7906 231.152C73.4814 230.147 67.0347 233.049 56.922 235.115C53.4339 235.827 49.8173 236.267 46.2494 236.195" fill="#F090AD"/>
</g>
<mask id="mask17" mask-type="alpha" maskUnits="userSpaceOnUse" x="16" y="133" width="133" height="121">
<path fill-rule="evenodd" clip-rule="evenodd" d="M83.4017 138.223C70.3281 149.96 66.7833 168.035 72.8419 184.428C75.0139 190.305 80.2859 195.742 80.7605 202.123C81.5294 212.47 68.5751 215.743 60.6979 212.843C49.0011 208.536 39.8675 199.556 28.8666 194.606C27.3614 193.928 25.7624 193.453 24.1393 193.296C22.8161 193.168 21.4345 193.305 20.1315 193.563C14.0646 194.768 15.0645 203.18 21.1694 203.371C22.6968 203.419 23.9565 202.497 24.6571 201.21C29.887 202.87 32.9011 207.593 36.0712 211.673C40.1723 216.952 45.7104 223.204 51.7983 226.244C45.5343 227.479 38.2967 228.966 33.7874 234.015C24.4995 244.413 35.0267 252.037 45.4545 252.959C62.7914 254.492 71.3461 239.644 84.8384 236.923C85.8814 236.713 92.1716 236.438 90.7435 234.171C90.2524 233.392 89.4292 232.641 88.636 232.175C97.4152 229.411 106.492 234.533 115.422 239.655C125.449 245.406 135.292 251.157 144.322 245.746C151.38 241.517 150.346 233.073 139.829 225.079C130.562 218.035 122.15 214.556 120.45 208.18C119.187 203.44 127.148 196.568 134.055 189.009C143.493 178.678 152.578 141.9 110.349 134.6C105.516 133.765 101.573 133.408 98.3148 133.408C90.1258 133.408 86.2571 135.66 83.4017 138.223Z" fill="white"/>
</mask>
<g mask="url(#mask17)">
<path fill-rule="evenodd" clip-rule="evenodd" d="M93.8092 157.37C90.1341 156.232 85.3495 156.004 81.6269 158.499C70.5887 165.896 77.298 191.942 80.4248 202.143C71.438 194.393 63.3293 180.693 66.0849 168.553C68.2046 159.214 86.0002 149.92 93.8092 157.37Z" fill="#C2E5F4"/>
</g>
<mask id="mask18" mask-type="alpha" maskUnits="userSpaceOnUse" x="16" y="133" width="133" height="121">
<path fill-rule="evenodd" clip-rule="evenodd" d="M83.4017 138.223C70.3281 149.96 66.7833 168.035 72.8419 184.428C75.0139 190.305 80.2859 195.742 80.7605 202.123C81.5294 212.47 68.5751 215.743 60.6979 212.843C49.0011 208.536 39.8675 199.556 28.8666 194.606C27.3614 193.928 25.7624 193.453 24.1393 193.296C22.8161 193.168 21.4345 193.305 20.1315 193.563C14.0646 194.768 15.0645 203.18 21.1694 203.371C22.6968 203.419 23.9565 202.497 24.6571 201.21C29.887 202.87 32.9011 207.593 36.0712 211.673C40.1723 216.952 45.7104 223.204 51.7983 226.244C45.5343 227.479 38.2967 228.966 33.7874 234.015C24.4995 244.413 35.0267 252.037 45.4545 252.959C62.7914 254.492 71.3461 239.644 84.8384 236.923C85.8814 236.713 92.1716 236.438 90.7435 234.171C90.2524 233.392 89.4292 232.641 88.636 232.175C97.4152 229.411 106.492 234.533 115.422 239.655C125.449 245.406 135.292 251.157 144.322 245.746C151.38 241.517 150.346 233.073 139.829 225.079C130.562 218.035 122.15 214.556 120.45 208.18C119.187 203.44 127.148 196.568 134.055 189.009C143.493 178.678 152.578 141.9 110.349 134.6C105.516 133.765 101.573 133.408 98.3148 133.408C90.1258 133.408 86.2571 135.66 83.4017 138.223Z" fill="white"/>
</mask>
<g mask="url(#mask18)">
<path fill-rule="evenodd" clip-rule="evenodd" d="M93.8092 157.37C90.1341 156.232 85.3495 156.004 81.6269 158.499C70.5887 165.896 77.298 191.942 80.4248 202.143C71.438 194.393 63.3293 180.693 66.0849 168.553C68.2046 159.214 86.0002 149.92 93.8092 157.37Z" stroke="#5496D0" stroke-width="0.369691" stroke-linecap="round" stroke-linejoin="round"/>
</g>
<mask id="mask19" mask-type="alpha" maskUnits="userSpaceOnUse" x="16" y="133" width="133" height="121">
<path fill-rule="evenodd" clip-rule="evenodd" d="M83.4017 138.223C70.3281 149.96 66.7833 168.035 72.8419 184.428C75.0139 190.305 80.2859 195.742 80.7605 202.123C81.5294 212.47 68.5751 215.743 60.6979 212.843C49.0011 208.536 39.8675 199.556 28.8666 194.606C27.3614 193.928 25.7624 193.453 24.1393 193.296C22.8161 193.168 21.4345 193.305 20.1315 193.563C14.0646 194.768 15.0645 203.18 21.1694 203.371C22.6968 203.419 23.9565 202.497 24.6571 201.21C29.887 202.87 32.9011 207.593 36.0712 211.673C40.1723 216.952 45.7104 223.204 51.7983 226.244C45.5343 227.479 38.2967 228.966 33.7874 234.015C24.4995 244.413 35.0267 252.037 45.4545 252.959C62.7914 254.492 71.3461 239.644 84.8384 236.923C85.8814 236.713 92.1716 236.438 90.7435 234.171C90.2524 233.392 89.4292 232.641 88.636 232.175C97.4152 229.411 106.492 234.533 115.422 239.655C125.449 245.406 135.292 251.157 144.322 245.746C151.38 241.517 150.346 233.073 139.829 225.079C130.562 218.035 122.15 214.556 120.45 208.18C119.187 203.44 127.148 196.568 134.055 189.009C143.493 178.678 152.578 141.9 110.349 134.6C105.516 133.765 101.573 133.408 98.3148 133.408C90.1258 133.408 86.2571 135.66 83.4017 138.223Z" fill="white"/>
</mask>
<g mask="url(#mask19)">
<path fill-rule="evenodd" clip-rule="evenodd" d="M110.191 161.386C114.569 162.563 118.621 163.564 120.89 167.392C127.569 178.661 112.338 194.684 115.434 208.039C121.711 206.634 128.224 207.041 129.68 200.234C130.308 197.3 129.741 193.959 129.937 190.966C130.265 185.953 130.622 181.143 129.648 176.168C128.231 168.93 123.903 162.417 116.215 160.885C114.785 160.6 111.631 160.965 110.191 161.386Z" fill="#C2E5F4"/>
</g>
<mask id="mask20" mask-type="alpha" maskUnits="userSpaceOnUse" x="16" y="133" width="133" height="121">
<path fill-rule="evenodd" clip-rule="evenodd" d="M83.4017 138.223C70.3281 149.96 66.7833 168.035 72.8419 184.428C75.0139 190.305 80.2859 195.742 80.7605 202.123C81.5294 212.47 68.5751 215.743 60.6979 212.843C49.0011 208.536 39.8675 199.556 28.8666 194.606C27.3614 193.928 25.7624 193.453 24.1393 193.296C22.8161 193.168 21.4345 193.305 20.1315 193.563C14.0646 194.768 15.0645 203.18 21.1694 203.371C22.6968 203.419 23.9565 202.497 24.6571 201.21C29.887 202.87 32.9011 207.593 36.0712 211.673C40.1723 216.952 45.7104 223.204 51.7983 226.244C45.5343 227.479 38.2967 228.966 33.7874 234.015C24.4995 244.413 35.0267 252.037 45.4545 252.959C62.7914 254.492 71.3461 239.644 84.8384 236.923C85.8814 236.713 92.1716 236.438 90.7435 234.171C90.2524 233.392 89.4292 232.641 88.636 232.175C97.4152 229.411 106.492 234.533 115.422 239.655C125.449 245.406 135.292 251.157 144.322 245.746C151.38 241.517 150.346 233.073 139.829 225.079C130.562 218.035 122.15 214.556 120.45 208.18C119.187 203.44 127.148 196.568 134.055 189.009C143.493 178.678 152.578 141.9 110.349 134.6C105.516 133.765 101.573 133.408 98.3148 133.408C90.1258 133.408 86.2571 135.66 83.4017 138.223Z" fill="white"/>
</mask>
<g mask="url(#mask20)">
<path fill-rule="evenodd" clip-rule="evenodd" d="M110.191 161.386C114.569 162.563 118.621 163.564 120.89 167.392C127.569 178.661 112.338 194.684 115.434 208.039C121.711 206.634 128.224 207.041 129.68 200.234C130.308 197.3 129.741 193.959 129.937 190.966C130.265 185.953 130.622 181.143 129.648 176.168C128.231 168.93 123.903 162.417 116.215 160.885C114.785 160.6 111.631 160.965 110.191 161.386Z" stroke="#5496D0" stroke-width="0.369691" stroke-linecap="round" stroke-linejoin="round"/>
</g>
<path fill-rule="evenodd" clip-rule="evenodd" d="M110.349 134.6C93.3672 131.665 87.3933 134.641 83.4019 138.223C70.3282 149.96 66.7835 168.035 72.8421 184.428C75.0141 190.305 80.2862 195.742 80.7608 202.123C81.5297 212.47 68.5754 215.743 60.6981 212.843C49.0013 208.536 39.8677 199.556 28.8669 194.606C27.3616 193.929 25.7626 193.453 24.1395 193.296C22.8162 193.168 21.4347 193.305 20.1317 193.563C14.0649 194.768 15.0647 203.18 21.1697 203.371C22.697 203.419 23.9567 202.497 24.6574 201.21C29.8872 202.87 32.9013 207.593 36.0714 211.673C40.1726 216.952 45.7107 223.204 51.7985 226.244C45.5346 227.479 38.297 228.966 33.7877 234.015C24.4998 244.413 35.027 252.037 45.4548 252.959C62.7916 254.492 71.3464 239.644 84.8387 236.923C85.8818 236.713 92.1718 236.438 90.7437 234.171C90.2526 233.392 89.4295 232.641 88.6362 232.175C107.273 226.308 127.249 255.977 144.322 245.746C151.38 241.517 150.346 233.073 139.829 225.079C130.563 218.035 122.15 214.556 120.451 208.18C119.188 203.441 127.148 196.568 134.055 189.009C143.493 178.678 152.579 141.9 110.349 134.6Z" stroke="black" stroke-width="0.868854" stroke-linecap="round" stroke-linejoin="round"/>
<path fill-rule="evenodd" clip-rule="evenodd" d="M50.9746 226.767C56.023 225.905 62.048 224.989 67.3847 222.982C69.1844 222.305 70.9062 221.504 72.4812 220.539C74.1208 219.535 75.5958 218.35 76.8546 216.97C76.949 216.87 76.9448 216.714 76.8442 216.62C76.7437 216.527 76.5852 216.531 76.4902 216.63C75.2132 217.918 73.7235 218.988 72.1041 219.914C70.5401 220.809 68.8512 221.561 67.091 222.206C61.7867 224.149 55.8353 225.106 50.8344 225.965C50.6108 226.003 50.4603 226.214 50.4993 226.436C50.5377 226.657 50.751 226.806 50.9746 226.767Z" fill="black"/>
<path fill-rule="evenodd" clip-rule="evenodd" d="M79.8036 198.621C80.405 200.432 80.9332 202.305 81.2104 204.198C81.3457 205.121 81.4157 206.05 81.4145 206.979C81.4145 207.375 81.3944 207.772 81.3761 208.17C81.3609 208.511 81.3487 208.85 81.3219 209.194C81.3042 209.423 81.289 209.65 81.2622 209.881C81.2336 210.007 81.314 210.133 81.4419 210.161C81.5699 210.19 81.6972 210.11 81.7258 209.983C81.8093 209.739 81.8873 209.499 81.9519 209.251C82.05 208.878 82.128 208.503 82.1761 208.123C82.2968 207.172 82.2675 206.213 82.1877 205.259C81.9909 202.916 81.3347 200.595 80.5847 198.365C80.5134 198.152 80.2801 198.036 80.065 198.107C79.8493 198.177 79.7323 198.408 79.8036 198.621Z" fill="black"/>
<path fill-rule="evenodd" clip-rule="evenodd" d="M88.8757 232.154C85.4979 230.88 81.9501 230.397 78.3725 230.437C73.0645 230.496 67.6901 231.707 62.7198 233.173C59.4498 234.142 56.1927 235.134 52.8672 235.646C51.9813 235.783 51.0918 235.887 50.1943 235.95C48.8698 236.043 47.5306 236.049 46.1653 235.911C46.0074 235.892 45.863 236.003 45.8435 236.159C45.824 236.316 45.9361 236.459 46.0939 236.478C47.491 236.683 48.8692 236.754 50.2352 236.705C51.1594 236.671 52.077 236.583 52.9891 236.454C56.3589 235.975 59.6508 234.947 62.9604 233.973C67.8577 232.526 73.1516 231.325 78.3823 231.262C81.8563 231.221 85.3024 231.682 88.5833 232.915C88.7953 232.995 89.0336 232.889 89.114 232.679C89.1944 232.469 89.0877 232.233 88.8757 232.154Z" fill="black"/>
<path fill-rule="evenodd" clip-rule="evenodd" d="M93.1392 230.983C91.8506 231.169 90.8459 231.124 90.1532 230.896C89.7425 230.762 89.4537 230.57 89.3203 230.308C89.1869 230.045 89.232 229.727 89.4147 229.375C89.734 228.757 90.4493 228.075 91.5692 227.383C93.3305 226.294 97.621 225.117 102.967 225.05C106.528 225.005 110.555 225.455 114.621 226.764C118.233 227.919 121.932 229.265 125.71 229.898C128.261 230.325 130.844 230.417 133.44 229.98C133.587 229.958 133.688 229.822 133.666 229.676C133.644 229.531 133.506 229.431 133.359 229.453C130.822 229.792 128.323 229.58 125.85 229.118C122.122 228.421 118.454 227.126 114.882 225.968C110.722 224.629 106.6 224.166 102.956 224.213C97.4035 224.286 92.9552 225.55 91.1274 226.682C89.84 227.48 89.0419 228.29 88.6751 229C88.3498 229.632 88.3406 230.206 88.5806 230.677C88.7963 231.101 89.2295 231.457 89.8937 231.674C90.6747 231.929 91.8061 232 93.2587 231.789C93.4829 231.756 93.6388 231.549 93.6059 231.327C93.573 231.104 93.364 230.95 93.1392 230.983Z" fill="black"/>
<path fill-rule="evenodd" clip-rule="evenodd" d="M94.9616 137.416C93.8344 139.172 92.1839 140.07 90.3445 140.752C89.087 141.218 87.7277 141.529 86.3416 141.873C85.1584 142.166 83.9502 142.452 82.7822 142.842C81.54 143.257 80.3537 143.773 79.2387 144.4C78.2316 144.965 77.3013 145.593 76.4769 146.383C75.315 147.498 74.381 148.802 73.7626 150.518C73.7096 150.615 73.7462 150.736 73.8442 150.788C73.9417 150.841 74.0642 150.805 74.1172 150.708C75.4478 148.948 77.088 147.988 78.9012 147.275C80.1154 146.798 81.3876 146.515 82.6982 146.226C83.3592 146.08 84.0221 145.94 84.685 145.784C85.3661 145.623 86.0424 145.446 86.7115 145.26C87.777 144.962 88.822 144.639 89.8139 144.248C90.9075 143.817 91.9378 143.321 92.8675 142.702C94.4906 141.623 95.8383 140.26 96.6803 138.317C96.9319 137.847 96.7504 137.264 96.2763 137.015C95.8017 136.767 95.2126 136.946 94.9616 137.416Z" fill="black"/>
<path fill-rule="evenodd" clip-rule="evenodd" d="M114.991 141.725C115.102 144.678 116.195 146.544 117.69 148.047C118.805 149.166 120.186 150.048 121.638 150.988C122.781 151.729 123.982 152.495 125.074 153.554C125.873 154.254 126.57 154.978 127.222 155.695C128.288 156.869 129.197 158.035 129.926 159.326C131.175 161.539 132.006 163.924 132.448 166.782C132.452 166.893 132.544 166.979 132.656 166.976C132.767 166.972 132.855 166.88 132.851 166.77C133.128 163.689 132.939 160.977 132.118 158.391C131.597 156.749 130.812 155.2 129.741 153.702C129.091 152.793 128.295 151.943 127.427 151.08C126.108 149.897 124.708 149.005 123.319 148.237C121.973 147.493 120.653 146.878 119.552 146.004C118.298 145.008 117.308 143.723 116.925 141.524C116.869 140.995 116.391 140.611 115.857 140.666C115.323 140.722 114.935 141.196 114.991 141.725Z" fill="black"/>
<path fill-rule="evenodd" clip-rule="evenodd" d="M80.3199 238.319C82.3123 237.304 94.5842 234.738 88.7291 232.534C80.4241 229.408 71.0749 231.141 62.84 233.573C57.3632 235.189 51.9304 236.913 46.1289 236.194" fill="#E52B31"/>
<mask id="mask21" mask-type="alpha" maskUnits="userSpaceOnUse" x="46" y="230" width="45" height="9">
<path fill-rule="evenodd" clip-rule="evenodd" d="M62.8404 233.573C58.2218 234.936 53.6335 236.376 48.8298 236.362L80.3204 238.319C82.3127 237.304 94.5847 234.738 88.7296 232.534C85.531 231.33 82.1771 230.847 78.7921 230.847C73.3879 230.847 67.9038 232.078 62.8404 233.573ZM48.8296 236.362L46.1292 236.194C47.0381 236.307 47.9372 236.359 48.8296 236.362Z" fill="white"/>
</mask>
<g mask="url(#mask21)">
<path fill-rule="evenodd" clip-rule="evenodd" d="M29.6008 244.109C41.669 258.729 62.525 240.633 75.3038 236.026C80.7416 234.065 91.6932 232.505 93.6618 235.79C96.532 240.579 82.0814 245.814 78.9594 248.176C65.8943 258.062 37.997 267.152 29.6008 244.109Z" fill="#BA1918"/>
</g>
<mask id="mask22" mask-type="alpha" maskUnits="userSpaceOnUse" x="46" y="230" width="45" height="9">
<path fill-rule="evenodd" clip-rule="evenodd" d="M62.8404 233.573C58.2218 234.936 53.6335 236.376 48.8298 236.362L80.3204 238.319C82.3127 237.304 94.5847 234.738 88.7296 232.534C85.531 231.33 82.1771 230.847 78.7921 230.847C73.3879 230.847 67.9038 232.078 62.8404 233.573ZM48.8296 236.362L46.1292 236.194C47.0381 236.307 47.9372 236.359 48.8296 236.362Z" fill="white"/>
</mask>
<g mask="url(#mask22)">
<path fill-rule="evenodd" clip-rule="evenodd" d="M46.2473 236.446C51.6174 240.178 57.7229 237.707 63.3179 235.712C70.4987 233.151 76.6164 231.89 81.7916 231.153C73.4824 230.148 67.0357 233.05 56.9229 235.116C53.4348 235.828 49.8183 236.268 46.2504 236.196" fill="#F090AD"/>
</g>
<path fill-rule="evenodd" clip-rule="evenodd" d="M80.5086 238.681C81.7406 238.054 86.8968 236.833 89.2852 235.473C89.8567 235.147 90.2801 234.804 90.5019 234.469C90.6938 234.177 90.7553 233.882 90.6895 233.589C90.6365 233.356 90.497 233.115 90.2326 232.883C89.9535 232.638 89.5137 232.388 88.8776 232.148C85.4992 230.875 81.9508 230.391 78.3725 230.432C73.0639 230.492 67.6901 231.706 62.7204 233.174C59.4504 234.146 56.1932 235.134 52.8684 235.657C50.6769 236.002 48.4549 236.157 46.1653 235.911C46.0074 235.891 45.863 236.002 45.8435 236.159C45.824 236.315 45.9361 236.458 46.0939 236.477C48.4366 236.807 50.7281 236.755 52.9873 236.441C56.3583 235.974 59.6496 234.942 62.9604 233.971C67.8577 232.526 73.1516 231.327 78.3823 231.266C81.8557 231.225 85.3012 231.686 88.5815 232.919C89.0067 233.079 89.3284 233.238 89.5563 233.402C89.7336 233.528 89.8488 233.641 89.878 233.769C89.9061 233.894 89.828 234.007 89.719 234.131C89.5313 234.344 89.2358 234.552 88.8709 234.76C86.4941 236.117 81.3585 237.331 80.1321 237.957C79.9304 238.06 79.8506 238.305 79.9548 238.505C80.0584 238.705 80.307 238.784 80.5086 238.681Z" fill="black"/>
<path fill-rule="evenodd" clip-rule="evenodd" d="M118.411 241.364C108.086 235.601 102.259 231.693 93.1989 231.385C88.2705 231.218 87.275 229.552 91.3486 227.032C94.3291 225.187 104.417 223.039 114.752 226.366C120.747 228.296 126.998 230.683 133.4 229.716" fill="#E52B31"/>
<path fill-rule="evenodd" clip-rule="evenodd" d="M118.613 241.009C112.783 237.753 108.382 235.087 104.029 233.323C100.614 231.939 97.2266 231.106 93.2134 230.968C91.9595 230.926 90.97 230.786 90.2669 230.553C89.832 230.409 89.5169 230.24 89.3463 230.02C89.1812 229.806 89.2166 229.549 89.3926 229.251C89.7137 228.707 90.4382 228.089 91.572 227.387C93.3322 226.298 97.6221 225.12 102.967 225.05C106.528 225.003 110.556 225.452 114.623 226.759C116.784 227.45 118.977 228.208 121.202 228.832C122.694 229.251 124.2 229.61 125.716 229.862C128.266 230.286 130.844 230.404 133.44 229.98C133.587 229.958 133.688 229.822 133.666 229.676C133.643 229.531 133.506 229.43 133.359 229.453C130.822 229.804 128.317 229.618 125.844 229.153C124.36 228.874 122.888 228.491 121.426 228.064C119.216 227.419 117.031 226.67 114.88 225.973C110.72 224.632 106.6 224.167 102.956 224.213C97.4027 224.283 92.9526 225.545 91.1242 226.677C89.8313 227.477 89.0289 228.208 88.6627 228.828C88.2746 229.485 88.31 230.056 88.6755 230.528C88.9253 230.851 89.3634 231.136 89.9989 231.346C90.7604 231.598 91.8285 231.757 93.1841 231.802C97.0908 231.934 100.388 232.745 103.712 234.09C108.04 235.84 112.413 238.488 118.209 241.719C118.407 241.829 118.658 241.76 118.769 241.564C118.881 241.368 118.811 241.12 118.613 241.009Z" fill="black"/>
<path fill-rule="evenodd" clip-rule="evenodd" d="M173.133 199.339C173.184 198.684 173.381 198.09 173.674 197.568C173.881 197.2 174.139 196.871 174.43 196.577C174.729 196.275 175.059 196.008 175.422 195.789C175.985 195.449 176.601 195.203 177.265 195.117C177.329 195.115 177.379 195.062 177.377 194.998C177.375 194.934 177.321 194.884 177.257 194.887C176.525 194.843 175.804 194.962 175.138 195.238C174.683 195.426 174.263 195.692 173.892 196.017C173.523 196.342 173.211 196.733 172.959 197.166C172.6 197.782 172.374 198.496 172.313 199.275C172.295 199.499 172.464 199.695 172.69 199.713C172.917 199.73 173.115 199.562 173.133 199.339Z" fill="black"/>
<path fill-rule="evenodd" clip-rule="evenodd" d="M73.8676 159.07C75.1203 158.089 76.5204 157.325 78.0119 156.671C78.9642 156.254 79.9366 155.935 80.9279 155.659C81.7394 155.434 82.5553 155.273 83.3717 155.149C83.7781 155.087 84.1826 155.031 84.5872 154.987C84.9942 154.942 85.3975 154.897 85.8033 154.876C87.1851 154.806 88.5395 154.915 89.8774 155.361C91.1984 155.802 92.4681 156.44 93.6745 157.483C93.7378 157.557 93.8499 157.565 93.9242 157.503C93.9985 157.439 94.0071 157.329 93.9438 157.255C92.9555 155.703 91.7656 154.566 90.4014 153.725C89.3834 153.097 88.2861 152.7 87.14 152.44C86.5222 152.299 85.894 152.225 85.2562 152.199C84.6304 152.174 83.998 152.209 83.3699 152.297C82.8769 152.366 82.3865 152.471 81.9045 152.612C80.8115 152.932 79.7483 153.381 78.7436 153.96C78.113 154.323 77.5154 154.723 76.942 155.176C75.6229 156.219 74.4849 157.412 73.5216 158.743C73.4308 158.837 73.4338 158.988 73.5295 159.078C73.6252 159.168 73.7763 159.165 73.8676 159.07Z" fill="black"/>
<path fill-rule="evenodd" clip-rule="evenodd" d="M129.193 172.208C128.813 170.02 128.194 168.071 127.237 166.351C126.517 165.056 125.603 163.941 124.541 162.987C123.994 162.496 123.396 162.061 122.753 161.692C122.123 161.329 121.446 161.031 120.734 160.798C120.119 160.598 119.484 160.44 118.818 160.341C117.419 160.133 115.945 160.121 114.353 160.308C113.518 160.427 112.664 160.535 111.812 160.725C111.235 160.854 110.686 161.007 110.15 161.215C110.055 161.237 109.996 161.332 110.018 161.426C110.04 161.521 110.136 161.579 110.231 161.558C110.777 161.512 111.319 161.527 111.881 161.559C112.726 161.608 113.553 161.718 114.364 161.821C115.161 161.908 115.898 162.063 116.622 162.23C117.758 162.492 118.775 162.881 119.745 163.319C120.296 163.569 120.82 163.844 121.331 164.134C121.851 164.429 122.357 164.735 122.842 165.077C123.829 165.773 124.735 166.566 125.564 167.509C126.781 168.895 127.864 170.46 128.736 172.348C128.775 172.472 128.909 172.543 129.035 172.504C129.16 172.466 129.231 172.333 129.193 172.208Z" fill="black"/>
<path fill-rule="evenodd" clip-rule="evenodd" d="M74.2304 158.456C74.7002 157.831 75.243 157.203 75.8322 156.569C76.199 156.175 76.584 155.786 76.9813 155.399C77.3048 155.083 77.6393 154.775 77.9738 154.466C78.3076 154.158 78.6428 153.852 78.9828 153.556C79.564 153.05 80.1525 152.571 80.763 152.149C81.4131 151.701 82.0687 151.308 82.7462 151.011C82.77 151.003 82.7822 150.977 82.7736 150.954C82.7651 150.93 82.7395 150.918 82.7157 150.927C82.0571 151.107 81.4004 151.358 80.7497 151.678C80.3335 151.883 79.9246 152.115 79.5214 152.37C79.1271 152.62 78.7409 152.889 78.3674 153.18C78.1213 153.372 77.8812 153.574 77.6497 153.785C77.4187 153.995 77.1976 154.216 76.9825 154.442C76.6578 154.782 76.3488 155.134 76.0576 155.495C75.608 156.052 75.2029 156.624 74.8354 157.195C74.5765 157.598 74.3432 157.997 74.128 158.391C74.1098 158.418 74.1183 158.456 74.1464 158.474C74.175 158.492 74.2128 158.483 74.2304 158.456Z" fill="black"/>
<path fill-rule="evenodd" clip-rule="evenodd" d="M94.009 157.283C93.8451 156.882 93.638 156.362 93.4143 155.875C93.2571 155.534 93.0908 155.211 92.9306 154.951C92.6576 154.525 92.3323 154.101 91.9479 153.715C91.5847 153.348 91.1747 153.013 90.739 152.713C89.8574 152.105 88.8741 151.65 87.9218 151.411C87.898 151.404 87.8724 151.417 87.8651 151.44C87.8572 151.464 87.8706 151.489 87.8943 151.496C88.7857 151.834 89.668 152.399 90.4631 153.068C90.8469 153.391 91.2045 153.741 91.5365 154.101C91.8808 154.474 92.1994 154.854 92.4547 155.251C92.6149 155.489 92.7807 155.789 92.944 156.102C93.1883 156.571 93.4259 157.07 93.6099 157.456C93.6587 157.565 93.7872 157.614 93.8969 157.567C94.0072 157.519 94.0571 157.392 94.009 157.283Z" fill="black"/>
<path fill-rule="evenodd" clip-rule="evenodd" d="M110.256 161.586C111.072 161.011 112.002 160.535 112.984 160.136C113.617 159.88 114.273 159.66 114.939 159.474C115.44 159.334 115.943 159.209 116.45 159.112C117.673 158.878 118.905 158.786 120.087 158.893C120.112 158.897 120.135 158.88 120.138 158.855C120.142 158.831 120.124 158.808 120.1 158.805C118.909 158.58 117.646 158.535 116.383 158.672C115.851 158.73 115.321 158.817 114.799 158.943C114.1 159.111 113.417 159.342 112.764 159.62C111.752 160.052 110.818 160.609 109.996 161.239C109.9 161.311 109.879 161.446 109.951 161.542C110.023 161.637 110.16 161.657 110.256 161.586Z" fill="black"/>
<path fill-rule="evenodd" clip-rule="evenodd" d="M127.661 168.556C127.787 167.6 127.751 166.649 127.544 165.74C127.404 165.125 127.19 164.526 126.904 163.962C126.691 163.542 126.436 163.144 126.15 162.766C125.498 161.904 124.684 161.16 123.757 160.557C123.737 160.543 123.709 160.547 123.694 160.566C123.679 160.586 123.683 160.615 123.703 160.629C124.533 161.31 125.226 162.123 125.778 163.016C126.014 163.397 126.219 163.794 126.404 164.199C126.65 164.738 126.85 165.295 126.993 165.869C127.205 166.721 127.304 167.606 127.228 168.51C127.215 168.629 127.302 168.735 127.421 168.747C127.541 168.76 127.648 168.674 127.661 168.556Z" fill="black"/>
<path fill-rule="evenodd" clip-rule="evenodd" d="M86.054 170.804C91.5021 169.935 98.7317 167.997 103.956 170.778C110.505 174.264 110.4 182.297 107.023 187.99C105.96 189.781 104.661 191.54 102.801 192.585C96.3403 196.213 94.5533 186.704 88.6178 185.805C87.7441 185.672 86.7954 185.598 85.9431 185.887C88.9809 181.591 89.798 175.081 86.054 170.804Z" fill="black"/>
<mask id="mask23" mask-type="alpha" maskUnits="userSpaceOnUse" x="85" y="169" width="25" height="25">
<path fill-rule="evenodd" clip-rule="evenodd" d="M86.0541 170.804C89.798 175.081 88.981 181.591 85.9431 185.887C86.7955 185.598 87.7442 185.672 88.6179 185.805C94.5534 186.704 96.3403 196.213 102.801 192.585C104.661 191.54 105.96 189.781 107.023 187.99C110.4 182.297 110.505 174.264 103.956 170.778C101.939 169.704 99.6233 169.334 97.2263 169.334C93.4151 169.334 89.3986 170.27 86.0541 170.804Z" fill="white"/>
</mask>
<g mask="url(#mask23)">
<path fill-rule="evenodd" clip-rule="evenodd" d="M101.913 179.099C109.031 179.099 114.81 184.11 114.81 190.282C114.81 196.455 109.031 201.466 101.913 201.466C94.7946 201.466 89.0156 196.455 89.0156 190.282C89.0156 184.11 94.7946 179.099 101.913 179.099Z" fill="#F090AD"/>
</g>
<path fill-rule="evenodd" clip-rule="evenodd" d="M86.0535 170.804C91.5016 169.935 98.7312 167.997 103.955 170.778C110.505 174.264 110.399 182.297 107.022 187.99C105.96 189.781 104.66 191.54 102.801 192.585C96.3399 196.213 94.5528 186.704 88.6173 185.805C87.7436 185.672 86.7949 185.598 85.9426 185.887C88.9804 181.591 89.7975 175.081 86.0535 170.804Z" stroke="black" stroke-width="0.818526" stroke-linecap="round" stroke-linejoin="round"/>
<path fill-rule="evenodd" clip-rule="evenodd" d="M85.6562 190.222C85.9297 190.221 86.1954 190.237 86.4726 190.25C86.6328 190.257 86.7906 190.267 86.9509 190.276C87.0563 190.281 87.1604 190.288 87.2659 190.29C87.4054 190.292 87.5443 190.289 87.6838 190.287C87.8983 190.284 88.1049 190.275 88.3187 190.283C88.549 190.291 88.7665 190.3 88.995 190.335C89.0248 190.346 89.0577 190.331 89.0687 190.302C89.0797 190.272 89.0645 190.24 89.0346 190.229C88.7202 190.044 88.404 189.901 88.0555 189.797C87.9166 189.755 87.7777 189.725 87.6339 189.702C87.5394 189.687 87.4444 189.676 87.3487 189.675C87.1111 189.67 86.8735 189.691 86.6396 189.731C86.2862 189.792 85.9553 189.898 85.6196 190.008C85.5599 190.017 85.5191 190.073 85.5294 190.133C85.5392 190.192 85.5958 190.233 85.6562 190.222Z" fill="black"/>
<path fill-rule="evenodd" clip-rule="evenodd" d="M82.2678 170.6C82.606 170.768 82.9563 170.93 83.356 171.053C83.6021 171.128 83.8598 171.179 84.1279 171.219C84.3832 171.257 84.647 171.277 84.9169 171.283C85.3008 171.292 85.6968 171.266 86.1031 171.218C86.3286 171.192 86.4907 170.99 86.4645 170.767C86.4383 170.543 86.2341 170.383 86.0081 170.409C85.5085 170.467 85.026 170.464 84.5642 170.456C84.1852 170.45 83.8233 170.431 83.4724 170.41C83.0757 170.385 82.7101 170.378 82.3543 170.327C82.2782 170.303 82.1972 170.346 82.1734 170.42C82.1496 170.496 82.1916 170.576 82.2678 170.6Z" fill="black"/>
<path fill-rule="evenodd" clip-rule="evenodd" d="M83.7735 187.076C83.9722 186.983 84.2311 186.887 84.5333 186.778C84.8081 186.679 85.1145 186.596 85.4307 186.49C85.7177 186.394 86.0072 186.277 86.3038 186.201C86.5238 186.145 86.6572 185.923 86.6011 185.705C86.5451 185.488 86.3209 185.356 86.101 185.411C85.8353 185.474 85.5678 185.548 85.3131 185.645C85.2029 185.687 85.095 185.732 84.9927 185.783C84.7179 185.921 84.4724 186.079 84.2488 186.233C83.9673 186.426 83.7388 186.61 83.5646 186.765C83.478 186.822 83.4543 186.938 83.5121 187.024C83.57 187.109 83.687 187.133 83.7735 187.076Z" fill="black"/>
<path fill-rule="evenodd" clip-rule="evenodd" d="M24.7923 201.929C24.9788 201.373 25.1512 200.761 25.1986 200.151C25.2326 199.713 25.2013 199.276 25.0758 198.858C24.8752 198.203 24.4657 197.627 23.9336 197.203C23.5802 196.92 23.1762 196.698 22.7482 196.571C22.3069 196.44 21.8433 196.394 21.3984 196.471C21.0661 196.53 20.7448 196.643 20.4536 196.835C20.1924 197.007 19.9581 197.226 19.7567 197.512C19.7006 197.573 19.705 197.667 19.7663 197.723C19.8277 197.778 19.923 197.774 19.979 197.713C20.3591 197.388 20.7813 197.241 21.2112 197.188C21.4269 197.162 21.6416 197.171 21.8571 197.198C22.0701 197.225 22.28 197.278 22.485 197.352C22.8095 197.468 23.1169 197.642 23.3869 197.865C23.7824 198.189 24.0984 198.614 24.249 199.106C24.3483 199.424 24.3711 199.757 24.3498 200.092C24.3152 200.635 24.1674 201.181 24.0096 201.678C23.9399 201.892 24.0584 202.122 24.2744 202.191C24.4904 202.26 24.7224 202.143 24.7923 201.929Z" fill="black"/>
<path fill-rule="evenodd" clip-rule="evenodd" d="M135.34 151.611C130.074 153.205 121.24 148.958 116.645 146.694C108.599 142.73 104.635 139.691 95.7283 137.883C109.407 136.96 124.796 142.792 135.34 151.611Z" fill="#FEFEFE"/>
<mask id="mask24" mask-type="alpha" maskUnits="userSpaceOnUse" x="95" y="137" width="41" height="15">
<path fill-rule="evenodd" clip-rule="evenodd" d="M95.7283 137.883C104.635 139.691 108.599 142.73 116.645 146.694C121.24 148.958 130.074 153.205 135.34 151.61C125.53 143.406 111.528 137.787 98.6097 137.787C97.6427 137.787 96.6809 137.819 95.7283 137.883Z" fill="white"/>
</mask>
<g mask="url(#mask24)">
<path fill-rule="evenodd" clip-rule="evenodd" d="M112.593 144.413C117.973 145.755 123.543 145.627 128.96 146.709C132.273 147.371 135.382 149.863 137.182 152.898C134.41 153.27 131.532 153.655 128.731 153.402C124.727 153.042 112.847 144.475 112.549 145.678" fill="#C8C6C5"/>
</g>
<path fill-rule="evenodd" clip-rule="evenodd" d="M135.34 151.611C130.074 153.205 121.24 148.958 116.645 146.694C108.599 142.73 104.635 139.691 95.7285 137.883C109.407 136.96 124.796 142.792 135.34 151.611Z" stroke="black" stroke-width="0.948582" stroke-linecap="round" stroke-linejoin="round"/>
<path fill-rule="evenodd" clip-rule="evenodd" d="M142.069 162.373C140.798 156.564 136.168 151.662 131.344 148.571C115.624 138.495 87.8026 132.478 76.5537 144.874C79.8385 136.138 84.3685 130.496 91.757 126.661C115.99 114.084 148.787 135.855 142.069 162.373Z" fill="#FEFEFE"/>
<mask id="mask25" mask-type="alpha" maskUnits="userSpaceOnUse" x="76" y="123" width="67" height="40">
<path fill-rule="evenodd" clip-rule="evenodd" d="M91.7571 126.661C84.3685 130.496 79.8386 136.138 76.5537 144.874C87.8026 132.478 115.624 138.495 131.344 148.571C136.168 151.662 140.798 156.564 142.069 162.373C147.441 141.168 127.548 123 106.97 123C101.813 123 96.6129 124.141 91.7571 126.661Z" fill="white"/>
</mask>
<g mask="url(#mask25)">
<path fill-rule="evenodd" clip-rule="evenodd" d="M100.036 135.165C96.5915 134.82 92.8448 134.648 89.1489 134.589C91.2852 131.424 93.3137 128.419 95.2422 125.562C98.678 125.597 102.047 125.816 105.35 126.22C103.657 129.128 101.909 131.952 100.036 135.165Z" fill="#75151E"/>
</g>
<mask id="mask26" mask-type="alpha" maskUnits="userSpaceOnUse" x="76" y="123" width="67" height="40">
<path fill-rule="evenodd" clip-rule="evenodd" d="M91.7571 126.661C84.3685 130.496 79.8386 136.138 76.5537 144.874C87.8026 132.478 115.624 138.495 131.344 148.571C136.168 151.662 140.798 156.564 142.069 162.373C147.441 141.168 127.548 123 106.97 123C101.813 123 96.6129 124.141 91.7571 126.661Z" fill="white"/>
</mask>
<g mask="url(#mask26)">
<path fill-rule="evenodd" clip-rule="evenodd" d="M95.5458 127.018C97.3813 127.063 99.1964 127.163 100.991 127.316C101.325 128.328 101.657 129.373 101.989 130.452C100.433 131.42 98.8452 132.417 97.2244 133.444C95.3434 133.268 93.4395 133.151 91.5127 133.094C93.0999 132.014 94.6547 130.965 96.1782 129.944C95.9693 128.94 95.7584 127.965 95.5458 127.018Z" fill="#E5292B"/>
</g>
<mask id="mask27" mask-type="alpha" maskUnits="userSpaceOnUse" x="76" y="123" width="67" height="40">
<path fill-rule="evenodd" clip-rule="evenodd" d="M91.7571 126.661C84.3685 130.496 79.8386 136.138 76.5537 144.874C87.8026 132.478 115.624 138.495 131.344 148.571C136.168 151.662 140.798 156.564 142.069 162.373C147.441 141.168 127.548 123 106.97 123C101.813 123 96.6129 124.141 91.7571 126.661Z" fill="white"/>
</mask>
<g mask="url(#mask27)">
<path fill-rule="evenodd" clip-rule="evenodd" d="M101.989 130.452C101.657 129.373 101.325 128.328 100.991 127.316C99.1965 127.163 97.3813 127.063 95.5459 127.018C95.7585 127.965 95.9693 128.94 96.1782 129.944" fill="#FEFEFE"/>
</g>
<mask id="mask28" mask-type="alpha" maskUnits="userSpaceOnUse" x="76" y="123" width="67" height="40">
<path fill-rule="evenodd" clip-rule="evenodd" d="M76.5537 144.874C87.8026 132.478 115.624 138.495 131.344 148.571C136.168 151.662 140.798 156.564 142.069 162.373C147.441 141.168 127.548 123 106.97 123C101.813 123 96.6129 124.141 91.7571 126.661C84.3685 130.496 79.8386 136.138 76.5537 144.874Z" fill="white"/>
</mask>
<g mask="url(#mask28)">
<path fill-rule="evenodd" clip-rule="evenodd" d="M124 127C127.897 131.787 128.8 140.806 127.708 146.766C135.532 149.246 141.354 157.026 144.087 164C149.948 150.977 147.276 136.556 133.227 129.419C130.551 128.06 126.911 127.745 124 127Z" fill="#C8C6C5"/>
</g>
<mask id="mask29" mask-type="alpha" maskUnits="userSpaceOnUse" x="76" y="123" width="67" height="40">
<path fill-rule="evenodd" clip-rule="evenodd" d="M91.7571 126.661C84.3685 130.496 79.8386 136.138 76.5537 144.874C87.8026 132.478 115.624 138.495 131.344 148.571C136.168 151.662 140.798 156.564 142.069 162.373C147.441 141.168 127.548 123 106.97 123C101.813 123 96.6129 124.141 91.7571 126.661Z" fill="white"/>
</mask>
<g mask="url(#mask29)">
<path fill-rule="evenodd" clip-rule="evenodd" d="M109.539 133.458C108.943 133.71 108.357 133.784 107.846 133.673C106.639 133.412 106.293 132.219 107.022 130.958C107.736 129.724 109.22 128.942 110.433 129.179C110.944 129.279 111.33 129.545 111.543 129.949C111.544 129.95 111.544 129.95 111.545 129.95C112.031 129.705 112.517 129.461 113.001 129.22C112.997 129.212 112.993 129.204 112.988 129.195C112.656 128.515 111.999 128.052 111.154 127.892C109.186 127.523 106.736 128.784 105.625 130.699C104.476 132.681 105.061 134.653 107.013 135.086C107.868 135.275 108.896 135.129 109.9 134.673C109.9 134.673 109.9 134.672 109.9 134.672C109.782 134.264 109.662 133.86 109.539 133.459C109.539 133.458 109.539 133.458 109.539 133.458ZM110.75 135.721C111.202 135.834 111.655 135.949 112.107 136.068C113.476 133.687 114.771 131.376 115.988 129.139C115.541 129.032 115.092 128.927 114.643 128.826C113.425 131.05 112.126 133.349 110.75 135.721ZM118.924 135.002C118.951 134.903 118.98 129.889 118.954 129.884C118.517 129.764 118.08 129.648 117.642 129.534C116.428 131.787 115.14 134.111 113.781 136.502C114.235 136.628 114.689 136.757 115.143 136.889C115.956 135.446 116.744 134.026 117.506 132.63C117.528 132.848 117.482 137.677 117.463 137.665C117.464 137.656 121.953 134.221 122.148 134.081C121.405 135.494 120.638 136.928 119.849 138.383C120.307 138.54 120.764 138.701 121.221 138.866C122.518 136.447 123.755 134.08 124.932 131.77C124.497 131.614 124.062 131.462 123.626 131.314C123.627 131.306 119.024 134.915 118.924 135.002ZM126.232 139.235C125.786 139.047 125.338 138.863 124.891 138.683C125.185 138.113 125.477 137.546 125.765 136.981C126.209 137.161 126.652 137.344 127.094 137.532C127.717 137.798 127.72 138.331 127.515 138.739C127.307 139.152 126.861 139.499 126.232 139.235ZM127.2 134.142C127.61 134.308 128.019 134.479 128.428 134.653C128.944 134.874 129.109 135.298 128.872 135.78C128.634 136.264 128.182 136.417 127.662 136.196C127.25 136.021 126.838 135.85 126.425 135.682C126.686 135.166 126.944 134.653 127.2 134.142ZM128.754 137.419C129.14 137.376 129.866 137.117 130.249 136.329C130.835 135.121 130.414 133.995 129.143 133.446C128.262 133.067 127.377 132.707 126.488 132.366C125.324 134.685 124.102 137.056 122.823 139.478C123.778 139.842 124.732 140.223 125.685 140.622C126.989 141.166 128.203 140.721 128.85 139.417C129.327 138.453 129.014 137.763 128.754 137.419Z" fill="#7C1710"/>
</g>
<path fill-rule="evenodd" clip-rule="evenodd" d="M142.069 162.373C140.798 156.564 136.168 151.662 131.344 148.571C115.624 138.495 87.8026 132.478 76.5537 144.874C79.8385 136.138 84.3685 130.496 91.757 126.661C115.99 114.084 148.787 135.855 142.069 162.373Z" stroke="black" stroke-width="0.948582" stroke-linecap="round" stroke-linejoin="round"/>
<path fill-rule="evenodd" clip-rule="evenodd" d="M96.5274 138.001C90.0699 135.883 81.2568 134.605 74.6709 136.869C66.8142 139.57 67.8166 146.06 73.4396 150.804C75.6128 141.539 87.2351 137.026 96.5274 138.001Z" fill="#C8C6C5"/>
<path fill-rule="evenodd" clip-rule="evenodd" d="M96.5274 138.001C90.0699 135.883 81.2568 134.605 74.6709 136.869C66.8142 139.57 67.8166 146.06 73.4396 150.804C75.6128 141.539 87.2351 137.026 96.5274 138.001Z" stroke="black" stroke-width="0.948582" stroke-linecap="round" stroke-linejoin="round"/>
<path fill-rule="evenodd" clip-rule="evenodd" d="M131.936 148.739C132.918 145.429 133.353 140.725 132.43 136.57C132.31 136.029 132.167 135.497 131.996 134.981C131.732 134.183 131.41 133.418 131.017 132.707C130.34 131.48 129.465 130.41 128.383 129.56C128.312 129.5 128.206 129.509 128.146 129.58C128.086 129.651 128.095 129.757 128.166 129.817C129.139 130.701 129.881 131.788 130.463 132.993C130.8 133.692 131.082 134.429 131.312 135.196C131.462 135.696 131.593 136.207 131.703 136.727C132.557 140.762 132.145 145.311 131.183 148.514C131.121 148.722 131.239 148.941 131.447 149.003C131.655 149.065 131.874 148.947 131.936 148.739Z" fill="black"/>
</svg>
