<svg width="226" height="148" viewBox="0 0 226 148" fill="none" xmlns="http://www.w3.org/2000/svg">
<path opacity="0.3" fill-rule="evenodd" clip-rule="evenodd" d="M60.4981 141.231C60.4981 141.231 26.603 141.264 26.6639 140.392C26.8691 137.472 53.5256 139.182 55.7137 138.304C56.7881 137.874 55.601 136.936 57.4949 136.329C65.0276 133.916 91.2321 136.106 100.589 136.089C126.076 136.042 132.529 134.956 135.488 134.816C143.792 134.427 167.287 134.579 173.899 134.655C187.499 134.812 224.081 134.17 223.309 136.637C222.962 137.744 187.835 140.079 181.855 140.377C176.738 140.633 173.222 142.171 168.634 143.073C162.206 144.337 155.157 145.099 148.219 145.579C119.156 147.589 89.3619 142.872 60.4981 141.231Z" fill="#333739"/>
<g opacity="0.1">
<path fill-rule="evenodd" clip-rule="evenodd" d="M201.286 135.707C201.286 135.707 224.927 103.374 205.283 68.3686C187.854 37.31 154.003 59.2 146.803 57.8611C139.603 56.5223 127.966 52.6996 112.381 21.0959C91.1384 -22.0029 17.4808 4.13881 30.9107 70.4449C37.4097 102.533 11.1314 103.699 24.5217 135.774L201.286 135.707Z" fill="#DDDEDE"/>
</g>
<path fill-rule="evenodd" clip-rule="evenodd" d="M128.796 100.87C128.503 98.8857 127.912 96.963 127.464 95.005C126.765 91.9729 126.03 88.9469 125.303 85.9188C125.029 84.7842 124.736 83.6526 124.452 82.52C124.222 81.5591 124.063 80.5771 123.743 79.6415C123.399 78.6352 122.838 77.7168 121.724 77.2045C120.72 76.3629 119.489 76.1083 118.153 76.1234L118.168 76.1315L117.973 75.986C117.081 75.981 116.186 75.9466 115.295 75.985C114.551 76.0153 113.947 75.8547 113.715 75.1858C113.471 74.4867 113.68 73.8906 114.465 73.5218C114.58 73.4682 114.671 73.3743 114.774 73.2995C115.697 73.5349 116.626 73.2813 117.553 73.2944C117.726 73.4268 117.926 73.4157 118.133 73.3712L120.848 73.7723L121.684 74.0664L123.708 75.0454C125.529 76.4033 126.445 78.2361 127.027 80.2437C127.992 84.8388 129.177 89.3955 130.276 93.9663C131.474 98.9443 132.625 103.931 133.813 108.911C134.459 111.62 135.14 114.321 135.805 117.026C135.671 118.456 134.924 119.73 134.444 121.071C133.508 123.679 132.511 126.27 131.48 128.851C131.198 129.559 131.398 129.649 132.134 129.594C137.374 129.208 142.617 128.848 147.859 128.481C163.483 127.384 179.107 126.291 194.732 125.201C195.19 125.169 195.871 124.861 196.08 125.41C196.344 126.104 196.353 126.878 196.227 127.626C196.213 127.704 195.957 127.778 195.808 127.806C195.576 127.837 195.343 127.857 195.11 127.864L128.202 132.559C126.912 132.65 126.928 132.653 127.341 131.577C129.11 126.964 130.854 122.34 132.648 117.733C132.937 116.989 132.585 116.362 132.433 115.716C131.316 110.869 130.129 106.035 128.964 101.198C128.938 101.079 128.855 100.977 128.796 100.87Z" fill="white"/>
<path opacity="0.5" fill-rule="evenodd" clip-rule="evenodd" d="M128.796 100.87C128.503 98.8857 127.912 96.963 127.464 95.005C126.765 91.9729 126.03 88.9469 125.303 85.9188C125.029 84.7842 124.736 83.6526 124.452 82.52C124.222 81.5591 124.063 80.5771 123.743 79.6415C123.399 78.6352 122.838 77.7168 121.724 77.2045C120.72 76.3629 119.489 76.1083 118.153 76.1234L118.168 76.1315L117.973 75.986C117.081 75.981 116.186 75.9466 115.295 75.985C114.551 76.0153 113.947 75.8547 113.715 75.1858C113.471 74.4867 113.68 73.8906 114.465 73.5218C114.58 73.4682 114.671 73.3743 114.774 73.2995C115.697 73.5349 116.626 73.2813 117.553 73.2944C117.726 73.4268 117.926 73.4157 118.133 73.3712L120.848 73.7723L121.684 74.0664L123.708 75.0454C125.529 76.4033 126.445 78.2361 127.027 80.2437C127.992 84.8388 129.177 89.3955 130.276 93.9663C131.474 98.9443 132.625 103.931 133.813 108.911C134.459 111.62 135.14 114.321 135.805 117.026C135.671 118.456 134.924 119.73 134.444 121.071C133.508 123.679 132.511 126.27 131.48 128.851C131.198 129.559 131.398 129.649 132.134 129.594C137.374 129.208 142.617 128.848 147.859 128.481C163.483 127.384 179.107 126.291 194.732 125.201C195.19 125.169 195.871 124.861 196.08 125.41C196.344 126.104 196.353 126.878 196.227 127.626C196.213 127.704 195.957 127.778 195.808 127.806C195.576 127.837 195.343 127.857 195.11 127.864L128.202 132.559C126.912 132.65 126.928 132.653 127.341 131.577C129.11 126.964 130.854 122.34 132.648 117.733C132.937 116.989 132.585 116.362 132.433 115.716C131.316 110.869 130.129 106.035 128.964 101.198C128.938 101.079 128.855 100.977 128.796 100.87Z" fill="#333739"/>
<path fill-rule="evenodd" clip-rule="evenodd" d="M141.712 137.527C140.658 140.432 137.115 141.044 134.872 139.678C134.18 139.257 133.806 138.64 133.366 138.053C132.576 135.769 133.412 133.766 135.589 132.973C137.16 132.4 138.766 132.428 140.136 133.415C141.601 134.471 142.077 135.891 141.712 137.527Z" fill="white"/>
<path fill-rule="evenodd" clip-rule="evenodd" d="M191.325 134.61C190.27 137.515 186.728 138.127 184.484 136.761C183.792 136.34 183.418 135.723 182.978 135.136C182.188 132.852 183.025 130.85 185.202 130.056C186.773 129.483 188.379 129.511 189.749 130.499C191.213 131.554 191.688 132.974 191.325 134.61Z" fill="white"/>
<path opacity="0.5" fill-rule="evenodd" clip-rule="evenodd" d="M141.712 137.527C140.658 140.432 137.115 141.044 134.872 139.678C134.18 139.257 133.806 138.64 133.366 138.054C132.576 135.769 133.412 133.766 135.589 132.973C137.16 132.4 138.766 132.428 140.136 133.415C141.601 134.471 142.077 135.891 141.712 137.527Z" fill="#333739"/>
<path opacity="0.5" fill-rule="evenodd" clip-rule="evenodd" d="M191.325 134.61C190.27 137.515 186.728 138.127 184.484 136.761C183.792 136.34 183.418 135.723 182.978 135.136C182.188 132.852 183.025 130.85 185.202 130.056C186.773 129.483 188.379 129.511 189.749 130.499C191.213 131.554 191.688 132.974 191.325 134.61Z" fill="#333739"/>
<path opacity="0.3" fill-rule="evenodd" clip-rule="evenodd" d="M171.103 113.406L142.223 117.025C141.072 117.169 140.031 116.362 139.898 115.223C139.765 114.084 140.589 113.044 141.739 112.9L170.619 109.281C171.77 109.137 172.81 109.943 172.944 111.083C173.078 112.222 172.252 113.262 171.103 113.406Z" fill="#FFAB00"/>
<path opacity="0.5" fill-rule="evenodd" clip-rule="evenodd" d="M175.01 108.619L148.042 111.676C146.9 111.806 145.868 111.078 145.735 110.052C145.602 109.026 146.419 108.088 147.561 107.958L174.528 104.901C175.671 104.771 176.702 105.499 176.835 106.526C176.969 107.552 176.152 108.49 175.01 108.619Z" fill="#FFAB00"/>
<path opacity="0.3" fill-rule="evenodd" clip-rule="evenodd" d="M170.456 101.034L142.861 104.515C142.216 104.596 141.758 105.223 141.839 105.914L142.045 107.689C142.126 108.38 142.713 108.875 143.36 108.794L170.954 105.313C171.6 105.231 172.057 104.606 171.977 103.914L171.77 102.139C171.69 101.448 171.101 100.953 170.456 101.034Z" fill="#FFAB00"/>
<path opacity="0.5" fill-rule="evenodd" clip-rule="evenodd" d="M170.471 96.6352L142.865 100.188C142.22 100.271 141.76 100.889 141.838 101.569L142.037 103.314C142.115 103.993 142.7 104.477 143.345 104.394L170.952 100.841C171.596 100.757 172.055 100.14 171.977 99.4599L171.778 97.7157C171.701 97.0358 171.115 96.5525 170.471 96.6352Z" fill="#FFAB00"/>
<path opacity="0.3" fill-rule="evenodd" clip-rule="evenodd" d="M170.156 97.1124L144.138 100.121C143.002 100.253 141.976 99.5165 141.844 98.477C141.711 97.4374 142.525 96.4883 143.66 96.3565L169.677 93.3466C170.814 93.2158 171.84 93.9524 171.972 94.992C172.104 96.0305 171.291 96.9816 170.156 97.1124Z" fill="#FFAB00"/>
<path opacity="0.5" fill-rule="evenodd" clip-rule="evenodd" d="M168.21 93.8673L142.192 96.8763C141.056 97.008 140.03 96.2714 139.898 95.2319C139.765 94.1914 140.579 93.2432 141.715 93.1114L167.732 90.1015C168.868 89.9707 169.894 90.7064 170.026 91.7469C170.158 92.7864 169.345 93.7355 168.21 93.8673Z" fill="#FFAB00"/>
<path opacity="0.5" fill-rule="evenodd" clip-rule="evenodd" d="M184.495 108.698L171.81 84.6218C171.505 84.0431 170.789 83.8192 170.21 84.1228L168.727 84.9009C168.148 85.2045 167.927 85.9192 168.231 86.4978L180.916 110.574C181.222 111.153 181.937 111.376 182.516 111.072L184 110.295C184.578 109.991 184.8 109.277 184.495 108.698Z" fill="#FFAB00"/>
<path fill-rule="evenodd" clip-rule="evenodd" d="M159.91 110.14C164.413 104.411 163.395 96.1191 157.636 91.6185C151.877 87.1178 143.558 88.1126 139.056 93.8409C134.552 99.5702 135.571 107.863 141.33 112.363C147.089 116.863 155.407 115.869 159.91 110.14Z" fill="#FFAB00"/>
<path opacity="0.5" fill-rule="evenodd" clip-rule="evenodd" d="M155.779 93.3951C160.576 96.8516 161.665 103.535 158.215 108.323C154.764 113.113 148.076 114.194 143.28 110.739C138.483 107.284 137.393 100.6 140.844 95.8108C144.296 91.0204 150.983 89.9415 155.779 93.3951Z" fill="white"/>
<path fill-rule="evenodd" clip-rule="evenodd" d="M156.399 104.765C156.542 104.907 156.629 105.093 156.646 105.29C156.663 105.487 156.609 105.683 156.492 105.846C156.02 106.504 155.216 107.326 154.158 107.99C152.612 108.961 150.754 109.421 148.897 109.04C147.737 108.803 146.581 108.176 145.653 107.245L144.739 107.817C144.59 107.91 144.408 107.942 144.235 107.907C144.061 107.871 143.909 107.771 143.812 107.627L143.797 107.603C143.7 107.46 143.667 107.285 143.703 107.118C143.74 106.949 143.844 106.803 143.992 106.709L144.742 106.238C144.551 106.004 144.422 105.861 144.329 105.725C144.154 105.458 143.999 105.177 143.866 104.889L143.093 105.374C142.943 105.467 142.762 105.5 142.589 105.464C142.415 105.428 142.263 105.328 142.166 105.184C142.069 105.04 142.035 104.865 142.071 104.698C142.109 104.529 142.213 104.382 142.361 104.288L143.298 103.7C142.854 102.498 142.745 101.246 142.988 100.125C143.403 98.2221 144.652 96.663 146.27 95.6501C147.212 95.0574 148.032 94.7672 148.715 94.613C148.943 94.5626 149.183 94.5989 149.384 94.7148C149.586 94.8307 149.732 95.0181 149.793 95.2358L149.795 95.251C149.826 95.3618 149.834 95.4797 149.818 95.5936C149.802 95.7085 149.764 95.8184 149.703 95.9192C149.643 96.0179 149.564 96.1056 149.467 96.1762C149.373 96.2457 149.264 96.2961 149.148 96.3253C148.474 96.5027 147.834 96.7839 147.253 97.1578C146.222 97.8049 145.406 98.7684 145.104 100.054C144.941 100.801 144.979 101.648 145.334 102.422L150.604 99.1111C150.754 99.0174 150.935 98.9851 151.109 99.0204C151.283 99.0567 151.434 99.1574 151.532 99.3006C151.628 99.4447 151.663 99.6201 151.625 99.7874C151.588 99.9557 151.485 100.102 151.336 100.196L145.833 103.653C145.977 103.917 146.122 104.181 146.228 104.34C146.366 104.543 146.503 104.746 146.71 105.004L152.226 101.537C152.301 101.491 152.386 101.457 152.474 101.442C152.562 101.426 152.653 101.427 152.741 101.445C152.829 101.463 152.913 101.498 152.987 101.547C153.061 101.595 153.125 101.658 153.173 101.732C153.273 101.879 153.307 102.057 153.27 102.229C153.232 102.401 153.126 102.551 152.973 102.647L147.69 105.965C148.296 106.519 149.008 106.878 149.702 107.021C151.078 107.283 152.229 107.012 153.4 106.275C154.034 105.876 154.6 105.386 155.078 104.821C155.157 104.728 155.255 104.651 155.366 104.598C155.478 104.543 155.6 104.513 155.724 104.508C155.849 104.502 155.974 104.522 156.089 104.568C156.205 104.612 156.31 104.68 156.396 104.765H156.399Z" fill="white"/>
<path fill-rule="evenodd" clip-rule="evenodd" d="M192.874 110.578L141.236 116.651C139.708 116.83 138.29 115.862 137.943 114.402L130.997 85.1541C130.541 83.2411 132.104 81.4347 134.116 81.5454L189.386 84.5872C190.865 84.6685 192.06 85.7826 192.209 87.2179L194.44 108.672C194.538 109.616 193.841 110.464 192.874 110.578Z" stroke="white" stroke-width="0.667656"/>
<path d="M133.017 92.3389L192.423 93.6258" stroke="white" stroke-width="0.667656"/>
<path d="M135.76 104.571L193.479 101.363" stroke="white" stroke-width="0.667656"/>
<path opacity="0.5" fill-rule="evenodd" clip-rule="evenodd" d="M134.134 81.2241C131.917 81.1022 130.175 83.0958 130.682 85.2282L137.629 114.476C138.015 116.1 139.588 117.168 141.274 116.97L192.912 110.897C194.047 110.764 194.877 109.765 194.761 108.64L192.098 87.1575L192.098 87.1544C191.93 85.5581 190.602 84.3284 188.971 84.2388L134.134 81.2241ZM134.098 81.8666C132.291 81.7672 130.908 83.3862 131.311 85.0798L133.019 92.2713L133.024 92.0168L192.209 93.299L191.456 87.2239C191.323 85.9511 190.262 84.9541 188.936 84.8813L134.098 81.8666ZM192.289 93.9443L133.111 92.6623L135.862 104.243L193.171 101.058L192.289 93.9443ZM138.257 114.328L136.013 104.879L193.25 101.698L194.119 108.705L194.119 108.708C194.196 109.47 193.633 110.164 192.836 110.258L141.198 116.331C139.827 116.492 138.565 115.623 138.257 114.328Z" fill="#333739"/>
<path fill-rule="evenodd" clip-rule="evenodd" d="M104.831 64.823L94.5486 53.3378L91.4148 58.1105L100.44 66.7825L111.258 73.7605L114.85 70.936L111.258 73.7605L112.213 75.7174C112.213 75.7174 113.406 76.0513 113.51 76.054C113.615 76.0576 114.781 75.6589 114.88 75.6585C114.979 75.6591 115.494 75.9615 115.652 75.9693C115.81 75.9762 116.999 75.5292 117.122 75.5418C117.244 75.5534 118.31 76.0626 118.466 76.053C118.621 76.0435 119.7 74.307 119.7 74.307L117.599 72.0391L115.191 70.6666" fill="#FFDDC5"/>
<path fill-rule="evenodd" clip-rule="evenodd" d="M51.4011 103.009L51.7327 107.881C51.7327 107.881 48.5121 111.033 47.79 112.189C47.0678 113.343 46.3215 117.373 46.3215 117.373L44.9895 117.491L44.7337 114.028C44.7337 114.028 47.7236 106.486 44.9118 105.536C43.8622 105.181 43.9409 102.98 43.9409 102.98L51.3541 102.31" fill="#333739"/>
<path fill-rule="evenodd" clip-rule="evenodd" d="M113.206 132.733L117.171 131.417C117.171 131.417 120.636 133.602 121.747 133.993C122.859 134.383 126.488 134.283 126.488 134.283L126.779 135.36L122.746 136.471C122.746 136.471 116.757 134.625 116.334 137.543C116.199 138.477 114.234 138.796 114.234 138.796L112.577 132.905" fill="#333739"/>
<path fill-rule="evenodd" clip-rule="evenodd" d="M89.333 47.1709C89.3623 47.1899 85.969 48.3116 83.7144 47.3052C81.5925 46.36 80.0084 42.8839 80.0407 42.8828C81.0091 42.8443 82.0797 42.0138 82.944 36.5217L83.3554 36.6714L90.2685 39.1844C90.2685 39.1844 89.7482 41.3829 89.4056 43.4768C89.1178 45.2352 88.9561 46.9192 89.333 47.1709Z" fill="#FFDDC5"/>
<path opacity="0.1" fill-rule="evenodd" clip-rule="evenodd" d="M90.4002 39.9758C90.4002 39.9758 89.9613 42.1859 89.6833 44.2935C86.0443 43.4861 84.583 39.4897 84.0527 37.3267L90.4002 39.9758Z" fill="#333739"/>
<path fill-rule="evenodd" clip-rule="evenodd" d="M92.1918 40.5448C92.1918 40.5448 83.4316 42.9151 82.2181 37.6161C81.0055 32.3166 79.0578 29.0533 84.6004 27.316C90.1421 25.5793 91.6956 27.3233 92.5452 28.9786C93.394 30.6345 94.4399 39.7917 92.1918 40.5448Z" fill="#FFDDC5"/>
<path fill-rule="evenodd" clip-rule="evenodd" d="M94.3183 75.0497L81.941 78.443L111.32 133.371L117.265 131.461" fill="#333739"/>
<path fill-rule="evenodd" clip-rule="evenodd" d="M94.3698 76.1981L78.5518 72.6977L70.7141 100.645L50.2651 102.479L50.7261 110.352C50.7261 110.352 75.1303 109.594 77.6046 108.119C80.0788 106.644 94.3698 76.1981 94.3698 76.1981Z" fill="#333739"/>
<path fill-rule="evenodd" clip-rule="evenodd" d="M95.3178 75.883C95.3178 75.883 89.6854 76.2731 89.475 76.1597C89.2104 76.0184 88.11 56.3549 88.1109 56.3667L89.8357 59.3297" fill="white"/>
<path fill-rule="evenodd" clip-rule="evenodd" d="M92.5242 22.4833C95.4717 24.6851 94.8509 26.5607 92.19 27.2519C89.5261 27.9462 85.5775 28.599 85.5775 28.599C85.5775 28.599 85.6543 37.4458 84.9942 35.4157C84.3352 33.3872 85.4802 32.8204 84.1994 31.5849C82.921 30.3512 81.9496 31.53 82.0999 32.6004C82.2534 33.67 82.5198 38.5507 82.5198 38.5507C82.5198 38.5507 80.1471 33.7107 80.0692 30.5159C79.9937 27.323 81.1407 24.4096 84.6693 24.2643C88.2019 24.1197 88.7211 25.0768 90.7749 24.3023C92.8284 23.5291 92.5242 22.4833 92.5242 22.4833Z" fill="#333739"/>
<path fill-rule="evenodd" clip-rule="evenodd" d="M91.4098 58.5333L88.8604 55.8554C88.8604 55.8554 90.4246 75.2826 90.4994 76.4315C90.5731 77.5805 90.2666 78.6338 89.5761 80.3721C88.8866 82.1113 87.5963 82.3669 86.3017 83.183C85.0059 83.9982 73.9731 83.0504 73.9731 83.0504C73.9731 83.0504 71.3824 74.6266 73.9762 60.8721C76.5712 47.1183 80.3865 41.86 80.3865 41.86C85.8842 45.0066 90.0937 45.3275 90.0937 45.3275L96.5804 53.6494" fill="#FF6666"/>
<path fill-rule="evenodd" clip-rule="evenodd" d="M38.3959 136.325C39.5981 137.969 40.9834 139.481 42.7092 140.426C45.9135 142.18 50.7005 141.14 52.6106 137.95C53.9114 138.043 55.2708 137.863 56.4382 137.534C58.7255 136.887 60.7667 135.603 63.0713 134.99C64.5835 134.588 66.138 134.541 67.6892 134.662C67.5461 135.512 67.6947 136.348 68.3375 136.962C71.4811 139.96 76.2681 132.446 71.9548 129.521C68.8936 127.445 62.9293 129.397 57.5027 129.183C62.8274 125.875 64.8816 118.494 64.4307 112.245C64.2323 109.52 63.2946 106.977 62.887 104.29C62.6475 102.71 62.68 101.128 62.9857 99.5607C63.1732 98.5941 65.1017 95.6547 63.7022 94.9363C61.3835 93.7465 59.9559 99.8363 59.7423 100.904C58.6214 106.511 59.828 113.058 56.8209 118.189C52.2756 125.945 46.1444 122.016 45.5081 118.804C47.4214 115.26 51.1211 111.853 53.1602 104.488C56.6377 91.9281 48.6051 78.6759 39.2393 75.6195C25.4506 71.1198 10.0413 83.8985 12.0695 95.9871C12.7915 100.282 15.573 107.373 19.3801 112.139C20.889 114.029 25.8896 118.217 25.7259 120.577C25.5395 123.261 21.9481 124.148 19.83 124.109C13.9784 123.998 7.88303 119.864 2.31986 123.524C-0.918091 125.654 0.37188 130.81 4.15943 131.793C6.42503 132.38 7.71935 129.561 6.21473 127.722C8.64943 127.583 10.7546 129.382 12.8532 130.375C8.75458 132.489 9.302 138.922 13.0939 140.578C16.7579 142.178 20.6755 140 24.4359 140.801C25.9709 142.207 27.7812 142.833 29.8777 142.494C33.5493 141.901 35.1536 138.994 35.8419 135.763C36.7092 135.872 37.5612 136.058 38.3959 136.325Z" fill="#E62B31"/>
<mask id="mask0" mask-type="alpha" maskUnits="userSpaceOnUse" x="0" y="74" width="74" height="68">
<path fill-rule="evenodd" clip-rule="evenodd" d="M33.3713 74.689C35.3273 74.689 37.3029 74.977 39.247 75.6029C48.6464 78.6285 56.7066 91.7532 53.2166 104.191C51.1703 111.485 47.4584 114.859 45.5372 118.368C46.1769 121.548 52.3289 125.439 56.8904 117.758C59.9083 112.678 58.6985 106.195 59.8234 100.642C60.0366 99.5847 61.4694 93.5529 63.7964 94.7322C65.2009 95.4426 63.2666 98.3545 63.0773 99.3118C62.7716 100.865 62.739 102.429 62.9783 103.995C63.3895 106.655 64.3295 109.175 64.5275 111.873C64.9811 118.06 62.9185 125.369 57.5747 128.646C59.4796 128.72 61.4498 128.533 63.3384 128.344C66.8512 127.994 70.0812 127.645 72.0796 128.981C76.4073 131.878 71.6031 139.318 68.4482 136.35C67.8042 135.742 67.6552 134.914 67.7988 134.073C66.242 133.952 64.6809 133.999 63.1643 134.397C60.8504 135.004 58.8019 136.275 56.5064 136.916C55.3358 137.242 53.9705 137.421 52.6661 137.329C50.7493 140.487 45.944 141.517 42.7293 139.781C40.9963 138.845 39.606 137.346 38.4006 135.719C37.5618 135.454 36.7078 135.27 35.8375 135.163C35.1456 138.362 33.5355 141.241 29.8508 141.828C27.7479 142.164 25.9301 141.545 24.3896 140.152C22.7262 139.802 21.0313 140.026 19.3407 140.249C17.1986 140.533 15.0631 140.816 13.008 139.931C9.20151 138.29 8.65211 131.921 12.7654 129.827C10.6604 128.843 8.54768 127.062 6.10318 127.199C7.61317 129.022 6.31532 131.813 4.04163 131.231C0.239433 130.256 -1.05408 125.152 2.19437 123.042C7.77745 119.418 13.8947 123.512 19.7671 123.622C21.894 123.661 25.4971 122.782 25.6842 120.124C25.8495 117.787 20.83 113.64 19.3167 111.768C15.4961 107.047 12.7034 100.026 11.98 95.7718C10.2296 85.4832 21.4077 74.689 33.3702 74.689H33.3713Z" fill="white"/>
</mask>
<g mask="url(#mask0)">
<path fill-rule="evenodd" clip-rule="evenodd" d="M18.0573 92.8989C18.0998 98.2203 21.7801 102.538 24.9154 106.485C22.5558 106.433 22.1772 108.37 23.0812 110.205C24.0669 112.206 25.6432 113.895 26.6865 115.879C28.71 119.725 30.3462 127.956 28.2988 131.886C27.6776 133.079 26.2655 135.448 26.6408 136.857C27.0782 138.498 27.5351 141.019 30.9217 141.74C29.675 142.304 28.302 142.177 27.0455 141.718C24.4835 140.781 15.5954 137.51 18.6165 137.119C22.9866 137.227 18.3772 133.194 16.9031 132.731C21.7127 134.022 22.1957 127.915 19.9742 126.77C22.7788 124.624 21.0926 123.132 18.8656 122.896C22.0749 123.37 22.9779 123.916 21.9879 120.13C21.445 118.058 19.4977 116.177 17.9801 114.725C13.9821 110.902 11.2058 105.863 10.3855 100.492C9.67729 95.8541 12.8714 93.2877 18.0573 92.8989Z" fill="#BB1818"/>
</g>
<mask id="mask1" mask-type="alpha" maskUnits="userSpaceOnUse" x="0" y="74" width="74" height="68">
<path fill-rule="evenodd" clip-rule="evenodd" d="M33.3713 74.689C35.3273 74.689 37.3029 74.977 39.247 75.6029C48.6464 78.6285 56.7066 91.7532 53.2166 104.191C51.1703 111.485 47.4584 114.859 45.5372 118.368C46.1769 121.548 52.3289 125.439 56.8904 117.758C59.9083 112.678 58.6985 106.195 59.8234 100.642C60.0366 99.5847 61.4694 93.5529 63.7964 94.7322C65.2009 95.4426 63.2666 98.3545 63.0773 99.3118C62.7716 100.865 62.739 102.429 62.9783 103.995C63.3895 106.655 64.3295 109.175 64.5275 111.873C64.9811 118.06 62.9185 125.369 57.5747 128.646C59.4796 128.72 61.4498 128.533 63.3384 128.344C66.8512 127.994 70.0812 127.645 72.0796 128.981C76.4073 131.878 71.6031 139.318 68.4482 136.35C67.8042 135.742 67.6552 134.914 67.7988 134.073C66.242 133.952 64.6809 133.999 63.1643 134.397C60.8504 135.004 58.8019 136.275 56.5064 136.916C55.3358 137.242 53.9705 137.421 52.6661 137.329C50.7493 140.487 45.944 141.517 42.7293 139.781C40.9963 138.845 39.606 137.346 38.4006 135.719C37.5618 135.454 36.7078 135.27 35.8375 135.163C35.1456 138.362 33.5355 141.241 29.8508 141.828C27.7479 142.164 25.9301 141.545 24.3896 140.152C22.7262 139.802 21.0313 140.026 19.3407 140.249C17.1986 140.533 15.0631 140.816 13.008 139.931C9.20151 138.29 8.65211 131.921 12.7654 129.827C10.6604 128.843 8.54768 127.062 6.10318 127.199C7.61317 129.022 6.31532 131.813 4.04163 131.231C0.239433 130.256 -1.05408 125.152 2.19437 123.042C7.77745 119.418 13.8947 123.512 19.7671 123.622C21.894 123.661 25.4971 122.782 25.6842 120.124C25.8495 117.787 20.83 113.64 19.3167 111.768C15.4961 107.047 12.7034 100.026 11.98 95.7718C10.2296 85.4832 21.4077 74.689 33.3702 74.689H33.3713Z" fill="white"/>
</mask>
<g mask="url(#mask1)">
<path fill-rule="evenodd" clip-rule="evenodd" d="M72.6597 135.309C72.28 135.65 71.7023 135.816 71.2052 135.867C68.5442 136.138 67.6554 132.369 69.7713 131.775C69.0903 131.722 68.4212 131.609 67.7348 131.614C64.878 131.638 62.0864 132.279 59.2623 132.605C57.3889 132.822 55.1293 133.224 53.3006 132.507C53.8565 134.658 53.0504 136.465 52.2388 138.427C53.6313 138.777 55.0782 138.986 56.4947 139.206C57.6097 139.379 58.727 139.517 59.8519 139.607C63.2037 139.875 66.8949 139.881 70.0661 138.615C71.2944 138.126 72.5835 136.816 72.6597 135.309Z" fill="#BB1818"/>
</g>
<mask id="mask2" mask-type="alpha" maskUnits="userSpaceOnUse" x="0" y="74" width="74" height="68">
<path fill-rule="evenodd" clip-rule="evenodd" d="M33.3713 74.689C35.3273 74.689 37.3029 74.977 39.247 75.6029C48.6464 78.6285 56.7066 91.7532 53.2166 104.191C51.1703 111.485 47.4584 114.859 45.5372 118.368C46.1769 121.548 52.3289 125.439 56.8904 117.758C59.9083 112.678 58.6985 106.195 59.8234 100.642C60.0366 99.5847 61.4694 93.5529 63.7964 94.7322C65.2009 95.4426 63.2666 98.3545 63.0773 99.3118C62.7716 100.865 62.739 102.429 62.9783 103.995C63.3895 106.655 64.3295 109.175 64.5275 111.873C64.9811 118.06 62.9185 125.369 57.5747 128.646C59.4796 128.72 61.4498 128.533 63.3384 128.344C66.8512 127.994 70.0812 127.645 72.0796 128.981C76.4073 131.878 71.6031 139.318 68.4482 136.35C67.8042 135.742 67.6552 134.914 67.7988 134.073C66.242 133.952 64.6809 133.999 63.1643 134.397C60.8504 135.004 58.8019 136.275 56.5064 136.916C55.3358 137.242 53.9705 137.421 52.6661 137.329C50.7493 140.487 45.944 141.517 42.7293 139.781C40.9963 138.845 39.606 137.346 38.4006 135.719C37.5618 135.454 36.7078 135.27 35.8375 135.163C35.1456 138.362 33.5355 141.241 29.8508 141.828C27.7479 142.164 25.9301 141.545 24.3896 140.152C22.7262 139.802 21.0313 140.026 19.3407 140.249C17.1986 140.533 15.0631 140.816 13.008 139.931C9.20151 138.29 8.65211 131.921 12.7654 129.827C10.6604 128.843 8.54768 127.062 6.10318 127.199C7.61317 129.022 6.31532 131.813 4.04163 131.231C0.239433 130.256 -1.05408 125.152 2.19437 123.042C7.77745 119.418 13.8947 123.512 19.7671 123.622C21.894 123.661 25.4971 122.782 25.6842 120.124C25.8495 117.787 20.83 113.64 19.3167 111.768C15.4961 107.047 12.7034 100.026 11.98 95.7718C10.2296 85.4832 21.4077 74.689 33.3702 74.689H33.3713Z" fill="white"/>
</mask>
<g mask="url(#mask2)">
<path fill-rule="evenodd" clip-rule="evenodd" d="M17.4294 127.633C13.5347 127.329 10.1263 124.902 6.17403 124.926C4.76412 124.935 2.37836 125.466 2.34246 127.281C3.1932 125.688 5.29283 126.269 6.21102 127.434C7.56436 129.153 9.63244 129.959 11.582 130.499C13.1507 129.255 15.1948 128.759 17.4294 127.633Z" fill="#BB1818"/>
</g>
<mask id="mask3" mask-type="alpha" maskUnits="userSpaceOnUse" x="0" y="74" width="74" height="68">
<path fill-rule="evenodd" clip-rule="evenodd" d="M33.3713 74.689C35.3273 74.689 37.3029 74.977 39.247 75.6029C48.6464 78.6285 56.7066 91.7532 53.2166 104.191C51.1703 111.485 47.4584 114.859 45.5372 118.368C46.1769 121.548 52.3289 125.439 56.8904 117.758C59.9083 112.678 58.6985 106.195 59.8234 100.642C60.0366 99.5847 61.4694 93.5529 63.7964 94.7322C65.2009 95.4426 63.2666 98.3545 63.0773 99.3118C62.7716 100.865 62.739 102.429 62.9783 103.995C63.3895 106.655 64.3295 109.175 64.5275 111.873C64.9811 118.06 62.9185 125.369 57.5747 128.646C59.4796 128.72 61.4498 128.533 63.3384 128.344C66.8512 127.994 70.0812 127.645 72.0796 128.981C76.4073 131.878 71.6031 139.318 68.4482 136.35C67.8042 135.742 67.6552 134.914 67.7988 134.073C66.242 133.952 64.6809 133.999 63.1643 134.397C60.8504 135.004 58.8019 136.275 56.5064 136.916C55.3358 137.242 53.9705 137.421 52.6661 137.329C50.7493 140.487 45.944 141.517 42.7293 139.781C40.9963 138.845 39.606 137.346 38.4006 135.719C37.5618 135.454 36.7078 135.27 35.8375 135.163C35.1456 138.362 33.5355 141.241 29.8508 141.828C27.7479 142.164 25.9301 141.545 24.3896 140.152C22.7262 139.802 21.0313 140.026 19.3407 140.249C17.1986 140.533 15.0631 140.816 13.008 139.931C9.20151 138.29 8.65211 131.921 12.7654 129.827C10.6604 128.843 8.54768 127.062 6.10318 127.199C7.61317 129.022 6.31532 131.813 4.04163 131.231C0.239433 130.256 -1.05408 125.152 2.19437 123.042C7.77745 119.418 13.8947 123.512 19.7671 123.622C21.894 123.661 25.4971 122.782 25.6842 120.124C25.8495 117.787 20.83 113.64 19.3167 111.768C15.4961 107.047 12.7034 100.026 11.98 95.7718C10.2296 85.4832 21.4077 74.689 33.3702 74.689H33.3713Z" fill="white"/>
</mask>
<g mask="url(#mask3)">
<path fill-rule="evenodd" clip-rule="evenodd" d="M23.5796 137.802C19.908 136.123 12.5799 138.334 10.9165 133.802C10.5814 132.888 10.5477 131.955 10.8763 131.033C7.21549 133.711 7.49725 139.943 11.7411 141.784C16.5757 143.88 21.6573 141.532 26.6409 142.341C25.5857 141.201 24.4836 139.07 23.5796 137.802Z" fill="#BB1818"/>
</g>
<mask id="mask4" mask-type="alpha" maskUnits="userSpaceOnUse" x="0" y="74" width="74" height="68">
<path fill-rule="evenodd" clip-rule="evenodd" d="M33.3713 74.689C35.3273 74.689 37.3029 74.977 39.247 75.6029C48.6464 78.6285 56.7066 91.7532 53.2166 104.191C51.1703 111.485 47.4584 114.859 45.5372 118.368C46.1769 121.548 52.3289 125.439 56.8904 117.758C59.9083 112.678 58.6985 106.195 59.8234 100.642C60.0366 99.5847 61.4694 93.5529 63.7964 94.7322C65.2009 95.4426 63.2666 98.3545 63.0773 99.3118C62.7716 100.865 62.739 102.429 62.9783 103.995C63.3895 106.655 64.3295 109.175 64.5275 111.873C64.9811 118.06 62.9185 125.369 57.5747 128.646C59.4796 128.72 61.4498 128.533 63.3384 128.344C66.8512 127.994 70.0812 127.645 72.0796 128.981C76.4073 131.878 71.6031 139.318 68.4482 136.35C67.8042 135.742 67.6552 134.914 67.7988 134.073C66.242 133.952 64.6809 133.999 63.1643 134.397C60.8504 135.004 58.8019 136.275 56.5064 136.916C55.3358 137.242 53.9705 137.421 52.6661 137.329C50.7493 140.487 45.944 141.517 42.7293 139.781C40.9963 138.845 39.606 137.346 38.4006 135.719C37.5618 135.454 36.7078 135.27 35.8375 135.163C35.1456 138.362 33.5355 141.241 29.8508 141.828C27.7479 142.164 25.9301 141.545 24.3896 140.152C22.7262 139.802 21.0313 140.026 19.3407 140.249C17.1986 140.533 15.0631 140.816 13.008 139.931C9.20151 138.29 8.65211 131.921 12.7654 129.827C10.6604 128.843 8.54768 127.062 6.10318 127.199C7.61317 129.022 6.31532 131.813 4.04163 131.231C0.239433 130.256 -1.05408 125.152 2.19437 123.042C7.77745 119.418 13.8947 123.512 19.7671 123.622C21.894 123.661 25.4971 122.782 25.6842 120.124C25.8495 117.787 20.83 113.64 19.3167 111.768C15.4961 107.047 12.7034 100.026 11.98 95.7718C10.2296 85.4832 21.4077 74.689 33.3702 74.689H33.3713Z" fill="white"/>
</mask>
<g mask="url(#mask4)">
<path fill-rule="evenodd" clip-rule="evenodd" d="M22.3525 107.25C31.7487 109.671 35.7478 125.024 40.5769 132.299C42.9931 135.937 47.6276 140.593 52.3828 137.822C50.3984 141.201 46.0806 143.053 42.4503 140.91C41.0436 140.079 40.2331 138.777 39.0452 137.719C38.0487 136.83 36.2591 138.188 35.0961 137.548C35.7401 134.608 35.2006 131.808 34.0322 128.247C32.9856 125.053 31.7345 121.099 31.3004 120.03C28.0846 112.108 23.1249 108.566 22.3525 107.25Z" fill="#BB1818"/>
</g>
<mask id="mask5" mask-type="alpha" maskUnits="userSpaceOnUse" x="0" y="74" width="74" height="68">
<path fill-rule="evenodd" clip-rule="evenodd" d="M33.3713 74.689C35.3273 74.689 37.3029 74.977 39.247 75.6029C48.6464 78.6285 56.7066 91.7532 53.2166 104.191C51.1703 111.485 47.4584 114.859 45.5372 118.368C46.1769 121.548 52.3289 125.439 56.8904 117.758C59.9083 112.678 58.6985 106.195 59.8234 100.642C60.0366 99.5847 61.4694 93.5529 63.7964 94.7322C65.2009 95.4426 63.2666 98.3545 63.0773 99.3118C62.7716 100.865 62.739 102.429 62.9783 103.995C63.3895 106.655 64.3295 109.175 64.5275 111.873C64.9811 118.06 62.9185 125.369 57.5747 128.646C59.4796 128.72 61.4498 128.533 63.3384 128.344C66.8512 127.994 70.0812 127.645 72.0796 128.981C76.4073 131.878 71.6031 139.318 68.4482 136.35C67.8042 135.742 67.6552 134.914 67.7988 134.073C66.242 133.952 64.6809 133.999 63.1643 134.397C60.8504 135.004 58.8019 136.275 56.5064 136.916C55.3358 137.242 53.9705 137.421 52.6661 137.329C50.7493 140.487 45.944 141.517 42.7293 139.781C40.9963 138.845 39.606 137.346 38.4006 135.719C37.5618 135.454 36.7078 135.27 35.8375 135.163C35.1456 138.362 33.5355 141.241 29.8508 141.828C27.7479 142.164 25.9301 141.545 24.3896 140.152C22.7262 139.802 21.0313 140.026 19.3407 140.249C17.1986 140.533 15.0631 140.816 13.008 139.931C9.20151 138.29 8.65211 131.921 12.7654 129.827C10.6604 128.843 8.54768 127.062 6.10318 127.199C7.61317 129.022 6.31532 131.813 4.04163 131.231C0.239433 130.256 -1.05408 125.152 2.19437 123.042C7.77745 119.418 13.8947 123.512 19.7671 123.622C21.894 123.661 25.4971 122.782 25.6842 120.124C25.8495 117.787 20.83 113.64 19.3167 111.768C15.4961 107.047 12.7034 100.026 11.98 95.7718C10.2296 85.4832 21.4077 74.689 33.3702 74.689H33.3713Z" fill="white"/>
</mask>
<g mask="url(#mask5)">
<path fill-rule="evenodd" clip-rule="evenodd" d="M45.5372 120.738C47.0254 124.054 52.6161 128.123 57.1537 127.445C62.096 126.706 64.0412 121.778 64.9354 117.162C64.5155 121.055 63.94 125.727 60.2325 127.832C55.5219 130.507 47.7706 126.022 45.5372 120.738Z" fill="#BB1818"/>
</g>
<mask id="mask6" mask-type="alpha" maskUnits="userSpaceOnUse" x="0" y="74" width="74" height="68">
<path fill-rule="evenodd" clip-rule="evenodd" d="M33.3713 74.689C35.3273 74.689 37.3029 74.977 39.247 75.6029C48.6464 78.6285 56.7066 91.7532 53.2166 104.191C51.1703 111.485 47.4584 114.859 45.5372 118.368C46.1769 121.548 52.3289 125.439 56.8904 117.758C59.9083 112.678 58.6985 106.195 59.8234 100.642C60.0366 99.5847 61.4694 93.5529 63.7964 94.7322C65.2009 95.4426 63.2666 98.3545 63.0773 99.3118C62.7716 100.865 62.739 102.429 62.9783 103.995C63.3895 106.655 64.3295 109.175 64.5275 111.873C64.9811 118.06 62.9185 125.369 57.5747 128.646C59.4796 128.72 61.4498 128.533 63.3384 128.344C66.8512 127.994 70.0812 127.645 72.0796 128.981C76.4073 131.878 71.6031 139.318 68.4482 136.35C67.8042 135.742 67.6552 134.914 67.7988 134.073C66.242 133.952 64.6809 133.999 63.1643 134.397C60.8504 135.004 58.8019 136.275 56.5064 136.916C55.3358 137.242 53.9705 137.421 52.6661 137.329C50.7493 140.487 45.944 141.517 42.7293 139.781C40.9963 138.845 39.606 137.346 38.4006 135.719C37.5618 135.454 36.7078 135.27 35.8375 135.163C35.1456 138.362 33.5355 141.241 29.8508 141.828C27.7479 142.164 25.9301 141.545 24.3896 140.152C22.7262 139.802 21.0313 140.026 19.3407 140.249C17.1986 140.533 15.0631 140.816 13.008 139.931C9.20151 138.29 8.65211 131.921 12.7654 129.827C10.6604 128.843 8.54768 127.062 6.10318 127.199C7.61317 129.022 6.31532 131.813 4.04163 131.231C0.239433 130.256 -1.05408 125.152 2.19437 123.042C7.77745 119.418 13.8947 123.512 19.7671 123.622C21.894 123.661 25.4971 122.782 25.6842 120.124C25.8495 117.787 20.83 113.64 19.3167 111.768C15.4961 107.047 12.7034 100.026 11.98 95.7718C10.2296 85.4832 21.4077 74.689 33.3702 74.689H33.3713Z" fill="white"/>
</mask>
<g mask="url(#mask6)">
<path fill-rule="evenodd" clip-rule="evenodd" d="M62.2466 94.9883C59.3169 99.871 60.3362 107.104 59.8804 112.628C59.6987 114.829 59.3887 117.016 58.2225 118.944C55.481 123.477 49.8109 122.707 48.0702 117.162C49.2375 117.83 49.9577 119.331 51.199 118.803C55.2155 117.098 55.7954 112.975 56.4079 109.179C56.7168 107.257 59.1526 97.0295 62.2466 94.9883Z" fill="#BB1818"/>
</g>
<mask id="mask7" mask-type="alpha" maskUnits="userSpaceOnUse" x="0" y="74" width="74" height="68">
<path fill-rule="evenodd" clip-rule="evenodd" d="M33.3713 74.689C35.3273 74.689 37.3029 74.977 39.247 75.6029C48.6464 78.6285 56.7066 91.7532 53.2166 104.191C51.1703 111.485 47.4584 114.859 45.5372 118.368C46.1769 121.548 52.3289 125.439 56.8904 117.758C59.9083 112.678 58.6985 106.195 59.8234 100.642C60.0366 99.5847 61.4694 93.5529 63.7964 94.7322C65.2009 95.4426 63.2666 98.3545 63.0773 99.3118C62.7716 100.865 62.739 102.429 62.9783 103.995C63.3895 106.655 64.3295 109.175 64.5275 111.873C64.9811 118.06 62.9185 125.369 57.5747 128.646C59.4796 128.72 61.4498 128.533 63.3384 128.344C66.8512 127.994 70.0812 127.645 72.0796 128.981C76.4073 131.878 71.6031 139.318 68.4482 136.35C67.8042 135.742 67.6552 134.914 67.7988 134.073C66.242 133.952 64.6809 133.999 63.1643 134.397C60.8504 135.004 58.8019 136.275 56.5064 136.916C55.3358 137.242 53.9705 137.421 52.6661 137.329C50.7493 140.487 45.944 141.517 42.7293 139.781C40.9963 138.845 39.606 137.346 38.4006 135.719C37.5618 135.454 36.7078 135.27 35.8375 135.163C35.1456 138.362 33.5355 141.241 29.8508 141.828C27.7479 142.164 25.9301 141.545 24.3896 140.152C22.7262 139.802 21.0313 140.026 19.3407 140.249C17.1986 140.533 15.0631 140.816 13.008 139.931C9.20151 138.29 8.65211 131.921 12.7654 129.827C10.6604 128.843 8.54768 127.062 6.10318 127.199C7.61317 129.022 6.31532 131.813 4.04163 131.231C0.239433 130.256 -1.05408 125.152 2.19437 123.042C7.77745 119.418 13.8947 123.512 19.7671 123.622C21.894 123.661 25.4971 122.782 25.6842 120.124C25.8495 117.787 20.83 113.64 19.3167 111.768C15.4961 107.047 12.7034 100.026 11.98 95.7718C10.2296 85.4832 21.4077 74.689 33.3702 74.689H33.3713Z" fill="white"/>
</mask>
<g mask="url(#mask7)">
<path fill-rule="evenodd" clip-rule="evenodd" d="M51.7491 108.303C48.2265 116.244 44.5973 117.692 45.5557 120.858C45.9789 122.258 47.4421 123.86 48.3701 124.926C51.6349 128.673 56.0408 133.842 51.699 138.529C53.0937 134.847 52.7369 131.641 50.0966 128.712C48.1123 126.51 44.9497 123.657 44.2034 120.46C43.628 117.986 46.7034 115.501 49.1545 111.024C52.701 104.544 53.4266 99.6409 53.3472 94.1128C53.3015 90.8587 52.194 87.6209 50.7645 84.749C54.1968 90.4353 55.8874 96.9987 54.9268 103.624C54.6733 105.376 52.4714 106.674 51.7491 108.303Z" fill="#F190AE"/>
</g>
<mask id="mask8" mask-type="alpha" maskUnits="userSpaceOnUse" x="0" y="74" width="74" height="68">
<path fill-rule="evenodd" clip-rule="evenodd" d="M33.3713 74.689C35.3273 74.689 37.3029 74.977 39.247 75.6029C48.6464 78.6285 56.7066 91.7532 53.2166 104.191C51.1703 111.485 47.4584 114.859 45.5372 118.368C46.1769 121.548 52.3289 125.439 56.8904 117.758C59.9083 112.678 58.6985 106.195 59.8234 100.642C60.0366 99.5847 61.4694 93.5529 63.7964 94.7322C65.2009 95.4426 63.2666 98.3545 63.0773 99.3118C62.7716 100.865 62.739 102.429 62.9783 103.995C63.3895 106.655 64.3295 109.175 64.5275 111.873C64.9811 118.06 62.9185 125.369 57.5747 128.646C59.4796 128.72 61.4498 128.533 63.3384 128.344C66.8512 127.994 70.0812 127.645 72.0796 128.981C76.4073 131.878 71.6031 139.318 68.4482 136.35C67.8042 135.742 67.6552 134.914 67.7988 134.073C66.242 133.952 64.6809 133.999 63.1643 134.397C60.8504 135.004 58.8019 136.275 56.5064 136.916C55.3358 137.242 53.9705 137.421 52.6661 137.329C50.7493 140.487 45.944 141.517 42.7293 139.781C40.9963 138.845 39.606 137.346 38.4006 135.719C37.5618 135.454 36.7078 135.27 35.8375 135.163C35.1456 138.362 33.5355 141.241 29.8508 141.828C27.7479 142.164 25.9301 141.545 24.3896 140.152C22.7262 139.802 21.0313 140.026 19.3407 140.249C17.1986 140.533 15.0631 140.816 13.008 139.931C9.20151 138.29 8.65211 131.921 12.7654 129.827C10.6604 128.843 8.54768 127.062 6.10318 127.199C7.61317 129.022 6.31532 131.813 4.04163 131.231C0.239433 130.256 -1.05408 125.152 2.19437 123.042C7.77745 119.418 13.8947 123.512 19.7671 123.622C21.894 123.661 25.4971 122.782 25.6842 120.124C25.8495 117.787 20.83 113.64 19.3167 111.768C15.4961 107.047 12.7034 100.026 11.98 95.7718C10.2296 85.4832 21.4077 74.689 33.3702 74.689H33.3713Z" fill="white"/>
</mask>
<g mask="url(#mask8)">
<path fill-rule="evenodd" clip-rule="evenodd" d="M64.5158 94.8843C59.4832 100.13 62.3814 105.777 63.0515 112.012C63.5813 116.94 62.7534 123.081 59.6279 127.164C61.6025 125.811 63.0907 124.043 64.3178 122.004C68.2658 115.447 65.9345 110.362 65.3742 103.503C65.174 101.048 64.7824 97.35 64.5158 94.8843Z" fill="#F190AE"/>
</g>
<mask id="mask9" mask-type="alpha" maskUnits="userSpaceOnUse" x="0" y="74" width="74" height="68">
<path fill-rule="evenodd" clip-rule="evenodd" d="M33.3713 74.689C35.3273 74.689 37.3029 74.977 39.247 75.6029C48.6464 78.6285 56.7066 91.7532 53.2166 104.191C51.1703 111.485 47.4584 114.859 45.5372 118.368C46.1769 121.548 52.3289 125.439 56.8904 117.758C59.9083 112.678 58.6985 106.195 59.8234 100.642C60.0366 99.5847 61.4694 93.5529 63.7964 94.7322C65.2009 95.4426 63.2666 98.3545 63.0773 99.3118C62.7716 100.865 62.739 102.429 62.9783 103.995C63.3895 106.655 64.3295 109.175 64.5275 111.873C64.9811 118.06 62.9185 125.369 57.5747 128.646C59.4796 128.72 61.4498 128.533 63.3384 128.344C66.8512 127.994 70.0812 127.645 72.0796 128.981C76.4073 131.878 71.6031 139.318 68.4482 136.35C67.8042 135.742 67.6552 134.914 67.7988 134.073C66.242 133.952 64.6809 133.999 63.1643 134.397C60.8504 135.004 58.8019 136.275 56.5064 136.916C55.3358 137.242 53.9705 137.421 52.6661 137.329C50.7493 140.487 45.944 141.517 42.7293 139.781C40.9963 138.845 39.606 137.346 38.4006 135.719C37.5618 135.454 36.7078 135.27 35.8375 135.163C35.1456 138.362 33.5355 141.241 29.8508 141.828C27.7479 142.164 25.9301 141.545 24.3896 140.152C22.7262 139.802 21.0313 140.026 19.3407 140.249C17.1986 140.533 15.0631 140.816 13.008 139.931C9.20151 138.29 8.65211 131.921 12.7654 129.827C10.6604 128.843 8.54768 127.062 6.10318 127.199C7.61317 129.022 6.31532 131.813 4.04163 131.231C0.239433 130.256 -1.05408 125.152 2.19437 123.042C7.77745 119.418 13.8947 123.512 19.7671 123.622C21.894 123.661 25.4971 122.782 25.6842 120.124C25.8495 117.787 20.83 113.64 19.3167 111.768C15.4961 107.047 12.7034 100.026 11.98 95.7718C10.2296 85.4832 21.4077 74.689 33.3702 74.689H33.3713Z" fill="white"/>
</mask>
<g mask="url(#mask9)">
<path fill-rule="evenodd" clip-rule="evenodd" d="M50.0943 126.769C54.0325 130.051 57.8848 130.29 62.826 129.55C64.7733 129.259 66.7108 128.918 68.6886 129.13C72.5942 129.548 73.9638 132.826 72.5267 136.235C75.1681 132.882 74.8276 128.216 70.154 127.364C68.0762 126.985 65.1301 128.074 63.0718 128.371C57.8717 129.12 54.9692 128.776 50.0943 126.769Z" fill="#F190AE"/>
</g>
<mask id="mask10" mask-type="alpha" maskUnits="userSpaceOnUse" x="0" y="74" width="74" height="68">
<path fill-rule="evenodd" clip-rule="evenodd" d="M33.3713 74.689C35.3273 74.689 37.3029 74.977 39.247 75.6029C48.6464 78.6285 56.7066 91.7532 53.2166 104.191C51.1703 111.485 47.4584 114.859 45.5372 118.368C46.1769 121.548 52.3289 125.439 56.8904 117.758C59.9083 112.678 58.6985 106.195 59.8234 100.642C60.0366 99.5847 61.4694 93.5529 63.7964 94.7322C65.2009 95.4426 63.2666 98.3545 63.0773 99.3118C62.7716 100.865 62.739 102.429 62.9783 103.995C63.3895 106.655 64.3295 109.175 64.5275 111.873C64.9811 118.06 62.9185 125.369 57.5747 128.646C59.4796 128.72 61.4498 128.533 63.3384 128.344C66.8512 127.994 70.0812 127.645 72.0796 128.981C76.4073 131.878 71.6031 139.318 68.4482 136.35C67.8042 135.742 67.6552 134.914 67.7988 134.073C66.242 133.952 64.6809 133.999 63.1643 134.397C60.8504 135.004 58.8019 136.275 56.5064 136.916C55.3358 137.242 53.9705 137.421 52.6661 137.329C50.7493 140.487 45.944 141.517 42.7293 139.781C40.9963 138.845 39.606 137.346 38.4006 135.719C37.5618 135.454 36.7078 135.27 35.8375 135.163C35.1456 138.362 33.5355 141.241 29.8508 141.828C27.7479 142.164 25.9301 141.545 24.3896 140.152C22.7262 139.802 21.0313 140.026 19.3407 140.249C17.1986 140.533 15.0631 140.816 13.008 139.931C9.20151 138.29 8.65211 131.921 12.7654 129.827C10.6604 128.843 8.54768 127.062 6.10318 127.199C7.61317 129.022 6.31532 131.813 4.04163 131.231C0.239433 130.256 -1.05408 125.152 2.19437 123.042C7.77745 119.418 13.8947 123.512 19.7671 123.622C21.894 123.661 25.4971 122.782 25.6842 120.124C25.8495 117.787 20.83 113.64 19.3167 111.768C15.4961 107.047 12.7034 100.026 11.98 95.7718C10.2296 85.4832 21.4077 74.689 33.3702 74.689H33.3713Z" fill="white"/>
</mask>
<g mask="url(#mask10)">
<path fill-rule="evenodd" clip-rule="evenodd" d="M46.6761 96.4106C46.8034 97.2586 47.2233 98.0924 47.8195 98.7151C47.9663 98.6284 48.3982 98.4671 48.544 98.3761C48.1045 97.9733 46.9948 96.9207 46.6761 96.4106Z" fill="#F190AE"/>
</g>
<mask id="mask11" mask-type="alpha" maskUnits="userSpaceOnUse" x="0" y="74" width="74" height="68">
<path fill-rule="evenodd" clip-rule="evenodd" d="M33.3713 74.689C35.3273 74.689 37.3029 74.977 39.247 75.6029C48.6464 78.6285 56.7066 91.7532 53.2166 104.191C51.1703 111.485 47.4584 114.859 45.5372 118.368C46.1769 121.548 52.3289 125.439 56.8904 117.758C59.9083 112.678 58.6985 106.195 59.8234 100.642C60.0366 99.5847 61.4694 93.5529 63.7964 94.7322C65.2009 95.4426 63.2666 98.3545 63.0773 99.3118C62.7716 100.865 62.739 102.429 62.9783 103.995C63.3895 106.655 64.3295 109.175 64.5275 111.873C64.9811 118.06 62.9185 125.369 57.5747 128.646C59.4796 128.72 61.4498 128.533 63.3384 128.344C66.8512 127.994 70.0812 127.645 72.0796 128.981C76.4073 131.878 71.6031 139.318 68.4482 136.35C67.8042 135.742 67.6552 134.914 67.7988 134.073C66.242 133.952 64.6809 133.999 63.1643 134.397C60.8504 135.004 58.8019 136.275 56.5064 136.916C55.3358 137.242 53.9705 137.421 52.6661 137.329C50.7493 140.487 45.944 141.517 42.7293 139.781C40.9963 138.845 39.606 137.346 38.4006 135.719C37.5618 135.454 36.7078 135.27 35.8375 135.163C35.1456 138.362 33.5355 141.241 29.8508 141.828C27.7479 142.164 25.9301 141.545 24.3896 140.152C22.7262 139.802 21.0313 140.026 19.3407 140.249C17.1986 140.533 15.0631 140.816 13.008 139.931C9.20151 138.29 8.65211 131.921 12.7654 129.827C10.6604 128.843 8.54768 127.062 6.10318 127.199C7.61317 129.022 6.31532 131.813 4.04163 131.231C0.239433 130.256 -1.05408 125.152 2.19437 123.042C7.77745 119.418 13.8947 123.512 19.7671 123.622C21.894 123.661 25.4971 122.782 25.6842 120.124C25.8495 117.787 20.83 113.64 19.3167 111.768C15.4961 107.047 12.7034 100.026 11.98 95.7718C10.2296 85.4832 21.4077 74.689 33.3702 74.689H33.3713Z" fill="white"/>
</mask>
<g mask="url(#mask11)">
<path fill-rule="evenodd" clip-rule="evenodd" d="M20.2862 123.607C14.3778 125.288 7.47297 119.62 2.12053 123.664C1.46345 124.161 0.743259 124.743 0.352705 125.487C0.724766 123.209 3.35094 121.77 5.37987 121.276C10.2895 120.081 15.5636 122.667 20.2862 123.607Z" fill="#F190AE"/>
</g>
<mask id="mask12" mask-type="alpha" maskUnits="userSpaceOnUse" x="0" y="74" width="74" height="68">
<path fill-rule="evenodd" clip-rule="evenodd" d="M33.3713 74.689C35.3273 74.689 37.3029 74.977 39.247 75.6029C48.6464 78.6285 56.7066 91.7532 53.2166 104.191C51.1703 111.485 47.4584 114.859 45.5372 118.368C46.1769 121.548 52.3289 125.439 56.8904 117.758C59.9083 112.678 58.6985 106.195 59.8234 100.642C60.0366 99.5847 61.4694 93.5529 63.7964 94.7322C65.2009 95.4426 63.2666 98.3545 63.0773 99.3118C62.7716 100.865 62.739 102.429 62.9783 103.995C63.3895 106.655 64.3295 109.175 64.5275 111.873C64.9811 118.06 62.9185 125.369 57.5747 128.646C59.4796 128.72 61.4498 128.533 63.3384 128.344C66.8512 127.994 70.0812 127.645 72.0796 128.981C76.4073 131.878 71.6031 139.318 68.4482 136.35C67.8042 135.742 67.6552 134.914 67.7988 134.073C66.242 133.952 64.6809 133.999 63.1643 134.397C60.8504 135.004 58.8019 136.275 56.5064 136.916C55.3358 137.242 53.9705 137.421 52.6661 137.329C50.7493 140.487 45.944 141.517 42.7293 139.781C40.9963 138.845 39.606 137.346 38.4006 135.719C37.5618 135.454 36.7078 135.27 35.8375 135.163C35.1456 138.362 33.5355 141.241 29.8508 141.828C27.7479 142.164 25.9301 141.545 24.3896 140.152C22.7262 139.802 21.0313 140.026 19.3407 140.249C17.1986 140.533 15.0631 140.816 13.008 139.931C9.20151 138.29 8.65211 131.921 12.7654 129.827C10.6604 128.843 8.54768 127.062 6.10318 127.199C7.61317 129.022 6.31532 131.813 4.04163 131.231C0.239433 130.256 -1.05408 125.152 2.19437 123.042C7.77745 119.418 13.8947 123.512 19.7671 123.622C21.894 123.661 25.4971 122.782 25.6842 120.124C25.8495 117.787 20.83 113.64 19.3167 111.768C15.4961 107.047 12.7034 100.026 11.98 95.7718C10.2296 85.4832 21.4077 74.689 33.3702 74.689H33.3713Z" fill="white"/>
</mask>
<g mask="url(#mask12)">
<path fill-rule="evenodd" clip-rule="evenodd" d="M46.5736 129.181C41.8641 128.651 39.1194 121.842 35.8263 116.154C34.6427 114.109 32.6932 111.569 30.8851 110.033C28.4906 108 24.5873 105.382 22.715 106.898C26.0624 106.142 32.1481 111.974 35.0713 116.467C36.3942 118.503 37.4973 121.286 38.8789 123.283C40.1822 125.168 43.7059 129.916 46.5736 129.181Z" fill="#F190AE"/>
</g>
<path fill-rule="evenodd" clip-rule="evenodd" d="M38.4001 135.72C39.6065 137.348 40.9969 138.845 42.7288 139.781C45.9446 141.518 50.7488 140.488 52.6656 137.329C53.9711 137.421 55.3353 137.243 56.507 136.917C58.8024 136.277 60.851 135.004 63.1638 134.398C64.6814 133.999 66.2415 133.953 67.7982 134.073C67.6546 134.914 67.8037 135.743 68.4488 136.35C71.6037 139.32 76.4078 131.878 72.0791 128.981C69.0069 126.926 63.0213 128.859 57.5753 128.647C62.919 125.371 64.9806 118.061 64.528 111.874C64.329 109.175 63.3879 106.656 62.9789 103.996C62.7384 102.431 62.7711 100.864 63.0779 99.3121C63.2661 98.3548 65.2014 95.444 63.797 94.7325C61.47 93.5544 60.0372 99.585 59.8229 100.642C58.698 106.195 59.9088 112.678 56.891 117.759C52.3295 125.44 46.1763 121.549 45.5378 118.369C47.4579 114.859 51.1709 111.485 53.2172 104.192C56.7072 91.7535 48.6459 78.6299 39.2465 75.6033C25.4084 71.1471 9.94402 83.8018 11.9795 95.7732C12.704 100.027 15.4955 107.048 19.3162 111.769C20.8306 113.64 25.849 117.787 25.6848 120.124C25.4976 122.783 21.8935 123.661 19.7677 123.622C13.8953 123.513 7.77802 119.418 2.19495 123.043C-1.0546 125.152 0.239997 130.258 4.0411 131.231C6.3148 131.813 7.61375 129.021 6.10375 127.2C8.54716 127.062 10.6599 128.844 12.766 129.827C8.65269 131.921 9.20208 138.292 13.0075 139.931C16.6846 141.516 20.6163 139.359 24.3902 140.152C25.9306 141.545 27.7474 142.164 29.8514 141.829C33.5361 141.242 35.1462 138.362 35.837 135.163C36.7073 135.271 37.5624 135.455 38.4001 135.72Z" stroke="#333739" stroke-width="0.260386" stroke-linecap="round" stroke-linejoin="round"/>
<path fill-rule="evenodd" clip-rule="evenodd" d="M32.9728 99.8376C32.9728 105.69 37.9608 112.891 43.1631 113.249C46.9892 113.513 46.9631 104.201 47.1492 99.0254C41.9882 100.628 36.6009 100.038 32.9728 99.8376Z" fill="#333739"/>
<mask id="mask13" mask-type="alpha" maskUnits="userSpaceOnUse" x="33" y="98" width="15" height="15">
<path fill-rule="evenodd" clip-rule="evenodd" d="M43.7635 112.978C38.5717 112.619 33.5916 105.419 33.5916 99.5661C37.2132 99.7664 42.5896 100.357 47.7413 98.7539C47.5556 103.929 47.5816 113.242 43.7635 112.978Z" fill="white"/>
</mask>
<g mask="url(#mask13)">
<path fill-rule="evenodd" clip-rule="evenodd" d="M32.8745 102.101C35.5448 98.2011 41.3654 102.229 43.6664 105.671C44.8848 107.492 46.2249 111.413 44.8219 113.846C42.2569 118.293 36.1887 112.618 34.1016 109.316C33.1633 107.831 31.5051 104.101 32.8745 102.101Z" fill="#F190AE"/>
</g>
<mask id="mask14" mask-type="alpha" maskUnits="userSpaceOnUse" x="33" y="98" width="15" height="15">
<path fill-rule="evenodd" clip-rule="evenodd" d="M43.7635 112.978C38.5717 112.619 33.5916 105.419 33.5916 99.5661C37.2132 99.7664 42.5896 100.357 47.7413 98.7539C47.5556 103.929 47.5816 113.242 43.7635 112.978Z" fill="white"/>
</mask>
<g mask="url(#mask14)">
<path fill-rule="evenodd" clip-rule="evenodd" d="M32.7016 101.983C33.9168 100.206 35.7509 99.9783 37.6404 100.602C40.0349 101.391 42.5173 103.567 43.8454 105.552C44.5979 106.679 45.3983 108.594 45.5894 110.48C45.7165 111.726 45.5764 112.957 45.0019 113.95C43.8063 116.008 41.907 116.028 39.9632 115.077C37.5872 113.913 35.1471 111.275 33.9732 109.397C33.4064 108.489 32.58 106.755 32.3172 105.079C32.1413 103.954 32.2206 102.856 32.7852 102.04L32.7016 101.983ZM32.9633 102.162C32.4388 102.938 32.3867 103.979 32.5659 105.04C32.8406 106.673 33.667 108.356 34.2295 109.236C35.3947 111.06 37.7989 113.615 40.1304 114.734C41.8755 115.572 43.5837 115.592 44.6425 113.743C45.1724 112.822 45.2864 111.678 45.167 110.524C44.9802 108.712 44.2124 106.872 43.4881 105.79C42.2067 103.874 39.8166 101.768 37.5068 101.005C35.8041 100.442 34.1448 100.619 33.048 102.219L32.9633 102.162Z" fill="#333739"/>
</g>
<mask id="mask15" mask-type="alpha" maskUnits="userSpaceOnUse" x="33" y="98" width="15" height="15">
<path fill-rule="evenodd" clip-rule="evenodd" d="M43.7635 112.978C38.5717 112.619 33.5916 105.419 33.5916 99.5661C37.2132 99.7664 42.5896 100.357 47.7413 98.7539C47.5556 103.929 47.5816 113.242 43.7635 112.978Z" fill="white"/>
</mask>
<g mask="url(#mask15)">
<path fill-rule="evenodd" clip-rule="evenodd" d="M31.5924 97.6893C35.291 98.8696 43.884 99.4241 47.1276 96.9648C47.0212 101.473 43.0815 102.698 39.5989 102.589C37.3945 102.52 33.4688 101.608 32.1581 100.711C31.196 100.052 32.2982 98.704 31.5924 97.6893Z" fill="white"/>
</g>
<mask id="mask16" mask-type="alpha" maskUnits="userSpaceOnUse" x="33" y="98" width="15" height="15">
<path fill-rule="evenodd" clip-rule="evenodd" d="M43.7635 112.978C38.5717 112.619 33.5916 105.419 33.5916 99.5661C37.2132 99.7664 42.5896 100.357 47.7413 98.7539C47.5556 103.929 47.5816 113.242 43.7635 112.978Z" fill="white"/>
</mask>
<g mask="url(#mask16)">
<path fill-rule="evenodd" clip-rule="evenodd" d="M31.5961 97.9098C31.7894 98.3083 31.7361 98.7468 31.6808 99.1659C31.6308 99.5504 31.5787 99.9196 31.6656 100.236C31.7264 100.458 31.8513 100.655 32.0847 100.817C32.6657 101.221 33.7581 101.634 34.9907 101.973C36.5555 102.404 38.3473 102.719 39.5939 102.764C41.4128 102.83 43.3545 102.535 44.8335 101.618C46.2713 100.727 47.2801 99.2558 47.3398 96.9698C47.342 96.8886 47.2964 96.8128 47.2236 96.776C47.152 96.7392 47.064 96.7467 46.9988 96.7966C45.6794 97.7961 43.4555 98.2747 41.0491 98.4263C37.6132 98.6407 33.8027 98.174 31.6558 97.4907H31.6254C31.5809 97.4625 31.5331 97.4929 31.5059 97.5654C31.4777 97.638 31.4777 97.7354 31.5038 97.8091V97.7506C31.5233 97.7798 31.5418 97.8091 31.5581 97.8383L31.5287 97.8881L31.5961 97.9098ZM46.8935 97.3822C46.7426 99.261 45.8554 100.501 44.6207 101.278C43.2079 102.168 41.3477 102.46 39.6048 102.413C38.5721 102.387 37.1582 102.175 35.8149 101.868C34.3217 101.525 32.9166 101.067 32.2313 100.604C32.0522 100.484 31.9555 100.336 31.9066 100.169C31.8035 99.8112 31.9045 99.378 31.9436 98.9362C31.9718 98.6167 31.9718 98.2951 31.8665 97.9908C34.0948 98.6319 37.7565 99.0607 41.0751 98.8539C43.3697 98.7099 45.4992 98.2583 46.8935 97.3822Z" fill="#333739"/>
</g>
<path fill-rule="evenodd" clip-rule="evenodd" d="M32.5217 99.8033C32.5217 105.679 37.4816 112.91 42.6545 113.27C46.459 113.535 46.4331 104.184 46.618 98.9878C41.4862 100.597 36.1294 100.004 32.5217 99.8033Z" stroke="#333739" stroke-width="0.260386" stroke-linecap="round" stroke-linejoin="round"/>
<path fill-rule="evenodd" clip-rule="evenodd" d="M47.6917 98.2634C47.5608 98.3449 47.4299 98.4189 47.2936 98.4863C47.0621 98.6015 46.8176 98.6994 46.5515 98.7864C46.4412 98.8234 46.3806 98.943 46.4174 99.0539C46.4531 99.1648 46.5731 99.2257 46.6835 99.1898C46.9701 99.0941 47.2319 98.9886 47.4807 98.8636C47.736 98.7364 47.9772 98.5874 48.2174 98.4102C48.2769 98.3667 48.3083 98.2949 48.3018 98.2221C48.2953 98.1492 48.2509 98.084 48.1849 98.0535C47.7825 97.8611 47.4764 97.6523 47.2103 97.3957C46.968 97.1619 46.7689 96.8814 46.5407 96.553C46.4596 96.4367 46.3719 96.3181 46.28 96.192C46.2226 96.1116 46.1621 96.0354 46.0993 95.9506C46.0712 95.8984 46.0052 95.88 45.9533 95.9082C45.9014 95.9376 45.883 96.0028 45.9111 96.055C45.9868 96.2399 46.0539 96.4084 46.1296 96.5671C46.1642 96.6411 46.2021 96.7118 46.24 96.7792C46.386 97.0336 46.5418 97.2489 46.704 97.4435C46.9788 97.7708 47.2882 98.0318 47.6917 98.2634Z" fill="#333739"/>
<path fill-rule="evenodd" clip-rule="evenodd" d="M33.2707 99.0533C33.1495 99.2806 33.0338 99.4937 32.878 99.6883C32.7742 99.8199 32.6519 99.9417 32.5037 100.05C32.4496 100.091 32.3912 100.128 32.3274 100.162C32.2409 100.208 32.1478 100.25 32.044 100.286C31.8363 100.358 31.5983 100.408 31.3127 100.443C31.2554 100.456 31.197 100.42 31.184 100.361C31.171 100.304 31.2067 100.245 31.2651 100.232C31.5161 100.145 31.7173 100.046 31.8958 99.9482C31.9639 99.9112 32.0267 99.8721 32.0873 99.8351C32.1511 99.7949 32.2117 99.7557 32.2701 99.7155C32.4323 99.6057 32.5675 99.4915 32.6909 99.3632C32.8239 99.224 32.9483 99.0805 33.0716 98.9228C33.1084 98.8674 33.182 98.8522 33.2361 98.888C33.2912 98.9239 33.3064 98.9979 33.2707 99.0533Z" fill="#333739"/>
<path fill-rule="evenodd" clip-rule="evenodd" d="M20.7038 92.2001C20.799 90.5897 21.1874 89.2491 21.7942 88.2107C22.347 87.2636 23.0837 86.5677 23.9015 86.1556C24.6025 85.8022 25.3737 85.6587 26.1461 85.7261C26.8081 85.7848 27.4767 85.9882 28.1171 86.3666C28.8689 86.8124 29.5861 87.4745 30.2222 88.3879C30.3292 88.5162 30.313 88.7098 30.1854 88.8174C30.0566 88.9261 29.8663 88.9087 29.7581 88.7793C28.9273 87.9464 28.0511 87.4539 27.1965 87.2136C26.6351 87.0559 26.0888 87.044 25.562 87.1342C25.2126 87.1951 24.8794 87.3147 24.5549 87.4756C24.16 87.6714 23.7803 87.9301 23.4309 88.2716C23.1021 88.5923 22.7894 88.9664 22.5125 89.41C22.0236 90.1929 21.6125 91.1421 21.3583 92.2914C21.3334 92.473 21.1668 92.6002 20.9862 92.5752C20.8055 92.5491 20.6789 92.3817 20.7038 92.2001Z" fill="#010100"/>
<path fill-rule="evenodd" clip-rule="evenodd" d="M42.0072 86.1352C42.2527 84.714 42.7016 83.7431 43.2555 83.1287C43.9045 82.41 44.7213 82.1697 45.6007 82.2643C46.0172 82.31 46.4532 82.448 46.8945 82.6753C47.2407 82.8536 47.5933 83.0885 47.9384 83.3831C48.4511 83.8203 48.9596 84.3737 49.4453 85.0337C50.0337 85.834 50.5811 86.7745 51.1047 87.826C51.1934 87.9684 51.149 88.1565 51.0073 88.2446C50.8645 88.3338 50.6774 88.2892 50.5898 88.1467C50.117 87.5215 49.6335 86.9616 49.1597 86.4418C48.6318 85.8623 48.1071 85.3643 47.602 84.9402C47.2223 84.6216 46.8512 84.3596 46.4964 84.1432C46.1092 83.9062 45.7468 83.7289 45.3898 83.6582C44.797 83.5419 44.2507 83.7083 43.765 84.2628C43.355 84.7293 42.9721 85.3882 42.6465 86.3037C42.6 86.481 42.4193 86.5875 42.243 86.5408C42.0667 86.494 41.9606 86.3124 42.0072 86.1352Z" fill="#010100"/>
<path fill-rule="evenodd" clip-rule="evenodd" d="M51.6737 92.4098C50.9359 91.3954 50.2047 90.6745 49.4983 90.2243C48.8893 89.8361 48.304 89.673 47.7523 89.7285C47.3305 89.7698 46.9367 89.9557 46.5602 90.2537C46.3309 90.4353 46.1146 90.6647 45.8939 90.9256C45.7414 91.1061 45.5845 91.2986 45.4298 91.5095C45.3314 91.6444 45.2319 91.7803 45.1291 91.9249C44.8868 92.2641 44.6337 92.611 44.3924 93.0242C44.3524 93.1264 44.2388 93.1775 44.1382 93.1373C44.0365 93.0992 43.9857 92.9839 44.0246 92.8828C44.1274 92.3859 44.2399 91.9445 44.3924 91.5302C44.4617 91.3453 44.5417 91.1746 44.625 91.0094C44.7635 90.7364 44.9182 90.4918 45.0847 90.2722C45.3454 89.9275 45.6375 89.6513 45.935 89.4306C46.4889 89.0185 47.0806 88.801 47.6885 88.7793C48.2651 88.7586 48.8611 88.9043 49.4583 89.2522C50.3377 89.7644 51.2356 90.7093 52.0912 92.1315C52.168 92.2467 52.1356 92.4033 52.0209 92.4805C51.9052 92.5577 51.7505 92.5262 51.6737 92.4098Z" fill="#333739"/>
<path fill-rule="evenodd" clip-rule="evenodd" d="M23.6913 97.0301C23.9152 94.1139 25.7012 92.6188 27.8279 92.273C28.4878 92.1654 29.1833 92.1751 29.8767 92.2947C30.317 92.3698 30.7605 92.485 31.1867 92.659C31.4983 92.7862 31.8012 92.9417 32.0911 93.1244C32.2804 93.2451 32.4654 93.3723 32.6395 93.518C33.0679 93.8725 33.44 94.2802 33.7754 94.7391C33.8511 94.8163 33.85 94.9424 33.7721 95.0185C33.6942 95.0946 33.5698 95.0925 33.4941 95.0142C33.162 94.7597 32.8126 94.5597 32.4524 94.3585C32.0987 94.1628 31.7374 93.9975 31.3706 93.8453C31.0396 93.7072 30.7075 93.5865 30.3722 93.4865C29.5609 93.244 28.7366 93.132 27.9523 93.2157C26.1166 93.4103 24.5545 94.6075 24.1889 97.0866C24.1738 97.2247 24.0504 97.3247 23.913 97.3084C23.7746 97.2932 23.6761 97.1682 23.6913 97.0301Z" fill="#333739"/>
<path fill-rule="evenodd" clip-rule="evenodd" d="M49.2335 92.1554C49.0745 92.1337 48.9241 92.1228 48.7694 92.1098C48.6775 92.1022 48.5888 92.0967 48.4979 92.0891C48.4384 92.0848 48.3789 92.0815 48.3205 92.075C48.2621 92.0685 48.2026 92.0598 48.1453 92.0511C48.0858 92.0424 48.0295 92.0304 47.97 92.0206C47.8986 92.0087 47.8294 91.9967 47.7569 91.9869C47.6466 91.9717 47.5427 91.9554 47.427 91.9499C47.3848 91.9565 47.3448 91.9271 47.3383 91.8836C47.3318 91.8401 47.3621 91.801 47.4043 91.7934C47.52 91.752 47.6282 91.7194 47.745 91.6933C47.824 91.6748 47.9008 91.664 47.9797 91.6553C48.0457 91.6477 48.1117 91.6444 48.1777 91.6455C48.2437 91.6455 48.3097 91.6509 48.3757 91.6618C48.5044 91.6846 48.6288 91.7227 48.7532 91.7694C48.9339 91.8369 49.1004 91.9249 49.2778 92.0195C49.3146 92.0326 49.3352 92.0728 49.3233 92.1098C49.3103 92.1468 49.2714 92.1674 49.2335 92.1554Z" fill="#333739"/>
<path fill-rule="evenodd" clip-rule="evenodd" d="M27.3026 95.6759C27.4 95.5737 27.4952 95.4802 27.6066 95.3845C27.6542 95.3443 27.6996 95.3095 27.7494 95.2725C27.8154 95.2258 27.8813 95.1812 27.9527 95.1442C27.9993 95.1192 28.0479 95.0953 28.0988 95.0801C28.1853 95.0529 28.2729 95.0388 28.3627 95.029C28.419 95.0225 28.4698 95.0203 28.5261 95.0214C28.6137 95.0214 28.6872 95.0268 28.7727 95.0355C28.7954 95.0301 28.8181 95.0431 28.8235 95.067C28.829 95.0888 28.8149 95.1116 28.7922 95.117C28.6959 95.1769 28.6169 95.2367 28.5196 95.3019C28.4741 95.3323 28.433 95.3595 28.3865 95.3878C28.3422 95.415 28.2989 95.4422 28.2513 95.465C28.207 95.4857 28.1615 95.503 28.115 95.5194C28.0436 95.5444 27.9733 95.5629 27.9008 95.5846C27.7061 95.6379 27.5254 95.6781 27.3437 95.7423C27.3253 95.7531 27.3026 95.7477 27.2907 95.7303C27.2799 95.7118 27.2842 95.6879 27.3026 95.6759Z" fill="#333739"/>
<path fill-rule="evenodd" clip-rule="evenodd" d="M43.7375 114.781C43.5893 114.922 43.4325 115.037 43.254 115.138C43.1772 115.181 43.0993 115.216 43.016 115.25C42.8894 115.3 42.7585 115.335 42.6233 115.362C42.566 115.371 42.5076 115.379 42.4492 115.382C42.3724 115.388 42.2945 115.388 42.2166 115.381C42.0998 115.371 41.9862 115.352 41.8726 115.325C41.759 115.298 41.6508 115.266 41.5427 115.225C41.3782 115.161 41.23 115.088 41.0829 115.001C41.0678 114.995 41.0602 114.979 41.0656 114.964C41.071 114.949 41.0872 114.942 41.1013 114.946C41.3252 114.985 41.5481 114.992 41.7817 114.992C41.9288 114.992 42.0727 114.981 42.2209 114.972C42.3161 114.967 42.4113 114.961 42.5076 114.957C42.6536 114.951 42.7953 114.948 42.9403 114.933C43.1015 114.917 43.2551 114.898 43.4119 114.86C43.5201 114.833 43.6218 114.805 43.7267 114.765C43.731 114.761 43.7375 114.762 43.7397 114.768C43.7429 114.772 43.7419 114.779 43.7375 114.781Z" fill="#333739"/>
<path fill-rule="evenodd" clip-rule="evenodd" d="M51.7856 92.1174C51.6872 91.8205 51.5628 91.5194 51.4211 91.2182C51.3313 91.0257 51.2318 90.8332 51.1279 90.6441C51.0241 90.4559 50.9159 90.27 50.798 90.0895C50.6217 89.8188 50.428 89.5578 50.216 89.3175C49.7346 88.7695 49.1602 88.3204 48.4993 88.0595C48.4744 88.0497 48.4614 88.0214 48.4711 87.9964C48.4798 87.9714 48.5079 87.9584 48.5328 87.967C49.3971 88.2617 50.1403 88.8608 50.732 89.597C50.9354 89.8492 51.1214 90.1178 51.2859 90.3961C51.3573 90.5157 51.4232 90.6386 51.4849 90.7626C51.5682 90.93 51.645 91.0986 51.7132 91.2693C51.8192 91.5324 51.9057 91.7988 51.9782 92.0576C51.9944 92.1119 51.9652 92.1685 51.9122 92.1848C51.8581 92.2011 51.8019 92.1707 51.7856 92.1174Z" fill="#333739"/>
<path fill-rule="evenodd" clip-rule="evenodd" d="M43.9779 92.8968C43.9746 92.7163 43.9714 92.5348 43.9757 92.3532C43.9779 92.2325 43.9833 92.1107 43.993 91.9911C43.9995 91.8998 44.0082 91.8084 44.0201 91.7182C44.0471 91.5051 44.0882 91.2952 44.139 91.0886C44.2851 90.5004 44.5252 89.9436 44.9222 89.45C44.9385 89.4293 44.9698 89.4239 44.9904 89.4402C45.012 89.4565 45.0163 89.4881 45.0001 89.5087C44.7232 89.9089 44.5479 90.3416 44.4344 90.7929C44.3835 90.9973 44.3457 91.205 44.3165 91.4159C44.297 91.5551 44.2829 91.6953 44.2678 91.8367C44.2537 91.977 44.2407 92.1183 44.2278 92.2607C44.2094 92.4739 44.1921 92.687 44.1802 92.9012C44.1791 92.9566 44.1326 93.0012 44.0774 93.0001C44.0211 92.999 43.9768 92.9534 43.9779 92.8968Z" fill="#333739"/>
<path fill-rule="evenodd" clip-rule="evenodd" d="M33.294 94.5016C33.148 94.3015 32.9944 94.1036 32.8364 93.9025C32.7326 93.7731 32.6287 93.6426 32.5227 93.5132C32.4167 93.3849 32.3107 93.2555 32.2014 93.1316C32.0359 92.9435 31.865 92.7619 31.6833 92.5922C31.2765 92.2095 30.8255 91.8833 30.3192 91.6615C30.2943 91.6517 30.2824 91.6234 30.2921 91.5984C30.3019 91.5734 30.33 91.5604 30.3549 91.5712C31.0223 91.8137 31.614 92.2269 32.1376 92.7238C32.3183 92.8945 32.4913 93.075 32.6536 93.2642C32.7239 93.3458 32.791 93.4284 32.8559 93.5121C32.9435 93.6252 33.0279 93.7394 33.109 93.8557C33.2323 94.0319 33.3481 94.2102 33.4606 94.3874C33.492 94.4331 33.4801 94.4962 33.4336 94.5277C33.3881 94.5592 33.3254 94.5473 33.294 94.5016Z" fill="#333739"/>
<path fill-rule="evenodd" clip-rule="evenodd" d="M23.8112 97.0442C23.7485 96.8137 23.7085 96.5788 23.6922 96.3418C23.6814 96.1841 23.6803 96.0254 23.6901 95.8666C23.6977 95.735 23.7117 95.6046 23.7323 95.473C23.7528 95.3447 23.7799 95.2153 23.8123 95.0881C24.0525 94.1367 24.5674 93.2342 25.1494 92.5165C25.1656 92.4948 25.197 92.4915 25.2175 92.5078C25.2391 92.5241 25.2424 92.5557 25.2262 92.5774C24.7837 93.1852 24.3986 93.9181 24.1693 94.6879C24.0903 94.9522 24.0319 95.2207 23.9919 95.4893C23.9746 95.6056 23.9605 95.722 23.9508 95.8372C23.9346 96.0319 23.9281 96.2254 23.9378 96.419C23.9465 96.6125 23.9681 96.8061 24.007 96.9974C24.02 97.0507 23.9876 97.1062 23.9324 97.1192C23.8783 97.1323 23.8242 97.0985 23.8112 97.0442Z" fill="#333739"/>
<path d="M52.0265 137.554C52.8724 136.104 53.1029 134.626 52.8486 132.966C51.9475 127.085 43.6051 122.951 45.0157 118.411" stroke="#333739" stroke-width="0.260386" stroke-linecap="round" stroke-linejoin="round"/>
<path fill-rule="evenodd" clip-rule="evenodd" d="M37.7399 135.946C33.824 129.705 33.1154 123.151 29.6949 116.839C28.4098 114.468 26.7374 112.13 24.3608 109.857C23.6955 109.221 22.9946 108.795 22.5521 108.364C22.2341 108.052 22.0426 107.732 22.0394 107.354C22.0361 106.898 22.3044 106.625 22.7079 106.482C23.4078 106.235 24.5577 106.427 24.9763 106.569C26.2593 107.003 27.4979 107.648 28.6575 108.417C29.8139 109.184 30.8903 110.075 31.8541 111.007C33.0386 112.154 34.0046 113.451 34.8592 114.825C36.8323 117.994 38.2094 121.574 40.3751 124.626C40.8023 125.23 41.406 126.005 42.1015 126.748C42.5137 127.189 42.9583 127.619 43.4223 127.992C44.278 128.678 45.1997 129.176 46.1073 129.181C46.1538 129.18 46.1916 129.217 46.1916 129.263C46.1927 129.309 46.1559 129.348 46.1094 129.349C45.1575 129.386 44.1623 128.919 43.2406 128.229C42.7506 127.863 42.2822 127.433 41.8516 126.988C41.1323 126.242 40.5222 125.448 40.0841 124.835C37.9087 121.781 36.5197 118.2 34.5379 115.027C33.6974 113.682 32.7509 112.41 31.5869 111.286C30.6393 110.371 29.5803 109.496 28.4433 108.744C27.3107 107.995 26.1024 107.368 24.8498 106.945C24.5285 106.836 23.7226 106.69 23.106 106.793C22.7425 106.853 22.4353 106.992 22.4385 107.35C22.4407 107.627 22.5976 107.849 22.8301 108.076C23.2715 108.506 23.9714 108.93 24.6367 109.564C27.05 111.868 28.7473 114.239 30.053 116.644C33.4735 122.944 34.182 129.489 38.0969 135.72C38.1585 135.819 38.1293 135.949 38.0309 136.012C37.9325 136.074 37.8016 136.045 37.7399 135.946Z" fill="#333739"/>
<path d="M35.3698 135.275C35.6986 133.77 35.6023 131.96 35.4812 131.084" stroke="#333739" stroke-width="0.260386" stroke-linecap="round" stroke-linejoin="round"/>
<path fill-rule="evenodd" clip-rule="evenodd" d="M22.373 107.624C21.8148 108.592 22.0041 109.742 22.4671 110.899C23.1562 112.617 24.4586 114.347 25.0849 115.566C26.3365 118.011 27.4907 122.341 27.4702 126.271C27.4648 127.346 27.375 128.392 27.1673 129.358C27.0721 129.806 26.9509 130.236 26.8017 130.644C26.6264 131.123 26.4133 131.574 26.1602 131.983C25.8952 132.414 25.5858 132.799 25.2331 133.135C25.2093 133.161 25.1693 133.161 25.1444 133.137C25.1195 133.112 25.1185 133.073 25.1433 133.047C25.456 132.694 25.7188 132.294 25.946 131.861C26.1602 131.449 26.3387 131.005 26.488 130.535C26.6145 130.135 26.7195 129.716 26.8038 129.283C26.9888 128.337 27.0764 127.318 27.0775 126.27C27.0808 122.41 25.9492 118.157 24.7139 115.758C23.9751 114.323 22.3146 112.184 21.7834 110.184C21.5206 109.199 21.5281 108.245 22.0084 107.411C22.0668 107.31 22.1956 107.276 22.2962 107.334C22.3968 107.394 22.4314 107.523 22.373 107.624Z" fill="#333739"/>
<path fill-rule="evenodd" clip-rule="evenodd" d="M23.8403 140.436C21.8206 138.466 20.9282 136.123 20.793 133.843C20.6361 131.195 21.5037 128.634 22.8126 126.84C23.7256 125.597 24.8138 123.871 25.1946 122.102C25.2941 121.637 25.3482 121.171 25.3352 120.707C25.3266 120.358 25.2822 120.01 25.1924 119.665C25.1059 119.332 24.9815 119.003 24.8041 118.679C24.7857 118.648 24.7944 118.609 24.8247 118.592C24.8539 118.573 24.8928 118.582 24.9112 118.611C25.1286 118.93 25.2952 119.257 25.4153 119.596C25.5419 119.953 25.6165 120.32 25.6468 120.69C25.6879 121.182 25.6511 121.68 25.557 122.176C25.2076 124.009 24.0718 125.793 23.1404 127.081C21.8834 128.807 21.0569 131.272 21.2105 133.817C21.3414 136.001 22.1982 138.245 24.1334 140.132C24.2178 140.213 24.22 140.347 24.1388 140.432C24.0577 140.516 23.9246 140.518 23.8403 140.436Z" fill="#333739"/>
<path fill-rule="evenodd" clip-rule="evenodd" d="M21.0371 133.384C20.4043 133.551 19.4913 133.565 18.5913 133.451C18.0028 133.378 17.4143 133.271 16.9297 133.089C16.8334 133.053 16.7447 133.012 16.6603 132.967C16.5911 132.93 16.5295 132.892 16.4689 132.851C16.4018 132.805 16.3477 132.761 16.2893 132.713C16.259 132.698 16.245 132.66 16.2601 132.628C16.2752 132.597 16.3131 132.583 16.3445 132.599C16.4148 132.614 16.4819 132.623 16.5565 132.637C16.6257 132.65 16.6928 132.662 16.7653 132.676C16.8194 132.686 16.8734 132.695 16.9297 132.709C17.0087 132.727 17.0898 132.75 17.172 132.772C17.7551 132.921 18.4409 133.039 19.104 133.083C19.7877 133.127 20.4465 133.103 20.9289 132.974C21.0414 132.944 21.1572 133.012 21.1864 133.125C21.2167 133.238 21.1496 133.354 21.0371 133.384Z" fill="#333739"/>
<path d="M12.4285 129.916C16.5478 127.496 24.649 126.345 25.2624 120.305" stroke="#333739" stroke-width="0.260386" stroke-linecap="round" stroke-linejoin="round"/>
<path fill-rule="evenodd" clip-rule="evenodd" d="M5.65545 127.428C5.32985 127.101 4.96746 126.805 4.55964 126.614C4.17454 126.435 3.74941 126.352 3.27776 126.437C2.83208 126.515 2.49674 126.961 2.48809 127.442C2.48484 127.628 2.53352 127.819 2.64061 128.001C2.6828 128.073 2.73148 128.144 2.79098 128.214C2.85155 128.289 2.91754 128.363 2.99759 128.436C3.07223 128.503 3.1512 128.571 3.24423 128.636C3.2875 128.656 3.30589 128.708 3.28534 128.752C3.26478 128.795 3.21178 128.814 3.16959 128.793C3.04843 128.756 2.94242 128.713 2.8429 128.662C2.72715 128.603 2.6298 128.533 2.54326 128.457C2.45455 128.379 2.38316 128.292 2.32258 128.203C2.1614 127.961 2.09541 127.695 2.09541 127.438C2.09433 126.764 2.58003 126.147 3.20529 126.029C3.7678 125.926 4.27514 126.021 4.73488 126.233C5.18705 126.441 5.59055 126.767 5.95293 127.128C6.03515 127.209 6.03623 127.344 5.95402 127.428C5.8718 127.51 5.73767 127.51 5.65545 127.428Z" fill="#333739"/>
<path fill-rule="evenodd" clip-rule="evenodd" d="M66.9444 134.138C67.0721 133.51 67.3003 132.961 67.6616 132.548C68.0327 132.124 68.5422 131.839 69.2345 131.76C69.8003 131.697 70.379 131.949 70.7122 132.357C70.8993 132.585 71.0226 132.859 71.0107 133.146C71.0053 133.284 70.974 133.424 70.9037 133.559C70.8452 133.671 70.7684 133.779 70.6624 133.882C70.6332 133.92 70.578 133.928 70.5402 133.898C70.5023 133.869 70.4947 133.814 70.525 133.776C70.5716 133.69 70.5986 133.606 70.6235 133.524C70.6635 133.395 70.6646 133.273 70.6548 133.155C70.6375 132.952 70.5521 132.766 70.4158 132.61C70.1518 132.305 69.7126 132.113 69.2821 132.166C68.7066 132.236 68.2826 132.471 67.9764 132.824C67.6606 133.188 67.468 133.672 67.3577 134.222C67.3339 134.337 67.2224 134.411 67.1089 134.388C66.9942 134.364 66.9206 134.252 66.9444 134.138Z" fill="#333739"/>
<path fill-rule="evenodd" clip-rule="evenodd" d="M57.008 128.927C55.4351 128.9 53.0639 128.36 51.04 127.432C50.4039 127.14 49.8003 126.812 49.2702 126.446C49.0225 126.275 48.7867 126.1 48.5779 125.91C48.3854 125.732 48.2155 125.547 48.0652 125.355C47.9592 125.219 47.8661 125.08 47.7807 124.94C47.7526 124.901 47.7612 124.846 47.7991 124.817C47.838 124.789 47.8921 124.796 47.9213 124.835C48.1095 125.052 48.3335 125.248 48.5758 125.447C48.725 125.571 48.8819 125.692 49.0463 125.814C49.9063 126.451 50.9913 127.014 52.1358 127.446C53.8698 128.101 55.7196 128.483 57.0145 128.503C57.1313 128.505 57.2244 128.601 57.2222 128.718C57.22 128.836 57.1238 128.928 57.008 128.927Z" fill="#333739"/>
<path fill-rule="evenodd" clip-rule="evenodd" d="M34.7169 80.3867C37.285 78.1881 44.629 74.2672 48.0949 75.0294C52.7973 76.0624 51.5208 80.8695 49.2686 84.175C45.635 79.3016 38.4305 79.1613 34.7169 80.3867Z" fill="#C9C6C6"/>
<path fill-rule="evenodd" clip-rule="evenodd" d="M34.7169 80.3867C37.285 78.1881 44.629 74.2672 48.0949 75.0294C52.7973 76.0624 51.5208 80.8695 49.2686 84.175C45.635 79.3016 38.4305 79.1613 34.7169 80.3867Z" stroke="#333739" stroke-width="0.260386" stroke-linecap="round" stroke-linejoin="round"/>
<path fill-rule="evenodd" clip-rule="evenodd" d="M19.1123 92.3153C23.7487 90.7821 26.7625 87.2113 30.2338 84.1168C34.9719 79.8936 39.5704 76.35 46.0057 74.9897C35.516 76.761 24.3383 83.7014 19.1123 92.3153Z" fill="white"/>
<mask id="mask17" mask-type="alpha" maskUnits="userSpaceOnUse" x="18" y="80" width="15" height="13">
<path fill-rule="evenodd" clip-rule="evenodd" d="M31.5871 80.6973C26.3196 83.8661 21.7488 88.0702 18.9098 92.7633L19.4072 92.5885C23.8287 90.946 26.79 87.4631 30.1816 84.4293C31.0643 83.64 31.9423 82.8741 32.8279 82.1411L32.8282 80.6984" fill="white"/>
</mask>
<g mask="url(#mask17)">
<path fill-rule="evenodd" clip-rule="evenodd" d="M32.8282 82.6882C31.5487 83.2962 30.3361 84.0158 29.0951 84.6957C26.7148 86.0012 24.2535 87.1697 21.8897 88.5084C18.6006 87.4759 15.6678 83.8644 14.9026 80.6973C11.1661 83.5858 9.7277 87.278 9.16416 91.5727C8.92735 93.3746 8.79907 95.1986 9.12031 96.9751C9.35603 98.2828 9.88667 99.511 10.4403 100.711C11.5729 103.171 13.8226 106.705 17.092 106.979C16.9232 105.564 17.4012 104.23 17.7992 102.857C19.2288 97.9268 21.2692 94.2335 25.3564 90.7259C27.9735 88.4808 31.6123 85.9636 32.8282 82.6882Z" fill="#C9C6C6"/>
</g>
<path fill-rule="evenodd" clip-rule="evenodd" d="M19.7107 92.6498C24.2769 91.1229 27.245 87.5667 30.6637 84.4848C35.33 80.2789 39.8588 76.7497 46.1967 75.395C35.8659 77.1591 24.8575 84.0712 19.7107 92.6498Z" stroke="#333739" stroke-width="0.19095" stroke-linecap="round" stroke-linejoin="round"/>
<path fill-rule="evenodd" clip-rule="evenodd" d="M42.4496 76.4005C40.6417 75.453 38.6367 74.4178 36.2513 73.7897C26.5214 71.2243 18.0454 76.9647 14.0886 84.7161C10.7967 91.1679 12.4086 98.1797 13.8202 101.536C18.6952 91.5015 30.7189 79.0363 42.4496 76.4005Z" fill="white"/>
<mask id="mask18" mask-type="alpha" maskUnits="userSpaceOnUse" x="11" y="81" width="21" height="21">
<path fill-rule="evenodd" clip-rule="evenodd" d="M15.4554 81.0513C14.5834 82.1752 13.8168 83.3782 13.1694 84.6337L12.9821 85.0082C9.89015 91.3851 11.4908 98.2256 12.897 101.532L13.0933 101.138C16.608 94.195 23.4777 86.1821 31.2789 81.0516" fill="white"/>
</mask>
<g mask="url(#mask18)">
<path fill-rule="evenodd" clip-rule="evenodd" d="M32.6 82.6907C31.3382 83.2891 30.1424 83.9973 28.9184 84.6664C26.571 85.9512 22.326 86.444 18.2357 93.7515C15.0395 90.7608 11.6076 86.3624 14.793 81.0513C11.1081 83.894 9.81818 87.2077 9.26242 91.4342C9.02887 93.2075 8.90236 95.0026 9.21917 96.7508C9.45164 98.0378 9.97496 99.2465 10.521 100.428C11.6379 102.849 13.8566 106.327 17.0809 106.596C16.9144 105.204 17.3858 103.891 17.7783 102.54C19.1883 97.6875 21.2005 94.0528 25.2313 90.6009C27.8123 88.3914 31.4009 85.9142 32.6 82.6907Z" fill="#C9C6C6"/>
</g>
<mask id="mask19" mask-type="alpha" maskUnits="userSpaceOnUse" x="11" y="73" width="31" height="29">
<path fill-rule="evenodd" clip-rule="evenodd" d="M35.6615 73.658C38.0824 74.289 40.1173 75.3291 41.9532 76.281C30.0466 78.9289 17.8436 91.4518 12.8969 101.532C11.4632 98.1609 9.82726 91.1157 13.1694 84.6339C16.5234 78.1293 23.0779 73.0347 30.9007 73.0347C32.4437 73.0347 34.0353 73.2338 35.6615 73.658Z" fill="white"/>
</mask>
<g mask="url(#mask19)">
<path fill-rule="evenodd" clip-rule="evenodd" d="M27.4949 81.5389C25.89 82.8498 24.2773 84.4822 22.7709 86.2863C21.6022 84.3786 20.5101 82.5866 19.4878 80.9027C20.8698 79.3303 22.3511 77.9635 23.9259 76.7956C25.0833 78.3099 26.1823 79.8352 27.4949 81.5389Z" fill="#75151E"/>
<path fill-rule="evenodd" clip-rule="evenodd" d="M30.1378 77.4769C30.0635 77.7544 29.883 77.9758 29.6176 78.1196C28.9768 78.466 28.0831 78.2317 27.5694 77.5793C27.0702 76.9459 27.1577 76.1708 27.783 75.824C28.041 75.6813 28.3535 75.632 28.6852 75.6823C28.6909 75.683 28.6965 75.6836 28.7022 75.6843C28.7373 75.4448 28.7731 75.2077 28.8098 74.9728C28.803 74.9716 28.7963 74.9703 28.7895 74.9692C28.2328 74.8652 27.6866 74.9406 27.2571 75.1808C26.2513 75.745 26.0844 77.0302 26.8557 78.0174C27.6629 79.0515 29.1484 79.4186 30.1943 78.8563C30.6435 78.6134 30.9493 78.2187 31.0518 77.7405C31.0528 77.735 31.054 77.7295 31.055 77.724C30.7489 77.6344 30.4445 77.5474 30.1418 77.4632C30.1404 77.4677 30.1391 77.4723 30.1378 77.4769ZM32.056 77.7736C32.3029 77.6605 32.5516 77.5508 32.8016 77.4439C31.8157 76.2398 30.8544 75.0891 29.9189 73.9941C29.6787 74.0986 29.4401 74.2063 29.2032 74.3174C30.1284 75.4124 31.0796 76.5654 32.056 77.7736ZM34.7333 75.0411C34.6799 74.9951 31.5386 73.3302 31.5264 73.3413C31.284 73.4291 31.0433 73.5203 30.8044 73.6146C31.7531 74.7096 32.7268 75.8577 33.7248 77.0569C33.9792 76.958 34.2353 76.8622 34.4932 76.7698C33.8855 76.0489 33.2865 75.3462 32.6963 74.6619C32.8412 74.7219 35.8834 76.3452 35.8697 76.3512C35.8641 76.3469 35.3841 73.9487 35.3702 73.8506C35.9805 74.5295 36.5986 75.2241 37.2248 75.9348C37.4961 75.8656 37.7695 75.8002 38.045 75.7382C36.9988 74.5655 35.973 73.4341 34.9686 72.345C34.7082 72.402 34.4499 72.4626 34.1937 72.5266C34.1884 72.5227 34.7157 74.9826 34.7333 75.0411ZM40.132 74.6275C39.8497 74.6645 39.5695 74.7052 39.2915 74.7494C39.0406 74.4769 38.7907 74.2067 38.542 73.9385C38.8182 73.8954 39.0967 73.8559 39.3772 73.8201C39.772 73.7705 40.108 73.962 40.289 74.1543C40.4734 74.3506 40.5283 74.576 40.132 74.6275ZM37.2951 72.6035C37.5506 72.5646 37.8081 72.5287 38.0675 72.4961C38.3949 72.4552 38.72 72.5687 38.9336 72.7931C39.1483 73.0187 39.0784 73.175 38.7494 73.2169C38.4883 73.2501 38.229 73.2866 37.9718 73.3264C37.7453 73.0836 37.5197 72.8427 37.2951 72.6035ZM39.9139 73.404C40.0279 73.3025 40.1304 73.0503 39.7779 72.684C39.2403 72.1253 38.3858 71.8114 37.5791 71.9086C37.018 71.9772 36.4663 72.0614 35.9238 72.1605C36.9396 73.2474 37.9756 74.3743 39.0309 75.5405C39.614 75.4292 40.2063 75.3337 40.8081 75.2544C41.6257 75.1464 41.7867 74.7203 41.2013 74.103C40.7701 73.6494 40.2246 73.4689 39.9139 73.404Z" fill="#7C1710"/>
<path fill-rule="evenodd" clip-rule="evenodd" d="M20.521 81.1578C21.2799 80.3313 22.0673 79.5653 22.8823 78.8586C23.651 79.0087 24.4432 79.1745 25.2594 79.3571C25.2551 80.2712 25.2586 81.2227 25.2705 82.214C24.4021 82.9808 23.5647 83.8157 22.7594 84.7202C22.705 83.6668 22.659 82.6543 22.6205 81.6803C21.9007 81.493 21.2011 81.3192 20.521 81.1578Z" fill="#E5292B"/>
<path fill-rule="evenodd" clip-rule="evenodd" d="M25.2594 79.3571C24.4431 79.1745 23.651 79.0087 22.8823 78.8586C22.0673 79.5653 21.2799 80.3313 20.521 81.1578C21.2011 81.3191 21.9007 81.493 22.6205 81.6802" fill="#FEFEFE"/>
<path fill-rule="evenodd" clip-rule="evenodd" d="M20.38 90.8326C18.9354 89.55 17.6574 87.7114 16.9016 85.7173C16.1328 83.6905 15.9015 81.506 16.5589 79.5935C16.5772 79.5369 16.6389 79.5064 16.6951 79.5249C16.7513 79.5445 16.7816 79.6054 16.7632 79.662C16.161 81.5289 16.4334 83.6416 17.2119 85.5954C17.9775 87.5189 19.2349 89.29 20.6535 90.515C20.7411 90.5922 20.7498 90.7238 20.6741 90.812C20.5984 90.9001 20.4676 90.9088 20.38 90.8326Z" fill="#333739"/>
</g>
<path fill-rule="evenodd" clip-rule="evenodd" d="M41.9528 76.3226C40.1179 75.3586 38.083 74.3052 35.6621 73.6662C25.787 71.0561 17.1846 76.8966 13.1689 84.7832C9.82785 91.3476 11.4638 98.4816 12.8964 101.896C17.8442 91.6869 30.0472 79.0043 41.9528 76.3226Z" stroke="#333739" stroke-width="0.257047" stroke-linecap="round" stroke-linejoin="round"/>
<path fill-rule="evenodd" clip-rule="evenodd" d="M28.3257 104.061C28.0597 105.366 27.3893 106.3 26.5481 106.755C25.8831 107.114 25.1079 107.178 24.3445 106.896C24.0785 106.798 23.8136 106.655 23.5552 106.465C23.2287 106.225 22.9119 105.913 22.6189 105.522C22.0815 104.804 21.6209 103.822 21.2954 102.552C21.2835 102.51 21.3062 102.467 21.3473 102.455C21.3873 102.443 21.4306 102.466 21.4425 102.508C21.835 103.714 22.341 104.629 22.8967 105.294C23.1833 105.639 23.4828 105.913 23.7899 106.124C24.0212 106.284 24.2559 106.405 24.4905 106.494C25.1447 106.74 25.801 106.707 26.3859 106.426C27.1839 106.04 27.8456 105.214 28.1657 104.023C28.1754 103.978 28.2208 103.949 28.2651 103.96C28.3084 103.971 28.3365 104.016 28.3257 104.061Z" fill="white"/>
<path fill-rule="evenodd" clip-rule="evenodd" d="M28.4709 104.721C28.3011 105.465 28.3195 106.136 28.4763 106.703C28.5228 106.873 28.5833 107.033 28.6547 107.183C28.766 107.419 28.9088 107.625 29.0774 107.804C29.191 107.926 29.3153 108.034 29.4516 108.127C29.6537 108.266 29.8797 108.374 30.1295 108.445C30.6777 108.599 31.3297 108.586 32.0563 108.345C32.0941 108.33 32.1374 108.349 32.1514 108.388C32.1655 108.427 32.146 108.471 32.1093 108.485C31.6886 108.676 31.2853 108.788 30.9047 108.829C30.6031 108.861 30.3165 108.848 30.0484 108.795C29.7511 108.738 29.4764 108.629 29.2321 108.478C29.0634 108.373 28.9088 108.246 28.7725 108.1C28.6709 107.993 28.5801 107.874 28.499 107.746C28.3238 107.467 28.1941 107.145 28.1249 106.788C28.0048 106.169 28.0589 105.451 28.3162 104.675C28.3281 104.631 28.3735 104.606 28.4157 104.619C28.4579 104.631 28.4828 104.677 28.4709 104.721Z" fill="white"/>
<path fill-rule="evenodd" clip-rule="evenodd" d="M21.4492 103.326C21.5951 104.645 21.5757 105.649 21.3994 106.409C21.1961 107.284 20.7928 107.846 20.2501 108.188C20.0122 108.337 19.7451 108.442 19.4532 108.512C19.0823 108.599 18.6671 108.629 18.2173 108.615C17.84 108.605 17.4366 108.565 17.0096 108.505C16.4549 108.428 15.8624 108.317 15.2341 108.202C15.1931 108.197 15.1649 108.158 15.1714 108.117C15.1768 108.077 15.2136 108.048 15.2547 108.053C16.3608 108.172 17.362 108.279 18.2173 108.255C18.6336 108.243 19.0142 108.2 19.3548 108.107C19.6024 108.041 19.8273 107.948 20.0306 107.822C20.4987 107.531 20.8393 107.059 21.0502 106.315C21.2556 105.589 21.3464 104.623 21.2891 103.339C21.2859 103.294 21.3183 103.254 21.3627 103.25C21.407 103.246 21.4459 103.281 21.4492 103.326Z" fill="white"/>
<path fill-rule="evenodd" clip-rule="evenodd" d="M15.2606 108.342C16.1299 108.494 17.0295 108.805 17.8588 109.237C18.4167 109.527 18.9433 109.872 19.4072 110.258C19.9153 110.681 20.3511 111.153 20.6711 111.654C20.9144 112.032 21.0928 112.428 21.1923 112.831C21.4042 113.684 21.2755 114.57 20.6549 115.401C20.2332 115.964 19.578 116.504 18.6416 116.991C18.606 117.012 18.5605 116.998 18.5411 116.961C18.5216 116.925 18.5346 116.88 18.5703 116.859C19.4407 116.339 20.0386 115.787 20.417 115.225C20.9285 114.463 21.0139 113.686 20.8052 112.936C20.6819 112.492 20.4549 112.06 20.1543 111.646C19.8775 111.266 19.5401 110.9 19.1574 110.561C18.7227 110.175 18.2318 109.823 17.7096 109.518C16.9225 109.056 16.0672 108.699 15.2281 108.503C15.1849 108.494 15.1568 108.45 15.1654 108.406C15.1741 108.362 15.2162 108.333 15.2606 108.342Z" fill="white"/>
<path fill-rule="evenodd" clip-rule="evenodd" d="M18.7845 117.221C19.4214 116.589 20.2053 116.19 20.9914 116.035C21.3979 115.954 21.8045 115.94 22.1883 115.99C22.3646 116.013 22.5354 116.049 22.6987 116.1C23.1344 116.235 23.5226 116.467 23.8242 116.783C24.101 117.074 24.3075 117.437 24.4103 117.871C24.5292 118.375 24.513 118.972 24.3075 119.661C24.2978 119.702 24.2578 119.726 24.2178 119.716C24.1778 119.705 24.154 119.664 24.1648 119.624C24.2729 119.09 24.2729 118.624 24.1908 118.221C24.0935 117.736 23.8664 117.351 23.5582 117.059C23.2879 116.803 22.9506 116.624 22.5776 116.511C22.2932 116.424 21.9872 116.372 21.6693 116.365C21.466 116.36 21.2584 116.371 21.0487 116.397C20.3026 116.495 19.5371 116.801 18.8916 117.343C18.8581 117.373 18.8073 117.37 18.7781 117.337C18.7489 117.303 18.751 117.251 18.7845 117.221Z" fill="white"/>
<path fill-rule="evenodd" clip-rule="evenodd" d="M32.8371 108.84C32.317 109.08 31.9645 109.336 31.7407 109.588C31.5407 109.814 31.4682 110.037 31.5071 110.271C31.5223 110.366 31.5525 110.462 31.6001 110.56C31.6672 110.697 31.7612 110.837 31.8823 110.981C32.1299 111.273 32.4749 111.572 32.9128 111.865C32.9484 111.885 32.9614 111.931 32.9419 111.967C32.9225 112.004 32.8771 112.017 32.8414 111.996C32.5095 111.843 32.2186 111.681 31.9721 111.508C31.7645 111.363 31.5915 111.21 31.4542 111.053C31.252 110.821 31.1276 110.577 31.0909 110.338C31.0357 109.987 31.1536 109.634 31.4855 109.328C31.5861 109.234 31.7082 109.145 31.8521 109.062C32.0964 108.921 32.4035 108.796 32.7819 108.686C32.823 108.67 32.8695 108.692 32.8846 108.734C32.9009 108.777 32.8792 108.824 32.8371 108.84Z" fill="white"/>
</svg>
