<svg width="184" height="214" viewBox="0 0 184 214" fill="none" xmlns="http://www.w3.org/2000/svg">
<g opacity="0.3">
<mask id="mask0" style="mask-type:alpha" maskUnits="userSpaceOnUse" x="0" y="195" width="125" height="17">
<path fill-rule="evenodd" clip-rule="evenodd" d="M0 195.285H124.572V211.002H0V195.285Z" fill="white"/>
</mask>
<g mask="url(#mask0)">
<path fill-rule="evenodd" clip-rule="evenodd" d="M21.4322 201.893C21.4322 201.893 -0.0382691 201.846 -0.000468945 203.039C0.130378 207.027 17.0154 204.692 18.4024 205.89C19.0828 206.478 18.3311 207.758 19.5291 208.586C24.3021 211.881 40.9007 208.89 46.8281 208.914C62.9731 208.98 67.0613 210.462 68.9354 210.652C74.1954 211.186 89.077 210.978 93.2656 210.873C101.881 210.657 125.054 211.536 124.566 208.167C124.346 206.656 102.093 203.466 98.3061 203.058C95.064 202.71 92.8367 200.61 89.9304 199.378C85.8596 197.652 81.3934 196.611 76.9999 195.955C58.5883 193.209 39.7158 199.652 21.4322 201.893Z" fill="#333739"/>
</g>
</g>
<path fill-rule="evenodd" clip-rule="evenodd" d="M42.1685 69.3294C42.1685 69.3294 44.6386 77.6344 50.317 77.2851C55.1854 76.9853 61.184 65.6094 61.184 65.6094L42.1685 69.3294Z" fill="#FF6666"/>
<path d="M36 197.5L33 200.5L36 202.5L42.5 200L43 193L38.5 192L36 197.5Z" fill="#FFDDC5"/>
<path fill-rule="evenodd" clip-rule="evenodd" d="M38 192.5L43 194C43 194 56.9587 177.644 60.0884 159.517C60.6473 156.281 60.7577 153.115 60.2499 150.15C60.2499 150.15 60.4555 149.327 60.8156 147.868C60.8308 147.804 60.8474 147.738 60.8626 147.672C61.0213 147.033 61.2103 146.28 61.4201 145.428C62.1031 142.676 63.0429 138.909 64.1137 134.621C66.581 124.754 72.2443 102.492 74.6799 93.2281L52.6574 86.7852C52.6574 86.7852 50.5544 92.4951 47.9739 107.825C47.5544 109.831 47.1473 112.047 46.7885 114.455C46.3801 117.182 46.0254 120.158 45.7771 123.365C45.3548 128.799 45.2251 134.891 45.6059 141.541C45.7605 144.247 46.0006 147.047 46.3401 149.93C46.5898 152.044 46.4491 154.891 46.0544 158.143C44.2508 173.015 38 192.5 38 192.5Z" fill="#333739"/>
<path d="M43.2585 203.704L25.8423 204.774C25.9886 201.468 33 200.501 33 200.501C40.5 202.501 42.4775 199.082 42.4775 199.082C43.7374 200.896 43.2585 203.704 43.2585 203.704Z" fill="#333739"/>
<path fill-rule="evenodd" clip-rule="evenodd" d="M45.7766 123.366L60.8635 147.674C61.0208 147.034 61.2099 146.282 61.4196 145.429C62.1027 142.677 63.0438 138.911 64.1146 134.623C66.582 124.755 72.2453 102.493 74.6795 93.2281L52.657 86.7852C52.657 86.7852 50.554 92.4965 47.9749 107.826C47.5554 109.833 47.1469 112.048 46.7881 114.456C46.3796 117.182 46.0264 120.159 45.7766 123.366Z" fill="#333739"/>
<path d="M75.5 198.5L80.5 198V189H75L75.5 198.5Z" fill="#FFDDC5"/>
<path fill-rule="evenodd" clip-rule="evenodd" d="M81.3874 195.903C81.3874 195.903 82.7742 198.776 81.7931 201.333L72.3212 201.915C72.3212 201.915 71.9859 199.685 75.2619 196.876C77.7444 194.747 81.3874 195.903 81.3874 195.903Z" fill="#333739"/>
<path fill-rule="evenodd" clip-rule="evenodd" d="M61.5967 46.8657C63.4707 47.9975 65.789 48.8846 68.6579 49.3604C79.4145 51.1509 82.9265 41.9671 84.0732 35.7415C82.576 35.0057 81.2029 34.9081 80.4122 34.8627C79.6395 34.82 78.8294 34.809 78.1602 34.8173C76.9127 33.9812 74.9076 30.3698 74.1583 24.6172L73.6671 24.7822L65.4495 27.5753C65.4495 27.5753 65.996 30.1993 66.3396 32.6912C66.6059 34.6413 66.7439 36.5116 66.4003 36.9915C65.7573 37.1731 65.3709 37.2886 65.3709 37.2886C65.3709 37.2886 65.3709 37.2927 65.3667 37.2968C65.266 37.488 63.0885 41.6109 61.5967 46.8657Z" fill="#FFDDC5"/>
<path opacity="0.1" fill-rule="evenodd" clip-rule="evenodd" d="M65.4495 27.5743C65.4495 27.5743 65.9974 30.1969 66.3396 32.6902C71.0452 31.927 72.9647 27.2979 73.6684 24.7812L65.4495 27.5743Z" fill="#333739"/>
<path fill-rule="evenodd" clip-rule="evenodd" d="M65.5984 31.5553C65.5984 31.5553 76.3288 28.0924 74.0615 21.4666C71.7957 14.8407 71.6535 9.93112 64.7069 11.8619C57.7603 13.7914 57.3008 16.7715 57.5188 19.1658C57.7341 21.5601 62.7488 32.2855 65.5984 31.5553Z" fill="#FFDDC5"/>
<path fill-rule="evenodd" clip-rule="evenodd" d="M62.7807 36.8831C62.7807 36.8831 80.8165 31.3258 89.1845 37.3823L88.6284 92.9293L52.2835 86.5084C52.2835 86.5084 53.0742 82.9479 59.3654 73.2195C65.6565 63.4925 61.8244 50.0262 62.7807 36.8831Z" fill="#FFDDC5"/>
<path fill-rule="evenodd" clip-rule="evenodd" d="M62 88.2797C62 88.2797 62.0314 88.4573 62.0901 88.7943C62.1161 88.938 62.1489 89.1143 62.1844 89.3181C62.4248 90.6713 62.8823 93.2653 63.4737 96.6404C65.0213 105.491 67.4702 119.708 69.239 130.941C70.6212 139.722 71.5896 146.68 71.3834 147.818C70.7619 151.244 74.2052 191.561 74.2052 191.561C77.3057 192.764 81.7843 191.113 81.7843 191.113C81.7843 191.113 87.4635 154.265 86.0129 149.276C84.5638 144.286 86.1591 139.86 86.1591 139.86C90.6008 111.743 88.9263 96.4053 87.2135 89.1156C86.7163 86.9957 86.2151 85.5577 85.8586 84.6839C85.5581 83.9393 85.3601 83.6024 85.3601 83.6024C71.3888 80.8777 62 88.2797 62 88.2797Z" fill="#333739"/>
<path fill-rule="evenodd" clip-rule="evenodd" d="M92.6294 53.0045C92.1575 59.7115 89.1244 68.0702 88.1336 72.5301C88.1336 72.5301 91.186 87.615 89.4294 91.9167C89.2306 92.4077 88.9671 92.7584 88.629 92.9289C81.3622 96.631 52.0882 95.2696 50.2818 85.9964C49.625 82.6284 59.86 69.6572 60.4423 68.1665C60.6838 67.5504 60.561 67.1735 60.5734 65.9166C59.0224 71.9181 46.6802 69.7301 46.6802 69.7301C47.7896 67.5393 50.878 49.8979 53.9193 43.0808C56.2059 37.9553 63.089 36.8098 63.089 36.8098C63.089 36.8098 66.2546 41.1899 73.1861 40.1144C80.1189 39.039 81.1304 34.707 81.1304 34.707C81.1304 34.707 87.3663 35.1471 89.3659 36.5608C89.7122 36.807 93.249 44.2154 92.6294 53.0045Z" fill="#FF6666"/>
<path fill-rule="evenodd" clip-rule="evenodd" d="M88.1332 72.5298C88.1332 72.5298 91.1856 87.6147 89.429 91.9165C83.8209 89.5291 79.078 82.4315 79.5596 74.1691C79.9156 68.0617 80.9175 66.6122 83.9575 62.9431C86.1916 60.2476 91.71 59.7635 91.3526 61.0026C90.2873 64.6937 88.6562 70.174 88.1332 72.5298Z" fill="#FF6666"/>
<path fill-rule="evenodd" clip-rule="evenodd" d="M103.605 65.3806C102.754 66.17 101.134 70.3411 100.321 70.9352C96.6611 73.599 78.1782 73.8823 78.1782 73.8823L77.7794 70.1801C77.7794 70.1801 94.9611 66.2566 96.6791 65.1798C97.0034 64.9776 97.9569 61.1215 98.5379 60.4531L103.605 65.3806Z" fill="#FFDDC5"/>
<mask id="mask1" style="mask-type:alpha" maskUnits="userSpaceOnUse" x="80" y="34" width="25" height="43">
<path fill-rule="evenodd" clip-rule="evenodd" d="M80.8108 34.707H104.954V76.4866H80.8108V34.707Z" fill="white"/>
</mask>
<g mask="url(#mask1)">
<path fill-rule="evenodd" clip-rule="evenodd" d="M81.1305 34.707C81.1305 34.707 90.1774 35.2172 92.8876 38.9029C96.314 43.5635 104.89 62.4386 104.954 67.3234C104.954 67.3234 100.125 76.8057 81.5335 76.4784C81.5335 76.4784 79.1903 69.8209 82.9424 67.3454C82.9424 67.3454 92.3412 65.0763 93.3761 64.049L84.7598 50.4933L81.1305 34.707Z" fill="#FF6666"/>
</g>
<path fill-rule="evenodd" clip-rule="evenodd" d="M47.0332 64.7456C46.6855 63.6344 44.2609 64.4912 43.4702 65.1912C43.277 65.3603 43.0769 65.6422 42.8838 65.9709C42.8451 65.7825 42.812 65.6051 42.7913 65.4635C42.7113 64.9367 42.0337 64.0263 41.9233 64.7456C41.8143 65.4662 41.7453 68.467 41.7453 68.467C41.864 70.8723 43.4771 71.7689 44.4238 70.9259C45.3718 70.0815 47.381 65.8554 47.0332 64.7456Z" fill="#FFDDC5"/>
<path fill-rule="evenodd" clip-rule="evenodd" d="M70.423 6.99164C70.4589 2.7848 73.0629 1.12077 76.5652 0.171861C80.0619 -0.790803 83.9851 2.58952 84.2915 2.92645C87.9055 6.894 88.6755 12.6741 86.3144 17.4957C86.055 18.032 85.8011 18.5656 85.5541 19.0813C84.1866 21.9501 89.9147 20.9668 89.9147 20.9668C80.7809 26.4801 78.0859 15.9444 77.8678 15.0024C74.2289 15.3764 70.3913 10.9028 70.423 6.99164Z" fill="#333739"/>
<path fill-rule="evenodd" clip-rule="evenodd" d="M68.6339 16.1802C69.3252 16.8018 70.3906 16.7467 71.0171 16.0564L75.4605 11.1619C76.0801 10.4729 76.0262 9.40713 75.3335 8.7869C74.6422 8.16529 73.5713 8.22305 72.9504 8.91067L68.5083 13.8051C67.8818 14.4955 67.9412 15.5585 68.6339 16.1802Z" fill="#FF6666"/>
<path fill-rule="evenodd" clip-rule="evenodd" d="M57.0512 22.0604C55.9127 19.7143 55.4491 17.3956 56.1791 15.3506C56.2536 15.0192 56.4081 14.6892 56.6648 14.3233C57.4348 13.0127 58.7982 11.8287 60.915 10.8701C60.9468 10.8536 60.9978 10.8426 61.053 10.8426C61.398 10.7134 61.7485 10.5937 62.0949 10.5043C62.2743 10.4438 62.4688 10.4025 62.6745 10.3695C63.3465 10.2293 64.0061 10.1674 64.6422 10.144C70.2972 9.81532 73.9223 12.5025 74.3377 18.5013C74.5571 21.5873 73.5746 23.1138 72.2292 23.7849L71.4523 22.2406C71.4371 21.9394 71.6841 21.9435 71.6841 21.9435C73.329 21.6107 73.6215 20.5972 73.2462 18.9056C73.0599 18.0887 72.6431 17.6101 72.0912 17.507C72.0815 17.4988 72.0677 17.5043 72.0498 17.5001C72.0318 17.4946 72.007 17.4933 71.989 17.4878C71.9711 17.4836 71.9587 17.4905 71.9408 17.485C71.9159 17.4823 71.898 17.4781 71.8662 17.4781C71.8607 17.4823 71.8428 17.4781 71.829 17.4836C71.8055 17.4823 71.7738 17.4836 71.7614 17.4905C71.7545 17.4933 71.7365 17.4878 71.7241 17.4946C71.6924 17.496 71.673 17.5056 71.6427 17.507C71.6358 17.5111 71.6358 17.5111 71.6178 17.5056C71.473 17.5345 71.3281 17.5799 71.1859 17.6514L71.1721 17.6583L71.0686 17.7092C71.0631 17.7133 71.0631 17.7133 71.0507 17.7188C71.0176 17.7353 70.9789 17.7545 70.9458 17.771C70.9389 17.7738 70.9389 17.7738 70.9265 17.7807C70.8948 17.7972 70.8547 17.8316 70.8161 17.8494L70.8092 17.8536C70.6505 17.9608 70.4835 18.0997 70.3221 18.251C70.2144 18.3473 70.3304 18.3583 70.2255 18.4807L69.8736 18.6292C69.7632 18.6842 69.6349 18.7337 69.501 18.786C66.3948 19.9027 60.7798 20.0869 57.8102 18.2056C57.3603 20.1681 58.6036 22.9516 59.978 25.1519C58.7375 24.4121 57.6998 23.404 57.0512 22.0604Z" fill="#333739"/>
<path fill-rule="evenodd" clip-rule="evenodd" d="M61.605 75.0952L60.7011 76.2944L58.2917 75.7704L59.1197 74.4805L61.605 75.0952Z" fill="#FFDDC5"/>
<path fill-rule="evenodd" clip-rule="evenodd" d="M57.0863 74.0463V73.4453L58.0178 73.7424L58.1792 74.9416L57.0863 74.0463Z" fill="#FFDDC5"/>
<path fill-rule="evenodd" clip-rule="evenodd" d="M78.3223 70.9923C86.3011 62.2321 85.6249 48.7053 76.8126 40.7785C68.0017 32.853 54.3914 33.5296 46.4139 42.2885C38.4379 51.0501 39.114 64.5769 47.9263 72.5023C56.7373 80.4292 70.3476 79.7526 78.3223 70.9923Z" fill="#FFAB00"/>
<path opacity="0.5" fill-rule="evenodd" clip-rule="evenodd" d="M75.7596 68.6837C82.4523 61.3331 81.8824 49.9819 74.4873 43.3299C67.0949 36.6806 55.6759 37.2472 48.9818 44.5979C42.2891 51.9499 42.8563 63.2997 50.25 69.9517C57.6437 76.6023 69.0641 76.0343 75.7596 68.6837Z" fill="white"/>
<path fill-rule="evenodd" clip-rule="evenodd" d="M66.0163 68.9129L64.8737 66.1405C63.658 66.5737 62.3884 66.8473 61.0996 66.9505C60.6359 66.9835 60.175 66.8405 59.8135 66.5489C59.4505 66.2574 59.2132 65.8407 59.1497 65.3813L59.1331 65.2672C59.0986 65.0183 59.1152 64.7652 59.1828 64.5232C59.2518 64.2811 59.3677 64.057 59.5278 63.8631C59.6865 63.6678 59.8852 63.5083 60.1101 63.3927C60.3337 63.2786 60.5807 63.2112 60.8319 63.1947C62.002 63.1328 63.1543 62.8798 64.2417 62.4452C65.9156 61.7645 66.796 60.6547 66.3157 59.4871C65.859 58.3786 64.6308 58.0637 62.1566 58.2164C58.5812 58.446 55.8351 57.8602 54.669 55.0286C53.6106 52.461 54.6014 49.7051 57.491 47.8114L56.3484 45.0389L59.2256 43.8672L60.2854 46.4347C61.3742 46.0469 62.3084 45.8324 63.1226 45.7279C63.6014 45.6674 64.0844 45.798 64.4666 46.0896C64.8489 46.3811 65.1 46.8116 65.1662 47.286C65.1994 47.5294 65.1842 47.7756 65.1207 48.0121C65.0572 48.2473 64.9455 48.4687 64.7937 48.6612C64.6405 48.8552 64.4528 49.0147 64.2362 49.133C64.0209 49.2512 63.7835 49.3255 63.5393 49.3502C62.6009 49.4465 61.6805 49.6789 60.8098 50.0379C58.9013 50.8149 58.6226 51.8834 58.9551 52.6989C59.3539 53.663 60.6318 53.8569 63.5131 53.7744C67.5121 53.575 69.5848 54.6064 70.6667 57.2331C71.7375 59.8309 70.8019 62.8028 67.6653 64.7625L68.8907 67.7399L66.0163 68.9129Z" fill="white"/>
<path fill-rule="evenodd" clip-rule="evenodd" d="M79.6154 69.9555C79.6154 69.9555 76.9991 68.0879 75.3431 68.6476C73.6872 69.2087 71.3413 71.4834 70.4513 72.0431C69.5626 72.6014 67.1753 74.5529 68.5097 75.5609C69.8427 76.5704 73.7286 75.3945 75.241 74.4649C76.7507 73.5366 79.1904 73.6714 79.1904 73.6714L79.6154 69.9555Z" fill="#FFDDC5"/>
<path fill-rule="evenodd" clip-rule="evenodd" d="M75.8157 68.5559C75.8157 68.5559 72.7646 68.3826 71.938 68.4486C71.1128 68.5174 71.3488 68.6838 71.8442 69.2957C72.3396 69.9063 73.932 70.0549 74.019 70.2735C74.1045 70.4936 75.8157 68.5559 75.8157 68.5559Z" fill="#FFDDC5"/>
<path fill-rule="evenodd" clip-rule="evenodd" d="M47.0332 64.7456C46.6855 63.6344 44.2609 64.4912 43.4702 65.1912C43.277 65.3603 43.0769 65.6422 42.8838 65.9709C42.8451 65.7825 42.812 65.6051 42.7913 65.4635C42.7113 64.9367 42.0337 64.0263 41.9233 64.7456C41.8143 65.4662 41.7453 68.467 41.7453 68.467C41.864 70.8723 43.4771 71.7689 44.4238 70.9259C45.3718 70.0815 47.381 65.8554 47.0332 64.7456Z" fill="#FFDDC5"/>
<path fill-rule="evenodd" clip-rule="evenodd" d="M147.601 174.709C148.633 176.962 151.365 178.109 153.854 177.878C156.342 177.648 158.589 176.283 160.469 174.655C162.35 173.028 163.96 171.112 165.82 169.463C167.74 167.761 169.969 166.329 172.468 165.7C174.965 165.069 177.756 165.312 179.906 166.721C182.055 168.129 183.408 170.801 182.889 173.3C182.751 173.965 182.342 174.715 181.657 174.736C180.812 174.76 180.429 173.743 179.96 173.05C179.096 171.77 177.308 171.32 175.804 171.711C174.3 172.101 173.064 173.183 172.137 174.419C171.209 175.654 170.538 177.055 169.757 178.386C167.462 182.29 164.173 185.619 160.279 187.978C157.086 189.91 153.281 191.21 149.612 190.48C147.114 189.983 144.824 188.532 143.321 186.495C141.817 184.46 141.118 181.857 141.399 179.352L147.601 174.709Z" fill="#EF3D42"/>
<mask id="mask2" style="mask-type:alpha" maskUnits="userSpaceOnUse" x="141" y="165" width="42" height="26">
<path fill-rule="evenodd" clip-rule="evenodd" d="M179.905 166.724C182.055 168.132 183.406 170.804 182.889 173.303C182.751 173.968 182.342 174.72 181.657 174.739C180.812 174.763 180.429 173.748 179.96 173.053C179.096 171.773 177.308 171.323 175.804 171.714C174.3 172.104 173.064 173.186 172.137 174.423C171.209 175.657 170.538 177.058 169.757 178.388C167.462 182.295 164.171 185.624 160.278 187.981C157.086 189.913 153.281 191.213 149.612 190.484C147.114 189.986 144.824 188.535 143.32 186.5C141.817 184.463 141.118 181.862 141.399 179.356L147.601 174.712C148.633 176.965 151.365 178.112 153.854 177.881C156.342 177.651 158.587 176.286 160.469 174.659C162.35 173.031 163.958 171.115 165.82 169.465C167.74 167.765 169.97 166.333 172.468 165.703C173.32 165.487 174.207 165.375 175.09 165.375C176.796 165.374 178.491 165.797 179.905 166.724Z" fill="white"/>
</mask>
<g mask="url(#mask2)">
<path fill-rule="evenodd" clip-rule="evenodd" d="M152.712 178.315C155.132 179.509 158.131 178.606 160.298 177.005C162.465 175.405 164.08 173.195 166.035 171.345C169.32 168.239 173.601 166.182 178.099 165.547C174.178 163.555 169.126 163.974 165.596 166.587C163.261 168.314 161.652 170.827 159.521 172.795C157.121 175.011 154.053 176.509 150.814 177.044L151.324 177.665L152.712 178.315Z" fill="#F26F5C"/>
</g>
<mask id="mask3" style="mask-type:alpha" maskUnits="userSpaceOnUse" x="141" y="165" width="42" height="26">
<path fill-rule="evenodd" clip-rule="evenodd" d="M179.905 166.724C182.055 168.132 183.406 170.804 182.889 173.303C182.751 173.968 182.342 174.72 181.657 174.739C180.812 174.763 180.429 173.748 179.96 173.053C179.096 171.773 177.308 171.323 175.804 171.714C174.3 172.104 173.064 173.186 172.137 174.423C171.209 175.657 170.538 177.058 169.757 178.388C167.462 182.295 164.171 185.624 160.278 187.981C157.086 189.913 153.281 191.213 149.612 190.484C147.114 189.986 144.824 188.535 143.32 186.5C141.817 184.463 141.118 181.862 141.399 179.356L147.601 174.712C148.633 176.965 151.365 178.112 153.854 177.881C156.342 177.651 158.587 176.286 160.469 174.659C162.35 173.031 163.958 171.115 165.82 169.465C167.74 167.765 169.97 166.333 172.468 165.703C173.32 165.487 174.207 165.375 175.09 165.375C176.796 165.374 178.491 165.797 179.905 166.724Z" fill="white"/>
</mask>
<g mask="url(#mask3)">
<path fill-rule="evenodd" clip-rule="evenodd" d="M158.169 183.306C161.272 182.456 163.825 180.245 165.853 177.77C167.247 176.066 168.452 174.204 170.003 172.638C171.554 171.073 173.543 169.789 175.754 169.644C177.964 169.5 180.355 170.77 180.95 172.883C181.541 170.885 180.581 168.679 179.037 167.264C177.496 165.849 175.464 165.085 173.45 164.482C175.71 164.092 178.107 164.536 180.073 165.705C182.038 166.873 183.559 168.76 184.273 170.917C184.773 172.431 184.803 174.292 183.652 175.407C182.739 176.29 181.341 176.45 180.065 176.404C178.788 176.356 177.482 176.154 176.25 176.491C174.915 176.856 173.824 177.825 172.992 178.921C172.161 180.018 171.542 181.255 170.813 182.42C167.133 188.292 160.392 192.166 153.415 192.418C150.959 192.508 148.319 192.097 146.519 190.441C144.893 188.946 144.215 186.516 144.837 184.406C145.247 183.017 146.229 181.755 147.485 181.011C148.732 180.272 149.163 180.678 150.112 181.541C152.27 183.506 155.365 184.076 158.169 183.306Z" fill="#CD202C"/>
</g>
<path fill-rule="evenodd" clip-rule="evenodd" d="M147.601 174.709C148.633 176.962 151.365 178.109 153.854 177.878C156.342 177.648 158.589 176.283 160.469 174.655C162.35 173.028 163.96 171.112 165.82 169.463C167.74 167.761 169.969 166.329 172.468 165.7C174.965 165.069 177.756 165.312 179.906 166.721C182.055 168.129 183.408 170.801 182.889 173.3C182.751 173.965 182.342 174.715 181.657 174.736C180.812 174.76 180.429 173.743 179.96 173.05C179.096 171.77 177.308 171.32 175.804 171.711C174.3 172.101 173.064 173.183 172.137 174.419C171.209 175.654 170.538 177.055 169.757 178.386C167.462 182.29 164.173 185.619 160.279 187.978C157.086 189.91 153.281 191.21 149.612 190.48C147.114 189.983 144.824 188.532 143.321 186.495C141.817 184.46 141.118 181.857 141.399 179.352L147.601 174.709Z" stroke="black" stroke-width="0.439"/>
<path fill-rule="evenodd" clip-rule="evenodd" d="M140.687 187.622C142.292 190.362 144.701 192.634 147.542 194.09C150.384 195.546 153.649 196.179 156.836 195.894C160.888 195.532 164.869 193.727 168.881 194.398C167.775 196.434 168.302 199.087 170.22 200.405C172.137 201.722 174.893 201.569 176.782 200.213C178.671 198.857 179.667 196.453 179.508 194.148C179.35 191.845 178.118 189.678 176.355 188.162C174.593 186.648 172.337 185.759 170.03 185.414C164.953 184.655 159.574 186.401 154.719 184.746C152.124 183.861 149.88 182.009 148.536 179.64C147.192 177.272 146.759 174.412 147.347 171.758L140.687 187.622Z" fill="#EF3D42"/>
<mask id="mask4" style="mask-type:alpha" maskUnits="userSpaceOnUse" x="140" y="171" width="40" height="31">
<path fill-rule="evenodd" clip-rule="evenodd" d="M148.536 179.64C149.879 182.01 152.124 183.861 154.718 184.746C157.516 185.699 160.484 185.525 163.468 185.35C165.668 185.22 167.877 185.092 170.029 185.414C172.339 185.759 174.593 186.648 176.355 188.164C178.117 189.678 179.35 191.845 179.508 194.15C179.667 196.453 178.67 198.858 176.781 200.213C174.893 201.569 172.137 201.722 170.218 200.405C168.302 199.089 167.775 196.434 168.879 194.398C164.87 193.727 160.886 195.532 156.837 195.894C153.649 196.179 150.384 195.546 147.542 194.09C144.701 192.634 142.29 190.362 140.687 187.622L147.347 171.758C146.759 174.412 147.191 177.273 148.536 179.64Z" fill="white"/>
</mask>
<g mask="url(#mask4)">
<path fill-rule="evenodd" clip-rule="evenodd" d="M154.26 189.749C156.007 191.097 158.365 191.392 160.578 191.278C162.792 191.163 164.981 190.69 167.198 190.709C169.413 190.729 171.763 191.326 173.234 192.966C173.814 193.612 174.238 194.557 173.843 195.325C173.56 195.87 172.928 196.166 172.312 196.214C171.696 196.264 171.084 196.105 170.486 195.948C170.333 195.557 170.782 195.18 171.2 195.103C171.617 195.027 172.077 195.088 172.439 194.87C173.056 194.5 172.946 193.474 172.354 193.065C171.762 192.656 170.932 192.764 170.3 193.108C169.667 193.454 169.174 193.995 168.642 194.479C165.679 197.167 161.384 198.038 157.385 197.642C153.385 197.243 149.6 195.713 145.927 194.101C143.616 193.087 141.208 191.939 139.79 189.869C138.74 188.339 138.346 186.431 138.436 184.583C138.525 182.735 139.069 180.936 139.766 179.22C140.29 177.93 140.911 176.662 141.819 175.602C142.726 174.543 143.948 173.7 145.33 173.459C147.87 173.012 150.399 174.705 151.717 176.9C152.852 178.79 153.965 181.685 152.997 183.802C152.015 185.956 152.211 188.169 154.26 189.749Z" fill="#CD202C"/>
</g>
<mask id="mask5" style="mask-type:alpha" maskUnits="userSpaceOnUse" x="140" y="171" width="40" height="31">
<path fill-rule="evenodd" clip-rule="evenodd" d="M148.536 179.64C149.879 182.01 152.124 183.861 154.718 184.746C157.516 185.699 160.484 185.525 163.468 185.35C165.668 185.22 167.877 185.092 170.029 185.414C172.339 185.759 174.593 186.648 176.355 188.164C178.117 189.678 179.35 191.845 179.508 194.15C179.667 196.453 178.67 198.858 176.781 200.213C174.893 201.569 172.137 201.722 170.218 200.405C168.302 199.089 167.775 196.434 168.879 194.398C164.87 193.727 160.886 195.532 156.837 195.894C153.649 196.179 150.384 195.546 147.542 194.09C144.701 192.634 142.29 190.362 140.687 187.622L147.347 171.758C146.759 174.412 147.191 177.273 148.536 179.64Z" fill="white"/>
</mask>
<g mask="url(#mask5)">
<path fill-rule="evenodd" clip-rule="evenodd" d="M177.792 192.942C178.087 195.399 177.118 198.173 174.886 199.287C172.489 200.485 169.556 199.432 167.343 197.929C168.017 200.777 170.037 203.35 172.784 204.436C175.529 205.521 178.94 204.954 180.986 202.839C183.416 200.332 183.515 196.244 182.048 193.088C181.453 191.808 180.637 190.641 179.701 189.582C179.157 188.967 177.469 186.771 176.619 186.715C175.212 186.619 176.239 188.45 176.515 189.004C177.134 190.244 177.626 191.561 177.792 192.942Z" fill="#CD202C"/>
</g>
<path fill-rule="evenodd" clip-rule="evenodd" d="M140.687 187.622C142.292 190.362 144.701 192.634 147.542 194.09C150.384 195.546 153.649 196.179 156.836 195.894C160.888 195.532 164.868 193.727 168.881 194.398C167.775 196.434 168.302 199.087 170.22 200.405C172.137 201.722 174.893 201.569 176.782 200.213C178.671 198.857 179.667 196.453 179.508 194.148C179.35 191.845 178.118 189.678 176.355 188.162C174.593 186.648 172.337 185.759 170.03 185.414C164.953 184.655 159.574 186.401 154.719 184.746C152.124 183.861 149.88 182.009 148.535 179.64C147.192 177.272 146.759 174.412 147.347 171.758L140.687 187.622Z" stroke="black" stroke-width="0.439"/>
<path d="M168.88 194.401C169.348 193.594 170.276 193.071 171.215 193.086C172.155 193.101 173.067 193.654 173.507 194.476C173.65 194.744 173.748 195.047 173.716 195.348C173.683 195.649 173.504 195.945 173.22 196.06C172.954 196.168 172.651 196.104 172.373 196.026C172.095 195.95 171.805 195.86 171.524 195.924C171.243 195.99 170.992 196.278 171.085 196.547" stroke="black" stroke-width="0.439" stroke-linecap="round" stroke-linejoin="round"/>
<path fill-rule="evenodd" clip-rule="evenodd" d="M117.713 170.402C116.651 168.261 114.415 166.737 112.015 166.52C109.615 166.301 107.136 167.397 105.697 169.311C104.761 170.557 104.273 172.071 103.792 173.551C103.313 175.029 102.808 176.54 101.847 177.77C100.887 178.999 99.368 179.916 97.8067 179.743C99.5363 181.955 102.004 183.637 104.698 184.48C107.391 185.322 110.469 185.118 112.87 183.646C114.974 182.358 116.439 180.191 117.171 177.852C117.904 175.514 118.804 172.6 117.713 170.402Z" fill="#EF3D42"/>
<path fill-rule="evenodd" clip-rule="evenodd" d="M117.713 170.402C116.651 168.261 114.415 166.737 112.015 166.52C109.615 166.301 107.136 167.397 105.697 169.311C104.761 170.557 104.273 172.071 103.792 173.551C103.313 175.029 102.808 176.54 101.847 177.77C100.887 178.999 99.368 179.916 97.8067 179.743C99.5363 181.955 102.004 183.637 104.698 184.48C107.391 185.322 110.469 185.118 112.87 183.646C114.974 182.358 116.439 180.191 117.171 177.852C117.904 175.514 118.804 172.6 117.713 170.402Z" stroke="black" stroke-width="0.439"/>
<path fill-rule="evenodd" clip-rule="evenodd" d="M107.808 172.565C107.015 174.121 106.806 175.905 106.136 177.516C105.464 179.127 104.067 180.676 102.305 180.646C104.245 183.026 107.439 184.597 110.452 183.926C113.834 183.172 115.68 180.122 115.526 176.845C115.418 174.573 114.719 170.924 112.16 170.131C110.331 169.565 108.584 171.043 107.808 172.565Z" fill="#CD202C"/>
<path fill-rule="evenodd" clip-rule="evenodd" d="M113.675 171.575C114.736 174.47 113.378 178.033 110.649 179.511C107.921 180.991 104.157 180.206 102.262 177.763C100.373 175.325 100.451 171.965 100.633 168.898C101.045 161.955 101.541 154.909 100.076 148.105C98.6106 141.303 94.8748 134.64 88.7152 131.29C87.797 130.793 86.4296 130.479 85.8871 131.364C85.3581 132.226 86.1951 133.246 86.8954 133.98C90.9077 138.187 92.0708 144.366 91.8694 150.148C91.668 155.93 90.2975 161.622 90.0226 167.402C89.7476 173.181 90.7409 179.361 94.5878 183.716C96.2558 185.603 98.1357 187.12 100.423 188.197C102.711 189.272 105.295 189.812 107.804 189.476C110.315 189.141 112.736 187.883 114.239 185.865C115.531 184.128 116.09 181.93 116.086 179.773C116.08 177.617 115.542 175.492 114.807 173.461L113.675 171.575Z" fill="#EF3D42"/>
<mask id="mask6" style="mask-type:alpha" maskUnits="userSpaceOnUse" x="85" y="130" width="32" height="60">
<path fill-rule="evenodd" clip-rule="evenodd" d="M88.7156 131.291C94.8737 134.64 98.611 141.303 100.076 148.105C101.541 154.908 101.044 161.956 100.634 168.899C100.45 171.966 100.374 175.327 102.263 177.765C104.156 180.206 107.922 180.99 110.649 179.512C113.377 178.033 114.737 174.47 113.676 171.577L114.807 173.461C115.541 175.491 116.08 177.618 116.085 179.773C116.092 181.929 115.532 184.128 114.239 185.865C112.736 187.884 110.316 189.142 107.805 189.477C105.295 189.811 102.712 189.272 100.423 188.197C98.1346 187.12 96.2562 185.604 94.5882 183.716C90.7412 179.361 89.7479 173.182 90.0214 167.401C90.2979 161.622 91.6669 155.931 91.8698 150.149C92.0711 144.367 90.908 138.188 86.8943 133.98C86.1955 133.247 85.3585 132.226 85.8875 131.363C86.1354 130.959 86.5562 130.805 87.0295 130.805C87.587 130.805 88.2182 131.022 88.7156 131.291Z" fill="white"/>
</mask>
<g mask="url(#mask6)">
<path fill-rule="evenodd" clip-rule="evenodd" d="M85.5537 131.128C89.4652 133.36 92.0274 137.464 93.18 141.785C94.331 146.106 94.2153 150.66 93.7871 155.108C93.3573 159.557 92.6255 163.987 92.5729 168.456C92.5218 172.924 93.1935 177.51 95.3935 181.413C91.2986 180.352 87.9625 176.83 87.1556 172.718C86.5229 169.484 87.3494 166.173 87.7747 162.907C88.7875 155.115 87.4531 147.039 83.9833 139.973C83.1313 138.236 82.1365 136.512 81.8705 134.598C81.6045 132.686 82.2777 130.481 84.0134 129.598L85.5537 131.128Z" fill="#F26F5C"/>
</g>
<mask id="mask7" style="mask-type:alpha" maskUnits="userSpaceOnUse" x="85" y="130" width="32" height="60">
<path fill-rule="evenodd" clip-rule="evenodd" d="M88.7156 131.291C94.8737 134.64 98.611 141.303 100.076 148.105C101.541 154.908 101.044 161.956 100.634 168.899C100.45 171.966 100.374 175.327 102.263 177.765C104.156 180.206 107.922 180.99 110.649 179.512C113.377 178.033 114.737 174.47 113.676 171.577L114.807 173.461C115.541 175.491 116.08 177.618 116.085 179.773C116.092 181.929 115.532 184.128 114.239 185.865C112.736 187.884 110.316 189.142 107.805 189.477C105.295 189.811 102.712 189.272 100.423 188.197C98.1346 187.12 96.2562 185.604 94.5882 183.716C90.7412 179.361 89.7479 173.182 90.0214 167.401C90.2979 161.622 91.6669 155.931 91.8698 150.149C92.0711 144.367 90.908 138.188 86.8943 133.98C86.1955 133.247 85.3585 132.226 85.8875 131.363C86.1354 130.959 86.5562 130.805 87.0295 130.805C87.587 130.805 88.2182 131.022 88.7156 131.291Z" fill="white"/>
</mask>
<g mask="url(#mask7)">
<path fill-rule="evenodd" clip-rule="evenodd" d="M95.6919 140.635C97.3149 144.899 97.6785 149.529 97.6454 154.085C97.6109 158.641 97.1961 163.193 97.3299 167.746C97.3975 170.01 97.6064 172.3 98.3758 174.434C99.1437 176.568 100.523 178.551 102.502 179.691C104.481 180.827 107.099 180.992 109.032 179.779C107.282 179.26 105.891 177.874 105.027 176.281C104.161 174.687 103.766 172.889 103.479 171.102C102.412 164.444 102.734 157.648 102.151 150.931C101.569 144.214 99.9446 137.3 95.6048 132.105C94.6009 130.902 93.4018 129.769 91.9441 129.131C90.9974 128.717 88.56 128.014 87.977 129.276C87.4826 130.344 88.8636 131.579 89.5563 132.157C90.8321 133.225 91.9967 134.321 92.99 135.662C94.1186 137.183 95.0202 138.87 95.6919 140.635Z" fill="#CD202C"/>
</g>
<mask id="mask8" style="mask-type:alpha" maskUnits="userSpaceOnUse" x="85" y="130" width="32" height="60">
<path fill-rule="evenodd" clip-rule="evenodd" d="M88.7156 131.291C94.8737 134.64 98.611 141.303 100.076 148.105C101.541 154.908 101.044 161.956 100.634 168.899C100.45 171.966 100.374 175.327 102.263 177.765C104.156 180.206 107.922 180.99 110.649 179.512C113.377 178.033 114.737 174.47 113.676 171.577L114.807 173.461C115.541 175.491 116.08 177.618 116.085 179.773C116.092 181.929 115.532 184.128 114.239 185.865C112.736 187.884 110.316 189.142 107.805 189.477C105.295 189.811 102.712 189.272 100.423 188.197C98.1346 187.12 96.2562 185.604 94.5882 183.716C90.7412 179.361 89.7479 173.182 90.0214 167.401C90.2979 161.622 91.6669 155.931 91.8698 150.149C92.0711 144.367 90.908 138.188 86.8943 133.98C86.1955 133.247 85.3585 132.226 85.8875 131.363C86.1354 130.959 86.5562 130.805 87.0295 130.805C87.587 130.805 88.2182 131.022 88.7156 131.291Z" fill="white"/>
</mask>
<g mask="url(#mask8)">
<path fill-rule="evenodd" clip-rule="evenodd" d="M107.365 183.914C104.698 184.874 101.665 184.307 99.1393 183.025C96.6132 181.743 94.4989 179.807 92.4191 177.896C93.8467 182.543 97.4066 186.504 101.903 188.449C103.989 189.351 106.294 189.836 108.557 189.592C110.82 189.345 113.033 188.328 114.5 186.604C115.967 184.88 116.601 182.429 115.92 180.278C115.6 179.269 114.993 178.33 114.12 177.72C113.692 177.421 113.143 177.199 112.65 177.375C111.899 177.644 112.22 178.411 112.12 178.977C111.991 179.709 111.478 180.504 111.054 181.101C110.144 182.372 108.848 183.38 107.365 183.914Z" fill="#CD202C"/>
</g>
<path fill-rule="evenodd" clip-rule="evenodd" d="M113.675 171.575C114.736 174.47 113.378 178.033 110.649 179.511C107.921 180.991 104.157 180.206 102.262 177.763C100.373 175.325 100.451 171.965 100.633 168.898C101.045 161.955 101.541 154.909 100.076 148.105C98.6106 141.303 94.8749 134.64 88.7152 131.29C87.7971 130.793 86.4296 130.479 85.8871 131.364C85.3582 132.226 86.1952 133.246 86.8954 133.98C90.9077 138.187 92.0708 144.366 91.8694 150.148C91.6681 155.93 90.2976 161.622 90.0226 167.402C89.7476 173.181 90.7409 179.361 94.5878 183.716C96.2559 185.603 98.1358 187.12 100.423 188.197C102.712 189.272 105.295 189.812 107.804 189.476C110.315 189.141 112.736 187.883 114.239 185.865C115.531 184.128 116.09 181.93 116.086 179.773C116.08 177.617 115.542 175.492 114.807 173.461L113.675 171.575Z" stroke="black" stroke-width="0.439"/>
<path fill-rule="evenodd" clip-rule="evenodd" d="M87.9795 190.913C86.9351 192.117 85.0552 192.382 83.5585 191.813C82.0603 191.243 80.9212 189.98 80.1639 188.579C79.1255 186.662 78.7122 184.382 79.2096 182.261C79.7085 180.14 81.1632 178.219 83.1663 177.32C85.5361 176.26 88.3612 176.706 90.7009 177.831C93.0406 178.957 98.9869 184.856 103.713 186.182C109.467 187.796 119.068 185.346 111.575 171.376C98.9869 147.909 106.23 129.558 114.273 121.499C122.314 113.441 134.95 110.215 145.927 113.418C154.703 115.979 162.184 122.425 166.221 130.552C170.258 138.68 170.869 148.356 168.166 157.007C165.766 164.694 159.503 170.348 152.649 174.673C150.74 175.877 148.976 176.985 147.499 178.36C147.275 178.568 146.722 178.966 146.548 179.21C145.878 181.875 146.981 184.996 148.701 187.2C150.611 189.646 153.304 191.351 155.947 192.997C158.591 194.643 161.294 196.326 163.241 198.742C165.189 201.158 166.272 204.493 165.206 207.398C164.128 210.333 161.057 212.156 157.95 212.705C145.929 214.834 136.938 202.803 128.461 202.803C121.977 202.803 122.311 206.02 124.407 207.558C125.217 208.153 126.362 208.635 126.317 209.632C126.276 210.526 125.054 210.796 124.162 210.66C121.304 210.222 118.782 208.184 117.669 205.557C115.915 207.17 113.496 208.102 111.084 208.335C107.892 208.645 104.693 207.889 101.642 206.907C98.5932 205.923 95.6103 204.705 92.4726 204.046C91.5034 203.841 90.5026 203.691 89.5243 203.85C88.5475 204.009 87.5858 204.52 87.0974 205.372C86.6075 206.224 86.7172 207.432 87.4896 208.046C87.8623 208.343 88.3386 208.478 88.7549 208.711C89.1712 208.943 89.5604 209.348 89.5243 209.82C89.4702 210.568 88.4874 210.836 87.73 210.784C85.4895 210.627 83.3601 209.336 82.2001 207.431C81.0415 205.526 80.8837 203.059 81.7913 201.026C83.0731 198.153 86.1943 196.455 89.3109 195.864C91.4523 195.458 93.6372 195.476 95.8237 195.527C94.3044 194.349 92.9204 193.005 91.7168 191.506C90.5837 190.093 89.4702 188.693 88.1884 187.428C88.8751 188.43 88.8045 189.96 87.9795 190.913Z" fill="#EF3D42"/>
<mask id="mask9" style="mask-type:alpha" maskUnits="userSpaceOnUse" x="79" y="112" width="91" height="101">
<path fill-rule="evenodd" clip-rule="evenodd" d="M145.927 113.419C154.704 115.981 162.185 122.425 166.221 130.553C170.259 138.679 170.869 148.356 168.166 157.009C165.766 164.695 159.504 170.348 152.649 174.673C150.742 175.877 148.976 176.986 147.497 178.36C147.275 178.568 146.722 178.967 146.548 179.211C145.877 181.875 146.98 184.996 148.701 187.202C150.611 189.646 153.304 191.352 155.949 192.998C158.59 194.644 161.292 196.327 163.241 198.742C165.189 201.158 166.271 204.493 165.205 207.399C164.129 210.332 161.056 212.156 157.95 212.706C145.928 214.834 136.938 202.804 128.461 202.804C121.975 202.804 122.312 206.021 124.407 207.559C125.218 208.153 126.362 208.636 126.318 209.633C126.276 210.527 125.054 210.798 124.16 210.66C121.303 210.223 118.783 208.185 117.668 205.558C115.916 207.171 113.495 208.102 111.085 208.336C107.893 208.646 104.691 207.89 101.643 206.907C98.5929 205.923 95.61 204.707 92.4724 204.047C91.5046 203.843 90.5023 203.692 89.5255 203.849C88.5473 204.008 87.5855 204.52 87.0956 205.372C86.6088 206.224 86.717 207.433 87.4894 208.047C87.8635 208.344 88.3399 208.478 88.7546 208.712C89.1724 208.944 89.5586 209.347 89.5255 209.82C89.4699 210.569 88.4872 210.837 87.7313 210.785C85.4892 210.627 83.3599 209.336 82.2013 207.433C81.0412 205.528 80.8849 203.062 81.7926 201.028C83.0744 198.154 86.194 196.456 89.3121 195.864C91.452 195.458 93.637 195.476 95.8234 195.527C94.3042 194.35 92.9202 193.005 91.7165 191.506C90.5835 190.094 89.4699 188.694 88.1896 187.43C88.8749 188.43 88.8042 189.962 87.9792 190.913C86.9333 192.119 85.055 192.382 83.5583 191.813C82.0615 191.244 80.9225 189.98 80.1636 188.58C79.1252 186.661 78.712 184.382 79.2109 182.262C79.7083 180.141 81.1629 178.22 83.1675 177.322C85.5358 176.261 88.3624 176.707 90.7007 177.833C93.0404 178.958 98.9866 184.857 103.714 186.184C109.467 187.797 119.067 185.347 111.575 171.377C98.9866 147.911 106.23 129.558 114.272 121.5C120.244 115.515 128.751 112.195 137.229 112.195C140.167 112.195 143.1 112.594 145.927 113.419Z" fill="white"/>
</mask>
<g mask="url(#mask9)">
<path fill-rule="evenodd" clip-rule="evenodd" d="M118.468 200.68C119.122 198.016 121.059 195.69 123.574 194.548C127.101 192.945 131.208 193.685 135.01 194.453C138.23 195.105 141.452 195.758 144.673 196.409C140.877 195.822 137.35 194.152 133.679 193.034C130.006 191.913 125.889 191.379 122.42 193.016C119.529 194.378 117.413 197.245 116.979 200.387C116.654 202.735 117.29 206.419 119.316 207.945C119.738 207.231 118.593 205.513 118.42 204.697C118.139 203.376 118.147 201.992 118.468 200.68Z" fill="#F26F5C"/>
</g>
<mask id="mask10" style="mask-type:alpha" maskUnits="userSpaceOnUse" x="79" y="112" width="91" height="101">
<path fill-rule="evenodd" clip-rule="evenodd" d="M145.927 113.419C154.704 115.981 162.185 122.425 166.221 130.553C170.259 138.679 170.869 148.356 168.166 157.009C165.766 164.695 159.504 170.348 152.649 174.673C150.742 175.877 148.976 176.986 147.497 178.36C147.275 178.568 146.722 178.967 146.548 179.211C145.877 181.875 146.98 184.996 148.701 187.202C150.611 189.646 153.304 191.352 155.949 192.998C158.59 194.644 161.292 196.327 163.241 198.742C165.189 201.158 166.271 204.493 165.205 207.399C164.129 210.332 161.056 212.156 157.95 212.706C145.928 214.834 136.938 202.804 128.461 202.804C121.975 202.804 122.312 206.021 124.407 207.559C125.218 208.153 126.362 208.636 126.318 209.633C126.276 210.527 125.054 210.798 124.16 210.66C121.303 210.223 118.783 208.185 117.668 205.558C115.916 207.171 113.495 208.102 111.085 208.336C107.893 208.646 104.691 207.89 101.643 206.907C98.5929 205.923 95.61 204.707 92.4724 204.047C91.5046 203.843 90.5023 203.692 89.5255 203.849C88.5473 204.008 87.5855 204.52 87.0956 205.372C86.6088 206.224 86.717 207.433 87.4894 208.047C87.8635 208.344 88.3399 208.478 88.7546 208.712C89.1724 208.944 89.5586 209.347 89.5255 209.82C89.4699 210.569 88.4872 210.837 87.7313 210.785C85.4892 210.627 83.3599 209.336 82.2013 207.433C81.0412 205.528 80.8849 203.062 81.7926 201.028C83.0744 198.154 86.194 196.456 89.3121 195.864C91.452 195.458 93.637 195.476 95.8234 195.527C94.3042 194.35 92.9202 193.005 91.7165 191.506C90.5835 190.094 89.4699 188.694 88.1896 187.43C88.8749 188.43 88.8042 189.962 87.9792 190.913C86.9333 192.119 85.055 192.382 83.5583 191.813C82.0615 191.244 80.9225 189.98 80.1636 188.58C79.1252 186.661 78.712 184.382 79.2109 182.262C79.7083 180.141 81.1629 178.22 83.1675 177.322C85.5358 176.261 88.3624 176.707 90.7007 177.833C93.0404 178.958 98.9866 184.857 103.714 186.184C109.467 187.797 119.067 185.347 111.575 171.377C98.9866 147.911 106.23 129.558 114.272 121.5C120.244 115.515 128.751 112.195 137.229 112.195C140.167 112.195 143.1 112.594 145.927 113.419Z" fill="white"/>
</mask>
<g mask="url(#mask10)">
<path fill-rule="evenodd" clip-rule="evenodd" d="M112.765 154.902C112.779 154.881 112.793 154.861 112.806 154.84C113.488 154.062 113.78 152.964 113.574 151.953C113.066 152.792 112.411 153.542 111.646 154.161C112.061 154.429 112.351 154.635 112.765 154.902Z" fill="#F26F5C"/>
</g>
<mask id="mask11" style="mask-type:alpha" maskUnits="userSpaceOnUse" x="79" y="112" width="91" height="101">
<path fill-rule="evenodd" clip-rule="evenodd" d="M145.927 113.419C154.704 115.981 162.185 122.425 166.221 130.553C170.259 138.679 170.869 148.356 168.166 157.009C165.766 164.695 159.504 170.348 152.649 174.673C150.742 175.877 148.976 176.986 147.497 178.36C147.275 178.568 146.722 178.967 146.548 179.211C145.877 181.875 146.98 184.996 148.701 187.202C150.611 189.646 153.304 191.352 155.949 192.998C158.59 194.644 161.292 196.327 163.241 198.742C165.189 201.158 166.271 204.493 165.205 207.399C164.129 210.332 161.056 212.156 157.95 212.706C145.928 214.834 136.938 202.804 128.461 202.804C121.975 202.804 122.312 206.021 124.407 207.559C125.218 208.153 126.362 208.636 126.318 209.633C126.276 210.527 125.054 210.798 124.16 210.66C121.303 210.223 118.783 208.185 117.668 205.558C115.916 207.171 113.495 208.102 111.085 208.336C107.893 208.646 104.691 207.89 101.643 206.907C98.5929 205.923 95.61 204.707 92.4724 204.047C91.5046 203.843 90.5023 203.692 89.5255 203.849C88.5473 204.008 87.5855 204.52 87.0956 205.372C86.6088 206.224 86.717 207.433 87.4894 208.047C87.8635 208.344 88.3399 208.478 88.7546 208.712C89.1724 208.944 89.5586 209.347 89.5255 209.82C89.4699 210.569 88.4872 210.837 87.7313 210.785C85.4892 210.627 83.3599 209.336 82.2013 207.433C81.0412 205.528 80.8849 203.062 81.7926 201.028C83.0744 198.154 86.194 196.456 89.3121 195.864C91.452 195.458 93.637 195.476 95.8234 195.527C94.3042 194.35 92.9202 193.005 91.7165 191.506C90.5835 190.094 89.4699 188.694 88.1896 187.43C88.8749 188.43 88.8042 189.962 87.9792 190.913C86.9333 192.119 85.055 192.382 83.5583 191.813C82.0615 191.244 80.9225 189.98 80.1636 188.58C79.1252 186.661 78.712 184.382 79.2109 182.262C79.7083 180.141 81.1629 178.22 83.1675 177.322C85.5358 176.261 88.3624 176.707 90.7007 177.833C93.0404 178.958 98.9866 184.857 103.714 186.184C109.467 187.797 119.067 185.347 111.575 171.377C98.9866 147.911 106.23 129.558 114.272 121.5C120.244 115.515 128.751 112.195 137.229 112.195C140.167 112.195 143.1 112.594 145.927 113.419Z" fill="white"/>
</mask>
<g mask="url(#mask11)">
<path fill-rule="evenodd" clip-rule="evenodd" d="M107.792 155.702C108.314 157.631 108.969 159.524 109.761 161.362C111.549 165.518 114.255 169.389 115.358 173.807C116.047 176.562 116.012 179.598 114.66 182.1C114.038 183.254 113.109 184.249 112 184.958C111.511 185.272 108.951 186.638 108.52 185.888C108.174 185.283 110.106 183.299 110.422 182.788C111.023 181.822 111.776 180.592 111.68 179.408C111.529 177.548 110.861 175.773 110.176 174.036C108.124 168.835 105.86 163.703 104.261 158.347C102.662 152.992 101.738 147.353 102.446 141.814C103.041 137.146 104.954 130.467 109.298 127.82C109.636 128.566 108.455 130.675 108.196 131.51C107.774 132.881 107.423 134.273 107.14 135.68C106.565 138.557 106.281 141.49 106.288 144.423C106.299 148.225 106.8 152.029 107.792 155.702Z" fill="#F26F5C"/>
</g>
<mask id="mask12" style="mask-type:alpha" maskUnits="userSpaceOnUse" x="79" y="112" width="91" height="101">
<path fill-rule="evenodd" clip-rule="evenodd" d="M145.927 113.419C154.704 115.981 162.185 122.425 166.221 130.553C170.259 138.679 170.869 148.356 168.166 157.009C165.766 164.695 159.504 170.348 152.649 174.673C150.742 175.877 148.976 176.986 147.497 178.36C147.275 178.568 146.722 178.967 146.548 179.211C145.877 181.875 146.98 184.996 148.701 187.202C150.611 189.646 153.304 191.352 155.949 192.998C158.59 194.644 161.292 196.327 163.241 198.742C165.189 201.158 166.271 204.493 165.205 207.399C164.129 210.332 161.056 212.156 157.95 212.706C145.928 214.834 136.938 202.804 128.461 202.804C121.975 202.804 122.312 206.021 124.407 207.559C125.218 208.153 126.362 208.636 126.318 209.633C126.276 210.527 125.054 210.798 124.16 210.66C121.303 210.223 118.783 208.185 117.668 205.558C115.916 207.171 113.495 208.102 111.085 208.336C107.893 208.646 104.691 207.89 101.643 206.907C98.5929 205.923 95.61 204.707 92.4724 204.047C91.5046 203.843 90.5023 203.692 89.5255 203.849C88.5473 204.008 87.5855 204.52 87.0956 205.372C86.6088 206.224 86.717 207.433 87.4894 208.047C87.8635 208.344 88.3399 208.478 88.7546 208.712C89.1724 208.944 89.5586 209.347 89.5255 209.82C89.4699 210.569 88.4872 210.837 87.7313 210.785C85.4892 210.627 83.3599 209.336 82.2013 207.433C81.0412 205.528 80.8849 203.062 81.7926 201.028C83.0744 198.154 86.194 196.456 89.3121 195.864C91.452 195.458 93.637 195.476 95.8234 195.527C94.3042 194.35 92.9202 193.005 91.7165 191.506C90.5835 190.094 89.4699 188.694 88.1896 187.43C88.8749 188.43 88.8042 189.962 87.9792 190.913C86.9333 192.119 85.055 192.382 83.5583 191.813C82.0615 191.244 80.9225 189.98 80.1636 188.58C79.1252 186.661 78.712 184.382 79.2109 182.262C79.7083 180.141 81.1629 178.22 83.1675 177.322C85.5358 176.261 88.3624 176.707 90.7007 177.833C93.0404 178.958 98.9866 184.857 103.714 186.184C109.467 187.797 119.067 185.347 111.575 171.377C98.9866 147.911 106.23 129.558 114.272 121.5C120.244 115.515 128.751 112.195 137.229 112.195C140.167 112.195 143.1 112.594 145.927 113.419Z" fill="white"/>
</mask>
<g mask="url(#mask12)">
<path fill-rule="evenodd" clip-rule="evenodd" d="M108.67 127.66C114.589 124.481 121.704 124.064 128.34 125.197C134.978 126.33 141.261 128.905 147.482 131.46C150.89 132.86 154.424 134.347 156.857 137.092C159.675 140.27 160.606 144.773 160.138 148.972C159.669 153.175 157.935 157.134 155.941 160.872C154.397 163.766 152.627 166.536 150.707 169.199C149.749 170.527 148.755 171.827 147.736 173.107C146.778 174.309 145.896 175.599 144.878 176.735C143.204 178.596 141.235 180.197 139.064 181.458C138.844 181.585 138.617 181.714 138.458 181.912C138.3 182.108 138.224 182.394 138.345 182.616C138.474 182.852 138.771 182.939 139.038 182.984C139.938 183.134 140.87 183.066 141.75 183.297C143.488 183.757 143.748 185.558 144.615 186.875C146.074 189.09 147.931 191.245 149.9 193.037C151.246 194.261 152.635 195.525 153.386 197.174C154.139 198.823 154.086 200.975 152.762 202.222C151.362 203.539 149.139 203.41 147.262 202.954C143.14 201.957 138.305 200.238 134.228 199.071C124.009 196.143 117.739 201.163 122.185 207.205C123.835 209.445 126.519 209.274 125.745 210.45C134.141 214.162 146.216 219.554 155.3 220.966C160.608 221.791 166.781 221.764 170.436 217.867C172.559 215.603 173.393 212.409 173.525 209.322C173.658 206.234 173.166 203.158 173.008 200.072C172.374 187.666 177.115 175.586 177.742 163.18C178.744 143.32 168.267 123.283 151.308 112.623C145.575 109.021 139.082 106.417 132.307 105.933C125.535 105.448 118.467 107.227 113.256 111.536C108.043 115.844 104.958 122.818 106.088 129.445L108.67 127.66Z" fill="#CD202C"/>
</g>
<mask id="mask13" style="mask-type:alpha" maskUnits="userSpaceOnUse" x="79" y="112" width="91" height="101">
<path fill-rule="evenodd" clip-rule="evenodd" d="M145.927 113.419C154.704 115.981 162.185 122.425 166.221 130.553C170.259 138.679 170.869 148.356 168.166 157.009C165.766 164.695 159.504 170.348 152.649 174.673C150.742 175.877 148.976 176.986 147.497 178.36C147.275 178.568 146.722 178.967 146.548 179.211C145.877 181.875 146.98 184.996 148.701 187.202C150.611 189.646 153.304 191.352 155.949 192.998C158.59 194.644 161.292 196.327 163.241 198.742C165.189 201.158 166.271 204.493 165.205 207.399C164.129 210.332 161.056 212.156 157.95 212.706C145.928 214.834 136.938 202.804 128.461 202.804C121.975 202.804 122.312 206.021 124.407 207.559C125.218 208.153 126.362 208.636 126.318 209.633C126.276 210.527 125.054 210.798 124.16 210.66C121.303 210.223 118.783 208.185 117.668 205.558C115.916 207.171 113.495 208.102 111.085 208.336C107.893 208.646 104.691 207.89 101.643 206.907C98.5929 205.923 95.61 204.707 92.4724 204.047C91.5046 203.843 90.5023 203.692 89.5255 203.849C88.5473 204.008 87.5855 204.52 87.0956 205.372C86.6088 206.224 86.717 207.433 87.4894 208.047C87.8635 208.344 88.3399 208.478 88.7546 208.712C89.1724 208.944 89.5586 209.347 89.5255 209.82C89.4699 210.569 88.4872 210.837 87.7313 210.785C85.4892 210.627 83.3599 209.336 82.2013 207.433C81.0412 205.528 80.8849 203.062 81.7926 201.028C83.0744 198.154 86.194 196.456 89.3121 195.864C91.452 195.458 93.637 195.476 95.8234 195.527C94.3042 194.35 92.9202 193.005 91.7165 191.506C90.5835 190.094 89.4699 188.694 88.1896 187.43C88.8749 188.43 88.8042 189.962 87.9792 190.913C86.9333 192.119 85.055 192.382 83.5583 191.813C82.0615 191.244 80.9225 189.98 80.1636 188.58C79.1252 186.661 78.712 184.382 79.2109 182.262C79.7083 180.141 81.1629 178.22 83.1675 177.322C85.5358 176.261 88.3624 176.707 90.7007 177.833C93.0404 178.958 98.9866 184.857 103.714 186.184C109.467 187.797 119.067 185.347 111.575 171.377C98.9866 147.911 106.23 129.558 114.272 121.5C120.244 115.515 128.751 112.195 137.229 112.195C140.167 112.195 143.1 112.594 145.927 113.419Z" fill="white"/>
</mask>
<g mask="url(#mask13)">
<path fill-rule="evenodd" clip-rule="evenodd" d="M82.337 204.63C82.2528 202.843 82.7818 200.967 84.0711 199.713C85.2958 198.524 87.0375 198.027 88.731 197.753C92.8244 197.091 97.02 197.486 101.14 197.017C105.259 196.547 109.583 194.966 111.784 191.488C108.343 194.433 103.569 195.304 99.0231 195.476C94.4774 195.649 89.8761 195.238 85.4115 196.102C82.9846 196.573 80.4045 197.607 79.3135 199.804C78.4359 201.57 78.7485 203.739 79.6817 205.476C80.0604 206.18 82.3039 209.654 83.2416 209.459C83.8758 209.328 82.9681 207.716 82.8389 207.3C82.5684 206.431 82.3806 205.539 82.337 204.63Z" fill="#F26F5C"/>
</g>
<mask id="mask14" style="mask-type:alpha" maskUnits="userSpaceOnUse" x="79" y="112" width="91" height="101">
<path fill-rule="evenodd" clip-rule="evenodd" d="M145.927 113.419C154.704 115.981 162.185 122.425 166.221 130.553C170.259 138.679 170.869 148.356 168.166 157.009C165.766 164.695 159.504 170.348 152.649 174.673C150.742 175.877 148.976 176.986 147.497 178.36C147.275 178.568 146.722 178.967 146.548 179.211C145.877 181.875 146.98 184.996 148.701 187.202C150.611 189.646 153.304 191.352 155.949 192.998C158.59 194.644 161.292 196.327 163.241 198.742C165.189 201.158 166.271 204.493 165.205 207.399C164.129 210.332 161.056 212.156 157.95 212.706C145.928 214.834 136.938 202.804 128.461 202.804C121.975 202.804 122.312 206.021 124.407 207.559C125.218 208.153 126.362 208.636 126.318 209.633C126.276 210.527 125.054 210.798 124.16 210.66C121.303 210.223 118.783 208.185 117.668 205.558C115.916 207.171 113.495 208.102 111.085 208.336C107.893 208.646 104.691 207.89 101.643 206.907C98.5929 205.923 95.61 204.707 92.4724 204.047C91.5046 203.843 90.5023 203.692 89.5255 203.849C88.5473 204.008 87.5855 204.52 87.0956 205.372C86.6088 206.224 86.717 207.433 87.4894 208.047C87.8635 208.344 88.3399 208.478 88.7546 208.712C89.1724 208.944 89.5586 209.347 89.5255 209.82C89.4699 210.569 88.4872 210.837 87.7313 210.785C85.4892 210.627 83.3599 209.336 82.2013 207.433C81.0412 205.528 80.8849 203.062 81.7926 201.028C83.0744 198.154 86.194 196.456 89.3121 195.864C91.452 195.458 93.637 195.476 95.8234 195.527C94.3042 194.35 92.9202 193.005 91.7165 191.506C90.5835 190.094 89.4699 188.694 88.1896 187.43C88.8749 188.43 88.8042 189.962 87.9792 190.913C86.9333 192.119 85.055 192.382 83.5583 191.813C82.0615 191.244 80.9225 189.98 80.1636 188.58C79.1252 186.661 78.712 184.382 79.2109 182.262C79.7083 180.141 81.1629 178.22 83.1675 177.322C85.5358 176.261 88.3624 176.707 90.7007 177.833C93.0404 178.958 98.9866 184.857 103.714 186.184C109.467 187.797 119.067 185.347 111.575 171.377C98.9866 147.911 106.23 129.558 114.272 121.5C120.244 115.515 128.751 112.195 137.229 112.195C140.167 112.195 143.1 112.594 145.927 113.419Z" fill="white"/>
</mask>
<g mask="url(#mask14)">
<path fill-rule="evenodd" clip-rule="evenodd" d="M90.2285 210.699C88.9151 210.401 87.5988 209.988 86.5093 209.203C85.4213 208.419 84.5813 207.206 84.5242 205.874C84.4611 204.366 85.4228 202.939 86.7092 202.129C87.9955 201.319 89.5583 201.043 91.0836 201.004C94.1371 200.925 97.1365 201.717 100.086 202.503C103.035 203.289 106.034 204.082 109.088 204.005C112.141 203.929 115.31 202.857 117.229 200.504C117.45 202.493 117.362 204.48 117.582 206.466C117.685 207.391 117.785 208.339 117.552 209.239C116.981 211.442 114.663 212.673 112.542 213.548C109.626 214.75 106.619 215.785 103.5 216.283C100.381 216.778 97.1335 216.718 94.1251 215.766C93.1092 215.444 92.1069 215.011 91.3075 214.31C90.5095 213.609 90.218 211.755 90.2285 210.699Z" fill="#CD202C"/>
</g>
<mask id="mask15" style="mask-type:alpha" maskUnits="userSpaceOnUse" x="79" y="112" width="91" height="101">
<path fill-rule="evenodd" clip-rule="evenodd" d="M145.927 113.419C154.704 115.981 162.185 122.425 166.221 130.553C170.259 138.679 170.869 148.356 168.166 157.009C165.766 164.695 159.504 170.348 152.649 174.673C150.742 175.877 148.976 176.986 147.497 178.36C147.275 178.568 146.722 178.967 146.548 179.211C145.877 181.875 146.98 184.996 148.701 187.202C150.611 189.646 153.304 191.352 155.949 192.998C158.59 194.644 161.292 196.327 163.241 198.742C165.189 201.158 166.271 204.493 165.205 207.399C164.129 210.332 161.056 212.156 157.95 212.706C145.928 214.834 136.938 202.804 128.461 202.804C121.975 202.804 122.312 206.021 124.407 207.559C125.218 208.153 126.362 208.636 126.318 209.633C126.276 210.527 125.054 210.798 124.16 210.66C121.303 210.223 118.783 208.185 117.668 205.558C115.916 207.171 113.495 208.102 111.085 208.336C107.893 208.646 104.691 207.89 101.643 206.907C98.5929 205.923 95.61 204.707 92.4724 204.047C91.5046 203.843 90.5023 203.692 89.5255 203.849C88.5473 204.008 87.5855 204.52 87.0956 205.372C86.6088 206.224 86.717 207.433 87.4894 208.047C87.8635 208.344 88.3399 208.478 88.7546 208.712C89.1724 208.944 89.5586 209.347 89.5255 209.82C89.4699 210.569 88.4872 210.837 87.7313 210.785C85.4892 210.627 83.3599 209.336 82.2013 207.433C81.0412 205.528 80.8849 203.062 81.7926 201.028C83.0744 198.154 86.194 196.456 89.3121 195.864C91.452 195.458 93.637 195.476 95.8234 195.527C94.3042 194.35 92.9202 193.005 91.7165 191.506C90.5835 190.094 89.4699 188.694 88.1896 187.43C88.8749 188.43 88.8042 189.962 87.9792 190.913C86.9333 192.119 85.055 192.382 83.5583 191.813C82.0615 191.244 80.9225 189.98 80.1636 188.58C79.1252 186.661 78.712 184.382 79.2109 182.262C79.7083 180.141 81.1629 178.22 83.1675 177.322C85.5358 176.261 88.3624 176.707 90.7007 177.833C93.0404 178.958 98.9866 184.857 103.714 186.184C109.467 187.797 119.067 185.347 111.575 171.377C98.9866 147.911 106.23 129.558 114.272 121.5C120.244 115.515 128.751 112.195 137.229 112.195C140.167 112.195 143.1 112.594 145.927 113.419Z" fill="white"/>
</mask>
<g mask="url(#mask15)">
<path fill-rule="evenodd" clip-rule="evenodd" d="M81.3207 189.257C80.2748 187.57 79.7143 185.541 80.0224 183.585C80.3304 181.63 81.5837 179.784 83.4155 178.989C85.6245 178.032 88.2317 178.702 90.328 179.88C92.4243 181.057 94.217 182.709 96.2998 183.91C99.7951 185.923 104.072 186.569 108.013 185.674C105.429 185.98 102.828 185.08 100.592 183.764C98.354 182.444 96.399 180.716 94.3297 179.151C92.2605 177.588 90.0094 176.154 87.4728 175.572C84.9378 174.991 82.054 175.382 80.1261 177.113C78.5858 178.495 77.8134 180.608 77.857 182.667C77.902 184.727 78.7075 186.724 79.9082 188.406" fill="#F26F5C"/>
</g>
<mask id="mask16" style="mask-type:alpha" maskUnits="userSpaceOnUse" x="79" y="112" width="91" height="101">
<path fill-rule="evenodd" clip-rule="evenodd" d="M145.927 113.419C154.704 115.981 162.185 122.425 166.221 130.553C170.259 138.679 170.869 148.356 168.166 157.009C165.766 164.695 159.504 170.348 152.649 174.673C150.742 175.877 148.976 176.986 147.497 178.36C147.275 178.568 146.722 178.967 146.548 179.211C145.877 181.875 146.98 184.996 148.701 187.202C150.611 189.646 153.304 191.352 155.949 192.998C158.59 194.644 161.292 196.327 163.241 198.742C165.189 201.158 166.271 204.493 165.205 207.399C164.129 210.332 161.056 212.156 157.95 212.706C145.928 214.834 136.938 202.804 128.461 202.804C121.975 202.804 122.312 206.021 124.407 207.559C125.218 208.153 126.362 208.636 126.318 209.633C126.276 210.527 125.054 210.798 124.16 210.66C121.303 210.223 118.783 208.185 117.668 205.558C115.916 207.171 113.495 208.102 111.085 208.336C107.893 208.646 104.691 207.89 101.643 206.907C98.5929 205.923 95.61 204.707 92.4724 204.047C91.5046 203.843 90.5023 203.692 89.5255 203.849C88.5473 204.008 87.5855 204.52 87.0956 205.372C86.6088 206.224 86.717 207.433 87.4894 208.047C87.8635 208.344 88.3399 208.478 88.7546 208.712C89.1724 208.944 89.5586 209.347 89.5255 209.82C89.4699 210.569 88.4872 210.837 87.7313 210.785C85.4892 210.627 83.3599 209.336 82.2013 207.433C81.0412 205.528 80.8849 203.062 81.7926 201.028C83.0744 198.154 86.194 196.456 89.3121 195.864C91.452 195.458 93.637 195.476 95.8234 195.527C94.3042 194.35 92.9202 193.005 91.7165 191.506C90.5835 190.094 89.4699 188.694 88.1896 187.43C88.8749 188.43 88.8042 189.962 87.9792 190.913C86.9333 192.119 85.055 192.382 83.5583 191.813C82.0615 191.244 80.9225 189.98 80.1636 188.58C79.1252 186.661 78.712 184.382 79.2109 182.262C79.7083 180.141 81.1629 178.22 83.1675 177.322C85.5358 176.261 88.3624 176.707 90.7007 177.833C93.0404 178.958 98.9866 184.857 103.714 186.184C109.467 187.797 119.067 185.347 111.575 171.377C98.9866 147.911 106.23 129.558 114.272 121.5C120.244 115.515 128.751 112.195 137.229 112.195C140.167 112.195 143.1 112.594 145.927 113.419Z" fill="white"/>
</mask>
<g mask="url(#mask16)">
<path fill-rule="evenodd" clip-rule="evenodd" d="M100.009 189.362C96.1444 187.364 92.6581 184.639 88.5977 183.065C87.34 182.578 85.986 182.202 84.6516 182.403C83.3172 182.602 82.0144 183.505 81.7198 184.808C81.4238 186.112 82.5012 187.647 83.8462 187.534C83.0708 187.307 82.7958 186.211 83.2676 185.563C83.741 184.913 84.7177 184.757 85.4571 185.08C86.1979 185.404 86.7088 186.111 86.9778 186.866C87.3866 188.022 87.2348 189.438 86.3392 190.283C85.5848 190.994 84.4442 191.182 83.4149 191.015C82.3855 190.851 81.4373 190.377 80.5056 189.912C80.7941 191.436 82.0474 192.645 83.469 193.301C84.8905 193.957 86.4774 194.151 88.0342 194.337C92.1261 194.827 96.3638 195.715 100.496 195.333C104.412 194.974 108.24 193.621 111.468 191.391C110.931 191.763 108.827 191.832 108.154 191.821C107.286 191.806 106.354 191.577 105.496 191.394C103.581 190.987 101.742 190.258 100.009 189.362Z" fill="#CD202C"/>
</g>
<path fill-rule="evenodd" clip-rule="evenodd" d="M87.9795 190.913C86.9351 192.117 85.0552 192.382 83.5585 191.813C82.0603 191.243 80.9213 189.98 80.1639 188.579C79.1255 186.662 78.7123 184.382 79.2097 182.261C79.7086 180.14 81.1632 178.219 83.1663 177.32C85.5361 176.26 88.3612 176.706 90.7009 177.831C93.0407 178.957 98.9869 184.856 103.713 186.182C109.467 187.796 119.068 185.346 111.575 171.376C98.9869 147.909 106.23 129.558 114.273 121.499C122.314 113.441 134.95 110.215 145.927 113.418C154.703 115.979 162.184 122.425 166.221 130.552C170.258 138.68 170.869 148.356 168.166 157.007C165.766 164.694 159.503 170.348 152.649 174.673C150.74 175.877 148.976 176.985 147.499 178.36C147.275 178.568 146.722 178.966 146.548 179.21C145.878 181.875 146.981 184.996 148.701 187.2C150.611 189.646 153.304 191.351 155.947 192.997C158.591 194.643 161.294 196.326 163.242 198.742C165.189 201.158 166.272 204.493 165.206 207.398C164.128 210.333 161.057 212.156 157.95 212.705C145.929 214.834 136.938 202.803 128.461 202.803C121.977 202.803 122.311 206.02 124.407 207.558C125.217 208.153 126.362 208.635 126.317 209.632C126.276 210.526 125.055 210.796 124.162 210.66C121.304 210.222 118.782 208.184 117.669 205.557C115.915 207.17 113.496 208.102 111.084 208.335C107.892 208.645 104.693 207.889 101.642 206.907C98.5932 205.923 95.6103 204.705 92.4726 204.046C91.5034 203.841 90.5026 203.691 89.5243 203.85C88.5475 204.009 87.5858 204.52 87.0974 205.372C86.6075 206.224 86.7172 207.432 87.4896 208.046C87.8623 208.343 88.3387 208.478 88.7549 208.711C89.1712 208.943 89.5604 209.348 89.5243 209.82C89.4702 210.568 88.4874 210.836 87.7301 210.784C85.4895 210.627 83.3602 209.336 82.2001 207.431C81.0415 205.526 80.8837 203.059 81.7913 201.026C83.0731 198.153 86.1943 196.455 89.3109 195.864C91.4523 195.458 93.6372 195.476 95.8237 195.527C94.3044 194.349 92.9204 193.005 91.7168 191.506C90.5837 190.093 89.4702 188.693 88.1884 187.428C88.8751 188.43 88.8045 189.96 87.9795 190.913Z" stroke="black" stroke-width="0.439"/>
<path fill-rule="evenodd" clip-rule="evenodd" d="M168.761 154.112C168.379 146.509 166.123 141.159 160.404 135.993C154.685 130.827 140.939 123.305 125.277 120.545C120.602 119.721 112.899 120.871 110.816 125.586C114.927 117.632 120.364 110.511 128.629 107.483C136.894 104.453 146.475 105.234 154.24 109.34C162.003 113.445 167.868 120.756 170.346 129.038C172.822 137.319 170.762 148.776 168.761 154.112Z" fill="white"/>
<path fill-rule="evenodd" clip-rule="evenodd" d="M139.409 158.496C139.223 161.34 138.986 164.233 137.922 166.883C136.858 169.532 134.834 171.944 132.09 172.81C130.304 173.373 128.343 173.24 126.566 172.659C124.788 172.076 123.179 171.068 121.722 169.902C117.165 166.249 113.998 160.931 112.98 155.215C116.643 158.114 122.958 160.211 127.606 160.841C132.252 161.472 136.162 160.841 139.409 158.496Z" stroke="black" stroke-width="0.439" stroke-linecap="round" stroke-linejoin="round"/>
<path fill-rule="evenodd" clip-rule="evenodd" d="M145.04 134.143C149.434 133.911 153.888 135.97 156.528 139.453C156.491 140.392 156.061 141.367 155.425 142.064C153.736 137.875 149.556 134.749 145.04 134.143Z" fill="black"/>
<path fill-rule="evenodd" clip-rule="evenodd" d="M145.04 134.143C149.434 133.911 153.888 135.97 156.528 139.453C156.491 140.392 156.061 141.367 155.425 142.064C153.736 137.875 149.556 134.749 145.04 134.143Z" stroke="black" stroke-width="0.439" stroke-linecap="round" stroke-linejoin="round"/>
<path fill-rule="evenodd" clip-rule="evenodd" d="M116.619 128.644C114.347 127.885 111.755 128.125 109.665 129.287C109.818 130.214 109.776 131.202 109.929 132.131C111.683 130.2 114.374 128.845 116.99 128.644C116.836 128.682 116.774 128.607 116.619 128.644Z" fill="black"/>
<path fill-rule="evenodd" clip-rule="evenodd" d="M116.619 128.644C114.347 127.885 111.755 128.125 109.665 129.287C109.818 130.214 109.776 131.202 109.929 132.131C111.683 130.2 114.374 128.845 116.99 128.644C116.836 128.682 116.774 128.607 116.619 128.644Z" stroke="black" stroke-width="0.439" stroke-linecap="round" stroke-linejoin="round"/>
<path fill-rule="evenodd" clip-rule="evenodd" d="M138.416 138.759C139.741 136.372 142.144 134.682 144.763 134.187C148.299 133.519 152.148 135.102 154.283 138.098C156.417 141.097 156.736 145.365 155.069 148.655C153.402 151.948 149.834 154.103 146.239 153.986C142.645 153.869 139.202 151.488 137.722 148.095C136.243 144.701 136.797 140.463 139.097 137.607" fill="white"/>
<path d="M138.416 138.759C139.741 136.372 142.144 134.682 144.763 134.187C148.299 133.519 152.148 135.102 154.283 138.098C156.417 141.097 156.736 145.365 155.069 148.655C153.402 151.948 149.834 154.103 146.239 153.986C142.645 153.869 139.202 151.488 137.722 148.095C136.243 144.701 136.797 140.463 139.097 137.607" stroke="black" stroke-width="0.439" stroke-linecap="round" stroke-linejoin="round"/>
<path fill-rule="evenodd" clip-rule="evenodd" d="M107.426 136.67C106.457 141.883 108.793 146.68 112.643 147.379C116.493 148.08 120.399 144.42 121.368 139.207C122.336 133.992 120.001 129.197 116.151 128.496C112.301 127.796 108.395 131.455 107.426 136.67Z" fill="white"/>
<path fill-rule="evenodd" clip-rule="evenodd" d="M107.426 136.67C106.457 141.883 108.793 146.68 112.643 147.379C116.493 148.08 120.399 144.42 121.368 139.207C122.336 133.992 120.001 129.197 116.151 128.496C112.301 127.796 108.395 131.455 107.426 136.67Z" stroke="black" stroke-width="0.439" stroke-linecap="round" stroke-linejoin="round"/>
<path fill-rule="evenodd" clip-rule="evenodd" d="M139.737 145.092C139.737 149.455 142.804 152.99 146.589 152.99C150.371 152.99 153.44 149.455 153.44 145.092C153.44 140.73 150.371 137.195 146.589 137.195C142.804 137.195 139.737 140.73 139.737 145.092Z" fill="black"/>
<path fill-rule="evenodd" clip-rule="evenodd" d="M139.737 145.092C139.737 149.455 142.804 152.99 146.589 152.99C150.371 152.99 153.44 149.455 153.44 145.092C153.44 140.73 150.371 137.195 146.589 137.195C142.804 137.195 139.737 140.73 139.737 145.092Z" stroke="black" stroke-width="0.439" stroke-linecap="round" stroke-linejoin="round"/>
<path d="M150.192 148.974C148.259 153.772 140.713 151.153 141.502 144.395" stroke="#9B5225" stroke-width="1.171" stroke-linecap="round" stroke-linejoin="round"/>
<path fill-rule="evenodd" clip-rule="evenodd" d="M110.1 137.569C108.985 141.431 110.445 145.246 113.358 146.087C116.274 146.929 119.539 144.482 120.653 140.618C121.768 136.756 120.308 132.941 117.395 132.1C114.481 131.257 111.216 133.705 110.1 137.569Z" fill="black"/>
<path fill-rule="evenodd" clip-rule="evenodd" d="M110.1 137.569C108.985 141.431 110.445 145.246 113.358 146.087C116.274 146.929 119.539 144.482 120.653 140.618C121.768 136.756 120.308 132.941 117.395 132.1C114.481 131.257 111.216 133.705 110.1 137.569Z" stroke="black" stroke-width="0.439" stroke-linecap="round" stroke-linejoin="round"/>
<path d="M117.849 142.623C117.445 143.173 117.001 143.703 116.454 144.116C115.909 144.529 115.252 144.821 114.565 144.848C113.634 144.886 112.723 144.416 112.12 143.712C111.518 143.008 111.205 142.091 111.123 141.173C111.042 140.254 111.178 139.327 111.393 138.43" stroke="#9B5225" stroke-width="1.171" stroke-linecap="round" stroke-linejoin="round"/>
<path fill-rule="evenodd" clip-rule="evenodd" d="M143.633 142.05C143.633 143.001 144.413 143.773 145.373 143.773C146.335 143.773 147.115 143.001 147.115 142.05C147.115 141.098 146.335 140.328 145.373 140.328C144.413 140.328 143.633 141.098 143.633 142.05Z" fill="white"/>
<path fill-rule="evenodd" clip-rule="evenodd" d="M112.754 135.491C112.396 136.375 112.671 137.316 113.368 137.593C114.066 137.868 114.921 137.377 115.28 136.493C115.637 135.611 115.362 134.671 114.665 134.394C113.968 134.117 113.111 134.608 112.754 135.491Z" fill="white"/>
<path fill-rule="evenodd" clip-rule="evenodd" d="M148.524 149.68C148.524 150.179 148.931 150.583 149.436 150.583C149.939 150.583 150.347 150.179 150.347 149.68C150.347 149.182 149.939 148.777 149.436 148.777C148.931 148.777 148.524 149.182 148.524 149.68Z" fill="white"/>
<path fill-rule="evenodd" clip-rule="evenodd" d="M115.948 142.656C115.779 143.127 115.916 143.603 116.251 143.72C116.586 143.838 116.995 143.553 117.163 143.083C117.332 142.613 117.196 142.137 116.86 142.018C116.525 141.901 116.116 142.188 115.948 142.656Z" fill="white"/>
<path d="M147.825 178.031C146.805 178.883 145.23 180.474 144.234 181.906" stroke="black" stroke-width="0.439" stroke-linecap="round" stroke-linejoin="round"/>
<mask id="mask17" style="mask-type:alpha" maskUnits="userSpaceOnUse" x="110" y="105" width="62" height="50">
<path fill-rule="evenodd" clip-rule="evenodd" d="M154.24 109.339C162.003 113.444 167.868 120.755 170.346 129.037C172.822 137.319 170.762 148.775 168.761 154.111C168.377 146.508 166.122 141.158 160.404 135.993C154.685 130.827 140.941 123.306 125.275 120.544C120.848 119.765 113.703 120.755 111.192 124.869C115.256 117.206 120.612 110.419 128.629 107.482C132.001 106.247 135.596 105.645 139.195 105.645C144.414 105.643 149.645 106.908 154.24 109.339ZM110.816 125.585C110.926 125.336 111.05 125.098 111.192 124.869C111.064 125.106 110.939 125.345 110.816 125.585Z" fill="white"/>
</mask>
<g mask="url(#mask17)">
<path fill-rule="evenodd" clip-rule="evenodd" d="M128.916 116.757C125.479 116.026 121.718 115.433 117.996 114.958C120.51 112.029 122.898 109.247 125.168 106.603C128.631 107.024 132.006 107.622 135.292 108.397C133.253 111.119 131.17 113.751 128.916 116.757Z" fill="#75151E"/>
<path fill-rule="evenodd" clip-rule="evenodd" d="M138.667 116.121C138.048 116.298 137.46 116.302 136.965 116.137C135.776 115.74 135.562 114.506 136.441 113.326C137.301 112.171 138.888 111.553 140.085 111.927C140.581 112.082 140.937 112.385 141.109 112.803C141.113 112.81 141.116 112.817 141.119 112.824C141.638 112.633 142.155 112.444 142.671 112.257C142.668 112.248 142.664 112.239 142.661 112.231C142.403 111.512 141.793 110.975 140.958 110.72C139.014 110.129 136.399 111.117 135.061 112.909C133.677 114.765 134.044 116.806 135.963 117.458C136.796 117.74 137.835 117.714 138.887 117.38C138.899 117.376 138.911 117.372 138.924 117.368C138.851 116.946 138.775 116.528 138.698 116.112C138.687 116.115 138.677 116.118 138.667 116.121ZM139.662 118.514C140.106 118.678 140.549 118.844 140.992 119.014C142.644 116.784 144.213 114.615 145.695 112.511C145.255 112.354 144.815 112.199 144.373 112.047C142.891 114.137 141.32 116.294 139.662 118.514ZM147.992 118.713C148.03 118.617 148.628 113.599 148.603 113.591C148.176 113.422 147.747 113.256 147.318 113.094C145.838 115.214 144.275 117.396 142.632 119.637C143.076 119.814 143.52 119.995 143.963 120.178C144.947 118.824 145.902 117.491 146.83 116.179C146.827 116.399 146.233 121.229 146.216 121.216C146.218 121.207 151.137 118.271 151.35 118.153C150.439 119.484 149.503 120.834 148.542 122.202C148.986 122.411 149.429 122.624 149.871 122.84C151.454 120.563 152.971 118.332 154.42 116.151C154 115.946 153.578 115.745 153.155 115.548C153.156 115.539 148.103 118.637 147.992 118.713ZM154.886 123.771C154.457 123.533 154.026 123.299 153.595 123.069C153.957 122.531 154.315 121.995 154.67 121.462C155.097 121.692 155.524 121.925 155.949 122.163C156.548 122.499 156.49 123.034 156.237 123.419C155.98 123.81 155.49 124.107 154.886 123.771ZM156.44 118.781C156.835 118.994 157.229 119.211 157.621 119.431C158.117 119.71 158.236 120.153 157.942 120.609C157.647 121.066 157.173 121.17 156.673 120.89C156.278 120.668 155.881 120.45 155.483 120.236C155.805 119.749 156.124 119.264 156.44 118.781ZM157.637 122.236C158.031 122.237 158.793 122.059 159.268 121.313C159.997 120.169 159.7 118.994 158.48 118.302C157.634 117.823 156.781 117.364 155.923 116.922C154.485 119.114 152.984 121.351 151.419 123.632C152.341 124.104 153.261 124.593 154.177 125.1C155.431 125.79 156.706 125.481 157.507 124.248C158.098 123.336 157.86 122.611 157.637 122.236Z" fill="#7C1710"/>
<path fill-rule="evenodd" clip-rule="evenodd" d="M125.309 108.092C127.156 108.344 128.976 108.648 130.77 109.002C130.991 110.053 131.208 111.137 131.421 112.255C129.741 113.049 128.025 113.869 126.274 114.716C124.396 114.328 122.488 113.998 120.55 113.724C122.274 112.821 123.962 111.945 125.615 111.093C125.518 110.065 125.416 109.065 125.309 108.092Z" fill="#E5292B"/>
<path fill-rule="evenodd" clip-rule="evenodd" d="M131.421 112.257C131.209 111.139 130.991 110.055 130.77 109.004C128.976 108.649 127.156 108.346 125.309 108.094C125.416 109.066 125.518 110.066 125.615 111.095" fill="#FEFEFE"/>
<path fill-rule="evenodd" clip-rule="evenodd" d="M154.629 132.727C157.568 130.145 160.854 122.93 161.513 119.121C162.172 115.311 159.858 112.772 157.258 111.16C164.649 114.467 172.822 121.73 174.58 129.489C176.338 137.247 175.153 145.409 172.663 152.973C172.254 154.214 171.802 155.465 171.029 156.527C170.255 157.59 169.113 158.46 167.792 158.643C165.749 158.926 163.864 157.564 162.422 156.124C156.803 150.505 153.974 142.334 154.947 134.536C155.055 133.669 153.964 133.311 154.629 132.727Z" fill="#C5C4C3"/>
</g>
<path fill-rule="evenodd" clip-rule="evenodd" d="M168.761 154.112C168.379 146.509 166.123 141.159 160.404 135.993C154.685 130.827 140.939 123.305 125.277 120.545C120.602 119.721 112.899 120.871 110.816 125.586C114.927 117.632 120.364 110.511 128.629 107.483C136.894 104.453 146.475 105.234 154.24 109.34C162.003 113.445 167.868 120.756 170.346 129.038C172.822 137.319 170.762 148.776 168.761 154.112Z" stroke="black" stroke-width="0.439" stroke-linecap="round" stroke-linejoin="round"/>
<path d="M161.724 114.828C165.876 119.763 160.645 130.042 158.142 134.035" stroke="black" stroke-width="0.439" stroke-linecap="round" stroke-linejoin="round"/>
<path fill-rule="evenodd" clip-rule="evenodd" d="M126.64 120.668C143.616 126.908 153.035 135.458 160.404 135.993C158.564 134.2 143.616 121.309 126.64 120.668Z" fill="white"/>
<mask id="mask18" style="mask-type:alpha" maskUnits="userSpaceOnUse" x="126" y="120" width="35" height="16">
<path fill-rule="evenodd" clip-rule="evenodd" d="M160.404 135.993C153.036 135.457 143.616 126.91 126.641 120.668C143.616 121.309 158.563 134.2 160.404 135.993Z" fill="white"/>
</mask>
<g mask="url(#mask18)">
<path fill-rule="evenodd" clip-rule="evenodd" d="M125.276 120.543C131.571 131.591 154.861 142.396 167.496 145.112C167.09 145.026 165.972 142.307 165.705 141.861C165.024 140.723 164.3 139.609 163.532 138.523C162.31 136.792 160.929 134.463 159.019 133.377C157.575 132.557 155.821 131.892 154.308 131.155C151.642 129.859 139.009 123.432 125.276 120.543Z" fill="#C5C4C3"/>
</g>
<path fill-rule="evenodd" clip-rule="evenodd" d="M126.64 120.672C143.616 126.912 153.035 135.462 160.404 135.997C158.564 134.204 143.616 121.313 126.64 120.672Z" stroke="black" stroke-width="0.439" stroke-linecap="round" stroke-linejoin="round"/>
<path fill-rule="evenodd" clip-rule="evenodd" d="M128.008 121.202C124.49 119.529 112.5 120.064 108.324 130.327C105.718 129.924 103.25 126.936 102.64 124.396C101.555 119.899 107.515 113.022 128.008 121.202Z" fill="#C2C4C4"/>
<path fill-rule="evenodd" clip-rule="evenodd" d="M128.008 121.202C124.49 119.529 112.5 120.064 108.324 130.327C105.718 129.924 103.25 126.936 102.64 124.396C101.555 119.899 107.515 113.022 128.008 121.202Z" stroke="black" stroke-width="0.439" stroke-linecap="round" stroke-linejoin="round"/>
<path fill-rule="evenodd" clip-rule="evenodd" d="M124.602 124.298C124.694 124.705 124.155 124.951 123.916 124.606C122.838 123.052 121.236 121.668 119.385 121.436C117.044 121.142 112.164 123.249 108.749 129.372C109.111 126.889 110.572 123.089 112.376 121.38C114.483 119.386 117.104 118.661 119.882 119.531C122.109 120.23 124.111 122.11 124.602 124.298Z" fill="black"/>
<path fill-rule="evenodd" clip-rule="evenodd" d="M124.602 124.298C124.694 124.705 124.155 124.951 123.916 124.606C122.838 123.052 121.236 121.668 119.385 121.436C117.044 121.142 112.164 123.249 108.749 129.372C109.111 126.889 110.572 123.089 112.376 121.38C114.483 119.386 117.104 118.661 119.882 119.531C122.109 120.23 124.111 122.11 124.602 124.298Z" stroke="black" stroke-width="0.439" stroke-linecap="round" stroke-linejoin="round"/>
<path d="M95.8233 195.527C102.65 195.781 109.008 194.592 113.346 189.707" stroke="black" stroke-width="0.439" stroke-linecap="round" stroke-linejoin="round"/>
<path d="M117.668 205.559C116.864 203.569 116.656 200.809 117.47 198.466C118.284 196.126 120.047 194.122 122.279 193.002C125.706 191.279 129.842 191.706 133.533 192.771C137.222 193.836 140.747 195.492 144.529 196.164C145.323 196.305 146.179 196.394 146.901 196.042C147.623 195.688 148.094 194.731 147.658 194.06" stroke="black" stroke-width="0.439" stroke-linecap="round" stroke-linejoin="round"/>
<path d="M88.3046 187.614C87.6795 186.578 86.7508 185.723 85.6629 185.181C85.1129 184.907 84.4411 184.715 83.8987 185.001C83.242 185.346 83.0917 186.273 83.4043 186.939C83.7168 187.607 84.3615 188.056 85.0107 188.416" stroke="black" stroke-width="0.439" stroke-linecap="round" stroke-linejoin="round"/>
<path d="M141.204 158.493C139.656 158.689 138.035 158.243 136.813 157.28" stroke="black" stroke-width="0.439" stroke-linecap="round" stroke-linejoin="round"/>
<path d="M113.416 152.16C112.799 152.806 112.193 153.568 111.574 154.215C112.151 154.642 112.402 154.788 112.979 155.215" stroke="black" stroke-width="0.439" stroke-linecap="round" stroke-linejoin="round"/>
<path fill-rule="evenodd" clip-rule="evenodd" d="M139.409 158.496C139.223 161.34 138.986 164.233 137.922 166.883C136.858 169.532 134.834 171.944 132.09 172.81C130.304 173.373 128.343 173.24 126.566 172.659C124.788 172.076 123.179 171.068 121.722 169.902C117.165 166.249 113.999 160.931 112.98 155.215C116.643 158.114 122.958 160.211 127.606 160.841C132.252 161.472 136.162 160.841 139.409 158.496Z" fill="black"/>
<mask id="mask19" style="mask-type:alpha" maskUnits="userSpaceOnUse" x="112" y="155" width="28" height="19">
<path fill-rule="evenodd" clip-rule="evenodd" d="M127.604 160.84C132.252 161.472 136.162 160.84 139.408 158.495C139.223 161.34 138.986 164.233 137.922 166.883C136.858 169.53 134.834 171.943 132.09 172.81C130.306 173.372 128.345 173.24 126.566 172.657C124.788 172.076 123.179 171.067 121.723 169.9C117.163 166.248 113.999 160.931 112.98 155.215C116.644 158.114 122.958 160.211 127.604 160.84Z" fill="white"/>
</mask>
<g mask="url(#mask19)">
<path fill-rule="evenodd" clip-rule="evenodd" d="M120.799 162.455C117.614 161.225 116.556 159.063 116.359 156.488C116.387 156.858 120.645 157.781 121.137 157.908C122.793 158.336 124.463 158.7 126.146 159C127.806 159.298 129.477 159.533 131.154 159.707C132.005 159.793 132.857 159.865 133.711 159.922C134.207 159.954 135.491 159.778 135.831 160.217C136.618 161.234 130.342 166.14 120.799 162.455Z" fill="white"/>
</g>
<mask id="mask20" style="mask-type:alpha" maskUnits="userSpaceOnUse" x="112" y="155" width="28" height="19">
<path fill-rule="evenodd" clip-rule="evenodd" d="M127.604 160.84C132.252 161.472 136.162 160.84 139.408 158.495C139.223 161.34 138.986 164.233 137.922 166.883C136.858 169.53 134.834 171.943 132.09 172.81C130.306 173.372 128.345 173.24 126.566 172.657C124.788 172.076 123.179 171.067 121.723 169.9C117.163 166.248 113.999 160.931 112.98 155.215C116.644 158.114 122.958 160.211 127.604 160.84Z" fill="white"/>
</mask>
<g mask="url(#mask20)">
<path fill-rule="evenodd" clip-rule="evenodd" d="M120.799 162.455C117.614 161.225 116.556 159.063 116.359 156.488C116.387 156.858 120.645 157.781 121.137 157.908C122.793 158.336 124.463 158.7 126.146 159C127.806 159.298 129.477 159.533 131.154 159.707C132.005 159.793 132.857 159.865 133.711 159.922C134.207 159.954 135.491 159.778 135.831 160.217C136.618 161.234 130.342 166.14 120.799 162.455Z" stroke="black" stroke-width="0.439" stroke-linecap="round" stroke-linejoin="round"/>
</g>
<mask id="mask21" style="mask-type:alpha" maskUnits="userSpaceOnUse" x="112" y="155" width="28" height="19">
<path fill-rule="evenodd" clip-rule="evenodd" d="M127.604 160.84C132.252 161.472 136.162 160.84 139.408 158.495C139.223 161.34 138.986 164.233 137.922 166.883C136.858 169.53 134.834 171.943 132.09 172.81C130.306 173.372 128.345 173.24 126.566 172.657C124.788 172.076 123.179 171.067 121.723 169.9C117.163 166.248 113.999 160.931 112.98 155.215C116.644 158.114 122.958 160.211 127.604 160.84Z" fill="white"/>
</mask>
<g mask="url(#mask21)">
<path fill-rule="evenodd" clip-rule="evenodd" d="M138.908 166.655C136.245 165.686 133.359 165.324 130.537 165.604C128.667 165.788 126.801 166.264 125.19 167.221C123.579 168.178 122.239 169.65 121.672 171.423C123.172 172.584 124.658 173.789 126.41 174.528C128.162 175.266 130.096 175.654 131.984 175.402C134.116 175.118 136.122 173.996 137.467 172.335C138.814 170.674 139.092 168.777 138.908 166.655Z" fill="#F38AAB"/>
</g>
</svg>
