<svg width="350" height="230" viewBox="0 0 350 230" fill="none" xmlns="http://www.w3.org/2000/svg">
<path opacity="0.3" fill-rule="evenodd" clip-rule="evenodd" d="M93.6917 219.481C93.6917 219.481 41.1994 219.533 41.2936 218.177C41.6114 213.639 82.8936 216.296 86.2823 214.932C87.9461 214.263 86.1077 212.806 89.0407 211.863C100.706 208.113 141.289 211.517 155.779 211.49C195.251 211.417 205.244 209.73 209.827 209.512C222.687 208.906 259.072 209.143 269.313 209.262C290.375 209.506 347.028 208.507 345.832 212.342C345.296 214.061 290.895 217.691 281.634 218.154C273.709 218.551 268.264 220.941 261.158 222.343C251.204 224.307 240.287 225.492 229.543 226.238C184.533 229.362 138.392 222.032 93.6917 219.481Z" fill="#333739"/>
<g opacity="0.2">
<path fill-rule="evenodd" clip-rule="evenodd" d="M311.726 210.895C311.726 210.895 348.338 160.649 317.917 106.248C290.925 57.9818 238.5 92 227.349 89.9193C216.199 87.8387 198.177 81.8981 174.041 32.7841C141.144 -34.1937 27.0721 6.43194 47.8706 109.475C57.9353 159.341 17.2389 161.153 37.976 211L311.726 210.895Z" fill="#DDDEDE"/>
</g>
<path fill-rule="evenodd" clip-rule="evenodd" d="M199.463 156.757C199.01 153.673 198.094 150.685 197.4 147.642C196.317 142.93 195.179 138.228 194.053 133.522C193.63 131.759 193.175 130 192.735 128.24C192.38 126.747 192.133 125.221 191.638 123.767C191.104 122.203 190.236 120.776 188.51 119.98C186.955 118.672 185.049 118.276 182.98 118.3L183.004 118.312L182.702 118.086C181.32 118.078 179.934 118.025 178.555 118.084C177.403 118.132 176.467 117.882 176.107 116.842C175.73 115.756 176.053 114.83 177.268 114.256C177.447 114.173 177.587 114.027 177.747 113.911C179.176 114.277 180.616 113.883 182.05 113.903C182.319 114.109 182.628 114.092 182.95 114.022L187.154 114.646L188.448 115.103L191.583 116.624C194.403 118.734 195.822 121.583 196.723 124.703C198.217 131.844 200.053 138.925 201.754 146.028C203.61 153.764 205.392 161.515 207.232 169.254C208.233 173.464 209.287 177.661 210.317 181.864C210.109 184.087 208.952 186.067 208.209 188.151C206.76 192.203 205.217 196.231 203.62 200.241C203.182 201.341 203.492 201.481 204.633 201.396C212.748 200.795 220.866 200.236 228.984 199.666C253.181 197.961 277.378 196.262 301.575 194.569C302.286 194.519 303.34 194.04 303.663 194.893C304.072 195.972 304.086 197.174 303.891 198.338C303.87 198.459 303.472 198.573 303.242 198.617C302.884 198.666 302.522 198.696 302.161 198.707L198.543 206.003C196.545 206.145 196.57 206.149 197.209 204.477C199.949 197.308 202.651 190.123 205.428 182.963C205.876 181.807 205.33 180.832 205.095 179.829C203.366 172.295 201.527 164.784 199.723 157.267C199.682 157.082 199.554 156.924 199.463 156.757Z" fill="white"/>
<path opacity="0.5" fill-rule="evenodd" clip-rule="evenodd" d="M199.463 156.757C199.01 153.673 198.094 150.685 197.4 147.642C196.317 142.93 195.179 138.228 194.053 133.522C193.63 131.759 193.175 130 192.735 128.24C192.38 126.747 192.133 125.221 191.638 123.767C191.104 122.203 190.236 120.776 188.51 119.98C186.955 118.672 185.049 118.276 182.98 118.3L183.004 118.312L182.702 118.086C181.32 118.078 179.934 118.025 178.555 118.084C177.403 118.132 176.467 117.882 176.107 116.842C175.73 115.756 176.053 114.83 177.268 114.256C177.447 114.173 177.587 114.027 177.747 113.911C179.176 114.277 180.616 113.883 182.05 113.903C182.319 114.109 182.628 114.092 182.95 114.022L187.154 114.646L188.448 115.103L191.583 116.624C194.403 118.734 195.822 121.583 196.723 124.703C198.217 131.844 200.053 138.925 201.754 146.028C203.61 153.764 205.392 161.515 207.232 169.254C208.233 173.464 209.287 177.661 210.317 181.864C210.109 184.087 208.952 186.067 208.209 188.151C206.76 192.203 205.217 196.231 203.62 200.241C203.182 201.341 203.492 201.481 204.633 201.396C212.748 200.795 220.866 200.236 228.984 199.666C253.181 197.961 277.378 196.262 301.575 194.569C302.286 194.519 303.34 194.04 303.663 194.893C304.072 195.972 304.086 197.174 303.891 198.338C303.87 198.459 303.472 198.573 303.242 198.617C302.884 198.666 302.522 198.696 302.161 198.707L198.543 206.003C196.545 206.145 196.57 206.149 197.209 204.477C199.949 197.308 202.651 190.123 205.428 182.963C205.876 181.807 205.33 180.832 205.095 179.829C203.366 172.295 201.527 164.784 199.723 157.267C199.682 157.082 199.554 156.924 199.463 156.757Z" fill="#333739"/>
<path fill-rule="evenodd" clip-rule="evenodd" d="M219.466 213.727C217.833 218.241 212.347 219.191 208.873 217.068C207.801 216.414 207.221 215.455 206.541 214.544C205.317 210.994 206.612 207.882 209.983 206.649C212.417 205.759 214.903 205.802 217.024 207.336C219.293 208.977 220.03 211.183 219.466 213.727Z" fill="white"/>
<path fill-rule="evenodd" clip-rule="evenodd" d="M296.3 209.191C294.667 213.706 289.181 214.656 285.705 212.533C284.633 211.879 284.054 210.92 283.373 210.009C282.15 206.459 283.446 203.348 286.817 202.114C289.251 201.223 291.737 201.267 293.858 202.802C296.125 204.442 296.862 206.648 296.3 209.191Z" fill="white"/>
<path opacity="0.5" fill-rule="evenodd" clip-rule="evenodd" d="M219.466 213.723C217.833 218.237 212.347 219.187 208.873 217.064C207.801 216.41 207.221 215.452 206.541 214.54C205.317 210.99 206.612 207.878 209.983 206.645C212.417 205.755 214.903 205.798 217.024 207.332C219.293 208.973 220.03 211.179 219.466 213.723Z" fill="#333739"/>
<path opacity="0.5" fill-rule="evenodd" clip-rule="evenodd" d="M296.3 209.191C294.666 213.706 289.181 214.656 285.705 212.533C284.633 211.879 284.054 210.92 283.373 210.009C282.15 206.459 283.446 203.348 286.817 202.114C289.251 201.223 291.737 201.267 293.858 202.802C296.125 204.442 296.862 206.648 296.3 209.191Z" fill="#333739"/>
<path opacity="0.3" fill-rule="evenodd" clip-rule="evenodd" d="M264.982 176.238L220.257 181.861C218.474 182.085 216.862 180.831 216.656 179.062C216.451 177.292 217.726 175.674 219.508 175.452L264.233 169.826C266.016 169.604 267.626 170.856 267.834 172.628C268.041 174.397 266.762 176.013 264.982 176.238Z" fill="#FFAB00"/>
<path opacity="0.5" fill-rule="evenodd" clip-rule="evenodd" d="M271.034 168.801L229.268 173.552C227.5 173.754 225.901 172.623 225.695 171.028C225.489 169.433 226.755 167.976 228.523 167.774L270.287 163.023C272.057 162.821 273.654 163.953 273.86 165.548C274.067 167.143 272.802 168.601 271.034 168.801Z" fill="#FFAB00"/>
<path opacity="0.3" fill-rule="evenodd" clip-rule="evenodd" d="M263.98 157.014L221.245 162.423C220.246 162.549 219.536 163.523 219.662 164.597L219.981 167.356C220.106 168.43 221.016 169.199 222.017 169.073L264.752 163.664C265.752 163.536 266.459 162.565 266.336 161.489L266.015 158.73C265.891 157.656 264.98 156.888 263.98 157.014Z" fill="#FFAB00"/>
<path opacity="0.5" fill-rule="evenodd" clip-rule="evenodd" d="M264.004 150.174L221.251 155.696C220.253 155.824 219.54 156.786 219.661 157.842L219.969 160.553C220.09 161.61 220.995 162.361 221.995 162.232L264.748 156.711C265.746 156.581 266.457 155.621 266.336 154.564L266.028 151.854C265.909 150.797 265.002 150.046 264.004 150.174Z" fill="#FFAB00"/>
<path opacity="0.3" fill-rule="evenodd" clip-rule="evenodd" d="M263.516 150.919L223.223 155.595C221.463 155.8 219.874 154.655 219.669 153.039C219.463 151.424 220.724 149.949 222.482 149.744L262.774 145.066C264.535 144.863 266.124 146.008 266.328 147.623C266.532 149.237 265.273 150.715 263.516 150.919Z" fill="#FFAB00"/>
<path opacity="0.5" fill-rule="evenodd" clip-rule="evenodd" d="M260.502 145.876L220.21 150.552C218.449 150.757 216.861 149.612 216.656 147.996C216.45 146.379 217.711 144.906 219.47 144.701L259.761 140.023C261.522 139.82 263.11 140.963 263.315 142.58C263.519 144.196 262.26 145.671 260.502 145.876Z" fill="#FFAB00"/>
<path opacity="0.5" fill-rule="evenodd" clip-rule="evenodd" d="M285.723 168.921L266.078 131.505C265.605 130.606 264.497 130.258 263.6 130.73L261.303 131.939C260.406 132.411 260.063 133.522 260.535 134.421L280.18 171.837C280.653 172.736 281.761 173.083 282.658 172.611L284.956 171.403C285.851 170.931 286.194 169.821 285.723 168.921Z" fill="#FFAB00"/>
<path fill-rule="evenodd" clip-rule="evenodd" d="M247.648 171.165C254.622 162.262 253.046 149.375 244.126 142.381C235.208 135.387 222.325 136.933 215.352 145.835C208.377 154.738 209.954 167.626 218.874 174.619C227.792 181.613 240.675 180.067 247.648 171.165Z" fill="#FFAB00"/>
<path opacity="0.5" fill-rule="evenodd" clip-rule="evenodd" d="M241.25 145.142C248.68 150.513 250.366 160.899 245.023 168.341C239.679 175.784 229.321 177.465 221.894 172.095C214.465 166.726 212.776 156.339 218.122 148.896C223.467 141.451 233.823 139.775 241.25 145.142Z" fill="white"/>
<path fill-rule="evenodd" clip-rule="evenodd" d="M242.21 162.812C242.432 163.032 242.567 163.321 242.593 163.628C242.62 163.933 242.536 164.238 242.354 164.491C241.623 165.513 240.378 166.791 238.741 167.824C236.346 169.332 233.469 170.046 230.592 169.454C228.796 169.086 227.006 168.112 225.568 166.665L224.153 167.554C223.923 167.698 223.641 167.748 223.373 167.694C223.104 167.639 222.867 167.482 222.718 167.258L222.694 167.222C222.545 167 222.493 166.727 222.55 166.467C222.606 166.206 222.767 165.979 222.997 165.833L224.158 165.1C223.863 164.737 223.662 164.514 223.519 164.303C223.247 163.888 223.007 163.452 222.801 163.004L221.604 163.758C221.373 163.902 221.092 163.953 220.823 163.897C220.554 163.842 220.319 163.686 220.168 163.463C220.019 163.239 219.965 162.967 220.022 162.707C220.08 162.445 220.241 162.216 220.471 162.071L221.922 161.156C221.235 159.287 221.065 157.342 221.442 155.6C222.084 152.643 224.018 150.22 226.525 148.646C227.984 147.725 229.253 147.274 230.31 147.034C230.664 146.956 231.035 147.012 231.346 147.193C231.659 147.373 231.886 147.664 231.98 148.002L231.983 148.026C232.032 148.198 232.043 148.381 232.019 148.558C231.995 148.737 231.935 148.908 231.841 149.064C231.748 149.218 231.625 149.354 231.476 149.464C231.33 149.572 231.162 149.65 230.982 149.696C229.937 149.971 228.947 150.408 228.047 150.989C226.45 151.995 225.186 153.492 224.719 155.491C224.466 156.651 224.524 157.967 225.075 159.17L233.237 154.025C233.469 153.879 233.749 153.829 234.018 153.884C234.287 153.94 234.522 154.097 234.673 154.319C234.822 154.543 234.876 154.816 234.817 155.076C234.761 155.337 234.6 155.564 234.37 155.71L225.847 161.082C226.071 161.493 226.295 161.903 226.46 162.151C226.672 162.467 226.885 162.782 227.206 163.183L235.748 157.795C235.865 157.723 235.996 157.671 236.132 157.648C236.268 157.622 236.409 157.624 236.546 157.652C236.682 157.68 236.811 157.734 236.927 157.81C237.042 157.886 237.141 157.983 237.215 158.097C237.369 158.326 237.423 158.603 237.364 158.871C237.306 159.137 237.142 159.37 236.905 159.519L228.723 164.675C229.662 165.537 230.764 166.094 231.839 166.317C233.971 166.724 235.753 166.303 237.567 165.158C238.548 164.538 239.425 163.776 240.166 162.898C240.287 162.754 240.44 162.635 240.612 162.552C240.785 162.467 240.973 162.42 241.166 162.412C241.359 162.403 241.552 162.434 241.73 162.505C241.91 162.573 242.072 162.678 242.207 162.812H242.21Z" fill="white"/>
<path fill-rule="evenodd" clip-rule="evenodd" d="M298.698 171.844L218.728 181.282C216.362 181.56 214.165 180.055 213.628 177.787L202.871 132.334C202.166 129.361 204.586 126.554 207.701 126.726L293.297 131.453C295.587 131.58 297.438 133.311 297.669 135.542L301.124 168.883C301.275 170.35 300.196 171.668 298.698 171.844Z" stroke="white"/>
<path d="M206 143.5L298 145.5" stroke="white"/>
<path d="M210.248 162.509L299.636 157.523" stroke="white"/>
<path opacity="0.5" fill-rule="evenodd" clip-rule="evenodd" d="M207.729 126.227C204.296 126.038 201.599 129.136 202.384 132.45L213.141 177.902C213.739 180.426 216.177 182.085 218.787 181.778L298.757 172.341C300.516 172.133 301.801 170.581 301.622 168.832L297.497 135.448L297.497 135.443C297.237 132.962 295.181 131.051 292.655 130.912L207.729 126.227ZM207.674 127.225C204.876 127.071 202.733 129.587 203.357 132.219L206.002 143.395L206.011 143L297.669 144.992L296.502 135.551C296.297 133.573 294.653 132.024 292.6 131.911L207.674 127.225ZM297.793 145.995L206.146 144.003L210.406 162L299.159 157.05L297.793 145.995ZM214.115 177.672L210.64 162.989L299.282 158.044L300.627 168.934L300.627 168.939C300.746 170.122 299.874 171.202 298.64 171.347L218.67 180.785C216.546 181.035 214.591 179.685 214.115 177.672Z" fill="#333739"/>
<path fill-rule="evenodd" clip-rule="evenodd" d="M162.349 100.74L146.428 82.9062L141.569 90.323L155.544 103.788L172.298 114.619L177.866 110.228L172.298 114.619L173.776 117.658C173.776 117.658 175.624 118.176 175.786 118.18C175.949 118.186 177.755 117.565 177.908 117.565C178.062 117.566 178.86 118.035 179.104 118.047C179.348 118.057 181.192 117.362 181.381 117.382C181.571 117.4 183.222 118.19 183.464 118.175C183.704 118.16 185.378 115.461 185.378 115.461L182.124 111.94L178.395 109.81" fill="#FFDDC5"/>
<path fill-rule="evenodd" clip-rule="evenodd" d="M79.612 160.079L80.122 167.649C80.122 167.649 75.1285 172.549 74.0086 174.345C72.8886 176.139 71.7288 182.401 71.7288 182.401L69.6646 182.586L69.271 177.205C69.271 177.205 73.9104 165.485 69.5539 164.01C67.9277 163.459 68.0514 160.039 68.0514 160.039L79.5397 158.993" fill="#333739"/>
<path fill-rule="evenodd" clip-rule="evenodd" d="M175.319 206.281L181.462 204.234C181.462 204.234 186.827 207.625 188.547 208.231C190.269 208.835 195.89 208.678 195.89 208.678L196.339 210.351L190.092 212.079C190.092 212.079 180.818 209.216 180.159 213.748C179.95 215.2 176.906 215.696 176.906 215.696L174.345 206.55" fill="#333739"/>
<path fill-rule="evenodd" clip-rule="evenodd" d="M138.346 73.3001C138.391 73.3297 133.133 75.075 129.641 73.5133C126.354 72.0467 123.903 66.6477 123.953 66.646C125.453 66.5854 127.112 65.2943 128.456 56.7615L129.093 56.9937L139.802 60.8922C139.802 60.8922 138.994 64.308 138.461 67.5612C138.014 70.2931 137.762 72.9094 138.346 73.3001Z" fill="#FFDDC5"/>
<path opacity="0.1" fill-rule="evenodd" clip-rule="evenodd" d="M140.003 62.1223C140.003 62.1223 139.321 65.5564 138.889 68.831C133.251 67.5796 130.99 61.3719 130.17 58.0117L140.003 62.1223Z" fill="#333739"/>
<path fill-rule="evenodd" clip-rule="evenodd" d="M142.771 63.0022C142.771 63.0022 129.2 66.6925 127.325 58.4592C125.451 50.2252 122.436 45.1558 131.023 42.4518C139.608 39.7486 142.013 42.4572 143.328 45.0288C144.641 47.6012 146.253 61.83 142.771 63.0022Z" fill="#FFDDC5"/>
<path fill-rule="evenodd" clip-rule="evenodd" d="M146.086 116.641L126.899 121.924L172.389 207.25L181.606 204.277" fill="#333739"/>
<path fill-rule="evenodd" clip-rule="evenodd" d="M146.169 118.41L121.669 112.985L109.505 156.401L77.8262 159.266L78.5337 171.494C78.5337 171.494 116.339 170.297 120.172 168.004C124.006 165.711 146.169 118.41 146.169 118.41Z" fill="#333739"/>
<path fill-rule="evenodd" clip-rule="evenodd" d="M147.616 117.923C147.616 117.923 138.883 118.533 138.557 118.357C138.147 118.138 136.457 87.5824 136.458 87.6008L139.13 92.2037" fill="white"/>
<path fill-rule="evenodd" clip-rule="evenodd" d="M143.295 34.9382C147.858 38.3566 146.895 41.2712 142.774 42.3474C138.647 43.4282 132.532 44.4456 132.532 44.4456C132.532 44.4456 132.643 58.1906 131.623 55.0371C130.604 51.8859 132.378 51.0045 130.395 49.0859C128.416 47.1701 126.911 49.0024 127.143 50.6654C127.379 52.327 127.788 59.91 127.788 59.91C127.788 59.91 124.118 52.392 123.999 47.4284C123.885 42.4676 125.664 37.9402 131.129 37.7116C136.6 37.484 137.403 38.9707 140.584 37.7656C143.765 36.5627 143.295 34.9382 143.295 34.9382Z" fill="#333739"/>
<path fill-rule="evenodd" clip-rule="evenodd" d="M141.573 90.9604L137.625 86.8018C137.625 86.8018 140.033 116.985 140.148 118.77C140.261 120.555 139.786 122.192 138.714 124.893C137.644 127.596 135.645 127.994 133.638 129.263C131.629 130.53 114.534 129.067 114.534 129.067C114.534 129.067 110.526 115.981 114.557 94.6083C118.589 73.2371 124.506 65.0641 124.506 65.0641C133.022 69.9485 139.545 70.4437 139.545 70.4437L149.589 83.3681" fill="#FF6666"/>
<path fill-rule="evenodd" clip-rule="evenodd" d="M59.4627 211.857C61.3244 214.411 63.4699 216.761 66.1426 218.23C71.105 220.955 78.5186 219.339 81.4766 214.382C83.4911 214.527 85.5963 214.246 87.4044 213.735C90.9466 212.73 94.1077 210.734 97.6768 209.782C100.019 209.157 102.426 209.084 104.828 209.272C104.607 210.593 104.837 211.893 105.832 212.846C110.701 217.506 118.114 205.828 111.434 201.282C106.694 198.056 97.4569 201.09 89.0529 200.757C97.2991 195.616 100.48 184.145 99.782 174.435C99.4748 170.201 98.0227 166.248 97.3914 162.072C97.0204 159.617 97.0708 157.158 97.5442 154.723C97.8346 153.22 100.821 148.653 98.6539 147.536C95.063 145.687 92.852 155.151 92.5213 156.81C90.7854 165.524 92.6539 175.698 87.997 183.671C80.9578 195.725 71.4626 189.619 70.4772 184.628C73.4402 179.12 79.1699 173.825 82.3277 162.38C87.7133 142.861 75.2735 122.267 60.7688 117.517C39.4146 110.524 15.5507 130.383 18.6917 149.169C19.8098 155.844 24.1175 166.863 30.0134 174.27C32.3503 177.207 40.0945 183.716 39.841 187.383C39.5523 191.555 33.9905 192.933 30.7101 192.872C21.648 192.7 12.2082 186.275 3.59272 191.963C-1.42181 195.273 0.575935 203.285 6.44161 204.813C9.95027 205.726 11.9548 201.345 9.6246 198.486C13.3951 198.271 16.6553 201.066 19.9055 202.609C13.558 205.896 14.4058 215.893 20.2782 218.466C25.9524 220.952 32.0196 217.567 37.8433 218.813C40.2204 220.998 43.024 221.97 46.2708 221.443C51.9568 220.522 54.4414 216.003 55.5075 210.984C56.8505 211.152 58.17 211.441 59.4627 211.857Z" fill="#E62B31"/>
<mask id="mask0" style="mask-type:alpha" maskUnits="userSpaceOnUse" x="0" y="116" width="115" height="105">
<path fill-rule="evenodd" clip-rule="evenodd" d="M51.6812 116.07C54.7104 116.07 57.77 116.518 60.7807 117.491C75.3373 122.193 87.82 142.589 82.4151 161.918C79.246 173.253 73.4975 178.496 70.5222 183.951C71.5129 188.892 81.0404 194.938 88.1047 183.002C92.7783 175.107 90.9048 165.032 92.6469 156.402C92.9771 154.76 95.196 145.386 98.7997 147.219C100.975 148.323 97.9792 152.848 97.6861 154.335C97.2127 156.749 97.1621 159.18 97.5328 161.614C98.1696 165.747 99.6253 169.663 99.9319 173.857C100.634 183.471 97.4401 194.83 89.1644 199.923C92.1145 200.037 95.1656 199.746 98.0904 199.453C103.531 198.91 108.533 198.366 111.628 200.443C118.33 204.944 110.89 216.508 106.004 211.895C105.007 210.951 104.776 209.663 104.998 208.356C102.587 208.169 100.169 208.241 97.8209 208.861C94.2373 209.803 91.0649 211.779 87.51 212.775C85.6971 213.281 83.5827 213.559 81.5626 213.416C78.594 218.323 71.1523 219.925 66.1737 217.226C63.4899 215.772 61.3367 213.443 59.47 210.914C58.171 210.503 56.8484 210.217 55.5006 210.05C54.4291 215.022 51.9356 219.496 46.2292 220.408C42.9725 220.93 40.1572 219.967 37.7715 217.803C35.1955 217.26 32.5706 217.608 29.9524 217.955C26.635 218.396 23.3278 218.835 20.1452 217.46C14.2501 214.91 13.3993 205.012 19.7695 201.757C16.5094 200.229 13.2376 197.461 9.45185 197.674C11.7903 200.507 9.7804 204.844 6.25918 203.94C0.370834 202.425 -1.63239 194.492 3.3984 191.214C12.0447 185.581 21.5183 191.944 30.6128 192.114C33.9066 192.175 39.4866 190.81 39.7764 186.679C40.0325 183.047 32.2589 176.602 29.9153 173.694C23.9984 166.356 19.6735 155.446 18.5531 148.834C15.8423 132.845 33.1535 116.07 51.6795 116.07H51.6812Z" fill="white"/>
</mask>
<g mask="url(#mask0)">
<path fill-rule="evenodd" clip-rule="evenodd" d="M27.9649 144.367C28.0306 152.637 33.7303 159.346 38.5858 165.481C34.9315 165.4 34.3452 168.41 35.7453 171.261C37.2717 174.371 39.713 176.996 41.3287 180.079C44.4624 186.057 46.9963 198.849 43.8255 204.956C42.8635 206.808 40.6767 210.491 41.2579 212.68C41.9352 215.231 42.6428 219.149 47.8876 220.268C45.9568 221.145 43.8306 220.948 41.8847 220.234C37.917 218.779 24.1522 213.695 28.8309 213.087C35.5987 213.256 28.4602 206.989 26.1773 206.268C33.6258 208.274 34.3739 198.785 30.9335 197.004C35.2769 193.67 32.6655 191.351 29.2167 190.984C34.1868 191.722 35.5852 192.57 34.0521 186.686C33.2113 183.465 30.1956 180.542 27.8453 178.285C21.6537 172.345 17.3541 164.515 16.0838 156.167C14.987 148.96 19.9335 144.971 27.9649 144.367Z" fill="#BB1818"/>
</g>
<mask id="mask1" style="mask-type:alpha" maskUnits="userSpaceOnUse" x="0" y="116" width="115" height="105">
<path fill-rule="evenodd" clip-rule="evenodd" d="M51.6812 116.07C54.7104 116.07 57.77 116.518 60.7807 117.491C75.3373 122.193 87.82 142.589 82.4151 161.918C79.246 173.253 73.4975 178.496 70.5222 183.951C71.5129 188.892 81.0404 194.938 88.1047 183.002C92.7783 175.107 90.9048 165.032 92.6469 156.402C92.9771 154.76 95.196 145.386 98.7997 147.219C100.975 148.323 97.9792 152.848 97.6861 154.335C97.2127 156.749 97.1621 159.18 97.5328 161.614C98.1696 165.747 99.6253 169.663 99.9319 173.857C100.634 183.471 97.4401 194.83 89.1644 199.923C92.1145 200.037 95.1656 199.746 98.0904 199.453C103.531 198.91 108.533 198.366 111.628 200.443C118.33 204.944 110.89 216.508 106.004 211.895C105.007 210.951 104.776 209.663 104.998 208.356C102.587 208.169 100.169 208.241 97.8209 208.861C94.2373 209.803 91.0649 211.779 87.51 212.775C85.6971 213.281 83.5827 213.559 81.5626 213.416C78.594 218.323 71.1523 219.925 66.1737 217.226C63.4899 215.772 61.3367 213.443 59.47 210.914C58.171 210.503 56.8484 210.217 55.5006 210.05C54.4291 215.022 51.9356 219.496 46.2292 220.408C42.9725 220.93 40.1572 219.967 37.7715 217.803C35.1955 217.26 32.5706 217.608 29.9524 217.955C26.635 218.396 23.3278 218.835 20.1452 217.46C14.2501 214.91 13.3993 205.012 19.7695 201.757C16.5094 200.229 13.2376 197.461 9.45185 197.674C11.7903 200.507 9.7804 204.844 6.25918 203.94C0.370834 202.425 -1.63239 194.492 3.3984 191.214C12.0447 185.581 21.5183 191.944 30.6128 192.114C33.9066 192.175 39.4866 190.81 39.7764 186.679C40.0325 183.047 32.2589 176.602 29.9153 173.694C23.9984 166.356 19.6735 155.446 18.5531 148.834C15.8423 132.845 33.1535 116.07 51.6795 116.07H51.6812Z" fill="white"/>
</mask>
<g mask="url(#mask1)">
<path fill-rule="evenodd" clip-rule="evenodd" d="M112.526 210.277C111.938 210.808 111.043 211.065 110.273 211.144C106.152 211.565 104.776 205.708 108.053 204.785C106.998 204.702 105.962 204.527 104.899 204.535C100.475 204.572 96.1516 205.569 91.7779 206.075C88.8766 206.412 85.3773 207.036 82.5452 205.922C83.4061 209.266 82.1577 212.073 80.9008 215.122C83.0574 215.666 85.2981 215.991 87.4917 216.332C89.2187 216.602 90.9489 216.817 92.691 216.957C97.8819 217.372 103.598 217.382 108.51 215.415C110.412 214.655 112.408 212.618 112.526 210.277Z" fill="#BB1818"/>
</g>
<mask id="mask2" style="mask-type:alpha" maskUnits="userSpaceOnUse" x="0" y="116" width="115" height="105">
<path fill-rule="evenodd" clip-rule="evenodd" d="M51.6812 116.07C54.7104 116.07 57.77 116.518 60.7807 117.491C75.3373 122.193 87.82 142.589 82.4151 161.918C79.246 173.253 73.4975 178.496 70.5222 183.951C71.5129 188.892 81.0404 194.938 88.1047 183.002C92.7783 175.107 90.9048 165.032 92.6469 156.402C92.9771 154.76 95.196 145.386 98.7997 147.219C100.975 148.323 97.9792 152.848 97.6861 154.335C97.2127 156.749 97.1621 159.18 97.5328 161.614C98.1696 165.747 99.6253 169.663 99.9319 173.857C100.634 183.471 97.4401 194.83 89.1644 199.923C92.1145 200.037 95.1656 199.746 98.0904 199.453C103.531 198.91 108.533 198.366 111.628 200.443C118.33 204.944 110.89 216.508 106.004 211.895C105.007 210.951 104.776 209.663 104.998 208.356C102.587 208.169 100.169 208.241 97.8209 208.861C94.2373 209.803 91.0649 211.779 87.51 212.775C85.6971 213.281 83.5827 213.559 81.5626 213.416C78.594 218.323 71.1523 219.925 66.1737 217.226C63.4899 215.772 61.3367 213.443 59.47 210.914C58.171 210.503 56.8484 210.217 55.5006 210.05C54.4291 215.022 51.9356 219.496 46.2292 220.408C42.9725 220.93 40.1572 219.967 37.7715 217.803C35.1955 217.26 32.5706 217.608 29.9524 217.955C26.635 218.396 23.3278 218.835 20.1452 217.46C14.2501 214.91 13.3993 205.012 19.7695 201.757C16.5094 200.229 13.2376 197.461 9.45185 197.674C11.7903 200.507 9.7804 204.844 6.25918 203.94C0.370834 202.425 -1.63239 194.492 3.3984 191.214C12.0447 185.581 21.5183 191.944 30.6128 192.114C33.9066 192.175 39.4866 190.81 39.7764 186.679C40.0325 183.047 32.2589 176.602 29.9153 173.694C23.9984 166.356 19.6735 155.446 18.5531 148.834C15.8423 132.845 33.1535 116.07 51.6795 116.07H51.6812Z" fill="white"/>
</mask>
<g mask="url(#mask2)">
<path fill-rule="evenodd" clip-rule="evenodd" d="M26.9924 198.346C20.9609 197.875 15.6824 194.102 9.56157 194.141C7.37808 194.154 3.68333 194.979 3.62774 197.799C4.94524 195.324 8.19689 196.228 9.61886 198.038C11.7147 200.709 14.9175 201.961 17.9367 202.801C20.3661 200.867 23.5319 200.097 26.9924 198.346Z" fill="#BB1818"/>
</g>
<mask id="mask3" style="mask-type:alpha" maskUnits="userSpaceOnUse" x="0" y="116" width="115" height="105">
<path fill-rule="evenodd" clip-rule="evenodd" d="M51.6812 116.07C54.7104 116.07 57.77 116.518 60.7807 117.491C75.3373 122.193 87.82 142.589 82.4151 161.918C79.246 173.253 73.4975 178.496 70.5222 183.951C71.5129 188.892 81.0404 194.938 88.1047 183.002C92.7783 175.107 90.9048 165.032 92.6469 156.402C92.9771 154.76 95.196 145.386 98.7997 147.219C100.975 148.323 97.9792 152.848 97.6861 154.335C97.2127 156.749 97.1621 159.18 97.5328 161.614C98.1696 165.747 99.6253 169.663 99.9319 173.857C100.634 183.471 97.4401 194.83 89.1644 199.923C92.1145 200.037 95.1656 199.746 98.0904 199.453C103.531 198.91 108.533 198.366 111.628 200.443C118.33 204.944 110.89 216.508 106.004 211.895C105.007 210.951 104.776 209.663 104.998 208.356C102.587 208.169 100.169 208.241 97.8209 208.861C94.2373 209.803 91.0649 211.779 87.51 212.775C85.6971 213.281 83.5827 213.559 81.5626 213.416C78.594 218.323 71.1523 219.925 66.1737 217.226C63.4899 215.772 61.3367 213.443 59.47 210.914C58.171 210.503 56.8484 210.217 55.5006 210.05C54.4291 215.022 51.9356 219.496 46.2292 220.408C42.9725 220.93 40.1572 219.967 37.7715 217.803C35.1955 217.26 32.5706 217.608 29.9524 217.955C26.635 218.396 23.3278 218.835 20.1452 217.46C14.2501 214.91 13.3993 205.012 19.7695 201.757C16.5094 200.229 13.2376 197.461 9.45185 197.674C11.7903 200.507 9.7804 204.844 6.25918 203.94C0.370834 202.425 -1.63239 194.492 3.3984 191.214C12.0447 185.581 21.5183 191.944 30.6128 192.114C33.9066 192.175 39.4866 190.81 39.7764 186.679C40.0325 183.047 32.2589 176.602 29.9153 173.694C23.9984 166.356 19.6735 155.446 18.5531 148.834C15.8423 132.845 33.1535 116.07 51.6795 116.07H51.6812Z" fill="white"/>
</mask>
<g mask="url(#mask3)">
<path fill-rule="evenodd" clip-rule="evenodd" d="M36.5171 214.152C30.8309 211.544 19.4821 214.979 16.9061 207.936C16.3872 206.516 16.3349 205.067 16.8437 203.633C11.1744 207.795 11.6108 217.479 18.1831 220.34C25.6704 223.598 33.54 219.95 41.2581 221.207C39.6238 219.435 37.9171 216.123 36.5171 214.152Z" fill="#BB1818"/>
</g>
<mask id="mask4" style="mask-type:alpha" maskUnits="userSpaceOnUse" x="0" y="116" width="115" height="105">
<path fill-rule="evenodd" clip-rule="evenodd" d="M51.6812 116.07C54.7104 116.07 57.77 116.518 60.7807 117.491C75.3373 122.193 87.82 142.589 82.4151 161.918C79.246 173.253 73.4975 178.496 70.5222 183.951C71.5129 188.892 81.0404 194.938 88.1047 183.002C92.7783 175.107 90.9048 165.032 92.6469 156.402C92.9771 154.76 95.196 145.386 98.7997 147.219C100.975 148.323 97.9792 152.848 97.6861 154.335C97.2127 156.749 97.1621 159.18 97.5328 161.614C98.1696 165.747 99.6253 169.663 99.9319 173.857C100.634 183.471 97.4401 194.83 89.1644 199.923C92.1145 200.037 95.1656 199.746 98.0904 199.453C103.531 198.91 108.533 198.366 111.628 200.443C118.33 204.944 110.89 216.508 106.004 211.895C105.007 210.951 104.776 209.663 104.998 208.356C102.587 208.169 100.169 208.241 97.8209 208.861C94.2373 209.803 91.0649 211.779 87.51 212.775C85.6971 213.281 83.5827 213.559 81.5626 213.416C78.594 218.323 71.1523 219.925 66.1737 217.226C63.4899 215.772 61.3367 213.443 59.47 210.914C58.171 210.503 56.8484 210.217 55.5006 210.05C54.4291 215.022 51.9356 219.496 46.2292 220.408C42.9725 220.93 40.1572 219.967 37.7715 217.803C35.1955 217.26 32.5706 217.608 29.9524 217.955C26.635 218.396 23.3278 218.835 20.1452 217.46C14.2501 214.91 13.3993 205.012 19.7695 201.757C16.5094 200.229 13.2376 197.461 9.45185 197.674C11.7903 200.507 9.7804 204.844 6.25918 203.94C0.370834 202.425 -1.63239 194.492 3.3984 191.214C12.0447 185.581 21.5183 191.944 30.6128 192.114C33.9066 192.175 39.4866 190.81 39.7764 186.679C40.0325 183.047 32.2589 176.602 29.9153 173.694C23.9984 166.356 19.6735 155.446 18.5531 148.834C15.8423 132.845 33.1535 116.07 51.6795 116.07H51.6812Z" fill="white"/>
</mask>
<g mask="url(#mask4)">
<path fill-rule="evenodd" clip-rule="evenodd" d="M34.6168 166.672C49.1683 170.433 55.3616 194.293 62.8404 205.598C66.5823 211.253 73.7596 218.488 81.1238 214.181C78.0507 219.433 71.3638 222.311 65.7416 218.981C63.5632 217.69 62.308 215.665 60.4682 214.021C58.925 212.64 56.1535 214.75 54.3524 213.755C55.3498 209.186 54.5142 204.836 52.7047 199.301C51.0839 194.338 49.1464 188.192 48.4742 186.531C43.4939 174.221 35.813 168.717 34.6168 166.672Z" fill="#BB1818"/>
</g>
<mask id="mask5" style="mask-type:alpha" maskUnits="userSpaceOnUse" x="0" y="116" width="115" height="105">
<path fill-rule="evenodd" clip-rule="evenodd" d="M51.6812 116.07C54.7104 116.07 57.77 116.518 60.7807 117.491C75.3373 122.193 87.82 142.589 82.4151 161.918C79.246 173.253 73.4975 178.496 70.5222 183.951C71.5129 188.892 81.0404 194.938 88.1047 183.002C92.7783 175.107 90.9048 165.032 92.6469 156.402C92.9771 154.76 95.196 145.386 98.7997 147.219C100.975 148.323 97.9792 152.848 97.6861 154.335C97.2127 156.749 97.1621 159.18 97.5328 161.614C98.1696 165.747 99.6253 169.663 99.9319 173.857C100.634 183.471 97.4401 194.83 89.1644 199.923C92.1145 200.037 95.1656 199.746 98.0904 199.453C103.531 198.91 108.533 198.366 111.628 200.443C118.33 204.944 110.89 216.508 106.004 211.895C105.007 210.951 104.776 209.663 104.998 208.356C102.587 208.169 100.169 208.241 97.8209 208.861C94.2373 209.803 91.0649 211.779 87.51 212.775C85.6971 213.281 83.5827 213.559 81.5626 213.416C78.594 218.323 71.1523 219.925 66.1737 217.226C63.4899 215.772 61.3367 213.443 59.47 210.914C58.171 210.503 56.8484 210.217 55.5006 210.05C54.4291 215.022 51.9356 219.496 46.2292 220.408C42.9725 220.93 40.1572 219.967 37.7715 217.803C35.1955 217.26 32.5706 217.608 29.9524 217.955C26.635 218.396 23.3278 218.835 20.1452 217.46C14.2501 214.91 13.3993 205.012 19.7695 201.757C16.5094 200.229 13.2376 197.461 9.45185 197.674C11.7903 200.507 9.7804 204.844 6.25918 203.94C0.370834 202.425 -1.63239 194.492 3.3984 191.214C12.0447 185.581 21.5183 191.944 30.6128 192.114C33.9066 192.175 39.4866 190.81 39.7764 186.679C40.0325 183.047 32.2589 176.602 29.9153 173.694C23.9984 166.356 19.6735 155.446 18.5531 148.834C15.8423 132.845 33.1535 116.07 51.6795 116.07H51.6812Z" fill="white"/>
</mask>
<g mask="url(#mask5)">
<path fill-rule="evenodd" clip-rule="evenodd" d="M70.5222 187.633C72.827 192.786 81.4851 199.108 88.5124 198.055C96.1664 196.907 99.1788 189.248 100.564 182.074C99.9134 188.124 99.0221 195.386 93.2804 198.657C85.9852 202.814 73.9811 195.843 70.5222 187.633Z" fill="#BB1818"/>
</g>
<mask id="mask6" style="mask-type:alpha" maskUnits="userSpaceOnUse" x="0" y="116" width="115" height="105">
<path fill-rule="evenodd" clip-rule="evenodd" d="M51.6812 116.07C54.7104 116.07 57.77 116.518 60.7807 117.491C75.3373 122.193 87.82 142.589 82.4151 161.918C79.246 173.253 73.4975 178.496 70.5222 183.951C71.5129 188.892 81.0404 194.938 88.1047 183.002C92.7783 175.107 90.9048 165.032 92.6469 156.402C92.9771 154.76 95.196 145.386 98.7997 147.219C100.975 148.323 97.9792 152.848 97.6861 154.335C97.2127 156.749 97.1621 159.18 97.5328 161.614C98.1696 165.747 99.6253 169.663 99.9319 173.857C100.634 183.471 97.4401 194.83 89.1644 199.923C92.1145 200.037 95.1656 199.746 98.0904 199.453C103.531 198.91 108.533 198.366 111.628 200.443C118.33 204.944 110.89 216.508 106.004 211.895C105.007 210.951 104.776 209.663 104.998 208.356C102.587 208.169 100.169 208.241 97.8209 208.861C94.2373 209.803 91.0649 211.779 87.51 212.775C85.6971 213.281 83.5827 213.559 81.5626 213.416C78.594 218.323 71.1523 219.925 66.1737 217.226C63.4899 215.772 61.3367 213.443 59.47 210.914C58.171 210.503 56.8484 210.217 55.5006 210.05C54.4291 215.022 51.9356 219.496 46.2292 220.408C42.9725 220.93 40.1572 219.967 37.7715 217.803C35.1955 217.26 32.5706 217.608 29.9524 217.955C26.635 218.396 23.3278 218.835 20.1452 217.46C14.2501 214.91 13.3993 205.012 19.7695 201.757C16.5094 200.229 13.2376 197.461 9.45185 197.674C11.7903 200.507 9.7804 204.844 6.25918 203.94C0.370834 202.425 -1.63239 194.492 3.3984 191.214C12.0447 185.581 21.5183 191.944 30.6128 192.114C33.9066 192.175 39.4866 190.81 39.7764 186.679C40.0325 183.047 32.2589 176.602 29.9153 173.694C23.9984 166.356 19.6735 155.446 18.5531 148.834C15.8423 132.845 33.1535 116.07 51.6795 116.07H51.6812Z" fill="white"/>
</mask>
<g mask="url(#mask6)">
<path fill-rule="evenodd" clip-rule="evenodd" d="M96.3996 147.617C91.8625 155.205 93.4411 166.445 92.7352 175.03C92.4538 178.451 91.9736 181.85 90.1676 184.846C85.9219 191.89 77.1407 190.694 74.4451 182.076C76.2529 183.114 77.3682 185.446 79.2905 184.627C85.5108 181.976 86.4088 175.57 87.3573 169.67C87.8358 166.684 91.608 150.789 96.3996 147.617Z" fill="#BB1818"/>
</g>
<mask id="mask7" style="mask-type:alpha" maskUnits="userSpaceOnUse" x="0" y="116" width="115" height="105">
<path fill-rule="evenodd" clip-rule="evenodd" d="M51.6812 116.07C54.7104 116.07 57.77 116.518 60.7807 117.491C75.3373 122.193 87.82 142.589 82.4151 161.918C79.246 173.253 73.4975 178.496 70.5222 183.951C71.5129 188.892 81.0404 194.938 88.1047 183.002C92.7783 175.107 90.9048 165.032 92.6469 156.402C92.9771 154.76 95.196 145.386 98.7997 147.219C100.975 148.323 97.9792 152.848 97.6861 154.335C97.2127 156.749 97.1621 159.18 97.5328 161.614C98.1696 165.747 99.6253 169.663 99.9319 173.857C100.634 183.471 97.4401 194.83 89.1644 199.923C92.1145 200.037 95.1656 199.746 98.0904 199.453C103.531 198.91 108.533 198.366 111.628 200.443C118.33 204.944 110.89 216.508 106.004 211.895C105.007 210.951 104.776 209.663 104.998 208.356C102.587 208.169 100.169 208.241 97.8209 208.861C94.2373 209.803 91.0649 211.779 87.51 212.775C85.6971 213.281 83.5827 213.559 81.5626 213.416C78.594 218.323 71.1523 219.925 66.1737 217.226C63.4899 215.772 61.3367 213.443 59.47 210.914C58.171 210.503 56.8484 210.217 55.5006 210.05C54.4291 215.022 51.9356 219.496 46.2292 220.408C42.9725 220.93 40.1572 219.967 37.7715 217.803C35.1955 217.26 32.5706 217.608 29.9524 217.955C26.635 218.396 23.3278 218.835 20.1452 217.46C14.2501 214.91 13.3993 205.012 19.7695 201.757C16.5094 200.229 13.2376 197.461 9.45185 197.674C11.7903 200.507 9.7804 204.844 6.25918 203.94C0.370834 202.425 -1.63239 194.492 3.3984 191.214C12.0447 185.581 21.5183 191.944 30.6128 192.114C33.9066 192.175 39.4866 190.81 39.7764 186.679C40.0325 183.047 32.2589 176.602 29.9153 173.694C23.9984 166.356 19.6735 155.446 18.5531 148.834C15.8423 132.845 33.1535 116.07 51.6795 116.07H51.6812Z" fill="white"/>
</mask>
<g mask="url(#mask7)">
<path fill-rule="evenodd" clip-rule="evenodd" d="M80.1423 168.307C74.687 180.648 69.0665 182.898 70.5508 187.819C71.2062 189.994 73.4723 192.483 74.9094 194.141C79.9654 199.964 86.7888 207.996 80.0648 215.28C82.2247 209.558 81.6721 204.577 77.5831 200.024C74.5101 196.601 69.6124 192.169 68.4566 187.199C67.5654 183.356 72.3283 179.493 76.1241 172.536C81.6165 162.466 82.7403 154.846 82.6173 146.255C82.5465 141.198 80.8314 136.166 78.6176 131.703C83.9331 140.54 86.5513 150.74 85.0636 161.036C84.6711 163.758 81.261 165.776 80.1423 168.307Z" fill="#F190AE"/>
</g>
<mask id="mask8" style="mask-type:alpha" maskUnits="userSpaceOnUse" x="0" y="116" width="115" height="105">
<path fill-rule="evenodd" clip-rule="evenodd" d="M51.6812 116.07C54.7104 116.07 57.77 116.518 60.7807 117.491C75.3373 122.193 87.82 142.589 82.4151 161.918C79.246 173.253 73.4975 178.496 70.5222 183.951C71.5129 188.892 81.0404 194.938 88.1047 183.002C92.7783 175.107 90.9048 165.032 92.6469 156.402C92.9771 154.76 95.196 145.386 98.7997 147.219C100.975 148.323 97.9792 152.848 97.6861 154.335C97.2127 156.749 97.1621 159.18 97.5328 161.614C98.1696 165.747 99.6253 169.663 99.9319 173.857C100.634 183.471 97.4401 194.83 89.1644 199.923C92.1145 200.037 95.1656 199.746 98.0904 199.453C103.531 198.91 108.533 198.366 111.628 200.443C118.33 204.944 110.89 216.508 106.004 211.895C105.007 210.951 104.776 209.663 104.998 208.356C102.587 208.169 100.169 208.241 97.8209 208.861C94.2373 209.803 91.0649 211.779 87.51 212.775C85.6971 213.281 83.5827 213.559 81.5626 213.416C78.594 218.323 71.1523 219.925 66.1737 217.226C63.4899 215.772 61.3367 213.443 59.47 210.914C58.171 210.503 56.8484 210.217 55.5006 210.05C54.4291 215.022 51.9356 219.496 46.2292 220.408C42.9725 220.93 40.1572 219.967 37.7715 217.803C35.1955 217.26 32.5706 217.608 29.9524 217.955C26.635 218.396 23.3278 218.835 20.1452 217.46C14.2501 214.91 13.3993 205.012 19.7695 201.757C16.5094 200.229 13.2376 197.461 9.45185 197.674C11.7903 200.507 9.7804 204.844 6.25918 203.94C0.370834 202.425 -1.63239 194.492 3.3984 191.214C12.0447 185.581 21.5183 191.944 30.6128 192.114C33.9066 192.175 39.4866 190.81 39.7764 186.679C40.0325 183.047 32.2589 176.602 29.9153 173.694C23.9984 166.356 19.6735 155.446 18.5531 148.834C15.8423 132.845 33.1535 116.07 51.6795 116.07H51.6812Z" fill="white"/>
</mask>
<g mask="url(#mask8)">
<path fill-rule="evenodd" clip-rule="evenodd" d="M99.9139 147.453C92.1201 155.605 96.6084 164.381 97.6462 174.071C98.4667 181.728 97.1846 191.272 92.3442 197.618C95.4021 195.514 97.7068 192.768 99.6073 189.599C105.721 179.409 102.111 171.506 101.243 160.847C100.933 157.032 100.327 151.285 99.9139 147.453Z" fill="#F190AE"/>
</g>
<mask id="mask9" style="mask-type:alpha" maskUnits="userSpaceOnUse" x="0" y="116" width="115" height="105">
<path fill-rule="evenodd" clip-rule="evenodd" d="M51.6812 116.07C54.7104 116.07 57.77 116.518 60.7807 117.491C75.3373 122.193 87.82 142.589 82.4151 161.918C79.246 173.253 73.4975 178.496 70.5222 183.951C71.5129 188.892 81.0404 194.938 88.1047 183.002C92.7783 175.107 90.9048 165.032 92.6469 156.402C92.9771 154.76 95.196 145.386 98.7997 147.219C100.975 148.323 97.9792 152.848 97.6861 154.335C97.2127 156.749 97.1621 159.18 97.5328 161.614C98.1696 165.747 99.6253 169.663 99.9319 173.857C100.634 183.471 97.4401 194.83 89.1644 199.923C92.1145 200.037 95.1656 199.746 98.0904 199.453C103.531 198.91 108.533 198.366 111.628 200.443C118.33 204.944 110.89 216.508 106.004 211.895C105.007 210.951 104.776 209.663 104.998 208.356C102.587 208.169 100.169 208.241 97.8209 208.861C94.2373 209.803 91.0649 211.779 87.51 212.775C85.6971 213.281 83.5827 213.559 81.5626 213.416C78.594 218.323 71.1523 219.925 66.1737 217.226C63.4899 215.772 61.3367 213.443 59.47 210.914C58.171 210.503 56.8484 210.217 55.5006 210.05C54.4291 215.022 51.9356 219.496 46.2292 220.408C42.9725 220.93 40.1572 219.967 37.7715 217.803C35.1955 217.26 32.5706 217.608 29.9524 217.955C26.635 218.396 23.3278 218.835 20.1452 217.46C14.2501 214.91 13.3993 205.012 19.7695 201.757C16.5094 200.229 13.2376 197.461 9.45185 197.674C11.7903 200.507 9.7804 204.844 6.25918 203.94C0.370834 202.425 -1.63239 194.492 3.3984 191.214C12.0447 185.581 21.5183 191.944 30.6128 192.114C33.9066 192.175 39.4866 190.81 39.7764 186.679C40.0325 183.047 32.2589 176.602 29.9153 173.694C23.9984 166.356 19.6735 155.446 18.5531 148.834C15.8423 132.845 33.1535 116.07 51.6795 116.07H51.6812Z" fill="white"/>
</mask>
<g mask="url(#mask9)">
<path fill-rule="evenodd" clip-rule="evenodd" d="M77.5798 197.004C83.6787 202.105 89.6446 202.475 97.2969 201.326C100.313 200.873 103.313 200.343 106.376 200.673C112.425 201.322 114.546 206.416 112.32 211.714C116.411 206.504 115.884 199.252 108.646 197.928C105.428 197.339 100.865 199.032 97.6777 199.493C89.6244 200.657 85.1293 200.122 77.5798 197.004Z" fill="#F190AE"/>
</g>
<mask id="mask10" style="mask-type:alpha" maskUnits="userSpaceOnUse" x="0" y="116" width="115" height="105">
<path fill-rule="evenodd" clip-rule="evenodd" d="M51.6812 116.07C54.7104 116.07 57.77 116.518 60.7807 117.491C75.3373 122.193 87.82 142.589 82.4151 161.918C79.246 173.253 73.4975 178.496 70.5222 183.951C71.5129 188.892 81.0404 194.938 88.1047 183.002C92.7783 175.107 90.9048 165.032 92.6469 156.402C92.9771 154.76 95.196 145.386 98.7997 147.219C100.975 148.323 97.9792 152.848 97.6861 154.335C97.2127 156.749 97.1621 159.18 97.5328 161.614C98.1696 165.747 99.6253 169.663 99.9319 173.857C100.634 183.471 97.4401 194.83 89.1644 199.923C92.1145 200.037 95.1656 199.746 98.0904 199.453C103.531 198.91 108.533 198.366 111.628 200.443C118.33 204.944 110.89 216.508 106.004 211.895C105.007 210.951 104.776 209.663 104.998 208.356C102.587 208.169 100.169 208.241 97.8209 208.861C94.2373 209.803 91.0649 211.779 87.51 212.775C85.6971 213.281 83.5827 213.559 81.5626 213.416C78.594 218.323 71.1523 219.925 66.1737 217.226C63.4899 215.772 61.3367 213.443 59.47 210.914C58.171 210.503 56.8484 210.217 55.5006 210.05C54.4291 215.022 51.9356 219.496 46.2292 220.408C42.9725 220.93 40.1572 219.967 37.7715 217.803C35.1955 217.26 32.5706 217.608 29.9524 217.955C26.635 218.396 23.3278 218.835 20.1452 217.46C14.2501 214.91 13.3993 205.012 19.7695 201.757C16.5094 200.229 13.2376 197.461 9.45185 197.674C11.7903 200.507 9.7804 204.844 6.25918 203.94C0.370834 202.425 -1.63239 194.492 3.3984 191.214C12.0447 185.581 21.5183 191.944 30.6128 192.114C33.9066 192.175 39.4866 190.81 39.7764 186.679C40.0325 183.047 32.2589 176.602 29.9153 173.694C23.9984 166.356 19.6735 155.446 18.5531 148.834C15.8423 132.845 33.1535 116.07 51.6795 116.07H51.6812Z" fill="white"/>
</mask>
<g mask="url(#mask10)">
<path fill-rule="evenodd" clip-rule="evenodd" d="M72.286 149.828C72.4831 151.146 73.1334 152.442 74.0567 153.409C74.2841 153.275 74.953 153.024 75.1788 152.883C74.4981 152.257 72.7796 150.621 72.286 149.828Z" fill="#F190AE"/>
</g>
<mask id="mask11" style="mask-type:alpha" maskUnits="userSpaceOnUse" x="0" y="116" width="115" height="105">
<path fill-rule="evenodd" clip-rule="evenodd" d="M51.6812 116.07C54.7104 116.07 57.77 116.518 60.7807 117.491C75.3373 122.193 87.82 142.589 82.4151 161.918C79.246 173.253 73.4975 178.496 70.5222 183.951C71.5129 188.892 81.0404 194.938 88.1047 183.002C92.7783 175.107 90.9048 165.032 92.6469 156.402C92.9771 154.76 95.196 145.386 98.7997 147.219C100.975 148.323 97.9792 152.848 97.6861 154.335C97.2127 156.749 97.1621 159.18 97.5328 161.614C98.1696 165.747 99.6253 169.663 99.9319 173.857C100.634 183.471 97.4401 194.83 89.1644 199.923C92.1145 200.037 95.1656 199.746 98.0904 199.453C103.531 198.91 108.533 198.366 111.628 200.443C118.33 204.944 110.89 216.508 106.004 211.895C105.007 210.951 104.776 209.663 104.998 208.356C102.587 208.169 100.169 208.241 97.8209 208.861C94.2373 209.803 91.0649 211.779 87.51 212.775C85.6971 213.281 83.5827 213.559 81.5626 213.416C78.594 218.323 71.1523 219.925 66.1737 217.226C63.4899 215.772 61.3367 213.443 59.47 210.914C58.171 210.503 56.8484 210.217 55.5006 210.05C54.4291 215.022 51.9356 219.496 46.2292 220.408C42.9725 220.93 40.1572 219.967 37.7715 217.803C35.1955 217.26 32.5706 217.608 29.9524 217.955C26.635 218.396 23.3278 218.835 20.1452 217.46C14.2501 214.91 13.3993 205.012 19.7695 201.757C16.5094 200.229 13.2376 197.461 9.45185 197.674C11.7903 200.507 9.7804 204.844 6.25918 203.94C0.370834 202.425 -1.63239 194.492 3.3984 191.214C12.0447 185.581 21.5183 191.944 30.6128 192.114C33.9066 192.175 39.4866 190.81 39.7764 186.679C40.0325 183.047 32.2589 176.602 29.9153 173.694C23.9984 166.356 19.6735 155.446 18.5531 148.834C15.8423 132.845 33.1535 116.07 51.6795 116.07H51.6812Z" fill="white"/>
</mask>
<g mask="url(#mask11)">
<path fill-rule="evenodd" clip-rule="evenodd" d="M31.4167 192.091C22.2666 194.703 11.5732 185.895 3.28403 192.18C2.26641 192.953 1.15108 193.856 0.54624 195.013C1.12244 191.474 5.18953 189.237 8.33166 188.47C15.9351 186.612 24.103 190.63 31.4167 192.091Z" fill="#F190AE"/>
</g>
<mask id="mask12" style="mask-type:alpha" maskUnits="userSpaceOnUse" x="0" y="116" width="115" height="105">
<path fill-rule="evenodd" clip-rule="evenodd" d="M51.6812 116.07C54.7104 116.07 57.77 116.518 60.7807 117.491C75.3373 122.193 87.82 142.589 82.4151 161.918C79.246 173.253 73.4975 178.496 70.5222 183.951C71.5129 188.892 81.0404 194.938 88.1047 183.002C92.7783 175.107 90.9048 165.032 92.6469 156.402C92.9771 154.76 95.196 145.386 98.7997 147.219C100.975 148.323 97.9792 152.848 97.6861 154.335C97.2127 156.749 97.1621 159.18 97.5328 161.614C98.1696 165.747 99.6253 169.663 99.9319 173.857C100.634 183.471 97.4401 194.83 89.1644 199.923C92.1145 200.037 95.1656 199.746 98.0904 199.453C103.531 198.91 108.533 198.366 111.628 200.443C118.33 204.944 110.89 216.508 106.004 211.895C105.007 210.951 104.776 209.663 104.998 208.356C102.587 208.169 100.169 208.241 97.8209 208.861C94.2373 209.803 91.0649 211.779 87.51 212.775C85.6971 213.281 83.5827 213.559 81.5626 213.416C78.594 218.323 71.1523 219.925 66.1737 217.226C63.4899 215.772 61.3367 213.443 59.47 210.914C58.171 210.503 56.8484 210.217 55.5006 210.05C54.4291 215.022 51.9356 219.496 46.2292 220.408C42.9725 220.93 40.1572 219.967 37.7715 217.803C35.1955 217.26 32.5706 217.608 29.9524 217.955C26.635 218.396 23.3278 218.835 20.1452 217.46C14.2501 214.91 13.3993 205.012 19.7695 201.757C16.5094 200.229 13.2376 197.461 9.45185 197.674C11.7903 200.507 9.7804 204.844 6.25918 203.94C0.370834 202.425 -1.63239 194.492 3.3984 191.214C12.0447 185.581 21.5183 191.944 30.6128 192.114C33.9066 192.175 39.4866 190.81 39.7764 186.679C40.0325 183.047 32.2589 176.602 29.9153 173.694C23.9984 166.356 19.6735 155.446 18.5531 148.834C15.8423 132.845 33.1535 116.07 51.6795 116.07H51.6812Z" fill="white"/>
</mask>
<g mask="url(#mask12)">
<path fill-rule="evenodd" clip-rule="evenodd" d="M72.1273 200.753C64.8339 199.93 60.5831 189.348 55.4833 180.508C53.6502 177.331 50.6311 173.383 47.8309 170.996C44.1227 167.836 38.0777 163.768 35.1781 166.124C40.3622 164.95 49.787 174.012 54.314 180.994C56.3627 184.158 58.0711 188.483 60.2108 191.588C62.2292 194.516 67.6862 201.895 72.1273 200.753Z" fill="#F190AE"/>
</g>
<path fill-rule="evenodd" clip-rule="evenodd" d="M59.4691 210.916C61.3376 213.445 63.4907 215.773 66.1729 217.227C71.1532 219.926 78.5932 218.326 81.5618 213.417C83.5836 213.56 85.6963 213.282 87.5108 212.775C91.0657 211.781 94.2382 209.803 97.82 208.861C100.17 208.242 102.586 208.169 104.997 208.356C104.775 209.664 105.006 210.951 106.005 211.895C110.891 216.51 118.331 204.945 111.627 200.443C106.869 197.249 97.5993 200.253 89.1653 199.923C97.441 194.833 100.634 183.473 99.9328 173.857C99.6245 169.664 98.1671 165.749 97.5336 161.614C97.1613 159.183 97.2118 156.748 97.687 154.336C97.9784 152.848 100.976 148.325 98.8006 147.219C95.1968 145.388 92.978 154.76 92.6461 156.403C90.904 165.032 92.7792 175.108 88.1055 183.004C81.0412 194.94 71.512 188.894 70.523 183.951C73.4967 178.497 79.2469 173.253 82.416 161.919C87.8208 142.59 75.3365 122.195 60.7799 117.491C39.3493 110.566 15.4 130.232 18.5523 148.836C19.6743 155.447 23.9975 166.358 29.9145 173.694C32.2597 176.602 40.0317 183.047 39.7773 186.679C39.4875 190.811 33.9058 192.175 30.6137 192.115C21.5192 191.945 12.0456 185.582 3.39924 191.214C-1.63323 194.493 0.371666 202.427 6.25833 203.94C9.77955 204.844 11.7912 200.506 9.4527 197.675C13.2367 197.461 16.5086 200.23 19.7704 201.758C13.4002 205.012 14.251 214.913 20.1444 217.461C25.839 219.923 31.9278 216.57 37.7724 217.804C40.158 219.968 42.9716 220.931 46.23 220.409C51.9364 219.497 54.4299 215.022 55.4998 210.051C56.8476 210.217 58.1718 210.504 59.4691 210.916Z" stroke="#333739" stroke-width="0.39" stroke-linecap="round" stroke-linejoin="round"/>
<path fill-rule="evenodd" clip-rule="evenodd" d="M51.064 155.153C51.064 164.247 58.7888 175.438 66.8455 175.995C72.7709 176.406 72.7305 161.933 73.0186 153.891C65.0259 156.381 56.6828 155.464 51.064 155.153Z" fill="#333739"/>
<mask id="mask13" style="mask-type:alpha" maskUnits="userSpaceOnUse" x="52" y="153" width="22" height="23">
<path fill-rule="evenodd" clip-rule="evenodd" d="M67.7754 175.573C59.7349 175.016 52.0225 163.827 52.0225 154.731C57.6311 155.042 65.9574 155.959 73.9356 153.469C73.648 161.511 73.6884 175.984 67.7754 175.573Z" fill="white"/>
</mask>
<g mask="url(#mask13)">
<path fill-rule="evenodd" clip-rule="evenodd" d="M50.9118 158.67C55.0472 152.61 64.0614 158.87 67.625 164.219C69.5119 167.049 71.5872 173.143 69.4144 176.923C65.4421 183.834 56.0445 175.014 52.8122 169.883C51.3591 167.576 48.7911 161.778 50.9118 158.67Z" fill="#F190AE"/>
</g>
<mask id="mask14" style="mask-type:alpha" maskUnits="userSpaceOnUse" x="52" y="153" width="22" height="23">
<path fill-rule="evenodd" clip-rule="evenodd" d="M67.7754 175.573C59.7349 175.016 52.0225 163.827 52.0225 154.731C57.6311 155.042 65.9574 155.959 73.9356 153.469C73.648 161.511 73.6884 175.984 67.7754 175.573Z" fill="white"/>
</mask>
<g mask="url(#mask14)">
<path fill-rule="evenodd" clip-rule="evenodd" d="M50.6441 158.486C52.526 155.724 55.3664 155.371 58.2927 156.34C62.0009 157.567 65.8454 160.948 67.9022 164.033C69.0676 165.785 70.3071 168.76 70.6031 171.691C70.7998 173.627 70.5829 175.54 69.6932 177.083C67.8416 180.283 64.9003 180.313 61.8899 178.835C58.2103 177.026 54.4314 172.927 52.6134 170.009C51.7356 168.597 50.4558 165.902 50.0488 163.297C49.7763 161.549 49.8991 159.842 50.7736 158.575L50.6441 158.486ZM51.0494 158.764C50.2371 159.97 50.1564 161.588 50.4339 163.237C50.8594 165.775 52.1392 168.39 53.0103 169.758C54.8148 172.592 58.5382 176.564 62.1489 178.302C64.8515 179.604 67.4969 179.635 69.1366 176.762C69.9573 175.33 70.1338 173.553 69.9489 171.759C69.6596 168.943 68.4706 166.084 67.3489 164.403C65.3644 161.424 61.6629 158.153 58.0858 156.966C55.4488 156.091 52.8791 156.367 51.1806 158.853L51.0494 158.764Z" fill="#333739"/>
</g>
<mask id="mask15" style="mask-type:alpha" maskUnits="userSpaceOnUse" x="52" y="153" width="22" height="23">
<path fill-rule="evenodd" clip-rule="evenodd" d="M67.7754 175.573C59.7349 175.016 52.0225 163.827 52.0225 154.731C57.6311 155.042 65.9574 155.959 73.9356 153.469C73.648 161.511 73.6884 175.984 67.7754 175.573Z" fill="white"/>
</mask>
<g mask="url(#mask15)">
<path fill-rule="evenodd" clip-rule="evenodd" d="M48.9262 151.813C54.6542 153.648 67.9619 154.509 72.9852 150.688C72.8204 157.693 66.719 159.597 61.3257 159.428C57.9117 159.321 51.8322 157.904 49.8024 156.509C48.3123 155.485 50.0193 153.39 48.9262 151.813Z" fill="white"/>
</g>
<mask id="mask16" style="mask-type:alpha" maskUnits="userSpaceOnUse" x="52" y="153" width="22" height="23">
<path fill-rule="evenodd" clip-rule="evenodd" d="M67.7754 175.573C59.7349 175.016 52.0225 163.827 52.0225 154.731C57.6311 155.042 65.9574 155.959 73.9356 153.469C73.648 161.511 73.6884 175.984 67.7754 175.573Z" fill="white"/>
</mask>
<g mask="url(#mask16)">
<path fill-rule="evenodd" clip-rule="evenodd" d="M48.932 152.157C49.2313 152.776 49.1489 153.458 49.0631 154.109C48.9858 154.707 48.9051 155.281 49.0396 155.772C49.1338 156.117 49.3272 156.423 49.6887 156.676C50.5885 157.303 52.2803 157.945 54.1891 158.471C56.6125 159.141 59.3874 159.631 61.318 159.701C64.1349 159.804 67.1419 159.345 69.4324 157.919C71.6591 156.536 73.2214 154.249 73.3139 150.696C73.3173 150.57 73.2466 150.452 73.134 150.395C73.023 150.338 72.8867 150.35 72.7858 150.427C70.7425 151.98 67.2983 152.724 63.5716 152.96C58.2505 153.293 52.3493 152.568 49.0245 151.506H48.9774C48.9084 151.462 48.8344 151.509 48.7924 151.622C48.7487 151.735 48.7487 151.886 48.789 152.001V151.91C48.8193 151.955 48.8479 152.001 48.8731 152.046L48.8277 152.124L48.932 152.157ZM72.6226 151.337C72.3889 154.257 71.0149 156.184 69.1027 157.392C66.9148 158.774 64.034 159.228 61.3348 159.156C59.7354 159.116 57.5458 158.786 55.4655 158.308C53.1531 157.776 50.9769 157.064 49.9157 156.344C49.6382 156.157 49.4886 155.928 49.4129 155.668C49.2531 155.112 49.4095 154.439 49.4701 153.752C49.5138 153.256 49.5138 152.756 49.3506 152.283C52.8016 153.28 58.4724 153.946 63.6119 153.625C67.1654 153.401 70.4633 152.699 72.6226 151.337Z" fill="#333739"/>
</g>
<path fill-rule="evenodd" clip-rule="evenodd" d="M50.3655 155.099C50.3655 164.231 58.0467 175.468 66.0578 176.027C71.9498 176.439 71.9096 161.907 72.196 153.832C64.2485 156.333 55.9526 155.412 50.3655 155.099Z" stroke="#333739" stroke-width="0.39" stroke-linecap="round" stroke-linejoin="round"/>
<path fill-rule="evenodd" clip-rule="evenodd" d="M73.8587 152.708C73.656 152.835 73.4533 152.95 73.2422 153.054C72.8837 153.233 72.5051 153.385 72.093 153.521C71.9221 153.578 71.8283 153.764 71.8852 153.936C71.9405 154.109 72.1265 154.203 72.2974 154.148C72.7413 153.999 73.1467 153.835 73.532 153.641C73.9274 153.443 74.301 153.211 74.6729 152.936C74.765 152.868 74.8136 152.757 74.8036 152.644C74.7935 152.53 74.7248 152.429 74.6226 152.382C73.9994 152.083 73.5253 151.758 73.1132 151.359C72.738 150.996 72.4297 150.56 72.0762 150.05C71.9506 149.869 71.8149 149.685 71.6725 149.489C71.5837 149.364 71.4899 149.246 71.3927 149.114C71.3492 149.033 71.247 149.004 71.1665 149.048C71.0861 149.093 71.0577 149.195 71.1012 149.276C71.2185 149.563 71.3223 149.825 71.4396 150.072C71.4932 150.187 71.5519 150.297 71.6105 150.401C71.8367 150.797 72.0779 151.131 72.3292 151.434C72.7547 151.942 73.2338 152.348 73.8587 152.708Z" fill="#333739"/>
<path fill-rule="evenodd" clip-rule="evenodd" d="M51.5254 153.935C51.3378 154.289 51.1585 154.62 50.9173 154.922C50.7565 155.127 50.5672 155.316 50.3376 155.485C50.2539 155.547 50.1634 155.605 50.0646 155.659C49.9306 155.73 49.7865 155.796 49.6257 155.852C49.304 155.963 48.9354 156.041 48.4932 156.095C48.4044 156.115 48.3139 156.059 48.2938 155.968C48.2737 155.879 48.329 155.787 48.4195 155.767C48.8081 155.632 49.1197 155.478 49.3961 155.326C49.5017 155.269 49.5988 155.208 49.6927 155.15C49.7915 155.088 49.8853 155.027 49.9758 154.964C50.2271 154.794 50.4365 154.616 50.6275 154.417C50.8335 154.201 51.0262 153.978 51.2172 153.733C51.2741 153.646 51.388 153.623 51.4718 153.679C51.5572 153.734 51.5807 153.849 51.5254 153.935Z" fill="#333739"/>
<path fill-rule="evenodd" clip-rule="evenodd" d="M32.0634 143.285C32.2108 140.783 32.8123 138.699 33.7521 137.085C34.6082 135.614 35.749 134.532 37.0155 133.892C38.1011 133.343 39.2956 133.12 40.4917 133.224C41.517 133.316 42.5523 133.632 43.5441 134.22C44.7084 134.912 45.8191 135.941 46.8042 137.361C46.97 137.56 46.9449 137.861 46.7472 138.028C46.5479 138.197 46.253 138.17 46.0855 137.969C44.7989 136.675 43.4419 135.909 42.1184 135.536C41.249 135.291 40.4029 135.272 39.5871 135.413C39.046 135.507 38.53 135.693 38.0274 135.943C37.4159 136.247 36.8279 136.649 36.2868 137.18C35.7775 137.679 35.2933 138.26 34.8645 138.949C34.1073 140.166 33.4706 141.641 33.077 143.427C33.0384 143.709 32.7804 143.907 32.5007 143.868C32.2209 143.828 32.0249 143.567 32.0634 143.285Z" fill="#010100"/>
<path fill-rule="evenodd" clip-rule="evenodd" d="M65.0554 133.859C65.4357 131.65 66.1309 130.141 66.9886 129.186C67.9938 128.069 69.2586 127.696 70.6206 127.843C71.2656 127.914 71.9408 128.129 72.6243 128.482C73.1604 128.759 73.7065 129.124 74.2409 129.582C75.035 130.261 75.8224 131.121 76.5746 132.147C77.4859 133.391 78.3336 134.852 79.1444 136.486C79.2818 136.708 79.2131 137 78.9937 137.137C78.7725 137.275 78.4827 137.206 78.347 136.985C77.6149 136.013 76.8661 135.143 76.1323 134.335C75.3148 133.434 74.5023 132.661 73.7199 132.002C73.1319 131.506 72.5573 131.099 72.0078 130.763C71.408 130.395 70.8468 130.119 70.294 130.009C69.3759 129.829 68.5299 130.087 67.7777 130.949C67.1428 131.674 66.5497 132.698 66.0455 134.121C65.9734 134.396 65.6936 134.562 65.4206 134.489C65.1475 134.416 64.9833 134.134 65.0554 133.859Z" fill="#010100"/>
<path fill-rule="evenodd" clip-rule="evenodd" d="M80.0256 143.61C78.883 142.033 77.7505 140.913 76.6566 140.214C75.7134 139.61 74.8071 139.357 73.9527 139.443C73.2993 139.507 72.6895 139.796 72.1065 140.259C71.7514 140.541 71.4163 140.898 71.0745 141.303C70.8383 141.584 70.5954 141.883 70.3559 142.211C70.2034 142.42 70.0493 142.632 69.8901 142.856C69.5149 143.384 69.1229 143.923 68.7493 144.565C68.6873 144.724 68.5114 144.803 68.3556 144.74C68.1981 144.681 68.1194 144.502 68.1797 144.345C68.3388 143.573 68.513 142.887 68.7493 142.243C68.8565 141.956 68.9805 141.69 69.1094 141.434C69.3239 141.009 69.5634 140.629 69.8214 140.288C70.2252 139.752 70.6775 139.323 71.1382 138.98C71.996 138.34 72.9123 138.002 73.8538 137.968C74.7468 137.936 75.6698 138.162 76.5946 138.703C77.9566 139.499 79.3471 140.967 80.6722 143.177C80.7912 143.356 80.7409 143.6 80.5633 143.72C80.3841 143.84 80.1445 143.791 80.0256 143.61Z" fill="#333739"/>
<path fill-rule="evenodd" clip-rule="evenodd" d="M36.6901 150.79C37.0369 146.258 39.8028 143.935 43.0963 143.397C44.1183 143.23 45.1955 143.245 46.2693 143.431C46.9512 143.548 47.638 143.727 48.2981 143.997C48.7806 144.195 49.2496 144.437 49.6986 144.721C49.9918 144.908 50.2783 145.106 50.548 145.332C51.2114 145.883 51.7877 146.517 52.307 147.23C52.4243 147.35 52.4226 147.546 52.302 147.664C52.1814 147.782 51.9887 147.779 51.8715 147.657C51.3571 147.262 50.816 146.951 50.2582 146.638C49.7103 146.334 49.1508 146.077 48.5829 145.841C48.0702 145.626 47.5559 145.439 47.0366 145.283C45.7801 144.906 44.5036 144.732 43.289 144.862C40.4461 145.165 38.027 147.025 37.4607 150.878C37.4373 151.093 37.2463 151.248 37.0335 151.223C36.8191 151.199 36.6666 151.005 36.6901 150.79Z" fill="#333739"/>
<path fill-rule="evenodd" clip-rule="evenodd" d="M76.2465 143.215C76.0003 143.181 75.7674 143.165 75.5278 143.144C75.3854 143.132 75.2481 143.124 75.1073 143.112C75.0152 143.105 74.9231 143.1 74.8326 143.09C74.7421 143.08 74.65 143.067 74.5612 143.053C74.4691 143.039 74.3819 143.021 74.2898 143.006C74.1792 142.987 74.072 142.969 73.9598 142.953C73.7889 142.93 73.6281 142.904 73.4488 142.896C73.3835 142.906 73.3215 142.86 73.3114 142.793C73.3014 142.725 73.3483 142.664 73.4136 142.653C73.5929 142.588 73.7604 142.538 73.9413 142.497C74.0636 142.468 74.1826 142.451 74.3049 142.438C74.4071 142.426 74.5093 142.421 74.6115 142.423C74.7136 142.423 74.8158 142.431 74.918 142.448C75.1174 142.484 75.31 142.543 75.5027 142.615C75.7825 142.72 76.0405 142.857 76.3152 143.004C76.3722 143.024 76.404 143.087 76.3856 143.144C76.3655 143.202 76.3052 143.234 76.2465 143.215Z" fill="#333739"/>
<path fill-rule="evenodd" clip-rule="evenodd" d="M42.2828 148.685C42.4336 148.526 42.581 148.38 42.7535 148.232C42.8272 148.169 42.8976 148.115 42.9747 148.058C43.0769 147.985 43.1791 147.916 43.2896 147.858C43.3617 147.819 43.437 147.782 43.5158 147.759C43.6498 147.716 43.7855 147.694 43.9246 147.679C44.0117 147.669 44.0904 147.666 44.1775 147.667C44.3132 147.667 44.4271 147.676 44.5595 147.689C44.5947 147.681 44.6298 147.701 44.6382 147.738C44.6466 147.772 44.6248 147.808 44.5896 147.816C44.4405 147.909 44.3182 148.002 44.1675 148.103C44.0971 148.151 44.0334 148.193 43.9614 148.237C43.8927 148.279 43.8257 148.321 43.752 148.357C43.6833 148.389 43.613 148.416 43.5409 148.441C43.4303 148.48 43.3215 148.509 43.2092 148.543C42.9077 148.625 42.6279 148.688 42.3464 148.788C42.318 148.805 42.2828 148.796 42.2644 148.769C42.2476 148.74 42.2543 148.703 42.2828 148.685Z" fill="#333739"/>
<path fill-rule="evenodd" clip-rule="evenodd" d="M67.7351 178.377C67.5055 178.597 67.2626 178.776 66.9862 178.931C66.8673 178.999 66.7466 179.053 66.6176 179.105C66.4216 179.183 66.2189 179.239 66.0095 179.279C65.9207 179.295 65.8303 179.306 65.7398 179.311C65.6209 179.32 65.5002 179.32 65.3796 179.31C65.1987 179.295 65.0228 179.264 64.8469 179.222C64.671 179.181 64.5034 179.131 64.3359 179.066C64.0813 178.968 63.8518 178.853 63.6239 178.718C63.6005 178.71 63.5887 178.685 63.5971 178.661C63.6055 178.639 63.6306 178.627 63.6524 178.634C63.9992 178.695 64.3443 178.705 64.7062 178.705C64.934 178.705 65.1568 178.688 65.3863 178.674C65.5337 178.666 65.6812 178.657 65.8303 178.651C66.0564 178.641 66.2759 178.637 66.5004 178.614C66.75 178.588 66.9879 178.559 67.2308 178.5C67.3983 178.458 67.5558 178.414 67.7183 178.352C67.725 178.347 67.7351 178.348 67.7384 178.357C67.7434 178.363 67.7418 178.374 67.7351 178.377Z" fill="#333739"/>
<path fill-rule="evenodd" clip-rule="evenodd" d="M80.199 143.153C80.0466 142.692 79.8539 142.224 79.6344 141.756C79.4954 141.457 79.3413 141.158 79.1804 140.864C79.0196 140.571 78.8521 140.282 78.6695 140.002C78.3964 139.581 78.0965 139.176 77.7682 138.802C77.0227 137.95 76.1331 137.253 75.1095 136.847C75.071 136.832 75.0509 136.788 75.066 136.749C75.0794 136.71 75.1229 136.69 75.1615 136.703C76.5 137.161 77.6509 138.092 78.5673 139.236C78.8822 139.628 79.1704 140.046 79.425 140.478C79.5356 140.664 79.6378 140.855 79.7333 141.048C79.8623 141.308 79.9812 141.57 80.0868 141.835C80.2509 142.244 80.385 142.658 80.4972 143.06C80.5223 143.145 80.4771 143.233 80.395 143.258C80.3113 143.283 80.2241 143.236 80.199 143.153Z" fill="#333739"/>
<path fill-rule="evenodd" clip-rule="evenodd" d="M68.1073 144.367C68.1023 144.087 68.0973 143.804 68.104 143.522C68.1073 143.335 68.1157 143.145 68.1308 142.96C68.1408 142.818 68.1542 142.676 68.1727 142.535C68.2145 142.204 68.2782 141.878 68.3569 141.557C68.5831 140.643 68.955 139.778 69.5698 139.011C69.595 138.978 69.6436 138.97 69.6754 138.995C69.7089 139.021 69.7156 139.07 69.6905 139.102C69.2616 139.724 68.9902 140.396 68.8143 141.097C68.7356 141.415 68.6769 141.738 68.6317 142.066C68.6015 142.282 68.5798 142.5 68.5563 142.72C68.5345 142.938 68.5144 143.157 68.4943 143.379C68.4658 143.71 68.439 144.041 68.4206 144.374C68.4189 144.46 68.3469 144.529 68.2615 144.528C68.1743 144.526 68.1057 144.455 68.1073 144.367Z" fill="#333739"/>
<path fill-rule="evenodd" clip-rule="evenodd" d="M51.5615 146.861C51.3353 146.55 51.0974 146.242 50.8528 145.93C50.692 145.729 50.5312 145.526 50.367 145.325C50.2028 145.125 50.0386 144.924 49.8694 144.732C49.6131 144.439 49.3484 144.157 49.067 143.893C48.4371 143.299 47.7385 142.792 46.9545 142.447C46.9159 142.432 46.8975 142.388 46.9126 142.349C46.9277 142.31 46.9712 142.29 47.0097 142.307C48.0434 142.684 48.9598 143.326 49.7706 144.098C50.0504 144.363 50.3184 144.644 50.5697 144.938C50.6786 145.065 50.7825 145.193 50.883 145.323C51.0187 145.499 51.1494 145.676 51.275 145.857C51.466 146.131 51.6452 146.408 51.8195 146.683C51.868 146.754 51.8496 146.852 51.7776 146.901C51.7072 146.95 51.6101 146.932 51.5615 146.861Z" fill="#333739"/>
<path fill-rule="evenodd" clip-rule="evenodd" d="M36.8758 150.812C36.7786 150.454 36.7166 150.089 36.6915 149.72C36.6748 149.475 36.6731 149.228 36.6882 148.982C36.6999 148.777 36.7217 148.575 36.7535 148.37C36.7853 148.171 36.8272 147.97 36.8775 147.772C37.2494 146.293 38.0468 144.891 38.9481 143.776C38.9732 143.742 39.0218 143.737 39.0537 143.762C39.0872 143.787 39.0922 143.836 39.0671 143.87C38.3819 144.815 37.7855 145.954 37.4303 147.15C37.308 147.561 37.2176 147.978 37.1556 148.395C37.1288 148.576 37.107 148.757 37.0919 148.936C37.0668 149.239 37.0567 149.539 37.0718 149.84C37.0852 150.141 37.1187 150.442 37.179 150.739C37.1991 150.822 37.1489 150.908 37.0634 150.928C36.9797 150.949 36.8959 150.896 36.8758 150.812Z" fill="#333739"/>
<path d="M80.5721 213.764C81.8822 211.512 82.239 209.215 81.8453 206.635C80.4498 197.495 67.53 191.07 69.7146 184.016" stroke="#333739" stroke-width="0.39" stroke-linecap="round" stroke-linejoin="round"/>
<path fill-rule="evenodd" clip-rule="evenodd" d="M58.4467 211.267C52.3822 201.568 51.2849 191.383 45.9877 181.574C43.9975 177.889 41.4075 174.256 37.7269 170.723C36.6966 169.734 35.611 169.073 34.9258 168.403C34.4333 167.918 34.1368 167.421 34.1318 166.833C34.1267 166.125 34.5422 165.701 35.1671 165.478C36.251 165.094 38.0318 165.393 38.6801 165.613C40.667 166.289 42.5852 167.291 44.3811 168.485C46.172 169.677 47.8389 171.062 49.3315 172.51C51.166 174.293 52.662 176.309 53.9855 178.443C57.0412 183.369 59.1738 188.932 62.5277 193.675C63.1894 194.614 64.1242 195.817 65.2014 196.973C65.8397 197.657 66.5283 198.327 67.247 198.906C68.5721 199.972 69.9994 200.746 71.405 200.753C71.477 200.751 71.5357 200.809 71.5357 200.882C71.5373 200.953 71.4804 201.013 71.4083 201.015C69.9341 201.073 68.3928 200.346 66.9655 199.275C66.2066 198.705 65.4812 198.038 64.8145 197.345C63.7004 196.186 62.7555 194.952 62.0771 193.999C58.7081 189.254 56.557 183.688 53.4879 178.757C52.1862 176.667 50.7203 174.69 48.9177 172.945C47.4502 171.522 45.8101 170.162 44.0494 168.994C42.2954 167.83 40.4241 166.855 38.4841 166.197C37.9866 166.028 36.7385 165.802 35.7836 165.961C35.2207 166.055 34.7449 166.27 34.7499 166.828C34.7533 167.257 34.9962 167.603 35.3564 167.955C36.0399 168.624 37.1238 169.283 38.1541 170.268C41.8916 173.849 44.5201 177.532 46.5422 181.27C51.8394 191.061 52.9367 201.233 58.9996 210.915C59.0951 211.069 59.0498 211.272 58.8974 211.37C58.7449 211.466 58.5422 211.421 58.4467 211.267Z" fill="#333739"/>
<path d="M54.7762 210.223C55.2855 207.885 55.1364 205.073 54.9487 203.711" stroke="#333739" stroke-width="0.39" stroke-linecap="round" stroke-linejoin="round"/>
<path fill-rule="evenodd" clip-rule="evenodd" d="M34.6484 167.253C33.784 168.757 34.0771 170.544 34.7941 172.342C35.8613 175.012 37.8783 177.7 38.8483 179.595C40.7866 183.395 42.5741 190.124 42.5423 196.23C42.5339 197.902 42.3949 199.527 42.0732 201.028C41.9258 201.724 41.7382 202.393 41.507 203.027C41.2356 203.772 40.9056 204.471 40.5135 205.109C40.1031 205.778 39.624 206.376 39.0778 206.898C39.041 206.939 38.979 206.939 38.9405 206.901C38.9019 206.862 38.9003 206.802 38.9388 206.761C39.4229 206.212 39.83 205.592 40.1818 204.918C40.5135 204.277 40.79 203.588 41.0212 202.858C41.2172 202.236 41.3797 201.585 41.5103 200.911C41.7968 199.441 41.9325 197.858 41.9342 196.229C41.9392 190.23 40.1869 183.621 38.2737 179.894C37.1295 177.663 34.5579 174.339 33.7354 171.23C33.3283 169.699 33.34 168.217 34.0838 166.921C34.1743 166.764 34.3737 166.712 34.5295 166.801C34.6853 166.894 34.7389 167.095 34.6484 167.253Z" fill="#333739"/>
<path fill-rule="evenodd" clip-rule="evenodd" d="M36.9207 218.244C33.793 215.182 32.4109 211.54 32.2015 207.997C31.9586 203.882 33.3021 199.903 35.3292 197.115C36.7432 195.184 38.4285 192.5 39.0182 189.751C39.1723 189.029 39.2561 188.304 39.236 187.583C39.2226 187.041 39.1539 186.5 39.0148 185.964C38.8808 185.447 38.6882 184.935 38.4134 184.432C38.3849 184.384 38.3983 184.323 38.4452 184.296C38.4905 184.268 38.5508 184.281 38.5793 184.327C38.916 184.822 39.174 185.33 39.3599 185.858C39.5559 186.412 39.6715 186.981 39.7184 187.558C39.7821 188.321 39.7251 189.095 39.5794 189.866C39.0383 192.715 37.2792 195.488 35.8368 197.488C33.8902 200.172 32.6102 204.002 32.8481 207.956C33.0508 211.351 34.3777 214.839 37.3747 217.771C37.5054 217.897 37.5088 218.105 37.3831 218.237C37.2575 218.367 37.0514 218.371 36.9207 218.244Z" fill="#333739"/>
<path fill-rule="evenodd" clip-rule="evenodd" d="M32.5796 207.287C31.5995 207.548 30.1856 207.57 28.7918 207.392C27.8804 207.279 26.9691 207.112 26.2185 206.829C26.0694 206.774 25.9321 206.709 25.8014 206.64C25.6942 206.583 25.5987 206.524 25.5049 206.459C25.401 206.388 25.3172 206.319 25.2268 206.245C25.1799 206.221 25.1581 206.162 25.1815 206.113C25.205 206.064 25.2636 206.044 25.3122 206.067C25.4211 206.091 25.525 206.105 25.6406 206.126C25.7478 206.147 25.8517 206.165 25.9639 206.187C26.0477 206.203 26.1314 206.218 26.2185 206.238C26.3408 206.267 26.4665 206.302 26.5938 206.336C27.4968 206.568 28.5589 206.752 29.5858 206.819C30.6446 206.889 31.6649 206.851 32.412 206.65C32.5863 206.605 32.7655 206.709 32.8108 206.885C32.8577 207.061 32.7538 207.242 32.5796 207.287Z" fill="#333739"/>
<path d="M19.2477 201.897C25.6271 198.137 38.1733 196.348 39.1232 186.961" stroke="#333739" stroke-width="0.39" stroke-linecap="round" stroke-linejoin="round"/>
<path fill-rule="evenodd" clip-rule="evenodd" d="M8.75846 198.031C8.2542 197.524 7.69298 197.063 7.0614 196.767C6.465 196.489 5.80662 196.36 5.0762 196.492C4.38598 196.614 3.86665 197.306 3.85324 198.053C3.84822 198.342 3.92361 198.64 4.08946 198.922C4.1548 199.035 4.23018 199.145 4.32232 199.253C4.41614 199.37 4.51833 199.484 4.6423 199.598C4.75789 199.702 4.88019 199.809 5.02426 199.909C5.09127 199.941 5.11975 200.022 5.08792 200.089C5.05609 200.157 4.97401 200.186 4.90867 200.154C4.72104 200.096 4.55686 200.029 4.40274 199.949C4.22348 199.858 4.07271 199.75 3.93868 199.631C3.80131 199.51 3.69074 199.375 3.59693 199.236C3.34731 198.861 3.24512 198.447 3.24512 198.048C3.24344 197.001 3.99564 196.041 4.96395 195.858C5.8351 195.698 6.6208 195.845 7.3328 196.174C8.03306 196.499 8.65794 197.004 9.21916 197.565C9.34648 197.692 9.34815 197.901 9.22083 198.031C9.09351 198.16 8.88578 198.16 8.75846 198.031Z" fill="#333739"/>
<path fill-rule="evenodd" clip-rule="evenodd" d="M103.675 208.457C103.873 207.482 104.226 206.628 104.786 205.986C105.36 205.327 106.149 204.884 107.222 204.761C108.098 204.663 108.994 205.055 109.51 205.689C109.8 206.044 109.991 206.469 109.972 206.916C109.964 207.13 109.915 207.348 109.806 207.558C109.716 207.732 109.597 207.899 109.433 208.059C109.388 208.119 109.302 208.13 109.244 208.085C109.185 208.039 109.173 207.953 109.22 207.894C109.292 207.76 109.334 207.63 109.373 207.504C109.435 207.302 109.436 207.113 109.421 206.929C109.394 206.615 109.262 206.326 109.051 206.082C108.642 205.609 107.962 205.31 107.295 205.393C106.404 205.501 105.747 205.866 105.273 206.415C104.784 206.981 104.486 207.733 104.315 208.588C104.278 208.766 104.106 208.881 103.93 208.845C103.752 208.808 103.638 208.634 103.675 208.457Z" fill="#333739"/>
<path fill-rule="evenodd" clip-rule="evenodd" d="M88.2867 200.359C85.8509 200.317 82.1786 199.479 79.0442 198.036C78.0591 197.583 77.1243 197.072 76.3035 196.503C75.9198 196.238 75.5546 195.966 75.2313 195.67C74.9331 195.394 74.6701 195.107 74.4372 194.808C74.273 194.597 74.1289 194.381 73.9966 194.163C73.953 194.102 73.9664 194.017 74.0251 193.972C74.0854 193.928 74.1691 193.94 74.2144 194C74.5059 194.337 74.8527 194.643 75.2279 194.952C75.4591 195.144 75.702 195.332 75.9567 195.521C77.2885 196.511 78.9688 197.387 80.7413 198.058C83.4267 199.075 86.2915 199.67 88.2968 199.7C88.4777 199.703 88.6218 199.852 88.6184 200.035C88.6151 200.217 88.466 200.361 88.2867 200.359Z" fill="#333739"/>
<path fill-rule="evenodd" clip-rule="evenodd" d="M53.7651 124.925C57.7422 121.508 69.1157 115.415 74.4833 116.6C81.7657 118.205 79.7889 125.675 76.3009 130.812C70.6737 123.239 59.5163 123.021 53.7651 124.925Z" fill="#C9C6C6"/>
<path fill-rule="evenodd" clip-rule="evenodd" d="M53.7651 124.925C57.7422 121.508 69.1157 115.415 74.4833 116.6C81.7657 118.205 79.7889 125.675 76.3009 130.812C70.6737 123.239 59.5163 123.021 53.7651 124.925Z" stroke="#333739" stroke-width="0.39" stroke-linecap="round" stroke-linejoin="round"/>
<path fill-rule="evenodd" clip-rule="evenodd" d="M29.5987 143.464C36.779 141.081 41.4463 135.532 46.8223 130.723C54.16 124.16 61.2816 118.653 71.2478 116.539C55.0026 119.292 37.692 130.077 29.5987 143.464Z" fill="white"/>
<mask id="mask17" style="mask-type:alpha" maskUnits="userSpaceOnUse" x="29" y="125" width="22" height="20">
<path fill-rule="evenodd" clip-rule="evenodd" d="M48.918 125.406C40.7604 130.331 33.6817 136.864 29.285 144.158L30.0553 143.886C36.9028 141.333 41.4889 135.921 46.7413 131.206C48.1084 129.979 49.4681 128.789 50.8396 127.65L50.8401 125.408" fill="white"/>
</mask>
<g mask="url(#mask17)">
<path fill-rule="evenodd" clip-rule="evenodd" d="M50.8401 128.5C48.8586 129.445 46.9807 130.563 45.0587 131.62C41.3725 133.649 37.5607 135.465 33.9 137.545C28.8062 135.941 24.2643 130.328 23.0792 125.406C17.2927 129.895 15.065 135.633 14.1923 142.307C13.8255 145.108 13.6269 147.942 14.1244 150.703C14.4894 152.735 15.3112 154.644 16.1686 156.509C17.9226 160.332 21.4067 165.824 26.4699 166.25C26.2084 164.051 26.9487 161.978 27.5651 159.844C29.7791 152.182 32.939 146.442 39.2688 140.991C43.3217 137.502 48.9571 133.59 50.8401 128.5Z" fill="#C9C6C6"/>
</g>
<path fill-rule="evenodd" clip-rule="evenodd" d="M30.5254 143.983C37.5968 141.61 42.1934 136.083 47.4879 131.294C54.7145 124.758 61.7282 119.273 71.5434 117.168C55.5444 119.909 38.496 130.651 30.5254 143.983Z" stroke="#333739" stroke-width="0.286" stroke-linecap="round" stroke-linejoin="round"/>
<path fill-rule="evenodd" clip-rule="evenodd" d="M65.7404 118.731C62.9405 117.259 59.8354 115.65 56.1413 114.674C41.0728 110.687 27.9462 119.608 21.8185 131.654C16.7204 141.681 19.2166 152.577 21.4028 157.793C28.9527 142.199 47.5734 122.828 65.7404 118.731Z" fill="white"/>
<mask id="mask18" style="mask-type:alpha" maskUnits="userSpaceOnUse" x="17" y="125" width="32" height="33">
<path fill-rule="evenodd" clip-rule="evenodd" d="M23.9353 125.957C22.5849 127.704 21.3977 129.573 20.3951 131.524L20.105 132.106C15.3165 142.016 17.7954 152.647 19.9731 157.785L20.2772 157.173C25.7204 146.383 36.3592 133.931 48.4407 125.958" fill="white"/>
</mask>
<g mask="url(#mask18)">
<path fill-rule="evenodd" clip-rule="evenodd" d="M50.4868 128.505C48.5326 129.435 46.6806 130.535 44.7851 131.575C41.1498 133.572 34.5757 134.338 28.2411 145.694C23.2913 141.046 17.9764 134.211 22.9095 125.957C17.2028 130.375 15.2051 135.524 14.3444 142.093C13.9827 144.849 13.7868 147.638 14.2774 150.355C14.6375 152.355 15.4479 154.233 16.2935 156.069C18.0233 159.831 21.4594 165.236 26.4527 165.656C26.1948 163.491 26.9249 161.451 27.5328 159.351C29.7163 151.811 32.8325 146.162 39.0751 140.798C43.0721 137.364 48.6297 133.514 50.4868 128.505Z" fill="#C9C6C6"/>
</g>
<mask id="mask19" style="mask-type:alpha" maskUnits="userSpaceOnUse" x="17" y="113" width="48" height="45">
<path fill-rule="evenodd" clip-rule="evenodd" d="M55.228 114.469C58.9772 115.449 62.1286 117.066 64.9719 118.545C46.5323 122.66 27.6339 142.121 19.9731 157.787C17.7527 152.548 15.2192 141.599 20.3951 131.526C25.5894 121.417 35.7402 113.5 47.8552 113.5C50.2447 113.5 52.7095 113.809 55.228 114.469Z" fill="white"/>
</mask>
<g mask="url(#mask19)">
<path fill-rule="evenodd" clip-rule="evenodd" d="M42.5806 126.716C40.0951 128.753 37.5976 131.29 35.2647 134.093C33.4548 131.129 31.7634 128.344 30.1803 125.727C32.3205 123.283 34.6146 121.159 37.0535 119.344C38.8458 121.698 40.5478 124.068 42.5806 126.716Z" fill="#75151E"/>
<path fill-rule="evenodd" clip-rule="evenodd" d="M46.6741 120.402C46.5586 120.833 46.2787 121.177 45.8674 121.401C44.874 121.939 43.4897 121.577 42.6945 120.564C41.9219 119.58 42.0583 118.376 43.0276 117.837C43.4275 117.615 43.9118 117.538 44.4256 117.616C44.4344 117.617 44.4431 117.618 44.452 117.619C44.5067 117.247 44.5624 116.878 44.6196 116.513C44.6091 116.511 44.5986 116.51 44.5881 116.508C43.7258 116.347 42.8794 116.465 42.2135 116.838C40.6546 117.716 40.3944 119.713 41.5882 121.245C42.8377 122.851 45.1387 123.419 46.7599 122.544C47.4562 122.166 47.9305 121.553 48.0898 120.81C48.0915 120.801 48.0933 120.793 48.0949 120.784C47.6207 120.646 47.1492 120.511 46.6802 120.38C46.6781 120.387 46.6761 120.395 46.6741 120.402ZM49.6431 120.863C50.0258 120.687 50.4114 120.516 50.7991 120.35C49.2724 118.48 47.7841 116.693 46.3356 114.993C45.9632 115.156 45.5933 115.323 45.2261 115.496C46.6585 117.197 48.1314 118.987 49.6431 120.863ZM53.7901 116.618C53.7075 116.546 48.8434 113.965 48.8245 113.982C48.4489 114.118 48.076 114.26 47.7057 114.407C49.174 116.107 50.681 117.888 52.2255 119.75C52.6197 119.596 53.0165 119.447 53.4161 119.303C52.4755 118.184 51.5485 117.093 50.6351 116.031C50.8595 116.124 55.57 118.642 55.5489 118.651C55.5402 118.644 54.7995 114.92 54.7781 114.768C55.7226 115.822 56.6794 116.9 57.6484 118.003C58.0689 117.895 58.4925 117.793 58.9192 117.696C57.3001 115.876 55.7124 114.12 54.1579 112.43C53.7545 112.519 53.3543 112.614 52.9573 112.713C52.949 112.707 53.7628 116.527 53.7901 116.618ZM62.151 115.974C61.7137 116.032 61.2795 116.096 60.8489 116.165C60.4606 115.742 60.0739 115.323 59.6889 114.906C60.1167 114.839 60.5482 114.777 60.9828 114.721C61.5944 114.644 62.1146 114.941 62.3948 115.239C62.6803 115.544 62.765 115.894 62.151 115.974ZM57.7578 112.832C58.1536 112.771 58.5526 112.715 58.9545 112.664C59.4616 112.6 59.9651 112.776 60.2958 113.124C60.628 113.474 60.5195 113.717 60.0099 113.782C59.6054 113.834 59.2037 113.891 58.8053 113.953C58.4547 113.577 58.1055 113.203 57.7578 112.832ZM61.8145 114.073C61.9911 113.915 62.1503 113.523 61.6046 112.955C60.7724 112.088 59.4489 111.601 58.199 111.753C57.3295 111.86 56.4748 111.992 55.6342 112.146C57.2065 113.833 58.8102 115.583 60.4438 117.393C61.3473 117.219 62.2651 117.07 63.1976 116.946C64.4644 116.777 64.7143 116.115 63.8082 115.157C63.1406 114.453 62.2957 114.173 61.8145 114.073Z" fill="#7C1710"/>
<path fill-rule="evenodd" clip-rule="evenodd" d="M31.7803 126.125C32.9555 124.841 34.175 123.651 35.4371 122.552C36.6276 122.786 37.8544 123.043 39.1185 123.327C39.1118 124.748 39.1173 126.226 39.1356 127.767C37.7908 128.958 36.494 130.256 35.2467 131.662C35.1626 130.025 35.0913 128.451 35.0316 126.937C33.917 126.646 32.8335 126.376 31.7803 126.125Z" fill="#E5292B"/>
<path fill-rule="evenodd" clip-rule="evenodd" d="M39.1185 123.327C37.8543 123.043 36.6276 122.786 35.4371 122.552C34.175 123.651 32.9555 124.841 31.7803 126.125C32.8335 126.376 33.9169 126.646 35.0316 126.937" fill="#FEFEFE"/>
<path fill-rule="evenodd" clip-rule="evenodd" d="M31.5619 141.159C29.3248 139.166 27.3455 136.309 26.1751 133.21C24.9845 130.06 24.6261 126.665 25.6442 123.693C25.6727 123.605 25.7682 123.558 25.8552 123.587C25.9423 123.617 25.9892 123.712 25.9607 123.8C25.028 126.701 25.45 129.984 26.6556 133.02C27.8412 136.01 29.7886 138.762 31.9856 140.666C32.1212 140.786 32.1346 140.99 32.0174 141.127C31.9002 141.264 31.6975 141.278 31.5619 141.159Z" fill="#333739"/>
</g>
<path fill-rule="evenodd" clip-rule="evenodd" d="M64.971 118.608C62.1294 117.11 58.978 115.473 55.2288 114.48C39.9356 110.424 26.6133 119.5 20.3942 131.756C15.22 141.958 17.7536 153.044 19.9723 158.351C27.6348 142.485 46.5331 122.776 64.971 118.608Z" stroke="#333739" stroke-width="0.385" stroke-linecap="round" stroke-linejoin="round"/>
<path fill-rule="evenodd" clip-rule="evenodd" d="M43.8672 161.716C43.4553 163.744 42.4171 165.196 41.1143 165.903C40.0845 166.461 38.8839 166.56 37.7017 166.122C37.2898 165.969 36.8795 165.747 36.4793 165.452C35.9736 165.079 35.483 164.595 35.0292 163.987C34.197 162.87 33.4836 161.345 32.9796 159.371C32.9612 159.305 32.9964 159.239 33.06 159.22C33.122 159.201 33.1889 159.237 33.2074 159.302C33.8152 161.177 34.5989 162.598 35.4595 163.632C35.9033 164.168 36.3671 164.595 36.8427 164.922C37.201 165.17 37.5644 165.358 37.9278 165.497C38.9408 165.879 39.9572 165.827 40.8631 165.391C42.0989 164.791 43.1237 163.507 43.6194 161.656C43.6344 161.586 43.7048 161.542 43.7734 161.559C43.8404 161.576 43.8839 161.646 43.8672 161.716Z" fill="white"/>
<path fill-rule="evenodd" clip-rule="evenodd" d="M44.092 162.741C43.8292 163.899 43.8576 164.941 44.1004 165.821C44.1724 166.087 44.2662 166.335 44.3767 166.568C44.5492 166.934 44.7702 167.255 45.0314 167.534C45.2073 167.722 45.3998 167.89 45.6108 168.035C45.9239 168.251 46.2739 168.419 46.6607 168.528C47.5097 168.768 48.5194 168.748 49.6447 168.374C49.7033 168.35 49.7703 168.379 49.792 168.441C49.8138 168.501 49.7837 168.57 49.7267 168.592C49.0754 168.888 48.4508 169.063 47.8613 169.126C47.3942 169.176 46.9504 169.155 46.5351 169.073C46.0747 168.984 45.6493 168.814 45.2709 168.58C45.0097 168.417 44.7702 168.22 44.5592 167.992C44.4018 167.826 44.2612 167.641 44.1356 167.443C43.8643 167.01 43.6634 166.508 43.5562 165.953C43.3703 164.993 43.4541 163.876 43.8526 162.671C43.871 162.602 43.9413 162.563 44.0066 162.584C44.072 162.602 44.1105 162.673 44.092 162.741Z" fill="white"/>
<path fill-rule="evenodd" clip-rule="evenodd" d="M33.2177 160.572C33.4438 162.621 33.4136 164.183 33.1407 165.362C32.8259 166.724 32.2013 167.597 31.3607 168.128C30.9923 168.359 30.5787 168.523 30.1266 168.631C29.5522 168.766 28.9092 168.813 28.2126 168.792C27.6282 168.777 27.0036 168.713 26.3422 168.621C25.4832 168.501 24.5656 168.328 23.5927 168.15C23.5291 168.141 23.4855 168.081 23.4956 168.018C23.5039 167.955 23.5609 167.91 23.6245 167.919C25.3375 168.104 26.8881 168.27 28.2126 168.232C28.8573 168.213 29.4467 168.147 29.9742 168.003C30.3577 167.9 30.706 167.754 31.0208 167.559C31.7458 167.107 32.2733 166.373 32.5998 165.217C32.918 164.089 33.0586 162.587 32.9699 160.592C32.9649 160.522 33.0151 160.46 33.0837 160.453C33.1524 160.448 33.2127 160.501 33.2177 160.572Z" fill="white"/>
<path fill-rule="evenodd" clip-rule="evenodd" d="M23.6336 168.37C24.9799 168.606 26.3731 169.089 27.6574 169.76C28.5214 170.212 29.3369 170.748 30.0553 171.347C30.8423 172.005 31.5171 172.738 32.0128 173.517C32.3895 174.104 32.6658 174.72 32.8199 175.345C33.1481 176.672 32.9488 178.049 31.9876 179.34C31.3346 180.215 30.3198 181.054 28.8697 181.811C28.8145 181.843 28.7441 181.821 28.714 181.764C28.6839 181.708 28.704 181.638 28.7592 181.605C30.1072 180.797 31.0332 179.939 31.6193 179.066C32.4113 177.883 32.5436 176.674 32.2204 175.51C32.0295 174.82 31.6779 174.148 31.2124 173.505C30.7837 172.914 30.2612 172.345 29.6685 171.818C28.9953 171.219 28.2351 170.671 27.4263 170.197C26.2073 169.479 24.8828 168.924 23.5833 168.62C23.5164 168.606 23.4728 168.537 23.4862 168.469C23.4996 168.4 23.5649 168.356 23.6336 168.37Z" fill="white"/>
<path fill-rule="evenodd" clip-rule="evenodd" d="M29.0911 182.166C30.0774 181.183 31.2914 180.563 32.5088 180.322C33.1384 180.197 33.768 180.175 34.3624 180.252C34.6354 180.288 34.8999 180.344 35.1528 180.423C35.8276 180.633 36.4288 180.993 36.8959 181.484C37.3246 181.936 37.6444 182.502 37.8035 183.176C37.9877 183.959 37.9626 184.887 37.6444 185.957C37.6294 186.02 37.5674 186.058 37.5055 186.042C37.4435 186.025 37.4067 185.962 37.4234 185.9C37.5909 185.07 37.5909 184.346 37.4636 183.719C37.3129 182.966 36.9613 182.368 36.484 181.914C36.0654 181.515 35.543 181.238 34.9653 181.062C34.5249 180.926 34.051 180.846 33.5587 180.836C33.2439 180.827 32.9224 180.844 32.5975 180.885C31.4421 181.038 30.2566 181.512 29.2569 182.354C29.205 182.402 29.1263 182.397 29.0811 182.346C29.0359 182.293 29.0392 182.212 29.0911 182.166Z" fill="white"/>
<path fill-rule="evenodd" clip-rule="evenodd" d="M50.8538 169.142C50.0484 169.515 49.5025 169.912 49.1559 170.305C48.8461 170.656 48.7339 171.003 48.7942 171.366C48.8177 171.513 48.8645 171.662 48.9382 171.815C49.042 172.029 49.1877 172.246 49.3753 172.469C49.7587 172.922 50.2929 173.388 50.9711 173.844C51.0263 173.874 51.0464 173.946 51.0163 174.001C50.9861 174.059 50.9158 174.08 50.8605 174.047C50.3465 173.809 49.896 173.558 49.5143 173.289C49.1927 173.063 48.9248 172.825 48.7122 172.582C48.399 172.22 48.2065 171.842 48.1495 171.471C48.0641 170.924 48.2467 170.376 48.7607 169.9C48.9165 169.755 49.1057 169.616 49.3284 169.488C49.7068 169.269 50.1824 169.073 50.7684 168.902C50.8321 168.878 50.9041 168.912 50.9275 168.978C50.9526 169.044 50.9192 169.118 50.8538 169.142Z" fill="white"/>
</svg>
