<svg width="384" height="228" viewBox="0 0 384 228" fill="none" xmlns="http://www.w3.org/2000/svg">
<rect width="384" height="228" fill="white"/>
<path d="M193.704 24.0161C201.253 24.1591 208.753 25.2513 216.029 27.267L210.262 48.0829C204.732 46.551 199.032 45.7209 193.295 45.6123L193.704 24.0161Z" fill="#B3BE66"/>
<path d="M217.561 27.7062C239.51 34.2077 258.156 48.8283 269.706 68.5925C281.255 88.3567 284.839 111.779 279.728 134.093L258.674 129.27C262.558 112.312 259.834 94.5111 251.056 79.4903C242.279 64.4695 228.108 53.3578 211.427 48.4167L217.561 27.7062Z" fill="#567DCC"/>
<path d="M279.327 135.773C275.404 151.505 267.304 165.886 255.884 177.395C244.463 188.904 230.145 197.114 214.443 201.157C198.741 205.2 182.239 204.926 166.68 200.365C151.121 195.803 137.083 187.123 126.05 175.242L141.878 160.544C150.263 169.574 160.932 176.17 172.757 179.637C184.582 183.104 197.123 183.312 209.057 180.239C220.99 177.166 231.872 170.927 240.551 162.18C249.231 153.433 255.387 142.504 258.368 130.547L279.327 135.773Z" fill="#5CD3CD"/>
<path d="M125.117 174.222C112.27 159.954 104.323 141.951 102.436 122.845L123.931 120.722C125.365 135.243 131.405 148.925 141.169 159.769L125.117 174.222Z" fill="#955CD6"/>
<path d="M102.277 121.061C100.71 101.149 105.811 81.2819 116.777 64.5879C127.743 47.8939 143.951 35.322 162.848 28.8523L169.844 49.2877C155.483 54.2047 143.165 63.7594 134.831 76.4468C126.497 89.1342 122.62 104.234 123.811 119.367L102.277 121.061Z" fill="#D45DBA"/>
<path d="M164.188 28.4049C173.17 25.4865 182.556 24 192 24L192 45.6C184.822 45.6 177.69 46.7297 170.863 48.9477L164.188 28.4049Z" fill="#4FA14F"/>
<path d="M192 56C201.361 56 210.584 58.266 218.879 62.6045C227.175 66.9429 234.297 73.2249 239.637 80.9138C244.977 88.6027 248.377 97.47 249.546 106.758C250.715 116.046 249.618 125.48 246.349 134.252L233.306 129.391C235.79 122.724 236.623 115.555 235.735 108.496C234.847 101.437 232.263 94.698 228.204 88.8545C224.146 83.0109 218.733 78.2366 212.428 74.9394C206.124 71.6422 199.115 69.92 192 69.92L192 56Z" fill="#B3BE66"/>
<path d="M245.727 135.85C240.669 148.285 231.455 158.581 219.655 164.982C207.855 171.383 194.2 173.493 181.019 170.951L183.654 157.283C193.672 159.214 204.05 157.611 213.018 152.746C221.986 147.882 228.989 140.057 232.832 130.606L245.727 135.85Z" fill="#567DCC"/>
<path d="M179.445 170.625C170.809 168.71 162.726 164.846 155.814 159.327C148.901 153.808 143.342 146.782 139.562 138.785L152.147 132.837C155.02 138.914 159.245 144.254 164.498 148.449C169.752 152.643 175.895 155.58 182.458 157.035L179.445 170.625Z" fill="#5CD3CD"/>
<path d="M139.014 137.591C134.538 127.536 133.014 116.415 134.622 105.527C136.23 94.6391 140.903 84.4332 148.094 76.1016L158.632 85.1972C153.166 91.5293 149.615 99.2857 148.393 107.561C147.171 115.836 148.329 124.287 151.731 131.929L139.014 137.591Z" fill="#955CD6"/>
<path d="M148.898 75.1904C151.338 72.4802 154.028 70.0062 156.933 67.8013L165.349 78.889C163.142 80.5647 161.097 82.445 159.242 84.5047L148.898 75.1904Z" fill="#D45DBA"/>
<path d="M157.908 67.077C167.516 60.097 179.034 56.2341 190.907 56.0103L191.169 69.9278C182.146 70.098 173.392 73.0337 166.09 78.3385L157.908 67.077Z" fill="#4FA14F"/>
<path d="M248.109 194.182H248.92C249.464 194.182 249.857 194.081 250.102 193.879C250.346 193.677 250.468 193.378 250.468 192.98C250.468 192.577 250.336 192.287 250.072 192.111C249.809 191.936 249.411 191.848 248.881 191.848H248.109V194.182ZM248.109 195.148V198H246.942V190.861H248.959C249.88 190.861 250.562 191.034 251.005 191.379C251.448 191.724 251.669 192.245 251.669 192.941C251.669 193.83 251.207 194.463 250.282 194.841L252.299 198H250.971L249.262 195.148H248.109ZM255.975 198.098C255.135 198.098 254.478 197.854 254.003 197.365C253.531 196.874 253.295 196.198 253.295 195.339C253.295 194.457 253.514 193.763 253.954 193.259C254.393 192.754 254.997 192.502 255.765 192.502C256.478 192.502 257.041 192.718 257.455 193.151C257.868 193.584 258.075 194.18 258.075 194.938V195.559H254.476C254.492 196.083 254.634 196.486 254.901 196.77C255.168 197.049 255.544 197.189 256.029 197.189C256.348 197.189 256.644 197.16 256.918 197.102C257.194 197.04 257.49 196.939 257.806 196.799V197.731C257.526 197.865 257.243 197.959 256.957 198.015C256.67 198.07 256.343 198.098 255.975 198.098ZM255.765 193.371C255.401 193.371 255.108 193.487 254.886 193.718C254.668 193.949 254.538 194.286 254.496 194.729H256.947C256.94 194.283 256.833 193.946 256.625 193.718C256.416 193.487 256.13 193.371 255.765 193.371ZM261.956 198.098C261.139 198.098 260.517 197.86 260.091 197.385C259.668 196.906 259.456 196.221 259.456 195.329C259.456 194.421 259.678 193.723 260.12 193.234C260.566 192.746 261.209 192.502 262.049 192.502C262.619 192.502 263.131 192.608 263.587 192.819L263.24 193.742C262.755 193.553 262.355 193.459 262.039 193.459C261.105 193.459 260.638 194.079 260.638 195.319C260.638 195.925 260.753 196.381 260.985 196.687C261.219 196.989 261.561 197.141 262.01 197.141C262.521 197.141 263.004 197.014 263.46 196.76V197.761C263.255 197.881 263.035 197.967 262.801 198.02C262.57 198.072 262.288 198.098 261.956 198.098ZM269.92 195.29C269.92 196.172 269.693 196.861 269.241 197.355C268.789 197.85 268.159 198.098 267.351 198.098C266.847 198.098 266.401 197.984 266.013 197.756C265.626 197.528 265.328 197.201 265.12 196.774C264.912 196.348 264.807 195.853 264.807 195.29C264.807 194.414 265.032 193.731 265.481 193.239C265.93 192.748 266.564 192.502 267.381 192.502C268.162 192.502 268.78 192.754 269.236 193.259C269.692 193.76 269.92 194.437 269.92 195.29ZM265.989 195.29C265.989 196.537 266.45 197.16 267.371 197.16C268.282 197.16 268.738 196.537 268.738 195.29C268.738 194.056 268.279 193.439 267.361 193.439C266.879 193.439 266.529 193.599 266.311 193.918C266.096 194.237 265.989 194.694 265.989 195.29ZM276.194 198H275.041V194.67C275.041 194.257 274.963 193.949 274.807 193.747C274.651 193.542 274.407 193.439 274.075 193.439C273.632 193.439 273.306 193.584 273.098 193.874C272.893 194.16 272.79 194.639 272.79 195.31V198H271.643V192.6H272.541L272.703 193.308H272.761C272.911 193.05 273.127 192.852 273.411 192.712C273.697 192.572 274.011 192.502 274.353 192.502C275.183 192.502 275.733 192.785 276.003 193.352H276.081C276.241 193.085 276.466 192.876 276.755 192.727C277.045 192.577 277.377 192.502 277.751 192.502C278.396 192.502 278.865 192.665 279.158 192.99C279.454 193.316 279.602 193.812 279.602 194.479V198H278.454V194.67C278.454 194.257 278.375 193.949 278.215 193.747C278.059 193.542 277.815 193.439 277.483 193.439C277.037 193.439 276.71 193.579 276.501 193.859C276.296 194.136 276.194 194.562 276.194 195.139V198ZM286.154 198H285.002V194.67C285.002 194.257 284.924 193.949 284.768 193.747C284.611 193.542 284.367 193.439 284.035 193.439C283.592 193.439 283.267 193.584 283.059 193.874C282.854 194.16 282.751 194.639 282.751 195.31V198H281.604V192.6H282.502L282.663 193.308H282.722C282.871 193.05 283.088 192.852 283.371 192.712C283.658 192.572 283.972 192.502 284.313 192.502C285.144 192.502 285.694 192.785 285.964 193.352H286.042C286.201 193.085 286.426 192.876 286.716 192.727C287.006 192.577 287.338 192.502 287.712 192.502C288.356 192.502 288.825 192.665 289.118 192.99C289.414 193.316 289.562 193.812 289.562 194.479V198H288.415V194.67C288.415 194.257 288.335 193.949 288.176 193.747C288.02 193.542 287.775 193.439 287.443 193.439C286.997 193.439 286.67 193.579 286.462 193.859C286.257 194.136 286.154 194.562 286.154 195.139V198ZM293.922 198.098C293.083 198.098 292.425 197.854 291.95 197.365C291.478 196.874 291.242 196.198 291.242 195.339C291.242 194.457 291.462 193.763 291.901 193.259C292.34 192.754 292.944 192.502 293.713 192.502C294.425 192.502 294.989 192.718 295.402 193.151C295.815 193.584 296.022 194.18 296.022 194.938V195.559H292.423C292.44 196.083 292.581 196.486 292.848 196.77C293.115 197.049 293.491 197.189 293.976 197.189C294.295 197.189 294.591 197.16 294.865 197.102C295.142 197.04 295.438 196.939 295.754 196.799V197.731C295.474 197.865 295.19 197.959 294.904 198.015C294.617 198.07 294.29 198.098 293.922 198.098ZM293.713 193.371C293.348 193.371 293.055 193.487 292.834 193.718C292.615 193.949 292.485 194.286 292.443 194.729H294.894C294.888 194.283 294.78 193.946 294.572 193.718C294.364 193.487 294.077 193.371 293.713 193.371ZM302.477 198H301.324V194.68C301.324 194.263 301.24 193.952 301.071 193.747C300.904 193.542 300.639 193.439 300.275 193.439C299.79 193.439 299.435 193.583 299.21 193.869C298.986 194.156 298.873 194.636 298.873 195.31V198H297.726V192.6H298.624L298.785 193.308H298.844C299.007 193.05 299.238 192.852 299.537 192.712C299.837 192.572 300.169 192.502 300.533 192.502C301.829 192.502 302.477 193.161 302.477 194.479V198ZM306.295 198.098C305.621 198.098 305.095 197.854 304.718 197.365C304.34 196.877 304.151 196.192 304.151 195.31C304.151 194.424 304.342 193.736 304.722 193.244C305.107 192.749 305.637 192.502 306.314 192.502C307.024 192.502 307.564 192.764 307.935 193.288H307.994C307.939 192.901 307.911 192.595 307.911 192.37V190.402H309.063V198H308.165L307.965 197.292H307.911C307.543 197.829 307.004 198.098 306.295 198.098ZM306.602 197.17C307.074 197.17 307.418 197.038 307.633 196.774C307.847 196.507 307.958 196.076 307.965 195.48V195.319C307.965 194.639 307.854 194.156 307.633 193.869C307.411 193.583 307.065 193.439 306.593 193.439C306.189 193.439 305.878 193.604 305.66 193.933C305.442 194.258 305.333 194.724 305.333 195.329C305.333 195.928 305.439 196.385 305.65 196.701C305.862 197.014 306.179 197.17 306.602 197.17ZM313.462 198.098C312.622 198.098 311.965 197.854 311.49 197.365C311.018 196.874 310.782 196.198 310.782 195.339C310.782 194.457 311.001 193.763 311.441 193.259C311.88 192.754 312.484 192.502 313.252 192.502C313.965 192.502 314.528 192.718 314.942 193.151C315.355 193.584 315.562 194.18 315.562 194.938V195.559H311.963C311.98 196.083 312.121 196.486 312.388 196.77C312.655 197.049 313.031 197.189 313.516 197.189C313.835 197.189 314.131 197.16 314.405 197.102C314.681 197.04 314.978 196.939 315.293 196.799V197.731C315.013 197.865 314.73 197.959 314.444 198.015C314.157 198.07 313.83 198.098 313.462 198.098ZM313.252 193.371C312.888 193.371 312.595 193.487 312.373 193.718C312.155 193.949 312.025 194.286 311.983 194.729H314.434C314.427 194.283 314.32 193.946 314.112 193.718C313.903 193.487 313.617 193.371 313.252 193.371ZM319.087 198.098C318.413 198.098 317.887 197.854 317.51 197.365C317.132 196.877 316.943 196.192 316.943 195.31C316.943 194.424 317.134 193.736 317.515 193.244C317.899 192.749 318.429 192.502 319.106 192.502C319.816 192.502 320.356 192.764 320.728 193.288H320.786C320.731 192.901 320.703 192.595 320.703 192.37V190.402H321.855V198H320.957L320.757 197.292H320.703C320.335 197.829 319.797 198.098 319.087 198.098ZM319.395 197.17C319.867 197.17 320.21 197.038 320.425 196.774C320.64 196.507 320.75 196.076 320.757 195.48V195.319C320.757 194.639 320.646 194.156 320.425 193.869C320.203 193.583 319.857 193.439 319.385 193.439C318.981 193.439 318.67 193.604 318.452 193.933C318.234 194.258 318.125 194.724 318.125 195.329C318.125 195.928 318.231 196.385 318.442 196.701C318.654 197.014 318.971 197.17 319.395 197.17Z" fill="#333739"/>
<path d="M327 204L241.853 204L207 165" stroke="#333739"/>
<path d="M52.6143 51L50.5439 45.0381H50.5049C50.5602 45.9235 50.5879 46.7536 50.5879 47.5283V51H49.5283V43.8613H51.1738L53.1562 49.54H53.1855L55.2266 43.8613H56.877V51H55.7539V47.4697C55.7539 47.1149 55.762 46.6527 55.7783 46.083C55.7979 45.5133 55.8141 45.1683 55.8271 45.0479H55.7881L53.6445 51H52.6143ZM58.2145 45.5996H59.4645L60.5631 48.6611C60.7291 49.0973 60.8398 49.5075 60.8951 49.8916H60.9342C60.9635 49.7126 61.0172 49.4961 61.0953 49.2422C61.1734 48.985 61.5868 47.7708 62.3355 45.5996H63.5758L61.2662 51.7178C60.8463 52.8408 60.1464 53.4023 59.1666 53.4023C58.9127 53.4023 58.6653 53.3747 58.4244 53.3193V52.4111C58.5969 52.4502 58.7939 52.4697 59.0152 52.4697C59.5686 52.4697 59.9576 52.1491 60.1822 51.5078L60.3824 51L58.2145 45.5996ZM73.5457 51H72.3738V47.7822H69.0828V51H67.9158V43.8613H69.0828V46.7812H72.3738V43.8613H73.5457V51ZM80.4936 48.29C80.4936 49.1722 80.2673 49.8607 79.8148 50.3555C79.3624 50.8503 78.7325 51.0977 77.9252 51.0977C77.4206 51.0977 76.9747 50.9837 76.5873 50.7559C76.1999 50.528 75.9021 50.2008 75.6938 49.7744C75.4854 49.348 75.3813 48.8532 75.3813 48.29C75.3813 47.4144 75.6059 46.7308 76.0551 46.2393C76.5043 45.7477 77.1374 45.502 77.9545 45.502C78.7357 45.502 79.3542 45.7542 79.81 46.2588C80.2657 46.7601 80.4936 47.4372 80.4936 48.29ZM76.5629 48.29C76.5629 49.5368 77.0235 50.1602 77.9447 50.1602C78.8562 50.1602 79.3119 49.5368 79.3119 48.29C79.3119 47.0563 78.8529 46.4395 77.935 46.4395C77.4532 46.4395 77.1033 46.599 76.8852 46.918C76.6703 47.237 76.5629 47.6943 76.5629 48.29ZM83.3643 51H82.2168V43.4023H83.3643V51ZM87.2311 51.0977C86.5572 51.0977 86.0315 50.8535 85.6539 50.3652C85.2763 49.877 85.0875 49.1917 85.0875 48.3096C85.0875 47.4242 85.2779 46.7357 85.6588 46.2441C86.0429 45.7493 86.5735 45.502 87.2506 45.502C87.9602 45.502 88.5006 45.764 88.8717 46.2881H88.9303C88.8749 45.9007 88.8473 45.5947 88.8473 45.3701V43.4023H89.9996V51H89.1012L88.901 50.292H88.8473C88.4794 50.8291 87.9407 51.0977 87.2311 51.0977ZM87.5387 50.1699C88.0107 50.1699 88.3541 50.0381 88.5689 49.7744C88.7838 49.5075 88.8945 49.0762 88.901 48.4805V48.3193C88.901 47.639 88.7903 47.1556 88.5689 46.8691C88.3476 46.5827 88.0009 46.4395 87.5289 46.4395C87.1253 46.4395 86.8144 46.6038 86.5963 46.9326C86.3782 47.2581 86.2691 47.7236 86.2691 48.3291C86.2691 48.9281 86.3749 49.3854 86.5865 49.7012C86.7981 50.0137 87.1155 50.1699 87.5387 50.1699ZM93.1877 51H92.0402V45.5996H93.1877V51ZM91.9719 44.1689C91.9719 43.9639 92.0272 43.806 92.1379 43.6953C92.2518 43.5846 92.413 43.5293 92.6213 43.5293C92.8231 43.5293 92.9794 43.5846 93.09 43.6953C93.204 43.806 93.2609 43.9639 93.2609 44.1689C93.2609 44.3643 93.204 44.5189 93.09 44.6328C92.9794 44.7435 92.8231 44.7988 92.6213 44.7988C92.413 44.7988 92.2518 44.7435 92.1379 44.6328C92.0272 44.5189 91.9719 44.3643 91.9719 44.1689ZM99.9842 51H98.8318V47.6797C98.8318 47.263 98.7472 46.9521 98.5779 46.7471C98.4119 46.542 98.1466 46.4395 97.782 46.4395C97.297 46.4395 96.9422 46.5827 96.7176 46.8691C96.493 47.1556 96.3807 47.6357 96.3807 48.3096V51H95.2332V45.5996H96.1316L96.2928 46.3076H96.3514C96.5141 46.0505 96.7452 45.8519 97.0447 45.7119C97.3442 45.5719 97.6762 45.502 98.0408 45.502C99.3364 45.502 99.9842 46.1611 99.9842 47.4795V51ZM106.541 45.5996V46.2295L105.619 46.4004C105.703 46.5143 105.773 46.6543 105.829 46.8203C105.884 46.9863 105.912 47.1621 105.912 47.3477C105.912 47.9043 105.719 48.3421 105.335 48.6611C104.951 48.9801 104.422 49.1396 103.748 49.1396C103.576 49.1396 103.42 49.1266 103.28 49.1006C103.032 49.2536 102.909 49.4326 102.909 49.6377C102.909 49.7614 102.966 49.8542 103.079 49.916C103.197 49.9779 103.41 50.0088 103.719 50.0088H104.662C105.257 50.0088 105.71 50.1357 106.019 50.3896C106.328 50.6436 106.483 51.0098 106.483 51.4883C106.483 52.1003 106.231 52.5723 105.726 52.9043C105.221 53.2363 104.492 53.4023 103.538 53.4023C102.803 53.4023 102.241 53.2721 101.854 53.0117C101.467 52.7513 101.273 52.3802 101.273 51.8984C101.273 51.5664 101.377 51.2865 101.585 51.0586C101.797 50.834 102.092 50.6777 102.469 50.5898C102.316 50.5247 102.189 50.4206 102.088 50.2773C101.991 50.1309 101.942 49.9779 101.942 49.8184C101.942 49.6165 101.999 49.4456 102.113 49.3057C102.227 49.1657 102.396 49.0273 102.621 48.8906C102.341 48.7702 102.113 48.5749 101.937 48.3047C101.764 48.0312 101.678 47.7122 101.678 47.3477C101.678 46.7617 101.862 46.3076 102.23 45.9854C102.601 45.6631 103.128 45.502 103.812 45.502C103.965 45.502 104.124 45.5133 104.29 45.5361C104.46 45.5557 104.587 45.5768 104.671 45.5996H106.541ZM102.298 51.8398C102.298 52.0872 102.409 52.2777 102.63 52.4111C102.855 52.5446 103.169 52.6113 103.573 52.6113C104.198 52.6113 104.663 52.5218 104.969 52.3428C105.275 52.1637 105.428 51.9261 105.428 51.6299C105.428 51.3955 105.343 51.2279 105.174 51.127C105.008 51.0293 104.697 50.9805 104.242 50.9805H103.372C103.044 50.9805 102.782 51.057 102.586 51.21C102.394 51.3662 102.298 51.5762 102.298 51.8398ZM102.791 47.3477C102.791 47.6862 102.878 47.9466 103.05 48.1289C103.226 48.3112 103.477 48.4023 103.802 48.4023C104.466 48.4023 104.798 48.0475 104.798 47.3379C104.798 46.9863 104.715 46.7161 104.549 46.5273C104.386 46.3353 104.137 46.2393 103.802 46.2393C103.47 46.2393 103.218 46.3337 103.045 46.5225C102.876 46.7113 102.791 46.9863 102.791 47.3477ZM111.575 49.4619C111.575 49.9893 111.383 50.3945 110.999 50.6777C110.615 50.9577 110.065 51.0977 109.349 51.0977C108.629 51.0977 108.051 50.9886 107.615 50.7705V49.7793C108.25 50.0723 108.841 50.2188 109.388 50.2188C110.094 50.2188 110.447 50.0055 110.447 49.5791C110.447 49.4424 110.408 49.3285 110.33 49.2373C110.252 49.1462 110.123 49.0518 109.944 48.9541C109.765 48.8564 109.516 48.7458 109.197 48.6221C108.576 48.3812 108.154 48.1403 107.933 47.8994C107.715 47.6585 107.605 47.346 107.605 46.9619C107.605 46.4997 107.791 46.1416 108.162 45.8877C108.536 45.6305 109.044 45.502 109.686 45.502C110.32 45.502 110.921 45.6305 111.487 45.8877L111.116 46.752C110.534 46.5111 110.044 46.3906 109.646 46.3906C109.041 46.3906 108.738 46.5632 108.738 46.9082C108.738 47.0775 108.816 47.2207 108.973 47.3379C109.132 47.4551 109.477 47.6162 110.008 47.8213C110.454 47.9938 110.778 48.1517 110.979 48.2949C111.181 48.4382 111.331 48.6042 111.429 48.793C111.526 48.9785 111.575 49.2015 111.575 49.4619Z" fill="#333739"/>
<path d="M44 57H116.19L121.5 65" stroke="#333739"/>
</svg>
