<svg width="192" height="26" viewBox="0 0 192 26" fill="none" xmlns="http://www.w3.org/2000/svg">
<path fill-rule="evenodd" clip-rule="evenodd" d="M0 25H25V0H0V25Z" fill="#780000"/>
<path d="M16.6799 4.73724H3.38376L9.27548 12.5H22.5717L16.6799 4.73724Z" fill="white"/>
<path d="M22.5717 12.5H9.27548L3.38376 20.2627H16.6799L22.5717 12.5Z" fill="#FF0000"/>
<path fill-rule="evenodd" clip-rule="evenodd" d="M43.9094 16.9305C42.9613 17.6863 41.8187 18.0816 40.6082 18.0816C37.6754 18.0816 35.3937 15.7457 35.3937 12.7637C35.3937 9.77969 37.6754 7.44219 40.6082 7.44219C41.8187 7.44219 42.9613 7.8418 43.9078 8.59414L43.9566 8.63398L46.2191 6.37266L46.1633 6.32383C44.6195 4.98828 42.6445 4.25 40.6082 4.25C35.8605 4.25 32 8.06914 32 12.7637C32 17.4586 35.8605 21.2766 40.6082 21.2766C42.6445 21.2766 44.6195 20.5391 46.1645 19.2016L46.2191 19.1527L43.9566 16.893L43.9094 16.9305ZM49.2887 20.8043H52.5367V4.72305H49.2887V20.8043ZM65.3641 14.9969C65.2488 14.7891 59.6906 4.6918 59.6906 4.6918H56.516V20.7711H59.7648V11.166C60.0043 11.5848 65.3641 20.9016 65.3641 20.9016C65.3641 20.9016 70.707 11.5871 70.9473 11.1676V20.7711H74.1934V4.6918H71.0187C71.0187 4.6918 65.4816 14.7891 65.3641 14.9969ZM84.4262 17.8918H81.2469V14.107H84.4262C85.9121 14.107 86.441 15.0801 86.441 15.9883C86.441 16.909 85.9121 17.8918 84.4262 17.8918ZM81.2469 7.63594H84.2238C85.4734 7.63594 86.216 8.29609 86.216 9.4043C86.216 10.5113 85.4734 11.1762 84.2238 11.1762H81.2469V7.63594ZM87.5777 12.5613C88.2934 12.1668 89.4645 11.0676 89.4645 9.26953C89.4645 6.46602 87.5512 4.72383 84.4711 4.72383H77.9992V20.8043H84.741C87.7914 20.8043 89.6895 19.0195 89.6895 16.1449C89.6895 13.9848 88.4184 12.9863 87.5777 12.5613Z" fill="#780000"/>
<path d="M102.634 20.2051L97.5483 6.91602H97.4663C97.562 7.96875 97.6099 9.21973 97.6099 10.6689V20.2051H96V5.21387H98.625L103.373 17.5801H103.455L108.243 5.21387H110.848V20.2051H109.104V10.5459C109.104 9.43848 109.152 8.23535 109.248 6.93652H109.166L104.039 20.2051H102.634Z" fill="#780000"/>
<path d="M112.971 8.9668H114.796L117.257 15.3755C117.797 16.8384 118.132 17.8945 118.262 18.5439H118.344C118.433 18.1953 118.618 17.6006 118.898 16.7598C119.185 15.9121 120.115 13.3145 121.687 8.9668H123.512L118.683 21.7637C118.204 23.0283 117.644 23.9238 117.001 24.4502C116.365 24.9834 115.583 25.25 114.653 25.25C114.133 25.25 113.621 25.1919 113.115 25.0757V23.7119C113.491 23.7939 113.911 23.835 114.376 23.835C115.545 23.835 116.379 23.1787 116.878 21.8662L117.503 20.2666L112.971 8.9668Z" fill="#780000"/>
<path d="M138.72 20.2051H136.997L133.972 10.1665C133.829 9.72217 133.668 9.16162 133.49 8.48486C133.313 7.80811 133.22 7.40137 133.213 7.26465C133.063 8.16699 132.824 9.15479 132.496 10.228L129.563 20.2051H127.84L123.852 5.21387H125.697L128.066 14.4731C128.394 15.772 128.633 16.9478 128.784 18.0005C128.968 16.7495 129.242 15.5259 129.604 14.3296L132.291 5.21387H134.136L136.956 14.4116C137.284 15.4712 137.561 16.6675 137.787 18.0005C137.917 17.0298 138.163 15.8472 138.525 14.4526L140.883 5.21387H142.729L138.72 20.2051Z" fill="#780000"/>
<path d="M149.61 20.4102C147.949 20.4102 146.637 19.9043 145.673 18.8926C144.716 17.8809 144.237 16.4761 144.237 14.6782C144.237 12.8667 144.682 11.4277 145.57 10.3613C146.466 9.29492 147.666 8.76172 149.169 8.76172C150.578 8.76172 151.692 9.22656 152.512 10.1562C153.333 11.0791 153.743 12.2993 153.743 13.8169V14.8936H146.001C146.035 16.2129 146.367 17.2144 146.996 17.8979C147.631 18.5815 148.523 18.9233 149.672 18.9233C150.882 18.9233 152.078 18.6704 153.261 18.1646V19.6821C152.659 19.9419 152.088 20.1265 151.548 20.2358C151.015 20.3521 150.369 20.4102 149.61 20.4102ZM149.149 10.187C148.247 10.187 147.525 10.481 146.985 11.0688C146.452 11.6567 146.138 12.4702 146.042 13.5093H151.918C151.918 12.436 151.678 11.6157 151.2 11.0483C150.721 10.4741 150.038 10.187 149.149 10.187Z" fill="#780000"/>
<path d="M163.608 20.2051L163.27 18.6055H163.188C162.627 19.3096 162.066 19.7881 161.506 20.041C160.952 20.2871 160.258 20.4102 159.424 20.4102C158.31 20.4102 157.435 20.123 156.799 19.5488C156.17 18.9746 155.856 18.1577 155.856 17.0981C155.856 14.8286 157.671 13.6392 161.301 13.5298L163.208 13.4683V12.771C163.208 11.8892 163.017 11.2397 162.634 10.8228C162.258 10.3989 161.653 10.187 160.819 10.187C159.882 10.187 158.823 10.4741 157.64 11.0483L157.117 9.74609C157.671 9.44531 158.276 9.20947 158.932 9.03857C159.595 8.86768 160.258 8.78223 160.921 8.78223C162.261 8.78223 163.252 9.07959 163.895 9.67432C164.544 10.269 164.869 11.2227 164.869 12.5352V20.2051H163.608ZM159.763 19.0054C160.822 19.0054 161.653 18.7148 162.254 18.1338C162.863 17.5527 163.167 16.7393 163.167 15.6934V14.6782L161.465 14.75C160.111 14.7979 159.134 15.0098 158.532 15.3857C157.938 15.7549 157.64 16.3325 157.64 17.1187C157.64 17.7339 157.825 18.2021 158.194 18.5234C158.57 18.8447 159.093 19.0054 159.763 19.0054Z" fill="#780000"/>
<path d="M170.13 20.2051H168.428V4.25H170.13V20.2051Z" fill="#780000"/>
<path d="M177.412 19.0054C177.712 19.0054 178.003 18.9849 178.283 18.9438C178.564 18.896 178.786 18.8481 178.95 18.8003V20.1025C178.765 20.1914 178.492 20.2632 178.129 20.3179C177.774 20.3794 177.453 20.4102 177.166 20.4102C174.992 20.4102 173.905 19.2651 173.905 16.9751V10.2896H172.295V9.46924L173.905 8.76172L174.623 6.3623H175.607V8.9668H178.868V10.2896H175.607V16.9033C175.607 17.5801 175.768 18.0996 176.089 18.4619C176.41 18.8242 176.851 19.0054 177.412 19.0054Z" fill="#780000"/>
<path d="M188.938 20.2051V12.9351C188.938 12.019 188.73 11.3354 188.313 10.8843C187.896 10.4331 187.243 10.2075 186.354 10.2075C185.171 10.2075 184.307 10.5288 183.76 11.1714C183.22 11.814 182.95 12.8667 182.95 14.3296V20.2051H181.248V4.25H182.95V9.07959C182.95 9.66064 182.922 10.1426 182.868 10.5254H182.97C183.305 9.98535 183.78 9.56152 184.396 9.25391C185.018 8.93945 185.725 8.78223 186.518 8.78223C187.892 8.78223 188.921 9.11035 189.605 9.7666C190.295 10.416 190.64 11.4517 190.64 12.8735V20.2051H188.938Z" fill="#780000"/>
</svg>
