<svg width="380" height="306" viewBox="0 0 380 306" fill="none" xmlns="http://www.w3.org/2000/svg">
<path opacity="0.3" fill-rule="evenodd" clip-rule="evenodd" d="M271.086 281.249C271.086 281.249 311.073 281.186 311 282.853C310.758 288.435 279.312 285.167 276.73 286.845C275.461 287.667 276.864 289.459 274.628 290.62C265.741 295.233 234.829 291.046 223.788 291.078C193.721 291.169 186.107 293.244 182.617 293.512C172.822 294.257 145.105 293.966 137.304 293.82C121.258 293.519 78.1023 294.748 79.0142 290.031C79.4232 287.916 120.861 283.451 127.918 282.882C133.953 282.393 138.101 279.453 143.515 277.728C151.098 275.314 159.415 273.855 167.598 272.937C201.886 269.094 237.034 278.111 271.086 281.249Z" fill="#333739"/>
<g opacity="0.05">
<path fill-rule="evenodd" clip-rule="evenodd" d="M77.0962 289H315.988C324.854 282.019 386.364 232.094 379.461 172.613C374.921 133.516 342.055 109.668 276.32 61.9735C221.226 21.9991 193.679 2.01281 161.278 0.188372C96.7116 -3.44674 13.1778 45.7915 1.27969 125.196C-11.6082 211.196 77.0962 289 77.0962 289Z" fill="#333739"/>
</g>
<path fill-rule="evenodd" clip-rule="evenodd" d="M157.305 88.9634C157.371 88.9654 153.06 94.0597 148.477 94.6238C144.168 95.158 138.229 91.0908 138.278 91.0574C139.786 90.0572 140.677 87.6828 136.666 77.9975L137.469 77.838L150.961 75.1898C150.961 75.1898 152.287 79.2364 153.794 82.9416C155.061 86.0514 156.457 88.9233 157.305 88.9634Z" fill="#FFDDC5"/>
<path opacity="0.1" fill-rule="evenodd" clip-rule="evenodd" d="M150.96 75.1905C150.96 75.1905 152.286 79.2371 153.796 82.9421C146.733 85.6107 140.429 80.7519 137.469 77.8387L150.96 75.1905Z" fill="#333739"/>
<path fill-rule="evenodd" clip-rule="evenodd" d="M152.686 74.4894C152.686 74.4894 137.516 83.918 131.793 74.3748C126.07 64.8315 120.258 59.6215 129.703 53.1979C139.146 46.7725 143.229 49.2755 145.915 51.9957C148.599 54.7161 156.485 71.7907 152.686 74.4894Z" fill="#FFDDC5"/>
<mask id="mask0" style="mask-type:alpha" maskUnits="userSpaceOnUse" x="121" y="42" width="29" height="39">
<path fill-rule="evenodd" clip-rule="evenodd" d="M121.449 44.6875L146.104 42.5291L149.202 77.9679L124.547 80.1264L121.449 44.6875Z" fill="white"/>
</mask>
<g mask="url(#mask0)">
<path fill-rule="evenodd" clip-rule="evenodd" d="M140.334 43.0342C147.616 45.1427 148.137 48.9923 143.914 52.0093C139.69 55.0301 133.098 58.8222 133.098 58.8222C133.098 58.8222 141.004 75.0133 138.026 71.7199C135.05 68.4282 136.628 66.635 133.221 65.2085C129.815 63.7819 129.088 66.5839 130.301 68.4505C131.518 70.3149 136.287 79.0986 136.287 79.0986C136.287 79.0986 127.733 71.7702 124.786 65.9566C121.845 60.1445 121.368 54.0412 127.644 51.4589C133.927 48.8759 135.711 50.2914 138.757 47.521C141.805 44.7541 140.334 43.0342 140.334 43.0342Z" fill="#333739"/>
</g>
<path fill-rule="evenodd" clip-rule="evenodd" d="M185.104 135.651L166.743 153.643L271.245 221.076L278.343 214.222" fill="#333739"/>
<path fill-rule="evenodd" clip-rule="evenodd" d="M186.417 136.941L158.165 151.743L180.953 203.605L189.68 270.622L198.603 266.463L197.451 197.574L186.417 136.941Z" fill="#333739"/>
<path fill-rule="evenodd" clip-rule="evenodd" d="M168.484 90.5179C162.549 88.508 155.94 86.3116 155.94 86.3116L153.065 88.8248L149.366 91.6873L145.466 94.1798L174.113 105.865C174.524 105.584 175.001 105.404 175.52 105.358L178.203 105.124C176.759 104.892 175.585 103.589 175.439 101.921C175.306 100.406 176.063 99.0403 177.238 98.4443L176.031 98.55C175.045 98.6363 174.163 97.7872 174.064 96.6544L173.81 93.7465C173.767 93.2631 173.874 92.8058 174.088 92.4336C174.072 92.428 174.055 92.4223 174.039 92.4167C173.682 92.293 173.307 92.1632 172.915 92.0286L170.431 92.2462C169.492 92.3283 168.651 91.5657 168.484 90.5179Z" fill="#FF6666"/>
<path fill-rule="evenodd" clip-rule="evenodd" d="M197.279 132.968C197.279 132.968 188.482 139.138 188.016 139.149C187.437 139.167 166.527 109.113 166.544 109.133L172.933 112.349" fill="white"/>
<path fill-rule="evenodd" clip-rule="evenodd" d="M190.838 268.995L200.794 266.846C200.794 266.846 207.969 271.645 210.492 272.614C213.017 273.584 221.459 273.721 221.459 273.721L221.978 276.129L201.109 280.634C201.109 280.634 196.966 277.881 197.4 279.926C197.831 281.972 192.339 282.487 192.339 282.487L189.351 269.317" fill="#333739"/>
<path fill-rule="evenodd" clip-rule="evenodd" d="M272.253 219.766L279.211 212.324C279.211 212.324 287.838 212.175 290.464 211.535C293.092 210.892 300.108 206.191 300.108 206.191L301.905 207.872L287.321 223.474C287.321 223.474 282.349 223.574 283.868 225.009C285.388 226.442 281.169 229.999 281.169 229.999L271.213 220.879" fill="#333739"/>
<path fill-rule="evenodd" clip-rule="evenodd" d="M218.673 129.759L212.393 136.147L214.712 139.783C214.712 139.783 217.102 140.169 217.306 140.151C217.512 140.133 219.672 139.08 219.864 139.059C220.055 139.035 221.128 139.514 221.435 139.491C221.741 139.47 223.939 138.317 224.179 138.315C224.419 138.31 226.608 139.068 226.905 139.012C227.205 138.959 228.879 135.289 228.879 135.289L224.264 131.302L219.27 129.15" fill="#FFDDC5"/>
<g opacity="0.5">
<path d="M207.559 38.415L214.532 40.5334C215.925 40.9561 217.453 40.0955 217.949 38.6084C218.442 37.1234 217.716 35.5746 216.322 35.1521L184.418 25.4591C183.025 25.0365 181.497 25.897 181.001 27.3841C180.507 28.8692 181.233 30.416 182.626 30.8406L198.867 35.7744L162.631 38.9466C160.826 39.1046 159.498 40.7906 159.666 42.7119C159.772 43.9176 160.44 44.9298 161.371 45.4774L155.111 46.0254C153.306 46.1834 151.98 47.8692 152.148 49.7905C152.316 51.7118 153.913 53.1417 155.719 52.9835L157.604 52.8185C157.207 53.4629 157.005 54.2607 157.079 55.1047C157.206 56.561 158.118 57.7395 159.308 58.1691L157.73 58.3072C155.977 58.4606 154.694 60.1543 154.864 62.091C155.033 64.0276 156.589 65.4728 158.343 65.3192L198.495 61.8041C200.246 61.6508 201.53 59.9571 201.36 58.0205C201.233 56.5641 200.322 55.3856 199.132 54.956L200.711 54.8178C202.462 54.6645 203.745 52.9708 203.576 51.0341C203.406 49.0975 201.851 47.6523 200.098 47.8058L199.508 47.8574C199.914 47.2183 200.122 46.4298 200.049 45.597C199.944 44.3912 199.276 43.379 198.346 42.8314L204.606 42.2833C206.411 42.1253 207.737 40.4395 207.569 38.5182C207.566 38.4837 207.563 38.4493 207.559 38.415Z" fill="white"/>
<path d="M227.691 135.616L183.714 139.466C181.959 139.62 180.404 138.175 180.234 136.238C180.081 134.489 181.114 132.937 182.607 132.541C181.014 132.472 179.666 131.099 179.509 129.304C179.34 127.367 180.623 125.674 182.374 125.52L223.776 121.896C225.53 121.742 227.084 123.187 227.253 125.124C227.402 126.825 226.432 128.338 225.006 128.786L227.078 128.604C228.832 128.451 230.386 129.896 230.556 131.833C230.725 133.769 229.444 135.463 227.691 135.616Z" fill="white"/>
<path d="M217.319 115.393L222.099 114.974C223.085 114.888 223.967 115.737 224.066 116.87L224.32 119.781C224.419 120.912 223.698 121.902 222.712 121.988L180.484 125.685C179.498 125.771 178.617 124.922 178.518 123.791L178.263 120.879C178.173 119.848 178.763 118.935 179.613 118.715L174.755 119.141C173.769 119.227 172.887 118.376 172.788 117.245L172.533 114.337C172.434 113.204 173.155 112.215 174.141 112.129L174.601 112.088C173.55 111.585 172.77 110.481 172.653 109.142C172.484 107.205 173.767 105.511 175.52 105.358L178.203 105.123C176.759 104.892 175.585 103.588 175.439 101.92C175.306 100.405 176.063 99.0396 177.238 98.4436L176.031 98.5493C175.045 98.6356 174.163 97.7865 174.064 96.6537L173.81 93.7458C173.743 92.9829 174.048 92.2851 174.556 91.8843L170.431 92.2454C169.443 92.3319 168.563 91.4826 168.464 90.3499L168.209 87.442C168.128 86.5111 168.599 85.6771 169.318 85.3614L158.642 86.296C156.89 86.4494 155.332 85.0045 155.163 83.0678C154.993 81.1311 156.278 79.4373 158.029 79.284L158.837 79.2133C157.59 78.82 156.624 77.613 156.493 76.1099C156.323 74.1732 157.606 72.4796 159.359 72.3261L159.878 72.2807C158.367 72.1185 157.114 70.7834 156.963 69.0579C156.794 67.1212 158.079 65.4274 159.83 65.2741L199.982 61.759C201.737 61.6054 203.29 63.0507 203.46 64.9874C203.629 66.9241 202.348 68.6176 200.595 68.771L200.077 68.8164C201.588 68.9785 202.838 70.3139 202.989 72.0394C203.158 73.9761 201.877 75.6696 200.124 75.823L199.317 75.8937C200.563 76.2871 201.528 77.4942 201.659 78.9973C201.806 80.6713 200.868 82.1636 199.479 82.6367L210.921 81.6351C211.909 81.5486 212.789 82.3979 212.888 83.5306L213.142 86.4385C213.209 87.2014 212.904 87.8992 212.397 88.2999L214.897 88.0811C215.885 87.9946 216.767 88.8437 216.866 89.9765L217.12 92.8844C217.191 93.6921 216.844 94.427 216.281 94.8135L218.458 94.623C220.21 94.4696 221.766 95.9128 221.935 97.8495C222.105 99.7861 220.823 101.48 219.07 101.633L216.387 101.868C217.831 102.099 219.006 103.403 219.151 105.071C219.286 106.614 218.499 108.003 217.287 108.581C217.892 108.872 218.346 109.527 218.415 110.32L218.669 113.228C218.759 114.258 218.169 115.172 217.319 115.393Z" fill="white"/>
</g>
<path opacity="0.5" fill-rule="evenodd" clip-rule="evenodd" d="M200.711 54.8207L160.559 58.3358C158.804 58.4894 157.248 57.0442 157.079 55.1076C156.91 53.1709 158.193 51.4772 159.946 51.3238L200.098 47.8087C201.851 47.6552 203.406 49.1004 203.576 51.0371C203.745 52.9737 202.462 54.6674 200.711 54.8207Z" fill="#FFAB00"/>
<path opacity="0.5" fill-rule="evenodd" clip-rule="evenodd" d="M204.606 42.2849L163.24 45.9063C161.433 46.0645 159.834 44.6347 159.666 42.7134C159.498 40.7922 160.826 39.1062 162.631 38.9482L203.998 35.3267C205.805 35.1686 207.401 36.5985 207.569 38.5198C207.737 40.4411 206.411 42.1269 204.606 42.2849Z" fill="#FFAB00"/>
<path opacity="0.3" fill-rule="evenodd" clip-rule="evenodd" d="M197.086 49.3632L155.719 52.9846C153.913 53.1428 152.316 51.7129 152.148 49.7916C151.98 47.8703 153.306 46.1845 155.111 46.0265L196.478 42.405C198.284 42.2469 199.881 43.6768 200.049 45.5981C200.217 47.5193 198.891 49.2052 197.086 49.3632Z" fill="#FFAB00"/>
<path opacity="0.3" fill-rule="evenodd" clip-rule="evenodd" d="M214.532 40.534L182.626 30.8412C181.233 30.4166 180.507 28.8697 181.001 27.3847C181.497 25.8976 183.025 25.0371 184.418 25.4597L216.322 35.1527C217.716 35.5752 218.442 37.124 217.949 38.609C217.453 40.0961 215.925 40.9566 214.532 40.534Z" fill="#FFAB00"/>
<path opacity="0.3" fill-rule="evenodd" clip-rule="evenodd" d="M227.691 135.615L183.714 139.465C181.959 139.618 180.404 138.173 180.234 136.236C180.065 134.3 181.348 132.606 183.101 132.453L227.078 128.603C228.832 128.449 230.386 129.894 230.556 131.831C230.725 133.768 229.444 135.461 227.691 135.615Z" fill="#FFAB00"/>
<path opacity="0.5" fill-rule="evenodd" clip-rule="evenodd" d="M224.389 128.907L182.987 132.531C181.234 132.685 179.679 131.24 179.509 129.303C179.34 127.366 180.623 125.673 182.374 125.519L223.775 121.895C225.53 121.741 227.084 123.187 227.253 125.123C227.423 127.06 226.141 128.753 224.389 128.907Z" fill="#FFAB00"/>
<path opacity="0.3" fill-rule="evenodd" clip-rule="evenodd" d="M222.099 114.975L179.871 118.672C178.885 118.758 178.164 119.747 178.263 120.88L178.518 123.792C178.617 124.923 179.498 125.772 180.484 125.686L222.712 121.989C223.698 121.902 224.419 120.913 224.32 119.782L224.066 116.87C223.967 115.738 223.085 114.889 222.099 114.975Z" fill="#FFAB00"/>
<path opacity="0.5" fill-rule="evenodd" clip-rule="evenodd" d="M216.448 108.425L174.141 112.129C173.155 112.215 172.434 113.204 172.533 114.337L172.788 117.245C172.887 118.376 173.769 119.227 174.755 119.141L217.061 115.437C218.047 115.351 218.768 114.359 218.669 113.228L218.415 110.321C218.316 109.188 217.434 108.339 216.448 108.425Z" fill="#FFAB00"/>
<path opacity="0.3" fill-rule="evenodd" clip-rule="evenodd" d="M216.285 108.856L176.133 112.371C174.378 112.525 172.822 111.079 172.653 109.143C172.484 107.206 173.767 105.512 175.52 105.359L215.672 101.844C217.426 101.69 218.982 103.135 219.151 105.072C219.321 107.009 218.038 108.702 216.285 108.856Z" fill="#FFAB00"/>
<path opacity="0.5" fill-rule="evenodd" clip-rule="evenodd" d="M219.07 101.635L178.918 105.15C177.164 105.304 175.608 103.859 175.439 101.922C175.269 99.9854 176.553 98.2936 178.306 98.1402L218.458 94.6251C220.21 94.4716 221.766 95.9149 221.935 97.8515C222.105 99.7882 220.823 101.482 219.07 101.635Z" fill="#FFAB00"/>
<path opacity="0.5" fill-rule="evenodd" clip-rule="evenodd" d="M210.921 81.6358L169.817 85.2341C168.83 85.3206 168.11 86.3099 168.209 87.4427L168.464 90.3506C168.563 91.4833 169.443 92.3326 170.431 92.2461L211.534 88.6478C212.522 88.5613 213.241 87.572 213.142 86.4392L212.888 83.5313C212.789 82.3986 211.909 81.5493 210.921 81.6358Z" fill="#FFAB00"/>
<path opacity="0.3" fill-rule="evenodd" clip-rule="evenodd" d="M214.897 88.0826L175.418 91.5388C174.432 91.6251 173.711 92.6146 173.81 93.7474L174.064 96.6553C174.163 97.788 175.045 98.6371 176.031 98.5508L215.51 95.0946C216.498 95.0081 217.219 94.0187 217.12 92.8859L216.866 89.978C216.767 88.8453 215.885 87.9962 214.897 88.0826Z" fill="#FFAB00"/>
<path opacity="0.3" fill-rule="evenodd" clip-rule="evenodd" d="M198.795 82.7816L158.642 86.2967C156.89 86.4502 155.332 85.0052 155.163 83.0685C154.993 81.1318 156.278 79.438 158.029 79.2847L198.181 75.7696C199.936 75.616 201.49 77.0613 201.659 78.998C201.829 80.9347 200.547 82.6282 198.795 82.7816Z" fill="#FFAB00"/>
<path opacity="0.3" fill-rule="evenodd" clip-rule="evenodd" d="M198.495 61.8051L158.343 65.3201C156.589 65.4738 155.033 64.0286 154.864 62.0919C154.694 60.1553 155.977 58.4616 157.73 58.3081L197.882 54.7931C199.635 54.6396 201.191 56.0848 201.36 58.0214C201.53 59.9581 200.246 61.6518 198.495 61.8051Z" fill="#FFAB00"/>
<path opacity="0.3" fill-rule="evenodd" clip-rule="evenodd" d="M200.124 75.8246L159.972 79.3397C158.218 79.4933 156.662 78.0481 156.493 76.1115C156.323 74.1748 157.606 72.4811 159.359 72.3277L199.511 68.8126C201.266 68.659 202.82 70.1043 202.989 72.041C203.158 73.9776 201.877 75.6711 200.124 75.8246Z" fill="#FFAB00"/>
<path opacity="0.5" fill-rule="evenodd" clip-rule="evenodd" d="M200.595 68.7699L160.443 72.285C158.69 72.4384 157.132 70.9934 156.963 69.0568C156.794 67.1201 158.079 65.4263 159.83 65.273L199.982 61.7579C201.737 61.6043 203.29 63.0496 203.46 64.9863C203.629 66.9229 202.348 68.6164 200.595 68.7699Z" fill="#FFAB00"/>
<path fill-rule="evenodd" clip-rule="evenodd" d="M197.799 120.007L175.124 99.7335L170.198 109.854L189.763 124.874L212.393 136.146L218.673 129.757L212.393 136.146L214.711 139.782C214.711 139.782 217.102 140.168 217.306 140.15C217.512 140.132 219.672 139.08 219.864 139.058C220.055 139.033 221.127 139.513 221.435 139.492C221.742 139.471 223.939 138.315 224.179 138.314C224.419 138.308 226.608 139.066 226.905 139.013C227.205 138.958 228.879 135.288 228.879 135.288L224.263 131.301L219.27 129.149" fill="#FFDDC5"/>
<path fill-rule="evenodd" clip-rule="evenodd" d="M167.831 109.519C167.831 109.519 186.462 135.374 187.767 137.248C189.075 139.122 189.628 141.236 190.229 144.916C190.827 148.596 188.879 150.387 187.494 153.136C186.109 155.883 166.219 165.87 166.219 165.87C166.219 165.87 156.169 154.037 146.512 127.934C136.853 101.83 139.06 88.8197 138.276 89.2876C137.496 89.757 157.838 85.8193 157.838 85.8193L176.337 99.9958L171.58 112.04" fill="#FF6666"/>
<path fill-rule="evenodd" clip-rule="evenodd" d="M97.8625 198.698C94.8419 197.565 82.3701 187.785 84.3298 181.959C87.2579 173.261 104.02 173.605 111.93 173.453C107.197 178.107 100.028 192.231 97.8625 198.698Z" fill="#C9C6C6"/>
<path fill-rule="evenodd" clip-rule="evenodd" d="M97.8625 198.698C94.8419 197.565 82.3701 187.785 84.3298 181.959C87.2579 173.261 104.02 173.605 111.93 173.453C107.197 178.107 100.028 192.231 97.8625 198.698Z" stroke="#333739" stroke-width="0.693" stroke-linecap="round" stroke-linejoin="round"/>
<path fill-rule="evenodd" clip-rule="evenodd" d="M112.999 248.097C109.655 256.567 97.5668 258.295 94.2035 248.097C90.196 235.944 98.9889 217.887 92.945 203.538C90.8858 198.647 87.1527 194.077 84.9727 195.102C81.1003 196.923 87.9534 197.535 86.5057 214.822C85.1888 230.55 69.9937 242.587 79.1463 259.56C80.8642 262.742 82.5409 266.185 85.1888 268.603C94.3272 276.945 108.142 275.218 112.404 262.603C113.924 258.104 113.301 252.717 112.999 248.097Z" fill="#E62B31"/>
<mask id="mask1" style="mask-type:alpha" maskUnits="userSpaceOnUse" x="76" y="194" width="38" height="80">
<path fill-rule="evenodd" clip-rule="evenodd" d="M84.9727 195.105C81.1003 196.928 87.952 197.536 86.5057 214.827C85.1888 230.553 69.9937 242.59 79.1463 259.563C80.8628 262.745 82.5394 266.188 85.1888 268.607C94.3272 276.948 108.142 275.221 112.404 262.607C113.922 258.107 113.301 252.722 112.999 248.1C109.656 256.57 97.5668 258.298 94.2035 248.1C90.196 235.947 98.9889 217.889 92.945 203.541C91.082 199.119 87.8538 194.961 85.641 194.961C85.405 194.961 85.1817 195.008 84.9727 195.105Z" fill="white"/>
</mask>
<g mask="url(#mask1)">
<path fill-rule="evenodd" clip-rule="evenodd" d="M83.8387 195.859C90.5538 194.86 92.532 219.018 87.94 232.238C85.6931 238.708 84.0719 245.953 84.4673 252.975C84.9693 261.869 90.9193 271.191 100.87 269.183C103.185 268.716 105.177 267.134 106.365 264.996C110.724 257.146 104.382 251.361 102.534 243.963C101.633 240.355 101.599 236.444 101.42 232.74C100.887 221.736 100.902 211.365 95.3122 201.668C93.6128 198.718 90.2054 190.397 83.8387 195.859Z" fill="#BB1818"/>
</g>
<mask id="mask2" style="mask-type:alpha" maskUnits="userSpaceOnUse" x="76" y="194" width="38" height="80">
<path fill-rule="evenodd" clip-rule="evenodd" d="M84.9727 195.105C81.1003 196.928 87.952 197.536 86.5057 214.827C85.1888 230.553 69.9937 242.59 79.1463 259.563C80.8628 262.745 82.5394 266.188 85.1888 268.607C94.3272 276.948 108.142 275.221 112.404 262.607C113.922 258.107 113.301 252.722 112.999 248.1C109.656 256.57 97.5668 258.298 94.2035 248.1C90.196 235.947 98.9889 217.889 92.945 203.541C91.082 199.119 87.8538 194.961 85.641 194.961C85.405 194.961 85.1817 195.008 84.9727 195.105Z" fill="white"/>
</mask>
<g mask="url(#mask2)">
<path fill-rule="evenodd" clip-rule="evenodd" d="M83.7804 196.68C89.4659 201.536 88.8075 213.958 87.2986 220.844C85.4983 229.05 82.3768 235.253 80.4384 243.449C79.2368 248.531 79.4444 253.311 80.4825 258.415C80.8252 260.095 81.2547 261.743 81.8108 263.36C81.9956 263.893 82.1677 264.442 82.3924 264.959C82.5062 265.22 83.0096 265.796 82.7437 265.735C79.3647 264.954 76.4665 256.855 75.5407 253.829C71.4351 240.411 77.0055 226.348 77.6767 212.793C77.8246 209.809 79.6691 197.369 83.7804 196.68Z" fill="#F190AE"/>
</g>
<path fill-rule="evenodd" clip-rule="evenodd" d="M112.999 248.101C109.655 256.571 97.5668 258.299 94.2035 248.101C90.196 235.948 98.9889 217.891 92.945 203.542C90.8858 198.651 87.1527 194.081 84.9727 195.106C81.1003 196.927 87.9534 197.539 86.5057 214.826C85.1888 230.554 69.9937 242.591 79.1463 259.564C80.8642 262.746 82.5409 266.189 85.1888 268.606C94.3272 276.949 108.142 275.222 112.404 262.607C113.924 258.108 113.301 252.721 112.999 248.101Z" stroke="#333739" stroke-width="0.693" stroke-linecap="round" stroke-linejoin="round"/>
<path fill-rule="evenodd" clip-rule="evenodd" d="M151.113 267.272C159.517 277.297 176.019 275.758 185.517 268.662C191.373 264.286 195.668 258.27 199.236 251.777C203.201 244.566 215.118 232.062 213.242 229.94C211.368 227.818 203.849 234.024 199.984 237.319C191.407 244.632 185.469 254.736 174.083 257.488C164.705 259.757 155.768 257.753 154.866 245.834C154.539 241.524 155.253 237.234 157.273 233.438C149.094 240.599 142.914 257.488 151.113 267.272Z" fill="#E62B31"/>
<mask id="mask3" style="mask-type:alpha" maskUnits="userSpaceOnUse" x="147" y="229" width="67" height="46">
<path fill-rule="evenodd" clip-rule="evenodd" d="M199.984 237.319C191.407 244.631 185.467 254.734 174.083 257.487C164.706 259.754 155.768 257.751 154.865 245.833C154.539 241.522 155.253 237.232 157.271 233.438C149.094 240.598 142.913 257.487 151.115 267.27C159.516 277.295 176.02 275.757 185.517 268.66C191.373 264.285 195.668 258.267 199.237 251.776C203.2 244.565 214.493 232.643 213.242 229.938C213.043 229.506 212.666 229.316 212.16 229.316C209.498 229.315 203.232 234.548 199.984 237.319Z" fill="white"/>
</mask>
<g mask="url(#mask3)">
<path fill-rule="evenodd" clip-rule="evenodd" d="M161.434 257.102C164.038 263.005 170.457 263.566 175.944 263.091C189.191 261.946 198.063 250.185 205.661 240.013C207.391 237.696 214.615 227.612 216.634 234.749C218.216 240.337 214.218 249.667 212.261 254.845C205.364 273.082 192.918 286.175 173.132 283.932C170.113 283.591 167.132 282.665 164.202 281.854C159.362 280.514 153.531 279.002 149.833 275.215C143.44 268.669 141.134 258.25 144.524 249.436C145.782 246.167 151.757 237.305 156.084 240.3C156.734 245.3 158.742 252.806 161.434 257.102Z" fill="#BB1818"/>
</g>
<path fill-rule="evenodd" clip-rule="evenodd" d="M151.113 267.269C159.517 277.294 176.019 275.756 185.517 268.659C191.373 264.283 195.668 258.267 199.236 251.774C203.201 244.564 215.118 232.911 213.242 229.937C211.368 226.964 203.849 234.021 199.984 237.317C191.407 244.63 185.469 254.733 174.083 257.486C164.705 259.755 155.768 257.75 154.866 245.832C154.539 241.521 155.253 237.231 157.273 233.435C149.094 240.597 142.914 257.486 151.113 267.269Z" stroke="#333739" stroke-width="0.693" stroke-linecap="round" stroke-linejoin="round"/>
<path fill-rule="evenodd" clip-rule="evenodd" d="M106.199 247.127C105.042 255.443 97.2657 258.332 89.6632 255.479C83.4358 253.142 78.1569 247.916 72.497 244.196C65.3922 239.524 60.365 236.992 51.9334 236.363C44.5655 235.814 35.8423 238.632 35.2351 247.127C35.0047 250.356 37.9129 255.977 41.7611 254.385C45.0846 253.008 41.37 249.186 44.702 247.127C50.7331 243.402 62.7584 252.676 66.9309 257.865C75.2686 268.234 86.5644 278.832 98.6323 275.76C106.199 273.834 116.891 260.476 106.199 247.127Z" fill="#E62B31"/>
<mask id="mask4" style="mask-type:alpha" maskUnits="userSpaceOnUse" x="35" y="236" width="76" height="41">
<path fill-rule="evenodd" clip-rule="evenodd" d="M35.2333 247.127C35.0029 250.358 37.9125 255.978 41.7622 254.386C45.0856 253.009 41.3697 249.188 44.7031 247.127C50.7328 243.403 62.7581 252.678 66.9305 257.866C75.2697 268.236 86.564 278.832 98.632 275.761C106.199 273.836 116.89 260.476 106.199 247.127C105.041 255.443 97.2668 258.334 89.6628 255.479C83.4354 253.144 78.158 247.918 72.4966 244.196C65.3918 239.526 60.3647 236.994 51.9345 236.363C51.3486 236.321 50.7555 236.297 50.1583 236.297C43.2326 236.297 35.7936 239.308 35.2333 247.127Z" fill="white"/>
</mask>
<g mask="url(#mask4)">
<path fill-rule="evenodd" clip-rule="evenodd" d="M107.476 249.613C106.846 259.725 98.1779 263.312 90.6707 262.153C79.0094 260.353 72.1492 252.212 68.6139 249.837C65.6929 247.873 62.7804 246.263 59.5323 244.997C54.3019 242.953 43.3758 240.917 43.8821 250.648C44.1367 255.546 54.2706 258.153 57.8415 259.803C60.7625 261.152 63.5811 262.678 66.3015 264.434C69.4842 266.488 73.8401 271.714 77.3157 272.138C81.5763 272.659 86.063 269.803 90.1175 268.76C93.3542 267.929 96.7317 267.741 100.028 267.292C103.033 266.882 106.179 266.197 108.674 264.275C113.885 260.26 112.301 253.432 107.476 249.613Z" fill="#BB1818"/>
</g>
<path fill-rule="evenodd" clip-rule="evenodd" d="M106.199 247.127C105.042 255.443 97.2656 258.332 89.6631 255.479C83.4357 253.142 78.1569 247.916 72.4969 244.196C65.3921 239.524 60.365 236.992 51.9333 236.363C44.5654 235.814 35.8423 238.632 35.235 247.127C35.0046 250.356 37.9128 255.977 41.761 254.385C45.0845 253.008 41.37 249.186 44.7019 247.127C50.7331 243.402 62.7584 252.676 66.9308 257.865C75.2686 268.234 86.5643 278.832 98.6323 275.76C106.199 273.834 116.891 260.476 106.199 247.127Z" stroke="#333739" stroke-width="0.693" stroke-linecap="round" stroke-linejoin="round"/>
<path fill-rule="evenodd" clip-rule="evenodd" d="M48.371 236.387C39.544 237.106 35.6617 241.153 35.235 247.126C35.0046 250.356 37.9128 255.976 41.761 254.385C45.0845 253.008 41.2548 248.099 45.3632 246.155" fill="#E62B31"/>
<mask id="mask5" style="mask-type:alpha" maskUnits="userSpaceOnUse" x="35" y="236" width="14" height="19">
<path fill-rule="evenodd" clip-rule="evenodd" d="M35.2333 247.126C35.0029 250.356 37.9125 255.976 41.7622 254.385C45.0856 253.007 41.2545 248.099 45.3629 246.155L48.3707 236.387C39.5437 237.105 35.6614 241.153 35.2333 247.126Z" fill="white"/>
</mask>
<g mask="url(#mask5)">
<path fill-rule="evenodd" clip-rule="evenodd" d="M49.3909 242.477C48.6158 242.259 45.6735 242.424 44.88 242.554C42.2377 242.985 40.4004 245.44 39.9752 248.119C39.8059 249.183 39.8884 250.429 39.3025 251.362C38.4791 252.675 36.5507 252.284 36.1255 253.266C35.5652 254.558 36.5109 256.254 37.4922 256.977C43.1336 261.138 46.0731 253.225 48.047 249.261C48.9287 247.488 50.5513 244.546 49.3909 242.477Z" fill="#BB1818"/>
</g>
<mask id="mask6" style="mask-type:alpha" maskUnits="userSpaceOnUse" x="35" y="236" width="14" height="19">
<path fill-rule="evenodd" clip-rule="evenodd" d="M35.2333 247.126C35.0029 250.356 37.9125 255.976 41.7622 254.385C45.0856 253.007 41.2545 248.099 45.3629 246.155L48.3707 236.387C39.5437 237.105 35.6614 241.153 35.2333 247.126Z" fill="white"/>
</mask>
<g mask="url(#mask6)">
<path fill-rule="evenodd" clip-rule="evenodd" d="M53.5718 236.913C48.0953 236.024 41.6944 237.072 38.3781 242.21C37.4281 243.681 37.0228 245.367 37.0029 247.137C36.983 248.833 38.5743 253.781 35.2623 253.06C31.6857 252.283 30.9561 246.274 31.4638 243.35C31.734 241.784 32.4778 240.3 33.3865 239.044C37.2049 233.762 47.9929 235.247 53.5718 236.913Z" fill="#F190AE"/>
</g>
<path d="M48.371 236.387C39.544 237.106 35.6617 241.153 35.235 247.126C35.0046 250.356 37.9128 255.976 41.761 254.385C45.0845 253.008 41.2548 248.099 45.3632 246.155" stroke="#333739" stroke-width="0.693" stroke-linecap="round" stroke-linejoin="round"/>
<path fill-rule="evenodd" clip-rule="evenodd" d="M105.257 259.455C113.855 252.902 104.584 248.241 98.7708 238.739C90.231 224.777 86.8095 207.341 91.6247 191.359C100.42 162.163 136.526 151.001 159.75 167.937C164.113 171.118 167.64 174.605 170.479 179.376C178.253 192.444 179.55 212.926 172.426 226.494C170.793 229.6 168.802 232.638 166.487 235.232C157.896 244.853 149.52 253.892 159.317 260.936C167.96 267.153 175.843 260.729 187.668 268.317C193.021 271.754 194.734 279.091 194.734 283.187C194.734 293.986 198.282 297.494 195.92 298.247C191.748 299.577 189.96 284.716 183.797 280.553C175.311 274.822 169.136 280.94 160.5 279.947C163.779 286.404 160.615 299.711 149.289 301.601C137.394 303.586 131.183 289.485 123.363 290.868C117.004 291.993 120.547 306.109 116.072 305.464C114.122 305.184 114.981 300.131 114.122 298.089C110.455 289.364 113.315 281.379 122.902 280.275C130.536 279.396 133.595 283.14 143.642 284.183C137.63 278.689 129.12 278.164 121.61 279.519C117.668 280.228 113.518 281.982 109.448 281.399C109.454 284.198 108.565 287.16 108.218 289.938C107.997 291.691 107.879 293.442 107.952 295.209C107.997 296.339 108.211 297.443 108.414 298.551C108.63 299.721 109.449 302.59 107.357 302.349C106.517 302.25 105.93 301.52 105.548 300.78C103.444 296.695 104.688 290.922 100.749 287.84C95.9351 284.072 91.2848 290.987 85.3376 289.935C73.0549 287.761 70.3998 268.286 80.1683 261.826C90.4003 255.061 98.5546 264.564 105.257 259.455Z" fill="#E62B31"/>
<mask id="mask7" style="mask-type:alpha" maskUnits="userSpaceOnUse" x="74" y="159" width="123" height="147">
<path fill-rule="evenodd" clip-rule="evenodd" d="M91.6252 191.357C86.81 207.34 90.2316 224.776 98.7699 238.738C104.583 248.242 113.856 252.9 105.256 259.455C102.085 261.872 98.5879 261.019 94.6998 260.164C90.371 259.213 85.5586 258.263 80.1688 261.826C70.399 268.285 73.0555 287.76 85.3381 289.934C87.878 290.384 90.1818 289.378 92.3633 288.375C95.2872 287.028 97.9906 285.679 100.748 287.84C104.689 290.922 103.443 296.695 105.548 300.78C105.929 301.519 106.517 302.25 107.357 302.349C109.448 302.589 108.631 299.719 108.415 298.55C108.211 297.443 107.996 296.337 107.951 295.21C107.88 293.441 107.998 291.691 108.217 289.937C108.564 287.159 109.454 284.196 109.447 281.397C113.517 281.981 117.667 280.228 121.61 279.517C129.119 278.163 137.629 278.688 143.641 284.183C133.596 283.138 130.537 279.395 122.902 280.274C113.315 281.379 110.455 289.363 114.123 298.089C114.982 300.131 114.123 305.183 116.073 305.462C120.548 306.108 117.004 291.993 123.364 290.868C127.199 290.19 130.648 293.237 134.568 296.281C138.643 299.447 143.229 302.61 149.289 301.599C160.616 299.71 163.78 286.402 160.5 279.945C163.739 280.319 166.633 279.69 169.431 279.063C174.093 278.016 178.493 276.97 183.796 280.552C189.959 284.716 191.748 299.576 195.921 298.247C198.281 297.494 194.735 293.985 194.735 283.186C194.735 279.09 193.021 271.752 187.668 268.317C175.842 260.727 167.959 267.152 159.317 260.936C149.52 253.892 157.897 244.852 166.487 235.231C168.803 232.638 170.794 229.598 172.426 226.494C179.551 212.925 178.253 192.444 170.479 179.376C167.639 174.605 164.113 171.118 159.751 167.935C152.325 162.521 143.587 159.98 134.841 159.98C116.235 159.98 97.6095 171.496 91.6252 191.357Z" fill="white"/>
</mask>
<g mask="url(#mask7)">
<path fill-rule="evenodd" clip-rule="evenodd" d="M165.021 184.199C164.903 195.616 160.061 207.096 154.058 216.517C147.522 226.77 139.398 240.438 138.06 253.249C137.573 257.91 138.644 262.912 141.036 266.883C144.421 272.502 158.326 282.727 153.979 290.372C147.045 302.564 130.19 284.564 121.805 287.086C115.559 288.965 116.694 296.073 116.525 301.483C116.43 304.561 116.004 307.62 115.815 310.691C118.157 308.422 120.771 307.411 123.864 306.756C135.176 304.361 143.796 313.856 153.06 311.632C156.116 310.896 158.683 309.156 160.829 306.787C163.153 304.226 164.862 301.266 165.637 297.789C166.921 292.029 165.158 285.029 171.31 281.818C181.882 276.3 184.909 290.883 188.539 296.779C189.821 298.863 191.918 300.789 194.136 301.686C195.338 302.175 196.578 301.886 197.539 301.004C202.206 296.716 197.666 269.357 187.667 268.318C191.741 275.187 186.833 276.333 180.684 273.2C175.879 270.754 167.728 273.145 162.634 272.175C157.299 271.16 151.302 264.034 153.66 257.366C156.429 249.532 161.812 245.407 166.352 239.932C175.963 228.332 181.539 210.714 173.752 196.681C171.724 193.03 168.796 185.881 165.021 184.199Z" fill="#BB1818"/>
</g>
<mask id="mask8" style="mask-type:alpha" maskUnits="userSpaceOnUse" x="74" y="159" width="123" height="147">
<path fill-rule="evenodd" clip-rule="evenodd" d="M91.6252 191.357C86.81 207.34 90.2316 224.776 98.7699 238.738C104.583 248.242 113.856 252.9 105.256 259.455C102.085 261.872 98.5879 261.019 94.6998 260.164C90.371 259.213 85.5586 258.263 80.1688 261.826C70.399 268.285 73.0555 287.76 85.3381 289.934C87.878 290.384 90.1818 289.378 92.3633 288.375C95.2872 287.028 97.9906 285.679 100.748 287.84C104.689 290.922 103.443 296.695 105.548 300.78C105.929 301.519 106.517 302.25 107.357 302.349C109.448 302.589 108.631 299.719 108.415 298.55C108.211 297.443 107.996 296.337 107.951 295.21C107.88 293.441 107.998 291.691 108.217 289.937C108.564 287.159 109.454 284.196 109.447 281.397C113.517 281.981 117.667 280.228 121.61 279.517C129.119 278.163 137.629 278.688 143.641 284.183C133.596 283.138 130.537 279.395 122.902 280.274C113.315 281.379 110.455 289.363 114.123 298.089C114.982 300.131 114.123 305.183 116.073 305.462C120.548 306.108 117.004 291.993 123.364 290.868C127.199 290.19 130.648 293.237 134.568 296.281C138.643 299.447 143.229 302.61 149.289 301.599C160.616 299.71 163.78 286.402 160.5 279.945C163.739 280.319 166.633 279.69 169.431 279.063C174.093 278.016 178.493 276.97 183.796 280.552C189.959 284.716 191.748 299.576 195.921 298.247C198.281 297.494 194.735 293.985 194.735 283.186C194.735 279.09 193.021 271.752 187.668 268.317C175.842 260.727 167.959 267.152 159.317 260.936C149.52 253.892 157.897 244.852 166.487 235.231C168.803 232.638 170.794 229.598 172.426 226.494C179.551 212.925 178.253 192.444 170.479 179.376C167.639 174.605 164.113 171.118 159.751 167.935C152.325 162.521 143.587 159.98 134.841 159.98C116.235 159.98 97.6095 171.496 91.6252 191.357Z" fill="white"/>
</mask>
<g mask="url(#mask8)">
<path fill-rule="evenodd" clip-rule="evenodd" d="M147.594 282.747C146.922 278.778 144.343 275.81 141.132 273.822C136.538 270.976 131.236 270.043 126.042 270.937C111.864 273.379 107.382 268.387 101.113 270.507C90.0633 274.243 87.9003 270.186 87.896 270.414C87.8078 274.253 88.6099 275.888 90.8881 275.947C95.5185 276.064 99.9952 271.64 104.682 273.096C108.094 274.157 109.782 281.153 106.672 283.445C104.145 285.305 99.9469 281.051 96.4371 281.317C92.7169 281.595 90.0334 284.585 86.4611 285.335C78.1759 287.075 74.4202 280.264 74.2822 272.537C74.0063 275.52 73.6721 278.59 73.82 281.589C73.9111 283.416 74.167 285.451 74.9492 287.109C79.2923 296.31 87.7979 294.861 95.9892 293.491C97.68 293.208 99.3667 292.388 101.038 293.193C104.623 294.924 104.219 305.944 108.993 305.049C112.66 304.361 111.911 298.395 111.574 295.668C110.687 288.447 111.918 283.602 118.965 281.063C124.298 279.141 130.841 280.068 135.989 282.24C139.112 283.556 144.407 285.592 147.594 282.747Z" fill="#BB1818"/>
</g>
<mask id="mask9" style="mask-type:alpha" maskUnits="userSpaceOnUse" x="74" y="159" width="123" height="147">
<path fill-rule="evenodd" clip-rule="evenodd" d="M91.6252 191.357C86.81 207.34 90.2316 224.776 98.7699 238.738C104.583 248.242 113.856 252.9 105.256 259.455C102.085 261.872 98.5879 261.019 94.6998 260.164C90.371 259.213 85.5586 258.263 80.1688 261.826C70.399 268.285 73.0555 287.76 85.3381 289.934C87.878 290.384 90.1818 289.378 92.3633 288.375C95.2872 287.028 97.9906 285.679 100.748 287.84C104.689 290.922 103.443 296.695 105.548 300.78C105.929 301.519 106.517 302.25 107.357 302.349C109.448 302.589 108.631 299.719 108.415 298.55C108.211 297.443 107.996 296.337 107.951 295.21C107.88 293.441 107.998 291.691 108.217 289.937C108.564 287.159 109.454 284.196 109.447 281.397C113.517 281.981 117.667 280.228 121.61 279.517C129.119 278.163 137.629 278.688 143.641 284.183C133.596 283.138 130.537 279.395 122.902 280.274C113.315 281.379 110.455 289.363 114.123 298.089C114.982 300.131 114.123 305.183 116.073 305.462C120.548 306.108 117.004 291.993 123.364 290.868C127.199 290.19 130.648 293.237 134.568 296.281C138.643 299.447 143.229 302.61 149.289 301.599C160.616 299.71 163.78 286.402 160.5 279.945C163.739 280.319 166.633 279.69 169.431 279.063C174.093 278.016 178.493 276.97 183.796 280.552C189.959 284.716 191.748 299.576 195.921 298.247C198.281 297.494 194.735 293.985 194.735 283.186C194.735 279.09 193.021 271.752 187.668 268.317C175.842 260.727 167.959 267.152 159.317 260.936C149.52 253.892 157.897 244.852 166.487 235.231C168.803 232.638 170.794 229.598 172.426 226.494C179.551 212.925 178.253 192.444 170.479 179.376C167.639 174.605 164.113 171.118 159.751 167.935C152.325 162.521 143.587 159.98 134.841 159.98C116.235 159.98 97.6095 171.496 91.6252 191.357Z" fill="white"/>
</mask>
<g mask="url(#mask9)">
<path fill-rule="evenodd" clip-rule="evenodd" d="M165.249 195.452C143.411 214.578 121.699 177.951 98.7787 179.072C95.2946 179.242 91.6611 180.133 88.7572 182.273C104.544 159.858 139.761 167.341 157.823 182.514C161.027 185.206 164.134 191.019 165.249 195.452Z" fill="#BB1818"/>
</g>
<mask id="mask10" style="mask-type:alpha" maskUnits="userSpaceOnUse" x="74" y="159" width="123" height="147">
<path fill-rule="evenodd" clip-rule="evenodd" d="M91.6252 191.357C86.81 207.34 90.2316 224.776 98.7699 238.738C104.583 248.242 113.856 252.9 105.256 259.455C102.085 261.872 98.5879 261.019 94.6998 260.164C90.371 259.213 85.5586 258.263 80.1688 261.826C70.399 268.285 73.0555 287.76 85.3381 289.934C87.878 290.384 90.1818 289.378 92.3633 288.375C95.2872 287.028 97.9906 285.679 100.748 287.84C104.689 290.922 103.443 296.695 105.548 300.78C105.929 301.519 106.517 302.25 107.357 302.349C109.448 302.589 108.631 299.719 108.415 298.55C108.211 297.443 107.996 296.337 107.951 295.21C107.88 293.441 107.998 291.691 108.217 289.937C108.564 287.159 109.454 284.196 109.447 281.397C113.517 281.981 117.667 280.228 121.61 279.517C129.119 278.163 137.629 278.688 143.641 284.183C133.596 283.138 130.537 279.395 122.902 280.274C113.315 281.379 110.455 289.363 114.123 298.089C114.982 300.131 114.123 305.183 116.073 305.462C120.548 306.108 117.004 291.993 123.364 290.868C127.199 290.19 130.648 293.237 134.568 296.281C138.643 299.447 143.229 302.61 149.289 301.599C160.616 299.71 163.78 286.402 160.5 279.945C163.739 280.319 166.633 279.69 169.431 279.063C174.093 278.016 178.493 276.97 183.796 280.552C189.959 284.716 191.748 299.576 195.921 298.247C198.281 297.494 194.735 293.985 194.735 283.186C194.735 279.09 193.021 271.752 187.668 268.317C175.842 260.727 167.959 267.152 159.317 260.936C149.52 253.892 157.897 244.852 166.487 235.231C168.803 232.638 170.794 229.598 172.426 226.494C179.551 212.925 178.253 192.444 170.479 179.376C167.639 174.605 164.113 171.118 159.751 167.935C152.325 162.521 143.587 159.98 134.841 159.98C116.235 159.98 97.6095 171.496 91.6252 191.357Z" fill="white"/>
</mask>
<g mask="url(#mask10)">
<path fill-rule="evenodd" clip-rule="evenodd" d="M108.837 254.66C108.034 266.908 95.2192 261.631 88.2594 261.979C86.405 262.074 84.562 262.561 82.9237 263.494C79.2504 265.585 77.2851 269.321 76.5953 273.539C76.3522 275.025 76.082 276.511 76.0038 278.018C75.9668 278.727 75.9511 279.435 75.9426 280.145C75.9426 280.164 75.954 280.431 75.9241 280.437C75.223 280.583 74.4835 279.617 74.1593 279.112C72.7429 276.912 72.659 273.618 73.1311 271.103C74.8291 262.041 82.6464 258.161 90.7922 258.041C93.8056 257.997 96.7508 258.926 99.7699 258.84C102.49 258.764 106.767 256.623 108.837 254.66Z" fill="#F190AE"/>
</g>
<mask id="mask11" style="mask-type:alpha" maskUnits="userSpaceOnUse" x="74" y="159" width="123" height="147">
<path fill-rule="evenodd" clip-rule="evenodd" d="M91.6252 191.357C86.81 207.34 90.2316 224.776 98.7699 238.738C104.583 248.242 113.856 252.9 105.256 259.455C102.085 261.872 98.5879 261.019 94.6998 260.164C90.371 259.213 85.5586 258.263 80.1688 261.826C70.399 268.285 73.0555 287.76 85.3381 289.934C87.878 290.384 90.1818 289.378 92.3633 288.375C95.2872 287.028 97.9906 285.679 100.748 287.84C104.689 290.922 103.443 296.695 105.548 300.78C105.929 301.519 106.517 302.25 107.357 302.349C109.448 302.589 108.631 299.719 108.415 298.55C108.211 297.443 107.996 296.337 107.951 295.21C107.88 293.441 107.998 291.691 108.217 289.937C108.564 287.159 109.454 284.196 109.447 281.397C113.517 281.981 117.667 280.228 121.61 279.517C129.119 278.163 137.629 278.688 143.641 284.183C133.596 283.138 130.537 279.395 122.902 280.274C113.315 281.379 110.455 289.363 114.123 298.089C114.982 300.131 114.123 305.183 116.073 305.462C120.548 306.108 117.004 291.993 123.364 290.868C127.199 290.19 130.648 293.237 134.568 296.281C138.643 299.447 143.229 302.61 149.289 301.599C160.616 299.71 163.78 286.402 160.5 279.945C163.739 280.319 166.633 279.69 169.431 279.063C174.093 278.016 178.493 276.97 183.796 280.552C189.959 284.716 191.748 299.576 195.921 298.247C198.281 297.494 194.735 293.985 194.735 283.186C194.735 279.09 193.021 271.752 187.668 268.317C175.842 260.727 167.959 267.152 159.317 260.936C149.52 253.892 157.897 244.852 166.487 235.231C168.803 232.638 170.794 229.598 172.426 226.494C179.551 212.925 178.253 192.444 170.479 179.376C167.639 174.605 164.113 171.118 159.751 167.935C152.325 162.521 143.587 159.98 134.841 159.98C116.235 159.98 97.6095 171.496 91.6252 191.357Z" fill="white"/>
</mask>
<g mask="url(#mask11)">
<path fill-rule="evenodd" clip-rule="evenodd" d="M92.5185 276.511C95.037 276.776 97.1218 275.085 99.4271 274.336C102.678 273.278 106.319 274.546 108.335 277.416C108.056 276.091 107.964 276.043 107.088 275.064C103.864 271.466 99.8508 272.247 96.3781 274.523C95.431 275.144 93.75 275.704 92.5185 276.511Z" fill="#F190AE"/>
</g>
<mask id="mask12" style="mask-type:alpha" maskUnits="userSpaceOnUse" x="74" y="159" width="123" height="147">
<path fill-rule="evenodd" clip-rule="evenodd" d="M91.6252 191.357C86.81 207.34 90.2316 224.776 98.7699 238.738C104.583 248.242 113.856 252.9 105.256 259.455C102.085 261.872 98.5879 261.019 94.6998 260.164C90.371 259.213 85.5586 258.263 80.1688 261.826C70.399 268.285 73.0555 287.76 85.3381 289.934C87.878 290.384 90.1818 289.378 92.3633 288.375C95.2872 287.028 97.9906 285.679 100.748 287.84C104.689 290.922 103.443 296.695 105.548 300.78C105.929 301.519 106.517 302.25 107.357 302.349C109.448 302.589 108.631 299.719 108.415 298.55C108.211 297.443 107.996 296.337 107.951 295.21C107.88 293.441 107.998 291.691 108.217 289.937C108.564 287.159 109.454 284.196 109.447 281.397C113.517 281.981 117.667 280.228 121.61 279.517C129.119 278.163 137.629 278.688 143.641 284.183C133.596 283.138 130.537 279.395 122.902 280.274C113.315 281.379 110.455 289.363 114.123 298.089C114.982 300.131 114.123 305.183 116.073 305.462C120.548 306.108 117.004 291.993 123.364 290.868C127.199 290.19 130.648 293.237 134.568 296.281C138.643 299.447 143.229 302.61 149.289 301.599C160.616 299.71 163.78 286.402 160.5 279.945C163.739 280.319 166.633 279.69 169.431 279.063C174.093 278.016 178.493 276.97 183.796 280.552C189.959 284.716 191.748 299.576 195.921 298.247C198.281 297.494 194.735 293.985 194.735 283.186C194.735 279.09 193.021 271.752 187.668 268.317C175.842 260.727 167.959 267.152 159.317 260.936C149.52 253.892 157.897 244.852 166.487 235.231C168.803 232.638 170.794 229.598 172.426 226.494C179.551 212.925 178.253 192.444 170.479 179.376C167.639 174.605 164.113 171.118 159.751 167.935C152.325 162.521 143.587 159.98 134.841 159.98C116.235 159.98 97.6095 171.496 91.6252 191.357Z" fill="white"/>
</mask>
<g mask="url(#mask12)">
<path fill-rule="evenodd" clip-rule="evenodd" d="M114.495 299.002C114.761 295.364 113.416 291.833 114.519 288.23C115.737 284.262 119.721 282.05 123.413 281.697C126.178 281.435 129.079 281.431 131.809 282.017C134.946 282.691 137.938 283.905 141.169 284.048C139.545 283.327 137.773 282.968 136.084 282.467C133.486 281.695 130.778 280.752 128.1 280.361C121.189 279.35 113.438 281.126 112.473 289.603C112.048 293.336 113.653 295.635 114.495 299.002Z" fill="#F190AE"/>
</g>
<mask id="mask13" style="mask-type:alpha" maskUnits="userSpaceOnUse" x="74" y="159" width="123" height="147">
<path fill-rule="evenodd" clip-rule="evenodd" d="M91.6252 191.357C86.81 207.34 90.2316 224.776 98.7699 238.738C104.583 248.242 113.856 252.9 105.256 259.455C102.085 261.872 98.5879 261.019 94.6998 260.164C90.371 259.213 85.5586 258.263 80.1688 261.826C70.399 268.285 73.0555 287.76 85.3381 289.934C87.878 290.384 90.1818 289.378 92.3633 288.375C95.2872 287.028 97.9906 285.679 100.748 287.84C104.689 290.922 103.443 296.695 105.548 300.78C105.929 301.519 106.517 302.25 107.357 302.349C109.448 302.589 108.631 299.719 108.415 298.55C108.211 297.443 107.996 296.337 107.951 295.21C107.88 293.441 107.998 291.691 108.217 289.937C108.564 287.159 109.454 284.196 109.447 281.397C113.517 281.981 117.667 280.228 121.61 279.517C129.119 278.163 137.629 278.688 143.641 284.183C133.596 283.138 130.537 279.395 122.902 280.274C113.315 281.379 110.455 289.363 114.123 298.089C114.982 300.131 114.123 305.183 116.073 305.462C120.548 306.108 117.004 291.993 123.364 290.868C127.199 290.19 130.648 293.237 134.568 296.281C138.643 299.447 143.229 302.61 149.289 301.599C160.616 299.71 163.78 286.402 160.5 279.945C163.739 280.319 166.633 279.69 169.431 279.063C174.093 278.016 178.493 276.97 183.796 280.552C189.959 284.716 191.748 299.576 195.921 298.247C198.281 297.494 194.735 293.985 194.735 283.186C194.735 279.09 193.021 271.752 187.668 268.317C175.842 260.727 167.959 267.152 159.317 260.936C149.52 253.892 157.897 244.852 166.487 235.231C168.803 232.638 170.794 229.598 172.426 226.494C179.551 212.925 178.253 192.444 170.479 179.376C167.639 174.605 164.113 171.118 159.751 167.935C152.325 162.521 143.587 159.98 134.841 159.98C116.235 159.98 97.6095 171.496 91.6252 191.357Z" fill="white"/>
</mask>
<g mask="url(#mask13)">
<path fill-rule="evenodd" clip-rule="evenodd" d="M95.6689 184.441C86.9656 198.908 90.9034 217.716 97.9414 232.043C101.245 238.766 105.824 244.904 108.597 251.91C105.807 249.645 103.449 246.775 101.216 243.915C92.2501 232.425 86.6087 218.275 88.2426 203.087C88.9679 196.352 90.4099 189.083 95.6689 184.441Z" fill="#F190AE"/>
</g>
<path fill-rule="evenodd" clip-rule="evenodd" d="M105.257 259.455C113.855 252.902 104.584 248.241 98.7708 238.739C90.231 224.777 86.8095 207.341 91.6247 191.359C100.42 162.163 136.526 151.001 159.75 167.937C164.113 171.118 167.64 174.605 170.479 179.376C178.253 192.444 179.55 212.926 172.426 226.494C170.793 229.6 168.802 232.638 166.487 235.232C157.896 244.853 149.52 253.892 159.317 260.936C167.96 267.153 175.843 260.729 187.668 268.317C193.02 271.754 194.734 279.091 194.734 283.187C194.734 293.986 198.282 297.494 195.92 298.247C191.748 299.577 189.96 284.716 183.797 280.553C175.311 274.822 169.136 280.94 160.5 279.947C163.779 286.404 160.615 299.711 149.289 301.601C137.394 303.586 131.183 289.485 123.363 290.868C117.004 291.993 120.547 306.109 116.072 305.464C114.122 305.184 114.981 300.131 114.122 298.089C110.455 289.364 113.315 281.379 122.902 280.275C130.536 279.396 133.595 283.14 143.642 284.183C137.63 278.689 129.12 278.164 121.61 279.519C117.668 280.228 113.518 281.982 109.448 281.399C109.454 284.198 108.565 287.16 108.218 289.938C107.997 291.691 107.879 293.442 107.952 295.209C107.997 296.339 108.211 297.443 108.414 298.551C108.63 299.721 109.449 302.59 107.357 302.349C106.517 302.25 105.93 301.52 105.548 300.78C103.444 296.695 104.688 290.922 100.749 287.84C95.9351 284.072 91.2848 290.987 85.3376 289.935C73.0549 287.761 70.3998 268.286 80.1683 261.826C90.4003 255.061 98.5546 264.564 105.257 259.455Z" stroke="#333739" stroke-width="0.693" stroke-linecap="round" stroke-linejoin="round"/>
<path fill-rule="evenodd" clip-rule="evenodd" d="M143.58 284.694C144.186 284.739 144.761 284.737 145.29 284.671C145.93 284.592 146.511 284.429 146.999 284.157C147.299 283.986 147.569 283.785 147.791 283.532C148.117 283.164 148.354 282.722 148.494 282.19C148.55 282.042 148.481 281.873 148.341 281.813C148.201 281.755 148.04 281.827 147.984 281.974C147.783 282.372 147.504 282.659 147.19 282.9C147.035 283.018 146.868 283.116 146.69 283.206C146.518 283.293 146.335 283.367 146.14 283.43C145.432 283.662 144.584 283.725 143.647 283.657C143.375 283.637 143.141 283.852 143.122 284.141C143.104 284.426 143.309 284.674 143.58 284.694Z" fill="#333739"/>
<path fill-rule="evenodd" clip-rule="evenodd" d="M109.918 281.56C109.962 278.573 108.959 276.167 107.304 274.553C105.599 272.89 103.194 272.06 100.492 272.317C99.9617 272.368 99.4071 272.522 98.8396 272.741C97.894 273.108 96.907 273.658 95.9386 274.171C94.9687 274.685 94.0201 275.165 93.1498 275.33C92.3321 275.488 91.6182 275.515 91.001 275.401C90.2829 275.27 89.7055 274.948 89.2618 274.398C88.8522 273.892 88.5493 273.219 88.3403 272.355C88.1725 271.67 88.0559 270.879 88.0032 269.966C88.0032 269.871 87.9293 269.793 87.8383 269.793C87.7473 269.793 87.6733 269.871 87.6733 269.966C87.6193 270.918 87.6378 271.754 87.7402 272.483C87.8838 273.506 88.1895 274.317 88.6247 274.935C89.1566 275.692 89.8975 276.159 90.8275 276.364C91.5372 276.519 92.3691 276.502 93.3176 276.335C94.269 276.162 95.3171 275.665 96.3808 275.109C97.318 274.621 98.2694 274.087 99.1838 273.737C99.6645 273.552 100.132 273.417 100.583 273.375C102.977 273.145 105.113 273.86 106.624 275.331C108.093 276.76 108.966 278.897 108.934 281.545C108.929 281.832 109.147 282.068 109.419 282.072C109.69 282.077 109.915 281.845 109.918 281.56Z" fill="#333739"/>
<path fill-rule="evenodd" clip-rule="evenodd" d="M160.981 279.667C159.653 277.031 157.569 274.351 155.608 271.663C154.325 269.905 153.105 268.138 152.192 266.37C151.547 265.122 151.049 263.878 150.817 262.619C150.655 261.738 150.612 260.854 150.74 259.963C150.767 259.806 150.669 259.655 150.521 259.625C150.372 259.598 150.228 259.702 150.201 259.858C149.743 262.163 150.292 264.495 151.402 266.811C152.285 268.654 153.528 270.479 154.83 272.291C156.74 274.947 158.808 277.565 160.112 280.155C160.24 280.409 160.539 280.507 160.777 280.372C161.018 280.236 161.109 279.921 160.981 279.667Z" fill="#333739"/>
<path fill-rule="evenodd" clip-rule="evenodd" d="M105.319 248.023C106.031 248.934 106.643 249.697 107.182 250.399C107.835 251.247 108.371 252.005 108.854 252.839C109.107 253.277 109.348 253.733 109.584 254.235C109.89 254.886 110.2 255.604 110.5 256.463C110.542 256.618 110.694 256.704 110.839 256.659C110.985 256.614 111.067 256.451 111.024 256.298C110.821 255.373 110.611 254.582 110.356 253.878C110.153 253.317 109.924 252.814 109.67 252.334C109.197 251.437 108.632 250.635 107.953 249.742C107.414 249.033 106.794 248.273 106.077 247.361C105.903 247.138 105.593 247.108 105.383 247.292C105.174 247.475 105.145 247.803 105.319 248.023Z" fill="#333739"/>
<path fill-rule="evenodd" clip-rule="evenodd" d="M94.1129 186.724C94.8452 185.526 95.7781 184.432 96.8134 183.357C97.7819 182.351 98.8641 181.466 99.9847 180.625C100.864 179.967 101.767 179.367 102.691 178.853C104.096 178.068 105.538 177.494 106.979 177.28C107.747 177.166 108.507 177.136 109.258 177.228C109.759 177.288 110.255 177.355 110.747 177.51C112.515 178.068 114.22 179.208 115.743 181.414C115.882 181.684 116.204 181.788 116.463 181.641C116.72 181.495 116.817 181.152 116.677 180.88C115.818 178.427 114.6 176.715 113.172 175.492C112.393 174.825 111.538 174.362 110.642 174.033C109.344 173.555 107.951 173.459 106.553 173.606C104.679 173.8 102.766 174.502 100.986 175.587C99.9051 176.242 98.8598 177.031 97.9227 177.958C96.7793 179.091 95.7753 180.371 94.9405 181.749C94.0759 183.173 93.4089 184.641 92.9439 186.133C92.7889 186.475 92.9268 186.883 93.2482 187.047C93.571 187.209 93.9593 187.065 94.1129 186.724Z" fill="#333739"/>
<path fill-rule="evenodd" clip-rule="evenodd" d="M155.214 199.901C154.011 200.17 152.818 200.182 151.546 200.138C150.374 200.099 149.241 199.871 148.064 199.611C147.469 199.48 146.882 199.322 146.29 199.154C145.424 198.909 144.568 198.608 143.732 198.233C142.709 197.773 141.727 197.2 140.788 196.529C140.168 196.084 139.561 195.624 138.971 195.107C137.486 193.805 136.087 192.379 135.031 190.367C134.905 189.987 134.508 189.787 134.148 189.92C133.788 190.056 133.599 190.473 133.726 190.854C134.074 193.055 134.755 194.944 135.727 196.667C136.18 197.471 136.711 198.188 137.307 198.849C138.668 200.354 140.344 201.456 142.091 202.267C143.157 202.762 144.269 203.133 145.4 203.348C146.161 203.493 146.924 203.589 147.688 203.583C149.146 203.571 150.549 203.367 151.905 202.921C153.28 202.467 154.508 201.86 155.667 201.046C155.968 200.913 156.108 200.548 155.983 200.233C155.857 199.917 155.512 199.768 155.214 199.901Z" fill="#333739"/>
<path fill-rule="evenodd" clip-rule="evenodd" d="M125.295 188.347C125.374 188.722 125.515 189.06 125.703 189.361C125.837 189.577 126 189.765 126.178 189.927C126.506 190.228 126.892 190.423 127.279 190.506C127.495 190.551 127.715 190.557 127.927 190.524C128.645 190.411 129.314 189.869 129.627 188.733C129.827 187.979 129.709 187.211 129.52 186.441C129.349 185.747 129.126 185.055 129.11 184.369C129.102 184.03 129.143 183.695 129.27 183.364C129.295 183.303 129.27 183.23 129.211 183.202C129.153 183.175 129.085 183.202 129.058 183.263C128.891 183.62 128.816 183.988 128.797 184.363C128.762 185.076 128.935 185.815 129.062 186.55C129.181 187.227 129.265 187.899 129.051 188.539C128.829 189.221 128.46 189.601 128.035 189.741C127.83 189.809 127.614 189.818 127.398 189.782C127.179 189.746 126.957 189.669 126.748 189.552C126.539 189.435 126.34 189.286 126.159 189.104C125.922 188.865 125.707 188.589 125.555 188.252C125.529 188.175 125.451 188.135 125.38 188.162C125.308 188.189 125.269 188.27 125.295 188.347Z" fill="#333739"/>
<path fill-rule="evenodd" clip-rule="evenodd" d="M158.602 213.953C158.839 214.395 159.136 214.706 159.464 214.904C159.882 215.158 160.346 215.207 160.778 215.111C161.127 215.033 161.457 214.844 161.734 214.564C162.078 214.216 162.334 213.714 162.446 213.098C162.55 212.483 162.412 211.786 162.165 211.026C161.892 210.187 161.495 209.268 161.263 208.282C161.11 207.636 161.023 206.964 161.093 206.269C161.101 206.201 161.058 206.139 160.994 206.13C160.932 206.12 160.874 206.166 160.864 206.233C160.74 206.958 160.778 207.672 160.893 208.365C161.063 209.377 161.398 210.338 161.626 211.202C161.798 211.855 161.912 212.444 161.798 212.955C161.701 213.41 161.498 213.77 161.243 214.031C161.058 214.223 160.847 214.36 160.615 214.435C160.319 214.53 160 214.531 159.683 214.408C159.389 214.294 159.092 214.102 158.827 213.785C158.783 213.718 158.696 213.703 158.634 213.75C158.573 213.797 158.558 213.887 158.602 213.953Z" fill="#333739"/>
<path fill-rule="evenodd" clip-rule="evenodd" d="M161.847 205.514C161.911 206.159 162.123 206.685 162.411 207.069C162.681 207.427 163.025 207.649 163.373 207.741C163.871 207.873 164.396 207.73 164.811 207.271C165.077 206.979 165.293 206.542 165.423 205.95C165.516 205.498 165.506 204.961 165.427 204.366C165.33 203.657 165.142 202.86 164.963 202.039C164.713 200.883 164.481 199.681 164.591 198.599C164.601 198.533 164.555 198.471 164.492 198.462C164.428 198.452 164.37 198.498 164.362 198.565C164.281 199.041 164.264 199.546 164.285 200.064C164.333 201.238 164.579 202.476 164.737 203.582C164.858 204.432 164.93 205.199 164.778 205.783C164.645 206.322 164.427 206.682 164.165 206.887C163.965 207.045 163.739 207.101 163.511 207.059C163.213 207.003 162.918 206.815 162.668 206.507C162.445 206.234 162.244 205.89 162.116 205.455C162.1 205.376 162.028 205.326 161.954 205.343C161.88 205.358 161.832 205.434 161.847 205.514Z" fill="#333739"/>
<path fill-rule="evenodd" clip-rule="evenodd" d="M126.756 188.403C126.713 188.242 126.696 188.095 126.666 187.935C126.639 187.8 126.621 187.669 126.598 187.536C126.584 187.447 126.572 187.36 126.557 187.273C126.533 187.127 126.51 186.986 126.493 186.84C126.466 186.619 126.447 186.398 126.45 186.176C126.46 185.416 126.642 184.654 126.992 183.949C127.026 183.892 127.01 183.817 126.956 183.781C126.902 183.745 126.831 183.761 126.797 183.818C126.44 184.31 126.167 184.848 125.994 185.417C125.871 185.817 125.806 186.228 125.799 186.645C125.795 186.821 125.802 186.998 125.829 187.174C125.856 187.346 125.898 187.518 125.961 187.683C126.023 187.847 126.097 188.002 126.194 188.15C126.291 188.296 126.396 188.418 126.518 188.55C126.557 188.619 126.641 188.642 126.706 188.601C126.771 188.559 126.794 188.472 126.756 188.403Z" fill="#E62B31"/>
<path fill-rule="evenodd" clip-rule="evenodd" d="M159.49 213.36C159.459 213.172 159.454 212.997 159.432 212.808C159.41 212.631 159.392 212.457 159.366 212.279C159.344 212.124 159.315 211.968 159.29 211.813C159.231 211.447 159.181 211.077 159.171 210.703C159.153 210.091 159.196 209.484 159.324 208.897C159.344 208.834 159.311 208.765 159.25 208.745C159.19 208.723 159.125 208.757 159.105 208.822C158.89 209.351 158.735 209.907 158.65 210.484C158.593 210.873 158.571 211.264 158.587 211.656C158.593 211.822 158.604 211.986 158.633 212.149C158.661 212.312 158.699 212.472 158.755 212.628C158.812 212.784 158.876 212.933 158.958 213.077C159.045 213.223 159.135 213.345 159.238 213.48C159.271 213.553 159.352 213.585 159.422 213.552C159.49 213.519 159.521 213.433 159.49 213.36Z" fill="#E62B31"/>
<path fill-rule="evenodd" clip-rule="evenodd" d="M163.29 205.719C163.29 205.659 163.293 205.611 163.292 205.551C163.29 205.42 163.292 205.304 163.287 205.173C163.283 205.103 163.28 205.035 163.275 204.965C163.263 204.864 163.256 204.76 163.24 204.66C163.211 204.458 163.168 204.258 163.141 204.057C163.1 203.746 163.067 203.438 163.061 203.125C163.056 202.745 163.073 202.371 163.131 201.999C163.148 201.934 163.112 201.868 163.051 201.848C162.99 201.83 162.926 201.868 162.908 201.932C162.737 202.38 162.618 202.844 162.552 203.324C162.508 203.648 162.491 203.973 162.501 204.3C162.505 204.436 162.514 204.574 162.535 204.708C162.558 204.843 162.588 204.977 162.633 205.106C162.68 205.237 162.731 205.358 162.8 205.479C162.872 205.605 162.946 205.704 163.031 205.818C163.058 205.893 163.138 205.934 163.209 205.905C163.28 205.877 163.317 205.794 163.29 205.719Z" fill="#E62B31"/>
<path fill-rule="evenodd" clip-rule="evenodd" d="M97.6389 189.761C98.1466 189.222 98.9742 188.684 99.9356 188.198C100.473 187.926 101.052 187.677 101.644 187.453C102.231 187.231 102.828 187.032 103.414 186.888C104.411 186.642 105.368 186.533 106.152 186.667C106.214 186.681 106.277 186.637 106.29 186.571C106.302 186.503 106.26 186.439 106.199 186.425C105.389 186.222 104.382 186.242 103.327 186.433C102.713 186.542 102.083 186.708 101.47 186.923C100.853 187.141 100.256 187.409 99.7052 187.702C98.6998 188.239 97.8565 188.868 97.3417 189.464C97.2635 189.548 97.2663 189.686 97.3488 189.769C97.4313 189.851 97.5607 189.848 97.6389 189.761Z" fill="#333739"/>
<path fill-rule="evenodd" clip-rule="evenodd" d="M111.929 204.524C112.136 203.461 112.286 202.346 112.368 201.219C112.422 200.478 112.448 199.731 112.443 198.99C112.441 198.365 112.418 197.745 112.372 197.136C112.324 196.505 112.254 195.888 112.163 195.29C111.995 194.2 111.761 193.18 111.466 192.28C111.098 191.15 110.635 190.205 110.088 189.533C110.047 189.481 109.973 189.473 109.923 189.517C109.874 189.56 109.867 189.638 109.906 189.691C110.403 190.363 110.798 191.296 111.107 192.402C111.357 193.293 111.543 194.296 111.674 195.366C111.747 195.954 111.799 196.558 111.839 197.177C111.876 197.775 111.902 198.383 111.91 198.996C111.919 199.724 111.906 200.455 111.869 201.183C111.813 202.295 111.703 203.393 111.526 204.442C111.505 204.559 111.577 204.675 111.688 204.696C111.799 204.718 111.907 204.642 111.929 204.524Z" fill="#333739"/>
<path fill-rule="evenodd" clip-rule="evenodd" d="M106.174 187.949C103.963 186.657 98.7196 187.004 95.8498 188.032C95.1829 188.271 95.773 189.859 95.2269 191.076C94.6766 192.305 94.3026 193.552 93.428 195.374C94.7064 194.526 96.7216 193.082 97.9602 192.151C100.556 190.196 103.3 187.712 106.174 187.949Z" fill="#333739"/>
<path fill-rule="evenodd" clip-rule="evenodd" d="M104.391 187.677C109.593 188.58 112.746 195.427 111.428 202.963C110.109 210.497 104.815 215.88 99.6128 214.977C94.4108 214.074 91.258 207.226 92.5763 199.692C93.896 192.158 99.189 186.774 104.391 187.677Z" fill="white"/>
<path fill-rule="evenodd" clip-rule="evenodd" d="M104.438 187.375C102.706 187.015 100.938 187.32 99.2953 188.182C98.6383 188.528 98.0055 188.967 97.4039 189.483C94.847 191.686 92.8589 195.315 92.1137 199.605C91.3757 203.884 92.0455 207.947 93.6852 210.885C95.0504 213.328 97.0868 215 99.5442 215.42C101.989 215.833 104.453 214.943 106.547 213.104C109.067 210.889 111.05 207.298 111.783 203.034C112.511 198.783 111.847 194.75 110.216 191.836C108.868 189.428 106.864 187.78 104.439 187.368L104.438 187.375ZM104.344 187.99C107.103 188.478 109.247 190.717 110.409 193.83C111.372 196.407 111.662 199.585 111.072 202.894C110.482 206.209 109.105 209.097 107.305 211.184C105.159 213.671 102.408 215.023 99.6807 214.541C96.9616 214.06 94.8512 211.849 93.7036 208.783C92.7451 206.224 92.4564 203.07 93.0395 199.785C93.6225 196.489 94.9906 193.625 96.7696 191.539C97.5788 190.591 98.4747 189.807 99.4204 189.212C100.18 188.732 100.969 188.369 101.783 188.158C102.622 187.939 103.479 187.865 104.344 187.981V187.99Z" fill="#333739"/>
<path fill-rule="evenodd" clip-rule="evenodd" d="M107.279 193.435C111.066 196.208 111.851 203.118 109.034 208.861C106.215 214.601 100.854 217.012 97.067 214.24C93.2813 211.468 92.4949 204.556 95.3121 198.816C98.1307 193.075 103.492 190.663 107.279 193.435Z" fill="#010101"/>
<path fill-rule="evenodd" clip-rule="evenodd" d="M97.2175 199.558C95.8394 201.644 95.2137 203.615 95.0516 205.346C94.9478 206.439 95.0715 207.45 95.3261 208.352C95.774 209.937 96.6685 211.226 97.8218 212.051C99.0207 212.913 100.467 213.364 101.947 213.203C102.577 213.137 103.212 213.019 103.827 212.736C105.601 211.923 107.336 210.325 108.284 207.465C108.506 206.996 108.328 206.425 107.885 206.191C107.442 205.956 106.903 206.146 106.68 206.613C105.897 207.829 104.966 208.559 104.045 209.05C102.654 209.794 101.251 209.464 100.241 208.591C99.8668 208.266 99.5568 207.853 99.3407 207.343C99.1245 206.836 98.9709 206.257 98.9524 205.594C98.9169 204.352 99.1544 202.894 99.9251 201.253C100.367 200.463 100.12 199.443 99.3734 198.974C98.6253 198.507 97.6597 198.768 97.2175 199.558Z" fill="#901913"/>
<path fill-rule="evenodd" clip-rule="evenodd" d="M102.448 194.274C103.404 194.43 104.005 195.479 103.788 196.613C103.572 197.746 102.62 198.538 101.663 198.38C100.706 198.224 100.106 197.177 100.322 196.042C100.538 194.909 101.493 194.117 102.448 194.274Z" fill="white"/>
<path fill-rule="evenodd" clip-rule="evenodd" d="M102.713 208.753C103.521 208.887 104.011 209.859 103.808 210.925C103.603 211.991 102.783 212.749 101.975 212.615C101.167 212.483 100.676 211.511 100.88 210.445C101.083 209.378 101.905 208.621 102.713 208.753Z" fill="white"/>
<path fill-rule="evenodd" clip-rule="evenodd" d="M130.683 213.025C131.828 212.448 133.037 212.035 134.283 211.715C135.1 211.504 135.932 211.347 136.776 211.223C137.471 211.123 138.175 211.054 138.882 210.998C139.586 210.946 140.292 210.911 141.004 210.896C142.431 210.866 143.863 210.92 145.281 211.075C147.491 211.318 149.646 211.766 151.648 212.426C151.738 212.46 151.837 212.414 151.871 212.317C151.905 212.223 151.861 212.118 151.77 212.08C149.816 211.147 147.687 210.375 145.463 209.868C144.006 209.538 142.517 209.317 141.023 209.245C140.27 209.209 139.516 209.218 138.769 209.267C138.013 209.32 137.262 209.422 136.524 209.563C135.627 209.737 134.745 209.97 133.89 210.272C132.59 210.732 131.357 211.339 130.201 212.087C129.957 212.229 129.866 212.553 129.999 212.81C130.132 213.069 130.439 213.166 130.683 213.025Z" fill="#333739"/>
<path fill-rule="evenodd" clip-rule="evenodd" d="M130.81 212.901C132.506 210.796 135.157 209.449 137.991 208.776C140.864 208.094 143.923 208.1 146.409 208.728C146.464 208.741 146.521 208.707 146.535 208.648C146.551 208.59 146.517 208.53 146.461 208.515C143.953 207.753 140.833 207.603 137.873 208.158C134.833 208.729 131.972 210.056 130.075 212.208C129.893 212.423 129.911 212.75 130.114 212.943C130.318 213.134 130.629 213.116 130.81 212.901Z" fill="#333739"/>
<path fill-rule="evenodd" clip-rule="evenodd" d="M134.493 214.808C135.364 215.264 136.388 215.615 137.51 215.828C138.182 215.954 138.886 216.032 139.611 216.052C139.958 216.062 140.311 216.058 140.665 216.034C141.013 216.013 141.363 215.971 141.713 215.917C142.23 215.837 142.744 215.726 143.257 215.586C143.763 215.446 144.258 215.277 144.753 215.084C144.807 215.068 144.84 215.008 144.824 214.949C144.809 214.89 144.752 214.856 144.696 214.872C143.968 215.027 143.236 215.119 142.503 215.182C142.013 215.224 141.526 215.246 141.042 215.261C140.632 215.274 140.228 215.278 139.828 215.275C139.417 215.269 139.014 215.255 138.617 215.228C137.155 215.131 135.801 214.851 134.686 214.358C134.568 214.301 134.43 214.357 134.376 214.48C134.323 214.603 134.375 214.751 134.493 214.808Z" fill="#333739"/>
<path fill-rule="evenodd" clip-rule="evenodd" d="M113.323 222.324C113.42 222.796 113.485 223.265 113.545 223.729C113.607 224.2 113.65 224.665 113.681 225.128C113.704 225.441 113.723 225.75 113.735 226.061C113.748 226.372 113.76 226.683 113.76 226.996C113.758 228.034 113.659 229.071 113.4 230.136C113.384 230.183 113.408 230.234 113.451 230.249C113.497 230.265 113.543 230.243 113.559 230.195C113.886 229.42 114.134 228.65 114.294 227.864C114.407 227.317 114.478 226.772 114.503 226.219C114.516 225.943 114.513 225.666 114.499 225.387C114.483 225.11 114.454 224.837 114.414 224.562C114.365 224.236 114.303 223.913 114.223 223.588C114.108 223.116 113.962 222.65 113.795 222.177C113.757 222.042 113.619 221.962 113.489 222.003C113.359 222.043 113.285 222.186 113.323 222.324Z" fill="#333739"/>
<path fill-rule="evenodd" clip-rule="evenodd" d="M123.554 222.13C123.29 222.582 123.072 223.038 122.907 223.509C122.79 223.837 122.702 224.169 122.637 224.506C122.581 224.79 122.543 225.075 122.524 225.362C122.506 225.651 122.506 225.938 122.524 226.225C122.563 226.793 122.662 227.351 122.809 227.906C123.021 228.702 123.331 229.475 123.713 230.23C123.732 230.276 123.782 230.297 123.824 230.277C123.867 230.256 123.887 230.203 123.868 230.158C123.619 229.372 123.454 228.584 123.359 227.787C123.297 227.257 123.278 226.732 123.285 226.204C123.29 225.877 123.308 225.553 123.336 225.228C123.365 224.907 123.403 224.585 123.459 224.261C123.568 223.631 123.726 222.999 123.989 222.37C124.052 222.244 124.005 222.088 123.885 222.022C123.764 221.956 123.617 222.004 123.554 222.13Z" fill="#333739"/>
<path fill-rule="evenodd" clip-rule="evenodd" d="M115.858 236.248C116.225 236.598 116.618 236.863 117.041 237.042C117.223 237.117 117.411 237.166 117.6 237.201C117.728 237.223 117.858 237.238 117.987 237.237C118.307 237.234 118.626 237.18 118.934 237.072C119.367 236.918 119.769 236.684 120.149 236.361C120.253 236.296 120.288 236.155 120.227 236.044C120.166 235.933 120.032 235.897 119.927 235.961C119.668 236.068 119.414 236.127 119.153 236.175C118.896 236.223 118.646 236.229 118.392 236.226C118.245 236.224 118.098 236.208 117.95 236.196C117.804 236.184 117.657 236.173 117.511 236.152C117.333 236.125 117.155 236.096 116.977 236.048C116.707 235.976 116.438 235.9 116.173 235.763C116.045 235.67 115.871 235.706 115.784 235.84C115.698 235.972 115.73 236.157 115.858 236.248Z" fill="#333739"/>
<path fill-rule="evenodd" clip-rule="evenodd" d="M117.436 231.226C117.864 231.316 118.249 231.221 118.702 231.089C118.878 231.039 119.031 230.954 119.191 230.848C119.666 230.537 120.027 230.011 120.309 229.472C120.909 228.324 121.035 226.922 120.455 225.78C120.06 225.044 119.404 224.45 118.709 223.887C118.207 223.481 117.676 223.113 117.396 222.503C117.105 221.866 117.028 221.052 117.407 219.825C117.457 219.716 117.412 219.585 117.308 219.532C117.203 219.481 117.079 219.528 117.029 219.638C116.209 221.002 116.123 222.043 116.312 222.909C116.507 223.798 117.058 224.488 117.645 225.137C118.093 225.631 118.586 226.067 118.821 226.641C119.017 227.095 118.926 227.606 118.748 228.072C118.642 228.351 118.485 228.61 118.31 228.847C118.194 229.005 118.064 229.147 117.941 229.292C117.8 229.454 117.739 229.648 117.588 229.782C117.474 229.881 117.415 230.004 117.288 230.072C116.986 230.115 116.775 230.408 116.816 230.727C116.856 231.045 117.134 231.269 117.436 231.226Z" fill="#333739"/>
<path fill-rule="evenodd" clip-rule="evenodd" d="M174.554 222.248C175.621 211.908 168.075 199.512 161.035 193.102C144.734 178.261 121.136 173.341 99.4363 174.033C109.427 156.173 130.656 153.237 147.017 158.086C158.489 161.486 168.855 169.839 174.554 181.182C183.972 199.916 179.502 214.397 174.554 222.248Z" fill="white"/>
<path fill-rule="evenodd" clip-rule="evenodd" d="M121.69 171.977C117.364 171.52 112.656 171.292 108.014 171.212C110.698 167.011 113.246 163.023 115.669 159.23C119.985 159.277 124.217 159.569 128.366 160.105C126.238 163.964 124.044 167.714 121.69 171.977Z" fill="#76151D"/>
<path fill-rule="evenodd" clip-rule="evenodd" d="M133.593 169.727C132.856 170.05 132.134 170.14 131.502 169.997C129.985 169.649 129.551 168.066 130.467 166.392C131.364 164.755 133.229 163.716 134.752 164.03C135.383 164.161 135.864 164.505 136.134 165.028C136.138 165.037 136.144 165.046 136.148 165.055C136.76 164.729 137.37 164.406 137.977 164.086L137.962 164.053C137.545 163.15 136.719 162.535 135.658 162.323C133.185 161.834 130.107 163.506 128.712 166.048C127.269 168.681 128.004 171.297 130.454 171.872C131.518 172.12 132.792 171.934 134.039 171.343C134.054 171.336 134.068 171.328 134.082 171.322C133.934 170.782 133.782 170.245 133.63 169.712C133.617 169.716 133.604 169.722 133.593 169.727ZM135.15 172.714C135.717 172.864 136.286 173.017 136.854 173.175C138.574 170.015 140.201 166.947 141.73 163.978C141.168 163.835 140.605 163.697 140.041 163.563C138.51 166.514 136.878 169.567 135.15 172.714ZM145.418 171.761C145.452 171.631 145.489 164.974 145.456 164.968C144.909 164.811 144.358 164.654 143.808 164.504C142.283 167.496 140.665 170.579 138.957 173.752C139.527 173.919 140.099 174.09 140.669 174.266C141.69 172.35 142.68 170.466 143.637 168.614C143.664 168.902 143.607 175.312 143.583 175.297C143.585 175.285 149.223 170.725 149.469 170.54C148.535 172.415 147.572 174.319 146.581 176.248C147.155 176.457 147.73 176.672 148.304 176.891C149.933 173.679 151.487 170.538 152.966 167.472C152.42 167.264 151.873 167.063 151.325 166.868C151.326 166.856 145.544 171.646 145.418 171.761ZM154.599 177.379C154.038 177.13 153.477 176.887 152.915 176.648C153.285 175.892 153.65 175.139 154.013 174.389C154.57 174.627 155.128 174.87 155.682 175.12C156.464 175.473 156.469 176.18 156.211 176.721C155.951 177.271 155.389 177.731 154.599 177.379ZM155.815 170.619C156.329 170.84 156.844 171.069 157.358 171.3C158.006 171.591 158.214 172.155 157.916 172.795C157.616 173.437 157.049 173.639 156.395 173.346C155.877 173.115 155.361 172.888 154.84 172.664C155.169 171.981 155.493 171.298 155.815 170.619ZM157.767 174.97C158.252 174.912 159.164 174.57 159.644 173.523C160.381 171.919 159.852 170.424 158.256 169.695C157.148 169.194 156.036 168.716 154.92 168.262C153.458 171.341 151.924 174.489 150.317 177.703C151.517 178.187 152.714 178.693 153.912 179.222C155.55 179.943 157.076 179.353 157.887 177.623C158.487 176.341 158.094 175.428 157.767 174.97Z" fill="#7D170F"/>
<path fill-rule="evenodd" clip-rule="evenodd" d="M116.05 161.16C118.355 161.222 120.636 161.354 122.892 161.557C123.31 162.9 123.728 164.287 124.145 165.72C122.189 167.005 120.195 168.327 118.159 169.692C115.795 169.456 113.403 169.301 110.983 169.226C112.977 167.793 114.931 166.4 116.845 165.044C116.582 163.712 116.316 162.418 116.05 161.16Z" fill="#E6292B"/>
<path fill-rule="evenodd" clip-rule="evenodd" d="M124.144 165.72C123.728 164.287 123.31 162.9 122.891 161.557C120.636 161.354 118.355 161.222 116.05 161.16C116.317 162.418 116.582 163.712 116.845 165.044" fill="white"/>
<mask id="mask14" style="mask-type:alpha" maskUnits="userSpaceOnUse" x="99" y="156" width="82" height="67">
<path fill-rule="evenodd" clip-rule="evenodd" d="M99.437 174.033C121.137 173.343 144.734 178.261 161.035 193.1C168.075 199.512 175.622 211.91 174.554 222.247C179.501 214.398 183.971 199.915 174.554 181.182C168.855 169.839 158.488 161.484 147.018 158.086C142.495 156.747 137.602 156 132.676 156C119.782 156 106.665 161.11 99.437 174.033Z" fill="white"/>
</mask>
<g mask="url(#mask14)">
<path fill-rule="evenodd" clip-rule="evenodd" d="M161.012 161.027C169.596 172.986 171.122 185.366 161.429 196.383C168.386 203.46 174.122 211.959 175.273 222.372C188.935 207.926 192.832 180.845 176.783 166.667C172.946 163.277 165.435 163.105 161.012 161.027Z" fill="#C9C6C6"/>
</g>
<path fill-rule="evenodd" clip-rule="evenodd" d="M174.554 222.248C175.621 211.908 168.075 199.512 161.035 193.102C144.734 178.261 121.136 173.341 99.4363 174.033C109.427 156.173 130.656 153.237 147.017 158.086C158.489 161.486 168.855 169.839 174.554 181.182C183.972 199.916 179.502 214.397 174.554 222.248Z" stroke="#333739" stroke-width="0.693" stroke-linecap="round" stroke-linejoin="round"/>
<path fill-rule="evenodd" clip-rule="evenodd" d="M164.123 196.45C156.203 199.56 141.723 189.463 135.159 185.338C124.015 178.339 111.93 173.385 99.4371 174.034C117.014 171.534 136.319 175.94 151.556 185.338C155.939 188.042 160.748 192.401 164.123 196.45Z" fill="white"/>
<mask id="mask15" style="mask-type:alpha" maskUnits="userSpaceOnUse" x="99" y="173" width="66" height="25">
<path fill-rule="evenodd" clip-rule="evenodd" d="M99.437 174.033C111.93 173.384 124.017 178.338 135.159 185.339C141.723 189.462 156.203 199.561 164.123 196.449C160.748 192.398 155.938 188.042 151.556 185.339C139.151 177.683 124.049 173.344 109.379 173.344C106.028 173.344 102.702 173.569 99.437 174.033Z" fill="white"/>
</mask>
<g mask="url(#mask15)">
<path fill-rule="evenodd" clip-rule="evenodd" d="M134.557 185.266C142.813 189.103 151.755 190.244 160.671 190.565C163.794 190.679 171.445 199.379 165.538 202.273C162.931 203.551 159.728 203.208 157.042 202.415C148.68 199.943 141.105 190.824 134.557 185.266Z" fill="#C9C6C6"/>
</g>
<path fill-rule="evenodd" clip-rule="evenodd" d="M164.123 196.45C156.203 199.56 141.723 189.463 135.159 185.338C124.015 178.339 111.93 173.385 99.4372 174.034C117.014 171.534 136.319 175.94 151.556 185.338C155.939 188.042 160.748 192.401 164.123 196.45Z" stroke="#333739" stroke-width="0.693" stroke-linecap="round" stroke-linejoin="round"/>
<path fill-rule="evenodd" clip-rule="evenodd" d="M160.433 192.225C162.151 189.697 163.553 186.223 164.318 182.499C164.792 180.194 165.029 177.795 164.941 175.476C164.895 174.273 164.763 173.089 164.53 171.953C164.369 171.167 164.16 170.405 163.9 169.673C163.563 168.731 163.148 167.84 162.643 167.023C162.129 166.192 161.528 165.44 160.835 164.772C160.767 164.701 160.656 164.701 160.588 164.772C160.52 164.844 160.518 164.961 160.586 165.033C161.337 165.911 161.929 166.907 162.408 167.984C162.87 169.027 163.212 170.145 163.455 171.315C163.644 172.219 163.775 173.15 163.85 174.1C163.963 175.485 163.96 176.911 163.853 178.34C163.482 183.306 161.859 188.31 159.632 191.621C159.473 191.854 159.524 192.18 159.746 192.346C159.966 192.512 160.275 192.458 160.433 192.225Z" fill="#333739"/>
<path fill-rule="evenodd" clip-rule="evenodd" d="M162.906 257.517C166.071 254.038 167.847 247.43 166.175 236.075C164.649 225.714 165.143 220.356 170.387 211.186C173.079 206.481 177.275 202.944 179.779 198.138C180.45 196.85 181.2 193.244 183.119 194.494C183.917 195.014 184.278 196.079 184.495 196.99C186.338 204.783 179.155 210.785 177.568 217.769C175.928 224.974 180.737 231.965 182.26 238.767C183.367 243.708 183.452 248.708 182.64 253.508C180.105 255.237 177.316 256.609 174.089 257.389C170.084 258.358 166.159 258.547 162.906 257.517Z" fill="#E62B31"/>
<mask id="mask16" style="mask-type:alpha" maskUnits="userSpaceOnUse" x="162" y="194" width="23" height="65">
<path fill-rule="evenodd" clip-rule="evenodd" d="M179.779 198.137C177.273 202.943 173.079 206.48 170.388 211.185C165.144 220.354 164.649 225.713 166.175 236.074C167.846 247.429 166.071 254.037 162.905 257.516C166.159 258.545 170.084 258.356 174.089 257.388C177.315 256.607 180.104 255.236 182.64 253.507C183.452 248.708 183.366 243.705 182.261 238.768C180.737 231.964 175.929 224.973 177.567 217.768C179.156 210.784 186.337 204.783 184.494 196.987C184.278 196.078 183.917 195.013 183.119 194.493C182.843 194.313 182.59 194.234 182.358 194.234C180.986 194.234 180.353 197.035 179.779 198.137Z" fill="white"/>
</mask>
<g mask="url(#mask16)">
<path fill-rule="evenodd" clip-rule="evenodd" d="M182.741 194.432C183.517 203.716 175.886 211.447 174.167 220.286C173.628 223.057 173.469 225.93 173.742 228.742C174.906 240.729 180.568 258.183 162.634 257.884C166.33 265.899 184.361 266.437 187.297 257.731C189.489 251.238 187.378 242.027 187.56 235.245C187.832 225.198 190.359 215.388 189.939 205.286C189.932 205.1 189.921 204.915 189.911 204.729C189.76 202.156 189.364 199.193 188.445 196.78C187.603 194.576 184.045 190.882 182.741 194.432Z" fill="#BB1818"/>
</g>
<mask id="mask17" style="mask-type:alpha" maskUnits="userSpaceOnUse" x="162" y="194" width="23" height="65">
<path fill-rule="evenodd" clip-rule="evenodd" d="M179.779 198.137C177.273 202.943 173.079 206.48 170.388 211.185C165.144 220.354 164.649 225.713 166.175 236.074C167.846 247.429 166.071 254.037 162.905 257.516C166.159 258.545 170.084 258.356 174.089 257.388C177.315 256.607 180.104 255.236 182.64 253.507C183.452 248.708 183.366 243.705 182.261 238.768C180.737 231.964 175.929 224.973 177.567 217.768C179.156 210.784 186.337 204.783 184.494 196.987C184.278 196.078 183.917 195.013 183.119 194.493C182.843 194.313 182.59 194.234 182.358 194.234C180.986 194.234 180.353 197.035 179.779 198.137Z" fill="white"/>
</mask>
<g mask="url(#mask17)">
<path fill-rule="evenodd" clip-rule="evenodd" d="M181.283 194.758C180.644 201.124 176.696 205.483 173.3 210.431C171.269 213.387 169.573 216.835 168.543 220.33C167.91 222.468 167.37 224.706 167.332 226.961C167.174 236.216 172.104 249.776 163.419 256.433C163.563 252.335 164.061 248.275 164.035 244.167C163.98 235.646 162.499 228.016 165.21 219.605C168.347 209.871 175.698 202.894 181.283 194.758Z" fill="#F190AE"/>
</g>
<path fill-rule="evenodd" clip-rule="evenodd" d="M162.906 257.513C166.071 254.034 167.847 247.426 166.175 236.071C164.649 225.711 165.142 220.352 170.387 211.182C173.079 206.477 177.274 202.94 179.779 198.134C180.45 196.846 181.199 193.24 183.119 194.49C183.917 195.01 184.278 196.075 184.494 196.986C186.337 204.78 179.154 210.781 177.567 217.765C175.928 224.97 180.737 231.961 182.26 238.763C183.367 243.704 183.452 248.705 182.64 253.504C180.104 255.233 177.316 256.605 174.089 257.385C170.084 258.354 166.159 258.543 162.906 257.513Z" stroke="#333739" stroke-width="0.693" stroke-linecap="round" stroke-linejoin="round"/>
</svg>
