<svg width="251" height="181" viewBox="0 0 251 181" fill="none" xmlns="http://www.w3.org/2000/svg">
<path d="M149.801 9.84084V3.45252C149.801 2.1703 148.761 1.13086 147.479 1.13086H122.715C121.432 1.13086 120.393 2.1703 120.393 3.45252V9.84084C120.393 11.1231 121.432 12.1625 122.715 12.1625H124.221C124.735 12.1625 125.106 12.6546 124.965 13.149L124.105 16.1597L128.615 12.6516C129.023 12.3346 129.524 12.1625 130.041 12.1625H147.479C148.761 12.1625 149.801 11.1231 149.801 9.84084Z" stroke="#FF6666" stroke-width="0.386944"/>
<circle cx="1.1465" cy="1.1465" r="1.1465" transform="matrix(-1 0 0 1 143.107 5.65625)" fill="#FF6666"/>
<circle cx="1.1465" cy="1.1465" r="1.1465" transform="matrix(-1 0 0 1 136.29 5.65625)" fill="#FF6666"/>
<circle cx="1.1465" cy="1.1465" r="1.1465" transform="matrix(-1 0 0 1 129.473 5.65625)" fill="#FF6666"/>
<path d="M46.8738 31.9585V22.6217C46.8738 20.7477 48.393 19.2285 50.267 19.2285H86.4611C88.3351 19.2285 89.8543 20.7477 89.8543 22.6217V31.9585C89.8543 33.8325 88.3351 35.3517 86.4611 35.3517H84.2599C83.5085 35.3517 82.9659 36.0709 83.1724 36.7935L84.4296 41.1937L77.8374 36.0665C77.2418 35.6032 76.5088 35.3517 75.7542 35.3517H50.267C48.393 35.3517 46.8738 33.8325 46.8738 31.9585Z" stroke="#FF6666" stroke-width="0.565533"/>
<circle cx="1.54778" cy="1.54778" r="1.54778" transform="matrix(-1 0 0 1 83.0083 25.4492)" fill="#FF6666"/>
<circle cx="1.54778" cy="1.54778" r="1.54778" transform="matrix(-1 0 0 1 74.2573 25.4492)" fill="#FF6666"/>
<circle cx="1.54778" cy="1.54778" r="1.54778" transform="matrix(-1 0 0 1 65.5066 25.4492)" fill="#FF6666"/>
<circle cx="1.54778" cy="1.54778" r="1.54778" transform="matrix(-1 0 0 1 56.7556 25.4492)" fill="#FF6666"/>
<path d="M55.0209 46.7937H53.5553V45.9643H55.0209V44.4873H55.8502V45.9643H57.3158V46.7937H55.8502V48.2517H55.0209V46.7937Z" fill="#FF6666"/>
<path d="M94.6083 16.2546H93.1427V15.4252H94.6083V13.9483H95.4376V15.4252H96.9032V16.2546H95.4376V17.7126H94.6083V16.2546Z" fill="#FF6666"/>
<path d="M145.254 48.6823H143.788V47.853H145.254V46.376H146.083V47.853H147.549V48.6823H146.083V50.1403H145.254V48.6823Z" fill="#FF6666"/>
<path d="M151.162 15.1237H149.696V14.2944H151.162V12.8174H151.991V14.2944H153.457V15.1237H151.991V16.5817H151.162V15.1237Z" fill="#FF6666"/>
<path d="M85.689 130.543H91.0828L89.4059 167.154H87.1744L85.689 130.543Z" fill="#333739"/>
<path d="M105.766 132.959H109.852L107.812 173.431H105.766V132.959Z" fill="#333739"/>
<path d="M120.633 132.959H123.796L122.218 163.069L120.633 162.323V132.959Z" fill="#333739"/>
<path d="M127.328 132.035H130.49V171.616H128.906L127.328 132.035Z" fill="#333739"/>
<path d="M152.5 74.6276C152.5 77.1506 146.724 83.6373 144.726 87.9666C143.029 91.2883 141.706 94.755 140.778 98.3146C139.284 103.558 139.698 105.218 139.698 108.041C139.698 110.864 139.869 114.623 139.698 118.023C139.528 121.424 139.755 122.916 139.065 125.285C138.374 127.655 137.351 128.422 135.978 129.914C134.605 131.406 133.809 132.437 131.916 133.264C128.83 135.94 110.651 136.306 110.651 136.306C110.651 136.306 95.8587 135.662 88.7186 134.704C81.5786 133.746 71.563 131.413 71.563 131.413C71.563 131.413 72.4809 124.832 77.8501 120.7C83.2194 116.568 92.8369 113.701 92.8369 113.701C92.8369 113.701 104.12 109.174 108.839 107.119C113.559 105.064 120.211 97.6125 121.422 91.8864C122.632 86.1603 121.422 79.5273 121.422 79.5273C121.422 79.5273 121.218 75.7684 123.712 73.1431C126.312 70.4624 129.73 68.5295 133.541 67.5851C136.944 66.8538 143.037 67.2487 144.751 67.5851C146.491 68.0524 148.175 68.6746 149.779 69.4427C150.615 69.7644 152.5 72.0753 152.5 74.6276Z" fill="white"/>
<path opacity="0.4" d="M152.5 74.6276C152.5 77.1506 146.724 83.6373 144.726 87.9666C143.029 91.2883 141.706 94.755 140.778 98.3146C139.284 103.558 139.698 105.218 139.698 108.041C139.698 110.864 139.869 114.623 139.698 118.023C139.528 121.424 139.755 122.916 139.065 125.285C138.374 127.655 137.351 128.422 135.978 129.914C134.605 131.406 133.809 132.437 131.916 133.264C128.83 135.94 110.651 136.306 110.651 136.306C110.651 136.306 95.8587 135.662 88.7186 134.704C81.5786 133.746 71.563 131.413 71.563 131.413C71.563 131.413 72.4809 124.832 77.8501 120.7C83.2194 116.568 92.8369 113.701 92.8369 113.701C92.8369 113.701 104.12 109.174 108.839 107.119C113.559 105.064 120.211 97.6125 121.422 91.8864C122.632 86.1603 121.422 79.5273 121.422 79.5273C121.422 79.5273 121.218 75.7684 123.712 73.1431C126.312 70.4624 129.73 68.5295 133.541 67.5851C136.944 66.8538 143.037 67.2487 144.751 67.5851C146.491 68.0524 148.175 68.6746 149.779 69.4427C150.615 69.7644 152.5 72.0753 152.5 74.6276Z" fill="#333739"/>
<path opacity="0.7" d="M145.648 77.8503C145.648 79.9672 141.219 85.418 139.69 89.047C138.391 91.8225 137.377 94.7379 136.666 97.7432C135.518 102.169 135.831 103.541 135.831 105.916C135.831 108.291 135.963 111.448 135.831 114.302C135.699 117.157 135.873 118.411 135.351 120.395C134.83 122.379 134.037 123.035 132.981 124.289C131.924 125.543 131.319 126.406 129.873 127.099C127.502 129.349 113.569 129.651 113.569 129.651C113.569 129.651 102.229 129.12 96.7369 128.309C91.2444 127.498 83.5896 125.543 83.5896 125.543C83.5896 125.543 84.2849 120.011 88.4147 116.552C92.5445 113.093 99.8934 110.651 99.8934 110.651C99.8934 110.651 108.542 106.845 112.165 105.119C115.787 103.393 120.869 97.1015 121.808 92.3219C122.746 87.5423 121.808 81.944 121.808 81.944C121.764 79.9911 122.386 78.0871 123.56 76.5817C125.603 74.2977 128.217 72.6783 131.097 71.9127C133.704 71.3079 138.376 71.6324 139.69 71.9127C141.017 72.3026 142.306 72.8236 143.542 73.469C144.202 73.7862 145.648 75.7261 145.648 77.8503Z" fill="#333739"/>
<path opacity="0.3" fill-rule="evenodd" clip-rule="evenodd" d="M85.7421 172.81C85.7421 172.81 77.2124 172.795 77.2303 173.228C77.2838 174.695 83.9862 173.836 84.5397 174.277C84.8076 174.49 84.51 174.962 84.9861 175.266C86.879 176.474 93.4742 175.38 95.8254 175.387C102.236 175.41 103.861 175.957 104.605 176.026C106.694 176.223 112.605 176.147 114.266 176.109C117.688 176.033 126.891 176.353 126.694 175.114C126.605 174.559 117.772 173.388 116.266 173.236C114.98 173.107 114.093 172.339 112.938 171.883C111.319 171.252 109.546 170.864 107.801 170.629C100.498 169.625 93.0039 171.989 85.7421 172.81Z" fill="#333739"/>
<path fill-rule="evenodd" clip-rule="evenodd" d="M170.272 170.601C165.38 170.942 160.43 170.823 155.568 171.525C154.877 171.625 150.794 172.083 151.606 173.33C153.531 176.285 165.394 174.215 169.14 175.052C170.941 175.455 167.508 177.516 170.175 178.877C173.93 180.792 180.675 181.011 184.854 180.997C187.507 180.988 190.331 180.998 192.898 180.276C195.18 179.634 197.201 178.615 199.593 178.305C204.991 177.605 210.505 178.357 215.915 178.514C217.95 178.574 225.708 178.99 227.173 177.383C229.511 174.819 216.798 172.473 216.376 172.409C213.84 172.026 211.286 171.703 208.73 171.471C203.965 171.037 199.179 170.779 194.394 170.652C186.682 170.446 170.272 170.601 170.272 170.601Z" fill="#BBBBB9"/>
<path fill-rule="evenodd" clip-rule="evenodd" d="M199.668 152.501C202.911 148.215 209.91 146.328 214.018 151.571C217.75 156.335 223.913 157.397 225.661 154.731C227.21 152.368 228.43 154.795 226.865 157.61C225.299 160.425 220.149 161.91 214.998 159.15C209.847 156.39 205.923 154.863 202.408 160.762C200.114 157.565 196.426 156.786 199.668 152.501Z" fill="#E53036"/>
<mask id="mask0_37007_18789" style="mask-type:luminance" maskUnits="userSpaceOnUse" x="198" y="148" width="30" height="13">
<path fill-rule="evenodd" clip-rule="evenodd" d="M199.668 152.501C196.426 156.786 200.114 157.565 202.408 160.762C205.923 154.863 209.847 156.39 214.998 159.15C220.149 161.91 225.299 160.425 226.865 157.61C228.43 154.795 227.21 152.368 225.661 154.731C223.913 157.397 217.75 156.335 214.018 151.571C212.257 149.324 209.965 148.387 207.666 148.387C204.6 148.387 201.521 150.053 199.668 152.501Z" fill="white"/>
</mask>
<g mask="url(#mask0_37007_18789)">
<path fill-rule="evenodd" clip-rule="evenodd" d="M208.318 151.517C209.798 151.77 213.887 158.43 221.673 158.359C223.787 158.34 225.883 157.546 226.857 155.571C227.11 155.06 227.148 154.415 227.483 153.95C227.771 153.552 228.439 153.708 228.737 154.005C231.224 156.49 226.912 160.434 224.897 161.417C220.999 163.319 211.09 162.551 207.072 160.995C199.797 158.176 205.296 151.001 208.318 151.517Z" fill="#CB151F"/>
</g>
<path fill-rule="evenodd" clip-rule="evenodd" d="M199.668 152.499C202.911 148.213 209.91 146.327 214.018 151.569C217.75 156.333 223.913 157.395 225.661 154.729C227.21 152.366 228.43 154.793 226.865 157.608C225.299 160.423 220.149 161.908 214.998 159.148C209.847 156.388 205.923 154.861 202.408 160.76C200.114 157.563 196.426 156.784 199.668 152.499Z" stroke="#020203" stroke-width="0.486171" stroke-linecap="round" stroke-linejoin="round"/>
<path fill-rule="evenodd" clip-rule="evenodd" d="M209.874 167.163C214.268 166.725 223.047 161.398 223.047 152.88C223.047 144.362 218.26 142.302 218.26 135.33C218.26 132.071 220.927 131.484 222.072 132.585C224.332 134.759 223.912 127.562 219.281 127.562C216.254 127.562 214.012 130.68 214.012 134.689C214.012 138.699 215.462 145.828 215.462 149.317C215.462 152.806 211.184 157.922 203.982 156.504C204.508 162.949 205.482 167.602 209.874 167.163Z" fill="#E53036"/>
<mask id="mask1_37007_18789" style="mask-type:luminance" maskUnits="userSpaceOnUse" x="203" y="127" width="21" height="41">
<path fill-rule="evenodd" clip-rule="evenodd" d="M214.012 134.689C214.012 138.699 215.462 145.828 215.462 149.317C215.462 152.806 211.184 157.922 203.983 156.504C204.509 162.949 205.482 167.602 209.875 167.163C214.268 166.725 223.048 161.399 223.048 152.88C223.048 144.362 218.26 142.302 218.26 135.33C218.26 132.071 220.927 131.484 222.072 132.585C224.332 134.759 223.913 127.562 219.281 127.562C216.254 127.562 214.012 130.68 214.012 134.689Z" fill="white"/>
</mask>
<g mask="url(#mask1_37007_18789)">
<path fill-rule="evenodd" clip-rule="evenodd" d="M205.217 161.168C207.367 161.897 211.403 161.498 213.442 160.096C221.914 154.276 215.958 143.794 215.967 136.238C215.97 133.709 216.425 131.064 218.259 129.197C218.871 128.574 219.589 128.09 220.419 127.809C220.484 127.786 220.925 127.707 220.942 127.663C221.179 127.062 219.626 126.277 219.268 126.154C215.029 124.7 210.985 128.539 208.407 131.371C202.535 137.824 199.868 144.678 200.513 153.371C200.791 157.129 201.784 160.002 205.217 161.168Z" fill="#CB151F"/>
</g>
<mask id="mask2_37007_18789" style="mask-type:luminance" maskUnits="userSpaceOnUse" x="203" y="127" width="21" height="41">
<path fill-rule="evenodd" clip-rule="evenodd" d="M214.012 134.689C214.012 138.699 215.462 145.828 215.462 149.317C215.462 152.806 211.184 157.922 203.983 156.504C204.509 162.949 205.482 167.602 209.875 167.163C214.268 166.725 223.048 161.399 223.048 152.88C223.048 144.362 218.26 142.302 218.26 135.33C218.26 132.071 220.927 131.484 222.072 132.585C224.332 134.759 223.913 127.562 219.281 127.562C216.254 127.562 214.012 130.68 214.012 134.689Z" fill="white"/>
</mask>
<g mask="url(#mask2_37007_18789)">
<path fill-rule="evenodd" clip-rule="evenodd" d="M218.999 133.496C217.184 139.119 222.013 143.59 223.25 149.125C224.618 155.195 220.943 162.754 214.706 165.582C214.343 165.659 214.344 166.306 213.979 165.875L213.818 165.659L213.555 165.76C213.572 165.718 213.422 165.525 213.71 165.336L213.468 165.148C218.045 162.718 222.165 157.085 221.579 151.025C221.113 145.202 214.518 138.779 218.664 132.664C218.664 132.664 219.444 132.115 218.999 133.496Z" fill="#EB6855"/>
</g>
<mask id="mask3_37007_18789" style="mask-type:luminance" maskUnits="userSpaceOnUse" x="203" y="127" width="21" height="41">
<path fill-rule="evenodd" clip-rule="evenodd" d="M214.012 134.689C214.012 138.699 215.462 145.828 215.462 149.317C215.462 152.806 211.184 157.922 203.983 156.504C204.509 162.949 205.482 167.602 209.875 167.163C214.268 166.725 223.048 161.399 223.048 152.88C223.048 144.362 218.26 142.302 218.26 135.33C218.26 132.071 220.927 131.484 222.072 132.585C224.332 134.759 223.913 127.562 219.281 127.562C216.254 127.562 214.012 130.68 214.012 134.689Z" fill="white"/>
</mask>
<g mask="url(#mask3_37007_18789)">
<path fill-rule="evenodd" clip-rule="evenodd" d="M219.786 126.488C222.015 126.498 223.469 128.349 223.236 130.799C223.046 131.48 223.207 132.604 222.427 132.953C222.38 132.919 222.186 132.894 222.169 132.573C222.082 130.884 221.401 128.787 219.734 127.942C219.066 127.472 218.14 127.895 217.545 127.363C217.4 126.91 219.197 126.423 219.786 126.488Z" fill="#EB6855"/>
</g>
<path fill-rule="evenodd" clip-rule="evenodd" d="M209.875 167.163C214.268 166.725 223.048 161.398 223.048 152.88C223.048 144.362 218.26 142.302 218.26 135.33C218.26 132.071 220.928 131.484 222.072 132.585C224.332 134.759 223.913 127.562 219.281 127.562C216.254 127.562 214.012 130.68 214.012 134.689C214.012 138.699 215.462 145.828 215.462 149.317C215.462 152.806 211.184 157.922 203.983 156.504C204.509 162.949 205.482 167.602 209.875 167.163Z" stroke="#020203" stroke-width="0.486171" stroke-linecap="round" stroke-linejoin="round"/>
<path fill-rule="evenodd" clip-rule="evenodd" d="M178.729 147.984C177.467 151.768 174.741 156.171 170.273 156.171C166.281 156.171 160.784 154.988 158.834 159.074C158.316 160.157 159.33 160.722 160.352 159.867C163.44 157.284 169.235 164.313 177.898 162.046C180.192 161.445 186.167 158.92 186.404 153.733C186.641 148.545 179.991 144.2 178.729 147.984Z" fill="#E53036"/>
<mask id="mask4_37007_18789" style="mask-type:luminance" maskUnits="userSpaceOnUse" x="158" y="146" width="29" height="17">
<path fill-rule="evenodd" clip-rule="evenodd" d="M178.729 147.986C177.467 151.77 174.741 156.174 170.273 156.174C166.281 156.174 160.784 154.99 158.834 159.076C158.316 160.159 159.33 160.724 160.352 159.869C161.922 158.556 164.191 159.727 167.181 160.898C170.073 162.03 173.638 163.163 177.897 162.048C180.192 161.447 186.167 158.922 186.404 153.735C186.578 149.917 183.022 146.555 180.629 146.555C179.771 146.555 179.062 146.987 178.729 147.986Z" fill="white"/>
</mask>
<g mask="url(#mask4_37007_18789)">
<path fill-rule="evenodd" clip-rule="evenodd" d="M158.694 161.439C157.286 161.143 161.351 156.199 165.255 158.467C166.721 159.318 169.967 159.108 171.544 158.488C173.515 157.714 175.892 156.455 177.025 154.578C177.325 154.082 177.455 153.401 177.362 152.831C177.33 152.632 176.885 151.804 176.948 151.681C177.005 151.569 177.333 151.533 177.436 151.526C180.158 151.319 182.629 154.38 182.899 156.821C183.465 161.927 178.076 165.054 173.564 164.646C170.597 164.378 167.933 162.716 164.991 162.29C163.113 162.018 160.517 161.823 158.694 161.439Z" fill="#CB151F"/>
</g>
<path fill-rule="evenodd" clip-rule="evenodd" d="M178.729 147.984C177.467 151.768 174.741 156.171 170.273 156.171C166.281 156.171 160.784 154.988 158.834 159.074C158.316 160.157 159.33 160.722 160.352 159.867C163.44 157.284 169.235 164.313 177.898 162.046C180.192 161.445 186.167 158.92 186.404 153.733C186.641 148.545 179.991 144.2 178.729 147.984Z" stroke="#020203" stroke-width="0.486171" stroke-linecap="round" stroke-linejoin="round"/>
<path fill-rule="evenodd" clip-rule="evenodd" d="M171.511 154.49C172.88 156.306 176.83 157.63 179.338 153.733C183.707 155.429 189.569 161.493 189.569 161.493C184.18 165.3 163.705 164.722 163.705 151.796C163.705 142.875 174.935 142.796 175.444 149.545C175.674 152.589 173.659 154.441 171.511 154.49Z" fill="#E53036"/>
<mask id="mask5_37007_18789" style="mask-type:luminance" maskUnits="userSpaceOnUse" x="163" y="144" width="27" height="20">
<path fill-rule="evenodd" clip-rule="evenodd" d="M163.705 151.796C163.705 164.722 184.18 165.3 189.569 161.492C189.569 161.492 183.707 155.429 179.338 153.733C176.83 157.63 172.88 156.306 171.511 154.49C173.659 154.441 175.674 152.589 175.444 149.545C175.209 146.422 172.679 144.761 170.027 144.762C166.948 144.762 163.705 147.003 163.705 151.796Z" fill="white"/>
</mask>
<g mask="url(#mask5_37007_18789)">
<path fill-rule="evenodd" clip-rule="evenodd" d="M173.946 156.182C173.382 158.785 170.32 159.418 168.319 157.937C167.134 157.061 166.315 155.683 165.849 154.303C164.861 151.369 165.966 147.824 167.997 145.563C168.183 145.357 169.126 144.799 169.163 144.567C169.195 144.366 168.913 144.111 168.778 144.018C166.861 142.697 164.043 144.248 162.766 145.801C159.814 149.392 161.047 154.483 163.052 158.194C164.113 160.159 165.612 161.94 167.51 163.156C172.208 166.165 181.033 167.587 186.015 164.873C188.291 163.633 189.86 161.669 190.232 159.072C191.424 150.763 182.127 147.769 177.26 153.36L173.946 156.182Z" fill="#CB151F"/>
</g>
<mask id="mask6_37007_18789" style="mask-type:luminance" maskUnits="userSpaceOnUse" x="163" y="144" width="27" height="20">
<path fill-rule="evenodd" clip-rule="evenodd" d="M163.705 151.796C163.705 164.722 184.18 165.3 189.569 161.492C189.569 161.492 183.707 155.429 179.338 153.733C176.83 157.63 172.88 156.306 171.511 154.49C173.659 154.441 175.674 152.589 175.444 149.545C175.209 146.422 172.679 144.761 170.027 144.762C166.948 144.762 163.705 147.003 163.705 151.796Z" fill="white"/>
</mask>
<g mask="url(#mask6_37007_18789)">
<path fill-rule="evenodd" clip-rule="evenodd" d="M169.897 148.969C168.018 149.183 167.548 151.513 168.278 152.943C169.675 155.68 173.534 155.013 174.842 152.557C174.983 152.291 175.097 151.999 175.155 151.703C175.177 151.594 175.188 151.485 175.188 151.375C175.188 151.336 175.209 151.238 175.179 151.26C174.685 151.625 174.406 152.207 173.961 152.622C172.99 153.527 171.464 153.838 170.23 153.271C168.932 152.675 168.718 151.136 169.255 149.943C169.355 149.721 169.876 149.133 169.904 148.992C169.911 148.953 169.44 148.974 169.404 148.979C168.998 149.038 169.897 148.969 169.897 148.969Z" fill="#CB151F"/>
</g>
<path fill-rule="evenodd" clip-rule="evenodd" d="M171.511 154.49C172.88 156.306 176.83 157.63 179.338 153.733C183.707 155.429 189.569 161.493 189.569 161.493C184.18 165.3 163.705 164.722 163.705 151.796C163.705 142.875 174.935 142.796 175.444 149.545C175.674 152.589 173.659 154.441 171.511 154.49Z" stroke="#020203" stroke-width="0.486171" stroke-linecap="round" stroke-linejoin="round"/>
<path fill-rule="evenodd" clip-rule="evenodd" d="M186.284 156.23C186.063 159.543 184.698 161.934 181.172 161.934C177.646 161.934 172.37 159.778 168.936 159.778C161.805 159.778 160.553 169.069 156.736 169.069C154.849 169.069 154.6 167.663 155.211 166.327C155.903 164.813 153.584 164.999 152.601 168.264C151.986 170.31 153.397 173.17 156.733 173.17C162.128 173.17 163.039 167.654 168.434 167.654C173.829 167.654 181.985 177.188 190.404 168.765C198.823 160.343 186.506 152.918 186.284 156.23Z" fill="#E53036"/>
<mask id="mask7_37007_18789" style="mask-type:luminance" maskUnits="userSpaceOnUse" x="152" y="155" width="42" height="19">
<path fill-rule="evenodd" clip-rule="evenodd" d="M186.284 156.232C186.063 159.545 184.698 161.936 181.172 161.936C177.646 161.936 172.37 159.78 168.936 159.78C161.805 159.78 160.553 169.071 156.736 169.071C154.849 169.071 154.6 167.665 155.211 166.329C155.903 164.815 153.584 165.001 152.601 168.266C151.986 170.312 153.397 173.172 156.733 173.172C162.128 173.172 163.039 167.656 168.434 167.656C173.829 167.656 181.985 177.19 190.404 168.767C197.418 161.75 190.039 155.426 187.253 155.426C186.695 155.426 186.321 155.679 186.284 156.232Z" fill="white"/>
</mask>
<g mask="url(#mask7_37007_18789)">
<path fill-rule="evenodd" clip-rule="evenodd" d="M172.078 159.745C170.253 166.044 166.901 163.966 162.004 167.713C160.131 169.146 158.072 172.733 154.898 170.934C153.081 169.905 153.926 167.199 154.893 165.48C156.176 163.201 150.502 165.492 149.898 166.808C149.305 168.1 149.27 169.425 149.638 170.778C150.524 174.038 153.38 175.517 156.607 175.81C159.581 176.081 164.003 175.602 166.829 174.82C168.67 174.311 170.342 173.425 172.265 173.194C178.175 172.484 183.626 175.114 188.713 170.553C191.863 167.727 192.967 163.509 190.062 160.149C189.315 159.285 188.534 158.538 187.456 158.111C183.621 156.593 176.883 157.717 173.322 159.741L172.078 159.745Z" fill="#CB151F"/>
</g>
<mask id="mask8_37007_18789" style="mask-type:luminance" maskUnits="userSpaceOnUse" x="152" y="155" width="42" height="19">
<path fill-rule="evenodd" clip-rule="evenodd" d="M186.284 156.232C186.063 159.545 184.698 161.936 181.172 161.936C177.646 161.936 172.37 159.78 168.936 159.78C161.805 159.78 160.553 169.071 156.736 169.071C154.849 169.071 154.6 167.665 155.211 166.329C155.903 164.815 153.584 165.001 152.601 168.266C151.986 170.312 153.397 173.172 156.733 173.172C162.128 173.172 163.039 167.656 168.434 167.656C173.829 167.656 181.985 177.19 190.404 168.767C197.418 161.75 190.039 155.426 187.253 155.426C186.695 155.426 186.321 155.679 186.284 156.232Z" fill="white"/>
</mask>
<g mask="url(#mask8_37007_18789)">
<path fill-rule="evenodd" clip-rule="evenodd" d="M168.563 159.311C170.686 159.328 173.24 160.231 168.729 160.368C167.496 160.578 166.379 161.249 165.406 162.077C163.768 163.511 162.404 165.117 160.901 166.797C160.412 167.238 158.089 171.181 154.879 168.685H154.878C154.218 167.451 156.211 169.136 157.721 168.181C158.726 168.044 161.95 159.545 168.563 159.311Z" fill="#EB6855"/>
</g>
<path fill-rule="evenodd" clip-rule="evenodd" d="M186.284 156.232C186.063 159.544 184.698 161.936 181.172 161.936C177.646 161.936 172.37 159.78 168.936 159.78C161.805 159.78 160.553 169.071 156.736 169.071C154.849 169.071 154.6 167.665 155.21 166.329C155.903 164.815 153.583 165.001 152.601 168.266C151.986 170.312 153.397 173.172 156.733 173.172C162.128 173.172 163.039 167.656 168.434 167.656C173.829 167.656 181.985 177.19 190.404 168.767C198.823 160.345 186.506 152.92 186.284 156.232Z" stroke="#020203" stroke-width="0.486171" stroke-linecap="round" stroke-linejoin="round"/>
<path fill-rule="evenodd" clip-rule="evenodd" d="M168.481 136.356C169.089 140.476 173.097 151.137 184.335 158.406C190.501 162.396 187.086 170.095 182.133 170.095C178.459 170.095 177.539 167.505 177.919 165.06C178.449 168.216 183.856 167.809 183.798 163.341C183.757 160.218 181.226 158.305 178.104 158.305C175.065 158.305 170.744 161.831 170.744 167.536C170.744 173.24 175.545 178.497 182.597 178.497C189.648 178.497 193.875 172.44 201.195 172.44C208.517 172.44 210.49 176.265 217.817 176.265C225.143 176.265 227.459 171.042 227.459 167.859C227.459 164.676 225.634 162.961 222.817 162.961C220.001 162.961 218.941 165.596 218.941 166.729C218.941 167.861 219.308 169.137 220.389 169.561C217.733 169.491 215.884 166.769 214.383 165.593C211.136 163.049 206.521 163.75 206.521 159.205C206.521 156.295 208.193 153.659 210.556 150.767C215.472 144.748 216.749 134.465 213.829 124.057C205.432 94.1327 163.738 104.161 168.481 136.356Z" fill="#E53036"/>
<mask id="mask9_37007_18789" style="mask-type:luminance" maskUnits="userSpaceOnUse" x="168" y="106" width="60" height="73">
<path fill-rule="evenodd" clip-rule="evenodd" d="M168.482 136.356C169.089 140.476 173.098 151.136 184.335 158.406C190.501 162.396 187.086 170.095 182.133 170.095C178.459 170.095 177.539 167.505 177.919 165.06C178.449 168.216 183.856 167.809 183.798 163.341C183.757 160.218 181.226 158.305 178.104 158.305C175.065 158.305 170.744 161.831 170.744 167.536C170.744 173.24 175.545 178.497 182.597 178.497C189.649 178.497 193.875 172.44 201.196 172.44C208.517 172.44 210.49 176.265 217.817 176.265C225.143 176.265 227.459 171.042 227.459 167.859C227.459 164.676 225.635 162.961 222.818 162.961C220.001 162.961 218.941 165.596 218.941 166.729C218.941 167.861 219.308 169.137 220.389 169.561C217.733 169.491 215.884 166.769 214.383 165.593C211.136 163.049 206.521 163.75 206.521 159.205C206.521 156.295 208.194 153.659 210.556 150.767C215.472 144.748 216.75 134.465 213.829 124.057C210.367 111.72 201.241 106.173 192.048 106.172C178.942 106.17 165.694 117.435 168.482 136.356Z" fill="white"/>
</mask>
<g mask="url(#mask9_37007_18789)">
<path fill-rule="evenodd" clip-rule="evenodd" d="M213.208 123.136C208.93 121.616 201.618 122.357 197.443 123.804C189.09 126.701 184.605 130.029 182.594 132.174C176.19 139.007 179.664 149.926 186.71 156.203C189.246 158.461 190.644 160.174 191.859 160.792C193.192 161.469 192.945 162.662 190.759 162.466C188.742 162.285 191.197 168.942 186.572 171.251C182.465 173.302 178.8 169.64 178.117 167.195C177.331 164.378 178.447 162.256 179.388 162.399C178.157 163.948 178.984 167.153 181.269 167.195C183.861 167.241 186.239 163.837 185.949 163.114C184.352 159.139 171.228 147.768 170.422 146.272C161.454 129.627 171.088 123.348 185.161 118.254C188.652 116.991 192.016 115.273 195.674 114.519C201.564 113.305 213.292 112.219 215.257 120.091L213.208 123.136Z" fill="#CB151F"/>
</g>
<mask id="mask10_37007_18789" style="mask-type:luminance" maskUnits="userSpaceOnUse" x="168" y="106" width="60" height="73">
<path fill-rule="evenodd" clip-rule="evenodd" d="M168.482 136.356C169.089 140.476 173.098 151.136 184.335 158.406C190.501 162.396 187.086 170.095 182.133 170.095C178.459 170.095 177.539 167.505 177.919 165.06C178.449 168.216 183.856 167.809 183.798 163.341C183.757 160.218 181.226 158.305 178.104 158.305C175.065 158.305 170.744 161.831 170.744 167.536C170.744 173.24 175.545 178.497 182.597 178.497C189.649 178.497 193.875 172.44 201.196 172.44C208.517 172.44 210.49 176.265 217.817 176.265C225.143 176.265 227.459 171.042 227.459 167.859C227.459 164.676 225.635 162.961 222.818 162.961C220.001 162.961 218.941 165.596 218.941 166.729C218.941 167.861 219.308 169.137 220.389 169.561C217.733 169.491 215.884 166.769 214.383 165.593C211.136 163.049 206.521 163.75 206.521 159.205C206.521 156.295 208.194 153.659 210.556 150.767C215.472 144.748 216.75 134.465 213.829 124.057C210.367 111.72 201.241 106.173 192.048 106.172C178.942 106.17 165.694 117.435 168.482 136.356Z" fill="white"/>
</mask>
<g mask="url(#mask10_37007_18789)">
<path fill-rule="evenodd" clip-rule="evenodd" d="M181.079 132.259C180.582 137.002 190.257 137.097 193.919 130.977C194.924 129.297 190.668 132.304 186.214 132.711C182.265 133.072 181.142 131.651 181.079 132.259Z" fill="#CB151F"/>
</g>
<mask id="mask11_37007_18789" style="mask-type:luminance" maskUnits="userSpaceOnUse" x="168" y="106" width="60" height="73">
<path fill-rule="evenodd" clip-rule="evenodd" d="M168.482 136.356C169.089 140.476 173.098 151.136 184.335 158.406C190.501 162.396 187.086 170.095 182.133 170.095C178.459 170.095 177.539 167.505 177.919 165.06C178.449 168.216 183.856 167.809 183.798 163.341C183.757 160.218 181.226 158.305 178.104 158.305C175.065 158.305 170.744 161.831 170.744 167.536C170.744 173.24 175.545 178.497 182.597 178.497C189.649 178.497 193.875 172.44 201.196 172.44C208.517 172.44 210.49 176.265 217.817 176.265C225.143 176.265 227.459 171.042 227.459 167.859C227.459 164.676 225.635 162.961 222.818 162.961C220.001 162.961 218.941 165.596 218.941 166.729C218.941 167.861 219.308 169.137 220.389 169.561C217.733 169.491 215.884 166.769 214.383 165.593C211.136 163.049 206.521 163.75 206.521 159.205C206.521 156.295 208.194 153.659 210.556 150.767C215.472 144.748 216.75 134.465 213.829 124.057C210.367 111.72 201.241 106.173 192.048 106.172C178.942 106.17 165.694 117.435 168.482 136.356Z" fill="white"/>
</mask>
<g mask="url(#mask11_37007_18789)">
<path fill-rule="evenodd" clip-rule="evenodd" d="M178.615 158.275C171.27 162.698 172.762 174.915 181.723 176.26C188.33 177.251 192.5 170.875 198.44 169.605C205.859 168.018 211.574 173.786 218.709 174.277C223.15 174.583 225.997 171.913 229.013 169.124C229.037 169.103 229.153 168.974 229.19 168.98C230.881 169.245 230.202 173.633 229.89 174.571C227.822 180.789 220.452 181.521 215.027 183.037C202.969 186.406 181.707 190.683 171.259 181.554C165.561 176.575 166.169 168.424 170.371 162.824C171.243 161.662 173.432 158.899 174.958 158.601L178.615 158.275Z" fill="#CB151F"/>
</g>
<mask id="mask12_37007_18789" style="mask-type:luminance" maskUnits="userSpaceOnUse" x="168" y="106" width="60" height="73">
<path fill-rule="evenodd" clip-rule="evenodd" d="M168.482 136.356C169.089 140.476 173.098 151.136 184.335 158.406C190.501 162.396 187.086 170.095 182.133 170.095C178.459 170.095 177.539 167.505 177.919 165.06C178.449 168.216 183.856 167.809 183.798 163.341C183.757 160.218 181.226 158.305 178.104 158.305C175.065 158.305 170.744 161.831 170.744 167.536C170.744 173.24 175.545 178.497 182.597 178.497C189.649 178.497 193.875 172.44 201.196 172.44C208.517 172.44 210.49 176.265 217.817 176.265C225.143 176.265 227.459 171.042 227.459 167.859C227.459 164.676 225.635 162.961 222.818 162.961C220.001 162.961 218.941 165.596 218.941 166.729C218.941 167.861 219.308 169.137 220.389 169.561C217.733 169.491 215.884 166.769 214.383 165.593C211.136 163.049 206.521 163.75 206.521 159.205C206.521 156.295 208.194 153.659 210.556 150.767C215.472 144.748 216.75 134.465 213.829 124.057C210.367 111.72 201.241 106.173 192.048 106.172C178.942 106.17 165.694 117.435 168.482 136.356Z" fill="white"/>
</mask>
<g mask="url(#mask12_37007_18789)">
<path fill-rule="evenodd" clip-rule="evenodd" d="M212.446 121.781C216.014 128.851 220.049 147.004 201.751 159.714C201.718 159.699 201.528 159.904 201.304 159.661C201.312 159.617 201.123 159.457 201.369 159.215H201.369C210.837 151.379 216.133 139.155 212.961 125.461C212.942 124.317 211.791 122.886 212.213 121.777C212.238 121.8 212.188 121.721 212.446 121.781Z" fill="#EB6855"/>
</g>
<mask id="mask13_37007_18789" style="mask-type:luminance" maskUnits="userSpaceOnUse" x="168" y="106" width="60" height="73">
<path fill-rule="evenodd" clip-rule="evenodd" d="M168.482 136.356C169.089 140.476 173.098 151.136 184.335 158.406C190.501 162.396 187.086 170.095 182.133 170.095C178.459 170.095 177.539 167.505 177.919 165.06C178.449 168.216 183.856 167.809 183.798 163.341C183.757 160.218 181.226 158.305 178.104 158.305C175.065 158.305 170.744 161.831 170.744 167.536C170.744 173.24 175.545 178.497 182.597 178.497C189.649 178.497 193.875 172.44 201.196 172.44C208.517 172.44 210.49 176.265 217.817 176.265C225.143 176.265 227.459 171.042 227.459 167.859C227.459 164.676 225.635 162.961 222.818 162.961C220.001 162.961 218.941 165.596 218.941 166.729C218.941 167.861 219.308 169.137 220.389 169.561C217.733 169.491 215.884 166.769 214.383 165.593C211.136 163.049 206.521 163.75 206.521 159.205C206.521 156.295 208.194 153.659 210.556 150.767C215.472 144.748 216.75 134.465 213.829 124.057C210.367 111.72 201.241 106.173 192.048 106.172C178.942 106.17 165.694 117.435 168.482 136.356Z" fill="white"/>
</mask>
<g mask="url(#mask13_37007_18789)">
<path fill-rule="evenodd" clip-rule="evenodd" d="M208.516 153.154L207.325 153.485C207.846 153.395 206.957 157.068 206.855 157.999C206.135 165.016 210.633 160.591 216.817 167.264C217.562 167.946 218.244 168.911 219.255 169.134C221.3 169.265 220.487 170.448 217.48 169.435C215.431 168.685 214.024 166.936 211.945 166C209.609 164.88 204.997 164.221 204.576 160.467C204.37 158.733 205.265 156.592 206.161 155.008C206.554 154.585 207.756 153.189 208.516 153.154Z" fill="#EB6855"/>
</g>
<mask id="mask14_37007_18789" style="mask-type:luminance" maskUnits="userSpaceOnUse" x="168" y="106" width="60" height="73">
<path fill-rule="evenodd" clip-rule="evenodd" d="M168.482 136.356C169.089 140.476 173.098 151.136 184.335 158.406C190.501 162.396 187.086 170.095 182.133 170.095C178.459 170.095 177.539 167.505 177.919 165.06C178.449 168.216 183.856 167.809 183.798 163.341C183.757 160.218 181.226 158.305 178.104 158.305C175.065 158.305 170.744 161.831 170.744 167.536C170.744 173.24 175.545 178.497 182.597 178.497C189.649 178.497 193.875 172.44 201.196 172.44C208.517 172.44 210.49 176.265 217.817 176.265C225.143 176.265 227.459 171.042 227.459 167.859C227.459 164.676 225.635 162.961 222.818 162.961C220.001 162.961 218.941 165.596 218.941 166.729C218.941 167.861 219.308 169.137 220.389 169.561C217.733 169.491 215.884 166.769 214.383 165.593C211.136 163.049 206.521 163.75 206.521 159.205C206.521 156.295 208.194 153.659 210.556 150.767C215.472 144.748 216.75 134.465 213.829 124.057C210.367 111.72 201.241 106.173 192.048 106.172C178.942 106.17 165.694 117.435 168.482 136.356Z" fill="white"/>
</mask>
<g mask="url(#mask14_37007_18789)">
<path fill-rule="evenodd" clip-rule="evenodd" d="M223.086 162.508C228.489 162.553 230.243 169.46 225.71 173.542C225.459 173.628 223.532 175.595 222.58 175.179C222.588 175.125 222.433 174.973 222.683 174.74V174.739C224.746 173.134 226.427 170.834 226.366 167.643C226.372 166.066 225.6 164.394 224.068 163.721C223.617 163.514 223.132 163.369 222.619 163.292C222.286 163.165 221.787 163.425 221.629 162.932C221.569 162.537 222.645 162.495 223.086 162.508Z" fill="#EB6855"/>
</g>
<mask id="mask15_37007_18789" style="mask-type:luminance" maskUnits="userSpaceOnUse" x="168" y="106" width="60" height="73">
<path fill-rule="evenodd" clip-rule="evenodd" d="M168.482 136.356C169.089 140.476 173.098 151.136 184.335 158.406C190.501 162.396 187.086 170.095 182.133 170.095C178.459 170.095 177.539 167.505 177.919 165.06C178.449 168.216 183.856 167.809 183.798 163.341C183.757 160.218 181.226 158.305 178.104 158.305C175.065 158.305 170.744 161.831 170.744 167.536C170.744 173.24 175.545 178.497 182.597 178.497C189.649 178.497 193.875 172.44 201.196 172.44C208.517 172.44 210.49 176.265 217.817 176.265C225.143 176.265 227.459 171.042 227.459 167.859C227.459 164.676 225.635 162.961 222.818 162.961C220.001 162.961 218.941 165.596 218.941 166.729C218.941 167.861 219.308 169.137 220.389 169.561C217.733 169.491 215.884 166.769 214.383 165.593C211.136 163.049 206.521 163.75 206.521 159.205C206.521 156.295 208.194 153.659 210.556 150.767C215.472 144.748 216.75 134.465 213.829 124.057C210.367 111.72 201.241 106.173 192.048 106.172C178.942 106.17 165.694 117.435 168.482 136.356Z" fill="white"/>
</mask>
<g mask="url(#mask15_37007_18789)">
<path fill-rule="evenodd" clip-rule="evenodd" d="M179.412 157.991C181.236 158.006 183.028 158.923 184.07 160.489C185.267 162.22 185.083 164.899 183.137 166.257C182.534 166.538 181.732 167.379 181.039 166.897C180.521 166.544 184.116 165.056 182.05 161.299L182.435 161.484C181.64 159.967 180.045 158.861 178.313 158.722L178.312 158.722C177.33 158.347 178.798 157.858 179.412 157.991Z" fill="#EB6855"/>
</g>
<mask id="mask16_37007_18789" style="mask-type:luminance" maskUnits="userSpaceOnUse" x="168" y="106" width="60" height="73">
<path fill-rule="evenodd" clip-rule="evenodd" d="M168.482 136.356C169.089 140.476 173.098 151.136 184.335 158.406C190.501 162.396 187.086 170.095 182.133 170.095C178.459 170.095 177.539 167.505 177.919 165.06C178.449 168.216 183.856 167.809 183.798 163.341C183.757 160.218 181.226 158.305 178.104 158.305C175.065 158.305 170.744 161.831 170.744 167.536C170.744 173.24 175.545 178.497 182.597 178.497C189.649 178.497 193.875 172.44 201.196 172.44C208.517 172.44 210.49 176.265 217.817 176.265C225.143 176.265 227.459 171.042 227.459 167.859C227.459 164.676 225.635 162.961 222.818 162.961C220.001 162.961 218.941 165.596 218.941 166.729C218.941 167.861 219.308 169.137 220.389 169.561C217.733 169.491 215.884 166.769 214.383 165.593C211.136 163.049 206.521 163.75 206.521 159.205C206.521 156.295 208.194 153.659 210.556 150.767C215.472 144.748 216.75 134.465 213.829 124.057C210.367 111.72 201.241 106.173 192.048 106.172C178.942 106.17 165.694 117.435 168.482 136.356Z" fill="white"/>
</mask>
<g mask="url(#mask16_37007_18789)">
<path fill-rule="evenodd" clip-rule="evenodd" d="M207.376 143.588C207.764 143.464 206.863 145.135 207.989 146.124C208.314 146.577 207.642 147.48 206.999 146.755V146.754C206.534 145.812 206.56 144.694 207.048 143.737C207.075 143.735 207.124 143.519 207.376 143.588Z" fill="#EB6855"/>
</g>
<mask id="mask17_37007_18789" style="mask-type:luminance" maskUnits="userSpaceOnUse" x="168" y="106" width="60" height="73">
<path fill-rule="evenodd" clip-rule="evenodd" d="M168.482 136.356C169.089 140.476 173.098 151.136 184.335 158.406C190.501 162.396 187.086 170.095 182.133 170.095C178.459 170.095 177.539 167.505 177.919 165.06C178.449 168.216 183.856 167.809 183.798 163.341C183.757 160.218 181.226 158.305 178.104 158.305C175.065 158.305 170.744 161.831 170.744 167.536C170.744 173.24 175.545 178.497 182.597 178.497C189.649 178.497 193.875 172.44 201.196 172.44C208.517 172.44 210.49 176.265 217.817 176.265C225.143 176.265 227.459 171.042 227.459 167.859C227.459 164.676 225.635 162.961 222.818 162.961C220.001 162.961 218.941 165.596 218.941 166.729C218.941 167.861 219.308 169.137 220.389 169.561C217.733 169.491 215.884 166.769 214.383 165.593C211.136 163.049 206.521 163.75 206.521 159.205C206.521 156.295 208.194 153.659 210.556 150.767C215.472 144.748 216.75 134.465 213.829 124.057C210.367 111.72 201.241 106.173 192.048 106.172C178.942 106.17 165.694 117.435 168.482 136.356Z" fill="white"/>
</mask>
<g mask="url(#mask17_37007_18789)">
<path fill-rule="evenodd" clip-rule="evenodd" d="M204.658 125.277C204.257 127.646 211.202 120.691 214.223 125.766C214.082 117.857 204.99 123.315 204.658 125.277Z" fill="#CB151F"/>
</g>
<path fill-rule="evenodd" clip-rule="evenodd" d="M168.482 136.356C169.089 140.476 173.098 151.137 184.335 158.406C190.501 162.396 187.087 170.095 182.133 170.095C178.46 170.095 177.539 167.505 177.919 165.06C178.449 168.216 183.856 167.809 183.798 163.341C183.757 160.218 181.226 158.305 178.105 158.305C175.065 158.305 170.744 161.831 170.744 167.536C170.744 173.24 175.545 178.497 182.597 178.497C189.649 178.497 193.875 172.44 201.196 172.44C208.517 172.44 210.49 176.265 217.817 176.265C225.143 176.265 227.46 171.042 227.46 167.859C227.46 164.676 225.635 162.961 222.818 162.961C220.001 162.961 218.941 165.596 218.941 166.729C218.941 167.861 219.308 169.137 220.389 169.561C217.733 169.491 215.884 166.769 214.383 165.593C211.136 163.049 206.521 163.75 206.521 159.205C206.521 156.295 207.822 155.178 210.434 151.494C215.35 145.475 216.75 134.465 213.829 124.057C205.432 94.1327 163.739 104.161 168.482 136.356Z" stroke="#020203" stroke-width="0.486171" stroke-linecap="round" stroke-linejoin="round"/>
<path fill-rule="evenodd" clip-rule="evenodd" d="M191.176 146.09C187.128 157.497 200.278 154.164 205.63 147.547C203.346 148.099 195.954 149.764 193.344 145.514C192.644 145.821 191.747 145.966 191.176 146.09Z" fill="#020203"/>
<path fill-rule="evenodd" clip-rule="evenodd" d="M191.176 146.09C187.128 157.497 200.278 154.164 205.63 147.547C203.346 148.099 195.954 149.764 193.344 145.514C192.644 145.821 191.747 145.966 191.176 146.09Z" stroke="#020203" stroke-width="0.486171" stroke-linecap="round" stroke-linejoin="round"/>
<path d="M189.569 145.968C191.186 146.005 193.521 145.597 194.871 144.727" stroke="#020203" stroke-width="0.486171" stroke-linecap="round" stroke-linejoin="round"/>
<path d="M205.545 147.55C206.186 147.388 207.416 147.016 208.165 146.555C207.457 145.89 207.268 144.415 207.376 143.588" stroke="#020203" stroke-width="0.486171" stroke-linecap="round" stroke-linejoin="round"/>
<path fill-rule="evenodd" clip-rule="evenodd" d="M186.61 139.488H186.637H186.664H186.692L186.72 139.489H186.747L186.774 139.489L186.801 139.49L186.829 139.49L186.856 139.49L186.883 139.491L186.91 139.491L186.938 139.492L186.965 139.492L186.992 139.493L187.019 139.493L187.046 139.494L187.073 139.495L187.1 139.496L187.127 139.497L187.153 139.497L187.18 139.498L187.207 139.499L187.234 139.5L187.261 139.501L187.287 139.502L187.314 139.503L187.341 139.504L187.367 139.506L187.394 139.507L187.42 139.508L187.447 139.509L187.473 139.51L187.5 139.512L187.526 139.513L187.552 139.515L187.578 139.516L187.605 139.518L187.631 139.52L187.646 139.52L187.657 139.521L187.683 139.523L187.709 139.525L187.735 139.526L187.761 139.528L187.787 139.53L187.813 139.532L187.839 139.534L187.865 139.536L187.891 139.538L187.916 139.54L187.942 139.542L187.968 139.544L187.993 139.546L188.019 139.548L188.044 139.55L188.07 139.553L188.095 139.555L188.121 139.557L188.146 139.56L188.171 139.562L188.197 139.564L188.222 139.567L188.247 139.569L188.273 139.572L188.298 139.574L188.323 139.577L188.348 139.58L188.373 139.582L188.398 139.585L188.423 139.588L188.447 139.591L188.472 139.594L188.497 139.596L188.522 139.599L188.546 139.602L188.571 139.605L188.595 139.608L188.62 139.611L188.645 139.614L188.669 139.617L188.693 139.62L188.718 139.623L188.742 139.626L188.766 139.63L188.791 139.633L188.815 139.636L188.839 139.639L188.863 139.643L188.887 139.646L188.911 139.65L188.935 139.653L188.958 139.657L188.982 139.66L189.006 139.664L189.03 139.667L189.053 139.67L189.077 139.674L189.101 139.678L189.124 139.682L189.148 139.685L189.171 139.689L189.195 139.693L189.218 139.696L189.241 139.7L189.264 139.704L189.287 139.708L189.306 139.711L189.31 139.712L189.334 139.716L189.356 139.72L189.379 139.724L189.403 139.728L189.425 139.732L189.448 139.736L189.471 139.74L189.493 139.745L189.516 139.749L189.539 139.753L189.561 139.757L189.584 139.762L189.606 139.766L189.628 139.771L189.651 139.775L189.673 139.779L189.695 139.784L189.717 139.788L189.739 139.793L189.762 139.797L189.784 139.802L189.805 139.806L189.827 139.811L189.849 139.816L189.871 139.82L189.893 139.825L189.914 139.83L189.936 139.834L189.957 139.839L189.979 139.844L190 139.849L190.021 139.854L190.043 139.859L190.064 139.863L190.085 139.868L190.106 139.873L190.128 139.878L190.149 139.883L190.169 139.888L190.19 139.893L190.211 139.898L190.232 139.903L190.252 139.908L190.273 139.913L190.294 139.918L190.315 139.924L190.335 139.928L190.355 139.934L190.376 139.939L190.396 139.944L190.416 139.95L190.436 139.955L190.456 139.96L190.477 139.966L190.497 139.971L190.516 139.976L190.536 139.982L190.556 139.987L190.576 139.992L190.595 139.998L190.615 140.003L190.635 140.009L190.654 140.014L190.674 140.02L190.693 140.026L190.713 140.031L190.731 140.037L190.741 140.039L190.751 140.042L190.77 140.048L190.789 140.054L190.808 140.059L190.827 140.065L190.846 140.071L190.864 140.077L190.883 140.083L190.902 140.088L190.92 140.094L190.939 140.1L190.957 140.106L190.976 140.112L190.994 140.118L191.012 140.124L191.03 140.13L191.049 140.136L191.067 140.142L191.085 140.148L191.102 140.154L191.121 140.16L191.138 140.166L191.156 140.172L191.174 140.178L191.191 140.184L191.208 140.19L191.226 140.197L191.243 140.203L191.261 140.209L191.278 140.215L191.295 140.221L191.312 140.228L191.329 140.234L191.346 140.24L191.363 140.246L191.38 140.253L191.397 140.259L191.414 140.265L191.43 140.272L191.447 140.278L191.463 140.285L191.479 140.291L191.496 140.298L191.512 140.304L191.528 140.31L191.544 140.317L191.56 140.323L191.576 140.33L191.592 140.336L191.609 140.343L191.624 140.349L191.64 140.355L191.655 140.362L191.671 140.369L191.687 140.375L191.702 140.382L191.718 140.388L191.733 140.395L191.748 140.402L191.763 140.408L191.778 140.415L191.793 140.422L191.808 140.428L191.823 140.435L191.838 140.442L191.852 140.448L191.867 140.455L191.882 140.462L191.896 140.469L191.91 140.475L191.925 140.482L191.939 140.489L191.953 140.496L191.967 140.502L191.981 140.509L191.995 140.516L192.009 140.523L192.023 140.53L192.037 140.537L192.044 140.541L192.05 140.544L192.064 140.55L192.077 140.557L192.091 140.564L192.104 140.571L192.118 140.578L192.131 140.585L192.143 140.592L192.157 140.599L192.17 140.606L192.182 140.613L192.195 140.621L192.208 140.628L192.221 140.635L192.234 140.642L192.246 140.649L192.258 140.656L192.271 140.663L192.283 140.67L192.295 140.678L192.308 140.685L192.319 140.692L192.331 140.699L192.343 140.706L192.355 140.713L192.367 140.72L192.379 140.728L192.39 140.735L192.402 140.742L192.413 140.749L192.424 140.757L192.436 140.764L192.447 140.771L192.458 140.779L192.469 140.786L192.48 140.793L192.491 140.801L192.502 140.808L192.512 140.815L192.523 140.823L192.534 140.83L192.544 140.838L192.555 140.845L192.565 140.852L192.575 140.86L192.585 140.868L192.596 140.875L192.606 140.882L192.615 140.889L192.653 140.923L192.684 140.962L192.709 141.005L192.727 141.052L192.736 141.101L192.737 141.151L192.73 141.201L192.716 141.249L192.693 141.293L192.664 141.334L192.628 141.369L192.588 141.398L192.542 141.42L192.495 141.434L192.445 141.441L192.395 141.439L192.368 141.435L192.341 141.432L192.315 141.429L192.288 141.425L192.261 141.422L192.234 141.419L192.206 141.416L192.179 141.413L192.152 141.409L192.124 141.406L192.097 141.403L192.069 141.4L192.041 141.397L192.013 141.394L191.985 141.391L191.957 141.388L191.928 141.386L191.9 141.383L191.871 141.38L191.843 141.377L191.814 141.374L191.785 141.372L191.756 141.369L191.727 141.366L191.698 141.364L191.669 141.361L191.639 141.358L191.616 141.356L191.61 141.356L191.581 141.353L191.551 141.351L191.521 141.349L191.491 141.346L191.461 141.344L191.432 141.341L191.401 141.339L191.371 141.337L191.341 141.335L191.311 141.332L191.28 141.33L191.25 141.328L191.219 141.326L191.189 141.324L191.158 141.322L191.127 141.32L191.096 141.318L191.065 141.316L191.034 141.314L191.003 141.312L190.972 141.311L190.94 141.309L190.909 141.307L190.877 141.306L190.846 141.304L190.815 141.302L190.783 141.301L190.751 141.299L190.719 141.298L190.687 141.297L190.655 141.295L190.623 141.294L190.591 141.293L190.559 141.292L190.527 141.291L190.495 141.289L190.463 141.288L190.43 141.287L190.398 141.286L190.365 141.286L190.333 141.284L190.3 141.283L190.267 141.283L190.235 141.282L190.202 141.282H190.201L190.169 141.281L190.136 141.28L190.103 141.279L190.07 141.279L190.037 141.279L190.004 141.278L189.971 141.277H189.938L189.905 141.277L189.871 141.277H189.838L189.805 141.276H189.771H189.738H189.704H189.671H189.637L189.604 141.277H189.57L189.537 141.277L189.503 141.277H189.469L189.435 141.278L189.402 141.279L189.368 141.279L189.334 141.279L189.3 141.28L189.266 141.281L189.232 141.282L189.198 141.282L189.164 141.283L189.13 141.284L189.096 141.285L189.062 141.286L189.028 141.287L188.994 141.288L188.96 141.29L188.926 141.291L188.891 141.292L188.857 141.293L188.823 141.295L188.796 141.296L188.789 141.297L188.755 141.298L188.721 141.299L188.686 141.301L188.652 141.303L188.618 141.305L188.583 141.306L188.549 141.308L188.515 141.31L188.481 141.312L188.446 141.314L188.412 141.316L188.378 141.319L188.343 141.321L188.309 141.323L188.275 141.325L188.24 141.327L188.206 141.33L188.172 141.332L188.137 141.335L188.103 141.338L188.069 141.341L188.034 141.343L188 141.346L187.966 141.349L187.932 141.352L187.897 141.355L187.863 141.358L187.829 141.361L187.795 141.365L187.76 141.368L187.726 141.372L187.692 141.375L187.658 141.378L187.623 141.382L187.59 141.386L187.556 141.389L187.521 141.393L187.487 141.397L187.453 141.401L187.419 141.405L187.385 141.409L187.351 141.413L187.317 141.417L187.283 141.422L187.249 141.426L187.215 141.43L187.181 141.435L187.147 141.439L187.113 141.444L187.08 141.448L187.046 141.453L187.012 141.458L186.979 141.463L186.945 141.468L186.911 141.473L186.878 141.478L186.844 141.484L186.81 141.489L186.777 141.494L186.744 141.5L186.711 141.505L186.677 141.511L186.644 141.516L186.611 141.522L186.577 141.528L186.544 141.534L186.511 141.54L186.478 141.546L186.445 141.552L186.412 141.558L186.379 141.565L186.346 141.571L186.313 141.577L186.28 141.584L186.248 141.59L186.215 141.597L186.212 141.598L186.183 141.604L186.15 141.61L186.118 141.617L186.085 141.624L186.053 141.631L186.02 141.638L185.988 141.646L185.956 141.653L185.924 141.66L185.892 141.667L185.86 141.675L185.828 141.683L185.796 141.69L185.764 141.698L185.732 141.706L185.701 141.713L185.669 141.722L185.638 141.729L185.606 141.738L185.575 141.746L185.544 141.754L185.512 141.763L185.481 141.771L185.45 141.78L185.419 141.788L185.388 141.797L185.357 141.806L185.326 141.815L185.296 141.824L185.265 141.833L185.235 141.842L185.204 141.851L185.174 141.861L185.144 141.87L185.113 141.879L185.083 141.889L185.053 141.899L185.023 141.908L184.994 141.918L184.964 141.928L184.935 141.938L184.905 141.948L184.875 141.959L184.846 141.969L184.817 141.979L184.788 141.989L184.759 142L184.73 142.011L184.701 142.022L184.672 142.032L184.658 142.038L184.643 142.043L184.629 142.049L184.615 142.054L184.601 142.06L184.587 142.065L184.572 142.071L184.558 142.076L184.544 142.082L184.53 142.088L184.516 142.093L184.502 142.099L184.488 142.104L184.474 142.11L184.46 142.116L184.446 142.122L184.432 142.128L184.418 142.134L184.405 142.14L184.391 142.145L184.377 142.151L184.363 142.157L184.349 142.163L184.335 142.169L184.322 142.175L184.308 142.181L184.295 142.187L184.281 142.193L184.268 142.199L184.254 142.205H184.253L184.169 142.225L184.087 142.211L184.016 142.169L183.965 142.1V142.1L183.945 142.017L183.958 141.935L184.001 141.863L184.069 141.811L184.07 141.811L184.084 141.804L184.098 141.797L184.112 141.791L184.127 141.784L184.141 141.777V141.777L184.155 141.77L184.17 141.764L184.184 141.757L184.199 141.75L184.213 141.743L184.228 141.737L184.242 141.73L184.257 141.724L184.271 141.717L184.286 141.711L184.301 141.704L184.315 141.698L184.33 141.691L184.345 141.685L184.359 141.679L184.374 141.672L184.389 141.666L184.404 141.66L184.419 141.653L184.434 141.647L184.448 141.641L184.463 141.634L184.478 141.628L184.493 141.622L184.509 141.616L184.538 141.604L184.569 141.592L184.599 141.58L184.629 141.568L184.66 141.556L184.69 141.544L184.721 141.532L184.752 141.521L184.782 141.509L184.813 141.498L184.844 141.487L184.875 141.476L184.906 141.464L184.938 141.453L184.969 141.443L185 141.432L185.032 141.421L185.063 141.41L185.095 141.4L185.127 141.39L185.158 141.379L185.19 141.369L185.222 141.359L185.254 141.349L185.287 141.339L185.319 141.329L185.351 141.319L185.383 141.309L185.416 141.299L185.448 141.29L185.481 141.281L185.513 141.271L185.546 141.262L185.578 141.253L185.611 141.244L185.644 141.235L185.677 141.226L185.71 141.217L185.743 141.208L185.776 141.199L185.809 141.19L185.843 141.182L185.876 141.174L185.909 141.165L185.943 141.157L185.976 141.149L186.01 141.141L186.043 141.133L186.077 141.125L186.108 141.118L186.111 141.117L186.145 141.11L186.178 141.102L186.212 141.094L186.246 141.087L186.28 141.079L186.314 141.072L186.348 141.065L186.382 141.058L186.416 141.051L186.451 141.044L186.485 141.037L186.519 141.03L186.553 141.023L186.588 141.017L186.622 141.01L186.656 141.003L186.691 140.997L186.725 140.991L186.76 140.984L186.794 140.978L186.829 140.972L186.864 140.966L186.898 140.96L186.933 140.954L186.968 140.948L187.002 140.943L187.037 140.937L187.072 140.931L187.107 140.926L187.142 140.92L187.177 140.915L187.212 140.91L187.247 140.904L187.282 140.899L187.317 140.894L187.351 140.889L187.386 140.884L187.422 140.879L187.457 140.875L187.492 140.87L187.527 140.865L187.562 140.861L187.597 140.856L187.632 140.852L187.668 140.847L187.703 140.843L187.738 140.839L187.773 140.834L187.808 140.83L187.844 140.827L187.879 140.822L187.914 140.819L187.949 140.815L187.984 140.811L188.02 140.807L188.055 140.803L188.09 140.8L188.125 140.796L188.161 140.793L188.196 140.789L188.231 140.787L188.266 140.783L188.301 140.78L188.337 140.777L188.372 140.774L188.408 140.771L188.442 140.768L188.478 140.765L188.513 140.762L188.548 140.759L188.583 140.757L188.618 140.755L188.654 140.752L188.689 140.749L188.724 140.747L188.759 140.745L188.766 140.744L188.794 140.742L188.829 140.74L188.864 140.738L188.899 140.736L188.934 140.734L188.97 140.732L189.005 140.73L189.039 140.729L189.074 140.727L189.109 140.725L189.144 140.724L189.179 140.722L189.214 140.72L189.249 140.719L189.283 140.717L189.318 140.716L189.353 140.715L189.388 140.714L189.422 140.713L189.457 140.711L189.491 140.711L189.526 140.709L189.561 140.708L189.595 140.708L189.629 140.707L189.664 140.706L189.699 140.705L189.733 140.705L189.767 140.704L189.801 140.704L189.835 140.703L189.87 140.702L189.904 140.702H189.938L189.972 140.701L190.006 140.701H190.04H190.074L190.108 140.701H190.141H190.175H190.208H190.209L190.243 140.701H190.276L190.31 140.701L190.343 140.702L190.377 140.702L190.41 140.703L190.443 140.703L190.477 140.704L190.51 140.704L190.543 140.705L190.576 140.706L190.609 140.706L190.642 140.707L190.675 140.708L190.708 140.708L190.74 140.709L190.773 140.711L190.8 140.711L190.785 140.706L190.768 140.701L190.751 140.696L190.733 140.69L190.716 140.685L190.698 140.679L190.681 140.674L190.663 140.669L190.645 140.663L190.627 140.658L190.609 140.652L190.592 140.647L190.574 140.642L190.564 140.639L190.556 140.636L190.537 140.631L190.519 140.626L190.501 140.62L190.482 140.615L190.464 140.61L190.446 140.604L190.427 140.599L190.409 140.594L190.39 140.589L190.371 140.583L190.352 140.578L190.333 140.573L190.315 140.568L190.296 140.563L190.277 140.558L190.257 140.553L190.238 140.548L190.219 140.543L190.2 140.538L190.181 140.532L190.161 140.527L190.141 140.522L190.122 140.518L190.102 140.513L190.083 140.508L190.063 140.503L190.043 140.498L190.023 140.493L190.003 140.488L189.984 140.483L189.963 140.478L189.943 140.474L189.923 140.469L189.903 140.464L189.883 140.46L189.862 140.455L189.842 140.45L189.822 140.446L189.801 140.441L189.78 140.436L189.76 140.432L189.739 140.427L189.718 140.422L189.698 140.418L189.677 140.413L189.656 140.409L189.635 140.405L189.614 140.4L189.593 140.396L189.572 140.391L189.551 140.387L189.529 140.383L189.508 140.378L189.486 140.374L189.465 140.37L189.444 140.366L189.422 140.362L189.401 140.357L189.379 140.353L189.357 140.349L189.336 140.345L189.314 140.341L189.292 140.337L189.27 140.333L189.248 140.329L189.226 140.325L189.204 140.321L189.199 140.32L189.182 140.317L189.16 140.313L189.137 140.309L189.115 140.305L189.092 140.301L189.07 140.297L189.048 140.293L189.026 140.29L189.003 140.286L188.98 140.282L188.958 140.278L188.935 140.274L188.912 140.271L188.889 140.267L188.867 140.264L188.844 140.26L188.821 140.256L188.798 140.253L188.775 140.249L188.752 140.246L188.729 140.242L188.706 140.239L188.682 140.236L188.659 140.233L188.636 140.229L188.612 140.226L188.589 140.223L188.565 140.219L188.542 140.216L188.518 140.213L188.495 140.21L188.471 140.207L188.447 140.203L188.424 140.2L188.4 140.198L188.376 140.194L188.352 140.191L188.328 140.189L188.304 140.186L188.28 140.183L188.256 140.18L188.232 140.177L188.208 140.174L188.184 140.172L188.159 140.169L188.135 140.166L188.111 140.164L188.086 140.161L188.062 140.158L188.037 140.156L188.013 140.154L187.988 140.151L187.964 140.148L187.939 140.146L187.914 140.144L187.89 140.142L187.865 140.139L187.84 140.137L187.815 140.135L187.791 140.132L187.766 140.13L187.741 140.128L187.715 140.126L187.691 140.124L187.665 140.122L187.64 140.12L187.615 140.118L187.605 140.117L187.59 140.116L187.565 140.114L187.539 140.112L187.514 140.111L187.489 140.109L187.463 140.107L187.438 140.105L187.412 140.104L187.387 140.102L187.361 140.1L187.336 140.099L187.31 140.097L187.285 140.095L187.259 140.094L187.233 140.093L187.207 140.091L187.181 140.09L187.155 140.088L187.129 140.087L187.104 140.086L187.078 140.085L187.052 140.084L187.026 140.082L187 140.082L186.974 140.08L186.947 140.079L186.921 140.078L186.895 140.077L186.869 140.077L186.842 140.076L186.816 140.075L186.79 140.074L186.764 140.073L186.737 140.073L186.711 140.072L186.684 140.071L186.657 140.071L186.631 140.07L186.604 140.07L186.578 140.07L186.551 140.069L186.525 140.069L186.498 140.068L186.471 140.068H186.444L186.417 140.067H186.391H186.364H186.337H186.31H186.283H186.256H186.229L186.202 140.068H186.175L186.148 140.068H186.12L186.093 140.069L186.066 140.069L186.039 140.07L186.012 140.07L185.984 140.07L185.957 140.071L185.93 140.072L185.914 140.072L185.902 140.072L185.875 140.073L185.848 140.074L185.82 140.074L185.793 140.075L185.765 140.076L185.738 140.077L185.71 140.078L185.683 140.079L185.655 140.08L185.627 140.081L185.6 140.082L185.572 140.083L185.544 140.084L185.516 140.086L185.489 140.087L185.461 140.088L185.433 140.09L185.405 140.091L185.377 140.093L185.35 140.094L185.322 140.096L185.294 140.098L185.266 140.099L185.238 140.101L185.21 140.103L185.182 140.104L185.154 140.107L185.126 140.108L185.098 140.11L185.07 140.112L185.041 140.114L185.013 140.116L184.985 140.119L184.957 140.121L184.929 140.123L184.9 140.126L184.872 140.128L184.844 140.13L184.816 140.133L184.787 140.135L184.759 140.138L184.731 140.141L184.702 140.143L184.674 140.146L184.645 140.149L184.617 140.152L184.589 140.155L184.56 140.158L184.532 140.16L184.503 140.164L184.475 140.167L184.446 140.17L184.418 140.173L184.389 140.177L184.361 140.18L184.332 140.183L184.303 140.186L184.275 140.19L184.267 140.191L184.246 140.193L184.217 140.197L184.189 140.201L184.16 140.204L184.131 140.208L184.102 140.212L184.074 140.216L184.045 140.219L184.016 140.223L183.987 140.228L183.958 140.231L183.93 140.235L183.901 140.24L183.872 140.244L183.843 140.248L183.814 140.253L183.785 140.257L183.756 140.261L183.727 140.266L183.699 140.27L183.669 140.275L183.64 140.279L183.611 140.284L183.583 140.289L183.553 140.294L183.525 140.299L183.495 140.304L183.466 140.309L183.437 140.314L183.408 140.319L183.379 140.324L183.35 140.329L183.321 140.334L183.292 140.34L183.263 140.345L183.234 140.351L183.204 140.356L183.175 140.362L183.146 140.367L183.117 140.373L183.088 140.379L183.059 140.385L183.03 140.39L183 140.397L182.971 140.402L182.942 140.409L182.912 140.415L182.883 140.421L182.854 140.427L182.825 140.434L182.796 140.44L182.766 140.446L182.737 140.453L182.708 140.459L182.678 140.466L182.649 140.473L182.62 140.479L182.59 140.486L182.561 140.493L182.532 140.5L182.502 140.507L182.473 140.514L182.444 140.521L182.414 140.528L182.385 140.535L182.356 140.543L182.326 140.55L182.297 140.557L182.268 140.565L182.238 140.572L182.209 140.58L182.18 140.588L182.15 140.595L182.121 140.603L182.092 140.611L182.062 140.619L182.033 140.627L182.003 140.635L181.974 140.643L181.944 140.652L181.915 140.66L181.886 140.668L181.856 140.676L181.827 140.685L181.798 140.694L181.768 140.702L181.739 140.711L181.709 140.72L181.68 140.728L181.65 140.737L181.621 140.746L181.618 140.747L181.592 140.755L181.562 140.764L181.533 140.773L181.504 140.782L181.474 140.792L181.445 140.801L181.415 140.81L181.386 140.819L181.356 140.829L181.327 140.838L181.298 140.848L181.268 140.858L181.239 140.868L181.21 140.877L181.18 140.887L181.151 140.897L181.121 140.907L181.092 140.917L181.062 140.928L181.033 140.938L181.004 140.948L180.974 140.959L180.945 140.969L180.916 140.98L180.886 140.99L180.857 141.001L180.828 141.012L180.798 141.022L180.769 141.033L180.74 141.044L180.71 141.055L180.681 141.066L180.652 141.077L180.622 141.088L180.593 141.1L180.564 141.112H180.563L180.476 141.127L180.392 141.109L180.32 141.061L180.272 140.988V140.987L180.256 140.901L180.274 140.817L180.322 140.746L180.396 140.696H180.396L180.426 140.684L180.456 140.671L180.486 140.659L180.516 140.646L180.546 140.634L180.576 140.622L180.606 140.61L180.636 140.598L180.666 140.586L180.696 140.574L180.726 140.563L180.756 140.551L180.786 140.539L180.816 140.528L180.846 140.516L180.876 140.505L180.906 140.494L180.936 140.483L180.966 140.472L180.996 140.46L181.026 140.449L181.056 140.438L181.086 140.428L181.116 140.416L181.146 140.406L181.176 140.395L181.206 140.384L181.237 140.374L181.267 140.363L181.297 140.353L181.327 140.343L181.357 140.333L181.387 140.322L181.417 140.312L181.447 140.302L181.474 140.293L181.477 140.292L181.508 140.282L181.538 140.272L181.568 140.263L181.598 140.253L181.628 140.243L181.658 140.234L181.689 140.224L181.719 140.215L181.749 140.206L181.779 140.196L181.809 140.187L181.839 140.178L181.869 140.169L181.9 140.16L181.93 140.151L181.96 140.142L181.99 140.133L182.02 140.125L182.05 140.116L182.08 140.107L182.111 140.099L182.141 140.09L182.171 140.082L182.201 140.074L182.231 140.066L182.261 140.057L182.291 140.049L182.321 140.041L182.351 140.033L182.382 140.025L182.412 140.017L182.442 140.009L182.472 140.002L182.502 139.994L182.532 139.986L182.562 139.979L182.592 139.971L182.622 139.964L182.653 139.956L182.682 139.949L182.713 139.942L182.743 139.935L182.772 139.928L182.803 139.921L182.833 139.914L182.863 139.907L182.893 139.9L182.923 139.893L182.953 139.886L182.983 139.88L183.013 139.873L183.043 139.866L183.073 139.86L183.103 139.853L183.133 139.847L183.163 139.841L183.193 139.834L183.222 139.828L183.252 139.822L183.282 139.816L183.312 139.81L183.342 139.804L183.372 139.798L183.402 139.792L183.432 139.787L183.462 139.781L183.492 139.775L183.521 139.77L183.551 139.764L183.581 139.759L183.611 139.753L183.64 139.748L183.671 139.743L183.7 139.737L183.73 139.732L183.76 139.727L183.789 139.722L183.819 139.717L183.849 139.712L183.879 139.707L183.908 139.702L183.938 139.697L183.967 139.693L183.997 139.688L184.027 139.683L184.056 139.679L184.086 139.675L184.115 139.67L184.145 139.666L184.175 139.661L184.196 139.658L184.204 139.657L184.233 139.653L184.263 139.649L184.293 139.645L184.322 139.641L184.351 139.637L184.381 139.633L184.41 139.629L184.44 139.625L184.469 139.622L184.498 139.618L184.528 139.614L184.557 139.61L184.587 139.607L184.616 139.604L184.645 139.6L184.674 139.597L184.704 139.594L184.733 139.59L184.762 139.587L184.791 139.584L184.82 139.581L184.85 139.578L184.879 139.575L184.908 139.572L184.937 139.569L184.966 139.566L184.995 139.564L185.024 139.561L185.053 139.558L185.082 139.555L185.111 139.553L185.14 139.55L185.169 139.548L185.197 139.545L185.226 139.543L185.255 139.541L185.284 139.539L185.313 139.536L185.342 139.534L185.37 139.532L185.399 139.53L185.428 139.528L185.456 139.526L185.485 139.524L185.514 139.522L185.542 139.521L185.571 139.519L185.599 139.517L185.628 139.515L185.657 139.514L185.685 139.513L185.714 139.511L185.742 139.509L185.771 139.508L185.799 139.506L185.827 139.505L185.856 139.504L185.884 139.503L185.896 139.502L185.912 139.501L185.94 139.501L185.968 139.499L185.997 139.499L186.025 139.497L186.053 139.497L186.081 139.496L186.109 139.495L186.137 139.494L186.165 139.494L186.193 139.493L186.221 139.492L186.249 139.492L186.277 139.491L186.305 139.491L186.333 139.49L186.361 139.49L186.389 139.49L186.416 139.489L186.444 139.489H186.472L186.499 139.488H186.527H186.555H186.582H186.61Z" fill="#020203"/>
<path fill-rule="evenodd" clip-rule="evenodd" d="M186.289 138.164H186.32L186.351 138.164L186.381 138.165L186.412 138.165L186.443 138.166L186.474 138.167L186.504 138.167L186.535 138.168L186.566 138.169L186.596 138.17L186.627 138.172L186.657 138.173L186.688 138.174L186.719 138.176L186.749 138.177L186.78 138.179L186.81 138.18L186.841 138.182L186.872 138.184L186.902 138.186L186.932 138.188L186.963 138.191L186.993 138.193L187.024 138.195L187.054 138.198L187.085 138.201L187.115 138.203L187.145 138.206L187.176 138.209L187.206 138.212L187.236 138.215L187.267 138.218L187.297 138.222L187.327 138.225L187.358 138.229L187.388 138.232L187.418 138.236L187.448 138.239L187.478 138.243L187.508 138.248L187.538 138.252L187.568 138.256L187.598 138.26L187.629 138.264L187.658 138.269L187.688 138.273L187.718 138.278L187.748 138.283L187.778 138.288L187.808 138.292L187.838 138.298L187.868 138.303L187.897 138.308L187.927 138.313L187.957 138.319L187.987 138.324L188.016 138.33L188.046 138.336L188.076 138.341L188.105 138.347L188.135 138.353L188.164 138.359L188.194 138.366L188.223 138.372L188.253 138.378L188.282 138.384L188.312 138.392L188.341 138.398L188.37 138.405L188.4 138.412L188.429 138.419L188.458 138.426L188.487 138.433L188.516 138.44L188.546 138.447L188.574 138.455L188.604 138.462L188.633 138.47L188.662 138.478L188.69 138.486L188.72 138.494L188.748 138.501L188.777 138.51L188.806 138.518L188.835 138.526L188.863 138.535L188.892 138.543L188.921 138.552L188.95 138.56L188.978 138.569L189.007 138.578L189.035 138.587L189.064 138.596L189.092 138.605L189.12 138.615L189.149 138.624L189.177 138.633L189.205 138.643L189.234 138.652L189.262 138.662L189.29 138.672L189.318 138.682L189.347 138.692L189.374 138.702L189.402 138.712L189.43 138.723L189.458 138.733L189.486 138.743L189.514 138.754L189.542 138.765L189.569 138.775L189.597 138.786L189.625 138.797L189.653 138.808L189.68 138.82L189.708 138.831L189.735 138.842L189.763 138.854L189.79 138.865L189.817 138.877L189.845 138.889L189.872 138.9L189.899 138.912L189.926 138.924L189.953 138.936L189.98 138.949L190.007 138.961L190.034 138.973L190.061 138.986L190.088 138.998L190.115 139.011L190.142 139.024L190.168 139.037L190.195 139.05L190.222 139.063L190.248 139.076L190.275 139.089L190.301 139.102L190.328 139.116L190.354 139.129L190.38 139.143L190.406 139.157L190.433 139.17L190.459 139.184L190.485 139.198L190.511 139.212L190.537 139.227L190.563 139.241L190.589 139.255L190.614 139.27L190.64 139.284L190.666 139.299L190.692 139.314L190.717 139.329L190.743 139.343L190.768 139.358L190.793 139.374L190.819 139.389L190.844 139.404L190.869 139.42L190.895 139.435L190.92 139.45L190.945 139.466L190.97 139.482L190.995 139.498L191.02 139.514L191.044 139.53L191.069 139.546L191.094 139.562L191.118 139.579L191.143 139.595L191.167 139.612L191.192 139.628L191.216 139.645L191.241 139.662L191.265 139.679L191.289 139.696L191.313 139.713L191.337 139.73L191.361 139.747L191.385 139.764L191.409 139.782L191.433 139.8L191.456 139.817L191.48 139.835L191.504 139.853L191.527 139.87L191.551 139.889L191.574 139.907L191.597 139.925L191.621 139.943L191.644 139.962L191.667 139.98L191.69 139.999L191.713 140.017L191.736 140.036L191.759 140.055L191.782 140.074L191.804 140.093L191.827 140.112L191.849 140.131L191.872 140.151L191.895 140.17L191.917 140.19L191.939 140.209L191.961 140.229L191.983 140.248L192.006 140.268L192.027 140.288L192.049 140.309L192.071 140.329L192.093 140.349L192.115 140.369L192.136 140.39L192.158 140.41L192.179 140.431L192.201 140.451L192.222 140.472L192.243 140.493L192.264 140.514L192.285 140.535L192.306 140.556L192.327 140.578L192.348 140.599L192.369 140.62L192.389 140.642L192.41 140.663L192.43 140.685L192.451 140.707L192.471 140.729L192.492 140.751L192.512 140.773L192.532 140.795L192.552 140.817L192.572 140.84L192.592 140.862L192.611 140.884L192.631 140.907L192.631 140.907L192.69 141.015L192.704 141.134L192.671 141.25L192.595 141.347L192.594 141.347L192.486 141.406L192.367 141.42L192.251 141.388L192.154 141.311V141.311L192.136 141.289L192.119 141.268L192.101 141.247L192.083 141.226L192.066 141.206L192.048 141.185L192.03 141.164L192.012 141.144L191.994 141.123L191.976 141.103L191.957 141.082L191.939 141.062L191.921 141.042L191.902 141.021L191.884 141.001L191.865 140.982L191.846 140.961L191.828 140.942L191.809 140.922L191.79 140.902L191.77 140.883L191.752 140.863L191.732 140.844L191.713 140.824L191.694 140.805L191.674 140.786L191.655 140.767L191.635 140.748L191.616 140.729L191.596 140.71L191.576 140.691L191.556 140.672L191.537 140.654L191.516 140.635L191.496 140.617L191.476 140.598L191.456 140.58L191.436 140.562L191.415 140.543L191.395 140.525L191.375 140.507L191.354 140.49L191.333 140.471L191.312 140.454L191.292 140.436L191.271 140.419L191.25 140.401L191.229 140.384L191.208 140.366L191.187 140.349L191.166 140.332L191.144 140.315L191.123 140.297L191.102 140.281L191.08 140.264L191.059 140.247L191.037 140.23L191.015 140.213L190.993 140.197L190.972 140.181L190.95 140.164L190.928 140.148L190.906 140.132L190.884 140.116L190.862 140.1L190.839 140.084L190.817 140.068L190.795 140.051L190.772 140.036L190.75 140.02L190.727 140.005L190.705 139.989L190.682 139.974L190.659 139.958L190.637 139.943L190.614 139.928L190.591 139.913L190.568 139.898L190.545 139.883L190.522 139.868L190.498 139.853L190.475 139.839L190.452 139.824L190.429 139.81L190.405 139.795L190.382 139.781L190.358 139.766L190.335 139.752L190.311 139.738L190.287 139.724L190.263 139.71L190.24 139.696L190.216 139.683L190.192 139.669L190.168 139.655L190.144 139.642L190.12 139.629L190.096 139.615L190.072 139.602L190.047 139.589L190.023 139.575L189.998 139.563L189.974 139.55L189.949 139.537L189.925 139.524L189.9 139.511L189.876 139.499L189.851 139.486L189.826 139.474L189.801 139.462L189.776 139.449L189.752 139.437L189.726 139.425L189.701 139.413L189.676 139.401L189.651 139.389L189.626 139.378L189.601 139.366L189.576 139.354L189.55 139.343L189.525 139.331L189.5 139.32L189.474 139.309L189.448 139.298L189.423 139.287L189.397 139.276L189.371 139.265L189.346 139.254L189.32 139.243L189.294 139.232L189.268 139.222L189.242 139.211L189.216 139.201L189.19 139.191L189.164 139.181L189.138 139.171L189.112 139.16L189.086 139.151L189.059 139.141L189.033 139.131L189.007 139.121L188.98 139.111L188.954 139.102L188.927 139.093L188.901 139.084L188.874 139.074L188.848 139.065L188.821 139.056L188.794 139.047L188.768 139.038L188.741 139.029L188.714 139.021L188.687 139.012L188.66 139.003L188.633 138.995L188.606 138.986L188.579 138.978L188.552 138.97L188.525 138.962L188.498 138.954L188.471 138.946L188.443 138.938L188.416 138.93L188.389 138.923L188.361 138.915L188.334 138.907L188.307 138.9L188.279 138.893L188.252 138.886L188.224 138.878L188.196 138.871L188.169 138.864L188.141 138.857L188.114 138.851L188.086 138.844L188.058 138.837L188.03 138.831L188.003 138.824L187.975 138.818L187.947 138.812L187.919 138.805L187.891 138.8L187.863 138.793L187.835 138.788L187.807 138.782L187.779 138.776L187.751 138.77L187.723 138.765L187.694 138.759L187.666 138.754L187.638 138.749L187.61 138.744L187.581 138.739L187.553 138.733L187.525 138.729L187.496 138.724L187.468 138.719L187.439 138.714L187.411 138.71L187.383 138.705L187.354 138.701L187.326 138.697L187.297 138.693L187.268 138.689L187.24 138.685L187.211 138.681L187.182 138.677L187.154 138.673L187.125 138.67L187.096 138.666L187.067 138.663L187.039 138.659L187.009 138.656L186.981 138.653L186.952 138.65L186.923 138.647L186.894 138.644L186.865 138.641L186.836 138.638L186.807 138.635L186.778 138.633L186.749 138.631L186.72 138.628L186.691 138.626L186.661 138.624L186.632 138.622L186.603 138.62L186.574 138.618L186.545 138.616L186.516 138.615L186.486 138.613L186.457 138.611L186.428 138.61L186.399 138.608L186.37 138.607L186.34 138.606L186.311 138.605L186.281 138.604L186.252 138.603L186.222 138.602L186.193 138.602L186.164 138.601L186.134 138.601L186.105 138.6L186.075 138.6H186.046L186.016 138.599H185.987L185.957 138.6H185.928L185.898 138.6H185.869L185.839 138.601L185.809 138.601L185.78 138.602L185.75 138.603H185.75L185.666 138.588L185.597 138.545L185.549 138.479L185.529 138.399V138.398L185.543 138.316L185.586 138.247L185.652 138.198L185.733 138.178H185.734L185.764 138.176L185.795 138.174L185.826 138.173L185.857 138.172L185.888 138.171L185.919 138.169L185.95 138.169L185.981 138.167L186.011 138.167L186.042 138.166L186.073 138.165L186.104 138.165L186.135 138.164H186.166L186.196 138.164H186.227H186.258H186.289Z" fill="#020203"/>
<path fill-rule="evenodd" clip-rule="evenodd" d="M181.3 132.486C181.3 136.297 190.464 134.941 193.386 129.976C194.284 128.45 190.44 131.501 186.244 132.338C182.524 133.08 181.3 131.939 181.3 132.486Z" fill="#020203"/>
<path fill-rule="evenodd" clip-rule="evenodd" d="M181.3 132.486C181.3 136.297 190.464 134.941 193.386 129.976C194.284 128.45 190.44 131.501 186.244 132.338C182.524 133.08 181.3 131.939 181.3 132.486Z" stroke="#020203" stroke-width="0.486171" stroke-linecap="round" stroke-linejoin="round"/>
<path fill-rule="evenodd" clip-rule="evenodd" d="M206.984 118.297C211.142 116.592 219.001 115.087 219.001 119.594C219.001 122.38 215.412 124.41 214.082 125.268C213.023 122.249 210.794 118.297 206.984 118.297Z" fill="#CDCCCC"/>
<path fill-rule="evenodd" clip-rule="evenodd" d="M206.984 118.297C211.142 116.592 219.001 115.087 219.001 119.594C219.001 122.38 215.412 124.41 214.082 125.268C213.023 122.249 210.794 118.297 206.984 118.297Z" stroke="#020203" stroke-width="0.486171" stroke-linecap="round" stroke-linejoin="round"/>
<path fill-rule="evenodd" clip-rule="evenodd" d="M204.826 125.476C207.345 123.99 212.952 119.623 214.222 125.768C214.278 120.112 211.917 117.199 204.561 124.895C203.803 125.688 204.433 125.708 204.826 125.476Z" fill="#020203"/>
<path fill-rule="evenodd" clip-rule="evenodd" d="M204.826 125.476C207.345 123.99 212.952 119.623 214.222 125.768C214.278 120.112 211.917 117.199 204.561 124.895C203.803 125.688 204.433 125.708 204.826 125.476Z" stroke="#020203" stroke-width="0.486171" stroke-linecap="round" stroke-linejoin="round"/>
<path fill-rule="evenodd" clip-rule="evenodd" d="M208.664 126.814C209.408 126.538 211.499 126.618 212.734 127.033C213.161 127.176 213.665 127.336 214.007 127.645C214.083 127.713 213.912 128.277 213.87 128.36C213.578 128.941 214.339 130.717 214.146 130.403C213.709 129.692 213.42 129.277 213.08 128.945C211.166 127.078 208.664 126.814 208.664 126.814Z" fill="#020203"/>
<path fill-rule="evenodd" clip-rule="evenodd" d="M208.664 126.814C209.408 126.538 211.499 126.618 212.734 127.033C213.161 127.176 213.665 127.336 214.007 127.645C214.083 127.713 213.912 128.277 213.87 128.36C213.578 128.941 214.339 130.717 214.146 130.403C213.709 129.692 213.42 129.277 213.08 128.945C211.166 127.078 208.664 126.814 208.664 126.814Z" stroke="#020203" stroke-width="0.654306" stroke-linecap="round" stroke-linejoin="round"/>
<path fill-rule="evenodd" clip-rule="evenodd" d="M209.685 126.68C212.591 126.68 214.865 129.758 214.865 133.715C214.865 137.672 213.013 140.513 210.107 140.513C207.201 140.513 204.602 137.501 204.602 133.544C204.602 129.587 206.779 126.68 209.685 126.68Z" fill="#FEFEFE"/>
<path fill-rule="evenodd" clip-rule="evenodd" d="M209.685 126.68C212.591 126.68 214.865 129.758 214.865 133.715C214.865 137.672 213.013 140.513 210.107 140.513C207.201 140.513 204.602 137.501 204.602 133.544C204.602 129.587 206.779 126.68 209.685 126.68Z" stroke="#020203" stroke-width="0.486171" stroke-linecap="round" stroke-linejoin="round"/>
<path fill-rule="evenodd" clip-rule="evenodd" d="M193.517 146.297C194.534 149.362 198.308 151.447 203.06 150.009C204.746 148.751 205.545 147.549 205.545 147.549C205.545 147.549 198.165 150.067 193.517 146.297Z" fill="#FEFEFE"/>
<path fill-rule="evenodd" clip-rule="evenodd" d="M193.517 146.297C194.534 149.362 198.308 151.447 203.06 150.009C204.746 148.751 205.545 147.549 205.545 147.549C205.545 147.549 198.165 150.067 193.517 146.297Z" stroke="#020203" stroke-width="0.486171" stroke-linecap="round" stroke-linejoin="round"/>
<path fill-rule="evenodd" clip-rule="evenodd" d="M191.052 147.164C194.104 147.4 196.351 149.595 195.769 153.196C194.259 153.625 189.263 154.211 191.052 147.164Z" fill="#EF8BAD"/>
<path fill-rule="evenodd" clip-rule="evenodd" d="M208.271 129.129C210.602 129.096 212.541 131.143 212.541 135.069C212.541 138.447 210.322 140.033 209.179 140.033C204.408 140.033 202.792 129.207 208.271 129.129Z" fill="#020203"/>
<path fill-rule="evenodd" clip-rule="evenodd" d="M208.271 129.129C210.602 129.096 212.541 131.143 212.541 135.069C212.541 138.447 210.322 140.033 209.179 140.033C204.408 140.033 202.792 129.207 208.271 129.129Z" stroke="#020203" stroke-width="0.486171" stroke-linecap="round" stroke-linejoin="round"/>
<path d="M206.324 137.229C207.678 140.628 212.198 139.116 211.482 134.029" stroke="#A04F1C" stroke-width="1.29578" stroke-linecap="round" stroke-linejoin="round"/>
<path fill-rule="evenodd" clip-rule="evenodd" d="M168.434 136.355C174.094 118.573 202.725 116.853 210.804 117.035C209.548 112.89 204.662 101.003 189.051 103.289C173.44 105.575 164.646 119.112 168.434 136.355Z" fill="#FEFEFE"/>
<mask id="mask18_37007_18789" style="mask-type:luminance" maskUnits="userSpaceOnUse" x="167" y="103" width="44" height="34">
<path fill-rule="evenodd" clip-rule="evenodd" d="M189.051 103.289C173.44 105.575 164.646 119.112 168.434 136.355C174.094 118.573 202.725 116.853 210.804 117.035C209.656 113.249 205.479 103 192.862 103C191.669 103 190.4 103.092 189.051 103.289Z" fill="white"/>
</mask>
<g mask="url(#mask18_37007_18789)">
<path fill-rule="evenodd" clip-rule="evenodd" d="M182.064 122.58C179.575 120.304 176.703 111.391 181.214 106.021C185.726 100.651 178.319 97.3381 171.308 107.795C164.297 118.252 165.297 133.499 167.541 138.316C169.786 143.132 184.552 124.857 182.064 122.58Z" fill="#CFCCCB"/>
</g>
<path fill-rule="evenodd" clip-rule="evenodd" d="M168.434 136.355C174.094 118.573 202.725 116.853 210.804 117.035C209.548 112.89 204.662 101.003 189.051 103.289C173.44 105.575 164.646 119.112 168.434 136.355Z" stroke="#020203" stroke-width="0.486171" stroke-linecap="round" stroke-linejoin="round"/>
<path d="M175.948 126.254C174.654 121.979 172.247 112.131 177.007 108.109" stroke="#020203" stroke-width="0.486171" stroke-linecap="round" stroke-linejoin="round"/>
<path fill-rule="evenodd" clip-rule="evenodd" d="M174.18 127.956C177.524 128.846 186.857 126.977 192.655 124.187C198.454 121.398 205.941 118.285 210.683 117.133C205.189 116.434 184.351 117.781 174.18 127.956Z" fill="#FEFEFE"/>
<mask id="mask19_37007_18789" style="mask-type:luminance" maskUnits="userSpaceOnUse" x="174" y="116" width="37" height="13">
<path fill-rule="evenodd" clip-rule="evenodd" d="M174.18 127.956C177.524 128.846 186.857 126.977 192.655 124.187C198.454 121.398 205.94 118.285 210.683 117.134C209.92 117.036 208.86 116.979 207.574 116.979C199.605 116.978 182.938 119.195 174.18 127.956Z" fill="white"/>
</mask>
<g mask="url(#mask19_37007_18789)">
<path fill-rule="evenodd" clip-rule="evenodd" d="M181.539 122.775C188.005 122.509 194.189 121.407 200.431 119.714C202.501 119.153 204.551 118.523 206.618 117.952C207.368 117.744 208.119 117.539 208.878 117.366C209.162 117.302 209.923 116.988 209.737 117.213C205.56 122.264 181.287 133.492 174.376 129.711C171.078 127.906 178.535 122.819 181.226 122.484" fill="#CFCCCB"/>
</g>
<path fill-rule="evenodd" clip-rule="evenodd" d="M173.853 127.859C177.196 128.748 186.856 126.976 192.655 124.187C198.453 121.397 205.94 118.285 210.683 117.133C205.189 116.433 184.023 117.684 173.853 127.859Z" stroke="#020203" stroke-width="0.486171" stroke-linecap="round" stroke-linejoin="round"/>
<path fill-rule="evenodd" clip-rule="evenodd" d="M209.595 130.408C210.388 130.408 211.031 131.057 211.031 131.857C211.031 132.657 210.388 133.306 209.595 133.306C208.801 133.306 208.158 132.657 208.158 131.857C208.158 131.057 208.801 130.408 209.595 130.408Z" fill="#FEFEFE"/>
<path fill-rule="evenodd" clip-rule="evenodd" d="M207.004 136.541C207.49 136.541 207.885 136.938 207.885 137.427C207.885 137.917 207.49 138.314 207.004 138.314C206.517 138.314 206.123 137.917 206.123 137.427C206.123 136.938 206.517 136.541 207.004 136.541Z" fill="#FEFEFE"/>
<path d="M220.348 169.54C221.184 169.836 221.972 169.942 222.807 169.512C223.885 168.956 224.33 167.396 223.365 166.473C222.317 165.469 220.564 166.112 221.055 167.886" stroke="#020203" stroke-width="0.486171" stroke-linecap="round" stroke-linejoin="round"/>
<path d="M177.966 165.312C177.926 164.832 177.914 164.32 178.041 163.851C178.142 163.48 178.297 163.117 178.548 162.823C178.755 162.582 179.037 162.419 179.338 162.326C181.585 161.637 182.153 164.898 180.257 164.851" stroke="#020203" stroke-width="0.486171" stroke-linecap="round" stroke-linejoin="round"/>
<path fill-rule="evenodd" clip-rule="evenodd" d="M184.103 157.976C184.56 158.314 185.036 158.634 185.518 158.942C186.002 159.249 186.493 159.544 186.992 159.826C187.491 160.108 187.997 160.377 188.512 160.627C189.027 160.875 189.552 161.105 190.088 161.294L190.088 161.295C190.165 161.322 190.205 161.406 190.178 161.483C190.151 161.558 190.069 161.598 189.993 161.574C189.438 161.392 188.899 161.171 188.369 160.932C187.84 160.692 187.321 160.432 186.81 160.159C186.298 159.886 185.793 159.6 185.296 159.3C184.799 159 184.31 158.688 183.831 158.352C183.726 158.278 183.7 158.134 183.774 158.029C183.848 157.923 183.993 157.898 184.098 157.972C184.099 157.973 184.1 157.974 184.101 157.974L184.103 157.976Z" fill="#020203"/>
<path fill-rule="evenodd" clip-rule="evenodd" d="M209.92 152.654C209.358 153.393 208.746 154.082 208.112 154.749C207.477 155.415 206.819 156.056 206.136 156.672C205.454 157.287 204.751 157.879 204.017 158.435C203.282 158.987 202.52 159.512 201.685 159.926C201.615 159.961 201.53 159.932 201.495 159.862C201.461 159.792 201.488 159.708 201.557 159.673L201.56 159.671C202.358 159.26 203.101 158.731 203.817 158.174C204.532 157.614 205.218 157.016 205.883 156.396C206.549 155.776 207.191 155.13 207.806 154.463C208.421 153.794 209.014 153.104 209.546 152.378L209.548 152.376C209.624 152.273 209.769 152.25 209.872 152.326C209.976 152.402 209.998 152.548 209.922 152.651C209.922 152.652 209.92 152.653 209.92 152.654Z" fill="#020203"/>
<path d="M171.511 154.491C170.485 154.619 169.514 154.106 168.84 153.322C168.165 152.539 168.008 151.527 168.287 150.531C168.544 149.616 169.298 148.803 170.239 148.681C171.007 148.58 171.85 148.756 172.274 149.405C172.697 150.053 172.611 150.989 172.076 151.548" stroke="#020203" stroke-width="0.486171" stroke-linecap="round" stroke-linejoin="round"/>
<path fill-rule="evenodd" clip-rule="evenodd" d="M186.131 118.364C183.799 119.114 181.365 120.047 179.02 121.033C178.286 118.689 177.551 116.344 176.817 114C179.162 113.014 181.577 112.173 184.048 111.479C184.782 113.823 185.396 116.019 186.131 118.364Z" fill="#7C1710"/>
<path fill-rule="evenodd" clip-rule="evenodd" d="M191.023 114.819C190.793 115.121 190.476 115.318 190.105 115.391C189.21 115.569 188.316 114.962 188.045 114.002C187.775 113.043 188.266 112.132 189.187 111.941C189.567 111.863 189.962 111.92 190.324 112.108C190.33 112.111 190.336 112.114 190.343 112.117C190.514 111.826 190.686 111.536 190.86 111.246C190.852 111.242 190.845 111.238 190.838 111.234C190.235 110.89 189.542 110.775 188.898 110.91C187.394 111.23 186.565 112.735 187.004 114.234C187.443 115.736 188.931 116.712 190.367 116.429C190.985 116.307 191.528 115.954 191.898 115.431C191.902 115.425 191.907 115.419 191.911 115.413C191.62 115.209 191.328 115.006 191.035 114.804C191.031 114.809 191.027 114.814 191.023 114.819ZM192.979 115.785C193.312 115.728 193.645 115.672 193.978 115.619C193.587 113.869 193.17 112.113 192.728 110.358C192.382 110.413 192.037 110.472 191.692 110.532C192.147 112.282 192.576 114.035 192.979 115.785ZM197.569 113.182C197.538 113.116 195.035 110.009 195.016 110.013C194.676 110.056 194.336 110.103 193.997 110.151C194.424 111.912 194.826 113.67 195.203 115.419C195.538 115.37 195.874 115.323 196.209 115.278C195.991 114.234 195.764 113.187 195.528 112.137C195.652 112.264 197.975 115.106 197.959 115.104C197.955 115.099 199.033 111.905 199.086 111.768C199.298 112.812 199.5 113.851 199.694 114.884C200.034 114.853 200.373 114.824 200.713 114.798C200.399 113.077 200.061 111.337 199.7 109.58C199.356 109.599 199.013 109.621 198.67 109.645C198.667 109.64 197.588 113.103 197.569 113.182ZM203.784 113.711C203.447 113.72 203.11 113.731 202.774 113.745C202.704 113.344 202.633 112.941 202.56 112.537C202.899 112.526 203.238 112.518 203.577 112.512C204.053 112.505 204.275 112.812 204.324 113.099C204.373 113.388 204.256 113.699 203.784 113.711ZM202.175 110.455C202.497 110.449 202.818 110.445 203.14 110.443C203.545 110.442 203.826 110.657 203.889 111.011C203.952 111.363 203.748 111.573 203.346 111.578C203.027 111.582 202.707 111.588 202.388 111.596C202.319 111.217 202.248 110.837 202.175 110.455ZM204.504 112.015C204.712 111.89 205.032 111.548 204.934 110.979C204.781 110.093 204.052 109.509 203.045 109.504C202.342 109.502 201.639 109.514 200.938 109.537C201.286 111.287 201.61 113.017 201.91 114.726C202.618 114.682 203.327 114.649 204.037 114.626C205 114.593 205.517 114.04 205.371 113.143C205.26 112.468 204.798 112.149 204.504 112.015Z" fill="#7C1710"/>
<path fill-rule="evenodd" clip-rule="evenodd" d="M178.053 114.834C179.308 114.329 180.582 113.867 181.873 113.445C182.754 113.987 183.64 114.54 184.53 115.103C184.133 116.116 183.742 117.14 183.354 118.174C182.063 118.595 180.789 119.058 179.534 119.562C179.838 118.513 180.146 117.472 180.457 116.44C179.652 115.896 178.851 115.361 178.053 114.834Z" fill="#E20714"/>
<path fill-rule="evenodd" clip-rule="evenodd" d="M184.529 115.103C183.64 114.54 182.754 113.987 181.873 113.445C180.582 113.867 179.308 114.329 178.053 114.834C178.851 115.361 179.652 115.896 180.457 116.44" fill="#FEFEFE"/>
<path d="M226.908 88.71V82.3217C226.908 81.0394 225.868 80 224.586 80H199.822C198.539 80 197.5 81.0394 197.5 82.3217V88.71C197.5 89.9922 198.539 91.0316 199.822 91.0316H201.328C201.842 91.0316 202.213 91.5238 202.072 92.0181L201.212 95.0288L205.722 91.5207C206.13 91.2037 206.631 91.0316 207.147 91.0316H224.586C225.868 91.0316 226.908 89.9922 226.908 88.71Z" stroke="#FF6666" stroke-width="0.386944"/>
<circle cx="1.1465" cy="1.1465" r="1.1465" transform="matrix(-1 0 0 1 220.214 84.5234)" fill="#FF6666"/>
<circle cx="1.1465" cy="1.1465" r="1.1465" transform="matrix(-1 0 0 1 213.397 84.5234)" fill="#FF6666"/>
<circle cx="1.1465" cy="1.1465" r="1.1465" transform="matrix(-1 0 0 1 206.58 84.5234)" fill="#FF6666"/>
<path fill-rule="evenodd" clip-rule="evenodd" d="M80.0743 117.086C83.2976 122.698 87.3522 124.864 87.3522 124.864H104.217C104.217 124.864 77.6158 112.804 80.0743 117.086Z" fill="#333739"/>
<path fill-rule="evenodd" clip-rule="evenodd" d="M93.0275 160.508C93.467 161.012 93.5225 161.575 93.305 162.175C93.305 162.179 93.3039 162.182 93.3017 162.184C92.8988 163.297 91.5702 164.538 90.0262 165.779C89.8298 165.937 89.6533 166.083 89.5012 166.217C89.4613 166.252 89.4202 166.287 89.3825 166.323C89.3514 166.349 89.3214 166.378 89.2915 166.405C87.8519 167.732 88.3946 168.036 85.8085 170.73C82.8594 173.799 80.8293 173.855 80.251 173.575C79.7627 173.337 80.7549 171.708 81.856 169.879C81.9082 169.791 81.9614 169.702 82.0158 169.613C82.1623 169.369 82.3077 169.122 82.4531 168.878C83.7418 166.676 83.411 165.642 83.1058 162.365C82.8572 159.701 78.9646 147.486 78.9646 147.486L84.6153 146.512C84.6153 146.512 86.3179 156.239 88.1926 157.737C89.1949 158.537 90.317 158.545 91.2805 159.138C91.3493 159.178 91.4159 159.221 91.4814 159.264C92.0297 159.628 92.5869 160.002 93.0275 160.508Z" fill="#FFDDC5"/>
<path fill-rule="evenodd" clip-rule="evenodd" d="M93.0275 160.508C93.467 161.012 93.5225 161.575 93.305 162.176C93.305 162.179 93.3039 162.182 93.3017 162.185C92.8089 163.295 91.5136 164.531 90.0207 165.767C89.8265 165.929 89.6533 166.078 89.5012 166.218C89.4613 166.252 89.4202 166.288 89.3825 166.323C89.3514 166.35 89.3214 166.379 89.2915 166.405C87.8519 167.732 88.3946 168.036 85.8085 170.73C82.8594 173.8 80.8293 173.855 80.251 173.575C79.7627 173.338 80.7549 171.709 81.856 169.88C82.4298 169.669 85.0959 168.585 87.1115 166.004C88.8874 163.738 90.0717 160.825 91.2805 159.139C91.3493 159.179 91.4159 159.221 91.4814 159.264C92.0297 159.628 92.5869 160.003 93.0275 160.508Z" fill="#333739"/>
<mask id="mask20_37007_18789" style="mask-type:luminance" maskUnits="userSpaceOnUse" x="30" y="144" width="22" height="15">
<path fill-rule="evenodd" clip-rule="evenodd" d="M51.9802 144.795H30.5001V158.285H51.9802V144.795Z" fill="white"/>
</mask>
<g mask="url(#mask20_37007_18789)">
<path fill-rule="evenodd" clip-rule="evenodd" d="M47.4606 156.98C47.112 158.724 44.6247 158.433 41.8476 157.755C39.0694 157.075 39.7298 157.882 35.7762 157.445C31.8226 157.006 30.625 155.532 30.504 154.944C30.3953 154.422 32.3499 154.238 34.4443 153.996C34.7085 153.967 34.9738 153.934 35.2379 153.902C37.6043 153.605 39.3358 152.077 41.4847 150.823C43.5203 149.635 46.5582 144.795 46.5582 144.795L51.9802 145.225C51.9802 145.225 49.1355 149.548 48.0344 151.427C47.3873 152.533 47.4217 153.995 47.5027 155.124C47.5449 155.737 47.5838 156.364 47.4606 156.98Z" fill="#FFDDC5"/>
</g>
<mask id="mask21_37007_18789" style="mask-type:luminance" maskUnits="userSpaceOnUse" x="30" y="153" width="18" height="6">
<path fill-rule="evenodd" clip-rule="evenodd" d="M47.5435 153.994H30.5002V158.283H47.5435V153.994Z" fill="white"/>
</mask>
<g mask="url(#mask21_37007_18789)">
<path fill-rule="evenodd" clip-rule="evenodd" d="M41.8474 157.752C39.0692 157.072 39.7296 157.88 35.776 157.442C31.8224 157.004 30.6248 155.53 30.5038 154.941C30.3962 154.419 32.3497 154.235 34.4452 153.994L34.4641 154.034C34.4641 154.034 36.8349 155.716 40.127 155.795C42.8086 155.86 45.65 155.091 47.5025 155.121C47.5447 155.735 47.5835 156.363 47.4603 156.977C47.1118 158.722 44.6245 158.43 41.8474 157.752Z" fill="#333739"/>
</g>
<path fill-rule="evenodd" clip-rule="evenodd" d="M68.2391 122.291L73.3071 135.936L79.9246 153.753C79.9246 153.753 81.7204 153.926 83.4408 153.431C85.0236 152.974 86.8406 151.775 86.8406 151.775C86.8406 151.775 85.0036 132.646 81.575 121.665C80.6971 118.846 79.7126 116.566 78.6259 115.282C73.3126 109 68.2391 122.291 68.2391 122.291Z" fill="#333739"/>
<path fill-rule="evenodd" clip-rule="evenodd" d="M73.3926 100.621C76.7135 99.5499 86.1835 100.926 95.6979 102.789L97.6902 99.5022L118.24 97.8965C118.24 97.8965 125.02 112.941 121.307 122.527C120.762 123.936 119.412 124.53 117.564 124.56C117.563 124.56 117.561 124.561 117.561 124.562C117.561 124.562 105.299 124.862 101.327 124.862C91.1083 124.862 79.6992 117.833 78.2241 117.538C75.8078 117.055 74.8421 121.888 72.4258 126.964C70.0106 132.039 49.7187 149.439 49.7187 149.439C49.7187 149.439 46.5998 149.47 45.3122 148.987C43.927 148.466 43.4198 147.791 43.4198 147.791C43.4198 147.791 65.9038 103.038 73.3926 100.621Z" fill="#333739"/>
<path fill-rule="evenodd" clip-rule="evenodd" d="M103.944 67.7598C103.912 67.7809 107.545 69.0213 109.974 67.9453C112.259 66.9348 113.989 63.1738 113.956 63.1715C112.916 63.1238 111.775 62.2144 110.896 56.248L110.453 56.4068L103.011 59.0863C103.011 59.0863 103.55 61.4759 103.899 63.7501C104.193 65.66 104.351 67.49 103.944 67.7598Z" fill="#FFDDC5"/>
<path opacity="0.1" fill-rule="evenodd" clip-rule="evenodd" d="M103.011 59.0857C103.011 59.0857 103.55 61.4753 103.899 63.7495C108.173 62.98 109.852 58.7193 110.453 56.4062L103.011 59.0857Z" fill="#333739"/>
<path fill-rule="evenodd" clip-rule="evenodd" d="M101.903 61.4578C101.903 61.4578 112.086 60.0909 111.137 53.7592C110.188 47.4287 110.863 42.9881 104.323 43.5944C97.7806 44.1996 96.8827 46.8035 96.6851 48.9944C96.4887 51.1841 99.2302 61.6499 101.903 61.4578Z" fill="#FFDDC5"/>
<path fill-rule="evenodd" clip-rule="evenodd" d="M95.3698 82.7663C95.6772 103.387 95.4541 99.0785 97.7084 101.035C98.2523 101.506 99.7796 101.787 101.79 101.92C108.111 102.339 119.22 101.297 119.643 100.129C121.1 96.0859 120.071 94.83 121.288 88.6394C121.414 87.9809 121.571 87.2691 121.755 86.4918C122.77 82.2411 123.756 80.7942 120.159 73.964C116.897 67.7767 113.506 62.7554 113.202 62.9364C104.593 68.0488 103.9 63.7514 103.9 63.7514C103.9 63.7514 95.2188 72.7081 95.3698 82.7663Z" fill="#FF6666"/>
<path fill-rule="evenodd" clip-rule="evenodd" d="M73.3077 135.938L79.9252 153.754C79.9252 153.754 81.7211 153.928 83.4403 153.433C85.0242 152.976 86.8401 151.777 86.8401 151.777C86.8401 151.777 85.0031 132.648 81.5757 121.666L73.3077 135.938Z" fill="#333739"/>
<path fill-rule="evenodd" clip-rule="evenodd" d="M103.899 63.75C103.899 63.75 95.0421 65.2524 94.0021 69.0678C92.9621 72.8832 86.8408 95.3127 86.8408 95.3127C86.8408 95.3127 91.3438 96.1222 93.4238 94.0413C95.5038 91.9592 100.662 74.7332 100.662 74.7332L103.899 63.75Z" fill="#FF6666"/>
<path fill-rule="evenodd" clip-rule="evenodd" d="M101.79 101.918C108.11 102.338 119.221 101.297 119.642 100.128C121.101 96.0842 120.072 94.8283 121.288 88.6388L118.239 80.0508C118.239 80.0508 118.743 89.6138 115.924 92.1289C113.108 94.644 104.383 96.9848 103.012 99.0857C102.351 100.094 101.917 101.107 101.79 101.918Z" fill="#FF6666"/>
<path fill-rule="evenodd" clip-rule="evenodd" d="M109.031 97.8972C109.031 97.8972 102.796 96.5081 101.79 97.0622C100.784 97.6152 98.325 99.6317 98.0176 100.333C97.709 101.035 100.257 99.8005 101.085 99.5784C101.623 99.434 103.036 99.926 103.735 100.159C106.677 101.14 108.481 100.636 108.481 100.636L109.031 97.8972Z" fill="#FFDDC5"/>
<path fill-rule="evenodd" clip-rule="evenodd" d="M113.208 62.9297C113.208 62.9297 121.58 63.446 124.478 67.4902C128.558 73.1833 136.652 97.445 132.013 100.682C126.79 104.325 108.238 101.635 108.238 101.635C108.238 101.635 107.621 98.7475 108.48 97.3517C109.34 95.9548 123.297 93.6984 123.941 93.0544C124.586 92.4104 115.889 80.4877 115.889 78.5534C115.889 76.6201 113.208 62.9297 113.208 62.9297Z" fill="#FF6666"/>
<path fill-rule="evenodd" clip-rule="evenodd" d="M101.488 98.7969C101.488 98.7969 100.182 100.483 99.7534 100.683C99.325 100.886 99.0486 100.835 99.0486 100.835L99.9288 99.2499L101.488 98.7969Z" fill="#FFDDC5"/>
<path fill-rule="evenodd" clip-rule="evenodd" d="M101.79 97.0605L97.9918 98.9061C97.9918 98.9061 98.1528 99.1704 98.6212 99.1493C99.0885 99.1282 100.268 98.6962 100.268 98.6962L101.79 97.0605Z" fill="#FFDDC5"/>
<path fill-rule="evenodd" clip-rule="evenodd" d="M99.7534 103.268H69.7063L60.667 80.7812H90.6675L99.7534 103.268Z" fill="white"/>
<path opacity="0.5" fill-rule="evenodd" clip-rule="evenodd" d="M99.7534 103.268H69.7063L60.667 80.7812H90.6675L99.7534 103.268Z" fill="#333739"/>
<path fill-rule="evenodd" clip-rule="evenodd" d="M69.3534 102.393H109.031V103.269H69.7053L69.3534 102.393Z" fill="#333739"/>
<path fill-rule="evenodd" clip-rule="evenodd" d="M77.2905 92.0251C77.0641 91.2345 77.5214 90.5938 78.3105 90.5938C79.1008 90.5938 79.9255 91.2345 80.1519 92.0251C80.3784 92.8157 79.9222 93.4564 79.1319 93.4564C78.3416 93.4564 77.5169 92.8157 77.2905 92.0251Z" fill="white"/>
<path fill-rule="evenodd" clip-rule="evenodd" d="M110.652 39.8444C111.274 37.6968 117.388 34.1757 123.448 37.1338C129.581 40.1309 126.478 45.653 125.6 46.95C124.721 48.2481 121.686 50.1003 117.113 47.2376C112.54 44.376 109.946 42.2918 110.652 39.8444Z" fill="#333739"/>
<path fill-rule="evenodd" clip-rule="evenodd" d="M106.658 44.4808L106.779 44.583C107.526 45.2193 108.685 45.1337 109.357 44.4064L111.252 42.3699C111.934 41.6415 111.878 40.5388 111.131 39.9036L111.009 39.8004C110.263 39.1652 109.105 39.2496 108.433 39.9769L106.537 42.0146C105.854 42.753 105.911 43.8545 106.658 44.4808Z" fill="#FF6666"/>
<path fill-rule="evenodd" clip-rule="evenodd" d="M97.1122 53.7884C96.7692 51.3876 96.7559 48.5349 97.8803 47.0237C99.705 49.7497 104.568 51.703 107.638 51.914C107.772 51.9184 107.901 51.924 108.015 51.9184L108.373 51.924C108.507 51.8584 108.412 51.8051 108.54 51.7629C108.735 51.6941 108.931 51.6375 109.106 51.6053H109.113C109.153 51.6042 109.201 51.5897 109.234 51.5875C109.247 51.5864 109.247 51.5864 109.254 51.5864C109.288 51.5853 109.328 51.5831 109.363 51.5808C109.375 51.5808 109.375 51.5808 109.383 51.5797C109.423 51.5775 109.456 51.5764 109.49 51.5742H109.504C109.651 51.5664 109.793 51.5831 109.928 51.6119C109.941 51.623 109.941 51.623 109.948 51.6219C109.974 51.633 109.995 51.6319 110.022 51.6419C110.035 51.6408 110.049 51.653 110.055 51.6519C110.069 51.6519 110.096 51.6619 110.116 51.6719C110.13 51.6719 110.143 51.683 110.15 51.683C110.177 51.693 110.191 51.7041 110.211 51.7152C110.224 51.7263 110.237 51.7252 110.251 51.7363C110.265 51.7474 110.285 51.7574 110.298 51.7696C110.312 51.7796 110.325 51.7796 110.332 51.7907C110.762 52.0861 110.938 52.6535 110.79 53.423C110.474 55.0132 109.84 55.7716 108.311 55.4373C108.311 55.4373 108.103 55.3418 108.002 55.605L108.083 57.2218C109.484 57.1518 110.898 56.2124 111.873 53.4863C113.78 48.1907 111.699 44.5263 106.75 42.6841C106.197 42.4643 105.611 42.2699 104.985 42.1367C104.796 42.0878 104.614 42.0501 104.439 42.0356C104.109 41.9812 103.766 41.9523 103.422 41.9335C103.376 41.9124 103.328 41.9024 103.295 41.9046C101.126 41.9313 99.5163 42.4332 98.3642 43.266C98.0079 43.4836 97.7526 43.7079 97.5639 43.9633C96.1699 45.4413 95.6915 47.6022 95.7792 50.0407C95.8258 51.4343 96.3308 52.689 97.1122 53.7884Z" fill="#333739"/>
</svg>
