<svg width="97" height="31" viewBox="0 0 97 31" fill="none" xmlns="http://www.w3.org/2000/svg">
<path d="M9.45996 16L6.56152 7.65332H6.50684C6.58431 8.8929 6.62305 10.055 6.62305 11.1396V16H5.13965V6.00586H7.44336L10.2188 13.9561H10.2598L13.1172 6.00586H15.4277V16H13.8555V11.0576C13.8555 10.5609 13.8669 9.91374 13.8896 9.11621C13.917 8.31868 13.9398 7.83561 13.958 7.66699H13.9033L10.9023 16H9.45996ZM16.7402 8.43945H18.4902L20.0283 12.7256C20.2607 13.3363 20.4157 13.9105 20.4932 14.4482H20.5479C20.5889 14.1976 20.6641 13.8945 20.7734 13.5391C20.8828 13.179 21.4616 11.4792 22.5098 8.43945H24.2461L21.0127 17.0049C20.4248 18.5771 19.445 19.3633 18.0732 19.3633C17.7178 19.3633 17.3714 19.3245 17.0342 19.2471V17.9756C17.2757 18.0303 17.5514 18.0576 17.8613 18.0576C18.6361 18.0576 19.1807 17.6087 19.4951 16.7109L19.7754 16L16.7402 8.43945ZM37.084 16H35.4434V11.4951H30.8359V16H29.2021V6.00586H30.8359V10.0938H35.4434V6.00586H37.084V16ZM46.251 12.2061C46.251 13.4411 45.9342 14.4049 45.3008 15.0977C44.6673 15.7904 43.7855 16.1367 42.6553 16.1367C41.9489 16.1367 41.3245 15.9772 40.7822 15.6582C40.2399 15.3392 39.8229 14.8812 39.5312 14.2842C39.2396 13.6872 39.0938 12.9945 39.0938 12.2061C39.0938 10.9801 39.4082 10.0231 40.0371 9.33496C40.666 8.64681 41.5524 8.30273 42.6963 8.30273C43.79 8.30273 44.6559 8.65592 45.2939 9.3623C45.932 10.0641 46.251 11.012 46.251 12.2061ZM40.748 12.2061C40.748 13.9515 41.3929 14.8242 42.6826 14.8242C43.9587 14.8242 44.5967 13.9515 44.5967 12.2061C44.5967 10.4788 43.9541 9.61523 42.6689 9.61523C41.9945 9.61523 41.5046 9.83854 41.1992 10.2852C40.8984 10.7318 40.748 11.3721 40.748 12.2061ZM49.71 16H48.1035V5.36328H49.71V16ZM54.5635 16.1367C53.6201 16.1367 52.8841 15.7949 52.3555 15.1113C51.8268 14.4277 51.5625 13.4684 51.5625 12.2334C51.5625 10.9938 51.8291 10.0299 52.3623 9.3418C52.9001 8.64909 53.6429 8.30273 54.5908 8.30273C55.5843 8.30273 56.3408 8.6696 56.8604 9.40332H56.9424C56.8649 8.861 56.8262 8.43262 56.8262 8.11816V5.36328H58.4395V16H57.1816L56.9014 15.0088H56.8262C56.3112 15.7607 55.557 16.1367 54.5635 16.1367ZM54.9941 14.8379C55.6549 14.8379 56.1357 14.6533 56.4365 14.2842C56.7373 13.9105 56.8923 13.3066 56.9014 12.4727V12.2471C56.9014 11.2946 56.7464 10.6178 56.4365 10.2168C56.1266 9.81576 55.6413 9.61523 54.9805 9.61523C54.4154 9.61523 53.9801 9.84538 53.6748 10.3057C53.3695 10.7614 53.2168 11.4131 53.2168 12.2607C53.2168 13.0993 53.3649 13.7396 53.6611 14.1816C53.9574 14.6191 54.4017 14.8379 54.9941 14.8379ZM62.3428 16H60.7363V8.43945H62.3428V16ZM60.6406 6.43652C60.6406 6.14941 60.7181 5.92839 60.873 5.77344C61.0326 5.61849 61.2581 5.54102 61.5498 5.54102C61.8324 5.54102 62.0511 5.61849 62.2061 5.77344C62.3656 5.92839 62.4453 6.14941 62.4453 6.43652C62.4453 6.70996 62.3656 6.92643 62.2061 7.08594C62.0511 7.24089 61.8324 7.31836 61.5498 7.31836C61.2581 7.31836 61.0326 7.24089 60.873 7.08594C60.7181 6.92643 60.6406 6.70996 60.6406 6.43652ZM71.2979 16H69.6846V11.3516C69.6846 10.7682 69.5661 10.333 69.3291 10.0459C69.0967 9.75879 68.7253 9.61523 68.2148 9.61523C67.5358 9.61523 67.0391 9.81576 66.7246 10.2168C66.4102 10.6178 66.2529 11.29 66.2529 12.2334V16H64.6465V8.43945H65.9043L66.1299 9.43066H66.2119C66.4398 9.07064 66.7633 8.79264 67.1826 8.59668C67.6019 8.40072 68.0667 8.30273 68.5771 8.30273C70.391 8.30273 71.2979 9.22559 71.2979 11.0713V16ZM79.918 8.43945V9.32129L78.626 9.56055C78.7445 9.72005 78.8424 9.91602 78.9199 10.1484C78.9974 10.3809 79.0361 10.627 79.0361 10.8867C79.0361 11.666 78.7673 12.279 78.2295 12.7256C77.6917 13.1722 76.9512 13.3955 76.0078 13.3955C75.7663 13.3955 75.5475 13.3773 75.3516 13.3408C75.0052 13.555 74.832 13.8057 74.832 14.0928C74.832 14.266 74.9118 14.3958 75.0713 14.4824C75.2354 14.569 75.5339 14.6123 75.9668 14.6123H77.2861C78.1201 14.6123 78.7536 14.79 79.1865 15.1455C79.6195 15.501 79.8359 16.0137 79.8359 16.6836C79.8359 17.5404 79.4827 18.2012 78.7764 18.666C78.07 19.1309 77.0492 19.3633 75.7139 19.3633C74.6839 19.3633 73.8978 19.181 73.3555 18.8164C72.8132 18.4518 72.542 17.9323 72.542 17.2578C72.542 16.793 72.6878 16.401 72.9795 16.082C73.2757 15.7676 73.6882 15.5488 74.2168 15.4258C74.0026 15.3346 73.8249 15.1888 73.6836 14.9883C73.5469 14.7832 73.4785 14.569 73.4785 14.3457C73.4785 14.0632 73.5583 13.8239 73.7178 13.6279C73.8773 13.432 74.1143 13.2383 74.4287 13.0469C74.0368 12.8783 73.7178 12.6048 73.4717 12.2266C73.2301 11.8438 73.1094 11.3971 73.1094 10.8867C73.1094 10.0664 73.3669 9.43066 73.8818 8.97949C74.4014 8.52832 75.1396 8.30273 76.0967 8.30273C76.3109 8.30273 76.5342 8.31868 76.7666 8.35059C77.0036 8.37793 77.1813 8.40755 77.2998 8.43945H79.918ZM73.9775 17.1758C73.9775 17.5221 74.1325 17.7887 74.4424 17.9756C74.7568 18.1624 75.1966 18.2559 75.7617 18.2559C76.6367 18.2559 77.2884 18.1305 77.7168 17.8799C78.1452 17.6292 78.3594 17.2965 78.3594 16.8818C78.3594 16.5537 78.2409 16.319 78.0039 16.1777C77.7715 16.041 77.3363 15.9727 76.6982 15.9727H75.4814C75.0212 15.9727 74.6543 16.0798 74.3809 16.2939C74.112 16.5127 73.9775 16.8066 73.9775 17.1758ZM74.668 10.8867C74.668 11.3607 74.7887 11.7253 75.0303 11.9805C75.2764 12.2357 75.6273 12.3633 76.083 12.3633C77.0127 12.3633 77.4775 11.8665 77.4775 10.873C77.4775 10.3809 77.3613 10.0026 77.1289 9.73828C76.901 9.4694 76.5524 9.33496 76.083 9.33496C75.6182 9.33496 75.265 9.46712 75.0234 9.73145C74.7865 9.99577 74.668 10.3809 74.668 10.8867ZM86.4053 13.8467C86.4053 14.585 86.1364 15.1523 85.5986 15.5488C85.0609 15.9408 84.2907 16.1367 83.2881 16.1367C82.2809 16.1367 81.472 15.984 80.8613 15.6787V14.291C81.75 14.7012 82.5771 14.9062 83.3428 14.9062C84.3317 14.9062 84.8262 14.6077 84.8262 14.0107C84.8262 13.8193 84.7715 13.6598 84.6621 13.5322C84.5527 13.4046 84.3727 13.2725 84.1221 13.1357C83.8714 12.999 83.5228 12.8441 83.0762 12.6709C82.2057 12.3337 81.6156 11.9964 81.3057 11.6592C81.0003 11.3219 80.8477 10.8844 80.8477 10.3467C80.8477 9.69954 81.1074 9.19824 81.627 8.84277C82.151 8.48275 82.862 8.30273 83.7598 8.30273C84.6484 8.30273 85.4893 8.48275 86.2822 8.84277L85.7627 10.0527C84.9469 9.71549 84.2611 9.54688 83.7051 9.54688C82.8574 9.54688 82.4336 9.78841 82.4336 10.2715C82.4336 10.5085 82.543 10.709 82.7617 10.873C82.985 11.0371 83.4681 11.2627 84.2109 11.5498C84.8353 11.7913 85.2887 12.0124 85.5713 12.2129C85.8538 12.4134 86.0635 12.6458 86.2002 12.9102C86.3369 13.1699 86.4053 13.4821 86.4053 13.8467Z" fill="#333739"/>
<path d="M0 22H91.1899L96.5 30" stroke="#333739"/>
</svg>
