<svg width="24" height="24" viewBox="0 0 24 24" fill="none" xmlns="http://www.w3.org/2000/svg">
<path d="M12 8.00024C13.105 8.00024 14 7.10524 14 6.00024C14 4.89524 13.105 4.00024 12 4.00024C10.895 4.00024 10 4.89524 10 6.00024C10 7.10524 10.895 8.00024 12 8.00024ZM12 10.0002C10.895 10.0002 10 10.8952 10 12.0002C10 13.1052 10.895 14.0002 12 14.0002C13.105 14.0002 14 13.1052 14 12.0002C14 10.8952 13.105 10.0002 12 10.0002ZM12 16.0002C10.895 16.0002 10 16.8952 10 18.0002C10 19.1052 10.895 20.0002 12 20.0002C13.105 20.0002 14 19.1052 14 18.0002C14 16.8952 13.105 16.0002 12 16.0002Z" fill="#7B7D7E"/>
</svg>
