<svg width="24" height="24" viewBox="0 0 24 24" fill="none" xmlns="http://www.w3.org/2000/svg">
<g id="Icon / 24 / Upload">
<g id="Vector">
<path d="M15.2528 7.60416C15.0419 7.81505 14.7131 7.83613 14.4786 7.66743L14.4043 7.60416L12.6001 5.8V15.4013C12.6001 15.7326 12.3315 16.0013 12.0001 16.0013C11.6687 16.0013 11.4001 15.7326 11.4001 15.4013V5.8L9.59595 7.60416C9.36164 7.83848 8.98174 7.83848 8.74742 7.60416C8.53654 7.39328 8.51545 7.06447 8.68416 6.83001L8.74742 6.75564L11.1516 4.35147C11.5909 3.91213 12.2862 3.88467 12.7575 4.2691L12.8486 4.35147L15.2528 6.75563C15.4871 6.98995 15.4871 7.36985 15.2528 7.60416Z" fill="#333739"/>
<path d="M5.19485 15.6C5.19486 15.2686 4.92623 15 4.59486 15C4.2635 15 3.99487 15.2686 3.99487 15.6V19.9702C3.99487 19.9866 4.00822 20 4.02469 20H19.9687C19.9852 20 19.9986 19.9866 19.9986 19.9702V15.6001C19.9986 15.2687 19.7299 15 19.3985 15C19.0671 15 18.7985 15.2686 18.7984 15.5999L18.7977 18.799H5.19471L5.19485 15.6Z" fill="#333739"/>
</g>
</g>
</svg>
