<svg width="199" height="180" viewBox="0 0 199 180" fill="none" xmlns="http://www.w3.org/2000/svg">
    <path d="M54.768 0h3.577l-1.79 5.59h2.386l-.374 5.745-1.342-4.193h-2.457V0zM46.12 3.417l2.834-1.397 2.307 5.9 2.089-1.633 2.31 5.05-3.132-2.176-2.236 2.175-4.173-7.919zM44.107 14.593l1.271-2.948 4.022 2.948.596-2.097 4.772 2.097H50.89v3.259l-6.782-3.259z" fill="#FFAB00"/>
    <g opacity=".7" fill="#333739">
        <path d="M184.176 142.173V84.066h-4.958v58.107h4.958zM67.765 141.181V84.265H62.41v56.916h5.355z"/>
    </g>
    <path d="M72.128 62.848s.003 3.055.397 4.957c.521 2.521 2.38 6.148 2.38 6.148M68.558 62.648s.002 3.165.396 5.135c.522 2.611 2.38 6.368 2.38 6.368" stroke="#000" stroke-width=".793"/>
    <path opacity=".4" d="M198.256 79.307v-5.553H40.992v5.553h157.264z" fill="#333739"/>
    <path opacity=".7" d="M188.34 84.464V79.308l-138.82-.199v5.355h138.82z" fill="#333739"/>
    <path opacity=".7" d="M55.272 140.98V84.262h-4.958v56.718h4.958z" fill="#333739"/>
    <path fill-rule="evenodd" clip-rule="evenodd" d="M31.77 118.207c-1.506-.555-7.726-5.34-6.748-8.19 1.46-4.256 9.819-4.087 13.763-4.162-2.36 2.277-5.935 9.188-7.015 12.352z" fill="#C9C6C6"/>
    <path clip-rule="evenodd" d="M31.77 118.207c-1.506-.555-7.726-5.34-6.748-8.19 1.46-4.256 9.819-4.087 13.763-4.162-2.36 2.277-5.935 9.188-7.015 12.352z" stroke="#333739" stroke-width=".492" stroke-linecap="round" stroke-linejoin="round"/>
    <path fill-rule="evenodd" clip-rule="evenodd" d="M39.319 142.374c-1.668 4.144-7.696 4.989-9.373 0-1.999-5.946 2.386-14.78-.628-21.801-1.027-2.393-2.889-4.628-3.976-4.127-1.93.891 1.487 1.19.765 9.648-.657 7.695-8.235 13.584-3.67 21.888.857 1.557 1.693 3.241 3.013 4.424 4.557 4.082 11.446 3.237 13.572-2.935.758-2.201.447-4.837.297-7.097z" fill="#E62B31"/>
    <mask id="a" style="mask-type:alpha" maskUnits="userSpaceOnUse" x="20" y="116" width="20" height="39">
        <path fill-rule="evenodd" clip-rule="evenodd" d="M25.344 116.446c-1.93.891 1.486 1.189.765 9.648-.657 7.694-8.235 13.584-3.67 21.888.856 1.557 1.692 3.241 3.013 4.425 4.557 4.08 11.446 3.236 13.572-2.936.757-2.202.447-4.836.297-7.098-1.667 4.144-7.696 4.99-9.373 0-1.999-5.945 2.386-14.78-.628-21.8-.93-2.164-2.539-4.198-3.642-4.198a.787.787 0 0 0-.334.071z" fill="#fff"/>
    </mask>
    <g mask="url(#a)">
        <path fill-rule="evenodd" clip-rule="evenodd" d="M24.777 116.814c3.35-.489 4.336 11.331 2.046 17.799-1.12 3.165-1.93 6.71-1.732 10.145.25 4.352 3.217 8.913 8.18 7.93 1.154-.228 2.148-1.002 2.74-2.048 2.173-3.841-.989-6.671-1.91-10.291-.45-1.765-.467-3.679-.556-5.491-.266-5.383-.258-10.457-3.046-15.202-.848-1.443-2.547-5.514-5.722-2.842z" fill="#BB1818"/>
    </g>
    <mask id="b" style="mask-type:alpha" maskUnits="userSpaceOnUse" x="20" y="116" width="20" height="39">
        <path fill-rule="evenodd" clip-rule="evenodd" d="M25.344 116.446c-1.93.891 1.486 1.189.765 9.648-.657 7.694-8.235 13.584-3.67 21.888.856 1.557 1.692 3.241 3.013 4.425 4.557 4.08 11.446 3.236 13.572-2.936.757-2.202.447-4.836.297-7.098-1.667 4.144-7.696 4.99-9.373 0-1.999-5.945 2.386-14.78-.628-21.8-.93-2.164-2.539-4.198-3.642-4.198a.787.787 0 0 0-.334.071z" fill="#fff"/>
    </mask>
    <g mask="url(#b)">
        <path fill-rule="evenodd" clip-rule="evenodd" d="M24.75 117.219c2.835 2.376 2.507 8.453 1.754 11.822-.897 4.015-2.454 7.05-3.42 11.06-.6 2.486-.496 4.825.021 7.322.171.822.385 1.628.663 2.419.092.261.178.53.29.782.056.128.308.41.175.38-1.685-.382-3.13-4.344-3.592-5.825-2.047-6.565.73-13.445 1.065-20.077.074-1.46.994-7.546 3.044-7.883z" fill="#F190AE"/>
    </g>
    <path clip-rule="evenodd" d="M39.32 142.374c-1.667 4.144-7.695 4.989-9.372 0-1.999-5.946 2.386-14.78-.628-21.801-1.027-2.393-2.889-4.628-3.976-4.127-1.93.891 1.487 1.19.765 9.648-.657 7.695-8.235 13.584-3.67 21.888.857 1.557 1.693 3.241 3.013 4.424 4.557 4.082 11.446 3.237 13.572-2.935.758-2.201.447-4.837.297-7.097z" stroke="#333739" stroke-width=".492" stroke-linecap="round" stroke-linejoin="round"/>
    <path fill-rule="evenodd" clip-rule="evenodd" d="M58.328 151.753c4.19 4.905 12.42 4.153 17.156.68 2.92-2.14 5.062-5.084 6.842-8.26 1.977-3.528 7.92-9.646 6.985-10.684-.935-1.038-4.685 1.998-6.612 3.61-4.277 3.578-7.239 8.521-12.916 9.868-4.677 1.11-9.134.129-9.584-5.702-.163-2.109.193-4.208 1.2-6.065-4.078 3.504-7.16 11.767-3.071 16.553z" fill="#E62B31"/>
    <mask id="c" style="mask-type:alpha" maskUnits="userSpaceOnUse" x="56" y="133" width="34" height="23">
        <path fill-rule="evenodd" clip-rule="evenodd" d="M82.699 137.099c-4.277 3.577-7.24 8.52-12.917 9.867-4.676 1.109-9.133.129-9.583-5.702-.163-2.109.193-4.208 1.2-6.064-4.078 3.503-7.16 11.766-3.07 16.553 4.19 4.904 12.42 4.152 17.155.68 2.92-2.141 5.062-5.085 6.842-8.261 1.977-3.528 7.608-9.361 6.984-10.684-.099-.212-.287-.304-.54-.304-1.327-.001-4.452 2.559-6.071 3.915z" fill="#fff"/>
    </mask>
    <g mask="url(#c)">
        <path fill-rule="evenodd" clip-rule="evenodd" d="M63.474 146.78c1.298 2.888 4.5 3.162 7.236 2.93 6.606-.56 11.03-6.314 14.82-11.291.862-1.134 4.464-6.067 5.471-2.575.789 2.734-1.205 7.298-2.18 9.832-3.44 8.922-9.647 15.328-19.513 14.23-1.506-.166-2.993-.619-4.454-1.016-2.413-.656-5.321-1.396-7.166-3.248-3.188-3.203-4.338-8.301-2.647-12.613.628-1.599 3.607-5.935 5.765-4.47.324 2.447 1.325 6.119 2.668 8.221z" fill="#BB1818"/>
    </g>
    <path clip-rule="evenodd" d="M58.326 151.751c4.19 4.905 12.42 4.152 17.156.68 2.92-2.141 5.063-5.084 6.842-8.261 1.977-3.528 7.92-9.229 6.984-10.684-.934-1.454-4.684 1.999-6.611 3.611-4.277 3.578-7.239 8.521-12.916 9.868-4.678 1.11-9.134.129-9.584-5.702-.163-2.109.193-4.208 1.2-6.065-4.078 3.504-7.16 11.767-3.071 16.553z" stroke="#333739" stroke-width=".492" stroke-linecap="round" stroke-linejoin="round"/>
    <path fill-rule="evenodd" clip-rule="evenodd" d="M35.928 141.896c-.577 4.069-4.455 5.482-8.246 4.086-3.105-1.143-5.738-3.7-8.56-5.52-3.543-2.285-6.05-3.524-10.255-3.832-3.674-.268-8.025 1.11-8.327 5.266-.115 1.58 1.335 4.33 3.254 3.551 1.657-.673-.195-2.543 1.467-3.551 3.007-1.822 9.004 2.715 11.085 5.254 4.158 5.073 9.79 10.258 15.809 8.755 3.773-.942 9.105-7.478 3.773-14.009z" fill="#E62B31"/>
    <mask id="d" style="mask-type:alpha" maskUnits="userSpaceOnUse" x="0" y="136" width="39" height="21">
        <path fill-rule="evenodd" clip-rule="evenodd" d="M.54 141.897c-.115 1.58 1.336 4.33 3.255 3.551 1.658-.674-.195-2.544 1.467-3.551 3.007-1.823 9.004 2.715 11.084 5.254 4.16 5.073 9.791 10.257 15.81 8.754 3.773-.941 9.105-7.477 3.773-14.008-.577 4.068-4.454 5.482-8.246 4.086-3.106-1.143-5.738-3.7-8.56-5.521-3.544-2.285-6.05-3.523-10.255-3.832a12.361 12.361 0 0 0-.886-.032c-3.453 0-7.163 1.473-7.442 5.299z" fill="#fff"/>
    </mask>
    <g mask="url(#d)">
        <path fill-rule="evenodd" clip-rule="evenodd" d="M36.565 143.113c-.314 4.948-4.636 6.703-8.38 6.136-5.815-.881-9.236-4.864-11-6.026-1.456-.961-2.908-1.748-4.528-2.368-2.609-1-8.057-1.996-7.805 2.765.127 2.397 5.18 3.672 6.961 4.479a34.38 34.38 0 0 1 4.22 2.266c1.587 1.005 3.759 3.562 5.492 3.769 2.125.255 4.362-1.142 6.384-1.653 1.614-.406 3.299-.498 4.942-.718 1.499-.201 3.068-.536 4.312-1.476 2.599-1.964 1.809-5.305-.598-7.174z" fill="#BB1818"/>
    </g>
    <path clip-rule="evenodd" d="M35.928 141.896c-.577 4.069-4.455 5.482-8.246 4.086-3.105-1.143-5.738-3.7-8.56-5.52-3.543-2.285-6.05-3.524-10.255-3.832-3.674-.268-8.025 1.11-8.327 5.266-.115 1.58 1.335 4.33 3.254 3.551 1.657-.673-.195-2.543 1.467-3.551 3.007-1.822 9.004 2.715 11.085 5.254 4.158 5.073 9.79 10.258 15.809 8.755 3.773-.942 9.105-7.478 3.773-14.009z" stroke="#333739" stroke-width=".492" stroke-linecap="round" stroke-linejoin="round"/>
    <path fill-rule="evenodd" clip-rule="evenodd" d="M7.09 136.645c-4.402.352-6.338 2.331-6.55 5.254-.115 1.58 1.335 4.33 3.254 3.551 1.657-.673-.252-3.075 1.796-4.026" fill="#E62B31"/>
    <mask id="e" style="mask-type:alpha" maskUnits="userSpaceOnUse" x="0" y="136" width="8" height="10">
        <path fill-rule="evenodd" clip-rule="evenodd" d="M.54 141.899c-.115 1.58 1.336 4.33 3.255 3.551 1.658-.674-.253-3.075 1.796-4.026l1.5-4.779c-4.402.351-6.338 2.331-6.551 5.254z" fill="#fff"/>
    </mask>
    <g mask="url(#e)">
        <path fill-rule="evenodd" clip-rule="evenodd" d="M7.6 139.626c-.387-.107-1.855-.026-2.25.038-1.318.211-2.234 1.412-2.446 2.723-.085.52-.044 1.129-.336 1.586-.41.642-1.372.451-1.584.931-.28.633.192 1.463.681 1.816 2.814 2.036 4.28-1.835 5.264-3.775.44-.867 1.249-2.307.67-3.319z" fill="#BB1818"/>
    </g>
    <mask id="f" style="mask-type:alpha" maskUnits="userSpaceOnUse" x="0" y="136" width="8" height="10">
        <path fill-rule="evenodd" clip-rule="evenodd" d="M.54 141.899c-.115 1.58 1.336 4.33 3.255 3.551 1.658-.674-.253-3.075 1.796-4.026l1.5-4.779c-4.402.351-6.338 2.331-6.551 5.254z" fill="#fff"/>
    </mask>
    <g mask="url(#f)">
        <path fill-rule="evenodd" clip-rule="evenodd" d="M9.685 136.901c-2.731-.435-5.923.078-7.577 2.591-.474.72-.676 1.545-.686 2.411-.01.83.784 3.251-.868 2.898-1.783-.38-2.147-3.32-1.894-4.751.135-.766.506-1.492.959-2.107 1.904-2.584 7.284-1.857 10.066-1.042z" fill="#F190AE"/>
    </g>
    <path d="M7.09 136.641c-4.402.352-6.338 2.331-6.55 5.254-.115 1.58 1.335 4.33 3.254 3.551 1.657-.673-.252-3.075 1.796-4.026" stroke="#333739" stroke-width=".492" stroke-linecap="round" stroke-linejoin="round"/>
    <path fill-rule="evenodd" clip-rule="evenodd" d="M35.46 147.926c4.287-3.206-.336-5.486-3.235-10.135-4.259-6.831-5.965-15.362-3.564-23.181 4.386-14.285 22.392-19.745 33.974-11.459 2.175 1.556 3.934 3.262 5.35 5.596 3.877 6.394 4.523 16.415.97 23.053-.814 1.519-1.807 3.006-2.961 4.275-4.284 4.707-8.461 9.129-3.576 12.576 4.31 3.041 8.242-.102 14.138 3.611 2.67 1.681 3.524 5.271 3.524 7.275 0 5.283 1.77 7 .592 7.368-2.081.651-2.972-6.62-6.046-8.657-4.232-2.804-7.31.19-11.618-.296 1.636 3.159.058 9.669-5.59 10.594-5.933.971-9.03-5.927-12.93-5.251-3.17.55-1.404 7.456-3.635 7.141-.973-.137-.544-2.609-.973-3.608-1.829-4.269-.402-8.176 4.379-8.716 3.807-.43 5.332 1.402 10.343 1.912-2.999-2.687-7.243-2.945-10.988-2.282-1.966.347-4.035 1.205-6.065.92.003 1.37-.44 2.819-.613 4.178-.11.858-.169 1.714-.133 2.579.023.553.13 1.093.23 1.635.108.572.517 1.976-.526 1.858-.42-.048-.712-.406-.902-.767-1.05-1.999-.43-4.824-2.394-6.331-2.4-1.844-4.72 1.539-7.685 1.024-6.125-1.063-7.45-10.592-2.578-13.752 5.102-3.31 9.169 1.339 12.511-1.16z" fill="#E62B31"/>
    <mask id="g" style="mask-type:alpha" maskUnits="userSpaceOnUse" x="19" y="99" width="63" height="72">
        <path fill-rule="evenodd" clip-rule="evenodd" d="M28.663 114.617c-2.4 7.82-.695 16.35 3.563 23.181 2.9 4.65 7.523 6.929 3.235 10.136-1.582 1.182-3.325.765-5.264.347-2.16-.466-4.559-.93-7.247.813-4.872 3.16-3.547 12.688 2.578 13.752 1.267.22 2.416-.272 3.504-.763 1.457-.659 2.806-1.319 4.18-.262 1.966 1.508 1.345 4.332 2.394 6.331.19.362.484.719.902.768 1.044.117.636-1.287.528-1.859-.101-.541-.209-1.083-.231-1.634-.036-.865.023-1.722.132-2.58.174-1.359.617-2.809.614-4.178 2.03.286 4.099-.572 6.066-.92 3.744-.662 7.988-.406 10.986 2.283-5.01-.511-6.535-2.342-10.343-1.912-4.78.54-6.206 4.447-4.377 8.716.428.999 0 3.47.972 3.607 2.232.316.464-6.59 3.636-7.14 1.913-.332 3.632 1.159 5.587 2.648 2.032 1.549 4.32 3.097 7.341 2.602 5.649-.924 7.227-7.435 5.591-10.594 1.615.183 3.058-.125 4.454-.432 2.325-.512 4.519-1.024 7.163.729 3.074 2.037 3.966 9.307 6.047 8.657 1.177-.368-.591-2.085-.591-7.369 0-2.004-.855-5.594-3.524-7.275-5.898-3.713-9.829-.569-14.139-3.611-4.885-3.446-.708-7.869 3.576-12.576 1.155-1.268 2.148-2.756 2.962-4.275 3.553-6.638 2.905-16.659-.971-23.052-1.416-2.334-3.175-4.04-5.35-5.598-3.704-2.648-8.06-3.891-12.422-3.891-9.28 0-18.567 5.634-21.552 15.351z" fill="#fff"/>
    </mask>
    <g mask="url(#g)">
        <path fill-rule="evenodd" clip-rule="evenodd" d="M65.265 111.113c-.059 5.586-2.474 11.202-5.467 15.812-3.26 5.016-7.311 11.703-7.978 17.971-.243 2.281.291 4.728 1.484 6.671 1.688 2.748 8.622 7.751 6.454 11.492-3.458 5.965-11.863-2.842-16.044-1.608-3.115.919-2.55 4.397-2.634 7.044-.047 1.506-.26 3.002-.353 4.505 1.168-1.11 2.471-1.605 4.014-1.925 5.64-1.172 9.94 3.473 14.559 2.385 1.524-.36 2.804-1.211 3.874-2.37 1.16-1.253 2.012-2.702 2.398-4.403.64-2.818-.239-6.243 2.829-7.814 5.272-2.699 6.782 4.436 8.592 7.32.64 1.02 1.685 1.962 2.791 2.401.6.239 1.218.098 1.697-.334 2.328-2.098.063-15.483-4.923-15.991 2.032 3.36-.416 3.921-3.482 2.388-2.396-1.196-6.461-.027-9.002-.501-2.66-.497-5.65-3.983-4.475-7.246 1.381-3.833 4.065-5.851 6.33-8.529 4.792-5.676 7.573-14.295 3.69-21.161-1.012-1.786-2.472-5.284-4.354-6.107z" fill="#BB1818"/>
    </g>
    <mask id="h" style="mask-type:alpha" maskUnits="userSpaceOnUse" x="19" y="99" width="63" height="72">
        <path fill-rule="evenodd" clip-rule="evenodd" d="M28.663 114.617c-2.4 7.82-.695 16.35 3.563 23.181 2.9 4.65 7.523 6.929 3.235 10.136-1.582 1.182-3.325.765-5.264.347-2.16-.466-4.559-.93-7.247.813-4.872 3.16-3.547 12.688 2.578 13.752 1.267.22 2.416-.272 3.504-.763 1.457-.659 2.806-1.319 4.18-.262 1.966 1.508 1.345 4.332 2.394 6.331.19.362.484.719.902.768 1.044.117.636-1.287.528-1.859-.101-.541-.209-1.083-.231-1.634-.036-.865.023-1.722.132-2.58.174-1.359.617-2.809.614-4.178 2.03.286 4.099-.572 6.066-.92 3.744-.662 7.988-.406 10.986 2.283-5.01-.511-6.535-2.342-10.343-1.912-4.78.54-6.206 4.447-4.377 8.716.428.999 0 3.47.972 3.607 2.232.316.464-6.59 3.636-7.14 1.913-.332 3.632 1.159 5.587 2.648 2.032 1.549 4.32 3.097 7.341 2.602 5.649-.924 7.227-7.435 5.591-10.594 1.615.183 3.058-.125 4.454-.432 2.325-.512 4.519-1.024 7.163.729 3.074 2.037 3.966 9.307 6.047 8.657 1.177-.368-.591-2.085-.591-7.369 0-2.004-.855-5.594-3.524-7.275-5.898-3.713-9.829-.569-14.139-3.611-4.885-3.446-.708-7.869 3.576-12.576 1.155-1.268 2.148-2.756 2.962-4.275 3.553-6.638 2.905-16.659-.971-23.052-1.416-2.334-3.175-4.04-5.35-5.598-3.704-2.648-8.06-3.891-12.422-3.891-9.28 0-18.567 5.634-21.552 15.351z" fill="#fff"/>
    </mask>
    <g mask="url(#h)">
        <path fill-rule="evenodd" clip-rule="evenodd" d="M56.574 159.33c-.335-1.942-1.621-3.394-3.223-4.367-2.291-1.392-4.935-1.849-7.525-1.411-7.07 1.194-9.306-1.248-12.432-.21-5.51 1.827-6.589-.158-6.59-.046-.045 1.878.355 2.678 1.491 2.707 2.31.057 4.542-2.107 6.88-1.395 1.7.519 2.543 3.942.992 5.063-1.26.91-3.354-1.171-5.105-1.041-1.855.136-3.193 1.599-4.974 1.966-4.132.851-6.005-2.481-6.074-6.261-.137 1.459-.304 2.961-.23 4.428.045.894.173 1.89.563 2.701 2.166 4.502 6.407 3.793 10.492 3.122.843-.138 1.684-.539 2.518-.145 1.788.847 1.586 6.238 3.967 5.8 1.829-.337 1.455-3.255 1.287-4.589-.442-3.533.172-5.904 3.686-7.146 2.66-.94 5.922-.487 8.49.576 1.557.644 4.198 1.64 5.787.248z" fill="#BB1818"/>
    </g>
    <mask id="i" style="mask-type:alpha" maskUnits="userSpaceOnUse" x="19" y="99" width="63" height="72">
        <path fill-rule="evenodd" clip-rule="evenodd" d="M28.663 114.617c-2.4 7.82-.695 16.35 3.563 23.181 2.9 4.65 7.523 6.929 3.235 10.136-1.582 1.182-3.325.765-5.264.347-2.16-.466-4.559-.93-7.247.813-4.872 3.16-3.547 12.688 2.578 13.752 1.267.22 2.416-.272 3.504-.763 1.457-.659 2.806-1.319 4.18-.262 1.966 1.508 1.345 4.332 2.394 6.331.19.362.484.719.902.768 1.044.117.636-1.287.528-1.859-.101-.541-.209-1.083-.231-1.634-.036-.865.023-1.722.132-2.58.174-1.359.617-2.809.614-4.178 2.03.286 4.099-.572 6.066-.92 3.744-.662 7.988-.406 10.986 2.283-5.01-.511-6.535-2.342-10.343-1.912-4.78.54-6.206 4.447-4.377 8.716.428.999 0 3.47.972 3.607 2.232.316.464-6.59 3.636-7.14 1.913-.332 3.632 1.159 5.587 2.648 2.032 1.549 4.32 3.097 7.341 2.602 5.649-.924 7.227-7.435 5.591-10.594 1.615.183 3.058-.125 4.454-.432 2.325-.512 4.519-1.024 7.163.729 3.074 2.037 3.966 9.307 6.047 8.657 1.177-.368-.591-2.085-.591-7.369 0-2.004-.855-5.594-3.524-7.275-5.898-3.713-9.829-.569-14.139-3.611-4.885-3.446-.708-7.869 3.576-12.576 1.155-1.268 2.148-2.756 2.962-4.275 3.553-6.638 2.905-16.659-.971-23.052-1.416-2.334-3.175-4.04-5.35-5.598-3.704-2.648-8.06-3.891-12.422-3.891-9.28 0-18.567 5.634-21.552 15.351z" fill="#fff"/>
    </mask>
    <g mask="url(#i)">
        <path fill-rule="evenodd" clip-rule="evenodd" d="M65.378 116.618c-10.89 9.358-21.718-8.562-33.148-8.014-1.737.083-3.55.519-4.998 1.566 7.873-10.966 25.435-7.305 34.443.118 1.597 1.317 3.147 4.161 3.703 6.33z" fill="#BB1818"/>
    </g>
    <mask id="j" style="mask-type:alpha" maskUnits="userSpaceOnUse" x="19" y="99" width="63" height="72">
        <path fill-rule="evenodd" clip-rule="evenodd" d="M28.663 114.617c-2.4 7.82-.695 16.35 3.563 23.181 2.9 4.65 7.523 6.929 3.235 10.136-1.582 1.182-3.325.765-5.264.347-2.16-.466-4.559-.93-7.247.813-4.872 3.16-3.547 12.688 2.578 13.752 1.267.22 2.416-.272 3.504-.763 1.457-.659 2.806-1.319 4.18-.262 1.966 1.508 1.345 4.332 2.394 6.331.19.362.484.719.902.768 1.044.117.636-1.287.528-1.859-.101-.541-.209-1.083-.231-1.634-.036-.865.023-1.722.132-2.58.174-1.359.617-2.809.614-4.178 2.03.286 4.099-.572 6.066-.92 3.744-.662 7.988-.406 10.986 2.283-5.01-.511-6.535-2.342-10.343-1.912-4.78.54-6.206 4.447-4.377 8.716.428.999 0 3.47.972 3.607 2.232.316.464-6.59 3.636-7.14 1.913-.332 3.632 1.159 5.587 2.648 2.032 1.549 4.32 3.097 7.341 2.602 5.649-.924 7.227-7.435 5.591-10.594 1.615.183 3.058-.125 4.454-.432 2.325-.512 4.519-1.024 7.163.729 3.074 2.037 3.966 9.307 6.047 8.657 1.177-.368-.591-2.085-.591-7.369 0-2.004-.855-5.594-3.524-7.275-5.898-3.713-9.829-.569-14.139-3.611-4.885-3.446-.708-7.869 3.576-12.576 1.155-1.268 2.148-2.756 2.962-4.275 3.553-6.638 2.905-16.659-.971-23.052-1.416-2.334-3.175-4.04-5.35-5.598-3.704-2.648-8.06-3.891-12.422-3.891-9.28 0-18.567 5.634-21.552 15.351z" fill="#fff"/>
    </mask>
    <g mask="url(#j)">
        <path fill-rule="evenodd" clip-rule="evenodd" d="M37.247 145.59c-.4 5.992-6.79 3.41-10.262 3.581a6.066 6.066 0 0 0-2.66.741c-1.832 1.023-2.812 2.851-3.156 4.914-.121.727-.256 1.454-.295 2.192-.019.347-.026.693-.03 1.041 0 .008.005.139-.01.142-.35.072-.718-.401-.88-.648-.706-1.076-.748-2.688-.513-3.918.847-4.434 4.745-6.332 8.808-6.391 1.502-.021 2.971.433 4.477.391 1.356-.037 3.489-1.085 4.521-2.045z" fill="#F190AE"/>
    </g>
    <mask id="k" style="mask-type:alpha" maskUnits="userSpaceOnUse" x="19" y="99" width="63" height="72">
        <path fill-rule="evenodd" clip-rule="evenodd" d="M28.663 114.617c-2.4 7.82-.695 16.35 3.563 23.181 2.9 4.65 7.523 6.929 3.235 10.136-1.582 1.182-3.325.765-5.264.347-2.16-.466-4.559-.93-7.247.813-4.872 3.16-3.547 12.688 2.578 13.752 1.267.22 2.416-.272 3.504-.763 1.457-.659 2.806-1.319 4.18-.262 1.966 1.508 1.345 4.332 2.394 6.331.19.362.484.719.902.768 1.044.117.636-1.287.528-1.859-.101-.541-.209-1.083-.231-1.634-.036-.865.023-1.722.132-2.58.174-1.359.617-2.809.614-4.178 2.03.286 4.099-.572 6.066-.92 3.744-.662 7.988-.406 10.986 2.283-5.01-.511-6.535-2.342-10.343-1.912-4.78.54-6.206 4.447-4.377 8.716.428.999 0 3.47.972 3.607 2.232.316.464-6.59 3.636-7.14 1.913-.332 3.632 1.159 5.587 2.648 2.032 1.549 4.32 3.097 7.341 2.602 5.649-.924 7.227-7.435 5.591-10.594 1.615.183 3.058-.125 4.454-.432 2.325-.512 4.519-1.024 7.163.729 3.074 2.037 3.966 9.307 6.047 8.657 1.177-.368-.591-2.085-.591-7.369 0-2.004-.855-5.594-3.524-7.275-5.898-3.713-9.829-.569-14.139-3.611-4.885-3.446-.708-7.869 3.576-12.576 1.155-1.268 2.148-2.756 2.962-4.275 3.553-6.638 2.905-16.659-.971-23.052-1.416-2.334-3.175-4.04-5.35-5.598-3.704-2.648-8.06-3.891-12.422-3.891-9.28 0-18.567 5.634-21.552 15.351z" fill="#fff"/>
    </mask>
    <g mask="url(#k)">
        <path fill-rule="evenodd" clip-rule="evenodd" d="M29.11 156.278c1.255.129 2.295-.698 3.445-1.064 1.62-.518 3.436.102 4.442 1.507-.14-.649-.185-.672-.622-1.151-1.608-1.761-3.61-1.378-5.34-.265-.473.304-1.311.578-1.926.973z" fill="#F190AE"/>
    </g>
    <mask id="l" style="mask-type:alpha" maskUnits="userSpaceOnUse" x="19" y="99" width="63" height="72">
        <path fill-rule="evenodd" clip-rule="evenodd" d="M28.663 114.617c-2.4 7.82-.695 16.35 3.563 23.181 2.9 4.65 7.523 6.929 3.235 10.136-1.582 1.182-3.325.765-5.264.347-2.16-.466-4.559-.93-7.247.813-4.872 3.16-3.547 12.688 2.578 13.752 1.267.22 2.416-.272 3.504-.763 1.457-.659 2.806-1.319 4.18-.262 1.966 1.508 1.345 4.332 2.394 6.331.19.362.484.719.902.768 1.044.117.636-1.287.528-1.859-.101-.541-.209-1.083-.231-1.634-.036-.865.023-1.722.132-2.58.174-1.359.617-2.809.614-4.178 2.03.286 4.099-.572 6.066-.92 3.744-.662 7.988-.406 10.986 2.283-5.01-.511-6.535-2.342-10.343-1.912-4.78.54-6.206 4.447-4.377 8.716.428.999 0 3.47.972 3.607 2.232.316.464-6.59 3.636-7.14 1.913-.332 3.632 1.159 5.587 2.648 2.032 1.549 4.32 3.097 7.341 2.602 5.649-.924 7.227-7.435 5.591-10.594 1.615.183 3.058-.125 4.454-.432 2.325-.512 4.519-1.024 7.163.729 3.074 2.037 3.966 9.307 6.047 8.657 1.177-.368-.591-2.085-.591-7.369 0-2.004-.855-5.594-3.524-7.275-5.898-3.713-9.829-.569-14.139-3.611-4.885-3.446-.708-7.869 3.576-12.576 1.155-1.268 2.148-2.756 2.962-4.275 3.553-6.638 2.905-16.659-.971-23.052-1.416-2.334-3.175-4.04-5.35-5.598-3.704-2.648-8.06-3.891-12.422-3.891-9.28 0-18.567 5.634-21.552 15.351z" fill="#fff"/>
    </mask>
    <g mask="url(#l)">
        <path fill-rule="evenodd" clip-rule="evenodd" d="M40.069 167.28c.133-1.779-.538-3.507.012-5.27.607-1.941 2.594-3.024 4.435-3.196 1.379-.128 2.826-.13 4.187.156 1.565.33 3.057.924 4.668.994-.81-.353-1.694-.528-2.536-.773-1.296-.378-2.646-.84-3.981-1.031-3.447-.495-7.312.374-7.794 4.522-.212 1.826.59 2.951 1.009 4.598z" fill="#F190AE"/>
    </g>
    <mask id="m" style="mask-type:alpha" maskUnits="userSpaceOnUse" x="19" y="99" width="63" height="72">
        <path fill-rule="evenodd" clip-rule="evenodd" d="M28.663 114.617c-2.4 7.82-.695 16.35 3.563 23.181 2.9 4.65 7.523 6.929 3.235 10.136-1.582 1.182-3.325.765-5.264.347-2.16-.466-4.559-.93-7.247.813-4.872 3.16-3.547 12.688 2.578 13.752 1.267.22 2.416-.272 3.504-.763 1.457-.659 2.806-1.319 4.18-.262 1.966 1.508 1.345 4.332 2.394 6.331.19.362.484.719.902.768 1.044.117.636-1.287.528-1.859-.101-.541-.209-1.083-.231-1.634-.036-.865.023-1.722.132-2.58.174-1.359.617-2.809.614-4.178 2.03.286 4.099-.572 6.066-.92 3.744-.662 7.988-.406 10.986 2.283-5.01-.511-6.535-2.342-10.343-1.912-4.78.54-6.206 4.447-4.377 8.716.428.999 0 3.47.972 3.607 2.232.316.464-6.59 3.636-7.14 1.913-.332 3.632 1.159 5.587 2.648 2.032 1.549 4.32 3.097 7.341 2.602 5.649-.924 7.227-7.435 5.591-10.594 1.615.183 3.058-.125 4.454-.432 2.325-.512 4.519-1.024 7.163.729 3.074 2.037 3.966 9.307 6.047 8.657 1.177-.368-.591-2.085-.591-7.369 0-2.004-.855-5.594-3.524-7.275-5.898-3.713-9.829-.569-14.139-3.611-4.885-3.446-.708-7.869 3.576-12.576 1.155-1.268 2.148-2.756 2.962-4.275 3.553-6.638 2.905-16.659-.971-23.052-1.416-2.334-3.175-4.04-5.35-5.598-3.704-2.648-8.06-3.891-12.422-3.891-9.28 0-18.567 5.634-21.552 15.351z" fill="#fff"/>
    </mask>
    <g mask="url(#m)">
        <path fill-rule="evenodd" clip-rule="evenodd" d="M30.68 111.234c-4.34 7.078-2.377 16.28 1.133 23.29 1.647 3.289 3.93 6.292 5.314 9.72-1.392-1.109-2.568-2.513-3.681-3.912-4.471-5.622-7.285-12.544-6.47-19.975.362-3.295 1.08-6.852 3.704-9.123z" fill="#F190AE"/>
    </g>
    <path clip-rule="evenodd" d="M35.46 147.93c4.287-3.206-.336-5.487-3.235-10.136-4.259-6.831-5.965-15.361-3.564-23.18 4.386-14.285 22.392-19.745 33.974-11.46 2.175 1.557 3.934 3.263 5.35 5.597 3.877 6.394 4.523 16.414.97 23.053-.814 1.519-1.807 3.006-2.961 4.275-4.284 4.707-8.461 9.129-3.576 12.576 4.31 3.041 8.242-.102 14.138 3.611 2.67 1.681 3.524 5.271 3.524 7.275 0 5.283 1.77 7 .592 7.368-2.081.651-2.972-6.62-6.046-8.657-4.232-2.804-7.31.19-11.618-.296 1.636 3.159.058 9.669-5.59 10.594-5.933.971-9.03-5.928-12.93-5.251-3.17.55-1.404 7.456-3.635 7.141-.973-.137-.544-2.609-.973-3.608-1.829-4.269-.402-8.176 4.379-8.716 3.807-.43 5.332 1.402 10.343 1.912-2.999-2.688-7.243-2.945-10.988-2.282-1.966.347-4.035 1.205-6.065.92.003 1.369-.44 2.818-.613 4.178-.11.858-.169 1.714-.133 2.579.023.552.13 1.093.23 1.635.108.572.517 1.976-.526 1.858-.42-.049-.712-.406-.902-.767-1.05-1.999-.43-4.824-2.394-6.332-2.4-1.843-4.72 1.54-7.685 1.025-6.125-1.064-7.45-10.592-2.578-13.752 5.102-3.31 9.169 1.339 12.511-1.16z" stroke="#333739" stroke-width=".492" stroke-linecap="round" stroke-linejoin="round"/>
    <path fill-rule="evenodd" clip-rule="evenodd" d="M54.57 160.279c.303.022.59.021.853-.011.32-.039.61-.119.853-.252a1.51 1.51 0 0 0 .395-.306c.162-.18.28-.396.35-.656a.145.145 0 0 0-.076-.185.137.137 0 0 0-.178.079c-.1.195-.24.335-.396.453-.078.058-.16.106-.25.15a2.02 2.02 0 0 1-.274.109c-.353.114-.776.144-1.243.111a.249.249 0 0 0-.262.237c-.009.14.093.261.229.271zM37.784 158.741c.022-1.461-.478-2.638-1.304-3.428-.85-.813-2.05-1.219-3.397-1.094-.264.025-.541.1-.824.208-.472.179-.964.448-1.447.7-.483.251-.956.486-1.39.566-.408.078-.764.091-1.072.035a1.392 1.392 0 0 1-.867-.49c-.204-.248-.356-.578-.46-1a6.368 6.368 0 0 1-.168-1.169.084.084 0 0 0-.082-.085.084.084 0 0 0-.082.085c-.027.466-.018.875.033 1.231.072.501.224.898.441 1.2.265.371.635.599 1.099.699.353.076.768.068 1.241-.014.475-.084.997-.328 1.528-.6.467-.239.942-.5 1.398-.671.24-.09.473-.156.698-.177 1.193-.113 2.258.237 3.012.957.733.699 1.168 1.745 1.152 3.04a.25.25 0 0 0 .242.258.25.25 0 0 0 .249-.251zM63.247 157.815c-.662-1.289-1.701-2.601-2.679-3.916-.64-.86-1.248-1.725-1.703-2.589-.322-.611-.57-1.22-.686-1.836a3.917 3.917 0 0 1-.038-1.299.142.142 0 0 0-.11-.165.138.138 0 0 0-.16.114c-.228 1.128.046 2.269.6 3.401.44.902 1.06 1.795 1.71 2.681.952 1.3 1.983 2.581 2.633 3.848a.242.242 0 0 0 .332.106.26.26 0 0 0 .101-.345zM35.49 142.335c.355.445.66.819.93 1.162.325.414.592.786.833 1.194.127.214.246.437.364.683.153.318.307.669.457 1.09a.134.134 0 0 0 .17.095.143.143 0 0 0 .092-.176 9.348 9.348 0 0 0-.334-1.184 5.861 5.861 0 0 0-.342-.755c-.236-.439-.517-.832-.856-1.268-.27-.347-.578-.719-.936-1.166a.24.24 0 0 0-.346-.033.26.26 0 0 0-.032.358zM29.902 112.343c.365-.586.83-1.121 1.347-1.647.483-.492 1.022-.925 1.581-1.337.438-.322.889-.615 1.35-.866.7-.385 1.42-.666 2.138-.77a4.295 4.295 0 0 1 1.137-.026c.25.03.497.063.742.138.882.273 1.732.831 2.491 1.91a.26.26 0 0 0 .36.111.28.28 0 0 0 .106-.372c-.428-1.2-1.036-2.037-1.748-2.636a4.1 4.1 0 0 0-1.261-.714c-.648-.233-1.342-.28-2.04-.208-.934.094-1.888.438-2.776.968a8.251 8.251 0 0 0-1.527 1.161 9.686 9.686 0 0 0-1.487 1.854 9.61 9.61 0 0 0-.996 2.145.341.341 0 0 0 .152.447c.16.08.354.009.43-.158zM60.372 118.794c-.6.131-1.195.137-1.829.116-.584-.019-1.15-.131-1.737-.258-.296-.064-.589-.141-.884-.224a8.575 8.575 0 0 1-2.744-1.284 11.56 11.56 0 0 1-.906-.695c-.74-.638-1.438-1.335-1.965-2.32a.343.343 0 0 0-.44-.218.362.362 0 0 0-.21.456 8.242 8.242 0 0 0 .997 2.845c.226.393.49.744.788 1.067.679.737 1.515 1.276 2.386 1.673a7.213 7.213 0 0 0 1.65.528c.38.072.76.119 1.141.116a6.953 6.953 0 0 0 2.103-.325 7.115 7.115 0 0 0 1.876-.917.308.308 0 0 0 .158-.398.29.29 0 0 0-.384-.162zM45.451 113.139c.04.184.11.35.204.497.066.106.148.197.237.277.163.147.356.242.548.283a.927.927 0 0 0 .324.009c.358-.055.691-.321.847-.877.1-.369.042-.744-.053-1.121-.085-.339-.196-.678-.204-1.013a1.24 1.24 0 0 1 .08-.492.062.062 0 0 0-.03-.08.058.058 0 0 0-.076.03c-.083.175-.12.355-.13.539-.018.348.069.71.132 1.069.06.332.101.66-.006.974-.11.333-.294.519-.506.588a.668.668 0 0 1-.318.019 1.002 1.002 0 0 1-.324-.112 1.318 1.318 0 0 1-.294-.219 1.422 1.422 0 0 1-.301-.417.068.068 0 0 0-.087-.044.07.07 0 0 0-.043.09zM62.062 125.668c.117.216.266.368.43.465.208.124.44.149.655.102a.988.988 0 0 0 .476-.268c.172-.171.3-.416.355-.718.052-.3-.017-.641-.14-1.013-.136-.411-.334-.86-.45-1.343a2.903 2.903 0 0 1-.085-.985c.005-.033-.017-.063-.048-.067-.032-.006-.06.017-.066.05-.062.355-.042.704.015 1.043.084.495.252.965.365 1.388.086.319.143.608.086.858-.048.222-.15.398-.276.526a.766.766 0 0 1-.314.198.695.695 0 0 1-.464-.014 1.032 1.032 0 0 1-.427-.305.069.069 0 0 0-.097-.017.074.074 0 0 0-.015.1zM63.68 121.537c.031.315.137.572.28.761a.893.893 0 0 0 .48.328c.248.065.51-.005.717-.23.133-.143.24-.356.305-.646.047-.221.042-.484.002-.775-.048-.347-.142-.737-.231-1.139-.125-.565-.24-1.153-.186-1.682a.058.058 0 0 0-.049-.067.057.057 0 0 0-.065.05c-.04.233-.049.48-.038.733.024.574.147 1.18.225 1.721.06.416.097.791.02 1.077-.066.264-.174.44-.305.541a.403.403 0 0 1-.326.083.731.731 0 0 1-.42-.269 1.456 1.456 0 0 1-.276-.515.068.068 0 0 0-.08-.055c-.037.007-.062.045-.054.084z" fill="#333739"/>
    <path fill-rule="evenodd" clip-rule="evenodd" d="M46.18 113.165c-.02-.079-.03-.151-.044-.228-.014-.067-.023-.131-.034-.196l-.02-.129a4.388 4.388 0 0 1-.033-.211 2.397 2.397 0 0 1-.02-.325c.004-.372.095-.745.27-1.09a.06.06 0 0 0-.018-.082.056.056 0 0 0-.08.018 2.636 2.636 0 0 0-.4.782 2.14 2.14 0 0 0-.098.601 1.234 1.234 0 0 0 .197.737c.049.071.101.131.162.195.02.034.061.045.094.025a.072.072 0 0 0 .025-.097zM62.506 125.374c-.016-.092-.018-.177-.03-.27-.01-.086-.02-.172-.032-.258-.011-.076-.026-.152-.038-.228a4.1 4.1 0 0 1-.06-.543c-.008-.3.013-.597.077-.884a.058.058 0 0 0-.037-.074.056.056 0 0 0-.073.037 3.485 3.485 0 0 0-.226.813 3.05 3.05 0 0 0-.032.574c.003.081.009.161.023.241a1.378 1.378 0 0 0 .162.454c.044.071.088.131.14.197a.068.068 0 0 0 .092.035.072.072 0 0 0 .034-.094zM64.4 121.638v-.082c0-.064 0-.121-.002-.185l-.006-.102c-.006-.049-.01-.1-.017-.149-.015-.099-.037-.196-.05-.295a3.922 3.922 0 0 1-.04-.456 3.182 3.182 0 0 1 .035-.551.06.06 0 0 0-.04-.074.06.06 0 0 0-.071.042 3.026 3.026 0 0 0-.178.68c-.022.159-.03.318-.025.478.002.066.006.134.017.199a1.122 1.122 0 0 0 .247.544.069.069 0 0 0 .09.042.071.071 0 0 0 .04-.091z" fill="#E62B31"/>
    <path fill-rule="evenodd" clip-rule="evenodd" d="M31.66 113.831c.254-.264.667-.527 1.146-.764.268-.133.557-.255.852-.365.293-.109.59-.206.883-.276.497-.121.974-.174 1.365-.108a.06.06 0 0 0 .069-.047.062.062 0 0 0-.046-.072c-.403-.099-.905-.089-1.431.004a6.17 6.17 0 0 0-1.807.621c-.501.263-.922.571-1.178.862a.107.107 0 0 0 .003.149.099.099 0 0 0 .145-.004zM38.787 121.052a13.476 13.476 0 0 0 .257-2.708 11.921 11.921 0 0 0-.14-1.81 9.227 9.227 0 0 0-.348-1.473c-.183-.553-.414-1.015-.687-1.344a.058.058 0 0 0-.082-.008.063.063 0 0 0-.009.085c.248.329.445.786.599 1.327.125.436.218.927.283 1.45.036.288.062.583.082.886a16.9 16.9 0 0 1 .015 1.96 13.573 13.573 0 0 1-.17 1.594.106.106 0 0 0 .08.125.103.103 0 0 0 .12-.084z" fill="#333739"/>
    <path fill-rule="evenodd" clip-rule="evenodd" d="M35.917 112.944c-1.103-.632-3.718-.462-5.149.041-.332.117-.038.894-.31 1.489-.275.601-.461 1.212-.897 2.103A57.3 57.3 0 0 0 31.82 115c1.294-.957 2.663-2.172 4.096-2.056z" fill="#333739"/>
    <path fill-rule="evenodd" clip-rule="evenodd" d="M35.028 112.81c2.594.442 4.166 3.792 3.509 7.479-.658 3.686-3.298 6.32-5.892 5.878-2.594-.442-4.167-3.793-3.51-7.479.659-3.686 3.299-6.32 5.893-5.878z" fill="#fff"/>
    <path fill-rule="evenodd" clip-rule="evenodd" d="M35.05 112.663c-.863-.177-1.745-.028-2.564.394a5.091 5.091 0 0 0-.943.637c-1.275 1.078-2.267 2.853-2.638 4.952-.368 2.094-.034 4.081.783 5.519.681 1.195 1.697 2.013 2.922 2.218 1.22.203 2.448-.233 3.492-1.133 1.257-1.083 2.246-2.84 2.612-4.926.363-2.08.031-4.053-.782-5.479-.672-1.178-1.672-1.985-2.88-2.186l-.002.004zm-.047.3c1.376.239 2.446 1.334 3.025 2.858.48 1.26.625 2.815.33 4.434-.294 1.622-.98 3.035-1.878 4.056-1.07 1.217-2.442 1.878-3.802 1.642-1.356-.235-2.408-1.316-2.98-2.817-.479-1.252-.623-2.795-.332-4.402.29-1.613.973-3.014 1.86-4.034.404-.464.85-.848 1.322-1.139a4.177 4.177 0 0 1 1.178-.515 3.333 3.333 0 0 1 1.277-.087v.004z" fill="#333739"/>
    <path fill-rule="evenodd" clip-rule="evenodd" d="M36.469 115.625c1.888 1.357 2.28 4.737.875 7.547-1.406 2.808-4.08 3.988-5.968 2.632-1.888-1.356-2.28-4.738-.875-7.546 1.405-2.809 4.08-3.989 5.968-2.633z" fill="#010101"/>
    <path fill-rule="evenodd" clip-rule="evenodd" d="M31.45 118.622c-.687 1.02-1 1.985-1.08 2.832-.052.534.01 1.029.137 1.47.223.776.67 1.406 1.244 1.81.598.422 1.32.643 2.058.564.314-.032.63-.091.937-.229.885-.397 1.75-1.18 2.223-2.579a.472.472 0 0 0-.2-.623.44.44 0 0 0-.6.207 3.44 3.44 0 0 1-1.314 1.192c-.694.364-1.394.202-1.897-.225a1.659 1.659 0 0 1-.45-.61 2.295 2.295 0 0 1-.193-.856c-.017-.608.1-1.321.485-2.124a.832.832 0 0 0-.275-1.115.77.77 0 0 0-1.075.286z" fill="#901913"/>
    <path fill-rule="evenodd" clip-rule="evenodd" d="M34.059 116.037c.476.076.776.59.668 1.145-.108.554-.582.941-1.06.864-.477-.076-.776-.589-.669-1.144.108-.554.584-.941 1.06-.865zM34.191 123.121c.403.065.647.541.546 1.062-.102.522-.511.892-.914.827-.403-.065-.648-.54-.546-1.062.101-.522.511-.892.914-.827z" fill="#fff"/>
    <path fill-rule="evenodd" clip-rule="evenodd" d="M48.14 125.212a8.955 8.955 0 0 1 1.794-.641c.408-.103.823-.18 1.244-.241.346-.049.697-.083 1.05-.11a20.61 20.61 0 0 1 1.058-.05c.712-.014 1.426.012 2.133.088 1.102.119 2.177.338 3.175.661a.086.086 0 0 0 .111-.053.09.09 0 0 0-.05-.116 15.317 15.317 0 0 0-3.145-1.083 13.213 13.213 0 0 0-2.214-.305 10.274 10.274 0 0 0-1.124.011 9.704 9.704 0 0 0-2.433.492 8.83 8.83 0 0 0-1.84.888.266.266 0 0 0-.1.354c.065.126.218.174.34.105z" fill="#333739"/>
    <path fill-rule="evenodd" clip-rule="evenodd" d="M48.203 125.152c.846-1.03 2.168-1.689 3.581-2.018 1.433-.334 2.958-.331 4.198-.024a.052.052 0 0 0 .063-.039.053.053 0 0 0-.037-.065c-1.251-.373-2.807-.446-4.283-.174-1.516.279-2.943.928-3.889 1.981a.26.26 0 0 0 .02.359.24.24 0 0 0 .347-.02zM50.04 126.086a5.49 5.49 0 0 0 1.504.499c.335.062.686.1 1.048.11a5.828 5.828 0 0 0 1.048-.066 7.17 7.17 0 0 0 1.516-.407.055.055 0 0 0 .035-.067.052.052 0 0 0-.064-.037c-.363.076-.728.12-1.093.151-.245.021-.487.032-.73.039a11.87 11.87 0 0 1-1.21-.016c-.727-.048-1.402-.184-1.958-.426a.116.116 0 0 0-.155.06c-.026.06 0 .132.058.16zM39.483 129.76c.048.231.08.46.11.688a14.393 14.393 0 0 1 .107 1.598c0 .508-.05 1.015-.18 1.536-.007.023.005.048.026.055a.041.041 0 0 0 .054-.026c.163-.379.287-.756.367-1.14.056-.268.092-.535.104-.805a4.145 4.145 0 0 0-.044-.811 5.092 5.092 0 0 0-.095-.477 7.32 7.32 0 0 0-.214-.69.123.123 0 0 0-.152-.085.127.127 0 0 0-.083.157zM44.585 129.665c-.132.221-.24.444-.323.675a3.323 3.323 0 0 0-.19 1.328c.018.278.068.552.141.823.106.39.26.767.451 1.137.01.022.034.033.056.023a.045.045 0 0 0 .022-.058 5.787 5.787 0 0 1-.29-1.935 6.297 6.297 0 0 1 .085-.95c.055-.309.134-.618.265-.925a.13.13 0 0 0-.052-.171.12.12 0 0 0-.165.053zM40.747 136.575c.183.172.378.301.59.389a1.383 1.383 0 0 0 .471.095c.16-.001.319-.028.473-.081.215-.075.416-.189.605-.347a.117.117 0 0 0 .04-.156.107.107 0 0 0-.15-.04c-.13.052-.257.081-.386.104a1.873 1.873 0 0 1-.38.025c-.073 0-.146-.008-.22-.014-.073-.006-.146-.011-.22-.022a2.486 2.486 0 0 1-.265-.05 2.016 2.016 0 0 1-.402-.14.136.136 0 0 0-.193.037.147.147 0 0 0 .037.2zM41.532 134.118c.213.044.406-.002.631-.067a.854.854 0 0 0 .244-.118c.237-.152.417-.409.558-.673.299-.562.362-1.248.072-1.806-.197-.361-.524-.651-.87-.927-.25-.198-.515-.378-.655-.677-.145-.311-.184-.71.006-1.31a.11.11 0 0 0-.05-.143.104.104 0 0 0-.139.051c-.41.668-.452 1.177-.357 1.601.097.435.371.772.664 1.09.224.242.47.455.587.736.098.222.052.472-.036.7a1.624 1.624 0 0 1-.219.379c-.058.077-.123.147-.184.218-.07.079-.101.174-.176.239-.057.049-.087.109-.15.142a.284.284 0 0 0-.235.321c.02.156.159.265.309.244z" fill="#333739"/>
    <path fill-rule="evenodd" clip-rule="evenodd" d="M70.017 129.724c.532-5.058-3.231-11.123-6.742-14.259-8.129-7.261-19.897-9.668-30.718-9.33 4.982-8.738 15.568-10.174 23.727-7.802 5.721 1.664 10.89 5.75 13.733 11.3 4.696 9.166 2.467 16.25 0 20.091z" fill="#fff"/>
    <path fill-rule="evenodd" clip-rule="evenodd" d="M43.654 105.131c-2.157-.224-4.505-.335-6.82-.374 1.338-2.056 2.61-4.007 3.817-5.863a54.88 54.88 0 0 1 6.332.428c-1.06 1.888-2.155 3.723-3.329 5.809z" fill="#76151D"/>
    <path fill-rule="evenodd" clip-rule="evenodd" d="M49.59 104.031c-.368.158-.728.202-1.043.132-.757-.17-.973-.944-.516-1.763.447-.802 1.377-1.31 2.136-1.156.315.064.555.232.69.488l.007.013.912-.474-.008-.016c-.208-.442-.62-.742-1.149-.846-1.233-.24-2.768.578-3.463 1.822-.72 1.288-.353 2.568.868 2.85.53.121 1.166.03 1.788-.259l.022-.01c-.074-.265-.15-.527-.226-.788l-.018.007zm.776 1.462c.283.074.566.149.85.226.858-1.546 1.669-3.047 2.431-4.5-.28-.07-.56-.137-.842-.203a210.514 210.514 0 0 1-2.44 4.477zm5.12-.467c.017-.064.036-3.32.02-3.323a57.316 57.316 0 0 0-.823-.227A227.002 227.002 0 0 1 52.264 106c.285.082.57.166.854.252.51-.937 1.003-1.859 1.48-2.766.014.141-.015 3.277-.027 3.27.001-.006 2.813-2.237 2.936-2.327-.466.917-.946 1.849-1.44 2.792.286.103.572.208.859.315a260.46 260.46 0 0 0 2.325-4.608c-.273-.102-.546-.2-.819-.296 0-.006-2.883 2.338-2.946 2.394zm4.579 2.749c-.28-.122-.56-.241-.84-.358.184-.37.367-.738.547-1.105.278.116.556.235.833.357.39.173.392.519.264.784-.13.269-.41.494-.804.322zm.606-3.308c.257.108.513.22.77.333.323.143.426.418.278.731-.15.314-.433.414-.759.27a71.755 71.755 0 0 0-.775-.334c.164-.334.326-.668.486-1zm.974 2.129a1.22 1.22 0 0 0 .936-.708c.367-.784.104-1.516-.692-1.872a45.758 45.758 0 0 0-1.664-.701 253.229 253.229 0 0 1-2.295 4.619c.598.236 1.195.484 1.792.743.817.353 1.578.064 1.983-.782.299-.628.103-1.074-.06-1.299z" fill="#7D170F"/>
    <path fill-rule="evenodd" clip-rule="evenodd" d="M40.841 99.836c1.15.03 2.287.095 3.412.194.209.657.417 1.336.625 2.037-.975.629-1.97 1.276-2.985 1.943a53.828 53.828 0 0 0-3.578-.228c.994-.701 1.968-1.383 2.923-2.046a140.98 140.98 0 0 0-.397-1.9z" fill="#E6292B"/>
    <path fill-rule="evenodd" clip-rule="evenodd" d="M44.879 102.067c-.208-.701-.417-1.38-.625-2.037a55.39 55.39 0 0 0-3.412-.194c.133.615.265 1.248.396 1.9" fill="#fff"/>
    <mask id="n" style="mask-type:alpha" maskUnits="userSpaceOnUse" x="32" y="97" width="41" height="33">
        <path fill-rule="evenodd" clip-rule="evenodd" d="M32.557 106.135c10.821-.337 22.588 2.069 30.718 9.329 3.51 3.137 7.274 9.202 6.741 14.26 2.468-3.84 4.697-10.926 0-20.091-2.841-5.55-8.011-9.637-13.732-11.3a25.827 25.827 0 0 0-7.152-1.02c-6.43 0-12.97 2.5-16.575 8.822z" fill="#fff"/>
    </mask>
    <g mask="url(#n)">
        <path fill-rule="evenodd" clip-rule="evenodd" d="M63.264 99.773c4.28 5.851 5.041 11.908.207 17.298 3.47 3.463 6.33 7.621 6.904 12.715 6.813-7.067 8.757-20.317.754-27.254-1.914-1.658-5.66-1.742-7.865-2.759z" fill="#C9C6C6"/>
    </g>
    <path clip-rule="evenodd" d="M70.017 129.724c.532-5.058-3.231-11.123-6.742-14.259-8.129-7.261-19.897-9.668-30.718-9.33 4.982-8.738 15.568-10.174 23.727-7.802 5.721 1.664 10.89 5.75 13.733 11.3 4.696 9.166 2.467 16.25 0 20.091z" stroke="#333739" stroke-width=".492" stroke-linecap="round" stroke-linejoin="round"/>
    <path fill-rule="evenodd" clip-rule="evenodd" d="M64.814 117.102c-3.949 1.521-11.17-3.419-14.443-5.437-5.558-3.424-11.584-5.848-17.814-5.53 8.765-1.223 18.392.932 25.99 5.53 2.186 1.323 4.585 3.455 6.267 5.437z" fill="#fff"/>
    <mask id="o" style="mask-type:alpha" maskUnits="userSpaceOnUse" x="32" y="105" width="33" height="13">
        <path fill-rule="evenodd" clip-rule="evenodd" d="M32.559 106.138c6.23-.317 12.257 2.106 17.814 5.531 3.273 2.018 10.494 6.959 14.443 5.436-1.683-1.982-4.08-4.113-6.267-5.436-6.186-3.745-13.717-5.868-21.032-5.868-1.671 0-3.33.11-4.958.337z" fill="#fff"/>
    </mask>
    <g mask="url(#o)">
        <path fill-rule="evenodd" clip-rule="evenodd" d="M50.072 111.637c4.117 1.877 8.576 2.435 13.023 2.593 1.557.055 5.373 4.312 2.427 5.728-1.3.625-2.897.457-4.237.069-4.17-1.209-7.948-5.671-11.213-8.39z" fill="#C9C6C6"/>
    </g>
    <path clip-rule="evenodd" d="M64.816 117.102c-3.949 1.521-11.17-3.419-14.444-5.437-5.557-3.424-11.583-5.848-17.813-5.53 8.765-1.223 18.392.932 25.99 5.53 2.186 1.323 4.584 3.455 6.267 5.437z" stroke="#333739" stroke-width=".492" stroke-linecap="round" stroke-linejoin="round"/>
    <path fill-rule="evenodd" clip-rule="evenodd" d="M62.977 115.036c.856-1.237 1.556-2.937 1.937-4.759.236-1.127.355-2.301.31-3.436a10.392 10.392 0 0 0-.204-1.724 8.16 8.16 0 0 0-.314-1.115 6.807 6.807 0 0 0-.627-1.297 5.683 5.683 0 0 0-.902-1.101.086.086 0 0 0-.123 0 .093.093 0 0 0 0 .128c.374.429.669.917.908 1.444.23.51.4 1.057.522 1.63.094.441.16.897.197 1.362.056.678.055 1.375.001 2.074-.185 2.43-.994 4.878-2.105 6.498a.26.26 0 0 0 .057.355.24.24 0 0 0 .343-.059z" fill="#333739"/>
    <path fill-rule="evenodd" clip-rule="evenodd" d="M64.209 146.981c1.579-1.702 2.464-4.935 1.63-10.491-.76-5.069-.514-7.69 2.101-12.177 1.343-2.302 3.434-4.032 4.683-6.384.335-.63.709-2.394 1.666-1.783.398.255.578.776.686 1.222.92 3.813-2.663 6.749-3.454 10.166-.818 3.525 1.58 6.945 2.34 10.273.552 2.418.594 4.864.19 7.212-1.265.846-2.656 1.518-4.265 1.899-1.997.474-3.954.567-5.577.063z" fill="#E62B31"/>
    <mask id="p" style="mask-type:alpha" maskUnits="userSpaceOnUse" x="64" y="116" width="12" height="32">
        <path fill-rule="evenodd" clip-rule="evenodd" d="M72.621 117.929c-1.25 2.351-3.34 4.082-4.682 6.384-2.616 4.486-2.862 7.108-2.102 12.177.834 5.555-.051 8.788-1.63 10.49 1.623.504 3.58.411 5.577-.062 1.61-.383 3-1.053 4.264-1.899a18.36 18.36 0 0 0-.188-7.211c-.76-3.329-3.158-6.75-2.341-10.275.792-3.417 4.373-6.353 3.454-10.167-.108-.444-.288-.966-.686-1.22a.704.704 0 0 0-.38-.126c-.683 0-.999 1.37-1.285 1.909z" fill="#fff"/>
    </mask>
    <g mask="url(#p)">
        <path fill-rule="evenodd" clip-rule="evenodd" d="M74.1 116.116c.387 4.542-3.419 8.325-4.276 12.65a14.175 14.175 0 0 0-.212 4.136c.58 5.865 3.404 14.405-5.54 14.258 1.843 3.922 10.835 4.185 12.3-.075 1.092-3.176.04-7.683.13-11.001.136-4.915 1.397-9.715 1.187-14.657-.003-.092-.009-.182-.014-.273-.075-1.259-.273-2.708-.731-3.889-.42-1.078-2.194-2.885-2.845-1.149z" fill="#BB1818"/>
    </g>
    <mask id="q" style="mask-type:alpha" maskUnits="userSpaceOnUse" x="64" y="116" width="12" height="32">
        <path fill-rule="evenodd" clip-rule="evenodd" d="M72.621 117.929c-1.25 2.351-3.34 4.082-4.682 6.384-2.616 4.486-2.862 7.108-2.102 12.177.834 5.555-.051 8.788-1.63 10.49 1.623.504 3.58.411 5.577-.062 1.61-.383 3-1.053 4.264-1.899a18.36 18.36 0 0 0-.188-7.211c-.76-3.329-3.158-6.75-2.341-10.275.792-3.417 4.373-6.353 3.454-10.167-.108-.444-.288-.966-.686-1.22a.704.704 0 0 0-.38-.126c-.683 0-.999 1.37-1.285 1.909z" fill="#fff"/>
    </mask>
    <g mask="url(#q)">
        <path fill-rule="evenodd" clip-rule="evenodd" d="M73.373 116.277c-.319 3.115-2.287 5.248-3.98 7.669-1.014 1.446-1.86 3.133-2.373 4.843-.316 1.046-.585 2.14-.604 3.244-.079 4.528 2.38 11.162-1.951 14.419.072-2.005.32-3.991.307-6.001-.028-4.169-.766-7.902.586-12.017 1.564-4.763 5.23-8.176 8.015-12.157z" fill="#F190AE"/>
    </g>
    <path clip-rule="evenodd" d="M64.207 146.981c1.579-1.702 2.464-4.935 1.63-10.491-.76-5.069-.514-7.69 2.101-12.177 1.343-2.302 3.435-4.032 4.683-6.384.335-.63.709-2.394 1.666-1.783.398.255.578.776.686 1.222.92 3.813-2.663 6.749-3.454 10.166-.818 3.525 1.58 6.945 2.34 10.273.552 2.418.594 4.864.19 7.212-1.265.846-2.656 1.518-4.265 1.899-1.997.474-3.954.567-5.577.063z" stroke="#333739" stroke-width=".492" stroke-linecap="round" stroke-linejoin="round"/>
    <path fill-rule="evenodd" clip-rule="evenodd" d="m50.146 171.301-14.127 6.336v1.881l13.83-7.436a.573.573 0 0 0 .297-.504v-.277z" fill="#5B5959"/>
    <path clip-rule="evenodd" d="m50.146 171.301-14.127 6.336v1.881l13.83-7.436a.573.573 0 0 0 .297-.504v-.277z" stroke="#333739" stroke-width=".393" stroke-linecap="round" stroke-linejoin="round"/>
    <path fill-rule="evenodd" clip-rule="evenodd" d="m14.662 170.264 21.358 9.252v-1.881l-21.358-9.276v1.905z" fill="#5B5959"/>
    <path clip-rule="evenodd" d="m14.662 170.264 21.358 9.252v-1.881l-21.358-9.276v1.905z" stroke="#333739" stroke-width=".393" stroke-linecap="round" stroke-linejoin="round"/>
    <path d="m37.701 177.769.91-.451M39.473 176.89l.91-.451" stroke="#333739" stroke-width=".393" stroke-linecap="round" stroke-linejoin="round"/>
    <path fill-rule="evenodd" clip-rule="evenodd" d="m50.148 171.301-14.127 6.336-21.359-9.276 15.62-5.099 19.866 8.039z" fill="#908F8F"/>
    <path clip-rule="evenodd" d="m50.148 171.301-14.127 6.336-21.359-9.276 15.62-5.099 19.866 8.039z" stroke="#333739" stroke-width=".393" stroke-linecap="round" stroke-linejoin="round"/>
    <path fill-rule="evenodd" clip-rule="evenodd" d="m41.2 172.754-6.864 2.851-14.975-6.529 7.4-2.404 14.439 6.082z" fill="#333739"/>
    <path clip-rule="evenodd" d="m41.2 172.754-6.864 2.851-14.975-6.529 7.4-2.404 14.439 6.082z" stroke="#333739" stroke-width=".393" stroke-linecap="round" stroke-linejoin="round"/>
    <path d="m41.2 171.137-8.104 3.42M40.154 173.901l-8.092-3.452M38.374 175.358l-8.093-3.452M39.004 170.211l-8.106 3.421M36.456 169.426l-8.104 3.42" stroke="#908F8F" stroke-width=".393" stroke-linecap="round" stroke-linejoin="round"/>
    <path d="m40.626 168.133-6.26-2.539-3.741 1.552" stroke="#5B5959" stroke-width=".393" stroke-linecap="round" stroke-linejoin="round"/>
    <path d="m40.625 168.133-4.191 1.884" stroke="#C7C4C4" stroke-width=".393" stroke-linecap="round" stroke-linejoin="round"/>
    <path fill-rule="evenodd" clip-rule="evenodd" d="m9.716 149.789 21.11 8.273c.564.221.984.722 1.115 1.331l4.08 18.899a2.076 2.076 0 0 1-1.694.008l-19.667-8.635a1.611 1.611 0 0 1-.912-1.105l-4.114-17.116a2.949 2.949 0 0 1 .082-1.655z" fill="#9B9A9A"/>
    <mask id="r" style="mask-type:alpha" maskUnits="userSpaceOnUse" x="9" y="149" width="28" height="30">
        <path fill-rule="evenodd" clip-rule="evenodd" d="m9.634 151.448 4.114 17.116c.12.496.457.905.912 1.105l19.667 8.635a2.076 2.076 0 0 0 1.693-.008l-4.08-18.899a1.834 1.834 0 0 0-1.114-1.331l-21.11-8.273a2.949 2.949 0 0 0-.082 1.655z" fill="#fff"/>
    </mask>
    <g mask="url(#r)">
        <path fill-rule="evenodd" clip-rule="evenodd" d="m13.765 168.714.693.83-4.463-18.218a.216.216 0 0 1 .062-.209.196.196 0 0 1 .206-.039l20.184 7.937a.397.397 0 0 0 .472-.148c.02-.031.041-.062.063-.092a.432.432 0 0 0 .058-.364.41.41 0 0 0-.241-.27l-21.07-8.391-.226.884a.853.853 0 0 0-.002.41l4.264 17.67z" fill="#C7C4C4"/>
    </g>
    <mask id="s" style="mask-type:alpha" maskUnits="userSpaceOnUse" x="9" y="149" width="28" height="30">
        <path fill-rule="evenodd" clip-rule="evenodd" d="m9.634 151.448 4.114 17.116c.12.496.457.905.912 1.105l19.667 8.635a2.076 2.076 0 0 0 1.693-.008l-4.08-18.899a1.834 1.834 0 0 0-1.114-1.331l-21.11-8.273a2.949 2.949 0 0 0-.082 1.655z" fill="#fff"/>
    </mask>
    <g mask="url(#s)">
        <path fill-rule="evenodd" clip-rule="evenodd" d="M31.797 158.732a.147.147 0 0 0-.109-.112.14.14 0 0 0-.143.057l-.394.55c-.19.267-.26.607-.188.931l3.972 18.175h1.139l-4.276-19.601z" fill="#C7C4C4"/>
    </g>
    <path clip-rule="evenodd" d="m9.716 149.789 21.11 8.273c.564.221.984.722 1.115 1.331l4.08 18.899a2.076 2.076 0 0 1-1.694.008l-19.667-8.635a1.611 1.611 0 0 1-.912-1.105l-4.114-17.116a2.949 2.949 0 0 1 .082-1.655z" stroke="#333739" stroke-width=".393" stroke-linecap="round" stroke-linejoin="round"/>
    <path opacity=".6" d="m83.627 70.18 1.389-7.536H83.23l-1.388 7.536h1.784z" fill="#333739"/>
    <path opacity=".4" d="m66.968 57.094-2.975-47.2s-2.719.48-3.966 1.587c-.788.7-1.587 2.181-1.587 2.181s2.579 45.414 3.174 47.2c.595 1.785 2.38 1.983 2.38 1.983h67.03l1.388-5.751H66.968z" fill="#333739"/>
    <path opacity=".3" d="M117.539 73.753v-3.57H77.083v3.57h40.456zM101.278 70.181l.992-7.337H84.62l-1.19 7.337h17.848z" fill="#333739"/>
    <path opacity=".6" d="m101.873 66.412.397-3.768H84.62l-.397 3.768h17.65z" fill="#333739"/>
    <path d="m132.412 61.258-2.578-48.39s0-2.777-1.587-3.173c-1.586-.395-64.254-.001-65.047 0-.793.002-2.38.792-2.776 1.984-.397 1.191 2.38 46.999 2.776 47.794.397.794 1.19 1.588 2.578 1.785 1.388.196 66.634 0 66.634 0z" fill="#D5D6D7"/>
    <path d="m127.798 54.863-2.477-38.671a.793.793 0 0 0-.792-.743H67.203a.793.793 0 0 0-.793.829l1.715 38.671a.793.793 0 0 0 .793.758h58.088a.794.794 0 0 0 .792-.844z" fill="#fff"/>
    <path d="m69.886 52.615-1.266-32.92a1.586 1.586 0 0 1 1.585-1.648h19.053c.846 0 1.543.663 1.585 1.508l1.627 32.92a1.587 1.587 0 0 1-1.584 1.665H71.472a1.586 1.586 0 0 1-1.586-1.525z" fill="#FFAB00"/>
    <rect x="85.068" y="29.953" width="12.692" height="1.19" rx=".595" transform="rotate(130.024 85.068 29.953)" fill="#fff"/>
    <rect x="76.721" y="29.352" width="12.692" height="1.19" rx=".595" transform="rotate(44.093 76.72 29.352)" fill="#fff"/>
    <path d="m93.283 24.262-.264-4.76a1.19 1.19 0 0 1 1.188-1.256h3.963a1.19 1.19 0 0 1 1.188 1.124l.264 4.76a1.19 1.19 0 0 1-1.188 1.255h-3.962a1.19 1.19 0 0 1-1.189-1.123zM93.68 32.59l-.265-4.76a1.19 1.19 0 0 1 1.188-1.256h3.963a1.19 1.19 0 0 1 1.188 1.124l.265 4.76a1.19 1.19 0 0 1-1.188 1.256h-3.963a1.19 1.19 0 0 1-1.188-1.124zM94.076 40.918l-.264-4.76A1.19 1.19 0 0 1 95 34.902h3.963a1.19 1.19 0 0 1 1.188 1.124l.264 4.76a1.19 1.19 0 0 1-1.188 1.256h-3.963a1.19 1.19 0 0 1-1.188-1.124zM94.473 49.25l-.265-4.76a1.19 1.19 0 0 1 1.189-1.256h3.962a1.19 1.19 0 0 1 1.188 1.124l.265 4.76a1.19 1.19 0 0 1-1.188 1.256H95.66a1.19 1.19 0 0 1-1.188-1.124z" fill="#FFAB00"/>
    <path opacity=".3" d="M101.06 18.982a.595.595 0 0 1 .578-.736h20.629a.595.595 0 0 1 0 1.19h-20.629a.595.595 0 0 1-.578-.454zM101.457 21.756a.595.595 0 0 1 .578-.736h20.628a.596.596 0 0 1 0 1.19h-20.628a.595.595 0 0 1-.578-.454zM101.853 24.533a.595.595 0 0 1 .578-.736h20.629a.594.594 0 0 1 0 1.19h-20.629a.595.595 0 0 1-.578-.454zM102.25 26.912a.595.595 0 0 1 .578-.736h20.628a.596.596 0 1 1 0 1.19h-20.628a.595.595 0 0 1-.578-.454zM102.646 29.69a.595.595 0 0 1 .578-.737h20.629a.595.595 0 0 1 0 1.19h-20.629a.595.595 0 0 1-.578-.454zM103.043 32.068a.595.595 0 0 1 .578-.736h20.628a.596.596 0 0 1 0 1.19h-20.628a.595.595 0 0 1-.578-.454z" fill="#333739"/>
    <path d="m132.772 46.596-.534-4.58s-3.139-.038-3.931-.664c-.647-.508-2.009-2.995-2.478-3.913a7.672 7.672 0 0 1-.181-.351l-1.168-5.672-.454-3.738c.165-.88.383-1.749.651-2.601.339-1.125.863-2.18 1.549-3.118a7.176 7.176 0 0 1 2.2-1.75s1.779-1.203 3.205-1.389a5.958 5.958 0 0 1 2.901.108c1.029.234 2.029.585 2.983 1.048.541.191 1.057.45 1.538.771a14.606 14.606 0 0 1 2.244 2.62c.435.7.697 1.5.764 2.331l.379 3.142c.085.695-.573 3.213-.937 4.232-.364 1.02-.389 1.68-.657 2.518-.332 1.027-.718 2.035-.718 2.035-.18.48-.283.987-.303 1.502l.46 3.822.231 1.91.173 1.44-7.902 1.03-.015-.733z" fill="#FFDDC5"/>
    <path d="m134.531 39.196 6.184-.675 1.622-6.53s1.527-5.304 1.626-6.526a8.664 8.664 0 0 0-.416-3.474 4.3 4.3 0 0 0-1.222-2.15 10.159 10.159 0 0 0-3.076-1.537 21.553 21.553 0 0 0-2.486-.647 28.517 28.517 0 0 0-3.379-.046l-3.422.45-2.555.333-1.408-.057-.745-.146-.527-.428-.421.543-.364 1.02-.359 1.02s-.358 1.055-.361 1.04c-.003-.016.194 1.627.194 1.627.228.376.437.763.627 1.16.33.689 1.269.564 1.543.772.477.174.976.273 1.481.294l1.486.296.476-.062.113.953-.623.813-.413.726-.366.882.426 1.616.055.495s1.841-2.422 2.336-2.487c.481.023.939.221 1.293.56.243.235.433.522.555.842.122.32.174.664.152 1.008-.209.778-.471 1.54-.782 2.28l-.285.767 3.065 5.422" fill="#333739"/>
    <path d="M107.823 80.515c1.926-.607 4.363-2.776 4.363-2.776l-2.777-2.578-3.57-4.165s-.793 1.587-1.388 1.983c-.595.397-15.468 0-15.468 0s-3.207-.422-3.768.992c-.257.648 0 1.785 0 1.785l5.354.396 8.726 3.173s5.321 2.202 8.528 1.19zM115.953 142.391l.397-3.173-7.933-1.984-1.983 3.768 9.519 1.389z" fill="#FFDDC5"/>
    <path d="M115.755 145.761c.158-.159.462-4.429.595-6.544 0 0-1.427 1.321-2.578 1.586-1.378.318-2.389.181-3.57-.595-1.222-.802-1.983-3.173-1.983-3.173s-1.973 2.023-3.57 2.777c-1.58.746-2.667.569-4.363.991-2.498.622-4.844-.306-6.346 1.785-.715.994-.992 2.975-.992 2.975 7.536.132 22.648.357 22.807.198z" fill="#333739"/>
    <path d="m94.681 142.885.448-3.583-8.958-2.24-2.24 4.256 10.75 1.567z" fill="#FFDDC5"/>
    <path d="M94.457 146.694c.18-.179.523-5.002.672-7.391 0 0-1.61 1.492-2.912 1.792-1.555.359-2.697.204-4.03-.672-1.38-.906-2.24-3.583-2.24-3.583s-2.228 2.284-4.032 3.135c-1.784.843-3.012.643-4.927 1.12-2.82.702-5.47-.345-7.166 2.016-.807 1.123-1.12 3.359-1.12 3.359 8.51.149 25.576.403 25.755.224z" fill="#333739"/>
    <path d="m131.818 92.02-.396 8.726v3.569l-7.933.992-5.553 33.912s-2.68.268-4.363 0c-2.301-.366-5.552-2.182-5.552-2.182l4.362-31.73s-9.519-1.983-10.114-.992c-.595.992-6.346 34.904-6.346 34.904s-3.437.476-5.553 0c-1.994-.449-4.76-2.182-4.76-2.182s4.76-37.878 7.14-41.646c2.38-3.768 5.553-4.164 5.553-4.164l33.515.793z" fill="#333739"/>
    <path opacity=".9" d="m131.62 100.744 18.642-.396s-.992 4.164-5.156 5.156c-4.165.991-43.63 3.57-43.63 3.57l-5.553 30.143s-1.983.595-5.552 0c-3.57-.594-4.76-2.181-4.76-2.181s4.76-.199 5.553-.595c.793-.396 4.363-28.954 4.76-30.937.396-1.983 1.586-3.173 2.776-3.173 1.19 0 29.549.198 30.54 0 .992-.199 2.38-1.587 2.38-1.587z" fill="#333739"/>
    <path d="M154.976 71.312s3.768-3.173 4.363-5.156c.595-1.983-4.76-13.287-6.346-16.857-1.587-3.57-2.975-4.76-5.355-5.75-2.38-.992-6.742-.992-6.742-.992s-2.13.855-3.57.991c-2.193.207-5.553-.992-5.553-.992s-8.726-.793-12.494 1.785c-3.768 2.579-14.477 26.971-14.477 26.971 1.19 4.562 9.321 7.536 9.321 7.536l4.363-5.156s-1.19 12.097 0 20.228c1.19 8.131 8.131 8.726 12.692 8.924 4.561.199 18.84-.595 18.84-.595s.272-1.477.595-2.38c.199-.555.198 0 .595-1.388.397-1.388.991-24.789.991-24.789l2.777-2.38z" fill="#F66"/>
    <path d="M122.65 64.77s-1.784 4.56-4.164 8.329l-.397 11.502s2.259-6.322 3.173-10.51c.785-3.596 1.388-9.322 1.388-9.322zM156.959 67.346s-4.76-18.84-3.966-13.486c.793 5.355-1.19 13.882-1.19 13.882l5.156-.396z" fill="#900"/>
    <path d="m165.137 148.515-7.536-38.671-1.785.595 7.338 38.076h1.983z" fill="#333739"/>
    <path d="M161.766 148.514h1.388l-7.337-38.076-1.389.198 7.338 37.878zM161.766 93.78l1.388-.198s-.352 5.857-1.19 9.519c-.339 1.483-.494 2.415-1.189 3.768-.581 1.13-1.984 2.578-1.984 2.578s-.534-1.084-.396-1.785c0 0 .808-.912 1.19-1.586.676-1.194.661-2.039.991-3.371.846-3.413 1.19-8.925 1.19-8.925z" fill="#333739"/>
    <path d="m166.371 92.73 3.303-21.542s.619-5.129-4.542-6.36c0 0-25.405-.396-27.872 0-2.466.396-2.822 1.32-3.854 3.371-1.033 2.052-2.777 21.022-3.372 23.005-.595 1.984 8.465 3.372 20.439 3.372 11.975 0 15.898-1.847 15.898-1.847z" fill="#333739"/>
    <path d="m131.487 92.642 1.568-.224s-.398 6.613-1.344 10.747c-.383 1.675-.558 2.727-1.343 4.255-.656 1.275-2.239 2.91-2.239 2.91s-.603-1.224-.448-2.015c0 0 .913-1.03 1.343-1.791.764-1.348.747-2.302 1.12-3.806.955-3.853 1.343-10.076 1.343-10.076z" fill="#333739"/>
    <path d="M133.055 102.719c.937-4.036 1.343-10.524 1.343-10.524l-1.343.224s-.381 6.225-1.343 10.076c-.557 2.227-.581 3.648-1.792 5.598-.59.951-1.791 2.239-1.791 2.239.546.437 1.147.271 1.791 0 .743-.313.896-1.12 1.344-1.568.448-.447 1.234-3.646 1.791-6.045z" fill="#333739"/>
    <path d="m166.326 92.791 3.173-20.823s.595-4.958-4.363-6.147c0 0-24.987-.397-26.772 0-1.785.396-2.182.793-3.173 2.776-.992 1.983-3.768 23.996-3.768 23.996 5.354 1.784 8.131 1.983 19.633 1.983 11.502 0 15.27-1.784 15.27-1.784z" fill="#7B7D7E"/>
    <path d="M163.154 102.708c.829-3.575 1.19-9.321 1.19-9.321l-1.19.198s-.338 5.513-1.19 8.924c-.493 1.972-.514 3.231-1.587 4.958-.523.843-1.586 1.983-1.586 1.983.484.387 1.015.241 1.586 0 .659-.277.794-.991 1.19-1.388.397-.397 1.094-3.23 1.587-5.354z" fill="#333739"/>
    <path d="M159.585 106.075c-.466-.513-1.587-.794-1.587-.794h-28.359s-1.344 1.039-1.785 1.983c-.756 1.62.397 4.562.397 4.562s11.261.535 18.443 0c7.183-.535 11.905-1.653 12.494-2.38.59-.727 1.136-1.257.992-2.182-.08-.513-.246-.805-.595-1.189z" fill="#333739"/>
    <path d="M159.188 109.446c.59-.727 1.136-1.257.992-2.182 0 0-12.596 3.928-20.427 2.182-4.169-.93-10.114-4.165-10.114-4.165s-1.344 1.039-1.785 1.983c-.756 1.62.397 4.562.397 4.562s11.261.535 18.443 0c7.183-.535 11.905-1.653 12.494-2.38z" fill="#7B7D7E"/>
    <path d="m127.258 148.319 5.553-36.292h-2.38l-5.156 36.292h1.983z" fill="#333739"/>
    <path d="M128.647 112.027h1.785l-5.157 36.292-1.189-.198 4.561-36.094z" fill="#333739"/>
    <path d="M103.858 105.282c3.569-.793 25.781 0 25.781 0l-.992 6.941H97.512c-.595-5.354 2.776-6.147 6.346-6.941z" fill="#7B7D7E"/>
    <path opacity=".7" d="M114.765 108.459c5.674-.253 13.882.198 14.477 1.388.595 1.19-.595 2.38-.595 2.38H97.511s10.364-3.461 17.254-3.768z" fill="#333739"/>
    <path d="M134.795 148.517h-2.182l-5.552-39.266s-.199-1.984-1.984-2.182c-1.784-.198-5.552-.397-5.552-.397s5.552-.396 7.139.199c1.587.595 1.983 2.38 1.983 2.38l6.148 39.266z" fill="#333739"/>
    <path d="M131.423 148.516h1.19s-4.958-35.101-5.354-38.473c-.397-3.371-1.19-3.283-7.536-3.371-6.346-.088-13.486 0-16.064 0-2.578 0-2.578 2.38-2.578 2.38l-5.751 39.464h1.388s5.063-34.903 5.355-36.688c.292-1.785.198-2.777 1.586-3.371 1.388-.595 19.435 0 20.625 0 1.19-.001 1.785.991 1.785 1.586 0 .596 5.354 38.473 5.354 38.473z" fill="#333739"/>
    <path d="M105.642 108.457c1.19-.109 8.924-.199 8.924-.199s-9.519-.396-10.51 0c-.992.397-1.389.793-1.785 2.182-.397 1.388-5.553 38.076-5.553 38.076l1.983.199s5.156-37.085 5.355-38.077c.198-.992.396-2.073 1.586-2.181z" fill="#333739"/>
</svg>
