<svg width="273" height="154" viewBox="0 0 273 154" fill="none" xmlns="http://www.w3.org/2000/svg">
    <path opacity=".6" d="m96.518 144.413 3.199-17.366h-4.113l-3.2 17.366h4.114z" fill="#333739"/>
    <path opacity=".4" d="M58.128 114.25 51.273 5.48s-6.266 1.103-9.14 3.657c-1.816 1.612-3.657 5.027-3.657 5.027s5.941 104.656 7.313 108.77c1.37 4.114 5.484 4.57 5.484 4.57h154.471l3.199-13.254H58.128z" fill="#333739"/>
    <path opacity=".3" d="M174.668 152.636v-8.226H81.437v8.226h93.231z" fill="#333739"/>
    <path opacity=".3" d="m137.191 144.414 2.286-16.91H98.802l-2.742 16.91h41.131z" fill="#333739"/>
    <path opacity=".6" d="m138.563 135.73.914-8.683H98.802l-.914 8.683h40.675z" fill="#333739"/>
    <path d="m208.943 123.843-5.941-111.512s0-6.402-3.656-7.312c-3.656-.91-148.073-.004-149.901 0-1.828.003-5.484 1.824-6.399 4.57-.914 2.746 5.485 108.309 6.399 110.141.914 1.832 2.742 3.66 5.94 4.113 3.2.453 153.558 0 153.558 0z" fill="#D5D6D7"/>
    <path d="M198.307 109.107 192.6 19.989a1.828 1.828 0 0 0-1.824-1.712H58.667a1.828 1.828 0 0 0-1.826 1.91l3.951 89.118a1.828 1.828 0 0 0 1.826 1.747h133.865a1.828 1.828 0 0 0 1.824-1.945z" fill="#fff"/>
    <path d="M64.85 103.927 61.93 28.062a3.656 3.656 0 0 1 3.654-3.796h43.906a3.656 3.656 0 0 1 3.652 3.475l3.751 75.865a3.656 3.656 0 0 1-3.651 3.837h-44.74a3.656 3.656 0 0 1-3.654-3.516zM118.768 38.585l-.609-10.968a2.742 2.742 0 0 1 2.738-2.894h9.132a2.741 2.741 0 0 1 2.737 2.59l.61 10.968a2.742 2.742 0 0 1-2.738 2.894h-9.132a2.743 2.743 0 0 1-2.738-2.59zM119.68 57.78l-.609-10.968a2.742 2.742 0 0 1 2.738-2.894h9.132a2.743 2.743 0 0 1 2.738 2.59l.609 10.968a2.743 2.743 0 0 1-2.738 2.895h-9.132a2.743 2.743 0 0 1-2.738-2.59zM120.596 76.972l-.609-10.968a2.742 2.742 0 0 1 2.738-2.895h9.132a2.743 2.743 0 0 1 2.738 2.59l.609 10.969a2.743 2.743 0 0 1-2.738 2.894h-9.132a2.743 2.743 0 0 1-2.738-2.59zM121.51 96.167l-.609-10.968a2.742 2.742 0 0 1 2.738-2.894h9.132a2.743 2.743 0 0 1 2.738 2.59l.609 10.968a2.743 2.743 0 0 1-2.738 2.894h-9.132a2.743 2.743 0 0 1-2.738-2.59z" fill="#CECED0"/>
    <path opacity=".3" d="M136.693 26.419a1.37 1.37 0 0 1 1.332-1.696h47.538a1.371 1.371 0 1 1 0 2.742h-47.538a1.371 1.371 0 0 1-1.332-1.046zM137.607 32.817a1.371 1.371 0 0 1 1.332-1.696h47.538a1.371 1.371 0 1 1 0 2.742h-47.538a1.371 1.371 0 0 1-1.332-1.046zM138.519 39.212a1.371 1.371 0 0 1 1.332-1.696h47.538a1.371 1.371 0 1 1 0 2.742h-47.538a1.371 1.371 0 0 1-1.332-1.046zM139.433 44.696A1.372 1.372 0 0 1 140.765 43h47.538a1.371 1.371 0 1 1 0 2.742h-47.538a1.371 1.371 0 0 1-1.332-1.046zM140.347 51.094a1.372 1.372 0 0 1 1.332-1.696h47.538a1.371 1.371 0 1 1 0 2.742h-47.538a1.371 1.371 0 0 1-1.332-1.046zM141.263 56.579a1.372 1.372 0 0 1 1.332-1.696h47.538a1.371 1.371 0 1 1 0 2.742h-47.538a1.371 1.371 0 0 1-1.332-1.046z" fill="#333739"/>
    <path d="M95.546 40.203c.106-.85.186-1.715.186-2.592s-.08-1.741-.186-2.592l5.625-4.4a1.324 1.324 0 0 0 .319-1.702l-5.32-9.213c-.332-.571-1.023-.81-1.622-.571l-6.623 2.672a20.185 20.185 0 0 0-4.495-2.62l-.998-7.045a1.368 1.368 0 0 0-1.33-1.117H70.464c-.665 0-1.21.492-1.316 1.117l-.998 7.046a19.688 19.688 0 0 0-4.495 2.619l-6.623-2.672c-.599-.226-1.29 0-1.623.571l-5.32 9.213a1.331 1.331 0 0 0 .32 1.701l5.612 4.4c-.106.852-.186 1.716-.186 2.593s.08 1.742.186 2.592l-5.612 4.4a1.325 1.325 0 0 0-.32 1.702l5.32 9.213c.333.571 1.024.81 1.623.571l6.623-2.672a20.183 20.183 0 0 0 4.495 2.62l.998 7.045a1.343 1.343 0 0 0 1.316 1.117h10.64c.665 0 1.21-.492 1.316-1.117l.998-7.046a19.682 19.682 0 0 0 4.495-2.619l6.623 2.672c.598.226 1.29 0 1.622-.571l5.32-9.213a1.331 1.331 0 0 0-.319-1.701l-5.612-4.4zm-19.763 6.714a9.3 9.3 0 0 1-9.31-9.306 9.3 9.3 0 0 1 9.31-9.306 9.3 9.3 0 0 1 9.31 9.306 9.3 9.3 0 0 1-9.31 9.306z" fill="#FFAB00"/>
    <path d="m94.85 33.19.08-.062 5.625-4.4c.435-.343.564-.963.275-1.472h-.001l-5.319-9.212a1.138 1.138 0 0 0-1.401-.496l-6.623 2.672-.095.038-.08-.062a20.003 20.003 0 0 0-4.456-2.596l-.093-.039-.015-.1-.996-7.041a1.19 1.19 0 0 0-1.154-.968h-10.64c-.573 0-1.047.424-1.14.966l-.997 7.043-.014.1-.094.04a19.508 19.508 0 0 0-4.455 2.595l-.08.063-.096-.039-6.62-2.671a1.152 1.152 0 0 0-1.404.495l-5.32 9.212a1.153 1.153 0 0 0 .277 1.473l5.61 4.4.08.062-.013.1a20.678 20.678 0 0 0-.184 2.57c0 .867.078 1.723.184 2.57l.013.1-.08.063-5.611 4.4a1.147 1.147 0 0 0-.275 1.473l5.319 9.211c.289.497.887.701 1.401.496l6.623-2.672.095-.038.08.062a20.007 20.007 0 0 0 4.456 2.596l.094.039.014.1.997 7.043c.093.542.567.966 1.14.966h10.64c.573 0 1.047-.424 1.14-.966l.997-7.043.014-.1.094-.04a19.511 19.511 0 0 0 4.454-2.595l.081-.063.096.039 6.619 2.67.002.001a1.152 1.152 0 0 0 1.403-.495l-.647-20.487zm0 0 .013.1c.106.848.184 1.704.184 2.571 0 .867-.078 1.723-.184 2.57l.177.022-.11.14 5.609 4.399h.001c.439.36.563.98.277 1.474l-5.32 9.212-.647-20.487zm-29.06 2.671a9.48 9.48 0 0 0 9.487 9.484 9.48 9.48 0 0 0 9.488-9.484 9.48 9.48 0 0 0-9.488-9.484 9.48 9.48 0 0 0-9.488 9.484z" stroke="#333739" stroke-width=".357"/>
    <path opacity=".3" fill-rule="evenodd" clip-rule="evenodd" d="M201.233 146.146s-14.39-.035-14.36.982c.09 3.443 11.397 1.427 12.331 2.462.452.5-.05 1.606.753 2.32 3.194 2.837 14.32.267 18.286.285 10.815.054 13.556 1.338 14.811 1.499 3.525.464 13.496.285 16.298.196 5.774-.178 21.298.571 20.967-2.337-.151-1.303-15.053-4.051-17.593-4.407-2.169-.304-3.665-2.106-5.613-3.176-2.732-1.481-5.724-2.391-8.666-2.944-12.321-2.356-24.964 3.193-37.214 5.12zM13.378 147.65s-13.406-.028-13.378.749c.084 2.628 10.618 1.089 11.488 1.879.421.381-.047 1.225.702 1.77 2.975 2.165 13.34.204 17.035.218 10.075.04 12.63 1.021 13.799 1.143 3.283.354 12.573.218 15.183.15 5.379-.136 19.842.436 19.533-1.784-.14-.994-14.023-3.091-16.39-3.363-2.02-.231-3.414-1.607-5.23-2.424-2.544-1.13-5.332-1.824-8.073-2.246-11.478-1.798-23.256 2.437-34.67 3.908z" fill="#333739"/>
    <path d="M72.63 55.992v1.16l-.355 2.5v-1.323l.71-.95-.71-1.204.355-.183z" fill="#fff"/>
    <path d="M38.306 21.994v-3.359s2.333-.328 2.865-.849c.439-.429 1.223-2.345 1.513-3.066.065-.164.102-.265.102-.265l.355-4.207V7.5s-.355-1.114-.719-1.816c-.355-.703-.719-1.406-1.437-2.108-.719-.703-1.792-1.05-1.792-1.05s-1.438-.703-2.511-.703c-1.074 0-1.074 0-2.156.347-1.074.347-2.157 1.05-2.157 1.05s-.718.346-1.073.702c-.355.347-1.073 1.406-1.437 2.109-.355.702-.355 1.405-.355 1.752v2.3c0 .51.719 2.263 1.073 2.966.355.702.439 1.177.719 1.752.336.712.719 1.405.719 1.405s.354.703.354 1.05v5.257h5.965l-.028-.52z" fill="#FFDDC5"/>
    <path d="m36.732 16.391-4.667.091-1.792-4.563s-1.615-3.687-1.792-4.563c-.178-.876-.178-1.406 0-2.546.177-1.141.718-1.67.718-1.67s.896-.877 2.156-1.406c1.26-.53 1.26-.53 1.793-.703.532-.173 2.51-.347 2.51-.347h4.518l1.036-.173.541-.173.355-.338.355.347.355.703.354.702s.355.73.355.721V3.67s-.177.374-.355.894c-.177.53-.896.53-1.073.703-.177.173-1.073.347-1.073.347l-1.074.347h-.355v.702l.542.53.373.483.346.566-.178 1.232v.347s-1.587-1.579-1.96-1.579-.728.347-.915.53c-.186.182-.541.876-.354 1.405.177.53.793 1.579.793 1.579l.28.53-1.792 4.206" fill="#333739"/>
    <path d="m41.828 22.45-10.781-.174v-1.378h8.447c.037 0 2.044.694 2.455 1.552" fill="#F66"/>
    <path d="m41.828 22.45-10.781-.174v-1.378h8.447c.037 0 2.044.694 2.455 1.552" stroke="#F66" stroke-width=".377" stroke-miterlimit="10"/>
    <path d="m25.135 51.11 22.103.726v27.746s-5.124 58.906-3.734 60.967h-8.4c.1-46.758-.718-51.879-.718-51.879l-.027-1.552-.019-.908-.35-19.93.35 12.03-9.758 62.239h-8.146c4.658-29.916 8.699-89.44 8.699-89.44z" fill="#333739"/>
    <path d="M33.26 29.552s6.926 1.232 7.98 1.095c1.055-.127 1.951-.246 2.726-.337.784-.1 15.102-5.01 15.102-5.01l1.858-.229 1.213-.849 2.67-1.378-1.28-4.371-2.715 1.03-1.97 2.502s-14.766 3.066-16.166 3.24c-1.4.173-7.673-1.488-7.673-1.488l-1.745 5.795zM71.696 53.893c.355.346 3.892 1.724 3.892 1.724l-1.41 3.806-2.473-.456s-3.892-.931-3.183-.584c.71.347-1.41-1.04-1.41-1.04s-10.957-5.531-12.367-6.572c-1.409-1.04-6.01-10.02-6.01-10.02l5.301-2.419s6.011 10.368 5.656 10.02c-.354-.346 8.13 5.532 9.194 5.532 1.065 0 2.455-.338 2.81.009z" fill="#FFDDC5"/>
    <path d="M22.264 70.303c15.42 3.04 26.508.694 26.508.694.71-11.061-.523-29.022-.523-29.022l.178.52 6.72-3.459-3.36-9.72s-1.241-3.075-1.941-4.106c-.71-1.04-2.829-2.072-3.893-2.419-1.064-.347-4.592-.347-4.592-.347s-6.823 0-10.211-.21" fill="#F66"/>
    <path d="m48.577 42.584-3.182-4.846 1.773 3.112 1.41 1.734zM21.816 70.605h8.401l.933-48.37-1.932.383a3.748 3.748 0 0 0-3.005 3.313l-4.397 44.674z" fill="#F66"/>
    <path d="m19.882 146.232-2.582-.029c-.01 0-.019 0-.02-.008l-.122-5.485c0-.008.008-.016.017-.016l5.719.047h.009c.08.096 2.933 3.404 8.293 4.396.769.142 1.33.617 1.341 1.167 0 .008-.008.016-.017.016l-10.732-.072" fill="#333739"/>
    <path d="m17.19 140.544 5.685.046 1.443 1.441s-1.438 1.073-3.275 1.058c-1.836-.015-3.826-.755-3.826-.755l-.043-1.773.017-.017z" fill="#FFDDC5"/>
    <path d="m39.03 146.236-2.582-.029c-.01 0-.018 0-.019-.008l-.122-5.486c-.001-.008.008-.015.017-.015l5.718.047h.01c.08.096 2.933 3.404 8.293 4.396.768.142 1.33.617 1.34 1.167.001.008-.008.016-.017.016l-10.732-.072" fill="#333739"/>
    <path d="m36.341 140.548 5.685.046 1.442 1.441s-1.438 1.073-3.274 1.058c-1.837-.015-3.826-.755-3.826-.755l-.044-1.773.017-.017z" fill="#FFDDC5"/>
    <path d="m56.626 86.73 22.766 58.317H27.615l22.246-58.273c1.336-3.508 5.404-3.53 6.765-.045z" fill="#FFAB00"/>
    <path d="M47.64 92.586h11.271l4.883 12.506H42.865l4.776-12.506zM38.35 116.922h30.063l3.957 10.137H34.484l3.865-10.137zM31.569 134.663l-3.338 8.779 50.517-.06-3.465-8.859-43.715.14z" fill="#fff"/>
    <path d="M79.97 145.047H27.019a2.41 2.41 0 1 0 0 4.821h52.95a2.411 2.411 0 1 0 0-4.821z" fill="#FFAB00"/>
    <path fill-rule="evenodd" clip-rule="evenodd" d="M223.12 120.88c-6.249.972-10.147-8.558-12.342-12.924-1.253-2.493-2.546-5.094-4.34-7.227-3.745-4.447-8.671-5.329-9.324-3.519-.549 1.516 1.457 1.437 3.501 3.45 1.131 1.115 2.345 2.847 2.664 5.435 1.17 9.494.844 12.519 4.576 19.554.887 1.671 1.866 3.371 3.205 4.712 6.43 6.438 12.659-2.158 12.06-9.481" fill="#EF383D"/>
    <mask id="a" style="mask-type:alpha" maskUnits="userSpaceOnUse" x="197" y="96" width="27" height="37">
        <path fill-rule="evenodd" clip-rule="evenodd" d="M206.438 100.73c1.794 2.134 3.087 4.734 4.34 7.226 2.195 4.368 6.093 13.898 12.342 12.925.6 7.324-5.63 15.919-12.06 9.482-1.34-1.342-2.319-3.041-3.205-4.713-3.731-7.034-3.407-10.06-4.576-19.553-.319-2.589-1.533-4.322-2.665-5.436-2.042-2.014-4.049-1.933-3.5-3.449.209-.58.854-.884 1.757-.884 1.924.001 5.02 1.376 7.567 4.402" fill="#fff"/>
    </mask>
    <g mask="url(#a)">
        <path fill-rule="evenodd" clip-rule="evenodd" d="M194.737 96.594c6.517.136 10.852 6.331 12.227 12.253.694 2.988.824 6.082 1.55 9.071 1.336 5.508 3.889 10.821 7.664 15.013-15.699-2.766-11.093-13.403-15.849-24.833-.658-1.585-1.473-3.068-2.388-4.512-1.163-1.839-3.924-4.462-3.204-6.992" fill="#BC2025"/>
    </g>
    <mask id="b" style="mask-type:alpha" maskUnits="userSpaceOnUse" x="197" y="96" width="27" height="37">
        <path fill-rule="evenodd" clip-rule="evenodd" d="M206.438 100.73c1.794 2.134 3.087 4.734 4.34 7.226 2.195 4.368 6.093 13.898 12.342 12.925.6 7.324-5.63 15.919-12.06 9.482-1.34-1.342-2.319-3.041-3.205-4.713-3.731-7.034-3.407-10.06-4.576-19.553-.319-2.589-1.533-4.322-2.665-5.436-2.042-2.014-4.049-1.933-3.5-3.449.209-.58.854-.884 1.757-.884 1.924.001 5.02 1.376 7.567 4.402" fill="#fff"/>
    </mask>
    <g mask="url(#b)">
        <path fill-rule="evenodd" clip-rule="evenodd" d="M214.765 117.532c-2.649-2.807-3.887-6.595-5.484-10.041-2.627-5.669-5.036-9.741-10.925-11.683 2.916-.345 5.222 1.147 7.287 3.105 3.55 3.367 5.965 7.594 8.354 11.841.761 1.353 2.751 4.693 2.962 6.201-.505-.12-1.689.474-2.194.577" fill="#F48EAA"/>
    </g>
    <path fill-rule="evenodd" clip-rule="evenodd" d="M223.08 120.632a.281.281 0 0 1 .205.05.243.243 0 0 1 .1.174h-.023c.361 4.409-1.713 9.263-4.809 11.168-2.199 1.355-4.917 1.266-7.667-1.487a13.36 13.36 0 0 1-1.481-1.79c-.662-.948-1.233-1.968-1.769-2.98-1.577-2.972-2.435-5.233-2.988-7.562-.761-3.213-.939-6.552-1.621-12.081a8.984 8.984 0 0 0-.842-2.872 8.852 8.852 0 0 0-1.748-2.408c-.845-.831-1.684-1.296-2.329-1.668-.485-.28-.866-.519-1.089-.798-.261-.328-.347-.71-.147-1.263.172-.475.582-.808 1.18-.96.781-.198 1.906-.083 3.174.397 1.706.646 3.68 1.95 5.408 4.002a22.145 22.145 0 0 1 1.971 2.786c.883 1.452 1.651 2.992 2.406 4.49 1.284 2.554 3.152 6.887 5.74 9.823 1.758 1.991 3.847 3.341 6.329 2.955v.024zm-.181.549c.235 4.142-1.702 8.632-4.599 10.415-2.031 1.248-4.53 1.121-7.066-1.419a12.718 12.718 0 0 1-1.425-1.725c-.65-.93-1.209-1.933-1.735-2.927-1.551-2.924-2.395-5.149-2.938-7.442-.755-3.197-.928-6.521-1.604-12.023a9.484 9.484 0 0 0-.891-3.041 9.335 9.335 0 0 0-1.85-2.55c-.881-.87-1.756-1.36-2.431-1.75-.415-.24-.751-.433-.943-.673-.155-.194-.18-.422-.063-.748.118-.325.414-.529.823-.633.706-.178 1.723-.054 2.869.382 1.64.62 3.534 1.88 5.194 3.852a21.9 21.9 0 0 1 1.922 2.72c.875 1.443 1.636 2.969 2.382 4.456 1.3 2.586 3.195 6.967 5.814 9.94 1.821 2.067 3.993 3.451 6.541 3.166z" fill="#333739"/>
    <path fill-rule="evenodd" clip-rule="evenodd" d="M209.072 125.079c-2.082-3.448-4.686-7.29-8.689-8.517-4.592-1.406-9.248 1.339-8.511 6.324.958 6.466 10.277 5.794 9.252.18 3.522 5.655 5.876 12.131 5.605 18.93 6.017-2.594 8.907-7.148 5.235-13.274-.726-1.213-1.857-2.673-2.892-3.643" fill="#EF383D"/>
    <mask id="c" style="mask-type:alpha" maskUnits="userSpaceOnUse" x="191" y="116" width="23" height="26">
        <path fill-rule="evenodd" clip-rule="evenodd" d="M197.975 116.199c.784 0 1.598.12 2.409.367 4.002 1.226 6.606 5.067 8.689 8.517 1.034.969 2.164 2.43 2.891 3.643 3.672 6.125.781 10.68-5.235 13.272.27-6.798-2.083-13.273-5.606-18.93 1.026 5.616-8.292 6.287-9.25-.179-.608-4.104 2.441-6.69 6.099-6.69h.003" fill="#fff"/>
    </mask>
    <g mask="url(#c)">
        <path fill-rule="evenodd" clip-rule="evenodd" d="M201.053 124.48c-2.339 2.097-6.193 1.158-7.209-1.866-.492-1.465-.506-2.97.163-4.384.23-.485.54-.955.871-1.375.119-.151.24-.298.364-.444.059-.071.266-.195.177-.213-1.396-.276-3.274 1.71-3.848 2.797-2.109 3.995.426 10.47 4.799 11.598 3.015.778 5.293-2.912 4.683-6.113" fill="#BC2025"/>
    </g>
    <mask id="d" style="mask-type:alpha" maskUnits="userSpaceOnUse" x="191" y="116" width="23" height="26">
        <path fill-rule="evenodd" clip-rule="evenodd" d="M197.975 116.199c.784 0 1.598.12 2.409.367 4.002 1.226 6.606 5.067 8.689 8.517 1.034.969 2.164 2.43 2.891 3.643 3.672 6.125.781 10.68-5.235 13.272.27-6.798-2.083-13.273-5.606-18.93 1.026 5.616-8.292 6.287-9.25-.179-.608-4.104 2.441-6.69 6.099-6.69h.003" fill="#fff"/>
    </mask>
    <g mask="url(#d)">
        <path fill-rule="evenodd" clip-rule="evenodd" d="M209.971 132.173c-.309-1.949-.887-3.84-1.608-5.667-1.574-3.995-3.424-6.938-7.24-8.941-1.816-.953-3.83-1.364-5.887-.839 1.898-1.233 4.646-.624 6.553.397 3.376 1.807 6.163 5.033 7.638 8.614.507 1.237 1.38 5.024.544 6.436" fill="#F48EAA"/>
    </g>
    <mask id="e" style="mask-type:alpha" maskUnits="userSpaceOnUse" x="191" y="116" width="23" height="26">
        <path fill-rule="evenodd" clip-rule="evenodd" d="M197.975 116.199c.784 0 1.598.12 2.409.367 4.002 1.226 6.606 5.067 8.689 8.517 1.034.969 2.164 2.43 2.891 3.643 3.672 6.125.781 10.68-5.235 13.272.27-6.798-2.083-13.273-5.606-18.93 1.026 5.616-8.292 6.287-9.25-.179-.608-4.104 2.441-6.69 6.099-6.69h.003" fill="#fff"/>
    </mask>
    <g mask="url(#e)">
        <path fill-rule="evenodd" clip-rule="evenodd" d="M208.582 136.109c.007-1.392-.163-2.764-.426-4.129-.815-4.24-3.541-10.807-8.179-11.953-1.047-.258-2.098-.22-3.038.363 2.882-1.253 4.591 2.036 4.626 4.484.048 3.357 1.851 6.467 2.642 9.728.176.727.298 2.771.67 3.393 1.077 1.809 3.397-.238 3.705-1.886" fill="#BC2025"/>
    </g>
    <path fill-rule="evenodd" clip-rule="evenodd" d="M201.454 124.103c1.509 2.551 2.771 5.259 3.656 8.081.987 3.146 1.504 6.434 1.371 9.804a.251.251 0 0 0 .106.218c.071.05.161.06.239.025 3.05-1.315 5.305-3.135 6.353-5.388 1.071-2.304.899-5.072-1.008-8.248a18.703 18.703 0 0 0-1.351-1.941 16.019 16.019 0 0 0-1.584-1.755l.063.039c-1.259-2.084-2.709-4.309-4.536-6.027-1.242-1.165-2.657-2.099-4.303-2.604-2.325-.711-4.663-.388-6.359.723-1.795 1.176-2.88 3.229-2.484 5.897.467 3.157 2.836 4.691 5.125 4.835 1.632.103 3.22-.508 4.07-1.721a3.619 3.619 0 0 0 .642-1.938m5.535 17.5c.084-3.289-.438-6.5-1.401-9.579-.999-3.196-2.479-6.251-4.249-9.099a.255.255 0 0 0-.466.187c.196 1.075-.01 1.956-.478 2.622-.754 1.077-2.174 1.592-3.622 1.5-2.076-.132-4.223-1.525-4.645-4.388-.358-2.428.621-4.301 2.254-5.37 1.58-1.033 3.76-1.319 5.924-.656 1.568.48 2.915 1.376 4.098 2.488 1.79 1.684 3.207 3.869 4.439 5.914h.022a.307.307 0 0 0 .042.058v-.018a15.79 15.79 0 0 1 1.534 1.701c.497.629.955 1.289 1.314 1.889 1.794 2.995 1.99 5.601.978 7.773-.963 2.068-3.003 3.735-5.744 4.978" fill="#333739"/>
    <path fill-rule="evenodd" clip-rule="evenodd" d="M238.353 120.661c1.775 6.089 15.224 7.549 18.782-3.156 1.274-3.83 1.913-7.728 4.199-11.104 1.562-2.31 3.813-4.33 6.518-5.067.656-.18 2.255-.582 2.805.115.629.799-.922 1.802-1.429 2.244-3.575 3.108-3.968 7.556-4.706 19.077-.509 7.956-3.829 9.323-9.225 10.898-13.177 3.847-20.406-10.603-16.944-13.007" fill="#EF383D"/>
    <mask id="f" style="mask-type:alpha" maskUnits="userSpaceOnUse" x="237" y="101" width="34" height="34">
        <path fill-rule="evenodd" clip-rule="evenodd" d="M270.657 101.45c.629.799-.922 1.801-1.429 2.243-3.575 3.108-3.967 7.556-4.705 19.078-.51 7.955-3.83 9.323-9.225 10.898-13.178 3.846-20.406-10.604-16.945-13.008 1.775 6.09 15.224 7.55 18.783-3.155 1.274-3.83 1.912-7.729 4.198-11.105 1.562-2.31 3.813-4.33 6.518-5.067.376-.102 1.062-.279 1.684-.279.462 0 .887.097 1.121.395" fill="#fff"/>
    </mask>
    <g mask="url(#f)">
        <path fill-rule="evenodd" clip-rule="evenodd" d="M238.353 120.66c1.748 7.532 13.032 8.245 16.99 1.041 1.276-2.323 2.284-5.15 2.887-9.599.674-4.978 6.587-11.094 8.695-12.1 4.535-2.16-3.253 1.052-4.803 9.752-1.635 9.179-1.955 17.975-9.773 20.777-8.229 2.947-15.873 7.407-19.32-1.196 3.754-12.51.665-13.258 5.324-8.675" fill="#BC2025"/>
    </g>
    <mask id="g" style="mask-type:alpha" maskUnits="userSpaceOnUse" x="237" y="101" width="34" height="34">
        <path fill-rule="evenodd" clip-rule="evenodd" d="M270.657 101.45c.629.799-.922 1.801-1.429 2.243-3.575 3.108-3.967 7.556-4.705 19.078-.51 7.955-3.83 9.323-9.225 10.898-13.178 3.846-20.406-10.604-16.945-13.008 1.775 6.09 15.224 7.55 18.783-3.155 1.274-3.83 1.912-7.729 4.198-11.105 1.562-2.31 3.813-4.33 6.518-5.067.376-.102 1.062-.279 1.684-.279.462 0 .887.097 1.121.395" fill="#fff"/>
    </mask>
    <g mask="url(#g)">
        <path fill-rule="evenodd" clip-rule="evenodd" d="M272.996 102.127c-9.691 4.427-6.263 16.252-8.542 26.953-.871 4.092-4.181 10.727-8.185 8.675 1.282-1.506 1.288-4.36 3.102-5.533 3.481-2.246 3.867-9.535 3.76-14.537-.131-6.126 2.079-16.631 9.865-15.558" fill="#F48EAA"/>
    </g>
    <path clip-rule="evenodd" d="M238.353 120.661c1.775 6.089 15.224 7.549 18.782-3.156 1.274-3.83 1.913-7.728 4.199-11.104 1.562-2.31 3.813-4.33 6.518-5.067.656-.18 2.255-.582 2.805.115.629.799-.922 1.802-1.429 2.244-3.575 3.108-3.968 7.556-4.706 19.077-.509 7.956-3.829 9.323-9.225 10.898-13.177 3.847-20.406-10.603-16.944-13.007z" stroke="#333739" stroke-width=".337" stroke-linecap="round" stroke-linejoin="round"/>
    <path fill-rule="evenodd" clip-rule="evenodd" d="M220.475 75.883c-8.616-.344-13.833 2.184-11.595 5.913.266.442.57.812.879 1.116 1.845 1.816 3.829 2.038 5.832 2.337 1.387-2.658 3.656-6.423 4.884-9.366" fill="#9FA0A0"/>
    <path clip-rule="evenodd" d="M220.475 75.883c-8.616-.344-13.833 2.184-11.595 5.913.266.442.57.812.879 1.116 1.845 1.816 3.829 2.038 5.832 2.337 1.387-2.658 3.656-6.423 4.884-9.366z" stroke="#333739" stroke-width=".337" stroke-linecap="round" stroke-linejoin="round"/>
    <path fill-rule="evenodd" clip-rule="evenodd" d="M217.877 118.149c-1.743-.264-7.19-1.847-8.517-.665-3.823 3.408-.681 10.487 1.032 14.033-2.551 5.248-10.246 5.969-10.015 13.017.22 6.748 7.866 8.75 13.123 6.335 3.364-1.545 4.589-4.879 5.656-8.225 1.936-.77 4.108-1.002 6.151-1.262 2.478 18.358 26.782 13.681 22.033.048 1.828.063 3.538-.62 8.297-2.067a14.956 14.956 0 0 1 5.995-.542c-1.05 2.584.23 6.212 3.769 6.696 4.717.645 8.614-5.074 5.284-9.758-3.509-4.936-8.704-5.867-11.367-5.836-5.248.061-11.124 2.007-16.113-.635-2.225-1.178-4.037-3.124-4.195-5.679-.492-7.938 15.218-9.089 18.994-26.554 3.735-17.276-7.235-29.003-19.011-30.713-12.312-1.788-27.637 4.194-28.479 24.79-.656 16.072 6.98 18.573 7.363 27.017" fill="#EF383D"/>
    <mask id="h" style="mask-type:alpha" maskUnits="userSpaceOnUse" x="200" y="66" width="72" height="88">
        <path fill-rule="evenodd" clip-rule="evenodd" d="M238.993 66.342c11.778 1.71 22.746 13.437 19.011 30.713-3.776 17.464-19.486 18.616-18.994 26.554.158 2.556 1.97 4.502 4.195 5.678 4.99 2.642 10.866.696 16.113.635 2.663-.03 7.858.9 11.367 5.837 3.33 4.683-.567 10.403-5.284 9.758-3.539-.485-4.819-4.112-3.769-6.696-2.242-.26-4.348.04-5.995.541-4.759 1.448-6.468 2.132-8.297 2.069 4.75 13.632-19.555 18.31-22.033-.05-2.043.261-4.214.493-6.151 1.264-1.067 3.344-2.292 6.68-5.655 8.224-5.258 2.416-12.902.414-13.124-6.335-.231-7.048 7.464-7.769 10.015-13.016-1.713-3.547-4.855-10.626-1.032-14.034 1.327-1.181 6.774.4 8.517.665-.383-8.444-8.02-10.946-7.362-27.017.749-18.335 12.976-25.089 24.339-25.089 1.4 0 2.787.103 4.139.3" fill="#fff"/>
    </mask>
    <g mask="url(#h)">
        <path fill-rule="evenodd" clip-rule="evenodd" d="M248.982 84.35c-10.183 4.72-20.218-4.258-26.69-4.093-6.17 5.542-6.089 11.381-5.034 18.48-.647 1.671-1.514 2.178-1.802 2.593.256.706 2.152 1.007 2.48 1.731 1.937 4.272 3.482 9.845 3.482 13.68 0 3.057.103 5.649.814 8.61.734 3.057 5.29 14.266 3.093 17.253-.925 1.259-6.616 2.498-6.109.025 1.075-5.229-3.964-8.554-3.939-6.167.117 11.56-6.812 18.791-13.767 13.057-1.836-1.514-2.926-2.488-3.288-4.929-1-6.77 6.904-6.599 7.454-13.306.301-3.661-.849-7.15-.739-10.772.103-3.384 1.662-6.43 1.424-9.876-.51-7.413-3.045-15.163-1-22.562 1.187-4.3 3.998-7.437 6.1-11.202-.006.002-.015.003-.022.006 9.538-9.628 28.498.733 37.543 7.472" fill="#BC2025"/>
    </g>
    <mask id="i" style="mask-type:alpha" maskUnits="userSpaceOnUse" x="200" y="66" width="72" height="88">
        <path fill-rule="evenodd" clip-rule="evenodd" d="M238.993 66.342c11.778 1.71 22.746 13.437 19.011 30.713-3.776 17.464-19.486 18.616-18.994 26.554.158 2.556 1.97 4.502 4.195 5.678 4.99 2.642 10.866.696 16.113.635 2.663-.03 7.858.9 11.367 5.837 3.33 4.683-.567 10.403-5.284 9.758-3.539-.485-4.819-4.112-3.769-6.696-2.242-.26-4.348.04-5.995.541-4.759 1.448-6.468 2.132-8.297 2.069 4.75 13.632-19.555 18.31-22.033-.05-2.043.261-4.214.493-6.151 1.264-1.067 3.344-2.292 6.68-5.655 8.224-5.258 2.416-12.902.414-13.124-6.335-.231-7.048 7.464-7.769 10.015-13.016-1.713-3.547-4.855-10.626-1.032-14.034 1.327-1.181 6.774.4 8.517.665-.383-8.444-8.02-10.946-7.362-27.017.749-18.335 12.976-25.089 24.339-25.089 1.4 0 2.787.103 4.139.3" fill="#fff"/>
    </mask>
    <g mask="url(#i)">
        <path fill-rule="evenodd" clip-rule="evenodd" d="M263.569 136.9c-1.32 2.385-.063 5.82 2.473 6.487 4.361 1.149 6.447-3.401 6.497-2.881.249 2.535-1.369 4.69-3.53 5.751-3.621 1.777-8.452.354-10.127-3.506-1.522-3.506 1.093-6.036 4.687-5.851" fill="#BC2025"/>
    </g>
    <mask id="j" style="mask-type:alpha" maskUnits="userSpaceOnUse" x="200" y="66" width="72" height="88">
        <path fill-rule="evenodd" clip-rule="evenodd" d="M238.993 66.342c11.778 1.71 22.746 13.437 19.011 30.713-3.776 17.464-19.486 18.616-18.994 26.554.158 2.556 1.97 4.502 4.195 5.678 4.99 2.642 10.866.696 16.113.635 2.663-.03 7.858.9 11.367 5.837 3.33 4.683-.567 10.403-5.284 9.758-3.539-.485-4.819-4.112-3.769-6.696-2.242-.26-4.348.04-5.995.541-4.759 1.448-6.468 2.132-8.297 2.069 4.75 13.632-19.555 18.31-22.033-.05-2.043.261-4.214.493-6.151 1.264-1.067 3.344-2.292 6.68-5.655 8.224-5.258 2.416-12.902.414-13.124-6.335-.231-7.048 7.464-7.769 10.015-13.016-1.713-3.547-4.855-10.626-1.032-14.034 1.327-1.181 6.774.4 8.517.665-.383-8.444-8.02-10.946-7.362-27.017.749-18.335 12.976-25.089 24.339-25.089 1.4 0 2.787.103 4.139.3" fill="#fff"/>
    </mask>
    <g mask="url(#j)">
        <path fill-rule="evenodd" clip-rule="evenodd" d="M265.227 137.486c-4.941-2.469-9.119-1.667-14.329-1.059-1.9.222-3.832.479-5.726.06-2.304-.511-3.915-2.515-5.706-3.932 3.205 3.028 6.708 5.858 8.476 10.068 2.593-1.195 10.129-1.974 13.207-1.864-.202-1.505 2.188-4.035 4.078-3.273" fill="#BC2025"/>
    </g>
    <mask id="k" style="mask-type:alpha" maskUnits="userSpaceOnUse" x="200" y="66" width="72" height="88">
        <path fill-rule="evenodd" clip-rule="evenodd" d="M238.993 66.342c11.778 1.71 22.746 13.437 19.011 30.713-3.776 17.464-19.486 18.616-18.994 26.554.158 2.556 1.97 4.502 4.195 5.678 4.99 2.642 10.866.696 16.113.635 2.663-.03 7.858.9 11.367 5.837 3.33 4.683-.567 10.403-5.284 9.758-3.539-.485-4.819-4.112-3.769-6.696-2.242-.26-4.348.04-5.995.541-4.759 1.448-6.468 2.132-8.297 2.069 4.75 13.632-19.555 18.31-22.033-.05-2.043.261-4.214.493-6.151 1.264-1.067 3.344-2.292 6.68-5.655 8.224-5.258 2.416-12.902.414-13.124-6.335-.231-7.048 7.464-7.769 10.015-13.016-1.713-3.547-4.855-10.626-1.032-14.034 1.327-1.181 6.774.4 8.517.665-.383-8.444-8.02-10.946-7.362-27.017.749-18.335 12.976-25.089 24.339-25.089 1.4 0 2.787.103 4.139.3" fill="#fff"/>
    </mask>
    <g mask="url(#k)">
        <path fill-rule="evenodd" clip-rule="evenodd" d="M239.983 121.495c.749-3.135 6.169-5.076 8.564-8.866-4.446 1.847-6.78 3.11-9.066 5.865-3.644 4.391-1.344 9.646 3.289 12.115 3.791 2.018 8.414 1.888 12.493 1.041 3.016-.624 6.424-.584 9.37.491 4.406 1.61 7.356 5.728 6.687 10.803.861-1.654 1.443-3.794 1.276-5.667-.324-3.605-3.575-6.684-6.875-7.526-4.052-1.033-8.192-.195-12.245.307-1.562.193-3.133.23-4.705.275-.967.026-10.79.211-8.788-8.838" fill="#F48EAA"/>
    </g>
    <mask id="l" style="mask-type:alpha" maskUnits="userSpaceOnUse" x="200" y="66" width="72" height="88">
        <path fill-rule="evenodd" clip-rule="evenodd" d="M238.993 66.342c11.778 1.71 22.746 13.437 19.011 30.713-3.776 17.464-19.486 18.616-18.994 26.554.158 2.556 1.97 4.502 4.195 5.678 4.99 2.642 10.866.696 16.113.635 2.663-.03 7.858.9 11.367 5.837 3.33 4.683-.567 10.403-5.284 9.758-3.539-.485-4.819-4.112-3.769-6.696-2.242-.26-4.348.04-5.995.541-4.759 1.448-6.468 2.132-8.297 2.069 4.75 13.632-19.555 18.31-22.033-.05-2.043.261-4.214.493-6.151 1.264-1.067 3.344-2.292 6.68-5.655 8.224-5.258 2.416-12.902.414-13.124-6.335-.231-7.048 7.464-7.769 10.015-13.016-1.713-3.547-4.855-10.626-1.032-14.034 1.327-1.181 6.774.4 8.517.665-.383-8.444-8.02-10.946-7.362-27.017.749-18.335 12.976-25.089 24.339-25.089 1.4 0 2.787.103 4.139.3" fill="#fff"/>
    </mask>
    <g mask="url(#l)">
        <path fill-rule="evenodd" clip-rule="evenodd" d="M234.363 122.934c-.565 2.247-.1 5.09 1.258 7.353 1.448 2.412 4.48 5.018 6.499 6.873 3.568 3.278 6.52 8.844 3.417 13.526 9.069-9.871-5.733-15.527-9.796-22.323-.783-1.31-1.244-3.929-1.378-5.429" fill="#F48EAA"/>
    </g>
    <mask id="m" style="mask-type:alpha" maskUnits="userSpaceOnUse" x="200" y="66" width="72" height="88">
        <path fill-rule="evenodd" clip-rule="evenodd" d="M238.993 66.342c11.778 1.71 22.746 13.437 19.011 30.713-3.776 17.464-19.486 18.616-18.994 26.554.158 2.556 1.97 4.502 4.195 5.678 4.99 2.642 10.866.696 16.113.635 2.663-.03 7.858.9 11.367 5.837 3.33 4.683-.567 10.403-5.284 9.758-3.539-.485-4.819-4.112-3.769-6.696-2.242-.26-4.348.04-5.995.541-4.759 1.448-6.468 2.132-8.297 2.069 4.75 13.632-19.555 18.31-22.033-.05-2.043.261-4.214.493-6.151 1.264-1.067 3.344-2.292 6.68-5.655 8.224-5.258 2.416-12.902.414-13.124-6.335-.231-7.048 7.464-7.769 10.015-13.016-1.713-3.547-4.855-10.626-1.032-14.034 1.327-1.181 6.774.4 8.517.665-.383-8.444-8.02-10.946-7.362-27.017.749-18.335 12.976-25.089 24.339-25.089 1.4 0 2.787.103 4.139.3" fill="#fff"/>
    </mask>
    <g mask="url(#m)">
        <path fill-rule="evenodd" clip-rule="evenodd" d="M238.799 142.869c-4.568 1.538-6.608-1.561-7.85-5.66-.773-2.555-.919-5.225-1.621-7.792-.985-3.609-3.784-8.959-7.911-9.549 2.624-.609 5.159 1.408 6.561 3.486 1.491 2.211 2.486 4.66 3.117 7.259.66 2.717.979 5.516 2.05 8.119 1.154 2.805 2.748 4.046 5.654 4.137" fill="#F48EAA"/>
    </g>
    <mask id="n" style="mask-type:alpha" maskUnits="userSpaceOnUse" x="200" y="66" width="72" height="88">
        <path fill-rule="evenodd" clip-rule="evenodd" d="M238.993 66.342c11.778 1.71 22.746 13.437 19.011 30.713-3.776 17.464-19.486 18.616-18.994 26.554.158 2.556 1.97 4.502 4.195 5.678 4.99 2.642 10.866.696 16.113.635 2.663-.03 7.858.9 11.367 5.837 3.33 4.683-.567 10.403-5.284 9.758-3.539-.485-4.819-4.112-3.769-6.696-2.242-.26-4.348.04-5.995.541-4.759 1.448-6.468 2.132-8.297 2.069 4.75 13.632-19.555 18.31-22.033-.05-2.043.261-4.214.493-6.151 1.264-1.067 3.344-2.292 6.68-5.655 8.224-5.258 2.416-12.902.414-13.124-6.335-.231-7.048 7.464-7.769 10.015-13.016-1.713-3.547-4.855-10.626-1.032-14.034 1.327-1.181 6.774.4 8.517.665-.383-8.444-8.02-10.946-7.362-27.017.749-18.335 12.976-25.089 24.339-25.089 1.4 0 2.787.103 4.139.3" fill="#fff"/>
    </mask>
    <g mask="url(#n)">
        <path fill-rule="evenodd" clip-rule="evenodd" d="M219.256 139.852c-.489 5.735-1.672 13.616-12.458 12.322 2.132.153 5.824-1.59 7.383-2.763 3.556-2.676 4.391-6.266 5.075-9.559" fill="#F48EAA"/>
    </g>
    <mask id="o" style="mask-type:alpha" maskUnits="userSpaceOnUse" x="200" y="66" width="72" height="88">
        <path fill-rule="evenodd" clip-rule="evenodd" d="M238.993 66.342c11.778 1.71 22.746 13.437 19.011 30.713-3.776 17.464-19.486 18.616-18.994 26.554.158 2.556 1.97 4.502 4.195 5.678 4.99 2.642 10.866.696 16.113.635 2.663-.03 7.858.9 11.367 5.837 3.33 4.683-.567 10.403-5.284 9.758-3.539-.485-4.819-4.112-3.769-6.696-2.242-.26-4.348.04-5.995.541-4.759 1.448-6.468 2.132-8.297 2.069 4.75 13.632-19.555 18.31-22.033-.05-2.043.261-4.214.493-6.151 1.264-1.067 3.344-2.292 6.68-5.655 8.224-5.258 2.416-12.902.414-13.124-6.335-.231-7.048 7.464-7.769 10.015-13.016-1.713-3.547-4.855-10.626-1.032-14.034 1.327-1.181 6.774.4 8.517.665-.383-8.444-8.02-10.946-7.362-27.017.749-18.335 12.976-25.089 24.339-25.089 1.4 0 2.787.103 4.139.3" fill="#fff"/>
    </mask>
    <g mask="url(#o)">
        <path fill-rule="evenodd" clip-rule="evenodd" d="M246.695 149.435c-1.623 1.223-3.397 1.743-5.393 1.842-6.234.307-10.966-4.636-12.492-10.519-1.138-4.389-.093-9.923-1.792-14.215-.767-1.935-3.98-5.749-6.543-5.863 1.675 3.208 3.99 5.038 4.549 8.714.429 2.814.253 6.568 0 9.347-.42 4.629 1.81 8.753 4.602 12.298 1.468 1.863 3.398 3.396 5.693 3.994 4.203 1.097 9.722-1.19 11.376-5.598" fill="#BC2025"/>
    </g>
    <mask id="p" style="mask-type:alpha" maskUnits="userSpaceOnUse" x="200" y="66" width="72" height="88">
        <path fill-rule="evenodd" clip-rule="evenodd" d="M238.993 66.342c11.778 1.71 22.746 13.437 19.011 30.713-3.776 17.464-19.486 18.616-18.994 26.553.158 2.557 1.97 4.503 4.195 5.679 4.99 2.642 10.866.696 16.113.635 2.663-.03 7.858.9 11.367 5.837 3.33 4.683-.567 10.403-5.284 9.758-3.539-.485-4.819-4.112-3.769-6.696-2.242-.26-4.348.04-5.995.541-4.759 1.448-6.468 2.132-8.297 2.069 4.75 13.632-19.555 18.31-22.033-.05-2.043.261-4.214.493-6.151 1.264-1.067 3.344-2.292 6.68-5.655 8.224-5.258 2.416-12.902.414-13.124-6.335-.231-7.048 7.464-7.769 10.015-13.016-1.713-3.547-4.855-10.626-1.032-14.034 1.327-1.181 6.774.4 8.517.665-.383-8.444-8.02-10.946-7.362-27.017.749-18.335 12.976-25.089 24.339-25.089 1.4 0 2.787.103 4.139.3z" fill="#fff"/>
    </mask>
    <g mask="url(#p)">
        <path fill-rule="evenodd" clip-rule="evenodd" d="M238.928 143.054c2.031.289 2.948-1.126.949-3.163-.894-.909-2.159-1.538-3.232-2.193-2.087-1.272-4.4-3.098-5.363-5.471.784 4.012 1.834 10.851 7.646 10.827" fill="#BC2025"/>
    </g>
    <path clip-rule="evenodd" d="M217.877 118.149c-1.743-.264-7.19-1.847-8.517-.665-3.823 3.408-.681 10.487 1.032 14.033-2.551 5.248-10.246 5.969-10.015 13.017.22 6.748 7.866 8.75 13.123 6.335 3.364-1.545 4.589-4.879 5.656-8.225 1.936-.77 4.108-1.002 6.151-1.262 2.478 18.358 26.782 13.681 22.033.048 1.828.063 3.538-.62 8.297-2.067a14.956 14.956 0 0 1 5.995-.542c-1.05 2.584.23 6.212 3.769 6.696 4.717.645 8.614-5.074 5.284-9.758-3.509-4.936-8.704-5.867-11.367-5.836-5.248.061-11.124 2.007-16.113-.635-2.225-1.178-4.037-3.124-4.195-5.679-.492-7.938 15.218-9.089 18.994-26.554 3.735-17.276-7.235-29.003-19.011-30.713-12.312-1.788-27.637 4.194-28.479 24.79-.656 16.072 6.98 18.573 7.363 27.017z" stroke="#333739" stroke-width=".337" stroke-linecap="round" stroke-linejoin="round"/>
    <path fill-rule="evenodd" clip-rule="evenodd" d="M210.626 131.418c.908 2.225 1.5 4.76.836 6.831-.324 1.01-.926 1.935-1.957 2.619-.15.101-.311.196-.484.278a5.626 5.626 0 0 1-.78.282.117.117 0 0 1-.156-.064.12.12 0 0 1 .063-.159c.241-.14.453-.293.662-.438.147-.102.289-.201.424-.301.895-.669 1.459-1.465 1.745-2.376.619-1.967.038-4.363-.824-6.47a.263.263 0 0 1 .137-.341.251.251 0 0 1 .334.139M200.98 123.748c-.226-.985-.82-2.169-1.675-2.818-.543-.412-1.197-.601-1.94-.332a1.82 1.82 0 0 0-1.147 1.2c-.161.554-.037 1.16.535 1.57.04.027.052.081.027.123a.087.087 0 0 1-.12.028c-.73-.417-.94-1.136-.803-1.814a2.257 2.257 0 0 1 1.333-1.596c.927-.354 1.757-.143 2.44.371.956.719 1.613 2.049 1.856 3.151a.268.268 0 0 1-.194.317.261.261 0 0 1-.312-.2M261.303 138.977c.621-.991 1.597-1.723 2.655-2.001 1.089-.286 2.259-.097 3.214.744.595.555 1.003 1.355.962 2.12-.038.69-.425 1.359-1.369 1.756a.086.086 0 0 1-.115-.043.09.09 0 0 1 .042-.118c.779-.419 1.081-1.005 1.066-1.602a1.988 1.988 0 0 0-.19-.769 2.66 2.66 0 0 0-.73-.944 2.89 2.89 0 0 0-1.296-.646 3.093 3.093 0 0 0-1.447.044c-.935.243-1.801.878-2.358 1.748a.255.255 0 0 1-.357.077.266.266 0 0 1-.077-.366M247.104 141.545c-.547-1.168-1.354-2.374-2.289-3.504a22.23 22.23 0 0 0-2.966-2.96c-1.748-1.436-4.617-3.473-6.286-6.539-.568-1.048-1.015-2.21-1.198-3.514a9.14 9.14 0 0 1-.083-1.241c-.003-.403.022-.814.07-1.237a.15.15 0 0 1 .156-.14c.08.007.142.079.137.161a12.02 12.02 0 0 0 .195 2.377 10.765 10.765 0 0 0 1.169 3.34c1.645 2.991 4.455 4.975 6.168 6.377a22.691 22.691 0 0 1 3.037 3.03c.966 1.168 1.796 2.414 2.36 3.62a.268.268 0 0 1-.123.355.257.257 0 0 1-.347-.125M237.413 84.829c-.649.23-1.244.55-1.791.918-.378.256-.733.535-1.064.827a13.18 13.18 0 0 0-.968.943 11.328 11.328 0 0 0-1.246 1.616.054.054 0 0 1-.075.018c-.026-.014-.033-.05-.018-.075a10.97 10.97 0 0 1 1.171-1.713 9.73 9.73 0 0 1 .56-.614 8.49 8.49 0 0 1 1.519-1.198 7.805 7.805 0 0 1 1.877-.838.06.06 0 0 1 .074.04.06.06 0 0 1-.039.076M240.842 85.412c.391.158.772.357 1.128.604.234.162.458.344.664.546a4.677 4.677 0 0 1 .555.665c.246.358.443.746.59 1.154a.055.055 0 0 1-.029.073.053.053 0 0 1-.071-.03 5.164 5.164 0 0 0-.669-1.056 6.598 6.598 0 0 0-.558-.613 7.205 7.205 0 0 0-.616-.552 6.281 6.281 0 0 0-1.041-.68.062.062 0 0 1-.031-.081c.014-.03.049-.044.078-.03" fill="#333739"/>
    <path fill-rule="evenodd" clip-rule="evenodd" d="M239.601 85.926c2.278.434 4.603 2.48 5.9 3.177.977.528-.821 2.002-.899 3.991-.096 2.428-8.059-7.748-5.001-7.168M246.28 87.385a9.22 9.22 0 0 0-1.182-2.873c-.506-.818-1.163-1.555-2.006-2.102-.555-.402-1.176-.656-1.809-.849a8.097 8.097 0 0 0-2.033-.361c-1.517-.061-3.021.252-4.17.943a.378.378 0 0 1-.534-.092.398.398 0 0 1 .089-.547c1.17-1.023 2.817-1.742 4.564-1.926.854-.09 1.73-.04 2.569.175.849.218 1.648.63 2.371 1.175a7.879 7.879 0 0 1 2.191 2.911 9.753 9.753 0 0 1 .78 3.434.428.428 0 0 1-.36.481.422.422 0 0 1-.47-.369" fill="#333739"/>
    <path fill-rule="evenodd" clip-rule="evenodd" d="M240.143 85.948c3.601 1.148 5.509 5.405 4.259 9.501-1.25 4.096-5.189 6.49-8.791 5.342-3.601-1.149-5.509-5.406-4.258-9.502 1.249-4.096 5.188-6.49 8.79-5.341" fill="#fff"/>
    <mask id="q" style="mask-type:alpha" maskUnits="userSpaceOnUse" x="230" y="85" width="15" height="17">
        <path fill-rule="evenodd" clip-rule="evenodd" d="M240.144 85.951c3.602 1.148 5.51 5.405 4.26 9.502-1.25 4.095-5.19 6.49-8.791 5.342-3.601-1.148-5.509-5.407-4.258-9.503 1.038-3.4 3.931-5.628 6.943-5.628.616 0 1.235.092 1.846.287" fill="#fff"/>
    </mask>
    <g mask="url(#q)">
        <path fill-rule="evenodd" clip-rule="evenodd" d="M239.558 88.406c2.703.833 4.146 4.057 3.22 7.193-.927 3.138-3.874 5.009-6.576 4.174-2.703-.833-4.147-4.057-3.221-7.193.926-3.138 3.874-5.009 6.577-4.174" fill="#333739"/>
    </g>
    <mask id="r" style="mask-type:alpha" maskUnits="userSpaceOnUse" x="230" y="85" width="15" height="17">
        <path fill-rule="evenodd" clip-rule="evenodd" d="M240.144 85.951c3.602 1.148 5.51 5.405 4.26 9.502-1.25 4.095-5.19 6.49-8.791 5.342-3.601-1.148-5.509-5.407-4.258-9.503 1.038-3.4 3.931-5.628 6.943-5.628.616 0 1.235.092 1.846.287" fill="#fff"/>
    </mask>
    <g mask="url(#r)">
        <path fill-rule="evenodd" clip-rule="evenodd" d="M234.809 93.268c-.161.815-.123 1.505.023 2.086.251.997.963 1.555 1.77 1.743a2.7 2.7 0 0 0 2.132-.379c.607-.405 1.141-1.04 1.429-1.972a.68.68 0 0 1 .827-.501.696.696 0 0 1 .489.844c-.401 2.047-1.674 3.272-3.061 3.749a4.016 4.016 0 0 1-2.239.104 3.646 3.646 0 0 1-1.392-.661c-1.242-.968-2.035-2.787-1.213-5.351a.639.639 0 0 1 .783-.462c.34.093.543.453.452.8" fill="#8C181B"/>
    </g>
    <mask id="s" style="mask-type:alpha" maskUnits="userSpaceOnUse" x="230" y="85" width="15" height="17">
        <path fill-rule="evenodd" clip-rule="evenodd" d="M240.144 85.951c3.602 1.148 5.51 5.405 4.26 9.502-1.25 4.095-5.19 6.49-8.791 5.342-3.601-1.148-5.509-5.407-4.258-9.503 1.038-3.4 3.931-5.628 6.943-5.628.616 0 1.235.092 1.846.287" fill="#fff"/>
    </mask>
    <g mask="url(#s)">
        <path fill-rule="evenodd" clip-rule="evenodd" d="M238.829 90.48c.519-.412 1.286-.293 1.714.265.427.557.353 1.343-.166 1.754-.519.41-1.286.292-1.712-.267-.428-.557-.354-1.343.164-1.753" fill="#fff"/>
    </g>
    <mask id="t" style="mask-type:alpha" maskUnits="userSpaceOnUse" x="230" y="85" width="15" height="17">
        <path fill-rule="evenodd" clip-rule="evenodd" d="M240.144 85.951c3.602 1.148 5.51 5.405 4.26 9.502-1.25 4.095-5.19 6.49-8.791 5.342-3.601-1.148-5.509-5.407-4.258-9.503 1.038-3.4 3.931-5.628 6.943-5.628.616 0 1.235.092 1.846.287" fill="#fff"/>
    </mask>
    <g mask="url(#t)">
        <path fill-rule="evenodd" clip-rule="evenodd" d="M234.633 96.57c.356 0 .645.31.646.69 0 .38-.288.689-.644.688-.355 0-.645-.31-.646-.69 0-.38.288-.689.644-.688" fill="#fff"/>
    </g>
    <path fill-rule="evenodd" clip-rule="evenodd" d="M240.193 85.783a6.364 6.364 0 0 1 2.958 1.867c.523.584.944 1.271 1.257 2.02.728 1.736.858 3.817.233 5.855-.627 2.036-1.898 3.661-3.463 4.663-1.684 1.081-3.707 1.44-5.634.819-1.922-.617-3.377-2.092-4.151-3.96-.716-1.728-.848-3.792-.224-5.816.623-2.02 1.885-3.633 3.439-4.628 1.669-1.07 3.673-1.425 5.582-.81l.003-.01zm-.099.32c-1.817-.573-3.72-.222-5.3.803-1.479.96-2.676 2.507-3.259 4.441-.584 1.93-.45 3.894.239 5.535.734 1.744 2.1 3.122 3.903 3.692 1.799.567 3.682.219 5.248-.796 1.468-.95 2.655-2.486 3.237-4.405.582-1.915.446-3.863-.232-5.496a7.208 7.208 0 0 0-1.152-1.89c-.712-.84-1.612-1.504-2.686-1.876l.002-.008zM213.118 84.192c.243-.391.52-.771.84-1.114a5.56 5.56 0 0 1 .689-.631 4 4 0 0 1 .307-.213c.16-.1.323-.19.493-.269a4.242 4.242 0 0 1 1.332-.375.054.054 0 0 1 .062.047.055.055 0 0 1-.044.063 4.299 4.299 0 0 0-1.25.472 6.193 6.193 0 0 0-.454.283c-.099.066-.194.137-.289.208a7.847 7.847 0 0 0-1.588 1.598.058.058 0 0 1-.082.015.062.062 0 0 1-.016-.084M220.039 82.973c.261.314.488.666.676 1.042.123.248.23.505.321.77a6.953 6.953 0 0 1 .214.802c.086.414.142.828.185 1.228a.055.055 0 0 1-.045.064.056.056 0 0 1-.063-.047 15.21 15.21 0 0 0-.168-.716c-.059-.235-.126-.47-.197-.706-.047-.154-.098-.308-.149-.463-.051-.153-.102-.306-.158-.457a8.253 8.253 0 0 0-.243-.598 5.534 5.534 0 0 0-.466-.846.061.061 0 0 1 .01-.084.059.059 0 0 1 .083.01" fill="#333739"/>
    <path fill-rule="evenodd" clip-rule="evenodd" d="M217.987 82.441c-1.755-.144-3.333.023-4.497.216-1.311.218-.498 1.54-1.33 4.118-.745 2.308 8.927-4.08 5.827-4.334M222.19 78.483c-.492-.33-1.085-.564-1.731-.72a4.006 4.006 0 0 0-1.713-.05c-.4.043-.772.183-1.135.335-.389.165-.768.34-1.113.58-.79.549-1.455 1.225-1.782 1.986a.383.383 0 0 1-.474.27.394.394 0 0 1-.264-.485c.081-.635.316-1.279.668-1.91a5.66 5.66 0 0 1 .82-1.096 4.945 4.945 0 0 1 1.392-1.056c.532-.266 1.126-.4 1.733-.443.843.007 1.643.17 2.344.53a5.967 5.967 0 0 1 1.805 1.415.435.435 0 0 1 .04.603.41.41 0 0 1-.59.041" fill="#333739"/>
    <path fill-rule="evenodd" clip-rule="evenodd" d="M217.789 82.527c2.67.516 4.254 4.087 3.536 7.97-.718 3.882-3.469 6.617-6.137 6.102-2.67-.516-4.254-4.086-3.536-7.97.718-3.883 3.469-6.617 6.137-6.102" fill="#fff"/>
    <mask id="u" style="mask-type:alpha" maskUnits="userSpaceOnUse" x="211" y="82" width="11" height="15">
        <path fill-rule="evenodd" clip-rule="evenodd" d="M217.79 82.528c2.669.515 4.252 4.087 3.536 7.97-.718 3.882-3.469 6.617-6.138 6.102-2.669-.516-4.252-4.086-3.536-7.97.661-3.566 3.034-6.165 5.485-6.165.218 0 .436.02.653.063" fill="#fff"/>
    </mask>
    <g mask="url(#u)">
        <path fill-rule="evenodd" clip-rule="evenodd" d="M218.309 84.875c2.391.255 3.819 2.954 3.189 6.022-.631 3.069-3.084 5.351-5.474 5.095-2.391-.256-3.819-2.954-3.189-6.022.631-3.068 3.084-5.35 5.474-5.095" fill="#333739"/>
    </g>
    <mask id="v" style="mask-type:alpha" maskUnits="userSpaceOnUse" x="211" y="82" width="11" height="15">
        <path fill-rule="evenodd" clip-rule="evenodd" d="M217.79 82.528c2.669.515 4.252 4.087 3.536 7.97-.718 3.882-3.469 6.617-6.138 6.102-2.669-.516-4.252-4.086-3.536-7.97.661-3.566 3.034-6.165 5.485-6.165.218 0 .436.02.653.063" fill="#fff"/>
    </mask>
    <g mask="url(#v)">
        <path fill-rule="evenodd" clip-rule="evenodd" d="M214.538 90.544c-.115.854.037 1.535.317 2.045.286.525.775.782 1.292.79.51.007 1.042-.227 1.491-.757.398-.47.757-1.105.977-1.973a.68.68 0 0 1 .793-.554c.368.07.61.433.541.81-.228 1.857-.999 3.063-1.878 3.725a3.128 3.128 0 0 1-1.959.643 2.813 2.813 0 0 1-1.377-.385c-1.192-.704-2.077-2.324-1.448-4.616a.641.641 0 0 1 .758-.504.655.655 0 0 1 .493.776" fill="#8C181B"/>
    </g>
    <mask id="w" style="mask-type:alpha" maskUnits="userSpaceOnUse" x="211" y="82" width="11" height="15">
        <path fill-rule="evenodd" clip-rule="evenodd" d="M217.79 82.528c2.669.515 4.252 4.087 3.536 7.97-.718 3.882-3.469 6.617-6.138 6.102-2.669-.516-4.252-4.086-3.536-7.97.661-3.566 3.034-6.165 5.485-6.165.218 0 .436.02.653.063" fill="#fff"/>
    </mask>
    <g mask="url(#w)">
        <path fill-rule="evenodd" clip-rule="evenodd" d="M219.822 87.26c.47.442.519 1.14.107 1.56-.412.419-1.129.4-1.599-.045-.472-.442-.519-1.14-.108-1.56.412-.419 1.128-.398 1.6.045" fill="#fff"/>
    </g>
    <mask id="x" style="mask-type:alpha" maskUnits="userSpaceOnUse" x="211" y="82" width="11" height="15">
        <path fill-rule="evenodd" clip-rule="evenodd" d="M217.79 82.528c2.669.515 4.252 4.087 3.536 7.97-.718 3.882-3.469 6.617-6.138 6.102-2.669-.516-4.252-4.086-3.536-7.97.661-3.566 3.034-6.165 5.485-6.165.218 0 .436.02.653.063" fill="#fff"/>
    </mask>
    <g mask="url(#x)">
        <path fill-rule="evenodd" clip-rule="evenodd" d="M214.821 93.381c.247.32.206.774-.089 1.01-.296.239-.737.171-.983-.148-.246-.32-.206-.773.089-1.01.296-.239.737-.172.983.148" fill="#fff"/>
    </g>
    <path fill-rule="evenodd" clip-rule="evenodd" d="M217.813 82.407c1.25.234 2.276 1.116 2.954 2.387.806 1.513 1.12 3.577.731 5.742-.391 2.172-1.408 3.994-2.692 5.118-1.095.959-2.385 1.412-3.658 1.174-1.278-.242-2.327-1.142-3.018-2.44-.811-1.528-1.123-3.616-.725-5.801.192-1.023.515-1.968.947-2.796.492-.94 1.115-1.73 1.814-2.316 1.105-.925 2.395-1.345 3.648-1.073l-.001.005zm-.048.259c-1.169-.198-2.332.255-3.323 1.145-.639.572-1.204 1.328-1.653 2.218-.4.79-.712 1.685-.889 2.656-.387 2.059-.11 4.029.647 5.475.611 1.171 1.537 1.998 2.681 2.224 1.411.28 2.845-.409 3.966-1.698.924-1.06 1.636-2.525 1.957-4.215.396-2.08.12-4.07-.642-5.534-.623-1.2-1.572-2.043-2.744-2.275v.004zM221.446 117.985c5.965 1.796 10.928-3.647 11.841-14.199-.418-.109-.539-.122-.961-.218-4.289 2.207-10.177 1.928-15.057-.888 1.61 2.46 4.313 6.596 4.177 15.305" fill="#333739"/>
    <mask id="y" style="mask-type:alpha" maskUnits="userSpaceOnUse" x="217" y="102" width="17" height="17">
        <path fill-rule="evenodd" clip-rule="evenodd" d="M232.326 103.563c.421.097.541.109.961.218-.914 10.552-5.877 15.996-11.841 14.201.136-8.711-2.567-12.846-4.177-15.306 4.88 2.817 10.767 3.095 15.057.887" fill="#fff"/>
    </mask>
    <g mask="url(#y)">
        <path fill-rule="evenodd" clip-rule="evenodd" d="M225.993 111.432c3.463-3.052 7.458-4.128 8.915-2.401 1.456 1.727-.172 5.607-3.636 8.657-3.463 3.052-7.458 4.128-8.915 2.401-1.456-1.725.172-5.604 3.636-8.657" fill="#F48EAA"/>
    </g>
    <mask id="z" style="mask-type:alpha" maskUnits="userSpaceOnUse" x="217" y="102" width="17" height="17">
        <path fill-rule="evenodd" clip-rule="evenodd" d="M232.326 103.563c.421.097.541.109.961.218-.914 10.552-5.877 15.996-11.841 14.201.136-8.711-2.567-12.846-4.177-15.306 4.88 2.817 10.767 3.095 15.057.887" fill="#fff"/>
    </mask>
    <g mask="url(#z)">
        <path fill-rule="evenodd" clip-rule="evenodd" d="M219.93 100.859c.326 1.677.938 2.57 1.719 3.076.349.228.748.3 1.16.378.729.14 1.518.126 2.317.117.723.043 1.499-.001 2.292-.038 1.175-.054 2.372-.123 3.491-.34 1.426-.279 2.7-.628 3.521-1.315a.646.646 0 0 1 .928-.029.68.68 0 0 1 .028.948c-.93 1.307-2.726 2.408-4.827 3.163a15.01 15.01 0 0 1-3.298.776c-.785.092-1.561.075-2.286.041-1.839-.232-3.658-.504-4.878-1.714-.976-.968-1.701-2.44-1.594-4.952a.727.727 0 0 1 .66-.784.72.72 0 0 1 .767.673" fill="#fff"/>
    </g>
    <path fill-rule="evenodd" clip-rule="evenodd" d="M215.594 101.312a5.025 5.025 0 0 0 1.06-1.033c.343-.456.603-.975.776-1.571a.154.154 0 0 0-.099-.193.15.15 0 0 0-.19.102 4.502 4.502 0 0 1-.754 1.448 4.77 4.77 0 0 1-1.21 1.079.193.193 0 0 0-.014.308 17.238 17.238 0 0 0 8.349 3.691c3.247.478 6.418-.034 8.901-1.314a3.745 3.745 0 0 0 .555.186c-.344 2.601-.632 4.607-1.248 6.474-.448 1.355-1.067 2.638-2.011 4.026-1.124 1.661-2.585 2.739-4.114 3.269a7.047 7.047 0 0 1-2.073.393 6.311 6.311 0 0 1-3.093-.674.12.12 0 0 0-.162.05.124.124 0 0 0 .049.166 6.518 6.518 0 0 0 3.774.869 6.848 6.848 0 0 0 1.657-.334c1.63-.536 3.182-1.684 4.384-3.438.978-1.432 1.622-2.756 2.088-4.154.649-1.956.945-4.061 1.312-6.828a.273.273 0 0 0-.229-.307 2.279 2.279 0 0 1-.315-.071 6.311 6.311 0 0 1-.493-.179.268.268 0 0 0-.22.013c-2.407 1.283-5.509 1.785-8.692 1.347a16.964 16.964 0 0 1-7.988-3.325" fill="#333739"/>
    <path d="M217.269 102.68c1.794 2.449 4.203 7.444 4.178 15.225" stroke="#333739" stroke-width=".337" stroke-linecap="round" stroke-linejoin="round"/>
    <path fill-rule="evenodd" clip-rule="evenodd" d="M230.882 102.044c.286.365.62.648.977.88.243.158.498.282.762.389.265.106.536.195.819.252.421.083.858.118 1.311.076a.14.14 0 0 1 .159.119.141.141 0 0 1-.116.163c-.481.111-.957.15-1.419.105a3.457 3.457 0 0 1-.943-.22 3.31 3.31 0 0 1-.842-.495 3.94 3.94 0 0 1-.929-1.113.14.14 0 0 1 .035-.192.132.132 0 0 1 .186.036" fill="#333739"/>
    <path fill-rule="evenodd" clip-rule="evenodd" d="M249.168 84.775c-6.398.909-14.419-4.381-20.198-6.673-5.373-2.13-10.697-2.724-13.995-1.99 6.313-6.231 31.279 1.453 34.193 8.663" fill="#fff"/>
    <mask id="A" style="mask-type:alpha" maskUnits="userSpaceOnUse" x="214" y="73" width="36" height="12">
        <path fill-rule="evenodd" clip-rule="evenodd" d="M249.168 84.776c-6.398.909-14.421-4.383-20.198-6.674-5.374-2.13-10.697-2.725-13.995-1.99 1.631-1.61 4.508-2.292 7.927-2.292 9.816-.002 24.105 5.607 26.266 10.956" fill="#fff"/>
    </mask>
    <g mask="url(#A)">
        <path fill-rule="evenodd" clip-rule="evenodd" d="M224.457 74.567c-2.238.162-4.462.94-6.438 2.014-1.848 1.006-4.608-.49-6.661.02 2.657-1.46 9.803-2.603 13.099-2.034" fill="#BDBDBC"/>
    </g>
    <path clip-rule="evenodd" d="M249.168 84.771c-6.398.909-14.419-4.381-20.198-6.672-5.373-2.13-10.697-2.725-13.995-1.992 6.313-6.23 31.279 1.454 34.193 8.664z" stroke="#333739" stroke-width=".337" stroke-linecap="round" stroke-linejoin="round"/>
    <path fill-rule="evenodd" clip-rule="evenodd" d="M257.231 100.627c2.298-16.078-30.169-31.412-42.257-24.517 5.471-10.046 23.785-15.929 37.242-3.433 10.764 9.997 7.512 23.204 5.015 27.95" fill="#fff"/>
    <mask id="B" style="mask-type:alpha" maskUnits="userSpaceOnUse" x="214" y="65" width="46" height="36">
        <path fill-rule="evenodd" clip-rule="evenodd" d="M252.216 72.678c10.764 9.996 7.512 23.203 5.015 27.949 2.298-16.078-30.169-31.411-42.256-24.516 3.268-6.002 11.118-10.516 19.779-10.517 5.838 0 12.043 2.05 17.462 7.084" fill="#fff"/>
    </mask>
    <g mask="url(#B)" fill-rule="evenodd" clip-rule="evenodd">
        <path d="M226.905 73.712c-2.128-.308-4.449-.517-6.741-.655l4.028-5.436c2.132.116 4.217.344 6.255.685-1.13 1.758-2.292 3.464-3.542 5.406" fill="#75151E"/>
        <path d="M232.832 72.916c-.37.135-.729.162-1.038.08-.742-.195-.924-.944-.437-1.707.477-.746 1.419-1.191 2.166-1.011.309.075.539.246.662.496l.006.013c.309-.139.617-.277.924-.413l-.007-.016c-.188-.431-.583-.736-1.103-.859-1.211-.282-2.767.433-3.508 1.591-.767 1.199-.458 2.438.741 2.76.52.14 1.153.08 1.782-.168l.021-.01a52.82 52.82 0 0 0-.19-.762.415.415 0 0 1-.019.006m.707 1.431c.278.083.556.167.833.253.915-1.44 1.782-2.84 2.599-4.194a62.54 62.54 0 0 0-.827-.231 200.908 200.908 0 0 1-2.605 4.172m5.093-.222c.02-.06.175-3.171.159-3.175-.268-.087-.536-.17-.805-.253a211.766 211.766 0 0 1-2.587 4.218c.279.091.557.184.835.278.544-.873 1.072-1.733 1.583-2.578.008.135-.153 3.13-.164 3.123.001-.005 2.881-2.015 3.006-2.096-.501.857-1.015 1.726-1.545 2.607.28.11.559.222.838.337.871-1.466 1.704-2.9 2.497-4.302a47.338 47.338 0 0 0-.798-.32 590.08 590.08 0 0 0-3.019 2.161m4.42 2.828a59.603 59.603 0 0 0-.817-.379l.589-1.032c.27.123.54.25.81.378.379.182.366.513.228.76-.14.251-.427.454-.81.273m.74-3.136c.25.115.499.232.748.352.314.15.406.419.245.711-.161.294-.446.377-.762.225-.251-.12-.502-.237-.754-.353l.523-.935m.874 2.077c.241-.016.699-.157.957-.635.397-.734.167-1.444-.607-1.82a45.5 45.5 0 0 0-1.618-.742 240.6 240.6 0 0 1-2.469 4.313c.583.252 1.165.515 1.745.789.795.373 1.56.13 1.997-.662.322-.585.147-1.021-.005-1.243" fill="#7C1710"/>
        <path d="M224.341 68.531c1.138.079 2.262.19 3.371.334.18.638.358 1.295.534 1.974-.992.558-2.005 1.133-3.039 1.726a55.833 55.833 0 0 0-3.535-.373 521.41 521.41 0 0 1 2.981-1.827 117.83 117.83 0 0 0-.312-1.834" fill="#E5292B"/>
        <path d="M228.247 70.84c-.177-.68-.355-1.338-.534-1.975a56.394 56.394 0 0 0-3.371-.334c.106.594.21 1.205.312 1.834" fill="#FEFEFE"/>
    </g>
    <mask id="C" style="mask-type:alpha" maskUnits="userSpaceOnUse" x="214" y="65" width="46" height="36">
        <path fill-rule="evenodd" clip-rule="evenodd" d="M252.216 72.678c10.764 9.996 7.512 23.203 5.015 27.949 2.298-16.078-30.169-31.411-42.256-24.516 3.268-6.002 11.118-10.516 19.779-10.517 5.838 0 12.043 2.05 17.462 7.084z" fill="#fff"/>
    </mask>
    <g mask="url(#C)">
        <path fill-rule="evenodd" clip-rule="evenodd" d="M254.093 91.158c1.524-7.374-2.003-18.455-8.155-22.855-1.295-.928-2.814-1.41-4.322-1.83 2.266-.07 4.398.931 6.319 2.067 1.676.988 3.402 2.113 4.7 3.599 4.538 5.196 10.463 17.375 4.842 27.267-1.094-.392-2.277-7.885-3.384-8.248z" fill="#BDBDBC"/>
    </g>
    <path clip-rule="evenodd" d="M257.231 100.627c2.298-16.078-30.169-31.412-42.257-24.517 5.471-10.046 23.785-15.929 37.242-3.433 10.764 9.997 7.512 23.204 5.015 27.95z" stroke="#333739" stroke-width=".337" stroke-linecap="round" stroke-linejoin="round"/>
    <path fill-rule="evenodd" clip-rule="evenodd" d="M246.451 82.752c1.18-3.28 1.681-6.798 1.208-9.685-.186-1.131-.526-2.16-1.025-3.05a6.432 6.432 0 0 0-1.158-1.518 5.813 5.813 0 0 0-1.01-.78.14.14 0 0 1-.056-.19.136.136 0 0 1 .185-.056 5.906 5.906 0 0 1 1.854 1.457c.22.26.418.54.597.836.554.924.916 2.019 1.119 3.213.501 2.966-.015 6.583-1.224 9.957a.26.26 0 0 1-.334.159.27.27 0 0 1-.156-.343M218.811 142.886c.281-1.295.261-2.631.035-3.947-.273-1.57-.877-3.09-1.577-4.509-.071-.146-.141-.29-.207-.435-.101-.226-.187-.45-.288-.672a.124.124 0 0 1 .038-.168.119.119 0 0 1 .164.038c.089.106.176.207.26.319.125.163.243.329.353.507.213.347.389.721.565 1.095.407.87.739 1.787.978 2.719.435 1.703.545 3.468.178 5.168a.256.256 0 0 1-.305.197.261.261 0 0 1-.194-.312" fill="#333739"/>
    <path fill-rule="evenodd" clip-rule="evenodd" d="m220.845 144.574-29.641-37.5a3.524 3.524 0 0 1 .578-4.958 3.546 3.546 0 0 1 4.968.599l29.642 37.5a3.522 3.522 0 0 1-.579 4.957 3.546 3.546 0 0 1-4.968-.598" fill="#FFAB00"/>
    <path opacity=".5" fill-rule="evenodd" clip-rule="evenodd" d="M220.844 144.534s1.857-1.918 1.678-3.567c-.179-1.649-21.557-28.667-23.202-29.324-1.645-.658-4.442-.072-4.442-.072l25.966 32.963z" fill="#fff"/>
    <path d="m221.589 143.578-29.641-37.5a3.524 3.524 0 0 1 .578-4.958 3.547 3.547 0 0 1 4.969.599l29.641 37.5a3.522 3.522 0 0 1-.579 4.957 3.546 3.546 0 0 1-4.968-.598" stroke="#333739" stroke-width=".534"/>
    <path d="M217.215 137.215h-6.641l4.544 1.747 4.195 2.096 2.796 1.747 2.796 3.145 2.797 3.144 2.097 1.747 5.243 2.446 5.942-1.747-3.495-1.048-5.593-2.795-4.893-5.591-4.894-3.144-4.894-1.747z" fill="#BC2025"/>
    <path d="M221.061 119.395h9.892l7.585 20.752c-6.596 7.514-14.51-5.725-14.51-5.725s-1.648-5.367-2.308-8.945c-.659-3.578-.659-6.082-.659-6.082z" fill="#EF383D"/>
    <path d="m211.623 136.169-1.049 1.048 7.341.699s5.942.699 10.136 6.988c0 0 6.292 5.241 9.088 5.241l2.098-8.735-1.399 1.048-2.097.699-3.495-.699-2.447-1.048-2.447-1.397-3.146-2.097-3.845-2.096-3.495-.699-3.146.349-2.097.699z" fill="#EF383D"/>
    <path fill-rule="evenodd" clip-rule="evenodd" d="M210.738 137.177c.386-.718 1.305-1.258 2.555-1.55 1.413-.329 3.248-.328 5.278.139 1.588.365 2.896.857 4.059 1.419 3.173 1.531 5.272 3.571 8.906 5.012 1.202.477 2.588 1.103 4.19.914a5.263 5.263 0 0 0 2.054-.693 6.926 6.926 0 0 0 1.037-.753 9.75 9.75 0 0 0 .609-.589.177.177 0 0 0 .001-.25.178.178 0 0 0-.25-.008 10.56 10.56 0 0 1-.635.509c-.351.261-.69.475-1.017.651-.662.36-1.279.56-1.869.628-1.508.176-2.808-.437-3.94-.887-3.618-1.438-5.707-3.476-8.868-5.005a19.578 19.578 0 0 0-4.17-1.459c-2.121-.489-4.039-.486-5.516-.14-1.6.373-2.689 1.155-3.03 2.122a.268.268 0 0 0 .167.34c1.166.41 1.979.655 3.009 1.015.562.196 1.189.426 1.974.738 2.634 1.043 4.453 2.141 5.864 3.269 2.945 2.354 4.143 4.832 7.255 7.213a.26.26 0 0 0 .369-.046.264.264 0 0 0-.053-.368c-3.109-2.379-4.306-4.857-7.248-7.208-1.444-1.154-3.304-2.28-6.002-3.349a50.868 50.868 0 0 0-1.995-.746c-.948-.332-1.711-.563-2.734-.918" fill="#000"/>
    <path opacity=".5" d="M200.259 91.178c0 11.964-9.703 21.663-21.671 21.663-11.969 0-21.672-9.699-21.672-21.663l17.128 10.483 12.233-3.145 4.195-11.53-11.884-17.47c11.968 0 21.671 9.698 21.671 21.662z" fill="#FFAB00"/>
    <path d="M201.947 91.897c0 11.964-9.703 21.663-21.672 21.663-11.969 0-21.671-9.699-21.671-21.663l17.127 10.483 12.234-3.145 4.194-11.53-11.884-17.47c11.969 0 21.672 9.698 21.672 21.662z" fill="#FFAB00"/>
    <path d="m193.363 85.93-11.506-16.914c11.467.353 20.654 9.756 20.654 21.303 0 11.771-9.546 21.313-21.322 21.313-11.565 0-20.979-9.204-21.312-20.683l16.585 10.151.127.077.143-.037 12.234-3.144.179-.046.063-.174 4.194-11.53.061-.168-.1-.148z" stroke="#333739" stroke-width=".7"/>
</svg>
