<svg width="190" height="171" viewBox="0 0 190 171" fill="none" xmlns="http://www.w3.org/2000/svg">
    <path opacity=".6" d="m68.013 151.995 3.458-18.882h-4.446l-3.458 18.882h4.446z" fill="#333739"/>
    <path opacity=".4" d="M26.52 119.204 19.11.945s-6.773 1.2-9.88 3.975C7.27 6.673 5.28 10.386 5.28 10.386s6.421 113.786 7.903 118.259c1.482 4.473 5.928 4.969 5.928 4.969h166.96l3.457-14.41H26.519z" fill="#333739"/>
    <path opacity=".3" d="M152.48 160.94v-8.944H51.712v8.944H152.48z" fill="#333739"/>
    <path opacity=".3" d="m111.975 151.998 2.47-18.385H70.483l-2.964 18.385h44.456z" fill="#333739"/>
    <path opacity=".6" d="m113.457 142.554.988-9.441H70.483l-.988 9.441h43.962z" fill="#333739"/>
    <path d="m189.527 129.631-6.421-121.24s0-6.96-3.952-7.95C175.202-.55 19.11.437 17.134.44c-1.976.004-5.928 1.983-6.916 4.969-.988 2.985 5.928 117.758 6.916 119.749.988 1.992 2.964 3.979 6.421 4.472 3.458.493 165.972 0 165.972 0z" fill="#D5D6D7"/>
    <path d="m178.033 113.596-6.167-96.868a2 2 0 0 0-1.996-1.873H27.13a2 2 0 0 0-1.999 2.088l4.27 96.868a2 2 0 0 0 1.998 1.912h144.638a2 2 0 0 0 1.996-2.127z" fill="#fff"/>
    <path d="m33.783 107.949-3.152-82.433a4 4 0 0 1 3.998-4.153h47.36a4 4 0 0 1 3.995 3.804l4.052 82.433a4 4 0 0 1-3.995 4.197H37.78a4 4 0 0 1-3.998-3.848z" fill="#CECED0"/>
    <path opacity=".3" d="M111.435 23.705a1.49 1.49 0 0 1 1.449-1.842h51.364a1.49 1.49 0 1 1 0 2.982h-51.364a1.49 1.49 0 0 1-1.449-1.14zM112.423 30.662a1.491 1.491 0 0 1 1.449-1.842h51.364a1.49 1.49 0 1 1 0 2.982h-51.364c-.688 0-1.286-.471-1.449-1.14zM113.412 37.615a1.49 1.49 0 0 1 1.448-1.842h51.364a1.49 1.49 0 1 1 0 2.982H114.86a1.49 1.49 0 0 1-1.448-1.14zM114.398 43.58a1.49 1.49 0 0 1 1.449-1.842h51.364a1.491 1.491 0 0 1 0 2.982h-51.364a1.49 1.49 0 0 1-1.449-1.14zM115.386 50.533a1.49 1.49 0 0 1 1.449-1.842h51.364a1.49 1.49 0 1 1 0 2.982h-51.364a1.49 1.49 0 0 1-1.449-1.14zM116.375 56.498a1.49 1.49 0 0 1 1.448-1.842h51.364a1.49 1.49 0 1 1 0 2.982h-51.364a1.49 1.49 0 0 1-1.448-1.14z" fill="#333739"/>
    <path d="M134.33 66.118c.945.348 1.978-.18 2.307-1.18.329-.999-.171-2.091-1.116-2.439l-3.456-1.272c-.945-.347-1.978.18-2.307 1.18-.329 1 .171 2.092 1.116 2.44l3.456 1.271z" fill="#FFAB00"/>
    <path d="M133.986 65.74c.945.347 1.978-.181 2.307-1.18.329-1-.171-2.092-1.116-2.44l-3.455-1.271c-.946-.348-1.978.18-2.307 1.18-.329.998.17 2.09 1.115 2.438l3.456 1.272z" stroke="#333739" stroke-width=".534" stroke-miterlimit="10"/>
    <path d="M107.199 86.934c-.062 1.057.697 1.966 1.696 2.032.998.066 1.859-.736 1.921-1.792l.229-3.862c.062-1.056-.697-1.965-1.696-2.031-.998-.067-1.859.736-1.921 1.792l-.229 3.862z" fill="#FFAB00"/>
    <path d="M106.299 86.134c-.063 1.056.696 1.965 1.695 2.031.999.067 1.859-.736 1.922-1.792l.228-3.862c.063-1.055-.696-1.965-1.695-2.031-.999-.066-1.859.736-1.922 1.792l-.228 3.862z" stroke="#333739" stroke-width=".534" stroke-miterlimit="10"/>
    <path d="M71.87 30.386 51.874 62.614a.682.682 0 0 0 .201.923c.096.06.206.093.318.092h12.09s4.122 33.812 36.448 36.721c32.326 2.908 41.262-31.267 41.262-31.267s-14.276 29.456-39.033 22.723c-24.758-6.732-24.07-27.052-24.07-27.052h13.256c.067 0 .133-.019.192-.055a.395.395 0 0 0 .14-.149.423.423 0 0 0-.002-.406l-18.821-33.71a1.205 1.205 0 0 0-.415-.437 1.122 1.122 0 0 0-1.134-.027c-.176.097-.325.24-.434.416zM133.026 41.715c.78-.662.906-1.868.28-2.693-.627-.825-1.767-.958-2.548-.296l-2.854 2.42c-.781.663-.906 1.868-.28 2.694.626.825 1.767.958 2.547.296l2.855-2.42z" fill="#FFAB00"/>
    <path d="M133.453 40.864c.781-.662.906-1.868.28-2.694-.626-.825-1.766-.958-2.547-.296l-2.854 2.421c-.781.662-.906 1.868-.28 2.693.626.826 1.766.958 2.547.296l2.854-2.42z" stroke="#333739" stroke-width=".534" stroke-miterlimit="10"/>
    <path d="M137.199 53.656c.979-.218 1.606-1.234 1.4-2.27-.206-1.035-1.166-1.698-2.146-1.48l-3.581.796c-.979.217-1.606 1.233-1.4 2.269.206 1.035 1.167 1.698 2.146 1.48l3.581-.795z" fill="#FFAB00"/>
    <path d="M136.607 53.132c.979-.217 1.606-1.233 1.4-2.269-.205-1.035-1.166-1.698-2.145-1.48l-3.581.795c-.98.218-1.607 1.234-1.401 2.27.206 1.035 1.167 1.698 2.146 1.48l3.581-.796z" stroke="#333739" stroke-width=".534" stroke-miterlimit="10"/>
    <path d="M110.966 32.218c-.327-.972-1.397-1.532-2.391-1.25a1.761 1.761 0 0 0-1.208 2.274l1.194 3.556c.326.973 1.397 1.532 2.39 1.25a1.762 1.762 0 0 0 1.209-2.273l-1.194-3.557z" fill="#FFAB00"/>
    <path d="M110.333 31.503c-.327-.972-1.397-1.532-2.391-1.249a1.761 1.761 0 0 0-1.208 2.273l1.194 3.556c.326.973 1.397 1.532 2.391 1.25a1.763 1.763 0 0 0 1.208-2.273l-1.194-3.557z" stroke="#333739" stroke-width=".534" stroke-miterlimit="10"/>
    <path d="M123.547 32.696c.158-.996-.552-1.954-1.587-2.142-1.034-.187-2 .468-2.158 1.463l-.576 3.64c-.158.995.553 1.954 1.587 2.141 1.034.188 2-.468 2.158-1.463l.576-3.64z" fill="#FFAB00"/>
    <path d="M122.846 33.055c.158-.995-.553-1.954-1.587-2.142-1.034-.187-2 .468-2.158 1.463l-.576 3.64c-.158.995.552 1.954 1.586 2.142 1.035.187 2.001-.468 2.159-1.464l.576-3.639zM70.974 33.751 51.83 66.558a.684.684 0 0 0-.01.671.638.638 0 0 0 .235.245.592.592 0 0 0 .32.083l12.084-.357s5.023 33.678 37.401 35.633c32.378 1.954 40.423-32.47 40.423-32.47s-13.489 29.86-38.414 23.863c-24.925-5.996-24.77-26.33-24.77-26.33l13.25-.39a.369.369 0 0 0 .192-.061.397.397 0 0 0 .136-.154.424.424 0 0 0-.014-.407L72.957 33.742a1.197 1.197 0 0 0-.426-.425 1.117 1.117 0 0 0-1.134.005 1.2 1.2 0 0 0-.423.43z" stroke="#333739" stroke-width=".534" stroke-miterlimit="10"/>
    <path d="M94.404 81.647c-.5.917-.203 2.089.663 2.618.867.529 1.975.215 2.476-.702l1.83-3.35c.5-.917.203-2.088-.664-2.617-.867-.53-1.975-.216-2.475.7l-1.83 3.351z" fill="#FFAB00"/>
    <path d="M94.012 80.811c-.5.917-.204 2.089.663 2.618.867.529 1.975.215 2.475-.701l1.83-3.351c.5-.916.203-2.088-.663-2.617-.867-.53-1.975-.216-2.476.7l-1.83 3.352z" stroke="#333739" stroke-width=".534" stroke-miterlimit="10"/>
    <path d="M128.291 78.226a1.744 1.744 0 0 0 2.558-.155c.666-.79.6-2.001-.147-2.705l-2.732-2.574a1.744 1.744 0 0 0-2.558.155c-.666.79-.6 2.001.147 2.705l2.732 2.574z" fill="#FFAB00"/>
    <path d="M128.103 77.5a1.745 1.745 0 0 0 2.559-.156c.665-.79.6-2-.148-2.705l-2.731-2.574a1.744 1.744 0 0 0-2.558.156c-.666.79-.6 2 .147 2.705l2.731 2.574z" stroke="#333739" stroke-width=".534" stroke-miterlimit="10"/>
    <path d="M119.775 85.528c.566.872 1.694 1.095 2.519.497.826-.599 1.036-1.791.471-2.664l-2.069-3.191c-.566-.873-1.694-1.095-2.519-.497-.826.598-1.036 1.79-.47 2.663l2.068 3.192z" fill="#FFAB00"/>
    <path d="M119.41 84.965c.566.873 1.694 1.095 2.519.497.826-.598 1.036-1.79.47-2.663l-2.069-3.192c-.565-.872-1.693-1.095-2.519-.497-.825.599-1.035 1.791-.47 2.664l2.069 3.191z" stroke="#333739" stroke-width=".534" stroke-miterlimit="10"/>
    <path d="M108.652 48.977h-3.16v18.542h3.16V48.977z" fill="#FFAB00"/>
    <path d="M123.383 67.517v-3.341h-17.537v3.341h17.537z" fill="#FFAB00"/>
    <path d="M105.492 47.84h3.978M109.471 65.082V47.609M122.428 64.8h-12.957" stroke="#333739" stroke-width=".534" stroke-miterlimit="10"/>
    <path opacity=".3" fill-rule="evenodd" clip-rule="evenodd" d="M141.834 165.811c-1.632-.094-14.431.211-14.46-.511-.052-1.325 8.584-1.659 9.759-1.872 4.696-.85-1.456-1.306-1.67-2.257-.178-.79 4.442-1.219 6.198-1.575 1.614-.328 6.267-.607 7.925-.87 2.609-.415 5.581-.379 8.215-.512 6.183-.312 11.036-.515 17.258-.426 5.444.078 11.425.753 3.313 2.709-.915.22-4.852 1.305-3.713 2.557 1.599 1.757 7.312-.141 8.001.861.954 1.388-4.679 2.454-5.425 2.539-6.669.761-13.2-.717-19.907-.404-6.742.314-8.757-.604-15.494-.239z" fill="#333739"/>
    <path d="M153.431 46.52v-3.515s-2.374-.34-2.919-.887c-.448-.45-1.247-2.456-1.538-3.198-.072-.17-.109-.28-.109-.28l-.363-4.4v-2.87s.363-1.167.727-1.896c.363-.73.726-1.472 1.465-2.201.726-.73 1.828-1.094 1.828-1.094s1.466-.73 2.556-.73 1.09 0 2.192.365c1.089.365 2.191 1.094 2.191 1.094s.727.365 1.09.73c.364.364 1.09 1.47 1.466 2.2.363.73.363 1.471.363 1.836v2.395c0 .523-.727 2.359-1.09 3.1-.363.742-.448 1.229-.727 1.836a31.87 31.87 0 0 1-.726 1.471s-.363.73-.363 1.095v5.495h-6.092l.049-.547z" fill="#FFDDC5"/>
    <path d="m155.442 41.107 4.747.097 1.828-4.766s1.647-3.842 1.829-4.766c.182-.912.182-1.459 0-2.65-.182-1.192-.727-1.739-.727-1.739s-.908-.912-2.191-1.471c-1.272-.547-1.272-.547-1.829-.73-.557-.182-2.555-.364-2.555-.364h-4.59l-1.053-.183-.545-.182-.364-.365-.363.365-.363.73-.364.729s-.363.766-.363.754v1.252s.182.39.363.936c.182.547.909.547 1.09.73.182.182 1.09.364 1.09.364l1.09.365h.363v.73l-.545.547-.387.498-.351.596.181 1.277v.364s1.611-1.653 1.998-1.653c.388 0 .739.365.933.547.182.182.545.912.363 1.471-.181.56-.811 1.654-.811 1.654l-.291.547 1.829 4.4M165.516 84.742h-20.769s-.399 31.866-.399 32.969c0 1.103.726 11.361 1.09 12.744l2.918 26.882h8.211s-.727-34.497 0-45.022c.072-.994.133-1.94.181-2.849.545-8.682.545-13.229.545-13.229l-.593 14.126 10.451 46.828 8.586.134s-2.386-16.212-4.215-30.617l-6.006-41.966z" fill="#333739"/>
    <path d="m157.305 96.238.182 10.671-.788 3.455.606-14.126z" fill="#333739"/>
    <path d="m138.245 59.112 2.434 5.423a.58.58 0 0 1-.218.73l-6.055 4.048c-.278.195-.666.11-.86-.17l-17.402-25.69a.587.587 0 0 1 .194-.827l1.829-1.191a.581.581 0 0 0 .29-.584l-.181-1.374c-.049-.352.242-.668.605-.668.267 0 .509.17.581.425l.557 1.909c.013.06.049.11.073.17l1.054 1.544c.084.134.121.292.084.45l-.205 1.021c-.037.17 0 .34.109.474l12.364 16.183a.627.627 0 0 0 .86.121l2.93-2.212c.339-.256.8-.134.957.218zM171.668 59.125l-4.808.887a.552.552 0 0 0-.424.669l1.841 7.757a.556.556 0 0 1-.351.644l-24.704 8.68a.486.486 0 0 1-.182.037h-1.695l-3.863.535a.544.544 0 0 0-.412.79.552.552 0 0 0 .484.305h1.296c.254 0 .472.17.533.413l.339 1.362a.535.535 0 0 0 .678.389l33.448-9.374a.537.537 0 0 0 .387-.608l-1.925-12.024a.559.559 0 0 0-.642-.462z" fill="#FFDDC5"/>
    <path d="M160.793 46.357v1.471h-10.947s.726-1.471 2.555-1.836h8.392v.365z" fill="#F66"/>
    <path d="M166.304 66.102c-1.089-4.401-.944-3.453-.944-3.453s4.505 37.034 4.166 38.201c-.339 1.155-27.32.814-28.095 0-.775-.815 1.465-49.46 1.465-49.46s.206-3.391 6.963-3.574h10.948s5.11 0 6.2.73c0 0 1.09.365 2.192 1.836 1.465 2.2 2.579 2.893 4.408 13.52" fill="#F66"/>
    <path d="M140.909 50.94s3.778-2.979 6.818-2.954c0 0 2.301-.34 3.766.389.799.4 2.192 1.495 2.555 3.294.364 1.836-.726 2.93-1.828 4.766l-5.111 4.766-2.555 2.201-6.249 3.842-4.19-8.426 6.794-7.878z" fill="#F66"/>
    <path d="m153.469 164.267 2.337-.01c.008 0 .016 0 .016-.01l-.243-6.891c0-.01-.008-.02-.016-.02h-5.183c-.067.12-2.437 4.247-7.227 5.439-.686.17-1.164.761-1.138 1.452 0 .01.008.02.016.02l9.713.02" fill="#333739"/>
    <path d="M155.564 157.336h-5.183l-1.223 1.663s1.382 1.262 3.057 1.262c1.674 0 3.441-.842 3.441-.842l-.075-2.063-.017-.02z" fill="#FFDDC5"/>
    <path d="m172.21 164.267 2.336-.01c.008 0 .016 0 .016-.01l-.242-6.891c0-.01-.009-.02-.017-.02h-5.183c-.067.12-2.437 4.247-7.226 5.439-.687.17-1.164.761-1.139 1.452 0 .01.008.02.016.02l9.714.02" fill="#333739"/>
    <path d="M174.302 157.336h-5.183l-1.222 1.663s1.381 1.262 3.056 1.262 3.442-.842 3.442-.842l-.076-2.063-.017-.02z" fill="#FFDDC5"/>
    <path opacity=".3" fill-rule="evenodd" clip-rule="evenodd" d="M77.24 156.012c2.295.14 20.33.199 20.342.921.022 1.327-12.152 1.417-13.815 1.596-6.646.717 2 1.347 2.263 2.305.22.795-6.303 1.093-8.79 1.4-2.286.282-8.85.429-11.195.645-3.69.34-7.873.22-11.589.279-8.718.136-15.56.201-24.318-.065-7.665-.233-16.06-1.078-4.56-2.804 1.297-.194 6.884-1.167 5.329-2.452-2.183-1.803-10.302-.067-11.233-1.089-1.29-1.416 6.685-2.322 7.739-2.386 9.42-.571 18.56 1.093 28.018.971 9.505-.123 12.307.852 21.809.679z" fill="#333739"/>
    <path fill-rule="evenodd" clip-rule="evenodd" d="M41.423 115.799c-1.391-.494-7.136-4.761-6.233-7.303 1.348-3.795 9.07-3.645 12.714-3.711-2.18 2.03-5.483 8.192-6.48 11.014z" fill="#C9C6C6"/>
    <path clip-rule="evenodd" d="M41.423 115.799c-1.391-.494-7.136-4.761-6.233-7.303 1.348-3.795 9.07-3.645 12.714-3.711-2.18 2.03-5.483 8.192-6.48 11.014z" stroke="#333739" stroke-width=".46" stroke-linecap="round" stroke-linejoin="round"/>
    <path fill-rule="evenodd" clip-rule="evenodd" d="M48.395 137.352c-1.54 3.695-7.11 4.449-8.658 0-1.846-5.302 2.204-13.18-.58-19.44-.949-2.134-2.668-4.128-3.673-3.681-1.783.795 1.373 1.062.707 8.604-.607 6.861-7.607 12.113-3.39 19.518.79 1.388 1.563 2.89 2.783 3.945 4.21 3.639 10.573 2.886 12.536-2.618.7-1.962.414-4.313.275-6.328z" fill="#E62B31"/>
    <mask id="a" style="mask-type:alpha" maskUnits="userSpaceOnUse" x="31" y="114" width="18" height="35">
        <path fill-rule="evenodd" clip-rule="evenodd" d="M35.484 114.231c-1.783.795 1.373 1.061.707 8.604-.607 6.861-7.607 12.112-3.39 19.517.79 1.389 1.563 2.891 2.783 3.946 4.21 3.639 10.573 2.886 12.536-2.617.7-1.964.414-4.313.275-6.33-1.54 3.696-7.11 4.449-8.658 0-1.846-5.302 2.204-13.18-.58-19.44-.858-1.929-2.345-3.743-3.365-3.743a.746.746 0 0 0-.308.063z" fill="#fff"/>
    </mask>
    <g mask="url(#a)">
        <path fill-rule="evenodd" clip-rule="evenodd" d="M34.96 114.558c3.094-.436 4.005 10.104 1.89 15.871-1.035 2.823-1.782 5.984-1.6 9.047.232 3.881 2.973 7.947 7.556 7.072 1.067-.204 1.985-.894 2.532-1.827 2.008-3.425-.914-5.949-1.765-9.177-.415-1.574-.43-3.28-.513-4.896-.246-4.8-.239-9.325-2.814-13.556-.783-1.287-2.352-4.917-5.285-2.534z" fill="#BB1818"/>
    </g>
    <mask id="b" style="mask-type:alpha" maskUnits="userSpaceOnUse" x="31" y="114" width="18" height="35">
        <path fill-rule="evenodd" clip-rule="evenodd" d="M35.484 114.231c-1.783.795 1.373 1.061.707 8.604-.607 6.861-7.607 12.112-3.39 19.517.79 1.389 1.563 2.891 2.783 3.946 4.21 3.639 10.573 2.886 12.536-2.617.7-1.964.414-4.313.275-6.33-1.54 3.696-7.11 4.449-8.658 0-1.846-5.302 2.204-13.18-.58-19.44-.858-1.929-2.345-3.743-3.365-3.743a.746.746 0 0 0-.308.063z" fill="#fff"/>
    </mask>
    <g mask="url(#b)">
        <path fill-rule="evenodd" clip-rule="evenodd" d="M34.934 114.918c2.62 2.119 2.316 7.538 1.621 10.542-.83 3.58-2.267 6.286-3.16 9.862-.554 2.217-.458 4.303.02 6.53.158.732.356 1.452.612 2.157.085.233.164.472.268.697.052.115.284.366.162.339-1.557-.34-2.892-3.874-3.318-5.194-1.892-5.854.674-11.989.984-17.903.068-1.302.917-6.729 2.811-7.03z" fill="#F190AE"/>
    </g>
    <path clip-rule="evenodd" d="M48.395 137.352c-1.54 3.695-7.11 4.449-8.658 0-1.846-5.302 2.204-13.18-.58-19.44-.949-2.134-2.668-4.128-3.673-3.681-1.783.795 1.373 1.062.707 8.604-.607 6.861-7.607 12.113-3.39 19.518.79 1.388 1.563 2.89 2.783 3.945 4.21 3.639 10.573 2.886 12.536-2.618.7-1.962.414-4.313.275-6.328z" stroke="#333739" stroke-width=".46" stroke-linecap="round" stroke-linejoin="round"/>
    <path fill-rule="evenodd" clip-rule="evenodd" d="M65.952 145.714c3.871 4.374 11.473 3.702 15.848.606 2.698-1.909 4.676-4.534 6.32-7.366 1.826-3.146 7.316-8.601 6.452-9.527-.863-.926-4.327 1.782-6.107 3.219-3.951 3.191-6.687 7.599-11.932 8.8-4.32.989-8.437.115-8.852-5.085-.15-1.881.178-3.752 1.109-5.408-3.768 3.124-6.615 10.493-2.838 14.761z" fill="#E62B31"/>
    <mask id="c" style="mask-type:alpha" maskUnits="userSpaceOnUse" x="64" y="129" width="31" height="20">
        <path fill-rule="evenodd" clip-rule="evenodd" d="M88.464 132.648c-3.95 3.19-6.687 7.597-11.93 8.798-4.32.99-8.438.116-8.854-5.084-.15-1.881.18-3.752 1.109-5.408-3.767 3.124-6.614 10.492-2.836 14.761 3.87 4.373 11.472 3.702 15.847.606 2.698-1.909 4.676-4.534 6.32-7.366 1.826-3.146 7.028-8.347 6.452-9.527-.092-.189-.266-.272-.499-.272-1.226 0-4.112 2.283-5.609 3.492z" fill="#fff"/>
    </mask>
    <g mask="url(#c)">
        <path fill-rule="evenodd" clip-rule="evenodd" d="M70.707 141.279c1.2 2.575 4.157 2.82 6.684 2.613 6.102-.5 10.19-5.631 13.69-10.069.796-1.011 4.124-5.41 5.054-2.296.728 2.438-1.113 6.508-2.014 8.767-3.178 7.956-8.911 13.669-18.025 12.69-1.391-.149-2.764-.552-4.114-.906-2.23-.585-4.915-1.245-6.62-2.897-2.944-2.856-4.007-7.401-2.445-11.247.58-1.426 3.332-5.292 5.325-3.986.3 2.182 1.225 5.457 2.465 7.331z" fill="#BB1818"/>
    </g>
    <path clip-rule="evenodd" d="M65.954 145.712c3.871 4.374 11.473 3.703 15.848.606 2.698-1.908 4.676-4.533 6.32-7.366 1.826-3.146 7.316-8.23 6.452-9.527-.864-1.297-4.327 1.782-6.108 3.219-3.95 3.191-6.686 7.599-11.93 8.8-4.321.99-8.438.115-8.853-5.085-.15-1.88.178-3.752 1.108-5.408-3.767 3.125-6.614 10.493-2.837 14.761z" stroke="#333739" stroke-width=".46" stroke-linecap="round" stroke-linejoin="round"/>
    <path fill-rule="evenodd" clip-rule="evenodd" d="M45.264 136.924c-.533 3.628-4.115 4.889-7.617 3.644-2.869-1.02-5.3-3.3-7.908-4.923-3.273-2.038-5.589-3.142-9.473-3.417-3.394-.239-7.412.99-7.692 4.696-.106 1.409 1.234 3.861 3.007 3.167 1.53-.601-.18-2.269 1.354-3.167 2.779-1.625 8.318 2.421 10.24 4.685 3.84 4.524 9.044 9.147 14.603 7.807 3.486-.84 8.411-6.668 3.486-12.492z" fill="#E62B31"/>
    <mask id="d" style="mask-type:alpha" maskUnits="userSpaceOnUse" x="12" y="132" width="36" height="18">
        <path fill-rule="evenodd" clip-rule="evenodd" d="M12.572 136.928c-.106 1.41 1.235 3.861 3.008 3.167 1.53-.601-.181-2.268 1.355-3.167 2.777-1.625 8.317 2.422 10.239 4.685 3.841 4.524 9.044 9.147 14.603 7.807 3.486-.839 8.41-6.668 3.486-12.492-.533 3.628-4.115 4.889-7.618 3.644-2.868-1.019-5.3-3.299-7.907-4.923-3.273-2.037-5.589-3.142-9.472-3.417-.27-.018-.543-.029-.818-.029-3.19 0-6.618 1.314-6.876 4.725z" fill="#fff"/>
    </mask>
    <g mask="url(#d)">
        <path fill-rule="evenodd" clip-rule="evenodd" d="M45.851 138.013c-.29 4.412-4.283 5.977-7.741 5.471-5.372-.785-8.532-4.337-10.16-5.373-1.346-.857-2.688-1.559-4.184-2.112-2.41-.891-7.443-1.779-7.21 2.466.118 2.137 4.786 3.274 6.431 3.994a32.076 32.076 0 0 1 3.897 2.021c1.466.896 3.473 3.176 5.074 3.36 1.963.228 4.03-1.018 5.897-1.473 1.491-.363 3.047-.445 4.565-.641 1.385-.179 2.834-.478 3.983-1.316 2.4-1.752 1.67-4.73-.552-6.397z" fill="#BB1818"/>
    </g>
    <path clip-rule="evenodd" d="M45.264 136.928c-.533 3.628-4.115 4.889-7.617 3.644-2.869-1.02-5.3-3.3-7.908-4.923-3.273-2.038-5.589-3.142-9.473-3.417-3.394-.239-7.412.99-7.692 4.696-.106 1.409 1.234 3.861 3.007 3.166 1.53-.6-.18-2.268 1.354-3.166 2.779-1.625 8.318 2.421 10.24 4.685 3.84 4.524 9.044 9.147 14.603 7.807 3.486-.84 8.411-6.668 3.486-12.492z" stroke="#333739" stroke-width=".46" stroke-linecap="round" stroke-linejoin="round"/>
    <path fill-rule="evenodd" clip-rule="evenodd" d="M18.625 132.242c-4.066.314-5.854 2.08-6.05 4.685-.107 1.41 1.233 3.862 3.006 3.167 1.53-.6-.234-2.742 1.659-3.59" fill="#E62B31"/>
    <mask id="e" style="mask-type:alpha" maskUnits="userSpaceOnUse" x="12" y="132" width="7" height="9">
        <path fill-rule="evenodd" clip-rule="evenodd" d="M12.572 136.931c-.106 1.41 1.235 3.861 3.008 3.167 1.53-.601-.234-2.742 1.658-3.59l1.386-4.262c-4.066.313-5.854 2.079-6.052 4.685z" fill="#fff"/>
    </mask>
    <g mask="url(#e)">
        <path fill-rule="evenodd" clip-rule="evenodd" d="M19.094 134.906c-.357-.095-1.712-.023-2.078.033-1.217.188-2.063 1.259-2.26 2.428-.077.464-.04 1.008-.31 1.415-.378.573-1.267.402-1.463.83-.258.564.178 1.304.63 1.62 2.599 1.815 3.953-1.637 4.862-3.367.406-.773 1.154-2.057.62-2.959z" fill="#BB1818"/>
    </g>
    <mask id="f" style="mask-type:alpha" maskUnits="userSpaceOnUse" x="12" y="132" width="7" height="9">
        <path fill-rule="evenodd" clip-rule="evenodd" d="M12.572 136.931c-.106 1.41 1.235 3.861 3.008 3.167 1.53-.601-.234-2.742 1.658-3.59l1.386-4.262c-4.066.313-5.854 2.079-6.052 4.685z" fill="#fff"/>
    </mask>
    <g mask="url(#f)">
        <path fill-rule="evenodd" clip-rule="evenodd" d="M21.02 132.475c-2.523-.388-5.471.07-6.999 2.311-.437.642-.624 1.377-.633 2.15-.01.74.724 2.898-.802 2.584-1.648-.339-1.984-2.961-1.75-4.236.125-.684.467-1.331.886-1.879 1.759-2.304 6.728-1.657 9.298-.93z" fill="#F190AE"/>
    </g>
    <path d="M18.625 132.242c-4.066.314-5.854 2.08-6.05 4.685-.107 1.41 1.233 3.862 3.006 3.167 1.53-.6-.234-2.742 1.659-3.59" stroke="#333739" stroke-width=".46" stroke-linecap="round" stroke-linejoin="round"/>
    <path fill-rule="evenodd" clip-rule="evenodd" d="M44.83 142.305c3.96-2.859-.31-4.893-2.988-9.038-3.934-6.092-5.51-13.699-3.292-20.671 4.052-12.738 20.684-17.607 31.382-10.218 2.01 1.387 3.635 2.909 4.942 4.99 3.582 5.701 4.18 14.637.897 20.557-.752 1.355-1.669 2.68-2.735 3.812-3.958 4.197-7.816 8.141-3.303 11.214 3.981 2.712 7.612-.09 13.06 3.22 2.465 1.499 3.255 4.7 3.255 6.487 0 4.712 1.634 6.242.546 6.571-1.922.58-2.745-5.903-5.585-7.72-3.909-2.5-6.753.169-10.731-.264 1.51 2.817.053 8.622-5.164 9.447-5.48.866-8.341-5.286-11.944-4.683-2.929.491-1.297 6.65-3.358 6.368-.898-.122-.503-2.326-.898-3.217-1.69-3.807-.372-7.29 4.044-7.772 3.517-.384 4.926 1.25 9.554 1.705-2.77-2.397-6.69-2.626-10.15-2.035-1.815.31-3.727 1.075-5.602.82.003 1.222-.406 2.514-.566 3.726a13.11 13.11 0 0 0-.123 2.299c.021.493.12.975.213 1.458.1.511.477 1.762-.486 1.657-.388-.043-.658-.361-.834-.684-.97-1.782-.396-4.301-2.21-5.645-2.218-1.645-4.36 1.372-7.1.913-5.658-.948-6.881-9.445-2.381-12.263 4.713-2.951 8.47 1.195 11.557-1.034z" fill="#E62B31"/>
    <mask id="g" style="mask-type:alpha" maskUnits="userSpaceOnUse" x="30" y="98" width="57" height="65">
        <path fill-rule="evenodd" clip-rule="evenodd" d="M38.548 112.595c-2.218 6.973-.642 14.58 3.292 20.672 2.678 4.146 6.949 6.178 2.988 9.038-1.461 1.054-3.072.682-4.863.309-1.994-.415-4.211-.829-6.694.725-4.5 2.818-3.277 11.315 2.381 12.263 1.17.196 2.232-.242 3.236-.68 1.347-.588 2.593-1.176 3.863-.234 1.815 1.345 1.241 3.863 2.21 5.646.176.322.448.641.834.684.964.105.587-1.147.487-1.657-.093-.483-.192-.966-.213-1.457-.033-.772.022-1.535.122-2.3.16-1.213.57-2.505.567-3.727 1.875.255 3.787-.51 5.603-.82 3.459-.59 7.38-.362 10.149 2.036-4.628-.456-6.037-2.089-9.554-1.705-4.416.482-5.733 3.965-4.044 7.772.396.891 0 3.095.898 3.217 2.062.281.43-5.877 3.359-6.368 1.767-.295 3.355 1.034 5.161 2.362 1.877 1.381 3.99 2.761 6.781 2.32 5.218-.824 6.676-6.63 5.165-9.447 1.492.163 2.825-.111 4.114-.385 2.147-.457 4.174-.913 6.617.65 2.84 1.817 3.663 8.3 5.585 7.72 1.088-.329-.546-1.859-.546-6.571 0-1.787-.79-4.989-3.255-6.487-5.448-3.311-9.08-.508-13.06-3.22-4.513-3.073-.654-7.017 3.303-11.214 1.066-1.132 1.983-2.458 2.736-3.812 3.282-5.92 2.684-14.856-.897-20.557-1.309-2.081-2.933-3.603-4.942-4.991-3.421-2.362-7.446-3.47-11.475-3.47-8.571 0-17.15 5.023-19.908 13.688z" fill="#fff"/>
    </mask>
    <g mask="url(#g)">
        <path fill-rule="evenodd" clip-rule="evenodd" d="M72.358 109.473c-.054 4.98-2.285 9.989-5.05 14.099-3.01 4.474-6.753 10.436-7.37 16.025-.224 2.034.27 4.216 1.371 5.949 1.56 2.451 7.965 6.912 5.963 10.247-3.195 5.319-10.959-2.533-14.821-1.433-2.877.82-2.355 3.92-2.433 6.281-.044 1.343-.24 2.677-.327 4.017 1.08-.99 2.283-1.431 3.708-1.717 5.21-1.045 9.182 3.098 13.45 2.128 1.407-.322 2.59-1.081 3.578-2.114 1.07-1.118 1.858-2.409 2.215-3.926.592-2.513-.22-5.567 2.613-6.968 4.87-2.407 6.265 3.955 7.937 6.528.59.909 1.556 1.749 2.578 2.141.554.213 1.125.087 1.568-.298 2.15-1.871.058-13.807-4.548-14.26 1.877 2.996-.384 3.497-3.217 2.13-2.213-1.067-5.968-.024-8.315-.447-2.457-.443-5.22-3.552-4.133-6.461 1.275-3.418 3.755-5.218 5.847-7.607 4.427-5.06 6.995-12.747 3.408-18.869-.934-1.593-2.283-4.712-4.022-5.445z" fill="#BB1818"/>
    </g>
    <mask id="h" style="mask-type:alpha" maskUnits="userSpaceOnUse" x="30" y="98" width="57" height="65">
        <path fill-rule="evenodd" clip-rule="evenodd" d="M38.548 112.595c-2.218 6.973-.642 14.58 3.292 20.672 2.678 4.146 6.949 6.178 2.988 9.038-1.461 1.054-3.072.682-4.863.309-1.994-.415-4.211-.829-6.694.725-4.5 2.818-3.277 11.315 2.381 12.263 1.17.196 2.232-.242 3.236-.68 1.347-.588 2.593-1.176 3.863-.234 1.815 1.345 1.241 3.863 2.21 5.646.176.322.448.641.834.684.964.105.587-1.147.487-1.657-.093-.483-.192-.966-.213-1.457-.033-.772.022-1.535.122-2.3.16-1.213.57-2.505.567-3.727 1.875.255 3.787-.51 5.603-.82 3.459-.59 7.38-.362 10.149 2.036-4.628-.456-6.037-2.089-9.554-1.705-4.416.482-5.733 3.965-4.044 7.772.396.891 0 3.095.898 3.217 2.062.281.43-5.877 3.359-6.368 1.767-.295 3.355 1.034 5.161 2.362 1.877 1.381 3.99 2.761 6.781 2.32 5.218-.824 6.676-6.63 5.165-9.447 1.492.163 2.825-.111 4.114-.385 2.147-.457 4.174-.913 6.617.65 2.84 1.817 3.663 8.3 5.585 7.72 1.088-.329-.546-1.859-.546-6.571 0-1.787-.79-4.989-3.255-6.487-5.448-3.311-9.08-.508-13.06-3.22-4.513-3.073-.654-7.017 3.303-11.214 1.066-1.132 1.983-2.458 2.736-3.812 3.282-5.92 2.684-14.856-.897-20.557-1.309-2.081-2.933-3.603-4.942-4.991-3.421-2.362-7.446-3.47-11.475-3.47-8.571 0-17.15 5.023-19.908 13.688z" fill="#fff"/>
    </mask>
    <g mask="url(#h)">
        <path fill-rule="evenodd" clip-rule="evenodd" d="M64.331 152.466c-.31-1.732-1.498-3.027-2.977-3.894-2.116-1.242-4.559-1.649-6.95-1.259-6.532 1.065-8.597-1.112-11.485-.187-5.09 1.629-6.086-.141-6.088-.041-.04 1.675.329 2.388 1.378 2.414 2.133.051 4.195-1.879 6.355-1.244 1.571.463 2.349 3.515.916 4.515-1.164.811-3.098-1.044-4.715-.928-1.713.121-2.95 1.425-4.595 1.753-3.817.759-5.547-2.213-5.61-5.584-.127 1.301-.281 2.641-.213 3.949.042.797.16 1.685.52 2.409 2 4.014 5.919 3.382 9.692 2.784.779-.123 1.556-.481 2.326-.13 1.651.755 1.465 5.563 3.664 5.172 1.69-.3 1.345-2.903 1.19-4.092-.41-3.151.158-5.264 3.404-6.372 2.456-.839 5.47-.434 7.842.513 1.438.574 3.878 1.463 5.346.222z" fill="#BB1818"/>
    </g>
    <mask id="i" style="mask-type:alpha" maskUnits="userSpaceOnUse" x="30" y="98" width="57" height="65">
        <path fill-rule="evenodd" clip-rule="evenodd" d="M38.548 112.595c-2.218 6.973-.642 14.58 3.292 20.672 2.678 4.146 6.949 6.178 2.988 9.038-1.461 1.054-3.072.682-4.863.309-1.994-.415-4.211-.829-6.694.725-4.5 2.818-3.277 11.315 2.381 12.263 1.17.196 2.232-.242 3.236-.68 1.347-.588 2.593-1.176 3.863-.234 1.815 1.345 1.241 3.863 2.21 5.646.176.322.448.641.834.684.964.105.587-1.147.487-1.657-.093-.483-.192-.966-.213-1.457-.033-.772.022-1.535.122-2.3.16-1.213.57-2.505.567-3.727 1.875.255 3.787-.51 5.603-.82 3.459-.59 7.38-.362 10.149 2.036-4.628-.456-6.037-2.089-9.554-1.705-4.416.482-5.733 3.965-4.044 7.772.396.891 0 3.095.898 3.217 2.062.281.43-5.877 3.359-6.368 1.767-.295 3.355 1.034 5.161 2.362 1.877 1.381 3.99 2.761 6.781 2.32 5.218-.824 6.676-6.63 5.165-9.447 1.492.163 2.825-.111 4.114-.385 2.147-.457 4.174-.913 6.617.65 2.84 1.817 3.663 8.3 5.585 7.72 1.088-.329-.546-1.859-.546-6.571 0-1.787-.79-4.989-3.255-6.487-5.448-3.311-9.08-.508-13.06-3.22-4.513-3.073-.654-7.017 3.303-11.214 1.066-1.132 1.983-2.458 2.736-3.812 3.282-5.92 2.684-14.856-.897-20.557-1.309-2.081-2.933-3.603-4.942-4.991-3.421-2.362-7.446-3.47-11.475-3.47-8.571 0-17.15 5.023-19.908 13.688z" fill="#fff"/>
    </mask>
    <g mask="url(#i)">
        <path fill-rule="evenodd" clip-rule="evenodd" d="M72.463 114.383c-10.06 8.344-20.062-7.635-30.62-7.146-1.605.074-3.279.462-4.616 1.396 7.272-9.779 23.495-6.514 31.815.106 1.476 1.174 2.907 3.71 3.42 5.644z" fill="#BB1818"/>
    </g>
    <mask id="j" style="mask-type:alpha" maskUnits="userSpaceOnUse" x="30" y="98" width="57" height="65">
        <path fill-rule="evenodd" clip-rule="evenodd" d="M38.548 112.595c-2.218 6.973-.642 14.58 3.292 20.672 2.678 4.146 6.949 6.178 2.988 9.038-1.461 1.054-3.072.682-4.863.309-1.994-.415-4.211-.829-6.694.725-4.5 2.818-3.277 11.315 2.381 12.263 1.17.196 2.232-.242 3.236-.68 1.347-.588 2.593-1.176 3.863-.234 1.815 1.345 1.241 3.863 2.21 5.646.176.322.448.641.834.684.964.105.587-1.147.487-1.657-.093-.483-.192-.966-.213-1.457-.033-.772.022-1.535.122-2.3.16-1.213.57-2.505.567-3.727 1.875.255 3.787-.51 5.603-.82 3.459-.59 7.38-.362 10.149 2.036-4.628-.456-6.037-2.089-9.554-1.705-4.416.482-5.733 3.965-4.044 7.772.396.891 0 3.095.898 3.217 2.062.281.43-5.877 3.359-6.368 1.767-.295 3.355 1.034 5.161 2.362 1.877 1.381 3.99 2.761 6.781 2.32 5.218-.824 6.676-6.63 5.165-9.447 1.492.163 2.825-.111 4.114-.385 2.147-.457 4.174-.913 6.617.65 2.84 1.817 3.663 8.3 5.585 7.72 1.088-.329-.546-1.859-.546-6.571 0-1.787-.79-4.989-3.255-6.487-5.448-3.311-9.08-.508-13.06-3.22-4.513-3.073-.654-7.017 3.303-11.214 1.066-1.132 1.983-2.458 2.736-3.812 3.282-5.92 2.684-14.856-.897-20.557-1.309-2.081-2.933-3.603-4.942-4.991-3.421-2.362-7.446-3.47-11.475-3.47-8.571 0-17.15 5.023-19.908 13.688z" fill="#fff"/>
    </mask>
    <g mask="url(#j)">
        <path fill-rule="evenodd" clip-rule="evenodd" d="M46.477 140.215c-.37 5.343-6.273 3.041-9.479 3.193a5.764 5.764 0 0 0-2.458.661c-1.692.912-2.597 2.542-2.915 4.382-.112.648-.237 1.297-.273 1.954-.017.31-.024.618-.028.929 0 .007.005.124-.008.127-.323.063-.664-.358-.813-.579-.653-.959-.691-2.396-.474-3.494.782-3.953 4.383-5.646 8.136-5.698 1.388-.019 2.745.386 4.135.349 1.254-.034 3.223-.968 4.177-1.824z" fill="#F190AE"/>
    </g>
    <mask id="k" style="mask-type:alpha" maskUnits="userSpaceOnUse" x="30" y="98" width="57" height="65">
        <path fill-rule="evenodd" clip-rule="evenodd" d="M38.548 112.595c-2.218 6.973-.642 14.58 3.292 20.672 2.678 4.146 6.949 6.178 2.988 9.038-1.461 1.054-3.072.682-4.863.309-1.994-.415-4.211-.829-6.694.725-4.5 2.818-3.277 11.315 2.381 12.263 1.17.196 2.232-.242 3.236-.68 1.347-.588 2.593-1.176 3.863-.234 1.815 1.345 1.241 3.863 2.21 5.646.176.322.448.641.834.684.964.105.587-1.147.487-1.657-.093-.483-.192-.966-.213-1.457-.033-.772.022-1.535.122-2.3.16-1.213.57-2.505.567-3.727 1.875.255 3.787-.51 5.603-.82 3.459-.59 7.38-.362 10.149 2.036-4.628-.456-6.037-2.089-9.554-1.705-4.416.482-5.733 3.965-4.044 7.772.396.891 0 3.095.898 3.217 2.062.281.43-5.877 3.359-6.368 1.767-.295 3.355 1.034 5.161 2.362 1.877 1.381 3.99 2.761 6.781 2.32 5.218-.824 6.676-6.63 5.165-9.447 1.492.163 2.825-.111 4.114-.385 2.147-.457 4.174-.913 6.617.65 2.84 1.817 3.663 8.3 5.585 7.72 1.088-.329-.546-1.859-.546-6.571 0-1.787-.79-4.989-3.255-6.487-5.448-3.311-9.08-.508-13.06-3.22-4.513-3.073-.654-7.017 3.303-11.214 1.066-1.132 1.983-2.458 2.736-3.812 3.282-5.92 2.684-14.856-.897-20.557-1.309-2.081-2.933-3.603-4.942-4.991-3.421-2.362-7.446-3.47-11.475-3.47-8.571 0-17.15 5.023-19.908 13.688z" fill="#fff"/>
    </mask>
    <g mask="url(#k)">
        <path fill-rule="evenodd" clip-rule="evenodd" d="M38.96 149.746c1.161.115 2.121-.622 3.183-.949a3.78 3.78 0 0 1 4.104 1.344c-.129-.579-.171-.599-.575-1.026-1.485-1.57-3.333-1.229-4.933-.236-.436.27-1.21.515-1.778.867z" fill="#F190AE"/>
    </g>
    <mask id="l" style="mask-type:alpha" maskUnits="userSpaceOnUse" x="30" y="98" width="57" height="65">
        <path fill-rule="evenodd" clip-rule="evenodd" d="M38.548 112.595c-2.218 6.973-.642 14.58 3.292 20.672 2.678 4.146 6.949 6.178 2.988 9.038-1.461 1.054-3.072.682-4.863.309-1.994-.415-4.211-.829-6.694.725-4.5 2.818-3.277 11.315 2.381 12.263 1.17.196 2.232-.242 3.236-.68 1.347-.588 2.593-1.176 3.863-.234 1.815 1.345 1.241 3.863 2.21 5.646.176.322.448.641.834.684.964.105.587-1.147.487-1.657-.093-.483-.192-.966-.213-1.457-.033-.772.022-1.535.122-2.3.16-1.213.57-2.505.567-3.727 1.875.255 3.787-.51 5.603-.82 3.459-.59 7.38-.362 10.149 2.036-4.628-.456-6.037-2.089-9.554-1.705-4.416.482-5.733 3.965-4.044 7.772.396.891 0 3.095.898 3.217 2.062.281.43-5.877 3.359-6.368 1.767-.295 3.355 1.034 5.161 2.362 1.877 1.381 3.99 2.761 6.781 2.32 5.218-.824 6.676-6.63 5.165-9.447 1.492.163 2.825-.111 4.114-.385 2.147-.457 4.174-.913 6.617.65 2.84 1.817 3.663 8.3 5.585 7.72 1.088-.329-.546-1.859-.546-6.571 0-1.787-.79-4.989-3.255-6.487-5.448-3.311-9.08-.508-13.06-3.22-4.513-3.073-.654-7.017 3.303-11.214 1.066-1.132 1.983-2.458 2.736-3.812 3.282-5.92 2.684-14.856-.897-20.557-1.309-2.081-2.933-3.603-4.942-4.991-3.421-2.362-7.446-3.47-11.475-3.47-8.571 0-17.15 5.023-19.908 13.688z" fill="#fff"/>
    </mask>
    <g mask="url(#l)">
        <path fill-rule="evenodd" clip-rule="evenodd" d="M49.083 159.56c.123-1.587-.497-3.127.011-4.699.561-1.731 2.397-2.696 4.097-2.85 1.274-.114 2.61-.116 3.868.139 1.445.295 2.823.824 4.312.887-.748-.315-1.565-.472-2.343-.69-1.197-.337-2.444-.749-3.678-.919-3.183-.441-6.754.333-7.198 4.032-.196 1.628.543 2.631.931 4.1z" fill="#F190AE"/>
    </g>
    <mask id="m" style="mask-type:alpha" maskUnits="userSpaceOnUse" x="30" y="98" width="57" height="65">
        <path fill-rule="evenodd" clip-rule="evenodd" d="M38.548 112.595c-2.218 6.973-.642 14.58 3.292 20.672 2.678 4.146 6.949 6.178 2.988 9.038-1.461 1.054-3.072.682-4.863.309-1.994-.415-4.211-.829-6.694.725-4.5 2.818-3.277 11.315 2.381 12.263 1.17.196 2.232-.242 3.236-.68 1.347-.588 2.593-1.176 3.863-.234 1.815 1.345 1.241 3.863 2.21 5.646.176.322.448.641.834.684.964.105.587-1.147.487-1.657-.093-.483-.192-.966-.213-1.457-.033-.772.022-1.535.122-2.3.16-1.213.57-2.505.567-3.727 1.875.255 3.787-.51 5.603-.82 3.459-.59 7.38-.362 10.149 2.036-4.628-.456-6.037-2.089-9.554-1.705-4.416.482-5.733 3.965-4.044 7.772.396.891 0 3.095.898 3.217 2.062.281.43-5.877 3.359-6.368 1.767-.295 3.355 1.034 5.161 2.362 1.877 1.381 3.99 2.761 6.781 2.32 5.218-.824 6.676-6.63 5.165-9.447 1.492.163 2.825-.111 4.114-.385 2.147-.457 4.174-.913 6.617.65 2.84 1.817 3.663 8.3 5.585 7.72 1.088-.329-.546-1.859-.546-6.571 0-1.787-.79-4.989-3.255-6.487-5.448-3.311-9.08-.508-13.06-3.22-4.513-3.073-.654-7.017 3.303-11.214 1.066-1.132 1.983-2.458 2.736-3.812 3.282-5.92 2.684-14.856-.897-20.557-1.309-2.081-2.933-3.603-4.942-4.991-3.421-2.362-7.446-3.47-11.475-3.47-8.571 0-17.15 5.023-19.908 13.688z" fill="#fff"/>
    </mask>
    <g mask="url(#m)">
        <path fill-rule="evenodd" clip-rule="evenodd" d="M40.412 109.578c-4.01 6.312-2.195 14.517 1.047 20.768 1.521 2.933 3.63 5.611 4.908 8.667-1.285-.988-2.371-2.24-3.4-3.488-4.13-5.013-6.729-11.186-5.976-17.812.334-2.938.998-6.11 3.42-8.135z" fill="#F190AE"/>
    </g>
    <path clip-rule="evenodd" d="M44.828 142.309c3.96-2.859-.31-4.893-2.988-9.038-3.934-6.092-5.51-13.699-3.292-20.671C42.6 99.862 59.232 94.993 69.93 102.381c2.01 1.388 3.635 2.91 4.942 4.991 3.582 5.701 4.18 14.637.897 20.557-.752 1.355-1.669 2.68-2.735 3.812-3.958 4.197-7.816 8.141-3.303 11.214 3.981 2.712 7.613-.091 13.06 3.22 2.465 1.499 3.255 4.7 3.255 6.487 0 4.712 1.634 6.242.546 6.571-1.922.58-2.745-5.903-5.585-7.72-3.909-2.5-6.753.169-10.731-.264 1.51 2.817.053 8.622-5.164 9.447-5.48.866-8.341-5.286-11.943-4.683-2.93.491-1.297 6.65-3.36 6.368-.897-.122-.502-2.326-.897-3.217-1.69-3.807-.372-7.29 4.044-7.772 3.517-.384 4.926 1.25 9.554 1.705-2.77-2.397-6.69-2.626-10.15-2.035-1.815.309-3.727 1.074-5.602.82.003 1.221-.406 2.513-.566 3.726a13.11 13.11 0 0 0-.123 2.299c.021.493.12.975.213 1.458.1.511.477 1.762-.486 1.657-.388-.043-.658-.362-.834-.684-.97-1.782-.396-4.301-2.21-5.646-2.218-1.644-4.36 1.373-7.1.914-5.658-.948-6.881-9.445-2.381-12.263 4.713-2.951 8.47 1.194 11.557-1.034z" stroke="#333739" stroke-width=".46" stroke-linecap="round" stroke-linejoin="round"/>
    <path fill-rule="evenodd" clip-rule="evenodd" d="M62.481 153.32c.28.02.544.019.787-.01.295-.034.563-.105.788-.224a1.4 1.4 0 0 0 .365-.272c.15-.161.26-.354.323-.586a.126.126 0 1 0-.234-.094 1.194 1.194 0 0 1-.366.404 1.506 1.506 0 0 1-.23.133c-.08.038-.164.07-.254.098-.326.101-.716.128-1.148.099a.226.226 0 0 0-.242.211.226.226 0 0 0 .211.241zM46.975 151.95c.02-1.303-.441-2.353-1.204-3.057-.785-.726-1.893-1.087-3.138-.975-.244.022-.5.089-.76.185-.436.16-.891.399-1.337.624-.447.224-.884.433-1.285.505-.376.069-.705.081-.99.031a1.296 1.296 0 0 1-.8-.437c-.19-.221-.329-.515-.425-.892a5.503 5.503 0 0 1-.156-1.042.076.076 0 0 0-.152 0c-.024.415-.016.78.031 1.098.066.446.207.8.408 1.07.245.33.586.534 1.014.623.327.068.71.06 1.148-.012.438-.076.92-.293 1.41-.535.432-.213.87-.446 1.292-.599.221-.08.437-.139.644-.158 1.103-.1 2.087.212 2.783.854.677.623 1.08 1.555 1.064 2.71a.226.226 0 0 0 .224.23.226.226 0 0 0 .23-.223zM70.497 151.124c-.612-1.149-1.571-2.319-2.475-3.492-.59-.767-1.153-1.538-1.573-2.308-.298-.545-.527-1.088-.634-1.637a3.376 3.376 0 0 1-.035-1.159.126.126 0 0 0-.248-.046c-.211 1.006.041 2.023.553 3.034.406.804.979 1.6 1.579 2.39.88 1.159 1.832 2.301 2.433 3.431a.227.227 0 1 0 .4-.213zM44.857 137.321c.328.397.61.73.858 1.036.3.37.548.701.77 1.065.117.191.228.39.337.609.14.284.283.597.421.972a.126.126 0 0 0 .242-.072 8.079 8.079 0 0 0-.308-1.056 5.105 5.105 0 0 0-.315-.673c-.219-.392-.479-.742-.792-1.131-.248-.31-.534-.641-.864-1.039a.227.227 0 1 0-.349.289zM39.695 110.579c.337-.523.767-1 1.244-1.469.446-.439.944-.825 1.46-1.192.405-.287.822-.549 1.247-.773.648-.343 1.312-.593 1.975-.686.354-.05.705-.063 1.05-.023.231.026.46.055.686.123.815.243 1.6.741 2.302 1.703a.245.245 0 0 0 .331.099.245.245 0 0 0 .1-.332c-.397-1.07-.958-1.817-1.616-2.351a3.824 3.824 0 0 0-1.165-.636c-.598-.209-1.24-.25-1.883-.186-.864.084-1.745.39-2.565.864a7.62 7.62 0 0 0-1.411 1.034 8.733 8.733 0 0 0-1.374 1.654 8.445 8.445 0 0 0-.92 1.913.3.3 0 0 0 .14.399.3.3 0 0 0 .399-.141zM67.84 116.325c-.554.118-1.103.123-1.69.104-.539-.017-1.061-.117-1.603-.23a14.867 14.867 0 0 1-.817-.199 8.056 8.056 0 0 1-2.535-1.146 10.687 10.687 0 0 1-.837-.62c-.684-.568-1.329-1.19-1.815-2.068a.32.32 0 0 0-.407-.195.32.32 0 0 0-.194.407c.16.961.474 1.785.922 2.537.209.35.453.663.728.951.626.657 1.399 1.138 2.203 1.492a6.797 6.797 0 0 0 1.525.471c.35.064.702.106 1.054.103a6.633 6.633 0 0 0 3.675-1.107.272.272 0 0 0-.209-.5zM54.058 111.284c.037.164.102.312.188.443.062.094.137.176.22.247.15.131.328.216.506.252.1.02.201.023.299.008.33-.049.639-.286.783-.781.092-.329.038-.664-.05-1-.078-.303-.18-.605-.188-.904a1.07 1.07 0 0 1 .073-.438.054.054 0 0 0-.027-.071.054.054 0 0 0-.07.027 1.21 1.21 0 0 0-.12.479c-.016.311.063.634.122.954.055.296.093.589-.006.868-.102.298-.271.464-.467.525a.645.645 0 0 1-.294.017.94.94 0 0 1-.3-.1 1.23 1.23 0 0 1-.27-.195 1.281 1.281 0 0 1-.279-.372.063.063 0 0 0-.08-.039.062.062 0 0 0-.04.08zM69.402 122.456c.11.193.246.329.397.415a.848.848 0 0 0 .606.091.917.917 0 0 0 .44-.239c.159-.152.276-.371.328-.64.048-.268-.016-.572-.13-.904-.125-.365-.308-.767-.415-1.197a2.504 2.504 0 0 1-.079-.878.052.052 0 0 0-.045-.06.052.052 0 0 0-.06.044c-.057.317-.04.628.014.93.078.442.232.861.337 1.238.08.285.132.542.08.765a.927.927 0 0 1-.256.469.711.711 0 0 1-.29.177.666.666 0 0 1-.429-.012.965.965 0 0 1-.394-.272.064.064 0 0 0-.09-.015.063.063 0 0 0-.014.088zM70.896 118.776c.03.282.127.511.26.679a.828.828 0 0 0 .443.293.67.67 0 0 0 .662-.205c.123-.128.222-.318.282-.577.043-.197.038-.431.002-.691-.045-.309-.131-.656-.214-1.015-.115-.504-.222-1.028-.171-1.5a.053.053 0 0 0-.046-.06.052.052 0 0 0-.06.044 2.99 2.99 0 0 0-.035.655c.022.512.135 1.052.208 1.534.056.371.09.706.019.961-.061.235-.162.392-.282.481a.38.38 0 0 1-.302.075.677.677 0 0 1-.388-.24 1.287 1.287 0 0 1-.254-.459.062.062 0 0 0-.075-.049.062.062 0 0 0-.05.074z" fill="#333739"/>
    <path fill-rule="evenodd" clip-rule="evenodd" d="M54.732 111.306c-.02-.07-.027-.134-.041-.204-.013-.059-.021-.116-.032-.174-.006-.039-.011-.077-.019-.115a3.858 3.858 0 0 1-.03-.189 2.039 2.039 0 0 1-.019-.289c.005-.332.089-.665.25-.972a.052.052 0 0 0-.017-.073.053.053 0 0 0-.073.016 2.31 2.31 0 0 0-.37.697 1.853 1.853 0 0 0-.09.536 1.067 1.067 0 0 0 .182.657c.045.063.093.117.15.174.017.03.056.04.086.023a.064.064 0 0 0 .023-.087zM69.811 122.196c-.014-.082-.016-.158-.027-.241-.01-.077-.018-.153-.03-.23-.01-.068-.023-.136-.035-.204a3.52 3.52 0 0 1-.054-.484 3.071 3.071 0 0 1 .07-.788.051.051 0 0 0-.034-.066.052.052 0 0 0-.067.033c-.1.231-.17.473-.21.725a2.62 2.62 0 0 0-.029.511 1.238 1.238 0 0 0 .171.621c.04.063.082.116.13.175a.065.065 0 0 0 .084.032.064.064 0 0 0 .031-.084zM71.56 118.863c0-.027.002-.048.001-.074 0-.057 0-.107-.002-.164l-.005-.092c-.006-.043-.009-.089-.016-.133-.014-.087-.034-.175-.046-.263a3.376 3.376 0 0 1-.037-.406 2.75 2.75 0 0 1 .032-.492.053.053 0 0 0-.036-.065.054.054 0 0 0-.066.037 2.612 2.612 0 0 0-.188 1.033c.002.059.006.119.016.177a.98.98 0 0 0 .122.337c.033.055.067.098.107.148a.063.063 0 1 0 .12-.043z" fill="#E62B31"/>
    <path fill-rule="evenodd" clip-rule="evenodd" d="M41.32 111.901c.233-.235.614-.47 1.057-.682a8.622 8.622 0 0 1 1.603-.571c.459-.108.9-.155 1.26-.097a.054.054 0 0 0 .064-.042.054.054 0 0 0-.042-.063c-.372-.089-.836-.08-1.322.003a5.8 5.8 0 0 0-1.669.554c-.463.234-.852.509-1.089.768a.094.094 0 0 0 .004.133.094.094 0 0 0 .133-.003zM47.903 118.341a11.61 11.61 0 0 0 .204-3.223 10.401 10.401 0 0 0-.096-.806 8.005 8.005 0 0 0-.321-1.313c-.17-.493-.384-.905-.635-1.198a.054.054 0 0 0-.076-.007.055.055 0 0 0-.008.076c.229.293.41.7.553 1.182.115.389.201.827.261 1.294.034.256.058.519.076.79a14.377 14.377 0 0 1 .014 1.747c-.025.485-.077.965-.158 1.422a.095.095 0 1 0 .186.036z" fill="#333739"/>
    <path fill-rule="evenodd" clip-rule="evenodd" d="M45.25 111.111c-1.018-.564-3.434-.412-4.755.036-.308.104-.036.797-.287 1.328-.254.536-.426 1.08-.83 1.875.59-.37 1.518-1 2.089-1.406 1.195-.853 2.46-1.937 3.784-1.833z" fill="#333739"/>
    <path fill-rule="evenodd" clip-rule="evenodd" d="M44.428 110.992c2.397.394 3.849 3.382 3.242 6.669-.608 3.287-3.047 5.636-5.443 5.242-2.396-.394-3.848-3.382-3.241-6.669.608-3.287 3.046-5.636 5.442-5.242z" fill="#fff"/>
    <path fill-rule="evenodd" clip-rule="evenodd" d="M44.451 110.858c-.798-.157-1.612-.024-2.368.352a4.708 4.708 0 0 0-.872.568c-1.178.961-2.093 2.544-2.437 4.415-.34 1.867-.031 3.64.724 4.922.629 1.065 1.567 1.795 2.7 1.978 1.125.18 2.26-.208 3.225-1.01 1.16-.967 2.075-2.533 2.412-4.394.335-1.854.03-3.614-.722-4.885-.621-1.051-1.544-1.77-2.661-1.949v.003zm-.043.267c1.271.213 2.26 1.19 2.794 2.548.444 1.125.577 2.511.306 3.955-.272 1.446-.906 2.706-1.736 3.616-.988 1.085-2.255 1.675-3.512 1.465-1.252-.21-2.224-1.174-2.753-2.512-.442-1.117-.575-2.493-.306-3.926.269-1.438.899-2.687 1.718-3.597a5.328 5.328 0 0 1 1.221-1.016c.35-.209.714-.367 1.088-.459a3.21 3.21 0 0 1 1.18-.078v.004z" fill="#333739"/>
    <path fill-rule="evenodd" clip-rule="evenodd" d="M45.76 113.506c1.744 1.209 2.106 4.224.808 6.73-1.298 2.504-3.768 3.556-5.512 2.346-1.744-1.209-2.107-4.225-.809-6.729 1.298-2.505 3.768-3.557 5.513-2.347z" fill="#010101"/>
    <path fill-rule="evenodd" clip-rule="evenodd" d="M41.124 116.176c-.635.91-.923 1.77-.998 2.526-.047.476.01.917.127 1.311.206.691.618 1.254 1.15 1.614a2.855 2.855 0 0 0 1.9.502c.29-.028.582-.08.866-.203.817-.355 1.616-1.053 2.053-2.3a.414.414 0 0 0-.739-.372c-.36.531-.79.849-1.214 1.064-.64.324-1.287.18-1.752-.201a1.486 1.486 0 0 1-.415-.544c-.1-.222-.17-.474-.179-.763-.016-.542.093-1.178.448-1.894a.726.726 0 0 0-1.247-.74z" fill="#901913"/>
    <path fill-rule="evenodd" clip-rule="evenodd" d="M43.535 113.868c.44.068.718.526.617 1.021-.1.494-.538.839-.979.771-.44-.069-.717-.526-.617-1.02.1-.495.539-.84.98-.772zM43.657 120.186c.372.059.598.483.505.947-.095.466-.473.796-.845.738-.372-.058-.599-.482-.505-.947.094-.465.473-.795.845-.738z" fill="#fff"/>
    <path fill-rule="evenodd" clip-rule="evenodd" d="M56.54 122.05a8.494 8.494 0 0 1 1.659-.572c.377-.092.76-.161 1.148-.214.32-.044.645-.075.97-.099.325-.023.65-.038.978-.044.657-.013 1.317.01 1.97.078 1.018.106 2.01.301 2.933.589a.08.08 0 0 0 .056-.151c-.9-.407-1.88-.744-2.905-.965a12.56 12.56 0 0 0-2.045-.272 9.46 9.46 0 0 0-1.038.01 9.352 9.352 0 0 0-1.035.129c-.413.076-.82.178-1.213.31-.599.2-1.167.465-1.7.791a.233.233 0 0 0 .223.41z" fill="#333739"/>
    <path fill-rule="evenodd" clip-rule="evenodd" d="M56.6 121.996c.781-.918 2.002-1.506 3.308-1.799 1.323-.298 2.732-.295 3.877-.021a.05.05 0 0 0 .059-.035.048.048 0 0 0-.034-.059c-1.156-.332-2.593-.397-3.957-.155-1.4.249-2.718.828-3.592 1.767a.226.226 0 0 0 .018.32.226.226 0 0 0 .32-.018zM58.296 122.831c.401.199.873.352 1.39.445.309.055.633.089.967.098a5.639 5.639 0 0 0 .969-.059 6.8 6.8 0 0 0 1.4-.364.048.048 0 0 0-.026-.092 8.47 8.47 0 0 1-1.01.135 13.977 13.977 0 0 1-1.79.02c-.674-.042-1.298-.164-1.811-.379a.108.108 0 1 0-.09.196zM48.544 126.106c.045.206.075.41.103.613a12.072 12.072 0 0 1 .099 1.425c-.001.453-.047.905-.166 1.37a.038.038 0 0 0 .023.049c.021.007.043-.002.05-.023.15-.339.265-.674.339-1.017a4.39 4.39 0 0 0 .096-.718 3.546 3.546 0 0 0-.041-.723 4.423 4.423 0 0 0-.088-.425 6.165 6.165 0 0 0-.197-.615.114.114 0 0 0-.14-.076.112.112 0 0 0-.078.14zM53.256 126.025a3.341 3.341 0 0 0-.298.602 2.895 2.895 0 0 0-.176 1.184c.018.248.063.492.13.734.099.347.241.684.418 1.014.008.02.031.029.05.02a.04.04 0 0 0 .021-.051 5.372 5.372 0 0 1-.235-1.035 5.329 5.329 0 0 1 .046-1.538c.05-.275.124-.551.245-.825a.113.113 0 0 0-.2-.105zM49.71 132.184c.17.152.35.268.546.346a1.302 1.302 0 0 0 .435.085c.148-.001.294-.025.437-.072.199-.067.384-.169.56-.31a.101.101 0 1 0-.102-.175 1.793 1.793 0 0 1-.708.116c-.068-.001-.136-.008-.204-.013-.067-.006-.135-.01-.202-.019a2.356 2.356 0 0 1-.617-.17.128.128 0 1 0-.144.212zM50.44 129.989c.196.04.374-.002.582-.059a.827.827 0 0 0 .226-.105c.218-.136.385-.365.514-.601.277-.5.335-1.112.068-1.61-.182-.322-.484-.58-.805-.826-.23-.177-.475-.338-.604-.604-.135-.278-.17-.633.005-1.168a.096.096 0 1 0-.174-.082c-.378.595-.418 1.049-.33 1.427.09.388.343.689.613.972.207.216.434.406.542.656.09.198.049.421-.033.624a1.44 1.44 0 0 1-.202.339c-.054.068-.113.131-.17.194-.065.07-.093.155-.163.213-.052.044-.08.097-.138.127a.254.254 0 0 0 .068.503z" fill="#333739"/>
    <path fill-rule="evenodd" clip-rule="evenodd" d="M76.75 126.074c.491-4.511-2.985-9.919-6.228-12.715-7.509-6.475-18.38-8.621-28.376-8.32 4.602-7.792 14.382-9.073 21.919-6.957 5.284 1.483 10.06 5.127 12.685 10.076 4.338 8.173 2.279 14.491 0 17.916z" fill="#fff"/>
    <path fill-rule="evenodd" clip-rule="evenodd" d="M52.398 104.143c-1.993-.199-4.162-.299-6.3-.334l3.526-5.227c1.988.02 3.938.148 5.849.382-.98 1.683-1.991 3.319-3.075 5.179z" fill="#76151D"/>
    <path fill-rule="evenodd" clip-rule="evenodd" d="M57.882 103.158c-.34.141-.672.18-.963.118-.7-.152-.899-.843-.477-1.573.413-.715 1.272-1.168 1.974-1.031.29.058.512.208.637.436l.006.012c.282-.143.563-.284.843-.423l-.008-.015c-.192-.394-.572-.662-1.061-.754-1.14-.214-2.557.516-3.2 1.625-.664 1.148-.326 2.29.803 2.541.49.108 1.077.027 1.651-.231l.02-.009c-.068-.236-.138-.47-.208-.703l-.017.007zm.717 1.303c.262.066.524.133.785.201a192.111 192.111 0 0 0 2.246-4.012 41.202 41.202 0 0 0-.778-.181 189.317 189.317 0 0 1-2.253 3.992zm4.73-.415c.016-.057.033-2.961.017-2.963a63.657 63.657 0 0 0-.759-.203 201.615 201.615 0 0 1-2.234 4.035c.262.073.526.147.788.224.47-.836.927-1.658 1.368-2.466.012.126-.014 2.922-.025 2.916 0-.005 2.598-1.995 2.711-2.076-.43.819-.874 1.649-1.33 2.491.264.091.529.185.794.28a225.31 225.31 0 0 0 2.147-4.109 36.461 36.461 0 0 0-.756-.264c0-.005-2.663 2.085-2.721 2.135zm4.23 2.451a47.97 47.97 0 0 0-.776-.319l.505-.985c.257.103.514.209.77.318.36.154.362.463.243.699-.12.24-.378.441-.743.287zm.56-2.949c.237.096.474.196.71.297.3.127.395.373.258.652-.138.28-.4.368-.701.241-.239-.101-.477-.2-.716-.298l.449-.892zm.899 1.897c.223-.025.643-.174.865-.631.339-.7.095-1.352-.64-1.67a43.781 43.781 0 0 0-1.537-.625 220.234 220.234 0 0 1-2.12 4.118c.553.212 1.104.432 1.656.663.755.315 1.458.057 1.831-.697.276-.559.096-.958-.055-1.158z" fill="#7D170F"/>
    <path fill-rule="evenodd" clip-rule="evenodd" d="M49.8 99.422c1.063.027 2.114.084 3.153.173.192.586.385 1.191.577 1.816-.901.561-1.82 1.138-2.758 1.733a51.164 51.164 0 0 0-3.305-.203c.918-.626 1.818-1.233 2.7-1.825-.121-.581-.244-1.145-.366-1.694z" fill="#E6292B"/>
    <path fill-rule="evenodd" clip-rule="evenodd" d="M53.528 101.411a97.221 97.221 0 0 0-.578-1.816 52.925 52.925 0 0 0-3.151-.173c.123.549.245 1.113.366 1.694" fill="#fff"/>
    <mask id="n" style="mask-type:alpha" maskUnits="userSpaceOnUse" x="42" y="97" width="38" height="30">
        <path fill-rule="evenodd" clip-rule="evenodd" d="M42.147 105.039c9.996-.301 20.866 1.845 28.375 8.319 3.243 2.797 6.72 8.206 6.227 12.716 2.28-3.424 4.338-9.743 0-17.916-2.625-4.949-7.4-8.593-12.684-10.076a24.654 24.654 0 0 0-6.607-.91c-5.94 0-11.982 2.23-15.311 7.867z" fill="#fff"/>
    </mask>
    <g mask="url(#n)">
        <path fill-rule="evenodd" clip-rule="evenodd" d="M70.512 99.367c3.954 5.218 4.657 10.619.192 15.425 3.204 3.088 5.847 6.795 6.377 11.338 6.293-6.302 8.088-18.117.696-24.303-1.768-1.478-5.228-1.553-7.265-2.46z" fill="#C9C6C6"/>
    </g>
    <path clip-rule="evenodd" d="M76.75 126.074c.491-4.511-2.985-9.919-6.228-12.715-7.509-6.475-18.38-8.621-28.376-8.32 4.602-7.792 14.382-9.073 21.919-6.957 5.284 1.483 10.06 5.127 12.685 10.076 4.338 8.173 2.279 14.491 0 17.916z" stroke="#333739" stroke-width=".46" stroke-linecap="round" stroke-linejoin="round"/>
    <path fill-rule="evenodd" clip-rule="evenodd" d="M71.944 114.819c-3.648 1.357-10.318-3.048-13.342-4.848-5.133-3.053-10.7-5.215-16.455-4.931 8.096-1.091 16.99.831 24.008 4.931 2.019 1.18 4.234 3.081 5.79 4.848z" fill="#fff"/>
    <mask id="o" style="mask-type:alpha" maskUnits="userSpaceOnUse" x="42" y="104" width="30" height="12">
        <path fill-rule="evenodd" clip-rule="evenodd" d="M42.147 105.039c5.755-.283 11.322 1.878 16.455 4.932 3.024 1.799 9.694 6.205 13.342 4.848-1.555-1.768-3.77-3.668-5.789-4.848-5.714-3.34-12.67-5.233-19.429-5.233-1.543 0-3.075.099-4.58.301z" fill="#fff"/>
    </mask>
    <g mask="url(#o)">
        <path fill-rule="evenodd" clip-rule="evenodd" d="M58.324 109.941c3.803 1.675 7.922 2.172 12.03 2.313 1.438.049 4.963 3.845 2.241 5.108-1.2.557-2.676.407-3.913.061-3.852-1.078-7.342-5.057-10.358-7.482z" fill="#C9C6C6"/>
    </g>
    <path clip-rule="evenodd" d="M71.944 114.815c-3.648 1.357-10.318-3.048-13.342-4.848-5.133-3.053-10.7-5.214-16.455-4.931 8.096-1.091 16.99.831 24.008 4.931 2.019 1.18 4.234 3.081 5.79 4.848z" stroke="#333739" stroke-width=".46" stroke-linecap="round" stroke-linejoin="round"/>
    <path fill-rule="evenodd" clip-rule="evenodd" d="M70.243 112.973c.792-1.103 1.438-2.619 1.79-4.243.218-1.006.328-2.053.287-3.064a8.956 8.956 0 0 0-.19-1.537 7.074 7.074 0 0 0-.29-.995 5.96 5.96 0 0 0-.578-1.156 5.064 5.064 0 0 0-.833-.982.08.08 0 0 0-.115.114c.346.383.619.817.84 1.287.212.455.37.943.482 1.454.087.394.147.8.182 1.214.052.605.05 1.227.001 1.85-.17 2.167-.918 4.35-1.944 5.795a.226.226 0 0 0 .052.316.228.228 0 0 0 .316-.053z" fill="#333739"/>
    <path fill-rule="evenodd" clip-rule="evenodd" d="M71.383 141.46c1.458-1.517 2.276-4.4 1.506-9.354-.703-4.52-.476-6.858 1.94-10.859 1.24-2.052 3.173-3.595 4.327-5.693.309-.561.654-2.135 1.538-1.589.368.227.534.691.634 1.089.849 3.4-2.46 6.018-3.191 9.065-.755 3.143 1.46 6.194 2.162 9.161a15.81 15.81 0 0 1 .174 6.431c-1.168.755-2.452 1.353-3.939 1.693-1.844.423-3.652.506-5.151.056z" fill="#E62B31"/>
    <mask id="p" style="mask-type:alpha" maskUnits="userSpaceOnUse" x="71" y="113" width="11" height="29">
        <path fill-rule="evenodd" clip-rule="evenodd" d="M79.157 115.55c-1.154 2.097-3.086 3.64-4.325 5.693-2.416 4-2.644 6.338-1.941 10.858.77 4.954-.048 7.837-1.506 9.355 1.499.449 3.307.366 5.151-.056 1.487-.341 2.772-.939 3.94-1.693a15.816 15.816 0 0 0-.175-6.43c-.702-2.969-2.917-6.019-2.162-9.162.732-3.047 4.04-5.665 3.19-9.066-.099-.397-.265-.862-.633-1.089a.67.67 0 0 0-.35-.112c-.632 0-.924 1.222-1.189 1.702z" fill="#fff"/>
    </mask>
    <g mask="url(#p)">
        <path fill-rule="evenodd" clip-rule="evenodd" d="M80.522 113.932c.358 4.051-3.157 7.424-3.95 11.28a12.218 12.218 0 0 0-.195 3.689c.536 5.23 3.144 12.845-5.117 12.714 1.702 3.497 10.008 3.732 11.361-.067 1.01-2.832.037-6.851.121-9.81.125-4.383 1.29-8.663 1.096-13.07-.003-.081-.008-.162-.013-.243-.07-1.122-.252-2.415-.675-3.468-.388-.962-2.027-2.573-2.628-1.025z" fill="#BB1818"/>
    </g>
    <mask id="q" style="mask-type:alpha" maskUnits="userSpaceOnUse" x="71" y="113" width="11" height="29">
        <path fill-rule="evenodd" clip-rule="evenodd" d="M79.157 115.55c-1.154 2.097-3.086 3.64-4.325 5.693-2.416 4-2.644 6.338-1.941 10.858.77 4.954-.048 7.837-1.506 9.355 1.499.449 3.307.366 5.151-.056 1.487-.341 2.772-.939 3.94-1.693a15.816 15.816 0 0 0-.175-6.43c-.702-2.969-2.917-6.019-2.162-9.162.732-3.047 4.04-5.665 3.19-9.066-.099-.397-.265-.862-.633-1.089a.67.67 0 0 0-.35-.112c-.632 0-.924 1.222-1.189 1.702z" fill="#fff"/>
    </mask>
    <g mask="url(#q)">
        <path fill-rule="evenodd" clip-rule="evenodd" d="M79.85 114.078c-.294 2.778-2.113 4.679-3.677 6.838-.936 1.29-1.717 2.794-2.192 4.319-.291.933-.54 1.909-.558 2.893-.073 4.037 2.199 9.953-1.802 12.858.066-1.788.296-3.559.284-5.352-.026-3.717-.708-7.046.54-10.716 1.446-4.246 4.832-7.29 7.405-10.84z" fill="#F190AE"/>
    </g>
    <path clip-rule="evenodd" d="M71.385 141.46c1.458-1.517 2.276-4.4 1.506-9.354-.703-4.52-.476-6.858 1.94-10.859 1.24-2.052 3.173-3.595 4.326-5.693.31-.561.655-2.135 1.54-1.589.367.227.533.691.633 1.089.849 3.4-2.46 6.018-3.191 9.065-.755 3.143 1.46 6.194 2.162 9.161a15.81 15.81 0 0 1 .174 6.431c-1.167.755-2.452 1.353-3.939 1.693-1.844.423-3.652.506-5.151.056z" stroke="#333739" stroke-width=".46" stroke-linecap="round" stroke-linejoin="round"/>
    <path fill-rule="evenodd" clip-rule="evenodd" d="m58.395 163.141-13.05 5.65v1.677s10.899-5.656 12.775-6.631a.507.507 0 0 0 .275-.449v-.247z" fill="#5B5959"/>
    <path clip-rule="evenodd" d="m58.395 163.141-13.05 5.65v1.677s10.899-5.656 12.775-6.631a.507.507 0 0 0 .275-.449v-.247z" stroke="#333739" stroke-width=".367" stroke-linecap="round" stroke-linejoin="round"/>
    <path fill-rule="evenodd" clip-rule="evenodd" d="m25.615 162.222 19.73 8.25v-1.678l-19.73-8.271v1.699z" fill="#5B5959"/>
    <path clip-rule="evenodd" d="m25.615 162.222 19.73 8.25v-1.678l-19.73-8.271v1.699z" stroke="#333739" stroke-width=".367" stroke-linecap="round" stroke-linejoin="round"/>
    <path d="m46.898 168.911.841-.401M48.535 168.126l.842-.401" stroke="#333739" stroke-width=".367" stroke-linecap="round" stroke-linejoin="round"/>
    <path fill-rule="evenodd" clip-rule="evenodd" d="m58.395 163.141-13.05 5.65-19.73-8.271 14.429-4.547 18.35 7.168z" fill="#908F8F"/>
    <path clip-rule="evenodd" d="m58.395 163.141-13.05 5.65-19.73-8.271 14.429-4.547 18.35 7.168z" stroke="#333739" stroke-width=".367" stroke-linecap="round" stroke-linejoin="round"/>
    <path fill-rule="evenodd" clip-rule="evenodd" d="m50.13 164.44-6.34 2.541-13.833-5.822 6.836-2.143 13.337 5.424z" fill="#333739"/>
    <path clip-rule="evenodd" d="m50.13 164.44-6.34 2.541-13.833-5.822 6.836-2.143 13.337 5.424z" stroke="#333739" stroke-width=".367" stroke-linecap="round" stroke-linejoin="round"/>
    <path d="m50.129 163-7.486 3.05M49.164 165.461l-7.474-3.078M47.518 166.762l-7.475-3.078M48.1 162.172l-7.487 3.05M45.748 161.473l-7.486 3.049" stroke="#908F8F" stroke-width=".367" stroke-linecap="round" stroke-linejoin="round"/>
    <path d="m49.6 160.319-5.784-2.264-3.455 1.384" stroke="#5B5959" stroke-width=".367" stroke-linecap="round" stroke-linejoin="round"/>
    <path d="M49.6 160.32 45.728 162" stroke="#C7C4C4" stroke-width=".367" stroke-linecap="round" stroke-linejoin="round"/>
    <path fill-rule="evenodd" clip-rule="evenodd" d="m21.047 143.961 19.5 7.377c.521.197.91.644 1.03 1.187l3.769 16.853a1.98 1.98 0 0 1-1.564.007l-18.168-7.7a1.45 1.45 0 0 1-.842-.985l-3.8-15.263a2.543 2.543 0 0 1 .075-1.476z" fill="#9B9A9A"/>
    <mask id="r" style="mask-type:alpha" maskUnits="userSpaceOnUse" x="20" y="143" width="26" height="27">
        <path fill-rule="evenodd" clip-rule="evenodd" d="m20.971 145.437 3.801 15.263c.11.442.422.807.842.985l18.168 7.7c.5.212 1.065.209 1.563-.007l-3.768-16.853a1.653 1.653 0 0 0-1.03-1.187l-19.5-7.377a2.543 2.543 0 0 0-.076 1.476z" fill="#fff"/>
    </mask>
    <g mask="url(#r)">
        <path fill-rule="evenodd" clip-rule="evenodd" d="m24.79 160.833.64.74-4.123-16.246a.188.188 0 0 1 .248-.221l18.644 7.078a.374.374 0 0 0 .436-.133l.059-.082a.372.372 0 0 0-.17-.565l-19.463-7.482-.209.788a.738.738 0 0 0-.002.366l3.94 15.757z" fill="#C7C4C4"/>
    </g>
    <mask id="s" style="mask-type:alpha" maskUnits="userSpaceOnUse" x="20" y="143" width="26" height="27">
        <path fill-rule="evenodd" clip-rule="evenodd" d="m20.971 145.437 3.801 15.263c.11.442.422.807.842.985l18.168 7.7c.5.212 1.065.209 1.563-.007l-3.768-16.853a1.653 1.653 0 0 0-1.03-1.187l-19.5-7.377a2.543 2.543 0 0 0-.076 1.476z" fill="#fff"/>
    </mask>
    <g mask="url(#s)">
        <path fill-rule="evenodd" clip-rule="evenodd" d="M41.445 151.935a.13.13 0 0 0-.101-.1.129.129 0 0 0-.133.05l-.363.491c-.176.238-.24.541-.174.83l3.669 16.207h1.052l-3.95-17.478z" fill="#C7C4C4"/>
    </g>
    <path clip-rule="evenodd" d="m21.047 143.961 19.5 7.377c.521.197.91.644 1.03 1.187l3.769 16.853a1.98 1.98 0 0 1-1.564.007l-18.168-7.7a1.45 1.45 0 0 1-.842-.985l-3.8-15.263a2.543 2.543 0 0 1 .075-1.476z" stroke="#333739" stroke-width=".367" stroke-linecap="round" stroke-linejoin="round"/>
</svg>
