<svg width="59" height="152" viewBox="0 0 59 152" fill="none" xmlns="http://www.w3.org/2000/svg">
    <path d="m26.43 146.852 2.466-.196c.01 0 .018 0 .018-.013l-.405-7.977c0-.012-.009-.022-.018-.021l-5.464.413h-.008c-.068.144-2.48 5.122-7.51 6.888-.361.132-.67.376-.88.695-.212.32-.314.698-.292 1.079 0 .012.01.023.018.022l10.255-.753" fill="#333739"/>
    <path d="m28.515 138.418-5.394.409-1.233 2.179s1.467 1.47 3.21 1.34c1.742-.129 3.562-1.325 3.562-1.325l-.126-2.579-.02-.024z" fill="#FFDDC5"/>
    <path d="m42.818 146.14-2.014-.029c-.006 0-.014 0-.014-.01l-.198-6.594c0-.01.007-.019.014-.019l4.464.045c.065.116 2.349 4.085 6.545 5.266.304.091.572.276.764.527.192.251.3.555.306.87 0 .01-.005.019-.013.019l-8.368-.061" fill="#333739"/>
    <path d="m40.572 139.309 4.402.041 1.143 1.728s-1.093 1.293-2.516 1.28c-1.423-.013-2.976-.898-2.976-.898l-.066-2.132.013-.019z" fill="#FFDDC5"/>
    <path fill-rule="evenodd" clip-rule="evenodd" d="M29.389 28.192c-.034.006 2.742 2.087 5.133 2.04 2.25-.043 3.969-1.43 3.94-1.442-.881-.364-.779-2.322.143-7.106l-.424-.019-7.156-.321s-.207 1.975-.547 3.804c-.285 1.536-.664 2.972-1.09 3.044z" fill="#FFDDC5"/>
    <path opacity=".1" fill-rule="evenodd" clip-rule="evenodd" d="M30.94 21.879s-.203 1.927-.534 3.712c3.797.745 6.376-1.88 7.51-3.4l-6.977-.312z" fill="#333739"/>
    <path fill-rule="evenodd" clip-rule="evenodd" d="M29.77 23.653s8.921 2.123 9.862-2.841c.941-4.964 2.726-8.025-2.93-9.59-5.657-1.565-7.124.08-7.89 1.634-.766 1.555-1.338 10.114.958 10.793" fill="#FFDDC5"/>
    <path fill-rule="evenodd" clip-rule="evenodd" d="M29.11 6.89c-2.889 2.22-2.227 3.992.446 4.551 2.673.56 6.621 1.034 6.621 1.034s.125 8.466.736 6.498c.612-1.967-.538-2.464.708-3.69s2.242-.144 2.114.882c-.129 1.026-.282 5.71-.282 5.71s2.258-4.72 2.258-7.778c0-3.06-1.209-5.802-4.73-5.805-3.522-.003-4.023.933-6.089.27-2.066-.662-1.786-1.671-1.786-1.671" fill="#333739"/>
    <path d="M46.06 51.848H25.607L17.592 90.14l3.87 50.323h8.622l-1.99-42.377 6.082-23.009 5.598 64.605 7.253.119-.967-87.953z" fill="#333739"/>
    <path d="M16.067 30.863h-4.61l-2.203-15.94-.486-4.185 1.46-1.92.717-1.653.922-1.275-.17-.482-1.333.207-.615 1.377-.443.448-.538-.069L7.53 3.48 6.882.31 6.403 0l-.307.241-.17.793.306 3.341-.307-.104L3.672.31 2.955.172l-.17.62.17 1 .99 1.963.478.93.035.482-.99-.414L1.76 3.721l-.718-.139-.34.38.17.791 1.229.723 1.332.552-.376.173-1.74-.345-.445.413.341.55 1.742.862.785 1.034.444.93.41 1.033 1.024 1.137L5.2 33.877l.461 1.69.768.841 1.741.414h2.715l2.637-.17 2.98.17.436-6.01-.871.05zM53.801 47.068l1.113 9.822-6.436 13.224-2.912-6.824 3.45-5.076-1.893-7.284-1.557-2.317v-3.347l5.898-1.188 2.337 2.99z" fill="#FFDDC5"/>
    <path d="M37.571 28.234s-1.651 1.986-3.45 2.096c-1.8.11-3.678-1.875-3.678-1.875l-3.394.827-.835 34.045-5.481 4.414v3.146h27.466l-3.672-39.811-6.956-2.842z" fill="#fff"/>
    <path d="M37.626 26.68s.297 1.14-.334 1.95c-.63.809-2.337 1.549-2.337 1.549l.761 33.456 1.448 6.396 10.428.337a.897.897 0 0 0 .823-1.312 2.69 2.69 0 0 1-.304-1.146l-.245-6.62-.631-5.384-.612-14.843.167-9.21-5.788-2.98-2.282-1.27-1.094-.923z" fill="#F66"/>
    <path d="m45.492 31.148 1.817.993 7.939 14.677h-7.531l-1.001.773-.631-3.495-.593-12.948z" fill="#F66"/>
    <path d="m53.82 48.623-.186-1.803h1.614l-.594.994-.834.81zM47.717 46.82l-.83.641-.525-1.828 1.355 1.187zM30.319 25.734s.098 1.44.25 2.307c.153.866 1.67 1.732 1.67 1.732s.162 32.313 0 33.487l-.96 6.98-7.059.772c-2.157.236-3.865-1.836-3.406-3.957.385-1.776.678-3.695.522-4.962.198-1.121.19-4.579.302-5.899.112-1.32-.835-17.222-.835-17.222l1.559-10.987s4.348-.005 4.951-.075c.604-.07 1.336-.725 1.336-.725l1.67-1.45z" fill="#F66"/>
    <path d="M14.291 39.15s.274-.667.6-1.733c.225-.734.476-1.657.68-2.681.5-2.51-.11-5.794-.11-5.794l6.9-.956 4.951-.076-1.39 7.82-11.63 3.42" fill="#F66"/>
    <path d="M14.29 39.15c.457-.832.652-1.343.798-2.407l-1.959-.099M14.21 30.86l1.25-1.919s.248 1.302.228 1.92H14.21z" fill="#F66"/>
    <path opacity=".3" fill-rule="evenodd" clip-rule="evenodd" d="M17.046 149.806c-1.657-.095-14.65.21-14.679-.518-.053-1.336 8.714-1.673 9.906-1.887 4.767-.857-1.478-1.318-1.695-2.277-.181-.797 4.509-1.229 6.291-1.589 1.639-.33 6.363-.611 8.046-.876 2.649-.418 5.666-.382 8.34-.515 6.276-.314 11.203-.518 17.52-.427 5.527.08 11.598.762 3.363 2.733-.928.223-4.925 1.316-3.768 2.58 1.623 1.773 7.422-.141 8.122.87.969 1.4-4.75 2.475-5.507 2.561-6.77.766-13.4-.726-20.21-.412-6.843.316-8.889-.61-15.729-.243z" fill="#333739"/>
</svg>
