<svg width="218" height="143" viewBox="0 0 218 143" fill="none" xmlns="http://www.w3.org/2000/svg">
    <path opacity=".3" fill-rule="evenodd" clip-rule="evenodd" d="M58.356 136.458s-32.695.032-32.636-.811c.198-2.821 25.91-1.169 28.022-2.018 1.036-.415-.11-1.321 1.718-1.908 7.266-2.331 32.543-.215 41.568-.231 24.585-.046 30.81-1.095 33.664-1.23 8.01-.377 30.673-.23 37.052-.156 13.118.152 48.405-.469 47.66 1.915-.334 1.069-34.218 3.326-39.987 3.614-4.935.247-8.327 1.733-12.753 2.605-6.2 1.221-13 1.957-19.692 2.421-28.034 1.942-56.773-2.615-84.616-4.201" fill="#333739"/>
    <path fill-rule="evenodd" clip-rule="evenodd" d="M194.161 131.122s22.804-31.24 3.856-65.063c-16.812-30.01-49.466-8.859-56.411-10.153-6.945-1.293-18.17-4.987-33.203-35.523C87.913-21.26 16.863 4 29.817 68.065c6.269 31.004-19.08 32.13-6.163 63.122l170.507-.065z" fill="#DDDEDE" opacity=".1"/>
    <path fill-rule="evenodd" clip-rule="evenodd" d="M124.237 97.46c-.282-1.916-.853-3.774-1.285-5.666-.674-2.93-1.383-5.853-2.085-8.78-.263-1.096-.547-2.189-.821-3.283-.221-.929-.374-1.877-.683-2.781-.332-.973-.873-1.86-1.948-2.355-.969-.813-2.156-1.06-3.445-1.045l.015.008-.188-.14c-.861-.005-1.724-.039-2.583-.001-.718.029-1.3-.126-1.525-.773-.235-.675-.033-1.251.724-1.608.111-.051.198-.142.298-.214.89.227 1.787-.018 2.68-.005.167.128.36.117.561.074l2.618.388.806.284 1.953.946c1.756 1.312 2.64 3.083 3.201 5.022.931 4.44 2.074 8.843 3.134 13.26 1.156 4.81 2.266 9.628 3.412 14.44.623 2.617 1.28 5.226 1.922 7.84-.13 1.382-.851 2.613-1.314 3.908a223.359 223.359 0 0 1-2.858 7.517c-.272.685-.08.772.631.719 5.055-.374 10.111-.722 15.168-1.076 15.071-1.06 30.142-2.116 45.213-3.169.443-.031 1.099-.329 1.301.201.255.671.263 1.419.141 2.142-.012.075-.26.147-.404.174a6.59 6.59 0 0 1-.673.056l-64.539 4.536c-1.245.088-1.229.091-.831-.949 1.706-4.457 3.389-8.924 5.119-13.376.28-.718-.061-1.325-.207-1.948-1.077-4.684-2.223-9.355-3.346-14.028-.026-.115-.105-.214-.162-.317" fill="#fff"/>
    <path opacity=".5" fill-rule="evenodd" clip-rule="evenodd" d="M124.237 97.46c-.282-1.916-.853-3.774-1.285-5.666-.674-2.93-1.383-5.853-2.085-8.78-.263-1.096-.547-2.189-.821-3.283-.221-.929-.374-1.877-.683-2.781-.332-.973-.873-1.86-1.948-2.355-.969-.813-2.156-1.06-3.445-1.045l.015.008-.188-.14c-.861-.005-1.724-.039-2.583-.001-.718.029-1.3-.126-1.525-.773-.235-.675-.033-1.251.724-1.608.111-.051.198-.142.298-.214.89.227 1.787-.018 2.68-.005.167.128.36.117.561.074l2.618.388.806.284 1.953.946c1.756 1.312 2.64 3.083 3.201 5.022.931 4.44 2.074 8.843 3.134 13.26 1.156 4.81 2.266 9.628 3.412 14.44.623 2.617 1.28 5.226 1.922 7.84-.13 1.382-.851 2.613-1.314 3.908a223.359 223.359 0 0 1-2.858 7.517c-.272.685-.08.772.631.719 5.055-.374 10.111-.722 15.168-1.076 15.071-1.06 30.142-2.116 45.213-3.169.443-.031 1.099-.329 1.301.201.255.671.263 1.419.141 2.142-.012.075-.26.147-.404.174a6.59 6.59 0 0 1-.673.056l-64.539 4.536c-1.245.088-1.229.091-.831-.949 1.706-4.457 3.389-8.924 5.119-13.376.28-.718-.061-1.325-.207-1.948-1.077-4.684-2.223-9.355-3.346-14.028-.026-.115-.105-.214-.162-.317" fill="#333739"/>
    <path fill-rule="evenodd" clip-rule="evenodd" d="M136.696 132.882c-1.017 2.807-4.434 3.398-6.598 2.078-.668-.407-1.029-1.003-1.453-1.569-.762-2.207.045-4.143 2.145-4.909 1.515-.554 3.064-.527 4.385.427 1.413 1.02 1.872 2.392 1.521 3.973M184.552 130.062c-1.017 2.807-4.434 3.397-6.598 2.078-.668-.407-1.029-1.003-1.453-1.57-.762-2.207.046-4.141 2.145-4.908 1.516-.554 3.065-.527 4.386.427 1.412 1.02 1.871 2.392 1.52 3.973" fill="#fff"/>
    <path opacity=".5" fill-rule="evenodd" clip-rule="evenodd" d="M136.696 132.882c-1.017 2.807-4.434 3.398-6.598 2.078-.668-.407-1.029-1.003-1.453-1.569-.762-2.207.045-4.143 2.145-4.909 1.515-.554 3.064-.527 4.385.427 1.413 1.02 1.872 2.392 1.521 3.973M184.552 130.062c-1.017 2.807-4.434 3.397-6.598 2.078-.668-.407-1.029-1.003-1.453-1.57-.762-2.207.046-4.141 2.145-4.908 1.516-.554 3.064-.527 4.386.427 1.412 1.02 1.871 2.392 1.52 3.973" fill="#333739"/>
    <path opacity=".3" fill-rule="evenodd" clip-rule="evenodd" d="m165.046 109.572-27.857 3.497a1.996 1.996 0 0 1-2.243-1.741 2.035 2.035 0 0 1 1.776-2.244l27.857-3.498a1.996 1.996 0 0 1 2.243 1.742 2.036 2.036 0 0 1-1.776 2.244" fill="#FFAB00"/>
    <path opacity=".5" fill-rule="evenodd" clip-rule="evenodd" d="m168.815 104.951-26.014 2.953c-1.101.126-2.097-.577-2.225-1.569-.128-.992.66-1.897 1.761-2.023l26.013-2.954c1.103-.125 2.097.578 2.226 1.57.129.992-.659 1.898-1.761 2.023" fill="#FFAB00"/>
    <path opacity=".3" fill-rule="evenodd" clip-rule="evenodd" d="m164.422 97.622-26.618 3.363c-.622.078-1.064.684-.986 1.352l.199 1.715c.078.668.645 1.146 1.268 1.067l26.618-3.363c.622-.079 1.063-.683.986-1.352l-.2-1.715c-.077-.668-.645-1.146-1.267-1.067" fill="#FFAB00"/>
    <path opacity=".5" fill-rule="evenodd" clip-rule="evenodd" d="m164.437 93.368-26.63 3.433c-.621.08-1.065.678-.99 1.335l.192 1.685c.076.657.639 1.124 1.262 1.044l26.629-3.433c.622-.08 1.065-.678.99-1.334l-.193-1.686c-.074-.657-.639-1.124-1.26-1.044" fill="#FFAB00"/>
    <path opacity=".3" fill-rule="evenodd" clip-rule="evenodd" d="m164.133 93.829-25.097 2.907c-1.097.127-2.086-.584-2.213-1.589-.129-1.004.657-1.921 1.751-2.048l25.097-2.909c1.096-.126 2.086.586 2.213 1.59.128 1.004-.657 1.922-1.751 2.049" fill="#FFAB00"/>
    <path opacity=".5" fill-rule="evenodd" clip-rule="evenodd" d="m162.256 90.696-25.097 2.907c-1.096.128-2.086-.584-2.213-1.588-.129-1.006.657-1.922 1.752-2.05l25.096-2.907c1.097-.127 2.086.584 2.213 1.59.128 1.004-.657 1.92-1.751 2.048M177.964 105.024l-12.236-23.263a1.143 1.143 0 0 0-1.543-.482l-1.431.752a1.142 1.142 0 0 0-.478 1.543l12.236 23.263c.295.559.985.775 1.543.481l1.432-.751c.558-.293.771-.984.477-1.543" fill="#FFAB00"/>
    <path fill-rule="evenodd" clip-rule="evenodd" d="M154.249 106.421c4.344-5.536 3.362-13.548-2.194-17.896-5.554-4.349-13.578-3.388-17.922 2.147-4.344 5.536-3.361 13.549 2.194 17.896 5.555 4.349 13.579 3.388 17.922-2.147" fill="#FFAB00"/>
    <path opacity=".5" fill-rule="evenodd" clip-rule="evenodd" d="M150.265 90.238c4.627 3.34 5.677 9.798 2.349 14.424-3.328 4.628-9.779 5.673-14.406 2.334-4.627-3.338-5.679-9.796-2.349-14.423 3.329-4.63 9.779-5.671 14.406-2.335" fill="#fff"/>
    <path fill-rule="evenodd" clip-rule="evenodd" d="M150.862 101.225a.815.815 0 0 1 .239.508.796.796 0 0 1-.149.536c-.455.636-1.231 1.431-2.251 2.072-1.491.938-3.284 1.382-5.075 1.014-1.119-.229-2.234-.834-3.129-1.734l-.882.553a.665.665 0 0 1-.485.087.642.642 0 0 1-.408-.271l-.016-.023a.608.608 0 0 1-.089-.469.62.62 0 0 1 .278-.394l.723-.456c-.184-.226-.309-.364-.398-.496a6.236 6.236 0 0 1-.447-.807l-.745.468a.666.666 0 0 1-.895-.183.612.612 0 0 1 .189-.865l.904-.569c-.428-1.162-.534-2.371-.299-3.454.4-1.839 1.604-3.345 3.166-4.324.908-.573 1.699-.853 2.357-1.002a.904.904 0 0 1 .646.098.845.845 0 0 1 .395.504l.002.014a.822.822 0 0 1-.089.646.864.864 0 0 1-.536.392 6.36 6.36 0 0 0-1.827.805c-.995.625-1.783 1.556-2.073 2.799-.158.721-.122 1.54.222 2.287l5.083-3.199a.656.656 0 0 1 .895.183c.093.14.126.309.09.47a.628.628 0 0 1-.279.395l-5.309 3.34c.14.255.279.51.382.664.132.197.265.393.465.642l5.32-3.35a.683.683 0 0 1 .734.01.607.607 0 0 1 .18.178.621.621 0 0 1 .093.481.635.635 0 0 1-.286.403l-5.096 3.206a4.169 4.169 0 0 0 1.941 1.021c1.328.253 2.437-.009 3.567-.721a7.051 7.051 0 0 0 1.619-1.405.862.862 0 0 1 .623-.302.856.856 0 0 1 .648.248h.002z" fill="#fff"/>
    <path clip-rule="evenodd" d="m186.046 106.841-49.81 5.868c-1.474.173-2.842-.762-3.176-2.173l-6.701-28.26c-.439-1.848 1.069-3.593 3.009-3.486l53.314 2.939c1.427.078 2.579 1.155 2.724 2.542L187.557 105c.094.912-.578 1.732-1.511 1.841z" stroke="#fff" stroke-width=".657"/>
    <path d="m128.309 89.219 57.302 1.243M130.954 101.037l55.677-3.1" stroke="#fff" stroke-width=".657"/>
    <path opacity=".5" fill-rule="evenodd" clip-rule="evenodd" d="M129.385 78.482c-2.138-.118-3.818 1.808-3.329 3.869l6.701 28.259c.372 1.569 1.89 2.601 3.516 2.41l49.81-5.868c1.095-.129 1.896-1.094 1.784-2.181l-2.569-20.756v-.003c-.162-1.543-1.443-2.73-3.016-2.817l-52.897-2.913zm-.034.62c-1.743-.096-3.077 1.469-2.689 3.105l1.648 6.949.005-.246 57.09 1.239-.726-5.87c-.128-1.23-1.152-2.193-2.431-2.264l-52.897-2.912zm56.131 11.67L128.4 89.533l2.653 11.19 55.28-3.078-.851-6.873zm-52.119 19.695-2.165-9.129 55.212-3.074.838 6.771v.002c.074.736-.469 1.407-1.238 1.498l-49.81 5.868c-1.323.155-2.54-.685-2.837-1.936z" fill="#333739"/>
    <path fill-rule="evenodd" clip-rule="evenodd" d="m101.12 62.632-9.917-11.093-3.025 4.611 8.705 8.376 10.435 6.738 3.467-2.73-3.467 2.73.921 1.89s1.151.323 1.252.325c.101.004 1.226-.382 1.321-.382.096 0 .593.293.745.3.152.007 1.3-.425 1.418-.413.118.011 1.147.503 1.297.493.15-.009 1.191-1.687 1.191-1.687l-2.026-2.19-2.323-1.325" fill="#FFDDC5"/>
    <path fill-rule="evenodd" clip-rule="evenodd" d="m49.584 99.528.319 4.707s-3.108 3.046-3.805 4.163c-.698 1.115-1.419 5.008-1.419 5.008l-1.285.115-.246-3.346s2.887-7.287.174-8.204c-1.013-.343-.936-2.47-.936-2.47l7.153-.649M109.199 128.248l3.825-1.272s3.342 2.11 4.414 2.488c1.072.376 4.573.279 4.573.279l.28 1.04-3.891 1.074s-5.776-1.782-6.185 1.037c-.131.902-2.026 1.211-2.026 1.211l-1.597-5.69" fill="#333739"/>
    <path fill-rule="evenodd" clip-rule="evenodd" d="M86.17 45.574c.028.019-3.246 1.103-5.42.131-2.048-.912-3.575-4.27-3.544-4.271.934-.037 1.968-.84 2.803-6.146l.397.145 6.669 2.426s-.503 2.124-.834 4.147c-.278 1.698-.434 3.325-.07 3.568" fill="#FFDDC5"/>
    <path opacity=".1" fill-rule="evenodd" clip-rule="evenodd" d="M87.201 38.624s-.424 2.135-.693 4.172c-3.51-.78-4.92-4.64-5.43-6.73l6.123 2.558z" fill="#333739"/>
    <path fill-rule="evenodd" clip-rule="evenodd" d="M88.927 39.175s-8.451 2.292-9.62-2.828c-1.169-5.12-3.047-8.272 2.3-9.952 5.347-1.68 6.845.005 7.664 1.604.818 1.6 1.825 10.447-.344 11.176" fill="#FFDDC5"/>
    <path fill-rule="evenodd" clip-rule="evenodd" d="M90.985 72.514 79.04 75.796l28.336 53.062 5.738-1.847" fill="#333739"/>
    <path fill-rule="evenodd" clip-rule="evenodd" d="m91.036 73.621-15.26-3.377-7.568 26.999-19.728 1.776.443 7.604s23.544-.738 25.931-2.163c2.387-1.425 16.182-30.839 16.182-30.839" fill="#333739"/>
    <path fill-rule="evenodd" clip-rule="evenodd" d="M91.944 73.319s-5.436.378-5.64.268c-.255-.136-1.312-19.135-1.311-19.123l1.664 2.862" fill="#fff"/>
    <path fill-rule="evenodd" clip-rule="evenodd" d="M89.25 21.72c2.843 2.126 2.244 3.938-.323 4.606-2.57.672-6.379 1.303-6.379 1.303s.072 8.547-.564 6.586c-.635-1.96.47-2.507-.766-3.7-1.233-1.192-2.17-.053-2.025.98.148 1.034.403 5.75.403 5.75s-2.287-4.676-2.362-7.762c-.072-3.085 1.035-5.9 4.44-6.041 3.407-.14 3.907.784 5.889.035 1.98-.748 1.688-1.758 1.688-1.758" fill="#333739"/>
    <path fill-rule="evenodd" clip-rule="evenodd" d="m88.177 56.552-2.46-2.586s1.505 18.768 1.577 19.878c.07 1.11-.225 2.128-.892 3.807-.665 1.68-1.91 1.928-3.16 2.717-1.25.788-11.895-.125-11.895-.125s-2.498-8.138.008-21.427c2.507-13.288 6.19-18.37 6.19-18.37 5.304 3.04 9.365 3.348 9.365 3.348l6.257 8.039" fill="#F66"/>
    <path fill-rule="evenodd" clip-rule="evenodd" d="M37.037 131.719c1.16 1.588 2.496 3.049 4.16 3.962 3.091 1.695 7.709.69 9.551-2.392 1.255.09 2.566-.085 3.692-.403 2.207-.624 4.176-1.865 6.399-2.457 1.458-.389 2.958-.434 4.454-.317-.138.821.005 1.629.625 2.222 3.033 2.897 7.65-4.364 3.49-7.19-2.953-2.005-8.706-.119-13.94-.327 5.135-3.196 7.117-10.327 6.682-16.365-.191-2.633-1.096-5.09-1.489-7.686-.231-1.527-.2-3.056.095-4.57.181-.934 2.041-3.774.691-4.468-2.236-1.15-3.613 4.735-3.82 5.766-1.08 5.418.083 11.743-2.817 16.701-4.385 7.494-10.299 3.698-10.913.595 1.846-3.425 5.415-6.717 7.381-13.833 3.355-12.135-4.393-24.94-13.428-27.893-13.3-4.348-28.164 8-26.208 19.68.697 4.15 3.38 11 7.052 15.606 1.456 1.826 6.28 5.872 6.121 8.152-.18 2.594-3.644 3.451-5.687 3.413-5.644-.107-11.524-4.102-16.89-.565-3.124 2.058-1.88 7.04 1.774 7.989 2.186.568 3.434-2.156 1.983-3.933 2.348-.134 4.379 1.604 6.403 2.563-3.953 2.044-3.425 8.259.232 9.859 3.535 1.546 7.314-.559 10.941.215 1.48 1.359 3.227 1.964 5.25 1.636 3.54-.573 5.088-3.382 5.752-6.503.837.104 1.659.284 2.464.543" fill="#E62B31"/>
    <mask id="gds2afk9ra" style="mask-type:alpha" maskUnits="userSpaceOnUse" x="0" y="72" width="72" height="66">
        <path fill-rule="evenodd" clip-rule="evenodd" d="M32.19 72.16c1.887 0 3.793.279 5.668.883 9.066 2.924 16.841 15.605 13.475 27.623-1.974 7.047-5.554 10.307-7.408 13.698.617 3.072 6.552 6.831 10.952-.59 2.91-4.908 1.744-11.173 2.829-16.538.205-1.021 1.587-6.85 3.832-5.71 1.355.687-.51 3.5-.694 4.425a13.083 13.083 0 0 0-.095 4.525c.397 2.57 1.303 5.005 1.494 7.612.438 5.978-1.552 13.04-6.706 16.207 1.837.071 3.738-.11 5.56-.292 3.388-.338 6.503-.676 8.431.615 4.175 2.799-.46 9.988-3.503 7.12-.62-.587-.765-1.387-.626-2.2-1.502-.117-3.008-.072-4.47.313-2.233.586-4.209 1.815-6.423 2.434-1.129.315-2.446.488-3.704.399-1.85 3.051-6.484 4.047-9.585 2.369-1.672-.904-3.013-2.352-4.176-3.925a13.88 13.88 0 0 0-2.472-.537c-.667 3.091-2.22 5.873-5.775 6.44-2.028.325-3.782-.274-5.268-1.619-1.604-.338-3.24-.122-4.87.094-2.066.274-4.126.547-6.108-.308-3.672-1.585-4.202-7.739-.234-9.763-2.03-.95-4.069-2.671-6.427-2.538 1.457 1.761.205 4.457-1.988 3.895-3.668-.942-4.916-5.874-1.782-7.912 5.385-3.502 11.286.454 16.95.56 2.052.037 5.528-.811 5.708-3.38.16-2.258-4.682-6.265-6.142-8.073-3.685-4.562-6.38-11.345-7.077-15.456-1.688-9.941 9.094-20.37 20.633-20.37h.001" fill="#fff"/>
    </mask>
    <g mask="url(#gds2afk9ra)">
        <path fill-rule="evenodd" clip-rule="evenodd" d="M17.418 89.754c.041 5.141 3.591 9.313 6.616 13.127-2.277-.05-2.642 1.822-1.77 3.594.951 1.934 2.471 3.566 3.478 5.483 1.952 3.716 3.53 11.669 1.555 15.466-.6 1.152-1.961 3.441-1.6 4.803.423 1.586.863 4.022 4.13 4.717-1.202.546-2.527.423-3.739-.02-2.471-.906-11.045-4.066-8.13-4.444 4.215.105-.231-3.792-1.653-4.24 4.64 1.247 5.105-4.653 2.962-5.76 2.706-2.072 1.079-3.514-1.07-3.742 3.097.458 3.968.985 3.013-2.673-.524-2.002-2.402-3.82-3.866-5.223-3.857-3.693-6.535-8.562-7.326-13.751-.683-4.482 2.398-6.962 7.4-7.337" fill="#BB1818"/>
    </g>
    <mask id="39ny0sdrvb" style="mask-type:alpha" maskUnits="userSpaceOnUse" x="0" y="72" width="72" height="66">
        <path fill-rule="evenodd" clip-rule="evenodd" d="M32.19 72.16c1.887 0 3.793.279 5.668.883 9.066 2.924 16.841 15.605 13.475 27.623-1.974 7.047-5.554 10.307-7.408 13.698.617 3.072 6.552 6.831 10.952-.59 2.91-4.908 1.744-11.173 2.829-16.538.205-1.021 1.587-6.85 3.832-5.71 1.355.687-.51 3.5-.694 4.425a13.083 13.083 0 0 0-.095 4.525c.397 2.57 1.303 5.005 1.494 7.612.438 5.978-1.552 13.04-6.706 16.207 1.837.071 3.738-.11 5.56-.292 3.388-.338 6.503-.676 8.431.615 4.175 2.799-.46 9.988-3.503 7.12-.62-.587-.765-1.387-.626-2.2-1.502-.117-3.008-.072-4.47.313-2.233.586-4.209 1.815-6.423 2.434-1.129.315-2.446.488-3.704.399-1.85 3.051-6.484 4.047-9.585 2.369-1.672-.904-3.013-2.352-4.176-3.925a13.88 13.88 0 0 0-2.472-.537c-.667 3.091-2.22 5.873-5.775 6.44-2.028.325-3.782-.274-5.268-1.619-1.604-.338-3.24-.122-4.87.094-2.066.274-4.126.547-6.108-.308-3.672-1.585-4.202-7.739-.234-9.763-2.03-.95-4.069-2.671-6.427-2.538 1.457 1.761.205 4.457-1.988 3.895-3.668-.942-4.916-5.874-1.782-7.912 5.385-3.502 11.286.454 16.95.56 2.052.037 5.528-.811 5.708-3.38.16-2.258-4.682-6.265-6.142-8.073-3.685-4.562-6.38-11.345-7.077-15.456-1.688-9.941 9.094-20.37 20.633-20.37h.001" fill="#fff"/>
    </mask>
    <g mask="url(#39ny0sdrvb)">
        <path fill-rule="evenodd" clip-rule="evenodd" d="M70.088 130.73c-.366.33-.924.49-1.403.539-2.567.262-3.425-3.379-1.383-3.954-.657-.051-1.303-.16-1.965-.155-2.756.023-5.448.643-8.173.958-1.806.209-3.986.597-5.75-.096.536 2.08-.241 3.825-1.024 5.721 1.343.338 2.739.54 4.105.752a44.03 44.03 0 0 0 3.238.388c3.234.259 6.794.265 9.853-.958 1.185-.473 2.428-1.739 2.502-3.195" fill="#BB1818"/>
    </g>
    <mask id="gv9cv5cy8c" style="mask-type:alpha" maskUnits="userSpaceOnUse" x="0" y="72" width="72" height="66">
        <path fill-rule="evenodd" clip-rule="evenodd" d="M32.19 72.16c1.887 0 3.793.279 5.668.883 9.066 2.924 16.841 15.605 13.475 27.623-1.974 7.047-5.554 10.307-7.408 13.698.617 3.072 6.552 6.831 10.952-.59 2.91-4.908 1.744-11.173 2.829-16.538.205-1.021 1.587-6.85 3.832-5.71 1.355.687-.51 3.5-.694 4.425a13.083 13.083 0 0 0-.095 4.525c.397 2.57 1.303 5.005 1.494 7.612.438 5.978-1.552 13.04-6.706 16.207 1.837.071 3.738-.11 5.56-.292 3.388-.338 6.503-.676 8.431.615 4.175 2.799-.46 9.988-3.503 7.12-.62-.587-.765-1.387-.626-2.2-1.502-.117-3.008-.072-4.47.313-2.233.586-4.209 1.815-6.423 2.434-1.129.315-2.446.488-3.704.399-1.85 3.051-6.484 4.047-9.585 2.369-1.672-.904-3.013-2.352-4.176-3.925a13.88 13.88 0 0 0-2.472-.537c-.667 3.091-2.22 5.873-5.775 6.44-2.028.325-3.782-.274-5.268-1.619-1.604-.338-3.24-.122-4.87.094-2.066.274-4.126.547-6.108-.308-3.672-1.585-4.202-7.739-.234-9.763-2.03-.95-4.069-2.671-6.427-2.538 1.457 1.761.205 4.457-1.988 3.895-3.668-.942-4.916-5.874-1.782-7.912 5.385-3.502 11.286.454 16.95.56 2.052.037 5.528-.811 5.708-3.38.16-2.258-4.682-6.265-6.142-8.073-3.685-4.562-6.38-11.345-7.077-15.456-1.688-9.941 9.094-20.37 20.633-20.37h.001" fill="#fff"/>
    </mask>
    <g mask="url(#gv9cv5cy8c)">
        <path fill-rule="evenodd" clip-rule="evenodd" d="M16.812 123.314c-3.756-.293-7.044-2.639-10.857-2.615-1.36.009-3.66.521-3.695 2.275.82-1.539 2.846-.977 3.731.149 1.306 1.66 3.3 2.439 5.181 2.961 1.513-1.203 3.485-1.682 5.64-2.77" fill="#BB1818"/>
    </g>
    <mask id="8ouikjzdhd" style="mask-type:alpha" maskUnits="userSpaceOnUse" x="0" y="72" width="72" height="66">
        <path fill-rule="evenodd" clip-rule="evenodd" d="M32.19 72.16c1.887 0 3.793.279 5.668.883 9.066 2.924 16.841 15.605 13.475 27.623-1.974 7.047-5.554 10.307-7.408 13.698.617 3.072 6.552 6.831 10.952-.59 2.91-4.908 1.744-11.173 2.829-16.538.205-1.021 1.587-6.85 3.832-5.71 1.355.687-.51 3.5-.694 4.425a13.083 13.083 0 0 0-.095 4.525c.397 2.57 1.303 5.005 1.494 7.612.438 5.978-1.552 13.04-6.706 16.207 1.837.071 3.738-.11 5.56-.292 3.388-.338 6.503-.676 8.431.615 4.175 2.799-.46 9.988-3.503 7.12-.62-.587-.765-1.387-.626-2.2-1.502-.117-3.008-.072-4.47.313-2.233.586-4.209 1.815-6.423 2.434-1.129.315-2.446.488-3.704.399-1.85 3.051-6.484 4.047-9.585 2.369-1.672-.904-3.013-2.352-4.176-3.925a13.88 13.88 0 0 0-2.472-.537c-.667 3.091-2.22 5.873-5.775 6.44-2.028.325-3.782-.274-5.268-1.619-1.604-.338-3.24-.122-4.87.094-2.066.274-4.126.547-6.108-.308-3.672-1.585-4.202-7.739-.234-9.763-2.03-.95-4.069-2.671-6.427-2.538 1.457 1.761.205 4.457-1.988 3.895-3.668-.942-4.916-5.874-1.782-7.912 5.385-3.502 11.286.454 16.95.56 2.052.037 5.528-.811 5.708-3.38.16-2.258-4.682-6.265-6.142-8.073-3.685-4.562-6.38-11.345-7.077-15.456-1.688-9.941 9.094-20.37 20.633-20.37h.001" fill="#fff"/>
    </mask>
    <g mask="url(#8ouikjzdhd)">
        <path fill-rule="evenodd" clip-rule="evenodd" d="M22.745 133.142c-3.542-1.622-10.61.514-12.215-3.865-.323-.883-.356-1.784-.039-2.675-3.53 2.587-3.26 8.609.835 10.387 4.663 2.026 9.565-.242 14.372.539-1.018-1.102-2.081-3.161-2.953-4.386" fill="#BB1818"/>
    </g>
    <mask id="h3s8y7kahe" style="mask-type:alpha" maskUnits="userSpaceOnUse" x="0" y="72" width="72" height="66">
        <path fill-rule="evenodd" clip-rule="evenodd" d="M32.19 72.16c1.887 0 3.793.279 5.668.883 9.066 2.924 16.841 15.605 13.475 27.623-1.974 7.047-5.554 10.307-7.408 13.698.617 3.072 6.552 6.831 10.952-.59 2.91-4.908 1.744-11.173 2.829-16.538.205-1.021 1.587-6.85 3.832-5.71 1.355.687-.51 3.5-.694 4.425a13.083 13.083 0 0 0-.095 4.525c.397 2.57 1.303 5.005 1.494 7.612.438 5.978-1.552 13.04-6.706 16.207 1.837.071 3.738-.11 5.56-.292 3.388-.338 6.503-.676 8.431.615 4.175 2.799-.46 9.988-3.503 7.12-.62-.587-.765-1.387-.626-2.2-1.502-.117-3.008-.072-4.47.313-2.233.586-4.209 1.815-6.423 2.434-1.129.315-2.446.488-3.704.399-1.85 3.051-6.484 4.047-9.585 2.369-1.672-.904-3.013-2.352-4.176-3.925a13.88 13.88 0 0 0-2.472-.537c-.667 3.091-2.22 5.873-5.775 6.44-2.028.325-3.782-.274-5.268-1.619-1.604-.338-3.24-.122-4.87.094-2.066.274-4.126.547-6.108-.308-3.672-1.585-4.202-7.739-.234-9.763-2.03-.95-4.069-2.671-6.427-2.538 1.457 1.761.205 4.457-1.988 3.895-3.668-.942-4.916-5.874-1.782-7.912 5.385-3.502 11.286.454 16.95.56 2.052.037 5.528-.811 5.708-3.38.16-2.258-4.682-6.265-6.142-8.073-3.685-4.562-6.38-11.345-7.077-15.456-1.688-9.941 9.094-20.37 20.633-20.37h.001" fill="#fff"/>
    </mask>
    <g mask="url(#h3s8y7kahe)">
        <path fill-rule="evenodd" clip-rule="evenodd" d="M21.561 103.621c9.064 2.339 12.921 17.173 17.58 24.202 2.33 3.516 6.8 8.014 11.388 5.336-1.915 3.266-6.08 5.055-9.581 2.984-1.357-.802-2.139-2.061-3.285-3.083-.961-.859-2.687.453-3.81-.165.622-2.841.102-5.546-1.026-8.987-1.009-3.086-2.216-6.907-2.634-7.939-3.102-7.654-7.887-11.077-8.632-12.348" fill="#BB1818"/>
    </g>
    <mask id="3q9ebs8z8f" style="mask-type:alpha" maskUnits="userSpaceOnUse" x="0" y="72" width="72" height="66">
        <path fill-rule="evenodd" clip-rule="evenodd" d="M32.19 72.16c1.887 0 3.793.279 5.668.883 9.066 2.924 16.841 15.605 13.475 27.623-1.974 7.047-5.554 10.307-7.408 13.698.617 3.072 6.552 6.831 10.952-.59 2.91-4.908 1.744-11.173 2.829-16.538.205-1.021 1.587-6.85 3.832-5.71 1.355.687-.51 3.5-.694 4.425a13.083 13.083 0 0 0-.095 4.525c.397 2.57 1.303 5.005 1.494 7.612.438 5.978-1.552 13.04-6.706 16.207 1.837.071 3.738-.11 5.56-.292 3.388-.338 6.503-.676 8.431.615 4.175 2.799-.46 9.988-3.503 7.12-.62-.587-.765-1.387-.626-2.2-1.502-.117-3.008-.072-4.47.313-2.233.586-4.209 1.815-6.423 2.434-1.129.315-2.446.488-3.704.399-1.85 3.051-6.484 4.047-9.585 2.369-1.672-.904-3.013-2.352-4.176-3.925a13.88 13.88 0 0 0-2.472-.537c-.667 3.091-2.22 5.873-5.775 6.44-2.028.325-3.782-.274-5.268-1.619-1.604-.338-3.24-.122-4.87.094-2.066.274-4.126.547-6.108-.308-3.672-1.585-4.202-7.739-.234-9.763-2.03-.95-4.069-2.671-6.427-2.538 1.457 1.761.205 4.457-1.988 3.895-3.668-.942-4.916-5.874-1.782-7.912 5.385-3.502 11.286.454 16.95.56 2.052.037 5.528-.811 5.708-3.38.16-2.258-4.682-6.265-6.142-8.073-3.685-4.562-6.38-11.345-7.077-15.456-1.688-9.941 9.094-20.37 20.633-20.37h.001" fill="#fff"/>
    </mask>
    <g mask="url(#3q9ebs8z8f)">
        <path fill-rule="evenodd" clip-rule="evenodd" d="M43.925 116.655c1.436 3.204 6.829 7.135 11.206 6.48 4.767-.714 6.643-5.475 7.506-9.936-.405 3.762-.96 8.277-4.537 10.311-4.543 2.584-12.02-1.75-14.175-6.855" fill="#BB1818"/>
    </g>
    <mask id="5rg8wa6bcg" style="mask-type:alpha" maskUnits="userSpaceOnUse" x="0" y="72" width="72" height="66">
        <path fill-rule="evenodd" clip-rule="evenodd" d="M32.19 72.16c1.887 0 3.793.279 5.668.883 9.066 2.924 16.841 15.605 13.475 27.623-1.974 7.047-5.554 10.307-7.408 13.698.617 3.072 6.552 6.831 10.952-.59 2.91-4.908 1.744-11.173 2.829-16.538.205-1.021 1.587-6.85 3.832-5.71 1.355.687-.51 3.5-.694 4.425a13.083 13.083 0 0 0-.095 4.525c.397 2.57 1.303 5.005 1.494 7.612.438 5.978-1.552 13.04-6.706 16.207 1.837.071 3.738-.11 5.56-.292 3.388-.338 6.503-.676 8.431.615 4.175 2.799-.46 9.988-3.503 7.12-.62-.587-.765-1.387-.626-2.2-1.502-.117-3.008-.072-4.47.313-2.233.586-4.209 1.815-6.423 2.434-1.129.315-2.446.488-3.704.399-1.85 3.051-6.484 4.047-9.585 2.369-1.672-.904-3.013-2.352-4.176-3.925a13.88 13.88 0 0 0-2.472-.537c-.667 3.091-2.22 5.873-5.775 6.44-2.028.325-3.782-.274-5.268-1.619-1.604-.338-3.24-.122-4.87.094-2.066.274-4.126.547-6.108-.308-3.672-1.585-4.202-7.739-.234-9.763-2.03-.95-4.069-2.671-6.427-2.538 1.457 1.761.205 4.457-1.988 3.895-3.668-.942-4.916-5.874-1.782-7.912 5.385-3.502 11.286.454 16.95.56 2.052.037 5.528-.811 5.708-3.38.16-2.258-4.682-6.265-6.142-8.073-3.685-4.562-6.38-11.345-7.077-15.456-1.688-9.941 9.094-20.37 20.633-20.37h.001" fill="#fff"/>
    </mask>
    <g mask="url(#5rg8wa6bcg)">
        <path fill-rule="evenodd" clip-rule="evenodd" d="M60.043 91.773c-2.826 4.718-1.843 11.707-2.282 17.044-.175 2.127-.475 4.24-1.6 6.103-2.644 4.38-8.113 3.636-9.792-1.722 1.126.645 1.82 2.095 3.018 1.586 3.874-1.648 4.433-5.631 5.024-9.3.298-1.856 2.648-11.738 5.632-13.71" fill="#BB1818"/>
    </g>
    <mask id="ipnw21amvh" style="mask-type:alpha" maskUnits="userSpaceOnUse" x="0" y="72" width="72" height="66">
        <path fill-rule="evenodd" clip-rule="evenodd" d="M32.19 72.16c1.887 0 3.793.279 5.668.883 9.066 2.924 16.841 15.605 13.475 27.623-1.974 7.047-5.554 10.307-7.408 13.698.617 3.072 6.552 6.831 10.952-.59 2.91-4.908 1.744-11.173 2.829-16.538.205-1.021 1.587-6.85 3.832-5.71 1.355.687-.51 3.5-.694 4.425a13.083 13.083 0 0 0-.095 4.525c.397 2.57 1.303 5.005 1.494 7.612.438 5.978-1.552 13.04-6.706 16.207 1.837.071 3.738-.11 5.56-.292 3.388-.338 6.503-.676 8.431.615 4.175 2.799-.46 9.988-3.503 7.12-.62-.587-.765-1.387-.626-2.2-1.502-.117-3.008-.072-4.47.313-2.233.586-4.209 1.815-6.423 2.434-1.129.315-2.446.488-3.704.399-1.85 3.051-6.484 4.047-9.585 2.369-1.672-.904-3.013-2.352-4.176-3.925a13.88 13.88 0 0 0-2.472-.537c-.667 3.091-2.22 5.873-5.775 6.44-2.028.325-3.782-.274-5.268-1.619-1.604-.338-3.24-.122-4.87.094-2.066.274-4.126.547-6.108-.308-3.672-1.585-4.202-7.739-.234-9.763-2.03-.95-4.069-2.671-6.427-2.538 1.457 1.761.205 4.457-1.988 3.895-3.668-.942-4.916-5.874-1.782-7.912 5.385-3.502 11.286.454 16.95.56 2.052.037 5.528-.811 5.708-3.38.16-2.258-4.682-6.265-6.142-8.073-3.685-4.562-6.38-11.345-7.077-15.456-1.688-9.941 9.094-20.37 20.633-20.37h.001" fill="#fff"/>
    </mask>
    <g mask="url(#ipnw21amvh)">
        <path fill-rule="evenodd" clip-rule="evenodd" d="M49.917 104.637c-3.398 7.673-6.898 9.072-5.974 12.131.408 1.353 1.82 2.9 2.715 3.931 3.15 3.62 7.4 8.614 3.211 13.143 1.345-3.558 1.001-6.655-1.546-9.485-1.914-2.128-4.964-4.884-5.684-7.974-.555-2.39 2.411-4.791 4.775-9.116 3.422-6.262 4.121-11 4.045-16.34-.044-3.145-1.113-6.273-2.491-9.048 3.31 5.494 4.941 11.836 4.014 18.237-.244 1.693-2.368 2.947-3.065 4.521" fill="#F190AE"/>
    </g>
    <mask id="9bfqwlpxxi" style="mask-type:alpha" maskUnits="userSpaceOnUse" x="0" y="72" width="72" height="66">
        <path fill-rule="evenodd" clip-rule="evenodd" d="M32.19 72.16c1.887 0 3.793.279 5.668.883 9.066 2.924 16.841 15.605 13.475 27.623-1.974 7.047-5.554 10.307-7.408 13.698.617 3.072 6.552 6.831 10.952-.59 2.91-4.908 1.744-11.173 2.829-16.538.205-1.021 1.587-6.85 3.832-5.71 1.355.687-.51 3.5-.694 4.425a13.083 13.083 0 0 0-.095 4.525c.397 2.57 1.303 5.005 1.494 7.612.438 5.978-1.552 13.04-6.706 16.207 1.837.071 3.738-.11 5.56-.292 3.388-.338 6.503-.676 8.431.615 4.175 2.799-.46 9.988-3.503 7.12-.62-.587-.765-1.387-.626-2.2-1.502-.117-3.008-.072-4.47.313-2.233.586-4.209 1.815-6.423 2.434-1.129.315-2.446.488-3.704.399-1.85 3.051-6.484 4.047-9.585 2.369-1.672-.904-3.013-2.352-4.176-3.925a13.88 13.88 0 0 0-2.472-.537c-.667 3.091-2.22 5.873-5.775 6.44-2.028.325-3.782-.274-5.268-1.619-1.604-.338-3.24-.122-4.87.094-2.066.274-4.126.547-6.108-.308-3.672-1.585-4.202-7.739-.234-9.763-2.03-.95-4.069-2.671-6.427-2.538 1.457 1.761.205 4.457-1.988 3.895-3.668-.942-4.916-5.874-1.782-7.912 5.385-3.502 11.286.454 16.95.56 2.052.037 5.528-.811 5.708-3.38.16-2.258-4.682-6.265-6.142-8.073-3.685-4.562-6.38-11.345-7.077-15.456-1.688-9.941 9.094-20.37 20.633-20.37h.001" fill="#fff"/>
    </mask>
    <g mask="url(#9bfqwlpxxi)">
        <path fill-rule="evenodd" clip-rule="evenodd" d="M62.232 91.672c-4.854 5.068-2.059 10.525-1.412 16.549.51 4.761-.288 10.695-3.303 14.64 1.905-1.308 3.34-3.015 4.524-4.985 3.808-6.336 1.56-11.249 1.02-17.877-.194-2.371-.572-5.945-.829-8.327" fill="#F190AE"/>
    </g>
    <mask id="rg26oh5wwj" style="mask-type:alpha" maskUnits="userSpaceOnUse" x="0" y="72" width="72" height="66">
        <path fill-rule="evenodd" clip-rule="evenodd" d="M32.19 72.16c1.887 0 3.793.279 5.668.883 9.066 2.924 16.841 15.605 13.475 27.623-1.974 7.047-5.554 10.307-7.408 13.698.617 3.072 6.552 6.831 10.952-.59 2.91-4.908 1.744-11.173 2.829-16.538.205-1.021 1.587-6.85 3.832-5.71 1.355.687-.51 3.5-.694 4.425a13.083 13.083 0 0 0-.095 4.525c.397 2.57 1.303 5.005 1.494 7.612.438 5.978-1.552 13.04-6.706 16.207 1.837.071 3.738-.11 5.56-.292 3.388-.338 6.503-.676 8.431.615 4.175 2.799-.46 9.988-3.503 7.12-.62-.587-.765-1.387-.626-2.2-1.502-.117-3.008-.072-4.47.313-2.233.586-4.209 1.815-6.423 2.434-1.129.315-2.446.488-3.704.399-1.85 3.051-6.484 4.047-9.585 2.369-1.672-.904-3.013-2.352-4.176-3.925a13.88 13.88 0 0 0-2.472-.537c-.667 3.091-2.22 5.873-5.775 6.44-2.028.325-3.782-.274-5.268-1.619-1.604-.338-3.24-.122-4.87.094-2.066.274-4.126.547-6.108-.308-3.672-1.585-4.202-7.739-.234-9.763-2.03-.95-4.069-2.671-6.427-2.538 1.457 1.761.205 4.457-1.988 3.895-3.668-.942-4.916-5.874-1.782-7.912 5.385-3.502 11.286.454 16.95.56 2.052.037 5.528-.811 5.708-3.38.16-2.258-4.682-6.265-6.142-8.073-3.685-4.562-6.38-11.345-7.077-15.456-1.688-9.941 9.094-20.37 20.633-20.37h.001" fill="#fff"/>
    </mask>
    <g mask="url(#rg26oh5wwj)">
        <path fill-rule="evenodd" clip-rule="evenodd" d="M48.321 122.48c3.799 3.172 7.515 3.402 12.281 2.687 1.879-.281 3.748-.611 5.655-.406 3.767.404 5.089 3.571 3.703 6.865 2.547-3.239 2.219-7.748-2.29-8.571-2.004-.366-4.845.686-6.83.973-5.017.724-7.817.391-12.519-1.548" fill="#F190AE"/>
    </g>
    <mask id="de5ykh4suk" style="mask-type:alpha" maskUnits="userSpaceOnUse" x="0" y="72" width="72" height="66">
        <path fill-rule="evenodd" clip-rule="evenodd" d="M32.19 72.16c1.887 0 3.793.279 5.668.883 9.066 2.924 16.841 15.605 13.475 27.623-1.974 7.047-5.554 10.307-7.408 13.698.617 3.072 6.552 6.831 10.952-.59 2.91-4.908 1.744-11.173 2.829-16.538.205-1.021 1.587-6.85 3.832-5.71 1.355.687-.51 3.5-.694 4.425a13.083 13.083 0 0 0-.095 4.525c.397 2.57 1.303 5.005 1.494 7.612.438 5.978-1.552 13.04-6.706 16.207 1.837.071 3.738-.11 5.56-.292 3.388-.338 6.503-.676 8.431.615 4.175 2.799-.46 9.988-3.503 7.12-.62-.587-.765-1.387-.626-2.2-1.502-.117-3.008-.072-4.47.313-2.233.586-4.209 1.815-6.423 2.434-1.129.315-2.446.488-3.704.399-1.85 3.051-6.484 4.047-9.585 2.369-1.672-.904-3.013-2.352-4.176-3.925a13.88 13.88 0 0 0-2.472-.537c-.667 3.091-2.22 5.873-5.775 6.44-2.028.325-3.782-.274-5.268-1.619-1.604-.338-3.24-.122-4.87.094-2.066.274-4.126.547-6.108-.308-3.672-1.585-4.202-7.739-.234-9.763-2.03-.95-4.069-2.671-6.427-2.538 1.457 1.761.205 4.457-1.988 3.895-3.668-.942-4.916-5.874-1.782-7.912 5.385-3.502 11.286.454 16.95.56 2.052.037 5.528-.811 5.708-3.38.16-2.258-4.682-6.265-6.142-8.073-3.685-4.562-6.38-11.345-7.077-15.456-1.688-9.941 9.094-20.37 20.633-20.37h.001" fill="#fff"/>
    </mask>
    <g mask="url(#de5ykh4suk)">
        <path fill-rule="evenodd" clip-rule="evenodd" d="M45.024 93.148c.123.82.528 1.625 1.103 2.227.142-.084.558-.24.699-.328-.424-.389-1.495-1.406-1.802-1.899" fill="#F190AE"/>
    </g>
    <mask id="fwl8r89hhl" style="mask-type:alpha" maskUnits="userSpaceOnUse" x="0" y="72" width="72" height="66">
        <path fill-rule="evenodd" clip-rule="evenodd" d="M32.19 72.16c1.887 0 3.793.279 5.668.883 9.066 2.924 16.841 15.605 13.475 27.623-1.974 7.047-5.554 10.307-7.408 13.698.617 3.072 6.552 6.831 10.952-.59 2.91-4.908 1.744-11.173 2.829-16.538.205-1.021 1.587-6.85 3.832-5.71 1.355.687-.51 3.5-.694 4.425a13.083 13.083 0 0 0-.095 4.525c.397 2.57 1.303 5.005 1.494 7.612.438 5.978-1.552 13.04-6.706 16.207 1.837.071 3.738-.11 5.56-.292 3.388-.338 6.503-.676 8.431.615 4.175 2.799-.46 9.988-3.503 7.12-.62-.587-.765-1.387-.626-2.2-1.502-.117-3.008-.072-4.47.313-2.233.586-4.209 1.815-6.423 2.434-1.129.315-2.446.488-3.704.399-1.85 3.051-6.484 4.047-9.585 2.369-1.672-.904-3.013-2.352-4.176-3.925a13.88 13.88 0 0 0-2.472-.537c-.667 3.091-2.22 5.873-5.775 6.44-2.028.325-3.782-.274-5.268-1.619-1.604-.338-3.24-.122-4.87.094-2.066.274-4.126.547-6.108-.308-3.672-1.585-4.202-7.739-.234-9.763-2.03-.95-4.069-2.671-6.427-2.538 1.457 1.761.205 4.457-1.988 3.895-3.668-.942-4.916-5.874-1.782-7.912 5.385-3.502 11.286.454 16.95.56 2.052.037 5.528-.811 5.708-3.38.16-2.258-4.682-6.265-6.142-8.073-3.685-4.562-6.38-11.345-7.077-15.456-1.688-9.941 9.094-20.37 20.633-20.37h.001" fill="#fff"/>
    </mask>
    <g mask="url(#fwl8r89hhl)">
        <path fill-rule="evenodd" clip-rule="evenodd" d="M19.568 119.426c-5.7 1.624-12.36-3.853-17.523.055-.633.481-1.328 1.042-1.705 1.761.36-2.2 2.892-3.591 4.85-4.068 4.735-1.155 9.823 1.344 14.378 2.252" fill="#F190AE"/>
    </g>
    <mask id="43zay3xxym" style="mask-type:alpha" maskUnits="userSpaceOnUse" x="0" y="72" width="72" height="66">
        <path fill-rule="evenodd" clip-rule="evenodd" d="M32.19 72.16c1.887 0 3.793.279 5.668.883 9.066 2.924 16.841 15.605 13.475 27.623-1.974 7.047-5.554 10.307-7.408 13.698.617 3.072 6.552 6.831 10.952-.59 2.91-4.908 1.744-11.173 2.829-16.538.205-1.021 1.587-6.85 3.832-5.71 1.355.687-.51 3.5-.694 4.425a13.083 13.083 0 0 0-.095 4.525c.397 2.57 1.303 5.005 1.494 7.612.438 5.978-1.552 13.04-6.706 16.207 1.837.071 3.738-.11 5.56-.292 3.388-.338 6.503-.676 8.431.615 4.175 2.799-.46 9.988-3.503 7.12-.62-.587-.765-1.387-.626-2.2-1.502-.117-3.008-.072-4.47.313-2.233.586-4.209 1.815-6.423 2.434-1.129.315-2.446.488-3.704.399-1.85 3.051-6.484 4.047-9.585 2.369-1.672-.904-3.013-2.352-4.176-3.925a13.88 13.88 0 0 0-2.472-.537c-.667 3.091-2.22 5.873-5.775 6.44-2.028.325-3.782-.274-5.268-1.619-1.604-.338-3.24-.122-4.87.094-2.066.274-4.126.547-6.108-.308-3.672-1.585-4.202-7.739-.234-9.763-2.03-.95-4.069-2.671-6.427-2.538 1.457 1.761.205 4.457-1.988 3.895-3.668-.942-4.916-5.874-1.782-7.912 5.385-3.502 11.286.454 16.95.56 2.052.037 5.528-.811 5.708-3.38.16-2.258-4.682-6.265-6.142-8.073-3.685-4.562-6.38-11.345-7.077-15.456-1.688-9.941 9.094-20.37 20.633-20.37h.001" fill="#fff"/>
    </mask>
    <g mask="url(#43zay3xxym)">
        <path fill-rule="evenodd" clip-rule="evenodd" d="M44.925 124.81c-4.543-.511-7.19-7.091-10.367-12.587-1.142-1.975-3.022-4.43-4.766-5.913-2.31-1.965-6.075-4.494-7.881-3.03 3.229-.73 9.1 4.905 11.919 9.246 1.276 1.967 2.34 4.656 3.673 6.586 1.257 1.821 4.656 6.409 7.422 5.698" fill="#F190AE"/>
    </g>
    <path clip-rule="evenodd" d="M37.04 131.133c1.165 1.573 2.506 3.02 4.176 3.924 3.102 1.678 7.736.683 9.585-2.369 1.26.089 2.576-.084 3.706-.399 2.214-.618 4.19-1.847 6.42-2.433 1.465-.385 2.97-.43 4.471-.314-.138.813.006 1.613.628 2.2 3.043 2.869 7.677-4.321 3.502-7.12-2.964-1.986-8.738-.118-13.99-.323 5.154-3.165 7.142-10.228 6.706-16.207-.192-2.607-1.1-5.041-1.495-7.611-.231-1.512-.2-3.026.096-4.526.182-.925 2.048-3.737.694-4.424-2.245-1.139-3.627 4.688-3.834 5.71-1.085 5.365.083 11.629-2.828 16.538-4.4 7.422-10.335 3.662-10.951.589 1.852-3.391 5.433-6.651 7.407-13.698 3.367-12.018-4.41-24.698-13.476-27.623C24.51 68.743 9.592 80.97 11.555 92.537c.7 4.11 3.392 10.894 7.078 15.455 1.46 1.808 6.301 5.815 6.143 8.073-.18 2.569-3.657 3.418-5.708 3.38-5.665-.106-11.565-4.062-16.95-.56-3.135 2.038-1.886 6.972 1.78 7.912 2.193.562 3.446-2.135 1.99-3.895 2.357-.133 4.395 1.588 6.426 2.538-3.968 2.024-3.438 8.179.233 9.763 3.547 1.531 7.34-.553 10.98.214 1.486 1.345 3.238 1.944 5.268 1.619 3.554-.567 5.107-3.349 5.773-6.44.84.104 1.665.282 2.473.538z" stroke="#333739" stroke-width=".256" stroke-linecap="round" stroke-linejoin="round"/>
    <path fill-rule="evenodd" clip-rule="evenodd" d="M31.806 96.464c0 5.655 4.811 12.613 9.83 12.959 3.69.255 3.665-8.743 3.844-13.743-4.978 1.548-10.175.978-13.674.784" fill="#333739"/>
    <mask id="ekx4syvqqn" style="mask-type:alpha" maskUnits="userSpaceOnUse" x="32" y="95" width="15" height="15">
        <path fill-rule="evenodd" clip-rule="evenodd" d="M42.214 109.161c-5.008-.346-9.811-7.303-9.811-12.958 3.493.193 8.679.763 13.648-.785-.179 5-.154 13.999-3.837 13.743" fill="#fff"/>
    </mask>
    <g mask="url(#ekx4syvqqn)">
        <path fill-rule="evenodd" clip-rule="evenodd" d="M31.71 98.651c2.577-3.767 8.191.125 10.41 3.45 1.176 1.76 2.469 5.549 1.115 7.899-2.474 4.297-8.327-1.187-10.34-4.377-.906-1.434-2.505-5.039-1.184-6.972" fill="#F190AE"/>
    </g>
    <mask id="huiuxaon6o" style="mask-type:alpha" maskUnits="userSpaceOnUse" x="32" y="95" width="15" height="15">
        <path fill-rule="evenodd" clip-rule="evenodd" d="M42.214 109.161c-5.008-.346-9.811-7.303-9.811-12.958 3.493.193 8.679.763 13.648-.785-.179 5-.154 13.999-3.837 13.743z" fill="#fff"/>
    </mask>
    <g mask="url(#huiuxaon6o)">
        <path fill-rule="evenodd" clip-rule="evenodd" d="M31.544 98.536c1.172-1.717 2.941-1.936 4.764-1.334 2.31.763 4.704 2.865 5.985 4.783.726 1.089 1.498 2.939 1.683 4.762.122 1.203-.013 2.393-.567 3.352-1.153 1.989-2.986 2.008-4.86 1.089-2.292-1.124-4.646-3.673-5.778-5.488-.547-.877-1.344-2.553-1.598-4.172-.17-1.087-.093-2.148.452-2.936l-.081-.056zm.252.174c-.505.75-.556 1.756-.383 2.781.265 1.578 1.062 3.204 1.605 4.054 1.124 1.762 3.443 4.232 5.692 5.313 1.683.809 3.33.828 4.352-.958.511-.89.621-1.995.506-3.11-.18-1.751-.92-3.529-1.62-4.574-1.235-1.852-3.54-3.886-5.769-4.623-1.642-.545-3.243-.373-4.3 1.172l-.083-.055z" fill="#333739"/>
    </g>
    <mask id="o0kewhom0p" style="mask-type:alpha" maskUnits="userSpaceOnUse" x="32" y="95" width="15" height="15">
        <path fill-rule="evenodd" clip-rule="evenodd" d="M42.214 109.161c-5.008-.346-9.811-7.303-9.811-12.958 3.493.193 8.679.763 13.648-.785-.179 5-.154 13.999-3.837 13.743" fill="#fff"/>
    </mask>
    <g mask="url(#o0kewhom0p)">
        <path fill-rule="evenodd" clip-rule="evenodd" d="M30.474 94.391c3.568 1.14 11.857 1.677 14.985-.7-.102 4.356-3.903 5.54-7.262 5.435-2.126-.067-5.913-.948-7.177-1.815-.928-.637.135-1.94-.546-2.92" fill="#fff"/>
    </g>
    <mask id="txcil9506q" style="mask-type:alpha" maskUnits="userSpaceOnUse" x="32" y="95" width="15" height="15">
        <path fill-rule="evenodd" clip-rule="evenodd" d="M42.214 109.161c-5.008-.346-9.811-7.303-9.811-12.958 3.493.193 8.679.763 13.648-.785-.179 5-.154 13.999-3.837 13.743z" fill="#fff"/>
    </mask>
    <g mask="url(#txcil9506q)">
        <path fill-rule="evenodd" clip-rule="evenodd" d="M30.478 94.602c.186.385.135.809.081 1.214-.048.371-.098.728-.014 1.034.058.214.179.404.404.562.56.39 1.614.788 2.803 1.116 1.51.416 3.238.72 4.44.765 1.755.064 3.628-.222 5.054-1.108 1.387-.86 2.36-2.282 2.418-4.491a.205.205 0 0 0-.329-.168c-1.273.966-3.418 1.429-5.739 1.575-3.314.207-6.99-.244-9.06-.904h-.03c-.043-.027-.09.002-.115.072a.363.363 0 0 0-.002.236v-.057l.052.085-.028.048.065.021zm14.756-.51c-.146 1.816-1.002 3.014-2.193 3.766-1.363.858-3.157 1.141-4.838 1.096-.996-.025-2.36-.23-3.656-.527-1.44-.33-2.796-.774-3.457-1.221a.737.737 0 0 1-.313-.421c-.1-.345-.002-.764.036-1.19.027-.31.027-.62-.075-.914 2.15.62 5.682 1.034 8.883.834 2.213-.14 4.268-.576 5.613-1.422z" fill="#333739"/>
    </g>
    <path clip-rule="evenodd" d="M31.37 96.429c0 5.677 4.785 12.663 9.775 13.011 3.67.257 3.644-8.779 3.823-13.8-4.95 1.555-10.118.983-13.598.789z" stroke="#333739" stroke-width=".256" stroke-linecap="round" stroke-linejoin="round"/>
    <path fill-rule="evenodd" clip-rule="evenodd" d="M46.003 94.94c-.126.08-.252.15-.384.216-.223.111-.459.206-.715.29a.205.205 0 0 0 .127.39c.276-.093.529-.195.769-.315.246-.123.479-.267.71-.439a.203.203 0 0 0-.03-.344 3.445 3.445 0 0 1-.94-.636c-.235-.226-.427-.497-.647-.814-.078-.112-.163-.227-.251-.349-.056-.077-.114-.151-.175-.233a.104.104 0 1 0-.181.1c.073.18.138.342.21.496.034.071.07.14.107.205.14.245.291.453.448.641.265.317.563.569.952.793M32.093 95.706c-.117.22-.229.425-.379.613-.1.127-.218.245-.36.35a1.436 1.436 0 0 1-.17.108 1.93 1.93 0 0 1-.274.12c-.2.07-.43.118-.706.151a.105.105 0 0 1-.046-.204c.243-.083.437-.179.609-.274.066-.035.126-.073.184-.109.062-.039.12-.076.177-.115a2.48 2.48 0 0 0 .406-.34c.128-.135.248-.274.367-.426a.114.114 0 0 1 .159-.034.116.116 0 0 1 .033.16" fill="#333739"/>
    <path fill-rule="evenodd" clip-rule="evenodd" d="M19.97 89.08c.093-1.556.467-2.852 1.053-3.855.533-.915 1.244-1.588 2.032-1.986a4.008 4.008 0 0 1 2.166-.415 4.491 4.491 0 0 1 1.9.619c.726.43 1.418 1.07 2.031 1.953a.297.297 0 0 1-.035.415.29.29 0 0 1-.412-.037c-.802-.805-1.647-1.28-2.471-1.513a3.539 3.539 0 0 0-1.577-.076 3.555 3.555 0 0 0-.971.33c-.381.189-.747.439-1.085.769-.317.31-.618.671-.886 1.1a8.803 8.803 0 0 0-1.113 2.784.319.319 0 0 1-.359.274.322.322 0 0 1-.272-.362M40.52 83.224c.237-1.373.67-2.311 1.204-2.905.626-.694 1.414-.927 2.263-.835a3.6 3.6 0 0 1 1.248.397c.334.172.674.4 1.007.684a9.45 9.45 0 0 1 1.453 1.595c.568.773 1.096 1.682 1.6 2.698a.294.294 0 0 1-.093.404.291.291 0 0 1-.403-.094 23.247 23.247 0 0 0-1.38-1.648 15.663 15.663 0 0 0-1.502-1.45 8.725 8.725 0 0 0-1.066-.77c-.374-.23-.724-.401-1.068-.47-.572-.112-1.099.049-1.567.585-.396.45-.765 1.087-1.08 1.972a.319.319 0 1 1-.616-.163" fill="#010100"/>
    <path fill-rule="evenodd" clip-rule="evenodd" d="M49.844 89.283c-.711-.98-1.416-1.677-2.098-2.112-.587-.375-1.152-.532-1.684-.479-.407.04-.787.22-1.15.508-.221.175-.43.397-.643.65-.147.174-.298.36-.447.563-.095.13-.191.262-.29.402-.234.327-.478.663-.711 1.062a.19.19 0 0 1-.355-.137c.1-.48.208-.906.355-1.307a5.022 5.022 0 0 1 .668-1.215c.251-.333.533-.6.82-.813.534-.399 1.105-.609 1.691-.63.556-.02 1.132.121 1.708.457.848.495 1.714 1.408 2.54 2.782a.245.245 0 0 1-.069.338.24.24 0 0 1-.335-.069M22.853 93.75c.216-2.817 1.938-4.262 3.99-4.596a5.98 5.98 0 0 1 1.976.021 6.01 6.01 0 0 1 1.264.352 5.621 5.621 0 0 1 1.401.83c.413.343.772.737 1.096 1.18a.192.192 0 0 1-.003.27.188.188 0 0 1-.268-.004 8.13 8.13 0 0 0-1.005-.634c-.342-.189-.69-.349-1.044-.496a9.73 9.73 0 0 0-.963-.346c-.782-.235-1.578-.343-2.334-.262-1.77.188-3.278 1.345-3.63 3.74a.24.24 0 0 1-.266.215.243.243 0 0 1-.214-.27" fill="#333739"/>
    <path fill-rule="evenodd" clip-rule="evenodd" d="M47.49 89.04c-.153-.021-.298-.032-.447-.044-.089-.008-.174-.013-.262-.02-.057-.005-.115-.008-.171-.014a4.377 4.377 0 0 1-.169-.023c-.057-.009-.112-.02-.17-.03-.068-.011-.135-.023-.205-.032-.106-.015-.206-.03-.318-.036a.075.075 0 0 1-.085-.064.077.077 0 0 1 .063-.087c.112-.04.216-.072.329-.097a1.895 1.895 0 0 1 .417-.046c.064 0 .128.005.191.016.124.022.244.058.364.104.175.065.335.15.506.241a.07.07 0 0 1 .044.088.07.07 0 0 1-.086.044M26.336 92.444c.094-.1.186-.19.293-.282a2.74 2.74 0 0 1 .138-.108c.064-.045.127-.088.196-.124a.762.762 0 0 1 .141-.062 1.315 1.315 0 0 1 .412-.057c.085 0 .156.005.238.014a.04.04 0 0 1 .05.03.04.04 0 0 1-.031.049c-.093.057-.169.115-.263.178-.044.03-.083.056-.128.083-.043.026-.085.053-.13.075-.043.02-.087.037-.132.052-.07.025-.137.042-.207.063-.188.052-.362.09-.537.153a.038.038 0 0 1-.051-.012.039.039 0 0 1 .011-.052M42.19 110.902a2.27 2.27 0 0 1-.697.453 2.125 2.125 0 0 1-.379.108 1.568 1.568 0 0 1-.392.019 2.319 2.319 0 0 1-.332-.055 2.328 2.328 0 0 1-.318-.097 2.813 2.813 0 0 1-.443-.216.028.028 0 0 1-.017-.036.028.028 0 0 1 .034-.016c.216.037.431.044.657.044.142 0 .28-.011.423-.019.092-.006.184-.011.277-.015.14-.006.277-.008.417-.023.156-.016.304-.034.455-.07.105-.027.203-.054.304-.093.004-.003.01-.002.012.003.003.004.002.011-.002.013M49.953 89.005a7.882 7.882 0 0 0-.352-.869 9.525 9.525 0 0 0-.601-1.09 6.43 6.43 0 0 0-.562-.746c-.464-.53-1.018-.964-1.656-1.216a.047.047 0 0 1-.027-.06.047.047 0 0 1 .06-.03c.834.285 1.55.864 2.121 1.576a6.51 6.51 0 0 1 .726 1.126c.08.162.155.325.22.49.103.254.186.511.256.761a.098.098 0 0 1-.063.123.098.098 0 0 1-.123-.065M42.421 89.755c-.003-.174-.006-.35-.002-.525a5.568 5.568 0 0 1 .158-1.222c.14-.568.372-1.106.755-1.583.016-.02.046-.025.066-.01.02.016.025.047.01.067a3.763 3.763 0 0 0-.547 1.24c-.049.198-.085.399-.113.602-.019.135-.033.27-.047.407-.014.136-.026.272-.039.41-.017.206-.034.412-.046.618a.097.097 0 1 1-.195-.004M32.115 91.304c-.14-.194-.289-.385-.441-.579-.1-.125-.2-.251-.303-.376-.102-.124-.204-.25-.31-.369a7.33 7.33 0 0 0-.5-.521 4.672 4.672 0 0 0-1.315-.9.047.047 0 0 1-.026-.06.046.046 0 0 1 .06-.026c.644.234 1.215.633 1.72 1.113a6.899 6.899 0 0 1 .937 1.094c.119.17.23.342.34.513a.097.097 0 0 1-.162.11M22.968 93.764a3.492 3.492 0 0 1-.116-1.138 3.926 3.926 0 0 1 .117-.752c.232-.92.729-1.791 1.29-2.485a.047.047 0 0 1 .066-.008c.02.016.024.046.008.067a6.868 6.868 0 0 0-1.02 2.04 5.579 5.579 0 0 0-.21 1.11 4.206 4.206 0 0 0-.013.562c.009.187.03.374.067.559a.097.097 0 1 1-.189.045" fill="#333739"/>
    <path d="M50.185 132.902c.816-1.4 1.038-2.828.793-4.432-.87-5.683-8.916-9.678-7.556-14.064" stroke="#333739" stroke-width=".256" stroke-linecap="round" stroke-linejoin="round"/>
    <path fill-rule="evenodd" clip-rule="evenodd" d="M36.404 131.353c-3.777-6.03-4.46-12.362-7.76-18.461a26.94 26.94 0 0 0-5.146-6.747c-.641-.614-1.318-1.025-1.744-1.442-.307-.302-.492-.611-.495-.976-.003-.44.256-.704.645-.843.675-.238 1.784-.052 2.188.084 1.238.421 2.432 1.044 3.551 1.786a21.83 21.83 0 0 1 3.083 2.503c1.143 1.108 2.075 2.362 2.9 3.688 1.902 3.063 3.23 6.522 5.32 9.471.412.584.994 1.332 1.665 2.05.398.426.827.842 1.274 1.202.826.663 1.715 1.144 2.59 1.149a.078.078 0 0 1 .081.079.082.082 0 0 1-.079.083c-.918.036-1.878-.416-2.767-1.082a11.291 11.291 0 0 1-1.34-1.2 18.565 18.565 0 0 1-1.705-2.08c-2.098-2.95-3.438-6.41-5.35-9.476-.81-1.3-1.723-2.529-2.846-3.614a21.326 21.326 0 0 0-3.033-2.456c-1.092-.724-2.258-1.33-3.466-1.739-.31-.105-1.087-.246-1.682-.147-.35.059-.647.192-.644.539.002.267.154.482.378.7.426.416 1.1.826 1.743 1.439a27.284 27.284 0 0 1 5.224 6.84c3.3 6.087 3.983 12.412 7.76 18.432a.206.206 0 0 1-.064.282.203.203 0 0 1-.281-.064" fill="#333739"/>
    <path d="M34.118 130.701c.317-1.454.224-3.202.107-4.049" stroke="#333739" stroke-width=".256" stroke-linecap="round" stroke-linejoin="round"/>
    <path fill-rule="evenodd" clip-rule="evenodd" d="M21.581 103.987c-.538.935-.356 2.047.09 3.165.666 1.66 1.922 3.331 2.526 4.509 1.207 2.363 2.32 6.546 2.3 10.343-.004 1.039-.091 2.05-.291 2.983a9.18 9.18 0 0 1-.353 1.242 7.09 7.09 0 0 1-.619 1.295 5.519 5.519 0 0 1-.894 1.112.058.058 0 0 1-.086.002.062.062 0 0 1 0-.087c.3-.341.554-.727.774-1.146.206-.398.378-.827.522-1.281.122-.386.224-.791.305-1.21a15.37 15.37 0 0 0 .264-2.911c.003-3.73-1.088-7.839-2.28-10.156-.713-1.387-2.314-3.453-2.827-5.387-.253-.951-.246-1.873.217-2.679a.203.203 0 1 1 .352.206" fill="#333739"/>
    <path fill-rule="evenodd" clip-rule="evenodd" d="M22.996 135.686c-1.948-1.904-2.809-4.168-2.94-6.371-.15-2.558.686-5.032 1.95-6.765.88-1.201 1.93-2.87 2.297-4.579.096-.449.148-.899.135-1.348a4.414 4.414 0 0 0-.137-1.006 4.135 4.135 0 0 0-.375-.953c-.018-.03-.01-.068.02-.084a.06.06 0 0 1 .083.019c.21.307.37.624.487.951.122.345.194.699.223 1.057.04.475.004.956-.087 1.435-.337 1.772-1.432 3.496-2.33 4.74-1.213 1.668-2.01 4.05-1.862 6.508.126 2.111.952 4.279 2.82 6.102a.206.206 0 0 1 .004.29.203.203 0 0 1-.288.004" fill="#333739"/>
    <path fill-rule="evenodd" clip-rule="evenodd" d="M20.292 128.874c-.61.162-1.49.176-2.359.066-.567-.071-1.135-.175-1.603-.35a2.256 2.256 0 0 1-.444-.23c-.065-.045-.117-.088-.173-.134a.062.062 0 0 1-.028-.082.06.06 0 0 1 .08-.028c.069.015.133.023.205.037l.202.037c.052.01.104.019.158.032.077.018.155.04.234.061a10.53 10.53 0 0 0 1.864.3c.66.043 1.295.02 1.76-.105a.204.204 0 0 1 .248.146.203.203 0 0 1-.144.25" fill="#333739"/>
    <path d="M11.989 125.525c3.973-2.338 11.787-3.451 12.38-9.287" stroke="#333739" stroke-width=".256" stroke-linecap="round" stroke-linejoin="round"/>
    <path fill-rule="evenodd" clip-rule="evenodd" d="M5.455 123.118c-.314-.315-.663-.602-1.057-.786a2.015 2.015 0 0 0-1.236-.171c-.43.076-.754.507-.762.971-.003.18.044.364.147.54.04.07.088.139.145.206a2.317 2.317 0 0 0 .437.407c.042.02.06.071.04.113a.084.084 0 0 1-.112.04 1.94 1.94 0 0 1-.315-.127 1.308 1.308 0 0 1-.721-1.182c0-.652.468-1.248 1.07-1.362a2.399 2.399 0 0 1 1.476.197c.436.201.826.515 1.175.864.08.079.08.209.001.29a.203.203 0 0 1-.288 0M64.575 129.604c.123-.606.343-1.137.691-1.536.358-.41.85-.685 1.518-.762a1.652 1.652 0 0 1 1.425.577c.18.221.3.485.288.763a.932.932 0 0 1-.103.399c-.057.108-.13.212-.233.312a.084.084 0 0 1-.118.016.085.085 0 0 1-.015-.119c.045-.083.072-.164.096-.243a.919.919 0 0 0 .03-.357.918.918 0 0 0-.23-.526 1.282 1.282 0 0 0-1.094-.429c-.555.067-.965.294-1.26.636-.305.352-.49.819-.597 1.351a.204.204 0 1 1-.398-.082M54.99 124.57c-1.517-.027-3.804-.548-5.757-1.445a11.232 11.232 0 0 1-1.707-.953 6.263 6.263 0 0 1-.668-.518 4.127 4.127 0 0 1-.769-.937.087.087 0 0 1 .018-.119.085.085 0 0 1 .118.018c.181.209.398.4.631.592.144.12.296.236.454.354.83.615 1.876 1.16 2.98 1.577 1.673.632 3.457 1.002 4.706 1.021a.204.204 0 0 1 .2.208.206.206 0 0 1-.206.202" fill="#333739"/>
    <path fill-rule="evenodd" clip-rule="evenodd" d="M33.488 77.668c2.477-2.124 9.561-5.913 12.904-5.176 4.536.998 3.305 5.643 1.133 8.837-3.505-4.71-10.455-4.845-14.037-3.66" fill="#C9C6C6"/>
    <path clip-rule="evenodd" d="M33.488 77.668c2.477-2.124 9.561-5.913 12.904-5.176 4.536.998 3.305 5.643 1.133 8.837-3.505-4.71-10.455-4.845-14.037-3.66z" stroke="#333739" stroke-width=".256" stroke-linecap="round" stroke-linejoin="round"/>
    <path fill-rule="evenodd" clip-rule="evenodd" d="M18.436 89.193c4.472-1.481 7.38-4.931 10.728-7.921 4.57-4.08 9.006-7.505 15.213-8.819-10.118 1.712-20.9 8.418-25.941 16.74" fill="#fff"/>
    <mask id="4fllkg660r" style="mask-type:alpha" maskUnits="userSpaceOnUse" x="18" y="77" width="14" height="13">
        <path fill-rule="evenodd" clip-rule="evenodd" d="M30.469 77.969c-5.081 3.062-9.49 7.124-12.229 11.658l.48-.169c4.265-1.587 7.122-4.952 10.393-7.883a88.792 88.792 0 0 1 2.553-2.211V77.97" fill="#fff"/>
    </mask>
    <g mask="url(#4fllkg660r)">
        <path fill-rule="evenodd" clip-rule="evenodd" d="M31.666 79.892c-1.234.588-2.404 1.283-3.6 1.94-2.297 1.262-4.671 2.39-6.951 3.684-3.173-.998-6.002-4.487-6.74-7.547-3.604 2.79-4.992 6.358-5.535 10.508-.229 1.74-.352 3.503-.043 5.22.228 1.263.74 2.45 1.274 3.61 1.092 2.376 3.262 5.791 6.416 6.056-.163-1.367.298-2.656.682-3.983 1.38-4.764 3.347-8.332 7.29-11.721 2.524-2.17 6.034-4.602 7.207-7.767" fill="#C9C6C6"/>
    </g>
    <path clip-rule="evenodd" d="M19.013 89.516c4.404-1.476 7.267-4.912 10.565-7.89 4.501-4.063 8.87-7.473 14.983-8.782-9.965 1.704-20.584 8.383-25.548 16.672z" stroke="#333739" stroke-width=".188" stroke-linecap="round" stroke-linejoin="round"/>
    <path fill-rule="evenodd" clip-rule="evenodd" d="M40.947 73.817c-1.744-.916-3.678-1.916-5.979-2.523-9.386-2.479-17.562 3.068-21.378 10.557-3.176 6.234-1.62 13.01-.26 16.252 4.703-9.695 16.301-21.74 27.617-24.286" fill="#fff"/>
    <mask id="6dofph9g6s" style="mask-type:alpha" maskUnits="userSpaceOnUse" x="10" y="78" width="21" height="21">
        <path fill-rule="evenodd" clip-rule="evenodd" d="M14.908 78.309a22.419 22.419 0 0 0-2.205 3.461l-.18.362c-2.983 6.161-1.439 12.77-.083 15.966l.19-.381c3.39-6.709 10.017-14.45 17.542-19.408" fill="#fff"/>
    </mask>
    <g mask="url(#6dofph9g6s)">
        <path fill-rule="evenodd" clip-rule="evenodd" d="M31.446 79.893c-1.217.578-2.37 1.262-3.551 1.909-2.265 1.241-6.36 1.717-10.305 8.778-3.083-2.89-6.393-7.14-3.32-12.271-3.555 2.746-4.8 5.948-5.335 10.032-.226 1.713-.348 3.448-.042 5.137.224 1.243.729 2.411 1.256 3.553 1.077 2.338 3.217 5.699 6.327 5.96-.16-1.346.294-2.615.673-3.92 1.36-4.688 3.301-8.2 7.19-11.535 2.489-2.135 5.95-4.529 7.107-7.643" fill="#C9C6C6"/>
    </g>
    <mask id="w4mpuj6jgt" style="mask-type:alpha" maskUnits="userSpaceOnUse" x="10" y="70" width="31" height="29">
        <path fill-rule="evenodd" clip-rule="evenodd" d="M34.4 71.165c2.334.61 4.297 1.614 6.068 2.534-11.485 2.559-23.256 14.658-28.028 24.398-1.383-3.257-2.96-10.064.263-16.327 3.236-6.285 9.558-11.207 17.104-11.207 1.488 0 3.024.192 4.592.602z" fill="#fff"/>
    </mask>
    <g mask="url(#w4mpuj6jgt)" fill-rule="evenodd" clip-rule="evenodd">
        <path d="M26.522 78.78c-1.548 1.266-3.104 2.843-4.557 4.587-1.127-1.844-2.18-3.575-3.167-5.202a27.564 27.564 0 0 1 4.281-3.969c1.116 1.464 2.177 2.937 3.443 4.584" fill="#75151E"/>
        <path d="M29.071 74.854a.99.99 0 0 1-.502.621c-.618.335-1.48.11-1.976-.52-.481-.612-.397-1.361.207-1.697.249-.137.55-.185.87-.137l.017.002c.034-.231.068-.46.104-.687l-.02-.004c-.537-.1-1.064-.027-1.478.205-.971.546-1.133 1.787-.389 2.74.779 1 2.212 1.354 3.221.81a1.6 1.6 0 0 0 .831-1.094 66.36 66.36 0 0 0-.881-.252l-.004.013m1.85.287c.238-.109.478-.215.72-.318a208.646 208.646 0 0 0-2.78-3.332c-.233.1-.463.205-.692.312.893 1.058 1.81 2.172 2.752 3.338m2.583-2.64c-.052-.044-3.082-1.651-3.093-1.64-.234.085-.466.173-.697.264a219.674 219.674 0 0 1 2.816 3.324c.245-.096.493-.188.741-.278a236.298 236.298 0 0 0-1.732-2.035c.14.058 3.074 1.625 3.06 1.63-.005-.004-.467-2.32-.48-2.415.588.656 1.184 1.326 1.788 2.013.262-.067.526-.13.791-.19a268.118 268.118 0 0 0-2.966-3.277c-.252.055-.5.114-.748.176-.005-.004.503 2.372.52 2.428m5.207-.4c-.272.035-.542.074-.81.117a288.65 288.65 0 0 0-.723-.783c.266-.041.535-.08.806-.115.38-.047.704.137.879.323.178.19.23.407-.152.457m-2.736-1.955c.246-.037.495-.072.745-.104.316-.04.63.07.836.287.207.218.14.369-.178.41-.252.031-.502.067-.75.105l-.653-.698m2.526.774c.11-.098.21-.341-.13-.695a2.593 2.593 0 0 0-2.122-.748c-.541.066-1.073.148-1.597.244.98 1.05 1.979 2.137 2.997 3.264.562-.108 1.134-.2 1.714-.277.79-.105.945-.517.38-1.113-.416-.438-.942-.612-1.242-.675" fill="#7C1710"/>
        <path d="M19.795 78.413a27.982 27.982 0 0 1 2.277-2.221c.742.145 1.506.305 2.293.481-.004.883 0 1.803.01 2.76a28.556 28.556 0 0 0-2.421 2.422 246.363 246.363 0 0 1-.134-2.937c-.695-.181-1.37-.349-2.025-.505" fill="#E5292B"/>
        <path d="M24.365 76.673a85.913 85.913 0 0 0-2.293-.481 27.982 27.982 0 0 0-2.277 2.221c.656.156 1.33.324 2.025.505" fill="#FEFEFE"/>
        <path d="M19.659 87.759c-1.394-1.24-2.627-3.016-3.356-4.942-.741-1.959-.964-4.07-.33-5.917a.104.104 0 0 1 .131-.067.106.106 0 0 1 .066.133c-.581 1.804-.318 3.845.433 5.733.738 1.858 1.951 3.57 3.32 4.753a.204.204 0 0 1 .02.287.2.2 0 0 1-.284.02" fill="#333739"/>
    </g>
    <path clip-rule="evenodd" d="M40.468 73.738c-1.77-.931-3.733-1.949-6.068-2.566-9.526-2.522-17.824 3.121-21.697 10.741-3.223 6.343-1.645 13.236-.263 16.535 4.772-9.864 16.543-22.118 28.028-24.71z" stroke="#333739" stroke-width=".253" stroke-linecap="round" stroke-linejoin="round"/>
    <path fill-rule="evenodd" clip-rule="evenodd" d="M27.323 100.54c-.257 1.26-.903 2.163-1.715 2.602a2.54 2.54 0 0 1-2.125.137 3.092 3.092 0 0 1-.762-.417 4.375 4.375 0 0 1-.903-.911c-.518-.694-.963-1.642-1.276-2.87a.075.075 0 0 1 .05-.094c.038-.011.08.011.091.052.379 1.165.867 2.049 1.403 2.692.277.333.566.598.862.801.223.155.45.272.675.358a2.274 2.274 0 0 0 1.829-.066c.77-.372 1.408-1.171 1.717-2.322a.08.08 0 0 1 .096-.06c.041.01.068.054.058.098M27.463 101.176c-.164.719-.146 1.368.005 1.915.045.165.104.319.172.464a2.303 2.303 0 0 0 .769.912c.195.134.413.239.654.307.529.149 1.158.136 1.859-.096a.07.07 0 0 1 .091.041.074.074 0 0 1-.04.094 3.794 3.794 0 0 1-1.162.332 2.75 2.75 0 0 1-.826-.033 2.321 2.321 0 0 1-.788-.306 2.285 2.285 0 0 1-.707-.707 2.71 2.71 0 0 1-.36-.926c-.116-.598-.064-1.292.184-2.041a.076.076 0 0 1 .096-.054.08.08 0 0 1 .053.098M20.69 99.828c.14 1.274.122 2.245-.048 2.978-.196.847-.585 1.389-1.109 1.719a2.54 2.54 0 0 1-.768.313 4.64 4.64 0 0 1-1.193.101c-.364-.01-.753-.049-1.165-.107-.535-.074-1.106-.182-1.712-.293a.07.07 0 0 1-.06-.082.07.07 0 0 1 .08-.061c1.067.115 2.032.218 2.857.194a4.713 4.713 0 0 0 1.098-.142c.238-.064.455-.155.651-.276.452-.281.78-.738.984-1.456.198-.702.286-1.635.23-2.876a.08.08 0 0 1 .071-.086c.043-.003.08.03.084.074M14.72 104.673a8.799 8.799 0 0 1 2.507.865 8.45 8.45 0 0 1 1.493.987c.49.408.91.864 1.22 1.348.234.366.406.749.502 1.137.204.825.08 1.681-.518 2.484-.407.544-1.04 1.066-1.942 1.536a.07.07 0 0 1-.097-.029.074.074 0 0 1 .028-.099c.84-.502 1.416-1.035 1.781-1.578.494-.736.576-1.487.375-2.211a3.948 3.948 0 0 0-.628-1.247 6.654 6.654 0 0 0-.962-1.049 8.858 8.858 0 0 0-1.396-1.008 8.729 8.729 0 0 0-2.394-.98.08.08 0 0 1-.06-.094.079.079 0 0 1 .091-.062M18.12 113.257a4.204 4.204 0 0 1 2.128-1.147 3.608 3.608 0 0 1 1.155-.043c.17.022.335.057.492.106.42.131.795.355 1.086.66.267.281.466.633.565 1.052.115.487.1 1.064-.099 1.729a.07.07 0 0 1-.086.053.072.072 0 0 1-.052-.088c.105-.517.105-.967.025-1.356a2.083 2.083 0 0 0-.61-1.123 2.352 2.352 0 0 0-.946-.53 3.21 3.21 0 0 0-.876-.14 4.055 4.055 0 0 0-2.68.944.076.076 0 0 1-.109-.005.08.08 0 0 1 .007-.112M31.675 105.158c-.502.232-.842.479-1.058.723-.193.218-.263.434-.225.66a.99.99 0 0 0 .09.278c.064.134.155.269.272.407.239.282.571.572.994.855a.073.073 0 0 1 .028.098.07.07 0 0 1-.097.029c-.32-.148-.6-.305-.839-.472-.2-.14-.367-.288-.5-.44-.194-.224-.314-.459-.35-.69-.053-.34.06-.681.38-.977.098-.09.216-.176.354-.256.236-.137.532-.258.898-.364a.077.077 0 0 1 .099.047.079.079 0 0 1-.046.102" fill="#fff"/>
</svg>
