<svg width="163" height="144" viewBox="0 0 163 144" fill="none" xmlns="http://www.w3.org/2000/svg">
    <path opacity=".1" d="M44.407 142.782c24.525 0 44.407-19.865 44.407-44.371 0-24.506-19.882-44.372-44.407-44.372C19.882 54.04 0 73.905 0 98.411s19.882 44.371 44.407 44.371z" fill="#333739"/>
    <path opacity=".1" d="M118.591 88.743c24.525 0 44.407-19.865 44.407-44.371C162.998 19.866 143.116 0 118.591 0 94.066 0 74.184 19.866 74.184 44.372c0 24.505 19.882 44.371 44.407 44.371z" fill="#333739"/>
    <path opacity=".3" fill-rule="evenodd" clip-rule="evenodd" d="M43.522 137.218s-23.996-.03-23.946.68c.15 2.362 19.018.981 20.56 1.692.762.35-.08 1.11 1.263 1.601 5.328 1.951 23.886.18 30.506.19 18.037.04 22.614.92 24.707 1.031 5.879.32 22.514.19 27.191.13 9.624-.13 35.524.39 34.973-1.601-.241-.901-19.183-3.661-23.419-3.902-3.626-.21-12.035-.582-15.29-1.312-4.547-1.021-9.544-1.641-14.451-2.032-20.572-1.621-41.663 2.192-62.094 3.523z" fill="#333739"/>
    <path d="M106.501 138.641H61.893a8.186 8.186 0 0 1-8.192-8.186V20.487a8.186 8.186 0 0 1 8.193-8.186h44.617a8.186 8.186 0 0 1 8.192 8.186v109.968c0 4.523-3.675 8.186-8.202 8.186z" fill="#fff" stroke="#333739" stroke-width=".564" stroke-miterlimit="10"/>
    <path d="M94.363 15.681h-19.62c-.861 0-1.562-.7-1.562-1.56v-1.832h22.874v1.691c0 .94-.761 1.701-1.692 1.701z" fill="#333739"/>
    <path opacity=".2" d="M88.223 96.348H44.127a4.146 4.146 0 0 1-4.147-4.143V25.877a4.146 4.146 0 0 1 4.147-4.143h44.106a4.146 4.146 0 0 1 4.146 4.143v66.328a4.155 4.155 0 0 1-4.156 4.143z" fill="#333739"/>
    <path d="M67.562 56.04h-19.63a3.132 3.132 0 0 1-3.134-3.132V29.081a3.132 3.132 0 0 1 3.135-3.132h19.63a3.132 3.132 0 0 1 3.134 3.132v23.827a3.132 3.132 0 0 1-3.135 3.133zM73.25 29.562a1.051 1.051 0 1 0 .001-2.102 1.051 1.051 0 0 0 0 2.102zM77.467 29.562a1.051 1.051 0 1 0 .001-2.102 1.051 1.051 0 0 0 0 2.102zM82.585 64.155H43.746c-.751 0-1.352-.61-1.352-1.35 0-.751.611-1.352 1.352-1.352h38.839c.75 0 1.352.61 1.352 1.351 0 .75-.601 1.351-1.352 1.351zM87.102 71.983h-38.84c-.75 0-1.351-.61-1.351-1.35 0-.751.61-1.352 1.352-1.352h38.839c.75 0 1.352.61 1.352 1.351 0 .74-.601 1.351-1.352 1.351zM83.486 79.198H44.647a1.352 1.352 0 0 1 0-2.702h38.839c.751 0 1.352.61 1.352 1.351 0 .75-.6 1.351-1.352 1.351z" fill="#fff"/>
    <path d="M113.762 106.145h-19.57a3.164 3.164 0 0 1-3.165-3.162 3.164 3.164 0 0 1 3.165-3.163h19.57a3.163 3.163 0 0 1 3.164 3.163 3.17 3.17 0 0 1-3.164 3.162zM106.371 127.332H63.316a3.164 3.164 0 0 1-3.165-3.162 3.164 3.164 0 0 1 3.165-3.162h43.055a3.163 3.163 0 0 1 3.164 3.162 3.17 3.17 0 0 1-3.164 3.162z" fill="#333739" stroke="#fff" stroke-width=".282" stroke-miterlimit="10"/>
    <path d="M61.413 48.725c.03.01-2.434 1.43-4.357.99-1.803-.41-3.034-1.931-3.004-1.941.75-.18.88-1.961.67-6.415l.341.05 5.789.881s-.05 1.811.02 3.513c.06 1.43.2 2.782.54 2.922z" fill="#FFDDC5"/>
    <path opacity=".1" d="M60.852 42.79s-.05 1.772.02 3.423c-3.135.05-4.918-2.732-5.669-4.283l5.649.86z" fill="#333739"/>
    <path d="M61.603 44.582s-7.411.45-7.622-4.163c-.21-4.613-1.312-7.665 3.415-8.146 4.728-.48 5.72 1.241 6.17 2.762.44 1.512-.04 9.307-1.963 9.547z" fill="#FFDDC5"/>
    <path d="M63.986 29.609c2.084 2.472 1.352 3.953-.86 4.023-2.214.07-5.45-.15-5.45-.15s-1.03 7.595-1.311 5.724c-.27-1.872.711-2.132-.16-3.443-.872-1.31-1.793-.49-1.803.45-.01.951-.4 5.184-.4 5.184s-1.293-4.613-.962-7.375c.33-2.752 1.612-5.023 4.447-4.453 2.834.57 3.134 1.501 4.867 1.24 1.743-.25 1.632-1.2 1.632-1.2z" fill="#333739"/>
    <path d="M54.042 47.773c4.606 3.543 7.01.23 7.01.23l7.281 1.792 2.354 4.223c-.601 2.712-4.056 3.312-4.217 3.312-.6 0-15.543.21-18.457-.19-2.915-.41-3.295-3.332-3.295-3.332l1.882-3.693 7.442-2.342z" fill="#F66"/>
    <path opacity=".1" d="M114.092 96.347h-6.61a3.67 3.67 0 0 1-3.675-3.673V25.926a3.67 3.67 0 0 1 3.675-3.672h6.61v74.093z" fill="#333739"/>
    <path d="M114.092 56.94h-.35a4.811 4.811 0 0 1-4.818-4.814V30.191a3.935 3.935 0 0 1 3.936-3.933h1.232V56.94z" fill="#fff"/>
    <path d="M120.372 40.46v-2.892s-1.963-.28-2.414-.731c-.37-.37-1.031-2.022-1.272-2.632-.06-.14-.09-.23-.09-.23l-.3-3.623v-2.361s.3-.961.601-1.561c.3-.6.6-1.211 1.211-1.812.601-.6 1.513-.9 1.513-.9s1.211-.6 2.113-.6c.901 0 .901 0 1.813.3.901.3 1.812.9 1.812.9s.601.3.902.6c.3.3.901 1.211 1.212 1.812.3.6.3 1.21.3 1.51v1.972c0 .43-.601 1.942-.901 2.552-.301.61-.371 1.01-.601 1.511-.281.61-.601 1.211-.601 1.211s-.301.6-.301.9V40.91h-5.037l.04-.45z" fill="#FFDDC5"/>
    <path d="m122.034 36.004 3.926.08 1.513-3.923s1.362-3.162 1.512-3.922c.15-.751.15-1.201 0-2.182-.15-.98-.601-1.431-.601-1.431s-.751-.75-1.813-1.21c-1.051-.451-1.051-.451-1.512-.601-.461-.15-2.113-.3-2.113-.3H119.15l-.871-.15-.451-.15-.301-.3-.3.3-.3.6-.301.6s-.3.63-.3.62v1.031s.15.32.3.77c.15.451.751.451.901.601.151.15.902.3.902.3l.901.3h.301v.601l-.451.45-.32.41-.291.491.15 1.05v.301s1.332-1.36 1.653-1.36c.32 0 .611.3.771.45.15.15.451.75.3 1.21-.15.46-.671 1.361-.671 1.361l-.24.45 1.512 3.623M130.367 71.922h-17.176s-.331 26.228-.331 27.136c0 .908.601 9.352.902 10.489l2.413 22.127h6.791s-.601-28.394 0-37.057c.06-.818.11-1.597.15-2.345.45-7.146.45-10.889.45-10.889l-.49 11.627 8.643 38.544 7.101.11s-1.973-13.344-3.486-25.201l-4.967-34.541z" fill="#333739"/>
    <path d="m123.576 81.383.151 8.782-.651 2.845.5-11.627z" fill="#333739"/>
    <path d="m107.813 50.825 2.013 4.463c.1.22.02.47-.18.6l-5.008 3.333a.516.516 0 0 1-.711-.14L89.535 37.936a.482.482 0 0 1 .16-.68l1.513-.981c.17-.1.27-.29.24-.48l-.15-1.131c-.04-.29.2-.55.5-.55.221 0 .421.14.481.35l.461 1.57c.01.05.04.09.06.14l.871 1.272c.07.11.1.24.07.37l-.17.84c-.03.14 0 .28.09.39l10.226 13.32c.17.22.491.26.711.1l2.424-1.82c.28-.211.661-.111.791.18zM135.455 50.834l-3.976.73a.453.453 0 0 0-.351.551l1.522 6.385c.05.22-.07.45-.29.53l-20.431 7.145c-.05.02-.1.03-.15.03H110.377l-3.195.44a.448.448 0 0 0-.341.651.46.46 0 0 0 .401.25h1.072c.21 0 .39.14.44.34l.281 1.121c.06.25.31.39.561.32l27.661-7.715a.442.442 0 0 0 .321-.5l-1.593-9.898a.461.461 0 0 0-.53-.38z" fill="#FFDDC5"/>
    <path d="M126.461 40.328v1.21h-9.054s.601-1.21 2.113-1.51h6.941v.3z" fill="#F66"/>
    <path d="M131.018 56.578c-.902-3.623-.782-2.842-.782-2.842s3.726 30.482 3.446 31.443c-.281.95-22.594.67-23.235 0-.641-.671 1.211-40.71 1.211-40.71s.171-2.791 5.759-2.942h9.054s4.226 0 5.127.6c0 0 .902.301 1.813 1.512 1.212 1.811 2.133 2.382 3.646 11.128" fill="#F66"/>
    <path d="M110.016 44.099s3.125-2.452 5.638-2.432c0 0 1.903-.28 3.115.32.661.33 1.813 1.231 2.113 2.712.301 1.511-.601 2.412-1.512 3.923l-4.226 3.923-2.114 1.81-5.167 3.163-3.466-6.935 5.619-6.484z" fill="#F66"/>
    <path d="m120.404 137.377 1.932-.008c.007 0 .014 0 .014-.009l-.201-5.672c0-.008-.007-.016-.014-.016h-4.287c-.055.099-2.015 3.495-5.976 4.477-.568.14-.962.626-.942 1.195 0 .008.007.016.014.016l8.033.017" fill="#333739"/>
    <path d="M122.135 131.672h-4.287l-1.011 1.368s1.143 1.039 2.528 1.039 2.846-.692 2.846-.692l-.062-1.699-.014-.016z" fill="#FFDDC5"/>
    <path d="m135.901 137.377 1.932-.008c.007 0 .014 0 .014-.009l-.201-5.672c0-.008-.007-.016-.014-.016h-4.286c-.055.099-2.015 3.495-5.976 4.477-.568.14-.963.626-.942 1.195 0 .008.007.016.014.016l8.033.017" fill="#333739"/>
    <path d="M137.632 131.672h-4.286l-1.011 1.368s1.142 1.039 2.527 1.039c1.385 0 2.846-.692 2.846-.692l-.062-1.699-.014-.016z" fill="#FFDDC5"/>
    <path fill-rule="evenodd" clip-rule="evenodd" d="M43.214 120.775c4.36.663 7.08-5.837 8.61-8.816.875-1.7 1.776-3.475 3.028-4.93 2.613-3.033 6.049-3.635 6.505-2.4.383 1.034-1.017.98-2.443 2.353a6.096 6.096 0 0 0-1.858 3.708c-.816 6.476-.589 8.539-3.192 13.338-.62 1.14-1.302 2.299-2.236 3.214-4.486 4.391-8.831-1.472-8.414-6.467z" fill="#EF383D"/>
    <mask id="a" style="mask-type:alpha" maskUnits="userSpaceOnUse" x="43" y="104" width="19" height="25">
        <path fill-rule="evenodd" clip-rule="evenodd" d="M54.852 107.026c-1.252 1.455-2.153 3.229-3.028 4.929-1.53 2.98-4.25 9.48-8.61 8.816-.418 4.997 3.928 10.86 8.414 6.468.935-.915 1.618-2.074 2.236-3.214 2.603-4.798 2.377-6.863 3.192-13.338a6.09 6.09 0 0 1 1.86-3.708c1.424-1.374 2.824-1.318 2.441-2.352-.146-.396-.596-.604-1.226-.604-1.342.001-3.502.939-5.279 3.003z" fill="#fff"/>
    </mask>
    <g mask="url(#a)">
        <path fill-rule="evenodd" clip-rule="evenodd" d="M63.015 104.203c-4.546.093-7.57 4.319-8.53 8.358-.484 2.039-.575 4.149-1.08 6.188-.933 3.757-2.714 7.381-5.347 10.241 10.952-1.887 7.738-9.143 11.056-16.94.459-1.081 1.028-2.093 1.666-3.077.811-1.254 2.737-3.044 2.235-4.77z" fill="#BC2025"/>
    </g>
    <mask id="b" style="mask-type:alpha" maskUnits="userSpaceOnUse" x="43" y="104" width="19" height="25">
        <path fill-rule="evenodd" clip-rule="evenodd" d="M54.852 107.026c-1.252 1.455-2.153 3.229-3.028 4.929-1.53 2.98-4.25 9.48-8.61 8.816-.418 4.997 3.928 10.86 8.414 6.468.935-.915 1.618-2.074 2.236-3.214 2.603-4.798 2.377-6.863 3.192-13.338a6.09 6.09 0 0 1 1.86-3.708c1.424-1.374 2.824-1.318 2.441-2.352-.146-.396-.596-.604-1.226-.604-1.342.001-3.502.939-5.279 3.003z" fill="#fff"/>
    </mask>
    <g mask="url(#b)">
        <path fill-rule="evenodd" clip-rule="evenodd" d="M49.042 118.486c1.848-1.915 2.712-4.499 3.826-6.85 1.833-3.867 3.513-6.644 7.621-7.969-2.034-.235-3.643.783-5.083 2.118-2.477 2.297-4.161 5.18-5.828 8.077-.53.923-1.919 3.201-2.066 4.23.352-.082 1.178.324 1.53.394z" fill="#F48EAA"/>
    </g>
    <path fill-rule="evenodd" clip-rule="evenodd" d="M43.242 120.607a.204.204 0 0 0-.143.034.167.167 0 0 0-.07.119h.016c-.251 3.008 1.195 6.318 3.355 7.618 1.535.924 3.43.863 5.349-1.014a9.123 9.123 0 0 0 1.033-1.222c.462-.646.86-1.342 1.234-2.032 1.1-2.027 1.699-3.57 2.084-5.159.531-2.191.655-4.469 1.131-8.24.096-.76.311-1.408.588-1.959a6.015 6.015 0 0 1 1.22-1.642c.589-.567 1.174-.885 1.624-1.139.338-.191.604-.354.76-.544.182-.224.242-.484.102-.862-.12-.323-.406-.551-.823-.654-.545-.136-1.33-.057-2.214.27-1.19.441-2.568 1.331-3.773 2.73a15.17 15.17 0 0 0-1.375 1.901c-.616.991-1.152 2.04-1.679 3.062-.895 1.743-2.199 4.699-4.004 6.701-1.226 1.358-2.683 2.279-4.415 2.016v.016zm.127.375c-.165 2.825 1.186 5.888 3.208 7.104 1.416.851 3.16.765 4.93-.969.366-.358.694-.756.993-1.176.453-.635.844-1.319 1.21-1.997 1.082-1.994 1.672-3.512 2.05-5.076.527-2.18.647-4.448 1.12-8.201a6.366 6.366 0 0 1 .62-2.075 6.397 6.397 0 0 1 1.291-1.739c.615-.593 1.226-.927 1.696-1.193.29-.164.524-.296.658-.46.108-.132.126-.288.044-.51-.083-.221-.289-.361-.574-.432-.493-.121-1.202-.037-2.002.261-1.144.423-2.465 1.283-3.623 2.628a14.878 14.878 0 0 0-1.34 1.855c-.611.984-1.142 2.025-1.663 3.039-.907 1.765-2.229 4.753-4.056 6.781-1.27 1.41-2.785 2.354-4.563 2.16z" fill="#000"/>
    <path fill-rule="evenodd" clip-rule="evenodd" d="M53.014 123.638c1.453-2.352 3.27-4.973 6.062-5.809 3.203-.96 6.451.913 5.937 4.313-.668 4.411-7.169 3.952-6.454.123-2.457 3.857-4.1 8.275-3.91 12.913-4.198-1.77-6.214-4.876-3.652-9.055.507-.827 1.295-1.824 2.017-2.485z" fill="#EF383D"/>
    <mask id="c" style="mask-type:alpha" maskUnits="userSpaceOnUse" x="49" y="117" width="17" height="19">
        <path fill-rule="evenodd" clip-rule="evenodd" d="M60.757 117.582a5.92 5.92 0 0 0-1.681.25c-2.792.836-4.609 3.457-6.062 5.81-.721.661-1.51 1.657-2.016 2.485-2.563 4.178-.546 7.285 3.651 9.053-.188-4.637 1.453-9.054 3.91-12.912-.715 3.83 5.786 4.288 6.454-.123.424-2.799-1.703-4.563-4.255-4.563h-.002z" fill="#fff"/>
    </mask>
    <g mask="url(#c)">
        <path fill-rule="evenodd" clip-rule="evenodd" d="M58.608 123.229c1.631 1.431 4.32.79 5.028-1.272.344-1 .354-2.026-.113-2.991a5.035 5.035 0 0 0-.608-.938 14.868 14.868 0 0 0-.254-.303c-.04-.048-.185-.133-.123-.145.974-.188 2.284 1.167 2.684 1.908 1.471 2.726-.297 7.142-3.347 7.911-2.104.531-3.693-1.986-3.267-4.17z" fill="#BC2025"/>
    </g>
    <mask id="d" style="mask-type:alpha" maskUnits="userSpaceOnUse" x="49" y="117" width="17" height="19">
        <path fill-rule="evenodd" clip-rule="evenodd" d="M60.757 117.582a5.92 5.92 0 0 0-1.681.25c-2.792.836-4.609 3.457-6.062 5.81-.721.661-1.51 1.657-2.016 2.485-2.563 4.178-.546 7.285 3.651 9.053-.188-4.637 1.453-9.054 3.91-12.912-.715 3.83 5.786 4.288 6.454-.123.424-2.799-1.703-4.563-4.255-4.563h-.002z" fill="#fff"/>
    </mask>
    <g mask="url(#d)">
        <path fill-rule="evenodd" clip-rule="evenodd" d="M52.386 128.478c.216-1.33.619-2.619 1.122-3.866 1.098-2.724 2.389-4.732 5.05-6.098 1.268-.65 2.672-.931 4.108-.573-1.324-.841-3.241-.425-4.572.271-2.355 1.233-4.3 3.433-5.328 5.876-.354.843-.963 3.427-.38 4.39z" fill="#F48EAA"/>
    </g>
    <mask id="e" style="mask-type:alpha" maskUnits="userSpaceOnUse" x="49" y="117" width="17" height="19">
        <path fill-rule="evenodd" clip-rule="evenodd" d="M60.757 117.582a5.92 5.92 0 0 0-1.681.25c-2.792.836-4.609 3.457-6.062 5.81-.721.661-1.51 1.657-2.016 2.485-2.563 4.178-.546 7.285 3.651 9.053-.188-4.637 1.453-9.054 3.91-12.912-.715 3.83 5.786 4.288 6.454-.123.424-2.799-1.703-4.563-4.255-4.563h-.002z" fill="#fff"/>
    </mask>
    <g mask="url(#e)">
        <path fill-rule="evenodd" clip-rule="evenodd" d="M53.357 131.163c-.006-.949.113-1.885.297-2.816.568-2.892 2.47-7.372 5.706-8.153.73-.176 1.463-.151 2.119.247-2.011-.855-3.203 1.389-3.227 3.059-.034 2.289-1.292 4.411-1.843 6.636-.123.495-.208 1.89-.468 2.314-.752 1.234-2.37-.163-2.584-1.287z" fill="#BC2025"/>
    </g>
    <path fill-rule="evenodd" clip-rule="evenodd" d="M58.33 122.973c-1.054 1.74-1.934 3.588-2.551 5.513-.689 2.146-1.05 4.389-.957 6.688a.172.172 0 0 1-.24.165c-2.128-.897-3.701-2.138-4.432-3.675-.747-1.572-.627-3.46.703-5.626.257-.421.586-.883.942-1.325.356-.441.74-.861 1.105-1.196l-.044.026c.879-1.421 1.89-2.939 3.165-4.111.867-.795 1.854-1.432 3.002-1.776 1.622-.485 3.253-.265 4.436.493 1.252.802 2.009 2.202 1.733 4.023-.326 2.153-1.979 3.199-3.576 3.297-1.138.071-2.246-.346-2.839-1.174a2.427 2.427 0 0 1-.448-1.322zm-3.863 11.939c-.058-2.243.306-4.433.977-6.533.698-2.181 1.73-4.265 2.965-6.207a.18.18 0 0 1 .215-.07c.08.031.126.114.11.198-.137.733.007 1.334.333 1.788.526.735 1.517 1.086 2.527 1.023 1.448-.09 2.946-1.04 3.24-2.993.25-1.656-.433-2.934-1.572-3.663-1.102-.705-2.623-.9-4.133-.447-1.094.327-2.033.938-2.859 1.697-1.249 1.149-2.237 2.639-3.097 4.034h-.015a.187.187 0 0 1-.03.039v-.012a10.86 10.86 0 0 0-1.069 1.16 12.5 12.5 0 0 0-.917 1.289c-1.252 2.043-1.388 3.821-.682 5.302.672 1.411 2.095 2.548 4.007 3.395z" fill="#000"/>
    <path fill-rule="evenodd" clip-rule="evenodd" d="M32.587 120.624c-1.238 4.153-10.62 5.15-13.103-2.153-.889-2.613-1.334-5.271-2.929-7.574-1.09-1.576-2.66-2.954-4.547-3.457-.457-.122-1.573-.396-1.957.079-.438.545.643 1.229.997 1.531 2.494 2.12 2.768 5.154 3.283 13.012.355 5.427 2.671 6.36 6.435 7.434 9.194 2.624 14.236-7.232 11.821-8.872z" fill="#EF383D"/>
    <mask id="f" style="mask-type:alpha" maskUnits="userSpaceOnUse" x="9" y="107" width="25" height="23">
        <path fill-rule="evenodd" clip-rule="evenodd" d="M10.052 107.516c-.44.545.643 1.228.997 1.53 2.494 2.12 2.767 5.154 3.282 13.013.355 5.426 2.672 6.36 6.435 7.434 9.194 2.623 14.236-7.233 11.822-8.873-1.239 4.154-10.62 5.15-13.104-2.152-.89-2.613-1.334-5.272-2.929-7.575-1.09-1.576-2.66-2.954-4.546-3.456-.263-.07-.742-.191-1.175-.191-.322 0-.619.067-.782.27z" fill="#fff"/>
    </mask>
    <g mask="url(#f)">
        <path fill-rule="evenodd" clip-rule="evenodd" d="M32.587 120.621c-1.219 5.138-9.091 5.624-11.852.71-.89-1.584-1.593-3.513-2.014-6.547-.47-3.396-4.595-7.568-6.066-8.254-3.163-1.474 2.27.717 3.35 6.652 1.141 6.261 1.364 12.261 6.818 14.172 5.74 2.011 11.074 5.053 13.479-.815-2.62-8.534-.465-9.044-3.715-5.918z" fill="#BC2025"/>
    </g>
    <mask id="g" style="mask-type:alpha" maskUnits="userSpaceOnUse" x="9" y="107" width="25" height="23">
        <path fill-rule="evenodd" clip-rule="evenodd" d="M10.052 107.516c-.44.545.643 1.228.997 1.53 2.494 2.12 2.767 5.154 3.282 13.013.355 5.426 2.672 6.36 6.435 7.434 9.194 2.623 14.236-7.233 11.822-8.873-1.239 4.154-10.62 5.15-13.104-2.152-.89-2.613-1.334-5.272-2.929-7.575-1.09-1.576-2.66-2.954-4.546-3.456-.263-.07-.742-.191-1.175-.191-.322 0-.619.067-.782.27z" fill="#fff"/>
    </mask>
    <g mask="url(#g)">
        <path fill-rule="evenodd" clip-rule="evenodd" d="M8.419 107.978c6.76 3.019 4.37 11.086 5.96 18.385.607 2.791 2.916 7.317 5.709 5.917-.894-1.027-.899-2.974-2.164-3.773-2.428-1.533-2.698-6.505-2.623-9.916.092-4.179-1.45-11.345-6.882-10.613z" fill="#F48EAA"/>
    </g>
    <path clip-rule="evenodd" d="M32.587 120.624c-1.238 4.153-10.62 5.15-13.103-2.153-.889-2.613-1.334-5.271-2.929-7.574-1.09-1.576-2.66-2.954-4.547-3.457-.457-.122-1.573-.396-1.957.079-.438.545.643 1.229.997 1.531 2.494 2.12 2.768 5.154 3.283 13.012.355 5.427 2.671 6.36 6.435 7.434 9.194 2.624 14.236-7.232 11.821-8.872z" stroke="#000" stroke-width=".271" stroke-linecap="round" stroke-linejoin="round"/>
    <path fill-rule="evenodd" clip-rule="evenodd" d="M45.06 90.08c6.01-.234 9.65 1.49 8.088 4.034-.185.3-.398.553-.613.761-1.287 1.239-2.671 1.39-4.068 1.594-.968-1.813-2.551-4.382-3.407-6.39z" fill="#9FA0A0"/>
    <path clip-rule="evenodd" d="M45.06 90.08c6.01-.234 9.65 1.49 8.088 4.034-.185.3-.398.553-.613.761-1.287 1.239-2.671 1.39-4.068 1.594-.968-1.813-2.551-4.382-3.407-6.39z" stroke="#000" stroke-width=".271" stroke-linecap="round" stroke-linejoin="round"/>
    <path fill-rule="evenodd" clip-rule="evenodd" d="M46.872 118.914c1.216-.18 5.016-1.26 5.942-.454 2.667 2.325.475 7.154-.72 9.573 1.78 3.58 7.147 4.071 6.986 8.879-.154 4.603-5.487 5.969-9.154 4.321-2.347-1.054-3.202-3.328-3.946-5.611-1.351-.525-2.866-.683-4.291-.86-1.729 12.522-18.684 9.332-15.37.033-1.276.043-2.47-.423-5.79-1.411a10.676 10.676 0 0 0-4.181-.369c.733 1.762-.16 4.237-2.63 4.567-3.29.44-6.01-3.461-3.686-6.656 2.448-3.367 6.072-4.002 7.93-3.981 3.661.042 7.76 1.369 11.24-.433 1.553-.803 2.817-2.13 2.927-3.873.344-5.415-10.616-6.201-13.25-18.114-2.606-11.784 5.047-19.783 13.262-20.95 8.59-1.22 19.28 2.86 19.868 16.91.457 10.963-4.87 12.669-5.137 18.429z" fill="#EF383D"/>
    <mask id="h" style="mask-type:alpha" maskUnits="userSpaceOnUse" x="9" y="83" width="51" height="61">
        <path fill-rule="evenodd" clip-rule="evenodd" d="M32.141 83.575c-8.216 1.166-15.868 9.166-13.262 20.95 2.633 11.913 13.594 12.699 13.25 18.113-.11 1.744-1.374 3.071-2.926 3.874-3.482 1.802-7.58.474-11.241.433-1.858-.021-5.482.614-7.93 3.981-2.323 3.195.396 7.097 3.686 6.657 2.47-.331 3.363-2.805 2.63-4.568a10.657 10.657 0 0 1 4.182.369c3.32.988 4.512 1.454 5.788 1.411-3.314 9.299 13.642 12.49 15.37-.034 1.426.178 2.94.336 4.292.863.744 2.281 1.599 4.556 3.945 5.609 3.668 1.648 9 .282 9.155-4.321.161-4.808-5.207-5.3-6.986-8.879 1.195-2.419 3.387-7.248.72-9.572-.926-.806-4.726.272-5.942.453.267-5.76 5.595-7.466 5.136-18.429-.523-12.507-9.052-17.114-16.98-17.114-.976 0-1.944.07-2.887.204z" fill="#fff"/>
    </mask>
    <g mask="url(#h)">
        <path fill-rule="evenodd" clip-rule="evenodd" d="M25.172 95.858c7.104 3.219 14.105-2.905 18.62-2.793 4.304 3.78 4.247 7.764 3.511 12.606.452 1.14 1.056 1.486 1.258 1.768-.179.483-1.502.687-1.73 1.182-1.352 2.914-2.43 6.715-2.43 9.331 0 2.085-.071 3.853-.568 5.873-.512 2.085-3.69 9.731-2.157 11.769.645.859 4.615 1.704 4.261.017-.75-3.567 2.766-5.835 2.748-4.207-.081 7.885 4.752 12.818 9.604 8.906 1.282-1.032 2.042-1.696 2.294-3.362.698-4.618-4.816-4.501-5.2-9.076-.21-2.497.592-4.877.516-7.347-.072-2.309-1.16-4.387-.993-6.737.355-5.057 2.124-10.343.697-15.39-.828-2.934-2.789-5.073-4.256-7.642l.016.004c-6.654-6.567-19.88.5-26.191 5.098z" fill="#BC2025"/>
    </g>
    <mask id="i" style="mask-type:alpha" maskUnits="userSpaceOnUse" x="9" y="83" width="51" height="61">
        <path fill-rule="evenodd" clip-rule="evenodd" d="M32.141 83.575c-8.216 1.166-15.868 9.166-13.262 20.95 2.633 11.913 13.594 12.699 13.25 18.113-.11 1.744-1.374 3.071-2.926 3.874-3.482 1.802-7.58.474-11.241.433-1.858-.021-5.482.614-7.93 3.981-2.323 3.195.396 7.097 3.686 6.657 2.47-.331 3.363-2.805 2.63-4.568a10.657 10.657 0 0 1 4.182.369c3.32.988 4.512 1.454 5.788 1.411-3.314 9.299 13.642 12.49 15.37-.034 1.426.178 2.94.336 4.292.863.744 2.281 1.599 4.556 3.945 5.609 3.668 1.648 9 .282 9.155-4.321.161-4.808-5.207-5.3-6.986-8.879 1.195-2.419 3.387-7.248.72-9.572-.926-.806-4.726.272-5.942.453.267-5.76 5.595-7.466 5.136-18.429-.523-12.507-9.052-17.114-16.98-17.114-.976 0-1.944.07-2.887.204z" fill="#fff"/>
    </mask>
    <g mask="url(#i)">
        <path fill-rule="evenodd" clip-rule="evenodd" d="M14.997 131.702c.92 1.626.043 3.97-1.726 4.425-3.042.783-4.498-2.32-4.532-1.966-.174 1.73.955 3.2 2.462 3.923 2.526 1.213 5.896.242 7.065-2.391 1.062-2.392-.762-4.117-3.27-3.991z" fill="#BC2025"/>
    </g>
    <mask id="j" style="mask-type:alpha" maskUnits="userSpaceOnUse" x="9" y="83" width="51" height="61">
        <path fill-rule="evenodd" clip-rule="evenodd" d="M32.141 83.575c-8.216 1.166-15.868 9.166-13.262 20.95 2.633 11.913 13.594 12.699 13.25 18.113-.11 1.744-1.374 3.071-2.926 3.874-3.482 1.802-7.58.474-11.241.433-1.858-.021-5.482.614-7.93 3.981-2.323 3.195.396 7.097 3.686 6.657 2.47-.331 3.363-2.805 2.63-4.568a10.657 10.657 0 0 1 4.182.369c3.32.988 4.512 1.454 5.788 1.411-3.314 9.299 13.642 12.49 15.37-.034 1.426.178 2.94.336 4.292.863.744 2.281 1.599 4.556 3.945 5.609 3.668 1.648 9 .282 9.155-4.321.161-4.808-5.207-5.3-6.986-8.879 1.195-2.419 3.387-7.248.72-9.572-.926-.806-4.726.272-5.942.453.267-5.76 5.595-7.466 5.136-18.429-.523-12.507-9.052-17.114-16.98-17.114-.976 0-1.944.07-2.887.204z" fill="#fff"/>
    </mask>
    <g mask="url(#j)">
        <path fill-rule="evenodd" clip-rule="evenodd" d="M13.84 132.102c3.446-1.684 6.36-1.137 9.996-.722 1.325.151 2.673.326 3.994.041 1.608-.349 2.731-1.716 3.98-2.683-2.235 2.066-4.679 3.996-5.912 6.868-1.809-.815-7.066-1.346-9.214-1.271.142-1.027-1.526-2.752-2.844-2.233z" fill="#BC2025"/>
    </g>
    <mask id="k" style="mask-type:alpha" maskUnits="userSpaceOnUse" x="9" y="83" width="51" height="61">
        <path fill-rule="evenodd" clip-rule="evenodd" d="M32.141 83.575c-8.216 1.166-15.868 9.166-13.262 20.95 2.633 11.913 13.594 12.699 13.25 18.113-.11 1.744-1.374 3.071-2.926 3.874-3.482 1.802-7.58.474-11.241.433-1.858-.021-5.482.614-7.93 3.981-2.323 3.195.396 7.097 3.686 6.657 2.47-.331 3.363-2.805 2.63-4.568a10.657 10.657 0 0 1 4.182.369c3.32.988 4.512 1.454 5.788 1.411-3.314 9.299 13.642 12.49 15.37-.034 1.426.178 2.94.336 4.292.863.744 2.281 1.599 4.556 3.945 5.609 3.668 1.648 9 .282 9.155-4.321.161-4.808-5.207-5.3-6.986-8.879 1.195-2.419 3.387-7.248.72-9.572-.926-.806-4.726.272-5.942.453.267-5.76 5.595-7.466 5.136-18.429-.523-12.507-9.052-17.114-16.98-17.114-.976 0-1.944.07-2.887.204z" fill="#fff"/>
    </mask>
    <g mask="url(#k)">
        <path fill-rule="evenodd" clip-rule="evenodd" d="M31.45 121.196c-.523-2.138-4.304-3.463-5.975-6.048 3.102 1.26 4.73 2.122 6.325 4.001 2.543 2.996.937 6.58-2.294 8.264-2.645 1.377-5.87 1.288-8.716.71-2.104-.425-4.481-.398-6.536.335-3.074 1.098-5.132 3.907-4.665 7.369-.601-1.128-1.007-2.588-.89-3.866.225-2.458 2.493-4.559 4.796-5.133 2.827-.705 5.715-.133 8.542.209 1.09.132 2.186.157 3.282.188.675.018 7.527.144 6.13-6.029z" fill="#F48EAA"/>
    </g>
    <mask id="l" style="mask-type:alpha" maskUnits="userSpaceOnUse" x="9" y="83" width="51" height="61">
        <path fill-rule="evenodd" clip-rule="evenodd" d="M32.141 83.575c-8.216 1.166-15.868 9.166-13.262 20.95 2.633 11.913 13.594 12.699 13.25 18.113-.11 1.744-1.374 3.071-2.926 3.874-3.482 1.802-7.58.474-11.241.433-1.858-.021-5.482.614-7.93 3.981-2.323 3.195.396 7.097 3.686 6.657 2.47-.331 3.363-2.805 2.63-4.568a10.657 10.657 0 0 1 4.182.369c3.32.988 4.512 1.454 5.788 1.411-3.314 9.299 13.642 12.49 15.37-.034 1.426.178 2.94.336 4.292.863.744 2.281 1.599 4.556 3.945 5.609 3.668 1.648 9 .282 9.155-4.321.161-4.808-5.207-5.3-6.986-8.879 1.195-2.419 3.387-7.248.72-9.572-.926-.806-4.726.272-5.942.453.267-5.76 5.595-7.466 5.136-18.429-.523-12.507-9.052-17.114-16.98-17.114-.976 0-1.944.07-2.887.204z" fill="#fff"/>
    </mask>
    <g mask="url(#l)">
        <path fill-rule="evenodd" clip-rule="evenodd" d="M35.37 122.176c.395 1.533.07 3.472-.877 5.016-1.01 1.645-3.126 3.423-4.534 4.688-2.489 2.236-4.549 6.033-2.384 9.227-6.327-6.734 4-10.592 6.834-15.228.546-.893.868-2.68.962-3.703z" fill="#F48EAA"/>
    </g>
    <mask id="m" style="mask-type:alpha" maskUnits="userSpaceOnUse" x="9" y="83" width="51" height="61">
        <path fill-rule="evenodd" clip-rule="evenodd" d="M32.141 83.575c-8.216 1.166-15.868 9.166-13.262 20.95 2.633 11.913 13.594 12.699 13.25 18.113-.11 1.744-1.374 3.071-2.926 3.874-3.482 1.802-7.58.474-11.241.433-1.858-.021-5.482.614-7.93 3.981-2.323 3.195.396 7.097 3.686 6.657 2.47-.331 3.363-2.805 2.63-4.568a10.657 10.657 0 0 1 4.182.369c3.32.988 4.512 1.454 5.788 1.411-3.314 9.299 13.642 12.49 15.37-.034 1.426.178 2.94.336 4.292.863.744 2.281 1.599 4.556 3.945 5.609 3.668 1.648 9 .282 9.155-4.321.161-4.808-5.207-5.3-6.986-8.879 1.195-2.419 3.387-7.248.72-9.572-.926-.806-4.726.272-5.942.453.267-5.76 5.595-7.466 5.136-18.429-.523-12.507-9.052-17.114-16.98-17.114-.976 0-1.944.07-2.887.204z" fill="#fff"/>
    </mask>
    <g mask="url(#m)">
        <path fill-rule="evenodd" clip-rule="evenodd" d="M32.275 135.776c3.187 1.049 4.61-1.064 5.476-3.861.54-1.742.642-3.564 1.131-5.315.688-2.462 2.64-6.111 5.52-6.513-1.831-.416-3.6.96-4.578 2.378-1.04 1.508-1.734 3.178-2.174 4.952-.46 1.853-.683 3.762-1.43 5.538-.805 1.913-1.917 2.759-3.945 2.821z" fill="#F48EAA"/>
    </g>
    <mask id="n" style="mask-type:alpha" maskUnits="userSpaceOnUse" x="9" y="83" width="51" height="61">
        <path fill-rule="evenodd" clip-rule="evenodd" d="M32.141 83.575c-8.216 1.166-15.868 9.166-13.262 20.95 2.633 11.913 13.594 12.699 13.25 18.113-.11 1.744-1.374 3.071-2.926 3.874-3.482 1.802-7.58.474-11.241.433-1.858-.021-5.482.614-7.93 3.981-2.323 3.195.396 7.097 3.686 6.657 2.47-.331 3.363-2.805 2.63-4.568a10.657 10.657 0 0 1 4.182.369c3.32.988 4.512 1.454 5.788 1.411-3.314 9.299 13.642 12.49 15.37-.034 1.426.178 2.94.336 4.292.863.744 2.281 1.599 4.556 3.945 5.609 3.668 1.648 9 .282 9.155-4.321.161-4.808-5.207-5.3-6.986-8.879 1.195-2.419 3.387-7.248.72-9.572-.926-.806-4.726.272-5.942.453.267-5.76 5.595-7.466 5.136-18.429-.523-12.507-9.052-17.114-16.98-17.114-.976 0-1.944.07-2.887.204z" fill="#fff"/>
    </mask>
    <g mask="url(#n)">
        <path fill-rule="evenodd" clip-rule="evenodd" d="M45.909 133.715c.341 3.912 1.166 9.288 8.69 8.406-1.486.104-4.062-1.085-5.15-1.885-2.48-1.826-3.063-4.275-3.54-6.521z" fill="#F48EAA"/>
    </g>
    <mask id="o" style="mask-type:alpha" maskUnits="userSpaceOnUse" x="9" y="83" width="51" height="61">
        <path fill-rule="evenodd" clip-rule="evenodd" d="M32.141 83.575c-8.216 1.166-15.868 9.166-13.262 20.95 2.633 11.913 13.594 12.699 13.25 18.113-.11 1.744-1.374 3.071-2.926 3.874-3.482 1.802-7.58.474-11.241.433-1.858-.021-5.482.614-7.93 3.981-2.323 3.195.396 7.097 3.686 6.657 2.47-.331 3.363-2.805 2.63-4.568a10.657 10.657 0 0 1 4.182.369c3.32.988 4.512 1.454 5.788 1.411-3.314 9.299 13.642 12.49 15.37-.034 1.426.178 2.94.336 4.292.863.744 2.281 1.599 4.556 3.945 5.609 3.668 1.648 9 .282 9.155-4.321.161-4.808-5.207-5.3-6.986-8.879 1.195-2.419 3.387-7.248.72-9.572-.926-.806-4.726.272-5.942.453.267-5.76 5.595-7.466 5.136-18.429-.523-12.507-9.052-17.114-16.98-17.114-.976 0-1.944.07-2.887.204z" fill="#fff"/>
    </mask>
    <g mask="url(#o)">
        <path fill-rule="evenodd" clip-rule="evenodd" d="M26.767 140.256c1.133.833 2.37 1.189 3.763 1.256 4.349.209 7.65-3.163 8.714-7.175.794-2.994.065-6.769 1.25-9.697.535-1.32 2.776-3.922 4.565-3.999-1.169 2.188-2.784 3.436-3.173 5.944-.3 1.919-.177 4.48 0 6.376.292 3.157-1.263 5.97-3.21 8.388-1.025 1.272-2.372 2.317-3.972 2.725-2.933.748-6.783-.812-7.937-3.818z" fill="#BC2025"/>
    </g>
    <mask id="p" style="mask-type:alpha" maskUnits="userSpaceOnUse" x="9" y="83" width="51" height="61">
        <path fill-rule="evenodd" clip-rule="evenodd" d="M32.141 83.575c-8.216 1.166-15.868 9.166-13.262 20.95 2.633 11.913 13.594 12.699 13.25 18.113-.11 1.744-1.374 3.071-2.926 3.874-3.482 1.802-7.58.474-11.241.433-1.858-.021-5.482.614-7.93 3.981-2.323 3.195.396 7.097 3.686 6.657 2.47-.331 3.363-2.805 2.63-4.568a10.657 10.657 0 0 1 4.182.369c3.32.988 4.512 1.454 5.788 1.411-3.314 9.299 13.642 12.49 15.37-.034 1.426.178 2.94.336 4.292.863.744 2.281 1.599 4.556 3.945 5.609 3.668 1.648 9 .282 9.155-4.321.161-4.808-5.207-5.3-6.986-8.879 1.195-2.419 3.387-7.248.72-9.572-.926-.806-4.726.272-5.942.453.267-5.76 5.595-7.466 5.136-18.429-.523-12.507-9.052-17.114-16.98-17.114-.976 0-1.944.07-2.887.204z" fill="#fff"/>
    </mask>
    <g mask="url(#p)">
        <path fill-rule="evenodd" clip-rule="evenodd" d="M32.186 135.901c-1.417.197-2.057-.768-.662-2.157.624-.62 1.506-1.049 2.255-1.496 1.456-.868 3.07-2.113 3.74-3.732-.546 2.737-1.278 7.402-5.333 7.385z" fill="#BC2025"/>
    </g>
    <path clip-rule="evenodd" d="M46.872 118.914c1.216-.18 5.016-1.26 5.942-.454 2.667 2.325.475 7.154-.72 9.573 1.78 3.58 7.147 4.071 6.986 8.879-.154 4.603-5.487 5.969-9.154 4.321-2.347-1.054-3.202-3.328-3.946-5.611-1.351-.525-2.866-.683-4.291-.86-1.729 12.522-18.684 9.332-15.37.033-1.276.043-2.47-.423-5.79-1.411a10.676 10.676 0 0 0-4.181-.369c.733 1.762-.16 4.237-2.63 4.567-3.29.44-6.01-3.461-3.686-6.656 2.448-3.367 6.072-4.002 7.93-3.981 3.661.042 7.76 1.369 11.24-.433 1.553-.803 2.817-2.13 2.927-3.873.344-5.415-10.616-6.201-13.25-18.114-2.606-11.784 5.047-19.783 13.262-20.95 8.59-1.22 19.28 2.86 19.868 16.91.457 10.963-4.87 12.669-5.137 18.429z" stroke="#000" stroke-width=".271" stroke-linecap="round" stroke-linejoin="round"/>
    <path fill-rule="evenodd" clip-rule="evenodd" d="M51.929 127.965c-.633 1.518-1.046 3.247-.583 4.66a3.296 3.296 0 0 0 1.703 1.975c.169.078.35.136.544.193a.082.082 0 0 0 .11-.044.083.083 0 0 0-.045-.109c-.168-.095-.316-.199-.462-.298-.102-.07-.201-.137-.296-.206-.624-.455-1.017-.999-1.217-1.62-.432-1.342-.026-2.976.575-4.414a.177.177 0 0 0-.096-.232.177.177 0 0 0-.233.095zM58.659 122.735c.158-.672.573-1.48 1.169-1.922.379-.281.835-.411 1.353-.227.395.128.691.457.8.819a.928.928 0 0 1-.373 1.071.06.06 0 0 0 .064.102c.51-.284.656-.774.561-1.237a1.547 1.547 0 0 0-.93-1.088c-.646-.242-1.226-.098-1.702.253-.667.49-1.125 1.397-1.294 2.149a.182.182 0 0 0 .135.216.182.182 0 0 0 .217-.136zM16.576 133.122c-.433-.676-1.114-1.175-1.852-1.365-.76-.195-1.576-.067-2.242.507-.415.379-.7.925-.671 1.446.026.471.296.927.954 1.198a.06.06 0 0 0 .08-.029.06.06 0 0 0-.028-.081c-.544-.285-.754-.685-.744-1.092.005-.179.054-.356.133-.525.112-.245.292-.47.509-.644.279-.234.587-.375.904-.441.334-.07.678-.056 1.01.031a2.831 2.831 0 0 1 1.644 1.192.18.18 0 0 0 .25.052.18.18 0 0 0 .053-.249zM26.482 134.872c.381-.796.944-1.619 1.597-2.39a15.296 15.296 0 0 1 2.069-2.018c1.22-.98 3.22-2.369 4.385-4.461.396-.715.708-1.508.836-2.397.039-.274.057-.557.058-.847a6.99 6.99 0 0 0-.05-.843.104.104 0 0 0-.108-.096.105.105 0 0 0-.096.11 8.06 8.06 0 0 1-.136 1.621 7.237 7.237 0 0 1-.815 2.278c-1.148 2.041-3.108 3.394-4.303 4.35a15.681 15.681 0 0 0-2.119 2.068c-.674.796-1.253 1.646-1.646 2.469a.181.181 0 0 0 .086.242.18.18 0 0 0 .242-.086zM33.242 96.186c.453.157.869.375 1.25.626.264.175.511.365.742.564a8.94 8.94 0 0 1 .675.643c.346.368.64.746.87 1.103.01.018.034.024.052.012a.037.037 0 0 0 .013-.051 7.446 7.446 0 0 0-.817-1.169 6.19 6.19 0 0 0-.674-.677 5.895 5.895 0 0 0-.776-.558c-.4-.24-.84-.436-1.31-.572a.042.042 0 0 0-.052.027.04.04 0 0 0 .027.052zM30.85 96.582a4.067 4.067 0 0 0-.786.412c-.164.11-.32.235-.463.373a3.166 3.166 0 0 0-.387.453 3.4 3.4 0 0 0-.412.788c-.008.018 0 .04.02.049.02.008.042-.001.05-.02.123-.26.283-.499.466-.721a4.365 4.365 0 0 1 .39-.418 4.823 4.823 0 0 1 1.156-.84c.02-.01.03-.034.02-.056a.041.041 0 0 0-.054-.02z" fill="#000"/>
    <path fill-rule="evenodd" clip-rule="evenodd" d="M31.716 96.934c-1.59.296-3.212 1.691-4.116 2.167-.682.36.572 1.366.627 2.723.067 1.656 5.622-5.286 3.489-4.89zM27.057 97.929a6.226 6.226 0 0 1 .824-1.96 4.567 4.567 0 0 1 1.4-1.434c.387-.274.82-.447 1.262-.579a5.763 5.763 0 0 1 1.419-.246c1.058-.042 2.107.172 2.908.643a.268.268 0 0 0 .31-.436c-.815-.698-1.964-1.188-3.183-1.314a5.211 5.211 0 0 0-1.793.12c-.592.148-1.149.429-1.653.802a5.387 5.387 0 0 0-1.53 1.985 6.523 6.523 0 0 0-.543 2.343.292.292 0 0 0 .579.076z" fill="#000"/>
    <path fill-rule="evenodd" clip-rule="evenodd" d="M31.339 96.946c-2.512.783-3.844 3.687-2.971 6.481.872 2.794 3.62 4.427 6.132 3.644 2.512-.783 3.844-3.687 2.97-6.482-.87-2.793-3.619-4.426-6.131-3.643z" fill="#fff"/>
    <mask id="q" style="mask-type:alpha" maskUnits="userSpaceOnUse" x="28" y="96" width="10" height="12">
        <path fill-rule="evenodd" clip-rule="evenodd" d="M31.339 96.946c-2.512.783-3.844 3.687-2.971 6.481.872 2.794 3.62 4.427 6.132 3.644 2.512-.783 3.844-3.688 2.97-6.482-.723-2.32-2.742-3.839-4.843-3.839-.43 0-.862.063-1.288.196z" fill="#fff"/>
    </mask>
    <g mask="url(#q)">
        <path fill-rule="evenodd" clip-rule="evenodd" d="M31.749 98.62c-1.886.568-2.893 2.768-2.247 4.907.647 2.14 2.703 3.416 4.588 2.847 1.886-.568 2.892-2.768 2.246-4.907-.645-2.14-2.701-3.416-4.587-2.847z" fill="#000"/>
    </g>
    <mask id="r" style="mask-type:alpha" maskUnits="userSpaceOnUse" x="28" y="96" width="10" height="12">
        <path fill-rule="evenodd" clip-rule="evenodd" d="M31.339 96.946c-2.512.783-3.844 3.687-2.971 6.481.872 2.794 3.62 4.427 6.132 3.644 2.512-.783 3.844-3.688 2.97-6.482-.723-2.32-2.742-3.839-4.843-3.839-.43 0-.862.063-1.288.196z" fill="#fff"/>
    </mask>
    <g mask="url(#r)">
        <path fill-rule="evenodd" clip-rule="evenodd" d="M35.061 101.936a3.157 3.157 0 0 1-.016 1.423c-.175.68-.671 1.061-1.235 1.189a1.92 1.92 0 0 1-1.487-.258c-.424-.277-.796-.71-.997-1.346a.474.474 0 0 0-.918.235c.28 1.396 1.168 2.232 2.136 2.557a2.87 2.87 0 0 0 1.561.071c.351-.083.685-.233.972-.452.866-.659 1.42-1.901.846-3.65a.447.447 0 0 0-.862.231z" fill="#8C181B"/>
    </g>
    <mask id="s" style="mask-type:alpha" maskUnits="userSpaceOnUse" x="28" y="96" width="10" height="12">
        <path fill-rule="evenodd" clip-rule="evenodd" d="M31.339 96.946c-2.512.783-3.844 3.687-2.971 6.481.872 2.794 3.62 4.427 6.132 3.644 2.512-.783 3.844-3.688 2.97-6.482-.723-2.32-2.742-3.839-4.843-3.839-.43 0-.862.063-1.288.196z" fill="#fff"/>
    </mask>
    <g mask="url(#s)">
        <path fill-rule="evenodd" clip-rule="evenodd" d="M32.256 100.034c-.362-.28-.897-.2-1.195.182-.298.38-.247.916.115 1.196.362.28.898.199 1.195-.182.298-.38.246-.916-.115-1.196z" fill="#fff"/>
    </g>
    <mask id="t" style="mask-type:alpha" maskUnits="userSpaceOnUse" x="28" y="96" width="10" height="12">
        <path fill-rule="evenodd" clip-rule="evenodd" d="M31.339 96.946c-2.512.783-3.844 3.687-2.971 6.481.872 2.794 3.62 4.427 6.132 3.644 2.512-.783 3.844-3.688 2.97-6.482-.723-2.32-2.742-3.839-4.843-3.839-.43 0-.862.063-1.288.196z" fill="#fff"/>
    </mask>
    <g mask="url(#t)">
        <path fill-rule="evenodd" clip-rule="evenodd" d="M35.183 104.188c-.248 0-.45.21-.45.47s.2.47.449.469c.248 0 .45-.211.45-.471a.458.458 0 0 0-.449-.468z" fill="#fff"/>
    </g>
    <path fill-rule="evenodd" clip-rule="evenodd" d="M31.304 96.835a4.453 4.453 0 0 0-2.064 1.274 4.869 4.869 0 0 0-.877 1.377c-.508 1.184-.599 2.604-.162 3.995.437 1.388 1.324 2.497 2.415 3.18 1.175.737 2.586.982 3.93.559 1.342-.421 2.356-1.427 2.896-2.701.5-1.179.592-2.587.157-3.968-.435-1.378-1.316-2.478-2.4-3.157-1.164-.729-2.562-.972-3.894-.552l-.001-.007zm.068.218c1.268-.39 2.595-.151 3.697.548 1.032.655 1.867 1.71 2.274 3.03.407 1.316.314 2.656-.167 3.775-.512 1.19-1.464 2.13-2.722 2.518-1.255.387-2.57.15-3.662-.542-1.024-.649-1.852-1.696-2.258-3.005a5.454 5.454 0 0 1 .162-3.75 4.89 4.89 0 0 1 .804-1.288 4.296 4.296 0 0 1 1.873-1.28l-.001-.006zM50.191 95.752a4.94 4.94 0 0 0-.586-.76c-.148-.157-.309-.302-.48-.43a3.348 3.348 0 0 0-.558-.329 3.016 3.016 0 0 0-.93-.256.038.038 0 0 0-.043.032.037.037 0 0 0 .031.043c.31.06.6.174.871.322.109.059.214.124.317.193a4.876 4.876 0 0 1 .68.537c.231.215.445.448.63.695a.041.041 0 0 0 .068-.047zM45.364 94.918c-.183.215-.34.455-.472.712a4.236 4.236 0 0 0-.373 1.071c-.06.283-.1.566-.129.839-.004.02.01.04.031.043.02.003.04-.01.044-.032a11.01 11.01 0 0 1 .255-.97c.032-.105.068-.21.104-.316a9.58 9.58 0 0 1 .11-.312 5.49 5.49 0 0 1 .17-.407c.093-.203.199-.398.325-.578a.042.042 0 0 0-.007-.057.042.042 0 0 0-.058.007z" fill="#000"/>
    <path fill-rule="evenodd" clip-rule="evenodd" d="M46.794 94.556a13.14 13.14 0 0 1 3.137.148c.915.149.348 1.05.928 2.809.52 1.574-6.227-2.783-4.065-2.957zM43.863 91.856a3.798 3.798 0 0 1 1.208-.492c.38-.091.782-.11 1.195-.034.279.03.538.125.792.228.271.113.535.233.776.396.551.375 1.015.836 1.243 1.355a.267.267 0 0 0 .515-.147c-.056-.433-.22-.872-.466-1.303a3.85 3.85 0 0 0-.572-.747 3.447 3.447 0 0 0-.971-.72 3.26 3.26 0 0 0-1.21-.302c-.587.004-1.145.115-1.635.361-.503.252-.928.59-1.258.965a.291.291 0 1 0 .383.44z" fill="#000"/>
    <path fill-rule="evenodd" clip-rule="evenodd" d="M46.933 94.613c-1.863.351-2.968 2.787-2.467 5.436.5 2.648 2.42 4.514 4.282 4.162 1.862-.351 2.967-2.786 2.466-5.436-.5-2.649-2.42-4.514-4.281-4.162z" fill="#fff"/>
    <mask id="u" style="mask-type:alpha" maskUnits="userSpaceOnUse" x="44" y="94" width="8" height="11">
        <path fill-rule="evenodd" clip-rule="evenodd" d="M46.933 94.61c-1.862.351-2.966 2.787-2.466 5.436.5 2.648 2.42 4.513 4.281 4.163 1.862-.352 2.967-2.788 2.467-5.437-.46-2.432-2.117-4.206-3.826-4.206-.152 0-.305.015-.456.043z" fill="#fff"/>
    </mask>
    <g mask="url(#u)">
        <path fill-rule="evenodd" clip-rule="evenodd" d="M46.57 96.213c-1.668.173-2.664 2.015-2.224 4.108.44 2.093 2.15 3.65 3.818 3.475 1.668-.175 2.664-2.015 2.225-4.108-.44-2.093-2.152-3.65-3.819-3.475z" fill="#000"/>
    </g>
    <mask id="v" style="mask-type:alpha" maskUnits="userSpaceOnUse" x="44" y="94" width="8" height="11">
        <path fill-rule="evenodd" clip-rule="evenodd" d="M46.933 94.61c-1.862.351-2.966 2.787-2.466 5.436.5 2.648 2.42 4.513 4.281 4.163 1.862-.352 2.967-2.788 2.467-5.437-.46-2.432-2.117-4.206-3.826-4.206-.152 0-.305.015-.456.043z" fill="#fff"/>
    </mask>
    <g mask="url(#v)">
        <path fill-rule="evenodd" clip-rule="evenodd" d="M49.2 100.078c.08.583-.025 1.047-.22 1.395-.2.358-.541.534-.902.539-.355.005-.727-.155-1.04-.516-.278-.321-.528-.755-.682-1.346a.473.473 0 1 0-.93.174c.159 1.267.697 2.089 1.31 2.541.427.315.91.449 1.367.439.339-.008.67-.094.96-.263.832-.48 1.45-1.585 1.01-3.148a.447.447 0 0 0-.872.185z" fill="#8C181B"/>
    </g>
    <mask id="w" style="mask-type:alpha" maskUnits="userSpaceOnUse" x="44" y="94" width="8" height="11">
        <path fill-rule="evenodd" clip-rule="evenodd" d="M46.933 94.61c-1.862.351-2.966 2.787-2.466 5.436.5 2.648 2.42 4.513 4.281 4.163 1.862-.352 2.967-2.788 2.467-5.437-.46-2.432-2.117-4.206-3.826-4.206-.152 0-.305.015-.456.043z" fill="#fff"/>
    </mask>
    <g mask="url(#w)">
        <path fill-rule="evenodd" clip-rule="evenodd" d="M45.516 97.837c-.329.302-.363.779-.075 1.064.287.286.787.273 1.115-.03.33-.301.362-.778.075-1.064-.287-.286-.786-.271-1.115.03z" fill="#fff"/>
    </g>
    <mask id="x" style="mask-type:alpha" maskUnits="userSpaceOnUse" x="44" y="94" width="8" height="11">
        <path fill-rule="evenodd" clip-rule="evenodd" d="M46.933 94.61c-1.862.351-2.966 2.787-2.466 5.436.5 2.648 2.42 4.513 4.281 4.163 1.862-.352 2.967-2.788 2.467-5.437-.46-2.432-2.117-4.206-3.826-4.206-.152 0-.305.015-.456.043z" fill="#fff"/>
    </mask>
    <g mask="url(#x)">
        <path fill-rule="evenodd" clip-rule="evenodd" d="M49.003 102.015a.49.49 0 0 0 .062.69c.207.162.514.116.686-.102.171-.218.143-.527-.062-.689-.207-.163-.514-.117-.686.101z" fill="#fff"/>
    </g>
    <path fill-rule="evenodd" clip-rule="evenodd" d="M46.917 94.524c-.872.16-1.588.761-2.06 1.628-.564 1.032-.782 2.44-.51 3.917.272 1.482.981 2.724 1.877 3.491.764.654 1.664.963 2.552.801.891-.165 1.623-.779 2.105-1.665.566-1.042.784-2.466.506-3.956a6.749 6.749 0 0 0-.66-1.907 5.197 5.197 0 0 0-1.266-1.58c-.771-.631-1.67-.918-2.545-.733v.004zm.032.175c.816-.135 1.627.174 2.319.78.445.392.84.907 1.153 1.514.279.539.497 1.15.62 1.812.27 1.404.076 2.748-.452 3.734-.426.799-1.072 1.363-1.87 1.517-.985.191-1.985-.278-2.767-1.157-.644-.723-1.141-1.723-1.365-2.876-.276-1.418-.083-2.776.448-3.774.435-.819 1.097-1.394 1.914-1.553v.003zM44.382 118.796c-4.161 1.224-7.624-2.488-8.26-9.686.291-.074.375-.083.67-.148 2.992 1.505 7.1 1.315 10.504-.607-1.123 1.678-3.009 4.5-2.914 10.441z" fill="#000"/>
    <mask id="y" style="mask-type:alpha" maskUnits="userSpaceOnUse" x="36" y="108" width="12" height="12">
        <path fill-rule="evenodd" clip-rule="evenodd" d="M36.791 108.961c-.293.066-.377.074-.67.148.638 7.198 4.1 10.911 8.26 9.687-.094-5.942 1.792-8.763 2.914-10.441-3.404 1.922-7.51 2.112-10.504.606z" fill="#fff"/>
    </mask>
    <g mask="url(#y)">
        <path fill-rule="evenodd" clip-rule="evenodd" d="M41.21 114.329c-2.417-2.082-5.203-2.816-6.22-1.638-1.016 1.178.12 3.824 2.536 5.905 2.416 2.082 5.203 2.816 6.22 1.638 1.016-1.177-.12-3.823-2.537-5.905z" fill="#F48EAA"/>
    </g>
    <mask id="z" style="mask-type:alpha" maskUnits="userSpaceOnUse" x="36" y="108" width="12" height="12">
        <path fill-rule="evenodd" clip-rule="evenodd" d="M36.791 108.961c-.293.066-.377.074-.67.148.638 7.198 4.1 10.911 8.26 9.687-.094-5.942 1.792-8.763 2.914-10.441-3.404 1.922-7.51 2.112-10.504.606z" fill="#fff"/>
    </mask>
    <g mask="url(#z)">
        <path fill-rule="evenodd" clip-rule="evenodd" d="M45.44 107.117c-.227 1.144-.655 1.753-1.2 2.099-.243.154-.522.204-.809.257-.508.096-1.059.086-1.616.08-.504.029-1.046-.001-1.599-.026-.82-.037-1.655-.084-2.436-.232-.994-.191-1.883-.429-2.456-.897a.459.459 0 0 0-.667.627c.649.891 1.902 1.643 3.368 2.157.738.259 1.525.441 2.3.53.548.063 1.09.051 1.595.028 1.283-.159 2.552-.344 3.403-1.169.68-.661 1.187-1.665 1.112-3.378a.5.5 0 0 0-.996-.076z" fill="#fff"/>
    </g>
    <path fill-rule="evenodd" clip-rule="evenodd" d="M48.465 107.42a3.264 3.264 0 0 1-1.282-1.776.104.104 0 0 1 .07-.131.105.105 0 0 1 .133.069c.12.376.296.703.525.988.23.286.512.528.844.736a.131.131 0 0 1 .06.102.127.127 0 0 1-.05.108 12.162 12.162 0 0 1-5.824 2.518c-2.265.326-4.477-.023-6.21-.896-.1.038-.198.073-.294.102l-.093.025c.24 1.774.441 3.142.871 4.415.313.925.744 1.8 1.402 2.747.785 1.133 1.804 1.868 2.87 2.23.478.162.964.251 1.447.267.75.024 1.49-.124 2.158-.459a.085.085 0 0 1 .113.034.083.083 0 0 1-.034.113 4.63 4.63 0 0 1-2.634.593 4.835 4.835 0 0 1-1.155-.228c-1.137-.366-2.22-1.149-3.059-2.345-.682-.977-1.131-1.88-1.456-2.834-.453-1.334-.66-2.77-.915-4.657a.187.187 0 0 1 .16-.21c.07-.009.144-.026.219-.048.112-.033.227-.076.344-.122a.187.187 0 0 1 .154.009c1.679.875 3.842 1.217 6.063.919a11.985 11.985 0 0 0 5.573-2.269z" fill="#000"/>
    <path d="M47.296 108.352c-1.252 1.67-2.932 5.077-2.915 10.385" stroke="#000" stroke-width=".271" stroke-linecap="round" stroke-linejoin="round"/>
    <path fill-rule="evenodd" clip-rule="evenodd" d="M37.8 107.923c-.2.25-.433.443-.682.6a3.03 3.03 0 0 1-.532.266 3.262 3.262 0 0 1-1.486.224.098.098 0 0 0-.111.081.096.096 0 0 0 .08.111c.337.076.669.102.991.072.228-.021.45-.069.658-.15.211-.083.408-.198.587-.338.255-.201.47-.457.648-.759a.094.094 0 0 0-.154-.107z" fill="#000"/>
    <path fill-rule="evenodd" clip-rule="evenodd" d="M25.043 96.14c4.463.62 10.059-2.988 14.09-4.551 3.748-1.453 7.462-1.859 9.764-1.358-4.404-4.25-21.822.991-23.854 5.91z" fill="#fff"/>
    <mask id="A" style="mask-type:alpha" maskUnits="userSpaceOnUse" x="25" y="88" width="24" height="9">
        <path fill-rule="evenodd" clip-rule="evenodd" d="M25.042 96.141c4.463.62 10.06-2.99 14.09-4.552 3.75-1.453 7.463-1.86 9.764-1.358-1.138-1.098-3.145-1.563-5.53-1.563-6.848-.002-16.816 3.825-18.324 7.473z" fill="#fff"/>
    </mask>
    <g mask="url(#A)">
        <path fill-rule="evenodd" clip-rule="evenodd" d="M42.282 89.176c1.56.11 3.112.641 4.49 1.374 1.29.686 3.215-.335 4.647.013-1.853-.996-6.838-1.775-9.137-1.387z" fill="#BDBDBC"/>
    </g>
    <path clip-rule="evenodd" d="M25.043 96.144c4.463.62 10.059-2.988 14.09-4.551 3.748-1.453 7.462-1.859 9.764-1.358-4.404-4.25-21.822.991-23.854 5.91z" stroke="#000" stroke-width=".271" stroke-linecap="round" stroke-linejoin="round"/>
    <path fill-rule="evenodd" clip-rule="evenodd" d="M19.418 106.96c-1.604-10.968 21.046-21.427 29.479-16.724-3.816-6.853-16.593-10.865-25.98-2.342-7.51 6.82-5.241 15.828-3.499 19.066z" fill="#fff"/>
    <mask id="B" style="mask-type:alpha" maskUnits="userSpaceOnUse" x="17" y="83" width="32" height="24">
        <path fill-rule="evenodd" clip-rule="evenodd" d="M22.917 87.895c-7.51 6.818-5.241 15.827-3.499 19.064-1.604-10.967 21.046-21.426 29.478-16.723-2.28-4.093-7.756-7.173-13.797-7.174-4.073 0-8.402 1.4-12.182 4.833z" fill="#fff"/>
    </mask>
    <g mask="url(#B)">
        <path fill-rule="evenodd" clip-rule="evenodd" d="M32.19 89.759c-1.518.65-3.113 1.544-4.665 2.594-.47-1.723-.905-3.34-1.311-4.859 1.405-.9 2.84-1.62 4.305-2.166.547 1.419 1.047 2.832 1.67 4.43z" fill="#700D20"/>
    </g>
    <mask id="C" style="mask-type:alpha" maskUnits="userSpaceOnUse" x="17" y="83" width="32" height="24">
        <path fill-rule="evenodd" clip-rule="evenodd" d="M22.917 87.895c-7.51 6.818-5.241 15.827-3.499 19.064-1.604-10.967 21.046-21.426 29.478-16.723-2.28-4.093-7.756-7.173-13.797-7.174-4.073 0-8.402 1.4-12.182 4.833z" fill="#fff"/>
    </mask>
    <g mask="url(#C)">
        <path fill-rule="evenodd" clip-rule="evenodd" d="M34.885 87.302a.818.818 0 0 1-.541.378c-.568.123-1.198-.254-1.446-.868-.24-.596 0-1.17.555-1.299.229-.052.479-.02.721.092l.013.005.24-.522-.014-.007c-.402-.203-.837-.266-1.219-.177-.894.21-1.309 1.158-.94 2.086.387.972 1.442 1.582 2.366 1.382.398-.087.72-.322.905-.666l.006-.011c-.214-.137-.428-.27-.64-.403l-.006.01zm1.398.652c.215-.032.43-.06.644-.087a171.744 171.744 0 0 0-1.435-3.284c-.207.027-.414.057-.62.089.464 1.044.934 2.14 1.411 3.282zm2.654-1.5c-.03-.048-2.06-2.02-2.072-2.014-.205.014-.41.03-.613.05.48 1.05.97 2.145 1.465 3.285.216-.02.433-.036.651-.05-.303-.688-.605-1.358-.903-2.014.098.079 2.06 1.996 2.05 1.998-.005-.005.163-1.949.175-2.028.315.656.632 1.325.952 2.009.223.007.447.017.672.03a228.21 228.21 0 0 0-1.596-3.281 19.666 19.666 0 0 0-.633-.033c-.003-.004-.148 1.998-.148 2.047zm4.217.878a23.698 23.698 0 0 0-.67-.092c-.13-.265-.261-.527-.392-.788.221.028.443.06.665.094.313.049.527.27.623.458.096.19.089.376-.226.328zm-1.718-2.18c.205.026.41.055.615.088.26.041.482.2.596.42.114.22.025.324-.236.284a19.958 19.958 0 0 0-.618-.088l-.357-.705zm1.824 1.194c.11-.052.244-.223.057-.582a2.138 2.138 0 0 0-1.508-1.081c-.445-.072-.886-.13-1.322-.173a227.46 227.46 0 0 1 1.622 3.279c.47.044.945.101 1.422.174.65.098.868-.193.557-.796a2.004 2.004 0 0 0-.828-.821z" fill="#781214"/>
    </g>
    <mask id="D" style="mask-type:alpha" maskUnits="userSpaceOnUse" x="17" y="83" width="32" height="24">
        <path fill-rule="evenodd" clip-rule="evenodd" d="M22.917 87.895c-7.51 6.818-5.241 15.827-3.499 19.064-1.604-10.967 21.046-21.426 29.478-16.723-2.28-4.093-7.756-7.173-13.797-7.174-4.073 0-8.402 1.4-12.182 4.833z" fill="#fff"/>
    </mask>
    <g mask="url(#D)">
        <path fill-rule="evenodd" clip-rule="evenodd" d="M26.717 87.99a23.28 23.28 0 0 1 2.315-1.24c.554.286 1.123.589 1.705.91-.206.7-.415 1.43-.627 2.194-.833.396-1.66.85-2.476 1.365.193-.82.383-1.607.57-2.362a82.3 82.3 0 0 0-1.487-.867z" fill="#EF3737"/>
    </g>
    <mask id="E" style="mask-type:alpha" maskUnits="userSpaceOnUse" x="17" y="83" width="32" height="24">
        <path fill-rule="evenodd" clip-rule="evenodd" d="M22.917 87.895c-7.51 6.818-5.241 15.827-3.499 19.064-1.604-10.967 21.046-21.426 29.478-16.723-2.28-4.093-7.756-7.173-13.797-7.174-4.073 0-8.402 1.4-12.182 4.833z" fill="#fff"/>
    </mask>
    <g mask="url(#E)">
        <path fill-rule="evenodd" clip-rule="evenodd" d="M30.738 87.66a70.983 70.983 0 0 0-1.705-.91c-.78.36-1.553.774-2.316 1.24.484.275.98.564 1.488.866" fill="#fff"/>
    </g>
    <mask id="F" style="mask-type:alpha" maskUnits="userSpaceOnUse" x="35" y="83" width="14" height="8">
        <path fill-rule="evenodd" clip-rule="evenodd" d="m35.205 83.063.211.002c5.916.106 11.241 3.149 13.48 7.17l-.028-.049h-.065l-.164-.087c-2.922-1.476-7.4-1.263-11.984.086l-1.45.001" fill="#fff"/>
    </mask>
    <g mask="url(#F)">
        <path fill-rule="evenodd" clip-rule="evenodd" d="M41.942 83.854c1.897.414 4.095 2.87 4.76 6.118 1.205.03 2.252.219 3.342 1.073-.237-2.289-.756-3.865-1.859-5.33-1.372-1.825-2.534-2.24-4.246-2.285-.618-.016-1.42-.084-1.997.424z" fill="#BDBDBC"/>
    </g>
    <mask id="G" style="mask-type:alpha" maskUnits="userSpaceOnUse" x="17" y="83" width="32" height="24">
        <path fill-rule="evenodd" clip-rule="evenodd" d="M22.917 87.895c-7.51 6.818-5.241 15.827-3.499 19.064-1.604-10.967 21.046-21.426 29.478-16.723-2.28-4.093-7.756-7.173-13.797-7.174-4.073 0-8.402 1.4-12.182 4.833z" fill="#fff"/>
    </mask>
    <g mask="url(#G)">
        <path fill-rule="evenodd" clip-rule="evenodd" d="M21.511 105.583c-1.063-5.03.413-15.015 2.796-18.113.953-.953 1.807-2.097 2.86-2.383-1.581-.047-2.83 2.065-4.17 2.84-1.17.674-2.719 3.296-3.625 4.31-3.165 3.544-1.809 9.719 0 14.305.764-.268 1.367-.711 2.139-.959z" fill="#BDBDBC"/>
    </g>
    <path clip-rule="evenodd" d="M19.418 106.96c-1.604-10.968 21.046-21.427 29.479-16.724-3.816-6.853-16.593-10.865-25.98-2.342-7.51 6.82-5.241 15.828-3.499 19.066z" stroke="#000" stroke-width=".271" stroke-linecap="round" stroke-linejoin="round"/>
    <path fill-rule="evenodd" clip-rule="evenodd" d="M26.939 94.77c-.823-2.239-1.173-4.638-.843-6.608.13-.771.367-1.473.715-2.08.222-.387.488-.736.808-1.035.212-.2.445-.38.705-.533a.095.095 0 0 0 .038-.128.095.095 0 0 0-.128-.039 4.105 4.105 0 0 0-1.71 1.564c-.387.63-.64 1.377-.781 2.192-.35 2.022.01 4.49.854 6.792.034.094.139.142.233.108a.183.183 0 0 0 .109-.234zM46.22 135.787c-.195-.883-.182-1.795-.024-2.692.19-1.071.612-2.108 1.1-3.076.05-.099.099-.198.145-.297.07-.154.13-.307.2-.458a.083.083 0 0 0-.026-.115.084.084 0 0 0-.114.026c-.063.073-.123.141-.182.218a4.17 4.17 0 0 0-.246.345 7.49 7.49 0 0 0-.394.748 10.382 10.382 0 0 0-.682 1.854c-.304 1.162-.38 2.366-.124 3.525a.178.178 0 0 0 .348-.078z" fill="#000"/>
    <mask id="H" style="mask-type:alpha" maskUnits="userSpaceOnUse" x="36" y="114" width="20" height="23">
        <path fill-rule="evenodd" clip-rule="evenodd" d="M36.545 136.771h18.968v-22.435H36.545m2.307 18.393c-.456-.862-.499-2.063-.315-2.997.334-1.7 2.462-5.671 4.193-6.539l.188.178c-.733 1.589-1.346 3.147-1.365 4.925-.023 2.13.558 4.249.201 6.378-1.104-.435-2.311-.833-2.901-1.945z" fill="#fff"/>
    </mask>
    <g mask="url(#H)">
        <path fill-rule="evenodd" clip-rule="evenodd" d="M53.522 118.174a.627.627 0 0 0-.564-.894l-6.149-.003a1.7 1.7 0 0 0-1.533.969l-5.797 12.184a.555.555 0 0 0 .501.793l6.177.002a1.828 1.828 0 0 0 1.65-1.042l5.715-12.009z" fill="#F79120"/>
    </g>
    <mask id="I" style="mask-type:alpha" maskUnits="userSpaceOnUse" x="36" y="114" width="20" height="23">
        <path fill-rule="evenodd" clip-rule="evenodd" d="M36.545 136.771h18.968v-22.435H36.545v22.435zm2.307-4.042c-.456-.862-.499-2.063-.315-2.997.334-1.7 2.462-5.671 4.193-6.539l.188.178c-.733 1.589-1.346 3.147-1.365 4.925-.023 2.13.558 4.249.201 6.378-1.104-.435-2.311-.833-2.901-1.945z" fill="#fff"/>
    </mask>
    <g mask="url(#I)">
        <path clip-rule="evenodd" d="M53.522 118.174a.627.627 0 0 0-.564-.894l-6.149-.003a1.7 1.7 0 0 0-1.533.969l-5.797 12.184a.555.555 0 0 0 .501.793l6.177.002a1.828 1.828 0 0 0 1.65-1.042l5.715-12.009z" stroke="#000" stroke-width=".27" stroke-linecap="round" stroke-linejoin="round"/>
    </g>
    <mask id="J" style="mask-type:alpha" maskUnits="userSpaceOnUse" x="36" y="114" width="20" height="23">
        <path fill-rule="evenodd" clip-rule="evenodd" d="M36.545 136.771h18.968v-22.435H36.545m2.307 18.393c-.456-.862-.499-2.063-.315-2.997.334-1.7 2.462-5.671 4.193-6.539l.188.178c-.733 1.589-1.346 3.147-1.365 4.925-.023 2.13.558 4.249.201 6.378-1.104-.435-2.311-.833-2.901-1.945z" fill="#fff"/>
    </mask>
    <g mask="url(#J)">
        <path d="M41.41 127.294s3.155-6.612 4.237-8.876c.218-.46.681-.751 1.19-.75l6.2.008" stroke="#FCBC7B" stroke-width=".287" stroke-linecap="round" stroke-linejoin="round"/>
    </g>
    <mask id="K" style="mask-type:alpha" maskUnits="userSpaceOnUse" x="36" y="114" width="20" height="23">
        <path fill-rule="evenodd" clip-rule="evenodd" d="M36.545 136.771h18.968v-22.435H36.545m2.307 18.393c-.456-.862-.499-2.063-.315-2.997.334-1.7 2.462-5.671 4.193-6.539l.188.178c-.733 1.589-1.346 3.147-1.365 4.925-.023 2.13.558 4.249.201 6.378-1.104-.435-2.311-.833-2.901-1.945z" fill="#fff"/>
    </mask>
    <g mask="url(#K)">
        <path d="M44.83 119.184c.22.518.771.694 1.694.685l6.221-.06" stroke="#000" stroke-width=".27" stroke-linecap="round" stroke-linejoin="round"/>
    </g>
    <mask id="L" style="mask-type:alpha" maskUnits="userSpaceOnUse" x="36" y="114" width="20" height="23">
        <path fill-rule="evenodd" clip-rule="evenodd" d="M36.545 136.771h18.968v-22.435H36.545m2.307 18.393c-.456-.862-.499-2.063-.315-2.997.334-1.7 2.462-5.671 4.193-6.539l.188.178c-.733 1.589-1.346 3.147-1.365 4.925-.023 2.13.558 4.249.201 6.378-1.104-.435-2.311-.833-2.901-1.945z" fill="#fff"/>
    </mask>
    <g mask="url(#L)">
        <path fill-rule="evenodd" clip-rule="evenodd" d="M48.579 118.639a.367.367 0 0 0-.093-.286.368.368 0 0 0-.275-.123h-.989a.37.37 0 0 0-.367.33l-.003.029a.37.37 0 0 0 .367.408h.99a.37.37 0 0 0 .367-.33c0-.01.002-.019.003-.028z" fill="#231F20"/>
    </g>
    <mask id="M" style="mask-type:alpha" maskUnits="userSpaceOnUse" x="36" y="114" width="20" height="23">
        <path fill-rule="evenodd" clip-rule="evenodd" d="M36.545 136.771h18.968v-22.435H36.545v22.435zm2.307-4.042c-.456-.862-.499-2.063-.315-2.997.334-1.7 2.462-5.671 4.193-6.539l.188.178c-.733 1.589-1.346 3.147-1.365 4.925-.023 2.13.558 4.249.201 6.378-1.104-.435-2.311-.833-2.901-1.945z" fill="#fff"/>
    </mask>
    <g mask="url(#M)">
        <path clip-rule="evenodd" d="M48.579 118.639a.367.367 0 0 0-.093-.286.368.368 0 0 0-.275-.123h-.989a.37.37 0 0 0-.367.33l-.003.029a.37.37 0 0 0 .367.408h.99a.37.37 0 0 0 .367-.33c0-.01.002-.019.003-.028z" stroke="#000" stroke-width=".27" stroke-linecap="round" stroke-linejoin="round"/>
    </g>
    <path fill-rule="evenodd" clip-rule="evenodd" d="M44.17 120.141c-.547-.153-1.264.037-2.02.508-.852.532-1.746 1.428-2.503 2.641a12.769 12.769 0 0 0-1.27 2.656c-.782 2.277-.787 4.273-1.838 6.733-.348.813-.711 1.788-1.587 2.479-.354.28-.79.522-1.347.672a4.856 4.856 0 0 1-.881.147 6.634 6.634 0 0 1-.59.016.122.122 0 0 1-.008-.244c.199-.016.385-.04.563-.067a5.85 5.85 0 0 0 .82-.186c.503-.151.904-.357 1.226-.612.823-.652 1.15-1.578 1.477-2.345 1.045-2.45 1.046-4.44 1.824-6.711a13.18 13.18 0 0 1 1.304-2.729c.79-1.269 1.726-2.202 2.619-2.758.966-.603 1.887-.761 2.536-.467a.19.19 0 0 1 .096.103.187.187 0 0 1-.007.141c-.364.764-.638 1.277-.96 1.951a31.6 31.6 0 0 0-.594 1.315c-.763 1.782-1.102 3.192-1.226 4.418-.26 2.559.393 4.324.065 6.977a.181.181 0 0 1-.36-.043c.326-2.65-.327-4.415-.067-6.971.128-1.255.472-2.698 1.254-4.524.23-.537.422-.957.6-1.328.296-.621.552-1.104.874-1.772z" fill="#000"/>
</svg>
