<svg width="237" height="140" viewBox="0 0 237 140" fill="none" xmlns="http://www.w3.org/2000/svg">
    <path opacity=".1" d="M221.077 138.802s24.88-30.959 4.208-64.473c-18.342-29.737-45.847-22.13-61.538-10.06-6.685 5.136-19.82-4.94-36.224-35.203-22.35-41.273-99.865-16.24-85.73 47.25 6.84 30.721-20.812 31.841-6.72 62.554l186.004-.068z" fill="#333739"/>
    <path fill-rule="evenodd" clip-rule="evenodd" d="M134.201 93.962c-2.196.216-19.457.307-19.469 1.422-.02 2.048 11.631 2.186 13.223 2.463 6.361 1.106-1.914 2.08-2.166 3.558-.21 1.228 9.608.982 11.988 1.456 2.188.435 4.894 1.367 7.139 1.701 3.532.525 7.535.34 11.091.43 8.344.21 14.893.311 23.275-.1 7.336-.359 15.37-1.664 4.364-4.327-1.241-.301-6.588-1.803-5.1-3.786 2.089-2.783 9.86-.104 10.751-1.681 1.234-2.185-6.398-3.584-7.407-3.683-9.016-.88-17.764 1.687-26.815 1.498-9.098-.189-11.779 1.316-20.874 1.049" fill="#C8C6C5"/>
    <path fill-rule="evenodd" clip-rule="evenodd" d="M146.196 81.445c-.639 1.773-1.973 3.274-3.54 4.303-7.706 5.06-17.49-2.633-23.721 2.108-5.446 4.145.391 11.039 4.261 7.207.891-.883.992-2.184.696-3.328 2.354-.343 4.409.6 6.601 1.285 4.964 1.552 11.083 2.82 14.768-1.905 1.855-2.378 1.619-6.854.935-9.67" fill="#E52B31"/>
    <mask id="a" style="mask-type:alpha" maskUnits="userSpaceOnUse" x="116" y="81" width="31" height="16">
        <path fill-rule="evenodd" clip-rule="evenodd" d="M142.656 85.748c-3.902 2.561-8.336 1.854-12.572 1.147-4.131-.69-8.073-1.38-11.149.961-5.446 4.145.391 11.039 4.261 7.207.891-.883.992-2.184.696-3.328 2.354-.343 4.409.6 6.601 1.285 4.964 1.552 11.083 2.82 14.768-1.905 1.855-2.378 1.619-6.854.935-9.67-.639 1.773-1.973 3.274-3.54 4.303z" fill="#fff"/>
    </mask>
    <g mask="url(#a)">
        <path fill-rule="evenodd" clip-rule="evenodd" d="M144.089 86.611c-2.326 3.267-6.149 5.084-10.205 4.189-3.193-.704-6.064-2.116-9.389-2.199-3.468-.086-7.128 2.334-5.565 6.105 1.338 3.227 7.317 2.947 10.036 2.955 6.674.017 12.956-.807 16.525-7.211 1.312-2.356 1.652-4.702.951-7.294l-2.353 3.455z" fill="#BA1918"/>
    </g>
    <mask id="b" style="mask-type:alpha" maskUnits="userSpaceOnUse" x="116" y="81" width="31" height="16">
        <path fill-rule="evenodd" clip-rule="evenodd" d="M142.656 85.748c-3.902 2.561-8.336 1.854-12.572 1.147-4.131-.69-8.073-1.38-11.149.961-5.446 4.145.391 11.039 4.261 7.207.891-.883.992-2.184.696-3.328 2.354-.343 4.409.6 6.601 1.285 4.964 1.552 11.083 2.82 14.768-1.905 1.855-2.378 1.619-6.854.935-9.67-.639 1.773-1.973 3.274-3.54 4.303" fill="#fff"/>
    </mask>
    <g mask="url(#b)">
        <path fill-rule="evenodd" clip-rule="evenodd" d="M144.914 83.984c-2.771 4.934-8.884 5.326-13.925 4.435-2.405-.425-4.892-1.239-7.355-1.09-4.673.282-7.936 3.361-6.308 8.054-2.481-4.559-.62-8.974 4.52-10.002 1.175-.235 2.344-.154 3.534-.175 3.551-.063 7.044.445 10.588.434 2.973-.009 6.191-.589 8.946-1.656" fill="#F090AD"/>
    </g>
    <path clip-rule="evenodd" d="M146.194 81.441c-.639 1.773-1.973 3.274-3.54 4.303-7.706 5.06-17.49-2.633-23.721 2.108-5.446 4.145.391 11.039 4.261 7.207.891-.882.992-2.184.696-3.328 2.354-.343 4.409.6 6.601 1.285 4.964 1.552 11.083 2.82 14.768-1.905 1.855-2.378 1.619-6.854.935-9.67z" stroke="#000" stroke-width=".544" stroke-linecap="round" stroke-linejoin="round"/>
    <path fill-rule="evenodd" clip-rule="evenodd" d="M162.642 80.205c1.36 4.495 9.989 5.829 12.611-4.355.745-2.895 1.568-6.801 3.32-9.294 1.198-1.705 2.923-3.196 4.995-3.74.503-.133 1.728-.43 2.15.085.482.589-.706 1.33-1.096 1.656-2.74 2.296-4.026 6.867-3.912 14.787.137 9.527-12.861 13.344-17.823 8.92-2.234-1.992-2.898-6.283-.245-8.059" fill="#E52B31"/>
    <mask id="c" style="mask-type:alpha" maskUnits="userSpaceOnUse" x="160" y="62" width="26" height="29">
        <path fill-rule="evenodd" clip-rule="evenodd" d="M183.568 62.815c-2.072.545-3.797 2.036-4.995 3.741-1.752 2.493-2.575 6.4-3.32 9.294-2.622 10.184-11.251 8.85-12.611 4.355-2.653 1.776-1.989 6.067.245 8.059 4.962 4.424 17.96.607 17.823-8.92-.114-7.92 1.172-12.491 3.912-14.787.39-.326 1.578-1.067 1.096-1.656-.18-.22-.506-.292-.86-.292-.476 0-1.002.13-1.29.206" fill="#fff"/>
    </mask>
    <g mask="url(#c)">
        <path fill-rule="evenodd" clip-rule="evenodd" d="M167.582 82.403c.113 4.055 5.192 5.372 8.035 1.648 2.159-2.83 1.557-6.39 2.019-9.674.517-3.675 2.527-7.445 5.363-9.924.556-.486 1.2-.882 1.726-1.401.99-.977 1.291-2.22 3.03-2.014.627.076 1.2.403 1.6.879 2.023 2.408-.332 8.403-1.103 11.082-1.906 6.626-3.516 14.742-9.039 19.517-5.021 4.34-18.798 2.53-21.44-3.822 2.878-9.235 6.238-9.674 9.809-6.291" fill="#BA1918"/>
    </g>
    <mask id="d" style="mask-type:alpha" maskUnits="userSpaceOnUse" x="160" y="62" width="26" height="29">
        <path fill-rule="evenodd" clip-rule="evenodd" d="M183.568 62.815c-2.072.545-3.797 2.036-4.995 3.741-1.752 2.493-2.575 6.4-3.32 9.294-2.622 10.184-11.251 8.85-12.611 4.355-2.653 1.776-1.989 6.067.245 8.059 4.962 4.424 17.96.607 17.823-8.92-.114-7.92 1.172-12.491 3.912-14.787.39-.326 1.578-1.067 1.096-1.656-.18-.22-.506-.292-.86-.292-.476 0-1.002.13-1.29.206" fill="#fff"/>
    </mask>
    <g mask="url(#d)">
        <path fill-rule="evenodd" clip-rule="evenodd" d="M185.077 62.667c-8.756 1.497-7.103 12.076-10.68 17.6-1.316 2.033-4.058 4.265-6.926 2.872 1.107-.744 2.812-1.894 3.637-2.945.873-1.113 1.424-2.531 1.963-3.816 1.308-3.119 2.192-6.546 4.049-9.412 1.431-2.207 4.993-4.979 7.957-4.299" fill="#ED7483"/>
    </g>
    <path clip-rule="evenodd" d="M162.643 80.205c1.361 4.495 9.99 5.829 12.612-4.355.745-2.895 1.568-6.801 3.32-9.294 1.197-1.705 2.923-3.196 4.995-3.74.502-.133 1.728-.43 2.15.085.482.589-.706 1.33-1.096 1.656-2.74 2.296-4.026 6.867-3.912 14.787.137 9.527-12.861 13.344-17.823 8.92-2.234-1.992-2.898-6.283-.246-8.059z" stroke="#020203" stroke-width=".531" stroke-linecap="round" stroke-linejoin="round"/>
    <path fill-rule="evenodd" clip-rule="evenodd" d="M138.91 42.305c-.966.371-2.805 1.566-1.234 3.514.831 1.032 2.451 2.247 5.652 3.156 1.081-1.291 1.516-5.825 2.483-7.261-2.146-.431-5.25-.044-6.901.591" fill="#AAA8A7"/>
    <path clip-rule="evenodd" d="M138.91 42.305c-.966.371-2.805 1.566-1.234 3.514.831 1.032 2.451 2.247 5.652 3.156 1.081-1.291 1.516-5.825 2.483-7.261-2.146-.431-5.25-.044-6.901.591z" stroke="#020203" stroke-width=".531" stroke-linecap="round" stroke-linejoin="round"/>
    <path fill-rule="evenodd" clip-rule="evenodd" d="M144.697 85.232c3.112-9.2-5.556-16.959-5.025-29.594.681-16.192 13.075-20.895 23.032-19.489 9.525 1.345 18.396 10.564 15.376 24.145-3.053 13.73-14.887 13.287-14.49 19.528.128 2.009 1.357 3.44 3.156 4.367 4.035 2.076 6.489 1.537 10.45.022 2.756-1.055 8.77-4.545 11.608-.664 2.693 3.683-2.463 7.86-5.102 5.077-.419-.441-.732-1.059-.713-1.685-2.817 1.427-5.033 3.678-7.66 5.39-.893.58-1.795 1.1-2.707 1.506 2.44.655 6.279 1.275 8.215 3.938 2.185 3.005-.689 7.08-4.14 6.416-1.51-.29-2.367-1.677-1.934-3.169.115-.398.375-.777.686-1.052a2.473 2.473 0 0 1 .379-.274c-.072-.166-.355-.337-.494-.43-2.022-1.364-13.123 2.496-18.208-3.688-2.016-.07-5.887 2.13-5.965 2.17 1.702.213 2.541.063 6.501.62 2.417.34 5.578 2.053 7.134 4.023.498.63.964 1.499.644 2.303-.609 1.53-1.799-2.781-7.961-2.333-5.102.371-12.107 4.468-15.383-1.413-7.175 2.19-14.356-1.66-12.548-9.921 1.004-4.585 4.666-7.32 7.236-11.018 1.758-2.53 2.748-5.115 3.278-8.113 1.327 1.74 2.514 4.339-.76 10.63-1.298 2.492-4.82 8.535-2.47 10.597 1.968 1.726 5.75-1.638 7.865-7.89" fill="#E52B31"/>
    <mask id="e" style="mask-type:alpha" maskUnits="userSpaceOnUse" x="129" y="35" width="61" height="71">
        <path fill-rule="evenodd" clip-rule="evenodd" d="M139.672 55.638c-.531 12.635 8.137 20.395 5.025 29.594-2.115 6.25-5.897 9.615-7.865 7.889-2.35-2.062 1.172-8.105 2.47-10.598 3.274-6.29 2.087-8.888.76-10.629-.53 2.998-1.52 5.582-3.278 8.113-2.57 3.699-6.232 6.433-7.236 11.018-1.808 8.26 5.373 12.111 12.548 9.921 3.276 5.881 10.281 1.784 15.383 1.413 2.767-.201 4.531.557 5.691 1.315 1.423.931 1.935 1.861 2.27 1.018.32-.804-.146-1.673-.644-2.303-1.556-1.97-4.717-3.682-7.134-4.022-3.96-.558-4.799-.408-6.501-.62.078-.042 3.949-2.24 5.965-2.17 3.345 4.067 9.294 3.788 13.548 3.51 2.213-.145 3.968-.29 4.66.177.139.093.422.264.494.43l-.061.035a2.473 2.473 0 0 0-.318.24 2.314 2.314 0 0 0-.686 1.051c-.433 1.492.424 2.879 1.934 3.169 3.451.664 6.325-3.411 4.14-6.416-1.936-2.663-5.775-3.283-8.215-3.938.912-.406 1.814-.925 2.707-1.507 2.627-1.71 4.843-3.962 7.66-5.389-.019.626.294 1.243.713 1.685 2.639 2.783 7.795-1.394 5.102-5.077-2.838-3.88-8.852-.39-11.608.663-3.961 1.516-6.415 2.055-10.45-.021-1.799-.926-3.028-2.358-3.156-4.367-.397-6.241 11.437-5.798 14.49-19.528 3.02-13.581-5.851-22.8-15.376-24.145a23.982 23.982 0 0 0-3.348-.235c-9.188 0-19.077 5.31-19.684 19.724" fill="#fff"/>
    </mask>
    <g mask="url(#e)">
        <path fill-rule="evenodd" clip-rule="evenodd" d="M172.518 53.148c-11.382 6.141-19.846-9.728-31.086-6.72 4.849-13.694 23.003-.052 31.086 6.72" fill="#BA1918"/>
    </g>
    <mask id="f" style="mask-type:alpha" maskUnits="userSpaceOnUse" x="129" y="35" width="61" height="71">
        <path fill-rule="evenodd" clip-rule="evenodd" d="M139.672 55.638c-.531 12.635 8.137 20.395 5.025 29.594-2.115 6.25-5.897 9.615-7.865 7.889-2.35-2.062 1.172-8.105 2.47-10.598 3.274-6.29 2.087-8.888.76-10.629-.53 2.998-1.52 5.582-3.278 8.113-2.57 3.699-6.232 6.433-7.236 11.018-1.808 8.26 5.373 12.111 12.548 9.921 3.276 5.881 10.281 1.784 15.383 1.413 2.767-.201 4.531.557 5.691 1.315 1.423.931 1.935 1.861 2.27 1.018.32-.804-.146-1.673-.644-2.303-1.556-1.97-4.717-3.682-7.134-4.022-3.96-.558-4.799-.408-6.501-.62.078-.042 3.949-2.24 5.965-2.17 3.345 4.067 9.294 3.788 13.548 3.51 2.213-.145 3.968-.29 4.66.177.139.093.422.264.494.43l-.061.035a2.473 2.473 0 0 0-.318.24 2.314 2.314 0 0 0-.686 1.051c-.433 1.492.424 2.879 1.934 3.169 3.451.664 6.325-3.411 4.14-6.416-1.936-2.663-5.775-3.283-8.215-3.938.912-.406 1.814-.925 2.707-1.507 2.627-1.71 4.843-3.962 7.66-5.389-.019.626.294 1.243.713 1.685 2.639 2.783 7.795-1.394 5.102-5.077-2.838-3.88-8.852-.39-11.608.663-3.961 1.516-6.415 2.055-10.45-.021-1.799-.926-3.028-2.358-3.156-4.367-.397-6.241 11.437-5.798 14.49-19.528 3.02-13.581-5.851-22.8-15.376-24.145a23.982 23.982 0 0 0-3.348-.235c-9.188 0-19.077 5.31-19.684 19.724" fill="#fff"/>
    </mask>
    <g mask="url(#f)">
        <path fill-rule="evenodd" clip-rule="evenodd" d="M184.575 88.456c.99 1.917 3.506 1.774 4.709.043.73-1.05.605-2.359.074-3.463a4.874 4.874 0 0 0-.718-1.075c-.021-.024-.286-.28-.28-.29.241-.442 2.224.135 2.59.325 1.786.93 2.491 2.948 2.23 4.857-.436 3.197-3.525 5.823-6.822 5.278-2.994-.496-3.503-3.344-1.783-5.675" fill="#BA1918"/>
    </g>
    <mask id="g" style="mask-type:alpha" maskUnits="userSpaceOnUse" x="129" y="35" width="61" height="71">
        <path fill-rule="evenodd" clip-rule="evenodd" d="M139.672 55.638c-.531 12.635 8.137 20.395 5.025 29.594-2.115 6.25-5.897 9.615-7.865 7.889-2.35-2.062 1.172-8.105 2.47-10.598 3.274-6.29 2.087-8.888.76-10.629-.53 2.998-1.52 5.582-3.278 8.113-2.57 3.699-6.232 6.433-7.236 11.018-1.808 8.26 5.373 12.111 12.548 9.921 3.276 5.881 10.281 1.784 15.383 1.413 2.767-.201 4.531.557 5.691 1.315 1.423.931 1.935 1.861 2.27 1.018.32-.804-.146-1.673-.644-2.303-1.556-1.97-4.717-3.682-7.134-4.022-3.96-.558-4.799-.408-6.501-.62.078-.042 3.949-2.24 5.965-2.17 3.345 4.067 9.294 3.788 13.548 3.51 2.213-.145 3.968-.29 4.66.177.139.093.422.264.494.43l-.061.035a2.473 2.473 0 0 0-.318.24 2.314 2.314 0 0 0-.686 1.051c-.433 1.492.424 2.879 1.934 3.169 3.451.664 6.325-3.411 4.14-6.416-1.936-2.663-5.775-3.283-8.215-3.938.912-.406 1.814-.925 2.707-1.507 2.627-1.71 4.843-3.962 7.66-5.389-.019.626.294 1.243.713 1.685 2.639 2.783 7.795-1.394 5.102-5.077-2.838-3.88-8.852-.39-11.608.663-3.961 1.516-6.415 2.055-10.45-.021-1.799-.926-3.028-2.358-3.156-4.367-.397-6.241 11.437-5.798 14.49-19.528 3.02-13.581-5.851-22.8-15.376-24.145a23.982 23.982 0 0 0-3.348-.235c-9.188 0-19.077 5.31-19.684 19.724" fill="#fff"/>
    </mask>
    <g mask="url(#g)">
        <path fill-rule="evenodd" clip-rule="evenodd" d="M142.096 90.524c8.937-6.663 2.45-19.317.159-24.948-2.363-5.808-2.304-15.644.757-21.47-1.546 1.858-3.636 5.132-4.331 7.449-1.21 4.031-1.354 9.108.491 13.004 2.577 5.44 5.46 19.432 2.924 25.965" fill="#ED7483"/>
    </g>
    <mask id="h" style="mask-type:alpha" maskUnits="userSpaceOnUse" x="129" y="35" width="61" height="71">
        <path fill-rule="evenodd" clip-rule="evenodd" d="M139.672 55.638c-.531 12.635 8.137 20.395 5.025 29.594-2.115 6.25-5.897 9.615-7.865 7.889-2.35-2.062 1.172-8.105 2.47-10.598 3.274-6.29 2.087-8.888.76-10.629-.53 2.998-1.52 5.582-3.278 8.113-2.57 3.699-6.232 6.433-7.236 11.018-1.808 8.26 5.373 12.111 12.548 9.921 3.276 5.881 10.281 1.784 15.383 1.413 2.767-.201 4.531.557 5.691 1.315 1.423.931 1.935 1.861 2.27 1.018.32-.804-.146-1.673-.644-2.303-1.556-1.97-4.717-3.682-7.134-4.022-3.96-.558-4.799-.408-6.501-.62.078-.042 3.949-2.24 5.965-2.17 3.345 4.067 9.294 3.788 13.548 3.51 2.213-.145 3.968-.29 4.66.177.139.093.422.264.494.43l-.061.035a2.473 2.473 0 0 0-.318.24 2.314 2.314 0 0 0-.686 1.051c-.433 1.492.424 2.879 1.934 3.169 3.451.664 6.325-3.411 4.14-6.416-1.936-2.663-5.775-3.283-8.215-3.938.912-.406 1.814-.925 2.707-1.507 2.627-1.71 4.843-3.962 7.66-5.389-.019.626.294 1.243.713 1.685 2.639 2.783 7.795-1.394 5.102-5.077-2.838-3.88-8.852-.39-11.608.663-3.961 1.516-6.415 2.055-10.45-.021-1.799-.926-3.028-2.358-3.156-4.367-.397-6.241 11.437-5.798 14.49-19.528 3.02-13.581-5.851-22.8-15.376-24.145a23.982 23.982 0 0 0-3.348-.235c-9.188 0-19.077 5.31-19.684 19.724" fill="#fff"/>
    </mask>
    <g mask="url(#h)">
        <path fill-rule="evenodd" clip-rule="evenodd" d="M129.499 95.342c-.051-6.126 3.775-8.327 5.562-13.307-4.002 2.901-6.799 8.339-5.562 13.307" fill="#F090AD"/>
    </g>
    <mask id="i" style="mask-type:alpha" maskUnits="userSpaceOnUse" x="129" y="35" width="61" height="71">
        <path fill-rule="evenodd" clip-rule="evenodd" d="M139.672 55.638c-.531 12.635 8.137 20.395 5.025 29.594-2.115 6.25-5.897 9.615-7.865 7.889-2.35-2.062 1.172-8.105 2.47-10.598 3.274-6.29 2.087-8.888.76-10.629-.53 2.998-1.52 5.582-3.278 8.113-2.57 3.699-6.232 6.433-7.236 11.018-1.808 8.26 5.373 12.111 12.548 9.921 3.276 5.881 10.281 1.784 15.383 1.413 2.767-.201 4.531.557 5.691 1.315 1.423.931 1.935 1.861 2.27 1.018.32-.804-.146-1.673-.644-2.303-1.556-1.97-4.717-3.682-7.134-4.022-3.96-.558-4.799-.408-6.501-.62.078-.042 3.949-2.24 5.965-2.17 3.345 4.067 9.294 3.788 13.548 3.51 2.213-.145 3.968-.29 4.66.177.139.093.422.264.494.43l-.061.035a2.473 2.473 0 0 0-.318.24 2.314 2.314 0 0 0-.686 1.051c-.433 1.492.424 2.879 1.934 3.169 3.451.664 6.325-3.411 4.14-6.416-1.936-2.663-5.775-3.283-8.215-3.938.912-.406 1.814-.925 2.707-1.507 2.627-1.71 4.843-3.962 7.66-5.389-.019.626.294 1.243.713 1.685 2.639 2.783 7.795-1.394 5.102-5.077-2.838-3.88-8.852-.39-11.608.663-3.961 1.516-6.415 2.055-10.45-.021-1.799-.926-3.028-2.358-3.156-4.367-.397-6.241 11.437-5.798 14.49-19.528 3.02-13.581-5.851-22.8-15.376-24.145a23.982 23.982 0 0 0-3.348-.235c-9.188 0-19.077 5.31-19.684 19.724" fill="#fff"/>
    </mask>
    <g mask="url(#i)">
        <path fill-rule="evenodd" clip-rule="evenodd" d="M150.264 86.516c.231 5.47-10.319 7.68-7.813 14.886-.8-1.51-.88-3.38-.224-5.03.427-1.074.925-2.058 1.723-2.87 2.037-2.07 5.177-3.953 6.314-6.986" fill="#F090AD"/>
    </g>
    <mask id="j" style="mask-type:alpha" maskUnits="userSpaceOnUse" x="129" y="35" width="61" height="71">
        <path fill-rule="evenodd" clip-rule="evenodd" d="M139.672 55.638c-.531 12.635 8.137 20.395 5.025 29.594-2.115 6.25-5.897 9.615-7.865 7.889-2.35-2.062 1.172-8.105 2.47-10.598 3.274-6.29 2.087-8.888.76-10.629-.53 2.998-1.52 5.582-3.278 8.113-2.57 3.699-6.232 6.433-7.236 11.018-1.808 8.26 5.373 12.111 12.548 9.921 3.276 5.881 10.281 1.784 15.383 1.413 2.767-.201 4.531.557 5.691 1.315 1.423.931 1.935 1.861 2.27 1.018.32-.804-.146-1.673-.644-2.303-1.556-1.97-4.717-3.682-7.134-4.022-3.96-.558-4.799-.408-6.501-.62.078-.042 3.949-2.24 5.965-2.17 3.345 4.067 9.294 3.788 13.548 3.51 2.213-.145 3.968-.29 4.66.177.139.093.422.264.494.43l-.061.035a2.473 2.473 0 0 0-.318.24 2.314 2.314 0 0 0-.686 1.051c-.433 1.492.424 2.879 1.934 3.169 3.451.664 6.325-3.411 4.14-6.416-1.936-2.663-5.775-3.283-8.215-3.938.912-.406 1.814-.925 2.707-1.507 2.627-1.71 4.843-3.962 7.66-5.389-.019.626.294 1.243.713 1.685 2.639 2.783 7.795-1.394 5.102-5.077-2.838-3.88-8.852-.39-11.608.663-3.961 1.516-6.415 2.055-10.45-.021-1.799-.926-3.028-2.358-3.156-4.367-.397-6.241 11.437-5.798 14.49-19.528 3.02-13.581-5.851-22.8-15.376-24.145a23.982 23.982 0 0 0-3.348-.235c-9.188 0-19.077 5.31-19.684 19.724" fill="#fff"/>
    </mask>
    <g mask="url(#j)">
        <path fill-rule="evenodd" clip-rule="evenodd" d="M167.152 84.392c.493.743 2.781 1.926 4.903 1.993 2.277.071 5.427-1.094 9.754-2.877 1.946-.802 4.098-1.506 6.192-.808-3.138-1.62-4.295-1.444-7.361-.45-3.896 1.264-9.379 3.35-13.488 2.142" fill="#ED7483"/>
    </g>
    <mask id="k" style="mask-type:alpha" maskUnits="userSpaceOnUse" x="129" y="35" width="61" height="71">
        <path fill-rule="evenodd" clip-rule="evenodd" d="M139.672 55.638c-.531 12.635 8.137 20.395 5.025 29.594-2.115 6.25-5.897 9.615-7.865 7.889-2.35-2.062 1.172-8.105 2.47-10.598 3.274-6.29 2.087-8.888.76-10.629-.53 2.998-1.52 5.582-3.278 8.113-2.57 3.699-6.232 6.433-7.236 11.018-1.808 8.26 5.373 12.111 12.548 9.921 3.276 5.881 10.281 1.784 15.383 1.413 2.767-.201 4.531.557 5.691 1.315 1.423.931 1.935 1.861 2.27 1.018.32-.804-.146-1.673-.644-2.303-1.556-1.97-4.717-3.682-7.134-4.022-3.96-.558-4.799-.408-6.501-.62.078-.042 3.949-2.24 5.965-2.17 3.345 4.067 9.294 3.788 13.548 3.51 2.213-.145 3.968-.29 4.66.177.139.093.422.264.494.43l-.061.035a2.473 2.473 0 0 0-.318.24 2.314 2.314 0 0 0-.686 1.051c-.433 1.492.424 2.879 1.934 3.169 3.451.664 6.325-3.411 4.14-6.416-1.936-2.663-5.775-3.283-8.215-3.938.912-.406 1.814-.925 2.707-1.507 2.627-1.71 4.843-3.962 7.66-5.389-.019.626.294 1.243.713 1.685 2.639 2.783 7.795-1.394 5.102-5.077-2.838-3.88-8.852-.39-11.608.663-3.961 1.516-6.415 2.055-10.45-.021-1.799-.926-3.028-2.358-3.156-4.367-.397-6.241 11.437-5.798 14.49-19.528 3.02-13.581-5.851-22.8-15.376-24.145a23.982 23.982 0 0 0-3.348-.235c-9.188 0-19.077 5.31-19.684 19.724" fill="#fff"/>
    </mask>
    <g mask="url(#k)">
        <path fill-rule="evenodd" clip-rule="evenodd" d="M135.115 82.279c3.021.565.758 3.432.256 5.105-.469 1.56-.614 3.412.079 4.925.362.791 1.023 1.35 1.915 1.442 1.653.168 1.853-1.827 2.155-2.999.21-.817.457-1.617.74-2.412 1.429-4.019 3.898-7.68 3.268-12.116-.256-1.8-1.414-6.293-4.169-4.535-.988.63-1.576 1.714-1.871 2.82-.503 1.892-1.619 5.933-2.373 7.77" fill="#BA1918"/>
    </g>
    <mask id="l" style="mask-type:alpha" maskUnits="userSpaceOnUse" x="129" y="35" width="61" height="71">
        <path fill-rule="evenodd" clip-rule="evenodd" d="M139.672 55.638c-.531 12.635 8.137 20.395 5.025 29.594-2.115 6.25-5.897 9.615-7.865 7.889-2.35-2.062 1.172-8.105 2.47-10.598 3.274-6.29 2.087-8.888.76-10.629-.53 2.998-1.52 5.582-3.278 8.113-2.57 3.699-6.232 6.433-7.236 11.018-1.808 8.26 5.373 12.111 12.548 9.921 3.276 5.881 10.281 1.784 15.383 1.413 2.767-.201 4.531.557 5.691 1.315 1.423.931 1.935 1.861 2.27 1.018.32-.804-.146-1.673-.644-2.303-1.556-1.97-4.717-3.682-7.134-4.022-3.96-.558-4.799-.408-6.501-.62.078-.042 3.949-2.24 5.965-2.17 3.345 4.067 9.294 3.788 13.548 3.51 2.213-.145 3.968-.29 4.66.177.139.093.422.264.494.43l-.061.035a2.473 2.473 0 0 0-.318.24 2.314 2.314 0 0 0-.686 1.051c-.433 1.492.424 2.879 1.934 3.169 3.451.664 6.325-3.411 4.14-6.416-1.936-2.663-5.775-3.283-8.215-3.938.912-.406 1.814-.925 2.707-1.507 2.627-1.71 4.843-3.962 7.66-5.389-.019.626.294 1.243.713 1.685 2.639 2.783 7.795-1.394 5.102-5.077-2.838-3.88-8.852-.39-11.608.663-3.961 1.516-6.415 2.055-10.45-.021-1.799-.926-3.028-2.358-3.156-4.367-.397-6.241 11.437-5.798 14.49-19.528 3.02-13.581-5.851-22.8-15.376-24.145a23.982 23.982 0 0 0-3.348-.235c-9.188 0-19.077 5.31-19.684 19.724" fill="#fff"/>
    </mask>
    <g mask="url(#l)">
        <path fill-rule="evenodd" clip-rule="evenodd" d="M172.798 50.781c.99 8.44-7.901 16.488-12.759 24.771-3.146 5.363-1.132 10.422 1.839 13.499 3.147 3.258 8.653 4.534 11.254 4.958 1.954-.24 5.337-2.455 7.313-2.634 2.207-.2 3.709-.313 5.91-.59 1.904-.24 4.781-3.679 3.078-5.969-1.674-2.252-4.76-.983-6.887-.124-5.241 2.118-9.221 7.246-15.361 4.78-1.224-.49-3.457-2.134-4.062-3.338-1.578-3.14 1.023-3.471 2.286-3.294 1.539.216 3.028-3.578 3.921-4.833 1.919-2.698 5.277-6.442 6.845-9.355 2.761-5.125 3.254-7.693.862-13.319-.905-2.13-2.36-3.188-4.239-4.552" fill="#BA1918"/>
    </g>
    <mask id="m" style="mask-type:alpha" maskUnits="userSpaceOnUse" x="129" y="35" width="61" height="71">
        <path fill-rule="evenodd" clip-rule="evenodd" d="M139.672 55.638c-.531 12.635 8.137 20.395 5.025 29.594-2.115 6.25-5.897 9.615-7.865 7.889-2.35-2.062 1.172-8.105 2.47-10.598 3.274-6.29 2.087-8.888.76-10.629-.53 2.998-1.52 5.582-3.278 8.113-2.57 3.699-6.232 6.433-7.236 11.018-1.808 8.26 5.373 12.111 12.548 9.921 3.276 5.881 10.281 1.784 15.383 1.413 2.767-.201 4.531.557 5.691 1.315 1.423.931 1.935 1.861 2.27 1.018.32-.804-.146-1.673-.644-2.303-1.556-1.97-4.717-3.682-7.134-4.022-3.96-.558-4.799-.408-6.501-.62.078-.042 3.949-2.24 5.965-2.17 3.345 4.067 9.294 3.788 13.548 3.51 2.213-.145 3.968-.29 4.66.177.139.093.422.264.494.43l-.061.035a2.473 2.473 0 0 0-.318.24 2.314 2.314 0 0 0-.686 1.051c-.433 1.492.424 2.879 1.934 3.169 3.451.664 6.325-3.411 4.14-6.416-1.936-2.663-5.775-3.283-8.215-3.938.912-.406 1.814-.925 2.707-1.507 2.627-1.71 4.843-3.962 7.66-5.389-.019.626.294 1.243.713 1.685 2.639 2.783 7.795-1.394 5.102-5.077-2.838-3.88-8.852-.39-11.608.663-3.961 1.516-6.415 2.055-10.45-.021-1.799-.926-3.028-2.358-3.156-4.367-.397-6.241 11.437-5.798 14.49-19.528 3.02-13.581-5.851-22.8-15.376-24.145a23.982 23.982 0 0 0-3.348-.235c-9.188 0-19.077 5.31-19.684 19.724" fill="#fff"/>
    </mask>
    <g mask="url(#m)">
        <path fill-rule="evenodd" clip-rule="evenodd" d="M176.912 105.023c2.443.065 8.256-4.085 3.241-8.447 1.394 2.045-.255 2.735-1.513 2.096-2.57-1.307-6.523-1.485-9.31-1.507-3.793-.029-7.482.12-10.918-1.71-3.109-1.654-2.394-3.528-2.905-4.752-.349 6.745 3.327 8.795 10.059 9.714 1.65.225 3.662-.125 5.224.491 2.213.873 2.633 4.022 6.122 4.115" fill="#BA1918"/>
    </g>
    <mask id="n" style="mask-type:alpha" maskUnits="userSpaceOnUse" x="129" y="35" width="61" height="71">
        <path fill-rule="evenodd" clip-rule="evenodd" d="M139.672 55.638c-.531 12.635 8.137 20.395 5.025 29.594-2.115 6.25-5.897 9.615-7.865 7.889-2.35-2.062 1.172-8.105 2.47-10.598 3.274-6.29 2.087-8.888.76-10.629-.53 2.998-1.52 5.582-3.278 8.113-2.57 3.699-6.232 6.433-7.236 11.018-1.808 8.26 5.373 12.111 12.548 9.921 3.276 5.881 10.281 1.784 15.383 1.413 2.767-.201 4.531.557 5.691 1.315 1.423.931 1.935 1.861 2.27 1.018.32-.804-.146-1.673-.644-2.303-1.556-1.97-4.717-3.682-7.134-4.022-3.96-.558-4.799-.408-6.501-.62.078-.042 3.949-2.24 5.965-2.17 3.345 4.067 9.294 3.788 13.548 3.51 2.213-.145 3.968-.29 4.66.177.139.093.422.264.494.43l-.061.035a2.473 2.473 0 0 0-.318.24 2.314 2.314 0 0 0-.686 1.051c-.433 1.492.424 2.879 1.934 3.169 3.451.664 6.325-3.411 4.14-6.416-1.936-2.663-5.775-3.283-8.215-3.938.912-.406 1.814-.925 2.707-1.507 2.627-1.71 4.843-3.962 7.66-5.389-.019.626.294 1.243.713 1.685 2.639 2.783 7.795-1.394 5.102-5.077-2.838-3.88-8.852-.39-11.608.663-3.961 1.516-6.415 2.055-10.45-.021-1.799-.926-3.028-2.358-3.156-4.367-.397-6.241 11.437-5.798 14.49-19.528 3.02-13.581-5.851-22.8-15.376-24.145a23.982 23.982 0 0 0-3.348-.235c-9.188 0-19.077 5.31-19.684 19.724" fill="#fff"/>
    </mask>
    <g mask="url(#n)">
        <path fill-rule="evenodd" clip-rule="evenodd" d="M150.426 97.675c-3.544-.622 3.845-4.31 5.082-6.972.281.986.356 1.935.641 2.921.241.836.899 1.829 1.232 2.626-2.572 1.592-4.351 1.882-6.955 1.425" fill="#BA1918"/>
    </g>
    <mask id="o" style="mask-type:alpha" maskUnits="userSpaceOnUse" x="129" y="35" width="61" height="71">
        <path fill-rule="evenodd" clip-rule="evenodd" d="M139.672 55.638c-.531 12.635 8.137 20.395 5.025 29.594-2.115 6.25-5.897 9.615-7.865 7.889-2.35-2.062 1.172-8.105 2.47-10.598 3.274-6.29 2.087-8.888.76-10.629-.53 2.998-1.52 5.582-3.278 8.113-2.57 3.699-6.232 6.433-7.236 11.018-1.808 8.26 5.373 12.111 12.548 9.921 3.276 5.881 10.281 1.784 15.383 1.413 2.767-.201 4.531.557 5.691 1.315 1.423.931 1.935 1.861 2.27 1.018.32-.804-.146-1.673-.644-2.303-1.556-1.97-4.717-3.682-7.134-4.022-3.96-.558-4.799-.408-6.501-.62.078-.042 3.949-2.24 5.965-2.17 3.345 4.067 9.294 3.788 13.548 3.51 2.213-.145 3.968-.29 4.66.177.139.093.422.264.494.43l-.061.035a2.473 2.473 0 0 0-.318.24 2.314 2.314 0 0 0-.686 1.051c-.433 1.492.424 2.879 1.934 3.169 3.451.664 6.325-3.411 4.14-6.416-1.936-2.663-5.775-3.283-8.215-3.938.912-.406 1.814-.925 2.707-1.507 2.627-1.71 4.843-3.962 7.66-5.389-.019.626.294 1.243.713 1.685 2.639 2.783 7.795-1.394 5.102-5.077-2.838-3.88-8.852-.39-11.608.663-3.961 1.516-6.415 2.055-10.45-.021-1.799-.926-3.028-2.358-3.156-4.367-.397-6.241 11.437-5.798 14.49-19.528 3.02-13.581-5.851-22.8-15.376-24.145a23.982 23.982 0 0 0-3.348-.235c-9.188 0-19.077 5.31-19.684 19.724" fill="#fff"/>
    </mask>
    <g mask="url(#o)">
        <path fill-rule="evenodd" clip-rule="evenodd" d="M145.839 91.84c-1.854 1.883-3.026 4.222-8.259 5.685-3.67 1.026-8.206-.228-8.343-4.383-.383 1.63-.246 3.098.408 4.642 2.101 4.958 8.522 5.533 13.05 3.862-.762-.775-1.356-1.753-1.17-2.815.512-2.916 1.762-4.233 4.314-6.991" fill="#BA1918"/>
    </g>
    <mask id="p" style="mask-type:alpha" maskUnits="userSpaceOnUse" x="129" y="35" width="61" height="71">
        <path fill-rule="evenodd" clip-rule="evenodd" d="M139.672 55.638c-.531 12.635 8.137 20.395 5.025 29.594-2.115 6.25-5.897 9.615-7.865 7.889-2.35-2.062 1.172-8.105 2.47-10.598 3.274-6.29 2.087-8.888.76-10.629-.53 2.998-1.52 5.582-3.278 8.113-2.57 3.699-6.232 6.433-7.236 11.018-1.808 8.26 5.373 12.111 12.548 9.921 3.276 5.881 10.281 1.784 15.383 1.413 2.767-.201 4.531.557 5.691 1.315 1.423.931 1.935 1.861 2.27 1.018.32-.804-.146-1.673-.644-2.303-1.556-1.97-4.717-3.682-7.134-4.022-3.96-.558-4.799-.408-6.501-.62.078-.042 3.949-2.24 5.965-2.17 3.345 4.067 9.294 3.788 13.548 3.51 2.213-.145 3.968-.29 4.66.177.139.093.422.264.494.43l-.061.035a2.473 2.473 0 0 0-.318.24 2.314 2.314 0 0 0-.686 1.051c-.433 1.492.424 2.879 1.934 3.169 3.451.664 6.325-3.411 4.14-6.416-1.936-2.663-5.775-3.283-8.215-3.938.912-.406 1.814-.925 2.707-1.507 2.627-1.71 4.843-3.962 7.66-5.389-.019.626.294 1.243.713 1.685 2.639 2.783 7.795-1.394 5.102-5.077-2.838-3.88-8.852-.39-11.608.663-3.961 1.516-6.415 2.055-10.45-.021-1.799-.926-3.028-2.358-3.156-4.367-.397-6.241 11.437-5.798 14.49-19.528 3.02-13.581-5.851-22.8-15.376-24.145a23.982 23.982 0 0 0-3.348-.235c-9.188 0-19.077 5.31-19.684 19.724" fill="#fff"/>
    </mask>
    <g mask="url(#p)">
        <path fill-rule="evenodd" clip-rule="evenodd" d="M166.019 106.053c-.715-4.423-6.09-6.24-10.075-5.709-2.458.328-4.717 1.454-7.163 1.83-2.513.387-6.472.333-6.886-2.893a6.63 6.63 0 0 0 1.655 4.324c4.111 4.735 9.461 1.018 14.476 1.702 2.184.299 6.341 2.611 7.993.746" fill="#BA1918"/>
    </g>
    <path clip-rule="evenodd" d="M144.697 85.232c3.112-9.2-5.556-16.959-5.025-29.594.681-16.192 13.075-20.895 23.032-19.489 9.525 1.345 18.396 10.564 15.376 24.145-3.053 13.73-14.887 13.287-14.49 19.528.128 2.009 1.357 3.44 3.156 4.367 4.035 2.076 6.489 1.537 10.45.022 2.756-1.055 8.77-4.545 11.608-.664 2.693 3.683-2.463 7.86-5.102 5.077-.419-.441-.732-1.059-.713-1.685-2.817 1.427-5.033 3.678-7.66 5.39-.893.58-1.795 1.1-2.707 1.506 2.44.655 6.279 1.275 8.215 3.938 2.185 3.005-.689 7.08-4.14 6.416-1.51-.29-2.367-1.677-1.934-3.169.115-.398.375-.777.686-1.052a2.473 2.473 0 0 1 .379-.274c-.072-.166-.355-.337-.494-.43-2.022-1.364-13.123 2.496-18.208-3.688-2.016-.07-5.887 2.13-5.965 2.17 1.702.213 2.541.063 6.501.62 2.417.34 5.578 2.053 7.134 4.023.498.63.964 1.499.644 2.303-.609 1.53-1.799-2.781-7.961-2.333-5.102.371-12.107 4.468-15.383-1.413-7.175 2.19-14.356-1.66-12.548-9.921 1.004-4.585 4.666-7.32 7.236-11.018 1.758-2.53 2.748-5.115 3.278-8.113 1.327 1.74 2.514 4.339-.76 10.63-1.298 2.492-4.82 8.535-2.47 10.597 1.968 1.726 5.75-1.638 7.865-7.89z" stroke="#020203" stroke-width=".531" stroke-linecap="round" stroke-linejoin="round"/>
    <path fill-rule="evenodd" clip-rule="evenodd" d="M183.199 86.944c.026-.99.657-1.728 1.445-1.973.246-.076.507-.105.771-.08.17.015.341.05.511.111.201.072.4.172.593.312.176.127.348.279.511.467a.09.09 0 0 0 .126.02.089.089 0 0 0 .019-.126 2.874 2.874 0 0 0-.585-.684 2.3 2.3 0 0 0-.523-.33 2.147 2.147 0 0 0-.604-.176 2.223 2.223 0 0 0-.945.077c-.952.286-1.713 1.18-1.741 2.372a.211.211 0 0 0 .422.01" fill="#020203"/>
    <path fill-rule="evenodd" clip-rule="evenodd" d="M175.937 99.879c.207-.16.65-.324 1.113-.331.364-.006.746.086 1.034.39.142.136.263.307.306.516a.989.989 0 0 1-.076.628c-.025.044-.01.1.034.126.044.025.101.01.126-.034a1.19 1.19 0 0 0 .25-.76c-.012-.295-.157-.551-.331-.76-.372-.408-.869-.554-1.349-.548-.575.006-1.118.235-1.373.435a.213.213 0 0 0-.037.301c.073.093.209.11.303.037" fill="#000"/>
    <path fill-rule="evenodd" clip-rule="evenodd" d="M159.607 50.847a6.336 6.336 0 0 0-1.285 1.04 6.774 6.774 0 0 0-1.233 1.82 8.494 8.494 0 0 0-.548 1.55.043.043 0 0 0 .03.054.044.044 0 0 0 .054-.03c.146-.468.355-.978.627-1.493a9.892 9.892 0 0 1 .554-.924c.196-.292.412-.58.653-.854a6.502 6.502 0 0 1 1.2-1.083.048.048 0 0 0 .014-.066.048.048 0 0 0-.066-.014M164.386 50.895c.295.147.576.33.842.536.174.134.34.28.498.434a5.622 5.622 0 0 1 .451.481 4 4 0 0 1 .541.831c.01.022.035.033.058.023a.044.044 0 0 0 .023-.057 3.884 3.884 0 0 0-.734-1.23 3.583 3.583 0 0 0-.191-.2 4.191 4.191 0 0 0-.538-.43 4.736 4.736 0 0 0-.911-.474.048.048 0 0 0-.063.024.047.047 0 0 0 .024.062" fill="#020203"/>
    <path fill-rule="evenodd" clip-rule="evenodd" d="M163.253 50.856c1.842.34 3.61 1.508 4.742 2.621.777.765-.224 1.087-.287 2.651-.078 1.91-6.928-5.73-4.455-5.272M168.439 50.175a6.249 6.249 0 0 0-.747-2.218A5.314 5.314 0 0 0 166 46.173a4.7 4.7 0 0 0-1.708-.618 5.064 5.064 0 0 0-1.769.071c-1.181.255-2.248.852-2.963 1.618a.307.307 0 0 0-.031.435.312.312 0 0 0 .438.03c.725-.505 1.706-.772 2.722-.818.453-.02.907.03 1.357.117.425.083.848.197 1.237.412a4.369 4.369 0 0 1 1.478 1.172 5.904 5.904 0 0 1 1.021 1.742.339.339 0 0 0 .657-.16" fill="#020203"/>
    <path fill-rule="evenodd" clip-rule="evenodd" d="M163.776 51.115c2.912.903 4.451 4.264 3.435 7.5-1.017 3.237-4.207 5.132-7.119 4.23-2.912-.903-4.452-4.264-3.435-7.5 1.016-3.237 4.206-5.132 7.119-4.23" fill="#ECEAE9"/>
    <mask id="q" style="mask-type:alpha" maskUnits="userSpaceOnUse" x="156" y="50" width="12" height="14">
        <path fill-rule="evenodd" clip-rule="evenodd" d="M156.655 55.349c-1.017 3.236.523 6.597 3.435 7.5 2.913.902 6.102-.993 7.119-4.23 1.016-3.237-.523-6.597-3.435-7.5a5.013 5.013 0 0 0-1.486-.224c-2.441 0-4.788 1.763-5.633 4.453" fill="#fff"/>
    </mask>
    <g mask="url(#q)">
        <path fill-rule="evenodd" clip-rule="evenodd" d="M160.682 52.91c2.533-.157 4.695 2.1 4.825 5.036.13 2.938-1.821 5.45-4.354 5.608-2.532.158-4.694-2.099-4.825-5.036-.129-2.938 1.821-5.45 4.354-5.608" fill="#020203"/>
    </g>
    <mask id="r" style="mask-type:alpha" maskUnits="userSpaceOnUse" x="156" y="50" width="12" height="14">
        <path fill-rule="evenodd" clip-rule="evenodd" d="M156.655 55.349c-1.017 3.236.523 6.597 3.435 7.5 2.913.902 6.102-.993 7.119-4.23 1.016-3.237-.523-6.597-3.435-7.5a5.013 5.013 0 0 0-1.486-.224c-2.441 0-4.788 1.763-5.633 4.453" fill="#fff"/>
    </mask>
    <g mask="url(#r)">
        <path fill-rule="evenodd" clip-rule="evenodd" d="M157.539 59.146c.341 2.12 1.692 3.113 3.101 3.31.415.06.843.038 1.255-.052a3.863 3.863 0 0 0 1.665-.812c1.014-.855 1.625-2.232 1.164-3.874a.55.55 0 0 0-1.071.241c.166.95-.162 1.713-.692 2.249-.378.38-.873.622-1.389.742-1.202.278-2.551-.228-3.022-2.019a.517.517 0 0 0-1.011.215" fill="#8F1913"/>
    </g>
    <mask id="s" style="mask-type:alpha" maskUnits="userSpaceOnUse" x="156" y="50" width="12" height="14">
        <path fill-rule="evenodd" clip-rule="evenodd" d="M156.655 55.349c-1.017 3.236.523 6.597 3.435 7.5 2.913.902 6.102-.993 7.119-4.23 1.016-3.237-.523-6.597-3.435-7.5a5.013 5.013 0 0 0-1.486-.224c-2.441 0-4.788 1.763-5.633 4.453" fill="#fff"/>
    </mask>
    <g mask="url(#s)">
        <path fill-rule="evenodd" clip-rule="evenodd" d="M158.663 54.202c.356-.398.91-.51 1.236-.248.326.262.302.797-.054 1.195-.357.398-.911.51-1.237.248-.326-.262-.301-.797.055-1.195" fill="#FEFEFE"/>
    </g>
    <mask id="t" style="mask-type:alpha" maskUnits="userSpaceOnUse" x="156" y="50" width="12" height="14">
        <path fill-rule="evenodd" clip-rule="evenodd" d="M156.655 55.349c-1.017 3.236.523 6.597 3.435 7.5 2.913.902 6.102-.993 7.119-4.23 1.016-3.237-.523-6.597-3.435-7.5a5.013 5.013 0 0 0-1.486-.224c-2.441 0-4.788 1.763-5.633 4.453" fill="#fff"/>
    </mask>
    <g mask="url(#t)">
        <path fill-rule="evenodd" clip-rule="evenodd" d="M162.519 60.376c.185-.285.503-.42.71-.301.206.118.224.447.039.732s-.503.42-.71.301c-.207-.118-.224-.447-.039-.732" fill="#FEFEFE"/>
    </g>
    <path fill-rule="evenodd" clip-rule="evenodd" d="M163.813 50.997c-1.546-.484-3.171-.199-4.524.65-1.255.788-2.276 2.062-2.781 3.655-.507 1.596-.404 3.224.171 4.586.623 1.477 1.801 2.643 3.358 3.13 1.561.488 3.201.2 4.566-.658 1.264-.794 2.292-2.077 2.8-3.682.508-1.608.406-3.248-.178-4.617a5.65 5.65 0 0 0-1.015-1.595 5.13 5.13 0 0 0-2.395-1.476l-.002.007zm-.078.249a4.956 4.956 0 0 1 2.175 1.483c.381.44.696.943.929 1.492.545 1.288.651 2.824.179 4.336-.472 1.513-1.433 2.727-2.619 3.48-1.269.806-2.796 1.086-4.253.638-1.461-.449-2.565-1.538-3.156-2.918-.554-1.294-.659-2.843-.185-4.365.474-1.526 1.442-2.75 2.637-3.509 1.281-.815 2.824-1.096 4.295-.645l-.002.008zM141.614 49.608a6.345 6.345 0 0 1 1.519-1.42c.119-.08.241-.155.367-.223.315-.17.651-.302 1.01-.37a.042.042 0 0 0 .036-.05.043.043 0 0 0-.049-.037 3.496 3.496 0 0 0-1.476.506 3.243 3.243 0 0 0-.249.168 4.504 4.504 0 0 0-.558.495 5.69 5.69 0 0 0-.678.877.047.047 0 0 0 .012.066c.022.014.051.009.066-.012M147.057 48.65c.145.208.268.432.377.666.072.153.137.31.197.47a15.617 15.617 0 0 1 .248.724 13.08 13.08 0 0 1 .296 1.117c.004.024.026.04.05.036a.043.043 0 0 0 .036-.05 9.391 9.391 0 0 0-.149-.965 6.312 6.312 0 0 0-.094-.38 4.954 4.954 0 0 0-.339-.854 4.224 4.224 0 0 0-.547-.821.048.048 0 0 0-.067-.009.048.048 0 0 0-.008.067" fill="#020203"/>
    <path fill-rule="evenodd" clip-rule="evenodd" d="M145.474 48.175c-1.269-.348-2.702-.056-3.972.457-1.387.561.043.454-.812 2.632-.698 1.78 7.208-2.425 4.784-3.09M150.106 46.125a6.16 6.16 0 0 0-1.097-1.903 4.69 4.69 0 0 0-1.931-1.33 3.757 3.757 0 0 0-1.37-.182 4.262 4.262 0 0 0-1.895.607c-.926.554-1.666 1.393-2.075 2.305a.307.307 0 0 0 .11.422.312.312 0 0 0 .425-.108c.501-.658 1.265-1.163 2.1-1.477.38-.143.775-.215 1.175-.252.373-.034.751-.035 1.125.07.575.119 1.092.393 1.544.754.508.406.952.878 1.282 1.39a.339.339 0 0 0 .452.154.335.335 0 0 0 .155-.45" fill="#020203"/>
    <path fill-rule="evenodd" clip-rule="evenodd" d="M145.312 48.244c2.159.406 3.44 3.213 2.86 6.266-.581 3.052-2.805 5.202-4.964 4.797-2.159-.405-3.44-3.213-2.859-6.265.58-3.053 2.804-5.203 4.963-4.798" fill="#ECEAE9"/>
    <mask id="u" style="mask-type:alpha" maskUnits="userSpaceOnUse" x="140" y="48" width="9" height="12">
        <path fill-rule="evenodd" clip-rule="evenodd" d="M140.349 53.042c-.581 3.052.7 5.86 2.859 6.265 2.159.405 4.383-1.745 4.964-4.797.58-3.053-.701-5.86-2.86-6.266a2.859 2.859 0 0 0-.528-.049c-1.982 0-3.902 2.042-4.435 4.847" fill="#fff"/>
    </mask>
    <g mask="url(#u)">
        <path fill-rule="evenodd" clip-rule="evenodd" d="M145.626 49.945c1.962.23 3.213 2.513 2.791 5.094-.422 2.58-2.358 4.487-4.32 4.256-1.962-.232-3.213-2.514-2.79-5.095.421-2.58 2.357-4.487 4.319-4.255" fill="#020203"/>
    </g>
    <mask id="v" style="mask-type:alpha" maskUnits="userSpaceOnUse" x="141" y="49" width="8" height="11">
        <path fill-rule="evenodd" clip-rule="evenodd" d="M141.307 54.204c-.423 2.58.828 4.863 2.79 5.094.05.006.1.01.149.014 1.793-.313 3.438-2.24 3.925-4.801a7.703 7.703 0 0 0 .123-1.967c-.406-1.416-1.385-2.444-2.668-2.595a2.75 2.75 0 0 0-.324-.02c-1.847 0-3.597 1.838-3.995 4.275" fill="#fff"/>
    </mask>
    <g mask="url(#v)">
        <path fill-rule="evenodd" clip-rule="evenodd" d="M142.197 54.413c-.612 2.254.482 3.722 1.917 4.22a3.25 3.25 0 0 0 1.318.161 3.69 3.69 0 0 0 1.814-.65c.953-.661 1.757-1.827 1.997-3.557a.55.55 0 0 0-1.08-.2c-.212.876-.599 1.532-1.049 2.019a2.783 2.783 0 0 1-1.802.904c-1.278.115-2.422-.833-2.104-2.68a.518.518 0 0 0-1.011-.218" fill="#8F1913"/>
    </g>
    <mask id="w" style="mask-type:alpha" maskUnits="userSpaceOnUse" x="140" y="48" width="9" height="12">
        <path fill-rule="evenodd" clip-rule="evenodd" d="M140.349 53.042c-.581 3.052.7 5.86 2.859 6.265 2.159.405 4.383-1.745 4.964-4.797.58-3.053-.701-5.86-2.86-6.266a2.859 2.859 0 0 0-.528-.049c-1.982 0-3.902 2.042-4.435 4.847" fill="#fff"/>
    </mask>
    <g mask="url(#w)">
        <path fill-rule="evenodd" clip-rule="evenodd" d="M142.901 51.343c.353-.345.877-.41 1.169-.144.293.267.243.763-.11 1.109-.353.345-.877.41-1.17.143-.292-.266-.243-.763.111-1.108" fill="#FEFEFE"/>
    </g>
    <mask id="x" style="mask-type:alpha" maskUnits="userSpaceOnUse" x="140" y="48" width="9" height="12">
        <path fill-rule="evenodd" clip-rule="evenodd" d="M140.349 53.042c-.581 3.052.7 5.86 2.859 6.265 2.159.405 4.383-1.745 4.964-4.797.58-3.053-.701-5.86-2.86-6.266a2.859 2.859 0 0 0-.528-.049c-1.982 0-3.902 2.042-4.435 4.847" fill="#fff"/>
    </mask>
    <g mask="url(#x)">
        <path fill-rule="evenodd" clip-rule="evenodd" d="M145.291 57.381c.197-.229.518-.318.717-.2.199.119.201.4.004.63-.196.228-.518.318-.717.2-.199-.119-.201-.4-.004-.63" fill="#FEFEFE"/>
    </g>
    <path fill-rule="evenodd" clip-rule="evenodd" d="M145.331 48.138c-1.014-.213-2.057.117-2.95.844-.566.46-1.07 1.082-1.467 1.82a7.744 7.744 0 0 0-.767 2.199c-.322 1.718-.069 3.358.587 4.56.558 1.022 1.407 1.728 2.44 1.918 1.03.188 2.073-.168 2.959-.922 1.039-.884 1.861-2.317 2.177-4.025.314-1.701.061-3.325-.591-4.513-.548-1-1.378-1.692-2.389-1.877l.001-.004zm-.038.201c.947.184 1.715.847 2.219 1.79.616 1.151.839 2.717.519 4.351-.259 1.328-.835 2.48-1.582 3.314-.907 1.012-2.067 1.554-3.208 1.335-.926-.178-1.674-.828-2.169-1.749-.611-1.137-.836-2.686-.523-4.304a7.53 7.53 0 0 1 .719-2.09c.363-.698.82-1.292 1.337-1.743.801-.7 1.742-1.055 2.687-.9l.001-.004z" fill="#020203"/>
    <path fill-rule="evenodd" clip-rule="evenodd" d="M149.42 73.274c4.273-3.594 3.055-8.439 2.314-9.653-.697-1.142-2.597-1.598-3.522-.471-1.049 1.279-.341 2.165-.937 5.102-.364 1.796-1.453 2.91-1.505 4.186-.083 2.008 2.382 1.903 3.65.836" fill="#000"/>
    <mask id="y" style="mask-type:alpha" maskUnits="userSpaceOnUse" x="145" y="62" width="8" height="13">
        <path fill-rule="evenodd" clip-rule="evenodd" d="M148.214 63.154c-1.049 1.279-.341 2.165-.937 5.101-.364 1.797-1.453 2.91-1.505 4.186-.083 2.009 2.382 1.903 3.65.837 4.273-3.594 3.055-8.439 2.314-9.653-.417-.683-1.265-1.121-2.077-1.121-.545 0-1.074.197-1.445.65" fill="#fff"/>
    </mask>
    <g mask="url(#y)">
        <path fill-rule="evenodd" clip-rule="evenodd" d="M146.014 75.31c.898-3.126 3.63-5.424 6.778-6.107.637-.138 1.33-.303 1.987-.212-.248 2.833-2.379 4.855-4.945 5.917-.815.337-2.939.813-3.82.403" fill="#ED7483"/>
    </g>
    <path fill-rule="evenodd" clip-rule="evenodd" d="M149.56 73.444c1.689-1.423 2.539-3.037 2.903-4.553.583-2.425-.081-4.603-.551-5.37-.377-.618-1.077-1.054-1.81-1.181-.753-.131-1.536.06-2.049.687a2.72 2.72 0 0 0-.648 1.542c-.093.82.037 1.846-.328 3.65-.277 1.369-.981 2.337-1.315 3.288a3.158 3.158 0 0 0-.191.929c-.039.947.431 1.474 1.086 1.686.868.28 2.098-.027 2.89-.693l.013.015zm-.266-.313c-.691.58-1.759.862-2.514.617-.499-.163-.842-.575-.812-1.297a2.78 2.78 0 0 1 .172-.814c.34-.965 1.05-1.95 1.334-3.34.37-1.82.243-2.856.337-3.684a2.36 2.36 0 0 1 .56-1.329c.415-.505 1.052-.646 1.659-.54.617.108 1.209.47 1.526.99.441.724 1.046 2.776.494 5.058-.348 1.441-1.161 2.973-2.769 4.324l.013.015z" fill="#000"/>
    <path fill-rule="evenodd" clip-rule="evenodd" d="M177.066 64.233c1.86-12.64-19.441-22.677-32.55-22.536 14.563-15.074 42.762-.61 32.55 22.536" fill="#FEFEFE"/>
    <path fill-rule="evenodd" clip-rule="evenodd" d="M154.367 41.74c-1.803-.418-3.778-.766-5.734-1.052l3.856-4.336c1.82.254 3.591.601 5.315 1.041-1.1 1.416-2.222 2.784-3.437 4.347" fill="#75151E"/>
    <path fill-rule="evenodd" clip-rule="evenodd" d="M159.508 41.494c-.327.087-.637.084-.896-.008-.622-.22-.723-.872-.249-1.486.464-.601 1.305-.912 1.932-.703.26.086.444.25.531.471l.005.011.823-.284a.077.077 0 0 1-.005-.014c-.13-.381-.446-.67-.883-.813-1.018-.33-2.405.167-3.126 1.099-.747.965-.573 2.044.432 2.406.436.157.983.153 1.541-.013l.019-.006c-.035-.223-.07-.445-.107-.664l-.017.004m.502 1.27.696.276c.89-1.16 1.737-2.288 2.537-3.383-.23-.087-.46-.173-.691-.257-.8 1.088-1.649 2.21-2.542 3.364m4.385.184c.021-.05.383-2.69.37-2.694a44.994 44.994 0 0 0-.672-.275 179.113 179.113 0 0 1-2.53 3.405c.233.098.465.197.696.298.531-.704 1.047-1.398 1.548-2.081a108.01 108.01 0 0 1-.371 2.65c.001-.005 2.619-1.506 2.733-1.566a219.57 219.57 0 0 1-1.517 2.107c.231.115.463.231.694.35a204.494 204.494 0 0 0 2.459-3.484c-.22-.112-.44-.222-.661-.33.001-.004-2.69 1.58-2.749 1.62m3.582 2.734c-.224-.13-.448-.258-.673-.383.196-.28.389-.559.581-.837.223.125.445.253.667.382.312.183.277.464.14.664-.139.204-.4.356-.715.174m.866-2.617c.206.117.411.235.616.355.258.151.317.386.158.624-.16.238-.411.288-.671.136-.206-.12-.413-.24-.621-.356.175-.254.347-.507.518-.758m.597 1.83c.208.005.611-.082.868-.471.395-.596.249-1.218-.386-1.595-.442-.26-.886-.51-1.334-.751a205.556 205.556 0 0 1-2.436 3.495c.482.257.961.523 1.439.8.654.375 1.329.224 1.762-.418.319-.475.201-.86.087-1.06" fill="#7C1710"/>
    <path fill-rule="evenodd" clip-rule="evenodd" d="M152.55 37.137a48.8 48.8 0 0 1 2.867.531c.107.556.211 1.13.312 1.721-.892.403-1.803.819-2.734 1.248a48.209 48.209 0 0 0-3.005-.577c.917-.46 1.814-.905 2.692-1.338-.041-.544-.085-1.072-.132-1.585" fill="#E5292B"/>
    <path fill-rule="evenodd" clip-rule="evenodd" d="M155.728 39.39a83.81 83.81 0 0 0-.312-1.722 48.8 48.8 0 0 0-2.867-.531c.047.513.091 1.041.133 1.585" fill="#FEFEFE"/>
    <mask id="z" style="mask-type:alpha" maskUnits="userSpaceOnUse" x="144" y="35" width="36" height="30">
        <path fill-rule="evenodd" clip-rule="evenodd" d="M144.516 41.697c13.109-.141 34.41 9.896 32.55 22.536 7.317-16.584-5.083-28.71-18.06-28.71-5.135 0-10.362 1.9-14.49 6.174" fill="#fff"/>
    </mask>
    <g mask="url(#z)">
        <path fill-rule="evenodd" clip-rule="evenodd" d="M177.933 64.198c4.559-7.06 3.291-15.332.04-19.618-.995-1.312-3.029-3.978-5.214-5.514 2.96 3.715-.347 12.81-3.005 13.96 1.458 4.335 4.452 8.548 8.179 11.172" fill="#C7C5C5"/>
    </g>
    <path clip-rule="evenodd" d="M177.066 64.233c1.86-12.64-19.441-22.677-32.55-22.536 14.563-15.074 42.762-.61 32.55 22.536z" stroke="#020203" stroke-width=".531" stroke-linecap="round" stroke-linejoin="round"/>
    <path fill-rule="evenodd" clip-rule="evenodd" d="M170.331 50.853c1.345-2.776 2.275-5.217 2.408-7.271.061-.943-.04-1.807-.348-2.582a4.28 4.28 0 0 0-.357-.708 5.088 5.088 0 0 0-1.242-1.337.11.11 0 0 0-.154.014.108.108 0 0 0 .014.154c.258.232.479.476.674.73.309.4.538.829.703 1.284.265.732.358 1.536.296 2.417-.142 2.012-1.054 4.4-2.374 7.117a.208.208 0 0 0 .098.28c.105.05.231.006.282-.098" fill="#020203"/>
    <path fill-rule="evenodd" clip-rule="evenodd" d="M172.047 52.43c-5.098.776-12.085-5.738-20.129-8.784-7.252-2.746-11.739-1.894-13.01-1.34 8.988-3.292 26.443 3.405 33.139 10.124" fill="#FEFEFE"/>
    <mask id="A" style="mask-type:alpha" maskUnits="userSpaceOnUse" x="138" y="41" width="35" height="12">
        <path fill-rule="evenodd" clip-rule="evenodd" d="M139.684 42.053c1.887-.475 6.058-.746 12.234 1.593 8.044 3.046 15.031 9.56 20.129 8.784-5.483-5.502-18.179-10.989-27.534-10.989-1.749 0-3.382.192-4.829.612m-.776.254c.253-.093.511-.177.777-.254a5.098 5.098 0 0 0-.777.254" fill="#fff"/>
    </mask>
    <g mask="url(#A)">
        <path fill-rule="evenodd" clip-rule="evenodd" d="M156.332 46.926c4.279 1.28 8.604 2.508 13.067 2.534 1.547.01 2.803 1.727 3.975 2.85-5.713 2.36-12.538-1.527-17.042-5.384" fill="#C8C6C5"/>
    </g>
    <path clip-rule="evenodd" d="M172.045 52.43c-5.098.776-12.085-5.738-20.129-8.784-7.252-2.746-11.738-1.894-13.01-1.34 8.988-3.292 26.443 3.405 33.139 10.124z" stroke="#020203" stroke-width=".531" stroke-linecap="round" stroke-linejoin="round"/>
    <path fill-rule="evenodd" clip-rule="evenodd" d="M142.3 100.882c-.643-1.987-.402-3.573.314-4.953.643-1.24 1.663-2.313 2.763-3.361.711-.677 1.458-1.342 2.158-2.034.479-.473.938-.957 1.349-1.467.641-.795 1.164-1.648 1.498-2.588a.102.102 0 0 0-.059-.132.104.104 0 0 0-.134.059c-.37.894-.93 1.686-1.579 2.435-.42.485-.878.952-1.354 1.41-.889.855-1.838 1.68-2.704 2.534-.929.917-1.759 1.874-2.319 2.949-.765 1.47-1.029 3.16-.344 5.279a.215.215 0 0 0 .272.138.213.213 0 0 0 .139-.269M151.158 97.534c-.491.007-1.583-.165-2.327-.719a2.01 2.01 0 0 1-.728-1c-.03-.101-.057-.205-.071-.319a.103.103 0 0 0-.104-.102.104.104 0 0 0-.103.104 1.88 1.88 0 0 0 .008.464c.024.163.071.315.138.456.136.289.355.526.606.723.813.639 2.038.826 2.586.822a.214.214 0 1 0-.005-.428M172.69 93.635c-1.168-.395-2.904-.669-4.856-1.324a17.467 17.467 0 0 1-3.03-1.33 5.73 5.73 0 0 1-1.061-.77 5.878 5.878 0 0 1-.602-.637c-.468-.576-.817-1.24-.909-1.957a.103.103 0 0 0-.206.019c.046.772.36 1.515.829 2.156.184.252.394.487.619.702.349.334.736.617 1.127.841a17.714 17.714 0 0 0 3.096 1.377c1.949.662 3.686.933 4.854 1.329a.217.217 0 0 0 .274-.134.215.215 0 0 0-.135-.272M157.301 95.456a7.437 7.437 0 0 1-.93-1.768c-.199-.533-.343-1.115-.47-1.75l-.097-.48c-.047-.234-.099-.472-.142-.723a.103.103 0 0 0-.206.017c-.002.141-.004.279-.001.416.005.215.015.422.036.625a9.06 9.06 0 0 0 .316 1.539 7.865 7.865 0 0 0 1.142 2.373c.069.096.203.119.301.05a.214.214 0 0 0 .051-.299M124.086 91.664c-.586-1.618-1.92-1.93-2.971-1.52a2.384 2.384 0 0 0-.915.631c-.166.187-.301.4-.39.635a1.848 1.848 0 0 0-.123.728c.012.329.111.673.321 1.02a.072.072 0 0 0 .129-.065 2.112 2.112 0 0 1-.155-.631c-.031-.335.034-.64.164-.912.066-.14.151-.27.249-.389.228-.279.534-.495.873-.623.863-.324 1.935-.051 2.411 1.27.041.112.164.17.276.13a.215.215 0 0 0 .131-.274M146.118 75.417c.103.093.201.17.309.238a1.517 1.517 0 0 0 .513.196c.075.013.151.018.227.019.111.001.222-.006.335-.021.255-.037.509-.107.785-.196a.072.072 0 0 0 .058-.083.072.072 0 0 0-.084-.058c-.307.017-.582.01-.851-.017-.122-.012-.239-.034-.358-.055-.077-.014-.155-.026-.233-.041-.097-.02-.194-.036-.295-.063-.1-.026-.198-.048-.303-.087a.1.1 0 0 0-.136.032.097.097 0 0 0 .033.136" fill="#000"/>
    <path fill-rule="evenodd" clip-rule="evenodd" d="M141.43 69.493c-.371 3.669-1.582 8.69-4.034 11.56-.218.254-.465.546-.803.639-1.168.32-4.571-1.232-4.538-2.735.021-.962 1.509-2.356 2.061-3.13 1.358-1.905 4.343-5.195 1.757-6.538l5.557.204z" fill="#75151E"/>
    <mask id="B" style="mask-type:alpha" maskUnits="userSpaceOnUse" x="132" y="69" width="10" height="13">
        <path fill-rule="evenodd" clip-rule="evenodd" d="M134.118 75.823c-.552.774-2.04 2.168-2.061 3.13-.033 1.503 3.37 3.055 4.538 2.735.338-.093.585-.385.803-.64 2.452-2.868 3.663-7.89 4.034-11.559l-5.557-.204c2.586 1.343-.399 4.633-1.757 6.538" fill="#fff"/>
    </mask>
    <g mask="url(#B)">
        <path fill-rule="evenodd" clip-rule="evenodd" d="M131.65 78.709c1.44 2.168 4.343 2.58 5.665.195.66-1.19.903-2.544 1.201-3.868.583-2.593.324-3.413-2.34-4.064.011-.998-.108-2.094.284-3.039 1.681-.114 4.226-.396 5.631.727 2.632 2.104.984 8.717-.293 11.11-.784 1.468-1.937 2.882-3.392 3.732-.863.505-2.12 1.02-3.158.938-2.479-.195-4.161-3.198-3.598-5.731" fill="#C8C6C5"/>
    </g>
    <mask id="C" style="mask-type:alpha" maskUnits="userSpaceOnUse" x="132" y="69" width="10" height="13">
        <path fill-rule="evenodd" clip-rule="evenodd" d="M134.118 75.823c-.552.774-2.04 2.168-2.061 3.13-.033 1.503 3.37 3.055 4.538 2.735.338-.093.585-.385.803-.64 2.452-2.868 3.663-7.89 4.034-11.559l-5.557-.204c2.586 1.343-.399 4.633-1.757 6.538" fill="#fff"/>
    </mask>
    <g mask="url(#C)">
        <path fill-rule="evenodd" clip-rule="evenodd" d="M136.804 71.477c-.026 3.208 1.527 4.517.561 6.096-.424.693-1.366.76-2.076.56-1.272-.359-1.871-1.551-1.896-2.785.835-.76 2.553-3.136 3.411-3.871" fill="#C8C6C5"/>
    </g>
    <path clip-rule="evenodd" d="M141.432 69.49c-.371 3.668-1.582 8.69-4.034 11.559-.218.254-.465.546-.803.639-1.168.32-4.571-1.232-4.538-2.735.021-.962 1.509-2.356 2.061-3.13 1.358-1.905 4.343-5.195 1.757-6.538l5.557.204z" stroke="#000" stroke-width=".544" stroke-linecap="round" stroke-linejoin="round"/>
    <path fill-rule="evenodd" clip-rule="evenodd" d="M132.686 74.64c.416 1.84 2.279 3.147 3.699 2.194 1.322-.887-.164-3.209.52-6.02-1.715-.566-4.909.774-4.219 3.827" fill="#E52B31"/>
    <path fill-rule="evenodd" clip-rule="evenodd" d="M132.476 74.692c.254 1.119 1.015 2.05 1.899 2.454.69.316 1.454.319 2.128-.135.426-.286.606-.698.65-1.22.047-.552-.066-1.239-.152-2.023-.094-.862-.154-1.846.102-2.902a.201.201 0 0 0-.134-.239c-.985-.324-2.431-.062-3.431.768-.847.704-1.38 1.807-1.043 3.292l-.019.005zm4.19-3.732c-.864-.206-2.039.052-2.87.74-.749.618-1.212 1.592-.917 2.902l.019-.004c.182.808.661 1.508 1.256 1.931.647.46 1.437.59 2.115.136.316-.211.436-.523.469-.908.046-.531-.065-1.191-.146-1.945-.092-.851-.147-1.817.074-2.852z" fill="#020203"/>
    <path fill-rule="evenodd" clip-rule="evenodd" d="M124.349 74.005c6.534-4.08 13.723-5.098 21.375-3.803 2.452.415 3.685-4.902.978-5.463-5.271-1.093-15.312-6.149-19.066-11.217-1.461-1.972-4.088 2.578-4.414 3.46-1.462 3.95-2.164 9.307-1.826 13.498.082 1.008.749 4.901 2.953 3.525" fill="#A5D2D9"/>
    <mask id="D" style="mask-type:alpha" maskUnits="userSpaceOnUse" x="121" y="53" width="28" height="22">
        <path fill-rule="evenodd" clip-rule="evenodd" d="M123.224 56.982c-1.462 3.95-2.164 9.307-1.826 13.498.082 1.008.749 4.901 2.953 3.525 6.534-4.08 13.723-5.097 21.375-3.803 2.452.415 3.685-4.902.978-5.463-5.271-1.093-15.313-6.149-19.066-11.217-.256-.346-.548-.49-.856-.49-1.454 0-3.289 3.223-3.558 3.95" fill="#fff"/>
    </mask>
    <g mask="url(#D)">
        <path fill-rule="evenodd" clip-rule="evenodd" d="M142.284 63.342c2.074.886.892 6.454-1.282 6.36 2.224.411 3.986 1.965 6.237 2.204 2.66.283 2.682-6.57.936-8.663-1.891-.105-4.016.344-5.891.099" fill="#75151E"/>
    </g>
    <mask id="E" style="mask-type:alpha" maskUnits="userSpaceOnUse" x="121" y="53" width="28" height="22">
        <path fill-rule="evenodd" clip-rule="evenodd" d="M123.224 56.982c-1.462 3.95-2.164 9.307-1.826 13.498.082 1.008.749 4.901 2.953 3.525 6.534-4.08 13.723-5.097 21.375-3.803 2.452.415 3.685-4.902.978-5.463-5.271-1.093-15.313-6.149-19.066-11.217-.256-.346-.548-.49-.856-.49-1.454 0-3.289 3.223-3.558 3.95z" fill="#fff"/>
    </mask>
    <g mask="url(#E)">
        <path clip-rule="evenodd" d="M142.284 63.342c2.074.886.892 6.454-1.282 6.36 2.224.411 3.986 1.965 6.237 2.204 2.66.283 2.682-6.57.936-8.663-1.891-.105-4.016.344-5.891.099z" stroke="#000" stroke-width=".544" stroke-linecap="round" stroke-linejoin="round"/>
    </g>
    <mask id="F" style="mask-type:alpha" maskUnits="userSpaceOnUse" x="121" y="53" width="28" height="22">
        <path fill-rule="evenodd" clip-rule="evenodd" d="M123.224 56.982c-1.462 3.95-2.164 9.307-1.826 13.498.082 1.008.749 4.901 2.953 3.525 6.534-4.08 13.723-5.097 21.375-3.803 2.452.415 3.685-4.902.978-5.463-5.271-1.093-15.313-6.149-19.066-11.217-.256-.346-.548-.49-.856-.49-1.454 0-3.289 3.223-3.558 3.95z" fill="#fff"/>
    </mask>
    <g mask="url(#F)">
        <path fill-rule="evenodd" clip-rule="evenodd" d="M123.517 69.133c8.056-3.145 17.902-2.527 26.085-.036-1.186 2.956-4.686 3.485-7.436 4.337-5.214 1.614-14.79 5.31-20.441 4.047l1.792-8.348z" fill="#C8C6C5"/>
    </g>
    <path fill-rule="evenodd" clip-rule="evenodd" d="M141.392 69.497c-.37 3.665-1.581 8.682-4.031 11.549-.217.254-.464.545-.801.638-1.168.32-4.567-1.23-4.534-2.733.021-.96 1.507-2.353 2.059-3.127 1.356-1.902 4.339-5.19 1.755-6.531l5.552.204z" fill="#75151E"/>
    <mask id="G" style="mask-type:alpha" maskUnits="userSpaceOnUse" x="132" y="69" width="10" height="13">
        <path fill-rule="evenodd" clip-rule="evenodd" d="M134.085 75.824c-.552.774-2.038 2.167-2.059 3.127-.033 1.502 3.367 3.053 4.534 2.733.337-.093.584-.384.801-.638 2.45-2.867 3.661-7.884 4.031-11.55l-5.552-.203c2.584 1.341-.399 4.629-1.755 6.531" fill="#fff"/>
    </mask>
    <g mask="url(#G)">
        <path fill-rule="evenodd" clip-rule="evenodd" d="M131.619 78.707c1.439 2.166 4.338 2.578 5.66.194.658-1.188.902-2.541 1.199-3.864.582-2.59.324-3.41-2.338-4.06.011-.998-.107-2.092.284-3.036 1.679-.114 4.223-.396 5.626.726 2.63 2.102.983 8.709-.293 11.099-.783 1.467-1.936 2.88-3.389 3.73-.862.504-2.118 1.018-3.155.936-2.477-.194-4.157-3.195-3.594-5.725" fill="#612322"/>
    </g>
    <path clip-rule="evenodd" d="M141.392 69.497c-.37 3.665-1.581 8.682-4.031 11.549-.217.254-.464.545-.801.638-1.168.32-4.567-1.23-4.534-2.733.021-.96 1.507-2.353 2.059-3.127 1.356-1.902 4.339-5.19 1.755-6.531l5.552.204z" stroke="#000" stroke-width=".562" stroke-linecap="round" stroke-linejoin="round"/>
    <path fill-rule="evenodd" clip-rule="evenodd" d="M124.324 74.005c6.529-4.077 13.711-5.093 21.356-3.8 2.449.415 3.681-4.897.977-5.458-5.266-1.091-15.298-6.142-19.049-11.206-1.459-1.97-4.084 2.576-4.409 3.457-1.461 3.946-2.163 9.298-1.824 13.485.081 1.008.747 4.897 2.949 3.522" fill="#A5D2D9"/>
    <path fill-rule="evenodd" clip-rule="evenodd" d="M142.751 65.733c.119.036.229.09.347.128l.009.003a4.45 4.45 0 0 0-.055-.91 2.891 2.891 0 0 0-.173-.047c-.161-.038-.314-.105-.47-.162-.211-.077-.424-.147-.633-.228-.275-.106-.552-.209-.826-.317-.313-.124-.626-.247-.936-.379l-.492-.209c-.239-.103-.48-.2-.715-.31-.235-.111-.475-.212-.71-.324-.25-.119-.503-.234-.752-.354-.152-.073-.307-.14-.454-.224a.299.299 0 0 0-.053-.025c-.076-.025-.143-.069-.213-.105-.154-.08-.309-.157-.464-.236-.112-.057-.221-.121-.336-.174-.078-.035-.151-.084-.227-.125-.181-.098-.363-.194-.543-.294a60.449 60.449 0 0 1-1.487-.856c-.204-.122-.405-.248-.606-.374-.192-.12-.383-.238-.572-.362-.349-.23-.7-.457-1.044-.696-.213-.148-.428-.295-.638-.448-.276-.2-.555-.399-.824-.608-.129-.1-.262-.196-.39-.297-.252-.2-.502-.402-.752-.603l-.172-.138c.061.872.071 1.821.032 2.821.276.158.553.313.832.466.212.116.427.23.641.344.233.126.468.248.706.366.287.141.571.286.86.423.372.177.743.354 1.118.524.25.113.5.228.751.34.186.083.372.164.559.243.476.199.951.4 1.429.593.544.221 1.092.433 1.642.64a100.33 100.33 0 0 0 2.308.835c.514.175 1.028.35 1.545.52.584.19 1.169.38 1.758.559" fill="#D3E3E9"/>
    <mask id="H" style="mask-type:alpha" maskUnits="userSpaceOnUse" x="121" y="53" width="28" height="22">
        <path fill-rule="evenodd" clip-rule="evenodd" d="M123.199 56.998c-1.461 3.946-2.163 9.298-1.824 13.485.081 1.008.747 4.897 2.949 3.522 6.529-4.077 13.711-5.093 21.356-3.8 2.449.415 3.681-4.897.977-5.458-5.266-1.091-15.298-6.142-19.049-11.206-.255-.345-.547-.49-.855-.49-1.453 0-3.286 3.22-3.554 3.947z" fill="#fff"/>
    </mask>
    <g mask="url(#H)">
        <path fill-rule="evenodd" clip-rule="evenodd" d="M123.492 69.139c8.048-3.142 17.885-2.525 26.06-.036-1.184 2.953-4.681 3.482-7.429 4.332-5.209 1.613-14.776 5.306-20.422 4.044l1.791-8.34z" fill="#98B0B2"/>
    </g>
    <mask id="I" style="mask-type:alpha" maskUnits="userSpaceOnUse" x="121" y="53" width="28" height="22">
        <path fill-rule="evenodd" clip-rule="evenodd" d="M123.199 56.998c-1.461 3.946-2.163 9.298-1.824 13.485.081 1.008.747 4.897 2.949 3.522 6.529-4.077 13.711-5.093 21.356-3.8 2.449.415 3.681-4.897.977-5.458-5.266-1.091-15.298-6.142-19.049-11.206-.255-.345-.547-.49-.855-.49-1.453 0-3.286 3.22-3.554 3.947" fill="#fff"/>
    </mask>
    <g mask="url(#I)">
        <path fill-rule="evenodd" clip-rule="evenodd" d="M142.24 63.35c2.072.885.891 6.448-1.281 6.354 2.221.41 3.983 1.962 6.231 2.202 2.658.283 2.679-6.563.936-8.656-1.89-.104-4.013.344-5.886.1" fill="#75151E"/>
    </g>
    <mask id="J" style="mask-type:alpha" maskUnits="userSpaceOnUse" x="121" y="53" width="28" height="22">
        <path fill-rule="evenodd" clip-rule="evenodd" d="M123.199 56.998c-1.461 3.946-2.163 9.298-1.824 13.485.081 1.008.747 4.897 2.949 3.522 6.529-4.077 13.711-5.093 21.356-3.8 2.449.415 3.681-4.897.977-5.458-5.266-1.091-15.298-6.142-19.049-11.206-.255-.345-.547-.49-.855-.49-1.453 0-3.286 3.22-3.554 3.947z" fill="#fff"/>
    </mask>
    <g mask="url(#J)">
        <path clip-rule="evenodd" d="M142.24 63.35c2.072.885.891 6.448-1.281 6.354 2.221.41 3.983 1.962 6.231 2.202 2.658.283 2.679-6.563.936-8.656-1.89-.104-4.013.344-5.886.1z" stroke="#000" stroke-width=".562" stroke-linecap="round" stroke-linejoin="round"/>
    </g>
    <path clip-rule="evenodd" d="M124.324 74.005c6.529-4.077 13.711-5.093 21.356-3.8 2.449.415 3.681-4.897.977-5.458-5.266-1.091-15.298-6.142-19.049-11.206-1.459-1.97-4.084 2.576-4.409 3.457-1.461 3.946-2.163 9.298-1.824 13.485.081 1.008.747 4.897 2.949 3.522z" stroke="#000" stroke-width=".562" stroke-linecap="round" stroke-linejoin="round"/>
    <path fill-rule="evenodd" clip-rule="evenodd" d="M126.534 52.514c1.727.262 2.373 5.4 1.442 11.465-.931 6.067-3.09 10.78-4.817 10.518-1.727-.262-2.373-5.4-1.442-11.465.931-6.067 3.09-10.78 4.817-10.518" fill="#A5D2D9"/>
    <mask id="K" style="mask-type:alpha" maskUnits="userSpaceOnUse" x="121" y="52" width="8" height="23">
        <path fill-rule="evenodd" clip-rule="evenodd" d="M121.717 63.032c-.931 6.066-.285 11.203 1.442 11.465 1.727.261 3.886-4.451 4.817-10.517s.285-11.204-1.442-11.466a.92.92 0 0 0-.139-.01c-1.702 0-3.771 4.623-4.678 10.528" fill="#fff"/>
    </mask>
    <g mask="url(#K)">
        <path fill-rule="evenodd" clip-rule="evenodd" d="M132.744 69.893c-1.831-2.733-4.784-3.844-8.101-4.547-.716-.152-.399-2.945.44-2.874 2.305.192 7.707-.247 10.116-1.855.937-.625 1.14 1.72 1.107 2.147-.147 1.914-.851 4.316-1.752 6.061-.217.42-1.193 1.99-1.81 1.068" fill="#A5D2D9"/>
    </g>
    <mask id="L" style="mask-type:alpha" maskUnits="userSpaceOnUse" x="124" y="62" width="5" height="5">
        <path fill-rule="evenodd" clip-rule="evenodd" d="M125.083 62.467c-.839-.07-1.156 2.722-.44 2.874 1.021.216 2.008.471 2.938.8a38.53 38.53 0 0 0 .395-2.167c.081-.522.149-1.038.206-1.544-1.226.095-2.333.1-3.099.037z" fill="#fff"/>
    </mask>
    <g mask="url(#L)">
        <path fill-rule="evenodd" clip-rule="evenodd" d="M124.205 63.938c1.696.164 3.355.54 5.036.803 1.846.287 3.706.5 5.546.822-.389.95-.969 1.826-1.296 2.8-1.585-.466-3.248-.705-4.867-1.023-1.76-.345-3.499-.794-5.241-1.216l.822-2.186z" fill="#98B0B2"/>
    </g>
    <mask id="M" style="mask-type:alpha" maskUnits="userSpaceOnUse" x="124" y="62" width="5" height="5">
        <path fill-rule="evenodd" clip-rule="evenodd" d="M125.083 62.467c-.839-.07-1.156 2.722-.44 2.874 1.021.216 2.008.471 2.938.8a38.53 38.53 0 0 0 .395-2.167c.081-.522.149-1.038.206-1.544-1.226.095-2.333.1-3.099.037" fill="#fff"/>
    </mask>
    <g mask="url(#M)">
        <path fill-rule="evenodd" clip-rule="evenodd" d="M125.083 62.472c.33.05.5.733.378 1.524-.121.792-.488 1.394-.819 1.344-.33-.05-.499-.733-.378-1.525.121-.791.488-1.393.819-1.343" fill="#A5D2D9"/>
    </g>
    <mask id="N" style="mask-type:alpha" maskUnits="userSpaceOnUse" x="124" y="62" width="5" height="5">
        <path fill-rule="evenodd" clip-rule="evenodd" d="M125.083 62.467c-.839-.07-1.156 2.722-.44 2.874 1.021.216 2.008.471 2.938.8a38.53 38.53 0 0 0 .395-2.167c.081-.522.149-1.038.206-1.544-1.226.095-2.333.1-3.099.037z" fill="#fff"/>
    </mask>
    <g mask="url(#N)">
        <path clip-rule="evenodd" d="M125.083 62.472c.33.05.5.733.378 1.524-.121.792-.488 1.394-.819 1.344-.33-.05-.499-.733-.378-1.525.121-.791.488-1.393.819-1.343z" stroke="#000" stroke-width=".562" stroke-linecap="round" stroke-linejoin="round"/>
    </g>
    <mask id="O" style="mask-type:alpha" maskUnits="userSpaceOnUse" x="121" y="52" width="8" height="23">
        <path fill-rule="evenodd" clip-rule="evenodd" d="M121.717 63.032c-.931 6.066-.285 11.203 1.442 11.465 1.727.261 3.886-4.451 4.817-10.517s.285-11.204-1.442-11.466a.92.92 0 0 0-.139-.01c-1.702 0-3.771 4.623-4.678 10.528z" fill="#fff"/>
    </mask>
    <g mask="url(#O)">
        <path clip-rule="evenodd" d="M132.744 69.893c-1.831-2.733-4.784-3.844-8.101-4.547-.716-.152-.399-2.945.44-2.874 2.305.192 7.707-.247 10.116-1.855.937-.625 1.14 1.72 1.107 2.147-.147 1.914-.851 4.316-1.752 6.061-.217.42-1.193 1.99-1.81 1.068z" stroke="#000" stroke-width=".562" stroke-linecap="round" stroke-linejoin="round"/>
    </g>
    <mask id="P" style="mask-type:alpha" maskUnits="userSpaceOnUse" x="121" y="52" width="8" height="23">
        <path fill-rule="evenodd" clip-rule="evenodd" d="M123.159 74.497c1.727.261 3.886-4.451 4.817-10.517s.285-11.204-1.442-11.466a.92.92 0 0 0-.139-.01c-1.702 0-3.771 4.623-4.678 10.528-.931 6.066-.285 11.203 1.442 11.465z" fill="#fff"/>
    </mask>
    <g mask="url(#P)">
        <path fill-rule="evenodd" clip-rule="evenodd" d="M121.074 58.358c4.362.931 8.64 2.328 12.227 5.054.803-3.941.181-10.334-3.325-12.858a5.263 5.263 0 0 0-3.654-.922c-4.065.514-5.689 5.145-5.248 8.727" fill="#98B0B2"/>
    </g>
    <path clip-rule="evenodd" d="M126.534 52.514c1.727.262 2.373 5.4 1.442 11.465-.931 6.067-3.09 10.78-4.817 10.518-1.727-.262-2.373-5.4-1.442-11.465.931-6.067 3.09-10.78 4.817-10.518z" stroke="#000" stroke-width=".562" stroke-linecap="round" stroke-linejoin="round"/>
    <path fill-rule="evenodd" clip-rule="evenodd" d="m106.398 50.672 12.141 6.878-12.834-5.499.693-1.38zM100.27 62.996l17.869.076-17.796-1.615-.073 1.54zM105.885 71.295l10.528-1.475-10.2 2.981-.328-1.506z" fill="#1D1D1B"/>
    <path fill-rule="evenodd" clip-rule="evenodd" d="M143.527 65.21s.017.717 0 .871l4.413 1.301s.098-.13 0-.903l-4.413-1.268z" fill="#9B2331"/>
    <path clip-rule="evenodd" d="M124.349 74.005c6.534-4.08 13.723-5.098 21.375-3.803 2.452.415 3.685-4.902.978-5.463-5.271-1.093-15.312-6.149-19.066-11.217-1.461-1.972-4.088 2.578-4.414 3.46-1.462 3.95-2.164 9.307-1.826 13.498.082 1.008.749 4.901 2.953 3.525z" stroke="#000" stroke-width=".544" stroke-linecap="round" stroke-linejoin="round"/>
    <path fill-rule="evenodd" clip-rule="evenodd" d="M126.56 52.495c1.729.262 2.376 5.404 1.444 11.476-.932 6.072-3.093 10.789-4.821 10.527-1.729-.262-2.376-5.404-1.444-11.476.932-6.072 3.092-10.79 4.821-10.527" fill="#A5D2D9"/>
    <mask id="Q" style="mask-type:alpha" maskUnits="userSpaceOnUse" x="121" y="52" width="8" height="23">
        <path fill-rule="evenodd" clip-rule="evenodd" d="M121.739 63.022c-.932 6.072-.285 11.214 1.444 11.476 1.728.262 3.889-4.455 4.821-10.527.932-6.072.285-11.214-1.444-11.476a.903.903 0 0 0-.138-.01c-1.704 0-3.776 4.627-4.683 10.537" fill="#fff"/>
    </mask>
    <g mask="url(#Q)">
        <path fill-rule="evenodd" clip-rule="evenodd" d="M132.775 69.89c-1.832-2.735-4.788-3.847-8.109-4.551-.716-.152-.398-2.947.441-2.877 2.307.193 7.714-.247 10.126-1.857.938-.626 1.141 1.722 1.108 2.15-.147 1.915-.852 4.32-1.754 6.066-.217.42-1.194 1.991-1.812 1.069" fill="#A5D2D9"/>
    </g>
    <mask id="R" style="mask-type:alpha" maskUnits="userSpaceOnUse" x="124" y="62" width="5" height="5">
        <path fill-rule="evenodd" clip-rule="evenodd" d="M125.105 62.459c-.839-.07-1.157 2.725-.44 2.877 1.022.216 2.009.472 2.94.801.149-.698.282-1.423.396-2.169.081-.523.149-1.04.206-1.546-1.226.095-2.335.1-3.102.037z" fill="#fff"/>
    </mask>
    <g mask="url(#R)">
        <path fill-rule="evenodd" clip-rule="evenodd" d="M124.225 63.93c1.698.164 3.358.542 5.041.804 1.848.288 3.709.5 5.551.822-.389.951-.97 1.828-1.297 2.803-1.586-.466-3.251-.705-4.872-1.023-1.761-.346-3.502-.795-5.246-1.218l.823-2.188z" fill="#C8C6C5"/>
    </g>
    <mask id="S" style="mask-type:alpha" maskUnits="userSpaceOnUse" x="124" y="62" width="5" height="5">
        <path fill-rule="evenodd" clip-rule="evenodd" d="M125.105 62.459c-.839-.07-1.157 2.725-.44 2.877 1.022.216 2.009.472 2.94.801.149-.698.282-1.423.396-2.169.081-.523.149-1.04.206-1.546-1.226.095-2.335.1-3.102.037" fill="#fff"/>
    </mask>
    <g mask="url(#S)">
        <path fill-rule="evenodd" clip-rule="evenodd" d="M125.105 62.464c.331.05.5.734.379 1.526-.122.792-.489 1.395-.82 1.345-.33-.05-.5-.734-.379-1.526.122-.793.489-1.395.82-1.345" fill="#A5D2D9"/>
    </g>
    <mask id="T" style="mask-type:alpha" maskUnits="userSpaceOnUse" x="124" y="62" width="5" height="5">
        <path fill-rule="evenodd" clip-rule="evenodd" d="M125.105 62.459c-.839-.07-1.157 2.725-.44 2.877 1.022.216 2.009.472 2.94.801.149-.698.282-1.423.396-2.169.081-.523.149-1.04.206-1.546-1.226.095-2.335.1-3.102.037z" fill="#fff"/>
    </mask>
    <g mask="url(#T)">
        <path clip-rule="evenodd" d="M125.105 62.464c.331.05.5.734.379 1.526-.122.792-.489 1.395-.82 1.345-.33-.05-.5-.734-.379-1.526.122-.793.489-1.395.82-1.345z" stroke="#000" stroke-width=".544" stroke-linecap="round" stroke-linejoin="round"/>
    </g>
    <mask id="U" style="mask-type:alpha" maskUnits="userSpaceOnUse" x="121" y="52" width="8" height="23">
        <path fill-rule="evenodd" clip-rule="evenodd" d="M121.741 63.022c-.932 6.072-.285 11.214 1.444 11.476 1.728.262 3.889-4.455 4.821-10.527.932-6.072.285-11.214-1.444-11.476a.903.903 0 0 0-.138-.01c-1.704 0-3.776 4.627-4.683 10.537z" fill="#fff"/>
    </mask>
    <g mask="url(#U)">
        <path clip-rule="evenodd" d="M132.777 69.89c-1.832-2.735-4.788-3.847-8.109-4.551-.716-.152-.398-2.947.441-2.877 2.307.193 7.714-.247 10.125-1.857.938-.626 1.142 1.722 1.109 2.15-.147 1.915-.852 4.32-1.754 6.066-.217.42-1.194 1.991-1.812 1.069z" stroke="#000" stroke-width=".544" stroke-linecap="round" stroke-linejoin="round"/>
    </g>
    <mask id="V" style="mask-type:alpha" maskUnits="userSpaceOnUse" x="121" y="52" width="8" height="23">
        <path fill-rule="evenodd" clip-rule="evenodd" d="M121.741 63.022c-.932 6.072-.285 11.214 1.444 11.476 1.728.262 3.889-4.455 4.821-10.527.932-6.072.285-11.214-1.444-11.476a.903.903 0 0 0-.138-.01c-1.704 0-3.776 4.627-4.683 10.537" fill="#fff"/>
    </mask>
    <g mask="url(#V)">
        <path fill-rule="evenodd" clip-rule="evenodd" d="M121.096 58.343c4.366.932 8.648 2.33 12.238 5.059.804-3.946.181-10.344-3.328-12.87a5.267 5.267 0 0 0-3.657-.923c-4.069.514-5.695 5.15-5.253 8.734" fill="#C8C6C5"/>
    </g>
    <path clip-rule="evenodd" d="M126.56 52.49c1.729.263 2.376 5.405 1.444 11.477-.932 6.072-3.093 10.789-4.821 10.527-1.729-.262-2.376-5.404-1.444-11.476.932-6.072 3.092-10.79 4.821-10.527z" stroke="#000" stroke-width=".544" stroke-linecap="round" stroke-linejoin="round"/>
    <path fill-rule="evenodd" clip-rule="evenodd" d="m106.402 50.648 12.152 6.885-12.845-5.504.693-1.38zM100.344 61.445l17.812 1.617-17.886-.076.074-1.54zM105.889 71.288l10.538-1.475-10.21 2.983-.328-1.508z" fill="#1D1D1B"/>
    <path fill-rule="evenodd" clip-rule="evenodd" d="M143.566 65.203s.017.716 0 .871l4.417 1.302s.098-.13 0-.903l-4.417-1.27z" fill="#9B2331"/>
    <path opacity=".5" d="M153.68 122.206c29.732 0 53.836-23.537 53.836-52.572 0-29.034-24.104-52.572-53.836-52.572-29.733 0-53.836 23.538-53.836 52.572 0 29.035 24.103 52.572 53.836 52.572z" stroke="#FFAB00" stroke-width="2.746" stroke-miterlimit="10"/>
    <path d="M7.61 109.993 94.367 89.39c3.181-.755 5.137-3.888 4.364-6.995l-.279-1.129c-.773-3.107-3.981-5.017-7.163-4.261L4.533 97.608c-3.182.755-5.138 3.887-4.364 6.994l.278 1.129c.774 3.107 3.982 5.017 7.163 4.262z" fill="#FFAB00"/>
    <path d="M153.227 126.579c31.985 0 57.913-25.32 57.913-56.553 0-31.234-25.928-56.553-57.913-56.553-31.984 0-57.913 25.32-57.913 56.553 0 31.233 25.929 56.553 57.913 56.553z" stroke="#FFAB00" stroke-width="6.178" stroke-miterlimit="10"/>
    <path opacity=".5" d="M8.183 109.853s-.513-4.796 1.625-6.944c2.139-2.148 63.877-16.808 67.006-15.908 3.13.9 6.52 4.838 6.52 4.838L8.183 109.853z" fill="#fff"/>
    <path d="M93.507 62.07c-9.18 2.182-14.3 13.302-11.423 24.847 2.878 11.545 12.649 19.134 21.837 16.953" fill="#FFAB00"/>
    <path opacity=".3" fill-rule="evenodd" clip-rule="evenodd" d="M67.818 135.568s-12.457-.017-12.431.467c.078 1.638 9.866.679 10.675 1.171.391.238-.044.764.652 1.104 2.764 1.35 12.396.127 15.83.136 9.362.025 11.735.636 12.822.713 3.051.221 11.683.136 14.109.093 4.998-.085 18.438.272 18.151-1.112-.131-.619-13.031-1.927-15.23-2.097-1.878-.144-3.173-1.001-4.86-1.511-2.364-.704-4.955-1.137-7.502-1.4-10.666-1.121-21.61 1.519-32.216 2.436z" fill="#333739"/>
    <path d="M127.096 52.078v1.078l-.33 2.326v-1.23l.66-.884-.66-1.12.33-.17z" fill="#fff"/>
    <path d="M95.127 20.456v-3.124s2.174-.306 2.669-.79c.408-.399 1.139-2.181 1.408-2.852.061-.153.096-.246.096-.246l.33-3.913V6.975s-.33-1.035-.67-1.689c-.33-.654-.668-1.307-1.338-1.96-.67-.654-1.669-.977-1.669-.977s-1.339-.654-2.338-.654c-1 0-1 0-2.008.323-1 .322-2.009.976-2.009.976s-.669.323-1 .654c-.33.322-.999 1.307-1.338 1.96-.33.654-.33 1.308-.33 1.63v2.14c0 .475.67 2.105 1 2.759.33.653.408 1.095.669 1.63.313.662.67 1.307.67 1.307s.33.653.33.976v4.89h5.554l-.026-.484z" fill="#FFDDC5"/>
    <path d="m93.662 15.246-4.347.085-1.668-4.245s-1.504-3.429-1.67-4.244c-.165-.815-.165-1.307 0-2.368.166-1.061.67-1.554.67-1.554s.834-.815 2.008-1.307c1.173-.492 1.173-.492 1.669-.654.495-.161 2.338-.322 2.338-.322h4.208l.965-.162.504-.16.33-.315.33.323.33.653.331.654s.33.679.33.67v1.113s-.165.348-.33.831c-.165.493-.834.493-1 .654-.165.161-1 .323-1 .323l-.999.322h-.33v.654l.504.492.348.45.321.526-.165 1.146v.323s-1.478-1.469-1.825-1.469c-.348 0-.678.323-.852.493-.174.17-.505.815-.33 1.307.165.492.738 1.469.738 1.469l.261.492-1.669 3.913" fill="#333739"/>
    <path d="m98.41 20.88-10.04-.16v-1.282h7.866c.035 0 1.904.645 2.287 1.443" fill="#F66"/>
    <path d="m82.862 47.54 20.585.675v25.807s-4.772 54.791-3.478 56.708h-7.823c.094-43.491-.668-48.254-.668-48.254l-.026-1.444-.017-.845-.326-18.536.326 11.19-9.088 57.889H74.76c4.338-27.826 8.102-83.19 8.102-83.19z" fill="#333739"/>
    <path d="M90.43 27.485s6.45 1.146 7.432 1.019c.983-.119 1.817-.23 2.539-.314.73-.094 14.065-4.66 14.065-4.66l1.73-.213 1.13-.79 2.486-1.281-1.191-4.066-2.53.959-1.834 2.326s-13.752 2.852-15.056 3.014c-1.304.16-7.146-1.384-7.146-1.384l-1.625 5.39zM126.227 50.126c.33.323 3.625 1.604 3.625 1.604l-1.313 3.54-2.304-.424s-3.625-.866-2.964-.543c.661.322-1.313-.968-1.313-.968s-10.205-5.145-11.518-6.112c-1.313-.968-5.598-9.321-5.598-9.321l4.937-2.25s5.599 9.644 5.268 9.321c-.33-.322 7.572 5.144 8.563 5.144.991 0 2.286-.314 2.617.009z" fill="#FFDDC5"/>
    <path d="M80.188 65.39c14.36 2.828 24.688.646 24.688.646.66-10.289-.487-26.995-.487-26.995l.165.484 6.259-3.217-3.129-9.04s-1.157-2.862-1.809-3.82c-.66-.969-2.634-1.928-3.625-2.25-.991-.323-4.277-.323-4.277-.323s-6.354 0-9.51-.195" fill="#F66"/>
    <path d="m104.693 39.61-2.964-4.508 1.651 2.894 1.313 1.613zM79.772 65.67h7.823l.87-44.99-1.8.356a3.488 3.488 0 0 0-2.8 3.082L79.773 65.67z" fill="#F66"/>
    <path d="m77.97 136.017-2.406-.027c-.008 0-.017 0-.017-.008l-.114-5.102c0-.007.007-.015.016-.015l5.325.044h.009c.075.09 2.732 3.166 7.724 4.09.716.132 1.238.573 1.249 1.085 0 .007-.008.015-.017.015l-9.995-.067" fill="#333739"/>
    <path d="m75.465 130.727 5.294.044 1.344 1.34s-1.34.997-3.05.983c-1.71-.014-3.563-.701-3.563-.701l-.04-1.65.015-.016z" fill="#FFDDC5"/>
    <path d="m95.803 136.021-2.404-.027c-.01 0-.018 0-.018-.008l-.114-5.102c0-.007.007-.015.016-.015l5.325.044h.009c.075.09 2.732 3.166 7.724 4.09.716.132 1.238.573 1.249 1.085 0 .007-.008.015-.017.015l-9.995-.067" fill="#333739"/>
    <path d="m93.3 130.727 5.293.044 1.344 1.34s-1.34.997-3.05.983c-1.71-.014-3.563-.701-3.563-.701l-.04-1.65.015-.016z" fill="#FFDDC5"/>
</svg>
