<svg width="212" height="143" viewBox="0 0 212 143" fill="none" xmlns="http://www.w3.org/2000/svg">
    <path opacity=".1" d="M13.002 141.99s-26.048-33.834-4.407-70.458c19.21-32.495 48.013-24.184 64.433-10.999 6.995 5.611 20.75-5.399 37.928-38.463 23.404-45.09 104.559-17.738 89.756 51.638-7.162 33.578 21.786 34.794 7.039 68.36l-194.75-.078z" fill="#333739"/>
    <path opacity=".3" fill-rule="evenodd" clip-rule="evenodd" d="M116.126 137.361s-18.296-.034-18.263.714c.111 2.465 14.501 1.026 15.681 1.762.578.368-.056 1.16.957 1.673 4.062 2.042 18.207.19 23.259.201 13.756.045 17.239.96 18.831 1.071 4.485.335 17.161.201 20.733.134 7.334-.134 27.077.413 26.665-1.673-.189-.937-19.142-2.912-22.369-3.157-2.76-.212-4.663-1.517-7.134-2.276-3.472-1.071-7.278-1.707-11.018-2.12-15.692-1.695-31.773 2.287-47.342 3.671z" fill="#333739"/>
    <path fill-rule="evenodd" clip-rule="evenodd" d="M160.067 115.19c.701 1.537 2.555 2.32 4.243 2.163 1.689-.158 3.213-1.089 4.489-2.2 1.277-1.111 2.369-2.418 3.631-3.544 1.303-1.162 2.816-2.139 4.511-2.568 1.695-.431 3.589-.265 5.048.697 1.458.961 2.376 2.784 2.024 4.49-.094.454-.371.966-.836.98-.573.017-.833-.677-1.151-1.151-.587-.873-1.8-1.18-2.821-.913-1.02.265-1.859 1.004-2.488 1.848-.63.843-1.085 1.799-1.615 2.707a18.835 18.835 0 0 1-6.431 6.547c-2.167 1.319-4.749 2.206-7.239 1.708a7.072 7.072 0 0 1-4.269-2.72 7.006 7.006 0 0 1-1.304-4.875l4.208-3.169z" fill="#EF3D42"/>
    <mask id="czeayveuwa" style="mask-type:alpha" maskUnits="userSpaceOnUse" x="155" y="108" width="30" height="19">
        <path fill-rule="evenodd" clip-rule="evenodd" d="M181.988 109.741c1.459.961 2.376 2.785 2.025 4.49-.094.454-.371.967-.836.981-.573.016-.833-.677-1.151-1.151-.587-.874-1.8-1.181-2.821-.914-1.021.266-1.859 1.005-2.488 1.849-.63.842-1.085 1.798-1.615 2.706a18.812 18.812 0 0 1-6.432 6.547c-2.166 1.319-4.748 2.206-7.238 1.708a7.079 7.079 0 0 1-4.27-2.718 7.015 7.015 0 0 1-1.303-4.876l4.208-3.17c.701 1.538 2.555 2.321 4.243 2.163 1.689-.157 3.212-1.088 4.489-2.199 1.277-1.112 2.368-2.419 3.631-3.545 1.303-1.16 2.817-2.138 4.511-2.568a7.254 7.254 0 0 1 1.78-.224c1.157-.001 2.307.289 3.267.921z" fill="#fff"/>
    </mask>
    <g mask="url(#czeayveuwa)">
        <path fill-rule="evenodd" clip-rule="evenodd" d="M163.536 117.654c1.641.814 3.677.198 5.147-.895 1.47-1.091 2.567-2.6 3.893-3.862a15.037 15.037 0 0 1 8.187-3.958c-2.661-1.359-6.089-1.073-8.484.71-1.585 1.179-2.677 2.894-4.123 4.237a11.513 11.513 0 0 1-5.908 2.9l.345.424.943.444z" fill="#F26F5C"/>
    </g>
    <mask id="x1h9oj35cb" style="mask-type:alpha" maskUnits="userSpaceOnUse" x="155" y="108" width="30" height="19">
        <path fill-rule="evenodd" clip-rule="evenodd" d="M181.988 109.741c1.459.961 2.376 2.785 2.025 4.49-.094.454-.371.967-.836.981-.573.016-.833-.677-1.151-1.151-.587-.874-1.8-1.181-2.821-.914-1.021.266-1.859 1.005-2.488 1.849-.63.842-1.085 1.798-1.615 2.706a18.812 18.812 0 0 1-6.432 6.547c-2.166 1.319-4.748 2.206-7.238 1.708a7.079 7.079 0 0 1-4.27-2.718 7.015 7.015 0 0 1-1.303-4.876l4.208-3.17c.701 1.538 2.555 2.321 4.243 2.163 1.689-.157 3.212-1.088 4.489-2.199 1.277-1.112 2.368-2.419 3.631-3.545 1.303-1.16 2.817-2.138 4.511-2.568a7.254 7.254 0 0 1 1.78-.224c1.157-.001 2.307.289 3.267.921z" fill="#fff"/>
    </mask>
    <g mask="url(#x1h9oj35cb)">
        <path fill-rule="evenodd" clip-rule="evenodd" d="M167.239 121.06c2.105-.581 3.838-2.09 5.213-3.779.947-1.163 1.765-2.434 2.817-3.503 1.052-1.068 2.402-1.944 3.902-2.043 1.5-.098 3.123.768 3.526 2.211.401-1.364-.25-2.87-1.298-3.836-1.046-.965-2.425-1.487-3.791-1.899a6.642 6.642 0 0 1 4.494.835 6.59 6.59 0 0 1 2.85 3.557c.34 1.034.36 2.304-.421 3.065-.62.603-1.568.712-2.434.681-.867-.033-1.753-.171-2.589.059-.906.249-1.646.911-2.211 1.659-.564.748-.984 1.592-1.479 2.387-2.497 4.008-7.071 6.652-11.806 6.824-1.666.062-3.458-.219-4.679-1.349-1.104-1.02-1.563-2.679-1.141-4.119a4.097 4.097 0 0 1 1.796-2.317c.847-.504 1.139-.227 1.783.361 1.464 1.341 3.565 1.731 5.468 1.206z" fill="#CD202C"/>
    </g>
    <path clip-rule="evenodd" d="M160.067 115.19c.701 1.537 2.555 2.32 4.243 2.163 1.689-.158 3.213-1.089 4.489-2.2 1.277-1.111 2.369-2.418 3.631-3.544 1.303-1.162 2.816-2.139 4.511-2.568 1.695-.431 3.589-.265 5.048.697 1.458.961 2.376 2.784 2.024 4.49-.094.454-.371.966-.836.98-.573.017-.833-.677-1.151-1.151-.587-.873-1.8-1.18-2.821-.913-1.02.265-1.859 1.004-2.488 1.848-.63.843-1.085 1.799-1.615 2.707a18.835 18.835 0 0 1-6.431 6.547c-2.167 1.319-4.749 2.206-7.239 1.708a7.072 7.072 0 0 1-4.269-2.72 7.006 7.006 0 0 1-1.304-4.875l4.208-3.169z" stroke="#333739" stroke-width=".371"/>
    <path fill-rule="evenodd" clip-rule="evenodd" d="M155.375 123.999a11.531 11.531 0 0 0 4.652 4.415 11.606 11.606 0 0 0 6.307 1.232c2.749-.248 5.451-1.479 8.173-1.022-.75 1.39-.392 3.201.909 4.1 1.301.899 3.171.794 4.453-.131 1.282-.926 1.958-2.566 1.85-4.139-.107-1.572-.943-3.051-2.14-4.086-1.196-1.033-2.726-1.64-4.292-1.875-3.445-.519-7.095.673-10.389-.456a7.755 7.755 0 0 1-4.197-3.486 7.694 7.694 0 0 1-.806-5.379l-4.52 10.827z" fill="#EF3D42"/>
    <mask id="y3rf3v2lkc" style="mask-type:alpha" maskUnits="userSpaceOnUse" x="155" y="113" width="27" height="21">
        <path fill-rule="evenodd" clip-rule="evenodd" d="M160.701 118.551a7.752 7.752 0 0 0 4.196 3.486c1.898.65 3.912.531 5.937.412 1.493-.089 2.992-.176 4.452.044 1.568.235 3.097.842 4.293 1.876 1.196 1.034 2.033 2.513 2.14 4.086.108 1.572-.569 3.213-1.851 4.138-1.281.925-3.151 1.03-4.453.131-1.3-.898-1.658-2.71-.909-4.1-2.72-.457-5.424.774-8.172 1.022a11.606 11.606 0 0 1-6.307-1.232 11.525 11.525 0 0 1-4.652-4.415l4.52-10.827a7.688 7.688 0 0 0 .806 5.379z" fill="#fff"/>
    </mask>
    <g mask="url(#y3rf3v2lkc)">
        <path fill-rule="evenodd" clip-rule="evenodd" d="M164.586 125.449c1.186.92 2.786 1.121 4.288 1.044 1.502-.079 2.987-.402 4.491-.389 1.503.014 3.098.421 4.097 1.541.393.44.681 1.085.413 1.609-.192.373-.621.575-1.04.608-.418.033-.833-.075-1.238-.182-.104-.267.2-.525.484-.577.283-.052.595-.01.841-.159.418-.253.344-.953-.058-1.232-.402-.279-.965-.205-1.394.03-.429.236-.764.605-1.125.935-2.011 1.835-4.925 2.43-7.638 2.159-2.715-.272-5.283-1.317-7.776-2.417-1.568-.692-3.202-1.476-4.164-2.888-.713-1.045-.98-2.347-.919-3.608.06-1.262.429-2.489.903-3.661.355-.88.777-1.745 1.392-2.469.616-.723 1.445-1.298 2.384-1.463 1.723-.304 3.439.851 4.333 2.349.77 1.29 1.526 3.266.869 4.711-.667 1.47-.533 2.981.857 4.059z" fill="#CD202C"/>
    </g>
    <mask id="79j9bs94md" style="mask-type:alpha" maskUnits="userSpaceOnUse" x="155" y="113" width="27" height="21">
        <path fill-rule="evenodd" clip-rule="evenodd" d="M160.701 118.551a7.752 7.752 0 0 0 4.196 3.486c1.898.65 3.912.531 5.937.412 1.493-.089 2.992-.176 4.452.044 1.568.235 3.097.842 4.293 1.876 1.196 1.034 2.033 2.513 2.14 4.086.108 1.572-.569 3.213-1.851 4.138-1.281.925-3.151 1.03-4.453.131-1.3-.898-1.658-2.71-.909-4.1-2.72-.457-5.424.774-8.172 1.022a11.606 11.606 0 0 1-6.307-1.232 11.525 11.525 0 0 1-4.652-4.415l4.52-10.827a7.688 7.688 0 0 0 .806 5.379z" fill="#fff"/>
    </mask>
    <g mask="url(#79j9bs94md)">
        <path fill-rule="evenodd" clip-rule="evenodd" d="M180.555 127.631c.199 1.678-.458 3.571-1.973 4.331-1.626.818-3.617.099-5.119-.927.458 1.944 1.829 3.7 3.693 4.441 1.863.741 4.178.354 5.565-1.089 1.649-1.711 1.717-4.502.721-6.655-.403-.874-.957-1.671-1.592-2.393-.37-.42-1.515-1.919-2.092-1.958-.954-.065-.258 1.185-.07 1.563.42.847.753 1.745.867 2.687z" fill="#CD202C"/>
    </g>
    <path clip-rule="evenodd" d="M155.375 124.003a11.531 11.531 0 0 0 4.652 4.415 11.606 11.606 0 0 0 6.307 1.232c2.749-.248 5.451-1.48 8.173-1.022-.75 1.389-.392 3.201.909 4.1 1.301.899 3.171.794 4.453-.131 1.282-.926 1.958-2.566 1.85-4.139-.107-1.572-.943-3.051-2.14-4.086-1.196-1.033-2.726-1.64-4.292-1.875-3.445-.519-7.095.673-10.389-.456a7.758 7.758 0 0 1-4.197-3.486 7.694 7.694 0 0 1-.806-5.379l-4.52 10.827z" stroke="#333739" stroke-width=".371"/>
    <path d="M174.507 128.632a1.83 1.83 0 0 1 1.585-.897c.637.01 1.256.387 1.555.948.097.183.163.39.142.595-.023.205-.144.408-.337.487-.18.073-.386.029-.575-.024-.189-.052-.386-.113-.576-.069-.191.045-.361.241-.298.425" stroke="#333739" stroke-width=".371" stroke-linecap="round" stroke-linejoin="round"/>
    <path fill-rule="evenodd" clip-rule="evenodd" d="M139.786 115.594c-.721-1.461-2.238-2.501-3.867-2.649-1.628-.15-3.311.599-4.287 1.905-.635.85-.966 1.884-1.293 2.894-.325 1.008-.668 2.04-1.319 2.879-.652.839-1.683 1.465-2.742 1.347a9.65 9.65 0 0 0 4.676 3.233c1.828.574 3.916.435 5.545-.569 1.428-.879 2.422-2.358 2.919-3.955.497-1.595 1.108-3.585.368-5.085z" fill="#EF3D42"/>
    <path clip-rule="evenodd" d="M139.786 115.594c-.721-1.461-2.238-2.501-3.867-2.649-1.628-.15-3.311.599-4.287 1.905-.635.85-.966 1.884-1.293 2.894-.325 1.008-.668 2.04-1.319 2.879-.652.839-1.683 1.465-2.742 1.347a9.65 9.65 0 0 0 4.676 3.233c1.828.574 3.916.435 5.545-.569 1.428-.879 2.422-2.358 2.919-3.955.497-1.595 1.108-3.585.368-5.085z" stroke="#333739" stroke-width=".371"/>
    <path fill-rule="evenodd" clip-rule="evenodd" d="M133.065 113.726c-.539 1.062-.68 2.279-1.135 3.379-.456 1.1-1.404 2.157-2.599 2.136 1.316 1.624 3.483 2.697 5.527 2.239 2.296-.514 3.548-2.597 3.444-4.833-.073-1.551-.548-4.042-2.284-4.582-1.241-.387-2.427.622-2.953 1.661z" fill="#CD202C"/>
    <path fill-rule="evenodd" clip-rule="evenodd" d="M141.545 107.187c2.011.603 3.406 2.796 3.107 4.887-.297 2.091-2.251 3.823-4.353 3.86-2.097.035-3.9-1.378-5.501-2.728-3.625-3.057-7.272-6.202-11.581-8.178-4.309-1.976-9.461-2.657-13.787-.665-.643.298-1.369.915-1.106 1.572.257.64 1.153.6 1.838.517 3.923-.471 7.769 1.415 10.845 3.883 3.076 2.469 5.629 5.538 8.674 8.045 3.044 2.508 6.822 4.487 10.759 4.166 1.707-.139 3.297-.546 4.812-1.353 1.514-.809 2.856-1.998 3.689-3.503.835-1.506 1.129-3.339.636-4.981-.425-1.413-1.399-2.615-2.578-3.492-1.18-.876-2.559-1.45-3.966-1.878l-1.488-.152z" fill="#EF3D42"/>
    <mask id="g559f289ze" style="mask-type:alpha" maskUnits="userSpaceOnUse" x="108" y="103" width="42" height="20">
        <path fill-rule="evenodd" clip-rule="evenodd" d="M109.431 104.362c4.324-1.991 9.477-1.311 13.786.665 4.309 1.976 7.956 5.123 11.582 8.178 1.6 1.351 3.404 2.764 5.501 2.729 2.101-.037 4.055-1.77 4.353-3.86.298-2.09-1.097-4.285-3.107-4.887l1.487.152c1.407.428 2.787 1.001 3.965 1.878 1.181.876 2.154 2.078 2.579 3.491.494 1.643.2 3.476-.634 4.982-.835 1.504-2.176 2.693-3.691 3.502-1.515.808-3.104 1.214-4.812 1.353-3.937.321-7.714-1.658-10.76-4.165-3.044-2.508-5.597-5.576-8.672-8.045-3.076-2.468-6.922-4.355-10.847-3.883-.683.082-1.58.122-1.837-.518-.12-.301-.034-.593.158-.851.226-.304.6-.559.949-.721z" fill="#fff"/>
    </mask>
    <g mask="url(#g559f289ze)">
        <path fill-rule="evenodd" clip-rule="evenodd" d="M108.06 106.024c2.803-1.223 6.083-.945 8.909.189 2.826 1.134 5.266 3.055 7.521 5.103 2.256 2.049 4.378 4.254 6.797 6.106 2.419 1.85 5.196 3.355 8.218 3.747-2.238 1.8-5.513 2.182-8.086.944-2.022-.973-3.495-2.775-5.106-4.339a27.67 27.67 0 0 0-14.06-7.287c-1.294-.244-2.638-.405-3.791-1.04-1.152-.635-2.083-1.901-1.862-3.208l1.46-.215z" fill="#F26F5C"/>
    </g>
    <mask id="boheui4w1f" style="mask-type:alpha" maskUnits="userSpaceOnUse" x="108" y="103" width="42" height="20">
        <path fill-rule="evenodd" clip-rule="evenodd" d="M109.431 104.363c4.324-1.992 9.477-1.312 13.786.664 4.309 1.977 7.956 5.123 11.581 8.178 1.601 1.351 3.405 2.764 5.502 2.729 2.1-.037 4.055-1.77 4.353-3.86.297-2.091-1.097-4.285-3.107-4.887l1.487.151c1.406.429 2.786 1.002 3.965 1.879 1.181.875 2.154 2.078 2.579 3.491.494 1.643.2 3.476-.635 4.982-.834 1.504-2.176 2.693-3.69 3.502-1.516.808-3.105 1.214-4.812 1.353-3.937.321-7.714-1.658-10.76-4.165-3.044-2.508-5.597-5.576-8.673-8.045-3.076-2.468-6.921-4.355-10.846-3.883-.683.082-1.58.122-1.837-.518-.12-.3-.034-.593.158-.851.226-.304.6-.559.949-.72z" fill="#fff"/>
    </mask>
    <g mask="url(#boheui4w1f)">
        <path fill-rule="evenodd" clip-rule="evenodd" d="M117.36 104.374c2.986.855 5.662 2.545 8.137 4.421 2.473 1.878 4.792 3.961 7.332 5.745 1.264.887 2.599 1.707 4.076 2.158 1.477.451 3.118.508 4.543-.106 1.422-.615 2.573-1.975 2.694-3.524-.993.742-2.313.936-3.533.757-1.221-.178-2.364-.696-3.456-1.269-4.068-2.134-7.649-5.081-11.553-7.503-3.904-2.423-8.338-4.358-12.933-4.111-1.064.057-2.169.249-3.108.783-.609.348-1.981 1.389-1.528 2.222.383.705 1.617.456 2.213.314 1.1-.26 2.171-.447 3.305-.442 1.289.005 2.575.201 3.811.555z" fill="#CD202C"/>
    </g>
    <mask id="pjnnlrw7cg" style="mask-type:alpha" maskUnits="userSpaceOnUse" x="108" y="103" width="42" height="20">
        <path fill-rule="evenodd" clip-rule="evenodd" d="M109.431 104.363c4.324-1.992 9.477-1.312 13.786.664 4.309 1.977 7.956 5.123 11.581 8.178 1.601 1.351 3.405 2.764 5.502 2.729 2.1-.037 4.055-1.77 4.353-3.86.297-2.091-1.097-4.285-3.107-4.887l1.487.151c1.406.429 2.786 1.002 3.965 1.879 1.181.875 2.154 2.078 2.579 3.491.494 1.643.2 3.476-.635 4.982-.834 1.504-2.176 2.693-3.69 3.502-1.516.808-3.105 1.214-4.812 1.353-3.937.321-7.714-1.658-10.76-4.165-3.044-2.508-5.597-5.576-8.673-8.045-3.076-2.468-6.921-4.355-10.846-3.883-.683.082-1.58.122-1.837-.518-.12-.3-.034-.593.158-.851.226-.304.6-.559.949-.72z" fill="#fff"/>
    </mask>
    <g mask="url(#pjnnlrw7cg)">
        <path clip-rule="evenodd" d="M141.545 107.187c2.011.603 3.406 2.796 3.107 4.887-.297 2.091-2.251 3.823-4.353 3.86-2.097.035-3.9-1.378-5.501-2.728-3.625-3.057-7.272-6.202-11.581-8.178-4.309-1.976-9.461-2.657-13.787-.665-.643.298-1.369.915-1.106 1.572.257.64 1.153.6 1.838.517 3.923-.471 7.769 1.415 10.845 3.883 3.076 2.469 5.629 5.538 8.674 8.045 3.044 2.508 6.822 4.487 10.759 4.166 1.707-.139 3.297-.546 4.812-1.353 1.514-.809 2.856-1.998 3.689-3.503.835-1.506 1.129-3.339.636-4.981-.425-1.413-1.399-2.615-2.578-3.492-1.18-.876-2.559-1.45-3.966-1.878l-1.488-.152z" stroke="#333739" stroke-width=".371"/>
    </g>
    <path fill-rule="evenodd" clip-rule="evenodd" d="M132.764 125.932c-1.81.655-3.868.268-5.582-.607s-3.149-2.197-4.56-3.501c.969 3.171 3.384 5.875 6.435 7.203 1.416.615 2.98.946 4.516.78 1.535-.169 3.037-.863 4.033-2.039.995-1.177 1.425-2.85.963-4.318-.217-.689-.629-1.33-1.221-1.746-.291-.204-.663-.355-.998-.236-.509.184-.291.707-.36 1.094-.087.5-.435 1.042-.723 1.449a5.338 5.338 0 0 1-2.503 1.921z" fill="#CD202C"/>
    <path fill-rule="evenodd" clip-rule="evenodd" d="M119.609 126.246c-.708.821-1.984 1.002-3 .614-1.016-.389-1.789-1.251-2.303-2.207-.705-1.308-.985-2.865-.648-4.312.339-1.448 1.326-2.759 2.685-3.372 1.608-.724 3.525-.419 5.113.348 1.588.769 5.623 4.795 8.83 5.7 3.904 1.101 10.419-.571 5.335-10.105-8.542-16.017-3.627-28.542 1.83-34.042s14.031-7.702 21.48-5.516c5.956 1.748 11.032 6.147 13.772 11.695 2.739 5.547 3.154 12.15 1.319 18.055-1.628 5.247-5.878 9.106-10.529 12.058-1.295.821-2.493 1.578-3.495 2.516-.152.142-.527.414-.645.581-.455 1.818.293 3.948 1.461 5.453 1.296 1.669 3.123 2.833 4.917 3.956 1.794 1.124 3.628 2.273 4.95 3.921 1.321 1.649 2.056 3.925 1.332 5.908-.731 2.004-2.815 3.248-4.923 3.623-8.158 1.452-14.259-6.759-20.011-6.759-4.4 0-4.173 2.196-2.751 3.246.55.405 1.327.734 1.296 1.415-.027.61-.856.794-1.462.701-1.94-.298-3.651-1.689-4.406-3.482-1.19 1.101-2.832 1.737-4.469 1.896-2.166.212-4.336-.305-6.407-.975-2.069-.672-4.093-1.503-6.222-1.952-.658-.14-1.337-.243-2-.134-.663.108-1.316.457-1.647 1.038-.333.582-.258 1.407.266 1.826.253.202.576.294.858.454.283.158.547.434.523.756-.037.511-.704.694-1.218.658a4.864 4.864 0 0 1-3.753-2.288 4.817 4.817 0 0 1-.277-4.372c.87-1.96 2.988-3.12 5.103-3.523 1.453-.277 2.935-.265 4.419-.23a16.716 16.716 0 0 1-2.787-2.745c-.769-.964-1.524-1.919-2.394-2.783.466.684.418 1.728-.142 2.379z" fill="#EF3D42"/>
    <mask id="18b8rbfjah" style="mask-type:alpha" maskUnits="userSpaceOnUse" x="113" y="72" width="63" height="70">
        <path fill-rule="evenodd" clip-rule="evenodd" d="M158.931 73.359c5.956 1.748 11.032 6.147 13.771 11.694 2.74 5.546 3.154 12.15 1.32 18.057-1.629 5.245-5.878 9.104-10.53 12.056-1.294.822-2.492 1.578-3.495 2.516-.151.142-.526.414-.645.581-.455 1.818.294 3.948 1.462 5.454 1.296 1.668 3.123 2.832 4.918 3.956 1.792 1.123 3.626 2.272 4.948 3.921 1.322 1.648 2.056 3.925 1.333 5.907-.73 2.003-2.815 3.248-4.923 3.623-8.158 1.452-14.259-6.758-20.011-6.758-4.401 0-4.173 2.195-2.751 3.245.55.406 1.326.735 1.297 1.416-.029.61-.858.795-1.464.701-1.939-.299-3.649-1.69-4.406-3.483-1.189 1.101-2.831 1.737-4.467 1.896-2.166.212-4.339-.304-6.407-.975-2.07-.671-4.094-1.501-6.223-1.952-.657-.139-1.337-.242-2-.135-.664.108-1.316.458-1.649 1.04-.33.581-.257 1.406.268 1.825.253.202.577.294.858.454.284.158.546.433.523.756-.038.511-.704.694-1.217.659-1.522-.108-2.967-.989-3.753-2.288a4.814 4.814 0 0 1-.277-4.372c.87-1.961 2.987-3.12 5.102-3.524 1.452-.277 2.935-.265 4.419-.23a16.672 16.672 0 0 1-2.787-2.744c-.769-.964-1.525-1.92-2.393-2.783.465.683.417 1.729-.143 2.378-.71.823-1.984 1.003-3 .614-1.016-.388-1.789-1.251-2.304-2.207-.704-1.309-.985-2.865-.646-4.312.337-1.447 1.325-2.759 2.685-3.371 1.607-.725 3.525-.42 5.112.349 1.587.767 5.622 4.793 8.83 5.699 3.904 1.101 10.419-.571 5.334-10.106-8.542-16.016-3.627-28.542 1.831-34.042 4.052-4.084 9.825-6.35 15.578-6.35 1.994 0 3.984.271 5.902.835z" fill="#fff"/>
    </mask>
    <g mask="url(#18b8rbfjah)">
        <path fill-rule="evenodd" clip-rule="evenodd" d="M140.298 132.918a6.323 6.323 0 0 1 3.465-4.185c2.393-1.094 5.18-.589 7.76-.065l6.557 1.335c-2.576-.401-4.969-1.54-7.46-2.304-2.492-.764-5.286-1.129-7.64-.012-1.962.93-3.398 2.886-3.692 5.031-.221 1.603.211 4.117 1.585 5.159.287-.488-.49-1.66-.607-2.217a6.204 6.204 0 0 1 .032-2.742z" fill="#F26F5C"/>
    </g>
    <mask id="5jstz3ok4i" style="mask-type:alpha" maskUnits="userSpaceOnUse" x="113" y="72" width="63" height="70">
        <path fill-rule="evenodd" clip-rule="evenodd" d="M158.931 73.359c5.956 1.748 11.032 6.147 13.771 11.694 2.74 5.546 3.154 12.15 1.32 18.057-1.629 5.245-5.878 9.104-10.53 12.056-1.294.822-2.492 1.578-3.495 2.516-.151.142-.526.414-.645.581-.455 1.818.294 3.948 1.462 5.454 1.296 1.668 3.123 2.832 4.918 3.956 1.792 1.123 3.626 2.272 4.948 3.921 1.322 1.648 2.056 3.925 1.333 5.907-.73 2.003-2.815 3.248-4.923 3.623-8.158 1.452-14.259-6.758-20.011-6.758-4.401 0-4.173 2.195-2.751 3.245.55.406 1.326.735 1.297 1.416-.029.61-.858.795-1.464.701-1.939-.299-3.649-1.69-4.406-3.483-1.189 1.101-2.831 1.737-4.467 1.896-2.166.212-4.339-.304-6.407-.975-2.07-.671-4.094-1.501-6.223-1.952-.657-.139-1.337-.242-2-.135-.664.108-1.316.458-1.649 1.04-.33.581-.257 1.406.268 1.825.253.202.577.294.858.454.284.158.546.433.523.756-.038.511-.704.694-1.217.659-1.522-.108-2.967-.989-3.753-2.288a4.814 4.814 0 0 1-.277-4.372c.87-1.961 2.987-3.12 5.102-3.524 1.452-.277 2.935-.265 4.419-.23a16.672 16.672 0 0 1-2.787-2.744c-.769-.964-1.525-1.92-2.393-2.783.465.683.417 1.729-.143 2.378-.71.823-1.984 1.003-3 .614-1.016-.388-1.789-1.251-2.304-2.207-.704-1.309-.985-2.865-.646-4.312.337-1.447 1.325-2.759 2.685-3.371 1.607-.725 3.525-.42 5.112.349 1.587.767 5.622 4.793 8.83 5.699 3.904 1.101 10.419-.571 5.334-10.106-8.542-16.016-3.627-28.542 1.831-34.042 4.052-4.084 9.825-6.35 15.578-6.35 1.994 0 3.984.271 5.902.835z" fill="#fff"/>
    </mask>
    <g mask="url(#5jstz3ok4i)">
        <path fill-rule="evenodd" clip-rule="evenodd" d="M136.428 101.669a1.02 1.02 0 0 0 .028-.042 2.34 2.34 0 0 0 .521-1.97 5.807 5.807 0 0 1-1.308 1.506c.281.183.478.324.759.506z" fill="#F26F5C"/>
    </g>
    <mask id="dn1grx9ucj" style="mask-type:alpha" maskUnits="userSpaceOnUse" x="113" y="72" width="63" height="70">
        <path fill-rule="evenodd" clip-rule="evenodd" d="M158.931 73.359c5.956 1.748 11.032 6.147 13.771 11.694 2.74 5.546 3.154 12.15 1.32 18.057-1.629 5.245-5.878 9.104-10.53 12.056-1.294.822-2.492 1.578-3.495 2.516-.151.142-.526.414-.645.581-.455 1.818.294 3.948 1.462 5.454 1.296 1.668 3.123 2.832 4.918 3.956 1.792 1.123 3.626 2.272 4.948 3.921 1.322 1.648 2.056 3.925 1.333 5.907-.73 2.003-2.815 3.248-4.923 3.623-8.158 1.452-14.259-6.758-20.011-6.758-4.401 0-4.173 2.195-2.751 3.245.55.406 1.326.735 1.297 1.416-.029.61-.858.795-1.464.701-1.939-.299-3.649-1.69-4.406-3.483-1.189 1.101-2.831 1.737-4.467 1.896-2.166.212-4.339-.304-6.407-.975-2.07-.671-4.094-1.501-6.223-1.952-.657-.139-1.337-.242-2-.135-.664.108-1.316.458-1.649 1.04-.33.581-.257 1.406.268 1.825.253.202.577.294.858.454.284.158.546.433.523.756-.038.511-.704.694-1.217.659-1.522-.108-2.967-.989-3.753-2.288a4.814 4.814 0 0 1-.277-4.372c.87-1.961 2.987-3.12 5.102-3.524 1.452-.277 2.935-.265 4.419-.23a16.672 16.672 0 0 1-2.787-2.744c-.769-.964-1.525-1.92-2.393-2.783.465.683.417 1.729-.143 2.378-.71.823-1.984 1.003-3 .614-1.016-.388-1.789-1.251-2.304-2.207-.704-1.309-.985-2.865-.646-4.312.337-1.447 1.325-2.759 2.685-3.371 1.607-.725 3.525-.42 5.112.349 1.587.767 5.622 4.793 8.83 5.699 3.904 1.101 10.419-.571 5.334-10.106-8.542-16.016-3.627-28.542 1.831-34.042 4.052-4.084 9.825-6.35 15.578-6.35 1.994 0 3.984.271 5.902.835z" fill="#fff"/>
    </mask>
    <g mask="url(#dn1grx9ucj)">
        <path fill-rule="evenodd" clip-rule="evenodd" d="M133.054 102.218a28.702 28.702 0 0 0 1.335 3.862c1.214 2.837 3.05 5.479 3.799 8.494.467 1.881.443 3.953-.474 5.661a5.337 5.337 0 0 1-1.805 1.95c-.332.215-2.069 1.147-2.362.635-.234-.413 1.077-1.768 1.291-2.116.408-.659.919-1.499.854-2.307-.102-1.27-.556-2.481-1.021-3.666-1.392-3.55-2.929-7.053-4.014-10.708-1.085-3.655-1.712-7.504-1.231-11.285.403-3.186 1.701-7.744 4.649-9.55.23.508-.572 1.948-.747 2.518a29.28 29.28 0 0 0-.717 2.846 30.266 30.266 0 0 0-.578 5.967 30.058 30.058 0 0 0 1.021 7.699z" fill="#F26F5C"/>
    </g>
    <mask id="iwu9lmk6uk" style="mask-type:alpha" maskUnits="userSpaceOnUse" x="113" y="72" width="63" height="70">
        <path fill-rule="evenodd" clip-rule="evenodd" d="M158.931 73.359c5.956 1.748 11.032 6.147 13.771 11.694 2.74 5.546 3.154 12.15 1.32 18.057-1.629 5.245-5.878 9.104-10.53 12.056-1.294.822-2.492 1.578-3.495 2.516-.151.142-.526.414-.645.581-.455 1.818.294 3.948 1.462 5.454 1.296 1.668 3.123 2.832 4.918 3.956 1.792 1.123 3.626 2.272 4.948 3.921 1.322 1.648 2.056 3.925 1.333 5.907-.73 2.003-2.815 3.248-4.923 3.623-8.158 1.452-14.259-6.758-20.011-6.758-4.401 0-4.173 2.195-2.751 3.245.55.406 1.326.735 1.297 1.416-.029.61-.858.795-1.464.701-1.939-.299-3.649-1.69-4.406-3.483-1.189 1.101-2.831 1.737-4.467 1.896-2.166.212-4.339-.304-6.407-.975-2.07-.671-4.094-1.501-6.223-1.952-.657-.139-1.337-.242-2-.135-.664.108-1.316.458-1.649 1.04-.33.581-.257 1.406.268 1.825.253.202.577.294.858.454.284.158.546.433.523.756-.038.511-.704.694-1.217.659-1.522-.108-2.967-.989-3.753-2.288a4.814 4.814 0 0 1-.277-4.372c.87-1.961 2.987-3.12 5.102-3.524 1.452-.277 2.935-.265 4.419-.23a16.672 16.672 0 0 1-2.787-2.744c-.769-.964-1.525-1.92-2.393-2.783.465.683.417 1.729-.143 2.378-.71.823-1.984 1.003-3 .614-1.016-.388-1.789-1.251-2.304-2.207-.704-1.309-.985-2.865-.646-4.312.337-1.447 1.325-2.759 2.685-3.371 1.607-.725 3.525-.42 5.112.349 1.587.767 5.622 4.793 8.83 5.699 3.904 1.101 10.419-.571 5.334-10.106-8.542-16.016-3.627-28.542 1.831-34.042 4.052-4.084 9.825-6.35 15.578-6.35 1.994 0 3.984.271 5.902.835z" fill="#fff"/>
    </mask>
    <g mask="url(#iwu9lmk6uk)">
        <path fill-rule="evenodd" clip-rule="evenodd" d="M133.649 83.077c4.017-2.17 8.845-2.454 13.348-1.681 4.504.774 8.768 2.53 12.989 4.275 2.313.955 4.711 1.97 6.362 3.844 1.912 2.169 2.544 5.242 2.226 8.108-.318 2.869-1.495 5.571-2.848 8.122a49.815 49.815 0 0 1-3.551 5.683 70.867 70.867 0 0 1-2.016 2.668c-.65.82-1.249 1.701-1.94 2.476a16.426 16.426 0 0 1-3.945 3.224c-.149.086-.303.174-.411.309-.107.134-.159.329-.077.481.088.161.289.22.471.251.61.102 1.243.056 1.84.214 1.179.314 1.355 1.543 1.944 2.442a22.74 22.74 0 0 0 3.586 4.206c.914.835 1.856 1.697 2.366 2.823.511 1.125.475 2.594-.423 3.445-.951.899-2.459.811-3.733.5-2.797-.681-6.078-1.854-8.845-2.65-6.934-1.998-11.189 1.428-8.172 5.551 1.12 1.529 2.941 1.413 2.416 2.215 5.697 2.534 13.892 6.214 20.056 7.177 3.601.564 7.79.545 10.27-2.114 1.441-1.546 2.007-3.726 2.097-5.833.09-2.107-.244-4.207-.351-6.313-.43-8.468 2.787-16.712 3.212-25.18.68-13.554-6.429-27.23-17.938-34.506-3.89-2.458-8.296-4.235-12.893-4.566-4.596-.33-9.391.883-12.928 3.824-3.537 2.94-5.631 7.7-4.864 12.224l1.752-1.219z" fill="#CD202C"/>
    </g>
    <mask id="ia8xgi21sl" style="mask-type:alpha" maskUnits="userSpaceOnUse" x="113" y="72" width="63" height="70">
        <path fill-rule="evenodd" clip-rule="evenodd" d="M158.931 73.359c5.956 1.748 11.032 6.147 13.771 11.694 2.74 5.546 3.154 12.15 1.32 18.057-1.629 5.245-5.878 9.104-10.53 12.056-1.294.822-2.492 1.578-3.495 2.516-.151.142-.526.414-.645.581-.455 1.818.294 3.948 1.462 5.454 1.296 1.668 3.123 2.832 4.918 3.956 1.792 1.123 3.626 2.272 4.948 3.921 1.322 1.648 2.056 3.925 1.333 5.907-.73 2.003-2.815 3.248-4.923 3.623-8.158 1.452-14.259-6.758-20.011-6.758-4.401 0-4.173 2.195-2.751 3.245.55.406 1.326.735 1.297 1.416-.029.61-.858.795-1.464.701-1.939-.299-3.649-1.69-4.406-3.483-1.189 1.101-2.831 1.737-4.467 1.896-2.166.212-4.339-.304-6.407-.975-2.07-.671-4.094-1.501-6.223-1.952-.657-.139-1.337-.242-2-.135-.664.108-1.316.458-1.649 1.04-.33.581-.257 1.406.268 1.825.253.202.577.294.858.454.284.158.546.433.523.756-.038.511-.704.694-1.217.659-1.522-.108-2.967-.989-3.753-2.288a4.814 4.814 0 0 1-.277-4.372c.87-1.961 2.987-3.12 5.102-3.524 1.452-.277 2.935-.265 4.419-.23a16.672 16.672 0 0 1-2.787-2.744c-.769-.964-1.525-1.92-2.393-2.783.465.683.417 1.729-.143 2.378-.71.823-1.984 1.003-3 .614-1.016-.388-1.789-1.251-2.304-2.207-.704-1.309-.985-2.865-.646-4.312.337-1.447 1.325-2.759 2.685-3.371 1.607-.725 3.525-.42 5.112.349 1.587.767 5.622 4.793 8.83 5.699 3.904 1.101 10.419-.571 5.334-10.106-8.542-16.016-3.627-28.542 1.831-34.042 4.052-4.084 9.825-6.35 15.578-6.35 1.994 0 3.984.271 5.902.835z" fill="#fff"/>
    </mask>
    <g mask="url(#ia8xgi21sl)">
        <path fill-rule="evenodd" clip-rule="evenodd" d="M115.78 135.614c-.057-1.22.302-2.5 1.177-3.356.831-.811 2.013-1.151 3.162-1.338 2.778-.452 5.625-.182 8.421-.502 2.795-.321 5.729-1.4 7.223-3.773-2.336 2.009-5.575 2.604-8.66 2.721-3.084.118-6.207-.162-9.236.428-1.647.321-3.398 1.027-4.138 2.526-.596 1.206-.384 2.686.249 3.871.257.481 1.78 2.852 2.416 2.719.43-.09-.185-1.19-.273-1.474a7.355 7.355 0 0 1-.341-1.822z" fill="#F26F5C"/>
    </g>
    <mask id="x29htuuxrm" style="mask-type:alpha" maskUnits="userSpaceOnUse" x="113" y="72" width="63" height="70">
        <path fill-rule="evenodd" clip-rule="evenodd" d="M158.931 73.359c5.956 1.748 11.032 6.147 13.771 11.694 2.74 5.546 3.154 12.15 1.32 18.057-1.629 5.245-5.878 9.104-10.53 12.056-1.294.822-2.492 1.578-3.495 2.516-.151.142-.526.414-.645.581-.455 1.818.294 3.948 1.462 5.454 1.296 1.668 3.123 2.832 4.918 3.956 1.792 1.123 3.626 2.272 4.948 3.921 1.322 1.648 2.056 3.925 1.333 5.907-.73 2.003-2.815 3.248-4.923 3.623-8.158 1.452-14.259-6.758-20.011-6.758-4.401 0-4.173 2.195-2.751 3.245.55.406 1.326.735 1.297 1.416-.029.61-.858.795-1.464.701-1.939-.299-3.649-1.69-4.406-3.483-1.189 1.101-2.831 1.737-4.467 1.896-2.166.212-4.339-.304-6.407-.975-2.07-.671-4.094-1.501-6.223-1.952-.657-.139-1.337-.242-2-.135-.664.108-1.316.458-1.649 1.04-.33.581-.257 1.406.268 1.825.253.202.577.294.858.454.284.158.546.433.523.756-.038.511-.704.694-1.217.659-1.522-.108-2.967-.989-3.753-2.288a4.814 4.814 0 0 1-.277-4.372c.87-1.961 2.987-3.12 5.102-3.524 1.452-.277 2.935-.265 4.419-.23a16.672 16.672 0 0 1-2.787-2.744c-.769-.964-1.525-1.92-2.393-2.783.465.683.417 1.729-.143 2.378-.71.823-1.984 1.003-3 .614-1.016-.388-1.789-1.251-2.304-2.207-.704-1.309-.985-2.865-.646-4.312.337-1.447 1.325-2.759 2.685-3.371 1.607-.725 3.525-.42 5.112.349 1.587.767 5.622 4.793 8.83 5.699 3.904 1.101 10.419-.571 5.334-10.106-8.542-16.016-3.627-28.542 1.831-34.042 4.052-4.084 9.825-6.35 15.578-6.35 1.994 0 3.984.271 5.902.835z" fill="#fff"/>
    </mask>
    <g mask="url(#x29htuuxrm)">
        <path fill-rule="evenodd" clip-rule="evenodd" d="M121.135 139.752c-.891-.204-1.784-.486-2.524-1.021-.738-.536-1.308-1.364-1.347-2.273-.042-1.029.61-2.003 1.483-2.556.873-.553 1.933-.741 2.968-.768 2.073-.054 4.108.487 6.11 1.024 2 .536 4.036 1.077 6.108 1.025 2.072-.052 4.222-.784 5.524-2.39.15 1.357.09 2.714.24 4.069.069.632.138 1.279-.02 1.893-.388 1.504-1.961 2.344-3.4 2.941-1.979.821-4.02 1.527-6.136 1.866-2.117.339-4.32.298-6.362-.352-.689-.22-1.369-.516-1.912-.994-.541-.478-.739-1.744-.732-2.464z" fill="#CD202C"/>
    </g>
    <mask id="szg7kkj9cn" style="mask-type:alpha" maskUnits="userSpaceOnUse" x="113" y="72" width="63" height="70">
        <path fill-rule="evenodd" clip-rule="evenodd" d="M158.931 73.359c5.956 1.748 11.032 6.147 13.771 11.694 2.74 5.546 3.154 12.15 1.32 18.057-1.629 5.245-5.878 9.104-10.53 12.056-1.294.822-2.492 1.578-3.495 2.516-.151.142-.526.414-.645.581-.455 1.818.294 3.948 1.462 5.454 1.296 1.668 3.123 2.832 4.918 3.956 1.792 1.123 3.626 2.272 4.948 3.921 1.322 1.648 2.056 3.925 1.333 5.907-.73 2.003-2.815 3.248-4.923 3.623-8.158 1.452-14.259-6.758-20.011-6.758-4.401 0-4.173 2.195-2.751 3.245.55.406 1.326.735 1.297 1.416-.029.61-.858.795-1.464.701-1.939-.299-3.649-1.69-4.406-3.483-1.189 1.101-2.831 1.737-4.467 1.896-2.166.212-4.339-.304-6.407-.975-2.07-.671-4.094-1.501-6.223-1.952-.657-.139-1.337-.242-2-.135-.664.108-1.316.458-1.649 1.04-.33.581-.257 1.406.268 1.825.253.202.577.294.858.454.284.158.546.433.523.756-.038.511-.704.694-1.217.659-1.522-.108-2.967-.989-3.753-2.288a4.814 4.814 0 0 1-.277-4.372c.87-1.961 2.987-3.12 5.102-3.524 1.452-.277 2.935-.265 4.419-.23a16.672 16.672 0 0 1-2.787-2.744c-.769-.964-1.525-1.92-2.393-2.783.465.683.417 1.729-.143 2.378-.71.823-1.984 1.003-3 .614-1.016-.388-1.789-1.251-2.304-2.207-.704-1.309-.985-2.865-.646-4.312.337-1.447 1.325-2.759 2.685-3.371 1.607-.725 3.525-.42 5.112.349 1.587.767 5.622 4.793 8.83 5.699 3.904 1.101 10.419-.571 5.334-10.106-8.542-16.016-3.627-28.542 1.831-34.042 4.052-4.084 9.825-6.35 15.578-6.35 1.994 0 3.984.271 5.902.835z" fill="#fff"/>
    </mask>
    <g mask="url(#szg7kkj9cn)">
        <path fill-rule="evenodd" clip-rule="evenodd" d="M115.091 125.121c-.71-1.151-1.09-2.536-.881-3.871.209-1.334 1.059-2.594 2.302-3.136 1.499-.654 3.268-.197 4.691.608 1.422.803 2.639 1.93 4.052 2.75a11.106 11.106 0 0 0 7.949 1.204c-1.754.209-3.519-.405-5.037-1.304-1.518-.9-2.845-2.08-4.249-3.148-1.404-1.067-2.931-2.045-4.653-2.443-1.72-.397-3.677-.13-4.985 1.052-1.045.943-1.569 2.385-1.54 3.791.031 1.405.577 2.769 1.392 3.917" fill="#F26F5C"/>
    </g>
    <mask id="4zcpkjcoqo" style="mask-type:alpha" maskUnits="userSpaceOnUse" x="113" y="72" width="63" height="70">
        <path fill-rule="evenodd" clip-rule="evenodd" d="M158.931 73.359c5.956 1.748 11.032 6.147 13.771 11.694 2.74 5.546 3.154 12.15 1.32 18.057-1.629 5.245-5.878 9.104-10.53 12.056-1.294.822-2.492 1.578-3.495 2.516-.151.142-.526.414-.645.581-.455 1.818.294 3.948 1.462 5.454 1.296 1.668 3.123 2.832 4.918 3.956 1.792 1.123 3.626 2.272 4.948 3.921 1.322 1.648 2.056 3.925 1.333 5.907-.73 2.003-2.815 3.248-4.923 3.623-8.158 1.452-14.259-6.758-20.011-6.758-4.401 0-4.173 2.195-2.751 3.245.55.406 1.326.735 1.297 1.416-.029.61-.858.795-1.464.701-1.939-.299-3.649-1.69-4.406-3.483-1.189 1.101-2.831 1.737-4.467 1.896-2.166.212-4.339-.304-6.407-.975-2.07-.671-4.094-1.501-6.223-1.952-.657-.139-1.337-.242-2-.135-.664.108-1.316.458-1.649 1.04-.33.581-.257 1.406.268 1.825.253.202.577.294.858.454.284.158.546.433.523.756-.038.511-.704.694-1.217.659-1.522-.108-2.967-.989-3.753-2.288a4.814 4.814 0 0 1-.277-4.372c.87-1.961 2.987-3.12 5.102-3.524 1.452-.277 2.935-.265 4.419-.23a16.672 16.672 0 0 1-2.787-2.744c-.769-.964-1.525-1.92-2.393-2.783.465.683.417 1.729-.143 2.378-.71.823-1.984 1.003-3 .614-1.016-.388-1.789-1.251-2.304-2.207-.704-1.309-.985-2.865-.646-4.312.337-1.447 1.325-2.759 2.685-3.371 1.607-.725 3.525-.42 5.112.349 1.587.767 5.622 4.793 8.83 5.699 3.904 1.101 10.419-.571 5.334-10.106-8.542-16.016-3.627-28.542 1.831-34.042 4.052-4.084 9.825-6.35 15.578-6.35 1.994 0 3.984.271 5.902.835z" fill="#fff"/>
    </mask>
    <g mask="url(#4zcpkjcoqo)">
        <path fill-rule="evenodd" clip-rule="evenodd" d="M127.772 125.19c-2.622-1.364-4.988-3.224-7.743-4.298-.854-.332-1.773-.589-2.678-.452-.906.136-1.79.752-1.99 1.642-.201.89.531 1.937 1.443 1.86-.526-.155-.713-.903-.392-1.345.321-.444.984-.55 1.485-.329.503.22.85.703 1.032 1.218.278.789.175 1.756-.433 2.332-.512.486-1.286.614-1.984.5-.699-.112-1.342-.435-1.975-.753.196 1.041 1.047 1.865 2.011 2.313.965.448 2.042.581 3.098.707 2.777.335 5.652.941 8.457.68 2.657-.245 5.254-1.168 7.445-2.69-.364.253-1.792.3-2.249.293-.589-.01-1.221-.166-1.804-.291-1.299-.278-2.547-.776-3.723-1.387z" fill="#CD202C"/>
    </g>
    <path clip-rule="evenodd" d="M119.609 126.246c-.708.821-1.984 1.002-3 .614-1.016-.389-1.789-1.251-2.303-2.207-.705-1.308-.985-2.865-.648-4.312.339-1.448 1.326-2.759 2.685-3.372 1.608-.724 3.525-.419 5.113.348 1.588.769 5.623 4.795 8.83 5.7 3.904 1.101 10.419-.571 5.335-10.105-8.542-16.017-3.627-28.542 1.83-34.042s14.032-7.702 21.481-5.516c5.955 1.748 11.031 6.147 13.771 11.695 2.739 5.547 3.154 12.15 1.319 18.055-1.628 5.247-5.878 9.106-10.529 12.058-1.295.821-2.492 1.578-3.495 2.516-.152.142-.527.414-.645.581-.455 1.818.293 3.948 1.461 5.453 1.296 1.669 3.123 2.833 4.917 3.956 1.794 1.124 3.628 2.273 4.95 3.921 1.321 1.649 2.056 3.925 1.332 5.908-.731 2.004-2.815 3.248-4.923 3.623-8.157 1.452-14.258-6.759-20.011-6.759-4.4 0-4.173 2.196-2.751 3.246.55.405 1.327.734 1.296 1.415-.027.61-.856.794-1.462.701-1.939-.298-3.651-1.689-4.406-3.482-1.19 1.101-2.832 1.737-4.469 1.896-2.165.212-4.336-.305-6.406-.975-2.069-.672-4.094-1.503-6.223-1.952-.657-.14-1.337-.243-2-.134-.663.108-1.316.457-1.647 1.038-.333.582-.258 1.407.266 1.826.253.202.576.294.859.454.282.158.546.434.522.756-.037.511-.704.694-1.218.658a4.86 4.86 0 0 1-3.752-2.288 4.814 4.814 0 0 1-.278-4.372c.87-1.96 2.988-3.12 5.103-3.523 1.453-.277 2.936-.265 4.419-.23a16.716 16.716 0 0 1-2.787-2.745c-.768-.964-1.524-1.919-2.394-2.783.466.684.418 1.728-.142 2.379z" stroke="#333739" stroke-width=".371"/>
    <path fill-rule="evenodd" clip-rule="evenodd" d="M174.426 101.131c-.259-5.19-1.79-8.84-5.671-12.367-3.881-3.525-13.208-8.66-23.837-10.543-3.172-.563-8.399.222-9.812 3.44 2.79-5.428 6.479-10.289 12.087-12.355 5.609-2.068 12.111-1.536 17.379 1.267 5.268 2.802 9.248 7.792 10.93 13.444 1.68 5.653.282 13.472-1.076 17.114z" fill="#fff"/>
    <mask id="3wewu8zydp" style="mask-type:alpha" maskUnits="userSpaceOnUse" x="135" y="68" width="42" height="34">
        <path fill-rule="evenodd" clip-rule="evenodd" d="M164.573 70.572c5.267 2.802 9.247 7.792 10.929 13.444 1.68 5.653.282 13.472-1.076 17.114-.26-5.19-1.791-8.84-5.671-12.366-3.881-3.526-13.207-8.66-23.837-10.544-3.005-.531-7.853.144-9.557 2.952 2.758-5.23 6.392-9.863 11.833-11.867a20.76 20.76 0 0 1 7.169-1.254c3.542-.001 7.091.862 10.21 2.521zM135.106 81.66c.074-.17.159-.332.255-.488-.087.161-.171.325-.255.488z" fill="#fff"/>
    </mask>
    <g mask="url(#3wewu8zydp)" fill-rule="evenodd" clip-rule="evenodd">
        <path d="M147.839 75.152c-2.123-.453-4.447-.821-6.747-1.115l4.431-5.181c2.14.26 4.225.632 6.256 1.112-1.26 1.688-2.547 3.32-3.94 5.184z" fill="#75151E"/>
        <path d="M153.864 74.756c-.382.11-.746.113-1.052.01-.734-.246-.866-1.01-.323-1.743.531-.716 1.512-1.099 2.251-.867.307.096.527.284.633.543l.006.013.959-.352-.006-.016c-.159-.445-.536-.778-1.052-.937-1.202-.366-2.818.247-3.644 1.358-.855 1.15-.629 2.416.558 2.82.514.175 1.156.159 1.806-.048l.023-.008a56.973 56.973 0 0 0-.14-.778l-.019.005zm.615 1.483c.274.102.548.205.822.31 1.02-1.383 1.99-2.728 2.906-4.032a65.427 65.427 0 0 0-.817-.288 205.504 205.504 0 0 1-2.911 4.01zm5.147.124c.023-.06.393-3.17.377-3.175a60.378 60.378 0 0 0-.793-.309 218.94 218.94 0 0 1-2.896 4.057c.274.11.548.222.822.336.608-.84 1.199-1.666 1.772-2.48-.002.137-.369 3.132-.38 3.123.002-.005 3.041-1.826 3.173-1.899-.563.825-1.142 1.662-1.736 2.51.275.13.549.262.822.396a242.131 242.131 0 0 0 2.811-4.147c-.26-.127-.521-.252-.782-.374.001-.005-3.122 1.915-3.19 1.963zm4.259 3.138a57.545 57.545 0 0 0-.797-.436c.223-.333.445-.665.664-.996.264.142.528.287.79.435.37.208.334.54.178.778-.158.243-.461.427-.835.219zm.961-3.096c.244.132.487.267.729.403.307.173.38.448.199.73-.183.284-.476.348-.784.175-.245-.137-.49-.273-.735-.405l.591-.903zm.739 2.143c.244 0 .715-.11 1.008-.573.451-.709.267-1.438-.486-1.867a46.548 46.548 0 0 0-1.58-.855 246.345 246.345 0 0 1-2.784 4.16c.57.293 1.138.596 1.704.91.775.428 1.563.237 2.058-.528.365-.565.218-1.015.08-1.247z" fill="#7C1710"/>
        <path d="M145.61 69.778c1.141.156 2.266.344 3.374.564.137.652.271 1.324.403 2.017-1.038.493-2.098 1-3.181 1.526a56.442 56.442 0 0 0-3.536-.615c1.065-.56 2.108-1.103 3.129-1.631a122.91 122.91 0 0 0-.189-1.861z" fill="#E5292B"/>
        <path d="M149.387 72.359c-.132-.694-.266-1.366-.403-2.017a57.066 57.066 0 0 0-3.374-.565c.066.603.129 1.223.189 1.861" fill="#FEFEFE"/>
        <path d="M164.836 86.532c1.995-1.762 4.225-6.687 4.672-9.286.447-2.6-1.123-4.334-2.887-5.433 5.015 2.256 10.561 7.214 11.754 12.51 1.193 5.294.389 10.865-1.301 16.027-.277.848-.584 1.701-1.108 2.426-.526.726-1.301 1.32-2.197 1.444-1.387.193-2.665-.736-3.644-1.719-3.813-3.835-5.733-9.412-5.072-14.734.073-.592-.667-.836-.217-1.235z" fill="#C5C4C3"/>
    </g>
    <path clip-rule="evenodd" d="M174.426 101.131c-.259-5.19-1.79-8.84-5.671-12.367-3.881-3.525-13.208-8.66-23.837-10.543-3.172-.563-8.399.222-9.812 3.44 2.79-5.428 6.479-10.289 12.087-12.355 5.609-2.068 12.111-1.536 17.379 1.267 5.268 2.802 9.248 7.792 10.93 13.444 1.68 5.653.282 13.472-1.076 17.114z" stroke="#333739" stroke-width=".371" stroke-linecap="round" stroke-linejoin="round"/>
    <path d="M169.651 74.316c2.817 3.368-.732 10.384-2.431 13.11" stroke="#333739" stroke-width=".371" stroke-linecap="round" stroke-linejoin="round"/>
    <path fill-rule="evenodd" clip-rule="evenodd" d="M145.844 78.305c11.519 4.259 17.911 10.094 22.911 10.46-1.249-1.224-11.392-10.023-22.911-10.46z" fill="#fff"/>
    <mask id="75pgb04ofq" style="mask-type:alpha" maskUnits="userSpaceOnUse" x="145" y="78" width="24" height="11">
        <path fill-rule="evenodd" clip-rule="evenodd" d="M168.755 88.764c-4.999-.366-11.392-6.2-22.911-10.46 11.519.438 21.662 9.237 22.911 10.46z" fill="#fff"/>
    </mask>
    <g mask="url(#75pgb04ofq)">
        <path fill-rule="evenodd" clip-rule="evenodd" d="M144.918 78.223c4.271 7.54 20.076 14.915 28.65 16.769-.276-.06-1.034-1.915-1.216-2.22a35.593 35.593 0 0 0-1.474-2.278c-.829-1.181-1.766-2.77-3.062-3.512-.98-.56-2.17-1.014-3.197-1.516-1.809-.885-10.382-5.272-19.701-7.243z" fill="#C5C4C3"/>
    </g>
    <path clip-rule="evenodd" d="M145.843 78.3c11.52 4.26 17.912 10.095 22.912 10.46-1.249-1.223-11.392-10.022-22.912-10.46z" stroke="#333739" stroke-width=".371" stroke-linecap="round" stroke-linejoin="round"/>
    <path fill-rule="evenodd" clip-rule="evenodd" d="M146.771 78.665c-2.387-1.142-10.523-.777-13.357 6.228-1.768-.275-3.442-2.314-3.856-4.048-.737-3.07 3.308-7.763 17.213-2.18z" fill="#C2C4C4"/>
    <path clip-rule="evenodd" d="M146.771 78.665c-2.387-1.142-10.523-.777-13.357 6.228-1.768-.275-3.442-2.314-3.856-4.048-.737-3.07 3.308-7.763 17.213-2.18z" stroke="#333739" stroke-width=".371" stroke-linecap="round" stroke-linejoin="round"/>
    <path fill-rule="evenodd" clip-rule="evenodd" d="M144.461 80.778c.062.278-.304.446-.466.211-.731-1.06-1.818-2.005-3.075-2.164-1.588-.2-4.899 1.238-7.217 5.416.246-1.694 1.237-4.287 2.461-5.454 1.43-1.361 3.208-1.856 5.094-1.262 1.511.477 2.869 1.76 3.203 3.253z" fill="#333739"/>
    <path clip-rule="evenodd" d="M144.461 80.778c.062.278-.304.446-.466.211-.731-1.06-1.818-2.005-3.075-2.164-1.588-.2-4.899 1.238-7.217 5.416.246-1.694 1.237-4.287 2.461-5.454 1.43-1.361 3.208-1.856 5.094-1.262 1.511.477 2.869 1.76 3.203 3.253z" stroke="#333739" stroke-width=".371" stroke-linecap="round" stroke-linejoin="round"/>
    <path d="M124.932 129.394c4.632.174 8.947-.638 11.891-3.972M139.755 136.239c-.545-1.359-.687-3.243-.134-4.841a6.673 6.673 0 0 1 3.263-3.73c2.326-1.176 5.132-.884 7.637-.158 2.503.727 4.895 1.858 7.462 2.317.538.096 1.12.156 1.609-.084.49-.241.81-.895.514-1.352M119.83 123.994a4.403 4.403 0 0 0-1.793-1.661c-.373-.187-.829-.318-1.197-.123-.446.235-.548.868-.335 1.323.212.456.649.762 1.09 1.007M155.726 104.117a4.038 4.038 0 0 1-2.979-.828M136.87 99.793c-.419.441-.83.961-1.25 1.402.392.292.562.392.953.683" stroke="#333739" stroke-width=".371" stroke-linecap="round" stroke-linejoin="round"/>
    <path fill-rule="evenodd" clip-rule="evenodd" d="M154.509 104.122c-.127 1.941-.288 3.916-1.01 5.724-.722 1.808-2.095 3.455-3.957 4.046-1.212.384-2.543.293-3.749-.103-1.206-.398-2.298-1.086-3.286-1.882-3.093-2.493-5.242-6.123-5.933-10.024 2.486 1.979 6.771 3.41 9.925 3.84 3.153.43 5.806 0 8.01-1.601z" fill="#333739"/>
    <mask id="2m7wdbecrr" style="mask-type:alpha" maskUnits="userSpaceOnUse" x="136" y="101" width="19" height="14">
        <path fill-rule="evenodd" clip-rule="evenodd" d="M146.498 105.718c3.154.431 5.807 0 8.01-1.601-.126 1.942-.287 3.917-1.009 5.725-.722 1.807-2.095 3.454-3.957 4.046-1.211.383-2.542.293-3.749-.104-1.206-.397-2.298-1.086-3.286-1.882-3.094-2.493-5.242-6.122-5.933-10.023 2.486 1.979 6.771 3.41 9.924 3.839z" fill="#fff"/>
    </mask>
    <g mask="url(#2m7wdbecrr)">
        <path fill-rule="evenodd" clip-rule="evenodd" d="M141.88 106.822c-2.162-.839-2.88-2.315-3.013-4.072.019.252 2.908.882 3.242.969 1.124.292 2.257.541 3.399.745a45.859 45.859 0 0 0 5.133.63c.337.021 1.209-.098 1.439.201.535.694-3.725 4.043-10.2 1.527z" fill="#fff"/>
    </g>
    <mask id="n7zsatd1qs" style="mask-type:alpha" maskUnits="userSpaceOnUse" x="136" y="101" width="19" height="14">
        <path fill-rule="evenodd" clip-rule="evenodd" d="M146.498 105.718c3.154.431 5.807 0 8.01-1.601-.126 1.942-.287 3.917-1.009 5.725-.722 1.807-2.095 3.454-3.957 4.046-1.211.383-2.542.293-3.749-.104-1.206-.397-2.298-1.086-3.286-1.882-3.094-2.493-5.242-6.122-5.933-10.023 2.486 1.979 6.771 3.41 9.924 3.839z" fill="#fff"/>
    </mask>
    <g mask="url(#n7zsatd1qs)">
        <path clip-rule="evenodd" d="M141.88 106.822c-2.162-.839-2.88-2.315-3.013-4.072.019.252 2.908.882 3.242.969 1.124.292 2.257.541 3.399.745a45.859 45.859 0 0 0 5.133.63c.337.021 1.209-.098 1.439.201.535.694-3.725 4.043-10.2 1.527z" stroke="#333739" stroke-width=".371" stroke-linecap="round" stroke-linejoin="round"/>
    </g>
    <mask id="u7nsjh1sit" style="mask-type:alpha" maskUnits="userSpaceOnUse" x="136" y="101" width="19" height="14">
        <path fill-rule="evenodd" clip-rule="evenodd" d="M146.498 105.718c3.154.431 5.807 0 8.01-1.601-.126 1.942-.287 3.917-1.009 5.725-.722 1.807-2.095 3.454-3.957 4.046-1.211.383-2.542.293-3.749-.104-1.206-.397-2.298-1.086-3.286-1.882-3.094-2.493-5.242-6.122-5.933-10.023 2.486 1.979 6.771 3.41 9.924 3.839z" fill="#fff"/>
    </mask>
    <g mask="url(#u7nsjh1sit)">
        <path fill-rule="evenodd" clip-rule="evenodd" d="M154.168 109.687a12.873 12.873 0 0 0-5.681-.718c-1.268.126-2.535.451-3.628 1.104s-2.002 1.658-2.387 2.868c1.018.792 2.026 1.615 3.215 2.119 1.189.504 2.502.769 3.782.597a5.821 5.821 0 0 0 3.721-2.094c.914-1.133 1.103-2.428.978-3.876z" fill="#F38AAB"/>
    </g>
    <path clip-rule="evenodd" d="M154.509 104.118c-.127 1.941-.288 3.916-1.01 5.724-.722 1.808-2.095 3.455-3.957 4.046-1.212.384-2.543.293-3.749-.103-1.206-.398-2.298-1.086-3.286-1.882-3.093-2.493-5.242-6.123-5.933-10.024 2.486 1.979 6.771 3.41 9.925 3.84 3.153.43 5.806 0 8.01-1.601z" stroke="#333739" stroke-width=".371" stroke-linecap="round" stroke-linejoin="round"/>
    <path fill-rule="evenodd" clip-rule="evenodd" d="M158.33 87.493c2.981-.159 6.004 1.247 7.795 3.624-.025.64-.317 1.306-.748 1.782-1.146-2.86-3.983-4.993-7.047-5.406z" fill="#333739"/>
    <path clip-rule="evenodd" d="M158.33 87.493c2.981-.159 6.004 1.247 7.795 3.624-.025.64-.317 1.306-.748 1.782-1.146-2.86-3.983-4.993-7.047-5.406z" stroke="#333739" stroke-width=".371" stroke-linecap="round" stroke-linejoin="round"/>
    <path fill-rule="evenodd" clip-rule="evenodd" d="M139.044 83.744a5.933 5.933 0 0 0-4.72.438c.104.633.076 1.308.18 1.941 1.19-1.317 3.016-2.242 4.792-2.38-.105.026-.147-.025-.252 0z" fill="#333739"/>
    <path clip-rule="evenodd" d="M139.044 83.744a5.933 5.933 0 0 0-4.72.438c.104.633.076 1.308.18 1.941 1.19-1.317 3.016-2.242 4.792-2.38-.105.026-.147-.025-.252 0z" stroke="#333739" stroke-width=".371" stroke-linecap="round" stroke-linejoin="round"/>
    <path fill-rule="evenodd" clip-rule="evenodd" d="M153.834 90.646a6.336 6.336 0 0 1 4.308-3.12c2.399-.457 5.011.624 6.46 2.67 1.448 2.045 1.664 4.959.533 7.204-1.131 2.248-3.553 3.719-5.992 3.639-2.439-.08-4.775-1.705-5.78-4.021-1.003-2.316-.627-5.209.933-7.158" fill="#fff"/>
    <path d="M153.834 90.646a6.336 6.336 0 0 1 4.308-3.12c2.399-.457 5.011.624 6.46 2.67 1.448 2.045 1.664 4.959.533 7.204-1.131 2.248-3.553 3.719-5.992 3.639-2.439-.08-4.775-1.705-5.78-4.021-1.003-2.316-.627-5.209.933-7.158" stroke="#333739" stroke-width=".371" stroke-linecap="round" stroke-linejoin="round"/>
    <path fill-rule="evenodd" clip-rule="evenodd" d="M132.805 89.22c-.657 3.557.928 6.831 3.541 7.309 2.612.478 5.262-2.02 5.92-5.578.657-3.56-.928-6.832-3.54-7.31-2.613-.478-5.263 2.02-5.921 5.578z" fill="#fff"/>
    <path clip-rule="evenodd" d="M132.805 89.22c-.657 3.557.928 6.831 3.541 7.309 2.612.478 5.262-2.02 5.92-5.578.657-3.56-.928-6.832-3.54-7.31-2.613-.478-5.263 2.02-5.921 5.578z" stroke="#333739" stroke-width=".371" stroke-linecap="round" stroke-linejoin="round"/>
    <path fill-rule="evenodd" clip-rule="evenodd" d="M153.618 93.855c0 2.977 2.081 5.39 4.65 5.39 2.566 0 4.649-2.413 4.649-5.39 0-2.978-2.083-5.39-4.649-5.39-2.569 0-4.65 2.412-4.65 5.39z" fill="#333739"/>
    <path clip-rule="evenodd" d="M153.618 93.855c0 2.977 2.081 5.39 4.65 5.39 2.566 0 4.649-2.413 4.649-5.39 0-2.978-2.083-5.39-4.649-5.39-2.569 0-4.65 2.412-4.65 5.39z" stroke="#333739" stroke-width=".371" stroke-linecap="round" stroke-linejoin="round"/>
    <path d="M160.713 96.5c-1.312 3.276-6.433 1.488-5.897-3.125" stroke="#9B5225" stroke-width=".989" stroke-linecap="round" stroke-linejoin="round"/>
    <path fill-rule="evenodd" clip-rule="evenodd" d="M133.507 88.721c-.756 2.636.234 5.24 2.211 5.814 1.978.575 4.194-1.096 4.95-3.733.756-2.636-.234-5.24-2.211-5.814-1.977-.575-4.193 1.096-4.95 3.733z" fill="#333739"/>
    <path clip-rule="evenodd" d="M133.507 88.721c-.756 2.636.234 5.24 2.211 5.814 1.978.575 4.194-1.096 4.95-3.733.756-2.636-.234-5.24-2.211-5.814-1.977-.575-4.193 1.096-4.95 3.733z" stroke="#333739" stroke-width=".371" stroke-linecap="round" stroke-linejoin="round"/>
    <path d="M138.765 92.167c-.274.375-.575.737-.946 1.019-.37.282-.816.481-1.282.5-.632.025-1.25-.296-1.659-.776-.409-.48-.621-1.106-.677-1.733-.055-.627.038-1.26.183-1.872" stroke="#9B5225" stroke-width=".989" stroke-linecap="round" stroke-linejoin="round"/>
    <path fill-rule="evenodd" clip-rule="evenodd" d="M156.262 91.777c0 .65.529 1.175 1.18 1.175.653 0 1.182-.526 1.182-1.175 0-.65-.529-1.175-1.182-1.175-.651 0-1.18.525-1.18 1.175zM135.308 87.302c-.243.603-.056 1.245.417 1.434.473.188 1.053-.147 1.297-.75.242-.602.056-1.244-.417-1.433-.473-.19-1.055.146-1.297.749zM159.581 96.987a.617.617 0 1 0 1.24-.002.617.617 0 0 0-1.24.002zM137.475 92.195c-.114.321-.021.646.206.726.228.08.505-.113.619-.434.114-.321.023-.646-.206-.727-.227-.08-.505.115-.619.435z" fill="#fff"/>
    <path d="M160.22 117.449c-.693.582-1.761 1.667-2.438 2.644" stroke="#333739" stroke-width=".371" stroke-linecap="round" stroke-linejoin="round"/>
    <path d="M44.043 133.858c2.14 0 3.873-1.373 3.873-3.068 0-1.694-1.734-3.067-3.873-3.067-2.139 0-3.873 1.373-3.873 3.067 0 1.695 1.734 3.068 3.873 3.068z" fill="#FFAB00"/>
    <path d="M44.577 133.858c2.14 0 3.873-1.324 3.873-2.956 0-1.633-1.734-2.957-3.873-2.957-2.139 0-3.872 1.324-3.872 2.957 0 1.632 1.733 2.956 3.872 2.956z" fill="#FFAB00"/>
    <path d="M44.522 130.603c1.333 0 2.415-.445 2.415-.993s-1.082-.993-2.415-.993c-1.334 0-2.415.445-2.415.993s1.08.993 2.415.993z" fill="#fff"/>
    <path d="M61.048 141.667 58.2 130.11l-22.758-.524s-2.716.1-2.716 1.372L31 141.667" fill="#FFAB00"/>
    <path d="M66.123 72.7v-4.707s3.194-.457 3.929-1.193c.6-.603 1.68-3.291 2.058-4.295l.145-.38.49-5.9v-3.85s-.49-1.561-.98-2.543c-.49-.981-.979-1.963-1.958-2.956-.98-.993-2.449-1.472-2.449-1.472s-1.958-.982-3.439-.982c-1.468 0-1.468 0-2.949.49-1.469.492-2.949 1.473-2.949 1.473s-.98.491-1.469.982c-.49.49-1.469 1.963-1.959 2.956-.49.993-.49 1.963-.49 2.454v3.224c0 .714.98 3.18 1.47 4.161.49.982.6 1.651.98 2.454.467.993.979 1.964.979 1.964s.49.981.49 1.472v7.374h8.157l-.056-.725z" fill="#FFDDC5"/>
    <path d="m63.43 65.441-6.377.134-2.448-6.392s-2.204-5.165-2.449-6.392c-.245-1.227-.245-1.963 0-3.57.245-1.595.98-2.342.98-2.342s1.224-1.228 2.949-1.964c1.714-.736 1.714-.736 2.448-.981.735-.246 3.439-.491 3.439-.491h6.177l1.424-.246.735-.245.49-.491.489.49.49.983.49.981s.489 1.026.489 1.004v1.673s-.245.525-.49 1.261c-.245.736-1.224.736-1.469.982-.245.245-1.469.49-1.469.49l-1.469.491h-.49v.982l.735.736.512.68.467.804-.245 1.718v.49s-2.17-2.208-2.682-2.208-1.001.49-1.246.736c-.245.246-.734 1.227-.49 1.964.245.736 1.09 2.208 1.09 2.208l.39.737-2.448 5.9" fill="#333739"/>
    <path d="m70.408 73.94-14.757-.245v-1.941h11.563c.044 0 2.804.97 3.36 2.186" fill="#F66"/>
    <path d="M40.66 88.723s-2.905 9.214-2.905 10.664v3.771c0 1.082 4.352 21.44 4.352 21.44v2.566l.968 1.796 1.447 3.882 6.288-.97-.969-3.882-3.127-3.124s-1.703-20.626-1.703-22.567c0-1.941 3.384-10.174 3.384-10.174l-7.735-3.402zM113.188 105.121c.534.435 5.542.58 5.542.58l-1.369 5.5-3.428 1.004s-5.431-.747-4.418-.357c1.013.379-2.07-1.249-2.07-1.249s-1.714.747-17.784 1.561c-2.415.123-9.638-13.118-9.638-13.118l6.867-4.128s5.33 10.464 4.796 10.04c-.534-.435 16.215.736 17.662.58 1.436-.167 3.316-.848 3.84-.413z" fill="#FFDDC5"/>
    <path d="m79.433 102.041 9.193-4.841-4.596-13.632s-1.692-4.306-2.66-5.767c-.969-1.45-3.873-2.912-5.32-3.392s-6.288-.48-6.288-.48H51.488c-1.558 0-3.973.48-5.43.971-1.447.48-2.905 2.912-2.905 2.912l-2.66 6.548-2.671 7.251 9.927 4.373.801-2.42.167-.492s-1.524 25.903-4.429 41.9h35.613c.968-15.506-.724-33.656-.724-33.656l.256.725z" fill="#F66"/>
    <path d="m79.634 102.176-4.352-6.793 2.415 4.362 1.937 2.431z" fill="#F66"/>
    <path d="m79.912 134.973.111 7.083-35.735-.055.011-7.028h35.613z" fill="#333739"/>
</svg>
