<svg width="1213" height="519" viewBox="0 0 1213 519" fill="none" xmlns="http://www.w3.org/2000/svg">
    <g opacity=".1">
        <path fill-rule="evenodd" clip-rule="evenodd" d="M250.858 516.08s-88.182-88.933-14.912-185.219c65.008-85.431 140.798-79.589 196.419-44.921 23.681 14.757 91.966 1.82 150.097-85.109 79.234-118.547 353.969-46.643 303.874 135.739-24.239 88.262 73.778 91.469 23.832 179.694l-659.31-.184z" fill="#fff"/>
        <path clip-rule="evenodd" d="M250.858 516.08s-88.182-88.933-14.912-185.219c65.008-85.431 140.798-79.589 196.419-44.921 23.681 14.757 91.966 1.82 150.097-85.109 79.234-118.547 353.969-46.643 303.874 135.739-24.239 88.262 73.778 91.469 23.832 179.694l-659.31-.184z" stroke="#C6C7C8" stroke-width="1.149"/>
        <path fill-rule="evenodd" clip-rule="evenodd" d="M308.028 121.063c3.34 0 6.047-2.723 6.047-6.079 0-3.357-2.707-6.078-6.047-6.078-3.341 0-6.048 2.721-6.048 6.078 0 3.356 2.707 6.079 6.048 6.079zM449.434 178.792c2.912 0 5.275-2.374 5.275-5.301 0-2.93-2.363-5.303-5.275-5.303-2.915 0-5.278 2.373-5.278 5.303 0 2.927 2.363 5.301 5.278 5.301z" fill="#C6C7C8"/>
        <path fill-rule="evenodd" clip-rule="evenodd" d="M38.414 517.55h839.438s-81.125-105.954-225.184-82.911C463.486 464.9 393.242 399.396 302.396 376.15c-86.565-22.155-152.665 7.187-197.236 43.705-36.319 29.753-66.748 63.606-66.748 97.698l.002-.003z" fill="#fff"/>
        <path clip-rule="evenodd" d="M38.414 517.55h839.438s-81.125-105.954-225.184-82.911C463.486 464.9 393.242 399.396 302.396 376.15c-86.565-22.155-152.665 7.187-197.236 43.705-36.319 29.753-66.748 63.606-66.748 97.698l.002-.003z" stroke="#C6C7C8" stroke-width="1.149"/>
        <path fill-rule="evenodd" clip-rule="evenodd" d="M335.742 517.555s42.707-55.893 150.857-41.443c150.336 20.1 204.074-90.776 332.304-96.981 234.997-11.368 322.987 138.424 322.987 138.424H335.742z" fill="#fff"/>
        <path clip-rule="evenodd" d="M335.742 517.555s42.707-55.893 150.857-41.443c150.336 20.1 204.074-90.776 332.304-96.981 234.997-11.368 322.987 138.424 322.987 138.424H335.742zM1202.12 158.558c8.39 0 12.97-9.923 7.51-16.322-4.66-5.448-11.81-8.839-19.64-10.559-13.71-3.004-30.39 6.484-34.42 8.87-1.04-18.77-17.32-33.672-37.25-33.672-.8 0-1.61.025-2.41.077-5.1-26.883-30.55-47.323-61.18-47.323-34.31 0-62.114 25.63-62.114 57.245a52.487 52.487 0 0 0 .504 7.337 38.506 38.506 0 0 0-4.556-.279c-13.618 0-29.259 8.473-31.104 22.084 0 0-73.61-20.063-74.034 12.955l318.694-.413zM38.05 143.265h242.685c-.467-2.34-5.315-27.41-65.064-4.579 0 0 2.95-12.466-14.975-6.933-17.925 5.533-11.543-19.205-27.289-23.169-9.387-2.359-14.721 1.527-18.477 5.854-1.81-24.725-23.463-44.247-49.911-44.247-27.635 0-50.033 21.31-50.033 47.602a45.79 45.79 0 0 0 .253 4.834c-2.837-3.532-9.084-6.697-17.618-6.492-.194 0-.39 0-.583.025-17.287 1.013-16.315 27.105 1.012 27.105z" stroke="#C6C7C8" stroke-width="1.149"/>
        <path fill-rule="evenodd" clip-rule="evenodd" d="M31.163 517.552 1 486.724l34.111 23.763-1.107-22.555 15.986 19.611-2.818-70.18 11.912 62.623 11.399-10.882-1.057 18.838 12.874-5.347-10.122 14.934-41.015.023z" fill="#fff"/>
        <path clip-rule="evenodd" d="M31.163 517.552 1 486.724l34.111 23.763-1.107-22.555 15.986 19.611-2.818-70.18 11.912 62.622 11.399-10.881-1.057 18.838 12.874-5.347-10.122 14.934-41.015.023z" stroke="#C6C7C8" stroke-width="1.149"/>
        <path fill-rule="evenodd" clip-rule="evenodd" d="M933.706 392.068a.912.912 0 0 1 1.282.141.92.92 0 0 1-.143 1.29l-.105.088-.07.06c-.134.116-.29.252-.46.412l-.09.08a35.503 35.503 0 0 0-1.988 2.026c-2.069 2.28-4.144 5.057-6.084 8.345-3.786 6.421-6.576 13.965-7.954 22.676-1.7 10.778-1.139 22.807 2.111 36.129a.914.914 0 0 1-.67 1.106.909.909 0 0 1-1.101-.671c-3.308-13.554-3.879-25.829-2.139-36.848 1.412-8.949 4.283-16.711 8.183-23.324 2.005-3.399 4.156-6.276 6.306-8.647a37.242 37.242 0 0 1 1.961-2.007l.137-.13c.386-.357.667-.6.824-.726z" fill="#C6C7C8"/>
        <path clip-rule="evenodd" d="M924.338 451.294a2.795 2.795 0 0 1-.942-2.412c1.913-17.705 9.878-35.924 22.283-42.608 12.74-6.867 21.433 12.208 3.77 29.911-13.286 13.338-20.4 15.506-23.107 15.778a2.676 2.676 0 0 1-2.004-.669z" stroke="#C6C7C8" stroke-width="1.149"/>
        <path fill-rule="evenodd" clip-rule="evenodd" d="M896.383 447.207c5.23.452 9.359 3.329 12.493 7.805a28.17 28.17 0 0 1 2.902 5.312c.235.562.435 1.092.603 1.576l.061.178c.108.324.18.558.217.691a.917.917 0 0 1-.638 1.127.912.912 0 0 1-1.106-.587l-.056-.198-.051-.161-.094-.286c-.166-.492-.37-1.04-.618-1.634a26.528 26.528 0 0 0-2.71-4.966c-2.853-4.069-6.531-6.632-11.16-7.032a.916.916 0 0 1 .104-1.828l.053.003zM956.657 407.182a.918.918 0 0 1 .042 1.25l-.068.071-.356.366-.336.342a61.25 61.25 0 0 1-.494.517l-.271.283a207.636 207.636 0 0 0-3.927 4.253c-4.066 4.519-8.131 9.389-11.924 14.414-4.516 5.983-8.334 11.792-11.236 17.265a75.9 75.9 0 0 0-2.463 5.076.91.91 0 0 1-1.202.471.914.914 0 0 1-.467-1.205 76.07 76.07 0 0 1 2.523-5.202c2.95-5.568 6.822-11.454 11.39-17.512 3.829-5.071 7.927-9.978 12.025-14.537l.503-.555c1.16-1.281 2.25-2.458 3.246-3.51l.616-.645.601-.623.509-.519a.91.91 0 0 1 1.289 0z" fill="#C6C7C8"/>
        <path fill-rule="evenodd" clip-rule="evenodd" d="m949.819 431.319.312-.015c.608-.027 1.13-.038 1.55-.038l.412.005a.915.915 0 0 1-.006 1.831l-.143-.003c-.48-.008-1.167.003-2.028.05a46.573 46.573 0 0 0-4.21.424c-4.134.601-8.309 1.722-12.307 3.482a.917.917 0 0 1-1.204-.472.92.92 0 0 1 .472-1.207c4.16-1.83 8.491-2.99 12.777-3.613a48.672 48.672 0 0 1 4.375-.444z" fill="#C6C7C8"/>
        <path fill-rule="evenodd" clip-rule="evenodd" d="M941.804 409.259c.442.248.6.807.353 1.247l-.214.389a27.26 27.26 0 0 1-.225.42l-.296.557a152.043 152.043 0 0 0-4.419 9.04 104.907 104.907 0 0 0-2.392 5.771l-.176.467c-1.837 4.965-2.749 8.955-2.503 11.545a.912.912 0 1 1-1.816.173c-.288-3.03.74-7.405 2.79-12.835a107.177 107.177 0 0 1 2.432-5.87 152.18 152.18 0 0 1 3.589-7.461l.344-.665c.26-.502.51-.973.742-1.406l.331-.614.219-.404a.915.915 0 0 1 1.241-.354zM937.377 442.354c1.28-.11 2.387-.14 3.241-.13l.29.007a.914.914 0 0 1 .879.949.914.914 0 0 1-.892.881l-.177-.003a31.262 31.262 0 0 0-3.187.121c-1.927.161-3.829.475-5.596.974-1.667.467-3.144 1.084-4.382 1.853a.908.908 0 0 1-1.255-.294.92.92 0 0 1 .294-1.263c1.396-.868 3.029-1.546 4.85-2.059 1.89-.534 3.902-.865 5.935-1.036z" fill="#C6C7C8"/>
        <path clip-rule="evenodd" d="M908.588 435.115c-.942.672-2.037.763-2.889.308-16.63-9.19-30.675-26.343-30.887-44.838-.245-19.016 23.289-23.013 31.769 6.472 6.384 22.189 4.866 32.168 3.709 35.74-.333.917-.942 1.772-1.702 2.318z" stroke="#C6C7C8" stroke-width="1.149"/>
        <path fill-rule="evenodd" clip-rule="evenodd" d="M880.483 378.309a.91.91 0 0 1 1.237-.37c7.803 4.236 14.1 14.099 19.123 27.889 2.368 6.502 4.297 13.46 5.82 20.416l.174.806c.4 1.863.745 3.617 1.039 5.234l.123.686c.126.712.233 1.343.321 1.888l.104.675a.911.911 0 1 1-1.804.268l-.085-.542-.071-.439c-.066-.402-.139-.843-.223-1.321l-.037-.208a171.495 171.495 0 0 0-1.324-6.653c-1.505-6.883-3.411-13.764-5.75-20.18-4.884-13.406-10.973-22.943-18.279-26.909a.917.917 0 0 1-.368-1.24z" fill="#C6C7C8"/>
        <path fill-rule="evenodd" clip-rule="evenodd" d="M874.92 393.051a.913.913 0 0 1 1.207-.459 162.565 162.565 0 0 1 12.116 6.087l.531.297c5.821 3.288 10.301 6.424 12.886 9.278a.917.917 0 0 1-.06 1.293.91.91 0 0 1-1.29-.06c-2.493-2.756-7.036-5.904-12.955-9.208-4.084-2.282-8.296-4.353-11.978-6.018a.917.917 0 0 1-.457-1.21zM905.491 395.902a.914.914 0 0 1 .994.826c.395 4.255.597 8.367.503 11.964l-.017.446c-.157 4.615-.811 7.941-2.158 9.718a.912.912 0 0 1-1.28.173.92.92 0 0 1-.172-1.282c2.024-2.671 2.243-10.81 1.308-20.847a.915.915 0 0 1 .822-.998zM882.585 414.183a.91.91 0 0 1 1.283-.135c2.111 1.716 5.23 3.532 9.078 5.38 2.7 1.295 5.597 2.528 8.498 3.654l.5.196c.659.254 1.283.49 1.869.703l.791.287.694.246a.919.919 0 0 1 .568 1.165.915.915 0 0 1-1.11.586l-.158-.057-.385-.135c-.107-.038-.221-.078-.341-.123l-.687-.249c-.74-.272-1.548-.577-2.402-.911-2.938-1.143-5.877-2.393-8.624-3.711l-.523-.253c-3.728-1.816-6.773-3.611-8.915-5.355a.92.92 0 0 1-.136-1.288z" fill="#C6C7C8"/>
        <path clip-rule="evenodd" d="M898.162 443.364c.348-2.573-.043-4.749-.877-4.863-.831-.113-1.787 1.881-2.134 4.451-.349 2.573.045 4.752.877 4.865.831.111 1.787-1.882 2.134-4.453z" stroke="#C6C7C8" stroke-width="1.149"/>
        <path clip-rule="evenodd" d="M896.042 447.806c.49-.598-.581-2.302-2.394-3.801-1.814-1.502-3.682-2.234-4.174-1.637-.49.598.58 2.3 2.394 3.803 1.813 1.501 3.682 2.234 4.174 1.635z" stroke="#C6C7C8" stroke-width="1.149"/>
        <path clip-rule="evenodd" d="M900.87 446.913c2.261-1.19 3.771-2.77 3.374-3.532-.397-.763-2.551-.415-4.813.775-2.26 1.188-3.77 2.77-3.374 3.532.397.761 2.551.414 4.813-.775zM892.987 451.073c2.061-1.135 3.432-2.606 3.061-3.288-.371-.678-2.343-.31-4.406.825-2.061 1.135-3.43 2.606-3.057 3.287.369.678 2.342.309 4.402-.824z" stroke="#C6C7C8" stroke-width="1.149"/>
        <path clip-rule="evenodd" d="M899.622 455.625c.704-.323.475-2.337-.506-4.498-.982-2.162-2.351-3.653-3.053-3.334-.704.322-.475 2.337.508 4.501.982 2.161 2.349 3.653 3.051 3.331z" stroke="#C6C7C8" stroke-width="1.149"/>
        <path fill-rule="evenodd" clip-rule="evenodd" d="M1008.68 421.556c-.18-1.014-3.68-24.768 5.27-51.242 8.59-25.436 3.84-47.002 3.8-47.216h6.32c.16.92.59 22.089-6.13 51.097-6.06 26.101 5.25 47.361 2.84 47.361h-12.1z" fill="#C6C7C8"/>
        <path fill-rule="evenodd" clip-rule="evenodd" d="m944.219 466.033-11.25 51.156h-35.722l-11.25-51.156c-.637-2.928 1.186-5.799 3.681-5.799h50.892c2.491.03 4.316 2.899 3.649 5.799z" fill="#fff"/>
        <path fill-rule="evenodd" clip-rule="evenodd" d="m940.571 461.156.063.002c1.808.078 3.2 2.285 2.719 4.582l-11.114 50.541h-34.257l-11.089-50.438c-.523-2.4.929-4.687 2.788-4.687h50.89zm.012-1.832h-50.904c-3.13 0-5.322 3.454-4.569 6.911l11.248 51.154c.094.421.463.72.891.72h35.722a.91.91 0 0 0 .89-.72l11.252-51.152c.786-3.414-1.401-6.875-4.53-6.913z" fill="#C6C7C8"/>
        <path fill-rule="evenodd" clip-rule="evenodd" d="M1072.94 304.346c24.85-24.978 24.85-65.478 0-90.459-24.85-24.98-65.14-24.98-89.993 0-24.851 24.981-24.851 65.481 0 90.459 24.853 24.981 65.143 24.981 89.993 0z" fill="#FFAB00"/>
        <path fill-rule="evenodd" clip-rule="evenodd" d="M1072.94 304.346c24.85-24.978 24.85-65.478 0-90.459-24.85-24.98-65.14-24.98-89.993 0-24.851 24.981-24.851 65.481 0 90.459 24.853 24.981 65.143 24.981 89.993 0z" fill="#FFAB00" style="mix-blend-mode:multiply"/>
        <path fill-rule="evenodd" clip-rule="evenodd" d="M1067.43 305.049c24.86-24.98 24.86-65.48 0-90.459-24.85-24.979-65.14-24.979-89.99 0-24.852 24.979-24.852 65.479 0 90.459 24.85 24.978 65.14 24.978 89.99 0z" fill="#FFAB00"/>
        <path fill-rule="evenodd" clip-rule="evenodd" d="M1015.72 206.201c-29.826 3.776-51.044 31.24-47.282 61.221 3.761 29.98 31.08 51.312 60.902 47.525 29.83-3.783 51.05-31.237 47.29-61.216-3.77-29.98-31.08-51.303-60.91-47.539v.009zm14.05 112.195a57.739 57.739 0 0 1-38.134-8.507 58.236 58.236 0 0 1-24.11-30.893 58.58 58.58 0 0 1 .86-39.258c4.797-12.592 13.787-23.122 25.442-29.796a57.728 57.728 0 0 1 38.472-6.813 57.943 57.943 0 0 1 34.04 19.268 58.415 58.415 0 0 1 14.15 36.599c.36 13.48-3.93 26.667-12.16 37.316a57.708 57.708 0 0 1-17.07 14.925 57.427 57.427 0 0 1-21.49 7.159z" fill="#FFAB00" style="mix-blend-mode:multiply" opacity=".5"/>
        <path fill-rule="evenodd" clip-rule="evenodd" d="M1032.55 276.346a9.748 9.748 0 0 0-.55-3.341c-.39-.992-1-1.884-1.77-2.607-.94-.863-2-1.588-3.14-2.148a35.607 35.607 0 0 0-4.69-1.911 90.063 90.063 0 0 1-8.64-3.441 28.666 28.666 0 0 1-6.66-4.177 16.997 16.997 0 0 1-4.33-5.574c-1.03-2.133-1.55-4.676-1.58-7.629a17.57 17.57 0 0 1 1.31-7.017 16.132 16.132 0 0 1 3.84-5.542 19.992 19.992 0 0 1 5.99-3.854 26.838 26.838 0 0 1 7.86-1.932l-.07-9.673 7.74-.055.07 9.808c2.63.299 5.19 1.029 7.57 2.159a18.085 18.085 0 0 1 5.81 4.322 18.202 18.202 0 0 1 3.68 6.256 24.56 24.56 0 0 1 1.35 8.149l-14 .103c-.02-3.617-.84-6.316-2.45-8.099-1.61-1.78-3.76-2.661-6.44-2.641-1.27-.022-2.54.194-3.74.636-.97.368-1.85.944-2.58 1.692a6.656 6.656 0 0 0-1.47 2.518 9.734 9.734 0 0 0-.46 3.123 8.885 8.885 0 0 0 .5 3.024c.36.955.94 1.81 1.69 2.499.95.865 2.01 1.588 3.16 2.148 1.59.786 3.22 1.481 4.88 2.074 3.14 1.152 5.99 2.339 8.56 3.56a29.17 29.17 0 0 1 6.64 4.225 17.253 17.253 0 0 1 4.32 5.597c1.04 2.132 1.56 4.66 1.58 7.584.06 2.449-.39 4.884-1.33 7.15a15.929 15.929 0 0 1-3.86 5.495 19.413 19.413 0 0 1-6.04 3.751 28.96 28.96 0 0 1-7.91 1.868l.07 8.992-7.7.055-.06-8.949a32.245 32.245 0 0 1-7.79-1.708 20.598 20.598 0 0 1-6.68-3.853 18.446 18.446 0 0 1-4.69-6.409c-1.182-2.571-1.785-5.671-1.811-9.301l13.991-.098c.01 2.141.32 3.919.93 5.338a9.043 9.043 0 0 0 2.42 3.421 8.71 8.71 0 0 0 3.43 1.78c1.27.336 2.58.504 3.9.492 1.35.013 2.7-.193 3.99-.617a8.27 8.27 0 0 0 2.87-1.648 6.495 6.495 0 0 0 1.72-2.477c.4-.99.59-2.051.57-3.118z" fill="#FFAB00" style="mix-blend-mode:multiply" opacity=".5"/>
        <path fill-rule="evenodd" clip-rule="evenodd" d="M953.266 407.728c11.178-11.235 11.178-29.455 0-40.691-11.179-11.237-29.305-11.237-40.484 0-11.178 11.236-11.178 29.456 0 40.691 11.179 11.236 29.305 11.236 40.484 0z" fill="#FFAB00"/>
        <path fill-rule="evenodd" clip-rule="evenodd" d="M953.266 407.728c11.178-11.235 11.178-29.455 0-40.691-11.179-11.237-29.305-11.237-40.484 0-11.178 11.236-11.178 29.456 0 40.691 11.179 11.236 29.305 11.236 40.484 0z" fill="#FFAB00" style="mix-blend-mode:multiply"/>
        <path fill-rule="evenodd" clip-rule="evenodd" d="M932.374 416.452c15.774-1.036 27.731-14.728 26.703-30.584-1.028-15.858-14.652-27.873-30.428-26.841-15.774 1.035-27.731 14.729-26.703 30.584 1.029 15.859 14.652 27.873 30.428 26.841z" fill="#FFAB00"/>
        <path fill-rule="evenodd" clip-rule="evenodd" d="M927.525 363.582a24.442 24.442 0 0 0-13.002 5.832 24.667 24.667 0 0 0-7.586 12.112c-1.28 4.7-1.147 9.68.386 14.304a24.605 24.605 0 0 0 8.228 11.679 24.411 24.411 0 0 0 13.296 5.116 24.408 24.408 0 0 0 13.885-3.171 24.602 24.602 0 0 0 9.791-10.39 24.721 24.721 0 0 0-6.902-30.489 24.461 24.461 0 0 0-18.096-4.993zm6.319 50.465a25.98 25.98 0 0 1-17.156-3.826 26.192 26.192 0 0 1-10.846-13.896 26.342 26.342 0 0 1 .386-17.662 26.168 26.168 0 0 1 11.445-13.404 25.96 25.96 0 0 1 17.307-3.064 26.046 26.046 0 0 1 15.313 8.668 26.276 26.276 0 0 1 6.364 16.463 26.3 26.3 0 0 1-5.47 16.787 25.901 25.901 0 0 1-7.682 6.713 25.772 25.772 0 0 1-9.661 3.221z" fill="#FFAB00" style="mix-blend-mode:multiply" opacity=".5"/>
        <path fill-rule="evenodd" clip-rule="evenodd" d="M935.1 395.131a4.446 4.446 0 0 0-.25-1.504 3.15 3.15 0 0 0-.797-1.187 5.879 5.879 0 0 0-1.409-.964 15.868 15.868 0 0 0-2.105-.861 41.43 41.43 0 0 1-3.888-1.546 12.9 12.9 0 0 1-2.998-1.881 7.648 7.648 0 0 1-1.944-2.508 8.7 8.7 0 0 1-.125-6.587 7.261 7.261 0 0 1 1.723-2.49 9.059 9.059 0 0 1 2.7-1.739 12.04 12.04 0 0 1 3.542-.869l-.029-4.351 3.48-.027.033 4.413c1.179.136 2.331.462 3.406.972a8.208 8.208 0 0 1 2.612 1.94 8.158 8.158 0 0 1 1.658 2.807c.402 1.18.602 2.42.589 3.665l-6.294.045c-.01-1.624-.38-2.84-1.103-3.643a3.684 3.684 0 0 0-2.896-1.185 4.67 4.67 0 0 0-1.685.297 3.208 3.208 0 0 0-1.159.758c-.303.324-.53.711-.667 1.134a4.43 4.43 0 0 0-.205 1.406c-.004.463.074.924.226 1.361.164.429.423.811.759 1.12a5.99 5.99 0 0 0 1.422.968 20.08 20.08 0 0 0 2.197.929 49.163 49.163 0 0 1 3.852 1.597 13.031 13.031 0 0 1 2.985 1.903 7.731 7.731 0 0 1 1.949 2.518 8.745 8.745 0 0 1 .111 6.625 7.22 7.22 0 0 1-1.734 2.473 8.727 8.727 0 0 1-2.723 1.687 12.945 12.945 0 0 1-3.541.84l.03 4.045-3.466.025-.026-4.025a14.501 14.501 0 0 1-3.503-.768 9.21 9.21 0 0 1-3.005-1.739 8.313 8.313 0 0 1-2.111-2.882 10.184 10.184 0 0 1-.813-4.182l6.293-.045c-.02.823.124 1.639.419 2.407.237.592.609 1.12 1.088 1.537.448.381.976.654 1.541.802a6.808 6.808 0 0 0 1.756.222 5.512 5.512 0 0 0 1.793-.277 3.731 3.731 0 0 0 1.292-.742 3.01 3.01 0 0 0 .775-1.111 3.68 3.68 0 0 0 .245-1.383z" fill="#FFAB00" style="mix-blend-mode:multiply" opacity=".5"/>
        <path fill-rule="evenodd" clip-rule="evenodd" d="M1123.93 437.101a.582.582 0 0 1 .82.092c.2.254.16.625-.09.827l-.07.059-.04.038c-.09.075-.19.161-.3.264l-.05.052c-.39.357-.82.791-1.28 1.301-1.33 1.466-2.67 3.251-3.92 5.364-2.43 4.127-4.22 8.975-5.11 14.574-1.09 6.928-.73 14.658 1.36 23.22a.591.591 0 0 1-.43.713.588.588 0 0 1-.71-.432c-2.12-8.711-2.49-16.601-1.37-23.683.91-5.751 2.75-10.741 5.26-14.991a33.576 33.576 0 0 1 4.05-5.558c.45-.497.88-.925 1.26-1.289l.09-.084c.25-.229.43-.385.53-.467z" fill="#C6C7C8"/>
        <path clip-rule="evenodd" d="M1117.9 475.165c-.44-.394-.66-.96-.6-1.55 1.23-11.377 6.35-23.09 14.32-27.385 8.19-4.413 13.78 7.847 2.42 19.226-8.53 8.571-13.11 9.964-14.85 10.14-.46.04-.93-.118-1.29-.431z" stroke="#C6C7C8" stroke-width=".738"/>
        <path fill-rule="evenodd" clip-rule="evenodd" d="M1099.94 472.539c3.36.289 6.01 2.139 8.03 5.016.76 1.089 1.38 2.25 1.86 3.414.16.362.28.701.39 1.012l.04.115c.07.207.12.359.14.445a.587.587 0 0 1-1.12.347l-.04-.127-.03-.105a17.268 17.268 0 0 0-.46-1.232 16.7 16.7 0 0 0-1.74-3.193c-1.83-2.614-4.2-4.263-7.17-4.519a.602.602 0 0 1-.54-.638c.03-.313.3-.547.6-.539l.04.004zM1138.68 446.814c.22.219.23.572.03.803l-.05.046-.23.235-.21.221c-.1.104-.21.214-.32.33l-.18.183c-.76.8-1.61 1.715-2.52 2.733-2.61 2.905-5.23 6.035-7.66 9.264-2.91 3.846-5.36 7.579-7.22 11.098a43.34 43.34 0 0 0-1.59 3.263.58.58 0 0 1-.77.3c-.3-.129-.43-.477-.3-.774a45.287 45.287 0 0 1 1.62-3.343c1.9-3.578 4.39-7.361 7.32-11.255 2.46-3.26 5.1-6.414 7.73-9.343l.32-.357c.75-.825 1.45-1.579 2.09-2.256l.4-.415c.13-.145.26-.279.38-.399l.33-.334c.23-.231.6-.231.83 0z" fill="#C6C7C8"/>
        <path fill-rule="evenodd" clip-rule="evenodd" d="m1134.28 462.328.2-.01c.39-.018.73-.025 1-.025l.26.003c.33.012.58.283.57.609a.585.585 0 0 1-.57.568l-.09-.002c-.31-.005-.75.002-1.31.034-.83.043-1.73.133-2.7.272-2.66.386-5.34 1.105-7.91 2.237a.582.582 0 0 1-.77-.304.584.584 0 0 1 .3-.774c2.67-1.177 5.46-1.923 8.21-2.324 1-.146 1.95-.238 2.81-.284z" fill="#C6C7C8"/>
        <path fill-rule="evenodd" clip-rule="evenodd" d="M1129.13 448.151c.29.16.39.519.23.802l-.14.251c-.04.081-.09.171-.14.269l-.19.357c-.18.329-.37.688-.56 1.074a90.148 90.148 0 0 0-2.28 4.737 66.05 66.05 0 0 0-1.54 3.708l-.11.301c-1.18 3.191-1.77 5.756-1.61 7.421a.588.588 0 0 1-1.17.111c-.18-1.948.48-4.76 1.79-8.25.46-1.205.98-2.47 1.57-3.773a98.938 98.938 0 0 1 2.3-4.794l.23-.428c.16-.323.32-.625.47-.905l.21-.394.15-.259a.579.579 0 0 1 .79-.228zM1126.29 469.42c.82-.07 1.53-.09 2.08-.083l.19.005c.32.01.57.284.56.608a.58.58 0 0 1-.57.567l-.12-.001c-.52-.01-1.22.008-2.04.078-1.24.104-2.47.306-3.6.626-1.07.299-2.02.695-2.82 1.19a.577.577 0 0 1-.8-.189.587.587 0 0 1 .19-.811c.89-.559 1.94-.994 3.11-1.325 1.22-.342 2.51-.555 3.82-.665z" fill="#C6C7C8"/>
        <path clip-rule="evenodd" d="M1107.78 464.769c-.6.433-1.31.491-1.85.198-10.69-5.907-19.72-16.931-19.85-28.819-.16-12.221 14.96-14.79 20.41 4.161 4.11 14.26 3.13 20.674 2.39 22.97-.22.59-.61 1.138-1.1 1.49z" stroke="#C6C7C8" stroke-width=".738"/>
        <path fill-rule="evenodd" clip-rule="evenodd" d="M1089.72 428.259a.59.59 0 0 1 .8-.238c5.01 2.722 9.06 9.062 12.29 17.925 1.52 4.179 2.76 8.65 3.74 13.121l.11.518c.26 1.197.48 2.324.67 3.365l.08.44c.08.457.15.863.2 1.213l.07.434a.587.587 0 1 1-1.16.171l-.05-.347-.05-.283c-.04-.257-.09-.541-.14-.849l-.03-.135c-.23-1.288-.51-2.725-.85-4.274-.96-4.423-2.19-8.846-3.69-12.97-3.14-8.616-7.06-14.746-11.75-17.295a.597.597 0 0 1-.24-.796z" fill="#C6C7C8"/>
        <path fill-rule="evenodd" clip-rule="evenodd" d="M1086.15 437.733a.58.58 0 0 1 .77-.294c2.4 1.08 5.13 2.426 7.79 3.91l.34.193c3.74 2.113 6.62 4.127 8.28 5.962.22.241.2.615-.04.831a.587.587 0 0 1-.83-.038c-1.6-1.77-4.52-3.795-8.32-5.919a104.248 104.248 0 0 0-7.7-3.867c-.29-.133-.43-.481-.29-.778zM1105.8 439.565c.32-.03.6.208.63.53.26 2.734.39 5.379.33 7.689l-.01.286c-.1 2.967-.52 5.104-1.39 6.246a.582.582 0 0 1-.82.111.58.58 0 0 1-.11-.822c1.3-1.717 1.44-6.949.84-13.4-.03-.322.2-.61.53-.64zM1091.07 451.316a.591.591 0 0 1 .83-.086c1.36 1.102 3.36 2.27 5.83 3.457 1.74.833 3.6 1.625 5.46 2.348l.33.127c.42.163.82.314 1.2.452l.51.184.44.158c.31.107.47.441.37.748-.1.298-.42.46-.72.377l-.1-.036-.25-.087a5.977 5.977 0 0 1-.21-.079l-.45-.16c-.47-.176-.99-.371-1.54-.585a79.096 79.096 0 0 1-5.54-2.385l-.34-.165c-2.4-1.166-4.35-2.32-5.73-3.44a.596.596 0 0 1-.09-.828z" fill="#C6C7C8"/>
        <path clip-rule="evenodd" d="M1101.08 470.069c.23-1.654-.03-3.051-.56-3.125-.54-.073-1.15 1.209-1.37 2.861-.23 1.652.03 3.053.56 3.126.54.072 1.15-1.208 1.37-2.862z" stroke="#C6C7C8" stroke-width=".738"/>
        <path clip-rule="evenodd" d="M1099.72 472.923c.32-.384-.37-1.479-1.54-2.443-1.16-.966-2.36-1.436-2.68-1.054-.31.385.38 1.481 1.54 2.445 1.17.965 2.37 1.436 2.68 1.052z" stroke="#C6C7C8" stroke-width=".738"/>
        <path clip-rule="evenodd" d="M1102.82 472.351c1.46-.765 2.43-1.78 2.17-2.27-.25-.491-1.64-.268-3.09.498-1.45.763-2.42 1.78-2.17 2.269.26.49 1.64.266 3.09-.497zM1097.76 475.023c1.32-.729 2.2-1.675 1.96-2.112-.23-.437-1.5-.201-2.83.528-1.32.73-2.2 1.676-1.96 2.113.24.437 1.5.199 2.83-.529z" stroke="#C6C7C8" stroke-width=".738"/>
        <path clip-rule="evenodd" d="M1102.02 477.947c.45-.207.31-1.502-.32-2.89-.63-1.391-1.51-2.348-1.97-2.142-.45.207-.3 1.501.33 2.892.63 1.388 1.51 2.348 1.96 2.14z" stroke="#C6C7C8" stroke-width=".738"/>
        <path fill-rule="evenodd" clip-rule="evenodd" d="m1130.69 484.637-7.24 32.879h-22.95l-7.23-32.879c-.41-1.882.76-3.727 2.36-3.727h32.71c1.6.02 2.78 1.863 2.35 3.727z" fill="#fff"/>
        <path fill-rule="evenodd" clip-rule="evenodd" d="M1128.34 481.505h.04c1.16.052 2.06 1.469 1.75 2.945l-7.15 32.482h-22.01l-7.13-32.415c-.34-1.543.6-3.012 1.79-3.012h32.71zm.01-1.177h-32.72c-2.01 0-3.42 2.219-2.93 4.44l7.22 32.879c.07.269.3.462.58.462h22.96a.59.59 0 0 0 .57-.462l7.23-32.878c.51-2.192-.9-4.418-2.91-4.441z" fill="#C6C7C8"/>
        <path fill-rule="evenodd" clip-rule="evenodd" d="M1141.3 437.531c2.11-9.984-4.23-19.809-14.17-21.943-9.94-2.134-19.72 4.228-21.84 14.212-2.11 9.983 4.24 19.809 14.18 21.943 9.94 2.134 19.72-4.228 21.83-14.212z" fill="#FFAB00"/>
        <path fill-rule="evenodd" clip-rule="evenodd" d="M1141.3 437.531c2.11-9.984-4.23-19.809-14.17-21.943-9.94-2.134-19.72 4.228-21.84 14.212-2.11 9.983 4.24 19.809 14.18 21.943 9.94 2.134 19.72-4.228 21.83-14.212z" fill="#FFAB00" style="mix-blend-mode:multiply"/>
        <path fill-rule="evenodd" clip-rule="evenodd" d="M1133.07 449.57c8.15-6.095 9.82-17.678 3.75-25.867-6.08-8.191-17.61-9.886-25.76-3.791-8.15 6.096-9.82 17.678-3.75 25.867 6.08 8.189 17.61 9.886 25.76 3.791z" fill="#FFAB00"/>
        <path fill-rule="evenodd" clip-rule="evenodd" d="M1112.04 422.763a15.736 15.736 0 0 0-4.98 7.711c-.87 3.008-.82 6.208.13 9.193a15.798 15.798 0 0 0 5.19 7.579 15.688 15.688 0 0 0 8.5 3.409c3.11.267 6.23-.398 8.95-1.908a15.797 15.797 0 0 0 6.39-6.586 15.89 15.89 0 0 0 1.66-9.04 15.908 15.908 0 0 0-3.62-8.448 15.798 15.798 0 0 0-10.73-5.57c-4.16-.357-8.29.959-11.49 3.66zm20.99 24.994a16.731 16.731 0 0 1-10.59 3.96c-3.88.05-7.65-1.253-10.69-3.686a16.91 16.91 0 0 1-4.44-20.906c1.78-3.46 4.7-6.191 8.27-7.727a16.675 16.675 0 0 1 11.27-.703 16.797 16.797 0 0 1 9.17 6.645 16.89 16.89 0 0 1 2.9 10.971 16.64 16.64 0 0 1-1.81 6.318 16.737 16.737 0 0 1-4.08 5.128z" fill="#FFAB00" style="mix-blend-mode:multiply" opacity=".5"/>
        <path fill-rule="evenodd" clip-rule="evenodd" d="M1127.11 437.116c-.17-.278-.4-.522-.65-.725a2.01 2.01 0 0 0-.85-.359c-.36-.062-.73-.07-1.09-.025-.49.056-.97.15-1.44.276-.87.221-1.75.397-2.63.528a8.21 8.21 0 0 1-2.28.04 4.928 4.928 0 0 1-1.92-.669 5.61 5.61 0 0 1-2.36-3.509c-.12-.648-.09-1.31.06-1.948.17-.673.46-1.313.85-1.885.45-.65.99-1.227 1.61-1.714l-1.53-2.335 1.87-1.236 1.55 2.368a7.038 7.038 0 0 1 2.18-.671 5.24 5.24 0 0 1 3.95 1.06 7.086 7.086 0 0 1 1.6 1.77l-3.38 2.234c-.57-.873-1.19-1.399-1.87-1.577a2.324 2.324 0 0 0-1.02-.034c-.34.065-.67.207-.95.411-.31.199-.58.454-.8.751-.18.243-.31.52-.37.816-.05.281-.03.57.04.846.08.295.21.575.38.831.16.25.36.471.6.654.23.174.51.289.8.337.36.061.73.07 1.1.025.5-.063 1.01-.151 1.51-.273.94-.212 1.82-.379 2.63-.49.75-.11 1.52-.118 2.27-.022.68.089 1.34.316 1.93.674a5.622 5.622 0 0 1 2.37 3.533c.11.645.09 1.308-.07 1.943a5.66 5.66 0 0 1-.89 1.867c-.45.638-1 1.208-1.61 1.695l1.42 2.171-1.86 1.23-1.42-2.163c-.68.361-1.4.635-2.15.816-.73.18-1.48.22-2.23.118a5.316 5.316 0 0 1-2.14-.814 6.464 6.464 0 0 1-1.89-1.968l3.37-2.234c.28.451.64.839 1.07 1.15.33.236.72.389 1.12.447.37.049.75.009 1.11-.108.36-.121.7-.287 1.02-.497.34-.211.63-.473.88-.779.2-.253.35-.542.43-.854.08-.283.09-.582.03-.871-.06-.298-.18-.58-.35-.831z" fill="#FFAB00" style="mix-blend-mode:multiply" opacity=".5"/>
        <path fill-rule="evenodd" clip-rule="evenodd" d="M1010.34 389.842c0-.178.98-20.349-8.72-24.991l.68-.66c4.43 1.558 9.37 6.379 11.34 13.182 1.47 5.043.35 6.167.36 6.356l-3.66 6.113z" fill="#C6C7C8"/>
        <path fill-rule="evenodd" clip-rule="evenodd" d="M985.021 349.887s-1.106 10.382 4.298 14.793c5.407 4.411 15.281 1.185 15.281 1.185s1.11-10.381-4.3-14.788c-5.407-4.407-15.279-1.19-15.279-1.19zM1021.97 351.426c.03-.135 3.04-17.537 11.17-19.52-3.63.476-8.24 3.088-10.83 7.955-1.91 3.613-1.24 4.639-1.27 4.782l.93 6.783z" fill="#C6C7C8"/>
        <path fill-rule="evenodd" clip-rule="evenodd" d="M989.467 311.374s-8.762-12.43-18.71-16.082c0 0 3.722 29.16-1.72 29.522-5.439.361-1.813-32.794-1.813-32.794s-25.918-14.461-36.439-14.06c0 0 14.897 29.135 9.538 28.137-5.363-.995-22.264-30.592-22.264-30.592s-27.047-6.696-32.385 9.329c-5.337 16.024 1.278 24.589 5.27 25.846 3.991 1.258 30 2.446 29.13 5.802-.87 3.354-18.743 7.747-28.355 4.117 0 0 9.239 27.439 23.496 26.919 14.256-.523 19.158-9.085 27.974-9.249 8.819-.163 15.092 2.592 10.564 4.707-4.526 2.115-19.284-.353-26.728 5.285-7.441 5.638-13.397 9.035-.389 12.525 13.006 3.491 32.635-.45 41.952-6.689.027-.019 7.628-.627 13.609 34.739 2.308 13.644.535 33.86.535 33.86l4.829-.742c2.674-39.64-11.559-72.598-11.559-72.598s24.148-17.935 13.465-37.982z" fill="#C6C7C8"/>
        <path clip-rule="evenodd" d="M989.467 311.374s-8.762-12.43-18.71-16.082c0 0 3.722 29.16-1.72 29.522-5.439.361-1.813-32.794-1.813-32.794s-25.918-14.461-36.439-14.06c0 0 14.897 29.135 9.538 28.137-5.363-.995-22.264-30.592-22.264-30.592s-27.047-6.696-32.385 9.329c-5.337 16.024 1.278 24.589 5.27 25.846 3.991 1.258 30 2.446 29.13 5.802-.87 3.354-18.743 7.747-28.355 4.117 0 0 9.239 27.439 23.496 26.919 14.256-.523 19.158-9.085 27.974-9.249 8.819-.163 15.092 2.592 10.564 4.707-4.526 2.115-19.284-.353-26.728 5.285-7.441 5.638-13.397 9.035-.389 12.525 13.006 3.491 32.635-.45 41.952-6.689.027-.019 7.628-.627 13.609 34.739 2.308 13.644.535 33.86.535 33.86l4.829-.742c2.674-39.64-11.559-72.598-11.559-72.598s24.148-17.935 13.465-37.982z" stroke="#C6C7C8" stroke-width="1.149"/>
        <path fill-rule="evenodd" clip-rule="evenodd" d="M1068.43 363.705s-29.09-12.289-18.68-34.643c0 0 8.77-14 19.35-18.542 0 0-2.33 31.832 3.59 31.902 5.92.068.05-35.66.05-35.66s27.25-17.202 38.68-17.4c0 0-14.45 32.47-8.69 31.072 5.76-1.397 22.36-34.485 22.36-34.485s28.93-8.862 35.65 8.198c6.73 17.061.06 26.739-4.19 28.335-4.26 1.596-32.39 4.426-31.25 8.006 1.14 3.58 20.78 7.293 30.98 2.789 0 0-8.41 30.297-23.9 30.578-15.49.277-21.3-8.721-30.87-8.376-9.57.348-16.21 3.702-11.18 5.73 5.03 2.024 20.89-1.525 29.29 4.151 8.4 5.676 15.05 9.002 1.16 13.553-13.89 4.554-39.65 5.638-45.99-4.79l-6.36-10.418z" fill="#DDDEDE"/>
        <path clip-rule="evenodd" d="M1068.43 363.705s-29.09-12.289-18.68-34.643c0 0 8.77-14 19.35-18.542 0 0-2.33 31.832 3.59 31.902 5.92.068.05-35.66.05-35.66s27.25-17.202 38.68-17.4c0 0-14.45 32.47-8.69 31.072 5.76-1.397 22.36-34.485 22.36-34.485s28.93-8.862 35.65 8.198c6.73 17.061.06 26.739-4.19 28.335-4.26 1.596-32.39 4.426-31.25 8.006 1.14 3.58 20.78 7.293 30.98 2.789 0 0-8.41 30.297-23.9 30.578-15.49.277-21.3-8.721-30.87-8.376-9.57.348-16.21 3.702-11.18 5.73 5.03 2.024 20.89-1.525 29.29 4.151 8.4 5.676 15.05 9.002 1.16 13.553-13.89 4.554-39.65 5.638-45.99-4.79l-6.36-10.418z" stroke="#C6C7C8" stroke-width="1.149"/>
        <path fill-rule="evenodd" clip-rule="evenodd" d="M1147.87 301.188s-73.81 33.655-79.43 62.517c0 0 1.77 12.429-4.29 27.602l.63 5.502s5.91-19.616 10-22.679c.01 0-19.86-22.254 73.09-72.942z" fill="#C6C7C8"/>
        <path fill-rule="evenodd" clip-rule="evenodd" d="M1064.16 391.307s-9.78 19.378-.57 40.565l2.95-1.167s-5.67-23.846-.86-36.707c4.81-12.865-1.52-2.691-1.52-2.691zM957.506 230.587c11.924 12.751 5.722 38.085 5.722 38.085s-25.539 4.653-37.476-8.103c-11.935-12.758-5.721-38.09-5.721-38.09s25.547-4.65 37.475 8.108z" fill="#C6C7C8"/>
        <path clip-rule="evenodd" d="M957.506 230.587c11.924 12.751 5.722 38.085 5.722 38.085s-25.539 4.653-37.476-8.103c-11.935-12.758-5.721-38.09-5.721-38.09s25.547-4.65 37.475 8.108z" stroke="#C6C7C8" stroke-width="1.149"/>
        <path fill-rule="evenodd" clip-rule="evenodd" d="M957.506 230.587c11.924 12.751 5.722 38.085 5.722 38.085l-43.189-46.193s25.539-4.65 37.467 8.108z" fill="#DDDEDE"/>
        <path fill-rule="evenodd" clip-rule="evenodd" d="M1111.3 279.173c-6.22 7.247-20.28 5.297-20.28 5.297s-3.97-13.696 2.25-20.946c6.23-7.248 20.29-5.297 20.29-5.297s3.97 13.698-2.26 20.946z" fill="#C6C7C8"/>
        <path clip-rule="evenodd" d="M1111.3 279.173c-6.22 7.247-20.28 5.297-20.28 5.297s-3.97-13.696 2.25-20.946c6.23-7.248 20.29-5.297 20.29-5.297s3.97 13.698-2.26 20.946z" stroke="#C6C7C8" stroke-width="1.149"/>
        <path fill-rule="evenodd" clip-rule="evenodd" d="M1037.75 336.795c-4.17 1.164-9-3.138-9-3.138s1.93-6.186 6.11-7.348c4.17-1.163 8.99 3.138 8.99 3.138s-1.93 6.186-6.1 7.348zM964.083 206.929c2.86 6.822-3.301 15.936-3.301 15.936s-10.799-1.931-13.66-8.745c-2.859-6.817 3.303-15.936 3.303-15.936s10.798 1.929 13.658 8.745z" fill="#C6C7C8"/>
        <path clip-rule="evenodd" d="M964.083 206.929c2.86 6.822-3.301 15.936-3.301 15.936s-10.799-1.931-13.66-8.745c-2.859-6.817 3.303-15.936 3.303-15.936s10.798 1.929 13.658 8.745z" stroke="#C6C7C8" stroke-width="1.149"/>
        <path fill-rule="evenodd" clip-rule="evenodd" d="m1069.97 429.871-19.19 87.946h-60.922l-19.186-87.946c-1.088-5.038 2.021-9.973 6.274-9.973h86.794c4.26.054 7.37 4.988 6.23 9.973z" fill="#fff"/>
        <path fill-rule="evenodd" clip-rule="evenodd" d="m1064.34 421.054.1.002c3.11.136 5.5 3.929 4.68 7.883l-19.11 86.912h-58.918l-19.074-86.737c-.899-4.124 1.597-8.06 4.794-8.06h87.528zm.01-3.152h-87.54c-5.382 0-9.153 5.941-7.859 11.884l19.346 87.977a1.569 1.569 0 0 0 1.531 1.235h61.432c.74 0 1.38-.513 1.54-1.235l19.34-87.972c1.36-5.87-2.4-11.821-7.79-11.889z" fill="#C6C7C8"/>
        <path fill-rule="evenodd" clip-rule="evenodd" d="M234.312 391.124a.6.6 0 0 1-.424-.177.61.61 0 0 1-.177-.427v-9.864c0-20.027 14.468-36.32 32.255-36.32h14.955a.597.597 0 0 1 .422 1.025.593.593 0 0 1-.422.177h-14.955c-17.125 0-31.056 15.756-31.056 35.109v9.863a.614.614 0 0 1-.173.432.55.55 0 0 1-.195.133.54.54 0 0 1-.23.049z" fill="#fff"/>
        <path clip-rule="evenodd" d="M269.839 517.365v.193H107.137v-.835a16.052 16.052 0 0 1 3.607-5.676 15.934 15.934 0 0 1 5.611-3.681 15.869 15.869 0 0 1 13.079.75 16.004 16.004 0 0 1 6.26-8.291 15.884 15.884 0 0 1 10.004-2.681 15.91 15.91 0 0 1 9.535 4.066 16.05 16.05 0 0 1 5.041 9.091h10.678c1.096-5.563 7.354-8.127 12.894-8.127.74-.002 1.48.053 2.212.163a15.935 15.935 0 0 1-.186-2.432c0-10.283 9.763-18.624 21.804-18.624 11.013 0 20.129 6.979 21.597 16.041a15.51 15.51 0 0 1 7.665-2.601 15.476 15.476 0 0 1 7.929 1.619 15.586 15.586 0 0 1 6.049 5.398 15.693 15.693 0 0 1 2.535 7.724 11.135 11.135 0 0 1 5.9-1.657c5.793-.002 10.488 4.278 10.488 9.56z" stroke="#C6C7C8" stroke-width="1.149"/>
        <path fill-rule="evenodd" clip-rule="evenodd" d="m297.564 411.615 8.696-296.433c0-.379.149-.742.417-1.011a1.417 1.417 0 0 1 2.422 1.011l8.458 296.432-19.993.001z" fill="#C6C7C8"/>
        <mask id="a" style="mask-type:alpha" maskUnits="userSpaceOnUse" x="304" y="0" width="16" height="114">
            <path fill-rule="evenodd" clip-rule="evenodd" d="M304.5 0h15.009v113.708H304.5V0z" fill="#fff"/>
        </mask>
        <g mask="url(#a)">
            <path fill-rule="evenodd" clip-rule="evenodd" d="M318.848 59.446c-1.518 22.07-5.503 41.471-9.056 53.197a1.497 1.497 0 0 1-2.445.673 1.512 1.512 0 0 1-.47-.873c-1.919-12.05-3.232-31.676-1.717-53.737 1.771-26.01 7.006-48.323 10.884-58.706 2.453 10.822 4.591 33.436 2.804 59.446z" fill="#C6C7C8"/>
        </g>
        <path fill-rule="evenodd" clip-rule="evenodd" d="M255.915 137.962c17.912-10.523 35.161-17.914 46.826-21.784 2.002-.664 3.462 1.898 1.884 3.308-7.702 6.836-22.224 18.038-42.411 29.897-22.39 13.154-42.837 21.714-53.566 24.323 7.533-8.124 24.874-22.577 47.267-35.744zM356.393 132.754c20.755 10.86 37.713 23.997 44.706 31.253-9.931-1.597-28.884-9.028-49.655-19.888-16.812-8.791-31.11-17.891-39.664-24.886-1.52-1.232-.303-3.657 1.584-3.2 10.616 2.575 26.221 7.933 43.029 16.721zM440.098 432.071l7.594-258.557a1.239 1.239 0 0 1 1.238-1.244 1.239 1.239 0 0 1 1.238 1.244l7.378 258.557h-17.448z" fill="#C6C7C8"/>
        <path fill-rule="evenodd" clip-rule="evenodd" d="M464.896 135.359c-4.334 15.716-10.057 29.148-14.36 37.084a1.105 1.105 0 0 1-2.078-.578c.383-8.99 2.318-23.361 6.656-39.076 5.107-18.52 12.148-33.865 16.491-40.789.178 8.177-1.6 24.836-6.709 43.359zM407.901 182.737c14.486-4.945 28.03-7.725 37.032-8.789.324-.04.655.036.932.211a1.432 1.432 0 0 1 .566 1.722 1.438 1.438 0 0 1-.624.728c-6.566 3.798-18.7 9.733-35.025 15.306-18.109 6.178-34.135 9.327-42.27 9.623 6.63-4.747 21.277-12.621 39.389-18.801zM481.25 193.879c13.415 10.925 23.713 22.929 27.704 29.21-6.94-2.63-19.539-10.807-32.949-21.732-10.857-8.847-19.847-17.555-25.001-23.866a1.362 1.362 0 0 1-.018-1.687 1.336 1.336 0 0 1 1.634-.389c7.281 3.452 17.781 9.634 28.63 18.464z" fill="#C6C7C8"/>
        <path fill-rule="evenodd" clip-rule="evenodd" d="M226.695 495.925a.636.636 0 0 1-.23-.044.613.613 0 0 1-.37-.556V275.341a.692.692 0 0 1 .035-.243.605.605 0 0 1 .565-.399.58.58 0 0 1 .437.191.61.61 0 0 1 .162.451v219.984c0 .16-.065.313-.177.426a.608.608 0 0 1-.422.174z" fill="#333739"/>
        <path fill-rule="evenodd" clip-rule="evenodd" d="M214.646 217.597c1.52 7.647 4.6 13.898 7.79 16.499 1.955-3.631 2.417-10.587.902-18.238-1.513-7.65-4.596-13.898-7.789-16.503-1.952 3.634-2.416 10.596-.903 18.242zM229.227 291.196c1.518 7.646 4.599 13.895 7.786 16.5 1.956-3.634 2.421-10.588.904-18.24-1.516-7.654-4.596-13.9-7.789-16.503-1.945 3.633-2.419 10.593-.901 18.243zM261.819 241.868c-7.606 1.524-13.826 4.619-16.419 7.828 3.618 1.965 10.535 2.428 18.147.904 7.612-1.522 13.829-4.619 16.417-7.826-3.613-1.965-10.538-2.434-18.145-.906zM188.61 256.531c-7.607 1.527-13.826 4.619-16.417 7.823 3.614 1.968 10.535 2.435 18.147.909 7.612-1.522 13.827-4.62 16.417-7.826-3.628-1.975-10.553-2.434-18.147-.906zM243.21 219.948c-4.303 6.485-6.527 13.095-6.104 17.204 3.938-1.18 9.165-5.776 13.473-12.256 4.304-6.479 6.527-13.098 6.1-17.205-3.937 1.179-9.162 5.774-13.469 12.257zM201.749 282.359c-4.303 6.481-6.528 13.089-6.104 17.198 3.94-1.18 9.162-5.774 13.473-12.253 4.311-6.482 6.525-13.095 6.099-17.202-3.935 1.176-9.162 5.769-13.468 12.257zM259.487 270.644c-6.45-4.327-13.024-6.564-17.11-6.135 1.172 3.959 5.745 9.211 12.193 13.539 6.447 4.333 13.028 6.562 17.114 6.133-1.174-3.955-5.758-9.207-12.197-13.537zM197.405 228.964c-6.452-4.326-13.028-6.558-17.114-6.131 1.172 3.959 5.746 9.21 12.193 13.541 6.447 4.328 13.028 6.559 17.116 6.133-1.174-3.959-5.744-9.211-12.195-13.543zM228.399 217.103c-1.318 7.413-.742 14.126 1.212 17.593 3.038-2.571 5.892-8.649 7.21-16.076 1.319-7.427.74-14.124-1.216-17.593-3.029 2.572-5.874 8.666-7.206 16.076zM215.704 288.429c-1.319 7.409-.743 14.123 1.214 17.593 3.038-2.573 5.889-8.653 7.21-16.077 1.323-7.426.738-14.123-1.215-17.593-3.032 2.592-5.891 8.676-7.209 16.077zM262.3 255.636c-7.373-1.325-14.051-.743-17.503 1.222 2.559 3.053 8.619 5.92 15.994 7.246 7.376 1.325 14.051.743 17.503-1.221-2.559-3.049-8.621-5.921-15.994-7.247zM191.329 242.886c-7.372-1.325-14.049-.743-17.503 1.223 2.56 3.053 8.619 5.917 15.995 7.247 7.375 1.329 14.05.741 17.504-1.223-2.56-3.057-8.622-5.931-15.996-7.247zM253.483 230.392c-6.17 4.117-10.549 9.122-11.678 12.898 3.904.419 10.188-1.684 16.362-5.811 6.172-4.128 10.549-9.121 11.683-12.899-3.924-.421-10.2 1.692-16.367 5.812zM194.066 270.023c-6.172 4.121-10.549 9.122-11.683 12.9 3.902.417 10.188-1.684 16.365-5.811 6.175-4.127 10.549-9.125 11.68-12.899-3.904-.421-10.188 1.69-16.362 5.81zM249.238 281.089c-4.096-6.202-9.076-10.604-12.831-11.741-.415 3.919 1.676 10.243 5.78 16.444 4.107 6.205 9.078 10.608 12.834 11.743.419-3.919-1.684-10.24-5.783-16.446zM209.808 221.366c-4.097-6.201-9.074-10.604-12.832-11.741-.417 3.924 1.674 10.243 5.781 16.446 4.106 6.203 9.076 10.606 12.833 11.746.417-3.922-1.684-10.245-5.782-16.451z" fill="#C6C7C8"/>
        <path clip-rule="evenodd" d="M220.757 357.861v-10.897a33.458 33.458 0 0 0-6.763-20.179 33.164 33.164 0 0 0-17.536-11.944l-17.487-3.896 8.708 23.751a22.511 22.511 0 0 0 8.182 10.998 22.33 22.33 0 0 0 13.013 4.184c2.478 0 4.905.72 6.986 2.074a12.9 12.9 0 0 1 4.742 5.558l.155.351z" stroke="#C6C7C8" stroke-width="1.149"/>
        <path fill-rule="evenodd" clip-rule="evenodd" d="M220.758 356.3a.604.604 0 0 1-.599-.604v-8.968a32.926 32.926 0 0 0-6.651-19.797 32.647 32.647 0 0 0-17.189-11.753l-17.227-3.407a.608.608 0 0 1-.379-.256.656.656 0 0 1-.092-.216.62.62 0 0 1 .089-.452.603.603 0 0 1 .613-.258l17.294 3.426a33.838 33.838 0 0 1 17.832 12.176 34.128 34.128 0 0 1 6.905 20.527v8.968a.55.55 0 0 1-.041.233.551.551 0 0 1-.129.199.574.574 0 0 1-.194.133.622.622 0 0 1-.232.049z" fill="#fff"/>
        <path clip-rule="evenodd" d="M234.312 390.762v-9.866c0-19.731 14.175-35.72 31.655-35.72h14.955a45.684 45.684 0 0 1-13.283 32.224 45.21 45.21 0 0 1-32.058 13.35l-1.269.012z" stroke="#C6C7C8" stroke-width="1.149"/>
        <path fill-rule="evenodd" clip-rule="evenodd" d="M226.696 417.353a.357.357 0 0 1-.08 0 .595.595 0 0 1-.506-.677c.011-.096 1.364-9.921 6.056-21.926 4.339-11.106 12.499-26.43 26.752-36.383a.648.648 0 0 1 .214-.093.63.63 0 0 1 .233-.003.634.634 0 0 1 .217.085.606.606 0 0 1 .018.998c-13.996 9.767-22.022 24.855-26.308 35.797-4.643 11.885-5.982 21.582-5.995 21.68a.605.605 0 0 1-.601.522zM226.693 391.751h-.02a.592.592 0 0 1-.417-.192.61.61 0 0 1-.16-.431c0-.111.339-11.45-3.187-25.042-2.066-7.967-5.038-15.14-8.831-21.322-4.728-7.708-10.755-13.888-17.915-18.366a.591.591 0 0 1-.281-.374.612.612 0 0 1-.012-.241.594.594 0 0 1 .468-.491.593.593 0 0 1 .457.088c7.323 4.58 13.485 10.895 18.314 18.771 3.854 6.286 6.873 13.579 8.967 21.667 3.564 13.755 3.22 25.239 3.218 25.353a.61.61 0 0 1-.185.411.596.596 0 0 1-.416.169z" fill="#333739"/>
        <path fill-rule="evenodd" clip-rule="evenodd" d="M226.074 275.809c12.218 0 22.124-9.956 22.124-22.237 0-12.282-9.906-22.24-22.124-22.24-12.218 0-22.125 9.958-22.125 22.24 0 12.281 9.907 22.237 22.125 22.237z" fill="#fff"/>
        <path fill-rule="evenodd" clip-rule="evenodd" d="M243.936 240.438v26.247c.222-.301.435-.608.639-.926v-24.402a24.48 24.48 0 0 0-.639-.919zM239.386 235.805v35.538c.212-.161.424-.332.634-.507v-34.528c-.21-.173-.417-.335-.634-.503zM234.831 233.137v40.85c.217-.093.429-.189.638-.29v-40.269c-.209-.107-.422-.197-.638-.291zM230.282 231.73v43.672c.213-.04.425-.085.639-.132v-43.407c-.214-.048-.414-.093-.639-.133zM225.728 231.338v44.466h.641v-44.466h-.295c-.096 0-.23-.005-.346 0zM221.168 231.88v43.384c.209.048.422.091.636.133v-43.655c-.202.04-.427.087-.636.138zM216.62 233.452v40.217c.209.101.423.199.638.292v-40.809c-.21.098-.422.196-.638.3zM212.072 236.349v34.435c.207.175.42.344.637.507v-35.447c-.215.174-.429.332-.637.505zM207.522 241.452v24.231c.2.321.41.634.635.931V240.52c-.22.307-.432.618-.635.932z" fill="#7B7D7E"/>
        <path fill-rule="evenodd" clip-rule="evenodd" d="M212.885 271.416c.296.222.596.44.902.643h24.577c.306-.203.608-.421.904-.643h-26.383zM208.328 266.846c.161.218.321.432.492.642h34.507c.174-.21.336-.424.506-.642h-35.505zM205.713 262.266c.091.22.184.434.283.645h40.164c.098-.211.194-.425.285-.645h-40.732zM204.332 257.694c.041.219.081.429.132.641h43.226c.049-.212.092-.422.132-.641h-43.49zM203.953 253.574v.194h44.257v-.64h-44.255l-.002.446zM204.381 249.183h43.391a19.708 19.708 0 0 0-.136-.641h-43.118c-.048.214-.097.42-.137.641zM205.818 244.607h40.499c-.094-.211-.189-.425-.293-.638h-39.913c-.101.213-.2.422-.293.638zM208.52 240.035h35.114a20.141 20.141 0 0 0-.505-.643h-34.096c-.177.211-.346.426-.513.643zM213.227 235.464h25.697a32.5 32.5 0 0 0-.955-.641h-23.81c-.307.206-.626.435-.932.641z" fill="#7B7D7E"/>
    </g>
</svg>
