<svg width="195" height="137" viewBox="0 0 195 137" fill="none" xmlns="http://www.w3.org/2000/svg">
<path d="M128 63.3333V16.6667C128 12.9833 125.017 10 121.333 10H74.6667C70.9833 10 68 12.9833 68 16.6667V63.3333C68 67.0167 70.9833 70 74.6667 70H121.333C125.017 70 128 67.0167 128 63.3333ZM86.3333 45L94.6667 55.0167L106.333 40L121.333 60H74.6667L86.3333 45Z" fill="#D5D6D7"/>
<path d="M27.4141 115H25.125L19.5078 105.898H19.4453L19.4844 106.406C19.5573 107.375 19.5938 108.26 19.5938 109.062V115H17.8984V103.578H20.1641L25.7656 112.633H25.8125C25.8021 112.513 25.7812 112.078 25.75 111.328C25.7188 110.573 25.7031 109.984 25.7031 109.562V103.578H27.4141V115ZM37.8984 110.664C37.8984 112.076 37.5365 113.177 36.8125 113.969C36.0885 114.76 35.0807 115.156 33.7891 115.156C32.9818 115.156 32.2682 114.974 31.6484 114.609C31.0286 114.245 30.5521 113.721 30.2188 113.039C29.8854 112.357 29.7188 111.565 29.7188 110.664C29.7188 109.263 30.0781 108.169 30.7969 107.383C31.5156 106.596 32.5286 106.203 33.8359 106.203C35.0859 106.203 36.0755 106.607 36.8047 107.414C37.5339 108.216 37.8984 109.299 37.8984 110.664ZM31.6094 110.664C31.6094 112.659 32.3464 113.656 33.8203 113.656C35.2786 113.656 36.0078 112.659 36.0078 110.664C36.0078 108.69 35.2734 107.703 33.8047 107.703C33.0339 107.703 32.474 107.958 32.125 108.469C31.7812 108.979 31.6094 109.711 31.6094 110.664ZM51.9297 107.031C51.9297 108.224 51.5391 109.138 50.7578 109.773C49.9766 110.409 48.8646 110.727 47.4219 110.727H46.2344V115H44.3672V103.578H47.6562C49.0833 103.578 50.151 103.87 50.8594 104.453C51.5729 105.036 51.9297 105.896 51.9297 107.031ZM46.2344 109.156H47.2266C48.1849 109.156 48.888 108.99 49.3359 108.656C49.7839 108.323 50.0078 107.802 50.0078 107.094C50.0078 106.438 49.8073 105.948 49.4062 105.625C49.0052 105.302 48.3802 105.141 47.5312 105.141H46.2344V109.156ZM58.3984 106.203C58.7682 106.203 59.0729 106.229 59.3125 106.281L59.1328 107.992C58.8724 107.93 58.6016 107.898 58.3203 107.898C57.5859 107.898 56.9896 108.138 56.5312 108.617C56.0781 109.096 55.8516 109.719 55.8516 110.484V115H54.0156V106.359H55.4531L55.6953 107.883H55.7891C56.0755 107.367 56.4479 106.958 56.9062 106.656C57.3698 106.354 57.8672 106.203 58.3984 106.203ZM64.6953 115.156C63.3516 115.156 62.2995 114.766 61.5391 113.984C60.7839 113.198 60.4062 112.117 60.4062 110.742C60.4062 109.331 60.7578 108.221 61.4609 107.414C62.1641 106.607 63.1302 106.203 64.3594 106.203C65.5 106.203 66.401 106.549 67.0625 107.242C67.724 107.935 68.0547 108.888 68.0547 110.102V111.094H62.2969C62.3229 111.932 62.5495 112.578 62.9766 113.031C63.4036 113.479 64.0052 113.703 64.7812 113.703C65.2917 113.703 65.7656 113.656 66.2031 113.562C66.6458 113.464 67.1198 113.302 67.625 113.078V114.57C67.1771 114.784 66.724 114.935 66.2656 115.023C65.8073 115.112 65.2839 115.156 64.6953 115.156ZM64.3594 107.594C63.776 107.594 63.3073 107.779 62.9531 108.148C62.6042 108.518 62.3958 109.057 62.3281 109.766H66.25C66.2396 109.052 66.0677 108.513 65.7344 108.148C65.401 107.779 64.9427 107.594 64.3594 107.594ZM72.1094 115L68.8281 106.359H70.7656L72.5234 111.383C72.8255 112.227 73.0078 112.909 73.0703 113.43H73.1328C73.1797 113.055 73.362 112.372 73.6797 111.383L75.4375 106.359H77.3906L74.0938 115H72.1094ZM80.5391 115H78.7031V106.359H80.5391V115ZM78.5938 104.07C78.5938 103.742 78.6823 103.49 78.8594 103.312C79.0417 103.135 79.2995 103.047 79.6328 103.047C79.9557 103.047 80.2057 103.135 80.3828 103.312C80.5651 103.49 80.6562 103.742 80.6562 104.07C80.6562 104.383 80.5651 104.63 80.3828 104.812C80.2057 104.99 79.9557 105.078 79.6328 105.078C79.2995 105.078 79.0417 104.99 78.8594 104.812C78.6823 104.63 78.5938 104.383 78.5938 104.07ZM86.9453 115.156C85.6016 115.156 84.5495 114.766 83.7891 113.984C83.0339 113.198 82.6562 112.117 82.6562 110.742C82.6562 109.331 83.0078 108.221 83.7109 107.414C84.4141 106.607 85.3802 106.203 86.6094 106.203C87.75 106.203 88.651 106.549 89.3125 107.242C89.974 107.935 90.3047 108.888 90.3047 110.102V111.094H84.5469C84.5729 111.932 84.7995 112.578 85.2266 113.031C85.6536 113.479 86.2552 113.703 87.0312 113.703C87.5417 113.703 88.0156 113.656 88.4531 113.562C88.8958 113.464 89.3698 113.302 89.875 113.078V114.57C89.4271 114.784 88.974 114.935 88.5156 115.023C88.0573 115.112 87.5339 115.156 86.9453 115.156ZM86.6094 107.594C86.026 107.594 85.5573 107.779 85.2031 108.148C84.8542 108.518 84.6458 109.057 84.5781 109.766H88.5C88.4896 109.052 88.3177 108.513 87.9844 108.148C87.651 107.779 87.1927 107.594 86.6094 107.594ZM99.4766 115L98.3594 110.969C98.224 110.542 97.9792 109.549 97.625 107.992H97.5547C97.2526 109.398 97.013 110.396 96.8359 110.984L95.6875 115H93.6562L91.2344 106.359H93.1094L94.2109 110.617C94.4609 111.669 94.638 112.57 94.7422 113.32H94.7891C94.8411 112.94 94.9193 112.505 95.0234 112.016C95.1328 111.521 95.2266 111.151 95.3047 110.906L96.6172 106.359H98.6328L99.9062 110.906C99.9844 111.161 100.081 111.552 100.195 112.078C100.315 112.604 100.385 113.013 100.406 113.305H100.469C100.547 112.664 100.729 111.768 101.016 110.617L102.133 106.359H103.977L101.539 115H99.4766ZM116.906 115L115.766 111.828H111.398L110.281 115H108.312L112.586 103.531H114.617L118.891 115H116.906ZM115.273 110.219L114.203 107.109C114.125 106.901 114.016 106.573 113.875 106.125C113.74 105.677 113.646 105.349 113.594 105.141C113.453 105.781 113.247 106.482 112.977 107.242L111.945 110.219H115.273ZM122.172 115L118.891 106.359H120.828L122.586 111.383C122.888 112.227 123.07 112.909 123.133 113.43H123.195C123.242 113.055 123.424 112.372 123.742 111.383L125.5 106.359H127.453L124.156 115H122.172ZM134.172 115L133.805 113.797H133.742C133.326 114.323 132.906 114.682 132.484 114.875C132.062 115.062 131.521 115.156 130.859 115.156C130.01 115.156 129.346 114.927 128.867 114.469C128.393 114.01 128.156 113.362 128.156 112.523C128.156 111.633 128.487 110.961 129.148 110.508C129.81 110.055 130.818 109.807 132.172 109.766L133.664 109.719V109.258C133.664 108.706 133.534 108.294 133.273 108.023C133.018 107.747 132.62 107.609 132.078 107.609C131.635 107.609 131.211 107.674 130.805 107.805C130.398 107.935 130.008 108.089 129.633 108.266L129.039 106.953C129.508 106.708 130.021 106.523 130.578 106.398C131.135 106.268 131.661 106.203 132.156 106.203C133.255 106.203 134.083 106.443 134.641 106.922C135.203 107.401 135.484 108.154 135.484 109.18V115H134.172ZM131.438 113.75C132.104 113.75 132.638 113.565 133.039 113.195C133.445 112.82 133.648 112.297 133.648 111.625V110.875L132.539 110.922C131.674 110.953 131.044 111.099 130.648 111.359C130.258 111.615 130.062 112.008 130.062 112.539C130.062 112.924 130.177 113.224 130.406 113.438C130.635 113.646 130.979 113.75 131.438 113.75ZM139.883 115H138.047V106.359H139.883V115ZM137.938 104.07C137.938 103.742 138.026 103.49 138.203 103.312C138.385 103.135 138.643 103.047 138.977 103.047C139.299 103.047 139.549 103.135 139.727 103.312C139.909 103.49 140 103.742 140 104.07C140 104.383 139.909 104.63 139.727 104.812C139.549 104.99 139.299 105.078 138.977 105.078C138.643 105.078 138.385 104.99 138.203 104.812C138.026 104.63 137.938 104.383 137.938 104.07ZM144.352 115H142.516V102.844H144.352V115ZM152.391 115L152.023 113.797H151.961C151.544 114.323 151.125 114.682 150.703 114.875C150.281 115.062 149.74 115.156 149.078 115.156C148.229 115.156 147.565 114.927 147.086 114.469C146.612 114.01 146.375 113.362 146.375 112.523C146.375 111.633 146.706 110.961 147.367 110.508C148.029 110.055 149.036 109.807 150.391 109.766L151.883 109.719V109.258C151.883 108.706 151.753 108.294 151.492 108.023C151.237 107.747 150.839 107.609 150.297 107.609C149.854 107.609 149.43 107.674 149.023 107.805C148.617 107.935 148.227 108.089 147.852 108.266L147.258 106.953C147.727 106.708 148.24 106.523 148.797 106.398C149.354 106.268 149.88 106.203 150.375 106.203C151.474 106.203 152.302 106.443 152.859 106.922C153.422 107.401 153.703 108.154 153.703 109.18V115H152.391ZM149.656 113.75C150.323 113.75 150.857 113.565 151.258 113.195C151.664 112.82 151.867 112.297 151.867 111.625V110.875L150.758 110.922C149.893 110.953 149.263 111.099 148.867 111.359C148.477 111.615 148.281 112.008 148.281 112.539C148.281 112.924 148.396 113.224 148.625 113.438C148.854 113.646 149.198 113.75 149.656 113.75ZM160.68 106.203C161.758 106.203 162.596 106.594 163.195 107.375C163.799 108.156 164.102 109.253 164.102 110.664C164.102 112.081 163.797 113.185 163.188 113.977C162.578 114.763 161.732 115.156 160.648 115.156C159.555 115.156 158.706 114.763 158.102 113.977H157.977L157.641 115H156.266V102.844H158.102V105.734C158.102 105.948 158.091 106.266 158.07 106.688C158.049 107.109 158.034 107.378 158.023 107.492H158.102C158.685 106.633 159.544 106.203 160.68 106.203ZM160.203 107.703C159.464 107.703 158.93 107.922 158.602 108.359C158.279 108.792 158.112 109.518 158.102 110.539V110.664C158.102 111.716 158.268 112.479 158.602 112.953C158.935 113.422 159.479 113.656 160.234 113.656C160.885 113.656 161.378 113.398 161.711 112.883C162.049 112.367 162.219 111.622 162.219 110.648C162.219 108.685 161.547 107.703 160.203 107.703ZM168.07 115H166.234V102.844H168.07V115ZM174.477 115.156C173.133 115.156 172.081 114.766 171.32 113.984C170.565 113.198 170.188 112.117 170.188 110.742C170.188 109.331 170.539 108.221 171.242 107.414C171.945 106.607 172.911 106.203 174.141 106.203C175.281 106.203 176.182 106.549 176.844 107.242C177.505 107.935 177.836 108.888 177.836 110.102V111.094H172.078C172.104 111.932 172.331 112.578 172.758 113.031C173.185 113.479 173.786 113.703 174.562 113.703C175.073 113.703 175.547 113.656 175.984 113.562C176.427 113.464 176.901 113.302 177.406 113.078V114.57C176.958 114.784 176.505 114.935 176.047 115.023C175.589 115.112 175.065 115.156 174.477 115.156ZM174.141 107.594C173.557 107.594 173.089 107.779 172.734 108.148C172.385 108.518 172.177 109.057 172.109 109.766H176.031C176.021 109.052 175.849 108.513 175.516 108.148C175.182 107.779 174.724 107.594 174.141 107.594Z" fill="#C6C7C8"/>
</svg>
