<svg width="310" height="239" viewBox="0 0 310 239" fill="none" xmlns="http://www.w3.org/2000/svg">
<g opacity="0.3">
<mask id="mask0" mask-type="alpha" maskUnits="userSpaceOnUse" x="66" y="207" width="202" height="11">
<path fill-rule="evenodd" clip-rule="evenodd" d="M66.9998 217.086H268V207.384H66.9998V217.086Z" fill="white"/>
</mask>
<g mask="url(#mask0)">
<path fill-rule="evenodd" clip-rule="evenodd" d="M101.581 213.008C101.581 213.008 66.9376 213.036 66.9998 212.3C67.2095 209.839 94.4548 211.28 96.6924 210.54C97.7905 210.177 96.5772 209.386 98.5117 208.875C106.211 206.841 132.994 208.688 142.559 208.673C168.608 208.633 175.203 207.718 178.228 207.6C186.715 207.271 210.728 207.399 217.487 207.464C231.387 207.597 268.777 207.054 267.987 209.135C267.634 210.067 231.731 212.036 225.618 212.288C220.388 212.503 216.795 213.8 212.105 214.56C205.536 215.625 198.33 216.268 191.24 216.672C161.534 218.368 131.083 214.391 101.581 213.008Z" fill="#333739"/>
</g>
</g>
<path d="M144.074 191.416C186.088 191.416 220.147 156.369 220.147 113.136C220.147 69.9028 186.088 34.8555 144.074 34.8555C102.059 34.8555 68 69.9028 68 113.136C68 156.369 102.059 191.416 144.074 191.416Z" fill="#FFAB00"/>
<path opacity="0.4" d="M151.681 191.416C195.096 191.416 230.29 156.369 230.29 113.136C230.29 69.9028 195.096 34.8555 151.681 34.8555C108.266 34.8555 73.0715 69.9028 73.0715 113.136C73.0715 156.369 108.266 191.416 151.681 191.416Z" fill="#FFAB00"/>
<path d="M149.002 181.41C188.215 181.41 220.004 149.754 220.004 110.705C220.004 71.6557 188.215 40 149.002 40C109.789 40 78 71.6557 78 110.705C78 149.754 109.789 181.41 149.002 181.41Z" fill="white"/>
<path d="M154.217 52.533C154.217 51.1384 153.081 50.0078 151.681 50.0078C150.28 50.0078 149.145 51.1384 149.145 52.533V57.5833C149.145 58.978 150.28 60.1085 151.681 60.1085C153.081 60.1085 154.217 58.978 154.217 57.5833V52.533Z" fill="#FFAB00"/>
<path d="M150.536 48.5C151.662 48.5 152.572 49.4087 152.572 50.5252V55.5755C152.572 56.692 151.662 57.6007 150.536 57.6007C149.409 57.6007 148.5 56.692 148.5 55.5755V50.5252C148.5 49.4087 149.409 48.5 150.536 48.5Z" stroke="#333739"/>
<path d="M154.217 164.901C154.217 162.809 153.081 161.113 151.681 161.113C150.28 161.113 149.145 162.809 149.145 164.901V172.477C149.145 174.569 150.28 176.264 151.681 176.264C153.081 176.264 154.217 174.569 154.217 172.477V164.901Z" fill="#FFAB00"/>
<path d="M211.695 115.66C213.562 115.66 215.076 114.529 215.076 113.135C215.076 111.74 213.562 110.609 211.695 110.609H198.17C196.303 110.609 194.789 111.74 194.789 113.135C194.789 114.529 196.303 115.66 198.17 115.66H211.695Z" fill="#FFAB00"/>
<path d="M105.192 115.66C107.059 115.66 108.573 114.529 108.573 113.135C108.573 111.74 107.059 110.609 105.192 110.609H91.6674C89.8001 110.609 88.2863 111.74 88.2863 113.135C88.2863 114.529 89.8001 115.66 91.6674 115.66H105.192Z" fill="#FFAB00"/>
<path d="M107.786 111.525C107.786 112.029 107.514 112.524 106.997 112.91C106.479 113.297 105.742 113.55 104.905 113.55H91.381C90.5446 113.55 89.8068 113.297 89.2894 112.91C88.7722 112.524 88.5 112.029 88.5 111.525C88.5 111.021 88.7722 110.527 89.2894 110.14C89.8068 109.754 90.5446 109.5 91.381 109.5H104.905C105.742 109.5 106.479 109.754 106.997 110.14C107.514 110.527 107.786 111.021 107.786 111.525Z" stroke="#333739"/>
<path d="M154.217 78.6247C154.217 76.7652 153.081 75.2578 151.681 75.2578C150.28 75.2578 149.145 76.7652 149.145 78.6247V112.294C149.145 114.153 150.28 115.661 151.681 115.661C153.081 115.661 154.217 114.153 154.217 112.294V78.6247Z" fill="#333739"/>
<path d="M152.26 116.199C153.625 115.241 153.952 113.363 152.99 112.004C152.028 110.645 150.141 110.32 148.777 111.278L136.471 119.916C135.106 120.874 134.78 122.752 135.742 124.111C136.704 125.47 138.59 125.795 139.955 124.837L152.26 116.199Z" fill="#333739"/>
<path d="M149.5 74.5C150.523 74.5 151.5 75.5301 151.5 77V107C151.5 108.47 150.523 109.5 149.5 109.5C148.477 109.5 147.5 108.47 147.5 107V77C147.5 75.5301 148.477 74.5 149.5 74.5Z" stroke="#333739"/>
<path d="M150.58 110.033C151.382 111.166 151.111 112.733 149.972 113.533L137.666 122.171C136.527 122.971 134.953 122.699 134.151 121.566C133.349 120.433 133.621 118.866 134.76 118.066L147.066 109.428C148.205 108.628 149.778 108.9 150.58 110.033Z" stroke="#333739"/>
<path fill-rule="evenodd" clip-rule="evenodd" d="M155.083 165.305L145 176.259H173.805L181 165.305H155.083Z" fill="#FF6666"/>
<path fill-rule="evenodd" clip-rule="evenodd" d="M145 212.107H174V176.258H145V212.107Z" fill="#FFAB00"/>
<path fill-rule="evenodd" clip-rule="evenodd" d="M174 176.232V212.108L180.874 199.719L181 165.305L174 176.232Z" fill="#FFDDC5"/>
<path fill-rule="evenodd" clip-rule="evenodd" d="M214.551 149.372H185L195.35 137.422H222L214.551 149.372Z" fill="#FF6666"/>
<path fill-rule="evenodd" clip-rule="evenodd" d="M185 213.103H214V149.371H185V213.103Z" fill="#FFAB00"/>
<path fill-rule="evenodd" clip-rule="evenodd" d="M214 150.033V213.104L222 200.492V137.422L214 150.033Z" fill="#FFDDC5"/>
<path fill-rule="evenodd" clip-rule="evenodd" d="M234.083 123.48L224 132.443H252.792L260 123.48H234.083Z" fill="#FF6666"/>
<path fill-rule="evenodd" clip-rule="evenodd" d="M224 213.106H253V132.445H224V213.106Z" fill="#FFAB00"/>
<path fill-rule="evenodd" clip-rule="evenodd" d="M259.872 123.48L253 132.077V213.104L260 200.533L259.872 123.48Z" fill="#FFDDC5"/>
<path fill-rule="evenodd" clip-rule="evenodd" d="M174 159.639L188.987 178.251C190.365 177.889 191.667 177.289 192.834 176.478C194.03 175.522 195.095 174.415 196 173.185C196 173.185 185.902 151.134 177.406 139.414L174 159.639Z" fill="#FFAB00"/>
<path fill-rule="evenodd" clip-rule="evenodd" d="M191 119.777C197.989 122.959 211.077 126.407 212.089 125.24C215.583 121.089 212.79 118.808 217 111.979L214.302 97.5898C214.302 97.5898 215.894 112.403 211.603 114.18C207.312 115.957 196.289 115.016 193.766 116.912C192.661 117.678 191.721 118.652 191 119.777Z" fill="#FF6666"/>
<path fill-rule="evenodd" clip-rule="evenodd" d="M182 73.7958V74.4945L181 74.6872L182 74.6069V73.6914V73.7958Z" fill="#FFDDC5"/>
<path fill-rule="evenodd" clip-rule="evenodd" d="M205.986 180.591C206.308 180.782 206.572 181.058 206.751 181.389C206.929 181.72 207.014 182.093 206.998 182.469C206.719 184.471 205.977 186.378 204.83 188.038C204.672 188.302 204.541 188.54 204.422 188.765C204.304 188.99 204.357 188.871 204.33 188.937C204.335 188.981 204.335 189.026 204.33 189.07C203.279 191.212 204.002 191.358 202.228 195.578C200.204 200.392 197.957 201.252 197.195 201.146C196.433 201.041 196.985 198.726 197.458 196.12L197.537 195.736C197.537 195.392 197.655 195.035 197.72 194.691C198.246 191.57 197.445 190.472 195.762 186.755C194.383 183.686 185 170.67 185 170.67L190.9 167.297C190.9 167.297 196.814 178.196 199.534 179.202C200.979 179.757 202.241 179.321 203.555 179.651L203.831 179.718C204.583 179.916 205.307 180.209 205.986 180.591Z" fill="#FFDDC5"/>
<path fill-rule="evenodd" clip-rule="evenodd" d="M206.004 180.151C206.321 180.347 206.58 180.629 206.755 180.966C206.93 181.304 207.014 181.686 206.998 182.07C206.658 184.093 205.929 186.023 204.856 187.744L204.469 188.5C204.469 188.5 204.404 188.608 204.378 188.676C204.383 188.721 204.383 188.766 204.378 188.811C203.346 191 204.056 191.148 202.313 195.458C200.326 200.376 198.119 201.254 197.37 201.146C196.622 201.038 197.164 198.673 197.629 196.012C199.577 194.192 201.025 191.86 201.823 189.257C202.855 185.798 202.972 181.786 203.617 179.246L203.888 179.314C204.624 179.499 205.335 179.78 206.004 180.151Z" fill="#333739"/>
<path fill-rule="evenodd" clip-rule="evenodd" d="M132.305 189.588C131.88 191.785 128.902 191.428 125.579 190.567C122.256 189.707 123.053 190.726 118.321 190.17C113.588 189.614 112.153 187.761 112.006 187.02C111.86 186.278 114.213 186.133 116.726 185.828L117.669 185.709C120.501 185.325 122.575 183.406 125.153 181.817C127.732 180.229 131.215 174.219 131.215 174.219L137.702 174.761C137.702 174.761 134.299 180.215 132.983 182.585C132.343 184.059 132.123 185.68 132.345 187.271C132.429 188.042 132.416 188.82 132.305 189.588Z" fill="#FFDDC5"/>
<path fill-rule="evenodd" clip-rule="evenodd" d="M125.579 190.567C122.256 189.707 123.053 190.726 118.321 190.17C113.588 189.614 112.153 187.761 112.006 187.02C111.86 186.278 114.213 186.133 116.726 185.828C118.73 187.189 121.081 187.956 123.505 188.039C126.709 188.131 130.152 187.152 132.319 187.192C132.418 187.969 132.418 188.757 132.319 189.535C131.946 191.785 128.902 191.428 125.579 190.567Z" fill="#333739"/>
<path fill-rule="evenodd" clip-rule="evenodd" d="M162 144.743L173.307 158.84L188.076 177.257C189.438 176.897 190.725 176.304 191.88 175.503C193.055 174.553 194.104 173.458 195 172.244C195 172.244 185.036 150.424 176.664 138.827C175.074 136.375 173.064 134.217 170.727 132.453C162.184 127.125 162 144.743 162 144.743Z" fill="#333739"/>
<path fill-rule="evenodd" clip-rule="evenodd" d="M163.021 119.925C167.028 118.607 178.394 120.307 189.827 122.653L192.231 118.528L216.967 116.512C216.967 116.512 225.127 135.397 220.666 147.429C220.012 149.209 218.383 149.947 216.165 149.986C216.165 149.986 201.474 150.368 196.652 150.368C184.364 150.368 170.648 141.538 168.885 141.143C165.973 140.537 164.811 146.612 161.913 153.004C159.015 159.396 134.613 181.233 134.613 181.233C132.815 181.278 131.018 181.088 129.271 180.667C128.394 180.369 127.612 179.851 127 179.164C127 179.164 154.019 122.956 163.021 119.925Z" fill="#333739"/>
<path fill-rule="evenodd" clip-rule="evenodd" d="M194.066 79.597C194.066 79.597 198.712 80.1342 201.189 78.1558C202.89 76.5227 204.192 74.5393 205 72.3516C203.761 72.5874 201.351 70.7138 198.268 63.7305L197.81 64.0449L190 69.3512C190 69.3512 191.441 72.0895 192.693 74.7493C193.636 76.9897 194.457 79.1515 194.066 79.597Z" fill="#FFDDC5"/>
<path opacity="0.1" fill-rule="evenodd" clip-rule="evenodd" d="M190 69.1605C190 69.1605 191.462 71.9627 192.732 74.6844C197.555 72.5258 198.075 66.774 197.993 63.7305L190 69.1605Z" fill="#333739"/>
<path fill-rule="evenodd" clip-rule="evenodd" d="M188.296 72.6845C188.296 72.6845 200.49 70.3854 198.848 62.4249C197.206 54.4644 197.677 48.8031 189.817 49.9327C181.956 51.0623 181.068 54.4113 181.001 57.2021C180.934 59.9929 185.079 73.0699 188.296 72.6845Z" fill="#FFDDC5"/>
<path fill-rule="evenodd" clip-rule="evenodd" d="M187.747 99.5841C194.449 125.344 192.787 119.981 196.259 122.042C197.09 122.531 198.94 122.438 201.286 123.746C208.914 128.066 221.756 131.672 221.93 130.061C222.574 124.776 218.552 117.696 218.231 109.743C218.231 108.897 218.231 103.653 218.231 103.653C218.231 98.1573 219.089 89.848 216.354 84.6298C212.332 77.0206 204.758 71.4194 204.423 71.71C195.039 79.5702 192.814 74.3521 192.814 74.3521C192.814 74.3521 184.516 86.9681 187.747 99.5841Z" fill="#FF6666"/>
<path fill-rule="evenodd" clip-rule="evenodd" d="M199.37 46.5247C200.77 42.336 203.784 41.5866 207.429 41.881C211.073 42.1754 213.734 46.9262 213.911 47.3678C214.964 49.9131 215.262 52.7381 214.767 55.4676C214.271 58.1972 213.005 60.7023 211.136 62.6504C210.708 63.092 210.291 63.5337 209.875 63.9887C207.643 66.3841 213.419 67.4145 213.419 67.4145C202.926 69.7029 203.759 58.2209 203.86 57.2038C200.29 56.3072 198.083 50.5394 199.37 46.5247Z" fill="#333739"/>
<path fill-rule="evenodd" clip-rule="evenodd" d="M194.217 55.8114C194.431 56.2341 194.786 56.5477 195.208 56.6845C195.63 56.8213 196.083 56.7703 196.471 56.5426L202.149 53.1846C202.339 53.0714 202.506 52.9179 202.642 52.7328C202.777 52.5478 202.877 52.3349 202.937 52.1068C202.996 51.8786 203.014 51.6397 202.989 51.404C202.964 51.1682 202.896 50.9404 202.79 50.7337C202.572 50.3127 202.214 50.0011 201.791 49.8647C201.368 49.7283 200.914 49.7777 200.523 50.0025L194.845 53.3741C194.656 53.4857 194.489 53.6382 194.354 53.8223C194.219 54.0065 194.119 54.2187 194.061 54.4462C194.002 54.6736 193.986 54.9118 194.013 55.1463C194.04 55.3809 194.109 55.6071 194.217 55.8114Z" fill="#FF6666"/>
<path fill-rule="evenodd" clip-rule="evenodd" d="M180.183 57.0884C179.941 55.9495 179.939 54.7754 180.178 53.6359C180.417 52.4964 180.892 51.4149 181.575 50.4556C181.791 50.139 182.073 49.8682 182.402 49.6597C183.95 48.5147 185.834 47.8692 187.785 47.8151C187.832 47.8034 187.882 47.8034 187.929 47.8151C188.314 47.796 188.7 47.796 189.085 47.8151C189.292 47.8187 189.499 47.8399 189.702 47.8783C190.388 47.9692 191.064 48.1171 191.724 48.3205C197.449 49.8997 200.153 53.652 198.538 59.4509C197.724 62.4325 196.227 63.5443 194.678 63.7338L194.416 62.0156C194.421 61.9793 194.435 61.9447 194.456 61.9141C194.477 61.8835 194.505 61.8576 194.537 61.8384C194.57 61.8192 194.606 61.807 194.644 61.8027C194.682 61.7984 194.721 61.802 194.757 61.8135C196.49 62.0409 197.133 61.1818 197.383 59.4636C197.457 59.1462 197.432 58.8146 197.311 58.511C197.189 58.2073 196.977 57.9452 196.7 57.758H196.634H196.372C196.215 57.7391 196.056 57.7391 195.899 57.758H195.387H195.256C195.046 57.8168 194.839 57.8885 194.639 57.9728C194.507 57.9728 194.639 58.0739 194.468 58.1497H194.074H193.641C190.188 58.1497 184.555 56.4693 182.231 53.7025C181.128 55.4081 181.43 58.4402 182.047 60.9797C181.042 59.8869 180.394 58.5335 180.183 57.0884Z" fill="#333739"/>
<path fill-rule="evenodd" clip-rule="evenodd" d="M193.397 90.9015L201.409 106.78L204 107.548L193.758 94.3155L181.913 79.6408L186.507 75.2874L181.913 79.6408L178.708 78.2382C178.708 78.2382 178.12 76.6636 178.107 76.5312C178.094 76.3989 178.735 74.9301 178.735 74.7978C178.735 74.6655 178.214 73.9774 178.2 73.7657C178.187 73.554 178.895 72.0719 178.868 71.9132C178.841 71.7544 177.987 70.3253 178 70.1268C178.911 69.5762 179.867 69.1026 180.858 68.7109L184.664 71.6618L187.001 74.9037" fill="#FFDDC5"/>
<path fill-rule="evenodd" clip-rule="evenodd" d="M200.579 89.6173C201.823 85.5111 202.286 82.4981 204.987 81.1249C207.687 79.7517 211.487 79.1651 212.599 79.9783C213.711 80.7916 215.154 83.5113 215.802 87.3376C216.257 89.3893 215.921 91.5385 214.862 93.3503L208.336 102.429C207.012 104.309 201.121 110.082 201.121 110.082C201.121 110.082 195.27 115.855 193.046 114.228C190.822 112.602 181 79.9916 181 79.9916C181 79.9916 186.295 80.2183 189.049 77.6719C189.049 77.6719 195.932 96.6033 196.991 97.2032C198.05 97.8032 199.321 93.7236 200.579 89.6173Z" fill="#FF6666"/>
<path fill-rule="evenodd" clip-rule="evenodd" d="M191.009 94.7376L197.254 110.607L197.253 113.497L188.764 99.2716L178.862 83.4446L183.931 79.7915L178.862 83.4446L175.813 81.6176C175.813 81.6176 175.426 80.0129 175.435 79.8772C175.444 79.7415 176.249 78.4045 176.258 78.2688C176.267 78.1332 175.846 77.4052 175.853 77.1993C175.86 76.9935 176.758 75.6359 176.747 75.4787C176.735 75.3215 176.063 73.8318 176.037 73.5997C177.005 73.1802 178.009 72.8416 179.038 72.5878L182.437 75.9643L184.341 79.4594" fill="#FFDDC5"/>
<path fill-rule="evenodd" clip-rule="evenodd" d="M198.432 89.2228C198.367 84.9673 197.89 81.9849 200.064 79.851C202.237 77.7171 205.676 76.0171 206.995 76.4409C208.314 76.8648 210.551 78.9996 212.361 82.4067C213.442 84.2026 213.793 86.3346 213.343 88.3732L209.85 98.944C209.124 101.152 205.241 108.388 205.241 108.388C205.241 108.388 199.651 114.386 197 113.524C194.349 112.662 178.993 83.819 178.993 83.819C178.993 83.819 183.5 79.3531 187.5 78.6705C187.5 78.6705 195.27 91.2146 197 95.1015C198.222 95.3473 198.498 93.4387 198.432 89.2228Z" fill="#FF6666"/>
<path opacity="0.1" fill-rule="evenodd" clip-rule="evenodd" d="M180 71.9961L182 73.9877L180 72.2216V71.9961Z" fill="#333739"/>
<path opacity="0.1" fill-rule="evenodd" clip-rule="evenodd" d="M183.6 71L184 72.5158L182 73.9874L183.72 72.5011L183.6 71Z" fill="#333739"/>
<path opacity="0.1" fill-rule="evenodd" clip-rule="evenodd" d="M186 74.6875C185.798 75.6498 185.459 76.5514 185 77.343C184.708 77.8375 184.372 78.2833 184 78.6708" fill="#333739"/>
<path fill-rule="evenodd" clip-rule="evenodd" d="M194 127.892L164.997 125.473L156.92 130.339L156 138.525L165.783 149.372L156 138.525L157.333 130.46L165.33 126.427L194 127.892Z" fill="#333739"/>
<path d="M131 58.2557C131 58.5307 131 58.7536 131 58.7536C131 58.7536 131 58.5307 131 58.2557C131 57.9807 131 57.7578 131 57.7578C131 57.7578 131 57.9807 131 58.2557Z" stroke="white" stroke-width="0.75" stroke-miterlimit="10"/>
<path fill-rule="evenodd" clip-rule="evenodd" d="M66.0488 155.297C63.9248 154.546 55.1548 148.064 56.5328 144.204C58.5918 138.439 70.3788 138.667 75.9408 138.566C72.6128 141.65 67.5718 151.011 66.0488 155.297Z" fill="#C9C6C6"/>
<path fill-rule="evenodd" clip-rule="evenodd" d="M66.0488 155.297C63.9248 154.546 55.1548 148.064 56.5328 144.204C58.5918 138.439 70.3788 138.667 75.9408 138.566C72.6128 141.65 67.5718 151.011 66.0488 155.297Z" stroke="#333739" stroke-width="0.693" stroke-linecap="round" stroke-linejoin="round"/>
<path fill-rule="evenodd" clip-rule="evenodd" d="M76.693 188.038C74.341 193.651 65.841 194.797 63.476 188.038C60.658 179.984 66.841 168.017 62.591 158.507C61.143 155.266 58.518 152.237 56.985 152.916C54.262 154.123 59.081 154.529 58.063 165.986C57.137 176.409 46.452 184.386 52.888 195.635C54.096 197.744 55.275 200.026 57.137 201.628C63.563 207.157 73.277 206.012 76.274 197.652C77.343 194.67 76.905 191.1 76.693 188.038Z" fill="#E62B31"/>
<mask id="mask1" mask-type="alpha" maskUnits="userSpaceOnUse" x="50" y="152" width="27" height="54">
<path fill-rule="evenodd" clip-rule="evenodd" d="M56.985 152.916C54.262 154.124 59.08 154.527 58.063 165.986C57.137 176.408 46.452 184.386 52.888 195.634C54.095 197.744 55.274 200.025 57.137 201.628C63.563 207.156 73.277 206.012 76.274 197.652C77.342 194.669 76.905 191.1 76.693 188.037C74.342 193.651 65.841 194.796 63.476 188.037C60.658 179.983 66.841 168.015 62.591 158.506C61.281 155.576 59.011 152.82 57.455 152.82C57.289 152.82 57.132 152.851 56.985 152.916Z" fill="white"/>
</mask>
<g mask="url(#mask1)">
<path fill-rule="evenodd" clip-rule="evenodd" d="M56.1876 153.414C60.9096 152.752 62.3006 168.763 59.0716 177.524C57.4916 181.812 56.3516 186.614 56.6296 191.267C56.9826 197.162 61.1666 203.34 68.1636 202.009C69.7916 201.699 71.1926 200.651 72.0276 199.234C75.0926 194.032 70.6336 190.198 69.3336 185.294C68.7006 182.903 68.6766 180.311 68.5506 177.857C68.1756 170.564 68.1866 163.691 64.2556 157.264C63.0606 155.309 60.6646 149.795 56.1876 153.414Z" fill="#BB1818"/>
</g>
<mask id="mask2" mask-type="alpha" maskUnits="userSpaceOnUse" x="50" y="152" width="27" height="54">
<path fill-rule="evenodd" clip-rule="evenodd" d="M56.985 152.916C54.262 154.124 59.08 154.527 58.063 165.986C57.137 176.408 46.452 184.386 52.888 195.634C54.095 197.744 55.274 200.025 57.137 201.628C63.563 207.156 73.277 206.012 76.274 197.652C77.342 194.669 76.905 191.1 76.693 188.037C74.342 193.651 65.841 194.796 63.476 188.037C60.658 179.983 66.841 168.015 62.591 158.506C61.281 155.576 59.011 152.82 57.455 152.82C57.289 152.82 57.132 152.851 56.985 152.916Z" fill="white"/>
</mask>
<g mask="url(#mask2)">
<path fill-rule="evenodd" clip-rule="evenodd" d="M56.1465 153.961C60.1445 157.179 59.6815 165.412 58.6205 169.976C57.3545 175.414 55.1595 179.525 53.7965 184.957C52.9515 188.325 53.0975 191.492 53.8275 194.875C54.0685 195.988 54.3705 197.081 54.7615 198.152C54.8915 198.506 55.0125 198.869 55.1705 199.212C55.2505 199.385 55.6045 199.766 55.4175 199.727C53.0415 199.209 51.0035 193.841 50.3525 191.836C47.4655 182.943 51.3825 173.623 51.8545 164.64C51.9585 162.662 53.2555 154.418 56.1465 153.961Z" fill="#F190AE"/>
</g>
<path fill-rule="evenodd" clip-rule="evenodd" d="M76.693 188.038C74.341 193.651 65.841 194.797 63.476 188.038C60.658 179.984 66.841 168.017 62.591 158.507C61.143 155.266 58.518 152.237 56.985 152.916C54.262 154.123 59.081 154.529 58.063 165.986C57.137 176.409 46.452 184.386 52.888 195.635C54.096 197.744 55.275 200.026 57.137 201.628C63.563 207.157 73.277 206.012 76.274 197.652C77.343 194.67 76.905 191.1 76.693 188.038Z" stroke="#333739" stroke-width="0.693" stroke-linecap="round" stroke-linejoin="round"/>
<path fill-rule="evenodd" clip-rule="evenodd" d="M103.494 200.742C109.403 207.386 121.007 206.367 127.686 201.664C131.804 198.764 134.824 194.776 137.333 190.474C140.121 185.695 148.501 177.407 147.182 176.001C145.864 174.595 140.577 178.708 137.859 180.892C131.828 185.738 127.652 192.434 119.646 194.259C113.051 195.762 106.767 194.434 106.133 186.535C105.903 183.678 106.405 180.835 107.825 178.32C102.074 183.066 97.7282 194.259 103.494 200.742Z" fill="#E62B31"/>
<mask id="mask3" mask-type="alpha" maskUnits="userSpaceOnUse" x="100" y="175" width="48" height="31">
<path fill-rule="evenodd" clip-rule="evenodd" d="M137.859 180.894C131.828 185.739 127.651 192.435 119.646 194.259C113.052 195.762 106.767 194.435 106.132 186.536C105.903 183.679 106.405 180.836 107.824 178.321C102.074 183.066 97.728 194.259 103.495 200.743C109.403 207.387 121.008 206.368 127.686 201.664C131.804 198.764 134.824 194.776 137.334 190.474C140.121 185.695 148.062 177.795 147.182 176.002C147.042 175.715 146.777 175.59 146.421 175.59C144.549 175.589 140.143 179.057 137.859 180.894Z" fill="white"/>
</mask>
<g mask="url(#mask3)">
<path fill-rule="evenodd" clip-rule="evenodd" d="M110.752 194.004C112.583 197.917 117.097 198.288 120.955 197.973C130.27 197.214 136.509 189.42 141.852 182.679C143.068 181.143 148.148 174.46 149.568 179.19C150.68 182.894 147.869 189.077 146.493 192.508C141.643 204.594 132.891 213.272 118.978 211.785C116.855 211.559 114.759 210.946 112.698 210.408C109.295 209.52 105.195 208.518 102.594 206.009C98.0986 201.67 96.4766 194.765 98.8606 188.923C99.7456 186.757 103.947 180.884 106.99 182.869C107.447 186.183 108.859 191.157 110.752 194.004Z" fill="#BB1818"/>
</g>
<path fill-rule="evenodd" clip-rule="evenodd" d="M103.494 200.742C109.403 207.386 121.007 206.366 127.686 201.663C131.804 198.763 134.824 194.776 137.333 190.473C140.121 185.694 148.501 177.972 147.182 176.001C145.864 174.03 140.577 178.708 137.859 180.891C131.828 185.738 127.652 192.434 119.646 194.258C113.051 195.762 106.767 194.434 106.133 186.535C105.903 183.678 106.405 180.835 107.825 178.319C102.074 183.065 97.7282 194.258 103.494 200.742Z" stroke="#333739" stroke-width="0.693" stroke-linecap="round" stroke-linejoin="round"/>
<path fill-rule="evenodd" clip-rule="evenodd" d="M71.9112 187.392C71.0972 192.903 65.6292 194.818 60.2832 192.927C55.9042 191.379 52.1922 187.915 48.2122 185.45C43.2162 182.354 39.6812 180.676 33.7522 180.258C28.5712 179.895 22.4372 181.762 22.0102 187.392C21.8482 189.532 23.8932 193.258 26.5992 192.202C28.9362 191.29 26.3242 188.757 28.6672 187.392C32.9082 184.924 41.3642 191.07 44.2982 194.509C50.1612 201.381 58.1042 208.404 66.5902 206.369C71.9112 205.092 79.4292 196.239 71.9112 187.392Z" fill="#E62B31"/>
<mask id="mask4" mask-type="alpha" maskUnits="userSpaceOnUse" x="22" y="180" width="54" height="27">
<path fill-rule="evenodd" clip-rule="evenodd" d="M22.009 187.393C21.847 189.534 23.893 193.258 26.6 192.203C28.937 191.29 26.324 188.758 28.668 187.393C32.908 184.924 41.364 191.071 44.298 194.51C50.162 201.382 58.104 208.404 66.59 206.369C71.911 205.093 79.429 196.24 71.911 187.393C71.097 192.904 65.63 194.819 60.283 192.927C55.904 191.38 52.193 187.916 48.212 185.45C43.216 182.355 39.681 180.677 33.753 180.259C33.341 180.231 32.924 180.215 32.504 180.215C27.634 180.215 22.403 182.21 22.009 187.393Z" fill="white"/>
</mask>
<g mask="url(#mask4)">
<path fill-rule="evenodd" clip-rule="evenodd" d="M72.8087 189.041C72.3657 195.743 66.2707 198.12 60.9917 197.352C52.7917 196.159 47.9677 190.764 45.4817 189.19C43.4277 187.888 41.3797 186.821 39.0957 185.982C35.4177 184.628 27.7347 183.278 28.0907 189.727C28.2697 192.974 35.3957 194.701 37.9067 195.795C39.9607 196.689 41.9427 197.7 43.8557 198.864C46.0937 200.225 49.1567 203.689 51.6007 203.969C54.5967 204.315 57.7517 202.422 60.6027 201.731C62.8787 201.18 65.2537 201.056 67.5717 200.758C69.6847 200.486 71.8967 200.032 73.6517 198.758C77.3157 196.098 76.2017 191.573 72.8087 189.041Z" fill="#BB1818"/>
</g>
<path fill-rule="evenodd" clip-rule="evenodd" d="M71.9112 187.392C71.0972 192.903 65.6292 194.818 60.2832 192.927C55.9042 191.379 52.1922 187.915 48.2122 185.45C43.2162 182.354 39.6812 180.676 33.7522 180.258C28.5712 179.895 22.4372 181.762 22.0102 187.392C21.8482 189.532 23.8932 193.258 26.5992 192.202C28.9362 191.29 26.3242 188.757 28.6672 187.392C32.9082 184.924 41.3642 191.07 44.2982 194.509C50.1612 201.381 58.1042 208.404 66.5902 206.369C71.9112 205.092 79.4292 196.239 71.9112 187.392Z" stroke="#333739" stroke-width="0.693" stroke-linecap="round" stroke-linejoin="round"/>
<path fill-rule="evenodd" clip-rule="evenodd" d="M31.2472 180.273C25.0402 180.75 22.3102 183.432 22.0102 187.391C21.8482 189.532 23.8932 193.256 26.5992 192.201C28.9362 191.289 26.2432 188.036 29.1322 186.747" fill="#E62B31"/>
<mask id="mask5" mask-type="alpha" maskUnits="userSpaceOnUse" x="22" y="180" width="10" height="13">
<path fill-rule="evenodd" clip-rule="evenodd" d="M22.009 187.391C21.847 189.532 23.893 193.256 26.6 192.201C28.937 191.288 26.243 188.036 29.132 186.747L31.247 180.273C25.04 180.749 22.31 183.432 22.009 187.391Z" fill="white"/>
</mask>
<g mask="url(#mask5)">
<path fill-rule="evenodd" clip-rule="evenodd" d="M31.9644 184.308C31.4194 184.164 29.3504 184.274 28.7924 184.359C26.9344 184.645 25.6424 186.272 25.3434 188.048C25.2244 188.753 25.2824 189.578 24.8704 190.197C24.2914 191.067 22.9354 190.808 22.6364 191.458C22.2424 192.315 22.9074 193.439 23.5974 193.918C27.5644 196.676 29.6314 191.432 31.0194 188.805C31.6394 187.63 32.7804 185.68 31.9644 184.308Z" fill="#BB1818"/>
</g>
<mask id="mask6" mask-type="alpha" maskUnits="userSpaceOnUse" x="22" y="180" width="10" height="13">
<path fill-rule="evenodd" clip-rule="evenodd" d="M22.009 187.391C21.847 189.532 23.893 193.256 26.6 192.201C28.937 191.288 26.243 188.036 29.132 186.747L31.247 180.273C25.04 180.749 22.31 183.432 22.009 187.391Z" fill="white"/>
</mask>
<g mask="url(#mask6)">
<path fill-rule="evenodd" clip-rule="evenodd" d="M34.9044 180.622C31.0534 180.033 26.5524 180.728 24.2204 184.132C23.5524 185.107 23.2674 186.225 23.2534 187.398C23.2394 188.522 24.3584 191.801 22.0294 191.323C19.5144 190.808 19.0014 186.826 19.3584 184.888C19.5484 183.851 20.0714 182.867 20.7104 182.034C23.3954 178.534 30.9814 179.518 34.9044 180.622Z" fill="#F190AE"/>
</g>
<path d="M31.2472 180.273C25.0402 180.75 22.3102 183.432 22.0102 187.391C21.8482 189.532 23.8932 193.256 26.5992 192.201C28.9362 191.289 26.2432 188.036 29.1322 186.747" stroke="#333739" stroke-width="0.693" stroke-linecap="round" stroke-linejoin="round"/>
<path fill-rule="evenodd" clip-rule="evenodd" d="M71.2487 195.562C77.2947 191.219 70.7757 188.13 66.6877 181.833C60.6827 172.58 58.2767 161.024 61.6627 150.433C67.8477 131.083 93.2367 123.686 109.568 134.91C112.636 137.018 115.116 139.329 117.112 142.491C122.579 151.152 123.491 164.726 118.481 173.718C117.333 175.776 115.933 177.79 114.305 179.508C108.264 185.885 102.374 191.875 109.263 196.544C115.341 200.664 120.884 196.406 129.199 201.435C132.963 203.713 134.168 208.575 134.168 211.29C134.168 218.447 136.663 220.772 135.002 221.271C132.068 222.152 130.811 212.304 126.477 209.544C120.51 205.746 116.168 209.801 110.095 209.143C112.401 213.422 110.176 222.241 102.212 223.494C93.8467 224.809 89.4797 215.464 83.9807 216.38C79.5087 217.126 82.0007 226.481 78.8537 226.054C77.4827 225.869 78.0867 222.52 77.4827 221.166C74.9037 215.384 76.9147 210.092 83.6567 209.36C89.0247 208.777 91.1757 211.259 98.2407 211.95C94.0127 208.309 88.0287 207.961 82.7477 208.859C79.9757 209.329 77.0577 210.491 74.1957 210.105C74.1997 211.96 73.5747 213.923 73.3307 215.764C73.1757 216.926 73.0927 218.086 73.1437 219.257C73.1757 220.006 73.3257 220.738 73.4687 221.472C73.6207 222.248 74.1967 224.149 72.7257 223.989C72.1347 223.924 71.7217 223.44 71.4537 222.95C69.9737 220.242 70.8487 216.416 68.0787 214.374C64.6937 211.876 61.4237 216.459 57.2417 215.762C48.6047 214.321 46.7377 201.414 53.6067 197.133C60.8017 192.65 66.5357 198.948 71.2487 195.562Z" fill="#E62B31"/>
<mask id="mask7" mask-type="alpha" maskUnits="userSpaceOnUse" x="49" y="129" width="87" height="98">
<path fill-rule="evenodd" clip-rule="evenodd" d="M61.663 150.435C58.277 161.028 60.683 172.583 66.687 181.836C70.775 188.135 77.295 191.222 71.248 195.566C69.018 197.168 66.559 196.602 63.825 196.036C60.781 195.405 57.397 194.776 53.607 197.137C46.737 201.418 48.605 214.325 57.242 215.766C59.028 216.063 60.648 215.397 62.182 214.732C64.238 213.84 66.139 212.946 68.078 214.378C70.849 216.42 69.973 220.246 71.453 222.954C71.721 223.443 72.135 223.927 72.725 223.993C74.196 224.153 73.621 222.251 73.469 221.476C73.326 220.742 73.175 220.009 73.143 219.262C73.093 218.09 73.176 216.93 73.33 215.768C73.574 213.926 74.2 211.963 74.195 210.108C77.057 210.495 79.975 209.333 82.748 208.862C88.028 207.965 94.012 208.312 98.24 211.954C91.176 211.262 89.025 208.781 83.656 209.364C76.915 210.096 74.904 215.387 77.483 221.17C78.087 222.523 77.483 225.871 78.854 226.057C82.001 226.485 79.509 217.13 83.981 216.384C86.678 215.935 89.103 217.955 91.86 219.972C94.725 222.07 97.95 224.166 102.211 223.496C110.176 222.245 112.401 213.425 110.095 209.146C112.372 209.394 114.407 208.976 116.375 208.561C119.653 207.867 122.747 207.174 126.476 209.548C130.81 212.307 132.068 222.156 135.002 221.275C136.662 220.776 134.168 218.45 134.168 211.294C134.168 208.579 132.963 203.715 129.199 201.439C120.883 196.409 115.34 200.667 109.263 196.548C102.374 191.879 108.264 185.888 114.305 179.512C115.933 177.793 117.333 175.779 118.481 173.721C123.491 164.729 122.578 151.155 117.112 142.495C115.115 139.333 112.635 137.022 109.568 134.912C104.346 131.325 98.202 129.641 92.052 129.641C78.968 129.641 65.871 137.273 61.663 150.435Z" fill="white"/>
</mask>
<g mask="url(#mask7)">
<path fill-rule="evenodd" clip-rule="evenodd" d="M113.274 145.691C113.191 153.258 109.786 160.866 105.565 167.109C100.969 173.905 95.256 182.963 94.315 191.453C93.973 194.542 94.726 197.857 96.408 200.489C98.788 204.213 108.566 210.989 105.509 216.056C100.633 224.136 88.781 212.207 82.885 213.878C78.493 215.124 79.291 219.834 79.172 223.42C79.105 225.459 78.806 227.487 78.673 229.522C80.32 228.018 82.158 227.348 84.333 226.914C92.287 225.327 98.349 231.619 104.863 230.146C107.012 229.658 108.817 228.504 110.326 226.935C111.96 225.237 113.162 223.275 113.707 220.971C114.61 217.154 113.37 212.515 117.696 210.387C125.13 206.73 127.259 216.394 129.811 220.302C130.713 221.683 132.187 222.96 133.747 223.554C134.592 223.878 135.464 223.687 136.14 223.102C139.422 220.26 136.229 202.128 129.198 201.44C132.063 205.992 128.612 206.752 124.288 204.676C120.909 203.054 115.177 204.639 111.595 203.996C107.844 203.323 103.627 198.601 105.285 194.182C107.232 188.989 111.017 186.256 114.21 182.627C120.968 174.94 124.889 163.264 119.413 153.964C117.987 151.544 115.928 146.806 113.274 145.691Z" fill="#BB1818"/>
</g>
<mask id="mask8" mask-type="alpha" maskUnits="userSpaceOnUse" x="49" y="129" width="87" height="98">
<path fill-rule="evenodd" clip-rule="evenodd" d="M61.663 150.435C58.277 161.028 60.683 172.583 66.687 181.836C70.775 188.135 77.295 191.222 71.248 195.566C69.018 197.168 66.559 196.602 63.825 196.036C60.781 195.405 57.397 194.776 53.607 197.137C46.737 201.418 48.605 214.325 57.242 215.766C59.028 216.063 60.648 215.397 62.182 214.732C64.238 213.84 66.139 212.946 68.078 214.378C70.849 216.42 69.973 220.246 71.453 222.954C71.721 223.443 72.135 223.927 72.725 223.993C74.196 224.153 73.621 222.251 73.469 221.476C73.326 220.742 73.175 220.009 73.143 219.262C73.093 218.09 73.176 216.93 73.33 215.768C73.574 213.926 74.2 211.963 74.195 210.108C77.057 210.495 79.975 209.333 82.748 208.862C88.028 207.965 94.012 208.312 98.24 211.954C91.176 211.262 89.025 208.781 83.656 209.364C76.915 210.096 74.904 215.387 77.483 221.17C78.087 222.523 77.483 225.871 78.854 226.057C82.001 226.485 79.509 217.13 83.981 216.384C86.678 215.935 89.103 217.955 91.86 219.972C94.725 222.07 97.95 224.166 102.211 223.496C110.176 222.245 112.401 213.425 110.095 209.146C112.372 209.394 114.407 208.976 116.375 208.561C119.653 207.867 122.747 207.174 126.476 209.548C130.81 212.307 132.068 222.156 135.002 221.275C136.662 220.776 134.168 218.45 134.168 211.294C134.168 208.579 132.963 203.715 129.199 201.439C120.883 196.409 115.34 200.667 109.263 196.548C102.374 191.879 108.264 185.888 114.305 179.512C115.933 177.793 117.333 175.779 118.481 173.721C123.491 164.729 122.578 151.155 117.112 142.495C115.115 139.333 112.635 137.022 109.568 134.912C104.346 131.325 98.202 129.641 92.052 129.641C78.968 129.641 65.871 137.273 61.663 150.435Z" fill="white"/>
</mask>
<g mask="url(#mask8)">
<path fill-rule="evenodd" clip-rule="evenodd" d="M101.02 211C100.547 208.369 98.7336 206.402 96.4756 205.085C93.2446 203.199 89.5166 202.58 85.8646 203.173C75.8946 204.791 72.7426 201.483 68.3346 202.888C60.5646 205.364 59.0436 202.675 59.0406 202.826C58.9786 205.371 59.5426 206.454 61.1446 206.493C64.4006 206.571 67.5486 203.639 70.8446 204.604C73.2436 205.307 74.4306 209.944 72.2436 211.462C70.4666 212.695 67.5146 209.876 65.0466 210.052C62.4306 210.236 60.5436 212.218 58.0316 212.715C52.2056 213.868 49.5646 209.354 49.4676 204.234C49.2736 206.21 49.0386 208.245 49.1426 210.232C49.2066 211.443 49.3866 212.792 49.9366 213.891C52.9906 219.988 58.9716 219.028 64.7316 218.12C65.9206 217.933 67.1066 217.389 68.2816 217.923C70.8026 219.07 70.5186 226.374 73.8756 225.78C76.4546 225.324 75.9276 221.371 75.6906 219.563C75.0666 214.777 75.9326 211.567 80.8876 209.884C84.6376 208.61 89.2386 209.225 92.8586 210.664C95.0546 211.536 98.7786 212.885 101.02 211Z" fill="#BB1818"/>
</g>
<mask id="mask9" mask-type="alpha" maskUnits="userSpaceOnUse" x="49" y="129" width="87" height="98">
<path fill-rule="evenodd" clip-rule="evenodd" d="M61.663 150.435C58.277 161.028 60.683 172.583 66.687 181.836C70.775 188.135 77.295 191.222 71.248 195.566C69.018 197.168 66.559 196.602 63.825 196.036C60.781 195.405 57.397 194.776 53.607 197.137C46.737 201.418 48.605 214.325 57.242 215.766C59.028 216.063 60.648 215.397 62.182 214.732C64.238 213.84 66.139 212.946 68.078 214.378C70.849 216.42 69.973 220.246 71.453 222.954C71.721 223.443 72.135 223.927 72.725 223.993C74.196 224.153 73.621 222.251 73.469 221.476C73.326 220.742 73.175 220.009 73.143 219.262C73.093 218.09 73.176 216.93 73.33 215.768C73.574 213.926 74.2 211.963 74.195 210.108C77.057 210.495 79.975 209.333 82.748 208.862C88.028 207.965 94.012 208.312 98.24 211.954C91.176 211.262 89.025 208.781 83.656 209.364C76.915 210.096 74.904 215.387 77.483 221.17C78.087 222.523 77.483 225.871 78.854 226.057C82.001 226.485 79.509 217.13 83.981 216.384C86.678 215.935 89.103 217.955 91.86 219.972C94.725 222.07 97.95 224.166 102.211 223.496C110.176 222.245 112.401 213.425 110.095 209.146C112.372 209.394 114.407 208.976 116.375 208.561C119.653 207.867 122.747 207.174 126.476 209.548C130.81 212.307 132.068 222.156 135.002 221.275C136.662 220.776 134.168 218.45 134.168 211.294C134.168 208.579 132.963 203.715 129.199 201.439C120.883 196.409 115.34 200.667 109.263 196.548C102.374 191.879 108.264 185.888 114.305 179.512C115.933 177.793 117.333 175.779 118.481 173.721C123.491 164.729 122.578 151.155 117.112 142.495C115.115 139.333 112.635 137.022 109.568 134.912C104.346 131.325 98.202 129.641 92.052 129.641C78.968 129.641 65.871 137.273 61.663 150.435Z" fill="white"/>
</mask>
<g mask="url(#mask9)">
<path fill-rule="evenodd" clip-rule="evenodd" d="M113.434 153.147C98.0781 165.823 82.8101 141.549 66.6931 142.292C64.2431 142.404 61.6881 142.995 59.6461 144.413C70.7471 129.558 95.5111 134.517 108.212 144.573C110.465 146.356 112.65 150.209 113.434 153.147Z" fill="#BB1818"/>
</g>
<mask id="mask10" mask-type="alpha" maskUnits="userSpaceOnUse" x="49" y="129" width="87" height="98">
<path fill-rule="evenodd" clip-rule="evenodd" d="M61.663 150.435C58.277 161.028 60.683 172.583 66.687 181.836C70.775 188.135 77.295 191.222 71.248 195.566C69.018 197.168 66.559 196.602 63.825 196.036C60.781 195.405 57.397 194.776 53.607 197.137C46.737 201.418 48.605 214.325 57.242 215.766C59.028 216.063 60.648 215.397 62.182 214.732C64.238 213.84 66.139 212.946 68.078 214.378C70.849 216.42 69.973 220.246 71.453 222.954C71.721 223.443 72.135 223.927 72.725 223.993C74.196 224.153 73.621 222.251 73.469 221.476C73.326 220.742 73.175 220.009 73.143 219.262C73.093 218.09 73.176 216.93 73.33 215.768C73.574 213.926 74.2 211.963 74.195 210.108C77.057 210.495 79.975 209.333 82.748 208.862C88.028 207.965 94.012 208.312 98.24 211.954C91.176 211.262 89.025 208.781 83.656 209.364C76.915 210.096 74.904 215.387 77.483 221.17C78.087 222.523 77.483 225.871 78.854 226.057C82.001 226.485 79.509 217.13 83.981 216.384C86.678 215.935 89.103 217.955 91.86 219.972C94.725 222.07 97.95 224.166 102.211 223.496C110.176 222.245 112.401 213.425 110.095 209.146C112.372 209.394 114.407 208.976 116.375 208.561C119.653 207.867 122.747 207.174 126.476 209.548C130.81 212.307 132.068 222.156 135.002 221.275C136.662 220.776 134.168 218.45 134.168 211.294C134.168 208.579 132.963 203.715 129.199 201.439C120.883 196.409 115.34 200.667 109.263 196.548C102.374 191.879 108.264 185.888 114.305 179.512C115.933 177.793 117.333 175.779 118.481 173.721C123.491 164.729 122.578 151.155 117.112 142.495C115.115 139.333 112.635 137.022 109.568 134.912C104.346 131.325 98.202 129.641 92.052 129.641C78.968 129.641 65.871 137.273 61.663 150.435Z" fill="white"/>
</mask>
<g mask="url(#mask10)">
<path fill-rule="evenodd" clip-rule="evenodd" d="M73.7662 192.391C73.2012 200.508 64.1902 197.01 59.2962 197.241C57.9922 197.304 56.6962 197.627 55.5442 198.245C52.9612 199.631 51.5792 202.107 51.0942 204.902C50.9232 205.887 50.7332 206.872 50.6782 207.871C50.6522 208.341 50.6412 208.81 50.6352 209.281C50.6352 209.293 50.6432 209.47 50.6222 209.474C50.1292 209.57 49.6092 208.93 49.3812 208.596C48.3852 207.138 48.3262 204.955 48.6582 203.288C49.8522 197.282 55.3492 194.711 61.0772 194.631C63.1962 194.602 65.2672 195.218 67.3902 195.161C69.3032 195.11 72.3102 193.691 73.7662 192.391Z" fill="#F190AE"/>
</g>
<mask id="mask11" mask-type="alpha" maskUnits="userSpaceOnUse" x="49" y="129" width="87" height="98">
<path fill-rule="evenodd" clip-rule="evenodd" d="M61.663 150.435C58.277 161.028 60.683 172.583 66.687 181.836C70.775 188.135 77.295 191.222 71.248 195.566C69.018 197.168 66.559 196.602 63.825 196.036C60.781 195.405 57.397 194.776 53.607 197.137C46.737 201.418 48.605 214.325 57.242 215.766C59.028 216.063 60.648 215.397 62.182 214.732C64.238 213.84 66.139 212.946 68.078 214.378C70.849 216.42 69.973 220.246 71.453 222.954C71.721 223.443 72.135 223.927 72.725 223.993C74.196 224.153 73.621 222.251 73.469 221.476C73.326 220.742 73.175 220.009 73.143 219.262C73.093 218.09 73.176 216.93 73.33 215.768C73.574 213.926 74.2 211.963 74.195 210.108C77.057 210.495 79.975 209.333 82.748 208.862C88.028 207.965 94.012 208.312 98.24 211.954C91.176 211.262 89.025 208.781 83.656 209.364C76.915 210.096 74.904 215.387 77.483 221.17C78.087 222.523 77.483 225.871 78.854 226.057C82.001 226.485 79.509 217.13 83.981 216.384C86.678 215.935 89.103 217.955 91.86 219.972C94.725 222.07 97.95 224.166 102.211 223.496C110.176 222.245 112.401 213.425 110.095 209.146C112.372 209.394 114.407 208.976 116.375 208.561C119.653 207.867 122.747 207.174 126.476 209.548C130.81 212.307 132.068 222.156 135.002 221.275C136.662 220.776 134.168 218.45 134.168 211.294C134.168 208.579 132.963 203.715 129.199 201.439C120.883 196.409 115.34 200.667 109.263 196.548C102.374 191.879 108.264 185.888 114.305 179.512C115.933 177.793 117.333 175.779 118.481 173.721C123.491 164.729 122.578 151.155 117.112 142.495C115.115 139.333 112.635 137.022 109.568 134.912C104.346 131.325 98.202 129.641 92.052 129.641C78.968 129.641 65.871 137.273 61.663 150.435Z" fill="white"/>
</mask>
<g mask="url(#mask11)">
<path fill-rule="evenodd" clip-rule="evenodd" d="M62.291 206.868C64.062 207.044 65.528 205.923 67.149 205.427C69.435 204.725 71.995 205.566 73.413 207.468C73.217 206.59 73.152 206.558 72.536 205.91C70.269 203.525 67.447 204.042 65.005 205.551C64.339 205.962 63.157 206.334 62.291 206.868Z" fill="#F190AE"/>
</g>
<mask id="mask12" mask-type="alpha" maskUnits="userSpaceOnUse" x="49" y="129" width="87" height="98">
<path fill-rule="evenodd" clip-rule="evenodd" d="M61.663 150.435C58.277 161.028 60.683 172.583 66.687 181.836C70.775 188.135 77.295 191.222 71.248 195.566C69.018 197.168 66.559 196.602 63.825 196.036C60.781 195.405 57.397 194.776 53.607 197.137C46.737 201.418 48.605 214.325 57.242 215.766C59.028 216.063 60.648 215.397 62.182 214.732C64.238 213.84 66.139 212.946 68.078 214.378C70.849 216.42 69.973 220.246 71.453 222.954C71.721 223.443 72.135 223.927 72.725 223.993C74.196 224.153 73.621 222.251 73.469 221.476C73.326 220.742 73.175 220.009 73.143 219.262C73.093 218.09 73.176 216.93 73.33 215.768C73.574 213.926 74.2 211.963 74.195 210.108C77.057 210.495 79.975 209.333 82.748 208.862C88.028 207.965 94.012 208.312 98.24 211.954C91.176 211.262 89.025 208.781 83.656 209.364C76.915 210.096 74.904 215.387 77.483 221.17C78.087 222.523 77.483 225.871 78.854 226.057C82.001 226.485 79.509 217.13 83.981 216.384C86.678 215.935 89.103 217.955 91.86 219.972C94.725 222.07 97.95 224.166 102.211 223.496C110.176 222.245 112.401 213.425 110.095 209.146C112.372 209.394 114.407 208.976 116.375 208.561C119.653 207.867 122.747 207.174 126.476 209.548C130.81 212.307 132.068 222.156 135.002 221.275C136.662 220.776 134.168 218.45 134.168 211.294C134.168 208.579 132.963 203.715 129.199 201.439C120.883 196.409 115.34 200.667 109.263 196.548C102.374 191.879 108.264 185.888 114.305 179.512C115.933 177.793 117.333 175.779 118.481 173.721C123.491 164.729 122.578 151.155 117.112 142.495C115.115 139.333 112.635 137.022 109.568 134.912C104.346 131.325 98.202 129.641 92.052 129.641C78.968 129.641 65.871 137.273 61.663 150.435Z" fill="white"/>
</mask>
<g mask="url(#mask12)">
<path fill-rule="evenodd" clip-rule="evenodd" d="M77.7447 221.777C77.9317 219.366 76.9857 217.026 77.7617 214.638C78.6177 212.008 81.4197 210.542 84.0157 210.308C85.9597 210.135 87.9997 210.132 89.9197 210.521C92.1257 210.968 94.2297 211.772 96.5017 211.867C95.3597 211.389 94.1137 211.151 92.9257 210.819C91.0987 210.307 89.1947 209.682 87.3117 209.423C82.4517 208.753 77.0017 209.93 76.3227 215.548C76.0237 218.022 77.1527 219.546 77.7447 221.777Z" fill="#F190AE"/>
</g>
<mask id="mask13" mask-type="alpha" maskUnits="userSpaceOnUse" x="49" y="129" width="87" height="98">
<path fill-rule="evenodd" clip-rule="evenodd" d="M61.663 150.435C58.277 161.028 60.683 172.583 66.687 181.836C70.775 188.135 77.295 191.222 71.248 195.566C69.018 197.168 66.559 196.602 63.825 196.036C60.781 195.405 57.397 194.776 53.607 197.137C46.737 201.418 48.605 214.325 57.242 215.766C59.028 216.063 60.648 215.397 62.182 214.732C64.238 213.84 66.139 212.946 68.078 214.378C70.849 216.42 69.973 220.246 71.453 222.954C71.721 223.443 72.135 223.927 72.725 223.993C74.196 224.153 73.621 222.251 73.469 221.476C73.326 220.742 73.175 220.009 73.143 219.262C73.093 218.09 73.176 216.93 73.33 215.768C73.574 213.926 74.2 211.963 74.195 210.108C77.057 210.495 79.975 209.333 82.748 208.862C88.028 207.965 94.012 208.312 98.24 211.954C91.176 211.262 89.025 208.781 83.656 209.364C76.915 210.096 74.904 215.387 77.483 221.17C78.087 222.523 77.483 225.871 78.854 226.057C82.001 226.485 79.509 217.13 83.981 216.384C86.678 215.935 89.103 217.955 91.86 219.972C94.725 222.07 97.95 224.166 102.211 223.496C110.176 222.245 112.401 213.425 110.095 209.146C112.372 209.394 114.407 208.976 116.375 208.561C119.653 207.867 122.747 207.174 126.476 209.548C130.81 212.307 132.068 222.156 135.002 221.275C136.662 220.776 134.168 218.45 134.168 211.294C134.168 208.579 132.963 203.715 129.199 201.439C120.883 196.409 115.34 200.667 109.263 196.548C102.374 191.879 108.264 185.888 114.305 179.512C115.933 177.793 117.333 175.779 118.481 173.721C123.491 164.729 122.578 151.155 117.112 142.495C115.115 139.333 112.635 137.022 109.568 134.912C104.346 131.325 98.202 129.641 92.052 129.641C78.968 129.641 65.871 137.273 61.663 150.435Z" fill="white"/>
</mask>
<g mask="url(#mask13)">
<path fill-rule="evenodd" clip-rule="evenodd" d="M64.5063 145.852C58.3863 155.439 61.1553 167.904 66.1043 177.399C68.4273 181.854 71.6473 185.922 73.5973 190.566C71.6353 189.064 69.9773 187.162 68.4073 185.267C62.1023 177.652 58.1353 168.274 59.2843 158.209C59.7943 153.745 60.8083 148.928 64.5063 145.852Z" fill="#F190AE"/>
</g>
<path fill-rule="evenodd" clip-rule="evenodd" d="M71.2485 195.562C77.2945 191.219 70.7755 188.13 66.6875 181.833C60.6825 172.58 58.2765 161.024 61.6625 150.433C67.8475 131.083 93.2365 123.686 109.568 134.91C112.636 137.018 115.116 139.329 117.112 142.491C122.579 151.152 123.491 164.726 118.481 173.718C117.333 175.776 115.933 177.79 114.305 179.508C108.264 185.885 102.374 191.875 109.263 196.544C115.341 200.664 120.884 196.406 129.199 201.435C132.963 203.713 134.168 208.575 134.168 211.29C134.168 218.447 136.663 220.772 135.002 221.271C132.068 222.152 130.811 212.304 126.477 209.544C120.51 205.746 116.168 209.801 110.095 209.143C112.401 213.422 110.176 222.241 102.212 223.494C93.8465 224.809 89.4795 215.464 83.9805 216.38C79.5085 217.126 82.0005 226.481 78.8535 226.054C77.4825 225.869 78.0865 222.52 77.4825 221.166C74.9035 215.384 76.9145 210.092 83.6565 209.36C89.0245 208.777 91.1755 211.259 98.2405 211.95C94.0125 208.309 88.0285 207.961 82.7475 208.859C79.9755 209.329 77.0575 210.491 74.1955 210.105C74.1995 211.96 73.5745 213.923 73.3305 215.764C73.1755 216.926 73.0925 218.086 73.1435 219.257C73.1755 220.006 73.3255 220.738 73.4685 221.472C73.6205 222.248 74.1965 224.149 72.7255 223.989C72.1345 223.924 71.7215 223.44 71.4535 222.95C69.9735 220.242 70.8485 216.416 68.0785 214.374C64.6935 211.876 61.4235 216.459 57.2415 215.762C48.6045 214.321 46.7375 201.414 53.6065 197.133C60.8015 192.65 66.5355 198.948 71.2485 195.562Z" stroke="#333739" stroke-width="0.693" stroke-linecap="round" stroke-linejoin="round"/>
<path fill-rule="evenodd" clip-rule="evenodd" d="M98.1968 212.29C98.6228 212.32 99.0268 212.319 99.3988 212.275C99.8488 212.222 100.258 212.114 100.601 211.934C100.812 211.821 101.002 211.687 101.158 211.52C101.387 211.276 101.554 210.983 101.652 210.631C101.692 210.532 101.643 210.421 101.545 210.381C101.446 210.342 101.333 210.39 101.294 210.487C101.152 210.751 100.956 210.941 100.735 211.101C100.626 211.179 100.509 211.244 100.384 211.304C100.263 211.362 100.134 211.41 99.9968 211.452C99.4988 211.606 98.9028 211.647 98.2438 211.603C98.0528 211.59 97.8878 211.732 97.8748 211.923C97.8618 212.112 98.0058 212.277 98.1968 212.29Z" fill="#333739"/>
<path fill-rule="evenodd" clip-rule="evenodd" d="M74.5259 210.212C74.5569 208.233 73.8519 206.638 72.6879 205.569C71.4889 204.466 69.7979 203.917 67.8979 204.087C67.5249 204.121 67.1349 204.222 66.7359 204.368C66.0709 204.611 65.3769 204.975 64.6959 205.316C64.0139 205.656 63.3469 205.974 62.7349 206.084C62.1599 206.188 61.6579 206.206 61.2239 206.13C60.7189 206.044 60.3129 205.831 60.0009 205.466C59.7129 205.131 59.4999 204.685 59.3529 204.112C59.2349 203.658 59.1529 203.134 59.1159 202.529C59.1159 202.466 59.0639 202.414 58.9999 202.414C58.9359 202.414 58.8839 202.466 58.8839 202.529C58.8459 203.16 58.8589 203.714 58.9309 204.197C59.0319 204.875 59.2469 205.412 59.5529 205.822C59.9269 206.324 60.4479 206.633 61.1019 206.769C61.6009 206.871 62.1859 206.86 62.8529 206.75C63.5219 206.635 64.2589 206.306 65.0069 205.937C65.6659 205.614 66.3349 205.26 66.9779 205.028C67.3159 204.906 67.6449 204.816 67.9619 204.788C69.6449 204.636 71.1469 205.11 72.2099 206.085C73.2429 207.032 73.8569 208.448 73.8339 210.202C73.8309 210.393 73.9839 210.549 74.1749 210.552C74.3659 210.555 74.5239 210.401 74.5259 210.212Z" fill="#333739"/>
<path fill-rule="evenodd" clip-rule="evenodd" d="M110.433 208.961C109.499 207.214 108.034 205.438 106.655 203.656C105.753 202.491 104.895 201.32 104.253 200.149C103.799 199.321 103.449 198.497 103.286 197.662C103.172 197.079 103.142 196.493 103.232 195.903C103.251 195.798 103.182 195.699 103.078 195.679C102.973 195.661 102.872 195.729 102.853 195.833C102.531 197.361 102.917 198.906 103.697 200.441C104.318 201.662 105.192 202.871 106.108 204.072C107.451 205.833 108.905 207.568 109.822 209.284C109.912 209.453 110.122 209.517 110.29 209.428C110.459 209.338 110.523 209.129 110.433 208.961Z" fill="#333739"/>
<path fill-rule="evenodd" clip-rule="evenodd" d="M71.292 187.986C71.793 188.59 72.223 189.096 72.602 189.561C73.061 190.122 73.438 190.625 73.778 191.178C73.956 191.468 74.125 191.77 74.291 192.103C74.506 192.534 74.724 193.01 74.935 193.58C74.965 193.682 75.072 193.739 75.174 193.709C75.276 193.679 75.334 193.572 75.304 193.47C75.161 192.857 75.013 192.333 74.834 191.866C74.691 191.495 74.53 191.161 74.352 190.843C74.019 190.249 73.622 189.717 73.144 189.125C72.765 188.655 72.329 188.152 71.825 187.547C71.703 187.4 71.485 187.38 71.337 187.501C71.19 187.623 71.17 187.84 71.292 187.986Z" fill="#333739"/>
<path fill-rule="evenodd" clip-rule="evenodd" d="M63.4121 147.36C63.9271 146.567 64.5831 145.842 65.3111 145.129C65.9921 144.463 66.7531 143.876 67.5411 143.318C68.1591 142.882 68.7941 142.485 69.4441 142.144C70.4321 141.624 71.4461 141.243 72.4591 141.102C72.9991 141.026 73.5341 141.006 74.0621 141.067C74.4141 141.107 74.7631 141.152 75.1091 141.254C76.3521 141.624 77.5511 142.379 78.6221 143.841C78.7201 144.021 78.9461 144.089 79.1281 143.992C79.3091 143.895 79.3771 143.668 79.2791 143.488C78.6751 141.862 77.8181 140.727 76.8141 139.917C76.2661 139.475 75.6651 139.168 75.0351 138.95C74.1221 138.633 73.1431 138.569 72.1601 138.667C70.8421 138.795 69.4971 139.261 68.2451 139.98C67.4851 140.414 66.7501 140.936 66.0911 141.551C65.2871 142.302 64.5811 143.15 63.9941 144.063C63.3861 145.007 62.9171 145.98 62.5901 146.969C62.4811 147.195 62.5781 147.466 62.8041 147.575C63.0311 147.682 63.3041 147.587 63.4121 147.36Z" fill="#333739"/>
<path fill-rule="evenodd" clip-rule="evenodd" d="M106.377 156.095C105.531 156.273 104.692 156.281 103.798 156.252C102.974 156.226 102.177 156.075 101.349 155.903C100.931 155.816 100.518 155.711 100.102 155.6C99.4934 155.438 98.8914 155.238 98.3034 154.99C97.5844 154.685 96.8934 154.305 96.2334 153.86C95.7974 153.565 95.3704 153.261 94.9554 152.918C93.9114 152.055 92.9274 151.11 92.1854 149.776C92.0964 149.524 91.8174 149.392 91.5644 149.481C91.3114 149.57 91.1784 149.847 91.2674 150.099C91.5124 151.558 91.9914 152.81 92.6744 153.952C92.9934 154.485 93.3664 154.96 93.7854 155.398C94.7424 156.396 95.9214 157.126 97.1494 157.663C97.8994 157.991 98.6814 158.237 99.4764 158.379C100.011 158.476 100.548 158.54 101.085 158.536C102.11 158.528 103.097 158.392 104.05 158.096C105.017 157.796 105.881 157.393 106.696 156.854C106.907 156.766 107.006 156.524 106.918 156.315C106.829 156.106 106.587 156.007 106.377 156.095Z" fill="#333739"/>
<path fill-rule="evenodd" clip-rule="evenodd" d="M85.3388 148.436C85.3948 148.685 85.4938 148.909 85.6258 149.108C85.7198 149.252 85.8348 149.376 85.9598 149.484C86.1908 149.683 86.4618 149.812 86.7338 149.867C86.8858 149.897 87.0408 149.901 87.1898 149.879C87.6948 149.804 88.1648 149.445 88.3848 148.692C88.5258 148.192 88.4428 147.683 88.3098 147.173C88.1898 146.713 88.0328 146.254 88.0218 145.8C88.0158 145.575 88.0448 145.353 88.1338 145.134C88.1518 145.093 88.1338 145.045 88.0928 145.026C88.0518 145.009 88.0038 145.026 87.9848 145.067C87.8678 145.303 87.8148 145.547 87.8018 145.796C87.7768 146.268 87.8988 146.758 87.9878 147.245C88.0718 147.694 88.1308 148.139 87.9798 148.564C87.8238 149.016 87.5648 149.268 87.2658 149.36C87.1218 149.405 86.9698 149.411 86.8178 149.387C86.6638 149.363 86.5078 149.312 86.3608 149.235C86.2138 149.157 86.0738 149.059 85.9468 148.938C85.7798 148.78 85.6288 148.596 85.5218 148.373C85.5038 148.323 85.4488 148.296 85.3988 148.314C85.3478 148.332 85.3208 148.385 85.3388 148.436Z" fill="#333739"/>
<path fill-rule="evenodd" clip-rule="evenodd" d="M108.76 165.408C108.926 165.701 109.135 165.907 109.366 166.038C109.66 166.206 109.986 166.239 110.29 166.176C110.535 166.124 110.767 165.998 110.962 165.813C111.204 165.582 111.384 165.25 111.463 164.841C111.536 164.434 111.439 163.972 111.265 163.468C111.073 162.912 110.794 162.303 110.631 161.65C110.523 161.221 110.462 160.776 110.511 160.315C110.517 160.27 110.487 160.23 110.442 160.224C110.398 160.217 110.357 160.248 110.35 160.291C110.263 160.772 110.29 161.245 110.371 161.704C110.49 162.376 110.726 163.012 110.886 163.585C111.007 164.018 111.087 164.408 111.007 164.747C110.939 165.048 110.796 165.286 110.617 165.46C110.487 165.587 110.338 165.678 110.175 165.728C109.967 165.79 109.743 165.791 109.52 165.71C109.313 165.634 109.104 165.506 108.918 165.296C108.887 165.253 108.826 165.243 108.782 165.273C108.739 165.304 108.729 165.364 108.76 165.408Z" fill="#333739"/>
<path fill-rule="evenodd" clip-rule="evenodd" d="M111.042 159.815C111.087 160.242 111.236 160.591 111.438 160.846C111.628 161.083 111.87 161.23 112.115 161.291C112.465 161.378 112.834 161.284 113.126 160.979C113.313 160.786 113.465 160.496 113.556 160.104C113.622 159.804 113.615 159.449 113.559 159.054C113.491 158.584 113.359 158.056 113.233 157.512C113.057 156.746 112.894 155.949 112.971 155.232C112.978 155.188 112.946 155.148 112.902 155.142C112.857 155.135 112.816 155.166 112.81 155.209C112.753 155.525 112.741 155.86 112.756 156.203C112.79 156.981 112.963 157.801 113.074 158.534C113.159 159.098 113.21 159.606 113.103 159.993C113.009 160.351 112.856 160.589 112.672 160.725C112.531 160.83 112.372 160.867 112.212 160.839C112.002 160.802 111.795 160.677 111.619 160.473C111.462 160.292 111.321 160.064 111.231 159.776C111.22 159.723 111.169 159.69 111.117 159.701C111.065 159.711 111.031 159.762 111.042 159.815Z" fill="#333739"/>
<path fill-rule="evenodd" clip-rule="evenodd" d="M86.3662 148.474C86.3362 148.368 86.3242 148.27 86.3032 148.165C86.2842 148.075 86.2712 147.988 86.2552 147.9C86.2452 147.841 86.2372 147.783 86.2262 147.725C86.2092 147.629 86.1932 147.535 86.1812 147.439C86.1622 147.292 86.1492 147.146 86.1512 146.998C86.1582 146.495 86.2862 145.99 86.5322 145.523C86.5562 145.485 86.5452 145.435 86.5072 145.411C86.4692 145.387 86.4192 145.398 86.3952 145.436C86.1442 145.762 85.9522 146.118 85.8302 146.496C85.7442 146.76 85.6982 147.033 85.6932 147.309C85.6902 147.426 85.6952 147.543 85.7142 147.66C85.7332 147.774 85.7632 147.888 85.8072 147.997C85.8512 148.106 85.9032 148.208 85.9712 148.307C86.0392 148.404 86.1132 148.484 86.1992 148.572C86.2262 148.618 86.2852 148.633 86.3312 148.606C86.3772 148.578 86.3932 148.52 86.3662 148.474Z" fill="#E62B31"/>
<path fill-rule="evenodd" clip-rule="evenodd" d="M109.384 165.012C109.362 164.887 109.359 164.772 109.343 164.646C109.328 164.529 109.315 164.413 109.297 164.296C109.281 164.193 109.261 164.09 109.243 163.987C109.202 163.744 109.167 163.499 109.16 163.251C109.147 162.846 109.177 162.444 109.267 162.054C109.281 162.013 109.258 161.967 109.215 161.954C109.173 161.939 109.127 161.962 109.113 162.005C108.962 162.355 108.853 162.724 108.793 163.106C108.753 163.364 108.738 163.623 108.749 163.883C108.753 163.993 108.761 164.102 108.781 164.209C108.801 164.318 108.828 164.423 108.867 164.527C108.907 164.631 108.952 164.729 109.01 164.825C109.071 164.921 109.134 165.002 109.207 165.092C109.23 165.14 109.287 165.161 109.336 165.139C109.384 165.118 109.406 165.061 109.384 165.012Z" fill="#E62B31"/>
<path fill-rule="evenodd" clip-rule="evenodd" d="M112.057 159.951C112.057 159.911 112.059 159.879 112.058 159.84C112.057 159.753 112.058 159.676 112.055 159.59C112.052 159.543 112.05 159.498 112.046 159.451C112.038 159.384 112.033 159.316 112.022 159.249C112.001 159.116 111.971 158.983 111.952 158.85C111.923 158.644 111.9 158.439 111.896 158.232C111.892 157.98 111.904 157.732 111.945 157.485C111.957 157.443 111.932 157.399 111.889 157.386C111.846 157.374 111.801 157.399 111.788 157.442C111.668 157.738 111.584 158.046 111.538 158.364C111.507 158.579 111.495 158.794 111.502 159.011C111.505 159.101 111.511 159.192 111.526 159.281C111.542 159.37 111.563 159.459 111.595 159.545C111.628 159.631 111.664 159.712 111.712 159.792C111.763 159.875 111.815 159.941 111.875 160.017C111.894 160.067 111.95 160.093 112 160.075C112.05 160.056 112.076 160.001 112.057 159.951Z" fill="#E62B31"/>
<path fill-rule="evenodd" clip-rule="evenodd" d="M65.8916 149.376C66.2486 149.019 66.8306 148.662 67.5066 148.341C67.8846 148.161 68.2916 147.995 68.7076 147.847C69.1206 147.7 69.5406 147.568 69.9526 147.472C70.6536 147.309 71.3266 147.237 71.8776 147.326C71.9216 147.335 71.9656 147.306 71.9746 147.262C71.9836 147.218 71.9536 147.175 71.9106 147.166C71.3416 147.031 70.6336 147.044 69.8916 147.171C69.4596 147.243 69.0166 147.353 68.5856 147.495C68.1516 147.64 67.7316 147.818 67.3446 148.012C66.6376 148.368 66.0446 148.785 65.6826 149.179C65.6276 149.235 65.6296 149.327 65.6876 149.381C65.7456 149.436 65.8366 149.434 65.8916 149.376Z" fill="#333739"/>
<path fill-rule="evenodd" clip-rule="evenodd" d="M75.9399 159.16C76.0859 158.455 76.1909 157.716 76.2489 156.97C76.2869 156.479 76.3049 155.984 76.3019 155.493C76.2999 155.078 76.2839 154.667 76.2519 154.264C76.2179 153.846 76.1689 153.436 76.1049 153.04C75.9869 152.318 75.8219 151.642 75.6149 151.045C75.3559 150.297 75.0299 149.67 74.6459 149.225C74.6169 149.19 74.5649 149.185 74.5299 149.214C74.4949 149.243 74.4899 149.295 74.5179 149.33C74.8669 149.775 75.1449 150.393 75.3619 151.126C75.5379 151.717 75.6689 152.382 75.7609 153.091C75.8119 153.48 75.8489 153.88 75.8769 154.291C75.9029 154.687 75.9209 155.09 75.9269 155.497C75.9329 155.979 75.9239 156.464 75.8979 156.946C75.8589 157.683 75.7809 158.41 75.6569 159.106C75.6419 159.183 75.6929 159.26 75.7709 159.274C75.8489 159.289 75.9249 159.238 75.9399 159.16Z" fill="#333739"/>
<path fill-rule="evenodd" clip-rule="evenodd" d="M71.8935 148.175C70.3385 147.319 66.6515 147.549 64.6335 148.23C64.1645 148.388 64.5795 149.441 64.1955 150.247C63.8085 151.062 63.5455 151.889 62.9305 153.095C63.8295 152.534 65.2465 151.577 66.1175 150.959C67.9425 149.664 69.8725 148.018 71.8935 148.175Z" fill="#333739"/>
<path fill-rule="evenodd" clip-rule="evenodd" d="M70.6397 147.995C74.2977 148.594 76.5147 153.132 75.5877 158.126C74.6607 163.119 70.9377 166.687 67.2797 166.088C63.6217 165.49 61.4047 160.951 62.3317 155.958C63.2597 150.965 66.9817 147.397 70.6397 147.995Z" fill="white"/>
<path fill-rule="evenodd" clip-rule="evenodd" d="M70.6724 147.794C69.4544 147.555 68.2114 147.757 67.0564 148.329C66.5944 148.558 66.1494 148.848 65.7264 149.191C63.9284 150.651 62.5304 153.056 62.0064 155.899C61.4874 158.735 61.9584 161.428 63.1114 163.374C64.0714 164.994 65.5034 166.102 67.2314 166.38C68.9504 166.654 70.6834 166.064 72.1554 164.845C73.9274 163.377 75.3224 160.997 75.8374 158.171C76.3494 155.354 75.8824 152.681 74.7354 150.75C73.7874 149.154 72.3784 148.062 70.6734 147.789L70.6724 147.794ZM70.6064 148.201C72.5464 148.525 74.0544 150.009 74.8714 152.072C75.5484 153.78 75.7524 155.886 75.3374 158.079C74.9224 160.275 73.9544 162.189 72.6884 163.573C71.1794 165.221 69.2454 166.117 67.3274 165.797C65.4154 165.479 63.9314 164.014 63.1244 161.981C62.4504 160.285 62.2474 158.195 62.6574 156.018C63.0674 153.834 64.0294 151.936 65.2804 150.553C65.8494 149.925 66.4794 149.405 67.1444 149.011C67.6784 148.693 68.2334 148.452 68.8054 148.313C69.3954 148.167 69.9984 148.119 70.6064 148.195V148.201Z" fill="#333739"/>
<path fill-rule="evenodd" clip-rule="evenodd" d="M72.6705 151.809C75.3335 153.646 75.8855 158.226 73.9045 162.032C71.9225 165.836 68.1525 167.434 65.4895 165.597C62.8275 163.76 62.2745 159.179 64.2555 155.375C66.2375 151.57 70.0075 149.972 72.6705 151.809Z" fill="#010101"/>
<path fill-rule="evenodd" clip-rule="evenodd" d="M65.5952 155.869C64.6262 157.251 64.1862 158.558 64.0722 159.705C63.9992 160.429 64.0862 161.099 64.2652 161.697C64.5802 162.747 65.2092 163.602 66.0202 164.148C66.8632 164.72 67.8802 165.019 68.9212 164.912C69.3642 164.868 69.8102 164.79 70.2432 164.602C71.4902 164.064 72.7102 163.004 73.3772 161.109C73.5332 160.798 73.4082 160.42 73.0962 160.265C72.7852 160.109 72.4062 160.235 72.2492 160.544C71.6982 161.35 71.0442 161.834 70.3962 162.16C69.4182 162.653 68.4312 162.434 67.7212 161.855C67.4582 161.64 67.2402 161.366 67.0882 161.028C66.9362 160.692 66.8282 160.308 66.8152 159.869C66.7902 159.046 66.9572 158.08 67.4992 156.992C67.8102 156.469 67.6362 155.792 67.1112 155.482C66.5852 155.172 65.9062 155.345 65.5952 155.869Z" fill="#901913"/>
<path fill-rule="evenodd" clip-rule="evenodd" d="M69.2734 152.365C69.9454 152.468 70.3684 153.163 70.2154 153.915C70.0634 154.666 69.3944 155.191 68.7214 155.086C68.0484 154.983 67.6264 154.289 67.7784 153.537C67.9304 152.786 68.6014 152.261 69.2734 152.365Z" fill="white"/>
<path fill-rule="evenodd" clip-rule="evenodd" d="M69.4595 161.963C70.0275 162.052 70.3725 162.696 70.2295 163.402C70.0855 164.109 69.5085 164.611 68.9405 164.522C68.3725 164.435 68.0275 163.79 68.1705 163.084C68.3135 162.377 68.8915 161.875 69.4595 161.963Z" fill="white"/>
<path fill-rule="evenodd" clip-rule="evenodd" d="M89.1279 164.793C89.9329 164.411 90.7829 164.137 91.6589 163.925C92.2339 163.786 92.8189 163.681 93.4119 163.599C93.9009 163.533 94.3959 163.487 94.8929 163.45C95.3879 163.415 95.8849 163.392 96.3849 163.382C97.3889 163.362 98.3959 163.398 99.3929 163.501C100.947 163.662 102.462 163.959 103.87 164.396C103.933 164.419 104.003 164.388 104.027 164.324C104.051 164.262 104.02 164.192 103.956 164.167C102.582 163.549 101.085 163.037 99.5209 162.701C98.4959 162.482 97.4489 162.336 96.3989 162.288C95.8689 162.264 95.3389 162.27 94.8139 162.303C94.2819 162.338 93.7539 162.405 93.2349 162.499C92.6039 162.615 91.9839 162.769 91.3829 162.969C90.4689 163.274 89.6019 163.676 88.7889 164.172C88.6169 164.266 88.5529 164.481 88.6469 164.651C88.7399 164.822 88.9559 164.887 89.1279 164.793Z" fill="#333739"/>
<path fill-rule="evenodd" clip-rule="evenodd" d="M89.2168 164.712C90.4098 163.317 92.2738 162.425 94.2668 161.978C96.2868 161.526 98.4378 161.53 100.186 161.947C100.225 161.956 100.265 161.933 100.275 161.894C100.286 161.855 100.262 161.815 100.223 161.805C98.4588 161.3 96.2648 161.201 94.1838 161.569C92.0458 161.948 90.0338 162.827 88.6998 164.253C88.5718 164.395 88.5848 164.612 88.7278 164.74C88.8708 164.866 89.0898 164.854 89.2168 164.712Z" fill="#333739"/>
<path fill-rule="evenodd" clip-rule="evenodd" d="M91.8066 165.973C92.4196 166.276 93.1396 166.508 93.9286 166.649C94.4006 166.733 94.8956 166.784 95.4056 166.797C95.6496 166.804 95.8976 166.801 96.1466 166.785C96.3916 166.771 96.6376 166.744 96.8836 166.708C97.2476 166.655 97.6086 166.581 97.9696 166.489C98.3256 166.396 98.6736 166.283 99.0216 166.156C99.0596 166.145 99.0826 166.105 99.0716 166.066C99.0606 166.028 99.0206 166.005 98.9816 166.016C98.4696 166.118 97.9546 166.179 97.4396 166.221C97.0946 166.249 96.7526 166.264 96.4116 166.274C96.1236 166.282 95.8396 166.284 95.5586 166.283C95.2696 166.279 94.9856 166.27 94.7066 166.252C93.6786 166.187 92.7266 166.002 91.9426 165.675C91.8596 165.637 91.7626 165.674 91.7246 165.756C91.6876 165.837 91.7236 165.935 91.8066 165.973Z" fill="#333739"/>
<path fill-rule="evenodd" clip-rule="evenodd" d="M76.9204 170.955C76.9884 171.267 77.0344 171.578 77.0764 171.886C77.1204 172.197 77.1504 172.506 77.1724 172.813C77.1884 173.02 77.2014 173.225 77.2104 173.431C77.2194 173.637 77.2274 173.843 77.2274 174.05C77.2264 174.739 77.1564 175.426 76.9744 176.132C76.9634 176.163 76.9804 176.196 77.0104 176.206C77.0424 176.217 77.0754 176.202 77.0864 176.171C77.3164 175.657 77.4904 175.147 77.6034 174.626C77.6824 174.264 77.7324 173.902 77.7504 173.536C77.7594 173.352 77.7574 173.169 77.7474 172.984C77.7364 172.801 77.7154 172.62 77.6874 172.437C77.6534 172.221 77.6094 172.007 77.5534 171.792C77.4724 171.479 77.3694 171.171 77.2524 170.857C77.2254 170.767 77.1284 170.715 77.0374 170.741C76.9454 170.768 76.8934 170.863 76.9204 170.955Z" fill="#333739"/>
<path fill-rule="evenodd" clip-rule="evenodd" d="M84.1147 170.826C83.9287 171.125 83.7757 171.427 83.6597 171.74C83.5777 171.957 83.5157 172.177 83.4697 172.4C83.4307 172.588 83.4037 172.778 83.3907 172.968C83.3777 173.159 83.3777 173.349 83.3907 173.539C83.4177 173.916 83.4877 174.286 83.5907 174.654C83.7397 175.181 83.9577 175.693 84.2267 176.194C84.2397 176.224 84.2747 176.238 84.3047 176.225C84.3347 176.211 84.3487 176.176 84.3357 176.146C84.1607 175.626 84.0447 175.103 83.9777 174.575C83.9337 174.223 83.9207 173.876 83.9257 173.525C83.9287 173.309 83.9417 173.094 83.9617 172.879C83.9817 172.666 84.0087 172.453 84.0477 172.238C84.1247 171.821 84.2357 171.401 84.4207 170.985C84.4647 170.901 84.4317 170.798 84.3477 170.754C84.2627 170.71 84.1587 170.742 84.1147 170.826Z" fill="#333739"/>
<path fill-rule="evenodd" clip-rule="evenodd" d="M78.7032 180.184C78.9612 180.416 79.2371 180.591 79.5351 180.71C79.6631 180.76 79.7951 180.793 79.9281 180.816C80.0181 180.83 80.1091 180.84 80.2001 180.839C80.4251 180.837 80.6491 180.802 80.8661 180.73C81.1701 180.628 81.4531 180.473 81.7201 180.259C81.7931 180.216 81.8181 180.122 81.7751 180.049C81.7321 179.975 81.6381 179.951 81.5641 179.994C81.3821 180.065 81.2031 180.104 81.0201 180.135C80.8391 180.167 80.6631 180.171 80.4851 180.169C80.3811 180.168 80.2781 180.157 80.1741 180.149C80.0711 180.141 79.9681 180.134 79.8651 180.12C79.7401 180.103 79.6151 180.084 79.4901 180.052C79.3001 180.004 79.1111 179.953 78.9242 179.863C78.8342 179.801 78.7122 179.825 78.6512 179.913C78.5902 180.001 78.6132 180.123 78.7032 180.184Z" fill="#333739"/>
<path fill-rule="evenodd" clip-rule="evenodd" d="M79.8126 176.853C80.1136 176.913 80.3846 176.85 80.7026 176.762C80.8266 176.73 80.9346 176.673 81.0466 176.603C81.3806 176.397 81.6346 176.048 81.8326 175.691C82.2546 174.93 82.3436 174.001 81.9356 173.244C81.6576 172.756 81.1966 172.363 80.7076 171.989C80.3546 171.721 79.9816 171.477 79.7846 171.072C79.5796 170.65 79.5256 170.11 79.7926 169.298C79.8276 169.225 79.7956 169.138 79.7226 169.104C79.6486 169.07 79.5616 169.101 79.5266 169.173C78.9496 170.077 78.8896 170.768 79.0226 171.341C79.1596 171.931 79.5466 172.388 79.9596 172.818C80.2746 173.146 80.6216 173.434 80.7866 173.815C80.9246 174.115 80.8606 174.454 80.7356 174.763C80.6606 174.948 80.5506 175.119 80.4276 175.277C80.3456 175.381 80.2546 175.476 80.1676 175.571C80.0686 175.679 80.0256 175.807 79.9196 175.896C79.8396 175.962 79.7976 176.043 79.7086 176.088C79.4966 176.117 79.3476 176.311 79.3766 176.522C79.4046 176.733 79.6006 176.882 79.8126 176.853Z" fill="#333739"/>
<path fill-rule="evenodd" clip-rule="evenodd" d="M119.978 170.905C120.728 164.052 115.422 155.837 110.471 151.589C99.0085 141.753 82.4145 138.493 67.1555 138.951C74.1805 127.115 89.1085 125.169 100.614 128.382C108.681 130.636 115.97 136.172 119.978 143.689C126.6 156.105 123.457 165.701 119.978 170.905Z" fill="white"/>
<path fill-rule="evenodd" clip-rule="evenodd" d="M82.8043 137.588C79.7623 137.285 76.4513 137.134 73.1873 137.081C75.0743 134.297 76.8663 131.654 78.5703 129.141C81.6053 129.171 84.5813 129.365 87.4983 129.72C86.0023 132.277 84.4593 134.763 82.8043 137.588Z" fill="#76151D"/>
<path fill-rule="evenodd" clip-rule="evenodd" d="M91.1739 136.096C90.6559 136.31 90.1479 136.37 89.7039 136.275C88.6369 136.044 88.3319 134.995 88.9759 133.886C89.6069 132.801 90.9179 132.112 91.9889 132.321C92.4329 132.407 92.7709 132.635 92.9609 132.982C92.9639 132.988 92.9679 132.994 92.9709 133C93.4009 132.784 93.8299 132.569 94.2569 132.357L94.2459 132.335C93.9529 131.737 93.3719 131.33 92.6259 131.189C90.8869 130.865 88.7229 131.973 87.7419 133.658C86.7269 135.403 87.2439 137.136 88.9669 137.518C89.7149 137.682 90.6109 137.559 91.4879 137.167C91.4979 137.162 91.5079 137.157 91.5179 137.153C91.4139 136.795 91.3069 136.439 91.1999 136.086C91.1909 136.089 91.1819 136.093 91.1739 136.096ZM92.2689 138.075C92.6679 138.175 93.0679 138.277 93.4669 138.381C94.6769 136.287 95.8209 134.253 96.8959 132.286C96.5009 132.191 96.1049 132.099 95.7079 132.011C94.6319 133.967 93.4839 135.99 92.2689 138.075ZM99.4889 137.444C99.5129 137.357 99.5389 132.946 99.5159 132.942C99.1309 132.837 98.7439 132.734 98.3569 132.634C97.2849 134.617 96.1469 136.66 94.9459 138.763C95.3469 138.874 95.7489 138.988 96.1499 139.104C96.8679 137.834 97.5639 136.586 98.2369 135.358C98.2559 135.549 98.2159 139.797 98.1989 139.787C98.1999 139.779 102.165 136.757 102.338 136.634C101.681 137.877 101.004 139.139 100.307 140.418C100.711 140.556 101.115 140.698 101.519 140.844C102.664 138.715 103.757 136.633 104.797 134.601C104.413 134.464 104.028 134.33 103.643 134.201C103.644 134.193 99.5779 137.367 99.4889 137.444ZM105.945 141.167C105.551 141.002 105.156 140.841 104.761 140.682C105.021 140.182 105.278 139.683 105.533 139.186C105.925 139.343 106.317 139.504 106.707 139.67C107.257 139.904 107.26 140.373 107.079 140.731C106.896 141.096 106.501 141.4 105.945 141.167ZM106.8 136.687C107.162 136.834 107.524 136.985 107.885 137.138C108.341 137.331 108.487 137.705 108.278 138.129C108.067 138.554 107.668 138.689 107.208 138.495C106.844 138.341 106.481 138.191 106.115 138.042C106.346 137.589 106.574 137.137 106.8 136.687ZM108.173 139.57C108.514 139.532 109.155 139.305 109.493 138.611C110.011 137.549 109.639 136.558 108.517 136.075C107.738 135.742 106.956 135.426 106.171 135.125C105.143 137.165 104.064 139.251 102.934 141.381C103.778 141.702 104.62 142.038 105.462 142.388C106.614 142.866 107.687 142.475 108.257 141.329C108.679 140.479 108.403 139.874 108.173 139.57Z" fill="#7D170F"/>
<path fill-rule="evenodd" clip-rule="evenodd" d="M78.8379 130.418C80.4589 130.459 82.0629 130.546 83.6489 130.681C83.9429 131.571 84.2369 132.49 84.5299 133.44C83.1549 134.292 81.7529 135.168 80.3209 136.072C78.6589 135.916 76.9769 135.813 75.2749 135.764C76.6769 134.813 78.0509 133.89 79.3969 132.992C79.2119 132.109 79.0249 131.251 78.8379 130.418Z" fill="#E6292B"/>
<path fill-rule="evenodd" clip-rule="evenodd" d="M84.5299 133.44C84.2369 132.49 83.9429 131.571 83.6489 130.681C82.0629 130.546 80.4589 130.459 78.8379 130.418C79.0259 131.251 79.2119 132.109 79.3969 132.992" fill="white"/>
<mask id="mask14" mask-type="alpha" maskUnits="userSpaceOnUse" x="67" y="127" width="57" height="44">
<path fill-rule="evenodd" clip-rule="evenodd" d="M67.156 138.951C82.415 138.494 99.008 141.753 110.471 151.588C115.421 155.837 120.728 164.053 119.977 170.905C123.456 165.702 126.599 156.104 119.977 143.689C115.97 136.171 108.68 130.635 100.614 128.382C97.434 127.495 93.993 127 90.529 127C81.462 127 72.239 130.387 67.156 138.951Z" fill="white"/>
</mask>
<g mask="url(#mask14)">
<path fill-rule="evenodd" clip-rule="evenodd" d="M110.455 130.332C116.491 138.258 117.564 146.462 110.748 153.764C115.64 158.454 119.674 164.086 120.483 170.987C130.09 161.413 132.83 143.466 121.545 134.069C118.847 131.823 113.565 131.709 110.455 130.332Z" fill="#C9C6C6"/>
</g>
<path fill-rule="evenodd" clip-rule="evenodd" d="M119.978 170.905C120.728 164.052 115.422 155.837 110.471 151.589C99.0086 141.753 82.4146 138.493 67.1556 138.951C74.1806 127.115 89.1086 125.169 100.614 128.382C108.681 130.636 115.97 136.172 119.978 143.689C126.6 156.105 123.457 165.701 119.978 170.905Z" stroke="#333739" stroke-width="0.693" stroke-linecap="round" stroke-linejoin="round"/>
<path fill-rule="evenodd" clip-rule="evenodd" d="M112.642 153.806C107.073 155.867 96.8913 149.175 92.2752 146.441C84.4392 141.803 75.9412 138.52 67.1562 138.95C79.5162 137.293 93.0912 140.213 103.805 146.441C106.887 148.233 110.269 151.122 112.642 153.806Z" fill="white"/>
<mask id="mask15" mask-type="alpha" maskUnits="userSpaceOnUse" x="67" y="138" width="46" height="17">
<path fill-rule="evenodd" clip-rule="evenodd" d="M67.156 138.949C75.941 138.519 84.44 141.802 92.275 146.442C96.891 149.174 107.073 155.867 112.642 153.805C110.269 151.12 106.887 148.233 103.805 146.442C95.082 141.368 84.463 138.492 74.147 138.492C71.791 138.492 69.452 138.642 67.156 138.949Z" fill="white"/>
</mask>
<g mask="url(#mask15)">
<path fill-rule="evenodd" clip-rule="evenodd" d="M91.8521 146.395C97.6571 148.938 103.945 149.694 110.215 149.907C112.411 149.982 117.791 155.748 113.637 157.666C111.804 158.513 109.552 158.286 107.663 157.76C101.783 156.122 96.4561 150.078 91.8521 146.395Z" fill="#C9C6C6"/>
</g>
<path fill-rule="evenodd" clip-rule="evenodd" d="M112.642 153.806C107.073 155.867 96.8912 149.175 92.2752 146.441C84.4392 141.803 75.9412 138.52 67.1562 138.95C79.5162 137.293 93.0912 140.213 103.805 146.441C106.887 148.233 110.269 151.122 112.642 153.806Z" stroke="#333739" stroke-width="0.693" stroke-linecap="round" stroke-linejoin="round"/>
<path fill-rule="evenodd" clip-rule="evenodd" d="M110.047 151.007C111.255 149.331 112.241 147.029 112.779 144.561C113.112 143.033 113.279 141.443 113.217 139.907C113.185 139.109 113.092 138.324 112.928 137.571C112.815 137.051 112.668 136.546 112.485 136.061C112.248 135.436 111.956 134.846 111.601 134.304C111.24 133.753 110.817 133.256 110.33 132.812C110.282 132.766 110.204 132.766 110.156 132.812C110.108 132.86 110.107 132.938 110.155 132.986C110.683 133.567 111.099 134.227 111.436 134.941C111.761 135.633 112.001 136.373 112.172 137.149C112.305 137.748 112.397 138.365 112.45 138.994C112.529 139.913 112.527 140.858 112.452 141.805C112.191 145.096 111.05 148.412 109.484 150.607C109.372 150.761 109.408 150.977 109.564 151.087C109.719 151.197 109.936 151.161 110.047 151.007Z" fill="#333739"/>
<path fill-rule="evenodd" clip-rule="evenodd" d="M111.786 194.279C114.012 191.974 115.261 187.594 114.085 180.069C113.012 173.203 113.359 169.652 117.047 163.574C118.94 160.456 121.89 158.112 123.651 154.927C124.123 154.073 124.65 151.683 126 152.512C126.561 152.856 126.815 153.562 126.967 154.166C128.263 159.331 123.212 163.308 122.096 167.937C120.943 172.712 124.325 177.345 125.396 181.853C126.174 185.128 126.234 188.442 125.663 191.622C123.88 192.769 121.919 193.678 119.65 194.195C116.834 194.837 114.074 194.962 111.786 194.279Z" fill="#E62B31"/>
<mask id="mask16" mask-type="alpha" maskUnits="userSpaceOnUse" x="111" y="152" width="17" height="43">
<path fill-rule="evenodd" clip-rule="evenodd" d="M123.651 154.926C121.889 158.112 118.94 160.456 117.048 163.574C113.36 169.65 113.012 173.202 114.085 180.068C115.26 187.594 114.012 191.973 111.786 194.279C114.074 194.961 116.834 194.835 119.65 194.194C121.919 193.676 123.88 192.768 125.663 191.622C126.234 188.441 126.174 185.126 125.397 181.854C124.325 177.345 120.944 172.711 122.096 167.936C123.213 163.308 128.263 159.33 126.967 154.164C126.815 153.562 126.561 152.856 126 152.511C125.806 152.392 125.628 152.34 125.465 152.34C124.5 152.34 124.055 154.196 123.651 154.926Z" fill="white"/>
</mask>
<g mask="url(#mask16)">
<path fill-rule="evenodd" clip-rule="evenodd" d="M125.734 152.473C126.28 158.626 120.914 163.75 119.705 169.608C119.326 171.445 119.214 173.349 119.406 175.212C120.225 183.156 124.206 194.724 111.595 194.526C114.194 199.837 126.873 200.194 128.938 194.424C130.479 190.121 128.995 184.017 129.123 179.522C129.314 172.864 131.091 166.362 130.796 159.667C130.791 159.544 130.783 159.421 130.776 159.298C130.67 157.593 130.391 155.629 129.745 154.03C129.153 152.569 126.651 150.121 125.734 152.473Z" fill="#BB1818"/>
</g>
<mask id="mask17" mask-type="alpha" maskUnits="userSpaceOnUse" x="111" y="152" width="17" height="43">
<path fill-rule="evenodd" clip-rule="evenodd" d="M123.651 154.926C121.889 158.112 118.94 160.456 117.048 163.574C113.36 169.65 113.012 173.202 114.085 180.068C115.26 187.594 114.012 191.973 111.786 194.279C114.074 194.961 116.834 194.835 119.65 194.194C121.919 193.676 123.88 192.768 125.663 191.622C126.234 188.441 126.174 185.126 125.397 181.854C124.325 177.345 120.944 172.711 122.096 167.936C123.213 163.308 128.263 159.33 126.967 154.164C126.815 153.562 126.561 152.856 126 152.511C125.806 152.392 125.628 152.34 125.465 152.34C124.5 152.34 124.055 154.196 123.651 154.926Z" fill="white"/>
</mask>
<g mask="url(#mask17)">
<path fill-rule="evenodd" clip-rule="evenodd" d="M124.709 152.688C124.26 156.907 121.484 159.796 119.096 163.075C117.668 165.034 116.475 167.319 115.751 169.635C115.306 171.052 114.926 172.535 114.899 174.03C114.788 180.163 118.255 189.15 112.148 193.562C112.249 190.846 112.599 188.155 112.581 185.433C112.542 179.786 111.501 174.729 113.407 169.154C115.613 162.703 120.782 158.08 124.709 152.688Z" fill="#F190AE"/>
</g>
<path fill-rule="evenodd" clip-rule="evenodd" d="M111.786 194.275C114.012 191.97 115.261 187.59 114.085 180.065C113.012 173.199 113.359 169.648 117.047 163.57C118.94 160.452 121.89 158.108 123.651 154.923C124.123 154.069 124.65 151.679 126 152.508C126.561 152.852 126.815 153.558 126.967 154.162C128.263 159.327 123.212 163.304 122.096 167.933C120.943 172.708 124.325 177.342 125.396 181.85C126.174 185.124 126.234 188.438 125.663 191.619C123.88 192.765 121.919 193.674 119.65 194.191C116.834 194.833 114.074 194.958 111.786 194.275Z" stroke="#333739" stroke-width="0.693" stroke-linecap="round" stroke-linejoin="round"/>
<path fill-rule="evenodd" clip-rule="evenodd" d="M91.9594 227.215L72.0394 235.798V238.346C72.0394 238.346 88.6754 229.753 91.5394 228.273C91.7954 228.142 91.9574 227.878 91.9584 227.59C91.9594 227.396 91.9594 227.215 91.9594 227.215Z" fill="#5B5959"/>
<path fill-rule="evenodd" clip-rule="evenodd" d="M91.9594 227.215L72.0394 235.798V238.346C72.0394 238.346 88.6754 229.753 91.5394 228.273C91.7954 228.142 91.9574 227.878 91.9584 227.59C91.9594 227.396 91.9594 227.215 91.9594 227.215Z" stroke="#333739" stroke-width="0.554" stroke-linecap="round" stroke-linejoin="round"/>
<path fill-rule="evenodd" clip-rule="evenodd" d="M41.9219 225.815L72.0389 238.347V235.799L41.9219 223.234V225.815Z" fill="#5B5959"/>
<path fill-rule="evenodd" clip-rule="evenodd" d="M41.9219 225.815L72.0389 238.347V235.799L41.9219 223.234V225.815Z" stroke="#333739" stroke-width="0.554" stroke-linecap="round" stroke-linejoin="round"/>
<path d="M74.4097 235.979L75.6927 235.368" stroke="#333739" stroke-width="0.554" stroke-linecap="round" stroke-linejoin="round"/>
<path d="M76.9082 234.788L78.1922 234.177" stroke="#333739" stroke-width="0.554" stroke-linecap="round" stroke-linejoin="round"/>
<path fill-rule="evenodd" clip-rule="evenodd" d="M91.9595 227.217L72.0395 235.8L41.9215 223.236L63.9465 216.328L91.9595 227.217Z" fill="#908F8F"/>
<path fill-rule="evenodd" clip-rule="evenodd" d="M91.9595 227.217L72.0395 235.8L41.9215 223.236L63.9465 216.328L91.9595 227.217Z" stroke="#333739" stroke-width="0.554" stroke-linecap="round" stroke-linejoin="round"/>
<path fill-rule="evenodd" clip-rule="evenodd" d="M79.3427 229.189L69.6637 233.049L48.5487 224.206L58.9837 220.949L79.3427 229.189Z" fill="#333739"/>
<path fill-rule="evenodd" clip-rule="evenodd" d="M79.3427 229.189L69.6637 233.049L48.5487 224.206L58.9837 220.949L79.3427 229.189Z" stroke="#333739" stroke-width="0.554" stroke-linecap="round" stroke-linejoin="round"/>
<path d="M79.3428 226.996L67.9148 231.63" stroke="#908F8F" stroke-width="0.554" stroke-linecap="round" stroke-linejoin="round"/>
<path d="M77.8691 230.739L66.4591 226.062" stroke="#908F8F" stroke-width="0.554" stroke-linecap="round" stroke-linejoin="round"/>
<path d="M75.3564 232.715L63.9454 228.039" stroke="#908F8F" stroke-width="0.554" stroke-linecap="round" stroke-linejoin="round"/>
<path d="M76.2455 225.742L64.8165 230.376" stroke="#908F8F" stroke-width="0.554" stroke-linecap="round" stroke-linejoin="round"/>
<path d="M72.6548 224.68L61.2268 229.312" stroke="#908F8F" stroke-width="0.554" stroke-linecap="round" stroke-linejoin="round"/>
<path d="M78.5336 222.928L69.7056 219.488L64.4316 221.591" stroke="#5B5959" stroke-width="0.554" stroke-linecap="round" stroke-linejoin="round"/>
<path d="M78.5337 222.93L72.6237 225.482" stroke="#C7C4C4" stroke-width="0.554" stroke-linecap="round" stroke-linejoin="round"/>
<path fill-rule="evenodd" clip-rule="evenodd" d="M34.9483 198.078C34.9483 198.078 58.8743 207.085 64.7153 209.284C65.5103 209.584 66.1023 210.262 66.2873 211.087C67.5043 216.505 72.0393 236.688 72.0393 236.688C71.2783 237.018 70.4153 237.021 69.6523 236.699C64.7773 234.644 46.4493 226.913 41.9193 225.002C41.2783 224.732 40.8023 224.177 40.6343 223.505C39.6033 219.387 35.8933 204.558 34.8323 200.32C34.6473 199.578 34.6873 198.797 34.9483 198.078Z" fill="#9B9A9A"/>
<mask id="mask18" mask-type="alpha" maskUnits="userSpaceOnUse" x="34" y="198" width="39" height="39">
<path fill-rule="evenodd" clip-rule="evenodd" d="M34.832 200.32C35.893 204.558 39.603 219.387 40.634 223.505C40.802 224.177 41.278 224.731 41.919 225.002C46.45 226.913 64.777 234.643 69.652 236.699C70.416 237.021 71.278 237.017 72.039 236.688C72.039 236.688 67.504 216.505 66.287 211.087C66.102 210.262 65.511 209.583 64.715 209.284C58.874 207.085 34.949 198.078 34.949 198.078C34.688 198.797 34.647 199.578 34.832 200.32Z" fill="white"/>
</mask>
<g mask="url(#mask18)">
<path fill-rule="evenodd" clip-rule="evenodd" d="M40.6592 223.709L41.6372 224.833C41.6372 224.833 36.2682 203.783 35.3432 200.155C35.3172 200.051 35.3502 199.942 35.4302 199.872C35.5092 199.801 35.6212 199.781 35.7212 199.818C39.3372 201.184 60.9292 209.34 64.1822 210.57C64.4242 210.66 64.6972 210.578 64.8472 210.369C64.8762 210.328 64.9062 210.286 64.9372 210.244C65.0392 210.102 65.0692 209.92 65.0182 209.751C64.9682 209.583 64.8422 209.449 64.6782 209.386C60.1692 207.661 34.9682 198.02 34.9682 198.02C34.9682 198.02 34.7632 198.791 34.6492 199.217C34.6012 199.4 34.6002 199.59 34.6462 199.772C35.3202 202.457 40.6592 223.709 40.6592 223.709Z" fill="#C7C4C4"/>
</g>
<mask id="mask19" mask-type="alpha" maskUnits="userSpaceOnUse" x="34" y="198" width="39" height="39">
<path fill-rule="evenodd" clip-rule="evenodd" d="M34.832 200.32C35.893 204.558 39.603 219.387 40.634 223.505C40.802 224.177 41.278 224.731 41.919 225.002C46.45 226.913 64.777 234.643 69.652 236.699C70.416 237.021 71.278 237.017 72.039 236.688C72.039 236.688 67.504 216.505 66.287 211.087C66.102 210.262 65.511 209.583 64.715 209.284C58.874 207.085 34.949 198.078 34.949 198.078C34.688 198.797 34.647 199.578 34.832 200.32Z" fill="white"/>
</mask>
<g mask="url(#mask19)">
<path fill-rule="evenodd" clip-rule="evenodd" d="M66.0865 210.187C66.0685 210.11 66.0085 210.051 65.9325 210.036C65.8565 210.02 65.7765 210.049 65.7305 210.112C65.5695 210.328 65.3595 210.61 65.1755 210.857C64.9065 211.219 64.8095 211.68 64.9095 212.119C65.8335 216.18 70.5105 236.738 70.5105 236.738H72.1165C72.1165 236.738 66.8655 213.618 66.0865 210.187Z" fill="#C7C4C4"/>
</g>
<path fill-rule="evenodd" clip-rule="evenodd" d="M34.9483 198.078C34.9483 198.078 58.8743 207.085 64.7153 209.284C65.5103 209.584 66.1023 210.262 66.2873 211.087C67.5043 216.505 72.0393 236.688 72.0393 236.688C71.2783 237.018 70.4153 237.021 69.6523 236.699C64.7773 234.644 46.4493 226.913 41.9193 225.002C41.2783 224.732 40.8023 224.177 40.6343 223.505C39.6033 219.387 35.8933 204.558 34.8323 200.32C34.6473 199.578 34.6873 198.797 34.9483 198.078Z" stroke="#333739" stroke-width="0.554" stroke-linecap="round" stroke-linejoin="round"/>
</svg>
