<svg width="44" height="48" viewBox="0 0 44 48" fill="none" xmlns="http://www.w3.org/2000/svg">
<path d="M23.3338 10.4C28.0805 10.4 29.8405 12.6667 30.0005 16H35.8938C35.7071 11.4133 32.9072 7.2 27.3338 5.84V0H19.3338V5.76C17.9205 6.08 16.5872 6.56 15.3871 7.2L19.3071 11.12C20.4005 10.6667 21.7338 10.4 23.3338 10.4ZM4.21382 2.82667L0.827148 6.21333L10.0005 15.3867C10.0005 20.9333 14.1605 23.9467 20.4271 25.8133L29.7872 35.1733C28.8805 36.4533 26.9872 37.6 23.3338 37.6C17.8405 37.6 15.6805 35.1467 15.3871 32H9.52048C9.84048 37.84 14.2138 41.12 19.3338 42.2133V48H27.3338V42.2667C29.8938 41.7867 32.1872 40.8 33.8672 39.28L39.7872 45.2L43.1738 41.8133L4.21382 2.82667Z" fill="#FF6666"/>
</svg>
