<svg width="554" height="213" viewBox="0 0 554 213" fill="none" xmlns="http://www.w3.org/2000/svg">
<path d="M43.6533 60.3628C43.7592 61.1007 43.5988 61.7009 43.1719 62.1634C42.745 62.6259 42.0853 62.9212 41.1928 63.0493L40.4581 63.1548L40.8377 65.7986L39.6826 65.9645L38.668 58.8983L40.7028 58.6061C41.5857 58.4793 42.2721 58.5649 42.7621 58.8629C43.2554 59.1604 43.5524 59.6604 43.6533 60.3628ZM40.3186 62.1833L40.9324 62.0952C41.5253 62.0101 41.9455 61.8445 42.193 61.5985C42.4405 61.3525 42.5328 61.0104 42.4699 60.5722C42.4116 60.1662 42.244 59.8811 41.9673 59.717C41.6905 59.5528 41.2895 59.5084 40.7642 59.5839L39.9619 59.699L40.3186 62.1833ZM50.4038 61.6874C50.5292 62.5606 50.4031 63.2742 50.0255 63.8283C49.648 64.3824 49.0597 64.7168 48.2606 64.8315C47.7611 64.9032 47.3035 64.8538 46.8877 64.6833C46.4719 64.5128 46.1305 64.2313 45.8637 63.8388C45.5969 63.4463 45.4235 62.9714 45.3434 62.4139C45.219 61.5472 45.3441 60.8386 45.7189 60.2882C46.0937 59.7378 46.6855 59.4046 47.4943 59.2884C48.2676 59.1774 48.9157 59.3392 49.4385 59.7739C49.9608 60.2053 50.2826 60.8432 50.4038 61.6874ZM46.5131 62.246C46.6903 63.4801 47.2348 64.0317 48.1467 63.9007C49.0489 63.7712 49.4114 63.0894 49.2342 61.8553C49.0588 60.6341 48.5168 60.0887 47.6082 60.2192C47.1313 60.2877 46.8076 60.4953 46.6371 60.842C46.4697 61.1884 46.4284 61.6563 46.5131 62.246ZM54.368 63.0173C54.6452 62.9776 54.916 62.8943 55.1806 62.7675L55.3035 63.623C55.1857 63.6958 55.0294 63.7643 54.8347 63.8284C54.6437 63.8953 54.4419 63.944 54.2292 63.9745C53.153 64.129 52.5335 63.6392 52.3707 62.505L51.9571 59.6244L51.2272 59.7292L51.1551 59.2265L51.8784 58.6984L52.1027 57.5119L52.8035 57.4113L52.9742 58.6003L54.4967 58.3817L54.6202 59.242L53.0977 59.4606L53.5085 62.3219C53.5479 62.5958 53.6447 62.7891 53.799 62.9017C53.956 63.0107 54.1457 63.0493 54.368 63.0173ZM59.1346 63.2702C58.3033 63.3896 57.6177 63.2414 57.0779 62.8256C56.5408 62.4061 56.2112 61.7711 56.0891 60.9204C55.9637 60.0472 56.0826 59.3296 56.4459 58.7678C56.8092 58.2059 57.3711 57.8703 58.1315 57.7611C58.8371 57.6598 59.4253 57.7941 59.8961 58.1639C60.3668 58.5337 60.6561 59.0939 60.7639 59.8447L60.852 60.4585L57.2899 60.97C57.3805 61.4864 57.5781 61.8658 57.8825 62.1082C58.1865 62.3474 58.5786 62.4325 59.0587 62.3636C59.3745 62.3183 59.6635 62.2472 59.9258 62.1503C60.1909 62.0497 60.4698 61.9078 60.7625 61.7243L60.895 62.6475C60.6369 62.8194 60.37 62.9531 60.0943 63.0486C59.8186 63.144 59.4987 63.2179 59.1346 63.2702ZM58.255 58.6215C57.8941 58.6733 57.6206 58.8293 57.4343 59.0895C57.2513 59.3493 57.1703 59.7013 57.1913 60.1455L59.6176 59.7972C59.5478 59.3567 59.3935 59.0384 59.1549 58.8425C58.9159 58.6433 58.6159 58.5696 58.255 58.6215ZM67.5882 61.9578L66.4475 62.1216L65.9756 58.835C65.9164 58.4225 65.7885 58.1268 65.5918 57.9479C65.3983 57.7685 65.1211 57.7047 64.7602 57.7565C64.2801 57.8254 63.9493 58.0176 63.7677 58.3331C63.586 58.6486 63.5431 59.1398 63.6389 59.8068L64.0212 62.4699L62.8854 62.633L62.1179 57.2874L63.0072 57.1597L63.2674 57.8377L63.3254 57.8293C63.4499 57.5517 63.6505 57.3223 63.927 57.1411C64.2036 56.96 64.5223 56.8436 64.8832 56.7917C66.1656 56.6076 66.9005 57.168 67.0878 58.473L67.5882 61.9578ZM71.4379 60.5665C71.715 60.5267 71.9859 60.4434 72.2505 60.3166L72.3733 61.1721C72.2555 61.2449 72.0993 61.3134 71.9046 61.3775C71.7136 61.4444 71.5118 61.4931 71.2991 61.5236C70.2229 61.6782 69.6034 61.1883 69.4405 60.0541L69.0269 57.1735L68.2971 57.2783L68.2249 56.7756L68.9482 56.2475L69.1725 55.0611L69.8733 54.9604L70.0441 56.1494L71.5665 55.9308L71.6901 56.7911L70.1676 57.0097L70.5784 59.871C70.6177 60.1449 70.7145 60.3382 70.8688 60.4509C71.0259 60.5598 71.2156 60.5984 71.4379 60.5665ZM74.9919 60.8948L73.8561 61.0578L73.0886 55.7123L74.2244 55.5492L74.9919 60.8948ZM72.8176 54.3058C72.7885 54.1028 72.8208 53.9387 72.9146 53.8134C73.0117 53.6877 73.1633 53.61 73.3695 53.5804C73.5693 53.5517 73.7318 53.5843 73.8571 53.6781C73.9856 53.7715 74.0645 53.9196 74.0936 54.1226C74.1214 54.316 74.0869 54.4771 73.9904 54.6061C73.8965 54.7314 73.7497 54.8084 73.55 54.837C73.3437 54.8666 73.1764 54.8348 73.0479 54.7414C72.9221 54.6444 72.8454 54.4992 72.8176 54.3058ZM80.3613 60.1238L80.0273 59.4121L79.9886 59.4177C79.7775 59.7801 79.5501 60.0397 79.3062 60.1964C79.0619 60.3499 78.7351 60.456 78.3259 60.5147C77.8007 60.5901 77.3695 60.5074 77.0323 60.2664C76.6984 60.0249 76.4942 59.6448 76.4197 59.126C76.3406 58.5751 76.4855 58.13 76.8545 57.7909C77.2235 57.4518 77.825 57.2093 78.659 57.0632L79.578 56.9017L79.5371 56.6165C79.488 56.275 79.3709 56.032 79.1858 55.8876C79.0034 55.7394 78.7446 55.6894 78.4095 55.7376C78.1356 55.7769 77.8788 55.8549 77.639 55.9715C77.3993 56.0881 77.1713 56.2179 76.955 56.3608L76.4711 55.6015C76.7393 55.4084 77.0403 55.2485 77.374 55.1216C77.7072 54.9916 78.0268 54.9046 78.3329 54.8606C79.0128 54.763 79.5464 54.8377 79.9337 55.0846C80.3243 55.3311 80.5651 55.7717 80.6563 56.4065L81.1733 60.0073L80.3613 60.1238ZM78.5586 59.5934C78.9711 59.5342 79.2849 59.3724 79.5002 59.108C79.7182 58.8399 79.7974 58.498 79.7377 58.0824L79.6711 57.6184L78.9889 57.7459C78.4568 57.842 78.0799 57.9882 77.8581 58.1845C77.6391 58.3771 77.5532 58.6377 77.6004 58.9664C77.6346 59.2048 77.7321 59.3799 77.8929 59.4917C78.0532 59.6002 78.2751 59.6341 78.5586 59.5934ZM84.2903 59.5597L83.1545 59.7228L82.0747 52.2023L83.2105 52.0392L84.2903 59.5597ZM91.7431 54.5779L94.3434 54.2045L94.8528 57.7521C94.4473 57.9517 94.0522 58.1088 93.6675 58.2232C93.2859 58.3372 92.868 58.4268 92.4136 58.492C91.3439 58.6456 90.4737 58.4483 89.803 57.9C89.1319 57.3485 88.7135 56.496 88.5479 55.3425C88.3846 54.205 88.5839 53.2688 89.146 52.5336C89.7075 51.7953 90.5619 51.3438 91.7089 51.1791C92.4468 51.0731 93.1664 51.1145 93.8676 51.3032L93.5997 52.3233C92.9883 52.1415 92.3958 52.0917 91.8222 52.1741C91.0682 52.2823 90.5061 52.6047 90.1359 53.1413C89.7657 53.6779 89.6396 54.357 89.7576 55.1787C89.8816 56.0422 90.1725 56.6713 90.6304 57.066C91.091 57.4569 91.6919 57.5992 92.433 57.4928C92.8067 57.4391 93.1996 57.3351 93.6115 57.1805L93.3499 55.3584L91.8854 55.5687L91.7431 54.5779ZM100.215 57.2733L99.8807 56.5616L99.842 56.5671C99.631 56.9296 99.4035 57.1892 99.1596 57.3459C98.9153 57.4993 98.5885 57.6054 98.1793 57.6642C97.6541 57.7396 97.2229 57.6568 96.8858 57.4158C96.5518 57.1744 96.3476 56.7943 96.2731 56.2755C96.194 55.7245 96.339 55.2795 96.7079 54.9404C97.0769 54.6013 97.6784 54.3587 98.5125 54.2127L99.4315 54.0511L99.3905 53.766C99.3415 53.4244 99.2244 53.1814 99.0392 53.037C98.8568 52.8889 98.598 52.8389 98.2629 52.887C97.9891 52.9263 97.7322 53.0043 97.4925 53.121C97.2527 53.2376 97.0247 53.3674 96.8084 53.5102L96.3245 52.751C96.5928 52.5579 96.8937 52.3979 97.2274 52.2711C97.5606 52.141 97.8803 52.054 98.1864 52.0101C98.8662 51.9125 99.3998 51.9871 99.7872 52.2341C100.178 52.4806 100.419 52.9212 100.51 53.5559L101.027 57.1567L100.215 57.2733ZM98.4121 56.7429C98.8245 56.6836 99.1383 56.5218 99.3536 56.2574C99.5716 55.9894 99.6508 55.6475 99.5911 55.2318L99.5245 54.7678L98.8423 54.8954C98.3102 54.9915 97.9333 55.1377 97.7116 55.334C97.4926 55.5266 97.4067 55.7872 97.4538 56.1158C97.4881 56.3543 97.5856 56.5294 97.7463 56.6411C97.9066 56.7497 98.1285 56.7836 98.4121 56.7429ZM104.144 56.7092L103.008 56.8722L102.24 51.5267L103.376 51.3636L104.144 56.7092ZM101.969 50.1202C101.94 49.9172 101.973 49.7531 102.066 49.6278C102.164 49.5021 102.315 49.4244 102.521 49.3948C102.721 49.3661 102.884 49.3987 103.009 49.4925C103.137 49.5859 103.216 49.734 103.245 49.937C103.273 50.1304 103.239 50.2915 103.142 50.4205C103.048 50.5458 102.902 50.6228 102.702 50.6514C102.496 50.681 102.328 50.6492 102.2 50.5558C102.074 50.4588 101.997 50.3136 101.969 50.1202ZM110.871 55.7432L109.731 55.907L109.259 52.6204C109.2 52.208 109.072 51.9123 108.875 51.7333C108.681 51.5539 108.404 51.4901 108.043 51.542C107.563 51.6109 107.232 51.8031 107.051 52.1186C106.869 52.434 106.826 52.9253 106.922 53.5923L107.304 56.2554L106.169 56.4185L105.401 51.0729L106.29 50.9452L106.55 51.6231L106.608 51.6148C106.733 51.3371 106.934 51.1077 107.21 50.9266C107.487 50.7455 107.805 50.629 108.166 50.5772C109.449 50.3931 110.184 50.9535 110.371 52.2585L110.871 55.7432ZM116.22 53.4214C116.295 53.9434 116.163 54.3718 115.823 54.7067C115.482 55.0384 114.958 55.2552 114.249 55.357C113.537 55.4592 112.949 55.4334 112.486 55.2795L112.346 54.2983C113.015 54.4981 113.621 54.5591 114.162 54.4814C114.862 54.381 115.181 54.1198 115.12 53.6977C115.101 53.5624 115.046 53.4551 114.956 53.376C114.866 53.2969 114.725 53.2217 114.534 53.1505C114.343 53.0793 114.08 53.0051 113.747 52.928C113.097 52.7779 112.646 52.5994 112.393 52.3924C112.142 52.185 111.99 51.8912 111.935 51.5109C111.87 51.0534 112.003 50.6726 112.334 50.3685C112.668 50.0608 113.152 49.8613 113.787 49.7702C114.415 49.68 115.028 49.7219 115.625 49.8959L115.381 50.8042C114.77 50.6485 114.268 50.5989 113.875 50.6554C113.275 50.7414 113 50.9552 113.049 51.2968C113.073 51.4643 113.171 51.595 113.342 51.6888C113.517 51.7821 113.881 51.8926 114.436 52.0202C114.902 52.1276 115.245 52.2378 115.465 52.3509C115.685 52.464 115.857 52.607 115.98 52.78C116.103 52.9498 116.183 53.1636 116.22 53.4214Z" fill="#7B7D7E"/>
<path d="M503 5L492.242 0.805996L493.989 12.2201L503 5ZM39.705 76.926L494.255 7.35021L493.952 5.37324L39.4024 74.949L39.705 76.926Z" fill="#C6C7C8"/>
<path d="M43.8933 151.548C43.825 152.291 43.5296 152.837 43.007 153.188C42.4844 153.539 41.7742 153.673 40.8763 153.59L40.1372 153.522L39.8927 156.182L38.7306 156.075L39.3841 148.966L41.4312 149.155C42.3194 149.236 42.9672 149.479 43.3747 149.882C43.7854 150.286 43.9582 150.842 43.8933 151.548ZM40.2271 152.545L40.8446 152.602C41.441 152.656 41.8882 152.593 42.186 152.411C42.4838 152.229 42.653 151.918 42.6936 151.477C42.7311 151.069 42.6343 150.753 42.4032 150.529C42.1721 150.305 41.7923 150.168 41.264 150.12L40.4568 150.046L40.2271 152.545ZM50.1519 154.404C50.0711 155.282 49.7828 155.947 49.2869 156.398C48.791 156.85 48.1412 157.038 47.3373 156.964C46.8348 156.918 46.4012 156.764 46.0363 156.502C45.6714 156.239 45.4047 155.886 45.2363 155.442C45.0679 154.999 45.0095 154.496 45.061 153.936C45.1412 153.064 45.4275 152.404 45.9198 151.955C46.4121 151.507 47.0651 151.32 47.8787 151.395C48.6567 151.466 49.2495 151.774 49.6571 152.318C50.065 152.859 50.23 153.554 50.1519 154.404ZM46.2377 154.044C46.1236 155.285 46.5252 155.948 47.4425 156.033C48.3502 156.116 48.8611 155.537 48.9752 154.296C49.0881 153.067 48.6876 152.411 47.7735 152.327C47.2937 152.283 46.9306 152.409 46.6842 152.707C46.4411 153.005 46.2923 153.451 46.2377 154.044ZM53.699 156.618C53.9778 156.643 54.2606 156.625 54.5474 156.563L54.4683 157.424C54.3368 157.467 54.1689 157.498 53.9647 157.515C53.7634 157.536 53.5558 157.536 53.3418 157.516C52.2591 157.417 51.7703 156.797 51.8752 155.656L52.1416 152.758L51.4074 152.69L51.4539 152.184L52.28 151.839L52.7736 150.737L53.4786 150.802L53.3687 151.998L54.9003 152.138L54.8207 153.004L53.2891 152.863L53.0245 155.742C52.9991 156.017 53.0484 156.228 53.1723 156.373C53.2998 156.516 53.4754 156.597 53.699 156.618ZM58.2767 157.97C57.4404 157.893 56.8079 157.59 56.3794 157.06C55.9543 156.528 55.7812 155.833 55.8598 154.978C55.9406 154.099 56.2229 153.429 56.7067 152.967C57.1905 152.504 57.8149 152.308 58.5799 152.379C59.2898 152.444 59.8308 152.711 60.2028 153.18C60.5748 153.649 60.7261 154.261 60.6567 155.016L60.5999 155.634L57.0164 155.305C56.9846 155.828 57.0887 156.243 57.3286 156.549C57.5687 156.852 57.9303 157.026 58.4133 157.071C58.731 157.1 59.0286 157.098 59.3063 157.065C59.5875 157.028 59.8917 156.955 60.2189 156.844L60.1336 157.773C59.8426 157.88 59.5519 157.948 59.2616 157.977C58.9713 158.006 58.643 158.004 58.2767 157.97ZM58.5003 153.244C58.1373 153.211 57.8349 153.299 57.5934 153.509C57.355 153.719 57.1945 154.043 57.1118 154.48L59.5527 154.704C59.5871 154.259 59.5109 153.914 59.3243 153.668C59.138 153.419 58.8634 153.278 58.5003 153.244ZM66.804 158.656L65.6565 158.551L65.9605 155.244C65.9986 154.829 65.9428 154.512 65.793 154.292C65.6465 154.073 65.3917 153.946 65.0286 153.913C64.5456 153.869 64.1792 153.979 63.9293 154.243C63.6794 154.508 63.5236 154.976 63.4619 155.647L63.2156 158.326L62.073 158.221L62.5674 152.843L63.462 152.926L63.5577 153.645L63.616 153.651C63.8016 153.41 64.05 153.233 64.361 153.121C64.672 153.009 65.0091 152.97 65.3721 153.003C66.6623 153.122 67.247 153.838 67.1263 155.15L66.804 158.656ZM70.8715 158.196C71.1503 158.222 71.4331 158.204 71.7199 158.142L71.6408 159.003C71.5093 159.046 71.3414 159.076 71.1372 159.094C70.9359 159.114 70.7283 159.115 70.5143 159.095C69.4316 158.996 68.9428 158.375 69.0477 157.234L69.3141 154.336L68.5799 154.269L68.6264 153.763L69.4525 153.418L69.9461 152.316L70.6511 152.38L70.5412 153.576L72.0728 153.717L71.9932 154.583L70.4616 154.442L70.197 157.32C70.1716 157.596 70.2209 157.806 70.3448 157.952C70.4723 158.094 70.6479 158.176 70.8715 158.196ZM74.2523 159.341L73.1096 159.236L73.604 153.858L74.7467 153.963L74.2523 159.341ZM73.6669 152.427C73.6857 152.223 73.7553 152.071 73.8756 151.971C73.9992 151.871 74.1647 151.831 74.3722 151.85C74.5732 151.868 74.7237 151.938 74.8238 152.058C74.9271 152.179 74.9694 152.341 74.9506 152.545C74.9327 152.74 74.8618 152.888 74.7379 152.991C74.6176 153.092 74.4569 153.132 74.256 153.114C74.0485 153.095 73.8931 153.025 73.7898 152.904C73.69 152.781 73.6491 152.622 73.6669 152.427ZM79.6539 159.837L79.4942 159.068L79.4553 159.064C79.1659 159.368 78.8844 159.567 78.6108 159.663C78.3375 159.756 77.995 159.783 77.5833 159.745C77.055 159.697 76.6548 159.516 76.3828 159.203C76.114 158.891 76.0036 158.474 76.0516 157.952C76.1026 157.398 76.3469 156.998 76.7845 156.754C77.2221 156.51 77.8635 156.414 78.7087 156.465L79.64 156.521L79.6664 156.235C79.698 155.891 79.6405 155.627 79.4939 155.444C79.3509 155.258 79.1108 155.149 78.7737 155.118C78.4982 155.093 78.2302 155.109 77.97 155.167C77.7097 155.224 77.4578 155.298 77.2142 155.386L76.9198 154.536C77.2255 154.41 77.5554 154.324 77.9094 154.278C78.2637 154.229 78.5948 154.219 78.9028 154.247C79.5867 154.31 80.0884 154.507 80.4079 154.837C80.7305 155.167 80.8625 155.652 80.8038 156.29L80.4708 159.913L79.6539 159.837ZM78.0236 158.903C78.4385 158.941 78.7814 158.857 79.0521 158.649C79.3264 158.439 79.4828 158.125 79.5212 157.707L79.5641 157.24L78.871 157.206C78.3311 157.176 77.9306 157.231 77.6693 157.37C77.4116 157.506 77.2675 157.74 77.2371 158.071C77.2151 158.311 77.2693 158.504 77.3997 158.65C77.5304 158.792 77.7384 158.877 78.0236 158.903ZM83.6066 160.201L82.4639 160.096L83.1595 152.53L84.3021 152.635L83.6066 160.201ZM88.7501 160.674L89.4037 153.565L90.5658 153.672L90.0038 159.784L93.0136 160.061L92.922 161.057L88.7501 160.674ZM99.442 158.935C99.3613 159.814 99.073 160.479 98.5771 160.93C98.0812 161.381 97.4313 161.57 96.6274 161.496C96.125 161.45 95.6913 161.296 95.3265 161.033C94.9616 160.771 94.6949 160.418 94.5265 159.974C94.3581 159.53 94.2997 159.028 94.3512 158.467C94.4314 157.595 94.7176 156.935 95.21 156.487C95.7023 156.038 96.3553 155.852 97.1689 155.927C97.9469 155.998 98.5397 156.306 98.9473 156.85C99.3552 157.391 99.5201 158.086 99.442 158.935ZM95.5279 158.575C95.4137 159.817 95.8154 160.48 96.7327 160.564C97.6403 160.648 98.1512 160.069 98.2654 158.827C98.3783 157.599 97.9777 156.942 97.0636 156.858C96.5839 156.814 96.2208 156.941 95.9744 157.239C95.7313 157.537 95.5824 157.982 95.5279 158.575ZM104.663 160.592C104.615 161.117 104.387 161.503 103.978 161.75C103.57 161.994 103.01 162.083 102.296 162.017C101.58 161.951 101.015 161.79 100.6 161.533L100.691 160.546C101.296 160.896 101.871 161.096 102.416 161.146C103.119 161.21 103.49 161.03 103.53 160.606C103.542 160.47 103.514 160.352 103.444 160.255C103.375 160.157 103.255 160.051 103.086 159.937C102.917 159.824 102.679 159.691 102.372 159.538C101.775 159.241 101.378 158.963 101.179 158.703C100.984 158.443 100.904 158.122 100.939 157.739C100.982 157.279 101.199 156.939 101.592 156.721C101.988 156.499 102.506 156.417 103.144 156.476C103.776 156.534 104.363 156.717 104.903 157.025L104.455 157.852C103.896 157.558 103.419 157.394 103.024 157.357C102.421 157.302 102.104 157.446 102.072 157.79C102.057 157.958 102.121 158.108 102.266 158.239C102.414 158.37 102.743 158.562 103.253 158.815C103.681 159.028 103.989 159.214 104.177 159.376C104.365 159.537 104.499 159.716 104.579 159.913C104.659 160.106 104.687 160.333 104.663 160.592ZM109.914 161.075C109.866 161.6 109.638 161.986 109.229 162.233C108.821 162.477 108.261 162.566 107.547 162.5C106.831 162.434 106.266 162.273 105.851 162.016L105.942 161.028C106.547 161.378 107.122 161.578 107.667 161.628C108.37 161.693 108.741 161.513 108.78 161.088C108.793 160.952 108.764 160.835 108.695 160.737C108.626 160.639 108.506 160.534 108.337 160.42C108.167 160.306 107.93 160.173 107.623 160.021C107.026 159.724 106.628 159.446 106.43 159.186C106.235 158.926 106.155 158.605 106.19 158.222C106.233 157.762 106.45 157.422 106.843 157.203C107.239 156.981 107.757 156.9 108.395 156.959C109.027 157.017 109.614 157.2 110.154 157.508L109.705 158.334C109.147 158.041 108.67 157.876 108.275 157.84C107.672 157.785 107.355 157.929 107.323 158.272C107.308 158.441 107.372 158.591 107.517 158.722C107.665 158.853 107.994 159.045 108.504 159.298C108.932 159.51 109.24 159.697 109.428 159.858C109.616 160.019 109.75 160.198 109.83 160.395C109.91 160.589 109.938 160.816 109.914 161.075ZM113.751 163.07C112.915 162.993 112.283 162.69 111.854 162.16C111.429 161.628 111.256 160.934 111.334 160.078C111.415 159.199 111.698 158.529 112.181 158.067C112.665 157.605 113.29 157.409 114.055 157.479C114.764 157.544 115.305 157.811 115.677 158.28C116.049 158.749 116.201 159.361 116.131 160.117L116.075 160.734L112.491 160.405C112.459 160.928 112.563 161.343 112.803 161.649C113.043 161.953 113.405 162.126 113.888 162.171C114.206 162.2 114.503 162.198 114.781 162.165C115.062 162.128 115.366 162.055 115.694 161.945L115.608 162.873C115.317 162.981 115.027 163.049 114.736 163.078C114.446 163.106 114.118 163.104 113.751 163.07ZM113.975 158.344C113.612 158.311 113.31 158.399 113.068 158.609C112.83 158.819 112.669 159.143 112.586 159.58L115.027 159.804C115.062 159.36 114.986 159.014 114.799 158.768C114.613 158.519 114.338 158.378 113.975 158.344ZM121.301 162.122C121.253 162.647 121.024 163.033 120.616 163.28C120.208 163.523 119.647 163.612 118.934 163.547C118.218 163.481 117.652 163.32 117.238 163.062L117.329 162.075C117.934 162.425 118.509 162.625 119.053 162.675C119.757 162.74 120.128 162.56 120.167 162.135C120.18 161.999 120.151 161.882 120.082 161.784C120.012 161.686 119.893 161.58 119.724 161.467C119.554 161.353 119.316 161.22 119.01 161.068C118.413 160.771 118.015 160.493 117.817 160.232C117.622 159.973 117.542 159.651 117.577 159.269C117.619 158.809 117.837 158.469 118.23 158.25C118.626 158.028 119.143 157.947 119.782 158.006C120.414 158.064 121 158.247 121.541 158.555L121.092 159.381C120.534 159.088 120.057 158.923 119.662 158.887C119.059 158.831 118.741 158.976 118.71 159.319C118.694 159.488 118.759 159.637 118.904 159.768C119.052 159.9 119.381 160.092 119.891 160.345C120.319 160.557 120.627 160.744 120.815 160.905C121.003 161.066 121.137 161.245 121.216 161.442C121.297 161.636 121.325 161.863 121.301 162.122Z" fill="#7B7D7E"/>
<path d="M507.253 178.588L497.762 172.012L496.812 183.519L507.253 178.588ZM39.9177 140.997L498.201 178.844L498.366 176.851L40.0823 139.003L39.9177 140.997Z" fill="#C6C7C8"/>
<rect x="0.5" y="110.816" width="553" height="2" rx="1" fill="#DDDEDE"/>
<path d="M476.51 26.3184C476.51 26.7708 476.378 27.1484 476.114 27.4512C475.851 27.7507 475.479 27.9525 475.001 28.0566V28.0957C475.574 28.1673 476.004 28.3464 476.29 28.6328C476.576 28.916 476.72 29.2936 476.72 29.7656C476.72 30.4525 476.477 30.9831 475.992 31.3574C475.507 31.7285 474.817 31.9141 473.922 31.9141C473.131 31.9141 472.464 31.7855 471.92 31.5283V30.5078C472.223 30.6576 472.543 30.7731 472.882 30.8545C473.22 30.9359 473.546 30.9766 473.858 30.9766C474.412 30.9766 474.825 30.874 475.099 30.6689C475.372 30.4639 475.509 30.1465 475.509 29.7168C475.509 29.3359 475.357 29.056 475.055 28.877C474.752 28.6979 474.277 28.6084 473.629 28.6084H473.009V27.6758H473.639C474.778 27.6758 475.348 27.2819 475.348 26.4941C475.348 26.1882 475.248 25.9521 475.05 25.7861C474.851 25.6201 474.558 25.5371 474.171 25.5371C473.901 25.5371 473.64 25.5762 473.39 25.6543C473.139 25.7292 472.843 25.8773 472.501 26.0986L471.939 25.2979C472.594 24.8161 473.354 24.5752 474.22 24.5752C474.939 24.5752 475.501 24.7298 475.904 25.0391C476.308 25.3483 476.51 25.7747 476.51 26.3184ZM480.474 27.3584C481.194 27.3584 481.763 27.5488 482.183 27.9297C482.603 28.3105 482.813 28.8298 482.813 29.4873C482.813 30.249 482.574 30.8447 482.095 31.2744C481.62 31.7008 480.943 31.9141 480.064 31.9141C479.267 31.9141 478.64 31.7855 478.184 31.5283V30.4883C478.448 30.638 478.751 30.7536 479.092 30.835C479.434 30.9163 479.752 30.957 480.045 30.957C480.562 30.957 480.956 30.8415 481.226 30.6104C481.496 30.3792 481.631 30.0407 481.631 29.5947C481.631 28.7419 481.088 28.3154 480.001 28.3154C479.848 28.3154 479.659 28.3317 479.434 28.3643C479.21 28.3936 479.013 28.4277 478.843 28.4668L478.331 28.1641L478.604 24.6777H482.315V25.6982H479.615L479.454 27.4658C479.568 27.4463 479.706 27.4235 479.869 27.3975C480.035 27.3714 480.237 27.3584 480.474 27.3584ZM484.375 31.2061C484.375 30.9684 484.437 30.7861 484.561 30.6592C484.684 30.5322 484.863 30.4688 485.098 30.4688C485.335 30.4688 485.516 30.5355 485.64 30.6689C485.764 30.7992 485.825 30.9782 485.825 31.2061C485.825 31.4372 485.762 31.6211 485.635 31.7578C485.511 31.8913 485.332 31.958 485.098 31.958C484.863 31.958 484.684 31.8913 484.561 31.7578C484.437 31.6243 484.375 31.4404 484.375 31.2061ZM490.688 31.8164H489.541V27.207C489.541 26.6569 489.554 26.2207 489.58 25.8984C489.505 25.9766 489.412 26.0628 489.302 26.1572C489.194 26.2516 488.83 26.5511 488.208 27.0557L487.632 26.3281L489.731 24.6777H490.688V31.8164ZM494.355 26.8164C494.355 27.3014 494.402 27.6628 494.496 27.9004C494.591 28.138 494.746 28.2568 494.96 28.2568C495.39 28.2568 495.605 27.7767 495.605 26.8164C495.605 25.8561 495.39 25.376 494.96 25.376C494.746 25.376 494.591 25.4948 494.496 25.7324C494.402 25.9701 494.355 26.3314 494.355 26.8164ZM496.552 26.8066C496.552 27.5553 496.417 28.1185 496.147 28.4961C495.88 28.8704 495.484 29.0576 494.96 29.0576C494.466 29.0576 494.081 28.8639 493.808 28.4766C493.538 28.0859 493.403 27.5293 493.403 26.8066C493.403 25.319 493.922 24.5752 494.96 24.5752C495.471 24.5752 495.864 24.7689 496.137 25.1562C496.414 25.5404 496.552 26.0905 496.552 26.8066ZM499.003 29.668C499.003 30.153 499.051 30.516 499.145 30.7568C499.243 30.9977 499.399 31.1182 499.614 31.1182C500.04 31.1182 500.253 30.6348 500.253 29.668C500.253 28.7142 500.04 28.2373 499.614 28.2373C499.399 28.2373 499.243 28.3545 499.145 28.5889C499.051 28.8232 499.003 29.1829 499.003 29.668ZM501.201 29.668C501.201 30.4167 501.065 30.9782 500.795 31.3525C500.525 31.7269 500.131 31.9141 499.614 31.9141C499.119 31.9141 498.735 31.722 498.461 31.3379C498.188 30.9505 498.051 30.3939 498.051 29.668C498.051 28.1803 498.572 27.4365 499.614 27.4365C500.115 27.4365 500.504 27.6286 500.781 28.0127C501.061 28.3968 501.201 28.9486 501.201 29.668ZM499.75 24.6777L495.79 31.8164H494.843L498.803 24.6777H499.75Z" fill="#575A5C"/>
<path d="M466.852 163.624V162.647H469.361V163.624H466.852ZM475.401 165.816H470.562V164.947L472.403 163.097C472.947 162.54 473.306 162.146 473.482 161.915C473.661 161.681 473.791 161.461 473.873 161.256C473.954 161.051 473.995 160.831 473.995 160.597C473.995 160.274 473.897 160.021 473.702 159.835C473.51 159.649 473.243 159.557 472.901 159.557C472.628 159.557 472.362 159.607 472.105 159.708C471.851 159.809 471.557 159.991 471.221 160.255L470.601 159.498C470.998 159.163 471.384 158.925 471.758 158.785C472.133 158.645 472.532 158.575 472.955 158.575C473.619 158.575 474.151 158.749 474.551 159.098C474.952 159.443 475.152 159.908 475.152 160.494C475.152 160.816 475.093 161.122 474.976 161.412C474.862 161.702 474.685 162.001 474.444 162.311C474.206 162.617 473.809 163.032 473.253 163.556L472.012 164.757V164.806H475.401V165.816ZM481.514 165.816H476.675V164.947L478.516 163.097C479.059 162.54 479.419 162.146 479.595 161.915C479.774 161.681 479.904 161.461 479.986 161.256C480.067 161.051 480.108 160.831 480.108 160.597C480.108 160.274 480.01 160.021 479.815 159.835C479.623 159.649 479.356 159.557 479.014 159.557C478.74 159.557 478.475 159.607 478.218 159.708C477.964 159.809 477.669 159.991 477.334 160.255L476.714 159.498C477.111 159.163 477.497 158.925 477.871 158.785C478.246 158.645 478.644 158.575 479.068 158.575C479.732 158.575 480.264 158.749 480.664 159.098C481.065 159.443 481.265 159.908 481.265 160.494C481.265 160.816 481.206 161.122 481.089 161.412C480.975 161.702 480.798 162.001 480.557 162.311C480.319 162.617 479.922 163.032 479.365 163.556L478.125 164.757V164.806H481.514V165.816ZM482.998 165.206C482.998 164.968 483.06 164.786 483.183 164.659C483.307 164.532 483.486 164.469 483.721 164.469C483.958 164.469 484.139 164.535 484.262 164.669C484.386 164.799 484.448 164.978 484.448 165.206C484.448 165.437 484.385 165.621 484.258 165.758C484.134 165.891 483.955 165.958 483.721 165.958C483.486 165.958 483.307 165.891 483.183 165.758C483.06 165.624 482.998 165.44 482.998 165.206ZM486.752 165.816L489.575 159.698H485.864V158.688H490.8V159.488L487.993 165.816H486.752ZM496.894 162.247C496.894 163.487 496.693 164.409 496.293 165.011C495.896 165.613 495.287 165.914 494.467 165.914C493.673 165.914 493.07 165.603 492.66 164.981C492.25 164.36 492.045 163.448 492.045 162.247C492.045 160.987 492.243 160.06 492.641 159.464C493.041 158.865 493.65 158.565 494.467 158.565C495.264 158.565 495.868 158.878 496.278 159.503C496.688 160.128 496.894 161.043 496.894 162.247ZM493.207 162.247C493.207 163.22 493.306 163.915 493.505 164.332C493.707 164.749 494.027 164.957 494.467 164.957C494.906 164.957 495.227 164.745 495.429 164.322C495.634 163.899 495.736 163.207 495.736 162.247C495.736 161.29 495.634 160.598 495.429 160.172C495.227 159.742 494.906 159.527 494.467 159.527C494.027 159.527 493.707 159.737 493.505 160.157C493.306 160.577 493.207 161.274 493.207 162.247ZM499.09 160.816C499.09 161.301 499.138 161.663 499.232 161.9C499.326 162.138 499.481 162.257 499.696 162.257C500.126 162.257 500.34 161.777 500.34 160.816C500.34 159.856 500.126 159.376 499.696 159.376C499.481 159.376 499.326 159.495 499.232 159.732C499.138 159.97 499.09 160.331 499.09 160.816ZM501.288 160.807C501.288 161.555 501.153 162.118 500.882 162.496C500.615 162.87 500.22 163.058 499.696 163.058C499.201 163.058 498.817 162.864 498.544 162.477C498.273 162.086 498.138 161.529 498.138 160.807C498.138 159.319 498.657 158.575 499.696 158.575C500.207 158.575 500.599 158.769 500.873 159.156C501.149 159.54 501.288 160.09 501.288 160.807ZM503.739 163.668C503.739 164.153 503.786 164.516 503.88 164.757C503.978 164.998 504.134 165.118 504.349 165.118C504.776 165.118 504.989 164.635 504.989 163.668C504.989 162.714 504.776 162.237 504.349 162.237C504.134 162.237 503.978 162.354 503.88 162.589C503.786 162.823 503.739 163.183 503.739 163.668ZM505.936 163.668C505.936 164.417 505.801 164.978 505.531 165.353C505.261 165.727 504.867 165.914 504.349 165.914C503.854 165.914 503.47 165.722 503.197 165.338C502.923 164.951 502.787 164.394 502.787 163.668C502.787 162.18 503.308 161.437 504.349 161.437C504.851 161.437 505.24 161.629 505.516 162.013C505.796 162.397 505.936 162.949 505.936 163.668ZM504.486 158.678L500.526 165.816H499.579L503.539 158.678H504.486Z" fill="#575A5C"/>
<path d="M471.5 37.8164C471.5 36.7118 472.395 35.8164 473.5 35.8164H501.5C502.605 35.8164 503.5 36.7118 503.5 37.8164V109.816H471.5V37.8164Z" fill="#72CAA5"/>
<path d="M471.5 113.816H503.5V151.816C503.5 152.921 502.605 153.816 501.5 153.816H473.5C472.395 153.816 471.5 152.921 471.5 151.816V113.816Z" fill="#FF896E"/>
<path d="M368.51 43.8301C368.51 44.2826 368.378 44.6602 368.114 44.9629C367.851 45.2624 367.479 45.4642 367.001 45.5684V45.6074C367.574 45.679 368.004 45.8581 368.29 46.1445C368.576 46.4277 368.72 46.8053 368.72 47.2773C368.72 47.9642 368.477 48.4948 367.992 48.8691C367.507 49.2402 366.817 49.4258 365.922 49.4258C365.131 49.4258 364.464 49.2972 363.92 49.04V48.0195C364.223 48.1693 364.543 48.2848 364.882 48.3662C365.22 48.4476 365.546 48.4883 365.858 48.4883C366.412 48.4883 366.825 48.3857 367.099 48.1807C367.372 47.9756 367.509 47.6582 367.509 47.2285C367.509 46.8477 367.357 46.5677 367.055 46.3887C366.752 46.2096 366.277 46.1201 365.629 46.1201H365.009V45.1875H365.639C366.778 45.1875 367.348 44.7936 367.348 44.0059C367.348 43.6999 367.248 43.4639 367.05 43.2979C366.851 43.1318 366.558 43.0488 366.171 43.0488C365.901 43.0488 365.64 43.0879 365.39 43.166C365.139 43.2409 364.843 43.389 364.501 43.6104L363.939 42.8096C364.594 42.3278 365.354 42.0869 366.22 42.0869C366.939 42.0869 367.501 42.2415 367.904 42.5508C368.308 42.86 368.51 43.2865 368.51 43.8301ZM374.891 49.3281H370.052V48.459L371.893 46.6084C372.437 46.0518 372.796 45.6579 372.972 45.4268C373.151 45.1924 373.282 44.9727 373.363 44.7676C373.444 44.5625 373.485 44.3428 373.485 44.1084C373.485 43.7861 373.387 43.5322 373.192 43.3467C373 43.1611 372.733 43.0684 372.391 43.0684C372.118 43.0684 371.852 43.1188 371.595 43.2197C371.341 43.3206 371.047 43.5029 370.712 43.7666L370.091 43.0098C370.489 42.6745 370.874 42.4368 371.249 42.2969C371.623 42.1569 372.022 42.0869 372.445 42.0869C373.109 42.0869 373.641 42.2611 374.042 42.6094C374.442 42.9544 374.642 43.4199 374.642 44.0059C374.642 44.3281 374.584 44.6341 374.466 44.9238C374.352 45.2135 374.175 45.513 373.934 45.8223C373.697 46.1283 373.299 46.5433 372.743 47.0674L371.503 48.2686V48.3174H374.891V49.3281ZM376.375 48.7178C376.375 48.4801 376.437 48.2979 376.561 48.1709C376.684 48.0439 376.863 47.9805 377.098 47.9805C377.335 47.9805 377.516 48.0472 377.64 48.1807C377.764 48.3109 377.825 48.4899 377.825 48.7178C377.825 48.9489 377.762 49.1328 377.635 49.2695C377.511 49.403 377.332 49.4697 377.098 49.4697C376.863 49.4697 376.684 49.403 376.561 49.2695C376.437 49.1361 376.375 48.9521 376.375 48.7178ZM384.158 45.7588C384.158 46.999 383.958 47.9202 383.557 48.5225C383.16 49.1247 382.552 49.4258 381.731 49.4258C380.937 49.4258 380.335 49.1149 379.925 48.4932C379.514 47.8714 379.309 46.96 379.309 45.7588C379.309 44.499 379.508 43.5713 379.905 42.9756C380.305 42.3766 380.914 42.0771 381.731 42.0771C382.529 42.0771 383.133 42.3896 383.543 43.0146C383.953 43.6396 384.158 44.5544 384.158 45.7588ZM380.471 45.7588C380.471 46.7321 380.571 47.4271 380.769 47.8438C380.971 48.2604 381.292 48.4688 381.731 48.4688C382.171 48.4688 382.491 48.2572 382.693 47.834C382.898 47.4108 383.001 46.7191 383.001 45.7588C383.001 44.8018 382.898 44.11 382.693 43.6836C382.491 43.2539 382.171 43.0391 381.731 43.0391C381.292 43.0391 380.971 43.249 380.769 43.6689C380.571 44.0889 380.471 44.7855 380.471 45.7588ZM386.355 44.3281C386.355 44.8132 386.402 45.1745 386.496 45.4121C386.591 45.6497 386.746 45.7686 386.96 45.7686C387.39 45.7686 387.605 45.2884 387.605 44.3281C387.605 43.3678 387.39 42.8877 386.96 42.8877C386.746 42.8877 386.591 43.0065 386.496 43.2441C386.402 43.4818 386.355 43.8431 386.355 44.3281ZM388.552 44.3184C388.552 45.0671 388.417 45.6302 388.147 46.0078C387.88 46.3822 387.484 46.5693 386.96 46.5693C386.466 46.5693 386.081 46.3757 385.808 45.9883C385.538 45.5977 385.403 45.041 385.403 44.3184C385.403 42.8307 385.922 42.0869 386.96 42.0869C387.471 42.0869 387.864 42.2806 388.137 42.668C388.414 43.0521 388.552 43.6022 388.552 44.3184ZM391.003 47.1797C391.003 47.6647 391.051 48.0277 391.145 48.2686C391.243 48.5094 391.399 48.6299 391.614 48.6299C392.04 48.6299 392.253 48.1465 392.253 47.1797C392.253 46.2259 392.04 45.749 391.614 45.749C391.399 45.749 391.243 45.8662 391.145 46.1006C391.051 46.335 391.003 46.6947 391.003 47.1797ZM393.201 47.1797C393.201 47.9284 393.065 48.4899 392.795 48.8643C392.525 49.2386 392.131 49.4258 391.614 49.4258C391.119 49.4258 390.735 49.2337 390.461 48.8496C390.188 48.4622 390.051 47.9056 390.051 47.1797C390.051 45.6921 390.572 44.9482 391.614 44.9482C392.115 44.9482 392.504 45.1403 392.781 45.5244C393.061 45.9085 393.201 46.4603 393.201 47.1797ZM391.75 42.1895L387.79 49.3281H386.843L390.803 42.1895H391.75Z" fill="#575A5C"/>
<path d="M361.852 153.624V152.647H364.361V153.624H361.852ZM370.401 155.816H365.562V154.947L367.403 153.097C367.947 152.54 368.306 152.146 368.482 151.915C368.661 151.681 368.791 151.461 368.873 151.256C368.954 151.051 368.995 150.831 368.995 150.597C368.995 150.274 368.897 150.021 368.702 149.835C368.51 149.649 368.243 149.557 367.901 149.557C367.628 149.557 367.362 149.607 367.105 149.708C366.851 149.809 366.557 149.991 366.221 150.255L365.601 149.498C365.998 149.163 366.384 148.925 366.758 148.785C367.133 148.645 367.532 148.575 367.955 148.575C368.619 148.575 369.151 148.749 369.551 149.098C369.952 149.443 370.152 149.908 370.152 150.494C370.152 150.816 370.093 151.122 369.976 151.412C369.862 151.702 369.685 152.001 369.444 152.311C369.206 152.617 368.809 153.032 368.253 153.556L367.012 154.757V154.806H370.401V155.816ZM376.514 152.247C376.514 153.487 376.314 154.409 375.913 155.011C375.516 155.613 374.907 155.914 374.087 155.914C373.293 155.914 372.691 155.603 372.28 154.981C371.87 154.36 371.665 153.448 371.665 152.247C371.665 150.987 371.864 150.06 372.261 149.464C372.661 148.865 373.27 148.565 374.087 148.565C374.885 148.565 375.488 148.878 375.899 149.503C376.309 150.128 376.514 151.043 376.514 152.247ZM372.827 152.247C372.827 153.22 372.927 153.915 373.125 154.332C373.327 154.749 373.648 154.957 374.087 154.957C374.527 154.957 374.847 154.745 375.049 154.322C375.254 153.899 375.357 153.207 375.357 152.247C375.357 151.29 375.254 150.598 375.049 150.172C374.847 149.742 374.527 149.527 374.087 149.527C373.648 149.527 373.327 149.737 373.125 150.157C372.927 150.577 372.827 151.274 372.827 152.247ZM377.998 155.206C377.998 154.968 378.06 154.786 378.183 154.659C378.307 154.532 378.486 154.469 378.721 154.469C378.958 154.469 379.139 154.535 379.262 154.669C379.386 154.799 379.448 154.978 379.448 155.206C379.448 155.437 379.385 155.621 379.258 155.758C379.134 155.891 378.955 155.958 378.721 155.958C378.486 155.958 378.307 155.891 378.183 155.758C378.06 155.624 377.998 155.44 377.998 155.206ZM384.311 155.816H383.163V151.207C383.163 150.657 383.176 150.221 383.203 149.898C383.128 149.977 383.035 150.063 382.924 150.157C382.817 150.252 382.452 150.551 381.83 151.056L381.254 150.328L383.354 148.678H384.311V155.816ZM387.978 150.816C387.978 151.301 388.025 151.663 388.119 151.9C388.214 152.138 388.368 152.257 388.583 152.257C389.013 152.257 389.228 151.777 389.228 150.816C389.228 149.856 389.013 149.376 388.583 149.376C388.368 149.376 388.214 149.495 388.119 149.732C388.025 149.97 387.978 150.331 387.978 150.816ZM390.175 150.807C390.175 151.555 390.04 152.118 389.77 152.496C389.503 152.87 389.107 153.058 388.583 153.058C388.088 153.058 387.704 152.864 387.431 152.477C387.16 152.086 387.025 151.529 387.025 150.807C387.025 149.319 387.545 148.575 388.583 148.575C389.094 148.575 389.486 148.769 389.76 149.156C390.036 149.54 390.175 150.09 390.175 150.807ZM392.626 153.668C392.626 154.153 392.673 154.516 392.768 154.757C392.865 154.998 393.021 155.118 393.236 155.118C393.663 155.118 393.876 154.635 393.876 153.668C393.876 152.714 393.663 152.237 393.236 152.237C393.021 152.237 392.865 152.354 392.768 152.589C392.673 152.823 392.626 153.183 392.626 153.668ZM394.823 153.668C394.823 154.417 394.688 154.978 394.418 155.353C394.148 155.727 393.754 155.914 393.236 155.914C392.742 155.914 392.357 155.722 392.084 155.338C391.811 154.951 391.674 154.394 391.674 153.668C391.674 152.18 392.195 151.437 393.236 151.437C393.738 151.437 394.127 151.629 394.403 152.013C394.683 152.397 394.823 152.949 394.823 153.668ZM393.373 148.678L389.413 155.816H388.466L392.426 148.678H393.373Z" fill="#575A5C"/>
<path d="M363.5 55.8164C363.5 54.7118 364.395 53.8164 365.5 53.8164H393.499C394.604 53.8164 395.499 54.7118 395.499 55.8164V109.816H363.5V55.8164Z" fill="#72CAA5"/>
<path d="M363.5 113.816H395.499V141.816C395.499 142.921 394.604 143.816 393.499 143.816H365.5C364.395 143.816 363.5 142.921 363.5 141.816V113.816Z" fill="#FF896E"/>
<path d="M260.778 66.0469H255.939V65.1777L257.78 63.3271C258.324 62.7705 258.684 62.3766 258.859 62.1455C259.038 61.9111 259.169 61.6914 259.25 61.4863C259.331 61.2812 259.372 61.0615 259.372 60.8271C259.372 60.5049 259.274 60.251 259.079 60.0654C258.887 59.8799 258.62 59.7871 258.278 59.7871C258.005 59.7871 257.74 59.8376 257.482 59.9385C257.229 60.0394 256.934 60.2217 256.599 60.4854L255.979 59.7285C256.376 59.3932 256.761 59.1556 257.136 59.0156C257.51 58.8757 257.909 58.8057 258.332 58.8057C258.996 58.8057 259.528 58.9798 259.929 59.3281C260.329 59.6732 260.529 60.1387 260.529 60.7246C260.529 61.0469 260.471 61.3529 260.354 61.6426C260.24 61.9323 260.062 62.2318 259.821 62.541C259.584 62.847 259.187 63.262 258.63 63.7861L257.39 64.9873V65.0361H260.778V66.0469ZM266.881 61.9551C266.881 63.3613 266.598 64.4111 266.032 65.1045C265.465 65.7979 264.613 66.1445 263.473 66.1445C263.04 66.1445 262.729 66.1185 262.541 66.0664V65.1045C262.83 65.1859 263.122 65.2266 263.415 65.2266C264.189 65.2266 264.767 65.0182 265.148 64.6016C265.529 64.1849 265.737 63.5306 265.773 62.6387H265.714C265.522 62.9316 265.29 63.1432 265.016 63.2734C264.746 63.4036 264.429 63.4688 264.064 63.4688C263.433 63.4688 262.936 63.2718 262.575 62.8779C262.213 62.484 262.033 61.9437 262.033 61.2568C262.033 60.5114 262.241 59.9189 262.658 59.4795C263.078 59.0368 263.649 58.8154 264.372 58.8154C264.879 58.8154 265.322 58.9391 265.7 59.1865C266.077 59.4339 266.369 59.7936 266.574 60.2656C266.779 60.7344 266.881 61.2975 266.881 61.9551ZM264.391 59.7676C263.994 59.7676 263.69 59.8978 263.478 60.1582C263.267 60.4154 263.161 60.7783 263.161 61.2471C263.161 61.654 263.258 61.9746 263.454 62.209C263.652 62.4401 263.952 62.5557 264.352 62.5557C264.74 62.5557 265.065 62.4401 265.329 62.209C265.592 61.9779 265.724 61.7077 265.724 61.3984C265.724 61.1087 265.667 60.8385 265.553 60.5879C265.443 60.334 265.286 60.1338 265.085 59.9873C264.883 59.8408 264.652 59.7676 264.391 59.7676ZM268.375 65.4365C268.375 65.1989 268.437 65.0166 268.561 64.8896C268.684 64.7627 268.863 64.6992 269.098 64.6992C269.335 64.6992 269.516 64.766 269.64 64.8994C269.764 65.0296 269.825 65.2087 269.825 65.4365C269.825 65.6676 269.762 65.8516 269.635 65.9883C269.511 66.1217 269.332 66.1885 269.098 66.1885C268.863 66.1885 268.684 66.1217 268.561 65.9883C268.437 65.8548 268.375 65.6709 268.375 65.4365ZM274.688 66.0469H273.541V61.4375C273.541 60.8874 273.554 60.4512 273.58 60.1289C273.505 60.207 273.412 60.2933 273.302 60.3877C273.194 60.4821 272.83 60.7816 272.208 61.2861L271.632 60.5586L273.731 58.9082H274.688V66.0469ZM278.355 61.0469C278.355 61.5319 278.402 61.8932 278.496 62.1309C278.591 62.3685 278.746 62.4873 278.96 62.4873C279.39 62.4873 279.605 62.0072 279.605 61.0469C279.605 60.0866 279.39 59.6064 278.96 59.6064C278.746 59.6064 278.591 59.7253 278.496 59.9629C278.402 60.2005 278.355 60.5618 278.355 61.0469ZM280.552 61.0371C280.552 61.7858 280.417 62.349 280.147 62.7266C279.88 63.1009 279.484 63.2881 278.96 63.2881C278.466 63.2881 278.081 63.0944 277.808 62.707C277.538 62.3164 277.403 61.7598 277.403 61.0371C277.403 59.5495 277.922 58.8057 278.96 58.8057C279.471 58.8057 279.864 58.9993 280.137 59.3867C280.414 59.7708 280.552 60.321 280.552 61.0371ZM283.003 63.8984C283.003 64.3835 283.051 64.7464 283.145 64.9873C283.243 65.2282 283.399 65.3486 283.614 65.3486C284.04 65.3486 284.253 64.8652 284.253 63.8984C284.253 62.9447 284.04 62.4678 283.614 62.4678C283.399 62.4678 283.243 62.585 283.145 62.8193C283.051 63.0537 283.003 63.4134 283.003 63.8984ZM285.201 63.8984C285.201 64.6471 285.065 65.2087 284.795 65.583C284.525 65.9574 284.131 66.1445 283.614 66.1445C283.119 66.1445 282.735 65.9525 282.461 65.5684C282.188 65.181 282.051 64.6243 282.051 63.8984C282.051 62.4108 282.572 61.667 283.614 61.667C284.115 61.667 284.504 61.859 284.781 62.2432C285.061 62.6273 285.201 63.179 285.201 63.8984ZM283.75 58.9082L279.79 66.0469H278.843L282.803 58.9082H283.75Z" fill="#575A5C"/>
<path d="M253.852 143.624V142.647H256.361V143.624H253.852ZM260.931 145.816H259.784V141.207C259.784 140.657 259.797 140.221 259.823 139.898C259.748 139.977 259.655 140.063 259.545 140.157C259.437 140.252 259.073 140.551 258.451 141.056L257.875 140.328L259.974 138.678H260.931V145.816ZM264.486 145.816L267.308 139.698H263.597V138.688H268.533V139.488L265.726 145.816H264.486ZM269.998 145.206C269.998 144.968 270.06 144.786 270.183 144.659C270.307 144.532 270.486 144.469 270.721 144.469C270.958 144.469 271.139 144.535 271.262 144.669C271.386 144.799 271.448 144.978 271.448 145.206C271.448 145.437 271.385 145.621 271.258 145.758C271.134 145.891 270.955 145.958 270.721 145.958C270.486 145.958 270.307 145.891 270.183 145.758C270.06 145.624 269.998 145.44 269.998 145.206ZM275.364 141.358C276.083 141.358 276.653 141.549 277.073 141.93C277.493 142.311 277.703 142.83 277.703 143.487C277.703 144.249 277.463 144.845 276.985 145.274C276.51 145.701 275.832 145.914 274.954 145.914C274.156 145.914 273.529 145.785 273.074 145.528V144.488C273.337 144.638 273.64 144.754 273.982 144.835C274.324 144.916 274.641 144.957 274.934 144.957C275.452 144.957 275.845 144.841 276.116 144.61C276.386 144.379 276.521 144.041 276.521 143.595C276.521 142.742 275.977 142.315 274.89 142.315C274.737 142.315 274.548 142.332 274.324 142.364C274.099 142.394 273.902 142.428 273.733 142.467L273.22 142.164L273.494 138.678H277.204V139.698H274.504L274.343 141.466C274.457 141.446 274.595 141.424 274.758 141.397C274.924 141.371 275.126 141.358 275.364 141.358ZM279.978 140.816C279.978 141.301 280.025 141.663 280.119 141.9C280.214 142.138 280.368 142.257 280.583 142.257C281.013 142.257 281.228 141.777 281.228 140.816C281.228 139.856 281.013 139.376 280.583 139.376C280.368 139.376 280.214 139.495 280.119 139.732C280.025 139.97 279.978 140.331 279.978 140.816ZM282.175 140.807C282.175 141.555 282.04 142.118 281.77 142.496C281.503 142.87 281.107 143.058 280.583 143.058C280.088 143.058 279.704 142.864 279.431 142.477C279.16 142.086 279.025 141.529 279.025 140.807C279.025 139.319 279.545 138.575 280.583 138.575C281.094 138.575 281.486 138.769 281.76 139.156C282.036 139.54 282.175 140.09 282.175 140.807ZM284.626 143.668C284.626 144.153 284.673 144.516 284.768 144.757C284.865 144.998 285.021 145.118 285.236 145.118C285.663 145.118 285.876 144.635 285.876 143.668C285.876 142.714 285.663 142.237 285.236 142.237C285.021 142.237 284.865 142.354 284.768 142.589C284.673 142.823 284.626 143.183 284.626 143.668ZM286.823 143.668C286.823 144.417 286.688 144.978 286.418 145.353C286.148 145.727 285.754 145.914 285.236 145.914C284.742 145.914 284.357 145.722 284.084 145.338C283.811 144.951 283.674 144.394 283.674 143.668C283.674 142.18 284.195 141.437 285.236 141.437C285.738 141.437 286.127 141.629 286.403 142.013C286.683 142.397 286.823 142.949 286.823 143.668ZM285.373 138.678L281.413 145.816H280.466L284.426 138.678H285.373Z" fill="#575A5C"/>
<path d="M255.5 71.8164C255.5 70.7118 256.395 69.8164 257.5 69.8164H285.5C286.605 69.8164 287.5 70.7118 287.5 71.8164V109.816H255.5V71.8164Z" fill="#72CAA5"/>
<path d="M255.5 113.816H287.5V131.816C287.5 132.921 286.605 133.816 285.5 133.816H257.5C256.395 133.816 255.5 132.921 255.5 131.816V113.816Z" fill="#FF896E"/>
<path d="M151.309 83.8164H150.161V79.207C150.161 78.6569 150.174 78.2207 150.2 77.8984C150.125 77.9766 150.033 78.0628 149.922 78.1572C149.814 78.2516 149.45 78.5511 148.828 79.0557L148.252 78.3281L150.352 76.6777H151.309V83.8164ZM158.881 79.7246C158.881 81.1309 158.598 82.1807 158.032 82.874C157.465 83.5674 156.613 83.9141 155.473 83.9141C155.04 83.9141 154.729 83.888 154.541 83.8359V82.874C154.83 82.9554 155.122 82.9961 155.415 82.9961C156.189 82.9961 156.767 82.7878 157.148 82.3711C157.529 81.9544 157.737 81.3001 157.773 80.4082H157.714C157.522 80.7012 157.29 80.9128 157.016 81.043C156.746 81.1732 156.429 81.2383 156.064 81.2383C155.433 81.2383 154.936 81.0413 154.575 80.6475C154.213 80.2536 154.033 79.7132 154.033 79.0264C154.033 78.2809 154.241 77.6885 154.658 77.249C155.078 76.8063 155.649 76.585 156.372 76.585C156.879 76.585 157.322 76.7087 157.7 76.9561C158.077 77.2035 158.369 77.5632 158.574 78.0352C158.779 78.5039 158.881 79.0671 158.881 79.7246ZM156.391 77.5371C155.994 77.5371 155.69 77.6673 155.478 77.9277C155.267 78.1849 155.161 78.5479 155.161 79.0166C155.161 79.4235 155.258 79.7441 155.454 79.9785C155.652 80.2096 155.952 80.3252 156.352 80.3252C156.74 80.3252 157.065 80.2096 157.329 79.9785C157.592 79.7474 157.724 79.4772 157.724 79.168C157.724 78.8783 157.667 78.6081 157.553 78.3574C157.443 78.1035 157.286 77.9033 157.085 77.7568C156.883 77.6104 156.652 77.5371 156.391 77.5371ZM160.375 83.2061C160.375 82.9684 160.437 82.7861 160.561 82.6592C160.684 82.5322 160.863 82.4688 161.098 82.4688C161.335 82.4688 161.516 82.5355 161.64 82.6689C161.764 82.7992 161.825 82.9782 161.825 83.2061C161.825 83.4372 161.762 83.6211 161.635 83.7578C161.511 83.8913 161.332 83.958 161.098 83.958C160.863 83.958 160.684 83.8913 160.561 83.7578C160.437 83.6243 160.375 83.4404 160.375 83.2061ZM168.148 79.7246C168.148 81.1309 167.865 82.1807 167.299 82.874C166.732 83.5674 165.879 83.9141 164.74 83.9141C164.307 83.9141 163.996 83.888 163.807 83.8359V82.874C164.097 82.9554 164.388 82.9961 164.681 82.9961C165.456 82.9961 166.034 82.7878 166.415 82.3711C166.796 81.9544 167.004 81.3001 167.04 80.4082H166.981C166.789 80.7012 166.556 80.9128 166.283 81.043C166.013 81.1732 165.695 81.2383 165.331 81.2383C164.699 81.2383 164.203 81.0413 163.842 80.6475C163.48 80.2536 163.3 79.7132 163.3 79.0264C163.3 78.2809 163.508 77.6885 163.925 77.249C164.345 76.8063 164.916 76.585 165.638 76.585C166.146 76.585 166.589 76.7087 166.967 76.9561C167.344 77.2035 167.636 77.5632 167.841 78.0352C168.046 78.5039 168.148 79.0671 168.148 79.7246ZM165.658 77.5371C165.261 77.5371 164.957 77.6673 164.745 77.9277C164.533 78.1849 164.428 78.5479 164.428 79.0166C164.428 79.4235 164.525 79.7441 164.721 79.9785C164.919 80.2096 165.219 80.3252 165.619 80.3252C166.006 80.3252 166.332 80.2096 166.596 79.9785C166.859 79.7474 166.991 79.4772 166.991 79.168C166.991 78.8783 166.934 78.6081 166.82 78.3574C166.709 78.1035 166.553 77.9033 166.351 77.7568C166.15 77.6104 165.918 77.5371 165.658 77.5371ZM170.355 78.8164C170.355 79.3014 170.402 79.6628 170.496 79.9004C170.591 80.138 170.746 80.2568 170.96 80.2568C171.39 80.2568 171.605 79.7767 171.605 78.8164C171.605 77.8561 171.39 77.376 170.96 77.376C170.746 77.376 170.591 77.4948 170.496 77.7324C170.402 77.9701 170.355 78.3314 170.355 78.8164ZM172.552 78.8066C172.552 79.5553 172.417 80.1185 172.147 80.4961C171.88 80.8704 171.484 81.0576 170.96 81.0576C170.466 81.0576 170.081 80.8639 169.808 80.4766C169.538 80.0859 169.403 79.5293 169.403 78.8066C169.403 77.319 169.922 76.5752 170.96 76.5752C171.471 76.5752 171.864 76.7689 172.137 77.1562C172.414 77.5404 172.552 78.0905 172.552 78.8066ZM175.003 81.668C175.003 82.153 175.051 82.516 175.145 82.7568C175.243 82.9977 175.399 83.1182 175.614 83.1182C176.04 83.1182 176.253 82.6348 176.253 81.668C176.253 80.7142 176.04 80.2373 175.614 80.2373C175.399 80.2373 175.243 80.3545 175.145 80.5889C175.051 80.8232 175.003 81.1829 175.003 81.668ZM177.201 81.668C177.201 82.4167 177.065 82.9782 176.795 83.3525C176.525 83.7269 176.131 83.9141 175.614 83.9141C175.119 83.9141 174.735 83.722 174.461 83.3379C174.188 82.9505 174.051 82.3939 174.051 81.668C174.051 80.1803 174.572 79.4365 175.614 79.4365C176.115 79.4365 176.504 79.6286 176.781 80.0127C177.061 80.3968 177.201 80.9486 177.201 81.668ZM175.75 76.6777L171.79 83.8164H170.843L174.803 76.6777H175.75Z" fill="#575A5C"/>
<path d="M148.852 131.624V130.647H151.361V131.624H148.852ZM157.391 129.725C157.391 131.131 157.108 132.181 156.542 132.874C155.975 133.567 155.122 133.914 153.983 133.914C153.55 133.914 153.239 133.888 153.05 133.836V132.874C153.34 132.955 153.631 132.996 153.924 132.996C154.699 132.996 155.277 132.788 155.658 132.371C156.039 131.954 156.247 131.3 156.283 130.408H156.224C156.032 130.701 155.799 130.913 155.526 131.043C155.256 131.173 154.938 131.238 154.574 131.238C153.942 131.238 153.446 131.041 153.085 130.647C152.723 130.254 152.543 129.713 152.543 129.026C152.543 128.281 152.751 127.688 153.168 127.249C153.588 126.806 154.159 126.585 154.881 126.585C155.389 126.585 155.832 126.709 156.21 126.956C156.587 127.203 156.879 127.563 157.084 128.035C157.289 128.504 157.391 129.067 157.391 129.725ZM154.901 127.537C154.504 127.537 154.199 127.667 153.988 127.928C153.776 128.185 153.671 128.548 153.671 129.017C153.671 129.424 153.768 129.744 153.963 129.979C154.162 130.21 154.462 130.325 154.862 130.325C155.249 130.325 155.575 130.21 155.838 129.979C156.102 129.747 156.234 129.477 156.234 129.168C156.234 128.878 156.177 128.608 156.063 128.357C155.952 128.104 155.796 127.903 155.594 127.757C155.393 127.61 155.161 127.537 154.901 127.537ZM158.885 133.206C158.885 132.968 158.947 132.786 159.071 132.659C159.194 132.532 159.373 132.469 159.608 132.469C159.845 132.469 160.026 132.535 160.15 132.669C160.273 132.799 160.335 132.978 160.335 133.206C160.335 133.437 160.272 133.621 160.145 133.758C160.021 133.891 159.842 133.958 159.608 133.958C159.373 133.958 159.194 133.891 159.071 133.758C158.947 133.624 158.885 133.44 158.885 133.206ZM166.668 130.247C166.668 131.487 166.468 132.409 166.067 133.011C165.67 133.613 165.061 133.914 164.241 133.914C163.447 133.914 162.845 133.603 162.434 132.981C162.024 132.36 161.819 131.448 161.819 130.247C161.819 128.987 162.018 128.06 162.415 127.464C162.815 126.865 163.424 126.565 164.241 126.565C165.039 126.565 165.642 126.878 166.053 127.503C166.463 128.128 166.668 129.043 166.668 130.247ZM162.981 130.247C162.981 131.22 163.081 131.915 163.279 132.332C163.481 132.749 163.802 132.957 164.241 132.957C164.68 132.957 165.001 132.745 165.203 132.322C165.408 131.899 165.511 131.207 165.511 130.247C165.511 129.29 165.408 128.598 165.203 128.172C165.001 127.742 164.68 127.527 164.241 127.527C163.802 127.527 163.481 127.737 163.279 128.157C163.081 128.577 162.981 129.274 162.981 130.247ZM168.865 128.816C168.865 129.301 168.912 129.663 169.006 129.9C169.101 130.138 169.255 130.257 169.47 130.257C169.9 130.257 170.115 129.777 170.115 128.816C170.115 127.856 169.9 127.376 169.47 127.376C169.255 127.376 169.101 127.495 169.006 127.732C168.912 127.97 168.865 128.331 168.865 128.816ZM171.062 128.807C171.062 129.555 170.927 130.118 170.657 130.496C170.39 130.87 169.994 131.058 169.47 131.058C168.975 131.058 168.591 130.864 168.318 130.477C168.048 130.086 167.913 129.529 167.913 128.807C167.913 127.319 168.432 126.575 169.47 126.575C169.981 126.575 170.373 126.769 170.647 127.156C170.924 127.54 171.062 128.09 171.062 128.807ZM173.513 131.668C173.513 132.153 173.56 132.516 173.655 132.757C173.752 132.998 173.909 133.118 174.123 133.118C174.55 133.118 174.763 132.635 174.763 131.668C174.763 130.714 174.55 130.237 174.123 130.237C173.909 130.237 173.752 130.354 173.655 130.589C173.56 130.823 173.513 131.183 173.513 131.668ZM175.71 131.668C175.71 132.417 175.575 132.978 175.305 133.353C175.035 133.727 174.641 133.914 174.123 133.914C173.629 133.914 173.245 133.722 172.971 133.338C172.698 132.951 172.561 132.394 172.561 131.668C172.561 130.18 173.082 129.437 174.123 129.437C174.625 129.437 175.014 129.629 175.29 130.013C175.57 130.397 175.71 130.949 175.71 131.668ZM174.26 126.678L170.3 133.816H169.353L173.313 126.678H174.26Z" fill="#575A5C"/>
<path d="M147.5 89.9727C147.5 88.8681 148.395 87.9727 149.5 87.9727H177.5C178.605 87.9727 179.5 88.8681 179.5 89.9727V109.973H147.5V89.9727Z" fill="#72CAA5"/>
<path d="M147.5 113.816H179.5V119.816C179.5 120.921 178.605 121.816 177.5 121.816H149.5C148.395 121.816 147.5 120.921 147.5 119.816V113.816Z" fill="#FF896E"/>
<path d="M43.3086 95.8164H42.1611V91.207C42.1611 90.6569 42.1742 90.2207 42.2002 89.8984C42.1253 89.9766 42.0326 90.0628 41.9219 90.1572C41.8145 90.2516 41.4499 90.5511 40.8281 91.0557L40.252 90.3281L42.3516 88.6777H43.3086V95.8164ZM46.8629 95.8164L49.6852 89.6982H45.9742V88.6875H50.9107V89.4883L48.1031 95.8164H46.8629ZM52.3752 95.2061C52.3752 94.9684 52.437 94.7861 52.5607 94.6592C52.6844 94.5322 52.8635 94.4688 53.0979 94.4688C53.3355 94.4688 53.5161 94.5355 53.6398 94.6689C53.7635 94.7992 53.8254 94.9782 53.8254 95.2061C53.8254 95.4372 53.7619 95.6211 53.635 95.7578C53.5113 95.8913 53.3322 95.958 53.0979 95.958C52.8635 95.958 52.6844 95.8913 52.5607 95.7578C52.437 95.6243 52.3752 95.4404 52.3752 95.2061ZM56.1297 95.8164L58.952 89.6982H55.241V88.6875H60.1775V89.4883L57.3699 95.8164H56.1297ZM62.3549 90.8164C62.3549 91.3014 62.4021 91.6628 62.4965 91.9004C62.5909 92.138 62.7455 92.2568 62.9604 92.2568C63.39 92.2568 63.6049 91.7767 63.6049 90.8164C63.6049 89.8561 63.39 89.376 62.9604 89.376C62.7455 89.376 62.5909 89.4948 62.4965 89.7324C62.4021 89.9701 62.3549 90.3314 62.3549 90.8164ZM64.5521 90.8066C64.5521 91.5553 64.4171 92.1185 64.1469 92.4961C63.8799 92.8704 63.4844 93.0576 62.9604 93.0576C62.4656 93.0576 62.0814 92.8639 61.808 92.4766C61.5378 92.0859 61.4027 91.5293 61.4027 90.8066C61.4027 89.319 61.9219 88.5752 62.9604 88.5752C63.4714 88.5752 63.8637 88.7689 64.1371 89.1562C64.4138 89.5404 64.5521 90.0905 64.5521 90.8066ZM67.0033 93.668C67.0033 94.153 67.0505 94.516 67.1449 94.7568C67.2426 94.9977 67.3988 95.1182 67.6137 95.1182C68.0401 95.1182 68.2533 94.6348 68.2533 93.668C68.2533 92.7142 68.0401 92.2373 67.6137 92.2373C67.3988 92.2373 67.2426 92.3545 67.1449 92.5889C67.0505 92.8232 67.0033 93.1829 67.0033 93.668ZM69.2006 93.668C69.2006 94.4167 69.0655 94.9782 68.7953 95.3525C68.5251 95.7269 68.1313 95.9141 67.6137 95.9141C67.1189 95.9141 66.7348 95.722 66.4613 95.3379C66.1879 94.9505 66.0512 94.3939 66.0512 93.668C66.0512 92.1803 66.572 91.4365 67.6137 91.4365C68.115 91.4365 68.504 91.6286 68.7807 92.0127C69.0606 92.3968 69.2006 92.9486 69.2006 93.668ZM67.7504 88.6777L63.7904 95.8164H62.8432L66.8031 88.6777H67.7504Z" fill="#575A5C"/>
<path d="M40.8516 125.624V124.647H43.3613V125.624H40.8516ZM45.3727 127.816L48.1949 121.698H44.484V120.688H49.4205V121.488L46.6129 127.816H45.3727ZM50.885 127.206C50.885 126.968 50.9468 126.786 51.0705 126.659C51.1942 126.532 51.3732 126.469 51.6076 126.469C51.8452 126.469 52.0259 126.535 52.1496 126.669C52.2733 126.799 52.3352 126.978 52.3352 127.206C52.3352 127.437 52.2717 127.621 52.1447 127.758C52.021 127.891 51.842 127.958 51.6076 127.958C51.3732 127.958 51.1942 127.891 51.0705 127.758C50.9468 127.624 50.885 127.44 50.885 127.206ZM58.6678 124.247C58.6678 125.487 58.4676 126.409 58.0672 127.011C57.6701 127.613 57.0613 127.914 56.241 127.914C55.4467 127.914 54.8445 127.603 54.4344 126.981C54.0242 126.36 53.8191 125.448 53.8191 124.247C53.8191 122.987 54.0177 122.06 54.4148 121.464C54.8152 120.865 55.424 120.565 56.241 120.565C57.0385 120.565 57.6424 120.878 58.0525 121.503C58.4627 122.128 58.6678 123.043 58.6678 124.247ZM54.9812 124.247C54.9812 125.22 55.0805 125.915 55.2791 126.332C55.4809 126.749 55.8016 126.957 56.241 126.957C56.6805 126.957 57.0011 126.745 57.2029 126.322C57.408 125.899 57.5105 125.207 57.5105 124.247C57.5105 123.29 57.408 122.598 57.2029 122.172C57.0011 121.742 56.6805 121.527 56.241 121.527C55.8016 121.527 55.4809 121.737 55.2791 122.157C55.0805 122.577 54.9812 123.274 54.9812 124.247ZM60.8646 122.816C60.8646 123.301 60.9118 123.663 61.0063 123.9C61.1007 124.138 61.2553 124.257 61.4701 124.257C61.8998 124.257 62.1146 123.777 62.1146 122.816C62.1146 121.856 61.8998 121.376 61.4701 121.376C61.2553 121.376 61.1007 121.495 61.0063 121.732C60.9118 121.97 60.8646 122.331 60.8646 122.816ZM63.0619 122.807C63.0619 123.555 62.9268 124.118 62.6566 124.496C62.3897 124.87 61.9942 125.058 61.4701 125.058C60.9753 125.058 60.5912 124.864 60.3178 124.477C60.0476 124.086 59.9125 123.529 59.9125 122.807C59.9125 121.319 60.4317 120.575 61.4701 120.575C61.9812 120.575 62.3734 120.769 62.6469 121.156C62.9236 121.54 63.0619 122.09 63.0619 122.807ZM65.5131 125.668C65.5131 126.153 65.5603 126.516 65.6547 126.757C65.7523 126.998 65.9086 127.118 66.1234 127.118C66.5499 127.118 66.7631 126.635 66.7631 125.668C66.7631 124.714 66.5499 124.237 66.1234 124.237C65.9086 124.237 65.7523 124.354 65.6547 124.589C65.5603 124.823 65.5131 125.183 65.5131 125.668ZM67.7104 125.668C67.7104 126.417 67.5753 126.978 67.3051 127.353C67.0349 127.727 66.641 127.914 66.1234 127.914C65.6286 127.914 65.2445 127.722 64.9711 127.338C64.6977 126.951 64.5609 126.394 64.5609 125.668C64.5609 124.18 65.0818 123.437 66.1234 123.437C66.6247 123.437 67.0137 123.629 67.2904 124.013C67.5704 124.397 67.7104 124.949 67.7104 125.668ZM66.2602 120.678L62.3002 127.816H61.3529L65.3129 120.678H66.2602Z" fill="#575A5C"/>
<path d="M39.5 101.816C39.5 100.712 40.3954 99.8164 41.5 99.8164H69.5C70.6046 99.8164 71.5 100.712 71.5 101.816V109.816H39.5V101.816Z" fill="#72CAA5"/>
<path d="M39.5 113.816H71.5V113.816C71.5 114.59 70.8732 115.216 70.1 115.216H40.9C40.1268 115.216 39.5 114.59 39.5 113.816V113.816Z" fill="#FF896E"/>
<rect x="456" y="199" width="68" height="13" fill="#F6F6F6"/>
<path d="M468.669 204.02C468.669 204.765 468.425 205.336 467.937 205.733C467.448 206.131 466.753 206.329 465.852 206.329H465.109V209H463.942V201.861H465.998C466.89 201.861 467.557 202.044 468 202.408C468.446 202.773 468.669 203.31 468.669 204.02ZM465.109 205.348H465.729C466.328 205.348 466.768 205.243 467.048 205.035C467.328 204.827 467.468 204.501 467.468 204.059C467.468 203.648 467.342 203.342 467.092 203.141C466.841 202.939 466.451 202.838 465.92 202.838H465.109V205.348ZM475.163 206.29C475.163 207.172 474.936 207.861 474.484 208.355C474.032 208.85 473.402 209.098 472.594 209.098C472.09 209.098 471.644 208.984 471.256 208.756C470.869 208.528 470.571 208.201 470.363 207.774C470.155 207.348 470.05 206.853 470.05 206.29C470.05 205.414 470.275 204.731 470.724 204.239C471.173 203.748 471.807 203.502 472.624 203.502C473.405 203.502 474.023 203.754 474.479 204.259C474.935 204.76 475.163 205.437 475.163 206.29ZM471.232 206.29C471.232 207.537 471.693 208.16 472.614 208.16C473.525 208.16 473.981 207.537 473.981 206.29C473.981 205.056 473.522 204.439 472.604 204.439C472.122 204.439 471.772 204.599 471.554 204.918C471.339 205.237 471.232 205.694 471.232 206.29ZM479.625 203.502C479.856 203.502 480.047 203.518 480.196 203.551L480.084 204.62C479.921 204.581 479.752 204.562 479.576 204.562C479.117 204.562 478.745 204.711 478.458 205.011C478.175 205.31 478.033 205.699 478.033 206.178V209H476.886V203.6H477.784L477.936 204.552H477.994C478.173 204.229 478.406 203.974 478.693 203.785C478.982 203.596 479.293 203.502 479.625 203.502ZM483.614 208.17C483.894 208.17 484.174 208.126 484.454 208.038V208.902C484.327 208.958 484.163 209.003 483.961 209.039C483.762 209.078 483.555 209.098 483.341 209.098C482.253 209.098 481.71 208.525 481.71 207.379V204.469H480.972V203.961L481.763 203.541L482.154 202.398H482.862V203.6H484.4V204.469H482.862V207.359C482.862 207.636 482.93 207.841 483.067 207.975C483.207 208.105 483.389 208.17 483.614 208.17ZM488.648 204.469H487.329V209H486.177V204.469H485.288V203.932L486.177 203.58V203.229C486.177 202.59 486.327 202.118 486.626 201.812C486.926 201.503 487.383 201.349 487.998 201.349C488.402 201.349 488.799 201.415 489.19 201.549L488.887 202.418C488.604 202.327 488.334 202.281 488.077 202.281C487.816 202.281 487.626 202.363 487.505 202.525C487.388 202.685 487.329 202.926 487.329 203.248V203.6H488.648V204.469ZM494.761 206.29C494.761 207.172 494.535 207.861 494.082 208.355C493.63 208.85 493 209.098 492.192 209.098C491.688 209.098 491.242 208.984 490.854 208.756C490.467 208.528 490.169 208.201 489.961 207.774C489.753 207.348 489.648 206.853 489.648 206.29C489.648 205.414 489.873 204.731 490.322 204.239C490.771 203.748 491.405 203.502 492.222 203.502C493.003 203.502 493.621 203.754 494.077 204.259C494.533 204.76 494.761 205.437 494.761 206.29ZM490.83 206.29C490.83 207.537 491.291 208.16 492.212 208.16C493.123 208.16 493.579 207.537 493.579 206.29C493.579 205.056 493.12 204.439 492.202 204.439C491.72 204.439 491.37 204.599 491.152 204.918C490.938 205.237 490.83 205.694 490.83 206.29ZM497.631 209H496.484V201.402H497.631V209ZM500.824 209H499.677V203.6H500.824V209ZM499.609 202.169C499.609 201.964 499.664 201.806 499.775 201.695C499.889 201.585 500.05 201.529 500.258 201.529C500.46 201.529 500.616 201.585 500.727 201.695C500.841 201.806 500.898 201.964 500.898 202.169C500.898 202.364 500.841 202.519 500.727 202.633C500.616 202.743 500.46 202.799 500.258 202.799C500.05 202.799 499.889 202.743 499.775 202.633C499.664 202.519 499.609 202.364 499.609 202.169ZM507.66 206.29C507.66 207.172 507.434 207.861 506.981 208.355C506.529 208.85 505.899 209.098 505.092 209.098C504.587 209.098 504.141 208.984 503.754 208.756C503.366 208.528 503.068 208.201 502.86 207.774C502.652 207.348 502.548 206.853 502.548 206.29C502.548 205.414 502.772 204.731 503.221 204.239C503.671 203.748 504.304 203.502 505.121 203.502C505.902 203.502 506.521 203.754 506.976 204.259C507.432 204.76 507.66 205.437 507.66 206.29ZM503.729 206.29C503.729 207.537 504.19 208.16 505.111 208.16C506.023 208.16 506.478 207.537 506.478 206.29C506.478 205.056 506.019 204.439 505.101 204.439C504.62 204.439 504.27 204.599 504.052 204.918C503.837 205.237 503.729 205.694 503.729 206.29ZM516.541 209H512.503V201.861H516.541V202.848H513.67V204.791H516.36V205.768H513.67V208.009H516.541V209Z" fill="#7B7D7E"/>
<rect x="348" y="199" width="68" height="13" fill="#F6F6F6"/>
<path d="M359.669 204.02C359.669 204.765 359.425 205.336 358.937 205.733C358.448 206.131 357.753 206.329 356.852 206.329H356.109V209H354.942V201.861H356.998C357.89 201.861 358.557 202.044 359 202.408C359.446 202.773 359.669 203.31 359.669 204.02ZM356.109 205.348H356.729C357.328 205.348 357.768 205.243 358.048 205.035C358.328 204.827 358.468 204.501 358.468 204.059C358.468 203.648 358.342 203.342 358.092 203.141C357.841 202.939 357.451 202.838 356.92 202.838H356.109V205.348ZM366.163 206.29C366.163 207.172 365.936 207.861 365.484 208.355C365.032 208.85 364.402 209.098 363.594 209.098C363.09 209.098 362.644 208.984 362.256 208.756C361.869 208.528 361.571 208.201 361.363 207.774C361.155 207.348 361.05 206.853 361.05 206.29C361.05 205.414 361.275 204.731 361.724 204.239C362.173 203.748 362.807 203.502 363.624 203.502C364.405 203.502 365.023 203.754 365.479 204.259C365.935 204.76 366.163 205.437 366.163 206.29ZM362.232 206.29C362.232 207.537 362.693 208.16 363.614 208.16C364.525 208.16 364.981 207.537 364.981 206.29C364.981 205.056 364.522 204.439 363.604 204.439C363.122 204.439 362.772 204.599 362.554 204.918C362.339 205.237 362.232 205.694 362.232 206.29ZM370.625 203.502C370.856 203.502 371.047 203.518 371.196 203.551L371.084 204.62C370.921 204.581 370.752 204.562 370.576 204.562C370.117 204.562 369.745 204.711 369.458 205.011C369.175 205.31 369.033 205.699 369.033 206.178V209H367.886V203.6H368.784L368.936 204.552H368.994C369.173 204.229 369.406 203.974 369.693 203.785C369.982 203.596 370.293 203.502 370.625 203.502ZM374.614 208.17C374.894 208.17 375.174 208.126 375.454 208.038V208.902C375.327 208.958 375.163 209.003 374.961 209.039C374.762 209.078 374.555 209.098 374.341 209.098C373.253 209.098 372.71 208.525 372.71 207.379V204.469H371.972V203.961L372.763 203.541L373.154 202.398H373.862V203.6H375.4V204.469H373.862V207.359C373.862 207.636 373.93 207.841 374.067 207.975C374.207 208.105 374.389 208.17 374.614 208.17ZM379.648 204.469H378.329V209H377.177V204.469H376.288V203.932L377.177 203.58V203.229C377.177 202.59 377.327 202.118 377.626 201.812C377.926 201.503 378.383 201.349 378.998 201.349C379.402 201.349 379.799 201.415 380.19 201.549L379.887 202.418C379.604 202.327 379.334 202.281 379.077 202.281C378.816 202.281 378.626 202.363 378.505 202.525C378.388 202.685 378.329 202.926 378.329 203.248V203.6H379.648V204.469ZM385.761 206.29C385.761 207.172 385.535 207.861 385.082 208.355C384.63 208.85 384 209.098 383.192 209.098C382.688 209.098 382.242 208.984 381.854 208.756C381.467 208.528 381.169 208.201 380.961 207.774C380.753 207.348 380.648 206.853 380.648 206.29C380.648 205.414 380.873 204.731 381.322 204.239C381.771 203.748 382.405 203.502 383.222 203.502C384.003 203.502 384.621 203.754 385.077 204.259C385.533 204.76 385.761 205.437 385.761 206.29ZM381.83 206.29C381.83 207.537 382.291 208.16 383.212 208.16C384.123 208.16 384.579 207.537 384.579 206.29C384.579 205.056 384.12 204.439 383.202 204.439C382.72 204.439 382.37 204.599 382.152 204.918C381.938 205.237 381.83 205.694 381.83 206.29ZM388.631 209H387.484V201.402H388.631V209ZM391.824 209H390.677V203.6H391.824V209ZM390.609 202.169C390.609 201.964 390.664 201.806 390.775 201.695C390.889 201.585 391.05 201.529 391.258 201.529C391.46 201.529 391.616 201.585 391.727 201.695C391.841 201.806 391.898 201.964 391.898 202.169C391.898 202.364 391.841 202.519 391.727 202.633C391.616 202.743 391.46 202.799 391.258 202.799C391.05 202.799 390.889 202.743 390.775 202.633C390.664 202.519 390.609 202.364 390.609 202.169ZM398.66 206.29C398.66 207.172 398.434 207.861 397.981 208.355C397.529 208.85 396.899 209.098 396.092 209.098C395.587 209.098 395.141 208.984 394.754 208.756C394.366 208.528 394.068 208.201 393.86 207.774C393.652 207.348 393.548 206.853 393.548 206.29C393.548 205.414 393.772 204.731 394.221 204.239C394.671 203.748 395.304 203.502 396.121 203.502C396.902 203.502 397.521 203.754 397.976 204.259C398.432 204.76 398.66 205.437 398.66 206.29ZM394.729 206.29C394.729 207.537 395.19 208.16 396.111 208.16C397.023 208.16 397.478 207.537 397.478 206.29C397.478 205.056 397.019 204.439 396.101 204.439C395.62 204.439 395.27 204.599 395.052 204.918C394.837 205.237 394.729 205.694 394.729 206.29ZM409.309 205.362C409.309 206.541 408.981 207.442 408.327 208.067C407.673 208.689 406.73 209 405.5 209H403.503V201.861H405.71C406.846 201.861 407.73 202.167 408.361 202.779C408.993 203.391 409.309 204.252 409.309 205.362ZM408.078 205.401C408.078 203.692 407.279 202.838 405.681 202.838H404.67V208.019H405.5C407.219 208.019 408.078 207.146 408.078 205.401Z" fill="#7B7D7E"/>
<rect x="240" y="199" width="68" height="13" fill="#F6F6F6"/>
<path d="M251.669 204.02C251.669 204.765 251.425 205.336 250.937 205.733C250.448 206.131 249.753 206.329 248.852 206.329H248.109V209H246.942V201.861H248.998C249.89 201.861 250.557 202.044 251 202.408C251.446 202.773 251.669 203.31 251.669 204.02ZM248.109 205.348H248.729C249.328 205.348 249.768 205.243 250.048 205.035C250.328 204.827 250.468 204.501 250.468 204.059C250.468 203.648 250.342 203.342 250.092 203.141C249.841 202.939 249.451 202.838 248.92 202.838H248.109V205.348ZM258.163 206.29C258.163 207.172 257.936 207.861 257.484 208.355C257.032 208.85 256.402 209.098 255.594 209.098C255.09 209.098 254.644 208.984 254.256 208.756C253.869 208.528 253.571 208.201 253.363 207.774C253.155 207.348 253.05 206.853 253.05 206.29C253.05 205.414 253.275 204.731 253.724 204.239C254.173 203.748 254.807 203.502 255.624 203.502C256.405 203.502 257.023 203.754 257.479 204.259C257.935 204.76 258.163 205.437 258.163 206.29ZM254.232 206.29C254.232 207.537 254.693 208.16 255.614 208.16C256.525 208.16 256.981 207.537 256.981 206.29C256.981 205.056 256.522 204.439 255.604 204.439C255.122 204.439 254.772 204.599 254.554 204.918C254.339 205.237 254.232 205.694 254.232 206.29ZM262.625 203.502C262.856 203.502 263.047 203.518 263.196 203.551L263.084 204.62C262.921 204.581 262.752 204.562 262.576 204.562C262.117 204.562 261.745 204.711 261.458 205.011C261.175 205.31 261.033 205.699 261.033 206.178V209H259.886V203.6H260.784L260.936 204.552H260.994C261.173 204.229 261.406 203.974 261.693 203.785C261.982 203.596 262.293 203.502 262.625 203.502ZM266.614 208.17C266.894 208.17 267.174 208.126 267.454 208.038V208.902C267.327 208.958 267.163 209.003 266.961 209.039C266.762 209.078 266.555 209.098 266.341 209.098C265.253 209.098 264.71 208.525 264.71 207.379V204.469H263.972V203.961L264.763 203.541L265.154 202.398H265.862V203.6H267.4V204.469H265.862V207.359C265.862 207.636 265.93 207.841 266.067 207.975C266.207 208.105 266.389 208.17 266.614 208.17ZM271.648 204.469H270.329V209H269.177V204.469H268.288V203.932L269.177 203.58V203.229C269.177 202.59 269.327 202.118 269.626 201.812C269.926 201.503 270.383 201.349 270.998 201.349C271.402 201.349 271.799 201.415 272.19 201.549L271.887 202.418C271.604 202.327 271.334 202.281 271.077 202.281C270.816 202.281 270.626 202.363 270.505 202.525C270.388 202.685 270.329 202.926 270.329 203.248V203.6H271.648V204.469ZM277.761 206.29C277.761 207.172 277.535 207.861 277.082 208.355C276.63 208.85 276 209.098 275.192 209.098C274.688 209.098 274.242 208.984 273.854 208.756C273.467 208.528 273.169 208.201 272.961 207.774C272.753 207.348 272.648 206.853 272.648 206.29C272.648 205.414 272.873 204.731 273.322 204.239C273.771 203.748 274.405 203.502 275.222 203.502C276.003 203.502 276.621 203.754 277.077 204.259C277.533 204.76 277.761 205.437 277.761 206.29ZM273.83 206.29C273.83 207.537 274.291 208.16 275.212 208.16C276.123 208.16 276.579 207.537 276.579 206.29C276.579 205.056 276.12 204.439 275.202 204.439C274.72 204.439 274.37 204.599 274.152 204.918C273.938 205.237 273.83 205.694 273.83 206.29ZM280.631 209H279.484V201.402H280.631V209ZM283.824 209H282.677V203.6H283.824V209ZM282.609 202.169C282.609 201.964 282.664 201.806 282.775 201.695C282.889 201.585 283.05 201.529 283.258 201.529C283.46 201.529 283.616 201.585 283.727 201.695C283.841 201.806 283.898 201.964 283.898 202.169C283.898 202.364 283.841 202.519 283.727 202.633C283.616 202.743 283.46 202.799 283.258 202.799C283.05 202.799 282.889 202.743 282.775 202.633C282.664 202.519 282.609 202.364 282.609 202.169ZM290.66 206.29C290.66 207.172 290.434 207.861 289.981 208.355C289.529 208.85 288.899 209.098 288.092 209.098C287.587 209.098 287.141 208.984 286.754 208.756C286.366 208.528 286.068 208.201 285.86 207.774C285.652 207.348 285.548 206.853 285.548 206.29C285.548 205.414 285.772 204.731 286.221 204.239C286.671 203.748 287.304 203.502 288.121 203.502C288.902 203.502 289.521 203.754 289.976 204.259C290.432 204.76 290.66 205.437 290.66 206.29ZM286.729 206.29C286.729 207.537 287.19 208.16 288.111 208.16C289.023 208.16 289.478 207.537 289.478 206.29C289.478 205.056 289.019 204.439 288.101 204.439C287.62 204.439 287.27 204.599 287.052 204.918C286.837 205.237 286.729 205.694 286.729 206.29ZM298.54 202.76C297.869 202.76 297.342 202.997 296.958 203.473C296.574 203.948 296.382 204.604 296.382 205.44C296.382 206.316 296.566 206.979 296.934 207.428C297.305 207.877 297.84 208.102 298.54 208.102C298.843 208.102 299.136 208.072 299.419 208.014C299.702 207.952 299.997 207.874 300.303 207.779V208.78C299.743 208.992 299.108 209.098 298.398 209.098C297.354 209.098 296.551 208.782 295.991 208.15C295.431 207.516 295.151 206.609 295.151 205.431C295.151 204.688 295.286 204.039 295.557 203.482C295.83 202.926 296.224 202.499 296.738 202.203C297.253 201.907 297.856 201.759 298.55 201.759C299.279 201.759 299.953 201.912 300.571 202.218L300.151 203.189C299.91 203.076 299.655 202.976 299.385 202.892C299.118 202.804 298.836 202.76 298.54 202.76Z" fill="#7B7D7E"/>
<rect x="132" y="199" width="68" height="13" fill="#F6F6F6"/>
<path d="M143.669 204.02C143.669 204.765 143.425 205.336 142.937 205.733C142.448 206.131 141.753 206.329 140.852 206.329H140.109V209H138.942V201.861H140.998C141.89 201.861 142.557 202.044 143 202.408C143.446 202.773 143.669 203.31 143.669 204.02ZM140.109 205.348H140.729C141.328 205.348 141.768 205.243 142.048 205.035C142.328 204.827 142.468 204.501 142.468 204.059C142.468 203.648 142.342 203.342 142.092 203.141C141.841 202.939 141.451 202.838 140.92 202.838H140.109V205.348ZM150.163 206.29C150.163 207.172 149.936 207.861 149.484 208.355C149.032 208.85 148.402 209.098 147.594 209.098C147.09 209.098 146.644 208.984 146.256 208.756C145.869 208.528 145.571 208.201 145.363 207.774C145.155 207.348 145.05 206.853 145.05 206.29C145.05 205.414 145.275 204.731 145.724 204.239C146.173 203.748 146.807 203.502 147.624 203.502C148.405 203.502 149.023 203.754 149.479 204.259C149.935 204.76 150.163 205.437 150.163 206.29ZM146.232 206.29C146.232 207.537 146.693 208.16 147.614 208.16C148.525 208.16 148.981 207.537 148.981 206.29C148.981 205.056 148.522 204.439 147.604 204.439C147.122 204.439 146.772 204.599 146.554 204.918C146.339 205.237 146.232 205.694 146.232 206.29ZM154.625 203.502C154.856 203.502 155.047 203.518 155.196 203.551L155.084 204.62C154.921 204.581 154.752 204.562 154.576 204.562C154.117 204.562 153.745 204.711 153.458 205.011C153.175 205.31 153.033 205.699 153.033 206.178V209H151.886V203.6H152.784L152.936 204.552H152.994C153.173 204.229 153.406 203.974 153.693 203.785C153.982 203.596 154.293 203.502 154.625 203.502ZM158.614 208.17C158.894 208.17 159.174 208.126 159.454 208.038V208.902C159.327 208.958 159.163 209.003 158.961 209.039C158.762 209.078 158.555 209.098 158.341 209.098C157.253 209.098 156.71 208.525 156.71 207.379V204.469H155.972V203.961L156.763 203.541L157.154 202.398H157.862V203.6H159.4V204.469H157.862V207.359C157.862 207.636 157.93 207.841 158.067 207.975C158.207 208.105 158.389 208.17 158.614 208.17ZM163.648 204.469H162.329V209H161.177V204.469H160.288V203.932L161.177 203.58V203.229C161.177 202.59 161.327 202.118 161.626 201.812C161.926 201.503 162.383 201.349 162.998 201.349C163.402 201.349 163.799 201.415 164.19 201.549L163.887 202.418C163.604 202.327 163.334 202.281 163.077 202.281C162.816 202.281 162.626 202.363 162.505 202.525C162.388 202.685 162.329 202.926 162.329 203.248V203.6H163.648V204.469ZM169.761 206.29C169.761 207.172 169.535 207.861 169.082 208.355C168.63 208.85 168 209.098 167.192 209.098C166.688 209.098 166.242 208.984 165.854 208.756C165.467 208.528 165.169 208.201 164.961 207.774C164.753 207.348 164.648 206.853 164.648 206.29C164.648 205.414 164.873 204.731 165.322 204.239C165.771 203.748 166.405 203.502 167.222 203.502C168.003 203.502 168.621 203.754 169.077 204.259C169.533 204.76 169.761 205.437 169.761 206.29ZM165.83 206.29C165.83 207.537 166.291 208.16 167.212 208.16C168.123 208.16 168.579 207.537 168.579 206.29C168.579 205.056 168.12 204.439 167.202 204.439C166.72 204.439 166.37 204.599 166.152 204.918C165.938 205.237 165.83 205.694 165.83 206.29ZM172.631 209H171.484V201.402H172.631V209ZM175.824 209H174.677V203.6H175.824V209ZM174.609 202.169C174.609 201.964 174.664 201.806 174.775 201.695C174.889 201.585 175.05 201.529 175.258 201.529C175.46 201.529 175.616 201.585 175.727 201.695C175.841 201.806 175.898 201.964 175.898 202.169C175.898 202.364 175.841 202.519 175.727 202.633C175.616 202.743 175.46 202.799 175.258 202.799C175.05 202.799 174.889 202.743 174.775 202.633C174.664 202.519 174.609 202.364 174.609 202.169ZM182.66 206.29C182.66 207.172 182.434 207.861 181.981 208.355C181.529 208.85 180.899 209.098 180.092 209.098C179.587 209.098 179.141 208.984 178.754 208.756C178.366 208.528 178.068 208.201 177.86 207.774C177.652 207.348 177.548 206.853 177.548 206.29C177.548 205.414 177.772 204.731 178.221 204.239C178.671 203.748 179.304 203.502 180.121 203.502C180.902 203.502 181.521 203.754 181.976 204.259C182.432 204.76 182.66 205.437 182.66 206.29ZM178.729 206.29C178.729 207.537 179.19 208.16 180.111 208.16C181.023 208.16 181.478 207.537 181.478 206.29C181.478 205.056 181.019 204.439 180.101 204.439C179.62 204.439 179.27 204.599 179.052 204.918C178.837 205.237 178.729 205.694 178.729 206.29ZM187.503 201.861H189.622C190.605 201.861 191.315 202.005 191.751 202.291C192.19 202.577 192.41 203.03 192.41 203.648C192.41 204.065 192.303 204.412 192.088 204.688C191.873 204.965 191.564 205.139 191.16 205.211V205.26C191.661 205.354 192.029 205.541 192.264 205.821C192.501 206.098 192.62 206.474 192.62 206.949C192.62 207.59 192.396 208.093 191.946 208.458C191.5 208.819 190.879 209 190.081 209H187.503V201.861ZM188.67 204.811H189.793C190.281 204.811 190.638 204.734 190.862 204.581C191.087 204.425 191.199 204.161 191.199 203.79C191.199 203.455 191.077 203.212 190.833 203.062C190.592 202.913 190.208 202.838 189.681 202.838H188.67V204.811ZM188.67 205.758V208.019H189.91C190.398 208.019 190.766 207.926 191.014 207.74C191.264 207.551 191.39 207.255 191.39 206.852C191.39 206.48 191.263 206.205 191.009 206.026C190.755 205.847 190.369 205.758 189.852 205.758H188.67Z" fill="#7B7D7E"/>
<rect x="24" y="199" width="68" height="13" fill="#F6F6F6"/>
<path d="M35.6689 204.02C35.6689 204.765 35.4248 205.336 34.9365 205.733C34.4482 206.131 33.7533 206.329 32.8516 206.329H32.1094V209H30.9424V201.861H32.998C33.89 201.861 34.5573 202.044 35 202.408C35.446 202.773 35.6689 203.31 35.6689 204.02ZM32.1094 205.348H32.7295C33.3285 205.348 33.7679 205.243 34.0479 205.035C34.3278 204.827 34.4678 204.501 34.4678 204.059C34.4678 203.648 34.3424 203.342 34.0918 203.141C33.8411 202.939 33.4505 202.838 32.9199 202.838H32.1094V205.348ZM42.1627 206.29C42.1627 207.172 41.9365 207.861 41.484 208.355C41.0315 208.85 40.4016 209.098 39.5943 209.098C39.0898 209.098 38.6438 208.984 38.2564 208.756C37.8691 208.528 37.5712 208.201 37.3629 207.774C37.1546 207.348 37.0504 206.853 37.0504 206.29C37.0504 205.414 37.275 204.731 37.7242 204.239C38.1734 203.748 38.8066 203.502 39.6236 203.502C40.4049 203.502 41.0234 203.754 41.4791 204.259C41.9348 204.76 42.1627 205.437 42.1627 206.29ZM38.232 206.29C38.232 207.537 38.6926 208.16 39.6139 208.16C40.5253 208.16 40.9811 207.537 40.9811 206.29C40.9811 205.056 40.5221 204.439 39.6041 204.439C39.1223 204.439 38.7724 204.599 38.5543 204.918C38.3395 205.237 38.232 205.694 38.232 206.29ZM46.6252 203.502C46.8563 203.502 47.0467 203.518 47.1965 203.551L47.0842 204.62C46.9214 204.581 46.7521 204.562 46.5764 204.562C46.1174 204.562 45.7447 204.711 45.4582 205.011C45.175 205.31 45.0334 205.699 45.0334 206.178V209H43.8859V203.6H44.7844L44.9357 204.552H44.9943C45.1734 204.229 45.4061 203.974 45.6926 203.785C45.9823 203.596 46.2932 203.502 46.6252 203.502ZM50.6141 208.17C50.894 208.17 51.174 208.126 51.4539 208.038V208.902C51.327 208.958 51.1626 209.003 50.9607 209.039C50.7622 209.078 50.5555 209.098 50.3406 209.098C49.2534 209.098 48.7098 208.525 48.7098 207.379V204.469H47.9725V203.961L48.7635 203.541L49.1541 202.398H49.8621V203.6H51.4002V204.469H49.8621V207.359C49.8621 207.636 49.9305 207.841 50.0672 207.975C50.2072 208.105 50.3895 208.17 50.6141 208.17ZM55.6479 204.469H54.3295V209H53.1771V204.469H52.2885V203.932L53.1771 203.58V203.229C53.1771 202.59 53.3269 202.118 53.6264 201.812C53.9258 201.503 54.3832 201.349 54.9984 201.349C55.4021 201.349 55.7992 201.415 56.1898 201.549L55.8871 202.418C55.6039 202.327 55.3337 202.281 55.0766 202.281C54.8161 202.281 54.6257 202.363 54.5053 202.525C54.3881 202.685 54.3295 202.926 54.3295 203.248V203.6H55.6479V204.469ZM61.7607 206.29C61.7607 207.172 61.5345 207.861 61.082 208.355C60.6296 208.85 59.9997 209.098 59.1924 209.098C58.6878 209.098 58.2419 208.984 57.8545 208.756C57.4671 208.528 57.1693 208.201 56.9609 207.774C56.7526 207.348 56.6484 206.853 56.6484 206.29C56.6484 205.414 56.873 204.731 57.3223 204.239C57.7715 203.748 58.4046 203.502 59.2217 203.502C60.0029 203.502 60.6214 203.754 61.0771 204.259C61.5329 204.76 61.7607 205.437 61.7607 206.29ZM57.8301 206.29C57.8301 207.537 58.2907 208.16 59.2119 208.16C60.1234 208.16 60.5791 207.537 60.5791 206.29C60.5791 205.056 60.1201 204.439 59.2021 204.439C58.7204 204.439 58.3704 204.599 58.1523 204.918C57.9375 205.237 57.8301 205.694 57.8301 206.29ZM64.6314 209H63.484V201.402H64.6314V209ZM67.8244 209H66.677V203.6H67.8244V209ZM66.6086 202.169C66.6086 201.964 66.6639 201.806 66.7746 201.695C66.8885 201.585 67.0497 201.529 67.258 201.529C67.4598 201.529 67.6161 201.585 67.7268 201.695C67.8407 201.806 67.8977 201.964 67.8977 202.169C67.8977 202.364 67.8407 202.519 67.7268 202.633C67.6161 202.743 67.4598 202.799 67.258 202.799C67.0497 202.799 66.8885 202.743 66.7746 202.633C66.6639 202.519 66.6086 202.364 66.6086 202.169ZM74.66 206.29C74.66 207.172 74.4337 207.861 73.9813 208.355C73.5288 208.85 72.8989 209.098 72.0916 209.098C71.587 209.098 71.1411 208.984 70.7537 208.756C70.3663 208.528 70.0685 208.201 69.8602 207.774C69.6518 207.348 69.5477 206.853 69.5477 206.29C69.5477 205.414 69.7723 204.731 70.2215 204.239C70.6707 203.748 71.3038 203.502 72.1209 203.502C72.9021 203.502 73.5206 203.754 73.9764 204.259C74.4321 204.76 74.66 205.437 74.66 206.29ZM70.7293 206.29C70.7293 207.537 71.1899 208.16 72.1111 208.16C73.0226 208.16 73.4783 207.537 73.4783 206.29C73.4783 205.056 73.0193 204.439 72.1014 204.439C71.6196 204.439 71.2697 204.599 71.0516 204.918C70.8367 205.237 70.7293 205.694 70.7293 206.29ZM83.9316 209L83.2188 207.018H80.4893L79.791 209H78.5605L81.2314 201.832H82.501L85.1719 209H83.9316ZM82.9111 206.012L82.2422 204.068C82.1934 203.938 82.125 203.733 82.0371 203.453C81.9525 203.173 81.8939 202.968 81.8613 202.838C81.7734 203.238 81.6449 203.676 81.4756 204.151L80.8311 206.012H82.9111Z" fill="#7B7D7E"/>
</svg>
