<svg width="144" height="173" viewBox="0 0 144 173" fill="none" xmlns="http://www.w3.org/2000/svg">
<g opacity="0.3">
<mask id="mask0" style="mask-type:alpha" maskUnits="userSpaceOnUse" x="0" y="160" width="144" height="13">
<path fill-rule="evenodd" clip-rule="evenodd" d="M0.597534 160.113H143.918V172.759H0.597534V160.113Z" fill="white"/>
</mask>
<g mask="url(#mask0)">
<path fill-rule="evenodd" clip-rule="evenodd" d="M25.256 165.43C25.256 165.43 0.554102 165.392 0.597592 166.352C0.748131 169.56 20.1744 167.681 21.7702 168.645C22.553 169.119 21.6882 170.149 23.0665 170.815C28.5578 173.466 47.6546 171.06 54.4741 171.078C73.049 171.131 77.7525 172.324 79.9086 172.477C85.9603 172.906 103.082 172.739 107.901 172.655C117.813 172.481 144.473 173.188 143.911 170.478C143.659 169.262 118.057 166.696 113.7 166.367C109.97 166.087 107.407 164.397 104.064 163.406C99.3801 162.017 94.2417 161.18 89.1869 160.652C68.0043 158.443 46.2914 163.626 25.256 165.43Z" fill="#333739"/>
</g>
</g>
<path d="M68.0572 158.796L68.5569 159.796L67.5575 160.795L64.0596 160.295L66.0584 157.797L68.0572 158.796Z" fill="#FFDDC5"/>
<path fill-rule="evenodd" clip-rule="evenodd" d="M69.6539 56.6688C69.6539 56.6688 71.6345 63.3507 76.1876 63.0697C80.0912 62.8284 84.901 53.6758 84.901 53.6758L69.6539 56.6688Z" fill="#FF6666"/>
<path fill-rule="evenodd" clip-rule="evenodd" d="M65.3206 157.85L68.37 159.681C68.37 159.681 81.5148 143.817 84.0242 129.232C84.4724 126.629 84.5609 124.082 84.1537 121.696C84.1537 121.696 84.3186 121.034 84.6073 119.86C84.6195 119.809 84.6328 119.756 84.645 119.702C84.7722 119.188 84.9238 118.583 85.092 117.897C85.6397 115.683 86.3932 112.652 87.2518 109.202C89.2302 101.263 93.7711 83.3518 95.724 75.8986L78.0659 70.7148C78.0659 70.7148 76.3797 75.3089 74.3106 87.6426C73.9742 89.257 73.6478 91.0395 73.3601 92.9769C73.0326 95.171 72.7483 97.5654 72.5491 100.146C72.2105 104.517 72.1065 109.419 72.4119 114.77C72.5358 116.946 72.7283 119.199 73.0005 121.519C73.2008 123.22 73.0879 125.51 72.7715 128.127C71.3253 140.092 65.3206 157.85 65.3206 157.85Z" fill="#333739"/>
<path fill-rule="evenodd" clip-rule="evenodd" d="M55.5647 165.793L69.4849 165.133C69.4849 165.133 69.8676 163.399 68.8606 162.279C67.9695 161.289 68.232 160.687 68.7636 159.808C68.1481 160.036 67.3474 160.256 66.4463 160.259C65.7503 160.261 64.997 160.054 64.3309 159.797C63.7739 160.351 61.3882 162.711 60.6217 163.193C59.7526 163.739 55.6816 163.752 55.5647 165.793Z" fill="#333739"/>
<path fill-rule="evenodd" clip-rule="evenodd" d="M72.5468 100.147L84.6437 119.704C84.7698 119.189 84.9214 118.584 85.0896 117.898C85.6373 115.684 86.3919 112.653 87.2505 109.203C89.2289 101.264 93.7698 83.3529 95.7216 75.8986L78.0636 70.7148C78.0636 70.7148 76.3773 75.31 74.3093 87.6437C73.973 89.2581 73.6455 91.0406 73.3578 92.978C73.0303 95.171 72.747 97.5665 72.5468 100.147Z" fill="#333739"/>
<path d="M95.7987 154.59L96.5402 161.296L100.038 160.297L100.274 155.034L95.7987 154.59Z" fill="#FFDDC5"/>
<path fill-rule="evenodd" clip-rule="evenodd" d="M100.538 160.296C100.538 160.296 102.216 160.818 101.43 162.875L95.0411 163.294C95.0411 163.294 93.9134 162.556 96.5402 160.296C99.0387 159.296 100.538 160.296 100.538 160.296Z" fill="#333739"/>
<path fill-rule="evenodd" clip-rule="evenodd" d="M85.2344 38.5957C86.737 39.5063 88.5958 40.22 90.8962 40.6028C99.5211 42.0435 102.337 34.6545 103.257 29.6455C102.056 29.0536 100.955 28.975 100.321 28.9385C99.7014 28.9042 99.052 28.8953 98.5153 28.902C97.5151 28.2292 95.9074 25.3237 95.3066 20.6953L94.9127 20.8281L88.3236 23.0753C88.3236 23.0753 88.7618 25.1865 89.0373 27.1914C89.2509 28.7603 89.3615 30.2651 89.086 30.6513C88.5704 30.7973 88.2606 30.8903 88.2606 30.8903C88.2606 30.8903 88.2606 30.8936 88.2572 30.8969C88.1765 31.0507 86.4305 34.3679 85.2344 38.5957Z" fill="#FFDDC5"/>
<path opacity="0.1" fill-rule="evenodd" clip-rule="evenodd" d="M88.323 23.0754C88.323 23.0754 88.7623 25.1854 89.0367 27.1914C92.8097 26.5773 94.3488 22.853 94.9131 20.8281L88.323 23.0754Z" fill="#333739"/>
<path fill-rule="evenodd" clip-rule="evenodd" d="M88.4419 26.2798C88.4419 26.2798 97.0458 23.4937 95.2278 18.1628C93.411 12.8318 93.2971 8.88177 87.7271 10.4352C82.1572 11.9876 81.7887 14.3853 81.9635 16.3117C82.1361 18.238 86.157 26.8673 88.4419 26.2798Z" fill="#FFDDC5"/>
<path fill-rule="evenodd" clip-rule="evenodd" d="M86.1792 30.5687C86.1792 30.5687 100.641 26.0974 107.35 30.9703L106.904 75.6615L77.7623 70.4954C77.7623 70.4954 78.3963 67.6308 83.4407 59.8037C88.4851 51.9776 85.4124 41.1431 86.1792 30.5687Z" fill="#FFDDC5"/>
<path fill-rule="evenodd" clip-rule="evenodd" d="M85.2539 72.2209C85.2539 72.2209 85.2795 72.3642 85.3273 72.6361C85.3484 72.752 85.3751 72.8943 85.4041 73.0587C85.5998 74.1505 85.9724 76.2435 86.454 78.9668C87.7142 86.1078 89.7085 97.5793 91.1488 106.643C92.2744 113.728 93.063 119.342 92.895 120.26C92.389 123.024 95.193 155.554 95.193 155.554C97.7178 156.525 101.365 155.193 101.365 155.193C101.365 155.193 105.99 125.462 104.808 121.436C103.628 117.41 104.927 113.838 104.927 113.838C108.544 91.1527 107.181 78.7771 105.786 72.8954C105.381 71.1849 104.973 70.0246 104.683 69.3196C104.438 68.7189 104.277 68.447 104.277 68.447C92.8995 66.2486 85.2539 72.2209 85.2539 72.2209Z" fill="#333739"/>
<path fill-rule="evenodd" clip-rule="evenodd" d="M110.117 43.5379C109.738 48.9341 107.306 55.6592 106.512 59.2475C106.512 59.2475 108.959 71.3843 107.551 74.8453C107.391 75.2403 107.18 75.5225 106.909 75.6597C101.082 78.6383 77.6097 77.5429 76.1613 70.082C75.6346 67.3723 83.8413 56.9361 84.3082 55.7367C84.5019 55.241 84.4034 54.9378 84.4133 53.9265C83.1697 58.7551 73.2734 56.9947 73.2734 56.9947C74.163 55.2321 76.6393 41.0384 79.078 35.5537C80.9114 31.4299 86.4304 30.5082 86.4304 30.5082C86.4304 30.5082 88.9687 34.0323 94.5264 33.167C100.085 32.3018 100.896 28.8164 100.896 28.8164C100.896 28.8164 105.896 29.1705 107.5 30.3079C107.777 30.506 110.613 36.4665 110.117 43.5379Z" fill="#FF6666"/>
<path fill-rule="evenodd" clip-rule="evenodd" d="M106.51 59.2482C106.51 59.2482 108.958 71.385 107.549 74.846C103.052 72.9252 99.2495 67.2147 99.6357 60.5671C99.9212 55.6533 100.724 54.4871 103.162 51.535C104.953 49.3663 109.378 48.9769 109.092 49.9738C108.237 52.9435 106.93 57.3528 106.51 59.2482Z" fill="#FF6666"/>
<path fill-rule="evenodd" clip-rule="evenodd" d="M118.915 53.4918C118.232 54.1269 116.933 57.4828 116.281 57.9608C113.347 60.104 98.5269 60.332 98.5269 60.332L98.2072 57.3534C98.2072 57.3534 111.984 54.1966 113.361 53.3303C113.621 53.1676 114.386 50.0651 114.852 49.5273L118.915 53.4918Z" fill="#FFDDC5"/>
<mask id="mask1" style="mask-type:alpha" maskUnits="userSpaceOnUse" x="100" y="28" width="20" height="35">
<path fill-rule="evenodd" clip-rule="evenodd" d="M100.64 28.8164H119.998V62.4308H100.64V28.8164Z" fill="white"/>
</mask>
<g mask="url(#mask1)">
<path fill-rule="evenodd" clip-rule="evenodd" d="M100.896 28.8164C100.896 28.8164 108.15 29.2269 110.323 32.1922C113.071 35.942 119.947 51.1283 119.998 55.0584C119.998 55.0584 116.127 62.6875 101.219 62.4242C101.219 62.4242 99.3404 57.0678 102.349 55.0761C102.349 55.0761 109.885 53.2505 110.715 52.424L103.806 41.5175L100.896 28.8164Z" fill="#FF6666"/>
</g>
<path fill-rule="evenodd" clip-rule="evenodd" d="M92.3083 6.51585C92.337 3.13118 94.4249 1.79236 97.2331 1.0289C100.037 0.254373 103.183 2.97406 103.428 3.24515C106.326 6.4373 106.943 11.0878 105.05 14.967C104.842 15.3986 104.639 15.8279 104.441 16.2428C103.344 18.5509 107.937 17.7597 107.937 17.7597C100.613 22.1956 98.4524 13.7189 98.2776 12.961C95.3599 13.262 92.2828 9.66264 92.3083 6.51585Z" fill="#333739"/>
<path fill-rule="evenodd" clip-rule="evenodd" d="M90.8756 13.9087C91.4299 14.4088 92.2841 14.3646 92.7865 13.8091L95.8141 10.4064C96.3109 9.85204 96.2678 8.99453 95.7123 8.49552C95.158 7.9954 94.2994 8.04187 93.8014 8.5951L90.7749 11.9978C90.2726 12.5533 90.3201 13.4086 90.8756 13.9087Z" fill="#FF6666"/>
<path fill-rule="evenodd" clip-rule="evenodd" d="M81.5894 18.6403C80.6766 16.7527 80.3048 14.8872 80.8901 13.2419C80.9499 12.9752 81.0738 12.7097 81.2796 12.4154C81.897 11.3609 82.9902 10.4082 84.6875 9.63704C84.713 9.62376 84.7539 9.61491 84.7982 9.61491C85.0748 9.5109 85.3558 9.41464 85.6335 9.34272C85.7774 9.29404 85.9334 9.26084 86.0982 9.23429C86.6371 9.12143 87.166 9.07164 87.6761 9.05283C92.2103 8.78838 95.117 10.9504 95.45 15.7768C95.626 18.2597 94.8382 19.4879 93.7594 20.0278L93.1364 18.7853C93.1243 18.543 93.3223 18.5463 93.3223 18.5463C94.6412 18.2785 94.8758 17.4631 94.5748 16.1021C94.4255 15.4449 94.0913 15.0598 93.6487 14.9768C93.641 14.9702 93.6299 14.9746 93.6155 14.9713C93.6012 14.9669 93.5812 14.9658 93.5669 14.9613C93.5525 14.958 93.5425 14.9636 93.5281 14.9591C93.5082 14.9569 93.4938 14.9536 93.4684 14.9536C93.464 14.9569 93.4496 14.9536 93.4385 14.958C93.4197 14.9569 93.3942 14.958 93.3843 14.9636C93.3788 14.9658 93.3644 14.9613 93.3544 14.9669C93.329 14.968 93.3135 14.9757 93.2891 14.9768C93.2836 14.9802 93.2836 14.9802 93.2692 14.9757C93.153 14.999 93.0369 15.0355 92.9229 15.093L92.9118 15.0985L92.8288 15.1395C92.8244 15.1428 92.8244 15.1428 92.8145 15.1472C92.7879 15.1605 92.7569 15.176 92.7304 15.1893C92.7248 15.1915 92.7248 15.1915 92.7149 15.197C92.6894 15.2103 92.6573 15.238 92.6264 15.2523L92.6208 15.2557C92.4936 15.342 92.3597 15.4537 92.2302 15.5754C92.1439 15.6529 92.2369 15.6617 92.1528 15.7602L91.8706 15.8797C91.7821 15.924 91.6792 15.9638 91.5719 16.0058C89.0813 16.9043 84.5791 17.0526 82.198 15.5389C81.8373 17.1178 82.8342 19.3573 83.9362 21.1277C82.9415 20.5324 82.1095 19.7214 81.5894 18.6403Z" fill="#333739"/>
<path fill-rule="evenodd" clip-rule="evenodd" d="M98.6448 58.011C105.042 50.9628 104.5 40.0796 97.4343 33.7019C90.3695 27.3254 79.4565 27.8697 73.06 34.9168C66.6646 41.9661 67.2068 52.8493 74.2727 59.2259C81.3375 65.6035 92.2505 65.0591 98.6448 58.011Z" fill="#FFAB00"/>
<path opacity="0.5" fill-rule="evenodd" clip-rule="evenodd" d="M96.5876 56.1542C101.954 50.2401 101.497 41.1074 95.5675 35.7554C89.6401 30.4057 80.4841 30.8615 75.1167 36.7756C69.7503 42.6907 70.2051 51.8224 76.1335 57.1743C82.062 62.5252 91.2191 62.0682 96.5876 56.1542Z" fill="white"/>
<path fill-rule="evenodd" clip-rule="evenodd" d="M88.7767 56.3385L87.8606 54.1078C86.8858 54.4564 85.8678 54.6765 84.8344 54.7595C84.4626 54.7861 84.093 54.671 83.8032 54.4364C83.5122 54.2019 83.3218 53.8666 83.2709 53.4971L83.2577 53.4052C83.23 53.2049 83.2433 53.0014 83.2975 52.8066C83.3528 52.6119 83.4458 52.4315 83.5741 52.2755C83.7014 52.1184 83.8607 51.99 84.041 51.8971C84.2203 51.8053 84.4183 51.751 84.6197 51.7378C85.558 51.688 86.4819 51.4844 87.3538 51.1347C88.6959 50.587 89.4019 49.6941 89.0168 48.7547C88.6506 47.8629 87.6658 47.6095 85.6819 47.7324C82.8151 47.9171 80.6132 47.4458 79.6783 45.1676C78.8296 43.1018 79.624 40.8844 81.941 39.3608L81.0248 37.1302L83.3318 36.1875L84.1816 38.2533C85.0546 37.9412 85.8036 37.7686 86.4565 37.6845C86.8404 37.6359 87.2277 37.741 87.5341 37.9755C87.8406 38.2101 88.042 38.5564 88.0951 38.9382C88.1217 39.134 88.1095 39.3321 88.0586 39.5224C88.0077 39.7116 87.9181 39.8897 87.7964 40.0446C87.6736 40.2007 87.5231 40.329 87.3494 40.4242C87.1768 40.5193 86.9864 40.5791 86.7906 40.599C86.0382 40.6764 85.3002 40.8634 84.602 41.1522C83.0718 41.7774 82.8483 42.6371 83.1149 43.2932C83.4347 44.0689 84.4593 44.2249 86.7696 44.1585C89.9761 43.998 91.638 44.8279 92.5055 46.9412C93.3641 49.0314 92.6139 51.4224 90.0989 52.9991L91.0815 55.3946L88.7767 56.3385Z" fill="white"/>
<path fill-rule="evenodd" clip-rule="evenodd" d="M99.6812 57.1755C99.6812 57.1755 97.5833 55.6729 96.2555 56.1233C94.9278 56.5747 93.0468 58.4048 92.3331 58.8551C91.6205 59.3044 89.7063 60.8744 90.7763 61.6855C91.8451 62.4976 94.961 61.5516 96.1736 60.8036C97.3841 60.0568 99.3404 60.1652 99.3404 60.1652L99.6812 57.1755Z" fill="#FFDDC5"/>
<path fill-rule="evenodd" clip-rule="evenodd" d="M96.6341 56.0515C96.6341 56.0515 94.1877 55.9121 93.5249 55.9652C92.8633 56.0205 93.0525 56.1544 93.4497 56.6468C93.8469 57.1381 95.1238 57.2576 95.1935 57.4335C95.2621 57.6105 96.6341 56.0515 96.6341 56.0515Z" fill="#FFDDC5"/>
<path fill-rule="evenodd" clip-rule="evenodd" d="M73.5542 52.9809C73.2754 52.0869 71.3313 52.7762 70.6973 53.3394C70.5424 53.4755 70.3819 53.7024 70.227 53.9668C70.1961 53.8152 70.1695 53.6725 70.1529 53.5585C70.0887 53.1347 69.5455 52.4023 69.4569 52.9809C69.3695 53.5607 69.3142 55.975 69.3142 55.975C69.4094 57.9103 70.7028 58.6317 71.4619 57.9534C72.222 57.274 73.833 53.8739 73.5542 52.9809Z" fill="#FFDDC5"/>
<path fill-rule="evenodd" clip-rule="evenodd" d="M79.4397 127.345C79.4397 125.728 70.8908 124.18 67.1417 132.525C64.4015 138.624 65.2058 147.454 58.2515 151.164C62.5165 152.014 69.8849 148.385 69.8849 148.385C69.8849 148.385 71.9166 146.207 71.746 140.67C71.3478 127.813 79.4397 128.961 79.4397 127.345Z" fill="#DB383E"/>
<mask id="mask2" style="mask-type:alpha" maskUnits="userSpaceOnUse" x="58" y="126" width="22" height="26">
<path fill-rule="evenodd" clip-rule="evenodd" d="M67.1427 132.525C64.4025 138.624 65.2068 147.454 58.2515 151.164C62.5164 152.015 69.8859 148.386 69.8859 148.386C69.8859 148.386 71.9176 146.207 71.7459 140.671C71.3478 127.813 79.4407 128.962 79.4407 127.346C79.4407 126.701 78.0815 126.067 76.2085 126.066C73.3855 126.066 69.3969 127.507 67.1427 132.525Z" fill="white"/>
</mask>
<g mask="url(#mask2)">
<path fill-rule="evenodd" clip-rule="evenodd" d="M79.4199 126.914C75.9702 126.524 72.9695 129.101 71.2921 131.876C68.2605 136.894 69.3861 144.523 64.8287 148.502C64.7249 148.593 65.0323 148.314 65.1351 148.222C65.2957 148.077 65.4634 147.941 65.638 147.814C66.2138 147.397 66.8435 147.067 67.4711 146.736C68.469 146.212 72.6761 144.752 73.0504 144.273C74.1321 142.885 73.708 138.826 73.8507 136.976C74.0153 134.846 75.2028 133.193 76.0311 132.516C82.7459 127.037 79.4199 126.914 79.4199 126.914Z" fill="#B91818"/>
</g>
<mask id="mask3" style="mask-type:alpha" maskUnits="userSpaceOnUse" x="58" y="126" width="22" height="26">
<path fill-rule="evenodd" clip-rule="evenodd" d="M67.1427 132.525C64.4025 138.624 65.2068 147.454 58.2515 151.164C62.5164 152.015 69.8859 148.386 69.8859 148.386C69.8859 148.386 71.9176 146.207 71.7459 140.671C71.3478 127.813 79.4407 128.962 79.4407 127.346C79.4407 126.701 78.0815 126.067 76.2085 126.066C73.3855 126.066 69.3969 127.507 67.1427 132.525Z" fill="white"/>
</mask>
<g mask="url(#mask3)">
<path fill-rule="evenodd" clip-rule="evenodd" d="M61.6768 149.94C65.2333 146.969 65.7552 142.548 66.7451 138.295C68.1072 132.442 70.0651 127.197 76.2081 125.381C73.5028 124.474 70.3176 126.092 68.4226 127.916C65.8979 130.344 64.0857 133.745 63.1896 137.111C62.7406 138.798 62.529 140.53 62.1967 142.24C61.8844 143.847 61.4693 145.435 60.7388 146.905C60.4624 147.462 60.153 148.018 59.8038 148.533C59.0733 149.61 59.3827 150.097 60.6959 150.087C61.0222 150.085 61.3505 150.068 61.6748 150.032" fill="#FF6666"/>
</g>
<path fill-rule="evenodd" clip-rule="evenodd" d="M79.441 127.345C79.441 125.728 70.8921 124.18 67.143 132.525C64.4028 138.624 65.2071 147.454 58.2528 151.164C62.5178 152.015 69.8862 148.385 69.8862 148.385C69.8862 148.385 71.9179 146.207 71.7473 140.67C71.3491 127.813 79.441 128.961 79.441 127.345Z" stroke="#010000" stroke-width="0.547" stroke-linecap="round" stroke-linejoin="round"/>
<path fill-rule="evenodd" clip-rule="evenodd" d="M14.1443 142.483C15.5503 140.471 16.2867 139.082 16.1969 136.086C16.1081 133.176 12.4319 134.7 10.985 134.7C9.53902 134.7 7.36363 133.935 5.94363 134.646C5.23513 134.999 4.69328 135.568 4.5406 136.329C4.10053 138.53 7.62607 140.613 9.38934 141.202C10.508 141.574 14.1443 142.483 14.1443 142.483Z" fill="#8A4C28"/>
<mask id="mask4" style="mask-type:alpha" maskUnits="userSpaceOnUse" x="4" y="134" width="13" height="9">
<path fill-rule="evenodd" clip-rule="evenodd" d="M10.9843 134.695C9.53831 134.695 7.3629 133.931 5.9439 134.641C5.2354 134.994 4.69254 135.563 4.53987 136.325C4.0998 138.526 7.62535 140.609 9.38962 141.197C10.5073 141.57 14.1436 142.479 14.1436 142.479C15.5496 140.468 16.2871 139.078 16.1962 136.081C16.1523 134.66 15.2532 134.297 14.1755 134.297C13.0479 134.296 11.7247 134.695 10.9843 134.695Z" fill="white"/>
</mask>
<g mask="url(#mask4)">
<path fill-rule="evenodd" clip-rule="evenodd" d="M15.1295 134.504C15.0237 135.831 13.2604 135.904 12.3044 136.019C10.7687 136.201 8.58331 136.9 7.44371 137.971C6.64939 138.717 5.78122 140.428 6.62744 141.435C7.58841 142.579 9.57621 142.123 10.8755 142.161C12.4501 142.207 15.0896 143.255 16.4816 142.629C18.6381 141.658 19.0901 138.475 18.1192 136.523C17.736 135.751 15.853 134.948 15.1295 134.504Z" fill="#6F3319"/>
</g>
<mask id="mask5" style="mask-type:alpha" maskUnits="userSpaceOnUse" x="4" y="134" width="13" height="9">
<path fill-rule="evenodd" clip-rule="evenodd" d="M10.9843 134.695C9.53831 134.695 7.3629 133.931 5.9439 134.641C5.2354 134.994 4.69254 135.563 4.53987 136.325C4.0998 138.526 7.62535 140.609 9.38962 141.197C10.5073 141.57 14.1436 142.479 14.1436 142.479C15.5496 140.468 16.2871 139.078 16.1962 136.081C16.1523 134.66 15.2532 134.297 14.1755 134.297C13.0479 134.296 11.7247 134.695 10.9843 134.695Z" fill="white"/>
</mask>
<g mask="url(#mask5)">
<path fill-rule="evenodd" clip-rule="evenodd" d="M12.0696 134.652C11.7413 135.031 10.5378 135.694 9.26649 135.639C7.50321 135.563 6.95337 134.969 6.99728 134.819C7.03021 134.704 7.75967 134.592 8.90525 134.74C9.85725 134.863 11.1346 134.89 12.0696 134.652Z" fill="#6F3319"/>
</g>
<path fill-rule="evenodd" clip-rule="evenodd" d="M14.14 142.479C15.546 140.467 16.2825 139.078 16.1927 136.082C16.1039 133.172 12.4276 134.696 10.9807 134.696C9.53475 134.696 7.35935 133.931 5.93936 134.642C5.23086 134.995 4.689 135.564 4.53633 136.325C4.09626 138.527 7.6218 140.609 9.38507 141.198C10.5037 141.57 14.14 142.479 14.14 142.479Z" stroke="#010000" stroke-width="0.547" stroke-linecap="round" stroke-linejoin="round"/>
<path fill-rule="evenodd" clip-rule="evenodd" d="M8.71252 126.408C8.82428 123.93 7.92717 122.044 5.26878 121.605C4.44951 121.469 3.62126 121.439 2.793 121.395C2.75508 121.393 2.07352 121.33 2.07252 121.332C1.96176 121.719 2.07851 122.272 2.15335 122.661C2.45372 124.214 3.12331 125.687 4.71994 126.242C6.0182 126.693 8.71252 126.408 8.71252 126.408Z" fill="#139939"/>
<path fill-rule="evenodd" clip-rule="evenodd" d="M8.71252 126.408C8.82428 123.93 7.92717 122.044 5.26878 121.605C4.44951 121.469 3.62126 121.439 2.793 121.395C2.75508 121.393 2.07352 121.33 2.07252 121.332C1.96176 121.719 2.07851 122.272 2.15335 122.661C2.45372 124.214 3.12331 125.687 4.71994 126.242C6.0182 126.693 8.71252 126.408 8.71252 126.408Z" stroke="#0A5F2C" stroke-width="0.547" stroke-linecap="round" stroke-linejoin="round"/>
<path fill-rule="evenodd" clip-rule="evenodd" d="M10.9055 116.794C10.9055 116.794 12.069 113.622 9.59621 111.983C9.20104 111.721 8.74899 111.555 8.29095 111.439C7.52556 111.246 6.72525 111.235 5.94289 111.266C4.42109 111.327 3.40622 110.827 3.39325 110.848C3.31741 110.973 3.85428 112.486 4.12372 112.981C4.88611 114.378 5.85208 115.151 8.04747 115.634C9.20803 115.89 10.1271 116.306 10.9055 116.794Z" fill="#139939"/>
<path fill-rule="evenodd" clip-rule="evenodd" d="M10.9055 116.794C10.9055 116.794 12.069 113.622 9.59621 111.983C9.20104 111.721 8.74899 111.555 8.29095 111.439C7.52556 111.246 6.72525 111.235 5.94289 111.266C4.42109 111.327 3.40622 110.827 3.39325 110.848C3.31741 110.973 3.85428 112.486 4.12372 112.981C4.88611 114.378 5.85208 115.151 8.04747 115.634C9.20803 115.89 10.1271 116.306 10.9055 116.794Z" stroke="#0A5F2C" stroke-width="0.547" stroke-linecap="round" stroke-linejoin="round"/>
<path fill-rule="evenodd" clip-rule="evenodd" d="M10.5093 135.202C10.195 134.254 9.99343 133.321 9.91459 132.379C9.83576 131.438 9.87767 130.486 10.0483 129.502C10.3836 127.553 11.133 125.351 11.5382 123.128C11.8096 121.639 11.9314 120.141 11.6839 118.709C11.3147 116.563 10.1301 114.561 7.41584 112.954C7.37592 112.93 7.32403 112.942 7.30008 112.981C7.27513 113.021 7.28711 113.073 7.32802 113.097C9.89164 114.737 10.9704 116.696 11.2747 118.773C11.4773 120.163 11.3356 121.603 11.0572 123.037C10.6261 125.258 9.87368 127.461 9.52641 129.411C9.34379 130.441 9.29689 131.437 9.37672 132.424C9.45655 133.408 9.66412 134.383 9.99143 135.373C10.0383 135.516 10.193 135.594 10.3367 135.547C10.4794 135.499 10.5562 135.345 10.5093 135.202Z" fill="#0A5F2C"/>
<path fill-rule="evenodd" clip-rule="evenodd" d="M11.5931 123.747C12.129 123.786 13.1868 123.59 13.7097 123.45C17.321 122.483 18.1373 116.088 18.1133 116.106C18.0385 116.161 14.8522 117.065 13.2197 119.293C11.9284 121.055 11.5931 123.747 11.5931 123.747Z" fill="#139939"/>
<path fill-rule="evenodd" clip-rule="evenodd" d="M11.5931 123.747C12.129 123.786 13.1868 123.59 13.7097 123.45C17.321 122.483 18.1373 116.088 18.1133 116.106C18.0385 116.161 14.8522 117.065 13.2197 119.293C11.9284 121.055 11.5931 123.747 11.5931 123.747Z" stroke="#0A5F2C" stroke-width="0.547" stroke-linecap="round" stroke-linejoin="round"/>
<path fill-rule="evenodd" clip-rule="evenodd" d="M10.0632 129.443C10.0273 128.065 9.38165 126.728 8.39872 125.641C8.02751 125.232 7.61039 124.858 7.16333 124.532C6.47578 124.032 5.72237 123.647 4.97695 123.395C4.94701 123.383 4.91308 123.398 4.90111 123.429C4.88913 123.459 4.9041 123.494 4.93404 123.506C5.63356 123.818 6.31911 124.269 6.94779 124.805C7.34994 125.148 7.72614 125.526 8.06343 125.931C8.92162 126.966 9.51636 128.186 9.51736 129.45C9.52035 129.601 9.64409 129.721 9.79378 129.719C9.94446 129.717 10.0652 129.594 10.0632 129.443Z" fill="#0A5F2C"/>
<path fill-rule="evenodd" clip-rule="evenodd" d="M11.2116 124.77C11.51 123.987 11.9181 123.375 12.3761 122.84C12.9769 122.143 13.6714 121.584 14.342 120.964C14.9946 120.361 15.6193 119.702 16.1412 118.847C16.1661 118.811 16.1561 118.761 16.1192 118.736C16.0823 118.712 16.0334 118.721 16.0084 118.758C15.4317 119.547 14.7591 120.123 14.0865 120.67C13.8001 120.903 13.5147 121.132 13.2343 121.364C12.8052 121.722 12.3891 122.092 12.0069 122.512C11.494 123.076 11.045 123.731 10.7037 124.571C10.6488 124.71 10.7177 124.869 10.8584 124.924C10.9981 124.979 11.1567 124.911 11.2116 124.77Z" fill="#0A5F2C"/>
<path fill-rule="evenodd" clip-rule="evenodd" d="M13.8643 134.035C13.5 134.048 13.1678 134.106 12.8554 134.197C12.5411 134.288 12.2467 134.408 11.9623 134.543C11.7757 134.633 11.5951 134.729 11.4125 134.826C10.7878 135.158 10.1651 135.491 9.32391 135.533C9.26404 135.532 9.21415 135.581 9.21315 135.642C9.21215 135.702 9.26105 135.752 9.32192 135.753C9.86976 135.795 10.3477 135.717 10.7978 135.582C11.2378 135.45 11.649 135.27 12.0661 135.091C12.3585 134.965 12.6508 134.838 12.9672 134.743C13.2506 134.659 13.5529 134.596 13.8852 134.58C14.0359 134.574 14.1537 134.448 14.1477 134.297C14.1417 134.146 14.015 134.029 13.8643 134.035Z" fill="#010000"/>
<path fill-rule="evenodd" clip-rule="evenodd" d="M22.3042 126.273C21.1606 126.396 20.1448 126.245 19.0241 125.912C20.1647 119.642 18.7657 106.618 24.8099 100.486C39.2015 85.8878 69.6034 94.5046 69.6034 116.644C69.6034 128.221 59.8799 137.791 53.0613 142.408C53.0743 149.97 59.9547 151.932 65.2825 148.202C74.5509 141.714 84.0219 143.845 84.0219 149.99C84.0219 157.18 74.3493 157.615 74.3493 151.815C69.0854 152.84 67.4419 157.282 63.4633 159.499C64.554 162.679 68.3859 165.667 72.3895 164.456C70.4975 162.914 71.3816 158.903 75.1477 158.903C77.5027 158.903 78.9995 161.022 78.9995 163.114C78.9995 167.318 74.6567 172.077 66.8312 171.765C57.7164 171.403 56.5649 163.06 44.1671 163.268C34.3448 163.434 26.5572 169.131 20.1637 169.131C16.6212 169.131 14.0217 166.864 14.0217 166.864C14.0217 166.864 6.08246 168.159 5.13346 160.482C0.0531874 157.537 -0.691241 152.322 2.5569 148.684C3.15664 148.013 3.85217 148.474 3.65059 149.279C2.78342 152.739 4.3561 154.873 6.299 155.524C8.20198 151.941 8.75382 149.536 8.00241 147.38C7.25099 145.224 2.65869 142.993 5.08157 138.669C6.69117 139.632 8.5742 140.633 11.1667 140.538C13.7593 140.446 17.202 141.983 17.3616 146.171C17.5213 150.36 17.6401 154.176 18.4444 156.818C21.2624 156.124 21.3732 151.938 24.282 149.787C27.0362 147.752 29.05 148.973 30.2544 146.78C30.1896 141.451 28.1628 137.958 24.9217 136.587C23.4438 135.961 22.8541 135.155 24.8359 133.754C24.6253 132.45 24.4038 130.253 22.3042 126.273Z" fill="#E42A31"/>
<mask id="mask6" style="mask-type:alpha" maskUnits="userSpaceOnUse" x="0" y="93" width="85" height="79">
<path fill-rule="evenodd" clip-rule="evenodd" d="M24.8101 100.486C18.7658 106.618 20.1649 119.641 19.0243 125.913C20.1449 126.245 21.1608 126.397 22.3044 126.274C24.4039 130.254 24.6245 132.451 24.836 133.754C22.8542 135.155 23.444 135.961 24.9218 136.587C28.162 137.958 30.1897 141.453 30.2546 146.781C29.0501 148.973 27.0364 147.753 24.2822 149.787C21.3723 151.939 21.2626 156.125 18.4445 156.818C17.6392 154.176 17.5205 150.36 17.3618 146.172C17.2021 141.984 13.7584 140.446 11.1669 140.539C8.57435 140.634 6.69133 139.633 5.08173 138.669C2.65784 142.994 7.25115 145.225 8.00256 147.38C8.75397 149.537 8.20214 151.942 6.30015 155.524C4.35526 154.873 2.78358 152.74 3.65075 149.279C3.85132 148.474 3.15679 148.013 2.55606 148.684C-0.691089 152.321 0.053339 157.537 5.13461 160.483C6.08261 168.16 14.0219 166.864 14.0219 166.864C14.0219 166.864 16.6214 169.131 20.1639 169.131C26.5564 169.131 34.345 163.435 44.1672 163.269C56.5651 163.06 57.7166 171.404 66.8314 171.766C74.6569 172.077 78.9997 167.317 78.9997 163.114C78.9997 161.022 77.5029 158.903 75.1478 158.903C71.3808 158.903 70.4976 162.915 72.3896 164.456C68.3861 165.668 64.5542 162.679 63.4635 159.5C67.4421 157.282 69.0856 152.841 74.3495 151.815C74.3495 157.616 84.0221 157.181 84.0221 149.991C84.0221 143.846 74.5511 141.714 65.2827 148.203C59.9549 151.933 53.0744 149.97 53.0615 142.409C59.8801 137.792 69.6035 128.222 69.6035 116.644C69.6035 101.993 56.2926 93.2646 43.1164 93.2656C36.3807 93.2666 29.6778 95.5478 24.8101 100.486Z" fill="white"/>
</mask>
<g mask="url(#mask6)">
<path fill-rule="evenodd" clip-rule="evenodd" d="M47.0737 103.008C44.1538 108.13 38.2842 106.829 32.698 105.004C25.9194 102.788 22.4707 103.846 22.4727 103.835C23.0295 101.203 23.5334 100.948 27.1148 99.6778C32.5414 97.7529 47.0737 103.008 47.0737 103.008Z" fill="#B91818"/>
</g>
<mask id="mask7" style="mask-type:alpha" maskUnits="userSpaceOnUse" x="0" y="93" width="85" height="79">
<path fill-rule="evenodd" clip-rule="evenodd" d="M24.8101 100.486C18.7658 106.618 20.1649 119.641 19.0243 125.913C20.1449 126.245 21.1608 126.397 22.3044 126.274C24.4039 130.254 24.6245 132.451 24.836 133.754C22.8542 135.155 23.444 135.961 24.9218 136.587C28.162 137.958 30.1897 141.453 30.2546 146.781C29.0501 148.973 27.0364 147.753 24.2822 149.787C21.3723 151.939 21.2626 156.125 18.4445 156.818C17.6392 154.176 17.5205 150.36 17.3618 146.172C17.2021 141.984 13.7584 140.446 11.1669 140.539C8.57435 140.634 6.69133 139.633 5.08173 138.669C2.65784 142.994 7.25115 145.225 8.00256 147.38C8.75397 149.537 8.20214 151.942 6.30015 155.524C4.35526 154.873 2.78358 152.74 3.65075 149.279C3.85132 148.474 3.15679 148.013 2.55606 148.684C-0.691089 152.321 0.053339 157.537 5.13461 160.483C6.08261 168.16 14.0219 166.864 14.0219 166.864C14.0219 166.864 16.6214 169.131 20.1639 169.131C26.5564 169.131 34.345 163.435 44.1672 163.269C56.5651 163.06 57.7166 171.404 66.8314 171.766C74.6569 172.077 78.9997 167.317 78.9997 163.114C78.9997 161.022 77.5029 158.903 75.1478 158.903C71.3808 158.903 70.4976 162.915 72.3896 164.456C68.3861 165.668 64.5542 162.679 63.4635 159.5C67.4421 157.282 69.0856 152.841 74.3495 151.815C74.3495 157.616 84.0221 157.181 84.0221 149.991C84.0221 143.846 74.5511 141.714 65.2827 148.203C59.9549 151.933 53.0744 149.97 53.0615 142.409C59.8801 137.792 69.6035 128.222 69.6035 116.644C69.6035 101.993 56.2926 93.2646 43.1164 93.2656C36.3807 93.2666 29.6778 95.5478 24.8101 100.486Z" fill="white"/>
</mask>
<g mask="url(#mask7)">
<path fill-rule="evenodd" clip-rule="evenodd" d="M5.94239 139.164C3.91167 143.447 12.9686 142.332 12.5614 147.763C12.0196 154.994 9.00193 162.655 15.589 165.7C21.4686 168.417 35.2705 159.06 41.6989 158.477C53.531 157.406 56.0576 166.986 65.2522 168.948C68.6131 169.665 72.3393 169.086 75.2691 167.374C77.0004 166.362 79.4084 163.676 77.9844 160.203C81.1008 159.008 78.173 172.701 76.3927 174.205C70.8943 178.847 62.5888 177.797 56.5676 174.807C52.2217 172.649 48.3299 169.65 43.3425 169.145C36.5278 168.456 34.9192 168.669 28.5706 170.126C17.4631 172.674 7.00914 170.925 8.27247 160.578C8.69358 157.126 10.0437 153.555 10.4589 150.103C10.5996 148.93 10.7103 146.974 9.99284 145.971C9.09873 144.721 3.3319 141.748 5.94239 139.164Z" fill="#B91818"/>
</g>
<mask id="mask8" style="mask-type:alpha" maskUnits="userSpaceOnUse" x="0" y="93" width="85" height="79">
<path fill-rule="evenodd" clip-rule="evenodd" d="M24.8101 100.486C18.7658 106.618 20.1649 119.641 19.0243 125.913C20.1449 126.245 21.1608 126.397 22.3044 126.274C24.4039 130.254 24.6245 132.451 24.836 133.754C22.8542 135.155 23.444 135.961 24.9218 136.587C28.162 137.958 30.1897 141.453 30.2546 146.781C29.0501 148.973 27.0364 147.753 24.2822 149.787C21.3723 151.939 21.2626 156.125 18.4445 156.818C17.6392 154.176 17.5205 150.36 17.3618 146.172C17.2021 141.984 13.7584 140.446 11.1669 140.539C8.57435 140.634 6.69133 139.633 5.08173 138.669C2.65784 142.994 7.25115 145.225 8.00256 147.38C8.75397 149.537 8.20214 151.942 6.30015 155.524C4.35526 154.873 2.78358 152.74 3.65075 149.279C3.85132 148.474 3.15679 148.013 2.55606 148.684C-0.691089 152.321 0.053339 157.537 5.13461 160.483C6.08261 168.16 14.0219 166.864 14.0219 166.864C14.0219 166.864 16.6214 169.131 20.1639 169.131C26.5564 169.131 34.345 163.435 44.1672 163.269C56.5651 163.06 57.7166 171.404 66.8314 171.766C74.6569 172.077 78.9997 167.317 78.9997 163.114C78.9997 161.022 77.5029 158.903 75.1478 158.903C71.3808 158.903 70.4976 162.915 72.3896 164.456C68.3861 165.668 64.5542 162.679 63.4635 159.5C67.4421 157.282 69.0856 152.841 74.3495 151.815C74.3495 157.616 84.0221 157.181 84.0221 149.991C84.0221 143.846 74.5511 141.714 65.2827 148.203C59.9549 151.933 53.0744 149.97 53.0615 142.409C59.8801 137.792 69.6035 128.222 69.6035 116.644C69.6035 101.993 56.2926 93.2646 43.1164 93.2656C36.3807 93.2666 29.6778 95.5478 24.8101 100.486Z" fill="white"/>
</mask>
<g mask="url(#mask8)">
<path fill-rule="evenodd" clip-rule="evenodd" d="M14.864 141.637C17.8257 145.414 15.2472 150.395 15.7142 154.648C16.0864 158.038 17.9654 159.931 21.3762 159.484C17.707 158.181 18.1461 155.538 17.8337 152.306C17.6711 150.626 17.3547 148.958 17.3937 147.264C17.4346 145.457 17.219 143.777 15.9816 142.372C15.6643 142.012 14.864 141.637 14.864 141.637Z" fill="#B91818"/>
</g>
<mask id="mask9" style="mask-type:alpha" maskUnits="userSpaceOnUse" x="0" y="93" width="85" height="79">
<path fill-rule="evenodd" clip-rule="evenodd" d="M24.8101 100.486C18.7658 106.618 20.1649 119.641 19.0243 125.913C20.1449 126.245 21.1608 126.397 22.3044 126.274C24.4039 130.254 24.6245 132.451 24.836 133.754C22.8542 135.155 23.444 135.961 24.9218 136.587C28.162 137.958 30.1897 141.453 30.2546 146.781C29.0501 148.973 27.0364 147.753 24.2822 149.787C21.3723 151.939 21.2626 156.125 18.4445 156.818C17.6392 154.176 17.5205 150.36 17.3618 146.172C17.2021 141.984 13.7584 140.446 11.1669 140.539C8.57435 140.634 6.69133 139.633 5.08173 138.669C2.65784 142.994 7.25115 145.225 8.00256 147.38C8.75397 149.537 8.20214 151.942 6.30015 155.524C4.35526 154.873 2.78358 152.74 3.65075 149.279C3.85132 148.474 3.15679 148.013 2.55606 148.684C-0.691089 152.321 0.053339 157.537 5.13461 160.483C6.08261 168.16 14.0219 166.864 14.0219 166.864C14.0219 166.864 16.6214 169.131 20.1639 169.131C26.5564 169.131 34.345 163.435 44.1672 163.269C56.5651 163.06 57.7166 171.404 66.8314 171.766C74.6569 172.077 78.9997 167.317 78.9997 163.114C78.9997 161.022 77.5029 158.903 75.1478 158.903C71.3808 158.903 70.4976 162.915 72.3896 164.456C68.3861 165.668 64.5542 162.679 63.4635 159.5C67.4421 157.282 69.0856 152.841 74.3495 151.815C74.3495 157.616 84.0221 157.181 84.0221 149.991C84.0221 143.846 74.5511 141.714 65.2827 148.203C59.9549 151.933 53.0744 149.97 53.0615 142.409C59.8801 137.792 69.6035 128.222 69.6035 116.644C69.6035 101.993 56.2926 93.2646 43.1164 93.2656C36.3807 93.2666 29.6778 95.5478 24.8101 100.486Z" fill="white"/>
</mask>
<g mask="url(#mask9)">
<path fill-rule="evenodd" clip-rule="evenodd" d="M77.9966 148.547C79.3438 149.348 78.9556 150.471 78.0125 151.092C77.6483 151.333 76.7312 151.03 76.8111 151.754C76.84 152.023 77.0176 152.187 77.2461 152.327C79.9056 153.947 81.625 148.766 77.9966 148.547Z" fill="#B91818"/>
</g>
<mask id="mask10" style="mask-type:alpha" maskUnits="userSpaceOnUse" x="0" y="93" width="85" height="79">
<path fill-rule="evenodd" clip-rule="evenodd" d="M24.8101 100.486C18.7658 106.618 20.1649 119.641 19.0243 125.913C20.1449 126.245 21.1608 126.397 22.3044 126.274C24.4039 130.254 24.6245 132.451 24.836 133.754C22.8542 135.155 23.444 135.961 24.9218 136.587C28.162 137.958 30.1897 141.453 30.2546 146.781C29.0501 148.973 27.0364 147.753 24.2822 149.787C21.3723 151.939 21.2626 156.125 18.4445 156.818C17.6392 154.176 17.5205 150.36 17.3618 146.172C17.2021 141.984 13.7584 140.446 11.1669 140.539C8.57435 140.634 6.69133 139.633 5.08173 138.669C2.65784 142.994 7.25115 145.225 8.00256 147.38C8.75397 149.537 8.20214 151.942 6.30015 155.524C4.35526 154.873 2.78358 152.74 3.65075 149.279C3.85132 148.474 3.15679 148.013 2.55606 148.684C-0.691089 152.321 0.053339 157.537 5.13461 160.483C6.08261 168.16 14.0219 166.864 14.0219 166.864C14.0219 166.864 16.6214 169.131 20.1639 169.131C26.5564 169.131 34.345 163.435 44.1672 163.269C56.5651 163.06 57.7166 171.404 66.8314 171.766C74.6569 172.077 78.9997 167.317 78.9997 163.114C78.9997 161.022 77.5029 158.903 75.1478 158.903C71.3808 158.903 70.4976 162.915 72.3896 164.456C68.3861 165.668 64.5542 162.679 63.4635 159.5C67.4421 157.282 69.0856 152.841 74.3495 151.815C74.3495 157.616 84.0221 157.181 84.0221 149.991C84.0221 143.846 74.5511 141.714 65.2827 148.203C59.9549 151.933 53.0744 149.97 53.0615 142.409C59.8801 137.792 69.6035 128.222 69.6035 116.644C69.6035 101.993 56.2926 93.2646 43.1164 93.2656C36.3807 93.2666 29.6778 95.5478 24.8101 100.486Z" fill="white"/>
</mask>
<g mask="url(#mask10)">
<path fill-rule="evenodd" clip-rule="evenodd" d="M74.2606 153.548C77.5058 156.214 80.8318 154.612 82.0512 151.917C84.052 147.494 80.3757 144.881 81.0463 145.149C81.2748 145.24 81.688 144.941 81.8546 144.966C82.6419 145.09 83.4253 145.652 83.9911 146.185C84.4821 146.646 84.9451 147.175 85.2604 147.771C86.9938 151.047 85.7833 155.948 81.9734 157.436C78.4019 158.832 74.8693 157.07 74.2606 153.548Z" fill="#B91818"/>
</g>
<mask id="mask11" style="mask-type:alpha" maskUnits="userSpaceOnUse" x="0" y="93" width="85" height="79">
<path fill-rule="evenodd" clip-rule="evenodd" d="M24.8101 100.486C18.7658 106.618 20.1649 119.641 19.0243 125.913C20.1449 126.245 21.1608 126.397 22.3044 126.274C24.4039 130.254 24.6245 132.451 24.836 133.754C22.8542 135.155 23.444 135.961 24.9218 136.587C28.162 137.958 30.1897 141.453 30.2546 146.781C29.0501 148.973 27.0364 147.753 24.2822 149.787C21.3723 151.939 21.2626 156.125 18.4445 156.818C17.6392 154.176 17.5205 150.36 17.3618 146.172C17.2021 141.984 13.7584 140.446 11.1669 140.539C8.57435 140.634 6.69133 139.633 5.08173 138.669C2.65784 142.994 7.25115 145.225 8.00256 147.38C8.75397 149.537 8.20214 151.942 6.30015 155.524C4.35526 154.873 2.78358 152.74 3.65075 149.279C3.85132 148.474 3.15679 148.013 2.55606 148.684C-0.691089 152.321 0.053339 157.537 5.13461 160.483C6.08261 168.16 14.0219 166.864 14.0219 166.864C14.0219 166.864 16.6214 169.131 20.1639 169.131C26.5564 169.131 34.345 163.435 44.1672 163.269C56.5651 163.06 57.7166 171.404 66.8314 171.766C74.6569 172.077 78.9997 167.317 78.9997 163.114C78.9997 161.022 77.5029 158.903 75.1478 158.903C71.3808 158.903 70.4976 162.915 72.3896 164.456C68.3861 165.668 64.5542 162.679 63.4635 159.5C67.4421 157.282 69.0856 152.841 74.3495 151.815C74.3495 157.616 84.0221 157.181 84.0221 149.991C84.0221 143.846 74.5511 141.714 65.2827 148.203C59.9549 151.933 53.0744 149.97 53.0615 142.409C59.8801 137.792 69.6035 128.222 69.6035 116.644C69.6035 101.993 56.2926 93.2646 43.1164 93.2656C36.3807 93.2666 29.6778 95.5478 24.8101 100.486Z" fill="white"/>
</mask>
<g mask="url(#mask11)">
<path fill-rule="evenodd" clip-rule="evenodd" d="M75.773 162.327C75.4277 161.818 74.831 161.712 74.6294 162.188C74.355 162.839 74.848 163.343 73.9439 163.726C73.4389 163.941 72.8282 163.921 72.3183 163.729C72.1606 163.669 71.996 163.596 71.8662 163.487C71.8184 163.446 71.7734 163.401 71.7325 163.352C71.7116 163.328 71.6776 163.243 71.6747 163.275C71.6487 163.479 71.7395 163.747 71.8373 163.924C72.4231 164.976 74.0646 165.296 75.0904 164.763C76.0344 164.273 76.2759 163.07 75.773 162.327Z" fill="#B91818"/>
</g>
<mask id="mask12" style="mask-type:alpha" maskUnits="userSpaceOnUse" x="0" y="93" width="85" height="79">
<path fill-rule="evenodd" clip-rule="evenodd" d="M24.8101 100.486C18.7658 106.618 20.1649 119.641 19.0243 125.913C20.1449 126.245 21.1608 126.397 22.3044 126.274C24.4039 130.254 24.6245 132.451 24.836 133.754C22.8542 135.155 23.444 135.961 24.9218 136.587C28.162 137.958 30.1897 141.453 30.2546 146.781C29.0501 148.973 27.0364 147.753 24.2822 149.787C21.3723 151.939 21.2626 156.125 18.4445 156.818C17.6392 154.176 17.5205 150.36 17.3618 146.172C17.2021 141.984 13.7584 140.446 11.1669 140.539C8.57435 140.634 6.69133 139.633 5.08173 138.669C2.65784 142.994 7.25115 145.225 8.00256 147.38C8.75397 149.537 8.20214 151.942 6.30015 155.524C4.35526 154.873 2.78358 152.74 3.65075 149.279C3.85132 148.474 3.15679 148.013 2.55606 148.684C-0.691089 152.321 0.053339 157.537 5.13461 160.483C6.08261 168.16 14.0219 166.864 14.0219 166.864C14.0219 166.864 16.6214 169.131 20.1639 169.131C26.5564 169.131 34.345 163.435 44.1672 163.269C56.5651 163.06 57.7166 171.404 66.8314 171.766C74.6569 172.077 78.9997 167.317 78.9997 163.114C78.9997 161.022 77.5029 158.903 75.1478 158.903C71.3808 158.903 70.4976 162.915 72.3896 164.456C68.3861 165.668 64.5542 162.679 63.4635 159.5C67.4421 157.282 69.0856 152.841 74.3495 151.815C74.3495 157.616 84.0221 157.181 84.0221 149.991C84.0221 143.846 74.5511 141.714 65.2827 148.203C59.9549 151.933 53.0744 149.97 53.0615 142.409C59.8801 137.792 69.6035 128.222 69.6035 116.644C69.6035 101.993 56.2926 93.2646 43.1164 93.2656C36.3807 93.2666 29.6778 95.5478 24.8101 100.486Z" fill="white"/>
</mask>
<g mask="url(#mask12)">
<path fill-rule="evenodd" clip-rule="evenodd" d="M29.9406 148.895C28.7601 149.579 27.7362 150.411 26.8052 151.412C24.6627 153.718 22.5941 157.4 19.2123 157.953C23.4802 158.848 26.8202 155.6 28.9756 152.085C29.6621 150.964 29.9406 148.895 29.9406 148.895Z" fill="#B91818"/>
</g>
<mask id="mask13" style="mask-type:alpha" maskUnits="userSpaceOnUse" x="0" y="93" width="85" height="79">
<path fill-rule="evenodd" clip-rule="evenodd" d="M24.8101 100.486C18.7658 106.618 20.1649 119.641 19.0243 125.913C20.1449 126.245 21.1608 126.397 22.3044 126.274C24.4039 130.254 24.6245 132.451 24.836 133.754C22.8542 135.155 23.444 135.961 24.9218 136.587C28.162 137.958 30.1897 141.453 30.2546 146.781C29.0501 148.973 27.0364 147.753 24.2822 149.787C21.3723 151.939 21.2626 156.125 18.4445 156.818C17.6392 154.176 17.5205 150.36 17.3618 146.172C17.2021 141.984 13.7584 140.446 11.1669 140.539C8.57435 140.634 6.69133 139.633 5.08173 138.669C2.65784 142.994 7.25115 145.225 8.00256 147.38C8.75397 149.537 8.20214 151.942 6.30015 155.524C4.35526 154.873 2.78358 152.74 3.65075 149.279C3.85132 148.474 3.15679 148.013 2.55606 148.684C-0.691089 152.321 0.053339 157.537 5.13461 160.483C6.08261 168.16 14.0219 166.864 14.0219 166.864C14.0219 166.864 16.6214 169.131 20.1639 169.131C26.5564 169.131 34.345 163.435 44.1672 163.269C56.5651 163.06 57.7166 171.404 66.8314 171.766C74.6569 172.077 78.9997 167.317 78.9997 163.114C78.9997 161.022 77.5029 158.903 75.1478 158.903C71.3808 158.903 70.4976 162.915 72.3896 164.456C68.3861 165.668 64.5542 162.679 63.4635 159.5C67.4421 157.282 69.0856 152.841 74.3495 151.815C74.3495 157.616 84.0221 157.181 84.0221 149.991C84.0221 143.846 74.5511 141.714 65.2827 148.203C59.9549 151.933 53.0744 149.97 53.0615 142.409C59.8801 137.792 69.6035 128.222 69.6035 116.644C69.6035 101.993 56.2926 93.2646 43.1164 93.2656C36.3807 93.2666 29.6778 95.5478 24.8101 100.486Z" fill="white"/>
</mask>
<g mask="url(#mask13)">
<path fill-rule="evenodd" clip-rule="evenodd" d="M3.38753 148.514C2.09423 149.817 1.73897 153.917 3.89946 158.231C4.18785 158.808 4.08307 160.027 3.66994 160.469C3.9274 160.608 4.88639 160.395 5.14385 160.535C5.09595 158.696 5.40531 157.177 6.17969 155.51C4.37446 154.856 3.78769 152.8 3.98827 151.11C4.08507 150.281 4.8345 147.056 3.38753 148.514Z" fill="#B91818"/>
</g>
<mask id="mask14" style="mask-type:alpha" maskUnits="userSpaceOnUse" x="0" y="93" width="85" height="79">
<path fill-rule="evenodd" clip-rule="evenodd" d="M24.8101 100.486C18.7658 106.618 20.1649 119.641 19.0243 125.913C20.1449 126.245 21.1608 126.397 22.3044 126.274C24.4039 130.254 24.6245 132.451 24.836 133.754C22.8542 135.155 23.444 135.961 24.9218 136.587C28.162 137.958 30.1897 141.453 30.2546 146.781C29.0501 148.973 27.0364 147.753 24.2822 149.787C21.3723 151.939 21.2626 156.125 18.4445 156.818C17.6392 154.176 17.5205 150.36 17.3618 146.172C17.2021 141.984 13.7584 140.446 11.1669 140.539C8.57435 140.634 6.69133 139.633 5.08173 138.669C2.65784 142.994 7.25115 145.225 8.00256 147.38C8.75397 149.537 8.20214 151.942 6.30015 155.524C4.35526 154.873 2.78358 152.74 3.65075 149.279C3.85132 148.474 3.15679 148.013 2.55606 148.684C-0.691089 152.321 0.053339 157.537 5.13461 160.483C6.08261 168.16 14.0219 166.864 14.0219 166.864C14.0219 166.864 16.6214 169.131 20.1639 169.131C26.5564 169.131 34.345 163.435 44.1672 163.269C56.5651 163.06 57.7166 171.404 66.8314 171.766C74.6569 172.077 78.9997 167.317 78.9997 163.114C78.9997 161.022 77.5029 158.903 75.1478 158.903C71.3808 158.903 70.4976 162.915 72.3896 164.456C68.3861 165.668 64.5542 162.679 63.4635 159.5C67.4421 157.282 69.0856 152.841 74.3495 151.815C74.3495 157.616 84.0221 157.181 84.0221 149.991C84.0221 143.846 74.5511 141.714 65.2827 148.203C59.9549 151.933 53.0744 149.97 53.0615 142.409C59.8801 137.792 69.6035 128.222 69.6035 116.644C69.6035 101.993 56.2926 93.2646 43.1164 93.2656C36.3807 93.2666 29.6778 95.5478 24.8101 100.486Z" fill="white"/>
</mask>
<g mask="url(#mask14)">
<path fill-rule="evenodd" clip-rule="evenodd" d="M62.2188 104.93C63.57 116.358 60.9166 124.962 53.2517 133.956C46.7764 141.555 42.5373 144.393 42.9694 148.899C43.4444 153.839 50.7311 150.77 58.9238 154.753C62.4853 156.484 63.7895 160.485 63.9093 160.516C65.9031 161.032 68.1463 158.349 69.6332 157.386C70.9504 156.533 74.1876 156.117 74.8911 154.725C75.2334 154.048 73.3344 152.122 75.3452 149.252C74.9101 149.17 74.1676 149.047 73.4362 149.098C70.3976 149.311 66.2314 151.097 63.4662 152.393C59.9307 154.046 54.062 152.224 56.6745 148.145C58.1335 145.868 52.4904 146.195 53.0641 142.412C54.6388 142.271 56.8941 141.696 60.3069 138.803C64.6317 135.137 73.532 122.911 71.5951 116.677L62.2188 104.93Z" fill="#B91818"/>
</g>
<mask id="mask15" style="mask-type:alpha" maskUnits="userSpaceOnUse" x="0" y="93" width="85" height="79">
<path fill-rule="evenodd" clip-rule="evenodd" d="M24.8101 100.486C18.7658 106.618 20.1649 119.641 19.0243 125.913C20.1449 126.245 21.1608 126.397 22.3044 126.274C24.4039 130.254 24.6245 132.451 24.836 133.754C22.8542 135.155 23.444 135.961 24.9218 136.587C28.162 137.958 30.1897 141.453 30.2546 146.781C29.0501 148.973 27.0364 147.753 24.2822 149.787C21.3723 151.939 21.2626 156.125 18.4445 156.818C17.6392 154.176 17.5205 150.36 17.3618 146.172C17.2021 141.984 13.7584 140.446 11.1669 140.539C8.57435 140.634 6.69133 139.633 5.08173 138.669C2.65784 142.994 7.25115 145.225 8.00256 147.38C8.75397 149.537 8.20214 151.942 6.30015 155.524C4.35526 154.873 2.78358 152.74 3.65075 149.279C3.85132 148.474 3.15679 148.013 2.55606 148.684C-0.691089 152.321 0.053339 157.537 5.13461 160.483C6.08261 168.16 14.0219 166.864 14.0219 166.864C14.0219 166.864 16.6214 169.131 20.1639 169.131C26.5564 169.131 34.345 163.435 44.1672 163.269C56.5651 163.06 57.7166 171.404 66.8314 171.766C74.6569 172.077 78.9997 167.317 78.9997 163.114C78.9997 161.022 77.5029 158.903 75.1478 158.903C71.3808 158.903 70.4976 162.915 72.3896 164.456C68.3861 165.668 64.5542 162.679 63.4635 159.5C67.4421 157.282 69.0856 152.841 74.3495 151.815C74.3495 157.616 84.0221 157.181 84.0221 149.991C84.0221 143.846 74.5511 141.714 65.2827 148.203C59.9549 151.933 53.0744 149.97 53.0615 142.409C59.8801 137.792 69.6035 128.222 69.6035 116.644C69.6035 101.993 56.2926 93.2646 43.1164 93.2656C36.3807 93.2666 29.6778 95.5478 24.8101 100.486Z" fill="white"/>
</mask>
<g mask="url(#mask15)">
<path fill-rule="evenodd" clip-rule="evenodd" d="M25.2893 100.508C23.1778 102.113 22.3375 105.41 21.8286 107.877C20.8706 112.523 21.0792 117.617 20.5832 122.368C20.4106 124.024 20.2888 125.785 19.6073 127.331C19.0844 127.162 18.5775 126.954 18.0605 126.767C18.5795 120.179 18.1963 113.07 20.6072 106.799C21.5312 104.395 25.2893 100.508 25.2893 100.508Z" fill="#FF6666"/>
</g>
<mask id="mask16" style="mask-type:alpha" maskUnits="userSpaceOnUse" x="0" y="93" width="85" height="79">
<path fill-rule="evenodd" clip-rule="evenodd" d="M24.8101 100.486C18.7658 106.618 20.1649 119.641 19.0243 125.913C20.1449 126.245 21.1608 126.397 22.3044 126.274C24.4039 130.254 24.6245 132.451 24.836 133.754C22.8542 135.155 23.444 135.961 24.9218 136.587C28.162 137.958 30.1897 141.453 30.2546 146.781C29.0501 148.973 27.0364 147.753 24.2822 149.787C21.3723 151.939 21.2626 156.125 18.4445 156.818C17.6392 154.176 17.5205 150.36 17.3618 146.172C17.2021 141.984 13.7584 140.446 11.1669 140.539C8.57435 140.634 6.69133 139.633 5.08173 138.669C2.65784 142.994 7.25115 145.225 8.00256 147.38C8.75397 149.537 8.20214 151.942 6.30015 155.524C4.35526 154.873 2.78358 152.74 3.65075 149.279C3.85132 148.474 3.15679 148.013 2.55606 148.684C-0.691089 152.321 0.053339 157.537 5.13461 160.483C6.08261 168.16 14.0219 166.864 14.0219 166.864C14.0219 166.864 16.6214 169.131 20.1639 169.131C26.5564 169.131 34.345 163.435 44.1672 163.269C56.5651 163.06 57.7166 171.404 66.8314 171.766C74.6569 172.077 78.9997 167.317 78.9997 163.114C78.9997 161.022 77.5029 158.903 75.1478 158.903C71.3808 158.903 70.4976 162.915 72.3896 164.456C68.3861 165.668 64.5542 162.679 63.4635 159.5C67.4421 157.282 69.0856 152.841 74.3495 151.815C74.3495 157.616 84.0221 157.181 84.0221 149.991C84.0221 143.846 74.5511 141.714 65.2827 148.203C59.9549 151.933 53.0744 149.97 53.0615 142.409C59.8801 137.792 69.6035 128.222 69.6035 116.644C69.6035 101.993 56.2926 93.2646 43.1164 93.2656C36.3807 93.2666 29.6778 95.5478 24.8101 100.486Z" fill="white"/>
</mask>
<g mask="url(#mask16)">
<path fill-rule="evenodd" clip-rule="evenodd" d="M24.6222 136.707C28.9301 137.833 31.1164 141.223 31.815 145.482C32.1612 147.588 32.1183 149.924 31.2671 151.917C30.5007 153.711 29.1047 155.118 27.6687 156.396C25.8306 158.035 20.8142 161.229 19.1278 157.846C26.3465 160.226 32.1463 149.909 30.0447 143.811C29.3532 141.803 27.9861 140.336 26.4683 138.917C25.7937 138.287 24.6222 136.707 24.6222 136.707Z" fill="#FF6666"/>
</g>
<mask id="mask17" style="mask-type:alpha" maskUnits="userSpaceOnUse" x="0" y="93" width="85" height="79">
<path fill-rule="evenodd" clip-rule="evenodd" d="M24.8101 100.486C18.7658 106.618 20.1649 119.641 19.0243 125.913C20.1449 126.245 21.1608 126.397 22.3044 126.274C24.4039 130.254 24.6245 132.451 24.836 133.754C22.8542 135.155 23.444 135.961 24.9218 136.587C28.162 137.958 30.1897 141.453 30.2546 146.781C29.0501 148.973 27.0364 147.753 24.2822 149.787C21.3723 151.939 21.2626 156.125 18.4445 156.818C17.6392 154.176 17.5205 150.36 17.3618 146.172C17.2021 141.984 13.7584 140.446 11.1669 140.539C8.57435 140.634 6.69133 139.633 5.08173 138.669C2.65784 142.994 7.25115 145.225 8.00256 147.38C8.75397 149.537 8.20214 151.942 6.30015 155.524C4.35526 154.873 2.78358 152.74 3.65075 149.279C3.85132 148.474 3.15679 148.013 2.55606 148.684C-0.691089 152.321 0.053339 157.537 5.13461 160.483C6.08261 168.16 14.0219 166.864 14.0219 166.864C14.0219 166.864 16.6214 169.131 20.1639 169.131C26.5564 169.131 34.345 163.435 44.1672 163.269C56.5651 163.06 57.7166 171.404 66.8314 171.766C74.6569 172.077 78.9997 167.317 78.9997 163.114C78.9997 161.022 77.5029 158.903 75.1478 158.903C71.3808 158.903 70.4976 162.915 72.3896 164.456C68.3861 165.668 64.5542 162.679 63.4635 159.5C67.4421 157.282 69.0856 152.841 74.3495 151.815C74.3495 157.616 84.0221 157.181 84.0221 149.991C84.0221 143.846 74.5511 141.714 65.2827 148.203C59.9549 151.933 53.0744 149.97 53.0615 142.409C59.8801 137.792 69.6035 128.222 69.6035 116.644C69.6035 101.993 56.2926 93.2646 43.1164 93.2656C36.3807 93.2666 29.6778 95.5478 24.8101 100.486Z" fill="white"/>
</mask>
<g mask="url(#mask17)">
<path fill-rule="evenodd" clip-rule="evenodd" d="M5.55062 140.25C7.16422 142.676 10.8914 141.996 12.7524 144.156C13.9579 145.553 13.885 147.461 13.6306 149.18C13.3751 150.906 13.0219 152.67 12.5189 154.342C12.0938 155.756 11.4891 157.116 11.2795 158.586C11.5081 155.126 13.449 148.172 11.8633 145.213C11.2147 144 9.92539 143.702 8.77183 143.153C8.15114 142.856 7.39274 142.527 6.83791 142.124C5.31412 141.019 5.55062 140.25 5.55062 140.25Z" fill="#FF6666"/>
</g>
<mask id="mask18" style="mask-type:alpha" maskUnits="userSpaceOnUse" x="0" y="93" width="85" height="79">
<path fill-rule="evenodd" clip-rule="evenodd" d="M24.8101 100.486C18.7658 106.618 20.1649 119.641 19.0243 125.913C20.1449 126.245 21.1608 126.397 22.3044 126.274C24.4039 130.254 24.6245 132.451 24.836 133.754C22.8542 135.155 23.444 135.961 24.9218 136.587C28.162 137.958 30.1897 141.453 30.2546 146.781C29.0501 148.973 27.0364 147.753 24.2822 149.787C21.3723 151.939 21.2626 156.125 18.4445 156.818C17.6392 154.176 17.5205 150.36 17.3618 146.172C17.2021 141.984 13.7584 140.446 11.1669 140.539C8.57435 140.634 6.69133 139.633 5.08173 138.669C2.65784 142.994 7.25115 145.225 8.00256 147.38C8.75397 149.537 8.20214 151.942 6.30015 155.524C4.35526 154.873 2.78358 152.74 3.65075 149.279C3.85132 148.474 3.15679 148.013 2.55606 148.684C-0.691089 152.321 0.053339 157.537 5.13461 160.483C6.08261 168.16 14.0219 166.864 14.0219 166.864C14.0219 166.864 16.6214 169.131 20.1639 169.131C26.5564 169.131 34.345 163.435 44.1672 163.269C56.5651 163.06 57.7166 171.404 66.8314 171.766C74.6569 172.077 78.9997 167.317 78.9997 163.114C78.9997 161.022 77.5029 158.903 75.1478 158.903C71.3808 158.903 70.4976 162.915 72.3896 164.456C68.3861 165.668 64.5542 162.679 63.4635 159.5C67.4421 157.282 69.0856 152.841 74.3495 151.815C74.3495 157.616 84.0221 157.181 84.0221 149.991C84.0221 143.846 74.5511 141.714 65.2827 148.203C59.9549 151.933 53.0744 149.97 53.0615 142.409C59.8801 137.792 69.6035 128.222 69.6035 116.644C69.6035 101.993 56.2926 93.2646 43.1164 93.2656C36.3807 93.2666 29.6778 95.5478 24.8101 100.486Z" fill="white"/>
</mask>
<g mask="url(#mask18)">
<path fill-rule="evenodd" clip-rule="evenodd" d="M5.30694 138.863C4.62737 140.894 4.83094 142.71 6.43954 144.184C7.0283 144.723 7.70088 145.183 8.16789 145.843C9.06599 147.113 9.44419 148.605 9.39031 150.146C9.32245 152.085 8.72771 153.859 7.86054 155.578C7.14805 156.992 6.28088 158.375 5.97652 159.951C5.67117 161.536 5.66917 163.655 6.84269 164.919C6.0354 164.174 5.49055 163.19 5.1832 162.141C3.68636 157.025 8.40838 153.476 8.23874 148.627C8.13097 145.544 4.35096 144.573 4.37191 141.501C4.38888 138.967 5.30694 138.863 5.30694 138.863Z" fill="#FF6666"/>
</g>
<mask id="mask19" style="mask-type:alpha" maskUnits="userSpaceOnUse" x="0" y="93" width="85" height="79">
<path fill-rule="evenodd" clip-rule="evenodd" d="M24.8101 100.486C18.7658 106.618 20.1649 119.641 19.0243 125.913C20.1449 126.245 21.1608 126.397 22.3044 126.274C24.4039 130.254 24.6245 132.451 24.836 133.754C22.8542 135.155 23.444 135.961 24.9218 136.587C28.162 137.958 30.1897 141.453 30.2546 146.781C29.0501 148.973 27.0364 147.753 24.2822 149.787C21.3723 151.939 21.2626 156.125 18.4445 156.818C17.6392 154.176 17.5205 150.36 17.3618 146.172C17.2021 141.984 13.7584 140.446 11.1669 140.539C8.57435 140.634 6.69133 139.633 5.08173 138.669C2.65784 142.994 7.25115 145.225 8.00256 147.38C8.75397 149.537 8.20214 151.942 6.30015 155.524C4.35526 154.873 2.78358 152.74 3.65075 149.279C3.85132 148.474 3.15679 148.013 2.55606 148.684C-0.691089 152.321 0.053339 157.537 5.13461 160.483C6.08261 168.16 14.0219 166.864 14.0219 166.864C14.0219 166.864 16.6214 169.131 20.1639 169.131C26.5564 169.131 34.345 163.435 44.1672 163.269C56.5651 163.06 57.7166 171.404 66.8314 171.766C74.6569 172.077 78.9997 167.317 78.9997 163.114C78.9997 161.022 77.5029 158.903 75.1478 158.903C71.3808 158.903 70.4976 162.915 72.3896 164.456C68.3861 165.668 64.5542 162.679 63.4635 159.5C67.4421 157.282 69.0856 152.841 74.3495 151.815C74.3495 157.616 84.0221 157.181 84.0221 149.991C84.0221 143.846 74.5511 141.714 65.2827 148.203C59.9549 151.933 53.0744 149.97 53.0615 142.409C59.8801 137.792 69.6035 128.222 69.6035 116.644C69.6035 101.993 56.2926 93.2646 43.1164 93.2656C36.3807 93.2666 29.6778 95.5478 24.8101 100.486Z" fill="white"/>
</mask>
<g mask="url(#mask19)">
<path fill-rule="evenodd" clip-rule="evenodd" d="M3.14031 148.02C0.580709 151.173 0.90303 156.941 3.92566 159.691C3.16726 159.196 2.37992 158.705 1.79415 158.003C0.2055 156.102 -0.0120418 153.08 0.854133 150.844C1.60854 148.898 3.14031 148.02 3.14031 148.02Z" fill="#FF6666"/>
</g>
<mask id="mask20" style="mask-type:alpha" maskUnits="userSpaceOnUse" x="0" y="93" width="85" height="79">
<path fill-rule="evenodd" clip-rule="evenodd" d="M24.8101 100.486C18.7658 106.618 20.1649 119.641 19.0243 125.913C20.1449 126.245 21.1608 126.397 22.3044 126.274C24.4039 130.254 24.6245 132.451 24.836 133.754C22.8542 135.155 23.444 135.961 24.9218 136.587C28.162 137.958 30.1897 141.453 30.2546 146.781C29.0501 148.973 27.0364 147.753 24.2822 149.787C21.3723 151.939 21.2626 156.125 18.4445 156.818C17.6392 154.176 17.5205 150.36 17.3618 146.172C17.2021 141.984 13.7584 140.446 11.1669 140.539C8.57435 140.634 6.69133 139.633 5.08173 138.669C2.65784 142.994 7.25115 145.225 8.00256 147.38C8.75397 149.537 8.20214 151.942 6.30015 155.524C4.35526 154.873 2.78358 152.74 3.65075 149.279C3.85132 148.474 3.15679 148.013 2.55606 148.684C-0.691089 152.321 0.053339 157.537 5.13461 160.483C6.08261 168.16 14.0219 166.864 14.0219 166.864C14.0219 166.864 16.6214 169.131 20.1639 169.131C26.5564 169.131 34.345 163.435 44.1672 163.269C56.5651 163.06 57.7166 171.404 66.8314 171.766C74.6569 172.077 78.9997 167.317 78.9997 163.114C78.9997 161.022 77.5029 158.903 75.1478 158.903C71.3808 158.903 70.4976 162.915 72.3896 164.456C68.3861 165.668 64.5542 162.679 63.4635 159.5C67.4421 157.282 69.0856 152.841 74.3495 151.815C74.3495 157.616 84.0221 157.181 84.0221 149.991C84.0221 143.846 74.5511 141.714 65.2827 148.203C59.9549 151.933 53.0744 149.97 53.0615 142.409C59.8801 137.792 69.6035 128.222 69.6035 116.644C69.6035 101.993 56.2926 93.2646 43.1164 93.2656C36.3807 93.2666 29.6778 95.5478 24.8101 100.486Z" fill="white"/>
</mask>
<g mask="url(#mask20)">
<path fill-rule="evenodd" clip-rule="evenodd" d="M63.3362 149.418C65.6014 149.278 67.7439 148.123 69.8015 147.257C72.897 145.953 77.9703 144.232 81.2983 145.78C80.8642 145.137 80.3213 144.61 79.6627 144.201C78.8155 143.676 77.8406 143.373 76.8487 143.283C74.294 143.051 72.4819 144.466 70.2905 145.508C68.8685 146.186 67.3986 146.788 66.0395 147.59C65.1024 148.143 64.2592 149.021 63.2404 149.422" fill="#FF6666"/>
</g>
<mask id="mask21" style="mask-type:alpha" maskUnits="userSpaceOnUse" x="0" y="93" width="85" height="79">
<path fill-rule="evenodd" clip-rule="evenodd" d="M24.8101 100.486C18.7658 106.618 20.1649 119.641 19.0243 125.913C20.1449 126.245 21.1608 126.397 22.3044 126.274C24.4039 130.254 24.6245 132.451 24.836 133.754C22.8542 135.155 23.444 135.961 24.9218 136.587C28.162 137.958 30.1897 141.453 30.2546 146.781C29.0501 148.973 27.0364 147.753 24.2822 149.787C21.3723 151.939 21.2626 156.125 18.4445 156.818C17.6392 154.176 17.5205 150.36 17.3618 146.172C17.2021 141.984 13.7584 140.446 11.1669 140.539C8.57435 140.634 6.69133 139.633 5.08173 138.669C2.65784 142.994 7.25115 145.225 8.00256 147.38C8.75397 149.537 8.20214 151.942 6.30015 155.524C4.35526 154.873 2.78358 152.74 3.65075 149.279C3.85132 148.474 3.15679 148.013 2.55606 148.684C-0.691089 152.321 0.053339 157.537 5.13461 160.483C6.08261 168.16 14.0219 166.864 14.0219 166.864C14.0219 166.864 16.6214 169.131 20.1639 169.131C26.5564 169.131 34.345 163.435 44.1672 163.269C56.5651 163.06 57.7166 171.404 66.8314 171.766C74.6569 172.077 78.9997 167.317 78.9997 163.114C78.9997 161.022 77.5029 158.903 75.1478 158.903C71.3808 158.903 70.4976 162.915 72.3896 164.456C68.3861 165.668 64.5542 162.679 63.4635 159.5C67.4421 157.282 69.0856 152.841 74.3495 151.815C74.3495 157.616 84.0221 157.181 84.0221 149.991C84.0221 143.846 74.5511 141.714 65.2827 148.203C59.9549 151.933 53.0744 149.97 53.0615 142.409C59.8801 137.792 69.6035 128.222 69.6035 116.644C69.6035 101.993 56.2926 93.2646 43.1164 93.2656C36.3807 93.2666 29.6778 95.5478 24.8101 100.486Z" fill="white"/>
</mask>
<g mask="url(#mask21)">
<path fill-rule="evenodd" clip-rule="evenodd" d="M18.7031 157.215C21.4414 156.814 22.7915 152.235 24.7583 150.569C25.7492 149.731 26.8848 149.266 28.0125 148.665C28.0414 148.649 28.0713 148.633 28.1013 148.617C28.3747 148.47 28.6401 148.3 28.8926 148.121C28.9475 148.083 29.5971 147.544 29.5821 147.533C28.8337 146.994 26.4228 147.941 25.6954 148.332C23.7924 149.356 22.3554 150.846 21.3186 152.728C20.4704 154.268 20.0992 156.196 18.3708 156.91C18.4936 157.026 18.7031 157.215 18.7031 157.215Z" fill="#EF8EAC"/>
</g>
<path fill-rule="evenodd" clip-rule="evenodd" d="M22.3042 126.274C21.1606 126.396 20.1448 126.245 19.0241 125.912C20.1647 119.642 18.7657 106.618 24.8099 100.486C39.2015 85.8878 69.6034 94.5046 69.6034 116.644C69.6034 128.221 59.8799 137.791 53.0613 142.408C53.0743 149.97 59.9547 151.932 65.2825 148.202C74.5509 141.714 84.0219 143.845 84.0219 149.99C84.0219 157.18 74.3493 157.615 74.3493 151.815C69.0854 152.84 67.4419 157.282 63.4633 159.499C64.554 162.679 68.3859 165.667 72.3895 164.456C70.4975 162.914 71.3816 158.903 75.1477 158.903C77.5027 158.903 78.9995 161.022 78.9995 163.114C78.9995 167.318 74.6567 172.077 66.8312 171.765C57.7165 171.403 56.5649 163.06 44.1671 163.268C34.3448 163.434 26.5572 169.131 20.1637 169.131C16.6212 169.131 14.0217 166.864 14.0217 166.864C14.0217 166.864 6.08246 168.159 5.13346 160.482C0.0531874 157.537 -0.691241 152.322 2.5569 148.684C3.15664 148.013 3.85217 148.474 3.65059 149.279C2.78342 152.739 4.3561 154.873 6.299 155.524C8.20198 151.941 8.75382 149.536 8.00241 147.38C7.25099 145.224 2.65869 142.993 5.08157 138.669C6.69117 139.632 8.5742 140.633 11.1667 140.538C13.7593 140.446 17.202 141.983 17.3616 146.171C17.5213 150.36 17.6401 154.176 18.4444 156.818C21.2624 156.124 21.3732 151.938 24.282 149.787C27.0362 147.752 29.05 148.973 30.2544 146.78C30.1896 141.451 28.1628 137.958 24.9217 136.587C23.4438 135.961 22.8541 135.155 24.8359 133.754C24.6253 132.45 24.4038 130.253 22.3042 126.274Z" stroke="#010000" stroke-width="0.547" stroke-linecap="round" stroke-linejoin="round"/>
<path fill-rule="evenodd" clip-rule="evenodd" d="M22.3071 126.274C25.8347 126.05 29.2994 124.469 30.892 122.902C31.343 123.024 31.8769 123.112 32.1623 123.102C32.4687 126.244 29.6686 132.945 24.4296 134.976C24.6182 134.908 24.6512 134.909 24.8667 134.794C24.9535 132.343 23.8289 128.662 22.3071 126.274Z" fill="#010000"/>
<mask id="mask22" style="mask-type:alpha" maskUnits="userSpaceOnUse" x="22" y="122" width="11" height="13">
<path fill-rule="evenodd" clip-rule="evenodd" d="M22.3105 126.274C23.8323 128.661 24.957 132.342 24.8701 134.793C29.8277 132.571 32.4641 126.155 32.1658 123.102C31.8804 123.112 31.3465 123.024 30.8954 122.902C29.3028 124.47 25.8381 126.051 22.3105 126.274ZM24.436 134.978C24.6237 134.91 24.6577 134.911 24.8734 134.796V134.795C24.7296 134.859 24.5838 134.92 24.436 134.978Z" fill="white"/>
</mask>
<g mask="url(#mask22)">
<path fill-rule="evenodd" clip-rule="evenodd" d="M22.3513 125.155C22.6048 126.33 23.7274 128.615 25.4558 128.381C27.9076 128.049 32.8771 125.958 35.5065 122.12C39.8583 115.771 21.3305 120.435 22.3513 125.155Z" fill="white"/>
</g>
<mask id="mask23" style="mask-type:alpha" maskUnits="userSpaceOnUse" x="22" y="122" width="11" height="13">
<path fill-rule="evenodd" clip-rule="evenodd" d="M22.3105 126.274C23.8323 128.661 24.957 132.342 24.8701 134.793C29.8277 132.571 32.4641 126.155 32.1658 123.102C31.8804 123.112 31.3465 123.024 30.8954 122.902C29.3028 124.47 25.8381 126.051 22.3105 126.274ZM24.436 134.978C24.6237 134.91 24.6577 134.911 24.8734 134.796V134.795C24.7296 134.859 24.5838 134.92 24.436 134.978Z" fill="white"/>
</mask>
<g mask="url(#mask23)">
<path fill-rule="evenodd" clip-rule="evenodd" d="M25.5156 135.517C24.3321 133.998 27.5433 128.32 34.5745 127.792C41.6056 127.265 27.4725 138.03 25.5156 135.517Z" fill="#EF8EAC"/>
</g>
<path fill-rule="evenodd" clip-rule="evenodd" d="M22.3105 126.278C25.8381 126.054 29.3028 124.473 30.8954 122.906C31.3465 123.028 31.8803 123.116 32.1657 123.106C32.4721 126.248 29.672 132.949 24.4331 134.98C24.6217 134.912 24.6546 134.913 24.8701 134.798C24.957 132.347 23.8323 128.666 22.3105 126.278Z" stroke="#010000" stroke-width="0.547" stroke-linecap="round" stroke-linejoin="round"/>
<path fill-rule="evenodd" clip-rule="evenodd" d="M29.1005 101.882C29.7751 101.347 30.6492 100.846 31.5863 100.51C32.3566 100.234 33.1709 100.142 33.9932 100.336C34.6827 100.498 35.3763 100.857 36.0648 101.566C36.6286 102.147 37.2154 102.884 37.7602 103.892C37.9349 104.289 38.3969 104.469 38.7941 104.296C39.1902 104.122 39.3708 103.658 39.1972 103.262C38.6324 101.638 37.9399 100.469 37.1765 99.6463C36.3542 98.7612 35.4322 98.2692 34.5211 98.0617C33.4723 97.8222 32.4125 97.9549 31.4436 98.3311C30.0884 98.856 28.9029 99.8309 28.0537 100.762C27.7444 101.051 27.7284 101.536 28.0168 101.846C28.3062 102.154 28.7912 102.171 29.1005 101.882Z" fill="#010000"/>
<path fill-rule="evenodd" clip-rule="evenodd" d="M29.4755 122.132C29.7359 122.487 30.0952 122.767 30.5262 122.972C30.7867 123.095 31.0731 123.189 31.3745 123.25C31.4892 123.273 31.606 123.29 31.7247 123.302C31.8974 123.319 32.074 123.326 32.2516 123.323C32.6807 123.316 33.1148 123.261 33.5419 123.177C33.6207 123.168 33.6766 123.096 33.6676 123.018C33.6587 122.939 33.5878 122.882 33.509 122.892C33.2605 122.899 33.012 122.892 32.7645 122.879C32.5161 122.865 32.2726 122.839 32.0331 122.807C31.8714 122.785 31.7127 122.758 31.5561 122.73C31.3964 122.701 31.2397 122.672 31.0881 122.634C30.8775 122.582 30.6759 122.522 30.4873 122.443C30.186 122.317 29.9155 122.16 29.698 121.942C29.6451 121.88 29.5533 121.873 29.4914 121.925C29.4306 121.978 29.4226 122.07 29.4755 122.132Z" fill="#010000"/>
<path fill-rule="evenodd" clip-rule="evenodd" d="M29.6621 105.601C29.3587 105.739 29.0494 105.985 28.747 106.315C28.5644 106.514 28.3858 106.745 28.2171 106.996C28.1523 107.093 28.0904 107.192 28.0305 107.295C27.9437 107.445 27.8599 107.599 27.7811 107.759C27.5895 108.143 27.4208 108.545 27.2711 108.948C27.2402 109.02 27.2522 109.09 27.2971 109.102C27.343 109.115 27.4039 109.067 27.4358 108.994C27.5436 108.771 27.6603 108.552 27.7801 108.334C27.8988 108.117 28.0225 107.907 28.1493 107.701C28.2341 107.562 28.3199 107.429 28.4057 107.297C28.4936 107.162 28.5804 107.03 28.6682 106.906C28.7909 106.731 28.9137 106.568 29.0404 106.421C29.243 106.185 29.4475 105.987 29.6601 105.851C29.716 105.82 29.7619 105.739 29.7629 105.67C29.7629 105.601 29.718 105.571 29.6621 105.601Z" fill="#010000"/>
<path fill-rule="evenodd" clip-rule="evenodd" d="M33.0818 105.285C33.5169 105.356 33.929 105.549 34.3072 105.841C34.5347 106.017 34.7473 106.229 34.9399 106.47C35.0127 106.562 35.0806 106.657 35.1454 106.758C35.2392 106.905 35.3251 107.059 35.4029 107.218C35.5925 107.603 35.7402 108.016 35.8579 108.435C35.8859 108.509 35.8479 108.591 35.7741 108.619C35.6993 108.647 35.6174 108.609 35.5895 108.535C35.4837 108.31 35.364 108.092 35.2402 107.877C35.1155 107.662 34.9818 107.457 34.8441 107.258C34.7513 107.123 34.6545 106.995 34.5587 106.868C34.4609 106.739 34.3631 106.613 34.2613 106.494C34.1196 106.33 33.9739 106.178 33.8183 106.046C33.5688 105.834 33.3064 105.665 33.013 105.57C32.9351 105.551 32.8862 105.472 32.9052 105.393C32.9242 105.314 33.003 105.266 33.0818 105.285Z" fill="#010000"/>
<path fill-rule="evenodd" clip-rule="evenodd" d="M30.8343 106.355C33.5286 105.693 36.8835 107.867 36.8306 108.29C35.9674 109.9 35.9804 111.113 35.9804 111.113C35.9804 111.113 28.597 106.905 30.8343 106.355Z" fill="#010000"/>
<path fill-rule="evenodd" clip-rule="evenodd" d="M30.8343 106.355C33.5286 105.693 36.8835 107.867 36.8306 108.29C35.9674 109.9 35.9804 111.113 35.9804 111.113C35.9804 111.113 28.597 106.905 30.8343 106.355Z" stroke="black" stroke-width="0.547" stroke-linecap="round" stroke-linejoin="round"/>
<path fill-rule="evenodd" clip-rule="evenodd" d="M36.1222 114.515C35.3129 118.452 32.3252 121.169 29.4522 120.58C26.5803 119.99 24.9048 116.315 25.7141 112.376C26.5224 108.439 29.5111 105.721 32.3831 106.311C35.256 106.902 36.9315 110.577 36.1222 114.515Z" fill="white"/>
<mask id="mask24" style="mask-type:alpha" maskUnits="userSpaceOnUse" x="25" y="106" width="12" height="15">
<path fill-rule="evenodd" clip-rule="evenodd" d="M25.7181 112.376C24.9088 116.315 26.5853 119.99 29.4572 120.58C32.3292 121.17 35.3169 118.453 36.1262 114.515C36.9345 110.577 35.26 106.901 32.388 106.311C32.1236 106.257 31.8602 106.23 31.5957 106.23C28.9852 106.231 26.4525 108.801 25.7181 112.376Z" fill="white"/>
</mask>
<g mask="url(#mask24)">
<path fill-rule="evenodd" clip-rule="evenodd" d="M33.0429 115.491C33.1816 118.628 31.4692 121.254 29.222 121.354C26.9747 121.454 25.0388 118.987 24.8991 115.851C24.7614 112.713 26.4728 110.086 28.72 109.987C30.9673 109.888 32.9042 112.354 33.0429 115.491Z" fill="#010000"/>
</g>
<mask id="mask25" style="mask-type:alpha" maskUnits="userSpaceOnUse" x="25" y="106" width="12" height="15">
<path fill-rule="evenodd" clip-rule="evenodd" d="M25.7181 112.376C24.9088 116.315 26.5853 119.99 29.4572 120.58C32.3292 121.17 35.3169 118.453 36.1262 114.515C36.9345 110.577 35.26 106.901 32.388 106.311C32.1236 106.257 31.8602 106.23 31.5957 106.23C28.9852 106.231 26.4525 108.801 25.7181 112.376Z" fill="white"/>
</mask>
<g mask="url(#mask25)">
<path fill-rule="evenodd" clip-rule="evenodd" d="M33.0429 115.491C33.1816 118.628 31.4692 121.254 29.222 121.354C26.9747 121.454 25.0388 118.987 24.8991 115.851C24.7614 112.713 26.4728 110.086 28.72 109.987C30.9673 109.888 32.9042 112.354 33.0429 115.491Z" stroke="#010000" stroke-width="0.381" stroke-linecap="round" stroke-linejoin="round"/>
</g>
<mask id="mask26" style="mask-type:alpha" maskUnits="userSpaceOnUse" x="25" y="106" width="12" height="15">
<path fill-rule="evenodd" clip-rule="evenodd" d="M25.7181 112.376C24.9088 116.315 26.5853 119.99 29.4572 120.58C32.3292 121.17 35.3169 118.453 36.1262 114.515C36.9345 110.577 35.26 106.901 32.388 106.311C32.1236 106.257 31.8602 106.23 31.5957 106.23C28.9852 106.231 26.4525 108.801 25.7181 112.376Z" fill="white"/>
</mask>
<g mask="url(#mask26)">
<path d="M31.5817 115.492C32.5068 120.723 26.7918 121.984 25.5145 117.067" stroke="#8E1913" stroke-width="1.428" stroke-linecap="round" stroke-linejoin="round"/>
</g>
<path fill-rule="evenodd" clip-rule="evenodd" d="M36.1268 114.515C35.3175 118.452 32.3298 121.169 29.4569 120.58C26.5849 119.99 24.9095 116.315 25.7188 112.376C26.5271 108.439 29.5158 105.721 32.3877 106.311C35.2606 106.902 36.9361 110.577 36.1268 114.515Z" stroke="#010000" stroke-width="0.547" stroke-linecap="round" stroke-linejoin="round"/>
<path fill-rule="evenodd" clip-rule="evenodd" d="M28.7228 112.749C28.7228 113.467 28.2677 114.05 27.7089 114.05C27.1491 114.05 26.6941 113.467 26.6941 112.749C26.6941 112.032 27.1491 111.449 27.7089 111.449C28.2677 111.449 28.7228 112.032 28.7228 112.749Z" fill="white"/>
<path fill-rule="evenodd" clip-rule="evenodd" d="M31.206 118.16C31.206 118.55 30.9394 118.867 30.6119 118.867C30.2844 118.867 30.0178 118.55 30.0178 118.16C30.0178 117.771 30.2844 117.453 30.6119 117.453C30.9394 117.453 31.206 117.771 31.206 118.16Z" fill="white"/>
<path fill-rule="evenodd" clip-rule="evenodd" d="M18.1961 156.908C18.7599 158.532 19.7518 159.364 20.9653 159.594C22.51 159.886 24.4559 159.17 26.3948 157.769C27.9974 156.606 29.2508 155.26 30.4502 154.094C30.7326 153.82 31.012 153.557 31.2904 153.306C31.5798 153.043 31.8672 152.795 32.1626 152.568C32.6755 152.175 33.2034 151.843 33.7872 151.615C33.865 151.589 33.9059 151.505 33.88 151.428C33.853 151.351 33.7692 151.31 33.6924 151.336C33.3072 151.447 32.938 151.597 32.5807 151.784C32.0668 152.052 31.5758 152.391 31.0959 152.781C30.5849 153.196 30.089 153.673 29.5771 154.172C28.5303 155.192 27.4296 156.323 26.0625 157.31C24.2753 158.607 22.495 159.312 21.069 159.046C20.0273 158.851 19.199 158.118 18.712 156.729C18.6621 156.586 18.5065 156.511 18.3638 156.561C18.2211 156.611 18.1462 156.766 18.1961 156.908Z" fill="#010000"/>
<path d="M4.87083 160.496C4.87594 160.647 5.00246 160.766 5.15343 160.76C5.30439 160.755 5.42262 160.629 5.41751 160.478L4.87083 160.496ZM6.54629 155.657C6.61715 155.523 6.56644 155.358 6.43304 155.287C6.29964 155.216 6.13406 155.267 6.0632 155.4L6.54629 155.657ZM6.87039 139.936C7.0019 140.011 7.16875 139.964 7.24306 139.833C7.31737 139.701 7.27101 139.534 7.1395 139.46L6.87039 139.936ZM6.43714 141.825L6.6125 141.615L6.61249 141.615L6.43714 141.825ZM12.5692 147.901L12.2957 147.9V147.9L12.5692 147.901ZM13.8455 167.072C13.9574 167.173 14.1304 167.164 14.2318 167.053C14.3333 166.941 14.3247 166.768 14.2128 166.666L13.8455 167.072ZM18.9769 157.42C18.8584 157.327 18.6864 157.347 18.5927 157.465C18.4991 157.584 18.5193 157.756 18.6379 157.849L18.9769 157.42ZM30.5334 146.775C30.5268 146.624 30.3991 146.507 30.2482 146.514C30.0973 146.52 29.9803 146.648 29.9869 146.799L30.5334 146.775ZM5.41751 160.478C5.37007 159.077 5.68475 157.279 6.54629 155.657L6.0632 155.4C5.15244 157.115 4.82047 159.009 4.87083 160.496L5.41751 160.478ZM7.1395 139.46C6.67379 139.197 6.25216 139.092 5.90361 139.162C5.53161 139.236 5.29499 139.501 5.21472 139.841C5.13813 140.165 5.20291 140.548 5.37629 140.921C5.55164 141.299 5.84628 141.688 6.2618 142.035L6.61249 141.615C6.25214 141.314 6.01041 140.988 5.87248 140.691C5.73258 140.39 5.70718 140.135 5.74709 139.966C5.78333 139.813 5.86991 139.726 6.01138 139.698C6.17632 139.665 6.45846 139.704 6.87039 139.936L7.1395 139.46ZM6.26179 142.035C6.91119 142.577 7.63235 142.954 8.33139 143.28C9.04124 143.611 9.70737 143.882 10.3057 144.229C10.8955 144.571 11.3885 144.97 11.7362 145.532C12.0832 146.093 12.3003 146.839 12.2957 147.9L12.8427 147.902C12.8476 146.763 12.6138 145.911 12.2014 145.244C11.7896 144.579 11.2147 144.124 10.5799 143.756C9.95374 143.393 9.23872 143.1 8.56271 142.784C7.87589 142.464 7.20647 142.111 6.6125 141.615L6.26179 142.035ZM12.2957 147.9C12.2863 150.185 12.0122 152.178 11.6946 153.969C11.379 155.749 11.0132 157.363 10.8337 158.837C10.6529 160.321 10.6538 161.707 11.0827 163.063C11.5125 164.423 12.3643 165.729 13.8455 167.072L14.2128 166.666C12.7876 165.375 11.999 164.147 11.6042 162.898C11.2085 161.647 11.2006 160.349 11.3767 158.903C11.554 157.447 11.9108 155.883 12.2332 154.065C12.5537 152.257 12.8332 150.231 12.8427 147.902L12.2957 147.9ZM18.6379 157.849C19.5225 158.548 20.7545 158.648 22.0464 158.333C23.343 158.016 24.7431 157.273 26.0218 156.216C28.5768 154.104 30.7042 150.689 30.5334 146.775L29.9869 146.799C30.1483 150.497 28.135 153.759 25.6733 155.794C24.4438 156.811 23.1166 157.508 21.9166 157.801C20.7119 158.096 19.6779 157.974 18.9769 157.42L18.6379 157.849Z" fill="#010000"/>
<path fill-rule="evenodd" clip-rule="evenodd" d="M49.8587 152.528C50.2259 152.622 50.6031 152.713 50.9913 152.796C51.3615 152.876 51.7407 152.952 52.1259 153.026C52.6208 153.121 53.1258 153.214 53.6357 153.314C55.4359 153.668 57.2989 154.132 58.9994 155.118C60.6149 156.056 62.0868 157.452 63.2264 159.63C63.2953 159.764 63.4599 159.816 63.5936 159.746C63.7274 159.677 63.7793 159.512 63.7094 159.378C62.5209 157.086 60.9792 155.613 59.2828 154.63C57.5245 153.611 55.6025 153.103 53.7355 152.776C53.2196 152.686 52.7076 152.611 52.2047 152.545C51.8155 152.493 51.4323 152.448 51.0561 152.403C50.666 152.356 50.2838 152.313 49.9125 152.261C49.8377 152.246 49.7669 152.294 49.7519 152.367C49.7369 152.442 49.7848 152.513 49.8587 152.528Z" fill="#010000"/>
<path fill-rule="evenodd" clip-rule="evenodd" d="M52.8932 142.204C52.3643 142.643 51.9203 143.084 51.569 143.626C51.4433 143.819 51.3275 144.025 51.2287 144.249C51.1668 144.389 51.105 144.534 51.0621 144.69C51.0221 144.837 50.9932 144.989 50.9742 145.151C50.9623 145.254 50.9583 145.354 50.9533 145.462C50.9363 145.536 50.9812 145.609 51.0551 145.626C51.1279 145.643 51.2018 145.598 51.2187 145.526C51.2626 145.431 51.3075 145.347 51.3495 145.258C51.4143 145.12 51.4792 144.994 51.5381 144.865C51.5999 144.732 51.6548 144.602 51.7167 144.478C51.8135 144.282 51.9163 144.099 52.03 143.927C52.3554 143.433 52.7585 143.027 53.2425 142.623C53.3583 142.527 53.3742 142.354 53.2774 142.239C53.1816 142.123 53.009 142.108 52.8932 142.204Z" fill="#010000"/>
<path fill-rule="evenodd" clip-rule="evenodd" d="M74.6303 151.816C74.6333 150.941 74.9367 150.157 75.4586 149.591C75.9825 149.024 76.7269 148.679 77.6041 148.681C79.0121 148.679 79.6817 149.417 79.7965 150.242C79.8374 150.537 79.8074 150.84 79.7226 151.121C79.6648 151.314 79.5829 151.495 79.4761 151.658C79.3115 151.908 79.0989 152.117 78.8245 152.242C78.6459 152.323 78.4513 152.38 78.2298 152.386C78.1659 152.382 78.11 152.431 78.106 152.495C78.102 152.56 78.1499 152.615 78.2148 152.62C78.5471 152.673 78.8525 152.631 79.1279 152.522C79.4243 152.405 79.6767 152.203 79.8783 151.952C80.036 151.758 80.1557 151.531 80.2395 151.29C80.3633 150.935 80.4012 150.546 80.3533 150.168C80.2196 149.113 79.4013 148.112 77.6041 148.109C76.5563 148.111 75.6682 148.53 75.0455 149.212C74.4377 149.877 74.0815 150.793 74.0845 151.816C74.0845 151.966 74.2072 152.088 74.3579 152.088C74.5076 152.088 74.6303 151.966 74.6303 151.816Z" fill="#010000"/>
<path fill-rule="evenodd" clip-rule="evenodd" d="M72.1603 164.63C73.3249 165.555 74.4855 165.418 75.2628 164.872C75.7558 164.526 76.1021 164.011 76.1939 163.492C76.2258 163.314 76.2288 163.135 76.1969 162.964C76.1739 162.84 76.14 162.72 76.0821 162.609C75.9623 162.375 75.7777 162.17 75.5023 162.02C75.4424 161.978 75.3616 161.993 75.3197 162.052C75.2788 162.112 75.2928 162.193 75.3526 162.234C75.4973 162.363 75.5871 162.509 75.65 162.66C75.6979 162.776 75.7159 162.896 75.7209 163.018C75.7258 163.139 75.7059 163.259 75.675 163.382C75.634 163.541 75.5652 163.696 75.4724 163.845C75.3397 164.057 75.157 164.251 74.9375 164.404C74.3228 164.831 73.4197 164.922 72.4986 164.201C72.3799 164.109 72.2082 164.13 72.1154 164.247C72.0216 164.365 72.0426 164.538 72.1603 164.63Z" fill="#010000"/>
<path fill-rule="evenodd" clip-rule="evenodd" d="M69.7843 117.862C66.4389 108.88 43.7722 97.2863 25.843 98.778C27.5764 95.1761 37.0556 83.0625 53.814 89.8898C71.1545 96.9544 71.7349 112.006 69.7843 117.862Z" fill="#FEFEFE"/>
<mask id="mask27" style="mask-type:alpha" maskUnits="userSpaceOnUse" x="25" y="87" width="46" height="31">
<path fill-rule="evenodd" clip-rule="evenodd" d="M25.8433 98.7779C43.7724 97.2862 66.439 108.88 69.7844 117.862C71.735 112.006 71.1546 96.9543 53.8141 89.8899C50.2413 88.4343 47.0011 87.8397 44.0945 87.8398C33.3676 87.8408 27.207 95.944 25.8433 98.7779Z" fill="white"/>
</mask>
<g mask="url(#mask27)">
<path fill-rule="evenodd" clip-rule="evenodd" d="M29.4044 95.8891C27.5432 96.081 25.3943 96.433 23.1733 96.8664C25.6262 94.449 27.8561 92.2515 29.8921 90.2449C31.7564 89.9365 33.4834 89.7537 35.083 89.6914C33.3258 91.6255 31.5002 93.5847 29.4044 95.8891Z" fill="#75151E"/>
</g>
<mask id="mask28" style="mask-type:alpha" maskUnits="userSpaceOnUse" x="25" y="87" width="46" height="31">
<path fill-rule="evenodd" clip-rule="evenodd" d="M25.8433 98.7779C43.7724 97.2862 66.439 108.88 69.7844 117.862C71.735 112.006 71.1546 96.9543 53.8141 89.8899C50.2413 88.4343 47.0011 87.8397 44.0945 87.8398C33.3676 87.8408 27.207 95.944 25.8433 98.7779Z" fill="white"/>
</mask>
<g mask="url(#mask28)">
<path fill-rule="evenodd" clip-rule="evenodd" d="M35.0999 93.7137C34.7202 93.9291 34.3963 94.0355 34.1634 94.0225C33.6012 93.9901 33.782 93.2762 34.5476 92.414C35.2854 91.5832 36.2751 90.9629 36.823 90.9891C37.0485 91 37.1678 91.1192 37.1649 91.3349C37.1649 91.3386 37.1652 91.3419 37.1653 91.3456C37.479 91.1512 37.7897 90.9592 38.0976 90.7693C38.0979 90.7649 38.0981 90.7604 38.0982 90.756C38.1215 90.3833 37.9236 90.1701 37.5473 90.1534C36.6632 90.116 35.0446 91.1084 33.8906 92.3977C32.6664 93.7654 32.3644 94.9603 33.2848 95.0141C33.6812 95.0366 34.2642 94.8318 34.9227 94.4389C34.9301 94.4343 34.9376 94.4298 34.9452 94.4253C35.0051 94.1816 35.0631 93.941 35.1186 93.7032C35.1124 93.7067 35.1061 93.7102 35.0999 93.7137ZM35.0778 94.9924C35.2816 95.0126 35.4838 95.0345 35.6848 95.058C37.081 93.4245 38.3808 91.8873 39.587 90.443C39.398 90.4213 39.2073 90.4015 39.0152 90.3835C37.8001 91.8239 36.4886 93.3591 35.0778 94.9924ZM39.4408 93.6555C39.4811 93.5923 40.8297 90.6066 40.8187 90.6061C40.641 90.5763 40.4618 90.5486 40.2811 90.5226C39.0867 91.9709 37.8026 93.5097 36.4253 95.1425C36.6228 95.1705 36.8188 95.2003 37.0135 95.2321C37.8381 94.2437 38.6288 93.2898 39.3872 92.3691C39.3389 92.4974 37.9798 95.4604 37.9739 95.4554C37.9768 95.4496 41.122 92.8739 41.2522 92.7711C40.5217 93.694 39.7623 94.6473 38.9729 95.6323C39.1577 95.6784 39.341 95.7268 39.5227 95.7774C40.8091 94.1524 42.0174 92.6105 43.1512 91.1482C42.9886 91.0982 42.8243 91.0508 42.6581 91.0055C42.6606 91.0006 39.514 93.5919 39.4408 93.6555ZM41.8687 95.4444C41.7031 95.3791 41.5359 95.3163 41.3672 95.2559C41.6582 94.8768 41.9448 94.5023 42.2276 94.132C42.3922 94.1931 42.5553 94.2566 42.7167 94.3226C42.943 94.4159 42.8092 94.7357 42.6086 95.0033C42.4039 95.2763 42.1014 95.5362 41.8687 95.4444ZM43.6141 92.3091C43.7625 92.3666 43.9093 92.4263 44.0548 92.4882C44.2381 92.5665 44.2107 92.7974 43.9832 93.1032C43.754 93.4112 43.5057 93.5478 43.3184 93.47C43.1699 93.4082 43.02 93.3486 42.8686 93.2912C43.1203 92.9603 43.3689 92.633 43.6141 92.3091ZM43.5227 94.0814C43.7129 94.016 44.1132 93.788 44.4817 93.2862C45.0401 92.5258 45.1185 91.9167 44.6742 91.7208C44.3642 91.5855 44.0469 91.4612 43.7225 91.3472C42.6034 92.8117 41.413 94.353 40.1478 95.9749C40.5188 96.0916 40.8832 96.2185 41.2409 96.3562C41.7293 96.542 42.4271 96.1308 43.066 95.2678C43.5321 94.6375 43.5581 94.2592 43.5227 94.0814Z" fill="#7C1710"/>
</g>
<mask id="mask29" style="mask-type:alpha" maskUnits="userSpaceOnUse" x="25" y="87" width="46" height="31">
<path fill-rule="evenodd" clip-rule="evenodd" d="M25.8433 98.7779C43.7724 97.2862 66.439 108.88 69.7844 117.862C71.735 112.006 71.1546 96.9543 53.8141 89.8899C50.2413 88.4343 47.0011 87.8397 44.0945 87.8398C33.3676 87.8408 27.207 95.944 25.8433 98.7779Z" fill="white"/>
</mask>
<g mask="url(#mask29)">
<path fill-rule="evenodd" clip-rule="evenodd" d="M29.5845 91.1253C30.5848 90.9697 31.5438 90.8514 32.4631 90.7695C32.3271 91.3629 32.1797 91.9802 32.02 92.6231C30.8597 93.4049 29.6484 94.2251 28.3826 95.0867C27.3575 95.194 26.2844 95.3453 25.1609 95.5417C26.4865 94.6268 27.7547 93.7548 28.9691 92.9226C29.1862 92.3012 29.3911 91.7024 29.5845 91.1253Z" fill="#E5292B"/>
</g>
<mask id="mask30" style="mask-type:alpha" maskUnits="userSpaceOnUse" x="25" y="87" width="46" height="31">
<path fill-rule="evenodd" clip-rule="evenodd" d="M25.8433 98.7779C43.7724 97.2862 66.439 108.88 69.7844 117.862C71.735 112.006 71.1546 96.9543 53.8141 89.8899C50.2413 88.4343 47.0011 87.8397 44.0945 87.8398C33.3676 87.8408 27.207 95.944 25.8433 98.7779Z" fill="white"/>
</mask>
<g mask="url(#mask30)">
<path fill-rule="evenodd" clip-rule="evenodd" d="M32.0201 92.6229C32.1798 91.9802 32.3272 91.3627 32.4633 90.7695C31.5439 90.8513 30.5849 90.9696 29.5847 91.1252C29.3912 91.7024 29.1861 92.3011 28.9692 92.9226" fill="#FEFEFE"/>
</g>
<mask id="mask31" style="mask-type:alpha" maskUnits="userSpaceOnUse" x="25" y="87" width="46" height="31">
<path fill-rule="evenodd" clip-rule="evenodd" d="M25.8433 98.7779C43.7724 97.2862 66.439 108.88 69.7844 117.862C71.735 112.006 71.1546 96.9543 53.8141 89.8899C50.2413 88.4343 47.0011 87.8397 44.0945 87.8398C33.3676 87.8408 27.207 95.944 25.8433 98.7779Z" fill="white"/>
</mask>
<g mask="url(#mask31)">
<path fill-rule="evenodd" clip-rule="evenodd" d="M62.6725 111.496C62.8446 107.135 62.7007 101.115 61.2603 96.9521C60.4937 94.7366 59.3917 92.6461 58.0022 90.76C57.9789 90.7284 57.8734 90.6257 57.8764 90.5861C57.8908 90.3992 60.1382 91.1905 61.8139 92.1846C65.2418 94.2185 68.6012 96.7251 70.8901 100.042C74.0671 104.645 75.4106 110.747 74.206 116.217C73.2346 120.628 69.3202 123.415 66.2018 118.966C64.9028 117.112 62.6725 111.496 62.6725 111.496Z" fill="#BEBDB8"/>
</g>
<path d="M48.352 87.995C48.2269 87.9107 48.0573 87.9438 47.973 88.0688C47.8887 88.1938 47.9218 88.3635 48.0468 88.4477L48.352 87.995ZM45.1663 101.225C45.0939 101.357 45.1423 101.523 45.2745 101.595C45.4068 101.668 45.5727 101.619 45.6451 101.487L45.1663 101.225ZM69.7843 117.862L69.5285 117.957C69.5689 118.065 69.6734 118.137 69.7891 118.135C69.9049 118.133 70.0068 118.058 70.0433 117.948L69.7843 117.862ZM25.843 98.778L25.597 98.6596C25.5546 98.7478 25.5626 98.852 25.6181 98.9327C25.6736 99.0134 25.7681 99.0581 25.8657 99.05L25.843 98.778ZM53.814 89.8899L53.711 90.1427L53.711 90.1427L53.814 89.8899ZM48.0468 88.4477C48.7948 88.952 49.2853 89.9283 48.9749 91.9195C48.663 93.9198 47.5484 96.8766 45.1663 101.225L45.6451 101.487C48.0355 97.1237 49.1876 94.0996 49.5143 92.0037C49.8425 89.8987 49.3436 88.6635 48.352 87.995L48.0468 88.4477ZM70.0402 117.766C69.1787 115.454 67.0908 113.007 64.2002 110.669C61.3036 108.325 57.5761 106.069 53.3968 104.144C45.0423 100.296 34.8455 97.755 25.8204 98.5059L25.8657 99.05C34.7698 98.3092 44.8709 100.819 53.1684 104.64C57.3152 106.55 61.0021 108.783 63.8568 111.093C66.7174 113.408 68.7172 115.779 69.5285 117.957L70.0402 117.766ZM26.089 98.8963C26.9343 97.1399 29.7007 93.2557 34.3277 90.661C38.9395 88.0747 45.412 86.7616 53.711 90.1427L53.917 89.6371C45.4576 86.1907 38.8113 87.5206 34.0606 90.1848C29.325 92.8405 26.4852 96.8141 25.597 98.6596L26.089 98.8963ZM53.711 90.1427C62.3126 93.6469 66.7372 99.1206 68.7785 104.427C70.8244 109.745 70.4807 114.907 69.5253 117.775L70.0433 117.948C71.0384 114.96 71.3798 109.668 69.2881 104.231C67.1918 98.7816 62.6559 93.1972 53.917 89.6371L53.711 90.1427Z" fill="#020203"/>
<path fill-rule="evenodd" clip-rule="evenodd" d="M47.3739 102.009C44.7521 104.822 40.083 103.702 34.8581 101.356C29.6331 99.0105 29.4757 98.9646 28.7718 98.6488C27.7004 98.6462 25.4241 98.906 24.1643 100.581C22.2184 103.168 21.8366 105.112 21.8366 105.112C21.8366 105.112 12.5519 100.854 13.6857 96.9674C14.8197 93.0805 21.3689 95.616 27.0726 96.7746C39.5466 99.3083 47.4162 101.964 47.3739 102.009Z" fill="#BEBDB8"/>
<path fill-rule="evenodd" clip-rule="evenodd" d="M21.6541 95.5195C21.8506 95.5639 39.0827 99.6708 41.8127 100.333C37.9659 100.043 30.4819 99.4012 30.4819 99.4012L21.6541 95.5195Z" fill="#FEFEFE"/>
<path d="M28.7719 98.6488L28.6764 98.9045C28.8131 98.9556 28.9658 98.8901 29.023 98.7559C29.0803 98.6216 29.0218 98.4661 28.8902 98.4028L28.7719 98.6488ZM19.1039 95.036L19.1325 94.7645C18.9958 94.7501 18.8697 94.8396 18.8382 94.9734C18.8067 95.1072 18.8796 95.2436 19.0083 95.2917L19.1039 95.036ZM47.3739 102.009L47.5736 102.195L47.5739 102.195L47.3739 102.009ZM34.858 101.356L34.9698 101.107L34.9698 101.107L34.858 101.356ZM28.7718 98.6488L28.8835 98.3997C28.8486 98.3841 28.8108 98.3759 28.7725 98.3758L28.7718 98.6488ZM24.1641 100.581L23.946 100.417L23.946 100.417L24.1641 100.581ZM21.8366 105.112L21.7228 105.36C21.7988 105.395 21.8866 105.393 21.9611 105.355C22.0355 105.317 22.0884 105.247 22.1045 105.165L21.8366 105.112ZM13.6857 96.9674L13.9478 97.0439L13.9478 97.0439L13.6857 96.9674ZM27.0726 96.7745L27.127 96.507L27.127 96.507L27.0726 96.7745ZM28.8902 98.4028C27.7804 97.8692 25.9043 97.0209 24.0302 96.2766C22.1681 95.5372 20.2694 94.8843 19.1325 94.7645L19.0753 95.3075C20.1257 95.4181 21.956 96.0404 23.8287 96.7841C25.6892 97.5229 27.5535 98.3659 28.6536 98.8949L28.8902 98.4028ZM19.0083 95.2917L28.6764 98.9045L28.8675 98.3931L19.1994 94.7803L19.0083 95.2917ZM47.1742 101.823C45.942 103.145 44.2182 103.562 42.1201 103.346C40.0163 103.129 37.5748 102.277 34.9698 101.107L34.7462 101.605C37.3661 102.782 39.8717 103.663 42.0641 103.889C44.2622 104.116 46.1839 103.686 47.5735 102.195L47.1742 101.823ZM34.9698 101.107C32.3571 99.9343 31.0109 99.3361 30.2297 98.9916C29.4453 98.6456 29.2351 98.5574 28.8835 98.3997L28.6601 98.8979C29.0125 99.056 29.2329 99.1487 30.0094 99.4911C30.7891 99.835 32.134 100.433 34.7462 101.605L34.9698 101.107ZM28.7725 98.3758C28.2175 98.3744 27.3508 98.4407 26.4559 98.7256C25.5607 99.0107 24.6205 99.5202 23.946 100.417L24.3823 100.745C24.9678 99.9667 25.7957 99.5088 26.6215 99.2459C27.4476 98.9828 28.2547 98.9205 28.7711 98.9218L28.7725 98.3758ZM23.946 100.417C22.9584 101.73 22.3656 102.883 22.0189 103.711C21.8456 104.126 21.7338 104.459 21.665 104.69C21.6306 104.806 21.6069 104.896 21.5916 104.959C21.584 104.99 21.5785 105.014 21.5747 105.031C21.5729 105.04 21.5715 105.046 21.5705 105.051C21.57 105.053 21.5696 105.055 21.5693 105.057C21.5692 105.058 21.569 105.058 21.5689 105.059C21.5689 105.059 21.5689 105.059 21.5688 105.059C21.5688 105.059 21.5688 105.059 21.5688 105.06C21.5687 105.06 21.5687 105.06 21.8366 105.112C22.1045 105.165 22.1045 105.165 22.1044 105.165C22.1044 105.165 22.1044 105.165 22.1044 105.165C22.1044 105.165 22.1044 105.165 22.1044 105.165C22.1044 105.165 22.1044 105.165 22.1045 105.165C22.1045 105.165 22.1047 105.164 22.105 105.162C22.1056 105.16 22.1066 105.155 22.108 105.149C22.1108 105.136 22.1154 105.116 22.122 105.089C22.1352 105.035 22.1565 104.953 22.1883 104.846C22.2519 104.632 22.3572 104.317 22.5226 103.922C22.8532 103.132 23.4241 102.019 24.3823 100.745L23.946 100.417ZM21.8366 105.112C21.9504 104.864 21.9504 104.864 21.9504 104.864C21.9503 104.864 21.9503 104.864 21.9502 104.864C21.9499 104.864 21.9496 104.864 21.9491 104.864C21.9481 104.863 21.9465 104.862 21.9444 104.861C21.9402 104.86 21.9339 104.857 21.9254 104.853C21.9084 104.845 21.8829 104.833 21.8496 104.817C21.783 104.785 21.6851 104.738 21.5605 104.677C21.3114 104.554 20.9562 104.374 20.5331 104.146C19.6863 103.689 18.5717 103.041 17.4942 102.275C16.4137 101.506 15.3855 100.629 14.6991 99.7157C14.0103 98.7995 13.6994 97.8951 13.9478 97.0439L13.4237 96.891C13.105 97.9831 13.5295 99.0685 14.2627 100.044C14.9983 101.022 16.0786 101.938 17.1777 102.72C18.2796 103.504 19.4153 104.163 20.274 104.627C20.7037 104.858 21.065 105.041 21.3192 105.167C21.4463 105.229 21.5467 105.278 21.6156 105.31C21.65 105.327 21.6766 105.339 21.6946 105.347C21.7037 105.352 21.7106 105.355 21.7153 105.357C21.7177 105.358 21.7195 105.359 21.7207 105.36C21.7214 105.36 21.7218 105.36 21.7222 105.36C21.7224 105.36 21.7225 105.36 21.7226 105.36C21.7227 105.36 21.7228 105.36 21.8366 105.112ZM13.9478 97.0439C14.2043 96.1648 14.7559 95.6579 15.541 95.3933C16.3455 95.122 17.4001 95.1051 18.6337 95.25C19.8626 95.3944 21.2379 95.6951 22.6712 96.0349C24.099 96.3734 25.5866 96.7512 27.0183 97.042L27.127 96.507C25.7068 96.2185 24.2369 95.845 22.7971 95.5037C21.3629 95.1637 19.9606 94.8562 18.6974 94.7078C17.439 94.5599 16.2872 94.5655 15.3666 94.8759C14.4265 95.1928 13.7342 95.8266 13.4237 96.891L13.9478 97.0439ZM27.0183 97.042C33.2481 98.3075 38.3276 99.6032 41.8432 100.588C43.6011 101.08 44.9675 101.495 45.891 101.789C46.3529 101.936 46.7031 102.052 46.9356 102.133C47.0523 102.174 47.1373 102.205 47.1914 102.225C47.2193 102.236 47.2347 102.243 47.2409 102.246C47.2459 102.248 47.2382 102.245 47.2263 102.237C47.2239 102.236 47.1996 102.221 47.1746 102.195C47.164 102.184 47.13 102.146 47.1122 102.086C47.0884 102.006 47.1004 101.903 47.1739 101.824L47.5739 102.195C47.6476 102.116 47.6597 102.012 47.6358 101.931C47.6178 101.87 47.5834 101.833 47.5721 101.821C47.5459 101.793 47.5193 101.777 47.5138 101.773C47.4955 101.762 47.4776 101.753 47.4686 101.749C47.4467 101.739 47.4188 101.728 47.3883 101.716C47.3257 101.692 47.2338 101.659 47.115 101.617C46.8765 101.534 46.5214 101.416 46.0566 101.268C45.1266 100.972 43.754 100.556 41.9905 100.062C38.4634 99.0742 33.3711 97.7753 27.127 96.507L27.0183 97.042Z" fill="#020203"/>
</svg>
