<svg width="204" height="167" viewBox="0 0 204 167" fill="none" xmlns="http://www.w3.org/2000/svg">
<g opacity="0.5">
<path d="M144.778 96.6388H147.729C149.849 96.6388 151.567 95.009 151.567 92.9985C151.567 90.9892 149.851 89.3594 147.729 89.3594H99.133C97.0108 89.3594 95.2914 90.9892 95.2914 92.9985C95.2914 94.9631 96.9321 96.5642 98.9882 96.6363H95.7939C93.6629 96.6363 91.9346 98.2661 91.9346 100.278C91.9346 102.288 93.6607 103.917 95.7939 103.917H144.632C146.763 103.917 148.49 102.288 148.49 100.278C148.49 98.312 146.843 96.7109 144.778 96.6388Z" fill="white"/>
<path d="M151.647 103.921H101.937C100.742 103.921 99.7734 104.873 99.7734 106.051V109.069C99.7734 110.245 100.742 111.2 101.937 111.2H107.037C106.379 111.579 105.934 112.301 105.934 113.129V116.264C105.934 117.098 106.385 117.824 107.051 118.201H99.1319C97.0097 118.201 95.2914 119.83 95.2914 121.84C95.2914 123.85 97.0086 125.48 99.1319 125.48H100.965C98.9034 125.543 97.2517 127.148 97.2517 129.118C97.2517 131.128 98.9689 132.758 101.091 132.758H149.689C151.81 132.758 153.528 131.127 153.528 129.118C153.528 127.108 151.811 125.478 149.689 125.478H147.855C149.917 125.415 151.567 123.81 151.567 121.84C151.567 120.322 150.589 119.022 149.197 118.476H155.848C157.042 118.476 158.011 117.486 158.011 116.264V113.129C158.011 111.907 157.042 110.917 155.848 110.917H152.725C153.373 110.549 153.81 109.859 153.81 109.069V106.051C153.81 104.873 152.842 103.921 151.647 103.921Z" fill="white"/>
<path d="M98.3061 132.802H149.68C150.879 132.802 151.851 133.755 151.851 134.932V137.951C151.851 139.092 150.936 140.025 149.787 140.079H149.957C151.159 140.079 152.131 141.071 152.131 142.291V145.428C152.131 146.614 151.214 147.582 150.061 147.637H155.296C157.415 147.637 159.128 149.268 159.128 151.278C159.128 153.288 157.413 154.918 155.296 154.918H147.488C149.595 154.94 151.292 156.561 151.292 158.558C151.294 160.567 149.568 162.197 147.445 162.197H94.1044C91.9767 162.197 90.2561 160.567 90.2561 158.558C90.2561 156.548 91.9789 154.918 94.1044 154.918H105.241C103.142 154.896 101.452 153.274 101.452 151.278C101.452 149.314 103.09 147.711 105.141 147.64H98.5916C97.3899 147.64 96.4163 146.65 96.4163 145.428V142.291C96.4163 141.107 97.3337 140.138 98.4865 140.082H98.3061C97.1078 140.082 96.1352 139.127 96.1352 137.951V134.932C96.1352 133.755 97.1078 132.802 98.3061 132.802Z" fill="white"/>
</g>
<path opacity="0.3" fill-rule="evenodd" clip-rule="evenodd" d="M147.445 162.197H94.1044C91.9767 162.197 90.2561 160.568 90.2561 158.558C90.2561 156.548 91.9789 154.918 94.1044 154.918H147.445C149.571 154.918 151.292 156.548 151.292 158.558C151.294 160.568 149.568 162.197 147.445 162.197Z" fill="#FFAB00"/>
<path opacity="0.5" fill-rule="evenodd" clip-rule="evenodd" d="M155.296 154.917H105.284C103.165 154.917 101.452 153.287 101.452 151.277C101.452 149.268 103.167 147.637 105.284 147.637H155.296C157.415 147.637 159.128 149.268 159.128 151.277C159.128 153.287 157.413 154.917 155.296 154.917Z" fill="#FFAB00"/>
<path opacity="0.3" fill-rule="evenodd" clip-rule="evenodd" d="M149.957 140.078H98.5916C97.3899 140.078 96.4163 141.07 96.4163 142.29V145.427C96.4163 146.648 97.3899 147.639 98.5916 147.639H149.957C151.159 147.639 152.131 146.648 152.131 145.427V142.29C152.131 141.07 151.159 140.078 149.957 140.078Z" fill="#FFAB00"/>
<path opacity="0.5" fill-rule="evenodd" clip-rule="evenodd" d="M149.68 132.801H98.306C97.1077 132.801 96.1351 133.753 96.1351 134.931V137.949C96.1351 139.125 97.1077 140.08 98.306 140.08H149.68C150.879 140.08 151.851 139.125 151.851 137.949V134.931C151.851 133.753 150.879 132.801 149.68 132.801Z" fill="#FFAB00"/>
<path opacity="0.3" fill-rule="evenodd" clip-rule="evenodd" d="M149.689 132.756H101.091C98.9689 132.756 97.2517 131.126 97.2517 129.116C97.2517 127.106 98.9712 125.477 101.091 125.477H149.689C151.811 125.477 153.528 127.106 153.528 129.116C153.528 131.125 151.81 132.756 149.689 132.756Z" fill="#FFAB00"/>
<path opacity="0.5" fill-rule="evenodd" clip-rule="evenodd" d="M147.729 125.479H99.1319C97.0086 125.479 95.2914 123.849 95.2914 121.838C95.2914 119.828 97.0097 118.199 99.1319 118.199H147.729C149.851 118.199 151.567 119.828 151.567 121.838C151.567 123.849 149.849 125.479 147.729 125.479Z" fill="#FFAB00"/>
<path opacity="0.5" fill-rule="evenodd" clip-rule="evenodd" d="M151.647 103.922H101.937C100.742 103.922 99.7734 104.875 99.7734 106.052V109.07C99.7734 110.246 100.742 111.201 101.937 111.201H151.647C152.842 111.201 153.81 110.246 153.81 109.07V106.052C153.81 104.875 152.842 103.922 151.647 103.922Z" fill="#FFAB00"/>
<path opacity="0.3" fill-rule="evenodd" clip-rule="evenodd" d="M155.848 110.918H108.097C106.902 110.918 105.934 111.908 105.934 113.13V116.266C105.934 117.487 106.902 118.477 108.097 118.477H155.848C157.042 118.477 158.011 117.487 158.011 116.266V113.13C158.011 111.908 157.042 110.918 155.848 110.918Z" fill="#FFAB00"/>
<path opacity="0.3" fill-rule="evenodd" clip-rule="evenodd" d="M144.632 103.917H95.7939C93.6607 103.917 91.9346 102.289 91.9346 100.278C91.9346 98.2665 93.6629 96.6367 95.7939 96.6367H144.632C146.765 96.6367 148.49 98.2665 148.49 100.278C148.49 102.289 146.763 103.917 144.632 103.917Z" fill="#FFAB00"/>
<path opacity="0.5" fill-rule="evenodd" clip-rule="evenodd" d="M147.729 96.6388H99.133C97.0097 96.6388 95.2914 95.009 95.2914 92.9985C95.2914 90.9892 97.0108 89.3594 99.133 89.3594H147.729C149.851 89.3594 151.567 90.9892 151.567 92.9985C151.567 95.009 149.849 96.6388 147.729 96.6388Z" fill="#FFAB00"/>
<path fill-rule="evenodd" clip-rule="evenodd" d="M126.881 155.04C136.1 145.845 136.1 130.939 126.881 121.743C117.663 112.549 102.716 112.549 93.4966 121.743C84.2775 130.939 84.2775 145.845 93.4966 155.04C102.716 164.233 117.663 164.233 126.881 155.04Z" fill="#FFAB00"/>
<path opacity="0.5" fill-rule="evenodd" clip-rule="evenodd" d="M123.611 123.986C131.682 131.377 132.189 143.864 124.748 151.877C117.306 159.891 104.728 160.397 96.6579 153.007C88.5873 145.617 88.0783 133.127 95.5226 125.113C102.965 117.099 115.542 116.599 123.611 123.986Z" fill="white"/>
<path fill-rule="evenodd" clip-rule="evenodd" d="M123.245 144.449C123.468 144.738 123.58 145.094 123.567 145.456C123.553 145.817 123.412 146.163 123.17 146.434C122.185 147.528 120.576 148.853 118.556 149.837C115.599 151.274 112.205 151.714 108.999 150.629C106.997 149.952 105.088 148.567 103.651 146.679L101.904 147.524C101.619 147.661 101.291 147.681 100.991 147.582C100.691 147.479 100.444 147.263 100.304 146.982L100.282 146.937C100.143 146.655 100.122 146.329 100.225 146.034C100.327 145.736 100.545 145.49 100.828 145.352L102.262 144.655C101.976 144.189 101.776 143.9 101.646 143.634C101.393 143.111 101.181 142.569 101.011 142.015L99.5314 142.734C99.2471 142.871 98.9185 142.891 98.6186 142.789C98.3188 142.689 98.072 142.473 97.9315 142.191C97.7921 141.91 97.7722 141.585 97.874 141.287C97.9769 140.989 98.1937 140.745 98.4792 140.605L100.269 139.735C99.7516 137.454 99.8346 135.156 100.518 133.171C101.678 129.798 104.238 127.229 107.332 125.73C109.133 124.854 110.651 124.5 111.894 124.365C112.31 124.32 112.727 124.438 113.057 124.692C113.389 124.946 113.607 125.316 113.666 125.726V125.753C113.696 125.962 113.685 126.176 113.632 126.381C113.578 126.585 113.484 126.778 113.354 126.947C113.226 127.115 113.065 127.258 112.88 127.365C112.696 127.472 112.491 127.541 112.279 127.569C111.046 127.748 109.85 128.124 108.737 128.681C106.765 129.638 105.104 131.216 104.284 133.49C103.828 134.813 103.704 136.359 104.162 137.844L114.24 132.942C114.525 132.804 114.854 132.784 115.154 132.884C115.453 132.987 115.701 133.202 115.841 133.483C115.98 133.766 116 134.09 115.897 134.388C115.794 134.686 115.577 134.929 115.293 135.069L104.772 140.186C104.967 140.697 105.166 141.207 105.318 141.518C105.517 141.918 105.714 142.316 106.023 142.828L116.571 137.696C116.715 137.627 116.872 137.586 117.032 137.576C117.193 137.565 117.353 137.587 117.506 137.638C117.658 137.69 117.797 137.769 117.918 137.876C118.038 137.98 118.137 138.108 118.207 138.251C118.35 138.538 118.371 138.872 118.266 139.176C118.162 139.479 117.94 139.73 117.649 139.872L107.546 144.783C108.496 145.917 109.678 146.722 110.875 147.128C113.257 147.897 115.355 147.648 117.596 146.558C118.806 145.967 119.919 145.196 120.894 144.271C121.054 144.118 121.245 144.001 121.454 143.926C121.663 143.852 121.886 143.822 122.108 143.84C122.33 143.855 122.546 143.919 122.741 144.024C122.936 144.129 123.107 144.274 123.242 144.449H123.245Z" fill="white"/>
<path fill-rule="evenodd" clip-rule="evenodd" d="M154.132 81.6425C150.918 87.2346 146.878 89.3933 146.878 89.3933H130.065C130.065 89.3933 156.582 77.3771 154.132 81.6425Z" fill="#333739"/>
<path fill-rule="evenodd" clip-rule="evenodd" d="M141.219 124.907C140.781 125.409 140.726 125.97 140.943 126.569C140.943 126.571 140.944 126.575 140.946 126.578C141.348 127.685 142.672 128.923 144.211 130.159C144.408 130.317 144.583 130.462 144.736 130.595C144.776 130.631 144.815 130.666 144.853 130.701C144.884 130.728 144.914 130.757 144.944 130.783C146.379 132.105 145.839 132.409 148.416 135.093C151.357 138.151 153.381 138.207 153.956 137.928C154.443 137.691 153.454 136.068 152.357 134.244C152.304 134.157 152.252 134.068 152.197 133.979C152.051 133.736 151.906 133.491 151.761 133.247C150.476 131.052 150.806 130.023 151.11 126.757C151.358 124.104 155.238 111.931 155.238 111.931L149.605 110.961C149.605 110.961 147.909 120.654 146.039 122.146C145.04 122.942 143.921 122.952 142.961 123.541C142.893 123.582 142.826 123.624 142.761 123.668C142.215 124.03 141.659 124.403 141.219 124.907Z" fill="#FFDDC5"/>
<path fill-rule="evenodd" clip-rule="evenodd" d="M141.219 124.908C140.781 125.411 140.726 125.972 140.943 126.57C140.943 126.572 140.944 126.577 140.946 126.579C141.437 127.686 142.73 128.917 144.217 130.149C144.412 130.31 144.583 130.458 144.736 130.597C144.776 130.632 144.815 130.667 144.853 130.703C144.884 130.729 144.914 130.758 144.944 130.785C146.379 132.107 145.839 132.41 148.416 135.094C151.357 138.153 153.381 138.208 153.956 137.929C154.443 137.692 153.454 136.069 152.357 134.246C151.784 134.037 149.126 132.957 147.117 130.385C145.347 128.127 144.166 125.225 142.961 123.543C142.893 123.584 142.826 123.626 142.761 123.669C142.215 124.032 141.659 124.405 141.219 124.908Z" fill="#333739"/>
<path fill-rule="evenodd" clip-rule="evenodd" d="M186.643 121.388C186.991 123.127 189.47 122.837 192.24 122.161C195.009 121.484 194.35 122.288 198.291 121.852C202.232 121.415 203.426 119.946 203.547 119.36C203.655 118.84 201.707 118.657 199.619 118.415C199.356 118.387 199.092 118.353 198.828 118.321C196.47 118.025 194.743 116.503 192.601 115.254C190.571 114.07 187.543 109.246 187.543 109.246L182.138 109.675C182.138 109.675 184.975 113.983 186.071 115.856C186.716 116.958 186.682 118.414 186.601 119.54C186.56 120.15 186.521 120.775 186.643 121.388Z" fill="#FFDDC5"/>
<mask id="mask0" style="mask-type:alpha" maskUnits="userSpaceOnUse" x="186" y="118" width="18" height="5">
<path fill-rule="evenodd" clip-rule="evenodd" d="M186.562 118.418H203.553V122.691H186.562V118.418Z" fill="white"/>
</mask>
<g mask="url(#mask0)">
<path fill-rule="evenodd" clip-rule="evenodd" d="M192.24 122.162C195.01 121.485 194.352 122.289 198.293 121.854C202.234 121.418 203.428 119.948 203.548 119.362C203.656 118.842 201.708 118.658 199.619 118.418L199.599 118.458C199.599 118.458 197.236 120.134 193.955 120.213C191.282 120.277 188.45 119.511 186.603 119.541C186.561 120.153 186.521 120.778 186.644 121.39C186.992 123.129 189.471 122.838 192.24 122.162Z" fill="#333739"/>
</g>
<path fill-rule="evenodd" clip-rule="evenodd" d="M165.933 86.8249L160.88 100.421L154.283 118.174C154.283 118.174 152.494 118.347 150.779 117.853C149.2 117.398 147.39 116.204 147.39 116.204C147.39 116.204 149.221 97.1427 152.638 86.2008C153.514 83.3915 154.495 81.12 155.579 79.8409C160.875 73.5805 165.933 86.8249 165.933 86.8249Z" fill="#333739"/>
<path fill-rule="evenodd" clip-rule="evenodd" d="M160.791 65.2387C157.481 64.171 148.041 65.5419 138.556 67.3985L136.57 64.1234L116.085 62.5234C116.085 62.5234 109.325 77.5149 113.026 87.0659C113.57 88.47 114.916 89.062 116.759 89.0919C116.76 89.093 116.76 89.0941 116.761 89.0941C116.761 89.0941 128.984 89.3928 132.944 89.3928C143.131 89.3928 154.503 82.39 155.975 82.0957C158.384 81.6144 159.346 86.4297 161.755 91.4874C164.163 96.5439 184.391 113.882 184.391 113.882C184.391 113.882 187.499 113.913 188.784 113.432C190.165 112.914 190.67 112.24 190.67 112.24C190.67 112.24 168.257 67.6475 160.791 65.2387Z" fill="#333739"/>
<path fill-rule="evenodd" clip-rule="evenodd" d="M130.34 32.4891C130.372 32.5102 126.751 33.7461 124.33 32.6739C122.051 31.667 120.325 27.9194 120.36 27.9172C121.396 27.8697 122.533 26.9635 123.409 21.0195L123.851 21.1778L131.269 23.8465C131.269 23.8465 130.732 26.2277 130.385 28.4937C130.092 30.3968 129.935 32.2203 130.34 32.4891Z" fill="#FFDDC5"/>
<path opacity="0.1" fill-rule="evenodd" clip-rule="evenodd" d="M131.268 23.8496C131.268 23.8496 130.731 26.2307 130.383 28.4967C126.122 27.73 124.449 23.4845 123.85 21.1797L131.268 23.8496Z" fill="#333739"/>
<path fill-rule="evenodd" clip-rule="evenodd" d="M132.374 26.2112C132.374 26.2112 122.224 24.8492 123.17 18.5401C124.116 12.2321 123.442 7.80739 129.963 8.41041C136.484 9.01454 137.379 11.6092 137.576 13.7912C137.772 15.9742 135.04 26.4026 132.374 26.2112Z" fill="#FFDDC5"/>
<path fill-rule="evenodd" clip-rule="evenodd" d="M138.886 47.4436C138.579 67.9918 138.801 63.6976 136.553 65.6472C136.012 66.1163 134.49 66.3963 132.486 66.529C126.184 66.9473 115.11 65.9094 114.688 64.7443C113.234 60.7157 114.261 59.4643 113.048 53.2968C112.922 52.6407 112.765 51.9304 112.582 51.1569C111.57 46.9203 110.587 45.4797 114.174 38.6727C117.426 32.5075 120.805 27.5041 121.109 27.6844C129.69 32.7786 130.382 28.4966 130.382 28.4966C130.382 28.4966 139.036 37.4213 138.886 47.4436Z" fill="#FF6666"/>
<path fill-rule="evenodd" clip-rule="evenodd" d="M160.88 100.428L154.283 118.181C154.283 118.181 152.493 118.354 150.779 117.861C149.2 117.405 147.39 116.211 147.39 116.211C147.39 116.211 149.221 97.15 152.638 86.207L160.88 100.428Z" fill="#333739"/>
<path fill-rule="evenodd" clip-rule="evenodd" d="M130.384 28.4961C130.384 28.4961 139.214 29.9942 140.251 33.795C141.287 37.5968 147.39 59.9462 147.39 59.9462C147.39 59.9462 142.901 60.7528 140.827 58.6793C138.752 56.6058 133.612 39.4401 133.612 39.4401L130.384 28.4961Z" fill="#FF6666"/>
<path fill-rule="evenodd" clip-rule="evenodd" d="M132.484 66.5279C126.184 66.9461 115.108 65.9083 114.687 64.7432C113.234 60.7145 114.26 59.4631 113.047 53.2957L116.086 44.7383C116.086 44.7383 115.584 54.2672 118.393 56.7733C121.201 59.2795 129.9 61.6119 131.265 63.7053C131.924 64.71 132.358 65.7191 132.484 66.5279Z" fill="#FF6666"/>
<path fill-rule="evenodd" clip-rule="evenodd" d="M125.266 62.5207C125.266 62.5207 131.482 61.1365 132.485 61.6887C133.488 62.2397 135.939 64.249 136.246 64.9472C136.553 65.6464 134.013 64.4172 133.188 64.1959C132.652 64.052 131.243 64.5411 130.546 64.7735C127.613 65.7516 125.816 65.2481 125.816 65.2481L125.266 62.5207Z" fill="#FFDDC5"/>
<mask id="mask1" style="mask-type:alpha" maskUnits="userSpaceOnUse" x="100" y="27" width="27" height="41">
<path fill-rule="evenodd" clip-rule="evenodd" d="M100.968 27.6836H126.272V67.2031H100.968V27.6836Z" fill="white"/>
</mask>
<g mask="url(#mask1)">
<path fill-rule="evenodd" clip-rule="evenodd" d="M121.104 27.6836C121.104 27.6836 112.758 28.1981 109.869 32.2278C105.801 37.8996 97.7323 62.0758 102.357 65.3001C107.564 68.9315 126.058 66.2494 126.058 66.2494C126.058 66.2494 126.673 63.3737 125.817 61.9829C124.96 60.591 111.046 58.3426 110.404 57.7009C109.762 57.0591 118.431 45.179 118.431 43.2516C118.431 41.3252 121.104 27.6836 121.104 27.6836Z" fill="#FF6666"/>
</g>
<path fill-rule="evenodd" clip-rule="evenodd" d="M132.789 63.418C132.789 63.418 134.091 65.0987 134.518 65.2989C134.946 65.4992 135.221 65.4483 135.221 65.4483L134.344 63.8694L132.789 63.418Z" fill="#FFDDC5"/>
<path fill-rule="evenodd" clip-rule="evenodd" d="M132.485 61.6875L136.272 63.5264C136.272 63.5264 136.111 63.7898 135.644 63.7688C135.178 63.7477 134.002 63.3173 134.002 63.3173L132.485 61.6875Z" fill="#FFDDC5"/>
<path fill-rule="evenodd" clip-rule="evenodd" d="M135.852 64.5725C135.655 65.0603 135.556 65.3042 135.52 65.4969C135.313 66.5766 136.017 67.6202 137.096 67.8338C137.288 67.8719 137.551 67.8719 138.077 67.8719H162.85C163.109 67.8719 163.239 67.8719 163.357 67.8577C163.999 67.7812 164.564 67.3994 164.874 66.8328C164.931 66.7285 164.98 66.6081 165.077 66.3673L172.157 48.7603C172.353 48.273 172.451 48.0293 172.488 47.8368C172.692 46.7578 171.988 45.716 170.911 45.5029C170.719 45.4648 170.456 45.4648 169.931 45.4648H145.194C144.935 45.4648 144.805 45.4648 144.687 45.4789C144.046 45.5553 143.482 45.9359 143.171 46.5011C143.114 46.6052 143.066 46.7253 142.968 46.9655L135.852 64.5725Z" fill="white"/>
<path opacity="0.5" fill-rule="evenodd" clip-rule="evenodd" d="M135.852 64.5725C135.655 65.0603 135.556 65.3042 135.52 65.4969C135.313 66.5766 136.017 67.6202 137.096 67.8338C137.288 67.8719 137.551 67.8719 138.077 67.8719H162.85C163.109 67.8719 163.239 67.8719 163.357 67.8577C163.999 67.7812 164.564 67.3994 164.874 66.8328C164.931 66.7285 164.98 66.6081 165.077 66.3673L172.157 48.7603C172.353 48.273 172.451 48.0293 172.488 47.8368C172.692 46.7578 171.988 45.716 170.911 45.5029C170.719 45.4648 170.456 45.4648 169.931 45.4648H145.194C144.935 45.4648 144.805 45.4648 144.687 45.4789C144.046 45.5553 143.482 45.9359 143.171 46.5011C143.114 46.6052 143.066 46.7253 142.968 46.9655L135.852 64.5725Z" fill="#333739"/>
<path fill-rule="evenodd" clip-rule="evenodd" d="M164.82 66.9995H125.266V67.8725H164.47L164.82 66.9995Z" fill="#333739"/>
<path fill-rule="evenodd" clip-rule="evenodd" d="M156.905 56.6684C157.132 55.8806 156.676 55.2422 155.888 55.2422C155.101 55.2422 154.279 55.8806 154.053 56.6684C153.827 57.4562 154.283 58.0947 155.071 58.0947C155.859 58.0947 156.68 57.4562 156.905 56.6684Z" fill="white"/>
<path fill-rule="evenodd" clip-rule="evenodd" d="M123.652 4.67442C123.031 2.53452 116.937 -0.974083 110.896 1.97354C104.784 4.95989 107.875 10.4623 108.751 11.7558C109.626 13.0493 112.653 14.8937 117.211 12.0424C121.77 9.18991 124.356 7.11418 123.652 4.67442Z" fill="#333739"/>
<path fill-rule="evenodd" clip-rule="evenodd" d="M127.636 9.29314L127.514 9.39493C126.77 10.0278 125.616 9.94374 124.945 9.219L123.056 7.18864C122.376 6.4628 122.432 5.36518 123.177 4.73118L123.299 4.62938C124.042 3.99538 125.196 4.08058 125.867 4.80531L127.757 6.83457C128.436 7.57037 128.38 8.66909 127.636 9.29314Z" fill="#FF6666"/>
<path fill-rule="evenodd" clip-rule="evenodd" d="M137.149 18.5683C137.492 16.175 137.505 13.3336 136.385 11.8277C134.565 14.544 129.718 16.4903 126.657 16.7005C126.523 16.705 126.394 16.7105 126.28 16.7039L125.924 16.7105C125.79 16.6452 125.884 16.5921 125.757 16.5501C125.562 16.4815 125.368 16.425 125.193 16.3929H125.186C125.146 16.3907 125.099 16.3775 125.066 16.3752C125.052 16.3741 125.052 16.3741 125.046 16.3741C125.012 16.3719 124.971 16.3708 124.938 16.3686C124.925 16.3686 124.925 16.3686 124.918 16.3675C124.877 16.3653 124.844 16.3642 124.811 16.362H124.797C124.649 16.3542 124.509 16.3708 124.374 16.3996C124.361 16.4106 124.361 16.4106 124.354 16.4095C124.328 16.4206 124.308 16.4195 124.28 16.4295C124.267 16.4283 124.253 16.4405 124.247 16.4394C124.233 16.4383 124.206 16.4494 124.186 16.4593C124.173 16.4593 124.159 16.4704 124.153 16.4704C124.125 16.4804 124.112 16.4914 124.092 16.5014C124.079 16.5135 124.065 16.5124 124.052 16.5235C124.039 16.5346 124.018 16.5445 124.006 16.5567C123.991 16.5667 123.978 16.5667 123.971 16.5777C123.542 16.872 123.367 17.4374 123.515 18.2042C123.831 19.7887 124.461 20.5444 125.985 20.2114C125.985 20.2114 126.193 20.1162 126.294 20.3784L126.214 21.9894C124.817 21.9197 123.408 20.9837 122.434 18.2673C120.535 12.9906 122.608 9.33923 127.543 7.5036C128.093 7.28452 128.677 7.09089 129.301 6.95812C129.489 6.90943 129.671 6.87181 129.845 6.85743C130.174 6.80321 130.517 6.77334 130.859 6.75563C130.905 6.73461 130.953 6.72465 130.986 6.72687C133.148 6.75342 134.753 7.25354 135.901 8.08339C136.256 8.30026 136.512 8.52266 136.7 8.77825C138.09 10.251 138.565 12.4041 138.478 14.8328C138.432 16.2225 137.928 17.4729 137.149 18.5683Z" fill="#333739"/>
<path fill-rule="evenodd" clip-rule="evenodd" d="M8.54415 154.578L6.4502 155.361L33.3464 166.771L62.2758 164.893L51.3166 156.542L8.54415 154.578Z" fill="#C8C6C5"/>
<path fill-rule="evenodd" clip-rule="evenodd" d="M44.2849 146.28C30.2032 146.28 20.9526 148.561 20.9526 150.398C20.9526 151.651 22.9895 152.5 25.8028 152.5C28.6161 152.5 28.3138 155.09 31.1271 155.09C42.4421 155.09 41.5576 160.658 51.9872 160.658C54.6898 160.658 55.6481 159.655 65.3594 160.047C71.7092 160.303 76.6865 159.029 78.0767 157.121C79.1603 155.634 79.9741 154.448 83.8067 153.88C87.5924 153.319 102.045 152.86 103.466 150.257C105.096 147.273 91.2309 146.612 89.6351 146.28C78.6661 143.996 55.4544 146.014 44.2849 146.28Z" fill="#9C9C9B"/>
<path fill-rule="evenodd" clip-rule="evenodd" d="M51.2974 155.781L33.7192 163.387V165.645C33.7192 165.645 48.3993 158.031 50.9263 156.72C51.1526 156.603 51.2952 156.369 51.2963 156.114C51.297 155.942 51.2974 155.781 51.2974 155.781Z" fill="#5B5958"/>
<path fill-rule="evenodd" clip-rule="evenodd" d="M51.2974 155.781L33.7192 163.387V165.645C33.7192 165.645 48.3993 158.031 50.9263 156.72C51.1526 156.603 51.2952 156.369 51.2963 156.114C51.297 155.942 51.2974 155.781 51.2974 155.781Z" stroke="black" stroke-width="0.501256" stroke-linecap="round" stroke-linejoin="round"/>
<path fill-rule="evenodd" clip-rule="evenodd" d="M7.14355 154.54L33.7193 165.645V163.388L7.14355 152.254V154.54Z" fill="#5B5958"/>
<path fill-rule="evenodd" clip-rule="evenodd" d="M7.14355 154.54L33.7193 165.645V163.388L7.14355 152.254V154.54Z" stroke="black" stroke-width="0.501256" stroke-linecap="round" stroke-linejoin="round"/>
<path d="M35.811 163.546L36.9442 163.004" stroke="black" stroke-width="0.501256" stroke-linecap="round" stroke-linejoin="round"/>
<path d="M38.0159 162.491L39.149 161.949" stroke="black" stroke-width="0.501256" stroke-linecap="round" stroke-linejoin="round"/>
<path fill-rule="evenodd" clip-rule="evenodd" d="M51.2975 155.781L33.7193 163.387L7.14355 152.253L26.5789 146.133L51.2975 155.781Z" fill="#929090"/>
<path fill-rule="evenodd" clip-rule="evenodd" d="M51.2975 155.781L33.7193 163.387L7.14355 152.253L26.5789 146.133L51.2975 155.781Z" stroke="black" stroke-width="0.501256" stroke-linecap="round" stroke-linejoin="round"/>
<path fill-rule="evenodd" clip-rule="evenodd" d="M40.1643 157.528L31.6232 160.949L12.9913 153.113L22.1987 150.227L40.1643 157.528Z" fill="black"/>
<path fill-rule="evenodd" clip-rule="evenodd" d="M40.1643 157.528L31.6232 160.949L12.9913 153.113L22.1987 150.227L40.1643 157.528Z" stroke="black" stroke-width="0.501256" stroke-linecap="round" stroke-linejoin="round"/>
<path d="M40.1644 155.586L30.0797 159.692" stroke="#929090" stroke-width="0.501256" stroke-linecap="round" stroke-linejoin="round"/>
<path d="M38.864 158.906L28.7954 154.762" stroke="#929090" stroke-width="0.501256" stroke-linecap="round" stroke-linejoin="round"/>
<path d="M36.6466 160.652L26.5776 156.508" stroke="#929090" stroke-width="0.501256" stroke-linecap="round" stroke-linejoin="round"/>
<path d="M37.4312 154.477L27.3464 158.582" stroke="#929090" stroke-width="0.501256" stroke-linecap="round" stroke-linejoin="round"/>
<path d="M34.2629 153.535L24.1782 157.641" stroke="#929090" stroke-width="0.501256" stroke-linecap="round" stroke-linejoin="round"/>
<path d="M39.4501 151.982L31.6605 148.934L27.0063 150.797" stroke="#5B5958" stroke-width="0.501256" stroke-linecap="round" stroke-linejoin="round"/>
<path d="M39.4503 151.98L34.2355 154.242" stroke="#C8C6C5" stroke-width="0.501256" stroke-linecap="round" stroke-linejoin="round"/>
<path fill-rule="evenodd" clip-rule="evenodd" d="M0.990239 129.961C0.990239 129.961 22.103 137.943 27.2571 139.891C27.9591 140.157 28.4804 140.758 28.6443 141.49C29.7181 146.29 33.7193 164.175 33.7193 164.175V164.175C33.048 164.466 32.2868 164.469 31.613 164.184C27.3117 162.362 11.1393 155.513 7.14122 153.819C6.57579 153.58 6.15586 153.089 6.00743 152.493C5.09817 148.844 1.82394 135.703 0.888181 131.948C0.724323 131.29 0.759838 130.598 0.990239 129.961Z" fill="#9C9C9C"/>
<mask id="mask2" style="mask-type:alpha" maskUnits="userSpaceOnUse" x="0" y="129" width="34" height="36">
<path fill-rule="evenodd" clip-rule="evenodd" d="M0.887841 131.948C1.82364 135.703 5.09783 148.844 6.00709 152.493C6.15552 153.089 6.57545 153.58 7.14088 153.819C11.1389 155.513 27.3114 162.362 31.6127 164.184C32.2864 164.469 33.0477 164.466 33.719 164.175V164.175C33.719 164.175 29.7177 146.29 28.644 141.49C28.4801 140.758 27.9587 140.157 27.2567 139.891C22.1027 137.943 0.989899 129.961 0.989899 129.961C0.759462 130.598 0.723946 131.29 0.887841 131.948Z" fill="white"/>
</mask>
<g mask="url(#mask2)">
<path fill-rule="evenodd" clip-rule="evenodd" d="M6.02862 152.673L6.89124 153.67C6.89124 153.67 2.15431 135.017 1.33756 131.801C1.31442 131.71 1.34393 131.614 1.41406 131.551C1.48418 131.489 1.58331 131.47 1.67121 131.503C4.86174 132.714 23.9147 139.942 26.7856 141.031C26.999 141.112 27.2402 141.039 27.3728 140.853C27.3983 140.817 27.4248 140.78 27.4516 140.742C27.5418 140.616 27.5684 140.455 27.5237 140.306C27.4789 140.157 27.3678 140.037 27.2228 139.982C23.2443 138.453 1.00648 129.91 1.00648 129.91C1.00648 129.91 0.825819 130.593 0.725752 130.972C0.683213 131.132 0.682091 131.301 0.722458 131.463C1.31757 133.842 6.02862 152.673 6.02862 152.673Z" fill="#C8C6C5"/>
</g>
<mask id="mask3" style="mask-type:alpha" maskUnits="userSpaceOnUse" x="0" y="129" width="34" height="36">
<path fill-rule="evenodd" clip-rule="evenodd" d="M0.887841 131.948C1.82364 135.703 5.09783 148.844 6.00709 152.493C6.15552 153.089 6.57545 153.58 7.14088 153.819C11.1389 155.513 27.3114 162.362 31.6127 164.184C32.2864 164.469 33.0477 164.466 33.719 164.175V164.175C33.719 164.175 29.7177 146.29 28.644 141.49C28.4801 140.758 27.9587 140.157 27.2567 139.891C22.1027 137.943 0.989899 129.961 0.989899 129.961C0.759462 130.598 0.723946 131.29 0.887841 131.948Z" fill="white"/>
</mask>
<g mask="url(#mask3)">
<path fill-rule="evenodd" clip-rule="evenodd" d="M28.4664 140.692C28.4512 140.625 28.3981 140.573 28.3306 140.558C28.263 140.544 28.1934 140.571 28.1523 140.626C28.0107 140.817 27.8256 141.067 27.6631 141.287C27.4256 141.607 27.3398 142.016 27.4279 142.405C28.2431 146.003 32.3706 164.22 32.3706 164.22H33.7876C33.7876 164.22 29.1543 143.734 28.4664 140.692Z" fill="#C8C6C5"/>
</g>
<path fill-rule="evenodd" clip-rule="evenodd" d="M0.989995 129.961C0.989995 129.961 22.1027 137.943 27.2568 139.891C27.9588 140.157 28.4802 140.758 28.644 141.49C29.7178 146.29 33.7191 164.175 33.7191 164.175V164.175C33.0477 164.466 32.2865 164.469 31.6128 164.184C27.3115 162.362 11.139 155.513 7.14097 153.819C6.57554 153.58 6.15561 153.089 6.00718 152.493C5.09792 148.844 1.82369 135.703 0.887936 131.948C0.724078 131.29 0.759594 130.598 0.989995 129.961Z" stroke="black" stroke-width="0.501256" stroke-linecap="round" stroke-linejoin="round"/>
<path fill-rule="evenodd" clip-rule="evenodd" d="M15.6682 144.768C16.6017 144.481 17.7085 145.388 18.1384 146.79C18.5683 148.192 18.1595 149.563 17.2261 149.849C16.2927 150.135 15.1858 149.229 14.7559 147.827C14.326 146.425 14.7348 145.054 15.6682 144.768Z" fill="#FEFEFE"/>
<path fill-rule="evenodd" clip-rule="evenodd" d="M82.6137 135.38C85.3514 141.085 91.9652 140.39 94.1254 134.557C95.8773 129.826 95.0167 125.231 94.3705 120.47C93.9498 117.372 93.9093 113.867 94.6887 110.833C94.8897 110.049 96.8689 103.998 98.6629 104.978C99.775 105.586 98.3949 107.748 98.3305 111.363C98.2784 114.281 99.8836 119.628 100.748 121.723C103.133 127.504 104.887 133.185 102.151 139.105C101.076 141.431 99.3236 141.804 97.4203 143.564C90.9743 149.527 80.9494 144.533 82.6137 135.38Z" fill="#E52B31"/>
<mask id="mask4" style="mask-type:alpha" maskUnits="userSpaceOnUse" x="82" y="104" width="22" height="43">
<path fill-rule="evenodd" clip-rule="evenodd" d="M94.689 110.833C93.9096 113.867 93.9501 117.372 94.3708 120.47C95.017 125.231 95.8776 129.826 94.1257 134.557C91.9654 140.39 85.3517 141.085 82.6139 135.38C80.9497 144.533 90.9745 149.527 97.4206 143.564C99.3238 141.804 101.076 141.431 102.151 139.105C104.888 133.185 103.134 127.504 100.748 121.723C99.8839 119.628 98.2786 114.281 98.3308 111.363C98.3952 107.748 99.7753 105.586 98.6631 104.978C98.5293 104.905 98.3947 104.871 98.2596 104.871C96.584 104.871 94.8749 110.108 94.689 110.833Z" fill="white"/>
</mask>
<g mask="url(#mask4)">
<path fill-rule="evenodd" clip-rule="evenodd" d="M87.2396 137.969C91.1952 138.389 94.8159 136.611 95.9093 135.513C100.299 131.102 97.9892 121.535 95.8242 120.157C92.7071 118.173 94.6048 115.727 94.8663 113.292C94.9995 112.049 96.8437 102.613 98.4012 103.13C98.8769 103.288 100.805 104.439 100.92 104.86C101.219 105.961 101.092 107.129 101.285 108.248C101.631 110.248 102.314 112.133 102.83 114.088C103.476 116.536 104.052 118.996 104.775 121.424C106.176 126.125 108.429 131.021 106.712 135.986C104.387 142.707 93.6581 149.794 87.9112 142.776C85.9797 140.417 84.3936 138.312 87.2396 137.969Z" fill="#BA1918"/>
</g>
<mask id="mask5" style="mask-type:alpha" maskUnits="userSpaceOnUse" x="82" y="104" width="22" height="43">
<path fill-rule="evenodd" clip-rule="evenodd" d="M94.689 110.833C93.9096 113.867 93.9501 117.372 94.3708 120.47C95.017 125.231 95.8776 129.826 94.1257 134.557C91.9654 140.39 85.3517 141.085 82.6139 135.38C80.9497 144.533 90.9745 149.527 97.4206 143.564C99.3238 141.804 101.076 141.431 102.151 139.105C104.888 133.185 103.134 127.504 100.748 121.723C99.8839 119.628 98.2786 114.281 98.3308 111.363C98.3952 107.748 99.7753 105.586 98.6631 104.978C98.5293 104.905 98.3947 104.871 98.2596 104.871C96.584 104.871 94.8749 110.108 94.689 110.833Z" fill="white"/>
</mask>
<g mask="url(#mask5)">
<path fill-rule="evenodd" clip-rule="evenodd" d="M94.2898 119.398C94.6226 120.78 95.2956 122.048 95.7608 123.384C96.8071 126.39 96.7608 129.719 95.8886 132.771C95.3612 134.616 94.5227 136.542 92.6115 137.29C93.1758 135.748 93.7732 134.332 94.0477 132.698C94.7645 128.427 93.8463 123.669 94.2898 119.398Z" fill="#F090AD"/>
</g>
<path fill-rule="evenodd" clip-rule="evenodd" d="M82.6139 135.376C85.3517 141.081 91.9654 140.386 94.1257 134.553C95.8776 129.822 95.017 125.227 94.3708 120.466C93.9501 117.368 93.9095 113.863 94.689 110.829C94.8899 110.045 96.8692 103.994 98.6631 104.974C99.7753 105.582 98.3952 107.745 98.3307 111.359C98.2786 114.277 99.8839 119.624 100.748 121.719C103.134 127.501 104.888 133.181 102.151 139.101C101.076 141.428 99.3238 141.8 97.4206 143.56C90.9745 149.523 80.9497 144.529 82.6139 135.376Z" stroke="black" stroke-width="0.502667" stroke-linecap="round" stroke-linejoin="round"/>
<path fill-rule="evenodd" clip-rule="evenodd" d="M51.6332 104.7C52.5177 104.248 55.3818 107.139 56.3108 109.045C59.1499 114.868 57.8284 120.687 55.9306 126.478C55.1193 128.953 52.7802 132.193 53.4662 135.494C54.1737 138.897 57.4494 140.236 60.1491 137.837C61.5994 136.548 62.3901 134.72 62.952 132.904C63.4603 136.388 65.2419 140.019 63.4176 143.053C60.1878 148.426 53.4246 149.191 48.1389 144.142C46.4967 142.573 45.656 139.981 45.5554 137.93C45.0731 128.1 52.0778 124.835 53.345 116.399C53.5788 114.842 53.2414 113.348 53.034 111.785C52.5112 107.847 50.205 105.428 51.6332 104.7Z" fill="#E52B31"/>
<mask id="mask6" style="mask-type:alpha" maskUnits="userSpaceOnUse" x="45" y="104" width="20" height="44">
<path fill-rule="evenodd" clip-rule="evenodd" d="M51.6333 104.7C50.205 105.428 52.5112 107.847 53.034 111.785C53.2414 113.348 53.5789 114.842 53.345 116.399C52.0779 124.835 45.0732 128.1 45.5554 137.93C45.6561 139.981 46.4967 142.573 48.1389 144.142C53.4246 149.191 60.1879 148.426 63.4176 143.053C65.2419 140.019 63.4603 136.388 62.952 132.904C62.3901 134.72 61.5994 136.548 60.1491 137.837C57.4494 140.236 54.1737 138.897 53.4663 135.494C52.7802 132.193 55.1193 128.954 55.9306 126.478C57.8285 120.687 59.1499 114.868 56.3108 109.045C55.4475 107.274 52.9134 104.652 51.8494 104.652C51.7684 104.652 51.6958 104.668 51.6333 104.7Z" fill="white"/>
</mask>
<g mask="url(#mask6)">
<path fill-rule="evenodd" clip-rule="evenodd" d="M54.6324 115.793C56.397 126.076 46.7697 134.395 52.8632 144.598C53.8678 143.574 54.9514 143.152 56.0766 142.257C58.0124 140.718 60.1227 139.42 60.8591 136.862C61.2614 135.464 59.3045 133.036 58.8715 131.567C58.1341 129.065 59.3914 128.152 58.1163 125.873C56.3271 122.675 55.1788 118.317 54.6324 115.793Z" fill="#BA1918"/>
</g>
<mask id="mask7" style="mask-type:alpha" maskUnits="userSpaceOnUse" x="45" y="104" width="20" height="44">
<path fill-rule="evenodd" clip-rule="evenodd" d="M51.6333 104.7C50.205 105.428 52.5112 107.847 53.034 111.785C53.2414 113.348 53.5789 114.842 53.345 116.399C52.0779 124.835 45.0732 128.1 45.5554 137.93C45.6561 139.981 46.4967 142.573 48.1389 144.142C53.4246 149.191 60.1879 148.426 63.4176 143.053C65.2419 140.019 63.4603 136.388 62.952 132.904C62.3901 134.72 61.5994 136.548 60.1491 137.837C57.4494 140.236 54.1737 138.897 53.4663 135.494C52.7802 132.193 55.1193 128.954 55.9306 126.478C57.8285 120.687 59.1499 114.868 56.3108 109.045C55.4475 107.274 52.9134 104.652 51.8494 104.652C51.7684 104.652 51.6958 104.668 51.6333 104.7Z" fill="white"/>
</mask>
<g mask="url(#mask7)">
<path fill-rule="evenodd" clip-rule="evenodd" d="M51.4609 104.737C54.0763 111.268 55.8915 116.483 52.214 123.15C48.1642 130.493 46.3399 132.044 46.488 138.883C46.5173 140.246 47.0032 142.401 47.5752 143.657C43.0555 137.463 45.7371 130.947 48.8959 124.823C49.9907 122.701 51.3074 120.608 51.8809 118.265C52.9876 113.742 50.5106 111.843 50.1717 107.858C50.1257 107.318 50.1985 104.379 51.4609 104.737Z" fill="#F090AD"/>
</g>
<path fill-rule="evenodd" clip-rule="evenodd" d="M51.6334 104.7C52.5178 104.248 55.3819 107.139 56.3109 109.045C59.15 114.868 57.8286 120.687 55.9308 126.478C55.1194 128.954 52.7803 132.193 53.4664 135.494C54.1738 138.897 57.4495 140.236 60.1492 137.837C61.5995 136.548 62.3902 134.72 62.9521 132.904C63.4604 136.388 65.242 140.019 63.4177 143.053C60.188 148.426 53.4247 149.191 48.139 144.142C46.4968 142.573 45.6561 139.981 45.5555 137.93C45.0733 128.1 52.078 124.835 53.3451 116.399C53.579 114.842 53.2416 113.348 53.0341 111.785C52.5113 107.847 50.2051 105.428 51.6334 104.7Z" stroke="black" stroke-width="0.502667" stroke-linecap="round" stroke-linejoin="round"/>
<path fill-rule="evenodd" clip-rule="evenodd" d="M59.7608 140.574C52.8749 147.761 47.2564 143.198 42.0616 141.193C39.0574 140.034 36.0576 140.047 33.3915 142.864C31.663 144.69 30.5698 149.045 31.8666 149.5C32.9924 149.895 33.9731 146.79 37.0036 146.98C38.7692 147.09 41.3904 148.829 42.7755 149.881C46.6135 152.797 52.8669 153.276 57.081 150.807C57.3012 148.141 60.2594 143.186 59.7608 140.574Z" fill="#E52B31"/>
<mask id="mask8" style="mask-type:alpha" maskUnits="userSpaceOnUse" x="31" y="140" width="29" height="13">
<path fill-rule="evenodd" clip-rule="evenodd" d="M33.3914 142.864C31.6629 144.69 30.5697 149.045 31.8665 149.5C32.4464 149.703 32.9879 148.978 33.7908 148.253C34.5466 147.57 35.5341 146.888 37.0034 146.98C38.7691 147.09 41.3902 148.829 42.7754 149.881C46.6133 152.797 52.8668 153.276 57.0809 150.807C57.301 148.141 60.2593 143.186 59.7607 140.574C52.8748 147.761 47.2563 143.198 42.0614 141.193C40.8925 140.742 39.7241 140.469 38.5759 140.469C36.7732 140.469 35.02 141.143 33.3914 142.864Z" fill="white"/>
</mask>
<g mask="url(#mask8)">
<path fill-rule="evenodd" clip-rule="evenodd" d="M56.0765 147.336C54.7468 148.147 53.3384 148.408 51.7958 148.417C46.3848 148.446 42.7126 144.574 37.7448 144.166C34.41 143.892 30.8784 146.279 30.9775 149.855C31.0456 152.311 34.6682 150.713 35.9863 150.614C36.9323 150.542 37.9051 150.748 38.7889 151.078C43.5337 152.85 48.5538 159.266 53.745 154.841C55.2692 153.542 56.0508 149.326 56.0765 147.336Z" fill="#BA1918"/>
</g>
<mask id="mask9" style="mask-type:alpha" maskUnits="userSpaceOnUse" x="31" y="140" width="29" height="13">
<path fill-rule="evenodd" clip-rule="evenodd" d="M33.3914 142.864C31.6629 144.69 30.5697 149.045 31.8665 149.5C32.4464 149.703 32.9879 148.978 33.7908 148.253C34.5466 147.57 35.5341 146.888 37.0034 146.98C38.7691 147.09 41.3902 148.829 42.7754 149.881C46.6133 152.797 52.8668 153.276 57.0809 150.807C57.301 148.141 60.2593 143.186 59.7607 140.574C52.8748 147.761 47.2563 143.198 42.0614 141.193C40.8925 140.742 39.7241 140.469 38.5759 140.469C36.7732 140.469 35.02 141.143 33.3914 142.864Z" fill="white"/>
</mask>
<g mask="url(#mask9)">
<path fill-rule="evenodd" clip-rule="evenodd" d="M31.5584 146.897C32.1391 145.649 32.7547 144.393 33.693 143.364C35.6408 141.226 38.8818 141.515 41.3368 142.474C45.0629 143.928 48.8063 145.791 52.8199 144.431C50.3815 144.406 48.0116 143.657 45.7695 142.736C42.8258 141.526 40.0526 139.853 36.7385 140.449C34.2568 140.895 31.0003 144.053 31.5584 146.897Z" fill="#F090AD"/>
</g>
<path fill-rule="evenodd" clip-rule="evenodd" d="M59.7608 140.574C52.8749 147.761 47.2564 143.198 42.0616 141.193C39.0574 140.034 36.0576 140.047 33.3915 142.864C31.663 144.69 30.5698 149.045 31.8666 149.5C32.9924 149.895 33.9731 146.79 37.0036 146.98C38.7692 147.09 41.3904 148.829 42.7755 149.881C46.6135 152.797 52.8669 153.276 57.081 150.807C57.3012 148.141 60.2594 143.186 59.7608 140.574Z" stroke="black" stroke-width="0.502667" stroke-linecap="round" stroke-linejoin="round"/>
<path fill-rule="evenodd" clip-rule="evenodd" d="M79.6519 85.5426C67.1239 83.1137 61.4298 90.075 59.1613 92.2573C57.1545 94.1877 55.7216 96.8639 54.6445 99.4148C51.1925 107.592 53.2749 114.987 56.6462 122.738C58.1675 126.236 61.5601 130.734 61.3617 134.585C61.0044 141.521 51.842 142.725 50.5538 149.185C50.362 150.148 50.3207 151.236 50.6462 152.177C52.641 157.942 65.7116 158.264 69.9902 150.257C71.0151 152.977 72.8665 155.424 75.4816 156.814C80.3955 159.425 88.357 157.851 90.1893 152.022C90.4909 151.063 90.4033 150.129 90.413 149.143C95.6948 149.012 98.9357 145.265 101.301 140.844C102.485 138.628 103.608 135.115 106.193 134.109C107.619 133.553 109.468 133.809 109.123 138.806C108.909 141.921 111.735 143.243 113.291 142.663C114.623 142.166 112.937 141.552 112.678 140.113C112.06 136.687 113.986 133.937 111.994 130.697C109.997 127.448 105.589 127.368 102.924 129.17C98.224 132.347 95.214 141.068 88.3299 140.024C87.1551 139.846 85.9607 139.473 85.1226 138.586C84.4032 137.825 84.0387 136.78 83.8515 135.769C82.9503 130.908 86.9368 127.497 89.7867 124.126C91.001 122.689 92.0922 121.161 93.2054 119.647C99.9991 110.41 97.4804 88.9997 79.6519 85.5426Z" fill="#E52B31"/>
<mask id="mask10" style="mask-type:alpha" maskUnits="userSpaceOnUse" x="50" y="85" width="64" height="74">
<path fill-rule="evenodd" clip-rule="evenodd" d="M59.1611 92.2574C57.1544 94.1877 55.7214 96.8639 54.6444 99.4148C51.1924 107.592 53.2748 114.987 56.6461 122.738C58.1674 126.236 61.56 130.734 61.3616 134.585C61.0043 141.521 51.8418 142.725 50.5537 149.185C50.3618 150.148 50.3206 151.236 50.646 152.177C52.6409 157.942 65.7115 158.264 69.9901 150.257C71.015 152.977 72.8664 155.424 75.4814 156.814C80.3954 159.425 88.357 157.851 90.1892 152.022C90.4907 151.063 90.4032 150.129 90.4129 149.143C95.6947 149.012 98.9357 145.265 101.3 140.844C102.485 138.628 103.608 135.115 106.193 134.109C107.619 133.554 109.468 133.809 109.123 138.806C108.909 141.921 111.734 143.243 113.291 142.663C114.623 142.166 112.937 141.552 112.678 140.113C112.06 136.687 113.986 133.937 111.994 130.697C109.997 127.448 105.589 127.368 102.924 129.17C98.2239 132.347 95.2139 141.068 88.3298 140.024C87.155 139.846 85.9606 139.473 85.1225 138.586C84.4031 137.825 84.0385 136.78 83.8514 135.769C82.9503 130.908 86.9367 127.497 89.7866 124.126C91.0009 122.689 92.0921 121.161 93.2053 119.647C99.999 110.41 97.4803 88.9998 79.6517 85.5427C77.8327 85.19 76.1562 85.0353 74.6148 85.0352C65.541 85.0346 61.1003 90.3919 59.1611 92.2574Z" fill="white"/>
</mask>
<g mask="url(#mask10)">
<path fill-rule="evenodd" clip-rule="evenodd" d="M84.5136 147.882C84.3307 147.847 84.1464 147.801 83.9611 147.744C80.3541 146.63 78.8253 141.241 78.7051 138.392C78.4838 133.134 84.6606 124.341 87.067 119.932C90.38 113.863 89.7457 108.371 86.6898 103.071C75.5915 102.818 61.7128 91.1411 53.7654 101.642C54.0413 97.7367 55.9058 94.3994 59.3578 92.4528C67.7194 87.7376 77.8745 93.053 85.6884 97.2074C86.4881 97.6324 87.3367 98.1838 88.1864 98.7866C89.463 98.9224 90.7156 99.3423 91.4209 99.7532C95.6346 102.208 97.0592 107.363 96.3164 111.936C95.4587 117.217 92.2926 122.143 89.144 126.356C87.7715 128.193 86.1301 129.876 84.9723 131.864C82.7388 135.698 83.5809 138.737 87.9399 139.86C87.2712 144.125 93.3028 145.06 96.194 143.595C100.488 141.419 100.624 136.084 103.901 133.199C106.473 130.935 109.094 132.73 109.011 135.852C108.486 133.554 106.445 133.456 105.104 135.347C104.037 136.851 103.696 138.704 103.004 140.383C100.74 145.875 96.9876 149.287 90.9133 149.706C90.7565 148.984 90.5075 148.518 90.1827 148.225C90.4018 149.022 90.3623 149.931 90.4129 150.987C90.6932 156.844 82.1017 162.027 73.5996 155.531C78.0903 158.033 83.6939 156.096 83.9705 154.578C84.4825 151.769 80.2687 153.809 77.0476 148.186C75.2092 144.976 76.2175 140.533 76.7989 137.194C77.0947 135.497 77.1838 133.803 77.0491 132.085C76.7714 128.549 72.907 123.204 75.2403 120.156C75.3327 123.935 78.1638 127.666 78.8582 131.291C79.6178 135.258 77.2008 139.099 78.023 142.996C78.4697 145.114 80.9377 148.23 84.3441 147.948C84.4162 147.942 84.472 147.919 84.5136 147.882Z" fill="#BA1918"/>
</g>
<mask id="mask11" style="mask-type:alpha" maskUnits="userSpaceOnUse" x="50" y="85" width="64" height="74">
<path fill-rule="evenodd" clip-rule="evenodd" d="M59.1611 92.2574C57.1544 94.1877 55.7214 96.8639 54.6444 99.4148C51.1924 107.592 53.2748 114.987 56.6461 122.738C58.1674 126.236 61.56 130.734 61.3616 134.585C61.0043 141.521 51.8418 142.725 50.5537 149.185C50.3618 150.148 50.3206 151.236 50.646 152.177C52.6409 157.942 65.7115 158.264 69.9901 150.257C71.015 152.977 72.8664 155.424 75.4814 156.814C80.3954 159.425 88.357 157.851 90.1892 152.022C90.4907 151.063 90.4032 150.129 90.4129 149.143C95.6947 149.012 98.9357 145.265 101.3 140.844C102.485 138.628 103.608 135.115 106.193 134.109C107.619 133.554 109.468 133.809 109.123 138.806C108.909 141.921 111.734 143.243 113.291 142.663C114.623 142.166 112.937 141.552 112.678 140.113C112.06 136.687 113.986 133.937 111.994 130.697C109.997 127.448 105.589 127.368 102.924 129.17C98.2239 132.347 95.2139 141.068 88.3298 140.024C87.155 139.846 85.9606 139.473 85.1225 138.586C84.4031 137.825 84.0385 136.78 83.8514 135.769C82.9503 130.908 86.9367 127.497 89.7866 124.126C91.0009 122.689 92.0921 121.161 93.2053 119.647C99.999 110.41 97.4803 88.9998 79.6517 85.5427C77.8327 85.19 76.1562 85.0353 74.6148 85.0352C65.541 85.0346 61.1003 90.3919 59.1611 92.2574Z" fill="white"/>
</mask>
<g mask="url(#mask11)">
<path fill-rule="evenodd" clip-rule="evenodd" d="M54.4458 100.008C52.1939 107.44 55.2829 115.852 58.421 122.497C60.2779 126.429 62.3701 130.494 62.1743 134.98C62.0327 138.231 60.876 141.212 58.2414 143.17C55.5323 145.183 51.9347 146.413 51.0264 150.023C50.8247 150.823 50.7371 151.648 50.9594 152.451C50.4677 151.268 50.3924 150.053 50.6745 148.812C51.467 145.321 54.5906 143.921 57.0749 141.798C58.5586 140.53 59.8844 139.041 60.7815 137.299C63.2988 132.411 59.0872 127.217 56.8755 123.14C53.8123 117.492 51.7917 111.584 52.9607 105.122C53.254 103.5 53.5853 101.435 54.4458 100.008Z" fill="#F090AD"/>
</g>
<mask id="mask12" style="mask-type:alpha" maskUnits="userSpaceOnUse" x="50" y="85" width="64" height="74">
<path fill-rule="evenodd" clip-rule="evenodd" d="M59.1611 92.2574C57.1544 94.1877 55.7214 96.8639 54.6444 99.4148C51.1924 107.592 53.2748 114.987 56.6461 122.738C58.1674 126.236 61.56 130.734 61.3616 134.585C61.0043 141.521 51.8418 142.725 50.5537 149.185C50.3618 150.148 50.3206 151.236 50.646 152.177C52.6409 157.942 65.7115 158.264 69.9901 150.257C71.015 152.977 72.8664 155.424 75.4814 156.814C80.3954 159.425 88.357 157.851 90.1892 152.022C90.4907 151.063 90.4032 150.129 90.4129 149.143C95.6947 149.012 98.9357 145.265 101.3 140.844C102.485 138.628 103.608 135.115 106.193 134.109C107.619 133.554 109.468 133.809 109.123 138.806C108.909 141.921 111.734 143.243 113.291 142.663C114.623 142.166 112.937 141.552 112.678 140.113C112.06 136.687 113.986 133.937 111.994 130.697C109.997 127.448 105.589 127.368 102.924 129.17C98.2239 132.347 95.2139 141.068 88.3298 140.024C87.155 139.846 85.9606 139.473 85.1225 138.586C84.4031 137.825 84.0385 136.78 83.8514 135.769C82.9503 130.908 86.9367 127.497 89.7866 124.126C91.0009 122.689 92.0921 121.161 93.2053 119.647C99.999 110.41 97.4803 88.9998 79.6517 85.5427C77.8327 85.19 76.1562 85.0353 74.6148 85.0352C65.541 85.0346 61.1003 90.3919 59.1611 92.2574Z" fill="white"/>
</mask>
<g mask="url(#mask12)">
<path fill-rule="evenodd" clip-rule="evenodd" d="M72.0063 121.457C71.808 126.042 66.6699 127.669 64.5437 131.201C62.1589 135.163 64.1961 138.996 63.3876 143.006C62.8069 145.885 59.6547 146.734 57.1229 146.015C58.3036 145.913 59.9501 145.683 60.9287 144.942C62.5514 143.714 62.4532 141.688 62.4265 139.865C62.3913 137.499 62.4254 135.129 63.1046 132.841C63.8065 130.478 65.3199 128.848 67.2354 127.354C68.113 126.669 69.0181 126.02 69.7498 125.172C70.1715 124.682 70.5256 124.132 70.8257 123.561C71.1295 122.982 71.4466 121.855 72.0063 121.457Z" fill="#F090AD"/>
</g>
<mask id="mask13" style="mask-type:alpha" maskUnits="userSpaceOnUse" x="50" y="85" width="64" height="74">
<path fill-rule="evenodd" clip-rule="evenodd" d="M59.1611 92.2574C57.1544 94.1877 55.7214 96.8639 54.6444 99.4148C51.1924 107.592 53.2748 114.987 56.6461 122.738C58.1674 126.236 61.56 130.734 61.3616 134.585C61.0043 141.521 51.8418 142.725 50.5537 149.185C50.3618 150.148 50.3206 151.236 50.646 152.177C52.6409 157.942 65.7115 158.264 69.9901 150.257C71.015 152.977 72.8664 155.424 75.4814 156.814C80.3954 159.425 88.357 157.851 90.1892 152.022C90.4907 151.063 90.4032 150.129 90.4129 149.143C95.6947 149.012 98.9357 145.265 101.3 140.844C102.485 138.628 103.608 135.115 106.193 134.109C107.619 133.554 109.468 133.809 109.123 138.806C108.909 141.921 111.734 143.243 113.291 142.663C114.623 142.166 112.937 141.552 112.678 140.113C112.06 136.687 113.986 133.937 111.994 130.697C109.997 127.448 105.589 127.368 102.924 129.17C98.2239 132.347 95.2139 141.068 88.3298 140.024C87.155 139.846 85.9606 139.473 85.1225 138.586C84.4031 137.825 84.0385 136.78 83.8514 135.769C82.9503 130.908 86.9367 127.497 89.7866 124.126C91.0009 122.689 92.0921 121.161 93.2053 119.647C99.999 110.41 97.4803 88.9998 79.6517 85.5427C77.8327 85.19 76.1562 85.0353 74.6148 85.0352C65.541 85.0346 61.1003 90.3919 59.1611 92.2574Z" fill="white"/>
</mask>
<g mask="url(#mask13)">
<path fill-rule="evenodd" clip-rule="evenodd" d="M89.238 140.288C96.3057 140.634 98.6199 133.929 103.63 130.528C106.042 128.89 109.784 128.047 111.947 130.566C111.282 129.855 110.602 129.226 109.751 128.739C106.608 126.939 103.552 128.177 101.114 130.492C97.5106 133.915 94.7316 139.64 89.238 140.288Z" fill="#F090AD"/>
</g>
<mask id="mask14" style="mask-type:alpha" maskUnits="userSpaceOnUse" x="50" y="85" width="64" height="74">
<path fill-rule="evenodd" clip-rule="evenodd" d="M59.1611 92.2574C57.1544 94.1877 55.7214 96.8639 54.6444 99.4148C51.1924 107.592 53.2748 114.987 56.6461 122.738C58.1674 126.236 61.56 130.734 61.3616 134.585C61.0043 141.521 51.8418 142.725 50.5537 149.185C50.3618 150.148 50.3206 151.236 50.646 152.177C52.6409 157.942 65.7115 158.264 69.9901 150.257C71.015 152.977 72.8664 155.424 75.4814 156.814C80.3954 159.425 88.357 157.851 90.1892 152.022C90.4907 151.063 90.4032 150.129 90.4129 149.143C95.6947 149.012 98.9357 145.265 101.3 140.844C102.485 138.628 103.608 135.115 106.193 134.109C107.619 133.554 109.468 133.809 109.123 138.806C108.909 141.921 111.734 143.243 113.291 142.663C114.623 142.166 112.937 141.552 112.678 140.113C112.06 136.687 113.986 133.937 111.994 130.697C109.997 127.448 105.589 127.368 102.924 129.17C98.2239 132.347 95.2139 141.068 88.3298 140.024C87.155 139.846 85.9606 139.473 85.1225 138.586C84.4031 137.825 84.0385 136.78 83.8514 135.769C82.9503 130.908 86.9367 127.497 89.7866 124.126C91.0009 122.689 92.0921 121.161 93.2053 119.647C99.999 110.41 97.4803 88.9998 79.6517 85.5427C77.8327 85.19 76.1562 85.0353 74.6148 85.0352C65.541 85.0346 61.1003 90.3919 59.1611 92.2574Z" fill="white"/>
</mask>
<g mask="url(#mask14)">
<path fill-rule="evenodd" clip-rule="evenodd" d="M72.2216 121.222C72.0659 126.08 68.1744 128.335 66.9015 132.651C65.8186 136.323 67.3888 139.997 66.6259 143.708C65.5015 149.179 62.036 154.25 56.5747 154.579C55.1186 154.667 52.1061 153.842 50.7289 152.398C52.748 160.819 67.7309 158.158 70.457 151.512C69.3789 148.983 69.2833 146.182 70.1268 143.626C70.4172 142.747 70.7191 142.196 71.1369 141.043C71.3856 140.356 73.7407 134.069 73.8489 132.597C74.0618 129.71 72.9627 127.07 73.2693 124.107C73.3128 123.689 73.1553 120.894 72.2216 121.222Z" fill="#BA1918"/>
</g>
<mask id="mask15" style="mask-type:alpha" maskUnits="userSpaceOnUse" x="50" y="85" width="64" height="74">
<path fill-rule="evenodd" clip-rule="evenodd" d="M59.1611 92.2574C57.1544 94.1877 55.7214 96.8639 54.6444 99.4148C51.1924 107.592 53.2748 114.987 56.6461 122.738C58.1674 126.236 61.56 130.734 61.3616 134.585C61.0043 141.521 51.8418 142.725 50.5537 149.185C50.3618 150.148 50.3206 151.236 50.646 152.177C52.6409 157.942 65.7115 158.264 69.9901 150.257C71.015 152.977 72.8664 155.424 75.4814 156.814C80.3954 159.425 88.357 157.851 90.1892 152.022C90.4907 151.063 90.4032 150.129 90.4129 149.143C95.6947 149.012 98.9357 145.265 101.3 140.844C102.485 138.628 103.608 135.115 106.193 134.109C107.619 133.554 109.468 133.809 109.123 138.806C108.909 141.921 111.734 143.243 113.291 142.663C114.623 142.166 112.937 141.552 112.678 140.113C112.06 136.687 113.986 133.937 111.994 130.697C109.997 127.448 105.589 127.368 102.924 129.17C98.2239 132.347 95.2139 141.068 88.3298 140.024C87.155 139.846 85.9606 139.473 85.1225 138.586C84.4031 137.825 84.0385 136.78 83.8514 135.769C82.9503 130.908 86.9367 127.497 89.7866 124.126C91.0009 122.689 92.0921 121.161 93.2053 119.647C99.999 110.41 97.4803 88.9998 79.6517 85.5427C77.8327 85.19 76.1562 85.0353 74.6148 85.0352C65.541 85.0346 61.1003 90.3919 59.1611 92.2574Z" fill="white"/>
</mask>
<g mask="url(#mask15)">
<path fill-rule="evenodd" clip-rule="evenodd" d="M110.976 129.467C112.53 133.307 110.339 137.604 111.362 141.544C111.6 142.459 112.532 145.133 113.875 144.901C114.967 144.712 115.213 141.742 115.275 140.923C115.508 137.829 115.331 134.636 114.028 131.771C113.587 130.801 112.581 129.255 111.345 129.23" fill="#BA1918"/>
</g>
<path fill-rule="evenodd" clip-rule="evenodd" d="M79.6517 85.5426C67.1238 83.1137 61.4297 90.075 59.1612 92.2573C57.1544 94.1877 55.7214 96.8639 54.6444 99.4148C51.1924 107.592 53.2748 114.987 56.6461 122.738C58.1674 126.236 61.56 130.734 61.3616 134.585C61.0043 141.521 51.8418 142.725 50.5537 149.185C50.3618 150.148 50.3206 151.236 50.646 152.177C52.6409 157.942 65.7115 158.264 69.99 150.257C71.0149 152.977 72.8664 155.424 75.4814 156.814C80.3954 159.425 88.3569 157.851 90.1892 152.022C90.4908 151.063 90.4032 150.129 90.4129 149.143C95.6947 149.012 98.9356 145.265 101.3 140.844C102.485 138.628 103.608 135.115 106.193 134.109C107.619 133.553 109.468 133.809 109.123 138.806C108.909 141.921 111.734 143.243 113.291 142.663C114.623 142.166 112.937 141.552 112.678 140.113C112.06 136.687 113.986 133.937 111.994 130.697C109.997 127.448 105.589 127.368 102.924 129.17C98.2238 132.347 95.2139 141.068 88.3298 140.024C87.155 139.846 85.9606 139.473 85.1224 138.586C84.4031 137.825 84.0385 136.78 83.8514 135.769C82.9502 130.908 86.9366 127.497 89.7866 124.126C91.0008 122.689 92.0921 121.161 93.2053 119.647C99.999 110.41 97.4803 88.9997 79.6517 85.5426Z" stroke="black" stroke-width="0.502667" stroke-linecap="round" stroke-linejoin="round"/>
<path fill-rule="evenodd" clip-rule="evenodd" d="M82.2071 118.11C82.5235 118.45 82.904 118.722 83.3305 118.923C83.6071 119.053 83.9018 119.154 84.2052 119.222C84.5032 119.288 84.8101 119.321 85.1146 119.334C85.5806 119.355 86.0407 119.321 86.4715 119.261C86.5537 119.254 86.6145 119.181 86.6073 119.099C86.6004 119.018 86.528 118.957 86.4462 118.964C85.9517 118.981 85.4227 118.944 84.8974 118.859C84.7291 118.832 84.5618 118.798 84.3952 118.762C84.2291 118.726 84.0644 118.687 83.9021 118.641C83.6839 118.58 83.4706 118.51 83.2653 118.422C82.9515 118.289 82.6553 118.128 82.3947 117.912C82.34 117.86 82.2535 117.863 82.2017 117.918C82.1499 117.972 82.1524 118.059 82.2071 118.11Z" fill="black"/>
<path fill-rule="evenodd" clip-rule="evenodd" d="M61.3815 117.818C61.7707 118.058 62.1653 118.235 62.5683 118.336C62.859 118.408 63.153 118.442 63.4433 118.434C63.738 118.426 64.0288 118.372 64.3119 118.284C64.7159 118.158 65.1018 117.958 65.4689 117.692C65.5381 117.648 65.558 117.556 65.5138 117.487C65.4693 117.417 65.377 117.397 65.3078 117.441C64.948 117.645 64.5765 117.777 64.2 117.859C63.9455 117.915 63.6888 117.938 63.4299 117.945C63.174 117.952 62.9162 117.941 62.6548 117.902C62.2768 117.845 61.8934 117.747 61.509 117.576C61.4423 117.541 61.3594 117.567 61.3243 117.633C61.2892 117.7 61.3149 117.782 61.3815 117.818Z" fill="black"/>
<path fill-rule="evenodd" clip-rule="evenodd" d="M63.4137 118.277C69.5966 121.69 78.7988 121.41 84.3441 119.122C82.3443 128.476 64.637 130.655 63.4137 118.277Z" fill="#FEFEFE"/>
<mask id="mask16" style="mask-type:alpha" maskUnits="userSpaceOnUse" x="63" y="118" width="22" height="9">
<path fill-rule="evenodd" clip-rule="evenodd" d="M84.344 119.122C78.7987 121.41 69.5964 121.69 63.4136 118.277C64.6369 130.655 82.3442 128.476 84.344 119.122Z" fill="white"/>
</mask>
<g mask="url(#mask16)">
<path fill-rule="evenodd" clip-rule="evenodd" d="M63.2708 120.927C64.1589 121.528 65.1328 122.038 66.1552 122.421C67.171 122.803 68.2307 123.061 69.2958 123.16C69.3244 123.163 69.3501 123.143 69.3534 123.114C69.357 123.086 69.3367 123.06 69.3085 123.057C68.2684 122.897 67.2427 122.582 66.2674 122.147C65.2986 121.715 64.383 121.165 63.5568 120.53C63.4475 120.452 63.2943 120.477 63.2158 120.586C63.1369 120.695 63.1615 120.848 63.2708 120.927Z" fill="#C8C6C5"/>
</g>
<mask id="mask17" style="mask-type:alpha" maskUnits="userSpaceOnUse" x="63" y="118" width="22" height="9">
<path fill-rule="evenodd" clip-rule="evenodd" d="M84.344 119.122C78.7987 121.41 69.5964 121.69 63.4136 118.277C64.6369 130.655 82.3442 128.476 84.344 119.122Z" fill="white"/>
</mask>
<g mask="url(#mask17)">
<path fill-rule="evenodd" clip-rule="evenodd" d="M83.3547 121.701C82.5412 122.164 81.4606 122.564 80.3466 122.863C79.229 123.164 78.081 123.365 77.1339 123.431C77.1057 123.432 77.0832 123.456 77.0843 123.484C77.0857 123.513 77.1096 123.535 77.1382 123.534C78.098 123.524 79.2688 123.388 80.415 123.151C81.5812 122.91 82.7183 122.561 83.5843 122.132C83.7034 122.069 83.7486 121.92 83.6853 121.802C83.6219 121.682 83.4735 121.637 83.3547 121.701Z" fill="#C8C6C5"/>
</g>
<path fill-rule="evenodd" clip-rule="evenodd" d="M63.4138 118.277C69.5967 121.69 78.799 121.41 84.3443 119.122C82.3444 128.476 64.6371 130.655 63.4138 118.277Z" stroke="black" stroke-width="0.502667" stroke-linecap="round" stroke-linejoin="round"/>
<path fill-rule="evenodd" clip-rule="evenodd" d="M56.9875 145.875C65.0345 146.015 61.4258 137.903 62.9521 132.906C63.6581 130.593 65.5153 128.228 67.4269 126.882C71.4212 124.07 71.3018 121.652 71.8166 121.393C73.2108 120.692 73.0555 123.756 72.9324 124.295C72.2369 127.334 69.7327 129.564 69.068 132.584C68.3895 135.666 70.3152 138.37 70.855 141.286" fill="#E52B31"/>
<mask id="mask18" style="mask-type:alpha" maskUnits="userSpaceOnUse" x="56" y="121" width="18" height="25">
<path fill-rule="evenodd" clip-rule="evenodd" d="M71.8167 121.393C71.3019 121.652 71.4214 124.07 67.427 126.882C65.5155 128.228 63.6582 130.593 62.9522 132.906C61.8287 136.584 63.4882 141.95 61.2326 144.47L70.8552 141.286C70.3154 138.37 68.3897 135.666 69.0681 132.584C69.7328 129.564 72.237 127.334 72.9325 124.295C73.0431 123.811 73.1797 121.289 72.1959 121.289C72.0844 121.289 71.9585 121.321 71.8167 121.393ZM56.9875 145.875C59.1113 145.912 60.4238 145.374 61.2325 144.47L56.9875 145.875Z" fill="white"/>
</mask>
<g mask="url(#mask18)">
<path fill-rule="evenodd" clip-rule="evenodd" d="M72.0074 121.461C71.8091 126.046 66.6711 127.672 64.5448 131.204C62.1601 135.167 64.1973 139 63.3888 143.01C62.8081 145.889 59.6559 146.737 57.1241 146.019C58.3048 145.917 59.9513 145.687 60.9299 144.946C62.5525 143.718 62.4544 141.692 62.4276 139.869C62.3925 137.503 62.4266 135.133 63.1057 132.845C63.8077 130.482 65.321 128.852 67.2366 127.357C68.1141 126.672 69.0192 126.024 69.7509 125.175C70.1726 124.686 70.5268 124.136 70.8269 123.565C71.1306 122.985 71.4478 121.858 72.0074 121.461Z" fill="#F090AD"/>
</g>
<mask id="mask19" style="mask-type:alpha" maskUnits="userSpaceOnUse" x="56" y="121" width="18" height="25">
<path fill-rule="evenodd" clip-rule="evenodd" d="M71.8167 121.393C71.3019 121.652 71.4214 124.07 67.427 126.882C65.5155 128.228 63.6582 130.593 62.9522 132.906C61.8287 136.584 63.4882 141.95 61.2326 144.47L70.8552 141.286C70.3154 138.37 68.3897 135.666 69.0681 132.584C69.7328 129.564 72.237 127.334 72.9325 124.295C73.0431 123.811 73.1797 121.289 72.1959 121.289C72.0844 121.289 71.9585 121.321 71.8167 121.393ZM56.9875 145.875C59.1113 145.912 60.4238 145.374 61.2325 144.47L56.9875 145.875Z" fill="white"/>
</mask>
<g mask="url(#mask19)">
<path fill-rule="evenodd" clip-rule="evenodd" d="M72.2217 121.222C72.0661 126.08 68.1745 128.335 66.9016 132.651C65.8188 136.323 67.3889 139.997 66.6261 143.708C65.5016 149.179 61.2835 152.679 55.8226 153.008C54.3661 153.095 52.6975 153.039 51.3167 152.5C53.3357 160.92 67.731 158.158 70.4572 151.512C69.379 148.983 69.2835 146.182 70.127 143.626C70.4174 142.747 70.7193 142.196 71.1371 141.043C71.3858 140.356 73.7409 134.069 73.8491 132.597C74.062 129.71 72.9628 127.07 73.2695 124.108C73.3129 123.689 73.1554 120.894 72.2217 121.222Z" fill="#BA1918"/>
</g>
<path fill-rule="evenodd" clip-rule="evenodd" d="M84.344 147.95C81.1904 148.188 78.1612 145.343 77.8064 142.33C77.3296 138.286 79.7244 133.712 78.5163 129.82C78.1807 128.739 77.4548 127.752 76.8528 126.808C75.9213 125.347 75.3083 123.957 75.1295 122.227C75.107 122.008 75.0886 121.786 74.8464 121.736C74.7946 121.725 74.7432 121.722 74.6904 121.723C74.2729 121.729 73.9116 122.086 73.6658 122.386C72.0648 124.342 73.2802 126.806 73.7418 128.944C74.5589 132.73 72.9471 136.066 71.6029 139.475C70.1446 143.172 68.9093 146.366 69.99 150.258" fill="#E52B31"/>
<mask id="mask20" style="mask-type:alpha" maskUnits="userSpaceOnUse" x="69" y="121" width="16" height="30">
<path fill-rule="evenodd" clip-rule="evenodd" d="M74.6904 121.723C74.2729 121.729 73.9116 122.086 73.6658 122.386C72.0648 124.342 73.2802 126.806 73.7418 128.944C74.5589 132.731 72.9471 136.066 71.6029 139.475C70.1446 143.172 68.9093 146.366 69.99 150.258L84.3441 147.95C81.1904 148.188 78.1612 145.343 77.8064 142.33C77.3296 138.286 79.7245 133.712 78.5163 129.82C78.1807 128.739 77.4548 127.752 76.8528 126.808C75.9213 125.347 75.3083 123.957 75.1295 122.227C75.107 122.008 75.0886 121.786 74.8464 121.736C74.7992 121.726 74.7523 121.723 74.7044 121.723C74.6997 121.723 74.695 121.723 74.6904 121.723Z" fill="white"/>
</mask>
<g mask="url(#mask20)">
<path fill-rule="evenodd" clip-rule="evenodd" d="M75.2402 120.156C72.9069 123.205 76.7713 128.549 77.0489 132.086C77.1836 133.804 77.0946 135.498 76.7988 137.194C76.2173 140.533 74.7496 144.247 76.5403 147.484C78.5644 151.144 84.0663 154.978 78.0044 157.738C84.7133 159.511 90.071 155.151 90.4128 150.987C90.8096 146.15 87.3293 144.298 85.9637 142.783C85.0467 141.765 84.2781 140.474 83.8067 139.183C81.389 142.068 85.6897 147.836 84.344 147.948C80.9376 148.231 78.4696 145.115 78.0228 142.997C77.2006 139.099 79.6176 135.258 78.858 131.291C78.1637 127.666 75.3326 123.936 75.2402 120.156Z" fill="#BA1918"/>
</g>
<mask id="mask21" style="mask-type:alpha" maskUnits="userSpaceOnUse" x="69" y="121" width="16" height="30">
<path fill-rule="evenodd" clip-rule="evenodd" d="M74.6904 121.723C74.2729 121.729 73.9116 122.086 73.6658 122.386C72.0648 124.342 73.2802 126.806 73.7418 128.944C74.5589 132.731 72.9471 136.066 71.6029 139.475C70.1446 143.172 68.9093 146.366 69.99 150.258L84.3441 147.95C81.1904 148.188 78.1612 145.343 77.8064 142.33C77.3296 138.286 79.7245 133.712 78.5163 129.82C78.1807 128.739 77.4548 127.752 76.8528 126.808C75.9213 125.347 75.3083 123.957 75.1295 122.227C75.107 122.008 75.0886 121.786 74.8464 121.736C74.7992 121.726 74.7523 121.723 74.7044 121.723C74.6997 121.723 74.695 121.723 74.6904 121.723Z" fill="white"/>
</mask>
<g mask="url(#mask21)">
<path fill-rule="evenodd" clip-rule="evenodd" d="M74.5722 121.938C73.0183 124.048 74.5642 126.958 75.0461 129.172C75.2814 130.254 75.3629 131.392 75.2691 132.496C75.0233 135.388 73.636 137.932 72.6147 140.599C70.3291 146.567 69.9182 152.953 75.676 156.857C74.267 155.881 72.9105 154.958 71.7718 153.666C65.5147 146.57 72.8279 139.556 73.9328 132.088C74.0729 131.14 74.0436 130.164 73.8394 129.229C73.3648 127.055 72.005 123.589 74.5722 121.938Z" fill="#F090AD"/>
</g>
<path fill-rule="evenodd" clip-rule="evenodd" d="M56.9851 146.03C57.6961 146.063 58.3195 146.032 58.8662 145.939C59.1526 145.89 59.418 145.823 59.6634 145.741C61.197 145.226 61.9747 144.15 62.3682 142.794C62.7835 141.364 62.756 139.598 62.7444 137.812C62.7335 136.124 62.7364 134.417 63.1781 132.974C63.5217 131.849 64.1447 130.713 64.9133 129.692C65.6924 128.657 66.6214 127.74 67.5645 127.076C68.7998 126.207 69.6484 125.374 70.2469 124.629C71.1136 123.55 71.4583 122.653 71.6849 122.089C71.7446 121.939 71.7953 121.815 71.846 121.72C71.8742 121.668 71.8916 121.624 71.9253 121.607C72.0784 121.531 72.2008 121.507 72.3018 121.55C72.481 121.625 72.5719 121.851 72.6425 122.117C72.8405 122.86 72.7638 123.947 72.6964 124.241C72.1443 126.653 70.4377 128.55 69.4399 130.747C69.1803 131.318 68.9674 131.908 68.8302 132.531C68.6199 133.486 68.6496 134.405 68.8114 135.306C69.1771 137.345 70.236 139.285 70.614 141.33C70.6386 141.463 70.7664 141.551 70.8996 141.526C71.0325 141.502 71.1205 141.374 71.0959 141.241C70.7175 139.197 69.6579 137.258 69.2914 135.22C69.1409 134.381 69.1104 133.524 69.3059 132.635C69.8338 130.234 71.5397 128.339 72.5505 126.128C72.8105 125.559 73.0259 124.97 73.1682 124.348C73.2557 123.965 73.351 122.378 72.9643 121.595C72.8369 121.338 72.6588 121.159 72.4361 121.085C72.2388 121.019 71.9977 121.031 71.7084 121.177C71.5911 121.236 71.4825 121.361 71.384 121.565C71.1552 122.041 70.896 123.053 69.8729 124.328C69.2969 125.046 68.4787 125.848 67.2898 126.686C66.3097 127.376 65.3434 128.329 64.5339 129.406C63.732 130.473 63.0847 131.662 62.7263 132.836C62.2734 134.321 62.264 136.077 62.277 137.815C62.2904 139.554 62.3269 141.273 61.9258 142.666C61.5761 143.882 60.8802 144.828 59.5168 145.317C59.153 145.448 58.7446 145.551 58.2812 145.619C57.8898 145.676 57.4612 145.712 56.9905 145.719C56.9047 145.717 56.8337 145.786 56.8323 145.872C56.8308 145.957 56.8993 146.028 56.9851 146.03Z" fill="black"/>
<path fill-rule="evenodd" clip-rule="evenodd" d="M90.6563 149.117C90.5592 148.268 90.2961 147.488 89.9036 146.767C89.5209 146.065 89.0152 145.418 88.4222 144.817C87.8874 144.279 87.248 143.745 86.6221 143.184C86.2264 142.83 85.8379 142.464 85.4857 142.077C85.1276 141.684 84.8069 141.271 84.5632 140.817C84.3999 140.513 84.2674 140.195 84.1827 139.853C84.1693 139.788 84.1067 139.747 84.0422 139.76C83.9782 139.774 83.9369 139.836 83.9503 139.901C84.1096 140.82 84.5708 141.624 85.1747 142.349C85.5197 142.763 85.914 143.149 86.3155 143.521C86.9248 144.086 87.5583 144.614 88.0822 145.151C88.6408 145.722 89.1166 146.334 89.4764 146.999C89.8374 147.666 90.081 148.387 90.1694 149.172C90.1846 149.306 90.3062 149.403 90.4405 149.388C90.5748 149.372 90.6715 149.251 90.6563 149.117Z" fill="black"/>
<path fill-rule="evenodd" clip-rule="evenodd" d="M74.5724 121.938C73.0185 124.048 74.5644 126.958 75.0463 129.172C75.2816 130.254 75.3631 131.392 75.2693 132.496C75.0235 135.388 73.6362 137.932 72.6148 140.599C70.3293 146.567 69.9184 152.953 75.6762 156.857C74.2672 155.881 73.3252 155.228 72.2473 153.885C66.3581 146.547 72.8281 139.556 73.933 132.088C74.0731 131.14 74.0438 130.164 73.8396 129.229C73.365 127.055 72.0052 123.589 74.5724 121.938Z" fill="#F090AD"/>
<path fill-rule="evenodd" clip-rule="evenodd" d="M84.3319 147.791C82.8077 147.888 81.3252 147.238 80.1783 146.207C79.7242 145.799 79.3242 145.331 78.9929 144.824C78.4864 144.049 78.1425 143.185 78.0404 142.304C77.7139 139.52 78.762 136.485 79.0364 133.597C79.162 132.272 79.1284 130.978 78.7471 129.749C78.6077 129.3 78.4035 128.865 78.1682 128.443C77.8272 127.832 77.4199 127.248 77.0571 126.679C76.601 125.963 76.2226 125.265 75.9363 124.534C75.6517 123.806 75.4587 123.046 75.3715 122.203C75.3541 122.035 75.3288 121.867 75.2531 121.743C75.181 121.626 75.0724 121.535 74.8958 121.499L74.6865 121.48C74.4751 121.484 74.2734 121.555 74.0895 121.668C73.8498 121.815 73.6402 122.034 73.4777 122.232C72.7916 123.07 72.5878 123.994 72.6247 124.949C72.6772 126.296 73.2242 127.705 73.5026 128.996C73.8205 130.47 73.7612 131.872 73.4929 133.238C73.0809 135.337 72.179 137.348 71.3749 139.386C70.4919 141.626 69.6922 143.683 69.4275 145.819C69.2494 147.259 69.3128 148.735 69.7541 150.325C69.7903 150.455 69.9253 150.532 70.0557 150.495C70.186 150.459 70.2624 150.324 70.2262 150.194C69.8037 148.671 69.7432 147.258 69.9141 145.879C70.1737 143.782 70.9637 141.764 71.8307 139.566C72.6453 137.5 73.5555 135.46 73.9733 133.332C74.2539 131.903 74.3136 130.435 73.9809 128.893C73.7079 127.628 73.1645 126.249 73.1127 124.93C73.0798 124.091 73.2525 123.277 73.8546 122.541C73.9653 122.405 74.1011 122.257 74.2571 122.142C74.3893 122.045 74.5352 121.97 74.6941 121.967L74.7976 121.975C74.8378 121.984 74.8491 122.015 74.8577 122.048C74.8748 122.111 74.8802 122.182 74.8878 122.253C74.9798 123.142 75.1836 123.943 75.4841 124.711C75.7817 125.47 76.1745 126.196 76.6484 126.939C77.0064 127.5 77.409 128.077 77.7454 128.679C77.9644 129.071 78.1555 129.475 78.2855 129.893C78.6483 131.061 78.6754 132.292 78.557 133.552C78.2823 136.473 77.2392 139.544 77.5727 142.359C77.6675 143.155 77.939 143.942 78.3521 144.664C78.75 145.36 79.2775 145.998 79.893 146.53C81.1355 147.605 82.7357 148.252 84.3562 148.111C84.4445 148.104 84.5107 148.027 84.5042 147.939C84.4973 147.85 84.4202 147.784 84.3319 147.791Z" fill="black"/>
<path fill-rule="evenodd" clip-rule="evenodd" d="M92.5569 101.668C89.2739 102.662 83.767 100.014 80.9029 98.6033C75.8869 96.1321 73.416 94.2379 67.8638 93.1105C76.3909 92.5352 85.9837 96.1708 92.5569 101.668Z" fill="#FEFEFE"/>
<mask id="mask22" style="mask-type:alpha" maskUnits="userSpaceOnUse" x="67" y="93" width="26" height="9">
<path fill-rule="evenodd" clip-rule="evenodd" d="M67.8635 93.1105C73.4157 94.2379 75.8866 96.132 80.9026 98.6033C83.7668 100.014 89.2737 102.662 92.5567 101.668C86.4413 96.5536 77.7127 93.0506 69.6597 93.0508C69.0569 93.0508 68.4573 93.0704 67.8635 93.1105Z" fill="white"/>
</mask>
<g mask="url(#mask22)">
<path fill-rule="evenodd" clip-rule="evenodd" d="M78.3772 97.1797C81.7307 98.0164 85.2026 97.9367 88.58 98.6112C90.6451 99.0235 92.5831 100.577 93.7054 102.469C91.9774 102.701 90.1828 102.941 88.437 102.783C85.9408 102.558 78.5353 97.2184 78.3492 97.9682" fill="#C8C6C5"/>
</g>
<path fill-rule="evenodd" clip-rule="evenodd" d="M92.5568 101.668C89.2738 102.662 83.7669 100.014 80.9028 98.6033C75.8868 96.1321 73.4159 94.2379 67.8636 93.1105C76.3907 92.5352 85.9836 96.1708 92.5568 101.668Z" stroke="black" stroke-width="0.502667" stroke-linecap="round" stroke-linejoin="round"/>
<path fill-rule="evenodd" clip-rule="evenodd" d="M96.7514 108.376C95.9592 104.755 93.0727 101.699 90.066 99.7723C80.266 93.4913 62.9229 89.7406 55.9106 97.4679C57.9583 92.0218 60.7822 88.505 65.3881 86.1144C80.4944 78.2742 100.939 91.8455 96.7514 108.376Z" fill="#FEFEFE"/>
<mask id="mask23" style="mask-type:alpha" maskUnits="userSpaceOnUse" x="55" y="83" width="43" height="26">
<path fill-rule="evenodd" clip-rule="evenodd" d="M65.3881 86.1144C60.7822 88.5049 57.9583 92.0218 55.9106 97.4679C62.9229 89.7406 80.266 93.4913 90.0659 99.7722C93.0727 101.699 95.9592 104.755 96.7514 108.376C100.1 95.1579 87.6992 83.8318 74.8713 83.832C71.6568 83.8321 68.4151 84.5434 65.3881 86.1144Z" fill="white"/>
</mask>
<g mask="url(#mask23)">
<path fill-rule="evenodd" clip-rule="evenodd" d="M70.5488 91.4161C68.4016 91.2014 66.066 91.0943 63.7621 91.0572C65.0938 89.0842 66.3583 87.2108 67.5605 85.4297C69.7023 85.4515 71.8027 85.5883 73.8615 85.8399C72.8058 87.6528 71.7166 89.4136 70.5488 91.4161Z" fill="#75151E"/>
</g>
<mask id="mask24" style="mask-type:alpha" maskUnits="userSpaceOnUse" x="55" y="83" width="43" height="26">
<path fill-rule="evenodd" clip-rule="evenodd" d="M65.3881 86.1144C60.7822 88.5049 57.9583 92.0218 55.9106 97.4679C62.9229 89.7406 80.266 93.4913 90.0659 99.7722C93.0727 101.699 95.9592 104.755 96.7514 108.376C100.1 95.1579 87.6992 83.8318 74.8713 83.832C71.6568 83.8321 68.4151 84.5434 65.3881 86.1144Z" fill="white"/>
</mask>
<g mask="url(#mask24)">
<path fill-rule="evenodd" clip-rule="evenodd" d="M85.7357 86.832C88.1066 89.8062 88.656 95.4092 87.9912 99.1115C92.7511 100.652 96.293 105.486 97.9552 109.818C101.521 101.728 99.8954 92.7688 91.3487 88.3349C89.7207 87.4904 87.5066 87.295 85.7357 86.832Z" fill="#C8C6C5"/>
<path fill-rule="evenodd" clip-rule="evenodd" d="M76.4731 90.3497C76.1015 90.5067 75.7365 90.5523 75.418 90.4835C74.6654 90.3205 74.4496 89.5769 74.9042 88.791C75.3491 88.022 76.2744 87.5339 77.0306 87.6817C77.3489 87.7441 77.5898 87.9102 77.7226 88.1622C77.7228 88.1626 77.7233 88.1627 77.7237 88.1625C78.0269 88.0097 78.3294 87.858 78.6312 87.7075C78.6286 87.7024 78.626 87.6973 78.6233 87.6922C78.4161 87.268 78.0066 86.9795 77.4797 86.8798C76.2528 86.6499 74.7255 87.4358 74.0335 88.6295C73.3172 89.8652 73.6819 91.0943 74.8983 91.3641C75.4318 91.4819 76.0722 91.3913 76.6979 91.1065C76.698 91.1065 76.698 91.1064 76.698 91.1063C76.6244 90.852 76.5495 90.5999 76.4734 90.3498C76.4734 90.3497 76.4732 90.3496 76.4731 90.3497ZM77.2275 91.7601C77.5096 91.8304 77.7916 91.9026 78.0736 91.9763C78.9272 90.4924 79.7345 89.0517 80.4932 87.6571C80.2141 87.5902 79.9346 87.5253 79.6547 87.4623C78.8951 88.8483 78.0852 90.2818 77.2275 91.7601ZM82.3232 91.3126C82.34 91.2506 82.3582 88.1251 82.342 88.122C82.0698 88.0473 81.797 87.9746 81.5239 87.9039C80.7675 89.3085 79.9646 90.757 79.117 92.2473C79.4001 92.3259 79.6833 92.4064 79.9662 92.4889C80.473 91.589 80.9641 90.704 81.4391 89.8339C81.4529 89.9696 81.4241 92.9796 81.4128 92.9726C81.4135 92.967 84.2114 90.8255 84.3334 90.7384C83.8696 91.6193 83.3918 92.5131 82.9 93.4197C83.1853 93.5178 83.4704 93.6183 83.7552 93.7211C84.5637 92.2129 85.3348 90.7379 86.0684 89.2977C85.7976 89.2004 85.5262 89.1057 85.2544 89.0134C85.2548 89.0081 82.3857 91.258 82.3232 91.3126ZM86.8792 93.9508C86.6008 93.8338 86.322 93.7191 86.0431 93.6071C86.2267 93.2517 86.4082 92.8981 86.5879 92.546C86.8645 92.6579 87.1408 92.7723 87.4167 92.8895C87.8051 93.0551 87.8067 93.3876 87.679 93.6416C87.5495 93.8996 87.271 94.1158 86.8792 93.9508ZM87.4824 90.7761C87.7381 90.8802 87.9934 90.9866 88.2484 91.0954C88.5704 91.2332 88.6736 91.4976 88.5256 91.7983C88.3771 92.0997 88.095 92.1955 87.7706 92.0577C87.5138 91.9485 87.2566 91.8417 86.9991 91.7372C87.1618 91.4154 87.323 91.095 87.4824 90.7761ZM88.4509 92.8188C88.6915 92.7923 89.1442 92.6307 89.3825 92.1394C89.7479 91.3867 89.4857 90.6846 88.6936 90.3423C88.1441 90.1061 87.5922 89.8819 87.0382 89.6689C86.3124 91.1147 85.5508 92.593 84.7536 94.1027C85.3491 94.3296 85.9438 94.5673 86.5378 94.816C87.3509 95.1548 88.1075 94.8775 88.5106 94.0649C88.8081 93.4637 88.6132 93.0339 88.4509 92.8188Z" fill="#7C1710"/>
</g>
<mask id="mask25" style="mask-type:alpha" maskUnits="userSpaceOnUse" x="55" y="83" width="43" height="26">
<path fill-rule="evenodd" clip-rule="evenodd" d="M65.3881 86.1144C60.7822 88.5049 57.9583 92.0218 55.9106 97.4679C62.9229 89.7406 80.266 93.4913 90.0659 99.7722C93.0727 101.699 95.9592 104.755 96.7514 108.376C100.1 95.1579 87.6992 83.8318 74.8713 83.832C71.6568 83.8321 68.4151 84.5434 65.3881 86.1144Z" fill="white"/>
</mask>
<g mask="url(#mask25)">
<path fill-rule="evenodd" clip-rule="evenodd" d="M67.75 86.3359C68.8942 86.3644 70.0257 86.4264 71.1446 86.5218C71.3524 87.1528 71.5598 87.8044 71.7668 88.4772C70.7966 89.0802 69.8067 89.7016 68.7964 90.342C67.6238 90.2321 66.437 90.1593 65.2358 90.1237C66.2253 89.4509 67.1945 88.7965 68.1442 88.16C68.014 87.5343 67.8825 86.9265 67.75 86.3359Z" fill="#E5292B"/>
</g>
<mask id="mask26" style="mask-type:alpha" maskUnits="userSpaceOnUse" x="55" y="83" width="43" height="26">
<path fill-rule="evenodd" clip-rule="evenodd" d="M65.3881 86.1144C60.7822 88.5049 57.9583 92.0218 55.9106 97.4679C62.9229 89.7406 80.266 93.4913 90.0659 99.7722C93.0727 101.699 95.9592 104.755 96.7514 108.376C100.1 95.1579 87.6992 83.8318 74.8713 83.832C71.6568 83.8321 68.4151 84.5434 65.3881 86.1144Z" fill="white"/>
</mask>
<g mask="url(#mask26)">
<path fill-rule="evenodd" clip-rule="evenodd" d="M71.7666 88.4771C71.5597 87.8043 71.3523 87.1528 71.1445 86.5218C70.0256 86.4264 68.894 86.3645 67.7499 86.3359C67.8824 86.9264 68.0138 87.5343 68.144 88.16" fill="#FEFEFE"/>
</g>
<path fill-rule="evenodd" clip-rule="evenodd" d="M96.7516 108.376C95.9594 104.755 93.073 101.699 90.0662 99.7723C80.2662 93.4913 62.9232 89.7406 55.9109 97.4679C57.9586 92.0218 60.7825 88.505 65.3883 86.1144C80.4947 78.2742 100.939 91.8455 96.7516 108.376Z" stroke="black" stroke-width="0.502667" stroke-linecap="round" stroke-linejoin="round"/>
<path fill-rule="evenodd" clip-rule="evenodd" d="M68.3619 93.185C64.3364 91.865 58.8425 91.0681 54.737 92.4794C49.8393 94.1632 50.4642 98.209 53.9694 101.166C55.3242 95.3909 62.5693 92.5775 68.3619 93.185Z" fill="#C8C6C5"/>
<path fill-rule="evenodd" clip-rule="evenodd" d="M68.3619 93.185C64.3364 91.865 58.8425 91.0681 54.737 92.4794C49.8393 94.1632 50.4642 98.209 53.9694 101.166C55.3242 95.3909 62.5693 92.5775 68.3619 93.185Z" stroke="black" stroke-width="0.502667" stroke-linecap="round" stroke-linejoin="round"/>
<path fill-rule="evenodd" clip-rule="evenodd" d="M90.4351 99.8787C91.047 97.8151 91.3181 94.8833 90.7429 92.2926C90.6683 91.9555 90.5792 91.6239 90.4724 91.3021C90.3081 90.805 90.1071 90.3282 89.8624 89.8847C89.4403 89.1201 88.8947 88.4532 88.2202 87.9232C88.1761 87.8859 88.1098 87.8913 88.0725 87.9355C88.0352 87.9797 88.0406 88.0459 88.0848 88.0832C88.6912 88.6342 89.1542 89.312 89.5166 90.0632C89.7266 90.4987 89.9026 90.9585 90.0463 91.4364C90.1397 91.7481 90.2212 92.0667 90.2896 92.3907C90.8218 94.9061 90.5651 97.7416 89.9656 99.7386C89.9268 99.8682 90.0007 100.005 90.1303 100.043C90.2599 100.082 90.3964 100.008 90.4351 99.8787Z" fill="black"/>
<path fill-rule="evenodd" clip-rule="evenodd" d="M59.0154 103.973C59.2221 103.708 59.4473 103.473 59.6852 103.261C59.8477 103.116 60.0175 102.984 60.1938 102.862C60.3712 102.739 60.5541 102.626 60.7485 102.527C61.0334 102.383 61.3371 102.266 61.6673 102.185C61.6988 102.18 61.7195 102.149 61.7133 102.118C61.7075 102.086 61.6771 102.065 61.6456 102.071C61.2951 102.12 60.9664 102.205 60.6583 102.329C60.444 102.415 60.2398 102.519 60.0476 102.643C59.8564 102.767 59.6772 102.91 59.5096 103.07C59.2677 103.299 59.0516 103.564 58.8514 103.853C58.8185 103.898 58.8282 103.962 58.8735 103.995C58.9187 104.028 58.9825 104.019 59.0154 103.973Z" fill="black"/>
<path fill-rule="evenodd" clip-rule="evenodd" d="M68.4481 107.205C68.4007 106.659 68.2552 106.083 68.0217 105.52C67.8757 105.168 67.6969 104.82 67.488 104.491C67.2802 104.164 67.0423 103.855 66.7857 103.571C66.3838 103.127 65.932 102.749 65.4562 102.466C65.4294 102.449 65.3936 102.457 65.3762 102.484C65.3593 102.511 65.3672 102.547 65.3943 102.564C65.8393 102.866 66.2513 103.263 66.6202 103.713C66.8548 104 67.0691 104.31 67.2643 104.63C67.4601 104.952 67.636 105.284 67.7831 105.621C68.0169 106.158 68.1831 106.703 68.2457 107.225C68.2512 107.281 68.3015 107.322 68.3572 107.316C68.413 107.31 68.4535 107.26 68.4481 107.205Z" fill="black"/>
<path fill-rule="evenodd" clip-rule="evenodd" d="M80.0597 106.34C80.3866 105.891 80.7465 105.468 81.1317 105.071C81.3239 104.873 81.523 104.682 81.7283 104.497C81.9329 104.312 82.1418 104.131 82.3619 103.963C82.6294 103.754 82.9267 103.543 83.2416 103.375C83.4513 103.264 83.6681 103.17 83.89 103.111C83.9212 103.104 83.9407 103.073 83.9335 103.041C83.9262 103.01 83.8951 102.99 83.864 102.998C83.6283 103.044 83.3948 103.124 83.1681 103.226C82.8325 103.377 82.5136 103.577 82.2243 103.776C81.9919 103.94 81.766 104.113 81.5527 104.299C81.3384 104.485 81.1353 104.684 80.942 104.891C80.5564 105.304 80.2111 105.754 79.8931 106.223C79.8609 106.269 79.8722 106.333 79.9181 106.365C79.9641 106.397 80.0275 106.386 80.0597 106.34Z" fill="black"/>
<path fill-rule="evenodd" clip-rule="evenodd" d="M90.5662 106.586C90.4793 106.227 90.2106 105.704 89.7842 105.151C89.5785 104.884 89.337 104.61 89.0612 104.346C88.8095 104.105 88.529 103.874 88.2274 103.66C87.7962 103.353 87.3205 103.085 86.814 102.88C86.7847 102.867 86.7503 102.88 86.7376 102.909C86.7246 102.939 86.7376 102.973 86.7669 102.986C87.2477 103.218 87.6916 103.513 88.096 103.834C88.3776 104.057 88.6376 104.296 88.8772 104.535C89.1394 104.795 89.3761 105.057 89.58 105.311C89.9927 105.825 90.2754 106.301 90.3692 106.637C90.3833 106.691 90.4391 106.724 90.4934 106.71C90.5477 106.696 90.5803 106.64 90.5662 106.586Z" fill="black"/>
<path fill-rule="evenodd" clip-rule="evenodd" d="M84.917 103.428C86.4013 103.337 89.6937 104.296 91.0239 105.703C91.2986 105.994 91.135 106.613 91.1161 107.008C91.0865 107.641 91.1411 108.182 91.2635 109.127C90.7233 108.509 89.8878 107.546 89.3867 106.9C88.3361 105.546 86.5585 103.916 84.917 103.428Z" fill="black"/>
<path fill-rule="evenodd" clip-rule="evenodd" d="M63.6341 102.517C62.187 102.175 59.4725 102.898 57.9316 103.667C57.5739 103.846 57.8245 104.489 57.6587 105.093C57.491 105.704 57.4295 106.303 57.1475 107.213C57.7857 106.696 58.7773 105.833 59.3812 105.282C60.6473 104.127 61.9332 102.718 63.6341 102.517Z" fill="black"/>
<path fill-rule="evenodd" clip-rule="evenodd" d="M62.5632 102.584C65.7006 102.431 68.3873 105.163 68.5596 108.683C68.732 112.202 66.3248 115.184 63.1874 115.338C60.0503 115.491 57.3633 112.759 57.1913 109.239C57.019 105.72 59.4262 102.738 62.5632 102.584Z" fill="#FEFEFE"/>
<path fill-rule="evenodd" clip-rule="evenodd" d="M62.5561 102.441C62.0547 102.448 61.5692 102.525 61.1069 102.666C60.6334 102.812 60.1844 103.023 59.7706 103.294C59.2265 103.65 58.7442 104.109 58.3377 104.64C57.3967 105.869 56.8692 107.497 56.9576 109.25C57.0474 111.002 57.7399 112.562 58.7953 113.692C59.9386 114.915 61.5066 115.634 63.1973 115.547C64.8844 115.459 66.3673 114.586 67.3759 113.254C68.3035 112.029 68.8295 110.415 68.7387 108.674C68.6478 106.937 67.9603 105.389 66.9125 104.27C65.7804 103.06 64.2291 102.349 62.5558 102.437L62.5561 102.441ZM62.5708 102.732C64.1519 102.66 65.6116 103.343 66.6735 104.493C67.6622 105.564 68.3055 107.04 68.3808 108.692C68.4561 110.34 67.9518 111.865 67.067 113.019C66.1232 114.25 64.7445 115.057 63.1776 115.129C61.6147 115.201 60.1713 114.526 59.1206 113.39C58.1395 112.329 57.5009 110.865 57.4248 109.228C57.3474 107.593 57.8495 106.082 58.7213 104.932C59.0938 104.44 59.5352 104.016 60.0268 103.672C60.4012 103.41 60.8027 103.192 61.2313 103.033C61.6556 102.875 62.1027 102.768 62.5708 102.729V102.732Z" fill="black"/>
<path fill-rule="evenodd" clip-rule="evenodd" d="M85.3085 103.566C81.9611 103.402 79.1057 106.093 78.9352 109.571C78.765 113.049 81.3446 116.006 84.6916 116.17C88.0386 116.333 90.8944 113.643 91.0645 110.165C91.2347 106.686 88.6556 103.729 85.3085 103.566Z" fill="#FEFEFE"/>
<path fill-rule="evenodd" clip-rule="evenodd" d="M85.3158 103.415C83.5773 103.324 81.9659 103.985 80.7741 105.122C79.6108 106.232 78.848 107.796 78.7561 109.559C78.6641 111.326 79.264 112.964 80.3078 114.191C81.383 115.456 82.93 116.284 84.6815 116.375C86.4367 116.466 88.0637 115.798 89.266 114.649C90.4383 113.528 91.2069 111.951 91.2981 110.172C91.3879 108.392 90.7859 106.738 89.7273 105.507C89.287 104.995 88.7689 104.554 88.1875 104.213C87.7556 103.96 87.2893 103.763 86.7983 103.628C86.3244 103.497 85.8278 103.426 85.3154 103.419L85.3158 103.415ZM85.3016 103.706C85.7838 103.746 86.2458 103.849 86.6856 103.997C87.1346 104.149 87.5567 104.356 87.9513 104.603C88.4799 104.935 88.9564 105.344 89.3618 105.821C90.3393 106.969 90.9099 108.496 90.8314 110.15C90.7542 111.806 90.0457 113.28 88.9589 114.329C87.8456 115.403 86.3355 116.033 84.702 115.958C83.0646 115.882 81.6161 115.114 80.6038 113.939C79.6118 112.787 79.0387 111.244 79.1151 109.576C79.1915 107.905 79.9055 106.418 81.0013 105.359C82.1254 104.272 83.6511 103.635 85.3016 103.71V103.706Z" fill="black"/>
<path fill-rule="evenodd" clip-rule="evenodd" d="M64.062 105.536C66.3186 105.692 68.0154 107.783 67.8489 110.203C67.6823 112.624 65.7154 114.463 63.4588 114.308C61.2023 114.152 59.505 112.061 59.6716 109.641C59.8381 107.221 61.8054 105.382 64.062 105.536Z" fill="#020303"/>
<path fill-rule="evenodd" clip-rule="evenodd" d="M83.5903 106.201C81.3551 106.355 79.6709 108.384 79.8324 110.731C79.9939 113.078 81.9398 114.859 84.1754 114.705C86.411 114.551 88.0948 112.521 87.9334 110.174C87.7722 107.828 85.8259 106.047 83.5903 106.201Z" fill="#020303"/>
<path fill-rule="evenodd" clip-rule="evenodd" d="M60.6859 109.412C60.3749 110.804 60.7199 111.842 61.2883 112.556C61.621 112.973 62.0667 113.267 62.5529 113.455C62.9348 113.603 63.3508 113.685 63.7712 113.673C64.3558 113.657 64.9543 113.517 65.4727 113.209C66.5302 112.583 67.3723 111.482 67.2365 109.944C67.2496 109.698 67.0606 109.488 66.8152 109.475C66.5693 109.462 66.3597 109.651 66.3467 109.897C66.2352 110.437 65.9477 110.82 65.615 111.13C65.4159 111.316 65.1726 111.42 64.9297 111.523C64.5745 111.673 64.1875 111.678 63.816 111.652C63.5391 111.632 63.2723 111.569 63.0373 111.436C62.5236 111.145 62.1717 110.574 62.2329 109.627C62.2926 109.2 61.9943 108.805 61.5674 108.746C61.1402 108.686 60.7452 108.984 60.6859 109.412Z" fill="#8F1913"/>
<path fill-rule="evenodd" clip-rule="evenodd" d="M85.5529 110.031C85.613 110.944 85.2636 111.49 84.7593 111.767C84.5276 111.894 84.2651 111.955 83.9922 111.973C83.6269 111.999 83.2467 111.997 82.8973 111.854C82.6577 111.756 82.418 111.658 82.2218 111.48C81.8927 111.182 81.6059 110.813 81.4959 110.288C81.4829 110.043 81.2729 109.854 81.0271 109.867C80.7816 109.881 80.593 110.091 80.606 110.336C80.4702 111.845 81.3091 112.926 82.363 113.543C82.8728 113.841 83.4599 113.977 84.0338 113.995C84.4462 114.007 84.8538 113.928 85.2296 113.788C85.5504 113.668 85.8541 113.504 86.1126 113.281C86.9142 112.588 87.4641 111.45 87.0995 109.812C87.0391 109.386 86.6437 109.088 86.2169 109.148C85.79 109.209 85.4924 109.605 85.5529 110.031Z" fill="#8F1913"/>
<path fill-rule="evenodd" clip-rule="evenodd" d="M62.0309 106.763C62.4957 106.626 62.9714 106.848 63.0931 107.259C63.2143 107.67 62.9356 108.115 62.4707 108.252C62.0059 108.39 61.5302 108.168 61.4089 107.757C61.2872 107.345 61.566 106.9 62.0309 106.763Z" fill="#FEFEFE"/>
<path fill-rule="evenodd" clip-rule="evenodd" d="M64.9593 111.414C65.3519 111.298 65.7635 111.518 65.8779 111.904C65.992 112.291 65.766 112.699 65.3733 112.815C64.9806 112.931 64.5687 112.712 64.4546 112.325C64.3405 111.938 64.5666 111.53 64.9593 111.414Z" fill="#FEFEFE"/>
<path fill-rule="evenodd" clip-rule="evenodd" d="M82.2331 106.986C82.6976 106.849 83.1737 107.071 83.295 107.482C83.4166 107.893 83.1375 108.338 82.673 108.475C82.2081 108.612 81.7321 108.39 81.6108 107.979C81.4895 107.568 81.7683 107.123 82.2331 106.986Z" fill="#FEFEFE"/>
<path fill-rule="evenodd" clip-rule="evenodd" d="M85.5877 111.402C85.9804 111.286 86.3919 111.506 86.506 111.893C86.6205 112.279 86.3941 112.687 86.0014 112.804C85.6087 112.92 85.1972 112.7 85.083 112.313C84.969 111.926 85.195 111.518 85.5877 111.402Z" fill="#FEFEFE"/>
<path fill-rule="evenodd" clip-rule="evenodd" d="M66.861 95.3117C66.4729 95.1441 64.9455 94.8063 63.4789 94.7752C62.5307 94.7549 61.6259 94.9131 61.0304 95.1879C60.5634 95.4384 60.122 95.7241 59.734 96.0698C59.1612 96.5807 58.6782 97.1838 58.2829 97.8456C57.6511 98.9031 57.2369 100.083 56.9766 101.267C56.9151 101.461 57.0219 101.668 57.2152 101.729C57.4086 101.791 57.6153 101.684 57.6772 101.491C58.1088 100.476 58.6989 99.5092 59.415 98.6465C59.8226 98.1552 60.2842 97.7229 60.786 97.3326C61.1064 97.0835 61.4395 96.8471 61.8066 96.6556C62.2161 96.4098 62.8713 96.2881 63.5564 96.1987C64.8579 96.0286 66.2481 95.9891 66.6177 96.0691C66.827 96.1364 67.0511 96.021 67.1181 95.8121C67.185 95.6028 67.0699 95.3787 66.861 95.3117Z" fill="black"/>
<mask id="mask27" style="mask-type:alpha" maskUnits="userSpaceOnUse" x="108" y="130" width="6" height="13">
<path fill-rule="evenodd" clip-rule="evenodd" d="M108.884 135.389C109.125 136.144 109.231 137.243 109.123 138.805C108.909 141.919 111.735 143.242 113.291 142.661C114.623 142.165 112.937 141.551 112.678 140.112C112.06 136.685 113.986 133.935 111.994 130.695" fill="white"/>
</mask>
<g mask="url(#mask27)">
<path fill-rule="evenodd" clip-rule="evenodd" d="M110.976 129.467C112.53 133.307 110.339 137.604 111.362 141.544C111.6 142.459 112.532 145.133 113.875 144.901C114.967 144.712 115.213 141.742 115.275 140.923C115.508 137.829 115.331 134.636 114.028 131.771C113.587 130.801 112.581 129.255 111.345 129.23" fill="#BA1918"/>
</g>
<path d="M108.884 135.389C109.125 136.144 109.231 137.243 109.123 138.805C108.909 141.919 111.734 143.242 113.291 142.661C114.623 142.165 112.937 141.551 112.678 140.112C112.06 136.685 113.986 133.935 111.994 130.695" stroke="black" stroke-width="0.502667" stroke-linecap="round" stroke-linejoin="round"/>
</svg>
