<svg width="64" height="64" viewBox="0 0 64 64" fill="none" xmlns="http://www.w3.org/2000/svg">
<path d="M28.9114 36.5383L29.8291 37.5172L30.0044 37.6807C30.6778 38.2284 31.6692 38.2078 32.32 37.5976C33.03 36.9319 33.066 35.8167 32.4004 35.1067L31.4826 34.1277L31.2414 33.8505C29.5556 31.7615 29.6961 28.4752 31.6578 26.3827L38.7838 18.7816L39.0496 18.5162C41.0416 16.6556 43.9415 16.6833 45.7334 18.5947C47.6694 20.6597 47.6091 24.1521 45.5582 26.3398L40.0351 32.231L39.8833 32.4165C39.3802 33.1238 39.4646 34.1117 40.1155 34.7219C40.8255 35.3875 41.9407 35.3516 42.6063 34.6415L48.1294 28.7503L48.4392 28.4029C51.4363 24.8668 51.4261 19.5137 48.3046 16.1842C45.0167 12.677 39.5757 12.7838 36.2126 16.3711L29.0866 23.9722L28.7769 24.3196C25.7797 27.8557 25.7899 33.2087 28.9114 36.5383Z" fill="#FF6666"/>
<path d="M35.0887 27.4618L34.1709 26.4828L33.9956 26.3193C33.3222 25.7716 32.3309 25.7923 31.68 26.4024C30.97 27.0681 30.934 28.1833 31.5997 28.8933L32.5174 29.8723L32.7586 30.1495C34.4444 32.2385 34.304 35.5248 32.3422 37.6173L25.2162 45.2184L24.9504 45.4838C22.9584 47.3445 20.0586 47.3168 18.2666 45.4053C16.3306 43.3403 16.3909 39.8479 18.4418 37.6603L23.9649 31.769L24.1167 31.5835C24.6199 30.8762 24.5354 29.8883 23.8845 29.2781C23.1745 28.6125 22.0593 28.6485 21.3937 29.3585L15.8706 35.2498L15.5609 35.5972C12.5638 39.1332 12.5739 44.4863 15.6954 47.8158C18.9834 51.323 24.4243 51.2162 27.7874 47.6289L34.9134 40.0278L35.2232 39.6804C38.2203 36.1444 38.2101 30.7913 35.0887 27.4618Z" fill="#FF6666"/>
</svg>
