<svg width="124" height="20" viewBox="0 0 124 20" fill="none" xmlns="http://www.w3.org/2000/svg">
<g clip-path="url(#clip0)">
<path d="M87.8777 9.33176C88.719 7.53444 90.2869 4.58989 91.5488 2.71608C92.0842 1.91302 92.6196 0.957001 93.4609 0.383387C93.805 0.115701 94.2257 -0.0372627 94.6846 0.0392191C94.914 0.07746 95.1435 0.230424 95.3347 0.345146C95.9083 0.804037 95.22 1.68358 94.9523 2.14247C94.5316 2.86905 93.9963 3.55738 93.5374 4.24572C92.4284 6.04304 91.3194 7.87861 90.3634 9.82889C89.828 10.8996 89.3691 11.9704 88.9102 13.0411C88.7573 13.4618 87.6865 15.7562 88.0689 15.9857C88.5278 16.2534 89.1779 15.3738 89.4456 15.1444C89.675 14.9532 90.2104 14.4943 90.5163 14.609C91.2812 14.9149 90.3634 16.2534 90.1339 16.6358C89.4838 17.7065 88.5661 18.6625 87.3041 18.7008C86.2334 18.739 85.3538 17.8977 85.2391 16.7505C85.1626 16.0239 85.3156 15.2973 85.4685 14.609C85.8892 12.7734 86.9217 11.0526 87.8777 9.33176Z" fill="#FF0000"/>
<path d="M84.3594 14.4173C84.3594 14.532 84.3212 14.685 84.2447 14.838C83.9388 15.5263 82.9827 15.8705 82.3709 16.2529C81.3766 16.903 80.3441 17.5148 79.2351 18.0502C77.3996 18.9297 75.717 19.924 72.8107 18.6238C70.5927 17.6295 70.2103 14.8762 71.281 12.0081C72.1988 9.56071 73.9197 7.41922 75.9847 5.54541C78.0497 3.67161 80.3441 1.91252 81.9885 1.72132C82.6003 1.64484 83.2122 1.75956 83.7093 2.18021C84.6653 3.02151 84.5506 4.66587 84.0153 5.69838C83.7093 6.34847 83.3652 6.76912 82.6768 6.88384C82.1032 6.96033 81.3766 6.76912 81.4914 5.96606C81.5678 5.50717 82.065 4.66587 81.759 4.20698C81.3384 3.63337 79.8088 4.9718 79.4646 5.23948C78.8145 5.73662 78.2026 6.27199 77.5908 6.8456C76.5583 7.83987 75.6787 9.14006 74.9522 10.402C74.1109 11.8934 73.346 13.6142 73.346 15.3733C73.346 15.9469 73.3843 16.5588 73.652 17.0559C74.455 18.3944 76.4818 17.4383 77.5143 17.0559C78.5468 16.6735 79.5411 16.2146 80.4971 15.7175C81.4914 15.1821 82.4091 14.532 83.3652 13.9584C84.0153 13.6525 84.3594 13.9584 84.3594 14.4173Z" fill="#FF0000"/>
<path d="M96.4435 3.02107C96.9024 4.32126 97.4378 5.54497 98.9292 5.96562C98.9292 4.78015 98.1261 2.40922 96.4435 3.02107Z" fill="#FF0000"/>
<path d="M96.3289 10.3261C96.2907 10.0201 96.1377 9.75246 95.7935 9.44653C95.3729 9.06412 94.761 8.91116 94.3404 9.40829C94.0344 9.7907 93.9197 10.2878 93.7285 10.7085C93.4608 11.3968 93.2314 12.0852 92.9637 12.7735C92.4283 14.2649 92.0077 15.7945 91.74 17.3242C92.0459 17.7066 92.2754 18.1655 93.0784 18.089C93.805 16.5976 94.5698 15.1062 95.2199 13.5765C95.5641 12.7735 95.87 12.0087 96.1759 11.1674C96.2907 10.8997 96.3671 10.5938 96.3289 10.3261Z" fill="#FF0000"/>
<path d="M104.13 13.5766C104.092 13.6531 104.054 13.6913 104.054 13.7295C103.862 13.9972 103.633 14.2267 103.403 14.4561C102.562 15.2209 101.836 16.1387 100.956 16.8653C100.306 17.4007 99.5412 17.7448 98.6999 17.4389C97.6674 17.0565 96.7878 15.6416 97.0937 13.7295C97.4762 11.2821 99.3882 7.8022 100.65 6.7697C101.568 6.00488 102.715 6.04312 103.633 6.80794C104.207 7.30507 104.971 8.22285 104.971 9.02591C104.971 9.25536 104.933 9.37008 104.857 9.44656C104.627 9.63776 104.168 9.33184 103.901 9.10239C103.556 8.8347 103.212 8.49054 102.753 8.60526C102.447 8.68174 102.103 9.06415 101.874 9.25536C101.53 9.56128 101.224 9.90545 100.918 10.2879C100.344 11.0527 99.8853 11.9322 99.5412 12.8118C99.3882 13.2707 98.3557 15.2592 99.3882 15.3357C99.7324 15.3739 100 15.1827 100.306 15.068C100.65 14.9533 100.956 14.8003 101.3 14.6856C101.797 14.4944 102.333 14.2267 102.83 13.959C103.251 13.7295 103.709 13.3854 104.245 13.2707C104.321 13.2324 104.207 13.4236 104.13 13.5766Z" fill="#FF0000"/>
<path d="M115.411 7.8394C115.258 7.6482 114.914 7.34227 114.646 7.26579C114.149 7.15107 113.384 7.49524 112.964 7.76292C112.466 8.06885 112.046 8.45126 111.625 8.83367C110.631 9.75145 109.14 10.8222 108.145 11.7782C108.451 10.8604 108.795 9.71321 109.254 8.91015C109.522 8.41302 109.675 7.91589 109.981 7.41875C110.363 6.88338 110.669 6.30977 111.052 5.73615C111.549 4.97133 112.466 3.93883 112.505 2.98281C112.543 2.25623 111.625 1.33845 110.746 1.60613C109.254 3.67114 108.298 6.23329 107.151 8.41302C106.424 10.3633 105.43 12.3901 105.162 14.4551L105.048 15.4876C104.971 16.0994 104.933 16.7495 105.048 17.3614C105.162 17.8968 105.392 18.3174 105.851 18.5851C106.616 19.0822 106.692 17.782 106.73 17.3232C106.807 16.5966 106.96 15.9082 107.189 15.2199L106.845 16.5966C107.495 17.0555 107.725 17.7056 108.489 17.8968C109.904 18.2792 111.205 17.3996 112.275 16.6731C112.658 16.4054 113.92 15.7935 114.302 15.1434C114.493 14.8375 114.455 14.5698 114.111 14.2639C113.69 13.9579 113.04 14.608 112.658 14.8375C111.969 15.2199 111.319 15.6406 110.593 15.9847C110.363 16.0994 108.298 16.6731 108.298 16.7113C108.489 15.9082 108.757 15.1434 109.14 14.4168C109.828 13.1167 110.669 11.8547 111.816 10.8987C112.39 10.4398 112.964 9.9809 113.575 9.56025C113.881 9.3308 114.187 9.10135 114.455 8.91015C114.723 8.71894 115.335 8.75719 115.564 8.52774C115.717 8.41302 115.564 8.06885 115.411 7.8394Z" fill="#FF0000"/>
<path d="M116.405 10.7841C116.444 10.3634 116.558 9.98101 116.673 9.63684C116.788 9.25443 116.903 8.87202 117.094 8.52786C117.4 7.87776 117.82 7.30415 118.356 6.80701C118.891 6.34812 119.465 5.96571 120.115 5.73627C120.688 5.50682 121.759 5.04793 122.371 5.27738C122.677 5.3921 123.709 6.19516 123.289 6.61581C122.868 7.0747 122.562 6.92174 122.103 7.11294C120.727 7.7248 117.667 9.78981 118.203 11.9695C118.241 12.046 118.356 12.2755 118.394 12.3137C119.35 13.308 123.136 14.3405 121.377 16.4437C120.65 17.3233 119.388 17.7822 118.241 18.3175C117.744 18.547 117.17 18.8529 116.558 19.1588C115.947 19.4648 114.799 20.3443 114.111 19.656C113.576 19.0824 114.608 18.6235 114.991 18.3558C115.526 18.0116 116.1 17.6674 116.635 17.3233C117.706 16.5967 118.7 15.7936 119.388 14.6846C119.465 14.5317 116.903 12.6961 116.673 12.3519C116.405 11.8931 116.329 11.3194 116.405 10.7841Z" fill="#FF0000"/>
<path d="M12.9637 15.0303C11.9312 15.8716 10.6692 16.2923 9.36903 16.2923C6.19503 16.2923 3.70937 13.7684 3.70937 10.5179C3.70937 7.26741 6.19503 4.74351 9.36903 4.74351C10.6692 4.74351 11.9312 5.16416 12.9637 6.00546L13.0019 6.0437L15.4493 3.59628L15.4111 3.55804C13.7285 2.10489 11.587 1.30183 9.36903 1.30183C4.2065 1.22534 0 5.35536 0 10.4796C0 15.6039 4.2065 19.7339 9.36903 19.7339C11.587 19.7339 13.7285 18.9309 15.4111 17.4777L15.4493 17.4395L13.0019 14.9921L12.9637 15.0303ZM18.8145 19.2368H22.3709V1.72248H18.8145V19.2368ZM36.3289 12.8888C36.1759 12.6976 30.1338 1.68424 30.1338 1.68424H26.6922V19.1986H30.2103V8.7588C30.478 9.2177 36.3289 19.3515 36.3289 19.3515C36.3289 19.3515 42.1415 9.2177 42.4092 8.7588V19.1986H45.9273V1.68424H42.4857C42.4474 1.68424 36.4436 12.6976 36.3289 12.8888ZM60.4971 10.2502C61.262 9.82955 62.5621 8.60584 62.5621 6.65555C62.5621 3.59628 60.4971 1.72248 57.1319 1.72248H50.0956V19.2368H57.4379C60.7648 19.2368 62.8298 17.2865 62.8298 14.1508C62.7916 11.8181 61.4149 10.7091 60.4971 10.2502ZM53.6138 4.89647H56.8642C58.2409 4.89647 59.044 5.62305 59.044 6.80852C59.044 7.99399 58.2409 8.72056 56.8642 8.72056H53.6138V4.89647ZM57.0555 16.0628H53.6138V11.9328H57.0555C58.6616 11.9328 59.2352 13.0035 59.2352 13.9978C59.2352 14.9921 58.6616 16.0628 57.0555 16.0628Z" fill="#780000"/>
</g>
<defs>
<clipPath id="clip0">
<rect width="123.365" height="20" fill="white"/>
</clipPath>
</defs>
</svg>
