<svg width="1218" height="520" viewBox="0 0 1218 520" fill="none" xmlns="http://www.w3.org/2000/svg">
<g opacity="0.1">
<path fill-rule="evenodd" clip-rule="evenodd" d="M251.889 517.074C251.889 517.074 163.343 427.97 236.916 331.498C302.192 245.903 378.295 251.756 434.145 286.491C457.924 301.277 526.492 288.314 584.862 201.218C664.423 82.442 940.292 154.485 889.991 337.219C865.652 425.65 964.073 428.864 913.922 517.259L251.889 517.074Z" fill="white"/>
<path fill-rule="evenodd" clip-rule="evenodd" d="M251.889 517.074C251.889 517.074 163.343 427.97 236.916 331.498C302.192 245.903 378.295 251.756 434.145 286.491C457.924 301.277 526.492 288.314 584.862 201.218C664.423 82.442 940.292 154.485 889.991 337.219C865.652 425.65 964.073 428.864 913.922 517.259L251.889 517.074Z" stroke="#C6C7C8" stroke-width="1.1547"/>
<path fill-rule="evenodd" clip-rule="evenodd" d="M309.296 121.296C312.649 121.296 315.367 118.568 315.367 115.206C315.367 111.842 312.649 109.116 309.296 109.116C305.941 109.116 303.223 111.842 303.223 115.206C303.223 118.568 305.941 121.296 309.296 121.296Z" fill="#C6C7C8"/>
<path fill-rule="evenodd" clip-rule="evenodd" d="M451.286 179.136C454.21 179.136 456.582 176.758 456.582 173.825C456.582 170.89 454.21 168.511 451.286 168.511C448.358 168.511 445.986 170.89 445.986 173.825C445.986 176.758 448.358 179.136 451.286 179.136Z" fill="#C6C7C8"/>
<path fill-rule="evenodd" clip-rule="evenodd" d="M38.5678 518.549H881.472C881.472 518.549 800.012 412.391 655.358 435.478C465.395 465.798 394.861 400.167 303.64 376.877C216.718 354.678 150.345 384.077 105.589 420.665C69.1212 450.476 38.5662 484.394 38.5662 518.552L38.5678 518.549Z" fill="white"/>
<path fill-rule="evenodd" clip-rule="evenodd" d="M38.5678 518.549H881.472C881.472 518.549 800.012 412.391 655.358 435.478C465.395 465.798 394.861 400.167 303.64 376.877C216.718 354.678 150.345 384.077 105.589 420.665C69.1212 450.476 38.5662 484.394 38.5662 518.552L38.5678 518.549Z" stroke="#C6C7C8" stroke-width="1.1547"/>
<path fill-rule="evenodd" clip-rule="evenodd" d="M337.124 518.551C337.124 518.551 380.007 462.55 488.604 477.028C639.56 497.167 693.52 386.077 822.28 379.861C1058.25 368.47 1146.6 518.551 1146.6 518.551H337.124Z" fill="white"/>
<path fill-rule="evenodd" clip-rule="evenodd" d="M337.124 518.551C337.124 518.551 380.007 462.551 488.604 477.028C639.56 497.167 693.52 386.077 822.28 379.861C1058.25 368.47 1146.6 518.551 1146.6 518.551H337.124Z" stroke="#C6C7C8" stroke-width="1.1547"/>
<path fill-rule="evenodd" clip-rule="evenodd" d="M1207.08 158.865C1215.5 158.865 1220.1 148.923 1214.62 142.512C1209.94 137.053 1202.76 133.656 1194.9 131.932C1181.13 128.923 1164.39 138.428 1160.34 140.82C1159.29 122.014 1142.94 107.083 1122.94 107.083C1122.13 107.083 1121.31 107.108 1120.51 107.159C1115.39 80.225 1089.84 59.7454 1059.08 59.7454C1024.63 59.7454 996.71 85.4257 996.71 117.101C996.707 119.561 996.877 122.017 997.217 124.452C995.7 124.268 994.174 124.175 992.643 124.172C978.968 124.172 963.263 132.661 961.409 146.298C961.409 146.298 887.495 126.197 887.07 159.279L1207.08 158.865Z" stroke="#C6C7C8" stroke-width="1.1547"/>
<path fill-rule="evenodd" clip-rule="evenodd" d="M38.203 143.541H281.89C281.421 141.197 276.554 116.079 216.557 138.954C216.557 138.954 219.52 126.464 201.521 132.008C183.522 137.551 189.931 112.765 174.12 108.794C164.694 106.431 159.337 110.324 155.565 114.659C153.748 89.886 132.006 70.3273 105.449 70.3273C77.7001 70.3273 55.2094 91.6779 55.2094 118.021C55.2078 119.64 55.2942 121.255 55.4638 122.864C52.6144 119.325 46.3422 116.154 37.7725 116.359C37.578 116.359 37.3801 116.359 37.1873 116.384C19.8285 117.4 20.8043 143.541 38.203 143.541Z" stroke="#C6C7C8" stroke-width="1.1547"/>
<path fill-rule="evenodd" clip-rule="evenodd" d="M31.2873 518.549L1 487.661L35.2522 511.47L34.14 488.872L50.1922 508.52L47.3628 438.205L59.3238 500.948L70.7695 490.046L69.7088 508.92L82.6357 503.563L72.4718 518.525L31.2873 518.549Z" fill="white"/>
<path fill-rule="evenodd" clip-rule="evenodd" d="M31.2874 518.549L1 487.661L35.2522 511.47L34.14 488.872L50.1922 508.52L47.3628 438.205L59.3238 500.948L70.7695 490.046L69.7088 508.92L82.6357 503.563L72.4718 518.525L31.2874 518.549Z" stroke="#C6C7C8" stroke-width="1.1547"/>
<path fill-rule="evenodd" clip-rule="evenodd" d="M937.557 392.824C937.952 392.508 938.528 392.573 938.843 392.966C939.159 393.364 939.098 393.94 938.701 394.258L938.594 394.346L938.524 394.406C938.39 394.523 938.233 394.659 938.062 394.819L937.972 394.899C937.376 395.457 936.702 396.133 935.976 396.929C933.898 399.214 931.815 401.997 929.866 405.29C926.065 411.723 923.263 419.282 921.88 428.01C920.173 438.809 920.737 450.861 924 464.208C924.12 464.701 923.819 465.197 923.327 465.317C922.836 465.437 922.341 465.138 922.221 464.645C918.9 451.064 918.326 438.766 920.073 427.725C921.491 418.759 924.374 410.982 928.291 404.356C930.304 400.951 932.463 398.068 934.623 395.693C935.329 394.917 935.991 394.248 936.591 393.682L936.729 393.552C937.116 393.194 937.399 392.951 937.557 392.824Z" fill="#C6C7C8"/>
<path fill-rule="evenodd" clip-rule="evenodd" d="M928.151 452.164C927.449 451.551 927.113 450.667 927.205 449.748C929.126 432.009 937.124 413.754 949.581 407.058C962.373 400.177 971.102 419.29 953.366 437.027C940.025 450.391 932.882 452.562 930.164 452.835C929.432 452.899 928.701 452.652 928.151 452.164Z" stroke="#C6C7C8" stroke-width="1.1547"/>
<path fill-rule="evenodd" clip-rule="evenodd" d="M900.079 448.069C905.331 448.522 909.477 451.405 912.624 455.889C913.816 457.586 914.78 459.398 915.538 461.212C915.774 461.774 915.975 462.306 916.143 462.79L916.205 462.968C916.313 463.293 916.386 463.528 916.422 463.661C916.557 464.149 916.271 464.655 915.782 464.79C915.314 464.922 914.828 464.659 914.672 464.202L914.615 464.004L914.564 463.843C914.534 463.753 914.502 463.66 914.469 463.556C914.303 463.063 914.098 462.514 913.849 461.919C913.139 460.221 912.235 458.524 911.128 456.943C908.263 452.867 904.57 450.299 899.921 449.898C899.419 449.853 899.044 449.41 899.089 448.904C899.132 448.417 899.546 448.051 900.026 448.066L900.079 448.069Z" fill="#C6C7C8"/>
<path fill-rule="evenodd" clip-rule="evenodd" d="M960.602 407.968C960.947 408.311 960.958 408.861 960.644 409.221L960.576 409.292L960.218 409.658L959.881 410.002C959.726 410.165 959.562 410.336 959.386 410.519L959.113 410.803C957.926 412.048 956.598 413.479 955.17 415.064C951.087 419.592 947.006 424.471 943.197 429.505C938.662 435.5 934.828 441.321 931.914 446.804C930.99 448.545 930.164 450.241 929.441 451.89C929.238 452.355 928.697 452.565 928.234 452.361C927.772 452.158 927.56 451.617 927.765 451.154C928.506 449.46 929.352 447.722 930.298 445.942C933.261 440.363 937.149 434.466 941.736 428.396C945.581 423.315 949.695 418.4 953.81 413.832L954.315 413.275C955.481 411.992 956.574 410.813 957.575 409.758L958.194 409.112C958.41 408.887 958.613 408.678 958.797 408.488L959.307 407.968C959.663 407.61 960.245 407.61 960.602 407.968Z" fill="#C6C7C8"/>
<path fill-rule="evenodd" clip-rule="evenodd" d="M953.735 432.152L954.049 432.137C954.66 432.11 955.183 432.098 955.606 432.098L956.019 432.103C956.526 432.12 956.922 432.545 956.906 433.051C956.889 433.539 956.495 433.927 956.013 433.939L955.87 433.935C955.388 433.927 954.698 433.939 953.833 433.985C952.535 434.053 951.117 434.192 949.606 434.41C945.455 435.013 941.262 436.135 937.248 437.899C936.784 438.1 936.245 437.889 936.039 437.426C935.838 436.961 936.049 436.42 936.513 436.217C940.69 434.383 945.039 433.221 949.343 432.596C950.911 432.368 952.385 432.225 953.735 432.152Z" fill="#C6C7C8"/>
<path fill-rule="evenodd" clip-rule="evenodd" d="M945.689 410.049C946.133 410.297 946.291 410.857 946.043 411.298L945.829 411.688C945.76 411.816 945.686 411.956 945.603 412.109L945.305 412.667C945.031 413.18 944.736 413.739 944.429 414.339C943.214 416.697 942.002 419.197 940.868 421.725C939.972 423.725 939.162 425.661 938.466 427.506L938.29 427.974C936.444 432.949 935.528 436.947 935.776 439.541C935.824 440.046 935.455 440.494 934.952 440.541C934.446 440.589 934.001 440.219 933.952 439.715C933.663 436.679 934.696 432.296 936.754 426.855C937.465 424.975 938.286 423.003 939.196 420.973C940.343 418.411 941.571 415.883 942.8 413.498L943.146 412.832C943.407 412.329 943.658 411.858 943.89 411.423L944.223 410.809L944.442 410.404C944.69 409.963 945.248 409.804 945.689 410.049Z" fill="#C6C7C8"/>
<path fill-rule="evenodd" clip-rule="evenodd" d="M941.242 443.207C942.527 443.097 943.639 443.067 944.497 443.077L944.788 443.084C945.293 443.102 945.689 443.527 945.671 444.035C945.651 444.523 945.258 444.907 944.775 444.917L944.597 444.914C943.782 444.899 942.68 444.926 941.397 445.036C939.462 445.197 937.551 445.512 935.778 446.011C934.104 446.479 932.621 447.097 931.377 447.868C930.948 448.136 930.383 448.003 930.117 447.574C929.85 447.142 929.983 446.576 930.413 446.308C931.815 445.439 933.454 444.759 935.282 444.245C937.181 443.71 939.201 443.379 941.242 443.207Z" fill="#C6C7C8"/>
<path fill-rule="evenodd" clip-rule="evenodd" d="M912.335 435.955C911.389 436.627 910.29 436.719 909.434 436.263C892.735 427.055 878.633 409.87 878.42 391.338C878.174 372.286 901.805 368.281 910.32 397.823C916.73 420.054 915.206 430.053 914.044 433.632C913.71 434.551 913.098 435.407 912.335 435.955Z" stroke="#C6C7C8" stroke-width="1.1547"/>
<path fill-rule="evenodd" clip-rule="evenodd" d="M884.114 379.039C884.355 378.593 884.91 378.427 885.356 378.668C893.191 382.913 899.514 392.795 904.558 406.612C906.935 413.126 908.872 420.097 910.401 427.066L910.576 427.874C910.978 429.741 911.324 431.498 911.62 433.118L911.743 433.806C911.869 434.518 911.977 435.151 912.066 435.697L912.17 436.374C912.243 436.875 911.899 437.341 911.399 437.414C910.897 437.489 910.433 437.143 910.358 436.642L910.273 436.099L910.202 435.659C910.135 435.256 910.062 434.815 909.978 434.335L909.941 434.127C909.582 432.117 909.141 429.874 908.611 427.461C907.1 420.565 905.186 413.671 902.837 407.243C897.933 393.811 891.819 384.255 884.483 380.282C884.039 380.04 883.873 379.486 884.114 379.039Z" fill="#C6C7C8"/>
<path fill-rule="evenodd" clip-rule="evenodd" d="M878.529 393.808C878.737 393.347 879.278 393.142 879.741 393.348C883.479 395.033 887.752 397.132 891.906 399.446L892.44 399.745C898.285 403.039 902.783 406.181 905.378 409.04C905.719 409.417 905.692 409.998 905.318 410.336C904.943 410.677 904.364 410.651 904.023 410.276C901.52 407.515 896.958 404.361 891.015 401.05C886.914 398.764 882.685 396.689 878.988 395.02C878.527 394.814 878.321 394.271 878.529 393.808Z" fill="#C6C7C8"/>
<path fill-rule="evenodd" clip-rule="evenodd" d="M909.225 396.665C909.731 396.619 910.175 396.988 910.223 397.493C910.62 401.756 910.823 405.876 910.728 409.48L910.711 409.926C910.554 414.55 909.897 417.883 908.544 419.663C908.236 420.066 907.663 420.144 907.259 419.836C906.86 419.531 906.782 418.955 907.086 418.552C909.119 415.876 909.338 407.721 908.399 397.665C908.353 397.16 908.722 396.712 909.225 396.665Z" fill="#C6C7C8"/>
<path fill-rule="evenodd" clip-rule="evenodd" d="M886.226 414.982C886.547 414.589 887.124 414.527 887.514 414.847C889.634 416.566 892.766 418.386 896.629 420.238C899.341 421.535 902.25 422.77 905.162 423.898L905.664 424.094C906.326 424.349 906.953 424.586 907.541 424.799L908.336 425.087L909.032 425.333C909.511 425.498 909.767 426.021 909.603 426.501C909.445 426.962 908.954 427.217 908.489 427.087L908.329 427.03L907.944 426.895C907.835 426.857 907.721 426.817 907.601 426.772L906.911 426.522C906.168 426.249 905.357 425.944 904.499 425.61C901.548 424.464 898.597 423.212 895.84 421.891L895.314 421.638C891.571 419.818 888.513 418.019 886.362 416.272C885.97 415.953 885.908 415.377 886.226 414.982Z" fill="#C6C7C8"/>
<path fill-rule="evenodd" clip-rule="evenodd" d="M901.867 444.219C902.216 441.641 901.823 439.462 900.986 439.347C900.151 439.233 899.192 441.232 898.843 443.806C898.492 446.384 898.888 448.567 899.724 448.681C900.558 448.792 901.518 446.795 901.867 444.219Z" stroke="#C6C7C8" stroke-width="1.1547"/>
<path fill-rule="evenodd" clip-rule="evenodd" d="M899.737 448.668C900.229 448.068 899.154 446.361 897.333 444.859C895.511 443.354 893.636 442.621 893.142 443.219C892.65 443.819 893.724 445.524 895.546 447.029C897.367 448.533 899.243 449.267 899.737 448.668Z" stroke="#C6C7C8" stroke-width="1.1547"/>
<path fill-rule="evenodd" clip-rule="evenodd" d="M904.585 447.774C906.855 446.582 908.372 444.998 907.973 444.235C907.574 443.471 905.411 443.819 903.14 445.011C900.871 446.202 899.355 447.787 899.752 448.55C900.151 449.313 902.314 448.965 904.585 447.774Z" stroke="#C6C7C8" stroke-width="1.1547"/>
<path fill-rule="evenodd" clip-rule="evenodd" d="M896.67 451.943C898.74 450.805 900.116 449.332 899.744 448.649C899.372 447.969 897.392 448.337 895.32 449.475C893.251 450.612 891.876 452.086 892.25 452.769C892.621 453.448 894.602 453.078 896.67 451.943Z" stroke="#C6C7C8" stroke-width="1.1547"/>
<path fill-rule="evenodd" clip-rule="evenodd" d="M903.332 456.502C904.039 456.179 903.809 454.161 902.824 451.996C901.838 449.83 900.463 448.336 899.758 448.656C899.052 448.979 899.281 450.997 900.268 453.165C901.254 455.33 902.627 456.825 903.332 456.502Z" stroke="#C6C7C8" stroke-width="1.1547"/>
<path fill-rule="evenodd" clip-rule="evenodd" d="M1012.84 422.367C1012.66 421.351 1009.15 397.551 1018.13 371.026C1026.76 345.541 1021.98 323.933 1021.95 323.719H1028.29C1028.46 324.641 1028.89 345.85 1022.14 374.914C1016.05 401.066 1027.41 422.367 1024.99 422.367H1012.84Z" fill="#C6C7C8"/>
<path fill-rule="evenodd" clip-rule="evenodd" d="M948.113 466.931L936.817 518.185H900.948L889.652 466.931C889.011 463.997 890.842 461.121 893.347 461.121H944.449C946.951 461.151 948.783 464.025 948.113 466.931Z" fill="white"/>
<path fill-rule="evenodd" clip-rule="evenodd" d="M944.45 462.043L944.514 462.045C946.329 462.123 947.727 464.335 947.243 466.636L936.084 517.274H901.685L890.55 466.739C890.025 464.335 891.483 462.043 893.35 462.043H944.45ZM944.462 460.208H893.348C890.205 460.208 888.004 463.668 888.76 467.132L900.054 518.385C900.149 518.806 900.52 519.106 900.949 519.106H936.818C937.247 519.106 937.623 518.806 937.713 518.385L949.01 467.134C949.8 463.713 947.604 460.246 944.462 460.208Z" fill="#C6C7C8"/>
<path fill-rule="evenodd" clip-rule="evenodd" d="M1077.37 304.934C1102.32 279.908 1102.32 239.33 1077.37 214.3C1052.41 189.273 1011.96 189.273 987.002 214.3C962.047 239.33 962.047 279.908 987.002 304.934C1011.96 329.963 1052.41 329.963 1077.37 304.934Z" fill="#FFAB00"/>
<g style="mix-blend-mode:multiply">
<path fill-rule="evenodd" clip-rule="evenodd" d="M1077.37 304.934C1102.32 279.908 1102.32 239.33 1077.37 214.3C1052.41 189.273 1011.96 189.273 987.002 214.3C962.047 239.33 962.047 279.908 987.002 304.934C1011.96 329.963 1052.41 329.963 1077.37 304.934Z" fill="#FFAB00"/>
</g>
<path fill-rule="evenodd" clip-rule="evenodd" d="M1071.84 305.636C1096.79 280.609 1096.79 240.031 1071.84 215.003C1046.89 189.976 1006.43 189.976 981.472 215.003C956.518 240.031 956.518 280.609 981.472 305.636C1006.43 330.662 1046.89 330.662 1071.84 305.636Z" fill="#FFAB00"/>
<g style="mix-blend-mode:multiply" opacity="0.5">
<path fill-rule="evenodd" clip-rule="evenodd" d="M1019.91 206.597C989.96 210.381 968.654 237.898 972.431 267.936C976.208 297.975 1003.64 319.347 1033.59 315.553C1063.54 311.763 1084.85 284.256 1081.07 254.219C1077.29 224.181 1049.86 202.817 1019.91 206.589V206.597ZM1034.02 319.008C1020.66 320.697 1007.12 317.684 995.726 310.485C984.33 303.288 975.774 292.349 971.516 279.533C967.26 266.717 967.565 252.817 972.379 240.199C977.197 227.583 986.223 217.033 997.927 210.345C1009.63 203.656 1023.28 201.246 1036.56 203.519C1049.84 205.797 1061.91 212.62 1070.74 222.825C1079.56 233.033 1084.58 245.991 1084.95 259.494C1085.31 273 1081 286.212 1072.74 296.882C1068.06 302.955 1062.23 308.037 1055.59 311.836C1048.94 315.634 1041.61 318.072 1034.02 319.008Z" fill="#FFAB00"/>
</g>
<g style="mix-blend-mode:multiply" opacity="0.5">
<path fill-rule="evenodd" clip-rule="evenodd" d="M1036.81 276.877C1036.82 275.738 1036.64 274.605 1036.25 273.53C1035.86 272.535 1035.26 271.641 1034.48 270.917C1033.53 270.053 1032.47 269.326 1031.32 268.765C1029.8 268.014 1028.23 267.373 1026.62 266.85C1023.67 265.851 1020.77 264.7 1017.94 263.403C1015.53 262.322 1013.28 260.913 1011.25 259.218C1009.43 257.679 1007.95 255.778 1006.91 253.633C1005.87 251.496 1005.35 248.948 1005.32 245.989C1005.27 243.581 1005.72 241.187 1006.64 238.958C1007.52 236.857 1008.83 234.965 1010.49 233.406C1012.25 231.771 1014.29 230.46 1016.51 229.545C1019.03 228.504 1021.69 227.853 1024.4 227.609L1024.33 217.918L1032.1 217.863L1032.18 227.689C1034.81 227.989 1037.38 228.72 1039.78 229.853C1041.99 230.892 1043.98 232.364 1045.61 234.182C1047.25 236.004 1048.5 238.134 1049.3 240.45C1050.21 243.075 1050.67 245.838 1050.65 248.615L1036.6 248.719C1036.58 245.095 1035.76 242.391 1034.14 240.604C1032.52 238.82 1030.37 237.938 1027.68 237.958C1026.4 237.936 1025.12 238.152 1023.92 238.595C1022.94 238.963 1022.06 239.541 1021.33 240.291C1020.65 241.01 1020.15 241.873 1019.85 242.814C1019.52 243.824 1019.37 244.882 1019.38 245.943C1019.38 246.973 1019.55 248.001 1019.89 248.972C1020.25 249.929 1020.84 250.785 1021.59 251.476C1022.54 252.342 1023.61 253.067 1024.76 253.628C1026.35 254.416 1027.99 255.112 1029.66 255.706C1032.82 256.86 1035.68 258.049 1038.25 259.273C1040.66 260.377 1042.9 261.799 1044.92 263.506C1046.74 265.055 1048.22 266.963 1049.26 269.113C1050.3 271.25 1050.83 273.783 1050.85 276.712C1050.91 279.167 1050.45 281.606 1049.52 283.876C1048.63 285.966 1047.3 287.843 1045.64 289.382C1043.86 291 1041.8 292.274 1039.57 293.14C1037.02 294.134 1034.35 294.764 1031.63 295.012L1031.69 304.021L1023.96 304.076L1023.9 295.11C1021.24 294.864 1018.61 294.291 1016.09 293.398C1013.63 292.546 1011.35 291.237 1009.38 289.538C1007.36 287.765 1005.75 285.573 1004.66 283.117C1003.48 280.541 1002.88 277.435 1002.85 273.798L1016.9 273.7C1016.91 275.844 1017.22 277.626 1017.83 279.048C1018.36 280.369 1019.2 281.541 1020.27 282.476C1021.26 283.322 1022.44 283.931 1023.71 284.259C1024.98 284.595 1026.3 284.764 1027.62 284.752C1028.98 284.765 1030.34 284.559 1031.63 284.134C1032.69 283.783 1033.67 283.222 1034.51 282.482C1035.27 281.801 1035.86 280.95 1036.24 280.001C1036.64 279.008 1036.83 277.946 1036.81 276.877Z" fill="#FFAB00"/>
</g>
<path fill-rule="evenodd" clip-rule="evenodd" d="M957.197 408.514C968.421 397.257 968.421 379.002 957.197 367.745C945.972 356.486 927.77 356.486 916.546 367.745C905.321 379.002 905.321 397.257 916.546 408.514C927.77 419.772 945.972 419.772 957.197 408.514Z" fill="#FFAB00"/>
<g style="mix-blend-mode:multiply">
<path fill-rule="evenodd" clip-rule="evenodd" d="M957.197 408.514C968.421 397.257 968.421 379.002 957.197 367.745C945.972 356.486 927.77 356.486 916.546 367.745C905.321 379.002 905.321 397.257 916.546 408.514C927.77 419.772 945.972 419.772 957.197 408.514Z" fill="#FFAB00"/>
</g>
<path fill-rule="evenodd" clip-rule="evenodd" d="M936.22 417.254C952.059 416.217 964.065 402.498 963.033 386.611C962.001 370.723 948.321 358.685 932.48 359.719C916.64 360.756 904.634 374.476 905.667 390.362C906.699 406.252 920.379 418.288 936.22 417.254Z" fill="#FFAB00"/>
<g style="mix-blend-mode:multiply" opacity="0.5">
<path fill-rule="evenodd" clip-rule="evenodd" d="M931.351 364.281C926.519 364.889 921.977 366.922 918.295 370.124C914.616 373.325 911.964 377.547 910.678 382.259C909.393 386.969 909.526 391.958 911.065 396.591C912.603 401.227 915.479 405.299 919.327 408.293C923.174 411.29 927.82 413.074 932.678 413.419C937.537 413.767 942.39 412.661 946.62 410.241C950.851 407.822 954.274 404.201 956.452 399.831C958.63 395.463 959.469 390.544 958.859 385.697C958.034 379.202 954.676 373.3 949.521 369.284C944.365 365.269 937.828 363.47 931.351 364.281ZM937.696 414.844C931.685 415.603 925.597 414.248 920.469 411.01C915.344 407.773 911.492 402.852 909.578 397.087C907.662 391.32 907.8 385.068 909.966 379.392C912.13 373.716 916.193 368.97 921.458 365.961C926.721 362.952 932.865 361.868 938.837 362.892C944.808 363.914 950.242 366.984 954.212 371.576C958.182 376.168 960.441 381.998 960.603 388.071C960.767 394.148 958.827 400.091 955.11 404.89C953.009 407.621 950.387 409.91 947.396 411.616C944.407 413.325 941.113 414.422 937.696 414.844Z" fill="#FFAB00"/>
</g>
<g style="mix-blend-mode:multiply" opacity="0.5">
<path fill-rule="evenodd" clip-rule="evenodd" d="M938.956 395.89C938.961 395.378 938.874 394.866 938.705 394.383C938.533 393.93 938.259 393.526 937.905 393.194C937.483 392.805 937.006 392.482 936.49 392.228C935.805 391.89 935.099 391.602 934.376 391.366C933.049 390.916 931.747 390.398 930.472 389.817C929.387 389.331 928.374 388.695 927.462 387.932C926.642 387.241 925.979 386.385 925.51 385.419C924.604 383.324 924.556 380.951 925.384 378.82C925.779 377.875 926.37 377.024 927.114 376.325C927.907 375.587 928.827 374.996 929.826 374.583C930.959 374.113 932.161 373.82 933.382 373.712L933.353 369.352L936.848 369.326L936.881 373.747C938.065 373.884 939.222 374.21 940.301 374.721C941.295 375.188 942.187 375.847 942.924 376.665C943.662 377.479 944.227 378.437 944.588 379.477C944.992 380.66 945.193 381.902 945.18 383.149L938.859 383.194C938.849 381.567 938.479 380.348 937.752 379.544C937.385 379.146 936.932 378.831 936.432 378.626C935.928 378.42 935.388 378.33 934.845 378.357C934.268 378.352 933.694 378.452 933.152 378.655C932.715 378.82 932.318 379.078 931.988 379.414C931.684 379.739 931.457 380.127 931.319 380.55C931.174 381.004 931.106 381.481 931.112 381.959C931.109 382.423 931.187 382.885 931.34 383.323C931.505 383.752 931.764 384.135 932.102 384.445C932.53 384.835 933.011 385.164 933.53 385.414C934.246 385.767 934.982 386.08 935.736 386.345C937.15 386.868 938.442 387.399 939.604 387.945C940.686 388.443 941.694 389.083 942.601 389.852C943.421 390.548 944.089 391.407 944.558 392.375C945.467 394.485 945.505 396.871 944.669 399.013C944.27 399.952 943.677 400.798 942.929 401.491C942.127 402.219 941.202 402.791 940.194 403.181C939.054 403.627 937.857 403.91 936.638 404.022L936.668 408.075L933.189 408.1L933.162 404.067C931.962 403.957 930.782 403.699 929.645 403.298C928.539 402.915 927.515 402.323 926.627 401.556C925.721 400.76 924.998 399.776 924.508 398.668C923.942 397.348 923.665 395.917 923.691 394.478L930.01 394.433C929.99 395.258 930.135 396.075 930.431 396.845C930.669 397.437 931.043 397.967 931.523 398.385C931.974 398.766 932.504 399.039 933.071 399.188C933.648 399.339 934.239 399.412 934.835 399.411C935.446 399.417 936.053 399.324 936.635 399.133C937.114 398.975 937.554 398.721 937.932 398.39C938.272 398.082 938.54 397.701 938.71 397.276C938.881 396.833 938.964 396.363 938.956 395.89Z" fill="#FFAB00"/>
</g>
<path fill-rule="evenodd" clip-rule="evenodd" d="M1128.57 437.943C1128.82 437.739 1129.19 437.781 1129.39 438.034C1129.59 438.289 1129.55 438.66 1129.3 438.863L1129.23 438.922L1129.19 438.96C1129.1 439.035 1129 439.122 1128.89 439.225L1128.83 439.276C1128.45 439.634 1128.02 440.069 1127.55 440.58C1126.21 442.049 1124.88 443.838 1123.62 445.954C1121.18 450.089 1119.38 454.947 1118.49 460.557C1117.39 467.498 1117.75 475.243 1119.85 483.821C1119.93 484.138 1119.73 484.457 1119.42 484.536C1119.1 484.612 1118.79 484.419 1118.71 484.103C1116.57 475.375 1116.2 467.47 1117.33 460.374C1118.24 454.612 1120.09 449.613 1122.61 445.355C1123.9 443.167 1125.29 441.313 1126.68 439.786C1127.13 439.288 1127.56 438.858 1127.94 438.494L1128.03 438.41C1128.28 438.181 1128.46 438.024 1128.57 437.943Z" fill="#C6C7C8"/>
<path fill-rule="evenodd" clip-rule="evenodd" d="M1122.52 476.082C1122.07 475.687 1121.85 475.12 1121.91 474.528C1123.15 463.13 1128.29 451.394 1136.29 447.091C1144.51 442.67 1150.12 454.953 1138.72 466.354C1130.15 474.941 1125.56 476.337 1123.81 476.513C1123.34 476.553 1122.87 476.395 1122.52 476.082Z" stroke="#C6C7C8" stroke-width="0.74166"/>
<path fill-rule="evenodd" clip-rule="evenodd" d="M1104.48 473.449C1107.85 473.738 1110.52 475.592 1112.54 478.474C1113.3 479.565 1113.92 480.729 1114.41 481.895C1114.56 482.258 1114.69 482.598 1114.8 482.909L1114.84 483.024C1114.91 483.232 1114.96 483.384 1114.98 483.47C1115.07 483.783 1114.88 484.108 1114.57 484.195C1114.27 484.28 1113.95 484.11 1113.85 483.818L1113.82 483.69L1113.79 483.585C1113.77 483.529 1113.75 483.469 1113.72 483.402C1113.62 483.086 1113.49 482.731 1113.33 482.351C1112.87 481.259 1112.29 480.168 1111.58 479.152C1109.74 476.533 1107.36 474.881 1104.37 474.624C1104.05 474.594 1103.81 474.31 1103.84 473.985C1103.87 473.672 1104.13 473.437 1104.44 473.445L1104.48 473.449Z" fill="#C6C7C8"/>
<path fill-rule="evenodd" clip-rule="evenodd" d="M1143.38 447.676C1143.6 447.895 1143.6 448.248 1143.4 448.48L1143.36 448.527L1143.13 448.761L1142.91 448.983C1142.81 449.088 1142.71 449.198 1142.59 449.314L1142.42 449.497C1141.65 450.298 1140.8 451.216 1139.88 452.235C1137.26 455.146 1134.64 458.282 1132.19 461.517C1129.27 465.371 1126.81 469.111 1124.94 472.637C1124.34 473.754 1123.81 474.845 1123.35 475.905C1123.22 476.204 1122.87 476.338 1122.57 476.207C1122.27 476.077 1122.14 475.729 1122.27 475.431C1122.75 474.343 1123.29 473.226 1123.9 472.082C1125.8 468.497 1128.3 464.706 1131.25 460.805C1133.72 457.539 1136.37 454.378 1139.01 451.444L1139.33 451.086C1140.08 450.26 1140.79 449.504 1141.43 448.826L1141.83 448.41C1141.97 448.265 1142.1 448.13 1142.21 448.01L1142.54 447.676C1142.77 447.444 1143.15 447.444 1143.38 447.676Z" fill="#C6C7C8"/>
<path fill-rule="evenodd" clip-rule="evenodd" d="M1138.96 463.219L1139.16 463.209C1139.56 463.19 1139.89 463.184 1140.16 463.184L1140.43 463.187C1140.76 463.199 1141.01 463.47 1141 463.797C1140.99 464.11 1140.74 464.359 1140.42 464.366L1140.33 464.364C1140.02 464.359 1139.58 464.366 1139.02 464.398C1138.19 464.441 1137.28 464.531 1136.31 464.671C1133.64 465.057 1130.94 465.778 1128.36 466.912C1128.07 467.042 1127.72 466.906 1127.59 466.608C1127.46 466.309 1127.59 465.961 1127.89 465.831C1130.58 464.652 1133.37 463.905 1136.14 463.503C1137.15 463.357 1138.09 463.265 1138.96 463.219Z" fill="#C6C7C8"/>
<path fill-rule="evenodd" clip-rule="evenodd" d="M1133.79 449.013C1134.08 449.173 1134.18 449.533 1134.02 449.816L1133.88 450.067C1133.84 450.149 1133.79 450.239 1133.74 450.337L1133.54 450.695C1133.37 451.025 1133.18 451.384 1132.98 451.771C1132.2 453.285 1131.42 454.892 1130.69 456.517C1130.12 457.802 1129.6 459.048 1129.15 460.232L1129.04 460.533C1127.85 463.731 1127.26 466.3 1127.42 467.969C1127.45 468.292 1127.21 468.58 1126.89 468.61C1126.57 468.642 1126.28 468.404 1126.25 468.081C1126.06 466.129 1126.73 463.311 1128.05 459.814C1128.51 458.607 1129.03 457.339 1129.62 456.034C1130.36 454.387 1131.15 452.762 1131.93 451.231L1132.16 450.802C1132.33 450.479 1132.48 450.175 1132.64 449.896L1132.85 449.501L1132.99 449.241C1133.15 448.958 1133.51 448.857 1133.79 449.013Z" fill="#C6C7C8"/>
<path fill-rule="evenodd" clip-rule="evenodd" d="M1130.93 470.324C1131.76 470.254 1132.47 470.234 1133.02 470.241L1133.21 470.246C1133.54 470.256 1133.79 470.53 1133.78 470.855C1133.77 471.17 1133.51 471.418 1133.2 471.423L1133.09 471.421C1132.57 471.411 1131.86 471.43 1131.03 471.5C1129.79 471.605 1128.56 471.806 1127.42 472.127C1126.35 472.427 1125.39 472.824 1124.59 473.32C1124.32 473.491 1123.95 473.406 1123.78 473.13C1123.61 472.854 1123.7 472.489 1123.97 472.317C1124.87 471.758 1125.93 471.321 1127.1 470.99C1128.32 470.647 1129.62 470.434 1130.93 470.324Z" fill="#C6C7C8"/>
<path fill-rule="evenodd" clip-rule="evenodd" d="M1112.35 465.663C1111.74 466.096 1111.04 466.155 1110.49 465.862C1099.76 459.943 1090.69 448.897 1090.55 436.987C1090.4 424.742 1105.58 422.168 1111.06 441.155C1115.18 455.443 1114.2 461.87 1113.45 464.17C1113.24 464.761 1112.84 465.31 1112.35 465.663Z" stroke="#C6C7C8" stroke-width="0.74166"/>
<path fill-rule="evenodd" clip-rule="evenodd" d="M1094.22 429.083C1094.37 428.797 1094.73 428.688 1095.02 428.845C1100.05 431.573 1104.12 437.924 1107.36 446.805C1108.89 450.991 1110.13 455.471 1111.11 459.951L1111.23 460.47C1111.48 461.669 1111.71 462.798 1111.9 463.841L1111.98 464.282C1112.06 464.74 1112.13 465.146 1112.18 465.498L1112.25 465.932C1112.3 466.254 1112.08 466.554 1111.75 466.602C1111.43 466.648 1111.13 466.427 1111.09 466.104L1111.03 465.756L1110.99 465.473C1110.94 465.215 1110.9 464.93 1110.84 464.622L1110.82 464.487C1110.59 463.196 1110.3 461.756 1109.96 460.204C1108.99 455.773 1107.76 451.341 1106.25 447.21C1103.1 438.577 1099.17 432.435 1094.46 429.881C1094.17 429.726 1094.06 429.369 1094.22 429.083Z" fill="#C6C7C8"/>
<path fill-rule="evenodd" clip-rule="evenodd" d="M1090.63 438.575C1090.76 438.278 1091.11 438.147 1091.41 438.28C1093.81 439.363 1096.56 440.711 1099.23 442.199L1099.57 442.392C1103.33 444.508 1106.22 446.527 1107.88 448.365C1108.1 448.607 1108.09 448.981 1107.85 449.198C1107.6 449.418 1107.23 449.399 1107.01 449.159C1105.4 447.386 1102.47 445.358 1098.65 443.229C1096.02 441.761 1093.3 440.427 1090.92 439.354C1090.63 439.221 1090.5 438.873 1090.63 438.575Z" fill="#C6C7C8"/>
<path fill-rule="evenodd" clip-rule="evenodd" d="M1110.36 440.413C1110.68 440.383 1110.97 440.621 1111 440.944C1111.26 443.684 1111.39 446.333 1111.32 448.648L1111.31 448.934C1111.21 451.907 1110.79 454.048 1109.92 455.193C1109.72 455.452 1109.35 455.502 1109.09 455.304C1108.84 455.109 1108.79 454.74 1108.98 454.48C1110.29 452.76 1110.43 447.517 1109.83 441.054C1109.8 440.731 1110.04 440.443 1110.36 440.413Z" fill="#C6C7C8"/>
<path fill-rule="evenodd" clip-rule="evenodd" d="M1095.57 452.186C1095.78 451.933 1096.15 451.893 1096.4 452.099C1097.77 453.204 1099.78 454.374 1102.26 455.563C1104 456.398 1105.87 457.192 1107.74 457.916L1108.07 458.043C1108.49 458.206 1108.9 458.358 1109.27 458.496L1109.78 458.681L1110.23 458.839C1110.54 458.945 1110.7 459.28 1110.6 459.588C1110.5 459.886 1110.18 460.05 1109.88 459.966L1109.78 459.93L1109.53 459.843C1109.46 459.818 1109.39 459.791 1109.31 459.763L1108.87 459.603C1108.39 459.427 1107.87 459.232 1107.32 459.017C1105.42 458.281 1103.53 457.475 1101.75 456.627L1101.42 456.463C1099.01 455.293 1097.05 454.138 1095.66 453.015C1095.41 452.811 1095.37 452.439 1095.57 452.186Z" fill="#C6C7C8"/>
<path fill-rule="evenodd" clip-rule="evenodd" d="M1105.63 470.974C1105.85 469.317 1105.6 467.916 1105.06 467.843C1104.52 467.77 1103.9 469.054 1103.68 470.709C1103.46 472.364 1103.71 473.768 1104.25 473.841C1104.78 473.913 1105.4 472.631 1105.63 470.974Z" stroke="#C6C7C8" stroke-width="0.74166"/>
<path fill-rule="evenodd" clip-rule="evenodd" d="M1104.26 473.834C1104.57 473.45 1103.88 472.352 1102.71 471.386C1101.54 470.419 1100.34 469.948 1100.02 470.331C1099.7 470.717 1100.4 471.814 1101.56 472.78C1102.73 473.748 1103.94 474.219 1104.26 473.834Z" stroke="#C6C7C8" stroke-width="0.74166"/>
<path fill-rule="evenodd" clip-rule="evenodd" d="M1107.37 473.261C1108.83 472.495 1109.81 471.477 1109.55 470.986C1109.29 470.495 1107.9 470.718 1106.44 471.486C1104.99 472.25 1104.01 473.269 1104.27 473.759C1104.52 474.25 1105.91 474.025 1107.37 473.261Z" stroke="#C6C7C8" stroke-width="0.74166"/>
<path fill-rule="evenodd" clip-rule="evenodd" d="M1102.29 475.94C1103.62 475.209 1104.5 474.262 1104.26 473.824C1104.02 473.386 1102.75 473.622 1101.42 474.353C1100.09 475.084 1099.2 476.032 1099.44 476.47C1099.68 476.908 1100.96 476.67 1102.29 475.94Z" stroke="#C6C7C8" stroke-width="0.74166"/>
<path fill-rule="evenodd" clip-rule="evenodd" d="M1106.57 478.869C1107.02 478.66 1106.88 477.363 1106.24 475.973C1105.61 474.579 1104.73 473.62 1104.27 473.826C1103.82 474.034 1103.97 475.33 1104.6 476.724C1105.23 478.114 1106.12 479.077 1106.57 478.869Z" stroke="#C6C7C8" stroke-width="0.74166"/>
<path fill-rule="evenodd" clip-rule="evenodd" d="M1135.35 485.572L1128.09 518.514H1105.04L1097.78 485.572C1097.37 483.687 1098.54 481.838 1100.15 481.838H1133C1134.6 481.858 1135.78 483.705 1135.35 485.572Z" fill="white"/>
<path fill-rule="evenodd" clip-rule="evenodd" d="M1132.99 482.431H1133.03C1134.2 482.483 1135.1 483.904 1134.79 485.382L1127.62 517.927H1105.51L1098.35 485.449C1098.01 483.904 1098.95 482.431 1100.15 482.431H1132.99ZM1133 481.252H1100.15C1098.13 481.252 1096.72 483.475 1097.2 485.7L1104.46 518.643C1104.52 518.912 1104.76 519.106 1105.04 519.106H1128.09C1128.37 519.106 1128.61 518.912 1128.66 518.643L1135.92 485.702C1136.43 483.505 1135.02 481.276 1133 481.252Z" fill="#C6C7C8"/>
<path fill-rule="evenodd" clip-rule="evenodd" d="M1146.01 438.374C1148.13 428.371 1141.76 418.528 1131.78 416.389C1121.79 414.251 1111.98 420.626 1109.86 430.629C1107.73 440.631 1114.11 450.476 1124.09 452.614C1134.07 454.753 1143.89 448.378 1146.01 438.374Z" fill="#FFAB00"/>
<g style="mix-blend-mode:multiply">
<path fill-rule="evenodd" clip-rule="evenodd" d="M1146.01 438.374C1148.13 428.371 1141.76 418.527 1131.78 416.389C1121.79 414.251 1111.98 420.626 1109.86 430.629C1107.73 440.631 1114.11 450.476 1124.09 452.614C1134.07 454.752 1143.89 448.378 1146.01 438.374Z" fill="#FFAB00"/>
</g>
<path fill-rule="evenodd" clip-rule="evenodd" d="M1137.75 450.438C1145.92 444.331 1147.61 432.726 1141.51 424.521C1135.4 416.315 1123.82 414.616 1115.64 420.723C1107.46 426.831 1105.78 438.435 1111.88 446.64C1117.98 454.844 1129.56 456.545 1137.75 450.438Z" fill="#FFAB00"/>
<g style="mix-blend-mode:multiply" opacity="0.5">
<path fill-rule="evenodd" clip-rule="evenodd" d="M1116.63 423.577C1114.23 425.597 1112.49 428.286 1111.62 431.302C1110.76 434.316 1110.8 437.522 1111.75 440.512C1112.7 443.503 1114.52 446.148 1116.96 448.106C1119.41 450.066 1122.38 451.255 1125.5 451.522C1128.62 451.79 1131.76 451.124 1134.49 449.61C1137.24 448.095 1139.47 445.798 1140.9 443.012C1142.34 440.226 1142.92 437.074 1142.57 433.955C1142.22 430.836 1140.95 427.89 1138.94 425.49C1136.22 422.276 1132.35 420.269 1128.17 419.91C1123.99 419.552 1119.84 420.87 1116.63 423.577ZM1137.7 448.618C1134.72 451.134 1130.97 452.536 1127.07 452.586C1123.18 452.636 1119.38 451.331 1116.34 448.893C1113.29 446.455 1111.18 443.036 1110.37 439.216C1109.56 435.397 1110.09 431.414 1111.88 427.947C1113.67 424.48 1116.6 421.744 1120.18 420.205C1123.76 418.665 1127.76 418.415 1131.5 419.501C1135.24 420.586 1138.5 422.939 1140.71 426.158C1142.92 429.376 1143.95 433.261 1143.62 437.151C1143.44 439.361 1142.82 441.512 1141.8 443.481C1140.79 445.449 1139.39 447.196 1137.7 448.618Z" fill="#FFAB00"/>
</g>
<g style="mix-blend-mode:multiply" opacity="0.5">
<path fill-rule="evenodd" clip-rule="evenodd" d="M1131.76 437.956C1131.59 437.678 1131.36 437.434 1131.1 437.23C1130.85 437.047 1130.56 436.924 1130.26 436.871C1129.89 436.809 1129.52 436.801 1129.16 436.846C1128.67 436.902 1128.19 436.996 1127.72 437.122C1126.84 437.344 1125.96 437.52 1125.07 437.652C1124.32 437.772 1123.55 437.783 1122.79 437.692C1122.1 437.605 1121.45 437.375 1120.86 437.021C1119.64 436.208 1118.78 434.944 1118.49 433.505C1118.37 432.856 1118.39 432.193 1118.55 431.553C1118.72 430.879 1119.01 430.238 1119.4 429.665C1119.85 429.014 1120.4 428.436 1121.02 427.948L1119.48 425.608L1121.35 424.369L1122.92 426.742C1123.6 426.401 1124.34 426.173 1125.1 426.07C1125.8 425.973 1126.51 426.016 1127.19 426.198C1127.87 426.379 1128.51 426.697 1129.07 427.132C1129.7 427.628 1130.24 428.228 1130.67 428.906L1127.28 431.144C1126.71 430.269 1126.08 429.742 1125.41 429.563C1125.07 429.477 1124.72 429.465 1124.38 429.53C1124.03 429.595 1123.71 429.737 1123.43 429.941C1123.11 430.141 1122.84 430.396 1122.62 430.694C1122.44 430.937 1122.32 431.215 1122.26 431.512C1122.21 431.793 1122.22 432.083 1122.29 432.359C1122.37 432.654 1122.5 432.936 1122.67 433.192C1122.83 433.442 1123.04 433.663 1123.27 433.846C1123.51 434.021 1123.78 434.136 1124.07 434.185C1124.44 434.246 1124.81 434.254 1125.18 434.21C1125.69 434.146 1126.2 434.058 1126.7 433.936C1127.64 433.723 1128.52 433.557 1129.34 433.445C1130.1 433.335 1130.86 433.327 1131.62 433.424C1132.31 433.512 1132.97 433.74 1133.56 434.098C1134.79 434.917 1135.64 436.19 1135.94 437.638C1136.05 438.284 1136.02 438.949 1135.86 439.585C1135.68 440.258 1135.38 440.891 1134.98 441.455C1134.52 442.095 1133.97 442.666 1133.35 443.154L1134.78 445.329L1132.92 446.561L1131.49 444.394C1130.81 444.756 1130.08 445.031 1129.33 445.212C1128.6 445.392 1127.84 445.432 1127.09 445.33C1126.33 445.219 1125.59 444.941 1124.94 444.514C1124.18 444 1123.53 443.327 1123.04 442.543L1126.43 440.304C1126.71 440.756 1127.07 441.145 1127.5 441.457C1127.84 441.693 1128.22 441.847 1128.63 441.905C1129 441.953 1129.38 441.913 1129.74 441.797C1130.11 441.675 1130.45 441.508 1130.77 441.299C1131.1 441.087 1131.4 440.824 1131.65 440.518C1131.85 440.264 1132 439.975 1132.08 439.662C1132.16 439.379 1132.17 439.079 1132.11 438.789C1132.05 438.491 1131.93 438.208 1131.76 437.956Z" fill="#FFAB00"/>
</g>
<path fill-rule="evenodd" clip-rule="evenodd" d="M1014.51 390.593C1014.51 390.415 1015.49 370.205 1005.75 365.554L1006.44 364.893C1010.88 366.453 1015.84 371.284 1017.82 378.1C1019.3 383.153 1018.17 384.278 1018.18 384.468L1014.51 390.593Z" fill="#C6C7C8"/>
<path fill-rule="evenodd" clip-rule="evenodd" d="M989.085 350.563C989.085 350.563 987.974 360.965 993.4 365.384C998.83 369.804 1008.75 366.572 1008.75 366.572C1008.75 366.572 1009.86 356.17 1004.43 351.756C998.998 347.339 989.085 350.563 989.085 350.563Z" fill="#C6C7C8"/>
<path fill-rule="evenodd" clip-rule="evenodd" d="M1026.18 352.103C1026.21 351.968 1029.24 334.532 1037.4 332.546C1033.75 333.022 1029.12 335.64 1026.53 340.516C1024.61 344.136 1025.28 345.164 1025.25 345.307L1026.18 352.103Z" fill="#C6C7C8"/>
<path fill-rule="evenodd" clip-rule="evenodd" d="M993.547 311.974C993.547 311.974 984.75 299.519 974.761 295.861C974.761 295.861 978.498 325.077 973.033 325.44C967.572 325.801 971.213 292.582 971.213 292.582C971.213 292.582 945.188 278.094 934.623 278.495C934.623 278.495 949.582 307.686 944.201 306.687C938.816 305.689 921.845 276.036 921.845 276.036C921.845 276.036 894.686 269.326 889.326 285.383C883.967 301.438 890.61 310.019 894.618 311.278C898.626 312.539 924.742 313.729 923.868 317.091C922.995 320.452 905.048 324.853 895.396 321.216C895.396 321.216 904.674 348.709 918.989 348.187C933.303 347.663 938.226 339.085 947.078 338.92C955.934 338.757 962.233 341.518 957.686 343.636C953.141 345.756 938.322 343.283 930.848 348.932C923.376 354.58 917.396 357.984 930.457 361.481C943.517 364.978 963.227 361.03 972.583 354.779C972.609 354.76 980.241 354.151 986.248 389.585C988.565 403.255 986.785 423.51 986.785 423.51L991.634 422.767C994.319 383.05 980.027 350.029 980.027 350.029C980.027 350.029 1004.28 332.059 993.547 311.974Z" fill="#C6C7C8"/>
<path fill-rule="evenodd" clip-rule="evenodd" d="M993.547 311.974C993.547 311.974 984.75 299.519 974.761 295.861C974.761 295.861 978.498 325.077 973.033 325.44C967.572 325.801 971.213 292.582 971.213 292.582C971.213 292.582 945.188 278.094 934.623 278.495C934.623 278.495 949.582 307.686 944.201 306.687C938.816 305.689 921.845 276.036 921.845 276.036C921.845 276.036 894.686 269.326 889.326 285.383C883.967 301.438 890.61 310.019 894.618 311.278C898.626 312.539 924.742 313.729 923.868 317.091C922.995 320.452 905.048 324.853 895.396 321.216C895.396 321.216 904.674 348.709 918.989 348.187C933.303 347.663 938.226 339.085 947.078 338.92C955.934 338.757 962.233 341.518 957.686 343.636C953.141 345.756 938.322 343.283 930.848 348.932C923.376 354.58 917.396 357.984 930.457 361.481C943.517 364.978 963.227 361.03 972.583 354.779C972.609 354.76 980.241 354.151 986.248 389.585C988.565 403.255 986.785 423.51 986.785 423.51L991.634 422.767C994.319 383.05 980.027 350.029 980.027 350.029C980.027 350.029 1004.28 332.059 993.547 311.974Z" stroke="#C6C7C8" stroke-width="1.1547"/>
<path fill-rule="evenodd" clip-rule="evenodd" d="M1072.84 364.405C1072.84 364.405 1043.62 352.092 1054.08 329.695C1054.08 329.695 1062.89 315.669 1073.51 311.117C1073.51 311.117 1071.17 343.011 1077.11 343.081C1083.06 343.149 1077.16 307.352 1077.16 307.352C1077.16 307.352 1104.53 290.117 1116.01 289.918C1116.01 289.918 1101.49 322.451 1107.28 321.051C1113.06 319.65 1129.73 286.5 1129.73 286.5C1129.73 286.5 1158.78 277.62 1165.53 294.713C1172.29 311.807 1165.59 321.504 1161.32 323.103C1157.05 324.701 1128.8 327.537 1129.94 331.124C1131.09 334.711 1150.8 338.431 1161.05 333.919C1161.05 333.919 1152.61 364.273 1137.05 364.555C1121.5 364.833 1115.66 355.817 1106.05 356.163C1096.45 356.511 1089.77 359.872 1094.83 361.904C1099.88 363.932 1115.8 360.377 1124.24 366.063C1132.67 371.75 1139.35 375.083 1125.4 379.642C1111.46 384.205 1085.59 385.291 1079.22 374.843L1072.84 364.405Z" fill="#DDDEDE"/>
<path fill-rule="evenodd" clip-rule="evenodd" d="M1072.84 364.405C1072.84 364.405 1043.62 352.092 1054.08 329.695C1054.08 329.695 1062.89 315.669 1073.51 311.117C1073.51 311.117 1071.17 343.011 1077.11 343.081C1083.06 343.149 1077.16 307.352 1077.16 307.352C1077.16 307.352 1104.53 290.117 1116.01 289.918C1116.01 289.918 1101.49 322.451 1107.28 321.051C1113.06 319.65 1129.73 286.5 1129.73 286.5C1129.73 286.5 1158.78 277.62 1165.53 294.713C1172.29 311.807 1165.59 321.504 1161.32 323.103C1157.05 324.701 1128.8 327.537 1129.94 331.124C1131.09 334.711 1150.8 338.431 1161.05 333.919C1161.05 333.919 1152.61 364.273 1137.05 364.555C1121.5 364.833 1115.66 355.817 1106.05 356.163C1096.45 356.511 1089.77 359.872 1094.83 361.904C1099.88 363.932 1115.8 360.377 1124.24 366.063C1132.67 371.75 1139.35 375.083 1125.4 379.642C1111.46 384.205 1085.59 385.291 1079.22 374.843L1072.84 364.405Z" stroke="#C6C7C8" stroke-width="1.1547"/>
<path fill-rule="evenodd" clip-rule="evenodd" d="M1152.6 301.767C1152.6 301.767 1078.49 335.487 1072.84 364.405C1072.84 364.405 1074.62 376.858 1068.54 392.06L1069.17 397.572C1069.17 397.572 1075.11 377.919 1079.22 374.85C1079.23 374.85 1059.27 352.553 1152.6 301.767Z" fill="#C6C7C8"/>
<path fill-rule="evenodd" clip-rule="evenodd" d="M1068.55 392.062C1068.55 392.062 1058.73 411.477 1067.97 432.705L1070.94 431.536C1070.94 431.536 1065.24 407.644 1070.07 394.758C1074.91 381.869 1068.55 392.062 1068.55 392.062Z" fill="#C6C7C8"/>
<path fill-rule="evenodd" clip-rule="evenodd" d="M961.456 231.03C973.429 243.806 967.201 269.188 967.201 269.188C967.201 269.188 941.557 273.851 929.571 261.07C917.587 248.287 923.826 222.907 923.826 222.907C923.826 222.907 949.479 218.247 961.456 231.03Z" fill="#C6C7C8"/>
<path fill-rule="evenodd" clip-rule="evenodd" d="M961.456 231.03C973.429 243.806 967.201 269.188 967.201 269.188C967.201 269.188 941.557 273.851 929.571 261.07C917.587 248.287 923.826 222.907 923.826 222.907C923.826 222.907 949.479 218.247 961.456 231.03Z" stroke="#C6C7C8" stroke-width="1.1547"/>
<path fill-rule="evenodd" clip-rule="evenodd" d="M961.455 231.03C973.427 243.806 967.2 269.188 967.2 269.188L923.833 222.907C923.833 222.907 949.477 218.247 961.455 231.03Z" fill="#DDDEDE"/>
<path fill-rule="evenodd" clip-rule="evenodd" d="M1115.89 279.712C1109.64 286.973 1095.52 285.02 1095.52 285.02C1095.52 285.02 1091.53 271.298 1097.78 264.034C1104.03 256.771 1118.15 258.727 1118.15 258.727C1118.15 258.727 1122.14 272.45 1115.89 279.712Z" fill="#C6C7C8"/>
<path fill-rule="evenodd" clip-rule="evenodd" d="M1115.89 279.712C1109.64 286.973 1095.52 285.02 1095.52 285.02C1095.52 285.02 1091.53 271.298 1097.78 264.034C1104.03 256.771 1118.15 258.727 1118.15 258.727C1118.15 258.727 1122.14 272.45 1115.89 279.712Z" stroke="#C6C7C8" stroke-width="1.1547"/>
<path fill-rule="evenodd" clip-rule="evenodd" d="M1042.03 337.443C1037.84 338.609 1032.99 334.299 1032.99 334.299C1032.99 334.299 1034.93 328.101 1039.12 326.937C1043.31 325.771 1048.16 330.081 1048.16 330.081C1048.16 330.081 1046.22 336.279 1042.03 337.443Z" fill="#C6C7C8"/>
<path fill-rule="evenodd" clip-rule="evenodd" d="M968.06 207.33C970.931 214.164 964.746 223.296 964.746 223.296C964.746 223.296 953.902 221.361 951.029 214.534C948.158 207.704 954.346 198.567 954.346 198.567C954.346 198.567 965.188 200.5 968.06 207.33Z" fill="#C6C7C8"/>
<path fill-rule="evenodd" clip-rule="evenodd" d="M968.06 207.33C970.931 214.164 964.746 223.296 964.746 223.296C964.746 223.296 953.902 221.361 951.029 214.534C948.158 207.704 954.346 198.567 954.346 198.567C954.346 198.567 965.188 200.5 968.06 207.33Z" stroke="#C6C7C8" stroke-width="1.1547"/>
<path fill-rule="evenodd" clip-rule="evenodd" d="M1074.38 430.699L1055.12 518.814H993.94L974.674 430.699C973.582 425.651 976.704 420.707 980.975 420.707H1068.13C1072.4 420.76 1075.52 425.705 1074.38 430.699Z" fill="white"/>
<path fill-rule="evenodd" clip-rule="evenodd" d="M1068.73 421.867L1068.83 421.869C1071.96 422.005 1074.36 425.806 1073.53 429.767L1054.34 516.847H995.181L976.028 429.942C975.125 425.811 977.632 421.867 980.842 421.867H1068.73ZM1068.74 418.709H980.84C975.436 418.709 971.649 424.661 972.949 430.616L992.374 518.763C992.534 519.485 993.174 520 993.912 520H1055.6C1056.34 520 1056.98 519.485 1057.14 518.763L1076.56 430.621C1077.92 424.739 1074.15 418.777 1068.74 418.709Z" fill="#C6C7C8"/>
<path fill-rule="evenodd" clip-rule="evenodd" d="M235.275 391.876C235.115 391.876 234.963 391.812 234.85 391.699C234.736 391.586 234.672 391.431 234.672 391.271V381.388C234.672 361.323 249.199 344.998 267.06 344.998H282.077C282.236 344.998 282.388 345.061 282.501 345.175C282.614 345.286 282.677 345.441 282.677 345.599C282.677 345.761 282.614 345.912 282.501 346.026C282.388 346.139 282.236 346.202 282.077 346.202H267.06C249.864 346.202 235.875 361.989 235.875 381.379V391.261C235.877 391.341 235.862 391.421 235.832 391.494C235.802 391.569 235.759 391.638 235.702 391.694C235.647 391.751 235.581 391.798 235.506 391.827C235.433 391.861 235.355 391.876 235.275 391.876Z" fill="white"/>
<path fill-rule="evenodd" clip-rule="evenodd" d="M270.95 518.361V518.554H107.576V517.718C108.369 515.585 109.604 513.648 111.198 512.031C112.794 510.416 114.714 509.157 116.832 508.342C118.947 507.528 121.214 507.172 123.478 507.301C125.742 507.431 127.953 508.042 129.965 509.093C131.079 505.701 133.291 502.777 136.251 500.787C139.208 498.795 142.744 497.851 146.296 498.101C149.852 498.354 153.22 499.786 155.87 502.174C158.52 504.56 160.302 507.766 160.932 511.283H171.655C172.755 505.709 179.039 503.14 184.602 503.14C185.345 503.138 186.088 503.193 186.823 503.303C186.698 502.499 186.636 501.684 186.636 500.867C186.636 490.564 196.44 482.207 208.53 482.207C219.589 482.207 228.742 489.2 230.216 498.279C232.507 496.745 235.164 495.846 237.913 495.673C240.663 495.5 243.411 496.059 245.874 497.295C248.34 498.529 250.434 500.396 251.949 502.704C253.462 505.013 254.341 507.681 254.494 510.442C256.274 509.346 258.328 508.772 260.419 508.782C266.236 508.78 270.95 513.068 270.95 518.361Z" stroke="#C6C7C8" stroke-width="1.1547"/>
<path fill-rule="evenodd" clip-rule="evenodd" d="M298.788 412.408L307.519 115.403C307.519 115.023 307.669 114.66 307.938 114.391C308.206 114.122 308.568 113.973 308.946 113.973C309.325 113.973 309.687 114.122 309.955 114.391C310.221 114.66 310.37 115.023 310.37 115.403L318.864 412.406L298.788 412.408Z" fill="#C6C7C8"/>
<mask id="mask0_9325_9056" style="mask-type:luminance" maskUnits="userSpaceOnUse" x="305" y="0" width="16" height="114">
<path fill-rule="evenodd" clip-rule="evenodd" d="M305.753 0H320.824V113.927H305.753V0Z" fill="white"/>
</mask>
<g mask="url(#mask0_9325_9056)">
<path fill-rule="evenodd" clip-rule="evenodd" d="M320.161 59.561C318.636 81.6726 314.635 101.112 311.068 112.86C310.968 113.188 310.762 113.47 310.481 113.663C310.2 113.856 309.864 113.948 309.525 113.924C309.184 113.901 308.863 113.764 308.612 113.535C308.361 113.305 308.195 112.997 308.14 112.66C306.213 100.587 304.895 80.9233 306.416 58.82C308.195 32.7599 313.451 10.4035 317.345 0.000488281C319.808 10.8431 321.955 33.501 320.161 59.561Z" fill="#C6C7C8"/>
</g>
<path fill-rule="evenodd" clip-rule="evenodd" d="M256.967 138.228C274.953 127.685 292.273 120.28 303.987 116.403C305.996 115.737 307.463 118.305 305.878 119.717C298.145 126.566 283.562 137.79 263.292 149.672C240.81 162.851 220.278 171.427 209.505 174.042C217.069 165.902 234.481 151.421 256.967 138.228Z" fill="#C6C7C8"/>
<path fill-rule="evenodd" clip-rule="evenodd" d="M357.859 133.01C378.701 143.891 395.729 157.054 402.751 164.324C392.778 162.724 373.747 155.278 352.89 144.397C336.008 135.59 321.652 126.472 313.062 119.463C311.536 118.229 312.758 115.8 314.653 116.258C325.313 118.837 340.982 124.206 357.859 133.01Z" fill="#C6C7C8"/>
<path fill-rule="evenodd" clip-rule="evenodd" d="M441.911 432.904L449.536 173.849C449.536 173.517 449.668 173.199 449.9 172.968C450.133 172.735 450.451 172.601 450.78 172.601C451.109 172.601 451.426 172.735 451.659 172.968C451.892 173.199 452.023 173.517 452.023 173.849L459.431 432.904H441.911Z" fill="#C6C7C8"/>
<path fill-rule="evenodd" clip-rule="evenodd" d="M466.811 135.62C462.459 151.367 456.712 164.824 452.391 172.776C452.272 172.997 452.081 173.171 451.85 173.269C451.618 173.369 451.361 173.385 451.118 173.319C450.877 173.252 450.664 173.104 450.516 172.899C450.368 172.696 450.293 172.448 450.305 172.196C450.689 163.189 452.632 148.791 456.988 133.045C462.117 114.489 469.187 99.1153 473.547 92.1777C473.727 100.371 471.941 117.062 466.811 135.62Z" fill="#C6C7C8"/>
<path fill-rule="evenodd" clip-rule="evenodd" d="M409.58 183.088C424.126 178.134 437.726 175.348 446.764 174.282C447.09 174.242 447.423 174.319 447.7 174.494C447.978 174.672 448.189 174.94 448.292 175.256C448.395 175.569 448.387 175.909 448.269 176.219C448.151 176.525 447.928 176.783 447.642 176.948C441.049 180.753 428.865 186.7 412.472 192.284C394.289 198.474 378.197 201.629 370.028 201.926C376.686 197.17 391.393 189.28 409.58 183.088Z" fill="#C6C7C8"/>
<path fill-rule="evenodd" clip-rule="evenodd" d="M483.232 194.252C496.702 205.198 507.042 217.224 511.051 223.517C504.082 220.883 491.431 212.69 477.965 201.744C467.063 192.879 458.036 184.155 452.861 177.832C452.667 177.594 452.561 177.297 452.557 176.989C452.554 176.685 452.655 176.383 452.843 176.142C453.033 175.899 453.297 175.729 453.595 175.659C453.894 175.587 454.206 175.62 454.484 175.752C461.795 179.211 472.338 185.404 483.232 194.252Z" fill="#C6C7C8"/>
<path fill-rule="evenodd" clip-rule="evenodd" d="M227.626 496.88C227.546 496.88 227.468 496.863 227.395 496.835C227.322 496.803 227.257 496.76 227.2 496.704C227.144 496.647 227.101 496.582 227.071 496.507C227.041 496.434 227.024 496.357 227.024 496.279V275.87C227.021 275.789 227.032 275.705 227.059 275.627C227.087 275.551 227.132 275.477 227.187 275.419C227.245 275.357 227.312 275.309 227.386 275.277C227.461 275.244 227.544 275.228 227.626 275.228C227.707 275.228 227.79 275.244 227.867 275.277C227.94 275.309 228.01 275.357 228.065 275.419C228.123 275.477 228.166 275.551 228.193 275.627C228.221 275.705 228.233 275.789 228.228 275.87V496.279C228.228 496.439 228.163 496.592 228.05 496.705C227.937 496.815 227.784 496.88 227.626 496.88Z" fill="#333739"/>
<path fill-rule="evenodd" clip-rule="evenodd" d="M215.528 218.015C217.054 225.677 220.146 231.941 223.35 234.547C225.313 230.908 225.777 223.939 224.256 216.274C222.736 208.608 219.641 202.349 216.434 199.739C214.474 203.379 214.009 210.355 215.528 218.015Z" fill="#C6C7C8"/>
<path fill-rule="evenodd" clip-rule="evenodd" d="M230.169 291.758C231.693 299.418 234.787 305.679 237.987 308.289C239.95 304.649 240.417 297.681 238.895 290.014C237.372 282.345 234.28 276.087 231.073 273.479C229.12 277.12 228.644 284.092 230.169 291.758Z" fill="#C6C7C8"/>
<path fill-rule="evenodd" clip-rule="evenodd" d="M262.896 242.334C255.259 243.861 249.013 246.962 246.41 250.178C250.042 252.146 256.988 252.611 264.631 251.084C272.275 249.558 278.517 246.456 281.116 243.242C277.488 241.273 270.534 240.804 262.896 242.334Z" fill="#C6C7C8"/>
<path fill-rule="evenodd" clip-rule="evenodd" d="M189.384 257.026C181.746 258.556 175.502 261.653 172.9 264.864C176.529 266.836 183.478 267.304 191.122 265.775C198.765 264.249 205.006 261.145 207.606 257.933C203.964 255.955 197.01 255.495 189.384 257.026Z" fill="#C6C7C8"/>
<path fill-rule="evenodd" clip-rule="evenodd" d="M244.21 220.37C239.889 226.868 237.657 233.491 238.081 237.607C242.035 236.425 247.284 231.821 251.609 225.328C255.931 218.836 258.164 212.205 257.735 208.09C253.782 209.271 248.535 213.876 244.21 220.37Z" fill="#C6C7C8"/>
<path fill-rule="evenodd" clip-rule="evenodd" d="M202.578 282.904C198.258 289.397 196.023 296.019 196.449 300.135C200.406 298.953 205.649 294.35 209.978 287.859C214.307 281.364 216.529 274.738 216.102 270.623C212.15 271.802 206.902 276.403 202.578 282.904Z" fill="#C6C7C8"/>
<path fill-rule="evenodd" clip-rule="evenodd" d="M260.555 271.165C254.078 266.83 247.477 264.589 243.374 265.018C244.551 268.985 249.142 274.247 255.617 278.584C262.091 282.925 268.699 285.158 272.802 284.729C271.623 280.765 267.02 275.503 260.555 271.165Z" fill="#C6C7C8"/>
<path fill-rule="evenodd" clip-rule="evenodd" d="M198.214 229.407C191.736 225.072 185.133 222.836 181.03 223.264C182.207 227.231 186.8 232.491 193.274 236.831C199.747 241.167 206.355 243.402 210.46 242.976C209.281 239.009 204.693 233.747 198.214 229.407Z" fill="#C6C7C8"/>
<path fill-rule="evenodd" clip-rule="evenodd" d="M229.337 217.523C228.014 224.95 228.592 231.676 230.554 235.15C233.605 232.574 236.471 226.484 237.794 219.043C239.119 211.601 238.537 204.892 236.574 201.416C233.531 203.993 230.675 210.099 229.337 217.523Z" fill="#C6C7C8"/>
<path fill-rule="evenodd" clip-rule="evenodd" d="M216.591 288.985C215.266 296.409 215.845 303.135 217.809 306.612C220.86 304.034 223.723 297.943 225.049 290.504C226.377 283.063 225.791 276.354 223.829 272.877C220.785 275.475 217.914 281.569 216.591 288.985Z" fill="#C6C7C8"/>
<path fill-rule="evenodd" clip-rule="evenodd" d="M263.377 256.129C255.975 254.802 249.268 255.385 245.802 257.353C248.372 260.412 254.457 263.285 261.863 264.614C269.269 265.941 275.972 265.358 279.438 263.39C276.868 260.336 270.782 257.458 263.377 256.129Z" fill="#C6C7C8"/>
<path fill-rule="evenodd" clip-rule="evenodd" d="M192.115 243.356C184.712 242.028 178.008 242.611 174.54 244.581C177.11 247.64 183.194 250.51 190.6 251.842C198.006 253.174 204.709 252.585 208.177 250.616C205.607 247.554 199.519 244.675 192.115 243.356Z" fill="#C6C7C8"/>
<path fill-rule="evenodd" clip-rule="evenodd" d="M254.526 230.836C248.33 234.961 243.933 239.975 242.799 243.759C246.719 244.179 253.03 242.072 259.229 237.937C265.426 233.8 269.821 228.798 270.96 225.013C267.02 224.591 260.718 226.708 254.526 230.836Z" fill="#C6C7C8"/>
<path fill-rule="evenodd" clip-rule="evenodd" d="M194.863 270.543C188.665 274.671 184.27 279.682 183.131 283.467C187.049 283.885 193.362 281.78 199.564 277.645C205.765 273.51 210.157 268.503 211.292 264.721C207.372 264.3 201.062 266.415 194.863 270.543Z" fill="#C6C7C8"/>
<path fill-rule="evenodd" clip-rule="evenodd" d="M250.263 281.63C246.151 275.416 241.15 271.005 237.38 269.866C236.963 273.793 239.062 280.129 243.183 286.342C247.308 292.559 252.298 296.97 256.07 298.107C256.491 294.181 254.38 287.848 250.263 281.63Z" fill="#C6C7C8"/>
<path fill-rule="evenodd" clip-rule="evenodd" d="M210.67 221.793C206.555 215.58 201.558 211.169 197.784 210.03C197.366 213.961 199.465 220.293 203.59 226.508C207.712 232.722 212.703 237.134 216.475 238.276C216.894 234.346 214.784 228.011 210.67 221.793Z" fill="#C6C7C8"/>
<path fill-rule="evenodd" clip-rule="evenodd" d="M221.665 358.552V347.634C221.665 340.332 219.279 333.23 214.874 327.416C210.467 321.604 204.279 317.399 197.266 315.449L179.706 311.546L188.45 335.343C189.979 339.784 192.85 343.638 196.665 346.362C200.481 349.09 205.047 350.554 209.732 350.554C212.221 350.554 214.658 351.275 216.747 352.632C218.837 353.989 220.491 355.922 221.508 358.201L221.665 358.552Z" stroke="#C6C7C8" stroke-width="1.1547"/>
<path fill-rule="evenodd" clip-rule="evenodd" d="M221.665 356.986C221.507 356.986 221.352 356.921 221.239 356.808C221.126 356.694 221.063 356.541 221.063 356.381V347.396C221.051 340.23 218.705 333.264 214.385 327.56C210.063 321.853 204.003 317.719 197.124 315.785L179.827 312.371C179.75 312.356 179.676 312.325 179.611 312.281C179.544 312.236 179.489 312.18 179.446 312.115C179.401 312.05 179.371 311.975 179.353 311.898C179.338 311.82 179.338 311.74 179.353 311.664C179.37 311.585 179.4 311.51 179.443 311.445C179.486 311.38 179.543 311.324 179.607 311.279C179.674 311.236 179.747 311.204 179.825 311.189C179.902 311.172 179.981 311.172 180.058 311.187L197.423 314.619C204.558 316.619 210.846 320.904 215.329 326.819C219.814 332.734 222.25 339.955 222.263 347.386V356.371C222.266 356.45 222.253 356.531 222.221 356.605C222.193 356.679 222.15 356.746 222.092 356.804C222.037 356.861 221.97 356.908 221.897 356.938C221.822 356.968 221.744 356.986 221.665 356.986Z" fill="white"/>
<path fill-rule="evenodd" clip-rule="evenodd" d="M235.276 391.514V381.628C235.276 361.86 249.51 345.84 267.061 345.84H282.078C282.078 357.95 277.28 369.563 268.74 378.126C260.206 386.691 248.624 391.502 236.55 391.502L235.276 391.514Z" stroke="#C6C7C8" stroke-width="1.1547"/>
<path fill-rule="evenodd" clip-rule="evenodd" d="M227.626 418.156C227.6 418.159 227.573 418.159 227.547 418.156C227.469 418.146 227.394 418.119 227.324 418.079C227.257 418.039 227.199 417.986 227.151 417.923C227.103 417.859 227.071 417.788 227.05 417.711C227.031 417.636 227.026 417.558 227.038 417.478C227.05 417.381 228.408 407.538 233.119 395.51C237.476 384.382 245.67 369.028 259.982 359.057C260.047 359.013 260.12 358.98 260.196 358.963C260.274 358.948 260.353 358.947 260.431 358.96C260.507 358.975 260.582 359.003 260.648 359.045C260.715 359.09 260.771 359.145 260.816 359.21C260.863 359.275 260.893 359.348 260.909 359.425C260.928 359.503 260.928 359.581 260.913 359.659C260.901 359.738 260.87 359.811 260.828 359.878C260.786 359.944 260.732 360.002 260.667 360.046C246.613 369.831 238.553 384.948 234.25 395.911C229.588 407.819 228.243 417.535 228.23 417.633C228.212 417.776 228.139 417.911 228.027 418.009C227.916 418.104 227.773 418.157 227.626 418.156Z" fill="#333739"/>
<path fill-rule="evenodd" clip-rule="evenodd" d="M227.625 392.505H227.605C227.445 392.5 227.294 392.43 227.186 392.312C227.078 392.195 227.019 392.04 227.024 391.881C227.024 391.769 227.365 380.408 223.824 366.79C221.75 358.808 218.766 351.621 214.957 345.427C210.209 337.704 204.158 331.512 196.968 327.026C196.898 326.986 196.835 326.933 196.789 326.866C196.74 326.801 196.704 326.728 196.686 326.651C196.666 326.571 196.662 326.49 196.674 326.41C196.687 326.332 196.715 326.255 196.759 326.185C196.802 326.117 196.857 326.059 196.925 326.012C196.99 325.965 197.063 325.934 197.144 325.917C197.221 325.899 197.302 325.899 197.382 325.914C197.46 325.929 197.537 325.96 197.603 326.005C204.956 330.595 211.144 336.921 215.993 344.813C219.863 351.111 222.893 358.418 224.996 366.522C228.575 380.304 228.23 391.809 228.228 391.924C228.22 392.08 228.155 392.227 228.042 392.335C227.93 392.443 227.781 392.505 227.625 392.505Z" fill="#333739"/>
<path fill-rule="evenodd" clip-rule="evenodd" d="M227.004 276.339C239.273 276.339 249.219 266.364 249.219 254.059C249.219 241.753 239.273 231.776 227.004 231.776C214.736 231.776 204.788 241.753 204.788 254.059C204.788 266.364 214.736 276.339 227.004 276.339Z" fill="white"/>
<path fill-rule="evenodd" clip-rule="evenodd" d="M244.939 240.901V267.199C245.162 266.898 245.376 266.59 245.581 266.272V241.822C245.376 241.514 245.162 241.206 244.939 240.901Z" fill="#7B7D7E"/>
<path fill-rule="evenodd" clip-rule="evenodd" d="M240.37 236.258V271.865C240.583 271.704 240.796 271.532 241.007 271.357V236.763C240.796 236.59 240.588 236.426 240.37 236.258Z" fill="#7B7D7E"/>
<path fill-rule="evenodd" clip-rule="evenodd" d="M235.797 233.587V274.516C236.014 274.423 236.227 274.326 236.437 274.225V233.878C236.227 233.772 236.013 233.682 235.797 233.587Z" fill="#7B7D7E"/>
<path fill-rule="evenodd" clip-rule="evenodd" d="M231.228 232.178V275.933C231.442 275.893 231.655 275.848 231.87 275.802V232.311C231.655 232.263 231.454 232.218 231.228 232.178Z" fill="#7B7D7E"/>
<path fill-rule="evenodd" clip-rule="evenodd" d="M226.655 231.782V276.334H227.298V231.782H227.002C226.906 231.782 226.771 231.777 226.655 231.782Z" fill="#7B7D7E"/>
<path fill-rule="evenodd" clip-rule="evenodd" d="M222.076 232.326V275.793C222.286 275.842 222.5 275.885 222.715 275.927V232.188C222.512 232.228 222.286 232.274 222.076 232.326Z" fill="#7B7D7E"/>
<path fill-rule="evenodd" clip-rule="evenodd" d="M217.511 233.902V274.197C217.72 274.299 217.935 274.397 218.151 274.49V233.603C217.94 233.701 217.727 233.799 217.511 233.902Z" fill="#7B7D7E"/>
<path fill-rule="evenodd" clip-rule="evenodd" d="M212.942 236.803V271.304C213.15 271.479 213.364 271.649 213.582 271.812V236.297C213.366 236.471 213.152 236.63 212.942 236.803Z" fill="#7B7D7E"/>
<path fill-rule="evenodd" clip-rule="evenodd" d="M208.375 241.917V266.195C208.576 266.516 208.787 266.829 209.013 267.127V240.983C208.792 241.291 208.579 241.602 208.375 241.917Z" fill="#7B7D7E"/>
<path fill-rule="evenodd" clip-rule="evenodd" d="M213.759 271.94C214.056 272.163 214.357 272.381 214.665 272.585H239.343C239.651 272.381 239.953 272.163 240.251 271.94H213.759Z" fill="#7B7D7E"/>
<path fill-rule="evenodd" clip-rule="evenodd" d="M209.184 267.359C209.345 267.577 209.507 267.792 209.678 268.002H244.327C244.502 267.792 244.665 267.577 244.836 267.359H209.184Z" fill="#7B7D7E"/>
<path fill-rule="evenodd" clip-rule="evenodd" d="M206.557 262.772C206.649 262.992 206.742 263.207 206.841 263.418H247.171C247.269 263.207 247.366 262.992 247.457 262.772H206.557Z" fill="#7B7D7E"/>
<path fill-rule="evenodd" clip-rule="evenodd" d="M205.17 258.192C205.212 258.412 205.252 258.621 205.303 258.835H248.707C248.757 258.621 248.8 258.412 248.84 258.192H205.17Z" fill="#7B7D7E"/>
<path fill-rule="evenodd" clip-rule="evenodd" d="M204.791 254.064V254.259H249.23V253.617H204.792C204.792 253.756 204.791 253.907 204.791 254.064Z" fill="#7B7D7E"/>
<path fill-rule="evenodd" clip-rule="evenodd" d="M205.219 249.665H248.789C248.746 249.448 248.703 249.237 248.653 249.022H205.357C205.309 249.237 205.259 249.443 205.219 249.665Z" fill="#7B7D7E"/>
<path fill-rule="evenodd" clip-rule="evenodd" d="M206.664 245.078H247.33C247.235 244.866 247.141 244.652 247.036 244.438H206.959C206.857 244.652 206.757 244.861 206.664 245.078Z" fill="#7B7D7E"/>
<path fill-rule="evenodd" clip-rule="evenodd" d="M209.375 240.498H244.635C244.47 240.28 244.299 240.062 244.128 239.854H209.891C209.713 240.065 209.543 240.28 209.375 240.498Z" fill="#7B7D7E"/>
<path fill-rule="evenodd" clip-rule="evenodd" d="M214.103 235.916H239.907C239.587 235.695 239.268 235.48 238.947 235.274H215.039C214.731 235.48 214.41 235.71 214.103 235.916Z" fill="#7B7D7E"/>
</g>
</svg>
