<svg width="300" height="216" viewBox="0 0 300 216" fill="none" xmlns="http://www.w3.org/2000/svg">
<path opacity="0.3" fill-rule="evenodd" clip-rule="evenodd" d="M17.8863 207.148C17.8863 207.148 2.36746 207.113 2.39995 208.104C2.49742 211.46 14.6916 209.495 15.6987 210.503C16.1861 210.99 15.6446 212.068 16.511 212.764C19.9548 215.528 31.954 213.024 36.2317 213.042C47.8953 213.094 50.8518 214.346 52.2055 214.502C56.0067 214.954 66.7605 214.78 69.782 214.693C76.009 214.52 92.7516 215.25 92.3943 212.416C92.2318 211.147 76.1606 208.469 73.4207 208.121C71.0815 207.826 69.4679 206.07 67.367 205.027C64.4213 203.584 61.1941 202.697 58.021 202.158C44.733 199.863 31.0985 205.27 17.8863 207.148Z" fill="#333739"/>
<path opacity="0.3" fill-rule="evenodd" clip-rule="evenodd" d="M224.286 208.348C224.286 208.348 208.767 208.313 208.8 209.304C208.897 212.66 221.091 210.695 222.099 211.703C222.586 212.19 222.045 213.268 222.911 213.964C226.355 216.728 238.354 214.224 242.632 214.242C254.295 214.294 257.252 215.546 258.605 215.702C262.407 216.154 273.16 215.98 276.182 215.894C282.409 215.72 299.152 216.45 298.794 213.616C298.632 212.347 282.561 209.669 279.821 209.321C277.481 209.026 275.868 207.27 273.767 206.227C270.821 204.784 267.594 203.897 264.421 203.358C251.133 201.063 237.498 206.47 224.286 208.348Z" fill="#333739"/>
<path opacity="0.6" d="M127.647 190.465L131.971 166.953H126.412L122.088 190.465H127.647Z" fill="#333739"/>
<path opacity="0.4" d="M75.7605 149.63L66.4951 2.37427C66.4951 2.37427 58.026 3.86747 54.1412 7.32403C51.6882 9.50661 49.1996 14.13 49.1996 14.13C49.1996 14.13 57.2297 155.816 59.0828 161.385C60.9358 166.955 66.4951 167.573 66.4951 167.573H275.276L279.6 149.63H75.7605Z" fill="#333739"/>
<path opacity="0.3" d="M233.273 201.6V190.463H107.263V201.6H233.273Z" fill="#333739"/>
<path opacity="0.3" d="M182.622 190.464L185.71 167.572H130.736L127.029 190.464H182.622Z" fill="#333739"/>
<path opacity="0.6" d="M184.475 178.709L185.71 166.953H130.736L129.5 178.709H184.475Z" fill="#333739"/>
<path d="M279.6 162.616L271.57 11.6484C271.57 11.6484 271.57 2.9815 266.628 1.7489C261.686 0.51629 66.4951 1.74386 64.0243 1.7489C61.5535 1.75393 56.6119 4.21875 55.3766 7.9361C54.1412 11.6535 62.7889 154.568 64.0243 157.048C65.2597 159.528 67.7305 162.003 72.0543 162.616C76.3782 163.23 279.6 162.616 279.6 162.616Z" fill="#D5D6D7"/>
<path d="M265.224 142.665L257.511 22.0161C257.427 20.7128 256.346 19.6984 255.04 19.6984H76.4951C75.0848 19.6984 73.9594 20.8747 74.0218 22.2835L79.3619 142.932C79.4205 144.256 80.5105 145.299 81.8352 145.299H262.754C264.183 145.299 265.315 144.091 265.224 142.665Z" fill="white"/>
<path d="M84.8442 135.649L80.9005 32.9449C80.7928 30.1379 83.0392 27.8036 85.8483 27.8036H145.172C147.812 27.8036 149.987 29.8744 150.117 32.5108L155.188 135.215C155.327 138.042 153.073 140.411 150.242 140.411H89.7919C87.1312 140.411 84.9462 138.308 84.8442 135.649Z" fill="#CECED0"/>
<path opacity="0.3" d="M181.946 30.719C181.661 29.5499 182.547 28.423 183.75 28.423H247.994C248.794 28.423 249.503 28.9349 249.756 29.6936V29.6936C250.156 30.8957 249.261 32.1365 247.994 32.1365H183.75C182.894 32.1365 182.148 31.551 181.946 30.719V30.719Z" fill="#333739"/>
<path opacity="0.3" d="M183.181 39.3824C182.896 38.2133 183.782 37.0863 184.985 37.0863H249.229C250.029 37.0863 250.739 37.5982 250.991 38.357V38.357C251.391 39.5591 250.496 40.7998 249.229 40.7998H184.985C184.129 40.7998 183.384 40.2143 183.181 39.3824V39.3824Z" fill="#333739"/>
<path opacity="0.3" d="M184.417 48.0419C184.132 46.8728 185.018 45.7458 186.221 45.7458H250.465C251.265 45.7458 251.975 46.2578 252.227 47.0165V47.0165C252.627 48.2186 251.732 49.4594 250.465 49.4594H186.221C185.365 49.4594 184.62 48.8738 184.417 48.0419V48.0419Z" fill="#333739"/>
<path opacity="0.3" d="M185.652 55.467C185.367 54.2978 186.253 53.1709 187.456 53.1709H251.7C252.5 53.1709 253.209 53.6828 253.462 54.4415V54.4415C253.862 55.6437 252.967 56.8844 251.7 56.8844H187.456C186.6 56.8844 185.854 56.2989 185.652 55.467V55.467Z" fill="#333739"/>
<path opacity="0.3" d="M186.887 64.1288C186.603 62.9597 187.488 61.8328 188.691 61.8328H252.935C253.735 61.8328 254.445 62.3447 254.697 63.1034V63.1034C255.097 64.3055 254.202 65.5463 252.935 65.5463H188.691C187.835 65.5463 187.09 64.9608 186.887 64.1288V64.1288Z" fill="#333739"/>
<path opacity="0.3" d="M188.123 71.5553C187.838 70.3862 188.724 69.2593 189.927 69.2593H254.171C254.971 69.2593 255.681 69.7712 255.933 70.5299V70.5299C256.333 71.732 255.438 72.9728 254.171 72.9728H189.927C189.071 72.9728 188.326 72.3873 188.123 71.5553V71.5553Z" fill="#333739"/>
<path d="M128.962 62.1226C129.087 61.1341 129.18 60.1302 129.18 59.1109C129.18 58.0915 129.087 57.0876 128.962 56.0992L135.54 50.987C136.131 50.5236 136.302 49.6896 135.914 49.0101L129.693 38.3069C129.304 37.6428 128.496 37.3648 127.796 37.6428L120.052 40.7472C118.45 39.5271 116.693 38.4923 114.795 37.7046L113.629 29.5189C113.489 28.793 112.851 28.2216 112.074 28.2216H99.633C98.8555 28.2216 98.2179 28.793 98.0935 29.5189L96.9272 37.7046C95.0299 38.4923 93.2727 39.5116 91.6709 40.7472L83.9265 37.6428C83.2267 37.3802 82.4181 37.6428 82.0293 38.3069L75.8089 49.0101C75.4201 49.6742 75.5911 50.5082 76.1821 50.987L82.7446 56.0992C82.6202 57.0876 82.5269 58.0915 82.5269 59.1109C82.5269 60.1302 82.6202 61.1341 82.7446 62.1226L76.1821 67.2348C75.5911 67.6981 75.4201 68.5321 75.8089 69.2117L82.0293 79.9148C82.4181 80.579 83.2267 80.857 83.9265 80.579L91.6709 77.4746C93.2727 78.6947 95.0299 79.7295 96.9272 80.5172L98.0935 88.7029C98.2179 89.4288 98.8555 90.0002 99.633 90.0002H112.074C112.851 90.0002 113.489 89.4288 113.613 88.7029L114.78 80.5172C116.677 79.7295 118.434 78.7102 120.036 77.4746L127.78 80.579C128.48 80.8415 129.289 80.579 129.678 79.9148L135.898 69.2117C136.287 68.5476 136.116 67.7136 135.525 67.2348L128.962 62.1226V62.1226ZM105.853 69.9221C99.8352 69.9221 94.9677 65.088 94.9677 59.1109C94.9677 53.1338 99.8352 48.2996 105.853 48.2996C111.872 48.2996 116.739 53.1338 116.739 59.1109C116.739 65.088 111.872 69.9221 105.853 69.9221Z" fill="#FFAB00"/>
<path d="M130.618 55.3854L130.712 55.3123L137.289 50.2006C137.798 49.802 137.947 49.0828 137.61 48.493C137.61 48.4928 137.61 48.4926 137.61 48.4925L131.39 37.7911C131.39 37.7911 131.39 37.7911 131.39 37.791C131.053 37.2151 130.354 36.9765 129.751 37.2158L122.007 40.3199L121.897 40.3642L121.803 40.2922C120.214 39.0822 118.472 38.0567 116.593 37.2764L116.483 37.2306L116.466 37.1125L115.3 28.9321C115.176 28.3015 114.622 27.8094 113.952 27.8094H101.511C100.84 27.8094 100.287 28.3027 100.178 28.9299L99.0124 37.1125L98.9956 37.2306L98.8854 37.2764C97.0051 38.057 95.2638 39.0671 93.6767 40.2914L93.582 40.3645L93.4709 40.3199L85.7288 37.2165C85.1212 36.9896 84.423 37.219 84.0881 37.7908C84.088 37.7909 84.088 37.791 84.0879 37.7911L77.8678 48.4937L77.8675 48.4943C77.5334 49.065 77.6778 49.785 78.1903 50.2015L84.7512 55.3124L84.8452 55.3856L84.8303 55.5037C84.7064 56.4881 84.6142 57.4823 84.6142 58.4893C84.6142 59.4963 84.7064 60.4905 84.8303 61.4749L84.8452 61.593L84.7512 61.6662L78.1892 66.778C77.6808 67.1766 77.5311 67.8957 77.8682 68.4855C77.8683 68.4857 77.8684 68.4859 77.8685 68.4861L84.0879 79.1875C84.0879 79.1875 84.0879 79.1875 84.0879 79.1875C84.4251 79.7634 85.1244 80.002 85.7268 79.7629C85.7269 79.7629 85.727 79.7628 85.7271 79.7628L93.4709 76.6587L93.5812 76.6144L93.6757 76.6864C95.2642 77.8964 97.0059 78.9219 98.8854 79.7022L98.9956 79.748L99.0124 79.8661L100.178 88.0487C100.287 88.6759 100.84 89.1692 101.511 89.1692H113.952C114.623 89.1692 115.176 88.6759 115.285 88.0487L116.45 79.8661L116.467 79.748L116.577 79.7022C118.458 78.9216 120.199 77.9115 121.786 76.6872L121.881 76.6141L121.992 76.6587L129.732 79.7613C129.733 79.7616 129.733 79.7619 129.734 79.7621C130.341 79.9889 131.04 79.7597 131.375 79.1881L130.618 55.3854ZM130.618 55.3854L130.632 55.5037C130.756 56.4881 130.849 57.4823 130.849 58.4893C130.849 59.4963 130.756 60.4905 130.632 61.4749L130.618 61.593L130.712 61.6662L137.271 66.7759C137.271 66.7763 137.272 66.7767 137.272 66.7771C137.785 67.1935 137.929 67.9136 137.595 68.4843L137.595 68.4849L131.375 79.1875L130.618 55.3854ZM96.6363 58.4893C96.6363 64.5834 101.599 69.5099 107.731 69.5099C113.864 69.5099 118.826 64.5834 118.826 58.4893C118.826 52.3952 113.864 47.4687 107.731 47.4687C101.599 47.4687 96.6363 52.3952 96.6363 58.4893Z" stroke="#333739" stroke-width="0.418771"/>
<path d="M89.6817 168.509L104.813 206.832H70.3994L85.1853 168.538C86.0732 166.233 88.7769 166.218 89.6817 168.509Z" fill="#FFAB00"/>
<path d="M83.7087 172.359H91.1997L94.4454 180.577H80.5347L83.7087 172.359Z" fill="white"/>
<path d="M77.5336 188.348H97.516L100.146 195.009H74.9648L77.5336 188.348Z" fill="white"/>
<path d="M73.0267 200.008L70.8081 205.778L104.385 205.738L102.082 199.917L73.0267 200.008Z" fill="white"/>
<path d="M105.197 206.832H70.0027C69.1175 206.832 68.3999 207.541 68.3999 208.416C68.3999 209.291 69.1175 210 70.0027 210H105.197C106.082 210 106.8 209.291 106.8 208.416C106.8 207.541 106.082 206.832 105.197 206.832Z" fill="#FFAB00"/>
<path d="M100.198 87.7579V89.3262L99.6943 92.7096V90.9191L100.702 89.6349L99.6943 88.0049L100.198 87.7579Z" fill="white"/>
<path d="M51.4551 41.7591V37.215C51.4551 37.215 54.7687 36.7704 55.5242 36.0666C56.1472 35.4862 57.2606 32.8931 57.6715 31.9176C57.7643 31.6953 57.8173 31.5595 57.8173 31.5595L58.321 25.8669V22.1501C58.321 22.1501 57.8173 20.6436 57.3004 19.6928C56.7967 18.742 56.2798 17.7912 55.2592 16.8403C54.2386 15.8895 52.7143 15.4203 52.7143 15.4203C52.7143 15.4203 50.6731 14.4695 49.1488 14.4695C47.6245 14.4695 47.6245 14.4695 46.087 14.9387C44.5627 15.4079 43.0252 16.3588 43.0252 16.3588C43.0252 16.3588 42.0046 16.828 41.5009 17.3096C40.9973 17.7788 39.9767 19.2112 39.4597 20.162C38.9561 21.1128 38.9561 22.0637 38.9561 22.5329C38.9561 23.0021 38.9561 24.9531 38.9561 25.6446C38.9561 26.3362 39.9767 28.707 40.4803 29.6578C40.984 30.6086 41.1033 31.2508 41.5009 32.0287C41.9781 32.9919 42.5215 33.9303 42.5215 33.9303C42.5215 33.9303 43.0252 34.8811 43.0252 35.3504C43.0252 35.8196 43.0252 39.1413 43.0252 39.1413V41.0429V42.463H51.4949L51.4551 41.7591Z" fill="#FFDDC5"/>
<path d="M49.2213 34.1775L42.5941 34.3009L40.0492 28.1268C40.0492 28.1268 37.7561 23.1381 37.5043 21.9527C37.2525 20.7673 37.2525 20.0511 37.5043 18.5075C37.7561 16.964 38.5249 16.2478 38.5249 16.2478C38.5249 16.2478 39.7973 15.0624 41.5867 14.3462C43.3761 13.63 43.3761 13.63 44.1316 13.3954C44.8871 13.1607 47.6971 12.9261 47.6971 12.9261H51.3686H54.1123L55.5835 12.6915L56.3523 12.4569L56.856 12L57.3596 12.4692L57.8633 13.42L58.367 14.3709C58.367 14.3709 58.8707 15.3587 58.8707 15.3464C58.8707 15.3217 58.8707 16.964 58.8707 16.964C58.8707 16.964 58.6188 17.4703 58.367 18.1741C58.1151 18.8903 57.0945 18.8903 56.8427 19.1249C56.5909 19.3596 55.3184 19.5942 55.3184 19.5942L53.7942 20.0634H53.2905V21.0142L54.0592 21.7304L54.5894 22.3849L55.0798 23.1505L54.828 24.8175V25.2867C54.828 25.2867 52.5747 23.1505 52.0446 23.1505C51.5144 23.1505 51.0107 23.6197 50.7456 23.8667C50.4805 24.1136 49.9768 25.0521 50.2419 25.7683C50.4938 26.4845 51.3686 27.9045 51.3686 27.9045L51.7662 28.6207L49.2213 34.3133" fill="#333739"/>
<path d="M56.4584 42.3759L41.1494 42.1413V40.2767C41.1494 40.2767 53.0918 40.2767 53.1448 40.2767C53.1978 40.2767 56.0475 41.2152 56.6307 42.3759" fill="#FF6666"/>
<path d="M56.4584 42.3759L41.1494 42.1413V40.2767C41.1494 40.2767 53.0918 40.2767 53.1448 40.2767C53.1978 40.2767 56.0475 41.2152 56.6307 42.3759" stroke="#FF6666" stroke-width="0.512142" stroke-miterlimit="10"/>
<path d="M32.7533 81.1499L64.1399 82.1326V119.674C64.1399 119.674 56.8642 199.374 58.8381 202.163H46.909C47.0528 138.899 45.891 131.97 45.891 131.97L45.8517 129.87L45.8256 128.641L45.3288 101.677L45.8256 117.954L31.9689 202.163H20.3999C27.0145 161.686 32.7533 81.1499 32.7533 81.1499Z" fill="#333739"/>
<path d="M44.2905 51.9837C44.2905 51.9837 54.1254 53.6507 55.6232 53.4655C57.1209 53.2926 58.3934 53.1321 59.4935 53.0086C60.6069 52.8728 80.9394 46.2294 80.9394 46.2294L83.577 45.9207L85.3001 44.7723L89.0909 42.9077L87.2751 36.9929L83.418 38.3883L80.6213 41.7717C80.6213 41.7717 59.6526 45.9207 57.6644 46.1553C55.6762 46.3899 46.7691 44.1426 46.7691 44.1426L44.2905 51.9837Z" fill="#FFDDC5"/>
<path d="M98.8728 84.9168C99.3765 85.386 104.4 87.2506 104.4 87.2506L102.399 92.3998L98.8861 91.7824C98.8861 91.7824 93.3589 90.5229 94.3663 90.9921C95.3736 91.4614 92.3648 89.5844 92.3648 89.5844C92.3648 89.5844 76.804 82.1014 74.8025 80.6937C72.8011 79.286 66.2666 67.1353 66.2666 67.1353L73.7952 63.863C73.7952 63.863 82.3311 77.8906 81.8275 77.4214C81.3238 76.9522 93.3722 84.9045 94.8832 84.9045C96.3942 84.9045 98.3691 84.4476 98.8728 84.9168Z" fill="#FFDDC5"/>
<path d="M28.6763 107.119C50.5728 111.231 66.3192 108.057 66.3192 108.057C67.3266 93.0912 65.577 68.7898 65.577 68.7898L65.8288 69.4937L75.3721 64.8137L70.6004 51.6628C70.6004 51.6628 68.8376 47.5014 67.8435 46.1061C66.8361 44.6984 63.8274 43.303 62.3163 42.8338C60.8053 42.3646 55.7951 42.3646 55.7951 42.3646C55.7951 42.3646 46.106 42.3646 41.2946 42.0806" fill="#FF6666"/>
<path d="M66.0413 69.6172L61.5215 63.0603L64.0399 67.2711L66.0413 69.6172Z" fill="#FF6666"/>
<path d="M28.0405 107.526H39.9696L41.2951 42.0806L38.5514 42.5992C36.2451 43.0314 34.5088 44.8589 34.2834 47.0816L28.0405 107.526Z" fill="#FF6666"/>
<path d="M25.2933 209.855L21.6267 209.815C21.6135 209.815 21.6004 209.815 21.5996 209.804L21.4256 202.382C21.4248 202.371 21.4371 202.361 21.4503 202.361L29.5703 202.424C29.5834 202.424 29.5834 202.424 29.5834 202.424C29.6982 202.555 33.7489 207.03 41.3605 208.373C42.4517 208.565 43.2482 209.208 43.2644 209.952C43.2652 209.963 43.2529 209.973 43.2398 209.973L28 209.876" fill="#333739"/>
<path d="M21.4745 202.16L29.5465 202.223L31.595 204.172C31.595 204.172 29.5531 205.624 26.945 205.603C24.3369 205.583 21.5122 204.583 21.5122 204.583L21.4502 202.183L21.4745 202.16Z" fill="#FFDDC5"/>
<path d="M52.4847 209.859L48.8181 209.82C48.8049 209.82 48.7918 209.82 48.791 209.809L48.617 202.387C48.6162 202.376 48.6285 202.366 48.6417 202.366L56.7617 202.429C56.7748 202.429 56.7748 202.429 56.7748 202.429C56.8896 202.56 60.9403 207.035 68.5519 208.378C69.6431 208.57 70.4396 209.213 70.4558 209.957C70.4566 209.968 70.4443 209.978 70.4312 209.978L55.1914 209.881" fill="#333739"/>
<path d="M48.6659 202.164L56.7379 202.228L58.7864 204.177C58.7864 204.177 56.7445 205.628 54.1364 205.608C51.5283 205.587 48.7036 204.587 48.7036 204.587L48.6416 202.188L48.6659 202.164Z" fill="#FFDDC5"/>
<path fill-rule="evenodd" clip-rule="evenodd" d="M249.911 183.271C243.652 184.235 239.748 174.777 237.549 170.443C236.294 167.97 234.999 165.388 233.202 163.271C229.45 158.858 224.517 157.982 223.862 159.779C223.313 161.284 225.322 161.205 227.369 163.203C228.502 164.309 229.719 166.028 230.038 168.597C231.21 178.019 230.883 181.022 234.621 188.004C235.51 189.662 236.49 191.349 237.832 192.68C244.272 199.069 250.511 190.539 249.911 183.271" fill="#EF383D"/>
<mask id="mask0_8423_9675" style="mask-type:luminance" maskUnits="userSpaceOnUse" x="223" y="158" width="27" height="37">
<path fill-rule="evenodd" clip-rule="evenodd" d="M233.201 163.272C234.999 165.389 236.294 167.97 237.549 170.444V170.444C239.747 174.779 243.652 184.236 249.911 183.271V183.271C250.512 190.54 244.272 199.071 237.832 192.681V192.681C236.489 191.349 235.508 189.664 234.621 188.004V188.004C230.884 181.023 231.209 178.02 230.038 168.598V168.598C229.718 166.029 228.502 164.309 227.368 163.203V163.203C225.323 161.205 223.313 161.285 223.862 159.781V159.781C224.072 159.206 224.718 158.903 225.623 158.903V158.903C227.549 158.904 230.65 160.269 233.201 163.272" fill="white"/>
</mask>
<g mask="url(#mask0_8423_9675)">
<path fill-rule="evenodd" clip-rule="evenodd" d="M221.481 159.167C228.009 159.302 232.351 165.451 233.728 171.328C234.423 174.294 234.553 177.364 235.28 180.33C236.618 185.797 239.176 191.07 242.957 195.23C227.232 192.485 231.846 181.928 227.082 170.584C226.423 169.012 225.606 167.539 224.691 166.106C223.525 164.282 220.76 161.678 221.481 159.167" fill="#BC2025"/>
</g>
<mask id="mask1_8423_9675" style="mask-type:luminance" maskUnits="userSpaceOnUse" x="223" y="158" width="27" height="37">
<path fill-rule="evenodd" clip-rule="evenodd" d="M233.201 163.272C234.999 165.389 236.294 167.97 237.549 170.444V170.444C239.747 174.779 243.652 184.236 249.911 183.271V183.271C250.512 190.54 244.272 199.071 237.832 192.681V192.681C236.489 191.349 235.508 189.664 234.621 188.004V188.004C230.884 181.023 231.209 178.02 230.038 168.598V168.598C229.718 166.029 228.502 164.309 227.368 163.203V163.203C225.323 161.205 223.313 161.285 223.862 159.781V159.781C224.072 159.206 224.718 158.903 225.623 158.903V158.903C227.549 158.904 230.65 160.269 233.201 163.272" fill="white"/>
</mask>
<g mask="url(#mask1_8423_9675)">
<path fill-rule="evenodd" clip-rule="evenodd" d="M241.544 179.946C238.89 177.16 237.65 173.401 236.05 169.981C233.418 164.354 231.006 160.313 225.108 158.385C228.028 158.043 230.338 159.524 232.406 161.468C235.962 164.809 238.381 169.004 240.774 173.219C241.536 174.562 243.529 177.877 243.741 179.373C243.235 179.255 242.049 179.844 241.544 179.946" fill="#F48EAA"/>
</g>
<path fill-rule="evenodd" clip-rule="evenodd" d="M249.871 183.028C249.944 183.017 250.019 183.036 250.076 183.078C250.135 183.12 250.172 183.183 250.177 183.25H250.154C250.515 187.626 248.439 192.443 245.337 194.334C243.134 195.678 240.412 195.59 237.658 192.858C237.111 192.316 236.622 191.715 236.174 191.081C235.511 190.141 234.94 189.128 234.402 188.124C232.823 185.175 231.964 182.93 231.41 180.619C230.647 177.43 230.469 174.116 229.786 168.629C229.648 167.523 229.34 166.58 228.942 165.779C228.444 164.77 227.805 163.988 227.191 163.389C226.345 162.564 225.505 162.102 224.858 161.733C224.373 161.455 223.992 161.218 223.768 160.941C223.506 160.616 223.42 160.236 223.621 159.687C223.793 159.217 224.203 158.886 224.803 158.735C225.585 158.538 226.712 158.653 227.982 159.129C229.69 159.77 231.668 161.064 233.398 163.101C234.128 163.959 234.777 164.894 235.373 165.866C236.257 167.307 237.027 168.835 237.783 170.322C239.069 172.857 240.94 177.158 243.533 180.071C245.293 182.047 247.385 183.387 249.871 183.004V183.028ZM249.689 183.572C249.925 187.683 247.985 192.139 245.083 193.909C243.049 195.147 240.545 195.022 238.005 192.5C237.478 191.979 237.008 191.399 236.578 190.789C235.927 189.865 235.367 188.87 234.84 187.883C233.287 184.981 232.441 182.773 231.898 180.498C231.141 177.325 230.968 174.026 230.29 168.566C230.145 167.394 229.819 166.396 229.399 165.547C228.871 164.48 228.195 163.65 227.546 163.016C226.663 162.153 225.786 161.667 225.111 161.28C224.695 161.041 224.358 160.85 224.166 160.611C224.011 160.419 223.986 160.192 224.103 159.869C224.221 159.547 224.518 159.344 224.927 159.241C225.634 159.064 226.653 159.187 227.801 159.62C229.443 160.236 231.341 161.487 233.003 163.443C233.715 164.282 234.347 165.195 234.928 166.143C235.804 167.575 236.567 169.089 237.314 170.565C238.616 173.132 240.515 177.48 243.138 180.431C244.961 182.482 247.137 183.855 249.689 183.572V183.572Z" fill="#333739"/>
<path fill-rule="evenodd" clip-rule="evenodd" d="M235.841 187.439C233.755 184.017 231.147 180.204 227.138 178.987C222.538 177.591 217.874 180.315 218.613 185.263C219.572 191.68 228.906 191.013 227.88 185.441C231.407 191.054 233.765 197.481 233.494 204.229C239.52 201.654 242.415 197.134 238.737 191.055C238.01 189.851 236.877 188.401 235.841 187.439" fill="#EF383D"/>
<mask id="mask2_8423_9675" style="mask-type:luminance" maskUnits="userSpaceOnUse" x="218" y="178" width="23" height="27">
<path fill-rule="evenodd" clip-rule="evenodd" d="M224.725 178.624C225.51 178.624 226.325 178.742 227.138 178.988V178.988C231.147 180.204 233.754 184.017 235.841 187.44V187.44C236.877 188.402 238.009 189.852 238.736 191.056V191.056C242.415 197.135 239.519 201.655 233.494 204.229V204.229C233.764 197.482 231.407 191.055 227.879 185.441V185.441C228.906 191.014 219.572 191.681 218.613 185.263V185.263C218.004 181.19 221.058 178.624 224.722 178.624V178.624C224.723 178.624 224.723 178.624 224.725 178.624" fill="white"/>
</mask>
<g mask="url(#mask2_8423_9675)">
<path fill-rule="evenodd" clip-rule="evenodd" d="M227.81 186.841C225.467 188.923 221.607 187.99 220.59 184.989C220.097 183.535 220.082 182.042 220.753 180.639C220.983 180.157 221.293 179.691 221.625 179.274C221.744 179.124 221.866 178.978 221.99 178.833C222.048 178.763 222.256 178.639 222.167 178.622C220.769 178.348 218.888 180.319 218.313 181.398C216.201 185.363 218.739 191.789 223.119 192.908C226.14 193.68 228.422 190.018 227.81 186.841" fill="#BC2025"/>
</g>
<mask id="mask3_8423_9675" style="mask-type:luminance" maskUnits="userSpaceOnUse" x="218" y="178" width="23" height="27">
<path fill-rule="evenodd" clip-rule="evenodd" d="M224.725 178.624C225.51 178.624 226.325 178.742 227.138 178.988V178.988C231.147 180.204 233.754 184.017 235.841 187.44V187.44C236.877 188.402 238.009 189.852 238.736 191.056V191.056C242.415 197.135 239.519 201.655 233.494 204.229V204.229C233.764 197.482 231.407 191.055 227.879 185.441V185.441C228.906 191.014 219.572 191.681 218.613 185.263V185.263C218.004 181.19 221.058 178.624 224.722 178.624V178.624C224.723 178.624 224.723 178.624 224.725 178.624" fill="white"/>
</mask>
<g mask="url(#mask3_8423_9675)">
<path fill-rule="evenodd" clip-rule="evenodd" d="M236.743 194.479C236.433 192.545 235.854 190.669 235.132 188.855C233.555 184.891 231.702 181.97 227.88 179.982C226.061 179.036 224.044 178.628 221.984 179.149C223.884 177.925 226.637 178.53 228.547 179.543C231.928 181.336 234.72 184.538 236.198 188.092C236.706 189.319 237.58 193.078 236.743 194.479" fill="#F48EAA"/>
</g>
<mask id="mask4_8423_9675" style="mask-type:luminance" maskUnits="userSpaceOnUse" x="218" y="178" width="23" height="27">
<path fill-rule="evenodd" clip-rule="evenodd" d="M224.725 178.624C225.51 178.624 226.325 178.742 227.138 178.988V178.988C231.147 180.204 233.754 184.017 235.841 187.44V187.44C236.877 188.402 238.009 189.852 238.736 191.056V191.056C242.415 197.135 239.519 201.655 233.494 204.229V204.229C233.764 197.482 231.407 191.055 227.879 185.441V185.441C228.906 191.014 219.572 191.681 218.613 185.263V185.263C218.004 181.19 221.058 178.624 224.722 178.624V178.624C224.723 178.624 224.723 178.624 224.725 178.624" fill="white"/>
</mask>
<g mask="url(#mask4_8423_9675)">
<path fill-rule="evenodd" clip-rule="evenodd" d="M235.348 198.383C235.356 197.002 235.185 195.64 234.922 194.285C234.106 190.077 231.375 183.56 226.729 182.422C225.681 182.166 224.629 182.204 223.687 182.782C226.574 181.538 228.286 184.803 228.32 187.233C228.368 190.564 230.174 193.651 230.966 196.887C231.143 197.609 231.265 199.638 231.637 200.255C232.717 202.05 235.04 200.018 235.348 198.383" fill="#BC2025"/>
</g>
<path fill-rule="evenodd" clip-rule="evenodd" d="M228.21 186.469C229.721 189 230.986 191.688 231.872 194.489C232.86 197.611 233.378 200.875 233.245 204.22C233.24 204.305 233.282 204.387 233.351 204.436C233.422 204.486 233.512 204.496 233.59 204.46C236.645 203.155 238.904 201.349 239.954 199.113C241.027 196.826 240.854 194.079 238.945 190.927C238.575 190.316 238.103 189.643 237.591 189C237.08 188.358 236.53 187.747 236.004 187.26L236.067 187.298C234.807 185.229 233.354 183.021 231.524 181.317C230.28 180.16 228.862 179.233 227.214 178.732C224.885 178.026 222.543 178.346 220.845 179.449C219.047 180.616 217.96 182.654 218.357 185.302C218.825 188.435 221.198 189.957 223.491 190.1C225.125 190.202 226.715 189.596 227.567 188.392C227.939 187.864 228.175 187.222 228.21 186.469M233.755 203.838C233.838 200.574 233.316 197.387 232.351 194.332C231.35 191.16 229.869 188.128 228.095 185.301C228.028 185.198 227.898 185.155 227.785 185.2C227.671 185.245 227.605 185.366 227.628 185.487C227.825 186.554 227.618 187.428 227.15 188.089C226.394 189.158 224.972 189.67 223.521 189.578C221.443 189.447 219.292 188.065 218.87 185.223C218.51 182.814 219.491 180.954 221.127 179.894C222.709 178.868 224.893 178.584 227.061 179.243C228.631 179.719 229.98 180.608 231.165 181.712C232.958 183.383 234.377 185.552 235.612 187.581H235.634C235.645 187.602 235.66 187.622 235.676 187.638V187.621C236.184 188.094 236.716 188.686 237.212 189.309C237.71 189.933 238.168 190.589 238.528 191.184C240.325 194.156 240.521 196.743 239.508 198.898C238.543 200.951 236.5 202.606 233.755 203.838" fill="#333739"/>
<path fill-rule="evenodd" clip-rule="evenodd" d="M265.169 183.053C266.947 189.096 280.418 190.545 283.982 179.921C285.258 176.119 285.898 172.251 288.188 168.901C289.753 166.608 292.007 164.603 294.716 163.872C295.373 163.693 296.975 163.294 297.526 163.986C298.156 164.779 296.603 165.774 296.094 166.213C292.513 169.298 292.12 173.712 291.381 185.146C290.871 193.042 287.546 194.399 282.141 195.962C268.942 199.78 261.702 185.439 265.169 183.053" fill="#EF383D"/>
<mask id="mask5_8423_9675" style="mask-type:luminance" maskUnits="userSpaceOnUse" x="264" y="163" width="34" height="34">
<path fill-rule="evenodd" clip-rule="evenodd" d="M297.525 163.986C298.155 164.779 296.602 165.773 296.093 166.212V166.212C292.513 169.297 292.12 173.711 291.381 185.146V185.146C290.87 193.041 287.545 194.399 282.141 195.962V195.962C268.941 199.779 261.702 185.439 265.168 183.052V183.052C266.946 189.096 280.417 190.546 283.982 179.921V179.921C285.258 176.12 285.897 172.251 288.187 168.9V168.9C289.752 166.607 292.006 164.602 294.715 163.871V163.871C295.092 163.77 295.779 163.594 296.402 163.594V163.594C296.864 163.594 297.29 163.691 297.525 163.986" fill="white"/>
</mask>
<g mask="url(#mask5_8423_9675)">
<path fill-rule="evenodd" clip-rule="evenodd" d="M265.168 183.052C266.919 190.527 278.222 191.235 282.186 184.085C283.465 181.78 284.474 178.975 285.077 174.559C285.753 169.618 291.675 163.549 293.787 162.55C298.329 160.406 290.529 163.594 288.977 172.229C287.339 181.338 287.018 190.068 279.188 192.849C270.945 195.774 263.288 200.2 259.836 191.662C263.596 179.246 260.502 178.504 265.168 183.052" fill="#BC2025"/>
</g>
<mask id="mask6_8423_9675" style="mask-type:luminance" maskUnits="userSpaceOnUse" x="264" y="163" width="34" height="34">
<path fill-rule="evenodd" clip-rule="evenodd" d="M297.525 163.986C298.155 164.779 296.602 165.773 296.093 166.212V166.212C292.513 169.297 292.12 173.711 291.381 185.146V185.146C290.87 193.041 287.545 194.399 282.141 195.962V195.962C268.941 199.779 261.702 185.439 265.168 183.052V183.052C266.946 189.096 280.417 190.546 283.982 179.921V179.921C285.258 176.12 285.897 172.251 288.187 168.9V168.9C289.752 166.607 292.006 164.602 294.715 163.871V163.871C295.092 163.77 295.779 163.594 296.402 163.594V163.594C296.864 163.594 297.29 163.691 297.525 163.986" fill="white"/>
</mask>
<g mask="url(#mask6_8423_9675)">
<path fill-rule="evenodd" clip-rule="evenodd" d="M299.868 164.657C290.162 169.051 293.595 180.787 291.312 191.407C290.44 195.468 287.124 202.054 283.114 200.017C284.398 198.522 284.404 195.689 286.221 194.526C289.708 192.297 290.094 185.063 289.987 180.099C289.855 174.018 292.069 163.593 299.868 164.657" fill="#F48EAA"/>
</g>
<path fill-rule="evenodd" clip-rule="evenodd" d="M265.169 183.053C266.947 189.096 280.418 190.545 283.982 179.921C285.258 176.119 285.898 172.251 288.188 168.901C289.753 166.608 292.007 164.603 294.716 163.872C295.373 163.693 296.975 163.294 297.526 163.986C298.156 164.779 296.603 165.774 296.094 166.213C292.513 169.298 292.12 173.712 291.381 185.146C290.871 193.042 287.546 194.399 282.141 195.962C268.942 199.78 261.702 185.439 265.169 183.053Z" stroke="#333739" stroke-width="0.337648" stroke-linecap="round" stroke-linejoin="round"/>
<path fill-rule="evenodd" clip-rule="evenodd" d="M247.262 138.611C238.632 138.27 233.406 140.779 235.648 144.48C235.914 144.918 236.219 145.285 236.529 145.588C238.376 147.39 240.364 147.61 242.37 147.907C243.759 145.269 246.032 141.532 247.262 138.611" fill="#9FA0A0"/>
<path fill-rule="evenodd" clip-rule="evenodd" d="M247.262 138.611C238.632 138.27 233.406 140.779 235.648 144.48C235.914 144.918 236.219 145.285 236.529 145.588C238.376 147.39 240.364 147.61 242.37 147.907C243.759 145.269 246.032 141.532 247.262 138.611Z" stroke="#333739" stroke-width="0.337648" stroke-linecap="round" stroke-linejoin="round"/>
<path fill-rule="evenodd" clip-rule="evenodd" d="M244.66 180.561C242.913 180.299 237.458 178.729 236.128 179.901C232.299 183.284 235.446 190.309 237.162 193.829C234.607 199.037 226.9 199.752 227.131 206.748C227.352 213.445 235.01 215.432 240.275 213.035C243.644 211.502 244.871 208.193 245.94 204.871C247.88 204.107 250.055 203.877 252.101 203.619C254.583 221.839 278.927 217.197 274.17 203.667C276.001 203.73 277.714 203.051 282.481 201.615C284.13 201.117 286.24 200.82 288.486 201.077C287.433 203.642 288.716 207.242 292.261 207.723C296.985 208.363 300.889 202.687 297.553 198.039C294.039 193.139 288.835 192.216 286.168 192.247C280.911 192.307 275.026 194.238 270.029 191.616C267.8 190.447 265.985 188.516 265.826 185.98C265.333 178.102 281.07 176.959 284.852 159.626C288.592 142.481 277.605 130.842 265.809 129.144C253.478 127.37 238.128 133.307 237.284 153.747C236.627 169.699 244.275 172.181 244.66 180.561" fill="#EF383D"/>
<mask id="mask7_8423_9675" style="mask-type:luminance" maskUnits="userSpaceOnUse" x="227" y="128" width="72" height="88">
<path fill-rule="evenodd" clip-rule="evenodd" d="M265.809 129.145C277.606 130.841 288.592 142.48 284.852 159.626V159.626C281.07 176.959 265.333 178.102 265.826 185.98V185.98C265.985 188.517 267.8 190.448 270.029 191.616V191.616C275.027 194.237 280.912 192.306 286.168 192.246V192.246C288.835 192.216 294.039 193.139 297.553 198.038V198.038C300.889 202.687 296.985 208.364 292.261 207.723V207.723C288.716 207.242 287.433 203.642 288.486 201.078V201.078C286.24 200.819 284.13 201.117 282.481 201.614V201.614C277.714 203.052 276.002 203.73 274.17 203.668V203.668C278.928 217.198 254.583 221.84 252.101 203.618V203.618C250.055 203.878 247.881 204.108 245.94 204.873V204.873C244.871 208.192 243.644 211.502 240.276 213.035V213.035C235.01 215.433 227.353 213.445 227.131 206.748V206.748C226.9 199.753 234.607 199.037 237.162 193.829V193.829C235.446 190.309 232.299 183.283 236.128 179.901V179.901C237.458 178.729 242.913 180.298 244.66 180.561V180.561C244.275 172.181 236.626 169.698 237.285 153.748V153.748C238.035 135.55 250.282 128.848 261.663 128.848V128.848C263.066 128.848 264.456 128.95 265.809 129.145" fill="white"/>
</mask>
<g mask="url(#mask7_8423_9675)">
<path fill-rule="evenodd" clip-rule="evenodd" d="M275.816 147.019C265.617 151.702 255.565 142.792 249.082 142.956C242.902 148.456 242.984 154.252 244.041 161.296C243.392 162.955 242.524 163.459 242.235 163.87C242.492 164.571 244.391 164.869 244.719 165.589C246.659 169.828 248.207 175.359 248.207 179.165C248.207 182.199 248.31 184.771 249.022 187.711C249.758 190.744 254.322 201.869 252.12 204.834C251.194 206.083 245.494 207.312 246.002 204.858C247.078 199.668 242.031 196.369 242.056 198.738C242.174 210.21 235.233 217.387 228.267 211.696C226.427 210.194 225.336 209.227 224.973 206.804C223.972 200.085 231.888 200.255 232.44 193.599C232.741 189.965 231.59 186.502 231.699 182.908C231.802 179.55 233.364 176.527 233.125 173.106C232.615 165.749 230.076 158.058 232.124 150.714C233.313 146.446 236.128 143.334 238.234 139.597C238.228 139.599 238.219 139.6 238.212 139.602C247.766 130.047 266.756 140.33 275.816 147.019" fill="#BC2025"/>
</g>
<mask id="mask8_8423_9675" style="mask-type:luminance" maskUnits="userSpaceOnUse" x="227" y="128" width="72" height="88">
<path fill-rule="evenodd" clip-rule="evenodd" d="M265.809 129.145C277.606 130.841 288.592 142.48 284.852 159.626V159.626C281.07 176.959 265.333 178.102 265.826 185.98V185.98C265.985 188.517 267.8 190.448 270.029 191.616V191.616C275.027 194.237 280.912 192.306 286.168 192.246V192.246C288.835 192.216 294.039 193.139 297.553 198.038V198.038C300.889 202.687 296.985 208.364 292.261 207.723V207.723C288.716 207.242 287.433 203.642 288.486 201.078V201.078C286.24 200.819 284.13 201.117 282.481 201.614V201.614C277.714 203.052 276.002 203.73 274.17 203.668V203.668C278.928 217.198 254.583 221.84 252.101 203.618V203.618C250.055 203.878 247.881 204.108 245.94 204.873V204.873C244.871 208.192 243.644 211.502 240.276 213.035V213.035C235.01 215.433 227.353 213.445 227.131 206.748V206.748C226.9 199.753 234.607 199.037 237.162 193.829V193.829C235.446 190.309 232.299 183.283 236.128 179.901V179.901C237.458 178.729 242.913 180.298 244.66 180.561V180.561C244.275 172.181 236.626 169.698 237.285 153.748V153.748C238.035 135.55 250.282 128.848 261.663 128.848V128.848C263.066 128.848 264.456 128.95 265.809 129.145" fill="white"/>
</mask>
<g mask="url(#mask8_8423_9675)">
<path fill-rule="evenodd" clip-rule="evenodd" d="M290.426 199.168C289.104 201.534 290.363 204.943 292.903 205.605C297.272 206.746 299.361 202.23 299.411 202.746C299.66 205.262 298.04 207.401 295.875 208.454C292.249 210.218 287.41 208.806 285.732 204.974C284.207 201.495 286.827 198.984 290.426 199.168" fill="#BC2025"/>
</g>
<mask id="mask9_8423_9675" style="mask-type:luminance" maskUnits="userSpaceOnUse" x="227" y="128" width="72" height="88">
<path fill-rule="evenodd" clip-rule="evenodd" d="M265.809 129.145C277.606 130.841 288.592 142.48 284.852 159.626V159.626C281.07 176.959 265.333 178.102 265.826 185.98V185.98C265.985 188.517 267.8 190.448 270.029 191.616V191.616C275.027 194.237 280.912 192.306 286.168 192.246V192.246C288.835 192.216 294.039 193.139 297.553 198.038V198.038C300.889 202.687 296.985 208.364 292.261 207.723V207.723C288.716 207.242 287.433 203.642 288.486 201.078V201.078C286.24 200.819 284.13 201.117 282.481 201.614V201.614C277.714 203.052 276.002 203.73 274.17 203.668V203.668C278.928 217.198 254.583 221.84 252.101 203.618V203.618C250.055 203.878 247.881 204.108 245.94 204.873V204.873C244.871 208.192 243.644 211.502 240.276 213.035V213.035C235.01 215.433 227.353 213.445 227.131 206.748V206.748C226.9 199.753 234.607 199.037 237.162 193.829V193.829C235.446 190.309 232.299 183.283 236.128 179.901V179.901C237.458 178.729 242.913 180.298 244.66 180.561V180.561C244.275 172.181 236.626 169.698 237.285 153.748V153.748C238.035 135.55 250.282 128.848 261.663 128.848V128.848C263.066 128.848 264.456 128.95 265.809 129.145" fill="white"/>
</mask>
<g mask="url(#mask9_8423_9675)">
<path fill-rule="evenodd" clip-rule="evenodd" d="M292.086 199.75C287.138 197.3 282.953 198.096 277.734 198.7C275.831 198.92 273.896 199.175 271.999 198.759C269.691 198.252 268.078 196.263 266.284 194.856C269.494 197.862 273.002 200.67 274.774 204.848C277.37 203.663 284.919 202.89 288.002 202.999C287.799 201.505 290.193 198.994 292.086 199.75" fill="#BC2025"/>
</g>
<mask id="mask10_8423_9675" style="mask-type:luminance" maskUnits="userSpaceOnUse" x="227" y="128" width="72" height="88">
<path fill-rule="evenodd" clip-rule="evenodd" d="M265.809 129.145C277.606 130.841 288.592 142.48 284.852 159.626V159.626C281.07 176.959 265.333 178.102 265.826 185.98V185.98C265.985 188.517 267.8 190.448 270.029 191.616V191.616C275.027 194.237 280.912 192.306 286.168 192.246V192.246C288.835 192.216 294.039 193.139 297.553 198.038V198.038C300.889 202.687 296.985 208.364 292.261 207.723V207.723C288.716 207.242 287.433 203.642 288.486 201.078V201.078C286.24 200.819 284.13 201.117 282.481 201.614V201.614C277.714 203.052 276.002 203.73 274.17 203.668V203.668C278.928 217.198 254.583 221.84 252.101 203.618V203.618C250.055 203.878 247.881 204.108 245.94 204.873V204.873C244.871 208.192 243.644 211.502 240.276 213.035V213.035C235.01 215.433 227.353 213.445 227.131 206.748V206.748C226.9 199.753 234.607 199.037 237.162 193.829V193.829C235.446 190.309 232.299 183.283 236.128 179.901V179.901C237.458 178.729 242.913 180.298 244.66 180.561V180.561C244.275 172.181 236.626 169.698 237.285 153.748V153.748C238.035 135.55 250.282 128.848 261.663 128.848V128.848C263.066 128.848 264.456 128.95 265.809 129.145" fill="white"/>
</mask>
<g mask="url(#mask10_8423_9675)">
<path fill-rule="evenodd" clip-rule="evenodd" d="M266.802 183.881C267.552 180.77 272.981 178.843 275.38 175.082C270.927 176.915 268.589 178.169 266.299 180.903C262.649 185.261 264.953 190.476 269.593 192.926C273.39 194.93 278.021 194.8 282.107 193.96C285.128 193.341 288.541 193.38 291.492 194.447C295.905 196.045 298.86 200.131 298.19 205.168C299.052 203.527 299.636 201.403 299.468 199.544C299.144 195.967 295.888 192.911 292.582 192.075C288.523 191.05 284.376 191.881 280.317 192.379C278.752 192.571 277.179 192.608 275.605 192.652C274.636 192.679 264.797 192.862 266.802 183.881" fill="#F48EAA"/>
</g>
<mask id="mask11_8423_9675" style="mask-type:luminance" maskUnits="userSpaceOnUse" x="227" y="128" width="72" height="88">
<path fill-rule="evenodd" clip-rule="evenodd" d="M265.809 129.145C277.606 130.841 288.592 142.48 284.852 159.626V159.626C281.07 176.959 265.333 178.102 265.826 185.98V185.98C265.985 188.517 267.8 190.448 270.029 191.616V191.616C275.027 194.237 280.912 192.306 286.168 192.246V192.246C288.835 192.216 294.039 193.139 297.553 198.038V198.038C300.889 202.687 296.985 208.364 292.261 207.723V207.723C288.716 207.242 287.433 203.642 288.486 201.078V201.078C286.24 200.819 284.13 201.117 282.481 201.614V201.614C277.714 203.052 276.002 203.73 274.17 203.668V203.668C278.928 217.198 254.583 221.84 252.101 203.618V203.618C250.055 203.878 247.881 204.108 245.94 204.873V204.873C244.871 208.192 243.644 211.502 240.276 213.035V213.035C235.01 215.433 227.353 213.445 227.131 206.748V206.748C226.9 199.753 234.607 199.037 237.162 193.829V193.829C235.446 190.309 232.299 183.283 236.128 179.901V179.901C237.458 178.729 242.913 180.298 244.66 180.561V180.561C244.275 172.181 236.626 169.698 237.285 153.748V153.748C238.035 135.55 250.282 128.848 261.663 128.848V128.848C263.066 128.848 264.456 128.95 265.809 129.145" fill="white"/>
</mask>
<g mask="url(#mask11_8423_9675)">
<path fill-rule="evenodd" clip-rule="evenodd" d="M261.173 185.307C260.607 187.538 261.073 190.36 262.433 192.605C263.884 194.999 266.921 197.586 268.943 199.427C272.516 202.68 275.474 208.204 272.365 212.851C281.449 203.054 266.623 197.441 262.553 190.696C261.769 189.396 261.308 186.796 261.173 185.307" fill="#F48EAA"/>
</g>
<mask id="mask12_8423_9675" style="mask-type:luminance" maskUnits="userSpaceOnUse" x="227" y="128" width="72" height="88">
<path fill-rule="evenodd" clip-rule="evenodd" d="M265.809 129.145C277.606 130.841 288.592 142.48 284.852 159.626V159.626C281.07 176.959 265.333 178.102 265.826 185.98V185.98C265.985 188.517 267.8 190.448 270.029 191.616V191.616C275.027 194.237 280.912 192.306 286.168 192.246V192.246C288.835 192.216 294.039 193.139 297.553 198.038V198.038C300.889 202.687 296.985 208.364 292.261 207.723V207.723C288.716 207.242 287.433 203.642 288.486 201.078V201.078C286.24 200.819 284.13 201.117 282.481 201.614V201.614C277.714 203.052 276.002 203.73 274.17 203.668V203.668C278.928 217.198 254.583 221.84 252.101 203.618V203.618C250.055 203.878 247.881 204.108 245.94 204.873V204.873C244.871 208.192 243.644 211.502 240.276 213.035V213.035C235.01 215.433 227.353 213.445 227.131 206.748V206.748C226.9 199.753 234.607 199.037 237.162 193.829V193.829C235.446 190.309 232.299 183.283 236.128 179.901V179.901C237.458 178.729 242.913 180.298 244.66 180.561V180.561C244.275 172.181 236.626 169.698 237.285 153.748V153.748C238.035 135.55 250.282 128.848 261.663 128.848V128.848C263.066 128.848 264.456 128.95 265.809 129.145" fill="white"/>
</mask>
<g mask="url(#mask12_8423_9675)">
<path fill-rule="evenodd" clip-rule="evenodd" d="M265.617 205.096C261.041 206.622 258.999 203.547 257.755 199.478C256.981 196.943 256.834 194.293 256.131 191.745C255.144 188.163 252.341 182.854 248.207 182.269C250.835 181.664 253.375 183.665 254.779 185.728C256.272 187.922 257.268 190.353 257.9 192.933C258.562 195.629 258.881 198.407 259.954 200.99C261.11 203.774 262.706 205.005 265.617 205.096" fill="#F48EAA"/>
</g>
<mask id="mask13_8423_9675" style="mask-type:luminance" maskUnits="userSpaceOnUse" x="227" y="128" width="72" height="88">
<path fill-rule="evenodd" clip-rule="evenodd" d="M265.809 129.145C277.606 130.841 288.592 142.48 284.852 159.626V159.626C281.07 176.959 265.333 178.102 265.826 185.98V185.98C265.985 188.517 267.8 190.448 270.029 191.616V191.616C275.027 194.237 280.912 192.306 286.168 192.246V192.246C288.835 192.216 294.039 193.139 297.553 198.038V198.038C300.889 202.687 296.985 208.364 292.261 207.723V207.723C288.716 207.242 287.433 203.642 288.486 201.078V201.078C286.24 200.819 284.13 201.117 282.481 201.614V201.614C277.714 203.052 276.002 203.73 274.17 203.668V203.668C278.928 217.198 254.583 221.84 252.101 203.618V203.618C250.055 203.878 247.881 204.108 245.94 204.873V204.873C244.871 208.192 243.644 211.502 240.276 213.035V213.035C235.01 215.433 227.353 213.445 227.131 206.748V206.748C226.9 199.753 234.607 199.037 237.162 193.829V193.829C235.446 190.309 232.299 183.283 236.128 179.901V179.901C237.458 178.729 242.913 180.298 244.66 180.561V180.561C244.275 172.181 236.626 169.698 237.285 153.748V153.748C238.035 135.55 250.282 128.848 261.663 128.848V128.848C263.066 128.848 264.456 128.95 265.809 129.145" fill="white"/>
</mask>
<g mask="url(#mask13_8423_9675)">
<path fill-rule="evenodd" clip-rule="evenodd" d="M246.042 202.098C245.552 207.79 244.367 215.612 233.564 214.328C235.699 214.48 239.397 212.75 240.959 211.586C244.52 208.93 245.357 205.367 246.042 202.098" fill="#F48EAA"/>
</g>
<mask id="mask14_8423_9675" style="mask-type:luminance" maskUnits="userSpaceOnUse" x="227" y="128" width="72" height="88">
<path fill-rule="evenodd" clip-rule="evenodd" d="M265.809 129.145C277.606 130.841 288.592 142.48 284.852 159.626V159.626C281.07 176.959 265.333 178.102 265.826 185.98V185.98C265.985 188.517 267.8 190.448 270.029 191.616V191.616C275.027 194.237 280.912 192.306 286.168 192.246V192.246C288.835 192.216 294.039 193.139 297.553 198.038V198.038C300.889 202.687 296.985 208.364 292.261 207.723V207.723C288.716 207.242 287.433 203.642 288.486 201.078V201.078C286.24 200.819 284.13 201.117 282.481 201.614V201.614C277.714 203.052 276.002 203.73 274.17 203.668V203.668C278.928 217.198 254.583 221.84 252.101 203.618V203.618C250.055 203.878 247.881 204.108 245.94 204.873V204.873C244.871 208.192 243.644 211.502 240.276 213.035V213.035C235.01 215.433 227.353 213.445 227.131 206.748V206.748C226.9 199.753 234.607 199.037 237.162 193.829V193.829C235.446 190.309 232.299 183.283 236.128 179.901V179.901C237.458 178.729 242.913 180.298 244.66 180.561V180.561C244.275 172.181 236.626 169.698 237.285 153.748V153.748C238.035 135.55 250.282 128.848 261.663 128.848V128.848C263.066 128.848 264.456 128.95 265.809 129.145" fill="white"/>
</mask>
<g mask="url(#mask14_8423_9675)">
<path fill-rule="evenodd" clip-rule="evenodd" d="M273.525 211.609C271.9 212.822 270.123 213.338 268.123 213.436C261.879 213.741 257.139 208.835 255.611 202.997C254.471 198.641 255.518 193.148 253.816 188.888C253.048 186.968 249.83 183.183 247.263 183.069C248.941 186.253 251.259 188.07 251.819 191.718C252.249 194.511 252.072 198.237 251.819 200.995C251.398 205.589 253.631 209.682 256.428 213.2C257.899 215.05 259.832 216.57 262.13 217.164C266.341 218.253 271.868 215.983 273.525 211.609" fill="#BC2025"/>
</g>
<mask id="mask15_8423_9675" style="mask-type:luminance" maskUnits="userSpaceOnUse" x="227" y="128" width="72" height="88">
<path fill-rule="evenodd" clip-rule="evenodd" d="M265.809 129.145C277.606 130.841 288.592 142.48 284.852 159.626C281.07 176.959 265.333 178.102 265.826 185.98C265.985 188.517 267.8 190.448 270.029 191.616C275.027 194.237 280.912 192.306 286.168 192.246C288.835 192.216 294.039 193.139 297.553 198.038C300.889 202.687 296.985 208.364 292.261 207.723C288.716 207.242 287.433 203.642 288.486 201.078C286.24 200.819 284.13 201.117 282.481 201.614C277.714 203.052 276.002 203.73 274.17 203.668C278.928 217.198 254.583 221.84 252.101 203.618C250.055 203.878 247.881 204.108 245.94 204.873C244.871 208.192 243.644 211.502 240.276 213.035C235.01 215.433 227.353 213.445 227.131 206.748C226.9 199.753 234.607 199.037 237.162 193.829C235.446 190.309 232.299 183.283 236.128 179.901C237.458 178.729 242.913 180.298 244.66 180.561C244.275 172.181 236.626 169.698 237.285 153.748C238.035 135.551 250.282 128.848 261.663 128.848C263.066 128.848 264.456 128.95 265.809 129.145Z" fill="white"/>
</mask>
<g mask="url(#mask15_8423_9675)">
<path fill-rule="evenodd" clip-rule="evenodd" d="M265.745 205.276C267.779 205.563 268.698 204.159 266.695 202.137C265.8 201.236 264.533 200.611 263.459 199.961C261.368 198.699 259.051 196.886 258.087 194.531C258.872 198.513 259.923 205.3 265.745 205.276" fill="#BC2025"/>
</g>
<path fill-rule="evenodd" clip-rule="evenodd" d="M244.66 180.561C242.913 180.299 237.458 178.729 236.128 179.901C232.299 183.284 235.446 190.309 237.162 193.829C234.607 199.037 226.9 199.752 227.131 206.748C227.352 213.445 235.01 215.432 240.275 213.035C243.644 211.502 244.871 208.193 245.94 204.871C247.88 204.107 250.055 203.877 252.101 203.619C254.583 221.839 278.927 217.197 274.17 203.667C276.001 203.73 277.714 203.051 282.481 201.615C284.13 201.117 286.24 200.82 288.486 201.077C287.433 203.642 288.716 207.242 292.261 207.723C296.985 208.363 300.889 202.687 297.553 198.039C294.039 193.139 288.835 192.216 286.168 192.247C280.911 192.307 275.026 194.238 270.029 191.616C267.8 190.447 265.985 188.516 265.826 185.98C265.333 178.102 281.07 176.959 284.852 159.626C288.592 142.481 277.605 130.842 265.809 129.144C253.478 127.37 238.128 133.307 237.284 153.747C236.627 169.699 244.275 172.181 244.66 180.561Z" stroke="#333739" stroke-width="0.337648" stroke-linecap="round" stroke-linejoin="round"/>
<path fill-rule="evenodd" clip-rule="evenodd" d="M237.399 193.73C238.308 195.938 238.901 198.454 238.236 200.509C237.911 201.511 237.308 202.43 236.276 203.108C236.125 203.208 235.964 203.303 235.79 203.384C235.548 203.496 235.288 203.582 235.009 203.665C234.948 203.691 234.879 203.662 234.853 203.601C234.827 203.539 234.855 203.468 234.916 203.442C235.158 203.304 235.37 203.152 235.579 203.008C235.726 202.907 235.868 202.809 236.004 202.709C236.9 202.046 237.465 201.255 237.752 200.351C238.372 198.399 237.79 196.021 236.926 193.93C236.872 193.798 236.934 193.646 237.064 193.591C237.194 193.535 237.344 193.598 237.399 193.73" fill="#333739"/>
<path fill-rule="evenodd" clip-rule="evenodd" d="M227.736 186.118C227.509 185.14 226.914 183.965 226.058 183.321C225.514 182.912 224.859 182.724 224.115 182.991C223.548 183.177 223.122 183.656 222.966 184.182C222.804 184.732 222.929 185.334 223.501 185.741C223.541 185.767 223.553 185.821 223.528 185.863C223.503 185.904 223.449 185.916 223.409 185.89C222.677 185.477 222.467 184.763 222.604 184.09C222.741 183.416 223.248 182.79 223.939 182.507C224.868 182.155 225.7 182.365 226.384 182.875C227.341 183.588 227.999 184.908 228.242 186.001C228.274 186.141 228.187 186.283 228.048 186.316C227.908 186.348 227.767 186.26 227.736 186.118" fill="#333739"/>
<path fill-rule="evenodd" clip-rule="evenodd" d="M288.157 201.233C288.779 200.249 289.757 199.523 290.817 199.247C291.907 198.963 293.079 199.15 294.036 199.985C294.632 200.536 295.04 201.33 294.999 202.089C294.961 202.774 294.573 203.438 293.628 203.832C293.585 203.853 293.533 203.833 293.513 203.789C293.493 203.745 293.511 203.693 293.555 203.672C294.335 203.257 294.637 202.675 294.622 202.082C294.616 201.823 294.545 201.565 294.432 201.319C294.27 200.963 294.012 200.635 293.701 200.382C293.3 200.042 292.858 199.837 292.403 199.741C291.923 199.639 291.429 199.659 290.953 199.785C290.017 200.026 289.149 200.656 288.592 201.519C288.515 201.64 288.354 201.675 288.234 201.596C288.113 201.518 288.078 201.354 288.157 201.233" fill="#333739"/>
<path fill-rule="evenodd" clip-rule="evenodd" d="M273.935 203.78C273.388 202.621 272.579 201.425 271.642 200.303C270.737 199.221 269.71 198.209 268.672 197.365C266.921 195.94 264.047 193.919 262.376 190.876C261.807 189.836 261.359 188.682 261.176 187.388C261.119 186.989 261.093 186.578 261.092 186.156C261.09 185.757 261.115 185.349 261.162 184.929C261.168 184.847 261.239 184.786 261.319 184.79C261.399 184.797 261.461 184.868 261.456 184.949C261.446 185.359 261.462 185.753 261.494 186.138C261.526 186.542 261.583 186.931 261.651 187.308C261.871 188.535 262.274 189.637 262.822 190.623C264.47 193.592 267.285 195.561 269 196.952C270.063 197.815 271.115 198.852 272.042 199.96C273.01 201.119 273.842 202.355 274.406 203.552C274.468 203.684 274.413 203.843 274.282 203.904C274.153 203.968 273.997 203.912 273.935 203.78" fill="#333739"/>
<path fill-rule="evenodd" clip-rule="evenodd" d="M264.229 147.489C263.578 147.718 262.982 148.036 262.434 148.401C262.055 148.655 261.7 148.932 261.369 149.221C261.233 149.341 261.1 149.461 260.97 149.583C260.771 149.771 260.58 149.963 260.399 150.157C259.903 150.691 259.481 151.241 259.151 151.761C259.136 151.787 259.102 151.796 259.076 151.779C259.05 151.765 259.043 151.73 259.058 151.704C259.363 151.158 259.752 150.572 260.231 150.004C260.406 149.797 260.594 149.593 260.792 149.395C260.924 149.266 261.058 149.141 261.198 149.02C261.541 148.724 261.914 148.45 262.313 148.206C262.887 147.856 263.517 147.573 264.193 147.375C264.224 147.366 264.258 147.382 264.268 147.414C264.278 147.446 264.26 147.479 264.229 147.489" fill="#333739"/>
<path fill-rule="evenodd" clip-rule="evenodd" d="M267.663 148.071C268.054 148.228 268.436 148.425 268.792 148.67C269.027 148.83 269.251 149.012 269.457 149.212C269.541 149.292 269.619 149.376 269.695 149.464C269.809 149.594 269.914 149.73 270.013 149.872C270.26 150.227 270.457 150.612 270.604 151.018C270.616 151.045 270.603 151.077 270.575 151.089C270.547 151.101 270.515 151.088 270.504 151.061C270.327 150.682 270.097 150.335 269.834 150.012C269.729 149.882 269.62 149.759 269.506 149.639C269.431 149.56 269.354 149.48 269.275 149.403C269.079 149.209 268.874 149.025 268.658 148.856C268.329 148.596 267.98 148.365 267.615 148.181C267.585 148.166 267.572 148.131 267.585 148.1C267.599 148.071 267.634 148.056 267.663 148.071" fill="#333739"/>
<path fill-rule="evenodd" clip-rule="evenodd" d="M266.42 148.579C268.702 149.009 271.031 151.04 272.33 151.732C273.308 152.256 271.507 153.72 271.429 155.694C271.333 158.103 263.357 148.003 266.42 148.579" fill="#333739"/>
<path fill-rule="evenodd" clip-rule="evenodd" d="M273.11 150.03C272.903 149.076 272.496 148.093 271.926 147.179C271.419 146.367 270.761 145.636 269.917 145.093C269.361 144.693 268.738 144.442 268.104 144.25C267.438 144.05 266.756 143.918 266.068 143.892C264.548 143.831 263.042 144.142 261.892 144.828C261.72 144.952 261.48 144.911 261.356 144.736C261.233 144.56 261.274 144.318 261.445 144.193C262.617 143.178 264.267 142.464 266.017 142.282C266.873 142.193 267.75 142.242 268.591 142.455C269.441 142.672 270.241 143.08 270.965 143.622C271.934 144.424 272.68 145.414 273.16 146.511C273.651 147.629 273.892 148.815 273.941 149.919C273.97 150.152 273.809 150.366 273.58 150.397C273.35 150.426 273.139 150.262 273.11 150.03" fill="#333739"/>
<path fill-rule="evenodd" clip-rule="evenodd" d="M266.961 148.602C270.568 149.741 272.48 153.966 271.227 158.032C269.975 162.096 266.03 164.473 262.422 163.334C258.815 162.193 256.904 157.968 258.157 153.902C259.408 149.838 263.354 147.462 266.961 148.602" fill="white"/>
<mask id="mask16_8423_9675" style="mask-type:luminance" maskUnits="userSpaceOnUse" x="257" y="148" width="15" height="16">
<path fill-rule="evenodd" clip-rule="evenodd" d="M266.961 148.602C270.568 149.741 272.48 153.966 271.227 158.032V158.032C269.975 162.097 266.029 164.473 262.422 163.334V163.334C258.815 162.194 256.904 157.968 258.157 153.903V153.903C259.197 150.527 262.094 148.317 265.112 148.317V148.317C265.728 148.317 266.349 148.408 266.961 148.602" fill="white"/>
</mask>
<g mask="url(#mask16_8423_9675)">
<path fill-rule="evenodd" clip-rule="evenodd" d="M266.372 151.04C269.08 151.867 270.526 155.067 269.598 158.179C268.669 161.294 265.717 163.15 263.011 162.322C260.303 161.495 258.858 158.295 259.785 155.183C260.713 152.068 263.665 150.212 266.372 151.04" fill="#333739"/>
</g>
<mask id="mask17_8423_9675" style="mask-type:luminance" maskUnits="userSpaceOnUse" x="257" y="148" width="15" height="16">
<path fill-rule="evenodd" clip-rule="evenodd" d="M266.961 148.602C270.568 149.741 272.48 153.966 271.227 158.032V158.032C269.975 162.097 266.029 164.473 262.422 163.334V163.334C258.815 162.194 256.904 157.968 258.157 153.903V153.903C259.197 150.527 262.094 148.317 265.112 148.317V148.317C265.728 148.317 266.349 148.408 266.961 148.602" fill="white"/>
</mask>
<g mask="url(#mask17_8423_9675)">
<path fill-rule="evenodd" clip-rule="evenodd" d="M261.616 155.861C261.456 156.671 261.494 157.356 261.639 157.932C261.891 158.922 262.604 159.475 263.413 159.662C264.11 159.824 264.885 159.727 265.548 159.286C266.156 158.883 266.691 158.253 266.979 157.328C267.073 156.96 267.443 156.737 267.807 156.831C268.17 156.925 268.39 157.301 268.297 157.669C267.896 159.7 266.621 160.917 265.231 161.39C264.494 161.64 263.711 161.666 262.989 161.493C262.485 161.373 262.006 161.154 261.595 160.836C260.35 159.876 259.556 158.071 260.379 155.526C260.471 155.181 260.822 154.975 261.163 155.067C261.504 155.16 261.708 155.517 261.616 155.861" fill="#8C181B"/>
</g>
<mask id="mask18_8423_9675" style="mask-type:luminance" maskUnits="userSpaceOnUse" x="257" y="148" width="15" height="16">
<path fill-rule="evenodd" clip-rule="evenodd" d="M266.961 148.602C270.568 149.741 272.48 153.966 271.227 158.032V158.032C269.975 162.097 266.029 164.473 262.422 163.334V163.334C258.815 162.194 256.904 157.968 258.157 153.903V153.903C259.197 150.527 262.094 148.317 265.112 148.317V148.317C265.728 148.317 266.349 148.408 266.961 148.602" fill="white"/>
</mask>
<g mask="url(#mask18_8423_9675)">
<path fill-rule="evenodd" clip-rule="evenodd" d="M265.644 153.095C266.164 152.687 266.933 152.805 267.361 153.359C267.788 153.912 267.715 154.692 267.194 155.1C266.675 155.507 265.906 155.389 265.479 154.835C265.051 154.282 265.125 153.502 265.644 153.095" fill="white"/>
</g>
<mask id="mask19_8423_9675" style="mask-type:luminance" maskUnits="userSpaceOnUse" x="257" y="148" width="15" height="16">
<path fill-rule="evenodd" clip-rule="evenodd" d="M266.961 148.602C270.568 149.741 272.48 153.966 271.227 158.032V158.032C269.975 162.097 266.029 164.473 262.422 163.334V163.334C258.815 162.194 256.904 157.968 258.157 153.903V153.903C259.197 150.527 262.094 148.317 265.112 148.317V148.317C265.728 148.317 266.349 148.408 266.961 148.602" fill="white"/>
</mask>
<g mask="url(#mask19_8423_9675)">
<path fill-rule="evenodd" clip-rule="evenodd" d="M261.442 159.142C261.798 159.142 262.088 159.449 262.089 159.826C262.089 160.205 261.8 160.51 261.444 160.509C261.087 160.509 260.798 160.202 260.796 159.824C260.796 159.447 261.085 159.141 261.442 159.142" fill="white"/>
</g>
<path fill-rule="evenodd" clip-rule="evenodd" d="M267.012 148.44C268.178 148.779 269.187 149.425 269.975 150.293C270.499 150.873 270.921 151.555 271.235 152.297C271.963 154.02 272.094 156.086 271.467 158.109C270.839 160.129 269.566 161.743 267.999 162.737C266.312 163.809 264.286 164.165 262.356 163.549C260.43 162.937 258.974 161.473 258.198 159.62C257.48 157.905 257.349 155.856 257.973 153.847C258.598 151.842 259.862 150.242 261.418 149.254C263.09 148.193 265.097 147.84 267.01 148.45L267.012 148.44ZM266.913 148.757C265.093 148.188 263.187 148.537 261.604 149.554C260.123 150.507 258.924 152.043 258.34 153.962C257.755 155.878 257.889 157.826 258.58 159.455C259.315 161.186 260.682 162.554 262.489 163.119C264.29 163.682 266.177 163.337 267.745 162.33C269.216 161.386 270.405 159.862 270.987 157.957C271.57 156.057 271.435 154.124 270.755 152.503C270.466 151.812 270.074 151.182 269.601 150.628C268.888 149.793 267.986 149.134 266.911 148.766L266.913 148.757Z" fill="#333739"/>
<path fill-rule="evenodd" clip-rule="evenodd" d="M239.894 146.863C240.137 146.474 240.414 146.097 240.735 145.756C240.948 145.529 241.179 145.319 241.426 145.13C241.524 145.055 241.628 144.985 241.733 144.919C241.893 144.82 242.057 144.731 242.226 144.652C242.646 144.459 243.094 144.331 243.561 144.28C243.591 144.276 243.618 144.297 243.623 144.327C243.628 144.357 243.606 144.385 243.578 144.389C243.133 144.477 242.718 144.642 242.327 144.858C242.172 144.944 242.021 145.038 241.872 145.138C241.773 145.204 241.678 145.275 241.582 145.345C241.342 145.521 241.113 145.713 240.896 145.92C240.564 146.233 240.258 146.572 239.992 146.931C239.973 146.958 239.937 146.965 239.909 146.946C239.882 146.927 239.876 146.889 239.894 146.863" fill="#333739"/>
<path fill-rule="evenodd" clip-rule="evenodd" d="M246.825 145.652C247.087 145.964 247.314 146.313 247.502 146.687C247.625 146.932 247.732 147.187 247.823 147.45C247.859 147.553 247.892 147.659 247.921 147.765C247.965 147.925 248.004 148.085 248.038 148.246C248.124 148.657 248.18 149.069 248.223 149.466C248.228 149.495 248.208 149.524 248.178 149.528C248.149 149.533 248.121 149.513 248.115 149.482C248.066 149.249 248.009 149.012 247.947 148.772C247.887 148.539 247.821 148.304 247.749 148.071C247.703 147.918 247.651 147.765 247.6 147.611C247.549 147.46 247.498 147.308 247.442 147.157C247.368 146.956 247.288 146.758 247.199 146.564C247.064 146.27 246.912 145.986 246.732 145.724C246.712 145.699 246.716 145.661 246.741 145.641C246.767 145.621 246.804 145.625 246.825 145.652" fill="#333739"/>
<path fill-rule="evenodd" clip-rule="evenodd" d="M244.77 145.122C243.013 144.979 241.431 145.145 240.266 145.337C238.953 145.553 239.767 146.865 238.933 149.423C238.187 151.714 247.875 145.374 244.77 145.122" fill="#333739"/>
<path fill-rule="evenodd" clip-rule="evenodd" d="M248.979 141.195C248.486 140.867 247.892 140.635 247.246 140.48C246.7 140.347 246.123 140.32 245.53 140.431C245.129 140.474 244.757 140.612 244.393 140.763C244.003 140.927 243.624 141.101 243.279 141.339C242.487 141.883 241.821 142.554 241.493 143.31C241.435 143.515 241.223 143.636 241.018 143.577C240.814 143.519 240.697 143.303 240.754 143.096C240.835 142.466 241.07 141.827 241.423 141.2C241.645 140.808 241.926 140.449 242.245 140.113C242.644 139.689 243.112 139.325 243.639 139.065C244.171 138.801 244.766 138.669 245.375 138.626C246.219 138.633 247.02 138.794 247.723 139.152C248.446 139.518 249.057 140.011 249.53 140.556C249.704 140.71 249.722 140.978 249.57 141.154C249.418 141.331 249.153 141.35 248.979 141.195" fill="#333739"/>
<path fill-rule="evenodd" clip-rule="evenodd" d="M244.571 145.21C247.245 145.721 248.832 149.266 248.113 153.119C247.394 156.973 244.639 159.687 241.966 159.175C239.292 158.664 237.705 155.121 238.424 151.266C239.143 147.412 241.898 144.698 244.571 145.21" fill="white"/>
<mask id="mask20_8423_9675" style="mask-type:luminance" maskUnits="userSpaceOnUse" x="238" y="145" width="11" height="15">
<path fill-rule="evenodd" clip-rule="evenodd" d="M244.572 145.208C247.246 145.72 248.831 149.264 248.113 153.119V153.119C247.394 156.971 244.639 159.685 241.966 159.175V159.175C239.292 158.663 237.706 155.119 238.424 151.265V151.265C239.086 147.726 241.463 145.146 243.918 145.146V145.146C244.136 145.146 244.354 145.167 244.572 145.208" fill="white"/>
</mask>
<g mask="url(#mask20_8423_9675)">
<path fill-rule="evenodd" clip-rule="evenodd" d="M245.093 147.537C247.488 147.79 248.918 150.469 248.287 153.514C247.655 156.559 245.199 158.825 242.805 158.571C240.41 158.317 238.98 155.639 239.611 152.594C240.243 149.549 242.7 147.283 245.093 147.537" fill="#333739"/>
</g>
<mask id="mask21_8423_9675" style="mask-type:luminance" maskUnits="userSpaceOnUse" x="238" y="145" width="11" height="15">
<path fill-rule="evenodd" clip-rule="evenodd" d="M244.572 145.208C247.246 145.72 248.831 149.264 248.113 153.119V153.119C247.394 156.971 244.639 159.685 241.966 159.175V159.175C239.292 158.663 237.706 155.119 238.424 151.265V151.265C239.086 147.726 241.463 145.146 243.918 145.146V145.146C244.136 145.146 244.354 145.167 244.572 145.208" fill="white"/>
</mask>
<g mask="url(#mask21_8423_9675)">
<path fill-rule="evenodd" clip-rule="evenodd" d="M241.316 153.164C241.201 154.012 241.353 154.688 241.633 155.194C241.92 155.715 242.41 155.971 242.928 155.978C243.438 155.985 243.972 155.753 244.421 155.227C244.82 154.761 245.179 154.13 245.4 153.269C245.468 152.895 245.824 152.648 246.194 152.719C246.562 152.789 246.805 153.149 246.736 153.523C246.508 155.366 245.735 156.562 244.855 157.22C244.242 157.677 243.549 157.872 242.892 157.858C242.405 157.847 241.93 157.721 241.513 157.476C240.319 156.777 239.433 155.169 240.063 152.895C240.137 152.545 240.477 152.321 240.822 152.394C241.168 152.469 241.389 152.814 241.316 153.164" fill="#8C181B"/>
</g>
<mask id="mask22_8423_9675" style="mask-type:luminance" maskUnits="userSpaceOnUse" x="238" y="145" width="11" height="15">
<path fill-rule="evenodd" clip-rule="evenodd" d="M244.572 145.208C247.246 145.72 248.831 149.264 248.113 153.119V153.119C247.394 156.971 244.639 159.685 241.966 159.175V159.175C239.292 158.663 237.706 155.119 238.424 151.265V151.265C239.086 147.726 241.463 145.146 243.918 145.146V145.146C244.136 145.146 244.354 145.167 244.572 145.208" fill="white"/>
</mask>
<g mask="url(#mask22_8423_9675)">
<path fill-rule="evenodd" clip-rule="evenodd" d="M246.607 149.906C247.079 150.345 247.127 151.039 246.715 151.455C246.302 151.87 245.584 151.852 245.113 151.411C244.64 150.972 244.594 150.278 245.005 149.862C245.418 149.447 246.135 149.468 246.607 149.906" fill="white"/>
</g>
<mask id="mask23_8423_9675" style="mask-type:luminance" maskUnits="userSpaceOnUse" x="238" y="145" width="11" height="15">
<path fill-rule="evenodd" clip-rule="evenodd" d="M244.572 145.208C247.246 145.72 248.831 149.264 248.113 153.119V153.119C247.394 156.971 244.639 159.685 241.966 159.175V159.175C239.292 158.663 237.706 155.119 238.424 151.265V151.265C239.086 147.726 241.463 145.146 243.918 145.146V145.146C244.136 145.146 244.354 145.167 244.572 145.208" fill="white"/>
</mask>
<g mask="url(#mask23_8423_9675)">
<path fill-rule="evenodd" clip-rule="evenodd" d="M241.6 155.98C241.847 156.298 241.806 156.748 241.511 156.983C241.214 157.22 240.773 157.153 240.527 156.836C240.28 156.518 240.32 156.068 240.616 155.833C240.912 155.597 241.353 155.663 241.6 155.98" fill="white"/>
</g>
<path fill-rule="evenodd" clip-rule="evenodd" d="M244.595 145.084C245.847 145.316 246.875 146.191 247.553 147.453C248.361 148.954 248.675 151.003 248.285 153.151C247.894 155.307 246.876 157.115 245.59 158.231C244.493 159.182 243.2 159.632 241.925 159.396C240.646 159.156 239.594 158.263 238.903 156.974C238.09 155.458 237.777 153.386 238.176 151.217C238.368 150.202 238.692 149.264 239.125 148.442C239.617 147.509 240.242 146.725 240.942 146.144C242.049 145.226 243.34 144.809 244.596 145.078L244.595 145.084ZM244.548 145.338C243.377 145.142 242.212 145.591 241.219 146.474C240.579 147.043 240.013 147.793 239.564 148.676C239.163 149.46 238.85 150.349 238.673 151.312C238.285 153.355 238.564 155.311 239.322 156.746C239.933 157.908 240.861 158.729 242.006 158.953C243.421 159.23 244.856 158.547 245.979 157.268C246.905 156.217 247.618 154.762 247.94 153.085C248.336 151.021 248.059 149.046 247.297 147.593C246.672 146.402 245.722 145.565 244.548 145.334V145.338Z" fill="#333739"/>
<path fill-rule="evenodd" clip-rule="evenodd" d="M248.235 180.395C254.209 182.177 259.18 176.775 260.095 166.302C259.675 166.195 259.555 166.181 259.132 166.087C254.836 168.276 248.938 168 244.051 165.205C245.663 167.646 248.37 171.752 248.235 180.395" fill="#333739"/>
<mask id="mask24_8423_9675" style="mask-type:luminance" maskUnits="userSpaceOnUse" x="244" y="165" width="17" height="16">
<path fill-rule="evenodd" clip-rule="evenodd" d="M259.133 166.087C259.554 166.182 259.675 166.195 260.095 166.302V166.302C259.18 176.775 254.209 182.178 248.235 180.396V180.396C248.371 171.752 245.663 167.647 244.051 165.206V165.206C248.939 168.001 254.835 168.277 259.133 166.087" fill="white"/>
</mask>
<g mask="url(#mask24_8423_9675)">
<path fill-rule="evenodd" clip-rule="evenodd" d="M252.79 173.897C256.259 170.868 260.26 169.8 261.72 171.514C263.178 173.228 261.547 177.078 258.078 180.106C254.609 183.134 250.608 184.202 249.148 182.489C247.69 180.777 249.321 176.926 252.79 173.897" fill="#F48EAA"/>
</g>
<mask id="mask25_8423_9675" style="mask-type:luminance" maskUnits="userSpaceOnUse" x="244" y="165" width="17" height="16">
<path fill-rule="evenodd" clip-rule="evenodd" d="M259.133 166.087C259.554 166.182 259.675 166.195 260.095 166.302V166.302C259.18 176.775 254.209 182.178 248.235 180.396V180.396C248.371 171.752 245.663 167.647 244.051 165.206V165.206C248.939 168.001 254.835 168.277 259.133 166.087" fill="white"/>
</mask>
<g mask="url(#mask25_8423_9675)">
<path fill-rule="evenodd" clip-rule="evenodd" d="M246.716 163.403C247.042 165.067 247.656 165.954 248.438 166.456C248.788 166.682 249.187 166.753 249.6 166.831C250.33 166.97 251.12 166.956 251.921 166.947C252.644 166.99 253.422 166.946 254.216 166.909C255.393 166.856 256.592 166.787 257.713 166.572C259.141 166.295 260.417 165.948 261.24 165.266C261.488 164.999 261.904 164.986 262.169 165.238C262.433 165.49 262.446 165.911 262.198 166.179C261.266 167.476 259.467 168.569 257.362 169.318C256.302 169.695 255.173 169.959 254.059 170.089C253.273 170.18 252.495 170.162 251.769 170.129C249.927 169.898 248.105 169.629 246.884 168.428C245.906 167.467 245.18 166.007 245.287 163.513C245.257 163.114 245.553 162.766 245.947 162.735C246.342 162.704 246.687 163.004 246.716 163.403" fill="white"/>
</g>
<path fill-rule="evenodd" clip-rule="evenodd" d="M242.373 163.847C242.785 163.549 243.14 163.209 243.435 162.822C243.778 162.37 244.039 161.855 244.212 161.263C244.237 161.183 244.193 161.097 244.112 161.072C244.032 161.046 243.947 161.091 243.922 161.173C243.749 161.719 243.497 162.196 243.168 162.61C242.838 163.026 242.433 163.379 241.955 163.681C241.905 163.714 241.874 163.77 241.871 163.83C241.867 163.891 241.895 163.95 241.941 163.987C244.503 166.047 247.432 167.232 250.304 167.65C253.556 168.124 256.732 167.616 259.219 166.346C259.363 166.402 259.505 166.453 259.642 166.494C259.688 166.508 259.732 166.52 259.775 166.531C259.431 169.112 259.142 171.102 258.525 172.955C258.076 174.3 257.456 175.574 256.511 176.952C255.385 178.6 253.922 179.669 252.391 180.196C251.705 180.432 251.007 180.561 250.314 180.585C249.237 180.619 248.176 180.404 247.215 179.917C247.158 179.886 247.085 179.908 247.054 179.966C247.022 180.025 247.044 180.099 247.102 180.131C248.244 180.791 249.554 181.09 250.883 180.993C251.438 180.954 251.994 180.841 252.543 180.662C254.175 180.13 255.729 178.991 256.934 177.25C257.913 175.829 258.559 174.515 259.025 173.127C259.675 171.186 259.972 169.096 260.339 166.35C260.359 166.203 260.256 166.067 260.11 166.046C260.007 166.031 259.902 166.007 259.795 165.975C259.634 165.927 259.468 165.864 259.3 165.798C259.229 165.771 259.148 165.775 259.08 165.81C256.669 167.084 253.563 167.582 250.374 167.148C247.643 166.775 244.849 165.722 242.373 163.847" fill="#333739"/>
<path d="M244.051 165.205C245.848 167.636 248.261 172.593 248.236 180.316" stroke="#333739" stroke-width="0.337648" stroke-linecap="round" stroke-linejoin="round"/>
<path fill-rule="evenodd" clip-rule="evenodd" d="M257.686 164.577C257.973 164.939 258.307 165.22 258.665 165.45C258.908 165.607 259.163 165.73 259.428 165.836C259.693 165.941 259.965 166.029 260.248 166.086C260.67 166.169 261.107 166.203 261.561 166.161C261.637 166.15 261.709 166.203 261.721 166.28C261.733 166.357 261.681 166.431 261.605 166.442C261.123 166.552 260.646 166.59 260.183 166.546C259.856 166.515 259.538 166.445 259.238 166.327C258.935 166.207 258.653 166.04 258.395 165.836C258.029 165.543 257.72 165.171 257.465 164.732C257.422 164.669 257.437 164.584 257.499 164.541C257.56 164.5 257.644 164.514 257.686 164.577" fill="#333739"/>
<path fill-rule="evenodd" clip-rule="evenodd" d="M276.002 147.436C269.594 148.338 261.559 143.088 255.771 140.813C250.39 138.7 245.057 138.109 241.753 138.837C248.076 132.654 273.084 140.28 276.002 147.436" fill="white"/>
<mask id="mask26_8423_9675" style="mask-type:luminance" maskUnits="userSpaceOnUse" x="241" y="136" width="36" height="12">
<path fill-rule="evenodd" clip-rule="evenodd" d="M276.002 147.437C269.594 148.338 261.558 143.087 255.771 140.813V140.813C250.389 138.699 245.057 138.109 241.753 138.838V138.838C243.387 137.24 246.269 136.564 249.694 136.564V136.564C259.525 136.561 273.837 142.128 276.002 147.437" fill="white"/>
</mask>
<g mask="url(#mask26_8423_9675)">
<path fill-rule="evenodd" clip-rule="evenodd" d="M251.25 137.304C249.008 137.464 246.78 138.238 244.801 139.303C242.95 140.302 240.185 138.816 238.13 139.323C240.79 137.874 247.948 136.74 251.25 137.304" fill="#BDBDBC"/>
</g>
<path fill-rule="evenodd" clip-rule="evenodd" d="M276.001 147.435C269.593 148.337 261.558 143.087 255.77 140.813C250.389 138.699 245.056 138.108 241.752 138.836C248.075 132.653 273.083 140.279 276.001 147.435Z" stroke="#333739" stroke-width="0.337648" stroke-linecap="round" stroke-linejoin="round"/>
<path fill-rule="evenodd" clip-rule="evenodd" d="M284.077 163.169C286.38 147.212 253.86 131.994 241.752 138.837C247.232 128.867 265.576 123.028 279.054 135.43C289.836 145.352 286.579 158.459 284.077 163.169" fill="white"/>
<mask id="mask27_8423_9675" style="mask-type:luminance" maskUnits="userSpaceOnUse" x="241" y="128" width="46" height="36">
<path fill-rule="evenodd" clip-rule="evenodd" d="M279.054 135.431C289.836 145.351 286.579 158.459 284.077 163.169V163.169C286.38 147.212 253.86 131.995 241.753 138.838V138.838C245.026 132.881 252.889 128.401 261.564 128.4V128.4C267.411 128.4 273.627 130.436 279.054 135.431" fill="white"/>
</mask>
<g mask="url(#mask27_8423_9675)">
<path fill-rule="evenodd" clip-rule="evenodd" d="M254.091 136.503C251.956 136.197 249.627 135.989 247.328 135.852C248.745 133.96 250.09 132.163 251.37 130.454C253.508 130.569 255.6 130.795 257.645 131.134C256.511 132.88 255.346 134.574 254.091 136.503" fill="#75151E"/>
<path fill-rule="evenodd" clip-rule="evenodd" d="M260.037 135.715C259.666 135.849 259.306 135.876 258.996 135.795C258.251 135.601 258.068 134.856 258.557 134.099C259.035 133.358 259.981 132.916 260.73 133.095C261.04 133.169 261.271 133.34 261.394 133.588C261.396 133.592 261.399 133.596 261.401 133.601C261.711 133.463 262.019 133.326 262.328 133.19C262.325 133.185 262.323 133.18 262.32 133.175C262.132 132.746 261.736 132.443 261.214 132.322C259.998 132.041 258.438 132.752 257.694 133.902C256.925 135.092 257.235 136.323 258.438 136.643C258.96 136.781 259.595 136.722 260.225 136.475C260.233 136.472 260.24 136.469 260.247 136.467C260.185 136.212 260.121 135.959 260.056 135.709C260.05 135.711 260.044 135.713 260.037 135.715M260.747 137.136C261.026 137.218 261.305 137.301 261.583 137.386C262.501 135.956 263.371 134.567 264.19 133.221C263.914 133.143 263.638 133.067 263.361 132.992C262.541 134.33 261.669 135.712 260.747 137.136M265.857 136.915C265.877 136.854 266.033 133.765 266.017 133.761C265.748 133.675 265.479 133.592 265.209 133.51C264.392 134.866 263.526 136.263 262.614 137.699C262.893 137.79 263.172 137.881 263.451 137.975C263.997 137.108 264.527 136.254 265.039 135.415C265.047 135.549 264.886 138.524 264.875 138.517C264.876 138.511 267.765 136.516 267.891 136.435C267.389 137.286 266.872 138.148 266.341 139.023C266.622 139.133 266.902 139.245 267.182 139.359C268.056 137.903 268.891 136.478 269.687 135.086C269.421 134.978 269.154 134.873 268.887 134.769C268.887 134.764 265.922 136.864 265.857 136.915M270.292 139.722C270.019 139.595 269.746 139.469 269.472 139.346C269.671 139.003 269.868 138.661 270.063 138.321C270.334 138.443 270.605 138.569 270.876 138.696C271.256 138.877 271.243 139.206 271.105 139.452C270.964 139.701 270.676 139.903 270.292 139.722M271.034 136.61C271.285 136.723 271.535 136.84 271.785 136.958C272.1 137.109 272.191 137.374 272.03 137.665C271.869 137.956 271.583 138.039 271.265 137.888C271.014 137.769 270.762 137.653 270.509 137.538C270.686 137.227 270.861 136.918 271.034 136.61M271.912 138.671C272.153 138.656 272.612 138.516 272.872 138.04C273.27 137.312 273.039 136.606 272.263 136.233C271.725 135.976 271.183 135.73 270.639 135.496C269.851 136.893 269.025 138.322 268.162 139.78C268.747 140.03 269.33 140.291 269.913 140.563C270.71 140.933 271.478 140.692 271.916 139.906C272.24 139.325 272.064 138.891 271.912 138.671" fill="#7C1710"/>
<path fill-rule="evenodd" clip-rule="evenodd" d="M251.519 131.359C252.661 131.437 253.788 131.548 254.902 131.691C255.081 132.324 255.26 132.977 255.437 133.651C254.441 134.205 253.425 134.776 252.388 135.365C251.221 135.206 250.039 135.082 248.841 134.994C249.859 134.372 250.856 133.768 251.832 133.18C251.73 132.555 251.625 131.949 251.519 131.359" fill="#E5292B"/>
<path fill-rule="evenodd" clip-rule="evenodd" d="M255.437 133.651C255.26 132.977 255.082 132.324 254.902 131.691C253.788 131.548 252.661 131.437 251.519 131.359C251.625 131.949 251.73 132.555 251.833 133.18" fill="#FEFEFE"/>
</g>
<mask id="mask28_8423_9675" style="mask-type:luminance" maskUnits="userSpaceOnUse" x="241" y="128" width="46" height="36">
<path fill-rule="evenodd" clip-rule="evenodd" d="M279.054 135.431C289.836 145.351 286.579 158.459 284.077 163.169C286.38 147.212 253.86 131.995 241.753 138.838C245.026 132.881 252.889 128.401 261.564 128.4C267.411 128.4 273.627 130.436 279.054 135.431Z" fill="white"/>
</mask>
<g mask="url(#mask28_8423_9675)">
<path fill-rule="evenodd" clip-rule="evenodd" d="M280.934 153.773C282.46 146.454 278.928 135.457 272.765 131.09C271.468 130.169 269.947 129.69 268.436 129.273C270.706 129.205 272.841 130.198 274.766 131.325C276.444 132.306 278.173 133.422 279.473 134.897C284.018 140.054 289.953 152.141 284.323 161.959C283.227 161.57 282.043 154.133 280.934 153.773Z" fill="#BDBDBC"/>
</g>
<path fill-rule="evenodd" clip-rule="evenodd" d="M284.077 163.169C286.38 147.212 253.86 131.994 241.752 138.837C247.232 128.867 265.576 123.028 279.054 135.43C289.836 145.352 286.579 158.459 284.077 163.169Z" stroke="#333739" stroke-width="0.337648" stroke-linecap="round" stroke-linejoin="round"/>
<path fill-rule="evenodd" clip-rule="evenodd" d="M273.279 145.43C274.461 142.174 274.962 138.684 274.489 135.818C274.303 134.695 273.962 133.673 273.462 132.791C273.143 132.227 272.762 131.72 272.302 131.285C271.997 130.994 271.663 130.733 271.29 130.509C271.224 130.472 271.199 130.388 271.235 130.322C271.271 130.255 271.353 130.231 271.419 130.266C272.146 130.629 272.765 131.116 273.277 131.712C273.497 131.97 273.696 132.248 273.875 132.542C274.43 133.459 274.793 134.545 274.996 135.731C275.498 138.674 274.981 142.264 273.77 145.613C273.72 145.749 273.57 145.82 273.435 145.77C273.3 145.72 273.23 145.567 273.279 145.43" fill="#333739"/>
<path fill-rule="evenodd" clip-rule="evenodd" d="M245.594 205.113C245.876 203.828 245.856 202.501 245.629 201.196C245.357 199.638 244.752 198.129 244.05 196.72C243.979 196.576 243.909 196.433 243.842 196.289C243.741 196.065 243.656 195.843 243.555 195.622C243.52 195.565 243.536 195.491 243.593 195.455C243.648 195.42 243.721 195.437 243.757 195.493C243.846 195.598 243.933 195.699 244.017 195.81C244.142 195.971 244.261 196.136 244.37 196.312C244.584 196.657 244.76 197.028 244.936 197.4C245.345 198.263 245.677 199.173 245.916 200.097C246.351 201.788 246.462 203.54 246.094 205.227C246.064 205.365 245.927 205.454 245.789 205.422C245.651 205.392 245.564 205.253 245.594 205.113" fill="#333739"/>
<path fill-rule="evenodd" clip-rule="evenodd" d="M247.641 206.788L217.942 169.569C216.728 168.047 216.986 165.844 218.52 164.65C220.053 163.457 222.282 163.723 223.496 165.245L253.195 202.463C254.41 203.986 254.151 206.188 252.617 207.383C251.084 208.576 248.855 208.31 247.641 206.788" fill="#FFAB00"/>
<path opacity="0.5" fill-rule="evenodd" clip-rule="evenodd" d="M247.639 206.749C247.639 206.749 249.499 204.846 249.318 203.209C249.138 201.573 227.719 174.758 226.071 174.105C224.424 173.452 221.622 174.033 221.622 174.033L247.639 206.749Z" fill="white"/>
<path d="M248.384 205.8L218.685 168.581C217.471 167.059 217.73 164.856 219.263 163.662C220.797 162.469 223.025 162.734 224.24 164.257L253.939 201.475C255.154 202.998 254.895 205.2 253.361 206.395C251.827 207.588 249.599 207.322 248.384 205.8" stroke="#333739" stroke-width="0.536165"/>
<path d="M243.996 199.484H237.344L241.895 201.218L246.096 203.298L248.897 205.032L251.698 208.153L254.499 211.274L256.6 213.008L261.851 215.435L267.803 213.701L264.302 212.661L258.7 209.887L253.799 204.339L248.897 201.218L243.996 199.484Z" fill="#BC2025"/>
<path d="M247.848 181.8H257.756L265.353 202.396C258.747 209.853 250.82 196.714 250.82 196.714C250.82 196.714 249.169 191.388 248.508 187.837C247.848 184.286 247.848 181.8 247.848 181.8Z" fill="#EF383D"/>
<path d="M238.395 198.444L237.345 199.485L244.697 200.178C244.697 200.178 250.649 200.872 254.85 207.113C254.85 207.113 261.152 212.315 263.953 212.315L266.054 203.646L264.653 204.686L262.553 205.38L259.052 204.686L256.601 203.646L254.15 202.259L250.999 200.178L247.148 198.098L243.647 197.404L240.496 197.751L238.395 198.444Z" fill="#EF383D"/>
<path fill-rule="evenodd" clip-rule="evenodd" d="M237.509 199.445C237.896 198.732 238.816 198.196 240.068 197.907C241.483 197.58 243.321 197.581 245.355 198.044C246.945 198.407 248.255 198.895 249.42 199.453C252.598 200.972 254.701 202.997 258.34 204.427C259.544 204.9 260.933 205.522 262.537 205.334C263.187 205.257 263.879 205.061 264.595 204.646C264.937 204.449 265.282 204.201 265.633 203.899C265.836 203.723 266.038 203.528 266.243 203.315C266.312 203.249 266.314 203.138 266.245 203.066C266.177 202.996 266.064 202.993 265.994 203.059C265.778 203.245 265.565 203.411 265.358 203.564C265.006 203.823 264.667 204.035 264.339 204.21C263.677 204.567 263.058 204.766 262.467 204.833C260.957 205.008 259.655 204.399 258.521 203.953C254.897 202.525 252.805 200.503 249.639 198.986C248.444 198.414 247.097 197.912 245.462 197.538C243.337 197.052 241.417 197.055 239.937 197.399C238.334 197.768 237.244 198.545 236.902 199.504C236.879 199.57 236.883 199.643 236.914 199.707C236.946 199.77 237.001 199.818 237.069 199.842C238.237 200.248 239.051 200.492 240.083 200.849C240.646 201.043 241.274 201.272 242.06 201.581C244.699 202.617 246.52 203.707 247.934 204.826C250.884 207.162 252.083 209.622 255.201 211.985C255.318 212.074 255.484 212.054 255.57 211.939C255.657 211.826 255.632 211.661 255.517 211.573C252.403 209.213 251.204 206.754 248.258 204.42C246.811 203.275 244.948 202.157 242.245 201.096C241.451 200.784 240.816 200.553 240.248 200.356C239.298 200.027 238.533 199.797 237.509 199.445" fill="black"/>
<path opacity="0.5" d="M227.014 153.792C227.014 165.666 217.295 175.292 205.307 175.292C193.319 175.292 183.6 165.666 183.6 153.792L200.755 164.196L213.009 161.075L217.211 149.632L205.307 132.293C217.295 132.293 227.014 141.918 227.014 153.792Z" fill="#FFAB00"/>
<path d="M228.704 154.508C228.704 166.382 218.986 176.007 206.997 176.007C195.009 176.007 185.291 166.382 185.291 154.508L202.446 164.912L214.7 161.791L218.901 150.347L206.997 133.008C218.986 133.008 228.704 142.634 228.704 154.508Z" fill="#FFAB00"/>
<path d="M220.105 148.585L208.586 131.806C220.071 132.158 229.268 141.49 229.268 152.944C229.268 164.621 219.71 174.092 207.912 174.092C196.327 174.092 186.901 164.959 186.565 153.573L203.178 163.647L203.304 163.724L203.447 163.687L215.701 160.567L215.88 160.521L215.944 160.347L220.145 148.904L220.208 148.734L220.105 148.585Z" stroke="#333739" stroke-width="0.70197"/>
</svg>
