<svg width="656" height="458" fill="none" xmlns="http://www.w3.org/2000/svg">
    <g filter="url(#a)">
        <path d="M28 34c0-8.837 7.163-16 16-16h568c8.837 0 16 7.163 16 16v370c0 8.837-7.163 16-16 16H44c-8.837 0-16-7.163-16-16V34z" fill="#fff"/>
        <path d="M599 48.415 597.585 47 592 52.585 586.415 47 585 48.415 590.585 54 585 59.585 586.415 61 592 55.415 597.585 61 599 59.585 593.415 54 599 48.415z" fill="#575A5C"/>
        <path d="M349.333 79.332h-42.666c-2.947 0-5.307 2.387-5.307 5.333l-.027 48L312 121.999h37.333a5.333 5.333 0 0 0 5.334-5.334v-32a5.332 5.332 0 0 0-5.334-5.333zm-18.666 32h-5.334v-5.333h5.334v5.333zm0-10.667h-5.334V89.999h5.334v10.666z" fill="#F66"/>
        <path d="M164.113 173.645c-1.367 0-2.425.515-3.175 1.546-.75 1.024-1.126 2.454-1.126 4.289 0 3.821 1.434 5.731 4.301 5.731 1.203 0 2.66-.301 4.371-.902v3.046c-1.406.586-2.976.879-4.711.879-2.492 0-4.398-.754-5.718-2.261-1.321-1.516-1.981-3.688-1.981-6.516 0-1.781.324-3.34.973-4.676.648-1.343 1.578-2.371 2.789-3.082 1.219-.719 2.644-1.078 4.277-1.078 1.664 0 3.336.402 5.016 1.207l-1.172 2.953a19.659 19.659 0 0 0-1.934-.797 5.778 5.778 0 0 0-1.91-.339zm10.594 7.781c0 1.297.211 2.277.633 2.941.43.664 1.125.996 2.086.996.953 0 1.636-.328 2.051-.984.421-.664.632-1.649.632-2.953 0-1.297-.211-2.27-.632-2.918-.422-.649-1.114-.973-2.075-.973-.953 0-1.64.324-2.062.973-.422.64-.633 1.613-.633 2.918zm9.059 0c0 2.133-.563 3.801-1.688 5.004-1.125 1.203-2.691 1.804-4.699 1.804-1.258 0-2.367-.273-3.328-.82-.961-.555-1.699-1.348-2.215-2.379-.516-1.031-.774-2.234-.774-3.609 0-2.141.559-3.805 1.676-4.992 1.117-1.188 2.688-1.782 4.711-1.782 1.258 0 2.367.274 3.328.821.961.547 1.7 1.332 2.215 2.355.516 1.024.774 2.223.774 3.598zM198.812 188h-3.574v-7.652c0-.946-.168-1.653-.504-2.121-.336-.477-.871-.715-1.605-.715-1 0-1.723.336-2.168 1.008-.445.664-.668 1.769-.668 3.316V188h-3.574v-13.102h2.73l.481 1.676h.199a3.736 3.736 0 0 1 1.641-1.429c.703-.329 1.5-.493 2.39-.493 1.524 0 2.68.414 3.469 1.243.789.82 1.183 2.007 1.183 3.562V188zm9 .234c-4.078 0-6.117-2.238-6.117-6.714 0-2.227.555-3.926 1.664-5.098 1.11-1.18 2.7-1.77 4.77-1.77 1.516 0 2.875.297 4.078.891l-1.055 2.766a16.378 16.378 0 0 0-1.57-.551 4.918 4.918 0 0 0-1.453-.223c-1.859 0-2.789 1.32-2.789 3.961 0 2.563.93 3.844 2.789 3.844.687 0 1.324-.09 1.91-.27a7.026 7.026 0 0 0 1.758-.867v3.059a5.733 5.733 0 0 1-1.758.761c-.586.141-1.328.211-2.227.211zm16.313-.234-.48-1.676h-.188c-.383.61-.926 1.082-1.629 1.418-.703.328-1.504.492-2.402.492-1.539 0-2.699-.41-3.481-1.23-.781-.828-1.172-2.016-1.172-3.563v-8.543h3.575v7.653c0 .945.168 1.656.504 2.133.336.468.871.703 1.605.703 1 0 1.723-.332 2.168-.996.445-.672.668-1.782.668-3.329v-6.164h3.574V188h-2.742zm13.805-13.348c.484 0 .886.036 1.207.106l-.27 3.351a4.098 4.098 0 0 0-1.055-.117c-1.14 0-2.031.293-2.671.879-.633.586-.95 1.406-.95 2.461V188h-3.574v-13.102h2.707l.528 2.204h.175a4.891 4.891 0 0 1 1.641-1.77 4.063 4.063 0 0 1 2.262-.68zm10.898 0c.484 0 .887.036 1.207.106l-.269 3.351a4.103 4.103 0 0 0-1.055-.117c-1.141 0-2.031.293-2.672.879-.633.586-.949 1.406-.949 2.461V188h-3.574v-13.102h2.707l.527 2.204h.176a4.889 4.889 0 0 1 1.64-1.77 4.068 4.068 0 0 1 2.262-.68zm9.012 2.543c-.758 0-1.352.243-1.781.727-.43.476-.676 1.156-.739 2.039h5.016c-.016-.883-.246-1.563-.691-2.039-.446-.484-1.047-.727-1.805-.727zm.504 11.039c-2.11 0-3.758-.582-4.946-1.746-1.187-1.164-1.781-2.812-1.781-4.945 0-2.195.547-3.891 1.641-5.086 1.101-1.203 2.621-1.805 4.558-1.805 1.852 0 3.293.528 4.325 1.582 1.031 1.055 1.547 2.512 1.547 4.371v1.735h-8.45c.039 1.015.34 1.808.903 2.379.562.57 1.351.855 2.367.855.789 0 1.535-.082 2.238-.246a11.206 11.206 0 0 0 2.203-.785v2.766a8.215 8.215 0 0 1-2.004.691c-.711.156-1.578.234-2.601.234zm20.344-.234h-3.575v-7.652c0-.946-.168-1.653-.504-2.121-.336-.477-.871-.715-1.605-.715-1 0-1.723.336-2.168 1.008-.445.664-.668 1.769-.668 3.316V188h-3.574v-13.102h2.73l.481 1.676h.199a3.736 3.736 0 0 1 1.641-1.429c.703-.329 1.5-.493 2.39-.493 1.524 0 2.68.414 3.469 1.243.789.82 1.184 2.007 1.184 3.562V188zm9.199-2.613c.625 0 1.375-.137 2.25-.41v2.66c-.891.398-1.985.597-3.282.597-1.429 0-2.472-.359-3.128-1.078-.649-.726-.973-1.812-.973-3.258v-6.316h-1.711v-1.512l1.969-1.195 1.031-2.766h2.285v2.789h3.668v2.684h-3.668v6.316c0 .508.141.883.422 1.125.289.243.668.364 1.137.364zm21.539-2.145c0 1.547-.559 2.766-1.676 3.656-1.109.891-2.656 1.336-4.641 1.336-1.828 0-3.445-.343-4.851-1.031v-3.375c1.156.516 2.133.879 2.93 1.09.804.211 1.539.316 2.203.316.797 0 1.406-.152 1.828-.457.429-.304.644-.757.644-1.359 0-.336-.093-.633-.281-.891-.187-.265-.465-.519-.832-.761-.359-.243-1.098-.629-2.215-1.161-1.047-.492-1.832-.964-2.355-1.417a5.316 5.316 0 0 1-1.254-1.583c-.313-.601-.469-1.304-.469-2.109 0-1.516.512-2.707 1.535-3.574 1.031-.867 2.453-1.301 4.266-1.301.89 0 1.738.106 2.543.317.812.21 1.66.507 2.543.89l-1.172 2.824c-.914-.375-1.672-.636-2.274-.785a7.238 7.238 0 0 0-1.757-.222c-.688 0-1.215.16-1.582.48-.368.32-.551.738-.551 1.254 0 .32.074.601.222.844.149.234.383.465.704.691.328.219 1.097.617 2.308 1.195 1.602.766 2.699 1.536 3.293 2.309.594.766.891 1.707.891 2.824zm8.25-6.047c-.758 0-1.352.243-1.781.727-.43.476-.676 1.156-.739 2.039h5.016c-.016-.883-.246-1.563-.692-2.039-.445-.484-1.046-.727-1.804-.727zm.504 11.039c-2.11 0-3.758-.582-4.946-1.746-1.187-1.164-1.781-2.812-1.781-4.945 0-2.195.547-3.891 1.641-5.086 1.101-1.203 2.621-1.805 4.558-1.805 1.852 0 3.293.528 4.325 1.582 1.031 1.055 1.546 2.512 1.546 4.371v1.735h-8.449c.039 1.015.34 1.808.903 2.379.562.57 1.351.855 2.367.855.789 0 1.535-.082 2.238-.246a11.206 11.206 0 0 0 2.203-.785v2.766a8.215 8.215 0 0 1-2.004.691c-.711.156-1.578.234-2.601.234zm17.39-4.125c0 1.344-.468 2.368-1.406 3.071-.93.703-2.324 1.054-4.184 1.054-.953 0-1.765-.066-2.437-.199a8.976 8.976 0 0 1-1.887-.562v-2.953c.664.312 1.41.574 2.239.785.835.211 1.57.316 2.203.316 1.297 0 1.945-.375 1.945-1.125 0-.281-.086-.508-.258-.68-.172-.179-.469-.378-.89-.597a20.396 20.396 0 0 0-1.688-.785c-1.008-.422-1.75-.813-2.227-1.172-.468-.36-.812-.77-1.031-1.231-.211-.469-.316-1.043-.316-1.722 0-1.164.449-2.063 1.347-2.696.907-.64 2.188-.961 3.844-.961 1.578 0 3.114.344 4.606 1.032l-1.078 2.578a19.837 19.837 0 0 0-1.84-.692 5.805 5.805 0 0 0-1.746-.269c-1.055 0-1.582.285-1.582.855 0 .321.168.598.504.832.343.235 1.089.582 2.238 1.043 1.023.414 1.773.801 2.25 1.16.476.36.828.774 1.054 1.243.227.468.34 1.027.34 1.675zm11.93 0c0 1.344-.469 2.368-1.406 3.071-.93.703-2.324 1.054-4.184 1.054-.953 0-1.765-.066-2.437-.199a8.976 8.976 0 0 1-1.887-.562v-2.953c.664.312 1.41.574 2.238.785.836.211 1.571.316 2.203.316 1.297 0 1.946-.375 1.946-1.125 0-.281-.086-.508-.258-.68-.172-.179-.469-.378-.891-.597a20.353 20.353 0 0 0-1.687-.785c-1.008-.422-1.75-.813-2.227-1.172-.469-.36-.812-.77-1.031-1.231-.211-.469-.317-1.043-.317-1.722 0-1.164.45-2.063 1.348-2.696.906-.64 2.188-.961 3.844-.961 1.578 0 3.113.344 4.605 1.032l-1.078 2.578a19.626 19.626 0 0 0-1.84-.692 5.795 5.795 0 0 0-1.746-.269c-1.054 0-1.582.285-1.582.855 0 .321.168.598.504.832.344.235 1.09.582 2.238 1.043 1.024.414 1.774.801 2.25 1.16.477.36.829.774 1.055 1.243.227.468.34 1.027.34 1.675zm2.637-12.597c0-1.164.648-1.746 1.945-1.746 1.297 0 1.945.582 1.945 1.746 0 .554-.164.988-.492 1.3-.32.305-.805.458-1.453.458-1.297 0-1.945-.586-1.945-1.758zM353.863 188h-3.574v-13.102h3.574V188zm6.61-6.574c0 1.297.211 2.277.632 2.941.43.664 1.125.996 2.086.996.954 0 1.637-.328 2.051-.984.422-.664.633-1.649.633-2.953 0-1.297-.211-2.27-.633-2.918-.422-.649-1.113-.973-2.074-.973-.953 0-1.641.324-2.063.973-.421.64-.632 1.613-.632 2.918zm9.058 0c0 2.133-.562 3.801-1.687 5.004-1.125 1.203-2.692 1.804-4.699 1.804-1.258 0-2.368-.273-3.329-.82-.961-.555-1.699-1.348-2.214-2.379-.516-1.031-.774-2.234-.774-3.609 0-2.141.559-3.805 1.676-4.992 1.117-1.188 2.687-1.782 4.711-1.782 1.258 0 2.367.274 3.328.821.961.547 1.699 1.332 2.215 2.355.515 1.024.773 2.223.773 3.598zM384.578 188h-3.574v-7.652c0-.946-.168-1.653-.504-2.121-.336-.477-.871-.715-1.605-.715-1 0-1.723.336-2.168 1.008-.446.664-.668 1.769-.668 3.316V188h-3.575v-13.102h2.731l.48 1.676h.2a3.74 3.74 0 0 1 1.64-1.429c.703-.329 1.5-.493 2.391-.493 1.523 0 2.679.414 3.469 1.243.789.82 1.183 2.007 1.183 3.562V188zm24.41-8.73c0 2.82-.804 4.98-2.414 6.48-1.601 1.5-3.918 2.25-6.949 2.25h-4.852v-17.133h5.379c2.797 0 4.969.738 6.516 2.215 1.547 1.477 2.32 3.539 2.32 6.188zm-3.773.093c0-3.679-1.625-5.519-4.875-5.519h-1.934V185h1.559c3.5 0 5.25-1.879 5.25-5.637zm12.469-2.168c-.758 0-1.352.243-1.782.727-.429.476-.675 1.156-.738 2.039h5.016c-.016-.883-.246-1.563-.692-2.039-.445-.484-1.047-.727-1.804-.727zm.504 11.039c-2.11 0-3.758-.582-4.946-1.746-1.187-1.164-1.781-2.812-1.781-4.945 0-2.195.547-3.891 1.641-5.086 1.101-1.203 2.621-1.805 4.558-1.805 1.852 0 3.293.528 4.324 1.582 1.032 1.055 1.547 2.512 1.547 4.371v1.735h-8.449c.039 1.015.34 1.808.902 2.379.563.57 1.352.855 2.368.855.789 0 1.535-.082 2.238-.246a11.23 11.23 0 0 0 2.203-.785v2.766a8.215 8.215 0 0 1-2.004.691c-.711.156-1.578.234-2.601.234zm13.769-2.847c.625 0 1.375-.137 2.25-.41v2.66c-.891.398-1.984.597-3.281.597-1.43 0-2.473-.359-3.129-1.078-.649-.726-.973-1.812-.973-3.258v-6.316h-1.711v-1.512l1.969-1.195 1.031-2.766h2.285v2.789h3.668v2.684h-3.668v6.316c0 .508.141.883.422 1.125.289.243.668.364 1.137.364zm10.336-8.192c-.758 0-1.352.243-1.781.727-.43.476-.676 1.156-.739 2.039h5.016c-.016-.883-.246-1.563-.691-2.039-.446-.484-1.047-.727-1.805-.727zm.504 11.039c-2.109 0-3.758-.582-4.945-1.746-1.188-1.164-1.782-2.812-1.782-4.945 0-2.195.547-3.891 1.641-5.086 1.101-1.203 2.621-1.805 4.559-1.805 1.851 0 3.292.528 4.324 1.582 1.031 1.055 1.547 2.512 1.547 4.371v1.735h-8.45c.039 1.015.34 1.808.903 2.379.562.57 1.351.855 2.367.855.789 0 1.535-.082 2.238-.246a11.206 11.206 0 0 0 2.203-.785v2.766a8.215 8.215 0 0 1-2.004.691c-.71.156-1.578.234-2.601.234zm13.57 0c-4.078 0-6.117-2.238-6.117-6.714 0-2.227.555-3.926 1.664-5.098 1.109-1.18 2.699-1.77 4.77-1.77 1.515 0 2.875.297 4.078.891l-1.055 2.766a16.378 16.378 0 0 0-1.57-.551 4.923 4.923 0 0 0-1.453-.223c-1.86 0-2.789 1.32-2.789 3.961 0 2.563.929 3.844 2.789 3.844.687 0 1.324-.09 1.91-.27a7.026 7.026 0 0 0 1.758-.867v3.059a5.744 5.744 0 0 1-1.758.761c-.586.141-1.328.211-2.227.211zm12.551-2.847c.625 0 1.375-.137 2.25-.41v2.66c-.891.398-1.984.597-3.281.597-1.43 0-2.473-.359-3.129-1.078-.649-.726-.973-1.812-.973-3.258v-6.316h-1.711v-1.512l1.969-1.195 1.031-2.766h2.285v2.789h3.668v2.684h-3.668v6.316c0 .508.141.883.422 1.125.289.243.668.364 1.137.364zm10.336-8.192c-.758 0-1.352.243-1.781.727-.43.476-.676 1.156-.739 2.039h5.016c-.016-.883-.246-1.563-.691-2.039-.446-.484-1.047-.727-1.805-.727zm.504 11.039c-2.11 0-3.758-.582-4.946-1.746-1.187-1.164-1.781-2.812-1.781-4.945 0-2.195.547-3.891 1.641-5.086 1.101-1.203 2.621-1.805 4.558-1.805 1.852 0 3.293.528 4.325 1.582 1.031 1.055 1.547 2.512 1.547 4.371v1.735h-8.45c.039 1.015.34 1.808.903 2.379.562.57 1.351.855 2.367.855.789 0 1.535-.082 2.238-.246a11.206 11.206 0 0 0 2.203-.785v2.766a8.215 8.215 0 0 1-2.004.691c-.711.156-1.578.234-2.601.234zm12.398 0c-1.539 0-2.75-.597-3.633-1.793-.875-1.195-1.312-2.851-1.312-4.968 0-2.149.445-3.821 1.336-5.016.898-1.203 2.133-1.805 3.703-1.805 1.648 0 2.906.641 3.773 1.922h.118c-.18-.976-.27-1.847-.27-2.613v-4.195h3.586V188h-2.742l-.692-1.699h-.152c-.812 1.289-2.051 1.933-3.715 1.933zm1.254-2.847c.914 0 1.582-.266 2.004-.797.43-.531.664-1.434.703-2.707v-.387c0-1.406-.219-2.414-.656-3.023-.43-.61-1.133-.914-2.109-.914-.797 0-1.418.339-1.864 1.019-.437.672-.656 1.652-.656 2.942 0 1.289.223 2.257.668 2.906.445.64 1.082.961 1.91.961z" fill="#333739"/>
        <path d="M101.203 222h-1.312l-2.305-7.648c-.11-.339-.232-.766-.367-1.282-.136-.515-.206-.825-.211-.929-.115.687-.297 1.44-.547 2.257L94.227 222h-1.313l-3.039-11.422h1.406l1.805 7.055c.25.989.432 1.885.547 2.687.14-.953.349-1.885.625-2.797l2.047-6.945h1.406l2.148 7.008c.25.807.461 1.719.633 2.734.099-.739.287-1.64.563-2.703l1.797-7.039h1.406L101.203 222zm8.266.156c-1.266 0-2.266-.385-3-1.156-.729-.771-1.094-1.841-1.094-3.211 0-1.38.339-2.477 1.016-3.289.682-.812 1.596-1.219 2.742-1.219 1.073 0 1.922.354 2.547 1.063.625.703.937 1.633.937 2.789v.82h-5.898c.026 1.005.278 1.768.758 2.289.484.521 1.164.781 2.039.781.922 0 1.833-.192 2.734-.578v1.157a6.647 6.647 0 0 1-1.305.421c-.406.089-.898.133-1.476.133zm-.352-7.789c-.687 0-1.237.224-1.648.672-.407.448-.646 1.068-.719 1.859h4.477c0-.817-.183-1.442-.547-1.875-.365-.437-.886-.656-1.563-.656zM124.852 222v-5.539c0-.698-.159-1.219-.477-1.563-.318-.343-.815-.515-1.492-.515-.896 0-1.552.242-1.969.726-.417.485-.625 1.284-.625 2.399V222h-1.297v-8.562h1.055l.211 1.171h.062a2.625 2.625 0 0 1 1.118-.976 3.587 3.587 0 0 1 1.601-.352c1.031 0 1.807.25 2.328.75.521.495.781 1.289.781 2.383V222h-1.296zm11.359-4.289c0 1.396-.352 2.487-1.055 3.273-.703.782-1.674 1.172-2.914 1.172-.765 0-1.445-.179-2.039-.539-.594-.359-1.052-.875-1.375-1.547-.323-.672-.484-1.458-.484-2.359 0-1.396.349-2.482 1.047-3.258.698-.781 1.666-1.172 2.906-1.172 1.198 0 2.148.399 2.851 1.196.709.796 1.063 1.875 1.063 3.234zm-6.523 0c0 1.094.218 1.927.656 2.5.437.573 1.08.859 1.929.859s1.493-.284 1.93-.851c.443-.573.664-1.409.664-2.508 0-1.089-.221-1.914-.664-2.477-.437-.567-1.086-.851-1.945-.851-.849 0-1.49.278-1.922.836-.432.557-.648 1.388-.648 2.492zm11.57 3.375c.229 0 .45-.016.664-.047.213-.036.383-.073.508-.109v.992c-.141.068-.349.122-.625.164-.271.047-.516.07-.735.07-1.656 0-2.484-.872-2.484-2.617v-5.094h-1.227v-.625l1.227-.539.547-1.828h.75v1.985h2.484v1.007h-2.484v5.039c0 .516.122.912.367 1.188.245.276.581.414 1.008.414zm4.187.914h-1.297v-8.562h1.297V222zm-1.406-10.883c0-.297.073-.513.219-.648a.755.755 0 0 1 .547-.211c.208 0 .388.07.539.211.151.14.226.357.226.648 0 .292-.075.511-.226.656a.763.763 0 0 1-.539.211.755.755 0 0 1-.547-.211c-.146-.145-.219-.364-.219-.656zm7.578 11.039c-1.239 0-2.2-.38-2.883-1.14-.677-.766-1.015-1.847-1.015-3.243 0-1.432.343-2.539 1.031-3.32.693-.781 1.677-1.172 2.953-1.172.412 0 .823.045 1.235.133.411.089.734.193.968.313l-.398 1.101a5.902 5.902 0 0 0-.938-.281 4.055 4.055 0 0 0-.898-.117c-1.74 0-2.61 1.109-2.61 3.328 0 1.052.211 1.859.633 2.422.427.562 1.058.843 1.891.843.713 0 1.445-.153 2.195-.461v1.149c-.573.297-1.294.445-2.164.445zm7.821 0c-1.266 0-2.266-.385-3-1.156-.73-.771-1.094-1.841-1.094-3.211 0-1.38.338-2.477 1.015-3.289.683-.812 1.597-1.219 2.743-1.219 1.072 0 1.921.354 2.546 1.063.625.703.938 1.633.938 2.789v.82h-5.898c.026 1.005.278 1.768.757 2.289.485.521 1.164.781 2.039.781.922 0 1.834-.192 2.735-.578v1.157a6.668 6.668 0 0 1-1.305.421c-.406.089-.898.133-1.476.133zm-.352-7.789c-.688 0-1.237.224-1.648.672-.407.448-.646 1.068-.719 1.859h4.476c0-.817-.182-1.442-.547-1.875-.364-.437-.885-.656-1.562-.656zm11.547 6.485h-.071c-.598.869-1.494 1.304-2.687 1.304-1.12 0-1.992-.383-2.617-1.148-.62-.766-.93-1.854-.93-3.266 0-1.411.313-2.508.938-3.289.625-.781 1.494-1.172 2.609-1.172 1.161 0 2.052.422 2.672 1.266h.101l-.054-.617-.032-.602v-3.484h1.297V222h-1.054l-.172-1.148zm-2.594.218c.885 0 1.526-.239 1.922-.718.401-.485.601-1.263.601-2.336v-.274c0-1.213-.203-2.078-.609-2.594-.401-.52-1.044-.781-1.93-.781-.76 0-1.343.297-1.75.891-.401.588-.601 1.422-.601 2.5 0 1.094.2 1.919.601 2.476.401.558.99.836 1.766.836zm9.375-7.632h1.391l1.875 4.882c.411 1.115.666 1.92.765 2.414h.063c.068-.265.208-.718.422-1.359.218-.646.927-2.625 2.125-5.937h1.39l-3.679 9.75c-.365.963-.792 1.645-1.282 2.046-.484.407-1.08.61-1.789.61-.396 0-.786-.045-1.172-.133v-1.039c.287.062.607.094.961.094.891 0 1.526-.5 1.907-1.5l.476-1.219-3.453-8.609zm16.813 4.273c0 1.396-.352 2.487-1.055 3.273-.703.782-1.675 1.172-2.914 1.172-.766 0-1.446-.179-2.039-.539-.594-.359-1.052-.875-1.375-1.547-.323-.672-.485-1.458-.485-2.359 0-1.396.349-2.482 1.047-3.258.698-.781 1.667-1.172 2.906-1.172 1.198 0 2.149.399 2.852 1.196.708.796 1.063 1.875 1.063 3.234zm-6.524 0c0 1.094.219 1.927.656 2.5.438.573 1.081.859 1.93.859s1.492-.284 1.93-.851c.442-.573.664-1.409.664-2.508 0-1.089-.222-1.914-.664-2.477-.438-.567-1.086-.851-1.946-.851-.849 0-1.489.278-1.921.836-.433.557-.649 1.388-.649 2.492zm10.024-4.273v5.554c0 .698.158 1.219.476 1.563.318.343.815.515 1.492.515.896 0 1.55-.244 1.961-.734.417-.49.625-1.289.625-2.398v-4.5h1.297V222h-1.07l-.188-1.148h-.07a2.586 2.586 0 0 1-1.109.968c-.469.224-1.006.336-1.61.336-1.041 0-1.823-.247-2.343-.742-.516-.495-.774-1.286-.774-2.375v-5.601h1.313zM216.352 222v-5.539c0-.698-.159-1.219-.477-1.563-.318-.343-.815-.515-1.492-.515-.901 0-1.56.245-1.977.734-.411.49-.617 1.292-.617 2.406V222h-1.297v-12.156h1.297v3.679c0 .443-.021.81-.062 1.102h.078a2.63 2.63 0 0 1 1.086-.969c.474-.239 1.013-.359 1.617-.359 1.047 0 1.831.25 2.351.75.526.495.789 1.284.789 2.367V222h-1.296zm9.234 0-.258-1.219h-.062c-.427.537-.855.901-1.282 1.094-.422.187-.95.281-1.586.281-.849 0-1.515-.218-2-.656-.479-.438-.718-1.06-.718-1.867 0-1.729 1.382-2.636 4.148-2.719l1.453-.047v-.531c0-.672-.146-1.167-.437-1.484-.287-.323-.748-.485-1.383-.485-.714 0-1.521.219-2.422.656l-.398-.992a6.085 6.085 0 0 1 1.382-.539 6.07 6.07 0 0 1 1.516-.195c1.021 0 1.776.226 2.266.68.494.453.742 1.179.742 2.179V222h-.961zm-2.93-.914c.808 0 1.44-.221 1.899-.664.463-.443.695-1.063.695-1.86v-.773l-1.297.055c-1.031.036-1.776.198-2.234.484-.453.281-.68.721-.68 1.32 0 .469.141.826.422 1.071.286.245.685.367 1.195.367zm8.446.914-3.25-8.562h1.39l1.844 5.078c.417 1.187.661 1.958.734 2.312h.063c.057-.276.237-.846.539-1.711.307-.87.992-2.763 2.055-5.679h1.39l-3.25 8.562h-1.515zm9.757.156c-1.265 0-2.265-.385-3-1.156-.729-.771-1.093-1.841-1.093-3.211 0-1.38.338-2.477 1.015-3.289.683-.812 1.597-1.219 2.742-1.219 1.073 0 1.922.354 2.547 1.063.625.703.938 1.633.938 2.789v.82h-5.899c.026 1.005.279 1.768.758 2.289.485.521 1.164.781 2.039.781.922 0 1.834-.192 2.735-.578v1.157a6.69 6.69 0 0 1-1.305.421c-.406.089-.898.133-1.477.133zm-.351-7.789c-.688 0-1.237.224-1.649.672-.406.448-.645 1.068-.718 1.859h4.476c0-.817-.182-1.442-.547-1.875-.364-.437-.885-.656-1.562-.656zm15.14 7.633-.257-1.219h-.063c-.427.537-.854.901-1.281 1.094-.422.187-.951.281-1.586.281-.849 0-1.516-.218-2-.656-.479-.438-.719-1.06-.719-1.867 0-1.729 1.383-2.636 4.149-2.719l1.453-.047v-.531c0-.672-.146-1.167-.438-1.484-.286-.323-.747-.485-1.383-.485-.713 0-1.52.219-2.421.656l-.399-.992a6.112 6.112 0 0 1 1.383-.539 6.058 6.058 0 0 1 1.516-.195c1.02 0 1.776.226 2.265.68.495.453.742 1.179.742 2.179V222h-.961zm-2.929-.914c.807 0 1.44-.221 1.898-.664.464-.443.695-1.063.695-1.86v-.773l-1.296.055c-1.032.036-1.776.198-2.235.484-.453.281-.679.721-.679 1.32 0 .469.14.826.421 1.071.287.245.685.367 1.196.367zm12.429.914v-5.539c0-.698-.158-1.219-.476-1.563-.318-.343-.815-.515-1.492-.515-.896 0-1.552.242-1.969.726-.417.485-.625 1.284-.625 2.399V222h-1.297v-8.562h1.055l.211 1.171h.062a2.628 2.628 0 0 1 1.117-.976 3.59 3.59 0 0 1 1.602-.352c1.031 0 1.807.25 2.328.75.521.495.781 1.289.781 2.383V222h-1.297zm11.36-4.289c0 1.396-.352 2.487-1.055 3.273-.703.782-1.674 1.172-2.914 1.172-.766 0-1.445-.179-2.039-.539-.594-.359-1.052-.875-1.375-1.547-.323-.672-.484-1.458-.484-2.359 0-1.396.349-2.482 1.047-3.258.697-.781 1.666-1.172 2.906-1.172 1.198 0 2.148.399 2.851 1.196.709.796 1.063 1.875 1.063 3.234zm-6.524 0c0 1.094.219 1.927.657 2.5.437.573 1.08.859 1.929.859s1.492-.284 1.93-.851c.443-.573.664-1.409.664-2.508 0-1.089-.221-1.914-.664-2.477-.438-.567-1.086-.851-1.945-.851-.849 0-1.49.278-1.922.836-.432.557-.649 1.388-.649 2.492zm11.571 3.375c.229 0 .45-.016.664-.047.213-.036.383-.073.508-.109v.992c-.141.068-.349.122-.625.164-.271.047-.516.07-.735.07-1.656 0-2.484-.872-2.484-2.617v-5.094h-1.227v-.625l1.227-.539.547-1.828h.75v1.985h2.484v1.007h-2.484v5.039c0 .516.122.912.367 1.188.245.276.581.414 1.008.414zm8.75.914v-5.539c0-.698-.159-1.219-.477-1.563-.318-.343-.815-.515-1.492-.515-.901 0-1.56.245-1.977.734-.411.49-.617 1.292-.617 2.406V222h-1.297v-12.156h1.297v3.679c0 .443-.021.81-.062 1.102h.078a2.63 2.63 0 0 1 1.086-.969c.474-.239 1.013-.359 1.617-.359 1.047 0 1.831.25 2.351.75.527.495.79 1.284.79 2.367V222h-1.297zm7.586.156c-1.266 0-2.266-.385-3-1.156-.73-.771-1.094-1.841-1.094-3.211 0-1.38.338-2.477 1.015-3.289.683-.812 1.597-1.219 2.743-1.219 1.073 0 1.922.354 2.547 1.063.625.703.937 1.633.937 2.789v.82h-5.898c.026 1.005.278 1.768.757 2.289.485.521 1.164.781 2.04.781.921 0 1.833-.192 2.734-.578v1.157a6.647 6.647 0 0 1-1.305.421c-.406.089-.898.133-1.476.133zm-.352-7.789c-.687 0-1.237.224-1.648.672-.407.448-.646 1.068-.719 1.859h4.476c0-.817-.182-1.442-.546-1.875-.365-.437-.886-.656-1.563-.656zm9.625-1.086c.38 0 .721.031 1.024.094l-.18 1.203a4.426 4.426 0 0 0-.938-.117c-.692 0-1.286.281-1.781.844-.49.562-.734 1.263-.734 2.101V222h-1.297v-8.562h1.07l.149 1.585h.062c.318-.557.701-.987 1.149-1.289.447-.302.94-.453 1.476-.453zM319.211 222l-.258-1.219h-.062c-.427.537-.855.901-1.282 1.094-.421.187-.95.281-1.586.281-.849 0-1.515-.218-2-.656-.479-.438-.718-1.06-.718-1.867 0-1.729 1.383-2.636 4.148-2.719l1.453-.047v-.531c0-.672-.146-1.167-.437-1.484-.287-.323-.748-.485-1.383-.485-.714 0-1.521.219-2.422.656l-.398-.992a6.104 6.104 0 0 1 1.382-.539 6.07 6.07 0 0 1 1.516-.195c1.021 0 1.776.226 2.266.68.494.453.742 1.179.742 2.179V222h-.961zm-2.93-.914c.808 0 1.44-.221 1.899-.664.463-.443.695-1.063.695-1.86v-.773l-1.297.055c-1.031.036-1.776.198-2.234.484-.453.281-.68.721-.68 1.32 0 .469.141.826.422 1.071.286.245.685.367 1.195.367zm9.992 1.07c-1.239 0-2.2-.38-2.882-1.14-.677-.766-1.016-1.847-1.016-3.243 0-1.432.344-2.539 1.031-3.32.693-.781 1.677-1.172 2.953-1.172.412 0 .823.045 1.235.133.411.089.734.193.968.313l-.398 1.101a5.89 5.89 0 0 0-.937-.281 4.063 4.063 0 0 0-.899-.117c-1.739 0-2.609 1.109-2.609 3.328 0 1.052.211 1.859.633 2.422.427.562 1.057.843 1.89.843.714 0 1.446-.153 2.196-.461v1.149c-.573.297-1.295.445-2.165.445zm6.969-1.07c.229 0 .451-.016.664-.047.214-.036.383-.073.508-.109v.992c-.141.068-.349.122-.625.164-.271.047-.516.07-.734.07-1.657 0-2.485-.872-2.485-2.617v-5.094h-1.226v-.625l1.226-.539.547-1.828h.75v1.985h2.485v1.007h-2.485v5.039c0 .516.123.912.367 1.188.245.276.581.414 1.008.414zm4.188.914h-1.297v-8.562h1.297V222zm-1.407-10.883c0-.297.073-.513.219-.648a.755.755 0 0 1 .547-.211c.208 0 .388.07.539.211.151.14.227.357.227.648 0 .292-.076.511-.227.656a.763.763 0 0 1-.539.211.755.755 0 0 1-.547-.211c-.146-.145-.219-.364-.219-.656zM342.055 222l-3.25-8.562h1.39l1.844 5.078c.417 1.187.662 1.958.734 2.312h.063c.057-.276.237-.846.539-1.711.307-.87.992-2.763 2.055-5.679h1.39L343.57 222h-1.515zm9.757.156c-1.265 0-2.265-.385-3-1.156-.729-.771-1.093-1.841-1.093-3.211 0-1.38.338-2.477 1.015-3.289.683-.812 1.597-1.219 2.743-1.219 1.072 0 1.921.354 2.546 1.063.625.703.938 1.633.938 2.789v.82h-5.899c.027 1.005.279 1.768.758 2.289.485.521 1.164.781 2.039.781.922 0 1.834-.192 2.735-.578v1.157a6.668 6.668 0 0 1-1.305.421c-.406.089-.898.133-1.477.133zm-.351-7.789c-.688 0-1.237.224-1.649.672-.406.448-.645 1.068-.718 1.859h4.476c0-.817-.182-1.442-.547-1.875-.364-.437-.885-.656-1.562-.656zm15.398 5.297c0 .797-.297 1.412-.89 1.844-.594.432-1.427.648-2.5.648-1.136 0-2.021-.179-2.657-.539v-1.203a6.49 6.49 0 0 0 1.321.492c.474.12.929.18 1.367.18.677 0 1.198-.107 1.562-.32.365-.219.547-.55.547-.993 0-.333-.145-.617-.437-.851-.287-.24-.849-.521-1.688-.844-.796-.297-1.364-.555-1.703-.773a2.42 2.42 0 0 1-.75-.758c-.161-.281-.242-.617-.242-1.008 0-.698.284-1.247.852-1.648.567-.407 1.346-.61 2.336-.61a6.84 6.84 0 0 1 2.703.563l-.461 1.054c-.86-.354-1.638-.531-2.336-.531-.615 0-1.078.097-1.391.289-.312.193-.469.459-.469.797a.99.99 0 0 0 .172.586c.12.162.31.315.571.461.26.146.76.357 1.5.633 1.015.37 1.7.742 2.054 1.117.36.375.539.846.539 1.414zm5.735 2.492c-1.266 0-2.266-.385-3-1.156-.729-.771-1.094-1.841-1.094-3.211 0-1.38.339-2.477 1.016-3.289.682-.812 1.596-1.219 2.742-1.219 1.073 0 1.922.354 2.547 1.063.625.703.937 1.633.937 2.789v.82h-5.898c.026 1.005.278 1.768.758 2.289.484.521 1.164.781 2.039.781.921 0 1.833-.192 2.734-.578v1.157a6.647 6.647 0 0 1-1.305.421c-.406.089-.898.133-1.476.133zm-.352-7.789c-.687 0-1.237.224-1.648.672-.406.448-.646 1.068-.719 1.859h4.477c0-.817-.183-1.442-.547-1.875-.365-.437-.886-.656-1.563-.656zm11.242 5.297c0 .797-.296 1.412-.89 1.844-.594.432-1.427.648-2.5.648-1.136 0-2.021-.179-2.656-.539v-1.203c.411.208.851.372 1.32.492.474.12.93.18 1.367.18.677 0 1.198-.107 1.563-.32.364-.219.546-.55.546-.993 0-.333-.145-.617-.437-.851-.287-.24-.849-.521-1.688-.844-.797-.297-1.364-.555-1.703-.773a2.42 2.42 0 0 1-.75-.758c-.161-.281-.242-.617-.242-1.008 0-.698.284-1.247.852-1.648.567-.407 1.346-.61 2.336-.61a6.84 6.84 0 0 1 2.703.563l-.461 1.054c-.86-.354-1.638-.531-2.336-.531-.615 0-1.078.097-1.391.289-.312.193-.469.459-.469.797a.99.99 0 0 0 .172.586c.12.162.31.315.571.461.26.146.76.357 1.5.633 1.015.37 1.7.742 2.054 1.117.36.375.539.846.539 1.414zm7.641 0c0 .797-.297 1.412-.891 1.844-.593.432-1.427.648-2.5.648-1.135 0-2.02-.179-2.656-.539v-1.203c.412.208.852.372 1.32.492.474.12.93.18 1.368.18.677 0 1.198-.107 1.562-.32.365-.219.547-.55.547-.993 0-.333-.146-.617-.437-.851-.287-.24-.849-.521-1.688-.844-.797-.297-1.365-.555-1.703-.773a2.42 2.42 0 0 1-.75-.758c-.162-.281-.242-.617-.242-1.008 0-.698.284-1.247.851-1.648.568-.407 1.347-.61 2.336-.61.922 0 1.823.188 2.703.563l-.461 1.054c-.859-.354-1.638-.531-2.336-.531-.614 0-1.078.097-1.39.289-.313.193-.469.459-.469.797 0 .229.057.425.172.586.12.162.31.315.57.461.261.146.761.357 1.5.633 1.016.37 1.701.742 2.055 1.117.359.375.539.846.539 1.414zm3.414 2.336h-1.297v-8.562h1.297V222zm-1.406-10.883c0-.297.073-.513.219-.648a.753.753 0 0 1 .546-.211c.209 0 .388.07.54.211.151.14.226.357.226.648 0 .292-.075.511-.226.656a.765.765 0 0 1-.54.211.753.753 0 0 1-.546-.211c-.146-.145-.219-.364-.219-.656zm11.547 6.594c0 1.396-.352 2.487-1.055 3.273-.703.782-1.674 1.172-2.914 1.172-.766 0-1.445-.179-2.039-.539-.594-.359-1.052-.875-1.375-1.547-.323-.672-.485-1.458-.485-2.359 0-1.396.349-2.482 1.047-3.258.698-.781 1.667-1.172 2.907-1.172 1.198 0 2.148.399 2.851 1.196.709.796 1.063 1.875 1.063 3.234zm-6.524 0c0 1.094.219 1.927.656 2.5.438.573 1.081.859 1.93.859s1.492-.284 1.93-.851c.443-.573.664-1.409.664-2.508 0-1.089-.221-1.914-.664-2.477-.438-.567-1.086-.851-1.945-.851-.849 0-1.49.278-1.922.836-.433.557-.649 1.388-.649 2.492zM412.82 222v-5.539c0-.698-.159-1.219-.476-1.563-.318-.343-.815-.515-1.492-.515-.896 0-1.553.242-1.969.726-.417.485-.625 1.284-.625 2.399V222h-1.297v-8.562h1.055l.211 1.171h.062a2.628 2.628 0 0 1 1.117-.976 3.588 3.588 0 0 1 1.602-.352c1.031 0 1.807.25 2.328.75.521.495.781 1.289.781 2.383V222h-1.297zm3.782-.828c0-.349.078-.612.234-.789.161-.182.391-.274.687-.274.303 0 .537.092.704.274.171.177.257.44.257.789 0 .338-.086.599-.257.781-.172.182-.407.274-.704.274a.947.947 0 0 1-.664-.243c-.171-.166-.257-.437-.257-.812zm18.718-4.899c0 1.829-.463 3.266-1.39 4.313-.922 1.047-2.206 1.57-3.852 1.57-1.682 0-2.982-.513-3.898-1.539-.912-1.031-1.368-2.484-1.368-4.359 0-1.86.459-3.3 1.376-4.32.916-1.027 2.218-1.54 3.906-1.54 1.64 0 2.922.521 3.844 1.563.921 1.042 1.382 2.479 1.382 4.312zm-9.101 0c0 1.547.328 2.722.984 3.524.662.797 1.62 1.195 2.875 1.195 1.266 0 2.221-.398 2.867-1.195.646-.797.969-1.971.969-3.524 0-1.536-.323-2.7-.969-3.492-.64-.797-1.591-1.195-2.851-1.195-1.266 0-2.229.401-2.891 1.203-.656.797-.984 1.958-.984 3.484zm17.32 5.727v-5.539c0-.698-.159-1.219-.477-1.563-.317-.343-.815-.515-1.492-.515-.896 0-1.552.242-1.968.726-.417.485-.625 1.284-.625 2.399V222h-1.297v-8.562h1.054l.211 1.171h.063a2.623 2.623 0 0 1 1.117-.976 3.588 3.588 0 0 1 1.602-.352c1.031 0 1.807.25 2.328.75.521.495.781 1.289.781 2.383V222h-1.297zm5.266 0h-1.297v-12.156h1.297V222zm1.39-8.562h1.391l1.875 4.882c.411 1.115.667 1.92.766 2.414h.062c.068-.265.208-.718.422-1.359.219-.646.927-2.625 2.125-5.937h1.391l-3.68 9.75c-.365.963-.792 1.645-1.281 2.046-.485.407-1.081.61-1.789.61-.396 0-.787-.045-1.172-.133v-1.039c.286.062.606.094.961.094.89 0 1.526-.5 1.906-1.5l.476-1.219-3.453-8.609zm20.969 4.273c0 1.396-.352 2.487-1.055 3.273-.703.782-1.674 1.172-2.914 1.172-.765 0-1.445-.179-2.039-.539-.594-.359-1.052-.875-1.375-1.547-.323-.672-.484-1.458-.484-2.359 0-1.396.349-2.482 1.047-3.258.698-.781 1.666-1.172 2.906-1.172 1.198 0 2.148.399 2.852 1.196.708.796 1.062 1.875 1.062 3.234zm-6.523 0c0 1.094.218 1.927.656 2.5.437.573 1.081.859 1.93.859s1.492-.284 1.929-.851c.443-.573.664-1.409.664-2.508 0-1.089-.221-1.914-.664-2.477-.437-.567-1.086-.851-1.945-.851-.849 0-1.49.278-1.922.836-.432.557-.648 1.388-.648 2.492zM479.305 222v-5.539c0-.698-.159-1.219-.477-1.563-.318-.343-.815-.515-1.492-.515-.896 0-1.552.242-1.969.726-.416.485-.625 1.284-.625 2.399V222h-1.297v-8.562h1.055l.211 1.171h.062a2.625 2.625 0 0 1 1.118-.976 3.587 3.587 0 0 1 1.601-.352c1.031 0 1.807.25 2.328.75.521.495.782 1.289.782 2.383V222h-1.297zm7.586.156c-1.266 0-2.266-.385-3-1.156-.73-.771-1.094-1.841-1.094-3.211 0-1.38.338-2.477 1.015-3.289.683-.812 1.597-1.219 2.743-1.219 1.073 0 1.922.354 2.547 1.063.625.703.937 1.633.937 2.789v.82h-5.898c.026 1.005.278 1.768.757 2.289.485.521 1.164.781 2.04.781.921 0 1.833-.192 2.734-.578v1.157a6.647 6.647 0 0 1-1.305.421c-.406.089-.898.133-1.476.133zm-.352-7.789c-.687 0-1.237.224-1.648.672-.407.448-.646 1.068-.719 1.859h4.476c0-.817-.182-1.442-.546-1.875-.365-.437-.886-.656-1.563-.656zm15.399 5.297c0 .797-.297 1.412-.891 1.844-.594.432-1.427.648-2.5.648-1.136 0-2.021-.179-2.656-.539v-1.203c.411.208.851.372 1.32.492.474.12.93.18 1.367.18.677 0 1.198-.107 1.563-.32.364-.219.547-.55.547-.993 0-.333-.146-.617-.438-.851-.286-.24-.849-.521-1.688-.844-.796-.297-1.364-.555-1.703-.773a2.42 2.42 0 0 1-.75-.758c-.161-.281-.242-.617-.242-1.008 0-.698.284-1.247.852-1.648.567-.407 1.346-.61 2.336-.61.922 0 1.823.188 2.703.563l-.461 1.054c-.859-.354-1.638-.531-2.336-.531-.615 0-1.078.097-1.391.289-.312.193-.468.459-.468.797a.99.99 0 0 0 .171.586c.12.162.31.315.571.461.26.146.76.357 1.5.633 1.015.37 1.7.742 2.054 1.117.36.375.54.846.54 1.414zm5.734 2.492c-1.266 0-2.266-.385-3-1.156-.729-.771-1.094-1.841-1.094-3.211 0-1.38.339-2.477 1.016-3.289.682-.812 1.596-1.219 2.742-1.219 1.073 0 1.922.354 2.547 1.063.625.703.937 1.633.937 2.789v.82h-5.898c.026 1.005.279 1.768.758 2.289.484.521 1.164.781 2.039.781.922 0 1.833-.192 2.734-.578v1.157a6.647 6.647 0 0 1-1.305.421c-.406.089-.898.133-1.476.133zm-.352-7.789c-.687 0-1.237.224-1.648.672-.406.448-.646 1.068-.719 1.859h4.477c0-.817-.183-1.442-.547-1.875-.365-.437-.886-.656-1.563-.656zm11.242 5.297c0 .797-.296 1.412-.89 1.844-.594.432-1.427.648-2.5.648-1.136 0-2.021-.179-2.656-.539v-1.203c.411.208.851.372 1.32.492.474.12.93.18 1.367.18.677 0 1.198-.107 1.563-.32.364-.219.546-.55.546-.993 0-.333-.145-.617-.437-.851-.286-.24-.849-.521-1.687-.844-.797-.297-1.365-.555-1.704-.773a2.42 2.42 0 0 1-.75-.758c-.161-.281-.242-.617-.242-1.008 0-.698.284-1.247.852-1.648.567-.407 1.346-.61 2.336-.61.922 0 1.823.188 2.703.563l-.461 1.054c-.86-.354-1.638-.531-2.336-.531-.615 0-1.078.097-1.391.289-.312.193-.468.459-.468.797a.99.99 0 0 0 .171.586c.12.162.31.315.571.461.26.146.76.357 1.5.633 1.015.37 1.7.742 2.054 1.117.36.375.539.846.539 1.414zm7.641 0c0 .797-.297 1.412-.891 1.844-.593.432-1.427.648-2.5.648-1.135 0-2.02-.179-2.656-.539v-1.203a6.49 6.49 0 0 0 1.321.492c.474.12.929.18 1.367.18.677 0 1.198-.107 1.562-.32.365-.219.547-.55.547-.993 0-.333-.146-.617-.437-.851-.287-.24-.849-.521-1.688-.844-.797-.297-1.364-.555-1.703-.773a2.42 2.42 0 0 1-.75-.758c-.161-.281-.242-.617-.242-1.008 0-.698.284-1.247.851-1.648.568-.407 1.347-.61 2.336-.61.922 0 1.823.188 2.703.563l-.461 1.054c-.859-.354-1.638-.531-2.335-.531-.615 0-1.079.097-1.391.289-.313.193-.469.459-.469.797 0 .229.057.425.172.586.12.162.31.315.57.461.261.146.761.357 1.5.633 1.016.37 1.701.742 2.055 1.117.359.375.539.846.539 1.414zm3.414 2.336h-1.297v-8.562h1.297V222zm-1.406-10.883c0-.297.073-.513.219-.648a.755.755 0 0 1 .547-.211c.208 0 .388.07.539.211.151.14.226.357.226.648 0 .292-.075.511-.226.656a.763.763 0 0 1-.539.211.755.755 0 0 1-.547-.211c-.146-.145-.219-.364-.219-.656zm11.547 6.594c0 1.396-.352 2.487-1.055 3.273-.703.782-1.674 1.172-2.914 1.172-.766 0-1.445-.179-2.039-.539-.594-.359-1.052-.875-1.375-1.547-.323-.672-.484-1.458-.484-2.359 0-1.396.349-2.482 1.047-3.258.697-.781 1.666-1.172 2.906-1.172 1.198 0 2.148.399 2.851 1.196.709.796 1.063 1.875 1.063 3.234zm-6.524 0c0 1.094.219 1.927.657 2.5.437.573 1.08.859 1.929.859s1.492-.284 1.93-.851c.443-.573.664-1.409.664-2.508 0-1.089-.221-1.914-.664-2.477-.438-.567-1.086-.851-1.945-.851-.849 0-1.49.278-1.922.836-.432.557-.649 1.388-.649 2.492zM547.898 222v-5.539c0-.698-.158-1.219-.476-1.563-.318-.343-.815-.515-1.492-.515-.896 0-1.552.242-1.969.726-.417.485-.625 1.284-.625 2.399V222h-1.297v-8.562h1.055l.211 1.171h.062a2.628 2.628 0 0 1 1.117-.976 3.59 3.59 0 0 1 1.602-.352c1.031 0 1.807.25 2.328.75.521.495.781 1.289.781 2.383V222h-1.297zm9.422 0h-1.297v-8.562h1.297V222zm-1.406-10.883c0-.297.073-.513.219-.648a.755.755 0 0 1 .547-.211c.208 0 .388.07.539.211.151.14.226.357.226.648 0 .292-.075.511-.226.656a.763.763 0 0 1-.539.211.755.755 0 0 1-.547-.211c-.146-.145-.219-.364-.219-.656zm9.68 8.547c0 .797-.297 1.412-.891 1.844-.594.432-1.427.648-2.5.648-1.135 0-2.021-.179-2.656-.539v-1.203c.411.208.851.372 1.32.492.474.12.93.18 1.367.18.677 0 1.198-.107 1.563-.32.364-.219.547-.55.547-.993 0-.333-.146-.617-.438-.851-.286-.24-.849-.521-1.687-.844-.797-.297-1.365-.555-1.703-.773-.334-.224-.584-.477-.75-.758-.162-.281-.243-.617-.243-1.008 0-.698.284-1.247.852-1.648.568-.407 1.346-.61 2.336-.61.922 0 1.823.188 2.703.563l-.461 1.054c-.859-.354-1.638-.531-2.336-.531-.614 0-1.078.097-1.39.289-.313.193-.469.459-.469.797 0 .229.057.425.172.586.119.162.31.315.57.461.26.146.76.357 1.5.633 1.016.37 1.701.742 2.055 1.117.359.375.539.846.539 1.414zM90.586 246l-.258-1.219h-.062c-.428.537-.855.901-1.282 1.094-.421.187-.95.281-1.586.281-.849 0-1.515-.218-2-.656-.479-.438-.718-1.06-.718-1.867 0-1.729 1.382-2.636 4.148-2.719l1.453-.047v-.531c0-.672-.146-1.167-.437-1.484-.287-.323-.748-.485-1.383-.485-.714 0-1.52.219-2.422.656l-.398-.992a6.108 6.108 0 0 1 1.382-.539 6.061 6.061 0 0 1 1.516-.195c1.02 0 1.776.226 2.266.68.494.453.742 1.179.742 2.179V246h-.961zm-2.93-.914c.807 0 1.44-.221 1.899-.664.463-.443.695-1.063.695-1.86v-.773l-1.297.055c-1.031.036-1.776.198-2.234.484-.453.281-.68.721-.68 1.32 0 .469.14.826.422 1.071.286.245.685.367 1.195.367zm7.867.914h-1.296v-12.156h1.296V246zm4.047 0h-1.297v-12.156h1.297V246zm10.141-4.289c0 1.396-.352 2.487-1.055 3.273-.703.782-1.674 1.172-2.914 1.172-.765 0-1.445-.179-2.039-.539-.594-.359-1.052-.875-1.375-1.547-.323-.672-.484-1.458-.484-2.359 0-1.396.349-2.482 1.047-3.258.698-.781 1.666-1.172 2.906-1.172 1.198 0 2.148.399 2.851 1.196.709.796 1.063 1.875 1.063 3.234zm-6.523 0c0 1.094.218 1.927.656 2.5.437.573 1.08.859 1.929.859s1.493-.284 1.93-.851c.443-.573.664-1.409.664-2.508 0-1.089-.221-1.914-.664-2.477-.437-.567-1.086-.851-1.945-.851-.849 0-1.49.278-1.922.836-.432.557-.648 1.388-.648 2.492zM118.984 246l-1.57-5.023c-.099-.308-.284-1.006-.555-2.094h-.062a28.658 28.658 0 0 1-.547 2.109L114.633 246h-1.5l-2.336-8.562h1.359c.552 2.151.972 3.789 1.258 4.914.292 1.125.458 1.882.5 2.273h.063c.057-.297.148-.68.273-1.148.13-.474.242-.849.336-1.125l1.57-4.914h1.406l1.532 4.914c.291.895.489 1.648.594 2.257h.062c.021-.187.076-.476.164-.867.094-.39.638-2.492 1.633-6.304h1.344L120.523 246h-1.539zm9.078.156c-1.265 0-2.265-.385-3-1.156-.729-.771-1.093-1.841-1.093-3.211 0-1.38.338-2.477 1.015-3.289.683-.812 1.597-1.219 2.743-1.219 1.072 0 1.921.354 2.546 1.063.625.703.938 1.633.938 2.789v.82h-5.899c.027 1.005.279 1.768.758 2.289.485.521 1.164.781 2.039.781.922 0 1.834-.192 2.735-.578v1.157a6.668 6.668 0 0 1-1.305.421c-.406.089-.898.133-1.477.133zm-.351-7.789c-.688 0-1.237.224-1.649.672-.406.448-.645 1.068-.718 1.859h4.476c0-.817-.182-1.442-.547-1.875-.364-.437-.885-.656-1.562-.656zm11.547 6.485h-.07c-.599.869-1.495 1.304-2.688 1.304-1.12 0-1.992-.383-2.617-1.148-.62-.766-.93-1.854-.93-3.266 0-1.411.313-2.508.938-3.289.625-.781 1.494-1.172 2.609-1.172 1.161 0 2.052.422 2.672 1.266h.101l-.054-.617-.031-.602v-3.484h1.296V246h-1.054l-.172-1.148zm-2.594.218c.885 0 1.526-.239 1.922-.718.401-.485.602-1.263.602-2.336v-.274c0-1.213-.204-2.078-.61-2.594-.401-.52-1.044-.781-1.93-.781-.76 0-1.343.297-1.75.891-.401.588-.601 1.422-.601 2.5 0 1.094.2 1.919.601 2.476.401.558.99.836 1.766.836zm16 .93-.258-1.219h-.062c-.427.537-.854.901-1.282 1.094-.421.187-.95.281-1.585.281-.849 0-1.516-.218-2-.656-.48-.438-.719-1.06-.719-1.867 0-1.729 1.383-2.636 4.148-2.719l1.453-.047v-.531c0-.672-.145-1.167-.437-1.484-.287-.323-.748-.485-1.383-.485-.713 0-1.521.219-2.422.656l-.398-.992a6.112 6.112 0 0 1 1.383-.539 6.056 6.056 0 0 1 1.515-.195c1.021 0 1.776.226 2.266.68.495.453.742 1.179.742 2.179V246h-.961zm-2.93-.914c.808 0 1.44-.221 1.899-.664.463-.443.695-1.063.695-1.86v-.773l-1.297.055c-1.031.036-1.776.198-2.234.484-.453.281-.68.721-.68 1.32 0 .469.141.826.422 1.071.287.245.685.367 1.195.367zm9.336 0c.229 0 .451-.016.664-.047.214-.036.383-.073.508-.109v.992c-.14.068-.349.122-.625.164-.271.047-.515.07-.734.07-1.656 0-2.485-.872-2.485-2.617v-5.094h-1.226v-.625l1.226-.539.547-1.828h.75v1.985h2.485v1.007h-2.485v5.039c0 .516.123.912.367 1.188.245.276.581.414 1.008.414zm12.313.914-.258-1.219h-.063c-.427.537-.854.901-1.281 1.094-.422.187-.95.281-1.586.281-.849 0-1.515-.218-2-.656-.479-.438-.718-1.06-.718-1.867 0-1.729 1.382-2.636 4.148-2.719l1.453-.047v-.531c0-.672-.146-1.167-.437-1.484-.287-.323-.748-.485-1.383-.485-.714 0-1.521.219-2.422.656l-.398-.992a6.085 6.085 0 0 1 1.382-.539 6.07 6.07 0 0 1 1.516-.195c1.021 0 1.776.226 2.266.68.494.453.742 1.179.742 2.179V246h-.961zm-2.93-.914c.807 0 1.44-.221 1.899-.664.463-.443.695-1.063.695-1.86v-.773l-1.297.055c-1.031.036-1.776.198-2.234.484-.454.281-.68.721-.68 1.32 0 .469.141.826.422 1.071.286.245.685.367 1.195.367zm13.492 0c.229 0 .451-.016.664-.047.214-.036.383-.073.508-.109v.992c-.14.068-.349.122-.625.164-.271.047-.515.07-.734.07-1.656 0-2.485-.872-2.485-2.617v-5.094h-1.226v-.625l1.226-.539.547-1.828h.75v1.985h2.485v1.007h-2.485v5.039c0 .516.123.912.368 1.188.244.276.58.414 1.007.414zm4.188.914h-1.297v-8.562h1.297V246zm-1.406-10.883c0-.297.072-.513.218-.648a.755.755 0 0 1 .547-.211c.209 0 .388.07.539.211.151.14.227.357.227.648 0 .292-.076.511-.227.656a.761.761 0 0 1-.539.211.755.755 0 0 1-.547-.211c-.146-.145-.218-.364-.218-.656zM199.797 246v-5.57c0-.683-.146-1.193-.438-1.532-.291-.343-.744-.515-1.359-.515-.807 0-1.404.232-1.789.695-.385.464-.578 1.177-.578 2.141V246h-1.297v-5.57c0-.683-.146-1.193-.438-1.532-.291-.343-.747-.515-1.367-.515-.812 0-1.409.245-1.789.734-.375.485-.562 1.281-.562 2.391V246h-1.297v-8.562h1.055l.21 1.171h.063a2.554 2.554 0 0 1 1.031-.976 3.179 3.179 0 0 1 1.5-.352c1.339 0 2.214.485 2.625 1.453h.063a2.726 2.726 0 0 1 1.109-1.062c.484-.261 1.037-.391 1.656-.391.969 0 1.693.25 2.172.75.485.495.727 1.289.727 2.383V246h-1.297zm7.594.156c-1.266 0-2.266-.385-3-1.156-.73-.771-1.094-1.841-1.094-3.211 0-1.38.338-2.477 1.015-3.289.683-.812 1.597-1.219 2.743-1.219 1.073 0 1.922.354 2.547 1.063.625.703.937 1.633.937 2.789v.82h-5.898c.026 1.005.278 1.768.757 2.289.485.521 1.164.781 2.04.781.921 0 1.833-.192 2.734-.578v1.157a6.647 6.647 0 0 1-1.305.421c-.406.089-.898.133-1.476.133zm-.352-7.789c-.687 0-1.237.224-1.648.672-.407.448-.646 1.068-.719 1.859h4.476c0-.817-.182-1.442-.546-1.875-.365-.437-.886-.656-1.563-.656zm13.734.078h-2.179V246h-1.297v-7.555h-1.531v-.586l1.531-.468v-.477c0-2.104.919-3.156 2.758-3.156.453 0 .984.091 1.593.273l-.336 1.039c-.5-.161-.927-.242-1.281-.242-.489 0-.851.164-1.086.492-.234.323-.351.844-.351 1.563v.555h2.179v1.007zm8.954 3.266c0 1.396-.352 2.487-1.055 3.273-.703.782-1.675 1.172-2.914 1.172-.766 0-1.446-.179-2.039-.539-.594-.359-1.052-.875-1.375-1.547-.323-.672-.485-1.458-.485-2.359 0-1.396.349-2.482 1.047-3.258.698-.781 1.667-1.172 2.906-1.172 1.198 0 2.149.399 2.852 1.196.708.796 1.063 1.875 1.063 3.234zm-6.524 0c0 1.094.219 1.927.656 2.5.438.573 1.081.859 1.93.859s1.492-.284 1.93-.851c.442-.573.664-1.409.664-2.508 0-1.089-.222-1.914-.664-2.477-.438-.567-1.086-.851-1.946-.851-.849 0-1.489.278-1.921.836-.433.557-.649 1.388-.649 2.492zm12.711-4.43c.38 0 .721.031 1.024.094l-.18 1.203a4.426 4.426 0 0 0-.938-.117c-.692 0-1.286.281-1.781.844-.49.562-.734 1.263-.734 2.101V246h-1.297v-8.562h1.07l.149 1.585h.062c.318-.557.701-.987 1.149-1.289.447-.302.94-.453 1.476-.453zm12.305 6.383c0 .797-.297 1.412-.891 1.844-.594.432-1.427.648-2.5.648-1.135 0-2.021-.179-2.656-.539v-1.203c.411.208.851.372 1.32.492.474.12.93.18 1.367.18.677 0 1.198-.107 1.563-.32.364-.219.547-.55.547-.993 0-.333-.146-.617-.438-.851-.286-.24-.849-.521-1.687-.844-.797-.297-1.365-.555-1.703-.773-.334-.224-.584-.477-.75-.758-.162-.281-.243-.617-.243-1.008 0-.698.284-1.247.852-1.648.568-.407 1.346-.61 2.336-.61.922 0 1.823.188 2.703.563l-.461 1.054c-.859-.354-1.638-.531-2.336-.531-.614 0-1.078.097-1.39.289-.313.193-.469.459-.469.797 0 .229.057.425.172.586.119.162.31.315.57.461.26.146.76.357 1.5.633 1.016.37 1.701.742 2.055 1.117.359.375.539.846.539 1.414zm5.734 2.492c-1.265 0-2.265-.385-3-1.156-.729-.771-1.094-1.841-1.094-3.211 0-1.38.339-2.477 1.016-3.289.682-.812 1.596-1.219 2.742-1.219 1.073 0 1.922.354 2.547 1.063.625.703.938 1.633.938 2.789v.82h-5.899c.026 1.005.279 1.768.758 2.289.484.521 1.164.781 2.039.781.922 0 1.833-.192 2.734-.578v1.157a6.66 6.66 0 0 1-1.304.421c-.407.089-.899.133-1.477.133zm-.351-7.789c-.688 0-1.237.224-1.649.672-.406.448-.646 1.068-.719 1.859h4.477c0-.817-.182-1.442-.547-1.875-.365-.437-.885-.656-1.562-.656zm9.14 7.789c-1.239 0-2.2-.38-2.883-1.14-.677-.766-1.015-1.847-1.015-3.243 0-1.432.344-2.539 1.031-3.32.693-.781 1.677-1.172 2.953-1.172.412 0 .823.045 1.234.133.412.089.735.193.969.313l-.398 1.101a5.902 5.902 0 0 0-.938-.281 4.055 4.055 0 0 0-.898-.117c-1.74 0-2.609 1.109-2.609 3.328 0 1.052.21 1.859.632 2.422.427.562 1.058.843 1.891.843.713 0 1.445-.153 2.195-.461v1.149c-.573.297-1.294.445-2.164.445zm5.422-8.718v5.554c0 .698.159 1.219.477 1.563.317.343.815.515 1.492.515.896 0 1.549-.244 1.961-.734.416-.49.625-1.289.625-2.398v-4.5h1.297V246h-1.071l-.187-1.148h-.07a2.588 2.588 0 0 1-1.11.968c-.469.224-1.005.336-1.609.336-1.042 0-1.823-.247-2.344-.742-.516-.495-.773-1.286-.773-2.375v-5.601h1.312zm12.516-.157c.38 0 .721.031 1.023.094l-.18 1.203a4.418 4.418 0 0 0-.937-.117c-.693 0-1.287.281-1.781.844-.49.562-.735 1.263-.735 2.101V246h-1.297v-8.562h1.071l.148 1.585h.063c.317-.557.7-.987 1.148-1.289.448-.302.94-.453 1.477-.453zm3.922 8.719h-1.297v-8.562h1.297V246zm-1.407-10.883c0-.297.073-.513.219-.648a.755.755 0 0 1 .547-.211c.208 0 .388.07.539.211.151.14.227.357.227.648 0 .292-.076.511-.227.656a.763.763 0 0 1-.539.211.755.755 0 0 1-.547-.211c-.146-.145-.219-.364-.219-.656zm6.922 9.969c.229 0 .451-.016.664-.047.214-.036.383-.073.508-.109v.992c-.141.068-.349.122-.625.164-.271.047-.516.07-.734.07-1.657 0-2.485-.872-2.485-2.617v-5.094h-1.226v-.625l1.226-.539.547-1.828h.75v1.985h2.485v1.007h-2.485v5.039c0 .516.123.912.367 1.188.245.276.581.414 1.008.414zm1.531-7.648h1.391l1.875 4.882c.412 1.115.667 1.92.766 2.414h.062c.068-.265.209-.718.422-1.359.219-.646.927-2.625 2.125-5.937h1.391l-3.68 9.75c-.365.963-.792 1.645-1.281 2.046-.485.407-1.081.61-1.789.61-.396 0-.787-.045-1.172-.133v-1.039c.286.062.607.094.961.094.89 0 1.526-.5 1.906-1.5l.477-1.219-3.454-8.609zm17.485-.157c.38 0 .721.031 1.023.094l-.179 1.203a4.434 4.434 0 0 0-.938-.117c-.693 0-1.286.281-1.781.844-.49.562-.735 1.263-.735 2.101V246h-1.296v-8.562h1.07l.148 1.585h.063c.318-.557.7-.987 1.148-1.289.448-.302.94-.453 1.477-.453zm6.242 8.875c-1.266 0-2.266-.385-3-1.156-.729-.771-1.094-1.841-1.094-3.211 0-1.38.339-2.477 1.016-3.289.682-.812 1.596-1.219 2.742-1.219 1.073 0 1.922.354 2.547 1.063.625.703.937 1.633.937 2.789v.82h-5.898c.026 1.005.279 1.768.758 2.289.484.521 1.164.781 2.039.781.922 0 1.833-.192 2.734-.578v1.157a6.66 6.66 0 0 1-1.304.421c-.407.089-.899.133-1.477.133zm-.352-7.789c-.687 0-1.237.224-1.648.672-.406.448-.646 1.068-.719 1.859h4.477c0-.817-.182-1.442-.547-1.875-.365-.437-.885-.656-1.563-.656zM326.008 246l-.258-1.219h-.062c-.428.537-.855.901-1.282 1.094-.422.187-.95.281-1.586.281-.849 0-1.515-.218-2-.656-.479-.438-.718-1.06-.718-1.867 0-1.729 1.382-2.636 4.148-2.719l1.453-.047v-.531c0-.672-.146-1.167-.437-1.484-.287-.323-.748-.485-1.383-.485-.714 0-1.521.219-2.422.656l-.399-.992a6.112 6.112 0 0 1 1.383-.539 6.07 6.07 0 0 1 1.516-.195c1.021 0 1.776.226 2.266.68.494.453.742 1.179.742 2.179V246h-.961zm-2.93-.914c.807 0 1.44-.221 1.899-.664.463-.443.695-1.063.695-1.86v-.773l-1.297.055c-1.031.036-1.776.198-2.234.484-.453.281-.68.721-.68 1.32 0 .469.141.826.422 1.071.286.245.685.367 1.195.367zm12.094-1.422c0 .797-.297 1.412-.891 1.844-.593.432-1.427.648-2.5.648-1.135 0-2.021-.179-2.656-.539v-1.203a6.48 6.48 0 0 0 1.32.492c.474.12.93.18 1.367.18.678 0 1.198-.107 1.563-.32.365-.219.547-.55.547-.993 0-.333-.146-.617-.438-.851-.286-.24-.849-.521-1.687-.844-.797-.297-1.365-.555-1.703-.773-.334-.224-.584-.477-.75-.758-.162-.281-.242-.617-.242-1.008 0-.698.283-1.247.851-1.648.568-.407 1.346-.61 2.336-.61.922 0 1.823.188 2.703.563l-.461 1.054c-.859-.354-1.638-.531-2.336-.531-.614 0-1.078.097-1.39.289-.313.193-.469.459-.469.797 0 .229.057.425.172.586.12.162.31.315.57.461.261.146.761.357 1.5.633 1.016.37 1.701.742 2.055 1.117.359.375.539.846.539 1.414zm9.508-1.953c0 1.396-.352 2.487-1.055 3.273-.703.782-1.674 1.172-2.914 1.172-.766 0-1.445-.179-2.039-.539-.594-.359-1.052-.875-1.375-1.547-.323-.672-.485-1.458-.485-2.359 0-1.396.349-2.482 1.047-3.258.698-.781 1.667-1.172 2.907-1.172 1.198 0 2.148.399 2.851 1.196.709.796 1.063 1.875 1.063 3.234zm-6.524 0c0 1.094.219 1.927.656 2.5.438.573 1.081.859 1.93.859s1.492-.284 1.93-.851c.443-.573.664-1.409.664-2.508 0-1.089-.221-1.914-.664-2.477-.438-.567-1.086-.851-1.945-.851-.849 0-1.49.278-1.922.836-.433.557-.649 1.388-.649 2.492zM352.82 246v-5.539c0-.698-.159-1.219-.476-1.563-.318-.343-.815-.515-1.492-.515-.896 0-1.553.242-1.969.726-.417.485-.625 1.284-.625 2.399V246h-1.297v-8.562h1.055l.211 1.171h.062a2.628 2.628 0 0 1 1.117-.976 3.588 3.588 0 0 1 1.602-.352c1.031 0 1.807.25 2.328.75.521.495.781 1.289.781 2.383V246h-1.297zm9.492-2.336c0 .797-.296 1.412-.89 1.844-.594.432-1.427.648-2.5.648-1.136 0-2.021-.179-2.656-.539v-1.203c.411.208.851.372 1.32.492.474.12.93.18 1.367.18.677 0 1.198-.107 1.563-.32.364-.219.546-.55.546-.993 0-.333-.145-.617-.437-.851-.286-.24-.849-.521-1.687-.844-.797-.297-1.365-.555-1.704-.773a2.42 2.42 0 0 1-.75-.758c-.161-.281-.242-.617-.242-1.008 0-.698.284-1.247.852-1.648.567-.407 1.346-.61 2.336-.61.922 0 1.823.188 2.703.563l-.461 1.054c-.86-.354-1.638-.531-2.336-.531-.615 0-1.078.097-1.391.289-.312.193-.468.459-.468.797a.99.99 0 0 0 .171.586c.12.162.31.315.571.461.26.146.76.357 1.5.633 1.015.37 1.7.742 2.054 1.117.36.375.539.846.539 1.414zm1.93 1.508c0-.349.078-.612.235-.789.161-.182.39-.274.687-.274.302 0 .537.092.703.274.172.177.258.44.258.789 0 .338-.086.599-.258.781-.172.182-.406.274-.703.274a.946.946 0 0 1-.664-.243c-.172-.166-.258-.437-.258-.812zm17.922-4.992c0 1.885-.513 3.328-1.539 4.328-1.021.995-2.492 1.492-4.414 1.492h-3.164v-11.422h3.5c1.776 0 3.156.492 4.141 1.477.984.984 1.476 2.359 1.476 4.125zm-1.406.047c0-1.49-.375-2.612-1.125-3.368-.745-.755-1.854-1.132-3.328-1.132h-1.93v9.125h1.617c1.584 0 2.774-.388 3.57-1.164.797-.782 1.196-1.935 1.196-3.461zm11.156 1.484c0 1.396-.352 2.487-1.055 3.273-.703.782-1.674 1.172-2.914 1.172-.765 0-1.445-.179-2.039-.539-.594-.359-1.052-.875-1.375-1.547-.323-.672-.484-1.458-.484-2.359 0-1.396.349-2.482 1.047-3.258.698-.781 1.666-1.172 2.906-1.172 1.198 0 2.148.399 2.852 1.196.708.796 1.062 1.875 1.062 3.234zm-6.523 0c0 1.094.218 1.927.656 2.5.437.573 1.081.859 1.93.859s1.492-.284 1.929-.851c.443-.573.664-1.409.664-2.508 0-1.089-.221-1.914-.664-2.477-.437-.567-1.086-.851-1.945-.851-.849 0-1.49.278-1.922.836-.432.557-.648 1.388-.648 2.492zm11.601-4.273h1.391l1.875 4.882c.411 1.115.666 1.92.765 2.414h.063c.068-.265.208-.718.422-1.359.219-.646.927-2.625 2.125-5.937h1.39l-3.679 9.75c-.365.963-.792 1.645-1.282 2.046-.484.407-1.08.61-1.789.61-.395 0-.786-.045-1.171-.133v-1.039c.286.062.606.094.96.094.891 0 1.527-.5 1.907-1.5l.476-1.219-3.453-8.609zm16.813 4.273c0 1.396-.352 2.487-1.055 3.273-.703.782-1.674 1.172-2.914 1.172-.766 0-1.445-.179-2.039-.539-.594-.359-1.052-.875-1.375-1.547-.323-.672-.484-1.458-.484-2.359 0-1.396.348-2.482 1.046-3.258.698-.781 1.667-1.172 2.907-1.172 1.198 0 2.148.399 2.851 1.196.709.796 1.063 1.875 1.063 3.234zm-6.524 0c0 1.094.219 1.927.657 2.5.437.573 1.08.859 1.929.859s1.492-.284 1.93-.851c.443-.573.664-1.409.664-2.508 0-1.089-.221-1.914-.664-2.477-.438-.567-1.086-.851-1.945-.851-.849 0-1.49.278-1.922.836-.433.557-.649 1.388-.649 2.492zm10.024-4.273v5.554c0 .698.159 1.219.476 1.563.318.343.815.515 1.492.515.896 0 1.55-.244 1.961-.734.417-.49.625-1.289.625-2.398v-4.5h1.297V246h-1.07l-.188-1.148h-.07a2.586 2.586 0 0 1-1.109.968c-.469.224-1.005.336-1.61.336-1.041 0-1.823-.247-2.343-.742-.516-.495-.774-1.286-.774-2.375v-5.601h1.313zM437.062 246l-1.57-5.023c-.099-.308-.284-1.006-.554-2.094h-.063a28.658 28.658 0 0 1-.547 2.109L432.711 246h-1.5l-2.336-8.562h1.359c.552 2.151.972 3.789 1.258 4.914.292 1.125.459 1.882.5 2.273h.063c.057-.297.148-.68.273-1.148.13-.474.242-.849.336-1.125l1.57-4.914h1.407l1.531 4.914c.292.895.489 1.648.594 2.257h.062c.021-.187.076-.476.164-.867.094-.39.638-2.492 1.633-6.304h1.344L438.602 246h-1.54zm10.727 0-.258-1.219h-.062c-.427.537-.854.901-1.281 1.094-.422.187-.951.281-1.586.281-.849 0-1.516-.218-2-.656-.48-.438-.719-1.06-.719-1.867 0-1.729 1.383-2.636 4.148-2.719l1.453-.047v-.531c0-.672-.145-1.167-.437-1.484-.287-.323-.748-.485-1.383-.485-.713 0-1.521.219-2.422.656l-.398-.992a6.112 6.112 0 0 1 1.383-.539 6.056 6.056 0 0 1 1.515-.195c1.021 0 1.776.226 2.266.68.495.453.742 1.179.742 2.179V246h-.961zm-2.93-.914c.808 0 1.44-.221 1.899-.664.463-.443.695-1.063.695-1.86v-.773l-1.297.055c-1.031.036-1.776.198-2.234.484-.453.281-.68.721-.68 1.32 0 .469.141.826.422 1.071.287.245.685.367 1.195.367zm12.43.914v-5.539c0-.698-.159-1.219-.477-1.563-.317-.343-.815-.515-1.492-.515-.896 0-1.552.242-1.968.726-.417.485-.625 1.284-.625 2.399V246h-1.297v-8.562h1.054l.211 1.171h.063a2.623 2.623 0 0 1 1.117-.976 3.588 3.588 0 0 1 1.602-.352c1.031 0 1.807.25 2.328.75.521.495.781 1.289.781 2.383V246h-1.297zm6.734-.914c.23 0 .451-.016.665-.047.213-.036.382-.073.507-.109v.992c-.14.068-.349.122-.625.164-.271.047-.515.07-.734.07-1.656 0-2.484-.872-2.484-2.617v-5.094h-1.227v-.625l1.227-.539.546-1.828h.75v1.985h2.485v1.007h-2.485v5.039c0 .516.123.912.368 1.188.244.276.58.414 1.007.414zm9.813 0c.229 0 .45-.016.664-.047.214-.036.383-.073.508-.109v.992c-.141.068-.349.122-.625.164-.271.047-.516.07-.735.07-1.656 0-2.484-.872-2.484-2.617v-5.094h-1.226v-.625l1.226-.539.547-1.828h.75v1.985h2.484v1.007h-2.484v5.039c0 .516.122.912.367 1.188.245.276.581.414 1.008.414zm10.281-3.375c0 1.396-.351 2.487-1.055 3.273-.703.782-1.674 1.172-2.914 1.172-.765 0-1.445-.179-2.039-.539-.593-.359-1.052-.875-1.375-1.547-.323-.672-.484-1.458-.484-2.359 0-1.396.349-2.482 1.047-3.258.698-.781 1.667-1.172 2.906-1.172 1.198 0 2.149.399 2.852 1.196.708.796 1.062 1.875 1.062 3.234zm-6.523 0c0 1.094.218 1.927.656 2.5.438.573 1.081.859 1.93.859s1.492-.284 1.929-.851c.443-.573.664-1.409.664-2.508 0-1.089-.221-1.914-.664-2.477-.437-.567-1.086-.851-1.945-.851-.849 0-1.49.278-1.922.836-.432.557-.648 1.388-.648 2.492zm18.484 1.953c0 .797-.297 1.412-.89 1.844-.594.432-1.428.648-2.5.648-1.136 0-2.021-.179-2.657-.539v-1.203a6.49 6.49 0 0 0 1.321.492c.474.12.929.18 1.367.18.677 0 1.198-.107 1.562-.32.365-.219.547-.55.547-.993 0-.333-.146-.617-.437-.851-.287-.24-.849-.521-1.688-.844-.797-.297-1.364-.555-1.703-.773a2.42 2.42 0 0 1-.75-.758c-.161-.281-.242-.617-.242-1.008 0-.698.284-1.247.851-1.648.568-.407 1.347-.61 2.336-.61.922 0 1.823.188 2.703.563l-.46 1.054c-.86-.354-1.639-.531-2.336-.531-.615 0-1.079.097-1.391.289-.313.193-.469.459-.469.797 0 .229.057.425.172.586.12.162.31.315.57.461.261.146.761.357 1.5.633 1.016.37 1.701.742 2.055 1.117.359.375.539.846.539 1.414zm4.883 1.422c.229 0 .45-.016.664-.047.214-.036.383-.073.508-.109v.992c-.141.068-.349.122-.625.164-.271.047-.516.07-.735.07-1.656 0-2.484-.872-2.484-2.617v-5.094h-1.227v-.625l1.227-.539.547-1.828h.75v1.985h2.484v1.007h-2.484v5.039c0 .516.122.912.367 1.188.245.276.581.414 1.008.414zm8.156.914-.258-1.219h-.062c-.427.537-.854.901-1.281 1.094-.422.187-.951.281-1.586.281-.849 0-1.516-.218-2-.656-.479-.438-.719-1.06-.719-1.867 0-1.729 1.383-2.636 4.148-2.719l1.453-.047v-.531c0-.672-.145-1.167-.437-1.484-.286-.323-.747-.485-1.383-.485-.713 0-1.521.219-2.422.656l-.398-.992a6.112 6.112 0 0 1 1.383-.539 6.056 6.056 0 0 1 1.515-.195c1.021 0 1.776.226 2.266.68.495.453.742 1.179.742 2.179V246h-.961zm-2.929-.914c.807 0 1.44-.221 1.898-.664.463-.443.695-1.063.695-1.86v-.773l-1.297.055c-1.031.036-1.776.198-2.234.484-.453.281-.68.721-.68 1.32 0 .469.141.826.422 1.071.287.245.685.367 1.196.367zm10.476-7.805c.38 0 .721.031 1.024.094l-.18 1.203a4.426 4.426 0 0 0-.938-.117c-.692 0-1.286.281-1.781.844-.49.562-.734 1.263-.734 2.101V246h-1.297v-8.562h1.07l.149 1.585h.062c.318-.557.701-.987 1.149-1.289.447-.302.94-.453 1.476-.453zm5.391 7.805c.229 0 .45-.016.664-.047.213-.036.383-.073.508-.109v.992c-.141.068-.349.122-.625.164-.271.047-.516.07-.735.07-1.656 0-2.484-.872-2.484-2.617v-5.094h-1.227v-.625l1.227-.539.547-1.828h.75v1.985h2.484v1.007h-2.484v5.039c0 .516.122.912.367 1.188.245.276.581.414 1.008.414zm12.312.914-.258-1.219h-.062c-.427.537-.854.901-1.281 1.094-.422.187-.951.281-1.586.281-.849 0-1.516-.218-2-.656-.479-.438-.719-1.06-.719-1.867 0-1.729 1.383-2.636 4.148-2.719l1.453-.047v-.531c0-.672-.145-1.167-.437-1.484-.286-.323-.747-.485-1.383-.485-.713 0-1.521.219-2.422.656l-.398-.992a6.112 6.112 0 0 1 1.383-.539 6.056 6.056 0 0 1 1.515-.195c1.021 0 1.776.226 2.266.68.495.453.742 1.179.742 2.179V246h-.961zm-2.929-.914c.807 0 1.44-.221 1.898-.664.463-.443.695-1.063.695-1.86v-.773l-1.297.055c-1.031.036-1.776.198-2.234.484-.453.281-.68.721-.68 1.32 0 .469.141.826.422 1.071.287.245.685.367 1.196.367zm16.585.914v-5.539c0-.698-.158-1.219-.476-1.563-.318-.343-.815-.515-1.492-.515-.896 0-1.552.242-1.969.726-.417.485-.625 1.284-.625 2.399V246h-1.297v-8.562h1.055l.211 1.171h.062a2.628 2.628 0 0 1 1.117-.976 3.59 3.59 0 0 1 1.602-.352c1.031 0 1.807.25 2.328.75.521.495.781 1.289.781 2.383V246h-1.297zm7.586.156c-1.265 0-2.265-.385-3-1.156-.729-.771-1.093-1.841-1.093-3.211 0-1.38.338-2.477 1.015-3.289.683-.812 1.597-1.219 2.742-1.219 1.073 0 1.922.354 2.547 1.063.625.703.938 1.633.938 2.789v.82h-5.899c.026 1.005.279 1.768.758 2.289.485.521 1.164.781 2.039.781.922 0 1.834-.192 2.735-.578v1.157a6.69 6.69 0 0 1-1.305.421c-.406.089-.898.133-1.477.133zm-.351-7.789c-.688 0-1.237.224-1.649.672-.406.448-.645 1.068-.718 1.859h4.476c0-.817-.182-1.442-.547-1.875-.364-.437-.885-.656-1.562-.656zM567.969 246l-1.571-5.023c-.099-.308-.283-1.006-.554-2.094h-.063c-.208.911-.39 1.614-.547 2.109L563.617 246h-1.5l-2.336-8.562h1.36c.552 2.151.971 3.789 1.257 4.914.292 1.125.459 1.882.5 2.273h.063c.057-.297.148-.68.273-1.148.131-.474.243-.849.336-1.125l1.571-4.914h1.406l1.531 4.914c.292.895.49 1.648.594 2.257h.062c.021-.187.076-.476.164-.867.094-.39.638-2.492 1.633-6.304h1.344L569.508 246h-1.539zM160.57 267.664c0 .797-.297 1.412-.89 1.844-.594.432-1.427.648-2.5.648-1.136 0-2.021-.179-2.657-.539v-1.203a6.49 6.49 0 0 0 1.321.492c.474.12.929.18 1.367.18.677 0 1.198-.107 1.562-.32.365-.219.547-.55.547-.993 0-.333-.146-.617-.437-.851-.287-.24-.849-.521-1.688-.844-.797-.297-1.364-.555-1.703-.773a2.42 2.42 0 0 1-.75-.758c-.161-.281-.242-.617-.242-1.008 0-.698.284-1.247.852-1.648.567-.407 1.346-.61 2.336-.61a6.84 6.84 0 0 1 2.703.563l-.461 1.054c-.86-.354-1.638-.531-2.336-.531-.615 0-1.078.097-1.391.289-.312.193-.469.459-.469.797a.99.99 0 0 0 .172.586c.12.162.31.315.571.461.26.146.76.357 1.5.633 1.015.37 1.7.742 2.054 1.117.36.375.539.846.539 1.414zm5.735 2.492c-1.266 0-2.266-.385-3-1.156-.729-.771-1.094-1.841-1.094-3.211 0-1.38.338-2.477 1.016-3.289.682-.812 1.596-1.219 2.742-1.219 1.073 0 1.922.354 2.547 1.063.625.703.937 1.633.937 2.789v.82h-5.898c.026 1.005.278 1.768.757 2.289.485.521 1.165.781 2.04.781.921 0 1.833-.192 2.734-.578v1.157a6.647 6.647 0 0 1-1.305.421c-.406.089-.898.133-1.476.133zm-.352-7.789c-.687 0-1.237.224-1.648.672-.407.448-.646 1.068-.719 1.859h4.476c0-.817-.182-1.442-.546-1.875-.365-.437-.886-.656-1.563-.656zm11.242 5.297c0 .797-.297 1.412-.89 1.844-.594.432-1.427.648-2.5.648-1.136 0-2.021-.179-2.657-.539v-1.203a6.49 6.49 0 0 0 1.321.492c.474.12.929.18 1.367.18.677 0 1.198-.107 1.562-.32.365-.219.547-.55.547-.993 0-.333-.146-.617-.437-.851-.287-.24-.849-.521-1.688-.844-.797-.297-1.364-.555-1.703-.773a2.42 2.42 0 0 1-.75-.758c-.161-.281-.242-.617-.242-1.008 0-.698.284-1.247.852-1.648.567-.407 1.346-.61 2.335-.61.922 0 1.823.188 2.704.563l-.461 1.054c-.86-.354-1.638-.531-2.336-.531-.615 0-1.078.097-1.391.289-.312.193-.469.459-.469.797a.99.99 0 0 0 .172.586c.12.162.31.315.571.461.26.146.76.357 1.5.633 1.015.37 1.7.742 2.054 1.117.36.375.539.846.539 1.414zm7.641 0c0 .797-.297 1.412-.891 1.844-.593.432-1.427.648-2.5.648-1.135 0-2.021-.179-2.656-.539v-1.203c.412.208.852.372 1.32.492.474.12.93.18 1.368.18.677 0 1.197-.107 1.562-.32.365-.219.547-.55.547-.993 0-.333-.146-.617-.438-.851-.286-.24-.849-.521-1.687-.844-.797-.297-1.365-.555-1.703-.773-.334-.224-.584-.477-.75-.758-.162-.281-.242-.617-.242-1.008 0-.698.283-1.247.851-1.648.568-.407 1.347-.61 2.336-.61.922 0 1.823.188 2.703.563l-.461 1.054c-.859-.354-1.638-.531-2.336-.531-.614 0-1.078.097-1.39.289-.313.193-.469.459-.469.797 0 .229.057.425.172.586.12.162.31.315.57.461.261.146.761.357 1.5.633 1.016.37 1.701.742 2.055 1.117.359.375.539.846.539 1.414zM188.25 270h-1.297v-8.562h1.297V270zm-1.406-10.883c0-.297.073-.513.218-.648a.757.757 0 0 1 .547-.211c.209 0 .388.07.539.211.151.14.227.357.227.648 0 .292-.076.511-.227.656a.761.761 0 0 1-.539.211.757.757 0 0 1-.547-.211c-.145-.145-.218-.364-.218-.656zm11.547 6.594c0 1.396-.352 2.487-1.055 3.273-.703.782-1.675 1.172-2.914 1.172-.766 0-1.445-.179-2.039-.539-.594-.359-1.052-.875-1.375-1.547-.323-.672-.485-1.458-.485-2.359 0-1.396.349-2.482 1.047-3.258.698-.781 1.667-1.172 2.907-1.172 1.197 0 2.148.399 2.851 1.196.708.796 1.063 1.875 1.063 3.234zm-6.524 0c0 1.094.219 1.927.656 2.5.438.573 1.081.859 1.93.859s1.492-.284 1.93-.851c.443-.573.664-1.409.664-2.508 0-1.089-.221-1.914-.664-2.477-.438-.567-1.086-.851-1.945-.851-.849 0-1.49.278-1.922.836-.433.557-.649 1.388-.649 2.492zM206.531 270v-5.539c0-.698-.159-1.219-.476-1.563-.318-.343-.815-.515-1.493-.515-.895 0-1.552.242-1.968.726-.417.485-.625 1.284-.625 2.399V270h-1.297v-8.562h1.055l.211 1.171H202a2.628 2.628 0 0 1 1.117-.976 3.588 3.588 0 0 1 1.602-.352c1.031 0 1.807.25 2.328.75.521.495.781 1.289.781 2.383V270h-1.297zm13.391 0-.258-1.219h-.062c-.428.537-.855.901-1.282 1.094-.422.187-.95.281-1.586.281-.849 0-1.515-.218-2-.656-.479-.438-.718-1.06-.718-1.867 0-1.729 1.382-2.636 4.148-2.719l1.453-.047v-.531c0-.672-.146-1.167-.437-1.484-.287-.323-.748-.485-1.383-.485-.714 0-1.521.219-2.422.656l-.398-.992a6.085 6.085 0 0 1 1.382-.539 6.07 6.07 0 0 1 1.516-.195c1.021 0 1.776.226 2.266.68.494.453.742 1.179.742 2.179V270h-.961zm-2.93-.914c.807 0 1.44-.221 1.899-.664.463-.443.695-1.063.695-1.86v-.773l-1.297.055c-1.031.036-1.776.198-2.234.484-.453.281-.68.721-.68 1.32 0 .469.141.826.422 1.071.286.245.685.367 1.195.367zm12.43.914v-5.539c0-.698-.159-1.219-.477-1.563-.317-.343-.815-.515-1.492-.515-.896 0-1.552.242-1.969.726-.416.485-.625 1.284-.625 2.399V270h-1.297v-8.562h1.055l.211 1.171h.063a2.623 2.623 0 0 1 1.117-.976 3.587 3.587 0 0 1 1.601-.352c1.032 0 1.808.25 2.329.75.52.495.781 1.289.781 2.383V270h-1.297zm9.797-1.148h-.071c-.599.869-1.494 1.304-2.687 1.304-1.12 0-1.992-.383-2.617-1.148-.62-.766-.93-1.854-.93-3.266 0-1.411.313-2.508.938-3.289.625-.781 1.494-1.172 2.609-1.172 1.161 0 2.052.422 2.672 1.266h.101l-.054-.617-.032-.602v-3.484h1.297V270h-1.054l-.172-1.148zm-2.594.218c.885 0 1.526-.239 1.922-.718.401-.485.601-1.263.601-2.336v-.274c0-1.213-.203-2.078-.609-2.594-.401-.52-1.044-.781-1.93-.781-.76 0-1.343.297-1.75.891-.401.588-.601 1.422-.601 2.5 0 1.094.2 1.919.601 2.476.401.558.99.836 1.766.836zm12.031.93h-1.297v-12.156h1.297V270zm10.141-4.289c0 1.396-.352 2.487-1.055 3.273-.703.782-1.674 1.172-2.914 1.172-.766 0-1.445-.179-2.039-.539-.594-.359-1.052-.875-1.375-1.547-.323-.672-.484-1.458-.484-2.359 0-1.396.349-2.482 1.047-3.258.697-.781 1.666-1.172 2.906-1.172 1.198 0 2.148.399 2.851 1.196.709.796 1.063 1.875 1.063 3.234zm-6.524 0c0 1.094.219 1.927.657 2.5.437.573 1.08.859 1.929.859s1.493-.284 1.93-.851c.443-.573.664-1.409.664-2.508 0-1.089-.221-1.914-.664-2.477-.437-.567-1.086-.851-1.945-.851-.849 0-1.49.278-1.922.836-.432.557-.649 1.388-.649 2.492zm15.813-4.273v.82l-1.586.187c.146.183.276.422.391.719.114.292.171.622.171.992 0 .839-.286 1.508-.859 2.008s-1.359.75-2.359.75c-.255 0-.495-.021-.719-.062-.552.291-.828.658-.828 1.101 0 .235.096.409.289.524.193.109.523.164.992.164h1.516c.927 0 1.638.195 2.133.586.5.39.75.958.75 1.703 0 .948-.381 1.669-1.141 2.164-.76.5-1.87.75-3.328.75-1.12 0-1.985-.209-2.594-.625-.604-.417-.906-1.005-.906-1.766 0-.521.166-.971.5-1.351.333-.381.802-.638 1.406-.774a1.378 1.378 0 0 1-.555-.461 1.238 1.238 0 0 1-.218-.726c0-.313.083-.586.25-.821.166-.234.429-.461.789-.679a2.34 2.34 0 0 1-1.086-.93 2.754 2.754 0 0 1-.414-1.5c0-.938.281-1.659.843-2.164.563-.511 1.36-.766 2.391-.766.448 0 .852.052 1.211.157h2.961zm-6.828 10c0 .463.195.815.586 1.054.39.24.95.36 1.679.36 1.089 0 1.894-.164 2.415-.493.526-.323.789-.763.789-1.32 0-.463-.144-.786-.43-.969-.287-.177-.826-.265-1.617-.265h-1.555c-.589 0-1.047.14-1.375.422-.328.281-.492.684-.492 1.211zm.703-7.258c0 .599.169 1.052.508 1.359.338.307.81.461 1.414.461 1.265 0 1.898-.615 1.898-1.844 0-1.286-.64-1.929-1.922-1.929-.609 0-1.078.164-1.406.492-.328.328-.492.815-.492 1.461zm19.43 1.531c0 1.396-.352 2.487-1.055 3.273-.703.782-1.675 1.172-2.914 1.172-.766 0-1.445-.179-2.039-.539-.594-.359-1.052-.875-1.375-1.547-.323-.672-.485-1.458-.485-2.359 0-1.396.349-2.482 1.047-3.258.698-.781 1.667-1.172 2.907-1.172 1.197 0 2.148.399 2.851 1.196.708.796 1.063 1.875 1.063 3.234zm-6.524 0c0 1.094.219 1.927.656 2.5.438.573 1.081.859 1.93.859s1.492-.284 1.93-.851c.443-.573.664-1.409.664-2.508 0-1.089-.221-1.914-.664-2.477-.438-.567-1.086-.851-1.945-.851-.849 0-1.49.278-1.922.836-.433.557-.649 1.388-.649 2.492zm10.024-4.273v5.554c0 .698.158 1.219.476 1.563.318.343.815.515 1.492.515.896 0 1.55-.244 1.961-.734.417-.49.625-1.289.625-2.398v-4.5h1.297V270h-1.07l-.188-1.148h-.07a2.586 2.586 0 0 1-1.109.968c-.469.224-1.006.336-1.61.336-1.041 0-1.823-.247-2.343-.742-.516-.495-.774-1.286-.774-2.375v-5.601h1.313zm11.375 7.648c.229 0 .45-.016.664-.047a4.86 4.86 0 0 0 .508-.109v.992c-.141.068-.349.122-.626.164-.27.047-.515.07-.734.07-1.656 0-2.484-.872-2.484-2.617v-5.094h-1.227v-.625l1.227-.539.547-1.828h.75v1.985h2.484v1.007h-2.484v5.039c0 .516.122.912.367 1.188.245.276.581.414 1.008.414zm10.906-6.641h-2.18V270h-1.297v-7.555h-1.531v-.586l1.531-.468v-.477c0-2.104.92-3.156 2.758-3.156.453 0 .985.091 1.594.273l-.336 1.039c-.5-.161-.927-.242-1.281-.242-.49 0-.852.164-1.086.492-.235.323-.352.844-.352 1.563v.555h2.18v1.007zm5.469-1.164c.38 0 .721.031 1.023.094l-.18 1.203a4.418 4.418 0 0 0-.937-.117c-.693 0-1.287.281-1.781.844-.49.562-.735 1.263-.735 2.101V270h-1.297v-8.562h1.071l.148 1.585h.063c.317-.557.7-.987 1.148-1.289.448-.302.94-.453 1.477-.453zm10.015 4.43c0 1.396-.351 2.487-1.054 3.273-.704.782-1.675 1.172-2.914 1.172-.766 0-1.446-.179-2.04-.539-.593-.359-1.052-.875-1.375-1.547-.322-.672-.484-1.458-.484-2.359 0-1.396.349-2.482 1.047-3.258.698-.781 1.667-1.172 2.906-1.172 1.198 0 2.149.399 2.852 1.196.708.796 1.062 1.875 1.062 3.234zm-6.523 0c0 1.094.219 1.927.656 2.5.438.573 1.081.859 1.93.859s1.492-.284 1.929-.851c.443-.573.664-1.409.664-2.508 0-1.089-.221-1.914-.664-2.477-.437-.567-1.086-.851-1.945-.851-.849 0-1.489.278-1.922.836-.432.557-.648 1.388-.648 2.492zM335.852 270v-5.57c0-.683-.146-1.193-.438-1.532-.292-.343-.745-.515-1.359-.515-.808 0-1.404.232-1.789.695-.386.464-.578 1.177-.578 2.141V270h-1.297v-5.57c0-.683-.146-1.193-.438-1.532-.292-.343-.747-.515-1.367-.515-.813 0-1.409.245-1.789.734-.375.485-.563 1.281-.563 2.391V270h-1.296v-8.562h1.054l.211 1.171h.063a2.548 2.548 0 0 1 1.031-.976 3.179 3.179 0 0 1 1.5-.352c1.338 0 2.213.485 2.625 1.453h.062a2.729 2.729 0 0 1 1.11-1.062c.484-.261 1.036-.391 1.656-.391.969 0 1.693.25 2.172.75.484.495.726 1.289.726 2.383V270h-1.296zm6.773-8.562h1.391l1.875 4.882c.411 1.115.666 1.92.765 2.414h.063c.067-.265.208-.718.422-1.359.218-.646.927-2.625 2.125-5.937h1.39l-3.679 9.75c-.365.963-.792 1.645-1.282 2.046-.484.407-1.08.61-1.789.61-.396 0-.786-.045-1.172-.133v-1.039c.287.062.607.094.961.094.891 0 1.526-.5 1.907-1.5l.476-1.219-3.453-8.609zm16.813 4.273c0 1.396-.352 2.487-1.055 3.273-.703.782-1.675 1.172-2.914 1.172-.766 0-1.446-.179-2.039-.539-.594-.359-1.052-.875-1.375-1.547-.323-.672-.485-1.458-.485-2.359 0-1.396.349-2.482 1.047-3.258.698-.781 1.667-1.172 2.906-1.172 1.198 0 2.149.399 2.852 1.196.708.796 1.063 1.875 1.063 3.234zm-6.524 0c0 1.094.219 1.927.656 2.5.438.573 1.081.859 1.93.859s1.492-.284 1.93-.851c.442-.573.664-1.409.664-2.508 0-1.089-.222-1.914-.664-2.477-.438-.567-1.086-.851-1.946-.851-.849 0-1.489.278-1.922.836-.432.557-.648 1.388-.648 2.492zm10.024-4.273v5.554c0 .698.158 1.219.476 1.563.318.343.815.515 1.492.515.896 0 1.55-.244 1.961-.734.417-.49.625-1.289.625-2.398v-4.5h1.297V270h-1.07l-.188-1.148h-.07a2.586 2.586 0 0 1-1.109.968c-.469.224-1.006.336-1.61.336-1.041 0-1.823-.247-2.344-.742-.515-.495-.773-1.286-.773-2.375v-5.601h1.313zm12.515-.157c.38 0 .721.031 1.024.094l-.18 1.203a4.426 4.426 0 0 0-.938-.117c-.692 0-1.286.281-1.781.844-.489.562-.734 1.263-.734 2.101V270h-1.297v-8.562h1.07l.149 1.585h.062c.318-.557.701-.987 1.149-1.289.447-.302.94-.453 1.476-.453zm10.203 8.875c-1.239 0-2.2-.38-2.883-1.14-.677-.766-1.015-1.847-1.015-3.243 0-1.432.344-2.539 1.031-3.32.693-.781 1.677-1.172 2.953-1.172.412 0 .823.045 1.235.133.411.089.734.193.968.313l-.398 1.101a5.902 5.902 0 0 0-.938-.281 4.055 4.055 0 0 0-.898-.117c-1.74 0-2.609 1.109-2.609 3.328 0 1.052.21 1.859.632 2.422.427.562 1.058.843 1.891.843.714 0 1.445-.153 2.195-.461v1.149c-.573.297-1.294.445-2.164.445zm5.422-8.718v5.554c0 .698.159 1.219.477 1.563.317.343.815.515 1.492.515.896 0 1.549-.244 1.961-.734.416-.49.625-1.289.625-2.398v-4.5h1.297V270h-1.071l-.187-1.148h-.07a2.588 2.588 0 0 1-1.11.968c-.469.224-1.005.336-1.609.336-1.042 0-1.823-.247-2.344-.742-.516-.495-.773-1.286-.773-2.375v-5.601h1.312zm12.516-.157c.38 0 .721.031 1.023.094l-.179 1.203a4.434 4.434 0 0 0-.938-.117c-.693 0-1.286.281-1.781.844-.49.562-.735 1.263-.735 2.101V270h-1.296v-8.562h1.07l.148 1.585h.063c.317-.557.7-.987 1.148-1.289.448-.302.94-.453 1.477-.453zm6.531 0c.38 0 .721.031 1.023.094l-.179 1.203a4.426 4.426 0 0 0-.938-.117c-.692 0-1.286.281-1.781.844-.49.562-.734 1.263-.734 2.101V270h-1.297v-8.562h1.07l.149 1.585h.062c.318-.557.701-.987 1.148-1.289a2.588 2.588 0 0 1 1.477-.453zm6.242 8.875c-1.265 0-2.265-.385-3-1.156-.729-.771-1.094-1.841-1.094-3.211 0-1.38.339-2.477 1.016-3.289.682-.812 1.596-1.219 2.742-1.219 1.073 0 1.922.354 2.547 1.063.625.703.938 1.633.938 2.789v.82h-5.899c.026 1.005.279 1.768.758 2.289.484.521 1.164.781 2.039.781.922 0 1.833-.192 2.734-.578v1.157a6.66 6.66 0 0 1-1.304.421c-.406.089-.899.133-1.477.133zm-.351-7.789c-.688 0-1.237.224-1.649.672-.406.448-.646 1.068-.719 1.859h4.477c0-.817-.182-1.442-.547-1.875-.364-.437-.885-.656-1.562-.656zM427.594 270v-5.539c0-.698-.159-1.219-.477-1.563-.318-.343-.815-.515-1.492-.515-.896 0-1.552.242-1.969.726-.416.485-.625 1.284-.625 2.399V270h-1.297v-8.562h1.055l.211 1.171h.062a2.631 2.631 0 0 1 1.118-.976 3.587 3.587 0 0 1 1.601-.352c1.031 0 1.808.25 2.328.75.521.495.782 1.289.782 2.383V270h-1.297zm6.734-.914c.229 0 .451-.016.664-.047.214-.036.383-.073.508-.109v.992c-.141.068-.349.122-.625.164-.271.047-.516.07-.734.07-1.657 0-2.485-.872-2.485-2.617v-5.094h-1.226v-.625l1.226-.539.547-1.828h.75v1.985h2.485v1.007h-2.485v5.039c0 .516.123.912.367 1.188.245.276.581.414 1.008.414zm12.57-1.422c0 .797-.296 1.412-.89 1.844-.594.432-1.427.648-2.5.648-1.136 0-2.021-.179-2.656-.539v-1.203c.411.208.851.372 1.32.492.474.12.93.18 1.367.18.677 0 1.198-.107 1.563-.32.364-.219.546-.55.546-.993 0-.333-.145-.617-.437-.851-.287-.24-.849-.521-1.688-.844-.796-.297-1.364-.555-1.703-.773a2.42 2.42 0 0 1-.75-.758c-.161-.281-.242-.617-.242-1.008 0-.698.284-1.247.852-1.648.567-.407 1.346-.61 2.336-.61.922 0 1.823.188 2.703.563l-.461 1.054c-.86-.354-1.638-.531-2.336-.531-.615 0-1.078.097-1.391.289-.312.193-.469.459-.469.797a.99.99 0 0 0 .172.586c.12.162.31.315.571.461.26.146.76.357 1.5.633 1.015.37 1.7.742 2.054 1.117.36.375.539.846.539 1.414zm5.735 2.492c-1.266 0-2.266-.385-3-1.156-.729-.771-1.094-1.841-1.094-3.211 0-1.38.339-2.477 1.016-3.289.682-.812 1.596-1.219 2.742-1.219 1.073 0 1.922.354 2.547 1.063.625.703.937 1.633.937 2.789v.82h-5.898c.026 1.005.278 1.768.758 2.289.484.521 1.164.781 2.039.781.922 0 1.833-.192 2.734-.578v1.157a6.647 6.647 0 0 1-1.305.421c-.406.089-.898.133-1.476.133zm-.352-7.789c-.687 0-1.237.224-1.648.672-.406.448-.646 1.068-.719 1.859h4.477c0-.817-.183-1.442-.547-1.875-.365-.437-.886-.656-1.563-.656zm11.242 5.297c0 .797-.296 1.412-.89 1.844-.594.432-1.427.648-2.5.648-1.136 0-2.021-.179-2.656-.539v-1.203c.411.208.851.372 1.32.492.474.12.93.18 1.367.18.677 0 1.198-.107 1.563-.32.364-.219.546-.55.546-.993 0-.333-.145-.617-.437-.851-.287-.24-.849-.521-1.688-.844-.796-.297-1.364-.555-1.703-.773a2.42 2.42 0 0 1-.75-.758c-.161-.281-.242-.617-.242-1.008 0-.698.284-1.247.852-1.648.567-.407 1.346-.61 2.336-.61.921 0 1.823.188 2.703.563l-.461 1.054c-.86-.354-1.638-.531-2.336-.531-.615 0-1.078.097-1.391.289-.312.193-.468.459-.468.797a.99.99 0 0 0 .171.586c.12.162.31.315.571.461.26.146.76.357 1.5.633 1.015.37 1.7.742 2.054 1.117.36.375.539.846.539 1.414zm7.641 0c0 .797-.297 1.412-.891 1.844-.593.432-1.427.648-2.5.648-1.135 0-2.02-.179-2.656-.539v-1.203a6.49 6.49 0 0 0 1.321.492c.473.12.929.18 1.367.18.677 0 1.198-.107 1.562-.32.365-.219.547-.55.547-.993 0-.333-.146-.617-.437-.851-.287-.24-.849-.521-1.688-.844-.797-.297-1.365-.555-1.703-.773a2.42 2.42 0 0 1-.75-.758c-.162-.281-.242-.617-.242-1.008 0-.698.284-1.247.851-1.648.568-.407 1.347-.61 2.336-.61.922 0 1.823.188 2.703.563l-.461 1.054c-.859-.354-1.638-.531-2.335-.531-.615 0-1.079.097-1.391.289-.313.193-.469.459-.469.797 0 .229.057.425.172.586.12.162.31.315.57.461.261.146.761.357 1.5.633 1.016.37 1.701.742 2.055 1.117.359.375.539.846.539 1.414zm3.414 2.336h-1.297v-8.562h1.297V270zm-1.406-10.883c0-.297.073-.513.219-.648a.754.754 0 0 1 .547-.211c.208 0 .388.07.539.211.151.14.226.357.226.648 0 .292-.075.511-.226.656a.763.763 0 0 1-.539.211.754.754 0 0 1-.547-.211c-.146-.145-.219-.364-.219-.656zm11.547 6.594c0 1.396-.352 2.487-1.055 3.273-.703.782-1.674 1.172-2.914 1.172-.766 0-1.445-.179-2.039-.539-.594-.359-1.052-.875-1.375-1.547-.323-.672-.484-1.458-.484-2.359 0-1.396.349-2.482 1.046-3.258.698-.781 1.667-1.172 2.907-1.172 1.198 0 2.148.399 2.851 1.196.709.796 1.063 1.875 1.063 3.234zm-6.524 0c0 1.094.219 1.927.657 2.5.437.573 1.08.859 1.929.859s1.492-.284 1.93-.851c.443-.573.664-1.409.664-2.508 0-1.089-.221-1.914-.664-2.477-.438-.567-1.086-.851-1.945-.851-.849 0-1.49.278-1.922.836-.433.557-.649 1.388-.649 2.492zM492.859 270v-5.539c0-.698-.158-1.219-.476-1.563-.318-.343-.815-.515-1.492-.515-.896 0-1.552.242-1.969.726-.417.485-.625 1.284-.625 2.399V270H487v-8.562h1.055l.211 1.171h.062a2.628 2.628 0 0 1 1.117-.976 3.588 3.588 0 0 1 1.602-.352c1.031 0 1.807.25 2.328.75.521.495.781 1.289.781 2.383V270h-1.297zm4.852-3.148v-.422c0-.61.094-1.11.281-1.5.188-.396.537-.813 1.047-1.25.708-.599 1.154-1.05 1.336-1.352.187-.302.281-.667.281-1.094 0-.531-.172-.94-.515-1.226-.339-.292-.829-.438-1.469-.438-.412 0-.813.05-1.203.149-.391.093-.839.268-1.344.523l-.461-1.054a6.56 6.56 0 0 1 3.086-.774c.995 0 1.768.245 2.32.734.552.49.828 1.18.828 2.071 0 .38-.052.716-.156 1.008a2.95 2.95 0 0 1-.445.82c-.198.255-.625.669-1.281 1.242-.526.448-.875.82-1.047 1.117-.167.297-.25.693-.25 1.188v.258h-1.008zm-.383 2.32c0-.708.313-1.063.938-1.063.302 0 .533.092.695.274.167.182.25.445.25.789 0 .333-.083.594-.25.781-.167.182-.399.274-.695.274a.957.957 0 0 1-.672-.243c-.177-.166-.266-.437-.266-.812zM86.57 346h-3.078l-4.969-8.641h-.07c.1 1.526.149 2.615.149 3.266V346h-2.165v-11.422h3.055l4.961 8.555h.055c-.078-1.485-.117-2.534-.117-3.149v-5.406h2.18V346zm4.594-4.383c0 .865.14 1.518.422 1.961.286.443.75.664 1.39.664.636 0 1.092-.219 1.368-.656.281-.443.422-1.099.422-1.969 0-.864-.141-1.513-.422-1.945-.281-.432-.742-.649-1.383-.649-.635 0-1.094.217-1.375.649-.281.427-.422 1.075-.422 1.945zm6.04 0c0 1.422-.376 2.534-1.126 3.336-.75.802-1.794 1.203-3.133 1.203-.838 0-1.578-.182-2.218-.547a3.682 3.682 0 0 1-1.477-1.586c-.344-.687-.516-1.489-.516-2.406 0-1.427.373-2.536 1.118-3.328.744-.792 1.791-1.187 3.14-1.187.839 0 1.578.182 2.219.546a3.65 3.65 0 0 1 1.477 1.571c.343.682.515 1.482.515 2.398zm4.304 2.703c-.271 1.052-.729 2.3-1.375 3.742h-1.719c.339-1.385.602-2.692.79-3.921h2.187l.117.179zm15.836 1.68h-2.75l-2.992-4.812-1.024.734V346h-2.422v-11.422h2.422v5.227l.953-1.344 3.094-3.883h2.687l-3.984 5.055 4.016 6.367zm4.867-7.203c-.505 0-.901.161-1.188.484-.286.318-.45.771-.492 1.36h3.344c-.01-.589-.164-1.042-.461-1.36-.297-.323-.698-.484-1.203-.484zm.336 7.359c-1.406 0-2.505-.388-3.297-1.164-.792-.776-1.188-1.875-1.188-3.297 0-1.463.365-2.593 1.094-3.39.735-.802 1.748-1.203 3.039-1.203 1.235 0 2.196.351 2.883 1.054.688.703 1.031 1.675 1.031 2.914v1.157h-5.632c.026.677.226 1.205.601 1.585.375.381.901.571 1.578.571.526 0 1.024-.055 1.492-.164a7.47 7.47 0 0 0 1.469-.524v1.844a5.482 5.482 0 0 1-1.336.461c-.474.104-1.052.156-1.734.156zm9.117-7.359c-.505 0-.901.161-1.187.484-.287.318-.451.771-.493 1.36h3.344c-.01-.589-.164-1.042-.461-1.36-.297-.323-.698-.484-1.203-.484zm.336 7.359c-1.406 0-2.505-.388-3.297-1.164-.792-.776-1.187-1.875-1.187-3.297 0-1.463.364-2.593 1.093-3.39.735-.802 1.748-1.203 3.039-1.203 1.235 0 2.196.351 2.883 1.054.688.703 1.031 1.675 1.031 2.914v1.157h-5.632c.026.677.226 1.205.601 1.585.375.381.901.571 1.578.571.526 0 1.024-.055 1.493-.164.468-.11.958-.284 1.468-.524v1.844a5.482 5.482 0 0 1-1.336.461c-.474.104-1.052.156-1.734.156zm10.297 0c-1.026 0-1.831-.372-2.414-1.117h-.125c.083.729.125 1.151.125 1.266v3.539H137.5v-12.578h1.938l.335 1.132h.11c.557-.864 1.383-1.296 2.476-1.296 1.032 0 1.839.398 2.422 1.195.584.797.875 1.904.875 3.32 0 .932-.138 1.742-.414 2.43-.271.687-.659 1.211-1.164 1.57-.505.36-1.099.539-1.781.539zm-.703-7.148c-.589 0-1.018.182-1.289.547-.271.359-.412.955-.422 1.789v.258c0 .937.138 1.609.414 2.015.281.406.724.61 1.328.61 1.068 0 1.602-.881 1.602-2.641 0-.859-.133-1.503-.399-1.93-.26-.432-.672-.648-1.234-.648zM156.805 346l-2.75-8.961h-.071c.099 1.823.149 3.039.149 3.649V346h-2.164v-11.422h3.297l2.703 8.734h.047l2.867-8.734h3.297V346h-2.258v-5.406c0-.255.002-.55.008-.883.01-.333.047-1.219.109-2.656h-.07L159.023 346h-2.218zm8.82-8.734h2.609l1.649 4.914c.14.427.237.932.289 1.515h.047a6.665 6.665 0 0 1 .336-1.515l1.617-4.914h2.555l-3.696 9.851c-.338.912-.823 1.594-1.453 2.047-.625.453-1.357.68-2.195.68-.412 0-.815-.045-1.211-.133v-1.891c.286.068.599.102.937.102.422 0 .789-.13 1.102-.391.318-.255.565-.643.742-1.164l.141-.429-3.469-8.672zm19.555-.836c-.912 0-1.618.343-2.118 1.031-.5.682-.75 1.635-.75 2.859 0 2.547.956 3.821 2.868 3.821.802 0 1.773-.201 2.914-.602v2.031c-.938.391-1.985.586-3.141.586-1.661 0-2.932-.502-3.812-1.508-.881-1.01-1.321-2.458-1.321-4.343 0-1.188.216-2.227.649-3.117.432-.896 1.052-1.581 1.859-2.055.813-.479 1.763-.719 2.852-.719 1.109 0 2.224.268 3.343.805l-.781 1.969a12.743 12.743 0 0 0-1.289-.532 3.845 3.845 0 0 0-1.273-.226zm11.351 9.57-.32-1.117h-.125a2.538 2.538 0 0 1-1.086.945c-.469.219-1.003.328-1.602.328-1.026 0-1.799-.273-2.32-.82-.521-.552-.781-1.344-.781-2.375v-5.695h2.383v5.101c0 .63.112 1.104.336 1.422.224.313.58.469 1.07.469.667 0 1.148-.222 1.445-.664.297-.448.446-1.188.446-2.219v-4.109h2.382V346h-1.828zm9.203-8.898c.323 0 .592.023.805.07l-.18 2.234a2.73 2.73 0 0 0-.703-.078c-.76 0-1.354.195-1.781.586-.422.391-.633.938-.633 1.641V346h-2.383v-8.734h1.805l.352 1.468h.117a3.263 3.263 0 0 1 1.094-1.179 2.707 2.707 0 0 1 1.507-.453zm7.266 0c.323 0 .591.023.805.07l-.18 2.234a2.735 2.735 0 0 0-.703-.078c-.761 0-1.354.195-1.781.586-.422.391-.633.938-.633 1.641V346h-2.383v-8.734h1.805l.351 1.468h.117a3.271 3.271 0 0 1 1.094-1.179 2.71 2.71 0 0 1 1.508-.453zm6.008 1.695c-.505 0-.901.161-1.188.484-.286.318-.45.771-.492 1.36h3.344c-.011-.589-.164-1.042-.461-1.36-.297-.323-.698-.484-1.203-.484zm.336 7.359c-1.406 0-2.505-.388-3.297-1.164-.792-.776-1.188-1.875-1.188-3.297 0-1.463.365-2.593 1.094-3.39.735-.802 1.748-1.203 3.039-1.203 1.235 0 2.196.351 2.883 1.054.687.703 1.031 1.675 1.031 2.914v1.157h-5.633c.026.677.227 1.205.602 1.585.375.381.901.571 1.578.571.526 0 1.024-.055 1.492-.164a7.47 7.47 0 0 0 1.469-.524v1.844a5.496 5.496 0 0 1-1.336.461c-.474.104-1.052.156-1.734.156zm13.562-.156h-2.383v-5.102c0-.63-.112-1.101-.335-1.414-.224-.317-.581-.476-1.071-.476-.666 0-1.148.224-1.445.672-.297.442-.445 1.179-.445 2.211V346h-2.383v-8.734h1.82l.32 1.117h.133c.266-.422.63-.74 1.094-.953.469-.219 1-.328 1.594-.328 1.015 0 1.786.276 2.312.828.526.547.789 1.338.789 2.375V346zm6.133-1.742c.417 0 .917-.091 1.5-.274v1.774c-.594.265-1.323.398-2.187.398-.954 0-1.649-.239-2.086-.718-.433-.485-.649-1.209-.649-2.172v-4.211h-1.14v-1.008l1.312-.797.688-1.844H238v1.86h2.445v1.789H238v4.211c0 .338.094.588.281.75.193.161.446.242.758.242zm14.359-1.43c0 1.031-.372 1.844-1.117 2.438-.739.593-1.771.89-3.093.89-1.219 0-2.297-.229-3.235-.687v-2.25c.771.343 1.422.586 1.953.726a5.822 5.822 0 0 0 1.469.211c.531 0 .937-.101 1.219-.304.286-.204.429-.506.429-.907a.979.979 0 0 0-.187-.593 2.023 2.023 0 0 0-.555-.508c-.239-.162-.732-.42-1.476-.774-.698-.328-1.222-.643-1.571-.945a3.56 3.56 0 0 1-.836-1.055c-.208-.401-.312-.869-.312-1.406 0-1.01.341-1.805 1.023-2.383.688-.578 1.636-.867 2.844-.867.594 0 1.159.07 1.695.211.542.141 1.107.339 1.696.594l-.782 1.883c-.609-.25-1.114-.425-1.515-.524a4.82 4.82 0 0 0-1.172-.148c-.458 0-.81.106-1.055.32a1.06 1.06 0 0 0-.367.836c0 .213.05.401.149.562.099.157.255.31.468.461.219.146.732.412 1.539.797 1.068.511 1.8 1.024 2.196 1.539.396.511.593 1.138.593 1.883zm5.5-4.031c-.505 0-.901.161-1.187.484-.287.318-.451.771-.492 1.36h3.343c-.01-.589-.164-1.042-.46-1.36-.297-.323-.698-.484-1.204-.484zm.336 7.359c-1.406 0-2.505-.388-3.296-1.164-.792-.776-1.188-1.875-1.188-3.297 0-1.463.365-2.593 1.094-3.39.734-.802 1.747-1.203 3.039-1.203 1.234 0 2.195.351 2.883 1.054.687.703 1.031 1.675 1.031 2.914v1.157h-5.633c.026.677.227 1.205.602 1.585.375.381.901.571 1.578.571.526 0 1.023-.055 1.492-.164.469-.11.958-.284 1.469-.524v1.844a5.496 5.496 0 0 1-1.336.461c-.474.104-1.052.156-1.735.156zm11.594-2.75c0 .896-.312 1.578-.937 2.047-.62.469-1.55.703-2.789.703-.636 0-1.178-.044-1.625-.133a5.934 5.934 0 0 1-1.258-.375v-1.968c.442.208.94.382 1.492.523.557.141 1.047.211 1.469.211.864 0 1.297-.25 1.297-.75a.616.616 0 0 0-.172-.453c-.115-.12-.313-.253-.594-.399a13.827 13.827 0 0 0-1.125-.523c-.672-.281-1.167-.542-1.484-.781a2.262 2.262 0 0 1-.688-.82c-.141-.313-.211-.696-.211-1.149 0-.776.3-1.375.899-1.797.604-.427 1.458-.64 2.562-.64 1.052 0 2.076.229 3.07.687l-.718 1.719a13.22 13.22 0 0 0-1.227-.461c-.38-.12-.768-.18-1.164-.18-.703 0-1.055.19-1.055.571 0 .213.112.398.336.554.229.156.727.388 1.492.696.683.276 1.183.533 1.5.773.318.24.553.516.704.828.151.313.226.685.226 1.117zm7.953 0c0 .896-.312 1.578-.937 2.047-.62.469-1.55.703-2.789.703-.636 0-1.177-.044-1.625-.133a5.934 5.934 0 0 1-1.258-.375v-1.968c.443.208.94.382 1.492.523.557.141 1.047.211 1.469.211.864 0 1.297-.25 1.297-.75a.616.616 0 0 0-.172-.453c-.115-.12-.313-.253-.594-.399a13.827 13.827 0 0 0-1.125-.523c-.672-.281-1.167-.542-1.484-.781a2.262 2.262 0 0 1-.688-.82c-.14-.313-.211-.696-.211-1.149 0-.776.3-1.375.899-1.797.604-.427 1.458-.64 2.562-.64a7.27 7.27 0 0 1 3.071.687l-.719 1.719a13.22 13.22 0 0 0-1.227-.461c-.38-.12-.768-.18-1.164-.18-.703 0-1.055.19-1.055.571 0 .213.112.398.336.554.23.156.727.388 1.493.696.682.276 1.182.533 1.5.773a2.3 2.3 0 0 1 .703.828c.151.313.226.685.226 1.117zm1.758-8.398c0-.776.432-1.164 1.297-1.164s1.297.388 1.297 1.164c0 .37-.11.659-.328.867-.214.203-.537.305-.969.305-.865 0-1.297-.391-1.297-1.172zM283.023 346h-2.382v-8.734h2.382V346zm4.407-4.383c0 .865.14 1.518.422 1.961.286.443.75.664 1.39.664.636 0 1.091-.219 1.367-.656.282-.443.422-1.099.422-1.969 0-.864-.14-1.513-.422-1.945-.281-.432-.742-.649-1.382-.649-.636 0-1.094.217-1.375.649-.282.427-.422 1.075-.422 1.945zm6.039 0c0 1.422-.375 2.534-1.125 3.336s-1.795 1.203-3.133 1.203c-.839 0-1.578-.182-2.219-.547a3.68 3.68 0 0 1-1.476-1.586c-.344-.687-.516-1.489-.516-2.406 0-1.427.372-2.536 1.117-3.328.745-.792 1.792-1.187 3.141-1.187.838 0 1.578.182 2.219.546.64.365 1.132.888 1.476 1.571.344.682.516 1.482.516 2.398zM303.5 346h-2.383v-5.102c0-.63-.112-1.101-.336-1.414-.224-.317-.58-.476-1.07-.476-.667 0-1.149.224-1.445.672-.297.442-.446 1.179-.446 2.211V346h-2.382v-8.734h1.82l.32 1.117h.133c.266-.422.63-.74 1.094-.953.468-.219 1-.328 1.593-.328 1.016 0 1.787.276 2.313.828.526.547.789 1.338.789 2.375V346zM68 317h244v-2H68v2zm251 7v32h2v-32h-2zm-7 39H68v2h244v-2zm-251-7v-32h-2v32h2zm7 7a7 7 0 0 1-7-7h-2a9 9 0 0 0 9 9v-2zm251-7a7 7 0 0 1-7 7v2a9 9 0 0 0 9-9h-2zm-7-39a7 7 0 0 1 7 7h2a9 9 0 0 0-9-9v2zm-244-2a9 9 0 0 0-9 9h2a7 7 0 0 1 7-7v-2z" fill="#575A5C"/>
        <path d="M336 324a8 8 0 0 1 8-8h244a8 8 0 0 1 8 8v32a8 8 0 0 1-8 8H344a8 8 0 0 1-8-8v-32z" fill="red"/>
        <path d="m373.992 339.281 2.383-4.703h2.609l-3.789 6.977V346h-2.406v-4.367L369 334.578h2.625l2.367 4.703zm9.86-.484c-.506 0-.901.161-1.188.484-.286.318-.45.771-.492 1.36h3.344c-.011-.589-.164-1.042-.461-1.36-.297-.323-.698-.484-1.203-.484zm.336 7.359c-1.407 0-2.506-.388-3.297-1.164-.792-.776-1.188-1.875-1.188-3.297 0-1.463.365-2.593 1.094-3.39.734-.802 1.747-1.203 3.039-1.203 1.234 0 2.195.351 2.883 1.054.687.703 1.031 1.675 1.031 2.914v1.157h-5.633c.026.677.227 1.205.602 1.585.375.381.901.571 1.578.571.526 0 1.023-.055 1.492-.164.469-.11.958-.284 1.469-.524v1.844a5.496 5.496 0 0 1-1.336.461c-.474.104-1.052.156-1.734.156zm11.593-2.75c0 .896-.312 1.578-.937 2.047-.62.469-1.55.703-2.789.703-.636 0-1.177-.044-1.625-.133a5.934 5.934 0 0 1-1.258-.375v-1.968c.443.208.94.382 1.492.523.557.141 1.047.211 1.469.211.864 0 1.297-.25 1.297-.75a.616.616 0 0 0-.172-.453c-.115-.12-.313-.253-.594-.399a13.827 13.827 0 0 0-1.125-.523c-.672-.281-1.167-.542-1.484-.781a2.262 2.262 0 0 1-.688-.82c-.14-.313-.211-.696-.211-1.149 0-.776.3-1.375.899-1.797.604-.427 1.458-.64 2.562-.64a7.27 7.27 0 0 1 3.071.687l-.719 1.719a13.22 13.22 0 0 0-1.227-.461c-.38-.12-.768-.18-1.164-.18-.703 0-1.055.19-1.055.571 0 .213.112.398.336.554.23.156.727.388 1.493.696.682.276 1.182.533 1.5.773a2.3 2.3 0 0 1 .703.828c.151.313.226.685.226 1.117zm4.196.914c-.271 1.052-.73 2.3-1.375 3.742h-1.719c.338-1.385.601-2.692.789-3.921h2.187l.118.179zm13.39-1.492c0 1.031-.372 1.844-1.117 2.438-.74.593-1.771.89-3.094.89-1.218 0-2.297-.229-3.234-.687v-2.25c.771.343 1.422.586 1.953.726a5.816 5.816 0 0 0 1.469.211c.531 0 .937-.101 1.218-.304.287-.204.43-.506.43-.907a.979.979 0 0 0-.187-.593 2.023 2.023 0 0 0-.555-.508c-.24-.162-.732-.42-1.477-.774-.697-.328-1.221-.643-1.57-.945a3.56 3.56 0 0 1-.836-1.055c-.208-.401-.312-.869-.312-1.406 0-1.01.341-1.805 1.023-2.383.688-.578 1.636-.867 2.844-.867.594 0 1.159.07 1.695.211.542.141 1.107.339 1.695.594l-.781 1.883c-.609-.25-1.114-.425-1.515-.524a4.82 4.82 0 0 0-1.172-.148c-.459 0-.81.106-1.055.32a1.056 1.056 0 0 0-.367.836c0 .213.049.401.148.562.099.157.256.31.469.461.219.146.732.412 1.539.797 1.068.511 1.8 1.024 2.195 1.539.396.511.594 1.138.594 1.883zm5.563 1.43c.416 0 .916-.091 1.5-.274v1.774c-.594.265-1.323.398-2.188.398-.953 0-1.648-.239-2.086-.718-.432-.485-.648-1.209-.648-2.172v-4.211h-1.141v-1.008l1.313-.797.687-1.844h1.524v1.86h2.445v1.789h-2.445v4.211c0 .338.093.588.281.75.193.161.445.242.758.242zm8.82 1.742-.461-1.188h-.062c-.401.506-.816.857-1.243 1.055-.422.193-.974.289-1.656.289-.838 0-1.5-.239-1.984-.718-.479-.48-.719-1.162-.719-2.047 0-.927.323-1.61.969-2.047.651-.443 1.63-.688 2.937-.735l1.516-.047v-.382c0-.886-.453-1.328-1.359-1.328-.698 0-1.519.21-2.461.632l-.789-1.609c1.005-.526 2.119-.789 3.343-.789 1.172 0 2.071.255 2.696.766.625.51.937 1.286.937 2.328V346h-1.664zm-.703-4.047-.922.031c-.693.021-1.208.146-1.547.375-.338.23-.508.579-.508 1.047 0 .672.386 1.008 1.157 1.008.552 0 .992-.159 1.32-.476.333-.318.5-.74.5-1.266v-.719zm9.703-4.851c.323 0 .591.023.805.07l-.18 2.234a2.735 2.735 0 0 0-.703-.078c-.761 0-1.354.195-1.781.586-.422.391-.633.938-.633 1.641V346h-2.383v-8.734h1.805l.351 1.468h.117a3.271 3.271 0 0 1 1.094-1.179 2.71 2.71 0 0 1 1.508-.453zm6.07 7.156c.417 0 .917-.091 1.5-.274v1.774c-.593.265-1.323.398-2.187.398-.953 0-1.649-.239-2.086-.718-.432-.485-.649-1.209-.649-2.172v-4.211h-1.14v-1.008l1.312-.797.688-1.844h1.523v1.86h2.446v1.789h-2.446v4.211c0 .338.094.588.281.75.193.161.446.242.758.242zM455.797 346l-.461-1.188h-.063c-.401.506-.815.857-1.242 1.055-.422.193-.974.289-1.656.289-.839 0-1.5-.239-1.984-.718-.48-.48-.719-1.162-.719-2.047 0-.927.323-1.61.969-2.047.651-.443 1.63-.688 2.937-.735l1.516-.047v-.382c0-.886-.453-1.328-1.36-1.328-.698 0-1.518.21-2.461.632l-.789-1.609c1.006-.526 2.12-.789 3.344-.789 1.172 0 2.07.255 2.695.766.625.51.938 1.286.938 2.328V346h-1.664zm-.703-4.047-.922.031c-.693.021-1.208.146-1.547.375-.339.23-.508.579-.508 1.047 0 .672.386 1.008 1.156 1.008.553 0 .993-.159 1.321-.476.333-.318.5-.74.5-1.266v-.719zM474.398 346h-3.078l-4.968-8.641h-.071c.099 1.526.149 2.615.149 3.266V346h-2.164v-11.422h3.054l4.961 8.555h.055c-.078-1.485-.117-2.534-.117-3.149v-5.406h2.179V346zm6.313-7.203c-.505 0-.901.161-1.188.484-.286.318-.45.771-.492 1.36h3.344c-.01-.589-.164-1.042-.461-1.36-.297-.323-.698-.484-1.203-.484zm.336 7.359c-1.406 0-2.505-.388-3.297-1.164-.792-.776-1.188-1.875-1.188-3.297 0-1.463.365-2.593 1.094-3.39.735-.802 1.748-1.203 3.039-1.203 1.235 0 2.196.351 2.883 1.054.688.703 1.031 1.675 1.031 2.914v1.157h-5.632c.026.677.226 1.205.601 1.585.375.381.901.571 1.578.571.526 0 1.024-.055 1.492-.164a7.47 7.47 0 0 0 1.469-.524v1.844a5.482 5.482 0 0 1-1.336.461c-.474.104-1.052.156-1.734.156zm12.68-.156-.672-3.055-.907-3.859h-.054L490.5 346h-2.562l-2.485-8.734h2.375l1.008 3.867c.161.693.325 1.648.492 2.867h.047c.021-.396.112-1.023.273-1.883l.125-.664 1.079-4.187h2.625l1.023 4.187.094.508a20.452 20.452 0 0 1 .242 1.461c.036.239.057.432.062.578h.047c.047-.375.131-.888.25-1.539.12-.656.206-1.099.258-1.328l1.047-3.867h2.336L496.32 346h-2.593zm17.609-3.172c0 1.031-.372 1.844-1.117 2.438-.74.593-1.771.89-3.094.89-1.219 0-2.297-.229-3.234-.687v-2.25c.77.343 1.421.586 1.953.726a5.815 5.815 0 0 0 1.468.211c.532 0 .938-.101 1.219-.304.287-.204.43-.506.43-.907a.98.98 0 0 0-.188-.593 2.017 2.017 0 0 0-.554-.508c-.24-.162-.732-.42-1.477-.774-.698-.328-1.221-.643-1.57-.945a3.544 3.544 0 0 1-.836-1.055c-.208-.401-.313-.869-.313-1.406 0-1.01.342-1.805 1.024-2.383.687-.578 1.635-.867 2.844-.867.593 0 1.158.07 1.695.211.542.141 1.107.339 1.695.594l-.781 1.883c-.609-.25-1.115-.425-1.516-.524a4.808 4.808 0 0 0-1.172-.148c-.458 0-.809.106-1.054.32a1.056 1.056 0 0 0-.367.836c0 .213.049.401.148.562a1.7 1.7 0 0 0 .469.461c.219.146.732.412 1.539.797 1.068.511 1.799 1.024 2.195 1.539.396.511.594 1.138.594 1.883zm5.5-4.031c-.505 0-.901.161-1.188.484-.286.318-.45.771-.492 1.36h3.344c-.01-.589-.164-1.042-.461-1.36-.297-.323-.698-.484-1.203-.484zm.336 7.359c-1.406 0-2.505-.388-3.297-1.164-.792-.776-1.187-1.875-1.187-3.297 0-1.463.364-2.593 1.093-3.39.735-.802 1.748-1.203 3.039-1.203 1.235 0 2.196.351 2.883 1.054.688.703 1.031 1.675 1.031 2.914v1.157h-5.632c.026.677.226 1.205.601 1.585.375.381.901.571 1.578.571.526 0 1.024-.055 1.492-.164a7.47 7.47 0 0 0 1.469-.524v1.844a5.482 5.482 0 0 1-1.336.461c-.474.104-1.052.156-1.734.156zm11.594-2.75c0 .896-.313 1.578-.938 2.047-.62.469-1.549.703-2.789.703-.635 0-1.177-.044-1.625-.133a5.951 5.951 0 0 1-1.258-.375v-1.968c.443.208.94.382 1.492.523.558.141 1.047.211 1.469.211.865 0 1.297-.25 1.297-.75a.612.612 0 0 0-.172-.453c-.114-.12-.312-.253-.594-.399a13.827 13.827 0 0 0-1.125-.523c-.671-.281-1.166-.542-1.484-.781a2.259 2.259 0 0 1-.687-.82c-.141-.313-.211-.696-.211-1.149 0-.776.299-1.375.898-1.797.604-.427 1.458-.64 2.563-.64 1.052 0 2.075.229 3.07.687l-.719 1.719a13.103 13.103 0 0 0-1.226-.461 3.855 3.855 0 0 0-1.165-.18c-.703 0-1.054.19-1.054.571 0 .213.112.398.336.554.229.156.726.388 1.492.696.682.276 1.182.533 1.5.773.318.24.552.516.703.828.151.313.227.685.227 1.117zm7.953 0c0 .896-.313 1.578-.938 2.047-.62.469-1.549.703-2.789.703-.635 0-1.177-.044-1.625-.133a5.951 5.951 0 0 1-1.258-.375v-1.968c.443.208.94.382 1.493.523.557.141 1.046.211 1.468.211.865 0 1.297-.25 1.297-.75a.612.612 0 0 0-.172-.453c-.114-.12-.312-.253-.593-.399a14.156 14.156 0 0 0-1.125-.523c-.672-.281-1.167-.542-1.485-.781a2.269 2.269 0 0 1-.687-.82c-.141-.313-.211-.696-.211-1.149 0-.776.299-1.375.898-1.797.604-.427 1.459-.64 2.563-.64 1.052 0 2.075.229 3.07.687l-.719 1.719a13.103 13.103 0 0 0-1.226-.461 3.853 3.853 0 0 0-1.164-.18c-.704 0-1.055.19-1.055.571 0 .213.112.398.336.554.229.156.726.388 1.492.696.682.276 1.182.533 1.5.773.318.24.552.516.703.828.151.313.227.685.227 1.117zm1.758-8.398c0-.776.432-1.164 1.296-1.164.865 0 1.297.388 1.297 1.164 0 .37-.109.659-.328.867-.213.203-.536.305-.969.305-.864 0-1.296-.391-1.296-1.172zM540.961 346h-2.383v-8.734h2.383V346zm4.406-4.383c0 .865.141 1.518.422 1.961.287.443.75.664 1.391.664.635 0 1.091-.219 1.367-.656.281-.443.422-1.099.422-1.969 0-.864-.141-1.513-.422-1.945-.281-.432-.742-.649-1.383-.649-.635 0-1.094.217-1.375.649-.281.427-.422 1.075-.422 1.945zm6.039 0c0 1.422-.375 2.534-1.125 3.336s-1.794 1.203-3.133 1.203c-.838 0-1.578-.182-2.218-.547a3.682 3.682 0 0 1-1.477-1.586c-.344-.687-.515-1.489-.515-2.406 0-1.427.372-2.536 1.117-3.328.744-.792 1.791-1.187 3.14-1.187.839 0 1.578.182 2.219.546a3.65 3.65 0 0 1 1.477 1.571c.343.682.515 1.482.515 2.398zM561.438 346h-2.383v-5.102c0-.63-.112-1.101-.336-1.414-.224-.317-.581-.476-1.071-.476-.666 0-1.148.224-1.445.672-.297.442-.445 1.179-.445 2.211V346h-2.383v-8.734h1.82l.321 1.117h.132c.266-.422.631-.74 1.094-.953.469-.219 1-.328 1.594-.328 1.016 0 1.786.276 2.312.828.526.547.79 1.338.79 2.375V346z" fill="#fff"/>
    </g>
    <defs>
        <filter id="a" x="0" y="0" width="656" height="458" filterUnits="userSpaceOnUse" color-interpolation-filters="sRGB">
            <feFlood flood-opacity="0" result="BackgroundImageFix"/>
            <feColorMatrix in="SourceAlpha" values="0 0 0 0 0 0 0 0 0 0 0 0 0 0 0 0 0 0 127 0" result="hardAlpha"/>
            <feMorphology radius="4" in="SourceAlpha" result="effect1_dropShadow"/>
            <feOffset dy="10"/>
            <feGaussianBlur stdDeviation="16"/>
            <feColorMatrix values="0 0 0 0 0.0941176 0 0 0 0 0.152941 0 0 0 0 0.294118 0 0 0 0.1 0"/>
            <feBlend in2="BackgroundImageFix" result="effect1_dropShadow"/>
            <feColorMatrix in="SourceAlpha" values="0 0 0 0 0 0 0 0 0 0 0 0 0 0 0 0 0 0 127 0" result="hardAlpha"/>
            <feMorphology radius="2" in="SourceAlpha" result="effect2_dropShadow"/>
            <feOffset/>
            <feGaussianBlur stdDeviation="8"/>
            <feColorMatrix values="0 0 0 0 0.0941176 0 0 0 0 0.152941 0 0 0 0 0.294118 0 0 0 0.08 0"/>
            <feBlend in2="effect1_dropShadow" result="effect2_dropShadow"/>
            <feBlend in="SourceGraphic" in2="effect2_dropShadow" result="shape"/>
        </filter>
    </defs>
</svg>
