<svg width="93" height="90" viewBox="0 0 93 90" fill="none" xmlns="http://www.w3.org/2000/svg">
<path fill-rule="evenodd" clip-rule="evenodd" d="M38.5754 23.5965H32.7585L34.7945 21.3086H40.0295L38.5754 23.5965Z" fill="#FF6666"/>
<path fill-rule="evenodd" clip-rule="evenodd" d="M32.7585 31.1166H38.5754V23.5977H32.7585V31.1166Z" fill="#FFAB00"/>
<path fill-rule="evenodd" clip-rule="evenodd" d="M40.0294 28.5127L38.5753 31.1159V23.5965L40.0548 21.3086L40.0294 28.5127Z" fill="#FFDDC5"/>
<path fill-rule="evenodd" clip-rule="evenodd" d="M46.6218 18.1854H40.8049L42.8409 15.8965H48.0759L46.6218 18.1854Z" fill="#FF6666"/>
<path fill-rule="evenodd" clip-rule="evenodd" d="M40.8046 31.1986H46.6214V18.1016H40.8046V31.1986Z" fill="#FFAB00"/>
<path fill-rule="evenodd" clip-rule="evenodd" d="M48.0758 28.5963L46.6217 31.1995V18.1854L48.0581 15.8965L48.0758 28.5963Z" fill="#FFDDC5"/>
<path fill-rule="evenodd" clip-rule="evenodd" d="M54.9485 14.5576H49.1316L51.1675 12.7227H56.4025L54.9485 14.5576Z" fill="#FF6666"/>
<path fill-rule="evenodd" clip-rule="evenodd" d="M49.1321 31.2734H54.9489V14.5566H49.1321V31.2734Z" fill="#FFAB00"/>
<path fill-rule="evenodd" clip-rule="evenodd" d="M56.4029 28.6712L54.9489 31.2744V14.5004L56.3753 12.7227L56.4029 28.6712Z" fill="#FFDDC5"/>
<path fill-rule="evenodd" clip-rule="evenodd" d="M67.2408 34.6478C67.2408 34.6478 68.2206 37.9424 70.473 37.8038C72.4041 37.6854 74.7835 33.1719 74.7835 33.1719L67.2408 34.6478Z" fill="#FF6666"/>
<path d="M66.5568 81.6488L66.1698 84.7444L64.4285 85.9053L61.7198 85.3249C61.7198 85.3249 63.2677 84.551 63.6546 83.7771L65.009 81.0684L66.5568 81.6488Z" fill="#FFDDC5"/>
<path fill-rule="evenodd" clip-rule="evenodd" d="M66.0066 83.0933L67.7799 83.488C67.7799 83.488 73.1071 77.6216 74.3485 70.4296C74.5702 69.1451 74.614 67.8896 74.4126 66.7132C74.4126 66.7132 74.4941 66.3864 74.637 65.8074C74.643 65.7818 74.6496 65.7561 74.6556 65.73C74.7186 65.4762 74.7936 65.1778 74.8768 64.8395C75.1477 63.7476 75.5204 62.2531 75.9452 60.5518C76.9239 56.6363 79.1702 47.804 80.1363 44.1286L71.401 41.5723C71.401 41.5723 70.5668 43.8378 69.5433 49.9206C69.3769 50.7161 69.2154 51.5946 69.0731 52.55C68.9111 53.6326 68.7704 54.8133 68.6719 56.0863C68.5044 58.2416 68.4529 60.6588 68.604 63.2969C68.6653 64.3702 68.7606 65.4811 68.8952 66.6254C68.9943 67.4645 68.9385 68.5935 68.7819 69.8845C68.0665 75.7845 66.0066 83.0933 66.0066 83.0933Z" fill="#333739"/>
<path d="M67.6727 87.9608L60.7645 88.3854C60.8231 87.0736 63.2747 86.7141 63.2747 86.7141C65.4156 87.2379 67.3635 86.127 67.3635 86.127C67.8627 86.8467 67.6727 87.9608 67.6727 87.9608Z" fill="#333739"/>
<path fill-rule="evenodd" clip-rule="evenodd" d="M68.6719 56.0863L74.6562 65.7305C74.7186 65.4762 74.7935 65.1778 74.8767 64.8395C75.1477 63.7476 75.521 62.2537 75.9457 60.5524C76.9244 56.6369 79.1708 47.804 80.1363 44.1286L71.401 41.5723C71.401 41.5723 70.5668 43.8383 69.5438 49.9206C69.3774 50.7161 69.2154 51.5951 69.0731 52.5506C68.9111 53.6326 68.7709 54.8133 68.6719 56.0863Z" fill="#333739"/>
<path d="M79.5199 84.5511H81.0677L81.2612 80.875H79.1329L79.5199 84.5511Z" fill="#FFDDC5"/>
<path fill-rule="evenodd" clip-rule="evenodd" d="M82.7968 85.4704C82.7968 85.4704 83.3474 86.6103 82.9582 87.6241L79.2006 87.8554C79.2006 87.8554 79.0676 86.9709 80.3676 85.8557C81.3517 85.011 82.7968 85.4704 82.7968 85.4704Z" fill="#333739"/>
<path fill-rule="evenodd" clip-rule="evenodd" d="M74.947 25.7331C75.6903 26.1821 76.6099 26.5341 77.7479 26.7229C82.0145 27.4333 83.4075 23.7895 83.8624 21.3194C83.2685 21.028 82.7239 20.9887 82.4097 20.9707C82.1037 20.9538 81.7824 20.9494 81.517 20.9527C81.0222 20.6215 80.2268 19.1887 79.9296 16.9062L79.7348 16.9712L76.4752 18.0799C76.4752 18.0799 76.692 19.121 76.8283 20.1092C76.9339 20.8829 76.9887 21.625 76.8524 21.8154C76.5973 21.8874 76.444 21.9338 76.444 21.9338C76.444 21.9338 76.444 21.9349 76.4424 21.9371C76.4024 22.0124 75.5387 23.6482 74.947 25.7331Z" fill="#FFDDC5"/>
<path opacity="0.1" fill-rule="evenodd" clip-rule="evenodd" d="M76.4752 18.0809C76.4752 18.0809 76.6925 19.1208 76.8283 20.1106C78.6948 19.8078 79.4561 17.9712 79.7353 16.9727L76.4752 18.0809Z" fill="#333739"/>
<path fill-rule="evenodd" clip-rule="evenodd" d="M76.5343 19.6593C76.5343 19.6593 80.7906 18.2854 79.8913 15.6565C78.9925 13.0282 78.9362 11.0797 76.1808 11.8463C73.4253 12.6118 73.2431 13.7937 73.3296 14.7437C73.4149 15.6936 75.404 19.9491 76.5343 19.6593Z" fill="#FFDDC5"/>
<path fill-rule="evenodd" clip-rule="evenodd" d="M75.4166 21.7732C75.4166 21.7732 82.5706 19.5688 85.8897 21.9713L85.6692 44.0108L71.2528 41.4632C71.2528 41.4632 71.5664 40.05 74.0619 36.1906C76.5573 32.3313 75.0372 26.9884 75.4166 21.7732Z" fill="#FFDDC5"/>
<path fill-rule="evenodd" clip-rule="evenodd" d="M75.2675 41.9715C75.2675 41.9715 75.2798 42.0422 75.303 42.1764C75.3132 42.2336 75.3261 42.3039 75.3401 42.385C75.4348 42.9234 75.6152 43.957 75.8482 45.3006C76.458 48.8259 77.4231 54.488 78.1201 58.961C78.6648 62.4587 79.0464 65.2297 78.9651 65.6828C78.7202 67.0472 80.6212 83.4718 80.6212 83.4718C81.843 83.9514 82.9381 83.4718 82.9381 83.4718C82.9381 83.4718 85.3018 68.2504 84.7302 66.2628C84.1591 64.2762 84.7878 62.5128 84.7878 62.5128C86.5381 51.316 85.8782 45.2075 85.2033 42.3044C85.0074 41.4601 84.8098 40.8869 84.6694 40.5389C84.5509 40.2429 84.4729 40.1092 84.4729 40.1092C78.9673 39.0236 75.2675 41.9715 75.2675 41.9715Z" fill="#333739"/>
<path fill-rule="evenodd" clip-rule="evenodd" d="M87.2564 28.1699C87.0692 30.831 85.8661 34.1474 85.4731 35.9169C85.4731 35.9169 86.6838 41.902 85.987 43.6088C85.9082 43.8031 85.8037 43.9422 85.6696 44.0104C82.7872 45.4793 71.1755 44.9391 70.459 41.2598C70.1985 39.923 74.2582 34.7771 74.4892 34.1856C74.585 33.9411 74.5363 33.7916 74.5412 33.2929C73.926 35.6741 69.3978 34.4562 69.3978 34.1856C69.3978 33.915 70.6955 26.9373 71.9018 24.232C72.8088 22.199 75.539 21.7444 75.539 21.7444C75.539 21.7444 76.7947 23.4818 79.5441 23.0556C82.294 22.6289 82.6952 20.9102 82.6952 20.9102C82.6952 20.9102 85.1687 21.0848 85.9619 21.6457C86.0992 21.7433 87.5021 24.6827 87.2564 28.1699Z" fill="#FF6666"/>
<path fill-rule="evenodd" clip-rule="evenodd" d="M85.4726 35.9164C85.4726 35.9164 86.6833 41.9015 85.9866 43.6083C83.7621 42.661 81.8808 39.8444 82.0719 36.5662C82.2131 34.1436 82.6105 33.5685 83.8163 32.1127C84.7025 31.0427 86.8913 30.8512 86.7496 31.3428C86.3265 32.8073 85.68 34.9817 85.4726 35.9164Z" fill="#FF6666"/>
<path opacity="0.3" fill-rule="evenodd" clip-rule="evenodd" d="M61.2423 28.8001C57.1146 37.8539 46.4067 41.8579 37.3243 37.7432C28.2426 33.6285 24.226 22.9536 28.3537 13.9003C32.4813 4.84706 43.1893 0.843146 52.2711 4.95782C61.3534 9.0725 65.3699 19.7469 61.2423 28.8001Z" stroke="#FFAB00" stroke-width="1.54783"/>
<path fill-rule="evenodd" clip-rule="evenodd" d="M89.4647 43.3841L62.5555 31.1934C61.4553 30.6947 60.9681 29.4004 61.4684 28.3031C61.9687 27.2064 63.2665 26.7208 64.3672 27.2195L91.2765 39.4102C92.3772 39.9089 92.8638 41.2026 92.3635 42.3005C91.8633 43.3972 90.5655 43.8828 89.4647 43.3841Z" fill="#FFAB00"/>
<path fill-rule="evenodd" clip-rule="evenodd" d="M63.5801 21.4688C67.0674 23.0489 68.525 27.3317 66.8369 31.0355C65.1483 34.7387 60.9528 36.4608 57.4656 34.8811" fill="#FFAB00"/>
<path fill-rule="evenodd" clip-rule="evenodd" d="M61.9068 28.9321C57.4666 38.6718 45.9469 42.9785 36.1771 38.5528C26.4072 34.1266 22.0864 22.6431 26.5266 12.9034C30.9667 3.16423 42.4865 -1.14251 52.2563 3.28318C62.0261 7.70942 66.3469 19.193 61.9068 28.9321Z" stroke="#FFAB00" stroke-width="2.32174"/>
<path d="M66.1817 29.6014L66.8216 27.8415L88.8766 38.147C90.0601 38.7 90.5767 40.1036 90.0339 41.2919C89.4816 42.5011 88.0458 43.0234 86.8456 42.4517L64.8025 31.9504L65.9504 30.0806C66.0434 29.929 66.1209 29.7685 66.1817 29.6014Z" stroke="#333739" stroke-width="0.251522"/>
<path opacity="0.5" fill-rule="evenodd" clip-rule="evenodd" d="M89.4649 43.3839C89.4649 43.3839 89.9406 41.8016 89.3741 40.9454C88.8076 40.0893 69.4015 31.298 68.3117 31.4033C67.2219 31.5086 65.8524 32.625 65.8524 32.625L89.4649 43.3839Z" fill="white"/>
<path fill-rule="evenodd" clip-rule="evenodd" d="M68.9049 32.89C68.7669 32.4491 67.8058 32.7885 67.4916 33.0663C67.4155 33.1339 67.3356 33.2458 67.2589 33.3762C67.2442 33.302 67.2305 33.2305 67.2223 33.1748C67.1905 32.9664 66.9218 32.6052 66.878 32.89C66.8347 33.1759 66.8074 34.3665 66.8074 34.3665C66.8544 35.3208 67.4943 35.6766 67.8703 35.3421C68.2458 35.0071 69.0428 33.3309 68.9049 32.89Z" fill="#FFDDC5"/>
<path fill-rule="evenodd" clip-rule="evenodd" d="M91.1612 33.6425C90.824 33.9557 90.1814 35.6101 89.8585 35.8458C88.4074 36.9033 81.0761 37.0157 81.0761 37.0157L80.9174 35.5463C80.9174 35.5463 87.7325 33.9901 88.4145 33.5629C88.5426 33.4821 88.9214 31.9527 89.1518 31.6875L91.1612 33.6425Z" fill="#FFDDC5"/>
<path fill-rule="evenodd" clip-rule="evenodd" d="M82.7942 20.9277C82.7942 20.9277 86.3827 21.1302 87.4583 22.5925C88.8174 24.4417 92.2187 31.9306 92.2438 33.8687C92.2438 33.8687 90.3286 37.6303 82.9546 37.501C82.9546 37.501 82.0246 34.8596 83.5135 33.8769C83.5135 33.8769 87.241 32.9771 87.6515 32.5695L84.2338 27.1911L82.7942 20.9277Z" fill="#FF6666"/>
<path fill-rule="evenodd" clip-rule="evenodd" d="M79.7892 11.5849C80.3223 12.3968 83.549 13.4908 86.0099 12.0503C88.4988 10.5908 86.4352 8.57243 85.8808 8.10481C85.3268 7.63775 83.7132 7.05391 81.9283 8.388C80.1428 9.72209 79.1833 10.659 79.7892 11.5849Z" fill="#333739"/>
<path fill-rule="evenodd" clip-rule="evenodd" d="M77.7921 13.9724C78.0675 14.2326 78.4802 14.2206 78.7155 13.9462L80.3899 11.9993C80.6231 11.7254 80.5919 11.2911 80.3166 11.0308C80.0412 10.7711 79.6263 10.7837 79.3926 11.057L77.7188 13.0044C77.4829 13.2789 77.5168 13.7121 77.7921 13.9724Z" fill="#FF6666"/>
<path fill-rule="evenodd" clip-rule="evenodd" d="M73.3573 16.2456C72.891 15.2793 72.6874 14.3299 72.9495 13.5054C72.9747 13.3707 73.0317 13.2381 73.1274 13.0924C73.4132 12.5669 73.9299 12.0982 74.7416 11.7299C74.7536 11.7234 74.7733 11.719 74.7947 11.7201C74.9277 11.6704 75.0618 11.6257 75.1959 11.5935C75.2643 11.5706 75.3399 11.5553 75.4192 11.5438C75.6787 11.4942 75.9343 11.4756 76.1806 11.4724C78.3722 11.396 79.8069 12.5282 80.0302 14.9737C80.1468 16.2325 79.7811 16.8442 79.2661 17.1034L78.9486 16.4661C78.9398 16.3438 79.0356 16.3477 79.0356 16.3477C79.6706 16.2298 79.774 15.8195 79.6104 15.1271C79.5293 14.7931 79.363 14.594 79.1484 14.546C79.1435 14.5427 79.1385 14.5454 79.1314 14.5432C79.1243 14.5405 79.115 14.54 79.1079 14.5372C79.1008 14.535 79.0958 14.5378 79.0887 14.535C79.0794 14.5345 79.0723 14.5323 79.0603 14.5323C79.0581 14.5334 79.051 14.5318 79.046 14.534C79.0362 14.5329 79.0247 14.5334 79.0192 14.5356C79.017 14.5372 79.0099 14.5345 79.005 14.5372C78.9929 14.5378 78.9858 14.5416 78.9738 14.5416C78.971 14.5432 78.971 14.5432 78.9639 14.5405C78.9081 14.5514 78.8523 14.5683 78.7975 14.5956L78.7926 14.5978C78.7806 14.6043 78.768 14.6103 78.7532 14.6185C78.751 14.6196 78.751 14.6196 78.7455 14.6218C78.7335 14.6278 78.7182 14.6354 78.7061 14.642C78.7034 14.6425 78.7034 14.6425 78.6985 14.6453C78.6864 14.6518 78.6711 14.6655 78.6563 14.6726L78.6536 14.6736C78.5934 14.7157 78.5299 14.7708 78.4686 14.8308C78.4281 14.869 78.4729 14.8744 78.4335 14.9235L78.2983 14.9803C78.2562 15.0016 78.2069 15.0207 78.1555 15.0403C76.9617 15.4626 74.7837 15.4806 73.6124 14.6846C73.4575 15.4785 73.9693 16.6243 74.5254 17.5339C74.0361 17.2201 73.6228 16.7989 73.3573 16.2456Z" fill="#333739"/>
<path fill-rule="evenodd" clip-rule="evenodd" d="M81.4484 35.5214C81.4484 35.5214 80.4106 34.7804 79.7538 35.0025C79.0969 35.2251 78.1664 36.127 77.8139 36.3497C77.4614 36.5712 76.514 37.3454 77.0433 37.7454C77.572 38.1459 79.1139 37.6794 79.7133 37.3105C80.3121 36.9422 81.2804 36.9957 81.2804 36.9957L81.4484 35.5214Z" fill="#FFDDC5"/>
<path fill-rule="evenodd" clip-rule="evenodd" d="M79.9415 34.9642C79.9415 34.9642 78.7313 34.8955 78.4035 34.9222C78.0762 34.9489 78.1698 35.0149 78.3663 35.2578C78.5628 35.5 79.195 35.559 79.2289 35.6457C79.2634 35.733 79.9415 34.9642 79.9415 34.9642Z" fill="#FFDDC5"/>
<path d="M64.0413 21.4766C64.0413 21.4766 68.4913 24.1853 66.1695 29.6026C63.8478 35.02 57.85 33.8592 57.85 33.8592" stroke="#333739" stroke-width="0.251522"/>
<path d="M64.109 19.9283C64.109 30.8615 54.9867 39.7308 43.7261 39.7308C32.4655 39.7308 23.3432 30.8615 23.3432 19.9283C23.3432 8.99502 32.4655 0.125761 43.7261 0.125761C54.9867 0.125761 64.109 8.99502 64.109 19.9283Z" stroke="#333739" stroke-width="0.251522"/>
</svg>
