<svg width="250" height="180" viewBox="0 0 250 180" fill="none" xmlns="http://www.w3.org/2000/svg">
<path opacity="0.3" fill-rule="evenodd" clip-rule="evenodd" d="M71.9745 173.249C71.9745 173.249 45.9458 173.216 46.0001 173.987C46.163 176.548 66.6297 175.05 68.3027 175.821C69.1283 176.201 68.2158 177.026 69.6715 177.557C75.4508 179.674 95.5807 177.753 102.761 177.764C122.326 177.807 127.291 178.762 129.561 178.882C135.938 179.229 153.982 179.088 159.056 179.023C169.495 178.882 197.588 179.446 196.991 177.286C196.73 176.309 176.183 173.316 171.588 173.055C167.655 172.827 158.534 172.424 155.004 171.631C150.072 170.524 144.651 169.851 139.328 169.428C117.014 167.67 94.1358 171.805 71.9745 173.249Z" fill="#333739"/>
<path opacity="0.1" d="M85.4993 163C103.448 163 117.999 148.45 117.999 130.5C117.999 112.551 103.448 98.0002 85.4993 98.0002C67.5504 98.0002 53 112.551 53 130.5C53 148.45 67.5504 163 85.4993 163Z" fill="#333739"/>
<path opacity="0.1" d="M155.5 117C187.809 117 214 90.8089 214 58.5002C214 26.1916 187.809 0.000244141 155.5 0.000244141C123.191 0.000244141 97 26.1916 97 58.5002C97 90.8089 123.191 117 155.5 117Z" fill="#333739"/>
<path d="M151.754 140H103.637C98.7541 140 94.8002 136.029 94.8002 131.124V11.8868C94.8002 6.98232 98.7541 3.01099 103.637 3.01099H151.765C156.648 3.01099 160.602 6.98232 160.602 11.8868V131.124C160.602 136.029 156.637 140 151.754 140Z" fill="white" stroke="#333739" stroke-width="0.519135" stroke-miterlimit="10"/>
<path d="M138.661 6.67861H117.497C116.568 6.67861 115.812 5.91906 115.812 4.98591V3.00024H140.486V4.834C140.486 5.85396 139.665 6.67861 138.661 6.67861Z" fill="#333739"/>
<path opacity="0.2" d="M132.038 94.1453H84.4725C82.0094 94.1453 80 92.138 80 89.6532V17.7352C80 15.2613 81.9986 13.243 84.4725 13.243H132.049C134.512 13.243 136.522 15.2504 136.522 17.7352V89.6532C136.511 92.138 134.512 94.1453 132.038 94.1453Z" fill="#333739"/>
<path d="M109.752 50.4391H88.5776C86.7087 50.4391 85.1963 48.92 85.1963 47.0429V21.2075C85.1963 19.3304 86.7087 17.8113 88.5776 17.8113H109.752C111.621 17.8113 113.133 19.3304 113.133 21.2075V47.0429C113.133 48.92 111.621 50.4391 109.752 50.4391Z" fill="white"/>
<path d="M115.888 21.7283C116.514 21.7283 117.022 21.2182 117.022 20.589C117.022 19.9598 116.514 19.4497 115.888 19.4497C115.261 19.4497 114.754 19.9598 114.754 20.589C114.754 21.2182 115.261 21.7283 115.888 21.7283Z" fill="white"/>
<path d="M120.436 21.7283C121.062 21.7283 121.57 21.2182 121.57 20.589C121.57 19.9598 121.062 19.4497 120.436 19.4497C119.809 19.4497 119.302 19.9598 119.302 20.589C119.302 21.2182 119.809 21.7283 120.436 21.7283Z" fill="white"/>
<path d="M125.956 59.239H84.0619C83.2517 59.239 82.6035 58.5771 82.6035 57.7742C82.6035 56.9604 83.2625 56.3093 84.0619 56.3093H125.956C126.766 56.3093 127.415 56.9712 127.415 57.7742C127.415 58.588 126.766 59.239 125.956 59.239Z" fill="white"/>
<path d="M130.828 67.7243H88.9341C88.1239 67.7243 87.4757 67.0625 87.4757 66.2595C87.4757 65.4457 88.1347 64.7947 88.9341 64.7947H130.828C131.639 64.7947 132.287 65.4566 132.287 66.2595C132.287 67.0625 131.639 67.7243 130.828 67.7243Z" fill="white"/>
<path d="M126.929 75.5476H85.0342C84.224 75.5476 83.5758 74.8857 83.5758 74.0828C83.5758 73.269 84.2348 72.6179 85.0342 72.6179H126.929C127.739 72.6179 128.387 73.2798 128.387 74.0828C128.387 74.8965 127.739 75.5476 126.929 75.5476Z" fill="white"/>
<path d="M159.586 104.768H138.477C136.597 104.768 135.063 103.238 135.063 101.339C135.063 99.4514 136.586 97.9106 138.477 97.9106H159.586C161.466 97.9106 163 99.4406 163 101.339C162.989 103.238 161.466 104.768 159.586 104.768Z" fill="#333739" stroke="white" stroke-width="0.259567" stroke-miterlimit="10"/>
<path d="M151.614 127.739H105.171C103.291 127.739 101.757 126.209 101.757 124.31C101.757 122.422 103.281 120.881 105.171 120.881H151.614C153.493 120.881 155.027 122.411 155.027 124.31C155.017 126.209 153.493 127.739 151.614 127.739Z" fill="#333739" stroke="white" stroke-width="0.259567" stroke-miterlimit="10"/>
<path d="M103.119 42.5073C103.151 42.5182 100.493 44.0589 98.4192 43.5815C96.4747 43.1366 95.1459 41.4873 95.1783 41.4765C95.9885 41.2812 96.129 39.3498 95.9021 34.5212L96.2694 34.5755L102.514 35.5303C102.514 35.5303 102.46 37.4943 102.535 39.3389C102.6 40.8906 102.751 42.3554 103.119 42.5073Z" fill="#FFDDC5"/>
<path opacity="0.1" d="M102.514 36.073C102.514 36.073 102.46 37.9936 102.535 39.784C99.1538 39.8382 97.2309 36.8217 96.4207 35.1399L102.514 36.073Z" fill="#333739"/>
<path d="M103.324 38.0153C103.324 38.0153 95.3296 38.5036 95.1027 33.5014C94.8759 28.4993 93.6875 25.1899 98.7866 24.669C103.886 24.1482 104.955 26.0145 105.441 27.6638C105.917 29.3022 105.398 37.7549 103.324 38.0153Z" fill="#FFDDC5"/>
<path d="M105.895 21.7827C108.142 24.4628 107.353 26.0687 104.966 26.1447C102.578 26.2206 99.089 25.9819 99.089 25.9819C99.089 25.9819 97.9763 34.2175 97.6738 32.1885C97.3821 30.1594 98.4408 29.8773 97.5009 28.4558C96.5611 27.0344 95.5672 27.9242 95.5564 28.9441C95.5456 29.9749 95.1243 34.5647 95.1243 34.5647C95.1243 34.5647 93.7307 29.5626 94.0872 26.5678C94.4437 23.5839 95.8265 21.1208 98.8837 21.7393C101.941 22.3578 102.265 23.3669 104.134 23.0848C106.014 22.8135 105.895 21.7827 105.895 21.7827Z" fill="#333739"/>
<path d="M95.1675 41.4766C100.137 45.3177 102.73 41.7261 102.73 41.7261L110.583 43.6684L113.122 48.2474C112.474 51.1879 108.747 51.8389 108.574 51.8389C107.926 51.8389 91.8078 52.0668 88.6641 51.6328C85.5204 51.1879 85.1099 48.0195 85.1099 48.0195L87.1408 44.0156L95.1675 41.4766Z" fill="#FF6666"/>
<path opacity="0.1" d="M160.971 94.1455H153.841C151.648 94.1455 149.876 92.366 149.876 90.1633V17.7896C149.876 15.5869 151.648 13.8074 153.841 13.8074H160.971V94.1455Z" fill="#333739"/>
<path d="M159.943 51.4157H159.565C156.691 51.4157 154.368 49.0829 154.368 46.1966V22.412C154.368 20.0574 156.27 18.1477 158.614 18.1477H159.943V51.4157Z" fill="white"/>
<path d="M177.84 39.4992V35.3663C177.84 35.3663 175.056 34.9659 174.417 34.3224C173.892 33.7933 172.954 31.4337 172.614 30.5613C172.528 30.3611 172.486 30.2324 172.486 30.2324L172.06 25.0556V21.6807C172.06 21.6807 172.486 20.3078 172.912 19.4498C173.338 18.5918 173.764 17.7194 174.63 16.8614C175.482 16.0034 176.775 15.5743 176.775 15.5743C176.775 15.5743 178.493 14.7163 179.771 14.7163C181.05 14.7163 181.05 14.7163 182.342 15.1453C183.62 15.5743 184.913 16.4324 184.913 16.4324C184.913 16.4324 185.765 16.8614 186.191 17.2904C186.617 17.7194 187.469 19.0208 187.909 19.8788C188.335 20.7368 188.335 21.6092 188.335 22.0382C188.335 22.4672 188.335 24.2405 188.335 24.8554C188.335 25.4703 187.483 27.6297 187.057 28.5021C186.631 29.3744 186.532 29.9464 186.205 30.6614C185.807 31.5338 185.353 32.3918 185.353 32.3918C185.353 32.3918 184.927 33.2498 184.927 33.6789C184.927 34.1079 184.927 37.1253 184.927 37.1253V38.8557V40.1427H177.783L177.84 39.4992Z" fill="#FFDDC5"/>
<path d="M180.197 33.1354L185.765 33.2499L187.909 27.644C187.909 27.644 189.841 23.125 190.054 22.0382C190.267 20.9657 190.267 20.3221 190.054 18.9207C189.841 17.5192 189.201 16.8757 189.201 16.8757C189.201 16.8757 188.136 15.8032 186.631 15.1453C185.14 14.5018 185.14 14.5018 184.486 14.2873C183.833 14.0728 181.49 13.8583 181.49 13.8583H178.408H176.107L174.872 13.6438L174.233 13.4293L173.807 13.0002L173.38 13.4293L172.954 14.2873L172.528 15.1453C172.528 15.1453 172.102 16.0463 172.102 16.032C172.102 16.0177 172.102 17.5049 172.102 17.5049C172.102 17.5049 172.315 17.9625 172.528 18.6061C172.741 19.2496 173.594 19.2496 173.807 19.4641C174.02 19.6786 175.085 19.8931 175.085 19.8931L176.363 20.3221H176.789V21.1802L176.15 21.8237L175.695 22.41L175.284 23.1107L175.497 24.6123V25.0413C175.497 25.0413 177.385 23.0964 177.84 23.0964C178.294 23.0964 178.706 23.5255 178.933 23.74C179.146 23.9545 179.573 24.8125 179.36 25.4703C179.146 26.1282 178.408 27.4152 178.408 27.4152L178.067 28.0587L180.212 33.2356" fill="#333739"/>
<path d="M192.013 84.4604H167.657C167.657 84.4604 167.188 121.941 167.188 123.239C167.188 124.537 168.04 136.603 168.467 138.229L171.889 169.848H181.518C181.518 169.848 180.666 129.272 181.518 116.893C181.603 115.723 181.674 114.611 181.731 113.541C182.37 103.329 182.37 97.9809 182.37 97.9809L181.674 114.596L193.931 169.677L204 169.834C204 169.834 201.202 150.765 199.058 133.822L192.013 84.4604Z" fill="#333739"/>
<path d="M182.385 97.9807L182.598 110.531L181.674 114.596L182.385 97.9807Z" fill="#333739"/>
<path d="M160.031 54.3146L162.885 60.6926C163.027 61.0072 162.914 61.3647 162.63 61.5507L155.529 66.3127C155.202 66.5416 154.747 66.4415 154.52 66.1125L134.112 35.8954C133.899 35.5665 133.998 35.1232 134.339 34.923L136.484 33.5215C136.725 33.3785 136.867 33.1068 136.825 32.8351L136.611 31.2191C136.555 30.8044 136.896 30.4326 137.322 30.4326C137.634 30.4326 137.918 30.6328 138.003 30.9331L138.657 33.1783C138.671 33.2498 138.713 33.307 138.742 33.3785L139.977 35.1947C140.077 35.352 140.119 35.5379 140.077 35.7238L139.835 36.9251C139.793 37.1253 139.835 37.3255 139.963 37.4828L154.463 56.5169C154.705 56.8315 155.159 56.8887 155.472 56.6599L158.909 54.0572C159.306 53.7568 159.846 53.8999 160.031 54.3146Z" fill="#FFDDC5"/>
<path d="M199.228 54.3289L193.59 55.3729C193.235 55.4444 193.008 55.8019 193.093 56.1594L195.252 65.2832C195.323 65.5978 195.152 65.9267 194.84 66.0411L165.868 76.2517C165.797 76.2803 165.726 76.2946 165.655 76.2946H163.751C163.723 76.2946 163.695 76.2946 163.666 76.2946L159.136 76.9238C158.696 76.981 158.454 77.4529 158.653 77.8534C158.767 78.0679 158.98 78.2109 159.221 78.2109H160.741C161.039 78.2109 161.295 78.4111 161.366 78.6971L161.763 80.2988C161.848 80.6563 162.203 80.8565 162.558 80.7564L201.784 69.7306C202.097 69.6448 202.296 69.3302 202.239 69.0156L199.981 54.8723C199.91 54.5005 199.583 54.2717 199.228 54.3289Z" fill="#FFDDC5"/>
<path d="M186.475 39.3135V41.0439H173.636C173.636 41.0439 174.488 39.3135 176.633 38.8845H186.475V39.3135Z" fill="#FF6666"/>
<path d="M192.937 62.5374C191.658 57.3606 191.829 58.476 191.829 58.476C191.829 58.476 197.112 102.036 196.714 103.408C196.317 104.767 164.675 104.367 163.766 103.408C162.857 102.45 165.484 45.2337 165.484 45.2337C165.484 45.2337 165.726 41.2438 173.65 41.0293H186.489C186.489 41.0293 192.482 41.0293 193.76 41.8873C193.76 41.8873 195.039 42.3163 196.331 44.0467C198.049 46.6351 199.356 47.4503 201.5 59.949" fill="#FF6666"/>
<path d="M163.155 44.7046C163.155 44.7046 167.586 41.2009 171.151 41.2295C171.151 41.2295 173.849 40.8291 175.568 41.6872C176.505 42.1591 178.138 43.4461 178.564 45.5626C178.99 47.722 177.712 49.0091 176.42 51.1684L170.426 56.7743L167.43 59.3627L160.102 63.8817L155.188 53.9714L163.155 44.7046Z" fill="#FF6666"/>
<path d="M177.885 178L180.625 177.988C180.635 177.988 180.645 177.988 180.645 177.977L180.36 169.871C180.36 169.859 180.35 169.847 180.34 169.847H174.271C174.262 169.847 174.262 169.847 174.262 169.847C174.183 169.989 171.404 174.843 165.787 176.245C164.982 176.445 164.422 177.14 164.451 177.953C164.451 177.965 164.461 177.977 164.471 177.977L175.862 178" fill="#333739"/>
<path d="M180.34 169.847H174.262L172.828 171.803C172.828 171.803 174.448 173.288 176.412 173.288C178.376 173.288 180.448 172.298 180.448 172.298L180.36 169.871L180.34 169.847Z" fill="#FFDDC5"/>
<path d="M199.861 178L202.601 177.988C202.611 177.988 202.621 177.988 202.621 177.977L202.336 169.871C202.336 169.859 202.326 169.847 202.316 169.847H196.248C196.238 169.847 196.238 169.847 196.238 169.847C196.159 169.989 193.38 174.843 187.763 176.245C186.958 176.445 186.398 177.14 186.428 177.953C186.428 177.965 186.438 177.977 186.447 177.977L197.839 178" fill="#333739"/>
<path d="M202.317 169.847H196.238L194.804 171.803C194.804 171.803 196.425 173.288 198.389 173.288C200.353 173.288 202.425 172.298 202.425 172.298L202.336 169.871L202.317 169.847Z" fill="#FFDDC5"/>
<path fill-rule="evenodd" clip-rule="evenodd" d="M78.8917 150.93C84.255 151.737 87.6007 143.82 89.4843 140.193C90.5601 138.122 91.6695 135.961 93.2097 134.189C96.4241 130.495 100.651 129.762 101.212 131.266C101.683 132.526 99.9615 132.459 98.2073 134.132C97.2366 135.058 96.1943 136.497 95.9207 138.647C94.9165 146.534 95.1966 149.047 91.9933 154.892C91.2321 156.28 90.3917 157.692 89.2423 158.806C83.7236 164.154 78.378 157.013 78.8917 150.93Z" fill="#EF383D"/>
<mask id="mask0_11529_382" style="mask-type:luminance" maskUnits="userSpaceOnUse" x="78" y="130" width="24" height="31">
<path fill-rule="evenodd" clip-rule="evenodd" d="M93.2098 134.189C91.6696 135.961 90.5603 138.122 89.4844 140.192C87.6008 143.821 84.2551 151.737 78.8918 150.929C78.3772 157.014 83.7237 164.154 89.2425 158.806C90.3927 157.691 91.2331 156.28 91.9935 154.891C95.1958 149.047 94.9175 146.533 95.9208 138.647C96.1944 136.497 97.2367 135.057 98.2083 134.131C99.9607 132.459 101.683 132.526 101.212 131.267C101.033 130.785 100.479 130.532 99.7039 130.532C98.0529 130.533 95.3959 131.675 93.2098 134.189Z" fill="white"/>
</mask>
<g mask="url(#mask0_11529_382)">
<path fill-rule="evenodd" clip-rule="evenodd" d="M103.252 130.753C97.6589 130.866 93.9382 136.013 92.7582 140.932C92.1626 143.415 92.0509 145.985 91.4283 148.467C90.2817 153.043 88.09 157.457 84.8505 160.94C98.3244 158.642 94.371 149.805 98.4528 140.31C99.0177 138.993 99.7175 137.761 100.502 136.561C101.501 135.034 103.87 132.854 103.252 130.753Z" fill="#BC2025"/>
</g>
<mask id="mask1_11529_382" style="mask-type:luminance" maskUnits="userSpaceOnUse" x="78" y="130" width="24" height="31">
<path fill-rule="evenodd" clip-rule="evenodd" d="M93.2098 134.189C91.6696 135.961 90.5603 138.122 89.4844 140.192C87.6008 143.821 84.2551 151.737 78.8918 150.929C78.3772 157.014 83.7237 164.154 89.2425 158.806C90.3927 157.691 91.2331 156.28 91.9935 154.891C95.1958 149.047 94.9175 146.533 95.9208 138.647C96.1944 136.497 97.2367 135.057 98.2083 134.131C99.9607 132.459 101.683 132.526 101.212 131.267C101.033 130.785 100.479 130.532 99.7039 130.532C98.0529 130.533 95.3959 131.675 93.2098 134.189Z" fill="white"/>
</mask>
<g mask="url(#mask1_11529_382)">
<path fill-rule="evenodd" clip-rule="evenodd" d="M86.0614 148.146C88.335 145.814 89.3978 142.668 90.7686 139.805C93.0236 135.095 95.0905 131.712 100.145 130.099C97.6424 129.812 95.6629 131.052 93.8909 132.679C90.844 135.475 88.7715 138.987 86.7212 142.516C86.0679 143.64 84.3602 146.414 84.1787 147.667C84.6124 147.567 85.6287 148.061 86.0614 148.146Z" fill="#F48EAA"/>
</g>
<path fill-rule="evenodd" clip-rule="evenodd" d="M78.9264 150.727C78.864 150.717 78.7998 150.733 78.7505 150.768C78.7002 150.804 78.6686 150.856 78.6639 150.913H78.6844C78.3745 154.575 80.1539 158.607 82.8118 160.191C84.6992 161.315 87.0314 161.242 89.3915 158.955C89.8605 158.501 90.2793 157.998 90.6628 157.468C91.2314 156.681 91.7209 155.833 92.1816 154.992C93.5347 152.523 94.2709 150.645 94.7455 148.71C95.3988 146.041 95.5514 143.267 96.1368 138.674C96.255 137.748 96.5193 136.959 96.8599 136.288C97.2871 135.444 97.8343 134.79 98.3601 134.288C99.0851 133.597 99.8054 133.211 100.359 132.902C100.775 132.669 101.102 132.471 101.294 132.239C101.518 131.966 101.591 131.649 101.419 131.189C101.272 130.795 100.92 130.518 100.407 130.392C99.7366 130.227 98.7705 130.323 97.6826 130.722C96.2187 131.258 94.524 132.342 93.0415 134.047C92.4161 134.765 91.8605 135.547 91.3496 136.361C90.592 137.568 89.9322 138.846 89.2845 140.091C88.1826 142.213 86.5791 145.813 84.3576 148.251C82.849 149.905 81.0566 151.027 78.9264 150.706V150.727ZM79.0818 151.182C78.8798 154.623 80.5419 158.353 83.0286 159.834C84.7717 160.871 86.9169 160.766 89.0937 158.655C89.545 158.219 89.948 157.734 90.3165 157.223C90.874 156.45 91.3542 155.617 91.8056 154.791C93.1364 152.362 93.8614 150.513 94.3267 148.609C94.9753 145.953 95.1233 143.191 95.704 138.621C95.8287 137.641 96.1079 136.805 96.4681 136.094C96.9204 135.201 97.4993 134.506 98.0558 133.976C98.8124 133.253 99.5634 132.846 100.142 132.522C100.499 132.323 100.787 132.162 100.952 131.963C101.085 131.802 101.106 131.612 101.006 131.341C100.904 131.072 100.65 130.902 100.3 130.816C99.6937 130.668 98.8208 130.771 97.8371 131.133C96.4299 131.649 94.8041 132.695 93.3793 134.333C92.7697 135.035 92.2281 135.799 91.7302 136.593C90.9791 137.792 90.3258 139.059 89.6855 140.294C88.5697 142.443 86.9429 146.083 84.6954 148.552C83.1329 150.269 81.2688 151.419 79.0818 151.182Z" fill="black"/>
<path fill-rule="evenodd" clip-rule="evenodd" d="M90.9487 154.419C92.7356 151.555 94.971 148.363 98.406 147.344C102.347 146.176 106.343 148.456 105.711 152.598C104.889 157.969 96.8909 157.411 97.7704 152.747C94.7476 157.445 92.7272 162.825 92.9598 168.473C87.7957 166.318 85.3155 162.535 88.4667 157.446C89.0902 156.438 90.0609 155.225 90.9487 154.419Z" fill="#EF383D"/>
<mask id="mask2_11529_382" style="mask-type:luminance" maskUnits="userSpaceOnUse" x="87" y="147" width="19" height="22">
<path fill-rule="evenodd" clip-rule="evenodd" d="M100.474 147.04C99.8007 147.04 99.1017 147.139 98.4056 147.344C94.9706 148.362 92.7361 151.554 90.9483 154.42C90.0605 155.225 89.0908 156.438 88.4672 157.446C85.3151 162.535 87.7962 166.318 92.9595 168.472C92.7277 162.825 94.7472 157.445 97.7709 152.746C96.8905 157.411 104.888 157.969 105.71 152.597C106.232 149.188 103.615 147.04 100.475 147.04C100.474 147.04 100.474 147.04 100.474 147.04Z" fill="white"/>
</mask>
<g mask="url(#mask2_11529_382)">
<path fill-rule="evenodd" clip-rule="evenodd" d="M97.8296 153.918C99.837 155.661 103.145 154.88 104.017 152.368C104.439 151.151 104.451 149.901 103.877 148.727C103.68 148.323 103.414 147.933 103.13 147.584C103.027 147.459 102.923 147.337 102.817 147.215C102.767 147.156 102.589 147.053 102.665 147.038C103.863 146.809 105.475 148.459 105.967 149.362C107.777 152.681 105.602 158.06 101.849 158.997C99.261 159.643 97.3057 156.578 97.8296 153.918Z" fill="#BC2025"/>
</g>
<mask id="mask3_11529_382" style="mask-type:luminance" maskUnits="userSpaceOnUse" x="87" y="147" width="19" height="22">
<path fill-rule="evenodd" clip-rule="evenodd" d="M100.474 147.04C99.8007 147.04 99.1017 147.139 98.4056 147.344C94.9706 148.362 92.7361 151.554 90.9483 154.42C90.0605 155.225 89.0908 156.438 88.4672 157.446C85.3151 162.535 87.7962 166.318 92.9595 168.472C92.7277 162.825 94.7472 157.445 97.7709 152.746C96.8905 157.411 104.888 157.969 105.71 152.597C106.232 149.188 103.615 147.04 100.475 147.04C100.474 147.04 100.474 147.04 100.474 147.04Z" fill="white"/>
</mask>
<g mask="url(#mask3_11529_382)">
<path fill-rule="evenodd" clip-rule="evenodd" d="M90.1755 160.311C90.4408 158.692 90.9368 157.122 91.5557 155.604C92.907 152.285 94.4947 149.84 97.7696 148.176C99.3284 147.384 101.057 147.043 102.822 147.479C101.193 146.455 98.8352 146.961 97.1982 147.809C94.3011 149.31 91.9084 151.99 90.6427 154.965C90.2072 155.992 89.458 159.139 90.1755 160.311Z" fill="#F48EAA"/>
</g>
<mask id="mask4_11529_382" style="mask-type:luminance" maskUnits="userSpaceOnUse" x="87" y="147" width="19" height="22">
<path fill-rule="evenodd" clip-rule="evenodd" d="M100.474 147.04C99.8007 147.04 99.1017 147.139 98.4056 147.344C94.9706 148.362 92.7361 151.554 90.9483 154.42C90.0605 155.225 89.0908 156.438 88.4672 157.446C85.3151 162.535 87.7962 166.318 92.9595 168.472C92.7277 162.825 94.7472 157.445 97.7709 152.746C96.8905 157.411 104.888 157.969 105.71 152.597C106.232 149.188 103.615 147.04 100.475 147.04C100.474 147.04 100.474 147.04 100.474 147.04Z" fill="white"/>
</mask>
<g mask="url(#mask4_11529_382)">
<path fill-rule="evenodd" clip-rule="evenodd" d="M91.3696 163.578C91.3631 162.422 91.5092 161.283 91.7353 160.149C92.4343 156.626 94.7739 151.171 98.7552 150.219C99.6533 150.004 100.555 150.036 101.362 150.52C98.8883 149.479 97.4216 152.212 97.3918 154.245C97.3509 157.033 95.8032 159.617 95.1248 162.327C94.9731 162.93 94.8688 164.629 94.5496 165.145C93.6245 166.648 91.6339 164.947 91.3696 163.578Z" fill="#BC2025"/>
</g>
<path fill-rule="evenodd" clip-rule="evenodd" d="M97.4875 153.607C96.1921 155.726 95.1088 157.976 94.3494 160.32C93.5025 162.934 93.0586 165.666 93.173 168.465C93.1768 168.537 93.1414 168.605 93.0818 168.647C93.0213 168.688 92.9441 168.696 92.8771 168.667C90.2592 167.574 88.3234 166.063 87.4244 164.191C86.505 162.276 86.6529 159.977 88.289 157.339C88.6054 156.827 89.0103 156.264 89.4486 155.726C89.8869 155.188 90.3578 154.677 90.8083 154.269L90.7543 154.301C91.8348 152.57 93.079 150.721 94.6472 149.294C95.7137 148.326 96.9282 147.55 98.3409 147.131C100.336 146.54 102.343 146.808 103.798 147.731C105.338 148.708 106.27 150.414 105.93 152.63C105.529 155.253 103.496 156.527 101.531 156.647C100.131 156.732 98.7681 156.225 98.0385 155.217C97.7192 154.775 97.5173 154.238 97.4875 153.607ZM92.7356 168.146C92.664 165.414 93.1116 162.746 93.938 160.189C94.7961 157.533 96.0655 154.996 97.5852 152.63C97.6429 152.543 97.7537 152.507 97.8505 152.545C97.9482 152.583 98.0049 152.684 97.9854 152.785C97.8169 153.678 97.9938 154.41 98.3949 154.963C99.0426 155.858 100.261 156.286 101.504 156.21C103.285 156.1 105.128 154.943 105.49 152.564C105.798 150.548 104.958 148.991 103.556 148.104C102.2 147.245 100.329 147.007 98.4712 147.559C97.1255 147.957 95.9696 148.701 94.9543 149.625C93.4178 151.024 92.2024 152.84 91.1442 154.538H91.1256C91.1154 154.555 91.1033 154.572 91.0893 154.586V154.571C90.6538 154.967 90.1977 155.463 89.7734 155.984C89.3462 156.507 88.9535 157.056 88.6454 157.554C87.1052 160.042 86.9377 162.207 87.806 164.011C88.6324 165.729 90.3829 167.114 92.7356 168.146Z" fill="black"/>
<path fill-rule="evenodd" clip-rule="evenodd" d="M65.8177 150.747C64.2943 155.806 52.7515 157.019 49.6971 148.126C48.6036 144.943 48.0554 141.706 46.0936 138.901C44.7526 136.982 42.8205 135.304 40.4995 134.691C39.9365 134.542 38.5638 134.208 38.0919 134.787C37.5521 135.451 38.883 136.284 39.3185 136.651C42.3869 139.233 42.7238 142.928 43.3575 152.499C43.794 159.108 46.6436 160.244 51.2745 161.552C62.5847 164.748 68.7884 152.745 65.8177 150.747Z" fill="#EF383D"/>
<mask id="mask5_11529_382" style="mask-type:luminance" maskUnits="userSpaceOnUse" x="37" y="134" width="30" height="29">
<path fill-rule="evenodd" clip-rule="evenodd" d="M38.0923 134.788C37.5525 135.451 38.8833 136.283 39.3189 136.651C42.3872 139.233 42.7232 142.928 43.357 152.499C43.7944 159.108 46.644 160.245 51.274 161.553C62.585 164.748 68.7878 152.744 65.8181 150.747C64.2946 155.806 52.7518 157.019 49.6965 148.126C48.603 144.944 48.0558 141.705 46.094 138.901C44.7529 136.981 42.8209 135.303 40.4999 134.691C40.1769 134.606 39.5878 134.459 39.0546 134.459C38.6581 134.459 38.2933 134.54 38.0923 134.788Z" fill="white"/>
</mask>
<g mask="url(#mask5_11529_382)">
<path fill-rule="evenodd" clip-rule="evenodd" d="M65.8178 150.747C64.3176 157.004 54.6323 157.596 51.2355 151.611C50.1401 149.682 49.2755 147.333 48.7581 143.638C48.1792 139.502 43.1044 134.421 41.2952 133.585C37.4033 131.79 44.0872 134.459 45.4171 141.687C46.8205 149.312 47.095 156.619 53.805 158.947C60.8677 161.395 67.4287 165.101 70.3872 157.954C67.1653 147.561 69.8158 146.939 65.8178 150.747Z" fill="#BC2025"/>
</g>
<mask id="mask6_11529_382" style="mask-type:luminance" maskUnits="userSpaceOnUse" x="37" y="134" width="30" height="29">
<path fill-rule="evenodd" clip-rule="evenodd" d="M38.0923 134.788C37.5525 135.451 38.8833 136.283 39.3189 136.651C42.3872 139.233 42.7232 142.928 43.357 152.499C43.7944 159.108 46.644 160.245 51.274 161.553C62.585 164.748 68.7878 152.744 65.8181 150.747C64.2946 155.806 52.7518 157.019 49.6965 148.126C48.603 144.944 48.0558 141.705 46.094 138.901C44.7529 136.981 42.8209 135.303 40.4999 134.691C40.1769 134.606 39.5878 134.459 39.0546 134.459C38.6581 134.459 38.2933 134.54 38.0923 134.788Z" fill="white"/>
</mask>
<g mask="url(#mask6_11529_382)">
<path fill-rule="evenodd" clip-rule="evenodd" d="M36.0839 135.35C44.401 139.027 41.4593 148.851 43.4155 157.741C44.1628 161.14 47.0041 166.652 50.44 164.947C49.34 163.696 49.3344 161.325 47.7774 160.351C44.7901 158.485 44.4587 152.43 44.5509 148.275C44.6635 143.185 42.7668 134.459 36.0839 135.35Z" fill="#F48EAA"/>
</g>
<path fill-rule="evenodd" clip-rule="evenodd" d="M65.8177 150.747C64.2943 155.806 52.7515 157.019 49.6971 148.126C48.6036 144.943 48.0554 141.706 46.0936 138.901C44.7526 136.982 42.8205 135.304 40.4995 134.691C39.9365 134.542 38.5638 134.208 38.0919 134.787C37.5521 135.451 38.883 136.284 39.3185 136.651C42.3869 139.233 42.7237 142.928 43.3575 152.499C43.794 159.108 46.6436 160.244 51.2745 161.552C62.5847 164.748 68.7884 152.745 65.8177 150.747Z" stroke="black" stroke-width="0.282041" stroke-linecap="round" stroke-linejoin="round"/>
<path fill-rule="evenodd" clip-rule="evenodd" d="M81.1621 113.548C88.557 113.262 93.0344 115.362 91.1135 118.46C90.8855 118.827 90.624 119.134 90.3588 119.387C88.7757 120.896 87.0726 121.08 85.3537 121.329C84.1634 119.12 82.2156 115.992 81.1621 113.548Z" fill="#9FA0A0"/>
<path fill-rule="evenodd" clip-rule="evenodd" d="M81.1621 113.548C88.557 113.262 93.0344 115.362 91.1135 118.46C90.8855 118.827 90.624 119.134 90.3588 119.387C88.7757 120.896 87.0726 121.08 85.3537 121.329C84.1634 119.12 82.2156 115.992 81.1621 113.548Z" stroke="black" stroke-width="0.282041" stroke-linecap="round" stroke-linejoin="round"/>
<path fill-rule="evenodd" clip-rule="evenodd" d="M83.3914 148.662C84.8879 148.442 89.5625 147.128 90.7016 148.109C93.9831 150.941 91.2861 156.821 89.8157 159.768C92.0055 164.127 98.6093 164.726 98.4111 170.581C98.2222 176.187 91.6602 177.85 87.1484 175.844C84.2616 174.561 83.2099 171.791 82.2942 169.011C80.632 168.371 78.7679 168.179 77.0146 167.962C74.8881 183.213 54.0286 179.328 58.1048 168.003C56.5357 168.055 55.0681 167.487 50.9835 166.285C49.5698 165.868 47.7625 165.619 45.838 165.835C46.7398 167.982 45.6407 170.995 42.603 171.398C38.5547 171.933 35.21 167.182 38.068 163.291C41.0796 159.19 45.5383 158.417 47.824 158.443C52.3283 158.494 57.3715 160.11 61.6534 157.916C63.563 156.937 65.1182 155.321 65.254 153.198C65.6765 146.603 52.1924 145.647 48.9519 131.138C45.7468 116.786 55.1612 107.045 65.2689 105.623C75.8355 104.138 88.9883 109.107 89.7114 126.217C90.2745 139.569 83.7208 141.647 83.3914 148.662Z" fill="#EF383D"/>
<mask id="mask7_11529_382" style="mask-type:luminance" maskUnits="userSpaceOnUse" x="37" y="105" width="62" height="74">
<path fill-rule="evenodd" clip-rule="evenodd" d="M65.269 105.623C55.1604 107.044 45.7469 116.786 48.952 131.138C52.1925 145.646 65.6767 146.603 65.2542 153.197C65.1183 155.321 63.5632 156.937 61.6535 157.915C57.3706 160.109 52.3275 158.493 47.8241 158.442C45.5384 158.417 41.0797 159.19 38.0681 163.291C35.2101 167.182 38.5548 171.933 42.6032 171.398C45.6408 170.995 46.7399 167.982 45.8381 165.835C47.7627 165.619 49.57 165.868 50.9836 166.284C55.0682 167.487 56.5349 168.055 58.1049 168.003C54.0278 179.328 74.8882 183.214 77.0147 167.961C78.7681 168.179 80.6312 168.371 82.2943 169.012C83.21 171.79 84.2617 174.561 87.1476 175.844C91.6603 177.851 98.2214 176.187 98.4112 170.581C98.6095 164.726 92.0056 164.127 89.8158 159.768C91.2862 156.821 93.9832 150.94 90.7017 148.109C89.5626 147.128 84.888 148.442 83.3915 148.662C83.721 141.647 90.2755 139.569 89.7106 126.217C89.0675 110.985 78.5736 105.375 68.8213 105.375C67.6199 105.375 66.4286 105.46 65.269 105.623Z" fill="white"/>
</mask>
<g mask="url(#mask7_11529_382)">
<path fill-rule="evenodd" clip-rule="evenodd" d="M56.6945 120.584C65.4342 124.505 74.0473 117.047 79.6023 117.184C84.8977 121.788 84.8279 126.639 83.9224 132.536C84.478 133.924 85.2216 134.345 85.4691 134.69C85.2495 135.277 83.6218 135.526 83.3407 136.128C81.6786 139.677 80.3524 144.306 80.3524 147.492C80.3524 150.032 80.264 152.185 79.6535 154.646C79.0235 157.185 75.1129 166.497 76.9993 168.978C77.7931 170.024 82.6772 171.053 82.2416 168.999C81.3194 164.655 85.6441 161.893 85.6227 163.876C85.5222 173.479 91.469 179.486 97.4381 174.722C99.0147 173.465 99.95 172.656 100.261 170.628C101.119 165.004 94.3354 165.146 93.8626 159.574C93.6048 156.533 94.5913 153.634 94.4973 150.626C94.4089 147.815 93.0706 145.284 93.2754 142.421C93.7128 136.263 95.8886 129.825 94.1334 123.677C93.1144 120.105 90.7021 117.5 88.8976 114.372C88.9032 114.374 88.9106 114.375 88.9172 114.376C80.7303 106.378 64.4579 114.986 56.6945 120.584Z" fill="#BC2025"/>
</g>
<mask id="mask8_11529_382" style="mask-type:luminance" maskUnits="userSpaceOnUse" x="37" y="105" width="62" height="74">
<path fill-rule="evenodd" clip-rule="evenodd" d="M65.269 105.623C55.1604 107.044 45.7469 116.786 48.952 131.138C52.1925 145.646 65.6767 146.603 65.2542 153.197C65.1183 155.321 63.5632 156.937 61.6535 157.915C57.3706 160.109 52.3275 158.493 47.8241 158.442C45.5384 158.417 41.0797 159.19 38.0681 163.291C35.2101 167.182 38.5548 171.933 42.6032 171.398C45.6408 170.995 46.7399 167.982 45.8381 165.835C47.7627 165.619 49.57 165.868 50.9836 166.284C55.0682 167.487 56.5349 168.055 58.1049 168.003C54.0278 179.328 74.8882 183.214 77.0147 167.961C78.7681 168.179 80.6312 168.371 82.2943 169.012C83.21 171.79 84.2617 174.561 87.1476 175.844C91.6603 177.851 98.2214 176.187 98.4112 170.581C98.6095 164.726 92.0056 164.127 89.8158 159.768C91.2862 156.821 93.9832 150.94 90.7017 148.109C89.5626 147.128 84.888 148.442 83.3915 148.662C83.721 141.647 90.2755 139.569 89.7106 126.217C89.0675 110.985 78.5736 105.375 68.8213 105.375C67.6199 105.375 66.4286 105.46 65.269 105.623Z" fill="white"/>
</mask>
<g mask="url(#mask8_11529_382)">
<path fill-rule="evenodd" clip-rule="evenodd" d="M44.1762 164.236C45.3088 166.217 44.2302 169.07 42.0534 169.625C38.3103 170.579 36.5197 166.799 36.4769 167.231C36.2638 169.337 37.6523 171.128 39.5071 172.009C42.6146 173.485 46.7606 172.303 48.1984 169.096C49.5051 166.184 47.2603 164.082 44.1762 164.236Z" fill="#BC2025"/>
</g>
<mask id="mask9_11529_382" style="mask-type:luminance" maskUnits="userSpaceOnUse" x="37" y="105" width="62" height="74">
<path fill-rule="evenodd" clip-rule="evenodd" d="M65.269 105.623C55.1604 107.044 45.7469 116.786 48.952 131.138C52.1925 145.646 65.6767 146.603 65.2542 153.197C65.1183 155.321 63.5632 156.937 61.6535 157.915C57.3706 160.109 52.3275 158.493 47.8241 158.442C45.5384 158.417 41.0797 159.19 38.0681 163.291C35.2101 167.182 38.5548 171.933 42.6032 171.398C45.6408 170.995 46.7399 167.982 45.8381 165.835C47.7627 165.619 49.57 165.868 50.9836 166.284C55.0682 167.487 56.5349 168.055 58.1049 168.003C54.0278 179.328 74.8882 183.214 77.0147 167.961C78.7681 168.179 80.6312 168.371 82.2943 169.012C83.21 171.79 84.2617 174.561 87.1476 175.844C91.6603 177.851 98.2214 176.187 98.4112 170.581C98.6095 164.726 92.0056 164.127 89.8158 159.768C91.2862 156.821 93.9832 150.94 90.7017 148.109C89.5626 147.128 84.888 148.442 83.3915 148.662C83.721 141.647 90.2755 139.569 89.7106 126.217C89.0675 110.985 78.5736 105.375 68.8213 105.375C67.6199 105.375 66.4286 105.46 65.269 105.623Z" fill="white"/>
</mask>
<g mask="url(#mask9_11529_382)">
<path fill-rule="evenodd" clip-rule="evenodd" d="M42.7529 164.723C46.993 162.672 50.5787 163.339 55.0505 163.844C56.681 164.028 58.3394 164.242 59.9652 163.894C61.9429 163.469 63.3249 161.804 64.8623 160.627C62.1113 163.143 59.1053 165.494 57.5874 168.991C55.3623 167.998 48.8943 167.351 46.2522 167.442C46.4262 166.192 44.375 164.091 42.7529 164.723Z" fill="#BC2025"/>
</g>
<mask id="mask10_11529_382" style="mask-type:luminance" maskUnits="userSpaceOnUse" x="37" y="105" width="62" height="74">
<path fill-rule="evenodd" clip-rule="evenodd" d="M65.269 105.623C55.1604 107.044 45.7469 116.786 48.952 131.138C52.1925 145.646 65.6767 146.603 65.2542 153.197C65.1183 155.321 63.5632 156.937 61.6535 157.915C57.3706 160.109 52.3275 158.493 47.8241 158.442C45.5384 158.417 41.0797 159.19 38.0681 163.291C35.2101 167.182 38.5548 171.933 42.6032 171.398C45.6408 170.995 46.7399 167.982 45.8381 165.835C47.7627 165.619 49.57 165.868 50.9836 166.284C55.0682 167.487 56.5349 168.055 58.1049 168.003C54.0278 179.328 74.8882 183.214 77.0147 167.961C78.7681 168.179 80.6312 168.371 82.2943 169.012C83.21 171.79 84.2617 174.561 87.1476 175.844C91.6603 177.851 98.2214 176.187 98.4112 170.581C98.6095 164.726 92.0056 164.127 89.8158 159.768C91.2862 156.821 93.9832 150.94 90.7017 148.109C89.5626 147.128 84.888 148.442 83.3915 148.662C83.721 141.647 90.2755 139.569 89.7106 126.217C89.0675 110.985 78.5736 105.375 68.8213 105.375C67.6199 105.375 66.4286 105.46 65.269 105.623Z" fill="white"/>
</mask>
<g mask="url(#mask10_11529_382)">
<path fill-rule="evenodd" clip-rule="evenodd" d="M64.4182 151.44C63.7751 148.836 59.1237 147.223 57.0679 144.075C60.8836 145.609 62.8873 146.659 64.8491 148.947C67.977 152.595 66.0021 156.96 62.0264 159.011C58.7729 160.689 54.8046 160.58 51.3035 159.877C48.7154 159.358 45.7904 159.392 43.2618 160.284C39.4806 161.622 36.9483 165.043 37.5225 169.259C36.7836 167.885 36.2838 166.107 36.4271 164.551C36.7054 161.557 39.4955 158.999 42.3284 158.299C45.8062 157.441 49.3594 158.137 52.8372 158.554C54.1783 158.714 55.5268 158.745 56.8753 158.782C57.7054 158.804 66.1362 158.958 64.4182 151.44Z" fill="#F48EAA"/>
</g>
<mask id="mask11_11529_382" style="mask-type:luminance" maskUnits="userSpaceOnUse" x="37" y="105" width="62" height="74">
<path fill-rule="evenodd" clip-rule="evenodd" d="M65.269 105.623C55.1604 107.044 45.7469 116.786 48.952 131.138C52.1925 145.646 65.6767 146.603 65.2542 153.197C65.1183 155.321 63.5632 156.937 61.6535 157.915C57.3706 160.109 52.3275 158.493 47.8241 158.442C45.5384 158.417 41.0797 159.19 38.0681 163.291C35.2101 167.182 38.5548 171.933 42.6032 171.398C45.6408 170.995 46.7399 167.982 45.8381 165.835C47.7627 165.619 49.57 165.868 50.9836 166.284C55.0682 167.487 56.5349 168.055 58.1049 168.003C54.0278 179.328 74.8882 183.214 77.0147 167.961C78.7681 168.179 80.6312 168.371 82.2943 169.012C83.21 171.79 84.2617 174.561 87.1476 175.844C91.6603 177.851 98.2214 176.187 98.4112 170.581C98.6095 164.726 92.0056 164.127 89.8158 159.768C91.2862 156.821 93.9832 150.94 90.7017 148.109C89.5626 147.128 84.888 148.442 83.3915 148.662C83.721 141.647 90.2755 139.569 89.7106 126.217C89.0675 110.985 78.5736 105.375 68.8213 105.375C67.6199 105.375 66.4286 105.46 65.269 105.623Z" fill="white"/>
</mask>
<g mask="url(#mask11_11529_382)">
<path fill-rule="evenodd" clip-rule="evenodd" d="M69.2418 152.635C69.7267 154.502 69.3275 156.864 68.1623 158.743C66.9189 160.747 64.3169 162.912 62.584 164.453C59.5222 167.176 56.988 171.8 59.6515 175.69C51.8676 167.489 64.5719 162.791 68.059 157.145C68.7309 156.057 69.1264 153.881 69.2418 152.635Z" fill="#F48EAA"/>
</g>
<mask id="mask12_11529_382" style="mask-type:luminance" maskUnits="userSpaceOnUse" x="37" y="105" width="62" height="74">
<path fill-rule="evenodd" clip-rule="evenodd" d="M65.269 105.623C55.1604 107.044 45.7469 116.786 48.952 131.138C52.1925 145.646 65.6767 146.603 65.2542 153.197C65.1183 155.321 63.5632 156.937 61.6535 157.915C57.3706 160.109 52.3275 158.493 47.8241 158.442C45.5384 158.417 41.0797 159.19 38.0681 163.291C35.2101 167.182 38.5548 171.933 42.6032 171.398C45.6408 170.995 46.7399 167.982 45.8381 165.835C47.7627 165.619 49.57 165.868 50.9836 166.284C55.0682 167.487 56.5349 168.055 58.1049 168.003C54.0278 179.328 74.8882 183.214 77.0147 167.961C78.7681 168.179 80.6312 168.371 82.2943 169.012C83.21 171.79 84.2617 174.561 87.1476 175.844C91.6603 177.851 98.2214 176.187 98.4112 170.581C98.6095 164.726 92.0056 164.127 89.8158 159.768C91.2862 156.821 93.9832 150.94 90.7017 148.109C89.5626 147.128 84.888 148.442 83.3915 148.662C83.721 141.647 90.2755 139.569 89.7106 126.217C89.0675 110.985 78.5736 105.375 68.8213 105.375C67.6199 105.375 66.4286 105.46 65.269 105.623Z" fill="white"/>
</mask>
<g mask="url(#mask12_11529_382)">
<path fill-rule="evenodd" clip-rule="evenodd" d="M65.4338 169.198C69.3547 170.476 71.1052 167.902 72.1708 164.496C72.8343 162.374 72.96 160.156 73.5621 158.023C74.4081 155.025 76.8101 150.58 80.3521 150.091C78.0999 149.584 75.9241 151.26 74.7208 152.987C73.4411 154.823 72.5877 156.857 72.0461 159.017C71.4793 161.274 71.2057 163.599 70.2862 165.762C69.296 168.092 67.928 169.123 65.4338 169.198Z" fill="#F48EAA"/>
</g>
<mask id="mask13_11529_382" style="mask-type:luminance" maskUnits="userSpaceOnUse" x="37" y="105" width="62" height="74">
<path fill-rule="evenodd" clip-rule="evenodd" d="M65.269 105.623C55.1604 107.044 45.7469 116.786 48.952 131.138C52.1925 145.646 65.6767 146.603 65.2542 153.197C65.1183 155.321 63.5632 156.937 61.6535 157.915C57.3706 160.109 52.3275 158.493 47.8241 158.442C45.5384 158.417 41.0797 159.19 38.0681 163.291C35.2101 167.182 38.5548 171.933 42.6032 171.398C45.6408 170.995 46.7399 167.982 45.8381 165.835C47.7627 165.619 49.57 165.868 50.9836 166.284C55.0682 167.487 56.5349 168.055 58.1049 168.003C54.0278 179.328 74.8882 183.214 77.0147 167.961C78.7681 168.179 80.6312 168.371 82.2943 169.012C83.21 171.79 84.2617 174.561 87.1476 175.844C91.6603 177.851 98.2214 176.187 98.4112 170.581C98.6095 164.726 92.0056 164.127 89.8158 159.768C91.2862 156.821 93.9832 150.94 90.7017 148.109C89.5626 147.128 84.888 148.442 83.3915 148.662C83.721 141.647 90.2755 139.569 89.7106 126.217C89.0675 110.985 78.5736 105.375 68.8213 105.375C67.6199 105.375 66.4286 105.46 65.269 105.623Z" fill="white"/>
</mask>
<g mask="url(#mask13_11529_382)">
<path fill-rule="evenodd" clip-rule="evenodd" d="M82.2073 166.689C82.627 171.453 83.6423 178 92.8995 176.926C91.0698 177.053 87.901 175.605 86.5627 174.63C83.5111 172.407 82.7945 169.425 82.2073 166.689Z" fill="#F48EAA"/>
</g>
<mask id="mask14_11529_382" style="mask-type:luminance" maskUnits="userSpaceOnUse" x="37" y="105" width="62" height="74">
<path fill-rule="evenodd" clip-rule="evenodd" d="M65.269 105.623C55.1604 107.044 45.7469 116.786 48.952 131.138C52.1925 145.646 65.6767 146.603 65.2542 153.197C65.1183 155.321 63.5632 156.937 61.6535 157.915C57.3706 160.109 52.3275 158.493 47.8241 158.442C45.5384 158.417 41.0797 159.19 38.0681 163.291C35.2101 167.182 38.5548 171.933 42.6032 171.398C45.6408 170.995 46.7399 167.982 45.8381 165.835C47.7627 165.619 49.57 165.868 50.9836 166.284C55.0682 167.487 56.5349 168.055 58.1049 168.003C54.0278 179.328 74.8882 183.214 77.0147 167.961C78.7681 168.179 80.6312 168.371 82.2943 169.012C83.21 171.79 84.2617 174.561 87.1476 175.844C91.6603 177.851 98.2214 176.187 98.4112 170.581C98.6095 164.726 92.0056 164.127 89.8158 159.768C91.2862 156.821 93.9832 150.94 90.7017 148.109C89.5626 147.128 84.888 148.442 83.3915 148.662C83.721 141.647 90.2755 139.569 89.7106 126.217C89.0675 110.985 78.5736 105.375 68.8213 105.375C67.6199 105.375 66.4286 105.46 65.269 105.623Z" fill="white"/>
</mask>
<g mask="url(#mask14_11529_382)">
<path fill-rule="evenodd" clip-rule="evenodd" d="M58.657 174.65C60.0502 175.665 61.5727 176.098 63.286 176.18C68.6363 176.435 72.6976 172.328 74.0071 167.441C74.9842 163.795 74.0871 159.198 75.5454 155.632C76.2034 154.025 78.9609 150.856 81.1609 150.761C79.7231 153.426 77.7362 154.947 77.2569 158C76.8883 160.339 77.04 163.457 77.2569 165.766C77.617 169.611 75.7036 173.037 73.3072 175.982C72.0471 177.53 70.3906 178.803 68.4213 179.301C64.8132 180.212 60.0771 178.312 58.657 174.65Z" fill="#BC2025"/>
</g>
<mask id="mask15_11529_382" style="mask-type:luminance" maskUnits="userSpaceOnUse" x="37" y="105" width="62" height="74">
<path fill-rule="evenodd" clip-rule="evenodd" d="M65.269 105.623C55.1604 107.044 45.7469 116.786 48.952 131.138C52.1925 145.646 65.6767 146.603 65.2542 153.197C65.1183 155.321 63.5632 156.937 61.6535 157.915C57.3706 160.109 52.3275 158.493 47.8241 158.442C45.5384 158.417 41.0797 159.19 38.0681 163.291C35.2101 167.182 38.5548 171.933 42.6032 171.398C45.6408 170.995 46.7399 167.982 45.8381 165.835C47.7627 165.619 49.57 165.868 50.9836 166.284C55.0682 167.487 56.5349 168.055 58.1049 168.003C54.0278 179.328 74.8882 183.214 77.0147 167.961C78.7681 168.179 80.6312 168.371 82.2943 169.012C83.21 171.79 84.2617 174.561 87.1476 175.844C91.6603 177.851 98.2214 176.187 98.4112 170.581C98.6095 164.726 92.0056 164.127 89.8158 159.768C91.2862 156.821 93.9832 150.94 90.7017 148.109C89.5626 147.128 84.888 148.442 83.3915 148.662C83.721 141.647 90.2755 139.569 89.7106 126.217C89.0675 110.985 78.5736 105.375 68.8213 105.375C67.6199 105.375 66.4286 105.46 65.269 105.623Z" fill="white"/>
</mask>
<g mask="url(#mask15_11529_382)">
<path fill-rule="evenodd" clip-rule="evenodd" d="M65.3241 169.349C63.581 169.589 62.7937 168.414 64.5098 166.722C65.2767 165.967 66.3627 165.444 67.2832 164.9C69.0746 163.843 71.0597 162.326 71.8861 160.354C71.2133 163.688 70.3124 169.369 65.3241 169.349Z" fill="#BC2025"/>
</g>
<path fill-rule="evenodd" clip-rule="evenodd" d="M83.3914 148.662C84.8879 148.442 89.5625 147.128 90.7016 148.109C93.9831 150.941 91.2861 156.821 89.8157 159.768C92.0055 164.127 98.6093 164.726 98.4111 170.581C98.2222 176.187 91.6602 177.85 87.1484 175.844C84.2616 174.561 83.2099 171.791 82.2942 169.011C80.632 168.371 78.7679 168.179 77.0146 167.962C74.8881 183.213 54.0286 179.328 58.1048 168.003C56.5357 168.055 55.0681 167.487 50.9835 166.285C49.5698 165.868 47.7625 165.619 45.838 165.835C46.7398 167.982 45.6407 170.995 42.603 171.398C38.5547 171.933 35.21 167.182 38.068 163.291C41.0796 159.19 45.5383 158.417 47.824 158.443C52.3283 158.494 57.3715 160.11 61.6534 157.916C63.563 156.937 65.1182 155.321 65.254 153.198C65.6765 146.603 52.1924 145.647 48.9519 131.138C45.7468 116.786 55.1612 107.045 65.2689 105.623C75.8355 104.138 88.9883 109.107 89.7114 126.217C90.2745 139.569 83.7208 141.647 83.3914 148.662Z" stroke="black" stroke-width="0.282041" stroke-linecap="round" stroke-linejoin="round"/>
<path fill-rule="evenodd" clip-rule="evenodd" d="M89.6133 159.684C88.8343 161.533 88.3262 163.639 88.8958 165.36C89.174 166.198 89.6905 166.967 90.5756 167.535C90.7049 167.618 90.8427 167.698 90.9916 167.766C91.1991 167.86 91.4215 167.931 91.6607 168.001C91.7128 168.023 91.7724 167.999 91.7947 167.947C91.8171 167.896 91.7929 167.836 91.7408 167.815C91.5332 167.699 91.3517 167.572 91.1721 167.451C91.0465 167.366 90.9246 167.284 90.8082 167.201C90.0405 166.645 89.5565 165.984 89.3108 165.227C88.7794 163.593 89.2783 161.603 90.0181 159.852C90.0647 159.742 90.0116 159.615 89.8999 159.568C89.7883 159.522 89.6598 159.574 89.6133 159.684Z" fill="black"/>
<path fill-rule="evenodd" clip-rule="evenodd" d="M97.8932 153.313C98.0877 152.495 98.5977 151.511 99.331 150.973C99.7973 150.63 100.358 150.473 100.996 150.696C101.482 150.852 101.847 151.252 101.981 151.693C102.119 152.154 102.012 152.657 101.522 152.998C101.487 153.02 101.477 153.065 101.499 153.1C101.52 153.134 101.566 153.144 101.601 153.123C102.228 152.777 102.408 152.179 102.29 151.616C102.173 151.052 101.739 150.528 101.147 150.29C100.351 149.996 99.6382 150.172 99.0518 150.599C98.2319 151.195 97.668 152.301 97.4595 153.216C97.4325 153.333 97.507 153.452 97.6261 153.479C97.7461 153.506 97.8662 153.432 97.8932 153.313Z" fill="black"/>
<path fill-rule="evenodd" clip-rule="evenodd" d="M46.1197 165.965C45.5864 165.142 44.7488 164.534 43.8405 164.303C42.9062 164.065 41.902 164.222 41.0821 164.921C40.5712 165.382 40.2212 166.046 40.2566 166.682C40.2892 167.255 40.6214 167.811 41.4311 168.141C41.4683 168.158 41.513 168.142 41.5297 168.105C41.5474 168.068 41.5316 168.025 41.4944 168.007C40.8252 167.659 40.5665 167.172 40.5795 166.676C40.5851 166.459 40.6456 166.243 40.7424 166.037C40.8811 165.739 41.1026 165.465 41.3687 165.253C41.7121 164.969 42.0909 164.796 42.4809 164.716C42.8922 164.631 43.3156 164.648 43.7233 164.753C44.5255 164.955 45.2691 165.482 45.7465 166.205C45.8126 166.306 45.9503 166.335 46.0536 166.269C46.1569 166.204 46.1867 166.067 46.1197 165.965Z" fill="black"/>
<path fill-rule="evenodd" clip-rule="evenodd" d="M58.3062 168.098C58.7753 167.127 59.4677 166.126 60.2708 165.187C61.0461 164.281 61.9264 163.434 62.8161 162.728C64.3163 161.535 66.7788 159.843 68.2111 157.296C68.6988 156.425 69.0822 155.46 69.2395 154.376C69.2879 154.043 69.3102 153.699 69.3111 153.345C69.313 153.011 69.2916 152.67 69.2506 152.318C69.246 152.25 69.1855 152.198 69.1166 152.202C69.0478 152.208 68.9947 152.267 68.9994 152.336C69.0077 152.678 68.9938 153.008 68.9668 153.331C68.9389 153.668 68.8905 153.994 68.8318 154.31C68.6439 155.336 68.2986 156.259 67.8286 157.085C66.4168 159.57 64.0046 161.218 62.5351 162.382C61.624 163.105 60.7222 163.973 59.9283 164.9C59.0991 165.87 58.3863 166.905 57.9023 167.907C57.8493 168.018 57.8967 168.15 58.0084 168.202C58.1192 168.255 58.2532 168.208 58.3062 168.098Z" fill="black"/>
<path fill-rule="evenodd" clip-rule="evenodd" d="M66.6235 120.979C67.1809 121.171 67.6919 121.437 68.1609 121.742C68.4857 121.955 68.79 122.187 69.0739 122.429C69.1902 122.529 69.3047 122.63 69.4154 122.732C69.5867 122.889 69.7495 123.05 69.9049 123.212C70.3302 123.66 70.6913 124.12 70.9743 124.555C70.9873 124.576 71.0161 124.584 71.0385 124.57C71.0608 124.558 71.0673 124.529 71.0543 124.507C70.7928 124.05 70.4596 123.559 70.0492 123.084C69.8994 122.911 69.7384 122.74 69.568 122.574C69.4554 122.467 69.34 122.362 69.22 122.26C68.9268 122.013 68.6067 121.784 68.2651 121.579C67.7728 121.287 67.2331 121.049 66.6542 120.883C66.6272 120.876 66.5984 120.89 66.59 120.916C66.5816 120.943 66.5965 120.971 66.6235 120.979Z" fill="black"/>
<path fill-rule="evenodd" clip-rule="evenodd" d="M63.6806 121.466C63.3456 121.598 63.018 121.763 62.7127 121.968C62.5117 122.102 62.32 122.254 62.1432 122.422C62.0715 122.489 62.0045 122.559 61.9394 122.633C61.8416 122.741 61.7514 122.855 61.6667 122.974C61.4554 123.271 61.286 123.594 61.1604 123.933C61.1502 123.956 61.1613 123.983 61.1855 123.993C61.2088 124.003 61.2367 123.992 61.246 123.969C61.3977 123.653 61.595 123.362 61.8202 123.091C61.9105 122.982 62.0036 122.879 62.1013 122.779C62.1655 122.713 62.2316 122.646 62.2995 122.582C62.467 122.419 62.6429 122.265 62.8281 122.124C63.1101 121.906 63.4089 121.713 63.7215 121.558C63.7476 121.546 63.7588 121.517 63.7476 121.491C63.7355 121.466 63.7057 121.454 63.6806 121.466Z" fill="black"/>
<path fill-rule="evenodd" clip-rule="evenodd" d="M64.7453 121.892C62.79 122.252 60.7947 123.951 59.6817 124.531C58.8432 124.969 60.3862 126.194 60.4532 127.847C60.536 129.864 67.3698 121.41 64.7453 121.892Z" fill="black"/>
<path fill-rule="evenodd" clip-rule="evenodd" d="M59.0132 123.106C59.191 122.307 59.5391 121.484 60.0276 120.719C60.4623 120.04 61.0262 119.428 61.7493 118.973C62.2258 118.639 62.7591 118.428 63.3026 118.268C63.8731 118.101 64.4575 117.99 65.0476 117.968C66.3495 117.917 67.6403 118.178 68.6259 118.751C68.7729 118.855 68.9786 118.821 69.0847 118.675C69.1908 118.528 69.1554 118.325 69.0084 118.22C68.0042 117.371 66.5906 116.773 65.0913 116.62C64.3579 116.546 63.606 116.587 62.8857 116.766C62.157 116.947 61.472 117.289 60.8513 117.742C60.0211 118.414 59.3818 119.242 58.9704 120.161C58.5498 121.096 58.3432 122.089 58.3013 123.013C58.2762 123.209 58.4139 123.387 58.6103 123.413C58.8076 123.438 58.9881 123.301 59.0132 123.106Z" fill="black"/>
<path fill-rule="evenodd" clip-rule="evenodd" d="M64.2817 121.911C61.1911 122.864 59.5531 126.401 60.6262 129.804C61.6992 133.206 65.0793 135.196 68.1709 134.242C71.2616 133.287 72.8995 129.751 71.8255 126.347C70.7534 122.945 67.3724 120.957 64.2817 121.911Z" fill="white"/>
<mask id="mask16_11529_382" style="mask-type:luminance" maskUnits="userSpaceOnUse" x="60" y="121" width="13" height="14">
<path fill-rule="evenodd" clip-rule="evenodd" d="M64.2816 121.91C61.1909 122.864 59.553 126.401 60.626 129.804C61.6991 133.206 65.0801 135.195 68.1708 134.242C71.2615 133.288 72.8994 129.75 71.8254 126.347C70.9348 123.522 68.4518 121.672 65.8665 121.672C65.3379 121.672 64.8065 121.748 64.2816 121.91Z" fill="white"/>
</mask>
<g mask="url(#mask16_11529_382)">
<path fill-rule="evenodd" clip-rule="evenodd" d="M64.7858 123.951C62.4657 124.643 61.227 127.322 62.0217 129.927C62.8174 132.534 65.3469 134.088 67.6661 133.395C69.9862 132.702 71.2249 130.024 70.4301 127.419C69.6354 124.812 67.1059 123.258 64.7858 123.951Z" fill="black"/>
</g>
<mask id="mask17_11529_382" style="mask-type:luminance" maskUnits="userSpaceOnUse" x="60" y="121" width="13" height="14">
<path fill-rule="evenodd" clip-rule="evenodd" d="M64.2816 121.91C61.1909 122.864 59.553 126.401 60.626 129.804C61.6991 133.206 65.0801 135.195 68.1708 134.242C71.2615 133.288 72.8994 129.75 71.8254 126.347C70.9348 123.522 68.4518 121.672 65.8665 121.672C65.3379 121.672 64.8065 121.748 64.2816 121.91Z" fill="white"/>
</mask>
<g mask="url(#mask17_11529_382)">
<path fill-rule="evenodd" clip-rule="evenodd" d="M68.8614 127.987C68.9992 128.664 68.9666 129.238 68.8419 129.72C68.626 130.548 68.0155 131.011 67.3221 131.168C66.7247 131.303 66.0602 131.222 65.4925 130.853C64.9713 130.516 64.5135 129.989 64.2659 129.215C64.1859 128.906 63.8685 128.719 63.5568 128.798C63.2459 128.877 63.057 129.192 63.137 129.5C63.4804 131.2 64.573 132.218 65.7642 132.614C66.3952 132.824 67.0662 132.845 67.6851 132.701C68.1169 132.6 68.5273 132.417 68.88 132.151C69.9466 131.347 70.6269 129.836 69.9214 127.706C69.8433 127.417 69.5417 127.245 69.2495 127.322C68.9573 127.399 68.7833 127.698 68.8614 127.987Z" fill="#8C181B"/>
</g>
<mask id="mask18_11529_382" style="mask-type:luminance" maskUnits="userSpaceOnUse" x="60" y="121" width="13" height="14">
<path fill-rule="evenodd" clip-rule="evenodd" d="M64.2816 121.91C61.1909 122.864 59.553 126.401 60.626 129.804C61.6991 133.206 65.0801 135.195 68.1708 134.242C71.2615 133.288 72.8994 129.75 71.8254 126.347C70.9348 123.522 68.4518 121.672 65.8665 121.672C65.3379 121.672 64.8065 121.748 64.2816 121.91Z" fill="white"/>
</mask>
<g mask="url(#mask18_11529_382)">
<path fill-rule="evenodd" clip-rule="evenodd" d="M65.4097 125.672C64.9648 125.33 64.3059 125.429 63.9393 125.893C63.5726 126.356 63.6359 127.008 64.0817 127.35C64.5265 127.69 65.1854 127.592 65.5511 127.128C65.9178 126.665 65.8545 126.012 65.4097 125.672Z" fill="white"/>
</g>
<mask id="mask19_11529_382" style="mask-type:luminance" maskUnits="userSpaceOnUse" x="60" y="121" width="13" height="14">
<path fill-rule="evenodd" clip-rule="evenodd" d="M64.2816 121.91C61.1909 122.864 59.553 126.401 60.626 129.804C61.6991 133.206 65.0801 135.195 68.1708 134.242C71.2615 133.288 72.8994 129.75 71.8254 126.347C70.9348 123.522 68.4518 121.672 65.8665 121.672C65.3379 121.672 64.8065 121.748 64.2816 121.91Z" fill="white"/>
</mask>
<g mask="url(#mask19_11529_382)">
<path fill-rule="evenodd" clip-rule="evenodd" d="M69.011 130.733C68.7057 130.733 68.4572 130.99 68.4563 131.305C68.4563 131.622 68.7039 131.878 69.0091 131.877C69.3144 131.877 69.5628 131.62 69.5638 131.304C69.5638 130.988 69.3162 130.732 69.011 130.733Z" fill="white"/>
</g>
<path fill-rule="evenodd" clip-rule="evenodd" d="M64.2386 121.774C63.2391 122.057 62.3745 122.598 61.6998 123.325C61.2503 123.81 60.8892 124.381 60.6203 125.002C59.9958 126.445 59.8841 128.173 60.4211 129.867C60.959 131.558 62.0497 132.909 63.3927 133.741C64.838 134.638 66.5745 134.937 68.2283 134.421C69.8783 133.908 71.1263 132.683 71.7908 131.132C72.406 129.696 72.5186 127.981 71.9835 126.299C71.4483 124.621 70.3651 123.282 69.0315 122.455C67.5992 121.567 65.8794 121.271 64.2405 121.782L64.2386 121.774ZM64.3224 122.039C65.8821 121.563 67.5154 121.855 68.8714 122.707C70.1408 123.504 71.1682 124.79 71.6689 126.396C72.1696 128 72.0551 129.631 71.4632 130.994C70.8332 132.443 69.6615 133.588 68.1138 134.061C66.5699 134.532 64.9534 134.243 63.6095 133.4C62.3494 132.61 61.3304 131.335 60.8315 129.74C60.3318 128.15 60.4481 126.531 61.0307 125.174C61.2782 124.596 61.6142 124.069 62.019 123.605C62.6305 122.906 63.4029 122.355 64.3242 122.046L64.3224 122.039Z" fill="black"/>
<path fill-rule="evenodd" clip-rule="evenodd" d="M87.4752 120.454C87.2667 120.129 87.0294 119.813 86.7548 119.528C86.5724 119.337 86.3742 119.161 86.163 119.004C86.0783 118.94 85.9899 118.882 85.8996 118.827C85.7628 118.744 85.6222 118.67 85.4771 118.603C85.1169 118.441 84.7335 118.335 84.3333 118.292C84.3072 118.289 84.284 118.306 84.2803 118.331C84.2756 118.357 84.2942 118.38 84.3184 118.383C84.7 118.457 85.0555 118.595 85.3905 118.776C85.5236 118.847 85.653 118.926 85.7805 119.01C85.8651 119.065 85.947 119.124 86.0289 119.183C86.2346 119.331 86.431 119.492 86.6171 119.665C86.901 119.927 87.1634 120.211 87.3914 120.511C87.4072 120.534 87.4389 120.539 87.4621 120.524C87.4854 120.508 87.491 120.476 87.4752 120.454Z" fill="black"/>
<path fill-rule="evenodd" clip-rule="evenodd" d="M81.536 119.44C81.3117 119.702 81.1172 119.994 80.9562 120.306C80.8501 120.512 80.7589 120.725 80.6807 120.945C80.65 121.032 80.6221 121.12 80.597 121.21C80.5588 121.343 80.5253 121.477 80.4965 121.612C80.423 121.956 80.3746 122.3 80.3383 122.633C80.3336 122.658 80.3513 122.681 80.3764 122.685C80.4016 122.689 80.4257 122.672 80.4304 122.646C80.4723 122.451 80.5216 122.253 80.5747 122.052C80.6258 121.857 80.6826 121.661 80.744 121.465C80.784 121.337 80.8278 121.21 80.8715 121.081C80.9153 120.954 80.959 120.827 81.0074 120.7C81.0707 120.532 81.1396 120.366 81.2159 120.204C81.3313 119.958 81.4616 119.72 81.616 119.501C81.6328 119.48 81.6291 119.448 81.6077 119.431C81.5853 119.415 81.5537 119.418 81.536 119.44Z" fill="black"/>
<path fill-rule="evenodd" clip-rule="evenodd" d="M83.2964 118.997C84.8022 118.877 86.1572 119.016 87.1558 119.176C88.2809 119.358 87.5829 120.456 88.2977 122.597C88.937 124.515 80.6357 119.208 83.2964 118.997Z" fill="black"/>
<path fill-rule="evenodd" clip-rule="evenodd" d="M79.6902 115.71C80.1127 115.435 80.6218 115.241 81.1755 115.111C81.6436 115 82.1378 114.977 82.6459 115.07C82.9893 115.106 83.3085 115.222 83.6203 115.348C83.9544 115.485 84.2792 115.631 84.5751 115.83C85.2536 116.286 85.8241 116.847 86.1051 117.48C86.1545 117.652 86.3369 117.753 86.5118 117.703C86.6868 117.655 86.7873 117.474 86.738 117.301C86.6691 116.774 86.4671 116.239 86.1647 115.714C85.9748 115.386 85.7338 115.085 85.4611 114.804C85.1186 114.449 84.7175 114.145 84.2662 113.926C83.8102 113.706 83.3002 113.595 82.779 113.559C82.0559 113.565 81.3691 113.7 80.7669 113.999C80.1471 114.306 79.6241 114.718 79.2183 115.175C79.0694 115.304 79.0536 115.528 79.1839 115.675C79.3142 115.824 79.5413 115.839 79.6902 115.71Z" fill="black"/>
<path fill-rule="evenodd" clip-rule="evenodd" d="M83.4668 119.07C81.1756 119.498 79.8159 122.465 80.432 125.69C81.0481 128.916 83.4091 131.188 85.6995 130.76C87.9907 130.331 89.3504 127.366 88.7343 124.139C88.1182 120.913 85.7572 118.642 83.4668 119.07Z" fill="white"/>
<mask id="mask20_11529_382" style="mask-type:luminance" maskUnits="userSpaceOnUse" x="80" y="119" width="9" height="12">
<path fill-rule="evenodd" clip-rule="evenodd" d="M83.4669 119.07C81.1756 119.498 79.8169 122.465 80.432 125.691C81.0481 128.916 83.4092 131.187 85.6995 130.76C87.9908 130.331 89.3495 127.365 88.7343 124.139C88.1676 121.177 86.1304 119.017 84.0271 119.017C83.8401 119.017 83.653 119.035 83.4669 119.07Z" fill="white"/>
</mask>
<g mask="url(#mask20_11529_382)">
<path fill-rule="evenodd" clip-rule="evenodd" d="M83.0203 121.019C80.9682 121.231 79.7425 123.473 80.2832 126.022C80.8249 128.571 82.93 130.467 84.9812 130.254C87.0332 130.042 88.2589 127.8 87.7182 125.251C87.1765 122.702 85.0714 120.806 83.0203 121.019Z" fill="black"/>
</g>
<mask id="mask21_11529_382" style="mask-type:luminance" maskUnits="userSpaceOnUse" x="80" y="119" width="9" height="12">
<path fill-rule="evenodd" clip-rule="evenodd" d="M83.4669 119.07C81.1756 119.498 79.8169 122.465 80.432 125.691C81.0481 128.916 83.4092 131.187 85.6995 130.76C87.9908 130.331 89.3495 127.365 88.7343 124.139C88.1676 121.177 86.1304 119.017 84.0271 119.017C83.8401 119.017 83.653 119.035 83.4669 119.07Z" fill="white"/>
</mask>
<g mask="url(#mask21_11529_382)">
<path fill-rule="evenodd" clip-rule="evenodd" d="M86.2565 125.728C86.3552 126.438 86.2249 127.004 85.9848 127.427C85.7391 127.864 85.3193 128.077 84.8754 128.084C84.438 128.089 83.9811 127.895 83.5958 127.455C83.2542 127.065 82.9462 126.536 82.7573 125.816C82.6986 125.503 82.3934 125.296 82.077 125.355C81.7615 125.414 81.553 125.715 81.6126 126.028C81.808 127.571 82.4697 128.573 83.2245 129.123C83.7493 129.506 84.3431 129.669 84.9061 129.657C85.3231 129.648 85.7307 129.543 86.0881 129.338C87.1108 128.752 87.8702 127.406 87.3305 125.503C87.2672 125.21 86.9759 125.022 86.6799 125.084C86.3831 125.146 86.1941 125.435 86.2565 125.728Z" fill="#8C181B"/>
</g>
<mask id="mask22_11529_382" style="mask-type:luminance" maskUnits="userSpaceOnUse" x="80" y="119" width="9" height="12">
<path fill-rule="evenodd" clip-rule="evenodd" d="M83.4669 119.07C81.1756 119.498 79.8169 122.465 80.432 125.691C81.0481 128.916 83.4092 131.187 85.6995 130.76C87.9908 130.331 89.3495 127.365 88.7343 124.139C88.1676 121.177 86.1304 119.017 84.0271 119.017C83.8401 119.017 83.653 119.035 83.4669 119.07Z" fill="white"/>
</mask>
<g mask="url(#mask22_11529_382)">
<path fill-rule="evenodd" clip-rule="evenodd" d="M81.7227 123.002C81.3188 123.369 81.277 123.95 81.6306 124.298C81.9843 124.646 82.5994 124.63 83.0033 124.261C83.4081 123.894 83.4482 123.313 83.0954 122.965C82.7418 122.617 82.1276 122.634 81.7227 123.002Z" fill="white"/>
</g>
<mask id="mask23_11529_382" style="mask-type:luminance" maskUnits="userSpaceOnUse" x="80" y="119" width="9" height="12">
<path fill-rule="evenodd" clip-rule="evenodd" d="M83.4669 119.07C81.1756 119.498 79.8169 122.465 80.432 125.691C81.0481 128.916 83.4092 131.187 85.6995 130.76C87.9908 130.331 89.3495 127.365 88.7343 124.139C88.1676 121.177 86.1304 119.017 84.0271 119.017C83.8401 119.017 83.653 119.035 83.4669 119.07Z" fill="white"/>
</mask>
<g mask="url(#mask23_11529_382)">
<path fill-rule="evenodd" clip-rule="evenodd" d="M86.0134 128.086C85.8012 128.352 85.8365 128.729 86.0897 128.926C86.3437 129.123 86.7216 129.067 86.9328 128.802C87.1441 128.536 87.1097 128.16 86.8565 127.963C86.6025 127.765 86.2246 127.82 86.0134 128.086Z" fill="white"/>
</g>
<path fill-rule="evenodd" clip-rule="evenodd" d="M83.4468 118.966C82.3738 119.16 81.4934 119.893 80.9118 120.948C80.2194 122.205 79.9504 123.92 80.2845 125.719C80.6195 127.523 81.4925 129.036 82.5944 129.97C83.5343 130.767 84.6418 131.143 85.7344 130.945C86.8307 130.745 87.7315 129.997 88.3244 128.918C89.0205 127.649 89.2885 125.915 88.947 124.099C88.7822 123.25 88.5049 122.464 88.1336 121.777C87.712 120.995 87.1769 120.339 86.5766 119.853C85.6283 119.084 84.5217 118.735 83.4459 118.961L83.4468 118.966ZM83.4868 119.178C84.49 119.014 85.4886 119.39 86.3392 120.129C86.8874 120.605 87.3723 121.233 87.7575 121.972C88.101 122.629 88.369 123.372 88.5207 124.179C88.8529 125.889 88.6147 127.526 87.9651 128.727C87.4411 129.7 86.6463 130.387 85.6645 130.575C84.4528 130.806 83.2225 130.235 82.2602 129.164C81.4673 128.284 80.8559 127.066 80.5804 125.663C80.2407 123.935 80.478 122.281 81.1313 121.065C81.6665 120.069 82.4808 119.368 83.4868 119.175V119.178Z" fill="black"/>
<path fill-rule="evenodd" clip-rule="evenodd" d="M80.3282 148.523C75.2087 150.014 70.9491 145.493 70.1655 136.727C70.5248 136.636 70.6281 136.625 70.9901 136.546C74.6717 138.379 79.7251 138.148 83.913 135.808C82.532 137.851 80.2119 141.288 80.3282 148.523Z" fill="black"/>
<mask id="mask24_11529_382" style="mask-type:luminance" maskUnits="userSpaceOnUse" x="70" y="135" width="14" height="14">
<path fill-rule="evenodd" clip-rule="evenodd" d="M70.9897 136.546C70.6286 136.626 70.5253 136.636 70.1652 136.726C70.9497 145.492 75.2093 150.015 80.3278 148.524C80.2115 141.287 82.5316 137.852 83.9127 135.808C79.7248 138.148 74.6723 138.379 70.9897 136.546Z" fill="white"/>
</mask>
<g mask="url(#mask24_11529_382)">
<path fill-rule="evenodd" clip-rule="evenodd" d="M76.4252 143.083C73.4527 140.548 70.0242 139.654 68.7734 141.088C67.5235 142.523 68.9214 145.746 71.8939 148.28C74.8663 150.815 78.2948 151.709 79.5456 150.275C80.7955 148.841 79.3977 145.619 76.4252 143.083Z" fill="#F48EAA"/>
</g>
<mask id="mask25_11529_382" style="mask-type:luminance" maskUnits="userSpaceOnUse" x="70" y="135" width="14" height="14">
<path fill-rule="evenodd" clip-rule="evenodd" d="M70.9897 136.546C70.6286 136.626 70.5253 136.636 70.1652 136.726C70.9497 145.492 75.2093 150.015 80.3278 148.524C80.2115 141.287 82.5316 137.852 83.9127 135.808C79.7248 138.148 74.6723 138.379 70.9897 136.546Z" fill="white"/>
</mask>
<g mask="url(#mask25_11529_382)">
<path fill-rule="evenodd" clip-rule="evenodd" d="M81.6293 134.3C81.3501 135.693 80.8243 136.434 80.1542 136.855C79.8545 137.044 79.512 137.104 79.1584 137.169C78.533 137.285 77.8555 137.273 77.1696 137.266C76.5498 137.302 75.8835 137.265 75.2031 137.234C74.1943 137.189 73.1669 137.132 72.2065 136.952C70.9827 136.72 69.8892 136.43 69.1847 135.859C68.9715 135.635 68.6151 135.624 68.388 135.835C68.1619 136.046 68.1507 136.399 68.3638 136.623C69.1623 137.708 70.7035 138.623 72.5071 139.25C73.4154 139.566 74.3833 139.787 75.3372 139.896C76.011 139.972 76.6773 139.957 77.2999 139.93C78.8783 139.736 80.439 139.511 81.4859 138.506C82.3235 137.701 82.9461 136.479 82.854 134.392C82.8801 134.058 82.626 133.766 82.2882 133.74C81.9503 133.714 81.6544 133.966 81.6293 134.3Z" fill="white"/>
</g>
<path fill-rule="evenodd" clip-rule="evenodd" d="M85.3514 134.671C84.9977 134.422 84.6934 134.137 84.4412 133.813C84.1471 133.435 83.9237 133.003 83.7748 132.508C83.7534 132.441 83.7916 132.369 83.8605 132.348C83.9293 132.327 84.0019 132.364 84.0233 132.432C84.1722 132.89 84.3881 133.288 84.6701 133.635C84.9521 133.983 85.2992 134.279 85.7087 134.532C85.7515 134.56 85.7785 134.607 85.7813 134.656C85.7841 134.708 85.7608 134.757 85.7208 134.788C83.5254 136.512 81.0164 137.504 78.5548 137.854C75.7685 138.251 73.0473 137.826 70.9161 136.763C70.7923 136.809 70.6713 136.852 70.5531 136.887C70.5141 136.898 70.4768 136.908 70.4396 136.917C70.7346 139.078 70.9822 140.744 71.5108 142.295C71.8951 143.421 72.4265 144.487 73.2362 145.64C74.2013 147.02 75.4549 147.915 76.7671 148.356C77.3543 148.554 77.9527 148.661 78.5465 148.681C79.4697 148.71 80.3789 148.53 81.2016 148.122C81.2509 148.096 81.3133 148.114 81.3403 148.163C81.3673 148.213 81.3486 148.275 81.2984 148.301C80.3203 148.854 79.1979 149.104 78.0588 149.023C77.5832 148.99 77.1068 148.896 76.6368 148.746C75.238 148.3 73.9063 147.347 72.8742 145.89C72.0347 144.7 71.4819 143.6 71.0827 142.438C70.5252 140.814 70.2712 139.065 69.9566 136.766C69.9389 136.643 70.0273 136.529 70.153 136.511C70.2404 136.499 70.3307 136.479 70.4229 136.452C70.5606 136.412 70.703 136.359 70.8463 136.304C70.9077 136.281 70.9766 136.285 71.0352 136.314C73.1013 137.38 75.7629 137.797 78.4953 137.434C80.8349 137.122 83.2295 136.241 85.3514 134.671Z" fill="black"/>
<path d="M83.9126 135.808C82.3733 137.843 80.3054 141.992 80.3268 148.456" stroke="black" stroke-width="0.282041" stroke-linecap="round" stroke-linejoin="round"/>
<path fill-rule="evenodd" clip-rule="evenodd" d="M72.2296 135.281C71.9839 135.585 71.6972 135.82 71.3911 136.012C71.1826 136.144 70.9639 136.247 70.7368 136.335C70.5097 136.424 70.2771 136.497 70.0342 136.545C69.6731 136.614 69.298 136.643 68.909 136.608C68.8439 136.599 68.7824 136.643 68.7722 136.707C68.762 136.772 68.8066 136.833 68.8718 136.843C69.285 136.935 69.6936 136.967 70.09 136.93C70.3701 136.904 70.6428 136.845 70.8997 136.747C71.1593 136.647 71.4013 136.507 71.6219 136.335C71.9355 136.091 72.2007 135.779 72.4194 135.411C72.4557 135.359 72.4427 135.288 72.3896 135.252C72.3375 135.217 72.2659 135.229 72.2296 135.281Z" fill="black"/>
<path fill-rule="evenodd" clip-rule="evenodd" d="M56.5354 120.934C62.0262 121.689 68.9111 117.295 73.8706 115.391C78.4819 113.622 83.0514 113.127 85.8824 113.737C80.4642 108.561 59.036 114.944 56.5354 120.934Z" fill="white"/>
<mask id="mask26_11529_382" style="mask-type:luminance" maskUnits="userSpaceOnUse" x="56" y="111" width="30" height="11">
<path fill-rule="evenodd" clip-rule="evenodd" d="M56.5349 120.935C62.0257 121.69 68.9116 117.294 73.8701 115.39C78.4823 113.621 83.0509 113.127 85.8819 113.737C84.4822 112.4 82.0123 111.833 79.078 111.833C70.6537 111.832 58.3897 116.491 56.5349 120.935Z" fill="white"/>
</mask>
<g mask="url(#mask26_11529_382)">
<path fill-rule="evenodd" clip-rule="evenodd" d="M77.7444 112.453C79.6652 112.587 81.574 113.235 83.2696 114.127C84.8564 114.962 87.2249 113.719 88.9866 114.143C86.7065 112.93 80.5735 111.981 77.7444 112.453Z" fill="#BDBDBC"/>
</g>
<path fill-rule="evenodd" clip-rule="evenodd" d="M56.5354 120.934C62.0262 121.689 68.9111 117.295 73.8705 115.391C78.4819 113.622 83.0514 113.127 85.8824 113.737C80.4642 108.561 59.036 114.944 56.5354 120.934Z" stroke="black" stroke-width="0.282041" stroke-linecap="round" stroke-linejoin="round"/>
<path fill-rule="evenodd" clip-rule="evenodd" d="M49.6155 134.104C47.6425 120.747 75.508 108.009 85.8828 113.736C81.1877 105.391 65.4691 100.504 53.9198 110.885C44.6812 119.19 47.4722 130.161 49.6155 134.104Z" fill="white"/>
<mask id="mask27_11529_382" style="mask-type:luminance" maskUnits="userSpaceOnUse" x="47" y="105" width="39" height="30">
<path fill-rule="evenodd" clip-rule="evenodd" d="M53.9198 110.885C44.6812 119.189 47.4722 130.161 49.6155 134.104C47.6425 120.747 75.508 108.01 85.8819 113.737C83.0778 108.752 76.34 105.001 68.9069 105C63.8963 105 58.5702 106.704 53.9198 110.885Z" fill="white"/>
</mask>
<g mask="url(#mask27_11529_382)">
<path fill-rule="evenodd" clip-rule="evenodd" d="M65.3279 113.154C63.4611 113.944 61.4983 115.034 59.5886 116.313C59.0116 114.214 58.4756 112.245 57.9758 110.396C59.705 109.299 61.4713 108.422 63.2721 107.757C63.945 109.485 64.5611 111.207 65.3279 113.154Z" fill="#700D20"/>
</g>
<mask id="mask28_11529_382" style="mask-type:luminance" maskUnits="userSpaceOnUse" x="47" y="105" width="39" height="30">
<path fill-rule="evenodd" clip-rule="evenodd" d="M53.9198 110.885C44.6812 119.189 47.4722 130.161 49.6155 134.104C47.6425 120.747 75.508 108.01 85.8819 113.737C83.0778 108.752 76.34 105.001 68.9069 105C63.8963 105 58.5702 106.704 53.9198 110.885Z" fill="white"/>
</mask>
<g mask="url(#mask28_11529_382)">
<path fill-rule="evenodd" clip-rule="evenodd" d="M68.6437 110.157C68.4976 110.396 68.2668 110.554 67.9783 110.617C67.2803 110.767 66.5042 110.308 66.1999 109.56C65.9039 108.834 66.1989 108.134 66.882 107.979C67.164 107.914 67.4711 107.953 67.7699 108.09C67.7745 108.092 67.7801 108.094 67.7857 108.097C67.8843 107.882 67.983 107.67 68.0816 107.461C68.0761 107.458 68.0695 107.455 68.063 107.452C67.5688 107.205 67.0337 107.128 66.5638 107.237C65.4637 107.492 64.9537 108.647 65.4079 109.777C65.8834 110.96 67.1808 111.703 68.318 111.46C68.8075 111.354 69.204 111.068 69.4311 110.649L69.4385 110.635C69.1751 110.469 68.9127 110.306 68.6512 110.145C68.6484 110.149 68.6456 110.153 68.6437 110.157ZM70.3646 110.952C70.6279 110.913 70.8922 110.878 71.1565 110.846C70.5591 109.455 69.9709 108.121 69.3911 106.846C69.1361 106.879 68.882 106.916 68.6289 106.954C69.1985 108.227 69.7773 109.561 70.3646 110.952ZM73.6292 109.124C73.592 109.066 71.0941 106.666 71.0802 106.673C70.828 106.689 70.5767 106.71 70.3264 106.734C70.9173 108.011 71.5185 109.345 72.1281 110.734C72.3943 110.71 72.6613 110.69 72.9294 110.674C72.5562 109.836 72.1849 109.019 71.8182 108.22C71.9382 108.316 74.3533 110.651 74.3393 110.653C74.3346 110.648 74.5413 108.28 74.5552 108.184C74.9433 108.983 75.3332 109.797 75.7269 110.63C76.0014 110.639 76.2769 110.651 76.5533 110.668C75.8907 109.291 75.2355 107.958 74.5906 106.671C74.33 106.654 74.0703 106.641 73.8116 106.631C73.8079 106.626 73.6292 109.064 73.6292 109.124ZM78.8176 110.196C78.5421 110.154 78.2666 110.116 77.9939 110.083C77.8329 109.761 77.6719 109.442 77.5109 109.124C77.7827 109.158 78.0554 109.197 78.329 109.239C78.7143 109.298 78.9776 109.568 79.0949 109.796C79.214 110.029 79.2047 110.254 78.8176 110.196ZM76.7041 107.54C76.9554 107.572 77.2076 107.608 77.4607 107.648C77.779 107.698 78.0535 107.892 78.1931 108.159C78.3337 108.428 78.2248 108.555 77.9037 108.505C77.6487 108.465 77.3956 108.429 77.1424 108.398C76.9963 108.11 76.8502 107.825 76.7041 107.54ZM78.9478 108.993C79.0828 108.929 79.2484 108.721 79.0176 108.284C78.6649 107.618 77.9474 107.095 77.1619 106.968C76.6156 106.88 76.0731 106.81 75.5361 106.757C76.1931 108.045 76.8585 109.377 77.5314 110.75C78.1102 110.804 78.6938 110.874 79.281 110.962C80.0804 111.082 80.3484 110.727 79.9669 109.993C79.6858 109.453 79.2224 109.138 78.9478 108.993Z" fill="#781214"/>
</g>
<mask id="mask29_11529_382" style="mask-type:luminance" maskUnits="userSpaceOnUse" x="47" y="105" width="39" height="30">
<path fill-rule="evenodd" clip-rule="evenodd" d="M53.9198 110.885C44.6812 119.189 47.4722 130.161 49.6155 134.104C47.6425 120.747 75.508 108.01 85.8819 113.737C83.0778 108.752 76.34 105.001 68.9069 105C63.8963 105 58.5702 106.704 53.9198 110.885Z" fill="white"/>
</mask>
<g mask="url(#mask29_11529_382)">
<path fill-rule="evenodd" clip-rule="evenodd" d="M58.5951 110.999C59.535 110.433 60.4843 109.93 61.4438 109.49C62.125 109.838 62.8249 110.207 63.5415 110.597C63.2874 111.45 63.0306 112.341 62.77 113.27C61.7444 113.752 60.7281 114.306 59.724 114.933C59.9613 113.934 60.1949 112.975 60.4257 112.055C59.8003 111.686 59.1907 111.334 58.5951 110.999Z" fill="#EF3737"/>
</g>
<mask id="mask30_11529_382" style="mask-type:luminance" maskUnits="userSpaceOnUse" x="47" y="105" width="39" height="30">
<path fill-rule="evenodd" clip-rule="evenodd" d="M53.9198 110.885C44.6812 119.189 47.4722 130.161 49.6155 134.104C47.6425 120.747 75.508 108.01 85.8819 113.737C83.0778 108.752 76.34 105.001 68.9069 105C63.8963 105 58.5702 106.704 53.9198 110.885Z" fill="white"/>
</mask>
<g mask="url(#mask30_11529_382)">
<path fill-rule="evenodd" clip-rule="evenodd" d="M63.5418 110.597C62.8243 110.206 62.1254 109.838 61.4442 109.49C60.4847 109.929 59.5345 110.432 58.5955 111C59.1901 111.335 59.7997 111.686 60.4251 112.054" fill="white"/>
</g>
<mask id="mask31_11529_382" style="mask-type:luminance" maskUnits="userSpaceOnUse" x="69" y="105" width="17" height="9">
<path fill-rule="evenodd" clip-rule="evenodd" d="M69.0381 105.001L69.2974 105.004C76.5751 105.133 83.127 108.839 85.8819 113.737L85.8474 113.677H85.7674L85.5654 113.571C81.9702 111.773 76.4605 112.032 70.8221 113.676L69.0381 113.677" fill="white"/>
</mask>
<g mask="url(#mask31_11529_382)">
<path fill-rule="evenodd" clip-rule="evenodd" d="M77.3258 105.967C79.6604 106.47 82.3643 109.461 83.1824 113.418C84.6653 113.454 85.9535 113.684 87.294 114.723C87.0021 111.937 86.3644 110.017 85.0069 108.232C83.3185 106.011 81.8894 105.505 79.7826 105.45C79.0227 105.43 78.0361 105.347 77.3258 105.967Z" fill="#BDBDBC"/>
</g>
<mask id="mask32_11529_382" style="mask-type:luminance" maskUnits="userSpaceOnUse" x="47" y="105" width="39" height="30">
<path fill-rule="evenodd" clip-rule="evenodd" d="M53.9198 110.885C44.6812 119.189 47.4722 130.161 49.6155 134.104C47.6425 120.747 75.508 108.01 85.8819 113.737C83.0778 108.752 76.34 105.001 68.9069 105C63.8963 105 58.5702 106.704 53.9198 110.885Z" fill="white"/>
</mask>
<g mask="url(#mask32_11529_382)">
<path fill-rule="evenodd" clip-rule="evenodd" d="M52.1906 132.43C50.883 126.303 52.6986 114.143 55.6304 110.37C56.8032 109.209 57.8541 107.816 59.1486 107.467C57.2036 107.41 55.6671 109.983 54.018 110.926C52.5801 111.748 50.6736 114.941 49.5596 116.175C45.6649 120.491 47.3335 128.012 49.5596 133.597C50.4987 133.271 51.2404 132.732 52.1906 132.43Z" fill="#BDBDBC"/>
</g>
<path fill-rule="evenodd" clip-rule="evenodd" d="M49.6155 134.104C47.6425 120.747 75.508 108.009 85.8828 113.736C81.1877 105.391 65.4691 100.504 53.9198 110.885C44.6812 119.19 47.4722 130.161 49.6155 134.104Z" stroke="black" stroke-width="0.282041" stroke-linecap="round" stroke-linejoin="round"/>
<path fill-rule="evenodd" clip-rule="evenodd" d="M58.8679 119.256C57.8553 116.53 57.4254 113.609 57.8311 111.21C57.9903 110.27 58.2825 109.415 58.7106 108.676C58.9842 108.204 59.3109 107.78 59.7045 107.415C59.966 107.172 60.2527 106.953 60.5719 106.766C60.6287 106.735 60.6501 106.665 60.6194 106.61C60.5886 106.554 60.5179 106.533 60.4611 106.563C59.8385 106.867 59.3081 107.274 58.8697 107.773C58.6808 107.989 58.5105 108.222 58.357 108.467C57.8814 109.235 57.5706 110.145 57.3965 111.137C56.9666 113.6 57.4096 116.606 58.4472 119.409C58.49 119.523 58.6185 119.582 58.7339 119.54C58.8502 119.498 58.9098 119.37 58.8679 119.256Z" fill="black"/>
<path fill-rule="evenodd" clip-rule="evenodd" d="M82.5903 169.213C82.3493 168.137 82.366 167.026 82.5606 165.934C82.7941 164.629 83.3125 163.366 83.9137 162.187C83.9742 162.067 84.0347 161.947 84.0915 161.826C84.178 161.639 84.2515 161.453 84.3381 161.268C84.3679 161.221 84.3539 161.158 84.3055 161.129C84.2581 161.099 84.1957 161.113 84.165 161.16C84.0887 161.248 84.0142 161.332 83.9416 161.425C83.8346 161.56 83.7332 161.698 83.6392 161.846C83.4558 162.135 83.3051 162.445 83.1543 162.756C82.8044 163.479 82.5196 164.24 82.3149 165.014C81.9417 166.429 81.8467 167.895 82.1622 169.307C82.1883 169.423 82.3056 169.498 82.4237 169.471C82.5419 169.446 82.6164 169.33 82.5903 169.213Z" fill="black"/>
<mask id="mask33_11529_382" style="mask-type:luminance" maskUnits="userSpaceOnUse" x="70" y="143" width="25" height="28">
<path fill-rule="evenodd" clip-rule="evenodd" d="M70.6873 170.406H94.0232V143.083H70.6873M73.5257 165.483C72.9636 164.433 72.9115 162.971 73.1377 161.834C73.5481 159.763 76.1669 154.927 78.2962 153.87L78.527 154.086C77.6262 156.022 76.8714 157.92 76.8482 160.085C76.8202 162.679 77.534 165.26 77.0957 167.852C75.737 167.323 74.2517 166.838 73.5257 165.483Z" fill="white"/>
</mask>
<g mask="url(#mask33_11529_382)">
<path fill-rule="evenodd" clip-rule="evenodd" d="M91.5733 147.759C91.6869 147.522 91.6701 147.245 91.5296 147.025C91.3881 146.805 91.1434 146.671 90.8791 146.671C88.9703 146.67 85.2859 146.668 83.3148 146.667C82.5088 146.667 81.7745 147.127 81.4283 147.846C79.8974 151.031 75.6993 159.764 74.2959 162.685C74.1954 162.894 74.2102 163.14 74.3349 163.336C74.4606 163.532 74.6784 163.651 74.9129 163.651C76.7472 163.652 80.4688 163.653 82.5116 163.654C83.3799 163.655 84.17 163.159 84.5432 162.385C86.0872 159.173 90.129 150.764 91.5733 147.759Z" fill="#F79120"/>
</g>
<mask id="mask34_11529_382" style="mask-type:luminance" maskUnits="userSpaceOnUse" x="70" y="143" width="25" height="28">
<path fill-rule="evenodd" clip-rule="evenodd" d="M70.6873 170.406H94.0232V143.083H70.6873V170.406ZM73.5257 165.483C72.9636 164.433 72.9115 162.971 73.1377 161.834C73.5481 159.763 76.1669 154.927 78.2962 153.87L78.527 154.086C77.6262 156.022 76.8714 157.92 76.8482 160.085C76.8202 162.679 77.534 165.26 77.0957 167.852C75.737 167.323 74.2517 166.838 73.5257 165.483Z" fill="white"/>
</mask>
<g mask="url(#mask34_11529_382)">
<path fill-rule="evenodd" clip-rule="evenodd" d="M91.5733 147.759C91.6869 147.522 91.6701 147.245 91.5296 147.025C91.3881 146.805 91.1434 146.671 90.8791 146.671C88.9703 146.67 85.2859 146.668 83.3148 146.667C82.5088 146.667 81.7745 147.127 81.4283 147.846C79.8974 151.031 75.6993 159.764 74.2959 162.685C74.1954 162.894 74.2102 163.14 74.3349 163.336C74.4606 163.532 74.6784 163.651 74.9129 163.651C76.7472 163.652 80.4688 163.653 82.5116 163.654C83.3799 163.655 84.17 163.159 84.5432 162.385C86.0872 159.173 90.129 150.764 91.5733 147.759Z" stroke="black" stroke-width="0.280282" stroke-linecap="round" stroke-linejoin="round"/>
</g>
<mask id="mask35_11529_382" style="mask-type:luminance" maskUnits="userSpaceOnUse" x="70" y="143" width="25" height="28">
<path fill-rule="evenodd" clip-rule="evenodd" d="M70.6873 170.406H94.0232V143.083H70.6873M73.5257 165.483C72.9636 164.433 72.9115 162.971 73.1377 161.834C73.5481 159.763 76.1669 154.927 78.2962 153.87L78.527 154.086C77.6262 156.022 76.8714 157.92 76.8482 160.085C76.8202 162.679 77.534 165.26 77.0957 167.852C75.737 167.323 74.2517 166.838 73.5257 165.483Z" fill="white"/>
</mask>
<g mask="url(#mask35_11529_382)">
<path d="M76.6725 158.865C76.6725 158.865 80.5533 150.814 81.8841 148.056C82.1531 147.496 82.7226 147.142 83.348 147.143C85.6393 147.146 90.9775 147.153 90.9775 147.153" stroke="#FCBC7B" stroke-width="0.297873" stroke-linecap="round" stroke-linejoin="round"/>
</g>
<mask id="mask36_11529_382" style="mask-type:luminance" maskUnits="userSpaceOnUse" x="70" y="143" width="25" height="28">
<path fill-rule="evenodd" clip-rule="evenodd" d="M70.6873 170.406H94.0232V143.083H70.6873M73.5257 165.483C72.9636 164.433 72.9115 162.971 73.1377 161.834C73.5481 159.763 76.1669 154.927 78.2962 153.87L78.527 154.086C77.6262 156.022 76.8714 157.92 76.8482 160.085C76.8202 162.679 77.534 165.26 77.0957 167.852C75.737 167.323 74.2517 166.838 73.5257 165.483Z" fill="white"/>
</mask>
<g mask="url(#mask36_11529_382)">
<path d="M80.8804 148.986C81.1503 149.617 81.8287 149.831 82.9641 149.82C84.0995 149.81 90.6177 149.747 90.6177 149.747" stroke="black" stroke-width="0.280282" stroke-linecap="round" stroke-linejoin="round"/>
</g>
<mask id="mask37_11529_382" style="mask-type:luminance" maskUnits="userSpaceOnUse" x="70" y="143" width="25" height="28">
<path fill-rule="evenodd" clip-rule="evenodd" d="M70.6873 170.406H94.0232V143.083H70.6873M73.5257 165.483C72.9636 164.433 72.9115 162.971 73.1377 161.834C73.5481 159.763 76.1669 154.927 78.2962 153.87L78.527 154.086C77.6262 156.022 76.8714 157.92 76.8482 160.085C76.8202 162.679 77.534 165.26 77.0957 167.852C75.737 167.323 74.2517 166.838 73.5257 165.483Z" fill="white"/>
</mask>
<g mask="url(#mask37_11529_382)">
<path fill-rule="evenodd" clip-rule="evenodd" d="M85.4918 148.325C85.5057 148.198 85.4639 148.072 85.3773 147.977C85.2917 147.882 85.1689 147.828 85.0395 147.828H83.8231C83.5905 147.828 83.396 148 83.3708 148.229C83.3699 148.241 83.3681 148.252 83.3671 148.264C83.3541 148.391 83.395 148.517 83.4816 148.612C83.5672 148.707 83.6901 148.762 83.8194 148.762H85.0358C85.2684 148.762 85.4629 148.588 85.4881 148.359C85.489 148.347 85.4909 148.337 85.4918 148.325Z" fill="#231F20"/>
</g>
<mask id="mask38_11529_382" style="mask-type:luminance" maskUnits="userSpaceOnUse" x="70" y="143" width="25" height="28">
<path fill-rule="evenodd" clip-rule="evenodd" d="M70.6873 170.406H94.0232V143.083H70.6873V170.406ZM73.5257 165.483C72.9636 164.433 72.9115 162.971 73.1377 161.834C73.5481 159.763 76.1669 154.927 78.2962 153.87L78.527 154.086C77.6262 156.022 76.8714 157.92 76.8482 160.085C76.8202 162.679 77.534 165.26 77.0957 167.852C75.737 167.323 74.2517 166.838 73.5257 165.483Z" fill="white"/>
</mask>
<g mask="url(#mask38_11529_382)">
<path fill-rule="evenodd" clip-rule="evenodd" d="M85.4918 148.325C85.5057 148.198 85.4639 148.072 85.3773 147.977C85.2917 147.882 85.1689 147.828 85.0395 147.828H83.8231C83.5905 147.828 83.396 148 83.3708 148.229C83.3699 148.241 83.3681 148.252 83.3671 148.264C83.3541 148.391 83.395 148.517 83.4816 148.612C83.5672 148.707 83.6901 148.762 83.8194 148.762H85.0358C85.2684 148.762 85.4629 148.588 85.4881 148.359C85.489 148.347 85.4909 148.337 85.4918 148.325Z" stroke="black" stroke-width="0.280282" stroke-linecap="round" stroke-linejoin="round"/>
</g>
<path fill-rule="evenodd" clip-rule="evenodd" d="M80.0673 150.161C79.3944 149.974 78.5122 150.206 77.5834 150.779C76.5336 151.427 75.4336 152.518 74.5029 153.996C73.7752 155.151 73.2931 156.213 72.9404 157.23C71.9781 160.004 71.9725 162.435 70.6789 165.43C70.2508 166.421 69.8041 167.608 68.7273 168.45C68.2909 168.79 67.7548 169.086 67.0699 169.268C66.7432 169.356 66.383 169.415 65.9857 169.447C65.7558 169.464 65.5138 169.47 65.2588 169.467C65.1769 169.47 65.1071 169.405 65.1043 169.322C65.1015 169.241 65.1667 169.172 65.2495 169.17C65.4943 169.15 65.7241 169.121 65.9428 169.088C66.3142 169.031 66.6483 168.953 66.9526 168.861C67.5705 168.677 68.0638 168.427 68.4593 168.116C69.4719 167.322 69.8748 166.194 70.2769 165.26C71.563 162.276 71.564 159.852 72.5207 157.087C72.8827 156.044 73.3778 154.951 74.1251 153.763C75.0967 152.218 76.2488 151.081 77.347 150.405C78.5354 149.67 79.6689 149.478 80.4674 149.836C80.5224 149.861 80.5642 149.906 80.5856 149.961C80.6052 150.017 80.6024 150.078 80.5763 150.132C80.1287 151.063 79.7918 151.688 79.3953 152.509C79.1785 152.956 78.944 153.463 78.6648 154.11C77.7258 156.28 77.3098 157.998 77.1562 159.491C76.8361 162.607 77.6401 164.758 77.2362 167.989C77.2213 168.11 77.1097 168.197 76.9868 168.181C76.8649 168.166 76.7774 168.055 76.7923 167.935C77.1953 164.708 76.3912 162.558 76.7114 159.446C76.8686 157.918 77.2921 156.16 78.2534 153.936C78.5364 153.282 78.7727 152.771 78.9914 152.319C79.3563 151.563 79.6717 150.975 80.0673 150.161Z" fill="black"/>
</svg>
