<svg width="338" height="200" viewBox="0 0 338 200" fill="none" xmlns="http://www.w3.org/2000/svg">
<path opacity="0.1" d="M315.29 198.287C315.29 198.287 350.772 154.06 321.29 106.182C295.131 63.7014 255.905 74.5672 233.528 91.8118C223.994 99.1486 205.261 84.7539 181.867 41.5211C149.992 -17.4404 39.4424 18.3222 59.601 109.02C69.3579 152.908 29.921 154.508 50.0176 198.384L315.29 198.287Z" fill="#333739"/>
<path fill-rule="evenodd" clip-rule="evenodd" d="M191.392 134.23C188.259 134.539 163.642 134.669 163.626 136.262C163.596 139.187 180.213 139.385 182.483 139.78C191.555 141.361 179.754 142.752 179.394 144.863C179.094 146.617 193.097 146.266 196.491 146.943C199.611 147.564 203.471 148.895 206.672 149.373C211.709 150.123 217.419 149.859 222.49 149.987C234.391 150.288 243.73 150.431 255.684 149.845C266.146 149.331 277.604 147.467 261.907 143.662C260.138 143.234 252.512 141.088 254.635 138.255C257.613 134.278 268.696 138.106 269.967 135.853C271.727 132.732 260.842 130.733 259.404 130.592C246.545 129.333 234.069 133.002 221.16 132.732C208.185 132.462 204.362 134.612 191.392 134.23Z" fill="#C8C6C5"/>
<path fill-rule="evenodd" clip-rule="evenodd" d="M208.498 116.348C207.586 118.88 205.684 121.024 203.449 122.494C192.459 129.722 178.506 118.733 169.62 125.506C161.853 131.427 170.178 141.275 175.696 135.801C176.967 134.541 177.112 132.682 176.69 131.047C180.046 130.558 182.978 131.904 186.104 132.883C193.183 135.1 201.909 136.912 207.165 130.161C209.81 126.764 209.474 120.37 208.498 116.348Z" fill="#E52B31"/>
<mask id="mask0" mask-type="alpha" maskUnits="userSpaceOnUse" x="166" y="116" width="44" height="22">
<path fill-rule="evenodd" clip-rule="evenodd" d="M203.449 122.494C197.884 126.154 191.56 125.143 185.519 124.133C179.629 123.148 174.007 122.163 169.62 125.506C161.853 131.427 170.178 141.275 175.696 135.801C176.967 134.541 177.112 132.682 176.69 131.047C180.047 130.558 182.978 131.904 186.104 132.883C193.183 135.1 201.909 136.912 207.165 130.161C209.81 126.764 209.474 120.37 208.498 116.348C207.586 118.88 205.684 121.024 203.449 122.494Z" fill="white"/>
</mask>
<g mask="url(#mask0)">
<path fill-rule="evenodd" clip-rule="evenodd" d="M205.494 123.727C202.177 128.393 196.725 130.989 190.94 129.711C186.387 128.705 182.292 126.688 177.55 126.57C172.604 126.446 167.384 129.904 169.614 135.291C171.521 139.901 180.049 139.501 183.926 139.511C193.444 139.537 202.404 138.359 207.493 129.211C209.366 125.845 209.85 122.493 208.85 118.791L205.494 123.727Z" fill="#BA1918"/>
</g>
<mask id="mask1" mask-type="alpha" maskUnits="userSpaceOnUse" x="166" y="116" width="44" height="22">
<path fill-rule="evenodd" clip-rule="evenodd" d="M203.449 122.494C197.884 126.154 191.56 125.143 185.519 124.133C179.629 123.148 174.007 122.163 169.62 125.506C161.853 131.427 170.178 141.275 175.696 135.801C176.967 134.541 177.112 132.682 176.69 131.047C180.047 130.558 182.978 131.904 186.104 132.883C193.183 135.1 201.909 136.912 207.165 130.161C209.81 126.764 209.474 120.37 208.498 116.348C207.586 118.88 205.684 121.024 203.449 122.494Z" fill="white"/>
</mask>
<g mask="url(#mask1)">
<path fill-rule="evenodd" clip-rule="evenodd" d="M206.673 119.979C202.72 127.027 194.002 127.586 186.813 126.314C183.384 125.707 179.836 124.544 176.324 124.756C169.66 125.159 165.005 129.558 167.327 136.263C163.789 129.75 166.443 123.442 173.774 121.974C175.45 121.638 177.117 121.753 178.813 121.723C183.879 121.634 188.86 122.36 193.914 122.344C198.154 122.331 202.743 121.503 206.673 119.979Z" fill="#F090AD"/>
</g>
<path fill-rule="evenodd" clip-rule="evenodd" d="M208.498 116.346C207.586 118.878 205.684 121.022 203.449 122.492C192.459 129.72 178.506 118.731 169.62 125.504C161.853 131.425 170.178 141.273 175.696 135.799C176.967 134.539 177.112 132.68 176.69 131.045C180.047 130.556 182.978 131.902 186.104 132.881C193.183 135.098 201.909 136.91 207.165 130.159C209.81 126.762 209.474 120.368 208.498 116.346Z" stroke="black" stroke-width="0.792867" stroke-linecap="round" stroke-linejoin="round"/>
<path fill-rule="evenodd" clip-rule="evenodd" d="M231.955 114.579C233.894 121 246.202 122.905 249.941 108.357C251.004 104.221 252.177 98.6409 254.675 95.08C256.383 92.6443 258.844 90.5132 261.799 89.7353C262.516 89.5462 264.264 89.1226 264.865 89.8578C265.553 90.6992 263.858 91.758 263.303 92.2238C259.395 95.5036 257.56 102.034 257.723 113.348C257.918 126.958 239.382 132.411 232.305 126.091C229.119 123.245 228.171 117.115 231.955 114.579Z" fill="#E52B31"/>
<mask id="mask2" mask-type="alpha" maskUnits="userSpaceOnUse" x="229" y="89" width="37" height="40">
<path fill-rule="evenodd" clip-rule="evenodd" d="M261.798 89.7373C258.843 90.5152 256.383 92.6463 254.675 95.0819C252.177 98.6429 251.003 104.223 249.941 108.359C246.202 122.907 233.894 121.002 231.954 114.581C228.171 117.117 229.118 123.247 232.305 126.093C239.381 132.413 257.918 126.96 257.723 113.35C257.56 102.036 259.395 95.5055 263.302 92.2258C263.858 91.7599 265.552 90.7012 264.865 89.8598C264.608 89.5461 264.143 89.4434 263.638 89.4434C262.96 89.4434 262.21 89.6289 261.798 89.7373Z" fill="white"/>
</mask>
<g mask="url(#mask2)">
<path fill-rule="evenodd" clip-rule="evenodd" d="M239.001 117.721C239.162 123.515 246.405 125.396 250.459 120.075C253.539 116.033 252.68 110.948 253.339 106.256C254.076 101.005 256.943 95.6192 260.987 92.0786C261.781 91.3835 262.699 90.8184 263.449 90.0771C264.861 88.6816 265.291 86.9045 267.77 87.2007C268.665 87.3078 269.482 87.7754 270.052 88.4555C272.937 91.8962 269.579 100.459 268.48 104.286C265.762 113.753 263.466 125.347 255.588 132.168C248.428 138.369 228.78 135.783 225.012 126.709C229.115 113.515 233.908 112.888 239.001 117.721Z" fill="#BA1918"/>
</g>
<mask id="mask3" mask-type="alpha" maskUnits="userSpaceOnUse" x="229" y="89" width="37" height="40">
<path fill-rule="evenodd" clip-rule="evenodd" d="M261.798 89.7373C258.843 90.5152 256.383 92.6463 254.675 95.0819C252.177 98.6429 251.003 104.223 249.941 108.359C246.202 122.907 233.894 121.002 231.954 114.581C228.171 117.117 229.118 123.247 232.305 126.093C239.381 132.413 257.918 126.96 257.723 113.35C257.56 102.036 259.395 95.5055 263.302 92.2258C263.858 91.7599 265.552 90.7012 264.865 89.8598C264.608 89.5461 264.143 89.4434 263.638 89.4434C262.96 89.4434 262.21 89.6289 261.798 89.7373Z" fill="white"/>
</mask>
<g mask="url(#mask3)">
<path fill-rule="evenodd" clip-rule="evenodd" d="M263.952 89.5244C251.465 91.663 253.822 106.775 248.72 114.668C246.843 117.571 242.933 120.76 238.843 118.77C240.422 117.707 242.854 116.064 244.03 114.562C245.275 112.973 246.061 110.947 246.829 109.112C248.695 104.656 249.955 99.7598 252.604 95.6665C254.645 92.5132 259.724 88.5534 263.952 89.5244Z" fill="#ED7483"/>
</g>
<path fill-rule="evenodd" clip-rule="evenodd" d="M231.954 114.579C233.894 121 246.202 122.905 249.941 108.357C251.003 104.221 252.177 98.6409 254.675 95.08C256.383 92.6443 258.843 90.5132 261.798 89.7353C262.516 89.5462 264.264 89.1226 264.865 89.8578C265.552 90.6992 263.858 91.758 263.302 92.2238C259.395 95.5036 257.56 102.034 257.723 113.348C257.918 126.958 239.381 132.411 232.305 126.091C229.118 123.245 228.171 117.115 231.954 114.579Z" stroke="#020203" stroke-width="0.774328" stroke-linecap="round" stroke-linejoin="round"/>
<path fill-rule="evenodd" clip-rule="evenodd" d="M198.106 60.4358C196.729 60.9661 194.106 62.6731 196.346 65.4557C197.532 66.9291 199.842 68.6662 204.407 69.9638C205.948 68.1192 206.569 61.6431 207.948 59.5909C204.887 58.9747 200.46 59.5287 198.106 60.4358Z" fill="#AAA8A7"/>
<path fill-rule="evenodd" clip-rule="evenodd" d="M198.106 60.4358C196.729 60.9661 194.106 62.6731 196.346 65.4557C197.532 66.9291 199.842 68.6662 204.407 69.9638C205.948 68.1192 206.569 61.6431 207.948 59.5909C204.887 58.9747 200.46 59.5287 198.106 60.4358Z" stroke="#020203" stroke-width="0.774328" stroke-linecap="round" stroke-linejoin="round"/>
<path fill-rule="evenodd" clip-rule="evenodd" d="M206.36 121.76C210.799 108.619 198.437 97.5338 199.195 79.4832C200.166 56.3523 217.841 49.6342 232.041 51.6423C245.626 53.5636 258.277 66.7336 253.97 86.1356C249.616 105.749 232.738 105.116 233.305 114.032C233.488 116.902 235.24 118.948 237.806 120.27C243.561 123.237 247.06 122.467 252.71 120.302C256.64 118.795 265.217 113.81 269.264 119.354C273.105 124.614 265.752 130.582 261.987 126.606C261.391 125.976 260.945 125.094 260.971 124.2C256.954 126.238 253.793 129.454 250.047 131.898C248.774 132.729 247.487 133.471 246.186 134.051C249.666 134.986 255.141 135.873 257.902 139.677C261.019 143.97 256.919 149.79 251.997 148.843C249.845 148.428 248.622 146.446 249.239 144.316C249.404 143.746 249.774 143.205 250.218 142.813C250.36 142.687 250.511 142.572 250.672 142.47C250.676 142.468 250.758 142.421 250.758 142.421C250.656 142.184 250.252 141.94 250.054 141.806C247.17 139.858 231.339 145.372 224.087 136.538C221.211 136.438 215.691 139.58 215.579 139.639C218.007 139.943 219.203 139.728 224.851 140.524C228.297 141.01 232.805 143.457 235.024 146.271C235.735 147.171 236.4 148.413 235.944 149.561C235.075 151.747 233.378 145.587 224.589 146.228C217.313 146.759 207.323 152.611 202.651 144.209C192.418 147.338 182.178 141.837 184.756 130.036C186.187 123.487 191.411 119.58 195.075 114.296C197.583 110.681 198.994 106.989 199.75 102.707C201.643 105.193 203.336 108.905 198.666 117.891C196.816 121.452 191.792 130.086 195.144 133.03C197.95 135.496 203.344 130.69 206.36 121.76Z" fill="#E52B31"/>
<mask id="mask4" mask-type="alpha" maskUnits="userSpaceOnUse" x="184" y="51" width="87" height="100">
<path fill-rule="evenodd" clip-rule="evenodd" d="M199.195 79.4832C198.437 97.5338 210.799 108.619 206.36 121.76C203.344 130.69 197.95 135.496 195.144 133.03C191.792 130.086 196.816 121.452 198.666 117.891C203.336 108.905 201.643 105.193 199.75 102.707C198.994 106.989 197.583 110.681 195.075 114.296C191.411 119.58 186.187 123.487 184.756 130.036C182.178 141.837 192.418 147.338 202.651 144.209C207.323 152.611 217.313 146.759 224.589 146.228C228.535 145.94 231.052 147.024 232.706 148.107C234.735 149.436 235.465 150.765 235.944 149.561C236.4 148.413 235.734 147.171 235.024 146.271C232.805 143.457 228.297 141.01 224.851 140.524C219.203 139.728 218.007 139.943 215.579 139.639C215.691 139.58 221.211 136.438 224.087 136.538C228.857 142.349 237.341 141.951 243.409 141.553C246.565 141.347 249.067 141.14 250.054 141.806C250.252 141.94 250.656 142.184 250.758 142.421C250.758 142.421 250.676 142.468 250.672 142.47C250.511 142.572 250.36 142.687 250.218 142.813C249.774 143.205 249.404 143.746 249.239 144.316C248.622 146.446 249.845 148.428 251.997 148.843C256.919 149.79 261.019 143.97 257.902 139.677C255.141 135.873 249.666 134.986 246.186 134.051C247.487 133.471 248.774 132.729 250.047 131.898C253.793 129.454 256.954 126.238 260.971 124.2C260.945 125.094 261.391 125.976 261.987 126.606C265.752 130.582 273.105 124.614 269.264 119.354C265.217 113.81 256.64 118.795 252.71 120.302C247.06 122.467 243.561 123.237 237.806 120.27C235.24 118.948 233.488 116.902 233.305 114.031C232.738 105.116 249.616 105.749 253.97 86.1356C258.277 66.7336 245.626 53.5636 232.041 51.6423C230.482 51.4218 228.883 51.3065 227.266 51.3066C214.163 51.3074 200.059 58.8921 199.195 79.4832Z" fill="white"/>
</mask>
<g mask="url(#mask4)">
<path fill-rule="evenodd" clip-rule="evenodd" d="M246.037 75.9279C229.805 84.7013 217.734 62.0315 201.703 66.328C208.619 46.7656 234.51 66.254 246.037 75.9279Z" fill="#BA1918"/>
</g>
<mask id="mask5" mask-type="alpha" maskUnits="userSpaceOnUse" x="184" y="51" width="87" height="100">
<path fill-rule="evenodd" clip-rule="evenodd" d="M199.195 79.4832C198.437 97.5338 210.799 108.619 206.36 121.76C203.344 130.69 197.95 135.496 195.144 133.03C191.792 130.086 196.816 121.452 198.666 117.891C203.336 108.905 201.643 105.193 199.75 102.707C198.994 106.989 197.583 110.681 195.075 114.296C191.411 119.58 186.187 123.487 184.756 130.036C182.178 141.837 192.418 147.338 202.651 144.209C207.323 152.611 217.313 146.759 224.589 146.228C228.535 145.94 231.052 147.024 232.706 148.107C234.735 149.436 235.465 150.765 235.944 149.561C236.4 148.413 235.734 147.171 235.024 146.271C232.805 143.457 228.297 141.01 224.851 140.524C219.203 139.728 218.007 139.943 215.579 139.639C215.691 139.58 221.211 136.438 224.087 136.538C228.857 142.349 237.341 141.951 243.409 141.553C246.565 141.347 249.067 141.14 250.054 141.806C250.252 141.94 250.656 142.184 250.758 142.421C250.758 142.421 250.676 142.468 250.672 142.47C250.511 142.572 250.36 142.687 250.218 142.813C249.774 143.205 249.404 143.746 249.239 144.316C248.622 146.446 249.845 148.428 251.997 148.843C256.919 149.79 261.019 143.97 257.902 139.677C255.141 135.873 249.666 134.986 246.186 134.051C247.487 133.471 248.774 132.729 250.047 131.898C253.793 129.454 256.954 126.238 260.971 124.2C260.945 125.094 261.391 125.976 261.987 126.606C265.752 130.582 273.105 124.614 269.264 119.354C265.217 113.81 256.64 118.795 252.71 120.302C247.06 122.467 243.561 123.237 237.806 120.27C235.24 118.948 233.488 116.902 233.305 114.031C232.738 105.116 249.616 105.749 253.97 86.1356C258.277 66.7336 245.626 53.5636 232.041 51.6423C230.482 51.4218 228.883 51.3065 227.266 51.3066C214.163 51.3074 200.059 58.8921 199.195 79.4832Z" fill="white"/>
</mask>
<g mask="url(#mask5)">
<path fill-rule="evenodd" clip-rule="evenodd" d="M263.235 126.366C264.647 129.104 268.235 128.901 269.951 126.428C270.992 124.928 270.813 123.058 270.055 121.479C269.79 120.927 269.433 120.407 269.031 119.944C269.001 119.91 268.623 119.544 268.631 119.529C268.975 118.899 271.804 119.723 272.326 119.995C274.873 121.323 275.878 124.205 275.507 126.933C274.884 131.5 270.479 135.251 265.777 134.472C261.507 133.765 260.781 129.696 263.235 126.366Z" fill="#BA1918"/>
</g>
<mask id="mask6" mask-type="alpha" maskUnits="userSpaceOnUse" x="184" y="51" width="87" height="100">
<path fill-rule="evenodd" clip-rule="evenodd" d="M199.195 79.4832C198.437 97.5338 210.799 108.619 206.36 121.76C203.344 130.69 197.95 135.496 195.144 133.03C191.792 130.086 196.816 121.452 198.666 117.891C203.336 108.905 201.643 105.193 199.75 102.707C198.994 106.989 197.583 110.681 195.075 114.296C191.411 119.58 186.187 123.487 184.756 130.036C182.178 141.837 192.418 147.338 202.651 144.209C207.323 152.611 217.313 146.759 224.589 146.228C228.535 145.94 231.052 147.024 232.706 148.107C234.735 149.436 235.465 150.765 235.944 149.561C236.4 148.413 235.734 147.171 235.024 146.271C232.805 143.457 228.297 141.01 224.851 140.524C219.203 139.728 218.007 139.943 215.579 139.639C215.691 139.58 221.211 136.438 224.087 136.538C228.857 142.349 237.341 141.951 243.409 141.553C246.565 141.347 249.067 141.14 250.054 141.806C250.252 141.94 250.656 142.184 250.758 142.421C250.758 142.421 250.676 142.468 250.672 142.47C250.511 142.572 250.36 142.687 250.218 142.813C249.774 143.205 249.404 143.746 249.239 144.316C248.622 146.446 249.845 148.428 251.997 148.843C256.919 149.79 261.019 143.97 257.902 139.677C255.141 135.873 249.666 134.986 246.186 134.051C247.487 133.471 248.774 132.729 250.047 131.898C253.793 129.454 256.954 126.238 260.971 124.2C260.945 125.094 261.391 125.976 261.987 126.606C265.752 130.582 273.105 124.614 269.264 119.354C265.217 113.81 256.64 118.795 252.71 120.302C247.06 122.467 243.561 123.237 237.806 120.27C235.24 118.948 233.488 116.902 233.305 114.031C232.738 105.116 249.616 105.749 253.97 86.1356C258.277 66.7336 245.626 53.5636 232.041 51.6423C230.482 51.4218 228.883 51.3065 227.266 51.3066C214.163 51.3074 200.059 58.8921 199.195 79.4832Z" fill="white"/>
</mask>
<g mask="url(#mask6)">
<path fill-rule="evenodd" clip-rule="evenodd" d="M202.65 129.322C215.396 119.803 206.145 101.727 202.877 93.6825C199.506 85.3842 199.59 71.3327 203.956 63.0098C201.752 65.6654 198.771 70.3419 197.779 73.6516C196.055 79.4106 195.849 86.6638 198.481 92.2293C202.156 100.001 206.266 119.989 202.65 129.322Z" fill="#ED7483"/>
</g>
<mask id="mask7" mask-type="alpha" maskUnits="userSpaceOnUse" x="184" y="51" width="87" height="100">
<path fill-rule="evenodd" clip-rule="evenodd" d="M199.195 79.4832C198.437 97.5338 210.799 108.619 206.36 121.76C203.344 130.69 197.95 135.496 195.144 133.03C191.792 130.086 196.816 121.452 198.666 117.891C203.336 108.905 201.643 105.193 199.75 102.707C198.994 106.989 197.583 110.681 195.075 114.296C191.411 119.58 186.187 123.487 184.756 130.036C182.178 141.837 192.418 147.338 202.651 144.209C207.323 152.611 217.313 146.759 224.589 146.228C228.535 145.94 231.052 147.024 232.706 148.107C234.735 149.436 235.465 150.765 235.944 149.561C236.4 148.413 235.734 147.171 235.024 146.271C232.805 143.457 228.297 141.01 224.851 140.524C219.203 139.728 218.007 139.943 215.579 139.639C215.691 139.58 221.211 136.438 224.087 136.538C228.857 142.349 237.341 141.951 243.409 141.553C246.565 141.347 249.067 141.14 250.054 141.806C250.252 141.94 250.656 142.184 250.758 142.421C250.758 142.421 250.676 142.468 250.672 142.47C250.511 142.572 250.36 142.687 250.218 142.813C249.774 143.205 249.404 143.746 249.239 144.316C248.622 146.446 249.845 148.428 251.997 148.843C256.919 149.79 261.019 143.97 257.902 139.677C255.141 135.873 249.666 134.986 246.186 134.051C247.487 133.471 248.774 132.729 250.047 131.898C253.793 129.454 256.954 126.238 260.971 124.2C260.945 125.094 261.391 125.976 261.987 126.606C265.752 130.582 273.105 124.614 269.264 119.354C265.217 113.81 256.64 118.795 252.71 120.302C247.06 122.467 243.561 123.237 237.806 120.27C235.24 118.948 233.488 116.902 233.305 114.031C232.738 105.116 249.616 105.749 253.97 86.1356C258.277 66.7336 245.626 53.5636 232.041 51.6423C230.482 51.4218 228.883 51.3065 227.266 51.3066C214.163 51.3074 200.059 58.8921 199.195 79.4832Z" fill="white"/>
</mask>
<g mask="url(#mask7)">
<path fill-rule="evenodd" clip-rule="evenodd" d="M184.686 136.201C184.613 127.449 190.07 124.306 192.619 117.191C186.912 121.336 182.922 129.104 184.686 136.201Z" fill="#F090AD"/>
</g>
<mask id="mask8" mask-type="alpha" maskUnits="userSpaceOnUse" x="184" y="51" width="87" height="100">
<path fill-rule="evenodd" clip-rule="evenodd" d="M199.195 79.4832C198.437 97.5338 210.799 108.619 206.36 121.76C203.344 130.69 197.95 135.496 195.144 133.03C191.792 130.086 196.816 121.452 198.666 117.891C203.336 108.905 201.643 105.193 199.75 102.707C198.994 106.989 197.583 110.681 195.075 114.296C191.411 119.58 186.187 123.487 184.756 130.036C182.178 141.837 192.418 147.338 202.651 144.209C207.323 152.611 217.313 146.759 224.589 146.228C228.535 145.94 231.052 147.024 232.706 148.107C234.735 149.436 235.465 150.765 235.944 149.561C236.4 148.413 235.734 147.171 235.024 146.271C232.805 143.457 228.297 141.01 224.851 140.524C219.203 139.728 218.007 139.943 215.579 139.639C215.691 139.58 221.211 136.438 224.087 136.538C228.857 142.349 237.341 141.951 243.409 141.553C246.565 141.347 249.067 141.14 250.054 141.806C250.252 141.94 250.656 142.184 250.758 142.421C250.758 142.421 250.676 142.468 250.672 142.47C250.511 142.572 250.36 142.687 250.218 142.813C249.774 143.205 249.404 143.746 249.239 144.316C248.622 146.446 249.845 148.428 251.997 148.843C256.919 149.79 261.019 143.97 257.902 139.677C255.141 135.873 249.666 134.986 246.186 134.051C247.487 133.471 248.774 132.729 250.047 131.898C253.793 129.454 256.954 126.238 260.971 124.2C260.945 125.094 261.391 125.976 261.987 126.606C265.752 130.582 273.105 124.614 269.264 119.354C265.217 113.81 256.64 118.795 252.71 120.302C247.06 122.467 243.561 123.237 237.806 120.27C235.24 118.948 233.488 116.902 233.305 114.031C232.738 105.116 249.616 105.749 253.97 86.1356C258.277 66.7336 245.626 53.5636 232.041 51.6423C230.482 51.4218 228.883 51.3065 227.266 51.3066C214.163 51.3074 200.059 58.8921 199.195 79.4832Z" fill="white"/>
</mask>
<g mask="url(#mask8)">
<path fill-rule="evenodd" clip-rule="evenodd" d="M214.3 123.596C214.629 131.411 199.584 134.569 203.158 144.862C202.017 142.705 201.903 140.033 202.839 137.675C203.448 136.142 204.157 134.736 205.296 133.576C208.2 130.619 212.679 127.929 214.3 123.596Z" fill="#F090AD"/>
</g>
<mask id="mask9" mask-type="alpha" maskUnits="userSpaceOnUse" x="184" y="51" width="87" height="100">
<path fill-rule="evenodd" clip-rule="evenodd" d="M199.195 79.4832C198.437 97.5338 210.799 108.619 206.36 121.76C203.344 130.69 197.95 135.496 195.144 133.03C191.792 130.086 196.816 121.452 198.666 117.891C203.336 108.905 201.643 105.193 199.75 102.707C198.994 106.989 197.583 110.681 195.075 114.296C191.411 119.58 186.187 123.487 184.756 130.036C182.178 141.837 192.418 147.338 202.651 144.209C207.323 152.611 217.313 146.759 224.589 146.228C228.535 145.94 231.052 147.024 232.706 148.107C234.735 149.436 235.465 150.765 235.944 149.561C236.4 148.413 235.734 147.171 235.024 146.271C232.805 143.457 228.297 141.01 224.851 140.524C219.203 139.728 218.007 139.943 215.579 139.639C215.691 139.58 221.211 136.438 224.087 136.538C228.857 142.349 237.341 141.951 243.409 141.553C246.565 141.347 249.067 141.14 250.054 141.806C250.252 141.94 250.656 142.184 250.758 142.421C250.758 142.421 250.676 142.468 250.672 142.47C250.511 142.572 250.36 142.687 250.218 142.813C249.774 143.205 249.404 143.746 249.239 144.316C248.622 146.446 249.845 148.428 251.997 148.843C256.919 149.79 261.019 143.97 257.902 139.677C255.141 135.873 249.666 134.986 246.186 134.051C247.487 133.471 248.774 132.729 250.047 131.898C253.793 129.454 256.954 126.238 260.971 124.2C260.945 125.094 261.391 125.976 261.987 126.606C265.752 130.582 273.105 124.614 269.264 119.354C265.217 113.81 256.64 118.795 252.71 120.302C247.06 122.467 243.561 123.237 237.806 120.27C235.24 118.948 233.488 116.902 233.305 114.031C232.738 105.116 249.616 105.749 253.97 86.1356C258.277 66.7336 245.626 53.5636 232.041 51.6423C230.482 51.4218 228.883 51.3065 227.266 51.3066C214.163 51.3074 200.059 58.8921 199.195 79.4832Z" fill="white"/>
</mask>
<g mask="url(#mask9)">
<path fill-rule="evenodd" clip-rule="evenodd" d="M238.386 120.561C239.089 121.622 242.351 123.312 245.377 123.407C248.626 123.509 253.118 121.845 259.289 119.297C262.064 118.151 265.134 117.147 268.119 118.144C263.644 115.829 261.995 116.081 257.621 117.502C252.065 119.307 244.246 122.286 238.386 120.561Z" fill="#ED7483"/>
</g>
<mask id="mask10" mask-type="alpha" maskUnits="userSpaceOnUse" x="184" y="51" width="87" height="100">
<path fill-rule="evenodd" clip-rule="evenodd" d="M199.195 79.4832C198.437 97.5338 210.799 108.619 206.36 121.76C203.344 130.69 197.95 135.496 195.144 133.03C191.792 130.086 196.816 121.452 198.666 117.891C203.336 108.905 201.643 105.193 199.75 102.707C198.994 106.989 197.583 110.681 195.075 114.296C191.411 119.58 186.187 123.487 184.756 130.036C182.178 141.837 192.418 147.338 202.651 144.209C207.323 152.611 217.313 146.759 224.589 146.228C228.535 145.94 231.052 147.024 232.706 148.107C234.735 149.436 235.465 150.765 235.944 149.561C236.4 148.413 235.734 147.171 235.024 146.271C232.805 143.457 228.297 141.01 224.851 140.524C219.203 139.728 218.007 139.943 215.579 139.639C215.691 139.58 221.211 136.438 224.087 136.538C228.857 142.349 237.341 141.951 243.409 141.553C246.565 141.347 249.067 141.14 250.054 141.806C250.252 141.94 250.656 142.184 250.758 142.421C250.758 142.421 250.676 142.468 250.672 142.47C250.511 142.572 250.36 142.687 250.218 142.813C249.774 143.205 249.404 143.746 249.239 144.316C248.622 146.446 249.845 148.428 251.997 148.843C256.919 149.79 261.019 143.97 257.902 139.677C255.141 135.873 249.666 134.986 246.186 134.051C247.487 133.471 248.774 132.729 250.047 131.898C253.793 129.454 256.954 126.238 260.971 124.2C260.945 125.094 261.391 125.976 261.987 126.606C265.752 130.582 273.105 124.614 269.264 119.354C265.217 113.81 256.64 118.795 252.71 120.302C247.06 122.467 243.561 123.237 237.806 120.27C235.24 118.948 233.488 116.902 233.305 114.031C232.738 105.116 249.616 105.749 253.97 86.1356C258.277 66.7336 245.626 53.5636 232.041 51.6423C230.482 51.4218 228.883 51.3065 227.266 51.3066C214.163 51.3074 200.059 58.8921 199.195 79.4832Z" fill="white"/>
</mask>
<g mask="url(#mask10)">
<path fill-rule="evenodd" clip-rule="evenodd" d="M192.696 117.539C197.003 118.346 193.777 122.443 193.06 124.833C192.392 127.061 192.185 129.707 193.173 131.868C193.689 132.999 194.632 133.798 195.904 133.928C198.262 134.168 198.546 131.318 198.977 129.644C199.277 128.477 199.63 127.334 200.033 126.198C202.071 120.458 205.592 115.227 204.693 108.89C204.328 106.318 202.677 99.9005 198.748 102.412C197.339 103.312 196.5 104.86 196.08 106.441C195.362 109.143 193.771 114.915 192.696 117.539Z" fill="#BA1918"/>
</g>
<mask id="mask11" mask-type="alpha" maskUnits="userSpaceOnUse" x="184" y="51" width="87" height="100">
<path fill-rule="evenodd" clip-rule="evenodd" d="M199.195 79.4832C198.437 97.5338 210.799 108.619 206.36 121.76C203.344 130.69 197.95 135.496 195.144 133.03C191.792 130.086 196.816 121.452 198.666 117.891C203.336 108.905 201.643 105.193 199.75 102.707C198.994 106.989 197.583 110.681 195.075 114.296C191.411 119.58 186.187 123.487 184.756 130.036C182.178 141.837 192.418 147.338 202.651 144.209C207.323 152.611 217.313 146.759 224.589 146.228C228.535 145.94 231.052 147.024 232.706 148.107C234.735 149.436 235.465 150.765 235.944 149.561C236.4 148.413 235.734 147.171 235.024 146.271C232.805 143.457 228.297 141.01 224.851 140.524C219.203 139.728 218.007 139.943 215.579 139.639C215.691 139.58 221.211 136.438 224.087 136.538C228.857 142.349 237.341 141.951 243.409 141.553C246.565 141.347 249.067 141.14 250.054 141.806C250.252 141.94 250.656 142.184 250.758 142.421C250.758 142.421 250.676 142.468 250.672 142.47C250.511 142.572 250.36 142.687 250.218 142.813C249.774 143.205 249.404 143.746 249.239 144.316C248.622 146.446 249.845 148.428 251.997 148.843C256.919 149.79 261.019 143.97 257.902 139.677C255.141 135.873 249.666 134.986 246.186 134.051C247.487 133.471 248.774 132.729 250.047 131.898C253.793 129.454 256.954 126.238 260.971 124.2C260.945 125.094 261.391 125.976 261.987 126.606C265.752 130.582 273.105 124.614 269.264 119.354C265.217 113.81 256.64 118.795 252.71 120.302C247.06 122.467 243.561 123.237 237.806 120.27C235.24 118.948 233.488 116.902 233.305 114.031C232.738 105.116 249.616 105.749 253.97 86.1356C258.277 66.7336 245.626 53.5636 232.041 51.6423C230.482 51.4218 228.883 51.3065 227.266 51.3066C214.163 51.3074 200.059 58.8921 199.195 79.4832Z" fill="white"/>
</mask>
<g mask="url(#mask11)">
<path fill-rule="evenodd" clip-rule="evenodd" d="M246.439 72.5449C247.851 84.6011 235.171 96.0989 228.242 107.932C223.756 115.594 226.627 122.821 230.866 127.216C235.354 131.87 243.206 133.693 246.915 134.299C249.702 133.957 254.526 130.792 257.344 130.536C260.492 130.251 262.635 130.089 265.773 129.692C268.489 129.349 272.592 124.438 270.164 121.166C267.776 117.949 263.374 119.762 260.341 120.989C252.866 124.014 247.19 131.341 238.434 127.818C236.689 127.116 233.504 124.769 232.641 123.049C230.39 118.564 234.1 118.09 235.901 118.343C238.096 118.652 240.219 113.232 241.493 111.439C244.23 107.585 249.019 102.236 251.256 98.0748C255.193 90.7529 255.895 87.0853 252.485 79.0475C251.193 76.0036 249.119 74.4927 246.439 72.5449Z" fill="#BA1918"/>
</g>
<mask id="mask12" mask-type="alpha" maskUnits="userSpaceOnUse" x="184" y="51" width="87" height="100">
<path fill-rule="evenodd" clip-rule="evenodd" d="M199.195 79.4832C198.437 97.5338 210.799 108.619 206.36 121.76C203.344 130.69 197.95 135.496 195.144 133.03C191.792 130.086 196.816 121.452 198.666 117.891C203.336 108.905 201.643 105.193 199.75 102.707C198.994 106.989 197.583 110.681 195.075 114.296C191.411 119.58 186.187 123.487 184.756 130.036C182.178 141.837 192.418 147.338 202.651 144.209C207.323 152.611 217.313 146.759 224.589 146.228C228.535 145.94 231.052 147.024 232.706 148.107C234.735 149.436 235.465 150.765 235.944 149.561C236.4 148.413 235.734 147.171 235.024 146.271C232.805 143.457 228.297 141.01 224.851 140.524C219.203 139.728 218.007 139.943 215.579 139.639C215.691 139.58 221.211 136.438 224.087 136.538C228.857 142.349 237.341 141.951 243.409 141.553C246.565 141.347 249.067 141.14 250.054 141.806C250.252 141.94 250.656 142.184 250.758 142.421C250.758 142.421 250.676 142.468 250.672 142.47C250.511 142.572 250.36 142.687 250.218 142.813C249.774 143.205 249.404 143.746 249.239 144.316C248.622 146.446 249.845 148.428 251.997 148.843C256.919 149.79 261.019 143.97 257.902 139.677C255.141 135.873 249.666 134.986 246.186 134.051C247.487 133.471 248.774 132.729 250.047 131.898C253.793 129.454 256.954 126.238 260.971 124.2C260.945 125.094 261.391 125.976 261.987 126.606C265.752 130.582 273.105 124.614 269.264 119.354C265.217 113.81 256.64 118.795 252.71 120.302C247.06 122.467 243.561 123.237 237.806 120.27C235.24 118.948 233.488 116.902 233.305 114.031C232.738 105.116 249.616 105.749 253.97 86.1356C258.277 66.7336 245.626 53.5636 232.041 51.6423C230.482 51.4218 228.883 51.3065 227.266 51.3066C214.163 51.3074 200.059 58.8921 199.195 79.4832Z" fill="white"/>
</mask>
<g mask="url(#mask12)">
<path fill-rule="evenodd" clip-rule="evenodd" d="M252.305 150.033C255.79 150.126 264.08 144.198 256.927 137.967C258.915 140.888 256.563 141.873 254.769 140.96C251.104 139.093 245.467 138.839 241.493 138.808C236.082 138.766 230.822 138.978 225.921 136.366C221.486 134.001 222.507 131.324 221.778 129.576C221.28 139.212 226.523 142.14 236.123 143.453C238.476 143.775 241.346 143.274 243.575 144.155C246.731 145.401 247.329 149.9 252.305 150.033Z" fill="#BA1918"/>
</g>
<mask id="mask13" mask-type="alpha" maskUnits="userSpaceOnUse" x="184" y="51" width="87" height="100">
<path fill-rule="evenodd" clip-rule="evenodd" d="M199.195 79.4832C198.437 97.5338 210.799 108.619 206.36 121.76C203.344 130.69 197.95 135.496 195.144 133.03C191.792 130.086 196.816 121.452 198.666 117.891C203.336 108.905 201.643 105.193 199.75 102.707C198.994 106.989 197.583 110.681 195.075 114.296C191.411 119.58 186.187 123.487 184.756 130.036C182.178 141.837 192.418 147.338 202.651 144.209C207.323 152.611 217.313 146.759 224.589 146.228C228.535 145.94 231.052 147.024 232.706 148.107C234.735 149.436 235.465 150.765 235.944 149.561C236.4 148.413 235.734 147.171 235.024 146.271C232.805 143.457 228.297 141.01 224.851 140.524C219.203 139.728 218.007 139.943 215.579 139.639C215.691 139.58 221.211 136.438 224.087 136.538C228.857 142.349 237.341 141.951 243.409 141.553C246.565 141.347 249.067 141.14 250.054 141.806C250.252 141.94 250.656 142.184 250.758 142.421C250.758 142.421 250.676 142.468 250.672 142.47C250.511 142.572 250.36 142.687 250.218 142.813C249.774 143.205 249.404 143.746 249.239 144.316C248.622 146.446 249.845 148.428 251.997 148.843C256.919 149.79 261.019 143.97 257.902 139.677C255.141 135.873 249.666 134.986 246.186 134.051C247.487 133.471 248.774 132.729 250.047 131.898C253.793 129.454 256.954 126.238 260.971 124.2C260.945 125.094 261.391 125.976 261.987 126.606C265.752 130.582 273.105 124.614 269.264 119.354C265.217 113.81 256.64 118.795 252.71 120.302C247.06 122.467 243.561 123.237 237.806 120.27C235.24 118.948 233.488 116.902 233.305 114.031C232.738 105.116 249.616 105.749 253.97 86.1356C258.277 66.7336 245.626 53.5636 232.041 51.6423C230.482 51.4218 228.883 51.3065 227.266 51.3066C214.163 51.3074 200.059 58.8921 199.195 79.4832Z" fill="white"/>
</mask>
<g mask="url(#mask13)">
<path fill-rule="evenodd" clip-rule="evenodd" d="M214.53 139.536C209.476 138.648 220.014 133.379 221.778 129.576C222.18 130.984 222.286 132.34 222.693 133.749C223.037 134.943 223.975 136.361 224.449 137.5C220.782 139.775 218.244 140.189 214.53 139.536Z" fill="#BA1918"/>
</g>
<mask id="mask14" mask-type="alpha" maskUnits="userSpaceOnUse" x="184" y="51" width="87" height="100">
<path fill-rule="evenodd" clip-rule="evenodd" d="M199.195 79.4832C198.437 97.5338 210.799 108.619 206.36 121.76C203.344 130.69 197.95 135.496 195.144 133.03C191.792 130.086 196.816 121.452 198.666 117.891C203.336 108.905 201.643 105.193 199.75 102.707C198.994 106.989 197.583 110.681 195.075 114.296C191.411 119.58 186.187 123.487 184.756 130.036C182.178 141.837 192.418 147.338 202.651 144.209C207.323 152.611 217.313 146.759 224.589 146.228C228.535 145.94 231.052 147.024 232.706 148.107C234.735 149.436 235.465 150.765 235.944 149.561C236.4 148.413 235.734 147.171 235.024 146.271C232.805 143.457 228.297 141.01 224.851 140.524C219.203 139.728 218.007 139.943 215.579 139.639C215.691 139.58 221.211 136.438 224.087 136.538C228.857 142.349 237.341 141.951 243.409 141.553C246.565 141.347 249.067 141.14 250.054 141.806C250.252 141.94 250.656 142.184 250.758 142.421C250.758 142.421 250.676 142.468 250.672 142.47C250.511 142.572 250.36 142.687 250.218 142.813C249.774 143.205 249.404 143.746 249.239 144.316C248.622 146.446 249.845 148.428 251.997 148.843C256.919 149.79 261.019 143.97 257.902 139.677C255.141 135.873 249.666 134.986 246.186 134.051C247.487 133.471 248.774 132.729 250.047 131.898C253.793 129.454 256.954 126.238 260.971 124.2C260.945 125.094 261.391 125.976 261.987 126.606C265.752 130.582 273.105 124.614 269.264 119.354C265.217 113.81 256.64 118.795 252.71 120.302C247.06 122.467 243.561 123.237 237.806 120.27C235.24 118.948 233.488 116.902 233.305 114.031C232.738 105.116 249.616 105.749 253.97 86.1356C258.277 66.7336 245.626 53.5636 232.041 51.6423C230.482 51.4218 228.883 51.3065 227.266 51.3066C214.163 51.3074 200.059 58.8921 199.195 79.4832Z" fill="white"/>
</mask>
<g mask="url(#mask14)">
<path fill-rule="evenodd" clip-rule="evenodd" d="M207.99 131.199C205.346 133.89 203.674 137.23 196.211 139.321C190.978 140.786 184.508 138.995 184.313 133.06C183.767 135.388 183.962 137.484 184.895 139.69C187.891 146.773 197.048 147.594 203.507 145.208C202.419 144.1 201.572 142.703 201.838 141.187C202.568 137.021 204.351 135.139 207.99 131.199Z" fill="#BA1918"/>
</g>
<mask id="mask15" mask-type="alpha" maskUnits="userSpaceOnUse" x="184" y="51" width="87" height="100">
<path fill-rule="evenodd" clip-rule="evenodd" d="M199.195 79.4832C198.437 97.5338 210.799 108.619 206.36 121.76C203.344 130.69 197.95 135.496 195.144 133.03C191.792 130.086 196.816 121.452 198.666 117.891C203.336 108.905 201.643 105.193 199.75 102.707C198.994 106.989 197.583 110.681 195.075 114.296C191.411 119.58 186.187 123.487 184.756 130.036C182.178 141.837 192.418 147.338 202.651 144.209C207.323 152.611 217.313 146.759 224.589 146.228C228.535 145.94 231.052 147.024 232.706 148.107C234.735 149.436 235.465 150.765 235.944 149.561C236.4 148.413 235.734 147.171 235.024 146.271C232.805 143.457 228.297 141.01 224.851 140.524C219.203 139.728 218.007 139.943 215.579 139.639C215.691 139.58 221.211 136.438 224.087 136.538C228.857 142.349 237.341 141.951 243.409 141.553C246.565 141.347 249.067 141.14 250.054 141.806C250.252 141.94 250.656 142.184 250.758 142.421C250.758 142.421 250.676 142.468 250.672 142.47C250.511 142.572 250.36 142.687 250.218 142.813C249.774 143.205 249.404 143.746 249.239 144.316C248.622 146.446 249.845 148.428 251.997 148.843C256.919 149.79 261.019 143.97 257.902 139.677C255.141 135.873 249.666 134.986 246.186 134.051C247.487 133.471 248.774 132.729 250.047 131.898C253.793 129.454 256.954 126.238 260.971 124.2C260.945 125.094 261.391 125.976 261.987 126.606C265.752 130.582 273.105 124.614 269.264 119.354C265.217 113.81 256.64 118.795 252.71 120.302C247.06 122.467 243.561 123.237 237.806 120.27C235.24 118.948 233.488 116.902 233.305 114.031C232.738 105.116 249.616 105.749 253.97 86.1356C258.277 66.7336 245.626 53.5636 232.041 51.6423C230.482 51.4218 228.883 51.3065 227.266 51.3066C214.163 51.3074 200.059 58.8921 199.195 79.4832Z" fill="white"/>
</mask>
<g mask="url(#mask15)">
<path fill-rule="evenodd" clip-rule="evenodd" d="M236.767 151.504C235.747 145.185 228.082 142.591 222.399 143.349C218.893 143.817 215.672 145.425 212.184 145.963C208.6 146.515 202.953 146.438 202.362 141.83C202.384 144.12 203.215 146.267 204.723 148.007C210.587 154.771 218.216 149.461 225.368 150.439C228.483 150.865 234.411 154.168 236.767 151.504Z" fill="#BA1918"/>
</g>
<path fill-rule="evenodd" clip-rule="evenodd" d="M206.36 121.76C210.799 108.619 198.437 97.5338 199.195 79.4832C200.166 56.3523 217.841 49.6342 232.041 51.6423C245.626 53.5636 258.277 66.7336 253.97 86.1356C249.616 105.749 232.738 105.116 233.305 114.032C233.488 116.902 235.24 118.948 237.806 120.27C243.561 123.237 247.06 122.467 252.71 120.302C256.64 118.795 265.217 113.81 269.264 119.354C273.105 124.614 265.752 130.582 261.987 126.606C261.391 125.976 260.945 125.094 260.971 124.2C256.954 126.238 253.793 129.454 250.047 131.898C248.774 132.729 247.487 133.471 246.186 134.051C249.666 134.986 255.141 135.873 257.902 139.677C261.019 143.97 256.919 149.79 251.997 148.843C249.845 148.428 248.622 146.446 249.239 144.316C249.404 143.746 249.774 143.205 250.218 142.813C250.36 142.687 250.511 142.572 250.672 142.47C250.676 142.468 250.758 142.421 250.758 142.421C250.656 142.184 250.252 141.94 250.054 141.806C247.17 139.858 231.339 145.372 224.087 136.538C221.211 136.438 215.691 139.58 215.579 139.639C218.007 139.943 219.203 139.728 224.851 140.524C228.297 141.01 232.805 143.457 235.024 146.271C235.735 147.171 236.4 148.413 235.944 149.561C235.075 151.747 233.378 145.587 224.589 146.228C217.313 146.759 207.323 152.611 202.651 144.209C192.418 147.338 182.178 141.837 184.756 130.036C186.187 123.487 191.411 119.58 195.075 114.296C197.583 110.681 198.994 106.989 199.75 102.707C201.643 105.193 203.336 108.905 198.666 117.891C196.816 121.452 191.792 130.086 195.144 133.03C197.95 135.496 203.344 130.69 206.36 121.76Z" stroke="#020203" stroke-width="0.774328" stroke-linecap="round" stroke-linejoin="round"/>
<path fill-rule="evenodd" clip-rule="evenodd" d="M261.272 124.208C261.309 122.793 262.209 121.74 263.334 121.389C263.684 121.28 264.056 121.239 264.432 121.274C264.675 121.297 264.919 121.347 265.162 121.433C265.448 121.535 265.732 121.68 266.007 121.879C266.258 122.061 266.504 122.277 266.736 122.547C266.778 122.604 266.858 122.616 266.916 122.574C266.973 122.532 266.985 122.452 266.943 122.395C266.694 121.998 266.414 121.675 266.109 121.418C265.872 121.219 265.62 121.065 265.363 120.946C265.081 120.817 264.791 120.735 264.501 120.695C264.042 120.631 263.584 120.676 263.153 120.805C261.796 121.213 260.71 122.492 260.671 124.194C260.667 124.359 260.798 124.496 260.964 124.5C261.13 124.504 261.268 124.373 261.272 124.208Z" fill="#020203"/>
<path fill-rule="evenodd" clip-rule="evenodd" d="M250.912 142.683C251.208 142.455 251.839 142.22 252.5 142.21C253.019 142.202 253.564 142.333 253.974 142.767C254.177 142.961 254.35 143.206 254.411 143.505C254.465 143.767 254.455 144.063 254.303 144.402C254.267 144.465 254.288 144.545 254.351 144.581C254.414 144.617 254.495 144.596 254.531 144.533C254.808 144.152 254.9 143.786 254.887 143.448C254.871 143.026 254.663 142.66 254.416 142.36C253.885 141.779 253.176 141.57 252.492 141.578C251.672 141.588 250.897 141.914 250.533 142.201C250.399 142.305 250.375 142.497 250.48 142.631C250.585 142.764 250.778 142.787 250.912 142.683Z" fill="black"/>
<path fill-rule="evenodd" clip-rule="evenodd" d="M227.626 72.6418C226.936 73.0649 226.324 73.5678 225.794 74.1267C225.426 74.515 225.097 74.9284 224.807 75.356C224.688 75.5314 224.577 75.7104 224.472 75.8902C224.311 76.1674 224.166 76.4473 224.035 76.7272C223.677 77.4919 223.424 78.2514 223.253 78.9416C223.244 78.9747 223.263 79.009 223.297 79.0183C223.33 79.0271 223.364 79.0077 223.373 78.9747C223.581 78.306 223.88 77.5779 224.268 76.8422C224.409 76.5751 224.562 76.3072 224.726 76.0405C224.832 75.8673 224.943 75.6954 225.058 75.523C225.337 75.1052 225.645 74.694 225.989 74.3021C226.485 73.7349 227.049 73.2046 227.701 72.7555C227.732 72.7348 227.741 72.6929 227.721 72.6616C227.7 72.6303 227.658 72.6215 227.626 72.6418Z" fill="#020203"/>
<path fill-rule="evenodd" clip-rule="evenodd" d="M234.44 72.7058C234.861 72.9156 235.262 73.177 235.641 73.4705C235.89 73.6627 236.126 73.8708 236.352 74.0903C236.442 74.178 236.531 74.2666 236.618 74.3569C236.748 74.4931 236.875 74.6328 236.995 74.7779C237.298 75.1437 237.563 75.5377 237.767 75.9653C237.78 75.997 237.817 76.012 237.849 75.9983C237.881 75.9851 237.895 75.949 237.882 75.9172C237.714 75.4575 237.485 75.022 237.202 74.6205C237.088 74.4601 236.966 74.3058 236.835 74.1581C236.748 74.0603 236.657 73.9651 236.562 73.8743C236.324 73.6482 236.067 73.4432 235.795 73.2599C235.386 72.9831 234.946 72.7596 234.495 72.582C234.461 72.567 234.421 72.582 234.406 72.6163C234.39 72.6503 234.406 72.6904 234.44 72.7058Z" fill="#020203"/>
<path fill-rule="evenodd" clip-rule="evenodd" d="M232.824 72.6532C235.452 73.1394 237.973 74.8072 239.587 76.3984C240.696 77.491 239.269 77.9512 239.178 80.1854C239.067 82.9129 229.298 72.0005 232.824 72.6532Z" fill="#020203"/>
<path fill-rule="evenodd" clip-rule="evenodd" d="M240.221 71.6789C240.077 70.633 239.734 69.532 239.155 68.5107C238.587 67.5084 237.761 66.6428 236.743 65.9622C235.98 65.5162 235.159 65.1988 234.307 65.0785C233.466 64.9595 232.606 65.0031 231.783 65.1808C230.099 65.5448 228.578 66.3977 227.557 67.4921C227.372 67.6521 227.353 67.9307 227.514 68.1136C227.675 68.297 227.955 68.3159 228.138 68.1559C229.171 67.4348 230.572 67.0531 232.019 66.9883C232.666 66.9592 233.314 67.0311 233.955 67.1554C234.561 67.2731 235.164 67.4366 235.719 67.7434C236.567 68.148 237.263 68.7364 237.827 69.4174C238.472 70.198 238.977 71.0486 239.284 71.9064C239.347 72.1633 239.608 72.3216 239.866 72.2585C240.125 72.1959 240.284 71.9359 240.221 71.6789Z" fill="#020203"/>
<path fill-rule="evenodd" clip-rule="evenodd" d="M233.568 73.0224C237.722 74.3121 239.917 79.1125 238.467 83.7365C237.018 88.3601 232.468 91.0673 228.315 89.7781C224.161 88.4888 221.966 83.688 223.416 79.064C224.865 74.4404 229.414 71.7332 233.568 73.0224Z" fill="#ECEAE9"/>
<mask id="mask16" mask-type="alpha" maskUnits="userSpaceOnUse" x="222" y="72" width="17" height="19">
<path fill-rule="evenodd" clip-rule="evenodd" d="M223.416 79.064C221.966 83.688 224.161 88.4888 228.315 89.7781C232.468 91.0673 237.018 88.3601 238.467 83.7365C239.917 79.1125 237.722 74.3122 233.568 73.0224C232.867 72.8048 232.156 72.7011 231.449 72.7012C227.968 72.7015 224.621 75.2207 223.416 79.064Z" fill="white"/>
</mask>
<g mask="url(#mask16)">
<path fill-rule="evenodd" clip-rule="evenodd" d="M229.158 75.5834C232.77 75.3582 235.853 78.5819 236.039 82.778C236.224 86.974 233.442 90.5636 229.83 90.7888C226.218 91.0141 223.134 87.7903 222.949 83.5943C222.764 79.3982 225.545 75.8086 229.158 75.5834Z" fill="#020203"/>
</g>
<mask id="mask17" mask-type="alpha" maskUnits="userSpaceOnUse" x="222" y="72" width="17" height="19">
<path fill-rule="evenodd" clip-rule="evenodd" d="M223.416 79.064C221.966 83.688 224.161 88.4888 228.315 89.7781C232.468 91.0673 237.018 88.3601 238.467 83.7365C239.917 79.1125 237.722 74.3122 233.568 73.0224C232.867 72.8048 232.156 72.7011 231.449 72.7012C227.968 72.7015 224.621 75.2207 223.416 79.064Z" fill="white"/>
</mask>
<g mask="url(#mask17)">
<path fill-rule="evenodd" clip-rule="evenodd" d="M224.676 84.4867C225.162 87.5161 227.09 88.9344 229.099 89.217C229.692 89.3003 230.301 89.2694 230.889 89.1416C231.753 88.9543 232.582 88.5571 233.263 87.9815C234.71 86.7597 235.581 84.7926 234.923 82.4468C234.827 82.0277 234.408 81.7641 233.986 81.8593C233.565 81.9545 233.3 82.3719 233.396 82.7915C233.632 84.1482 233.165 85.2386 232.409 86.0038C231.871 86.5481 231.164 86.8924 230.428 87.0634C228.714 87.4614 226.791 86.7385 226.119 84.1804C226.034 83.7846 225.642 83.5311 225.244 83.6157C224.846 83.7004 224.591 84.0904 224.676 84.4867Z" fill="#8F1913"/>
</g>
<mask id="mask18" mask-type="alpha" maskUnits="userSpaceOnUse" x="222" y="72" width="17" height="19">
<path fill-rule="evenodd" clip-rule="evenodd" d="M223.416 79.064C221.966 83.688 224.161 88.4888 228.315 89.7781C232.468 91.0673 237.018 88.3601 238.467 83.7365C239.917 79.1125 237.722 74.3122 233.568 73.0224C232.867 72.8048 232.156 72.7011 231.449 72.7012C227.968 72.7015 224.621 75.2207 223.416 79.064Z" fill="white"/>
</mask>
<g mask="url(#mask18)">
<path fill-rule="evenodd" clip-rule="evenodd" d="M226.28 77.4288C226.787 76.8602 227.577 76.702 228.042 77.0753C228.507 77.4491 228.473 78.2138 227.965 78.7824C227.456 79.351 226.667 79.5096 226.202 79.1359C225.736 78.7625 225.771 77.9974 226.28 77.4288Z" fill="#FEFEFE"/>
</g>
<mask id="mask19" mask-type="alpha" maskUnits="userSpaceOnUse" x="222" y="72" width="17" height="19">
<path fill-rule="evenodd" clip-rule="evenodd" d="M223.416 79.064C221.966 83.688 224.161 88.4888 228.315 89.7781C232.468 91.0673 237.018 88.3601 238.467 83.7365C239.917 79.1125 237.722 74.3122 233.568 73.0224C232.867 72.8048 232.156 72.7011 231.449 72.7012C227.968 72.7015 224.621 75.2207 223.416 79.064Z" fill="white"/>
</mask>
<g mask="url(#mask19)">
<path fill-rule="evenodd" clip-rule="evenodd" d="M231.779 86.2464C232.043 85.8387 232.497 85.6456 232.792 85.8157C233.086 85.9854 233.112 86.4544 232.848 86.8621C232.583 87.2698 232.13 87.4629 231.835 87.2927C231.54 87.123 231.515 86.6541 231.779 86.2464Z" fill="#FEFEFE"/>
</g>
<path fill-rule="evenodd" clip-rule="evenodd" d="M233.623 72.8514C231.418 72.1603 229.1 72.568 227.171 73.7814C225.381 74.9062 223.926 76.7253 223.205 79.0014C222.483 81.2823 222.63 83.6073 223.45 85.5537C224.338 87.6637 226.017 89.3284 228.238 90.0244C230.464 90.7217 232.803 90.3105 234.751 89.0847C236.553 87.9506 238.018 86.1179 238.743 83.8246C239.467 81.5278 239.322 79.1847 238.489 77.229C238.129 76.3854 237.645 75.6097 237.042 74.9499C236.136 73.959 234.972 73.2243 233.626 72.8412L233.623 72.8514ZM233.511 73.2091C234.752 73.6265 235.791 74.3771 236.612 75.3278C237.155 75.9573 237.605 76.6748 237.937 77.4603C238.714 79.2996 238.865 81.4946 238.192 83.6534C237.52 85.8158 236.149 87.5493 234.457 88.6257C232.647 89.777 230.47 90.1763 228.391 89.5368C226.308 88.8959 224.734 87.3395 223.891 85.3684C223.101 83.5194 222.951 81.3068 223.626 79.1321C224.303 76.9525 225.683 75.2049 227.388 74.1197C229.215 72.9561 231.415 72.5537 233.514 73.1985L233.511 73.2091Z" fill="#020203"/>
<path fill-rule="evenodd" clip-rule="evenodd" d="M201.963 70.8668C202.27 70.4608 202.622 70.0774 203.004 69.7226C203.254 69.4898 203.518 69.2721 203.794 69.0716C203.904 68.9918 204.015 68.9129 204.129 68.8379C204.299 68.7247 204.473 68.618 204.653 68.521C205.102 68.2773 205.581 68.0895 206.093 67.9908C206.127 67.9859 206.15 67.9542 206.145 67.9203C206.14 67.8863 206.108 67.863 206.074 67.8678C205.535 67.9247 205.02 68.0693 204.536 68.2892C204.341 68.3773 204.152 68.4783 203.969 68.5907C203.848 68.6652 203.729 68.7445 203.614 68.83C203.33 69.0411 203.065 69.2805 202.819 69.5374C202.451 69.9227 202.131 70.3507 201.851 70.7897C201.83 70.8205 201.838 70.8624 201.869 70.884C201.9 70.9051 201.942 70.8972 201.963 70.8668Z" fill="#020203"/>
<path fill-rule="evenodd" clip-rule="evenodd" d="M209.725 69.5019C209.932 69.7976 210.107 70.118 210.263 70.4521C210.366 70.6708 210.458 70.8951 210.544 71.123C210.608 71.2931 210.667 71.465 210.726 71.6378C210.785 71.8106 210.843 71.9834 210.897 72.1575C210.98 72.4215 211.056 72.6859 211.125 72.9491C211.197 73.2215 211.263 73.4899 211.319 73.7543C211.325 73.7883 211.357 73.8112 211.391 73.8059C211.425 73.8006 211.448 73.7689 211.442 73.7349C211.393 73.2858 211.329 72.8208 211.23 72.3558C211.191 72.1733 211.146 71.9913 211.095 71.811C211.061 71.6911 211.024 71.5712 210.982 71.4536C210.878 71.1574 210.754 70.8678 210.612 70.5905C210.395 70.1665 210.134 69.7734 209.833 69.419C209.81 69.3895 209.767 69.3837 209.737 69.4067C209.707 69.4296 209.702 69.4723 209.725 69.5019Z" fill="#020203"/>
<path fill-rule="evenodd" clip-rule="evenodd" d="M207.467 68.8198C205.659 68.3235 203.614 68.74 201.803 69.4735C199.826 70.2743 201.865 70.121 200.646 73.2332C199.649 75.7764 210.925 69.7692 207.467 68.8198Z" fill="#020203"/>
<path fill-rule="evenodd" clip-rule="evenodd" d="M214.075 65.8924C213.731 64.9421 213.212 63.994 212.51 63.1742C211.777 62.3182 210.829 61.6756 209.757 61.274C209.113 61.073 208.454 60.9699 207.803 61.014C206.853 61.0783 205.922 61.3869 205.1 61.881C203.78 62.673 202.724 63.8714 202.141 65.1743C202.017 65.3837 202.087 65.6539 202.298 65.7773C202.508 65.9007 202.78 65.8311 202.904 65.6217C203.618 64.6816 204.708 63.9609 205.9 63.5122C206.44 63.3086 207.004 63.205 207.574 63.1521C208.106 63.1032 208.646 63.1028 209.179 63.2513C210 63.4223 210.736 63.8137 211.381 64.3294C212.106 64.9094 212.739 65.5838 213.209 66.3155C213.326 66.5535 213.616 66.6513 213.854 66.5345C214.094 66.4177 214.192 66.1299 214.075 65.8924Z" fill="#020203"/>
<path fill-rule="evenodd" clip-rule="evenodd" d="M207.238 68.9197C210.317 69.4984 212.144 73.5089 211.316 77.8702C210.488 82.2312 207.316 85.302 204.238 84.7232C201.159 84.1445 199.332 80.134 200.16 75.7731C200.988 71.4117 204.16 68.3409 207.238 68.9197Z" fill="#ECEAE9"/>
<mask id="mask20" mask-type="alpha" maskUnits="userSpaceOnUse" x="199" y="68" width="13" height="17">
<path fill-rule="evenodd" clip-rule="evenodd" d="M200.16 75.7711C199.332 80.132 201.159 84.1425 204.238 84.7213C207.316 85.3 210.488 82.2292 211.316 77.8683C212.144 73.5069 210.317 69.4964 207.238 68.9177C206.988 68.8705 206.737 68.8476 206.486 68.8477C203.659 68.848 200.92 71.7651 200.16 75.7711Z" fill="white"/>
</mask>
<g mask="url(#mask20)">
<path fill-rule="evenodd" clip-rule="evenodd" d="M207.687 71.3514C210.485 71.6815 212.268 74.9423 211.666 78.6284C211.065 82.3141 208.304 85.0384 205.506 84.7083C202.708 84.3777 200.924 81.117 201.526 77.4308C202.128 73.7452 204.889 71.0208 207.687 71.3514Z" fill="#020203"/>
</g>
<mask id="mask21" mask-type="alpha" maskUnits="userSpaceOnUse" x="201" y="71" width="11" height="14">
<path fill-rule="evenodd" clip-rule="evenodd" d="M201.526 77.4308C200.924 81.1169 202.708 84.3777 205.506 84.7083C205.577 84.7167 205.648 84.7231 205.719 84.7276C208.275 84.2799 210.621 81.5287 211.316 77.8685C211.5 76.9035 211.553 75.9557 211.491 75.0585C210.913 73.0364 209.517 71.5673 207.687 71.3514C207.532 71.3331 207.378 71.3242 207.225 71.3242C204.591 71.3244 202.095 73.9485 201.526 77.4308Z" fill="white"/>
</mask>
<g mask="url(#mask21)">
<path fill-rule="evenodd" clip-rule="evenodd" d="M202.797 77.7307C201.923 80.9496 203.483 83.0476 205.53 83.7595C206.117 83.9635 206.759 84.0407 207.41 83.9895C208.286 83.9212 209.189 83.6215 209.997 83.0595C211.356 82.1154 212.503 80.4506 212.844 77.9784C212.924 77.5557 212.643 77.1489 212.218 77.07C211.794 76.9911 211.384 77.2701 211.305 77.6928C211.002 78.9441 210.451 79.8825 209.809 80.5767C209.053 81.3926 208.129 81.7879 207.238 81.8681C205.416 82.033 203.785 80.6794 204.238 78.0414C204.324 77.6456 204.071 77.2547 203.674 77.1687C203.276 77.0832 202.883 77.3349 202.797 77.7307Z" fill="#8F1913"/>
</g>
<mask id="mask22" mask-type="alpha" maskUnits="userSpaceOnUse" x="199" y="68" width="13" height="17">
<path fill-rule="evenodd" clip-rule="evenodd" d="M200.16 75.7711C199.332 80.132 201.159 84.1425 204.238 84.7213C207.316 85.3 210.488 82.2292 211.316 77.8683C212.144 73.5069 210.317 69.4964 207.238 68.9177C206.988 68.8705 206.737 68.8476 206.486 68.8477C203.659 68.848 200.92 71.7651 200.16 75.7711Z" fill="white"/>
</mask>
<g mask="url(#mask22)">
<path fill-rule="evenodd" clip-rule="evenodd" d="M203.8 73.3438C204.304 72.8506 205.051 72.7585 205.468 73.1388C205.885 73.5192 205.815 74.2289 205.311 74.7221C204.807 75.2157 204.06 75.3074 203.643 74.927C203.225 74.5466 203.296 73.8375 203.8 73.3438Z" fill="#FEFEFE"/>
</g>
<mask id="mask23" mask-type="alpha" maskUnits="userSpaceOnUse" x="199" y="68" width="13" height="17">
<path fill-rule="evenodd" clip-rule="evenodd" d="M200.16 75.7711C199.332 80.132 201.159 84.1425 204.238 84.7213C207.316 85.3 210.488 82.2292 211.316 77.8683C212.144 73.5069 210.317 69.4964 207.238 68.9177C206.988 68.8705 206.737 68.8476 206.486 68.8477C203.659 68.848 200.92 71.7651 200.16 75.7711Z" fill="white"/>
</mask>
<g mask="url(#mask23)">
<path fill-rule="evenodd" clip-rule="evenodd" d="M207.208 81.9697C207.489 81.6427 207.947 81.5149 208.231 81.6841C208.516 81.8534 208.518 82.2562 208.237 82.5833C207.957 82.9099 207.499 83.0382 207.215 82.8689C206.931 82.6997 206.928 82.2968 207.208 81.9697Z" fill="#FEFEFE"/>
</g>
<path fill-rule="evenodd" clip-rule="evenodd" d="M207.266 68.771C205.82 68.4664 204.333 68.938 203.06 69.9769C202.253 70.6345 201.533 71.5222 200.967 72.5774C200.468 73.507 200.094 74.5696 199.874 75.7178C199.415 78.1716 199.774 80.5155 200.711 82.2323C201.507 83.6917 202.717 84.7015 204.19 84.9721C205.659 85.241 207.147 84.7323 208.41 83.6555C209.892 82.3928 211.065 80.3459 211.515 77.9058C211.964 75.475 211.603 73.1557 210.672 71.4574C209.891 70.0302 208.707 69.0403 207.265 68.7771L207.266 68.771ZM207.211 69.0586C208.562 69.3204 209.657 70.2685 210.376 71.6159C211.254 73.2595 211.573 75.4959 211.117 77.8311C210.747 79.7286 209.925 81.3744 208.86 82.5653C207.566 84.0115 205.913 84.7855 204.285 84.4716C202.965 84.2178 201.898 83.2891 201.192 81.9743C200.321 80.3492 200 78.137 200.446 75.8252C200.651 74.7347 201.01 73.7294 201.471 72.8408C201.99 71.842 202.641 70.9935 203.378 70.35C204.521 69.3508 205.863 68.8422 207.211 69.0648L207.211 69.0586Z" fill="#020203"/>
<path fill-rule="evenodd" clip-rule="evenodd" d="M213.098 104.68C219.192 99.5468 217.455 92.6255 216.398 90.8911C215.404 89.2598 212.693 88.607 211.375 90.2176C209.879 92.0445 210.889 93.3104 210.039 97.5056C209.519 100.071 207.966 101.662 207.892 103.485C207.774 106.354 211.289 106.204 213.098 104.68Z" fill="black"/>
<mask id="mask24" mask-type="alpha" maskUnits="userSpaceOnUse" x="207" y="89" width="11" height="17">
<path fill-rule="evenodd" clip-rule="evenodd" d="M211.375 90.2176C209.879 92.0445 210.889 93.3104 210.039 97.5056C209.519 100.071 207.966 101.662 207.892 103.485C207.774 106.354 211.289 106.204 213.098 104.68C219.192 99.5467 217.455 92.6255 216.398 90.8911C215.803 89.9149 214.593 89.2892 213.435 89.2891C212.658 89.289 211.905 89.5708 211.375 90.2176Z" fill="white"/>
</mask>
<g mask="url(#mask24)">
<path fill-rule="evenodd" clip-rule="evenodd" d="M208.237 107.583C209.518 103.116 213.414 99.8336 217.903 98.8577C218.812 98.6602 219.8 98.4257 220.738 98.5544C220.383 102.602 217.344 105.491 213.685 107.007C212.522 107.489 209.494 108.169 208.237 107.583Z" fill="#ED7483"/>
</g>
<path fill-rule="evenodd" clip-rule="evenodd" d="M213.297 104.915C215.706 102.882 216.918 100.577 217.437 98.4108C218.269 94.9465 217.322 91.8351 216.652 90.7381C216.113 89.8561 215.116 89.2337 214.07 89.0517C212.997 88.8648 211.879 89.1385 211.147 90.0337C210.532 90.7861 210.312 91.4499 210.223 92.2358C210.091 93.4082 210.276 94.8742 209.756 97.4495C209.361 99.4057 208.357 100.79 207.881 102.147C207.727 102.587 207.626 103.024 207.608 103.475C207.553 104.828 208.223 105.581 209.157 105.884C210.394 106.285 212.149 105.846 213.278 104.893L213.297 104.915ZM212.918 104.468C211.933 105.297 210.409 105.7 209.333 105.35C208.62 105.118 208.132 104.529 208.175 103.497C208.191 103.102 208.284 102.719 208.419 102.334C208.904 100.956 209.918 99.5486 210.322 97.5625C210.85 94.9638 210.669 93.4837 210.804 92.3007C210.881 91.6227 211.071 91.0506 211.602 90.4023C212.194 89.6807 213.102 89.4785 213.968 89.6305C214.847 89.7848 215.691 90.3022 216.144 91.0449C216.773 92.0785 217.636 95.0105 216.849 98.2704C216.352 100.329 215.193 102.518 212.899 104.447L212.918 104.468Z" fill="black"/>
<path fill-rule="evenodd" clip-rule="evenodd" d="M252.524 91.7596C255.176 73.7023 224.797 59.3639 206.101 59.5653C226.871 38.0313 267.088 58.6939 252.524 91.7596Z" fill="#FEFEFE"/>
<path fill-rule="evenodd" clip-rule="evenodd" d="M220.152 59.6255C217.581 59.028 214.764 58.5307 211.975 58.123C213.903 55.9509 215.734 53.8886 217.474 51.9277C220.069 52.2915 222.596 52.7875 225.054 53.4156C223.486 55.4378 221.886 57.392 220.152 59.6255Z" fill="#75151E"/>
<path fill-rule="evenodd" clip-rule="evenodd" d="M227.485 59.28C227.017 59.4047 226.576 59.4002 226.206 59.2691C225.319 58.9537 225.175 58.0221 225.851 57.1449C226.512 56.2867 227.712 55.8433 228.606 56.1407C228.977 56.2643 229.24 56.4973 229.364 56.8145C229.366 56.8198 229.369 56.8251 229.371 56.8304C229.763 56.6937 230.154 56.5583 230.544 56.4241C230.542 56.4175 230.539 56.4109 230.537 56.4043C230.353 55.8597 229.902 55.4468 229.278 55.2435C227.826 54.7726 225.848 55.4807 224.82 56.8127C223.755 58.1916 224.003 59.7329 225.436 60.2504C226.058 60.474 226.838 60.4682 227.633 60.2311C227.642 60.2283 227.651 60.2255 227.66 60.2227C227.611 59.9041 227.561 59.5878 227.508 59.274C227.5 59.276 227.492 59.2779 227.485 59.28ZM228.2 61.0955C228.531 61.2249 228.862 61.3564 229.192 61.4899C230.463 59.8329 231.67 58.2209 232.812 56.6568C232.483 56.5321 232.155 56.4097 231.825 56.2896C230.684 57.8431 229.474 59.4461 228.2 61.0955ZM234.453 61.3579C234.483 61.2857 235 57.5154 234.981 57.5092C234.662 57.376 234.343 57.2453 234.023 57.117C232.883 58.6935 231.679 60.3157 230.415 61.9812C230.746 62.1208 231.077 62.2625 231.407 62.4067C232.164 61.4002 232.9 60.4091 233.615 59.4336C233.61 59.5995 233.098 63.2288 233.086 63.2186C233.087 63.2119 236.821 61.0674 236.983 60.9815C236.281 61.9718 235.559 62.9756 234.819 63.9925C235.15 64.156 235.48 64.3222 235.809 64.4912C237.029 62.7978 238.198 61.1386 239.316 59.5155C239.003 59.3554 238.688 59.1984 238.373 59.0441C238.375 59.0378 234.537 61.3019 234.453 61.3579ZM239.563 65.2609C239.243 65.0757 238.923 64.8934 238.603 64.7142C238.882 64.3141 239.158 63.9158 239.432 63.5191C239.75 63.6977 240.067 63.8794 240.383 64.0643C240.828 64.3254 240.777 64.7271 240.582 65.0136C240.384 65.3046 240.012 65.5217 239.563 65.2609ZM240.797 61.5232C241.091 61.6889 241.384 61.8576 241.675 62.029C242.044 62.246 242.127 62.5812 241.9 62.9207C241.673 63.2609 241.315 63.3322 240.944 63.1148C240.65 62.9426 240.355 62.7731 240.059 62.6066C240.307 62.2439 240.553 61.8827 240.797 61.5232ZM241.649 64.1418C241.945 64.1476 242.52 64.0239 242.887 63.4683C243.45 62.6172 243.243 61.7282 242.336 61.1902C241.707 60.8186 241.073 60.4609 240.434 60.1166C239.325 61.7475 238.167 63.4123 236.96 65.1091C237.647 65.4769 238.331 65.8575 239.012 66.2514C239.945 66.7884 240.907 66.5729 241.524 65.6554C241.981 64.9765 241.812 64.4269 241.649 64.1418Z" fill="#7C1710"/>
<path fill-rule="evenodd" clip-rule="evenodd" d="M217.56 53.0527C218.944 53.2674 220.307 53.5205 221.649 53.8119C221.801 54.6064 221.95 55.4257 222.094 56.2705C220.822 56.8456 219.523 57.4398 218.195 58.0538C216.79 57.7364 215.362 57.4615 213.91 57.2292C215.217 56.5729 216.497 55.9357 217.75 55.3168C217.691 54.541 217.627 53.7865 217.56 53.0527Z" fill="#E5292B"/>
<path fill-rule="evenodd" clip-rule="evenodd" d="M222.095 56.2705C221.95 55.4257 221.802 54.6064 221.649 53.8119C220.307 53.5205 218.944 53.2674 217.56 53.0527C217.627 53.7865 217.691 54.541 217.75 55.3168" fill="#FEFEFE"/>
<mask id="mask25" mask-type="alpha" maskUnits="userSpaceOnUse" x="206" y="50" width="50" height="42">
<path fill-rule="evenodd" clip-rule="evenodd" d="M206.101 59.5653C224.797 59.3639 255.176 73.7023 252.524 91.7596C262.959 68.0683 245.275 50.7443 226.767 50.7461C219.444 50.7468 211.99 53.4602 206.101 59.5653Z" fill="white"/>
</mask>
<g mask="url(#mask25)">
<path fill-rule="evenodd" clip-rule="evenodd" d="M253.762 91.7129C260.263 81.6274 258.455 69.8096 253.819 63.687C252.399 61.8124 249.499 58.0047 246.382 55.8105C250.604 61.1178 245.887 74.1106 242.097 75.7525C244.176 81.9452 248.446 87.9638 253.762 91.7129Z" fill="#C7C5C5"/>
</g>
<path fill-rule="evenodd" clip-rule="evenodd" d="M252.523 91.7596C255.175 73.7023 224.797 59.3639 206.101 59.5653C226.871 38.0313 267.088 58.6939 252.523 91.7596Z" stroke="#020203" stroke-width="0.774328" stroke-linecap="round" stroke-linejoin="round"/>
<path fill-rule="evenodd" clip-rule="evenodd" d="M242.919 72.6466C244.838 68.6815 246.164 65.1942 246.353 62.2591C246.44 60.9131 246.296 59.678 245.858 58.5713C245.719 58.2204 245.55 57.8828 245.349 57.5602C244.908 56.8554 244.321 56.2202 243.577 55.6495C243.511 55.5944 243.412 55.6032 243.357 55.6693C243.302 55.7354 243.31 55.8337 243.377 55.8888C243.745 56.2202 244.061 56.5698 244.339 56.9312C244.78 57.5046 245.105 58.116 245.341 58.7661C245.719 59.8125 245.851 60.9615 245.763 62.2199C245.561 65.0933 244.26 68.5048 242.377 72.387C242.305 72.5356 242.368 72.7145 242.517 72.7864C242.667 72.8578 242.847 72.7952 242.919 72.6466Z" fill="#020203"/>
<path fill-rule="evenodd" clip-rule="evenodd" d="M245.367 74.8967C238.097 76.0057 228.132 66.6999 216.659 62.3482C206.318 58.4254 199.919 59.6423 198.106 60.4353C210.923 55.7314 235.817 65.2982 245.367 74.8967Z" fill="#FEFEFE"/>
<mask id="mask26" mask-type="alpha" maskUnits="userSpaceOnUse" x="198" y="59" width="48" height="16">
<path fill-rule="evenodd" clip-rule="evenodd" d="M199.213 60.0726C201.904 59.3944 207.852 59.0072 216.659 62.3482C228.132 66.6999 238.097 76.0057 245.367 74.8968C237.547 67.0371 219.441 59.1986 206.099 59.1992C203.605 59.1994 201.275 59.4736 199.213 60.0726ZM198.106 60.4353C198.465 60.3032 198.835 60.1826 199.213 60.0727C198.744 60.1908 198.375 60.3177 198.106 60.4353Z" fill="white"/>
</mask>
<g mask="url(#mask26)">
<path fill-rule="evenodd" clip-rule="evenodd" d="M222.956 67.0332C229.059 68.8628 235.227 70.6171 241.592 70.6541C243.798 70.6673 245.588 73.121 247.26 74.7263C239.113 78.0964 229.379 72.5432 222.956 67.0332Z" fill="#C8C6C5"/>
</g>
<path fill-rule="evenodd" clip-rule="evenodd" d="M245.367 74.8967C238.097 76.0057 228.132 66.6998 216.659 62.3482C206.318 58.4254 199.919 59.6423 198.106 60.4353C210.923 55.7314 235.817 65.2982 245.367 74.8967Z" stroke="#020203" stroke-width="0.774328" stroke-linecap="round" stroke-linejoin="round"/>
<path fill-rule="evenodd" clip-rule="evenodd" d="M202.944 144.116C202.027 141.278 202.372 139.011 203.392 137.04C204.309 135.269 205.763 133.736 207.332 132.239C208.347 131.271 209.412 130.322 210.411 129.333C211.094 128.658 211.749 127.966 212.335 127.237C213.248 126.102 213.995 124.883 214.471 123.541C214.501 123.465 214.462 123.38 214.386 123.351C214.31 123.323 214.225 123.361 214.196 123.436C213.668 124.714 212.869 125.845 211.944 126.914C211.344 127.608 210.691 128.275 210.012 128.929C208.744 130.15 207.392 131.328 206.156 132.55C204.832 133.859 203.647 135.226 202.849 136.761C201.758 138.861 201.382 141.277 202.358 144.303C202.41 144.464 202.584 144.553 202.746 144.501C202.907 144.45 202.997 144.277 202.944 144.116Z" fill="black"/>
<path fill-rule="evenodd" clip-rule="evenodd" d="M215.576 139.333C214.875 139.342 213.318 139.096 212.256 138.305C211.954 138.08 211.696 137.809 211.501 137.487C211.387 137.299 211.287 137.102 211.219 136.876C211.176 136.732 211.138 136.583 211.117 136.421C211.117 136.34 211.05 136.275 210.969 136.275C210.887 136.276 210.822 136.342 210.822 136.423C210.798 136.657 210.803 136.876 210.834 137.086C210.868 137.319 210.935 137.535 211.03 137.737C211.224 138.15 211.537 138.489 211.895 138.771C213.055 139.683 214.801 139.95 215.582 139.945C215.752 139.943 215.889 139.805 215.887 139.636C215.885 139.467 215.746 139.331 215.576 139.333Z" fill="black"/>
<path fill-rule="evenodd" clip-rule="evenodd" d="M246.285 133.76C244.619 133.196 242.144 132.805 239.361 131.868C237.976 131.403 236.514 130.802 235.038 129.97C234.514 129.677 234 129.301 233.525 128.868C233.219 128.587 232.93 128.283 232.667 127.959C231.999 127.136 231.501 126.187 231.371 125.163C231.363 125.082 231.291 125.022 231.21 125.03C231.129 125.037 231.069 125.109 231.077 125.19C231.142 126.293 231.59 127.354 232.259 128.27C232.522 128.631 232.821 128.966 233.142 129.273C233.639 129.75 234.192 130.154 234.749 130.475C236.255 131.334 237.749 131.96 239.165 132.442C241.945 133.387 244.421 133.774 246.087 134.34C246.247 134.395 246.422 134.309 246.477 134.149C246.532 133.989 246.446 133.815 246.285 133.76Z" fill="black"/>
<path fill-rule="evenodd" clip-rule="evenodd" d="M224.337 136.36C223.792 135.598 223.357 134.765 223.011 133.834C222.728 133.072 222.523 132.241 222.341 131.333C222.297 131.109 222.25 130.882 222.203 130.649C222.135 130.314 222.062 129.973 222.001 129.615C221.994 129.535 221.923 129.474 221.842 129.481C221.761 129.487 221.7 129.558 221.707 129.639C221.703 129.842 221.7 130.038 221.704 130.234C221.712 130.541 221.727 130.837 221.756 131.127C221.788 131.432 221.836 131.726 221.89 132.013C221.975 132.471 222.084 132.907 222.207 133.325C222.585 134.609 223.127 135.717 223.835 136.715C223.933 136.852 224.126 136.885 224.264 136.787C224.403 136.689 224.436 136.498 224.337 136.36Z" fill="black"/>
<path fill-rule="evenodd" clip-rule="evenodd" d="M176.968 130.944C176.132 128.633 174.23 128.186 172.731 128.772C172.233 128.967 171.777 129.276 171.425 129.674C171.189 129.941 170.996 130.246 170.87 130.581C170.747 130.906 170.68 131.256 170.694 131.622C170.712 132.091 170.853 132.583 171.151 133.078C171.177 133.128 171.239 133.149 171.29 133.123C171.341 133.098 171.361 133.036 171.336 132.985C171.207 132.673 171.141 132.372 171.115 132.083C171.071 131.606 171.164 131.17 171.348 130.781C171.443 130.581 171.564 130.397 171.704 130.226C172.029 129.828 172.465 129.519 172.949 129.336C174.18 128.873 175.709 129.262 176.388 131.151C176.445 131.31 176.622 131.393 176.782 131.336C176.941 131.279 177.025 131.103 176.968 130.944Z" fill="black"/>
<path fill-rule="evenodd" clip-rule="evenodd" d="M208.387 107.733C208.534 107.867 208.675 107.977 208.829 108.074C208.899 108.118 208.97 108.155 209.043 108.188C209.212 108.265 209.384 108.321 209.56 108.353C209.667 108.373 209.775 108.379 209.884 108.38C210.043 108.382 210.2 108.373 210.362 108.35C210.726 108.299 211.088 108.198 211.482 108.071C211.537 108.061 211.575 108.007 211.564 107.952C211.554 107.896 211.5 107.859 211.444 107.869C211.007 107.894 210.614 107.884 210.23 107.845C210.057 107.828 209.89 107.796 209.72 107.766C209.61 107.747 209.5 107.729 209.388 107.707C209.25 107.681 209.112 107.656 208.967 107.618C208.825 107.581 208.685 107.549 208.535 107.493C208.468 107.453 208.382 107.474 208.341 107.54C208.3 107.606 208.321 107.693 208.387 107.733Z" fill="black"/>
<path fill-rule="evenodd" clip-rule="evenodd" d="M201.703 99.2718C201.175 104.512 199.447 111.687 195.95 115.786C195.64 116.149 195.287 116.566 194.805 116.698C193.139 117.156 188.286 114.939 188.333 112.791C188.363 111.417 190.485 109.426 191.272 108.32C193.209 105.599 197.467 100.898 193.778 98.9805L201.703 99.2718Z" fill="#75151E"/>
<mask id="mask27" mask-type="alpha" maskUnits="userSpaceOnUse" x="188" y="98" width="14" height="19">
<path fill-rule="evenodd" clip-rule="evenodd" d="M191.272 108.322C190.485 109.428 188.363 111.419 188.333 112.793C188.286 114.941 193.139 117.158 194.805 116.7C195.287 116.568 195.64 116.151 195.95 115.788C199.447 111.689 201.175 104.514 201.703 99.2738L193.778 98.9824C197.467 100.9 193.209 105.601 191.272 108.322Z" fill="white"/>
</mask>
<g mask="url(#mask27)">
<path fill-rule="evenodd" clip-rule="evenodd" d="M187.753 112.442C189.807 115.539 193.946 116.129 195.833 112.72C196.773 111.021 197.12 109.086 197.544 107.195C198.376 103.491 198.007 102.319 194.208 101.388C194.224 99.9627 194.054 98.3979 194.612 97.0479C197.01 96.8848 200.64 96.482 202.643 98.0859C206.398 101.092 204.047 110.539 202.226 113.957C201.108 116.054 199.462 118.075 197.388 119.289C196.157 120.01 194.364 120.745 192.884 120.629C189.349 120.351 186.95 116.06 187.753 112.442Z" fill="#C8C6C5"/>
</g>
<mask id="mask28" mask-type="alpha" maskUnits="userSpaceOnUse" x="188" y="98" width="14" height="19">
<path fill-rule="evenodd" clip-rule="evenodd" d="M191.272 108.322C190.485 109.428 188.363 111.419 188.333 112.793C188.286 114.941 193.139 117.158 194.805 116.7C195.287 116.568 195.64 116.151 195.95 115.788C199.447 111.689 201.175 104.514 201.703 99.2738L193.778 98.9824C197.467 100.9 193.209 105.601 191.272 108.322Z" fill="white"/>
</mask>
<g mask="url(#mask28)">
<path fill-rule="evenodd" clip-rule="evenodd" d="M195.104 102.113C195.067 106.697 197.283 108.567 195.905 110.822C195.3 111.812 193.957 111.908 192.945 111.622C191.129 111.11 190.275 109.406 190.24 107.644C191.432 106.558 193.881 103.164 195.104 102.113Z" fill="#C8C6C5"/>
</g>
<path fill-rule="evenodd" clip-rule="evenodd" d="M201.703 99.2738C201.175 104.514 199.447 111.689 195.95 115.788C195.64 116.151 195.287 116.568 194.805 116.7C193.139 117.158 188.286 114.941 188.333 112.793C188.363 111.419 190.485 109.428 191.272 108.322C193.209 105.601 197.467 100.9 193.778 98.9824L201.703 99.2738Z" stroke="black" stroke-width="0.792867" stroke-linecap="round" stroke-linejoin="round"/>
<path fill-rule="evenodd" clip-rule="evenodd" d="M189.23 106.633C189.823 109.262 192.48 111.129 194.506 109.767C196.391 108.5 194.272 105.183 195.247 101.168C192.801 100.358 188.246 102.273 189.23 106.633Z" fill="#E52B31"/>
<path fill-rule="evenodd" clip-rule="evenodd" d="M188.93 106.7C189.293 108.299 190.378 109.628 191.639 110.207C192.623 110.658 193.713 110.662 194.674 110.014C195.282 109.605 195.538 109.017 195.601 108.272C195.668 107.483 195.507 106.502 195.385 105.381C195.25 104.15 195.165 102.743 195.53 101.235C195.565 101.089 195.482 100.941 195.339 100.894C193.934 100.431 191.871 100.806 190.446 101.991C189.237 102.996 188.477 104.572 188.958 106.694L188.93 106.7ZM194.904 101.37C193.671 101.076 191.996 101.444 190.811 102.426C189.744 103.31 189.083 104.701 189.503 106.572L189.531 106.566C189.79 107.721 190.473 108.722 191.322 109.326C192.245 109.983 193.371 110.168 194.338 109.519C194.789 109.217 194.959 108.773 195.007 108.222C195.073 107.463 194.914 106.52 194.798 105.444C194.668 104.228 194.59 102.848 194.904 101.37Z" fill="#020203"/>
<path fill-rule="evenodd" clip-rule="evenodd" d="M177.34 105.718C186.659 99.8893 196.912 98.4361 207.825 100.285C211.321 100.878 213.08 93.2823 209.219 92.4805C201.702 90.9202 187.381 83.6974 182.028 76.4566C179.945 73.6401 176.198 80.14 175.733 81.3997C173.648 87.0428 172.646 94.6954 173.129 100.682C173.246 102.123 174.197 107.685 177.34 105.718Z" fill="#A5D2D9"/>
<mask id="mask29" mask-type="alpha" maskUnits="userSpaceOnUse" x="173" y="75" width="39" height="32">
<path fill-rule="evenodd" clip-rule="evenodd" d="M175.733 81.3998C173.648 87.0429 172.646 94.6954 173.129 100.682C173.246 102.123 174.197 107.685 177.34 105.718C186.659 99.8894 196.912 98.4362 207.825 100.285C211.321 100.878 213.08 93.2823 209.219 92.4806C201.702 90.9202 187.381 83.6975 182.028 76.4566C181.663 75.9634 181.247 75.7559 180.807 75.7559C178.733 75.7559 176.117 80.3607 175.733 81.3998Z" fill="white"/>
</mask>
<g mask="url(#mask29)">
<path fill-rule="evenodd" clip-rule="evenodd" d="M202.916 90.4832C205.873 91.749 204.188 99.704 201.087 99.5686C204.258 100.157 206.772 102.375 209.981 102.717C213.776 103.122 213.806 93.3332 211.317 90.3412C208.62 90.1923 205.589 90.8327 202.916 90.4832Z" fill="#75151E"/>
</g>
<mask id="mask30" mask-type="alpha" maskUnits="userSpaceOnUse" x="173" y="75" width="39" height="32">
<path fill-rule="evenodd" clip-rule="evenodd" d="M175.733 81.3998C173.648 87.0429 172.646 94.6954 173.129 100.682C173.246 102.123 174.197 107.685 177.34 105.718C186.659 99.8894 196.912 98.4362 207.825 100.285C211.321 100.878 213.08 93.2823 209.219 92.4806C201.702 90.9202 187.381 83.6975 182.028 76.4566C181.663 75.9634 181.247 75.7559 180.807 75.7559C178.733 75.7559 176.117 80.3607 175.733 81.3998Z" fill="white"/>
</mask>
<g mask="url(#mask30)">
<path fill-rule="evenodd" clip-rule="evenodd" d="M202.916 90.4832C205.873 91.749 204.188 99.704 201.087 99.5686C204.258 100.157 206.772 102.375 209.981 102.717C213.776 103.122 213.806 93.3332 211.317 90.3412C208.62 90.1923 205.589 90.8327 202.916 90.4832Z" stroke="black" stroke-width="0.792867" stroke-linecap="round" stroke-linejoin="round"/>
</g>
<mask id="mask31" mask-type="alpha" maskUnits="userSpaceOnUse" x="173" y="75" width="39" height="32">
<path fill-rule="evenodd" clip-rule="evenodd" d="M175.733 81.3998C173.648 87.0429 172.646 94.6954 173.129 100.682C173.246 102.123 174.197 107.685 177.34 105.718C186.659 99.8894 196.912 98.4362 207.825 100.285C211.321 100.878 213.08 93.2823 209.219 92.4806C201.702 90.9202 187.381 83.6975 182.028 76.4566C181.663 75.9634 181.247 75.7559 180.807 75.7559C178.733 75.7559 176.117 80.3607 175.733 81.3998Z" fill="white"/>
</mask>
<g mask="url(#mask31)">
<path fill-rule="evenodd" clip-rule="evenodd" d="M176.151 98.7561C187.64 94.2634 201.682 95.1458 213.352 98.705C211.662 102.927 206.669 103.683 202.747 104.9C195.312 107.206 181.654 112.486 173.595 110.681L176.151 98.7561Z" fill="#C8C6C5"/>
</g>
<path fill-rule="evenodd" clip-rule="evenodd" d="M201.648 99.2754C201.12 104.511 199.394 111.679 195.9 115.774C195.59 116.137 195.238 116.554 194.757 116.686C193.092 117.143 188.243 114.928 188.29 112.782C188.32 111.41 190.44 109.42 191.227 108.315C193.162 105.597 197.415 100.9 193.731 98.9844L201.648 99.2754Z" fill="#75151E"/>
<mask id="mask32" mask-type="alpha" maskUnits="userSpaceOnUse" x="188" y="98" width="14" height="19">
<path fill-rule="evenodd" clip-rule="evenodd" d="M191.227 108.315C190.44 109.42 188.32 111.41 188.29 112.782C188.243 114.928 193.092 117.143 194.757 116.686C195.238 116.554 195.59 116.137 195.9 115.774C199.394 111.679 201.12 104.511 201.648 99.2754L193.731 98.9844C197.415 100.9 193.162 105.597 191.227 108.315Z" fill="white"/>
</mask>
<g mask="url(#mask32)">
<path fill-rule="evenodd" clip-rule="evenodd" d="M187.711 112.431C189.764 115.525 193.899 116.114 195.784 112.709C196.723 111.012 197.07 109.078 197.494 107.189C198.324 103.489 197.956 102.318 194.16 101.388C194.176 99.9637 194.006 98.4004 194.564 97.0516C196.959 96.8887 200.587 96.4862 202.588 98.0887C206.338 101.092 203.99 110.53 202.171 113.944C201.054 116.04 199.41 118.059 197.337 119.272C196.107 119.992 194.316 120.727 192.838 120.61C189.306 120.332 186.909 116.046 187.711 112.431Z" fill="#612322"/>
</g>
<path fill-rule="evenodd" clip-rule="evenodd" d="M201.648 99.2754C201.12 104.511 199.394 111.679 195.9 115.774C195.59 116.137 195.238 116.554 194.757 116.686C193.092 117.143 188.243 114.928 188.29 112.782C188.32 111.41 190.44 109.42 191.227 108.315C193.162 105.597 197.415 100.9 193.731 98.9844L201.648 99.2754Z" stroke="black" stroke-width="0.819128" stroke-linecap="round" stroke-linejoin="round"/>
<path fill-rule="evenodd" clip-rule="evenodd" d="M177.308 105.716C186.618 99.8921 196.861 98.4403 207.764 100.288C211.257 100.88 213.014 93.2913 209.157 92.4903C201.647 90.9314 187.34 83.7154 181.991 76.4813C179.91 73.6675 176.167 80.1613 175.702 81.4198C173.62 87.0576 172.619 94.703 173.101 100.684C173.217 102.124 174.167 107.68 177.308 105.716Z" fill="#A5D2D9"/>
<path fill-rule="evenodd" clip-rule="evenodd" d="M203.586 93.8978C203.755 93.9495 203.913 94.0276 204.082 94.0809C204.086 94.0823 204.09 94.0835 204.095 94.0849C204.111 93.6269 204.085 93.1884 204.016 92.7861C203.935 92.7614 203.853 92.7383 203.769 92.7182C203.54 92.6629 203.321 92.5682 203.099 92.4865C202.798 92.3761 202.494 92.2759 202.196 92.1609C201.803 92.0098 201.409 91.8621 201.018 91.7074C200.572 91.5308 200.125 91.3548 199.683 91.1666C199.449 91.0669 199.215 90.9686 198.981 90.8678C198.641 90.7212 198.297 90.5824 197.962 90.4244C197.627 90.2665 197.284 90.1224 196.949 89.9627C196.592 89.7925 196.232 89.6281 195.876 89.4562C195.66 89.3517 195.438 89.2572 195.23 89.1366C195.205 89.1225 195.18 89.1092 195.153 89.1004C195.045 89.0649 194.95 89.0028 194.85 88.9509C194.63 88.837 194.409 88.7264 194.189 88.6138C194.028 88.532 193.873 88.4404 193.709 88.3655C193.597 88.3143 193.493 88.2454 193.385 88.1863C193.127 88.0462 192.867 87.9097 192.611 87.7669C192.272 87.5776 191.934 87.3855 191.598 87.1913C191.227 86.9777 190.857 86.763 190.491 86.5436C190.2 86.3697 189.913 86.1891 189.625 86.0093C189.353 85.8388 189.079 85.6693 188.811 85.4926C188.312 85.1644 187.811 84.8391 187.321 84.4982C187.017 84.2865 186.711 84.0762 186.411 83.8583C186.017 83.5718 185.62 83.2884 185.236 82.9888C185.052 82.8457 184.862 82.7098 184.68 82.565C184.32 82.28 183.964 81.9908 183.607 81.7037C183.525 81.6381 183.444 81.5718 183.363 81.5059C183.449 82.752 183.463 84.108 183.407 85.5367C183.801 85.7617 184.196 85.9833 184.594 86.2016C184.897 86.3683 185.203 86.5297 185.508 86.6939C185.841 86.8733 186.176 87.0483 186.515 87.216C186.924 87.4182 187.33 87.6254 187.742 87.8211C188.272 88.0729 188.802 88.3258 189.336 88.5688C189.693 88.7312 190.049 88.895 190.407 89.0551C190.672 89.1734 190.938 89.2895 191.205 89.4016C191.883 89.6861 192.561 89.9724 193.242 90.2494C194.019 90.5651 194.8 90.8686 195.585 91.1638C196.167 91.383 196.75 91.6005 197.336 91.8116C197.848 91.9961 198.361 92.181 198.876 92.3568C199.609 92.607 200.342 92.8575 201.079 93.0981C201.913 93.3707 202.747 93.6417 203.586 93.8978Z" fill="#D3E3E9"/>
<mask id="mask33" mask-type="alpha" maskUnits="userSpaceOnUse" x="172" y="75" width="40" height="32">
<path fill-rule="evenodd" clip-rule="evenodd" d="M175.702 81.4198C173.62 87.0577 172.619 94.703 173.101 100.684C173.217 102.124 174.167 107.68 177.308 105.716C186.618 99.8922 196.861 98.4403 207.764 100.288C211.257 100.88 213.014 93.2913 209.157 92.4903C201.647 90.9314 187.34 83.7154 181.991 76.4813C181.626 75.9886 181.211 75.7813 180.771 75.7812C178.7 75.7812 176.085 80.3817 175.702 81.4198Z" fill="white"/>
</mask>
<g mask="url(#mask33)">
<path fill-rule="evenodd" clip-rule="evenodd" d="M176.12 98.7611C187.598 94.2726 201.626 95.1542 213.286 98.71C211.597 102.928 206.609 103.683 202.691 104.899C195.262 107.203 181.618 112.478 173.566 110.675L176.12 98.7611Z" fill="#98B0B2"/>
</g>
<mask id="mask34" mask-type="alpha" maskUnits="userSpaceOnUse" x="172" y="75" width="40" height="32">
<path fill-rule="evenodd" clip-rule="evenodd" d="M175.702 81.4198C173.62 87.0577 172.619 94.703 173.101 100.684C173.217 102.124 174.167 107.68 177.308 105.716C186.618 99.8922 196.861 98.4403 207.764 100.288C211.257 100.88 213.014 93.2913 209.157 92.4903C201.647 90.9314 187.34 83.7154 181.991 76.4813C181.626 75.9886 181.211 75.7813 180.771 75.7812C178.7 75.7812 176.085 80.3817 175.702 81.4198Z" fill="white"/>
</mask>
<g mask="url(#mask34)">
<path fill-rule="evenodd" clip-rule="evenodd" d="M202.86 90.4947C205.814 91.7594 204.131 99.7069 201.032 99.5717C204.2 100.159 206.712 102.376 209.919 102.718C213.71 103.122 213.74 93.342 211.253 90.3529C208.558 90.2041 205.53 90.8439 202.86 90.4947Z" fill="#75151E"/>
</g>
<mask id="mask35" mask-type="alpha" maskUnits="userSpaceOnUse" x="172" y="75" width="40" height="32">
<path fill-rule="evenodd" clip-rule="evenodd" d="M175.702 81.4199C173.62 87.0577 172.619 94.703 173.101 100.684C173.217 102.124 174.167 107.68 177.308 105.716C186.618 99.8922 196.861 98.4403 207.764 100.288C211.257 100.88 213.014 93.2913 209.157 92.4903C201.647 90.9314 187.34 83.7154 181.991 76.4813C181.626 75.9886 181.211 75.7813 180.771 75.7812C178.7 75.7812 176.085 80.3817 175.702 81.4199Z" fill="white"/>
</mask>
<g mask="url(#mask35)">
<path fill-rule="evenodd" clip-rule="evenodd" d="M202.86 90.4947C205.814 91.7594 204.131 99.7069 201.032 99.5717C204.2 100.159 206.712 102.376 209.919 102.718C213.71 103.122 213.74 93.342 211.253 90.3529C208.558 90.2041 205.53 90.8439 202.86 90.4947Z" stroke="black" stroke-width="0.819128" stroke-linecap="round" stroke-linejoin="round"/>
</g>
<path fill-rule="evenodd" clip-rule="evenodd" d="M177.308 105.716C186.618 99.8921 196.861 98.4403 207.764 100.288C211.257 100.88 213.014 93.2912 209.157 92.4903C201.647 90.9314 187.34 83.7154 181.991 76.4813C179.91 73.6675 176.167 80.1613 175.702 81.4198C173.62 87.0576 172.619 94.703 173.101 100.684C173.217 102.124 174.167 107.68 177.308 105.716Z" stroke="black" stroke-width="0.819128" stroke-linecap="round" stroke-linejoin="round"/>
<path fill-rule="evenodd" clip-rule="evenodd" d="M180.459 75.0148C182.922 75.3887 183.844 82.728 182.516 91.3937C181.188 100.06 178.109 106.792 175.646 106.418C173.183 106.045 172.261 98.7057 173.589 90.0396C174.917 81.3735 177.996 74.641 180.459 75.0148Z" fill="#A5D2D9"/>
<mask id="mask36" mask-type="alpha" maskUnits="userSpaceOnUse" x="172" y="75" width="12" height="32">
<path fill-rule="evenodd" clip-rule="evenodd" d="M173.589 90.0396C172.261 98.7057 173.183 106.045 175.646 106.418C178.109 106.792 181.188 100.06 182.516 91.3937C183.844 82.7281 182.922 75.3887 180.459 75.0148C180.393 75.0049 180.328 75 180.261 75C177.833 75.0007 174.882 81.6042 173.589 90.0396Z" fill="white"/>
</mask>
<g mask="url(#mask36)">
<path fill-rule="evenodd" clip-rule="evenodd" d="M189.314 99.841C186.704 95.9377 182.492 94.3502 177.761 93.3454C176.74 93.1287 177.193 89.1391 178.389 89.2395C181.676 89.5147 189.38 88.8872 192.816 86.5899C194.152 85.6965 194.442 89.0475 194.395 89.6574C194.186 92.3907 193.181 95.8223 191.896 98.316C191.587 98.9162 190.195 101.157 189.314 99.841Z" fill="#A5D2D9"/>
</g>
<mask id="mask37" mask-type="alpha" maskUnits="userSpaceOnUse" x="177" y="89" width="6" height="6">
<path fill-rule="evenodd" clip-rule="evenodd" d="M178.389 89.2403C177.193 89.1398 176.74 93.1294 177.761 93.3461C179.218 93.6554 180.625 94.02 181.951 94.4904C182.163 93.494 182.352 92.4586 182.515 91.3944C182.63 90.6476 182.728 89.911 182.809 89.1875C181.061 89.3235 179.481 89.3317 178.389 89.2403Z" fill="white"/>
</mask>
<g mask="url(#mask37)">
<path fill-rule="evenodd" clip-rule="evenodd" d="M177.135 91.3398C179.555 91.5746 181.92 92.1131 184.318 92.4874C186.951 92.8982 189.603 93.2025 192.228 93.6614C191.673 95.0185 190.845 96.2704 190.38 97.662C188.12 96.9966 185.747 96.6553 183.438 96.2009C180.929 95.7072 178.448 95.0665 175.964 94.4633L177.135 91.3398Z" fill="#98B0B2"/>
</g>
<mask id="mask38" mask-type="alpha" maskUnits="userSpaceOnUse" x="177" y="89" width="6" height="6">
<path fill-rule="evenodd" clip-rule="evenodd" d="M178.389 89.2403C177.193 89.1398 176.74 93.1294 177.761 93.3461C179.218 93.6554 180.625 94.02 181.951 94.4904C182.163 93.494 182.352 92.4586 182.515 91.3944C182.63 90.6476 182.728 89.911 182.809 89.1875C181.061 89.3235 179.481 89.3317 178.389 89.2403Z" fill="white"/>
</mask>
<g mask="url(#mask38)">
<path fill-rule="evenodd" clip-rule="evenodd" d="M178.389 89.2444C178.86 89.3157 179.102 90.292 178.929 91.4228C178.756 92.5536 178.232 93.4136 177.761 93.3423C177.29 93.2709 177.048 92.2947 177.221 91.1639C177.395 90.033 177.918 89.173 178.389 89.2444Z" fill="#A5D2D9"/>
</g>
<mask id="mask39" mask-type="alpha" maskUnits="userSpaceOnUse" x="177" y="89" width="6" height="6">
<path fill-rule="evenodd" clip-rule="evenodd" d="M178.389 89.2403C177.193 89.1398 176.74 93.1294 177.761 93.3461C179.218 93.6554 180.625 94.02 181.951 94.4904C182.163 93.494 182.352 92.4586 182.515 91.3944C182.63 90.6476 182.728 89.911 182.809 89.1875C181.061 89.3235 179.481 89.3317 178.389 89.2403Z" fill="white"/>
</mask>
<g mask="url(#mask39)">
<path fill-rule="evenodd" clip-rule="evenodd" d="M178.389 89.2444C178.86 89.3157 179.102 90.292 178.929 91.4228C178.756 92.5536 178.232 93.4136 177.761 93.3423C177.29 93.2709 177.048 92.2947 177.221 91.1639C177.395 90.033 177.918 89.173 178.389 89.2444Z" stroke="black" stroke-width="0.819128" stroke-linecap="round" stroke-linejoin="round"/>
</g>
<mask id="mask40" mask-type="alpha" maskUnits="userSpaceOnUse" x="172" y="75" width="12" height="32">
<path fill-rule="evenodd" clip-rule="evenodd" d="M173.589 90.0396C172.261 98.7057 173.183 106.045 175.646 106.418C178.109 106.792 181.188 100.06 182.516 91.3937C183.844 82.7281 182.922 75.3887 180.459 75.0148C180.393 75.0049 180.328 75 180.261 75C177.833 75.0007 174.882 81.6042 173.589 90.0396Z" fill="white"/>
</mask>
<g mask="url(#mask40)">
<path fill-rule="evenodd" clip-rule="evenodd" d="M189.314 99.841C186.704 95.9377 182.492 94.3502 177.761 93.3454C176.74 93.1287 177.193 89.1391 178.389 89.2395C181.676 89.5147 189.38 88.8873 192.816 86.5899C194.152 85.6965 194.442 89.0475 194.395 89.6574C194.186 92.3907 193.181 95.8223 191.896 98.316C191.587 98.9162 190.195 101.157 189.314 99.841Z" stroke="black" stroke-width="0.819128" stroke-linecap="round" stroke-linejoin="round"/>
</g>
<mask id="mask41" mask-type="alpha" maskUnits="userSpaceOnUse" x="172" y="75" width="12" height="32">
<path fill-rule="evenodd" clip-rule="evenodd" d="M175.646 106.418C178.109 106.792 181.188 100.06 182.516 91.3937C183.844 82.7281 182.922 75.3887 180.459 75.0148C180.393 75.0049 180.328 75 180.261 75C177.833 75.0007 174.882 81.6042 173.589 90.0396C172.261 98.7057 173.183 106.045 175.646 106.418Z" fill="white"/>
</mask>
<g mask="url(#mask41)">
<path fill-rule="evenodd" clip-rule="evenodd" d="M172.671 83.359C178.892 84.6884 184.993 86.6836 190.108 90.5785C191.254 84.9478 190.366 75.8154 185.367 72.2093C183.897 71.149 181.953 70.6655 180.155 70.8931C174.358 71.6267 172.042 78.2426 172.671 83.359Z" fill="#98B0B2"/>
</g>
<path fill-rule="evenodd" clip-rule="evenodd" d="M180.459 75.0148C182.922 75.3887 183.844 82.728 182.516 91.3937C181.188 100.06 178.109 106.792 175.646 106.418C173.183 106.045 172.261 98.7057 173.589 90.0396C174.917 81.3735 177.996 74.641 180.459 75.0148Z" stroke="black" stroke-width="0.819128" stroke-linecap="round" stroke-linejoin="round"/>
<path fill-rule="evenodd" clip-rule="evenodd" d="M151.738 72.3828L169.053 82.2089L150.75 74.3529L151.738 72.3828Z" fill="#1D1D1B"/>
<path fill-rule="evenodd" clip-rule="evenodd" d="M143 89.9923L168.484 90.0998L143.105 87.793L143 89.9923Z" fill="#1D1D1B"/>
<path fill-rule="evenodd" clip-rule="evenodd" d="M151.008 101.843L166.023 99.7363L151.475 103.995L151.008 101.843Z" fill="#1D1D1B"/>
<path fill-rule="evenodd" clip-rule="evenodd" d="M204.692 93.1504C204.692 93.1504 204.715 94.1726 204.692 94.3933L210.985 96.252C210.985 96.252 211.125 96.0661 210.985 94.9625L204.692 93.1504Z" fill="#9B2331"/>
<path fill-rule="evenodd" clip-rule="evenodd" d="M177.34 105.718C186.659 99.8893 196.912 98.4361 207.825 100.285C211.322 100.878 213.08 93.2823 209.219 92.4805C201.702 90.9202 187.381 83.6974 182.028 76.4566C179.945 73.6401 176.198 80.14 175.733 81.3997C173.649 87.0428 172.647 94.6954 173.129 100.682C173.246 102.123 174.197 107.685 177.34 105.718Z" stroke="black" stroke-width="0.792867" stroke-linecap="round" stroke-linejoin="round"/>
<path fill-rule="evenodd" clip-rule="evenodd" d="M180.494 74.9895C182.959 75.3637 183.882 82.7099 182.553 91.3837C181.223 100.058 178.142 106.797 175.677 106.423C173.211 106.048 172.289 98.7026 173.618 90.0283C174.947 81.3541 178.028 74.6153 180.494 74.9895Z" fill="#A5D2D9"/>
<mask id="mask42" mask-type="alpha" maskUnits="userSpaceOnUse" x="173" y="74" width="11" height="33">
<path fill-rule="evenodd" clip-rule="evenodd" d="M173.618 90.0283C172.289 98.7026 173.211 106.048 175.677 106.423C178.142 106.797 181.223 100.058 182.553 91.3837C183.882 82.7099 182.959 75.3637 180.494 74.9895C180.428 74.9795 180.363 74.9746 180.296 74.9746C177.866 74.9753 174.912 81.5849 173.618 90.0283Z" fill="white"/>
</mask>
<g mask="url(#mask42)">
<path fill-rule="evenodd" clip-rule="evenodd" d="M189.358 99.8379C186.745 95.931 182.529 94.342 177.794 93.3362C176.772 93.1194 177.225 89.126 178.422 89.2265C181.712 89.502 189.424 88.8739 192.863 86.5745C194.201 85.6801 194.49 89.0344 194.444 89.6448C194.234 92.3806 193.229 95.8155 191.942 98.3116C191.633 98.9123 190.24 101.155 189.358 99.8379Z" fill="#A5D2D9"/>
</g>
<mask id="mask43" mask-type="alpha" maskUnits="userSpaceOnUse" x="177" y="89" width="6" height="6">
<path fill-rule="evenodd" clip-rule="evenodd" d="M178.422 89.2266C177.225 89.1261 176.772 93.1194 177.794 93.3363C179.252 93.6459 180.66 94.0108 181.988 94.4816C182.2 93.4844 182.389 92.448 182.553 91.3828C182.667 90.6353 182.765 89.898 182.847 89.1738C181.097 89.3098 179.515 89.3181 178.422 89.2266Z" fill="white"/>
</mask>
<g mask="url(#mask43)">
<path fill-rule="evenodd" clip-rule="evenodd" d="M177.168 91.3281C179.589 91.5631 181.957 92.1021 184.358 92.4768C186.993 92.888 189.647 93.1926 192.274 93.6518C191.719 95.0103 190.89 96.2634 190.424 97.6562C188.162 96.9902 185.787 96.6486 183.476 96.1937C180.965 95.6996 178.481 95.0583 175.995 94.4545L177.168 91.3281Z" fill="#C8C6C5"/>
</g>
<mask id="mask44" mask-type="alpha" maskUnits="userSpaceOnUse" x="177" y="89" width="6" height="6">
<path fill-rule="evenodd" clip-rule="evenodd" d="M178.422 89.2266C177.225 89.1261 176.772 93.1194 177.794 93.3363C179.252 93.6459 180.66 94.0108 181.988 94.4816C182.2 93.4844 182.389 92.448 182.553 91.3828C182.667 90.6353 182.765 89.898 182.847 89.1738C181.097 89.3098 179.515 89.3181 178.422 89.2266Z" fill="white"/>
</mask>
<g mask="url(#mask44)">
<path fill-rule="evenodd" clip-rule="evenodd" d="M178.422 89.2327C178.893 89.3041 179.136 90.2812 178.962 91.4131C178.789 92.545 178.265 93.4058 177.794 93.3344C177.322 93.263 177.08 92.2858 177.253 91.1539C177.427 90.0221 177.95 89.1613 178.422 89.2327Z" fill="#A5D2D9"/>
</g>
<mask id="mask45" mask-type="alpha" maskUnits="userSpaceOnUse" x="177" y="89" width="6" height="6">
<path fill-rule="evenodd" clip-rule="evenodd" d="M178.422 89.2266C177.225 89.1261 176.772 93.1194 177.794 93.3363C179.252 93.6459 180.66 94.0108 181.988 94.4816C182.2 93.4844 182.389 92.448 182.553 91.3828C182.667 90.6353 182.765 89.898 182.847 89.1738C181.097 89.3098 179.515 89.3181 178.422 89.2266Z" fill="white"/>
</mask>
<g mask="url(#mask45)">
<path fill-rule="evenodd" clip-rule="evenodd" d="M178.422 89.2327C178.893 89.3041 179.136 90.2812 178.962 91.4131C178.789 92.545 178.265 93.4058 177.794 93.3344C177.322 93.263 177.08 92.2858 177.253 91.1539C177.427 90.0221 177.95 89.1613 178.422 89.2327Z" stroke="black" stroke-width="0.792867" stroke-linecap="round" stroke-linejoin="round"/>
</g>
<mask id="mask46" mask-type="alpha" maskUnits="userSpaceOnUse" x="173" y="74" width="11" height="33">
<path fill-rule="evenodd" clip-rule="evenodd" d="M173.618 90.0283C172.289 98.7026 173.211 106.048 175.677 106.423C178.142 106.797 181.223 100.058 182.553 91.3837C183.882 82.7099 182.959 75.3637 180.494 74.9895C180.428 74.9795 180.363 74.9746 180.296 74.9746C177.866 74.9753 174.912 81.5849 173.618 90.0283Z" fill="white"/>
</mask>
<g mask="url(#mask46)">
<path fill-rule="evenodd" clip-rule="evenodd" d="M189.358 99.8379C186.745 95.931 182.529 94.342 177.794 93.3362C176.772 93.1194 177.225 89.126 178.422 89.2265C181.712 89.502 189.424 88.8739 192.863 86.5745C194.201 85.6801 194.49 89.0344 194.444 89.6448C194.234 92.3806 193.229 95.8155 191.942 98.3116C191.633 98.9123 190.24 101.155 189.358 99.8379Z" stroke="black" stroke-width="0.792867" stroke-linecap="round" stroke-linejoin="round"/>
</g>
<mask id="mask47" mask-type="alpha" maskUnits="userSpaceOnUse" x="173" y="74" width="11" height="33">
<path fill-rule="evenodd" clip-rule="evenodd" d="M173.618 90.0283C172.289 98.7026 173.211 106.048 175.677 106.423C178.142 106.797 181.223 100.058 182.553 91.3837C183.882 82.7099 182.959 75.3637 180.494 74.9895C180.428 74.9795 180.363 74.9746 180.296 74.9746C177.866 74.9753 174.912 81.5849 173.618 90.0283Z" fill="white"/>
</mask>
<g mask="url(#mask47)">
<path fill-rule="evenodd" clip-rule="evenodd" d="M172.699 83.3415C178.925 84.6721 185.032 86.6692 190.153 90.5678C191.3 84.9317 190.411 75.7907 185.407 72.1813C183.935 71.12 181.989 70.636 180.19 70.8639C174.387 71.5982 172.069 78.2202 172.699 83.3415Z" fill="#C8C6C5"/>
</g>
<path fill-rule="evenodd" clip-rule="evenodd" d="M180.494 74.9895C182.959 75.3637 183.882 82.7099 182.553 91.3837C181.223 100.058 178.142 106.797 175.677 106.423C173.211 106.048 172.289 98.7026 173.618 90.0283C174.947 81.3541 178.028 74.6153 180.494 74.9895Z" stroke="black" stroke-width="0.792867" stroke-linecap="round" stroke-linejoin="round"/>
<path fill-rule="evenodd" clip-rule="evenodd" d="M151.747 72.3555L169.078 82.1908L150.758 74.3274L151.747 72.3555Z" fill="#1D1D1B"/>
<path fill-rule="evenodd" clip-rule="evenodd" d="M143.106 87.7793L168.508 90.0883L143 89.9806L143.106 87.7793Z" fill="#1D1D1B"/>
<path fill-rule="evenodd" clip-rule="evenodd" d="M151.015 101.841L166.044 99.7324L151.483 103.995L151.015 101.841Z" fill="#1D1D1B"/>
<path fill-rule="evenodd" clip-rule="evenodd" d="M204.75 93.1426C204.75 93.1426 204.773 94.1658 204.75 94.3867L211.048 96.2471C211.048 96.2471 211.189 96.061 211.048 94.9564L204.75 93.1426Z" fill="#9B2331"/>
<path opacity="0.5" d="M219.171 174.58C261.575 174.58 295.95 140.955 295.95 99.4775C295.95 57.9995 261.575 24.375 219.171 24.375C176.767 24.375 142.392 57.9995 142.392 99.4775C142.392 140.955 176.767 174.58 219.171 174.58Z" stroke="#FFAB00" stroke-width="4" stroke-miterlimit="10"/>
<path d="M10.8534 157.129L134.582 127.697C139.119 126.617 141.909 122.142 140.806 117.704L140.409 116.091C139.305 111.653 134.731 108.924 130.193 110.003L6.46467 139.436C1.92713 140.515 -0.862339 144.99 0.241051 149.428L0.637776 151.041C1.74117 155.48 6.3159 158.208 10.8534 157.129Z" fill="#FFAB00"/>
<path opacity="0.4" d="M284 51.4187H153.5L187.5 23.6721L249.5 23.6719" fill="#D5D6D7"/>
<path d="M218.526 180.826C264.141 180.826 301.119 144.655 301.119 100.036C301.119 55.417 264.141 19.2461 218.526 19.2461C172.911 19.2461 135.933 55.417 135.933 100.036C135.933 144.655 172.911 180.826 218.526 180.826Z" stroke="#FFAB00" stroke-width="9" stroke-miterlimit="10"/>
<path opacity="0.5" d="M11.6717 156.935C11.6717 156.935 10.9403 150.083 13.9901 147.015C17.0399 143.947 105.088 123.004 109.551 124.289C114.014 125.575 118.849 131.202 118.849 131.202L11.6717 156.935Z" fill="white"/>
<path d="M133.355 88.6719C120.263 91.7885 112.96 107.675 117.064 124.168C121.168 140.66 135.103 151.502 148.207 148.385" fill="#FFAB00"/>
<path opacity="0.3" fill-rule="evenodd" clip-rule="evenodd" d="M96.7195 193.668C96.7195 193.668 78.9537 193.644 78.9909 194.335C79.1025 196.676 93.0622 195.306 94.2152 196.009C94.7731 196.348 94.1532 197.1 95.145 197.585C99.0875 199.514 112.824 197.767 117.721 197.779C131.073 197.816 134.458 198.689 136.008 198.798C140.359 199.113 152.67 198.992 156.129 198.931C163.258 198.81 182.424 199.32 182.015 197.343C181.829 196.458 163.431 194.59 160.295 194.347C157.617 194.141 155.77 192.917 153.364 192.189C149.992 191.182 146.298 190.564 142.665 190.188C127.453 188.587 111.845 192.359 96.7195 193.668Z" fill="#333739"/>
<path d="M181.259 74.3984V75.9386L180.788 79.2614V77.5029L181.73 76.2417L180.788 74.641L181.259 74.3984Z" fill="white"/>
<path d="M135.667 29.2264V24.7637C135.667 24.7637 138.767 24.3271 139.473 23.6359C140.056 23.0659 141.098 20.5193 141.482 19.5612C141.569 19.3429 141.618 19.2095 141.618 19.2095L142.089 13.619V9.96878C142.089 9.96878 141.618 8.48928 141.135 7.5555C140.664 6.62172 140.18 5.68794 139.226 4.75417C138.271 3.82039 136.845 3.35956 136.845 3.35956C136.845 3.35956 134.936 2.42578 133.51 2.42578C132.085 2.42578 132.084 2.42578 130.646 2.88661C129.221 3.34743 127.783 4.28121 127.783 4.28121C127.783 4.28121 126.828 4.74204 126.357 5.21499C125.886 5.67582 124.931 7.08255 124.448 8.01633C123.976 8.95011 123.976 9.88389 123.976 10.3447C123.976 10.8055 123.976 12.7216 123.976 13.4007C123.976 14.0798 124.931 16.4082 125.402 17.342C125.873 18.2758 125.985 18.9064 126.357 19.6704C126.803 20.6163 127.311 21.5379 127.311 21.5379C127.311 21.5379 127.783 22.4717 127.783 22.9325C127.783 23.3934 127.783 26.6555 127.783 26.6555V28.5231V29.9177H135.705L135.667 29.2264Z" fill="#FFDDC5"/>
<path d="M133.578 21.7801L127.379 21.9014L124.999 15.8379C124.999 15.8379 122.854 10.9386 122.618 9.77436C122.383 8.61017 122.383 7.90681 122.618 6.39093C122.854 4.87505 123.573 4.17169 123.573 4.17169C123.573 4.17169 124.763 3.0075 126.437 2.30413C128.11 1.60076 128.11 1.60076 128.817 1.37035C129.524 1.13994 132.152 0.909525 132.152 0.909525H135.586H138.152L139.529 0.679112L140.248 0.448699L140.719 0L141.19 0.460826L141.661 1.39461L142.132 2.32838C142.132 2.32838 142.603 3.29854 142.603 3.28642C142.603 3.26216 142.603 4.87505 142.603 4.87505C142.603 4.87505 142.368 5.37226 142.132 6.0635C141.897 6.76687 140.942 6.76687 140.706 6.99728C140.471 7.22769 139.281 7.45811 139.281 7.45811L137.855 7.91893H137.384V8.85271L138.103 9.55608L138.599 10.1988L139.057 10.9507L138.822 12.5878V13.0487C138.822 13.0487 136.714 10.9507 136.218 10.9507C135.722 10.9507 135.251 11.4115 135.003 11.654C134.755 11.8966 134.284 12.8182 134.532 13.5216C134.768 14.225 135.586 15.6196 135.586 15.6196L135.958 16.3229L133.578 21.9135" fill="#333739"/>
<path d="M140.347 29.8331L126.028 29.6027V27.7715C126.028 27.7715 137.198 27.7715 137.247 27.7715C137.297 27.7715 139.963 28.6931 140.508 29.8331" fill="#FF6666"/>
<path d="M118.174 67.9121L147.532 68.8772V105.745C147.532 105.745 140.727 184.018 142.573 186.757H131.415C131.55 124.626 130.463 117.822 130.463 117.822L130.426 115.759L130.402 114.552L129.937 88.0714L130.402 104.057L117.441 186.757H106.62C112.807 147.005 118.174 67.9121 118.174 67.9121Z" fill="#333739"/>
<path d="M128.966 39.2671C128.966 39.2671 138.165 40.9043 139.566 40.7223C140.967 40.5526 142.157 40.3949 143.186 40.2736C144.227 40.1402 163.245 33.6159 163.245 33.6159L165.712 33.3127L167.324 32.1849L170.87 30.3538L169.171 24.5449L165.564 25.9153L162.948 29.2381C162.948 29.2381 143.335 33.3127 141.475 33.5432C139.615 33.7736 131.284 31.5665 131.284 31.5665L128.966 39.2671Z" fill="#FFDDC5"/>
<path d="M180.019 71.6101C180.49 72.0709 185.189 73.9021 185.189 73.9021L183.317 78.9591L180.032 78.3527C180.032 78.3527 174.862 77.1158 175.804 77.5766C176.746 78.0374 173.932 76.1941 173.932 76.1941C173.932 76.1941 159.377 68.8452 157.505 67.4627C155.633 66.0802 149.521 54.1472 149.521 54.1472L156.563 50.9336C156.563 50.9336 164.547 64.7099 164.076 64.249C163.605 63.7882 174.874 71.598 176.288 71.598C177.701 71.598 179.548 71.1493 180.019 71.6101Z" fill="#FFDDC5"/>
<path d="M114.361 93.4139C134.842 97.4522 149.571 94.3356 149.571 94.3356C150.513 79.6377 148.876 55.7717 148.876 55.7717L149.112 56.463L158.038 51.8668L153.575 38.9516C153.575 38.9516 151.926 34.8648 150.996 33.4944C150.054 32.1119 147.24 30.7416 145.827 30.2808C144.413 29.8199 139.727 29.8199 139.727 29.8199C139.727 29.8199 130.664 29.8199 126.164 29.541" fill="#FF6666"/>
<path d="M149.31 56.584L145.083 50.1445L147.438 54.2798L149.31 56.584Z" fill="#FF6666"/>
<path d="M113.766 93.8141H124.924L126.164 29.541L123.598 30.0503C121.44 30.4748 119.816 32.2696 119.606 34.4525L113.766 93.8141Z" fill="#FF6666"/>
<path d="M111.197 194.31L107.767 194.271C107.755 194.271 107.742 194.271 107.742 194.26L107.579 186.971C107.578 186.961 107.59 186.95 107.602 186.95L115.197 187.013C115.209 187.013 115.209 187.013 115.209 187.013C115.317 187.141 119.106 191.536 126.225 192.855C127.246 193.043 127.991 193.675 128.006 194.406C128.007 194.416 127.995 194.427 127.983 194.426L113.728 194.331" fill="#333739"/>
<path d="M107.625 186.753L115.175 186.815L117.091 188.729C117.091 188.729 115.181 190.155 112.741 190.135C110.302 190.115 107.66 189.132 107.66 189.132L107.602 186.776L107.625 186.753Z" fill="#FFDDC5"/>
<path d="M136.63 194.314L133.201 194.275C133.188 194.275 133.176 194.275 133.175 194.264L133.013 186.975C133.012 186.965 133.023 186.954 133.036 186.954L140.631 187.017C140.643 187.017 140.643 187.017 140.643 187.017C140.75 187.145 144.539 191.54 151.659 192.859C152.679 193.047 153.424 193.678 153.44 194.409C153.44 194.42 153.429 194.431 153.417 194.43L139.162 194.335" fill="#333739"/>
<path d="M133.058 186.757L140.608 186.819L142.525 188.733C142.525 188.733 140.615 190.159 138.175 190.139C135.736 190.119 133.094 189.136 133.094 189.136L133.036 186.78L133.058 186.757Z" fill="#FFDDC5"/>
</svg>
