<svg width="138" height="109" viewBox="0 0 138 109" fill="none" xmlns="http://www.w3.org/2000/svg">
<path fill-rule="evenodd" clip-rule="evenodd" d="M52.4333 90.7515C49.08 91.0835 22.7242 91.223 22.7071 92.9326C22.6755 96.0718 40.4658 96.2838 42.8954 96.7081C52.6079 98.4042 39.974 99.8971 39.5885 102.163C39.2679 104.045 54.2587 103.668 57.8928 104.394C61.2329 105.062 65.365 106.49 68.7929 107.002C74.1855 107.808 80.2985 107.524 85.7276 107.662C98.4682 107.984 108.467 108.138 121.265 107.509C132.465 106.958 144.733 104.957 127.928 100.874C126.033 100.414 117.869 98.1115 120.142 95.0707C123.33 90.8038 135.196 94.9117 136.556 92.4938C138.44 89.1442 126.788 86.9986 125.247 86.8476C111.481 85.4969 98.1244 89.4336 84.304 89.1447C70.4129 88.8543 66.3192 91.1616 52.4333 90.7515Z" fill="#C8C6C5"/>
<path fill-rule="evenodd" clip-rule="evenodd" d="M70.7469 71.5605C69.7704 74.278 67.7336 76.5792 65.341 78.1566C53.575 85.9132 38.6373 74.1207 29.1237 81.3892C20.8079 87.7427 29.7205 98.3118 35.6286 92.4373C36.9893 91.0844 37.1444 89.0894 36.6924 87.3348C40.2862 86.8102 43.4243 88.2548 46.771 89.3054C54.3499 91.6849 63.6925 93.6289 69.3194 86.3847C72.1511 82.7391 71.7912 75.8774 70.7469 71.5605Z" fill="#E52B31"/>
<mask id="mask0_651_72194" style="mask-type:alpha" maskUnits="userSpaceOnUse" x="25" y="71" width="47" height="24">
<path fill-rule="evenodd" clip-rule="evenodd" d="M65.341 78.1585C59.3836 82.0859 52.6131 81.0016 46.1453 79.9173C39.8389 78.8601 33.8203 77.8029 29.1237 81.3911C20.8079 87.7447 29.7205 98.3137 35.6286 92.4393C36.9893 91.0863 37.1444 89.0913 36.6924 87.3368C40.2862 86.8121 43.4243 88.2567 46.771 89.3073C54.3499 91.6869 63.6925 93.6308 69.3194 86.3866C72.1511 82.7411 71.7912 75.8793 70.7469 71.5625C69.7704 74.28 67.7336 76.5811 65.341 78.1585Z" fill="white"/>
</mask>
<g mask="url(#mask0_651_72194)">
<path fill-rule="evenodd" clip-rule="evenodd" d="M67.5317 79.4805C63.9806 84.4883 58.1436 87.2737 51.9504 85.9022C47.0752 84.8226 42.6918 82.6588 37.615 82.5313C32.3192 82.3984 26.7314 86.1095 29.118 91.8906C31.1603 96.8376 40.2897 96.4089 44.4408 96.4199C54.6313 96.4472 64.2234 95.1833 69.672 85.3654C71.6766 81.7532 72.195 78.1567 71.1251 74.1836L67.5317 79.4805Z" fill="#BA1918"/>
</g>
<mask id="mask1_651_72194" style="mask-type:alpha" maskUnits="userSpaceOnUse" x="25" y="71" width="47" height="24">
<path fill-rule="evenodd" clip-rule="evenodd" d="M65.341 78.1585C59.3836 82.0859 52.6131 81.0016 46.1453 79.9173C39.8389 78.8601 33.8203 77.8029 29.1237 81.3911C20.8079 87.7447 29.7205 98.3137 35.6286 92.4393C36.9893 91.0863 37.1444 89.0913 36.6924 87.3368C40.2862 86.8121 43.4243 88.2567 46.771 89.3073C54.3499 91.6869 63.6925 93.6308 69.3194 86.3866C72.1511 82.7411 71.7912 75.8793 70.7469 71.5625C69.7704 74.28 67.7336 76.5811 65.341 78.1585Z" fill="white"/>
</mask>
<g mask="url(#mask1_651_72194)">
<path fill-rule="evenodd" clip-rule="evenodd" d="M68.7946 75.457C64.5634 83.0209 55.2298 83.6214 47.5323 82.2557C43.8617 81.6045 40.0634 80.357 36.3037 80.5844C29.1686 81.0162 24.1854 85.7378 26.6709 92.9324C22.8831 85.9434 25.7248 79.1737 33.5736 77.5983C35.3671 77.2382 37.1525 77.3613 38.9684 77.3292C44.3914 77.2337 49.7247 78.0127 55.1354 77.9957C59.6748 77.9815 64.5875 77.0926 68.7946 75.457Z" fill="#F090AD"/>
</g>
<path fill-rule="evenodd" clip-rule="evenodd" d="M70.7469 71.5605C69.7704 74.278 67.7336 76.5792 65.341 78.1566C53.575 85.9132 38.6373 74.1207 29.1237 81.3892C20.8079 87.7427 29.7205 98.3118 35.6286 92.4373C36.9893 91.0844 37.1444 89.0894 36.6924 87.3348C40.2862 86.8102 43.4243 88.2548 46.771 89.3054C54.3499 91.6849 63.6925 93.6289 69.3194 86.3847C72.1511 82.7391 71.7912 75.8774 70.7469 71.5605Z" stroke="black" stroke-width="0.792867" stroke-linecap="round" stroke-linejoin="round"/>
<path fill-rule="evenodd" clip-rule="evenodd" d="M95.8612 69.6636C97.9378 76.5547 111.114 78.5995 115.117 62.987C116.255 58.5483 117.511 52.56 120.186 48.7386C122.015 46.1248 124.649 43.8378 127.812 43.0029C128.58 42.8 130.452 42.3454 131.095 43.1344C131.831 44.0374 130.017 45.1735 129.422 45.6735C125.239 49.1932 123.275 56.2017 123.449 68.3429C123.658 82.9485 103.812 88.8011 96.2363 82.0182C92.825 78.964 91.8107 72.3852 95.8612 69.6636Z" fill="#E52B31"/>
<mask id="mask2_651_72194" style="mask-type:alpha" maskUnits="userSpaceOnUse" x="93" y="42" width="39" height="43">
<path fill-rule="evenodd" clip-rule="evenodd" d="M127.812 43.0029C124.649 43.8378 122.015 46.1248 120.186 48.7386C117.511 52.56 116.255 58.5483 115.117 62.9871C111.114 78.5995 97.9379 76.5547 95.8612 69.6636C91.8107 72.3852 92.825 78.964 96.2363 82.0182C103.812 88.8011 123.658 82.9486 123.449 68.3429C123.275 56.2017 125.239 49.1932 129.422 45.6735C130.017 45.1735 131.831 44.0374 131.095 43.1344C130.821 42.7978 130.323 42.6875 129.782 42.6875C129.056 42.6875 128.253 42.8866 127.812 43.0029Z" fill="white"/>
</mask>
<g mask="url(#mask2_651_72194)">
<path fill-rule="evenodd" clip-rule="evenodd" d="M103.406 73.0367C103.579 79.2538 111.333 81.2731 115.674 75.5627C118.971 71.2248 118.051 65.7674 118.757 60.7328C119.546 55.0978 122.615 49.3176 126.945 45.518C127.794 44.772 128.778 44.1656 129.581 43.37C131.092 41.8724 131.552 39.9653 134.207 40.2831C135.165 40.3981 136.04 40.8999 136.65 41.6298C139.739 45.3221 136.143 54.5117 134.966 58.6188C132.056 68.7778 129.598 81.2202 121.165 88.5405C113.499 95.1951 92.4637 92.4192 88.4297 82.682C92.8226 68.5227 97.9539 67.8497 103.406 73.0367Z" fill="#BA1918"/>
</g>
<mask id="mask3_651_72194" style="mask-type:alpha" maskUnits="userSpaceOnUse" x="93" y="42" width="39" height="43">
<path fill-rule="evenodd" clip-rule="evenodd" d="M127.812 43.0029C124.649 43.8378 122.015 46.1248 120.186 48.7386C117.511 52.56 116.255 58.5483 115.117 62.9871C111.114 78.5995 97.9379 76.5547 95.8612 69.6636C91.8107 72.3852 92.825 78.964 96.2363 82.0182C103.812 88.8011 123.658 82.9486 123.449 68.3429C123.275 56.2017 125.239 49.1932 129.422 45.6735C130.017 45.1735 131.831 44.0374 131.095 43.1344C130.821 42.7978 130.323 42.6875 129.782 42.6875C129.056 42.6875 128.253 42.8866 127.812 43.0029Z" fill="white"/>
</mask>
<g mask="url(#mask3_651_72194)">
<path fill-rule="evenodd" clip-rule="evenodd" d="M130.116 42.7756C116.748 45.0706 119.271 61.2887 113.809 69.7582C111.8 72.8739 107.614 76.2958 103.234 74.1608C104.926 73.0199 107.529 71.2564 108.788 69.6451C110.121 67.9401 110.963 65.7652 111.785 63.7956C113.782 59.0145 115.132 53.7598 117.968 49.367C120.153 45.9831 125.591 41.7335 130.116 42.7756Z" fill="#ED7483"/>
</g>
<path fill-rule="evenodd" clip-rule="evenodd" d="M95.8612 69.6636C97.9378 76.5547 111.114 78.5995 115.117 62.987C116.255 58.5483 117.511 52.56 120.186 48.7386C122.015 46.1248 124.649 43.8378 127.812 43.0029C128.58 42.8 130.452 42.3454 131.095 43.1344C131.831 44.0374 130.017 45.1735 129.422 45.6735C125.239 49.1932 123.275 56.2017 123.449 68.3429C123.658 82.9485 103.812 88.8011 96.2363 82.0182C92.825 78.964 91.8107 72.3852 95.8612 69.6636Z" stroke="#020203" stroke-width="0.774328" stroke-linecap="round" stroke-linejoin="round"/>
<path fill-rule="evenodd" clip-rule="evenodd" d="M59.6222 11.5597C58.1482 12.1287 55.3402 13.9607 57.738 16.9468C59.0075 18.528 61.4807 20.3922 66.3683 21.7847C68.0186 19.8052 68.6835 12.8553 70.1594 10.6529C66.8824 9.99166 62.1432 10.5862 59.6222 11.5597Z" fill="#AAA8A7"/>
<path fill-rule="evenodd" clip-rule="evenodd" d="M59.6222 11.5597C58.1482 12.1287 55.3402 13.9607 57.738 16.9468C59.0075 18.528 61.4807 20.3922 66.3683 21.7847C68.0186 19.8052 68.6835 12.8553 70.1594 10.6529C66.8824 9.99166 62.1432 10.5862 59.6222 11.5597Z" stroke="#020203" stroke-width="0.774328" stroke-linecap="round" stroke-linejoin="round"/>
<path fill-rule="evenodd" clip-rule="evenodd" d="M68.4599 77.3696C73.2123 63.2669 59.9766 51.3707 60.788 31.9996C61.828 7.17654 80.7508 -0.0330637 95.9537 2.12196C110.497 4.18381 124.042 18.3173 119.431 39.1387C114.769 60.1871 96.7001 59.5079 97.3072 69.0754C97.503 72.1561 99.3787 74.3513 102.125 75.7705C108.287 78.954 112.033 78.1278 118.082 75.8041C122.289 74.1877 131.472 68.8374 135.805 74.7869C139.917 80.4326 132.045 86.8369 128.014 82.5702C127.376 81.8935 126.898 80.947 126.927 79.9877C122.626 82.1754 119.242 85.626 115.231 88.2495C113.868 89.1407 112.491 89.9375 111.097 90.5591C114.823 91.563 120.685 92.5145 123.641 96.5969C126.977 101.204 122.588 107.45 117.319 106.433C115.014 105.989 113.705 103.861 114.366 101.575C114.542 100.964 114.939 100.384 115.414 99.962C115.567 99.8267 115.727 99.704 115.9 99.5948C115.904 99.5922 115.992 99.5417 115.992 99.5415C115.883 99.2871 115.451 99.0256 115.239 98.8821C112.151 96.791 95.202 102.708 87.4377 93.2287C84.3589 93.1214 78.4489 96.493 78.3293 96.5561C80.9287 96.882 82.2096 96.6522 88.2557 97.5065C91.9454 98.0279 96.7717 100.654 99.1477 103.674C99.908 104.64 100.62 105.972 100.132 107.204C99.2018 109.55 97.3854 102.94 87.9755 103.627C80.1855 104.197 69.4904 110.477 64.489 101.461C53.5335 104.818 42.5695 98.9154 45.33 86.251C46.8623 79.2221 52.4546 75.03 56.378 69.3597C59.0622 65.4801 60.5732 61.5177 61.3827 56.9224C63.4092 59.5906 65.2222 63.5734 60.2222 73.2173C58.2413 77.0384 52.8624 86.3039 56.451 89.4643C59.4554 92.1102 65.2307 86.953 68.4599 77.3696Z" fill="#E52B31"/>
<mask id="mask4_651_72194" style="mask-type:alpha" maskUnits="userSpaceOnUse" x="44" y="1" width="93" height="107">
<path fill-rule="evenodd" clip-rule="evenodd" d="M60.788 31.9996C59.9766 51.3707 73.2123 63.2669 68.4599 77.3696C65.2307 86.953 59.4554 92.1101 56.451 89.4643C52.8624 86.3039 58.2413 77.0384 60.2222 73.2173C65.2222 63.5734 63.4092 59.5906 61.3827 56.9224C60.5732 61.5177 59.0622 65.4801 56.378 69.3596C52.4546 75.03 46.8623 79.2221 45.33 86.251C42.5695 98.9154 53.5335 104.818 64.489 101.461C69.4904 110.477 80.1855 104.197 87.9755 103.627C92.2005 103.319 94.8946 104.481 96.6651 105.643C98.8378 107.07 99.6193 108.496 100.132 107.204C100.62 105.972 99.9079 104.64 99.1477 103.674C96.7717 100.654 91.9454 98.0279 88.2558 97.5065C82.2096 96.6522 80.9287 96.882 78.3293 96.5561C78.4489 96.493 84.3588 93.1214 87.4377 93.2287C92.5453 99.4647 101.627 99.0378 108.124 98.6108C111.503 98.3887 114.182 98.1667 115.239 98.8821C115.451 99.0256 115.883 99.2871 115.992 99.5415C115.992 99.5417 115.904 99.5922 115.9 99.5948C115.727 99.704 115.567 99.8267 115.414 99.962C114.939 100.384 114.542 100.964 114.366 101.575C113.705 103.861 115.014 105.989 117.319 106.433C122.588 107.45 126.977 101.204 123.641 96.5969C120.685 92.5145 114.823 91.563 111.097 90.559C112.491 89.9375 113.868 89.1407 115.231 88.2495C119.242 85.626 122.626 82.1754 126.927 79.9876C126.898 80.947 127.376 81.8934 128.014 82.5702C132.045 86.8369 139.917 80.4325 135.805 74.787C131.472 68.8374 122.289 74.1876 118.082 75.8041C112.033 78.1278 108.287 78.954 102.125 75.7705C99.3787 74.3513 97.503 72.1562 97.3072 69.0754C96.7001 59.5079 114.769 60.1872 119.431 39.1387C124.042 18.3173 110.497 4.18381 95.9537 2.12192C94.2843 1.88532 92.5724 1.76158 90.842 1.76172C76.8131 1.76257 61.7138 9.90215 60.788 31.9996Z" fill="white"/>
</mask>
<g mask="url(#mask4_651_72194)">
<path fill-rule="evenodd" clip-rule="evenodd" d="M110.941 28.1854C93.5631 37.6006 80.6395 13.2724 63.4766 17.8833C70.8814 -3.1103 98.6 17.8038 110.941 28.1854Z" fill="#BA1918"/>
</g>
<mask id="mask5_651_72194" style="mask-type:alpha" maskUnits="userSpaceOnUse" x="44" y="1" width="93" height="107">
<path fill-rule="evenodd" clip-rule="evenodd" d="M60.788 31.9996C59.9766 51.3707 73.2123 63.2669 68.4599 77.3696C65.2307 86.953 59.4554 92.1101 56.451 89.4643C52.8624 86.3039 58.2413 77.0384 60.2222 73.2173C65.2222 63.5734 63.4092 59.5906 61.3827 56.9224C60.5732 61.5177 59.0622 65.4801 56.378 69.3596C52.4546 75.03 46.8623 79.2221 45.33 86.251C42.5695 98.9154 53.5335 104.818 64.489 101.461C69.4904 110.477 80.1855 104.197 87.9755 103.627C92.2005 103.319 94.8946 104.481 96.6651 105.643C98.8378 107.07 99.6193 108.496 100.132 107.204C100.62 105.972 99.9079 104.64 99.1477 103.674C96.7717 100.654 91.9454 98.0279 88.2558 97.5065C82.2096 96.6522 80.9287 96.882 78.3293 96.5561C78.4489 96.493 84.3588 93.1214 87.4377 93.2287C92.5453 99.4647 101.627 99.0378 108.124 98.6108C111.503 98.3887 114.182 98.1667 115.239 98.8821C115.451 99.0256 115.883 99.2871 115.992 99.5415C115.992 99.5417 115.904 99.5922 115.9 99.5948C115.727 99.704 115.567 99.8267 115.414 99.962C114.939 100.384 114.542 100.964 114.366 101.575C113.705 103.861 115.014 105.989 117.319 106.433C122.588 107.45 126.977 101.204 123.641 96.5969C120.685 92.5145 114.823 91.563 111.097 90.559C112.491 89.9375 113.868 89.1407 115.231 88.2495C119.242 85.626 122.626 82.1754 126.927 79.9876C126.898 80.947 127.376 81.8934 128.014 82.5702C132.045 86.8369 139.917 80.4325 135.805 74.787C131.472 68.8374 122.289 74.1876 118.082 75.8041C112.033 78.1278 108.287 78.954 102.125 75.7705C99.3787 74.3513 97.503 72.1562 97.3072 69.0754C96.7001 59.5079 114.769 60.1872 119.431 39.1387C124.042 18.3173 110.497 4.18381 95.9537 2.12192C94.2843 1.88532 92.5724 1.76158 90.842 1.76172C76.8131 1.76257 61.7138 9.90215 60.788 31.9996Z" fill="white"/>
</mask>
<g mask="url(#mask5_651_72194)">
<path fill-rule="evenodd" clip-rule="evenodd" d="M129.35 82.3124C130.862 85.2511 134.703 85.0329 136.54 82.3789C137.655 80.7698 137.464 78.7625 136.652 77.0686C136.369 76.4765 135.987 75.9174 135.556 75.4215C135.524 75.3846 135.119 74.9919 135.128 74.9753C135.496 74.2993 138.525 75.1835 139.084 75.4757C141.81 76.9011 142.887 79.9942 142.489 82.9212C141.823 87.8224 137.106 91.8478 132.072 91.012C127.5 90.2529 126.723 85.8861 129.35 82.3124Z" fill="#BA1918"/>
</g>
<mask id="mask6_651_72194" style="mask-type:alpha" maskUnits="userSpaceOnUse" x="44" y="1" width="93" height="107">
<path fill-rule="evenodd" clip-rule="evenodd" d="M60.788 31.9996C59.9766 51.3707 73.2123 63.2669 68.4599 77.3696C65.2307 86.953 59.4554 92.1101 56.451 89.4643C52.8624 86.3039 58.2413 77.0384 60.2222 73.2173C65.2222 63.5734 63.4092 59.5906 61.3827 56.9224C60.5732 61.5177 59.0622 65.4801 56.378 69.3596C52.4546 75.03 46.8623 79.2221 45.33 86.251C42.5695 98.9154 53.5335 104.818 64.489 101.461C69.4904 110.477 80.1855 104.197 87.9755 103.627C92.2005 103.319 94.8946 104.481 96.6651 105.643C98.8378 107.07 99.6193 108.496 100.132 107.204C100.62 105.972 99.9079 104.64 99.1477 103.674C96.7717 100.654 91.9454 98.0279 88.2558 97.5065C82.2096 96.6522 80.9287 96.882 78.3293 96.5561C78.4489 96.493 84.3588 93.1214 87.4377 93.2287C92.5453 99.4647 101.627 99.0378 108.124 98.6108C111.503 98.3887 114.182 98.1667 115.239 98.8821C115.451 99.0256 115.883 99.2871 115.992 99.5415C115.992 99.5417 115.904 99.5922 115.9 99.5948C115.727 99.704 115.567 99.8267 115.414 99.962C114.939 100.384 114.542 100.964 114.366 101.575C113.705 103.861 115.014 105.989 117.319 106.433C122.588 107.45 126.977 101.204 123.641 96.5969C120.685 92.5145 114.823 91.563 111.097 90.559C112.491 89.9375 113.868 89.1407 115.231 88.2495C119.242 85.626 122.626 82.1754 126.927 79.9876C126.898 80.947 127.376 81.8934 128.014 82.5702C132.045 86.8369 139.917 80.4325 135.805 74.787C131.472 68.8374 122.289 74.1876 118.082 75.8041C112.033 78.1278 108.287 78.954 102.125 75.7705C99.3787 74.3513 97.503 72.1562 97.3072 69.0754C96.7001 59.5079 114.769 60.1872 119.431 39.1387C124.042 18.3173 110.497 4.18381 95.9537 2.12192C94.2843 1.88532 92.5724 1.76158 90.842 1.76172C76.8131 1.76257 61.7138 9.90215 60.788 31.9996Z" fill="white"/>
</mask>
<g mask="url(#mask6_651_72194)">
<path fill-rule="evenodd" clip-rule="evenodd" d="M64.4883 85.4834C78.1337 75.2683 68.2296 55.8699 64.7316 47.237C61.1226 38.3317 61.2127 23.2521 65.8864 14.3203C63.527 17.1702 60.3349 22.1888 59.2735 25.7406C57.4273 31.921 57.2072 39.7048 60.0247 45.6775C63.9591 54.0181 68.36 75.4675 64.4883 85.4834Z" fill="#ED7483"/>
</g>
<mask id="mask7_651_72194" style="mask-type:alpha" maskUnits="userSpaceOnUse" x="44" y="1" width="93" height="107">
<path fill-rule="evenodd" clip-rule="evenodd" d="M60.788 31.9996C59.9766 51.3707 73.2123 63.2669 68.4599 77.3696C65.2307 86.953 59.4554 92.1101 56.451 89.4643C52.8624 86.3039 58.2413 77.0384 60.2222 73.2173C65.2222 63.5734 63.4092 59.5906 61.3827 56.9224C60.5732 61.5177 59.0622 65.4801 56.378 69.3596C52.4546 75.03 46.8623 79.2221 45.33 86.251C42.5695 98.9154 53.5335 104.818 64.489 101.461C69.4904 110.477 80.1855 104.197 87.9755 103.627C92.2005 103.319 94.8946 104.481 96.6651 105.643C98.8378 107.07 99.6193 108.496 100.132 107.204C100.62 105.972 99.9079 104.64 99.1477 103.674C96.7717 100.654 91.9454 98.0279 88.2558 97.5065C82.2096 96.6522 80.9287 96.882 78.3293 96.5561C78.4489 96.493 84.3588 93.1214 87.4377 93.2287C92.5453 99.4647 101.627 99.0378 108.124 98.6108C111.503 98.3887 114.182 98.1667 115.239 98.8821C115.451 99.0256 115.883 99.2871 115.992 99.5415C115.992 99.5417 115.904 99.5922 115.9 99.5948C115.727 99.704 115.567 99.8267 115.414 99.962C114.939 100.384 114.542 100.964 114.366 101.575C113.705 103.861 115.014 105.989 117.319 106.433C122.588 107.45 126.977 101.204 123.641 96.5969C120.685 92.5145 114.823 91.563 111.097 90.559C112.491 89.9375 113.868 89.1407 115.231 88.2495C119.242 85.626 122.626 82.1754 126.927 79.9876C126.898 80.947 127.376 81.8934 128.014 82.5702C132.045 86.8369 139.917 80.4325 135.805 74.787C131.472 68.8374 122.289 74.1876 118.082 75.8041C112.033 78.1278 108.287 78.954 102.125 75.7705C99.3787 74.3513 97.503 72.1562 97.3072 69.0754C96.7001 59.5079 114.769 60.1872 119.431 39.1387C124.042 18.3173 110.497 4.18381 95.9537 2.12192C94.2843 1.88532 92.5724 1.76158 90.842 1.76172C76.8131 1.76257 61.7138 9.90215 60.788 31.9996Z" fill="white"/>
</mask>
<g mask="url(#mask7_651_72194)">
<path fill-rule="evenodd" clip-rule="evenodd" d="M45.2557 92.8675C45.1779 83.4752 51.0197 80.1016 53.7494 72.4668C47.6388 76.9147 43.3677 85.2507 45.2557 92.8675Z" fill="#F090AD"/>
</g>
<mask id="mask8_651_72194" style="mask-type:alpha" maskUnits="userSpaceOnUse" x="44" y="1" width="93" height="107">
<path fill-rule="evenodd" clip-rule="evenodd" d="M60.788 31.9996C59.9766 51.3707 73.2123 63.2669 68.4599 77.3696C65.2307 86.953 59.4554 92.1101 56.451 89.4643C52.8624 86.3039 58.2413 77.0384 60.2222 73.2173C65.2222 63.5734 63.4092 59.5906 61.3827 56.9224C60.5732 61.5177 59.0622 65.4801 56.378 69.3596C52.4546 75.03 46.8623 79.2221 45.33 86.251C42.5695 98.9154 53.5335 104.818 64.489 101.461C69.4904 110.477 80.1855 104.197 87.9755 103.627C92.2005 103.319 94.8946 104.481 96.6651 105.643C98.8378 107.07 99.6193 108.496 100.132 107.204C100.62 105.972 99.9079 104.64 99.1477 103.674C96.7717 100.654 91.9454 98.0279 88.2558 97.5065C82.2096 96.6522 80.9287 96.882 78.3293 96.5561C78.4489 96.493 84.3588 93.1214 87.4377 93.2287C92.5453 99.4647 101.627 99.0378 108.124 98.6108C111.503 98.3887 114.182 98.1667 115.239 98.8821C115.451 99.0256 115.883 99.2871 115.992 99.5415C115.992 99.5417 115.904 99.5922 115.9 99.5948C115.727 99.704 115.567 99.8267 115.414 99.962C114.939 100.384 114.542 100.964 114.366 101.575C113.705 103.861 115.014 105.989 117.319 106.433C122.588 107.45 126.977 101.204 123.641 96.5969C120.685 92.5145 114.823 91.563 111.097 90.559C112.491 89.9375 113.868 89.1407 115.231 88.2495C119.242 85.626 122.626 82.1754 126.927 79.9876C126.898 80.947 127.376 81.8934 128.014 82.5702C132.045 86.8369 139.917 80.4325 135.805 74.787C131.472 68.8374 122.289 74.1876 118.082 75.8041C112.033 78.1278 108.287 78.954 102.125 75.7705C99.3787 74.3513 97.503 72.1562 97.3072 69.0754C96.7001 59.5079 114.769 60.1872 119.431 39.1387C124.042 18.3173 110.497 4.18381 95.9537 2.12192C94.2843 1.88532 92.5724 1.76158 90.842 1.76172C76.8131 1.76257 61.7138 9.90215 60.788 31.9996Z" fill="white"/>
</mask>
<g mask="url(#mask8_651_72194)">
<path fill-rule="evenodd" clip-rule="evenodd" d="M76.958 79.3398C77.3108 87.727 61.2031 91.1156 65.0293 102.162C63.8082 99.8466 63.6853 96.9792 64.6879 94.4495C65.34 92.8044 66.0992 91.2948 67.318 90.0508C70.4277 86.8774 75.2227 83.9903 76.958 79.3398Z" fill="#F090AD"/>
</g>
<mask id="mask9_651_72194" style="mask-type:alpha" maskUnits="userSpaceOnUse" x="44" y="1" width="93" height="107">
<path fill-rule="evenodd" clip-rule="evenodd" d="M60.788 31.9996C59.9766 51.3707 73.2123 63.2669 68.4599 77.3696C65.2307 86.953 59.4554 92.1101 56.451 89.4643C52.8624 86.3039 58.2413 77.0384 60.2222 73.2173C65.2222 63.5734 63.4092 59.5906 61.3827 56.9224C60.5732 61.5177 59.0622 65.4801 56.378 69.3596C52.4546 75.03 46.8623 79.2221 45.33 86.251C42.5695 98.9154 53.5335 104.818 64.489 101.461C69.4904 110.477 80.1855 104.197 87.9755 103.627C92.2005 103.319 94.8946 104.481 96.6651 105.643C98.8378 107.07 99.6193 108.496 100.132 107.204C100.62 105.972 99.9079 104.64 99.1477 103.674C96.7717 100.654 91.9454 98.0279 88.2558 97.5065C82.2096 96.6522 80.9287 96.882 78.3293 96.5561C78.4489 96.493 84.3588 93.1214 87.4377 93.2287C92.5453 99.4647 101.627 99.0378 108.124 98.6108C111.503 98.3887 114.182 98.1667 115.239 98.8821C115.451 99.0256 115.883 99.2871 115.992 99.5415C115.992 99.5417 115.904 99.5922 115.9 99.5948C115.727 99.704 115.567 99.8267 115.414 99.962C114.939 100.384 114.542 100.964 114.366 101.575C113.705 103.861 115.014 105.989 117.319 106.433C122.588 107.45 126.977 101.204 123.641 96.5969C120.685 92.5145 114.823 91.563 111.097 90.559C112.491 89.9375 113.868 89.1407 115.231 88.2495C119.242 85.626 122.626 82.1754 126.927 79.9876C126.898 80.947 127.376 81.8934 128.014 82.5702C132.045 86.8369 139.917 80.4325 135.805 74.787C131.472 68.8374 122.289 74.1876 118.082 75.8041C112.033 78.1278 108.287 78.954 102.125 75.7705C99.3787 74.3513 97.503 72.1562 97.3072 69.0754C96.7001 59.5079 114.769 60.1872 119.431 39.1387C124.042 18.3173 110.497 4.18381 95.9537 2.12192C94.2843 1.88532 92.5724 1.76158 90.842 1.76172C76.8131 1.76257 61.7138 9.90215 60.788 31.9996Z" fill="white"/>
</mask>
<g mask="url(#mask9_651_72194)">
<path fill-rule="evenodd" clip-rule="evenodd" d="M102.746 76.0831C103.499 77.2215 106.992 79.0354 110.231 79.1373C113.709 79.2467 118.518 77.4612 125.125 74.7268C128.096 73.4969 131.382 72.4187 134.578 73.4889C129.787 71.0044 128.022 71.2749 123.339 72.7999C117.391 74.737 109.019 77.9337 102.746 76.0831Z" fill="#ED7483"/>
</g>
<mask id="mask10_651_72194" style="mask-type:alpha" maskUnits="userSpaceOnUse" x="44" y="1" width="93" height="107">
<path fill-rule="evenodd" clip-rule="evenodd" d="M60.788 31.9996C59.9766 51.3707 73.2123 63.2669 68.4599 77.3696C65.2307 86.953 59.4554 92.1101 56.451 89.4643C52.8624 86.3039 58.2413 77.0384 60.2222 73.2173C65.2222 63.5734 63.4092 59.5906 61.3827 56.9224C60.5732 61.5177 59.0622 65.4801 56.378 69.3596C52.4546 75.03 46.8623 79.2221 45.33 86.251C42.5695 98.9154 53.5335 104.818 64.489 101.461C69.4904 110.477 80.1855 104.197 87.9755 103.627C92.2005 103.319 94.8946 104.481 96.6651 105.643C98.8378 107.07 99.6193 108.496 100.132 107.204C100.62 105.972 99.9079 104.64 99.1477 103.674C96.7717 100.654 91.9454 98.0279 88.2558 97.5065C82.2096 96.6522 80.9287 96.882 78.3293 96.5561C78.4489 96.493 84.3588 93.1214 87.4377 93.2287C92.5453 99.4647 101.627 99.0378 108.124 98.6108C111.503 98.3887 114.182 98.1667 115.239 98.8821C115.451 99.0256 115.883 99.2871 115.992 99.5415C115.992 99.5417 115.904 99.5922 115.9 99.5948C115.727 99.704 115.567 99.8267 115.414 99.962C114.939 100.384 114.542 100.964 114.366 101.575C113.705 103.861 115.014 105.989 117.319 106.433C122.588 107.45 126.977 101.204 123.641 96.5969C120.685 92.5145 114.823 91.563 111.097 90.559C112.491 89.9375 113.868 89.1407 115.231 88.2495C119.242 85.626 122.626 82.1754 126.927 79.9876C126.898 80.947 127.376 81.8934 128.014 82.5702C132.045 86.8369 139.917 80.4325 135.805 74.787C131.472 68.8374 122.289 74.1876 118.082 75.8041C112.033 78.1278 108.287 78.954 102.125 75.7705C99.3787 74.3513 97.503 72.1562 97.3072 69.0754C96.7001 59.5079 114.769 60.1872 119.431 39.1387C124.042 18.3173 110.497 4.18381 95.9537 2.12192C94.2843 1.88532 92.5724 1.76158 90.842 1.76172C76.8131 1.76257 61.7138 9.90215 60.788 31.9996Z" fill="white"/>
</mask>
<g mask="url(#mask10_651_72194)">
<path fill-rule="evenodd" clip-rule="evenodd" d="M53.832 72.8403C58.4436 73.7064 54.9892 78.1025 54.2218 80.6677C53.5067 83.058 53.2857 85.8975 54.3428 88.2173C54.8957 89.4307 55.9054 90.2882 57.267 90.4275C59.7909 90.6856 60.0958 87.6271 60.5568 85.8304C60.8779 84.5778 61.2558 83.3512 61.6874 82.1326C63.8694 75.972 67.6387 70.3592 66.6764 63.5579C66.2857 60.7984 64.5177 53.9109 60.3111 56.6061C58.8035 57.572 57.9048 59.2337 57.4552 60.9299C56.687 63.8299 54.983 70.0238 53.832 72.8403Z" fill="#BA1918"/>
</g>
<mask id="mask11_651_72194" style="mask-type:alpha" maskUnits="userSpaceOnUse" x="44" y="1" width="93" height="107">
<path fill-rule="evenodd" clip-rule="evenodd" d="M60.788 31.9996C59.9766 51.3707 73.2123 63.2669 68.4599 77.3696C65.2307 86.953 59.4554 92.1101 56.451 89.4643C52.8624 86.3039 58.2413 77.0384 60.2222 73.2173C65.2222 63.5734 63.4092 59.5906 61.3827 56.9224C60.5732 61.5177 59.0622 65.4801 56.378 69.3596C52.4546 75.03 46.8623 79.2221 45.33 86.251C42.5695 98.9154 53.5335 104.818 64.489 101.461C69.4904 110.477 80.1855 104.197 87.9755 103.627C92.2005 103.319 94.8946 104.481 96.6651 105.643C98.8378 107.07 99.6193 108.496 100.132 107.204C100.62 105.972 99.9079 104.64 99.1477 103.674C96.7717 100.654 91.9454 98.0279 88.2558 97.5065C82.2096 96.6522 80.9287 96.882 78.3293 96.5561C78.4489 96.493 84.3588 93.1214 87.4377 93.2287C92.5453 99.4647 101.627 99.0378 108.124 98.6108C111.503 98.3887 114.182 98.1667 115.239 98.8821C115.451 99.0256 115.883 99.2871 115.992 99.5415C115.992 99.5417 115.904 99.5922 115.9 99.5948C115.727 99.704 115.567 99.8267 115.414 99.962C114.939 100.384 114.542 100.964 114.366 101.575C113.705 103.861 115.014 105.989 117.319 106.433C122.588 107.45 126.977 101.204 123.641 96.5969C120.685 92.5145 114.823 91.563 111.097 90.559C112.491 89.9375 113.868 89.1407 115.231 88.2495C119.242 85.626 122.626 82.1754 126.927 79.9876C126.898 80.947 127.376 81.8934 128.014 82.5702C132.045 86.8369 139.917 80.4325 135.805 74.787C131.472 68.8374 122.289 74.1876 118.082 75.8041C112.033 78.1278 108.287 78.954 102.125 75.7705C99.3787 74.3513 97.503 72.1562 97.3072 69.0754C96.7001 59.5079 114.769 60.1872 119.431 39.1387C124.042 18.3173 110.497 4.18381 95.9537 2.12192C94.2843 1.88532 92.5724 1.76158 90.842 1.76172C76.8131 1.76257 61.7138 9.90215 60.788 31.9996Z" fill="white"/>
</mask>
<g mask="url(#mask11_651_72194)">
<path fill-rule="evenodd" clip-rule="evenodd" d="M111.366 24.5547C112.878 37.4929 99.3026 49.8318 91.885 62.5307C87.0818 70.7529 90.1563 78.5084 94.6939 83.2253C99.499 88.2199 107.905 90.1766 111.877 90.8262C114.86 90.4594 120.025 87.0625 123.042 86.7887C126.412 86.4828 128.706 86.3081 132.066 85.8827C134.973 85.5147 139.366 80.2437 136.766 76.7332C134.21 73.2799 129.497 75.2259 126.251 76.5428C118.248 79.7894 112.171 87.652 102.796 83.8718C100.928 83.1183 97.5185 80.5991 96.5947 78.7537C94.1841 73.9406 98.1568 73.432 100.085 73.7037C102.435 74.0349 104.708 68.2186 106.071 66.2944C109.002 62.1579 114.128 56.4175 116.523 51.9523C120.738 44.0947 121.491 40.1588 117.839 31.533C116.456 28.2664 114.236 26.6449 111.366 24.5547Z" fill="#BA1918"/>
</g>
<mask id="mask12_651_72194" style="mask-type:alpha" maskUnits="userSpaceOnUse" x="44" y="1" width="93" height="107">
<path fill-rule="evenodd" clip-rule="evenodd" d="M60.788 31.9996C59.9766 51.3707 73.2123 63.2669 68.4599 77.3696C65.2307 86.953 59.4554 92.1101 56.451 89.4643C52.8624 86.3039 58.2413 77.0384 60.2222 73.2173C65.2222 63.5734 63.4092 59.5906 61.3827 56.9224C60.5732 61.5177 59.0622 65.4801 56.378 69.3596C52.4546 75.03 46.8623 79.2221 45.33 86.251C42.5695 98.9154 53.5335 104.818 64.489 101.461C69.4904 110.477 80.1855 104.197 87.9755 103.627C92.2005 103.319 94.8946 104.481 96.6651 105.643C98.8378 107.07 99.6193 108.496 100.132 107.204C100.62 105.972 99.9079 104.64 99.1477 103.674C96.7717 100.654 91.9454 98.0279 88.2558 97.5065C82.2096 96.6522 80.9287 96.882 78.3293 96.5561C78.4489 96.493 84.3588 93.1214 87.4377 93.2287C92.5453 99.4647 101.627 99.0378 108.124 98.6108C111.503 98.3887 114.182 98.1667 115.239 98.8821C115.451 99.0256 115.883 99.2871 115.992 99.5415C115.992 99.5417 115.904 99.5922 115.9 99.5948C115.727 99.704 115.567 99.8267 115.414 99.962C114.939 100.384 114.542 100.964 114.366 101.575C113.705 103.861 115.014 105.989 117.319 106.433C122.588 107.45 126.977 101.204 123.641 96.5969C120.685 92.5145 114.823 91.563 111.097 90.559C112.491 89.9375 113.868 89.1407 115.231 88.2495C119.242 85.626 122.626 82.1754 126.927 79.9876C126.898 80.947 127.376 81.8934 128.014 82.5702C132.045 86.8369 139.917 80.4325 135.805 74.787C131.472 68.8374 122.289 74.1876 118.082 75.8041C112.033 78.1278 108.287 78.954 102.125 75.7705C99.3787 74.3513 97.503 72.1562 97.3072 69.0754C96.7001 59.5079 114.769 60.1872 119.431 39.1387C124.042 18.3173 110.497 4.18381 95.9537 2.12192C94.2843 1.88532 92.5724 1.76158 90.842 1.76172C76.8131 1.76257 61.7138 9.90215 60.788 31.9996Z" fill="white"/>
</mask>
<g mask="url(#mask12_651_72194)">
<path fill-rule="evenodd" clip-rule="evenodd" d="M117.647 107.711C121.377 107.811 130.253 101.449 122.595 94.7621C124.723 97.8971 122.205 98.9548 120.284 97.9741C116.36 95.9707 110.326 95.698 106.071 95.665C100.278 95.62 94.6462 95.8478 89.3996 93.0439C84.652 90.5066 85.7451 87.6338 84.9645 85.7578C84.4314 96.0989 90.0436 99.2409 100.322 100.65C102.842 100.996 105.914 100.458 108.3 101.403C111.679 102.741 112.319 107.568 117.647 107.711Z" fill="#BA1918"/>
</g>
<mask id="mask13_651_72194" style="mask-type:alpha" maskUnits="userSpaceOnUse" x="44" y="1" width="93" height="107">
<path fill-rule="evenodd" clip-rule="evenodd" d="M60.788 31.9996C59.9766 51.3707 73.2123 63.2669 68.4599 77.3696C65.2307 86.953 59.4554 92.1101 56.451 89.4643C52.8624 86.3039 58.2413 77.0384 60.2222 73.2173C65.2222 63.5734 63.4092 59.5906 61.3827 56.9224C60.5732 61.5177 59.0622 65.4801 56.378 69.3596C52.4546 75.03 46.8623 79.2221 45.33 86.251C42.5695 98.9154 53.5335 104.818 64.489 101.461C69.4904 110.477 80.1855 104.197 87.9755 103.627C92.2005 103.319 94.8946 104.481 96.6651 105.643C98.8378 107.07 99.6193 108.496 100.132 107.204C100.62 105.972 99.9079 104.64 99.1477 103.674C96.7717 100.654 91.9454 98.0279 88.2558 97.5065C82.2096 96.6522 80.9287 96.882 78.3293 96.5561C78.4489 96.493 84.3588 93.1214 87.4377 93.2287C92.5453 99.4647 101.627 99.0378 108.124 98.6108C111.503 98.3887 114.182 98.1667 115.239 98.8821C115.451 99.0256 115.883 99.2871 115.992 99.5415C115.992 99.5417 115.904 99.5922 115.9 99.5948C115.727 99.704 115.567 99.8267 115.414 99.962C114.939 100.384 114.542 100.964 114.366 101.575C113.705 103.861 115.014 105.989 117.319 106.433C122.588 107.45 126.977 101.204 123.641 96.5969C120.685 92.5145 114.823 91.563 111.097 90.559C112.491 89.9375 113.868 89.1407 115.231 88.2495C119.242 85.626 122.626 82.1754 126.927 79.9876C126.898 80.947 127.376 81.8934 128.014 82.5702C132.045 86.8369 139.917 80.4325 135.805 74.787C131.472 68.8374 122.289 74.1876 118.082 75.8041C112.033 78.1278 108.287 78.954 102.125 75.7705C99.3787 74.3513 97.503 72.1562 97.3072 69.0754C96.7001 59.5079 114.769 60.1872 119.431 39.1387C124.042 18.3173 110.497 4.18381 95.9537 2.12192C94.2843 1.88532 92.5724 1.76158 90.842 1.76172C76.8131 1.76257 61.7138 9.90215 60.788 31.9996Z" fill="white"/>
</mask>
<g mask="url(#mask13_651_72194)">
<path fill-rule="evenodd" clip-rule="evenodd" d="M77.2056 96.4464C71.794 95.4928 83.0767 89.8391 84.9651 85.7578C85.3949 87.2685 85.5091 88.7241 85.944 90.2363C86.3125 91.5172 87.3164 93.0393 87.8248 94.2616C83.8986 96.7024 81.1811 97.147 77.2056 96.4464Z" fill="#BA1918"/>
</g>
<mask id="mask14_651_72194" style="mask-type:alpha" maskUnits="userSpaceOnUse" x="44" y="1" width="93" height="107">
<path fill-rule="evenodd" clip-rule="evenodd" d="M60.788 31.9996C59.9766 51.3707 73.2123 63.2669 68.4599 77.3696C65.2307 86.953 59.4554 92.1101 56.451 89.4643C52.8624 86.3039 58.2413 77.0384 60.2222 73.2173C65.2222 63.5734 63.4092 59.5906 61.3827 56.9224C60.5732 61.5177 59.0622 65.4801 56.378 69.3596C52.4546 75.03 46.8623 79.2221 45.33 86.251C42.5695 98.9154 53.5335 104.818 64.489 101.461C69.4904 110.477 80.1855 104.197 87.9755 103.627C92.2005 103.319 94.8946 104.481 96.6651 105.643C98.8378 107.07 99.6193 108.496 100.132 107.204C100.62 105.972 99.9079 104.64 99.1477 103.674C96.7717 100.654 91.9454 98.0279 88.2558 97.5065C82.2096 96.6522 80.9287 96.882 78.3293 96.5561C78.4489 96.493 84.3588 93.1214 87.4377 93.2287C92.5453 99.4647 101.627 99.0378 108.124 98.6108C111.503 98.3887 114.182 98.1667 115.239 98.8821C115.451 99.0256 115.883 99.2871 115.992 99.5415C115.992 99.5417 115.904 99.5922 115.9 99.5948C115.727 99.704 115.567 99.8267 115.414 99.962C114.939 100.384 114.542 100.964 114.366 101.575C113.705 103.861 115.014 105.989 117.319 106.433C122.588 107.45 126.977 101.204 123.641 96.5969C120.685 92.5145 114.823 91.563 111.097 90.559C112.491 89.9375 113.868 89.1407 115.231 88.2495C119.242 85.626 122.626 82.1754 126.927 79.9876C126.898 80.947 127.376 81.8934 128.014 82.5702C132.045 86.8369 139.917 80.4325 135.805 74.787C131.472 68.8374 122.289 74.1876 118.082 75.8041C112.033 78.1278 108.287 78.954 102.125 75.7705C99.3787 74.3513 97.503 72.1562 97.3072 69.0754C96.7001 59.5079 114.769 60.1872 119.431 39.1387C124.042 18.3173 110.497 4.18381 95.9537 2.12192C94.2843 1.88532 92.5724 1.76158 90.842 1.76172C76.8131 1.76257 61.7138 9.90215 60.788 31.9996Z" fill="white"/>
</mask>
<g mask="url(#mask14_651_72194)">
<path fill-rule="evenodd" clip-rule="evenodd" d="M70.2027 87.5C67.372 90.3873 65.5826 93.9722 57.5926 96.2154C51.9894 97.7886 45.0631 95.8666 44.8539 89.4966C44.2701 91.9955 44.4788 94.245 45.4776 96.6123C48.6849 104.213 58.4889 105.095 65.4034 102.534C64.2391 101.345 63.3324 99.8458 63.6169 98.2186C64.3985 93.7478 66.3068 91.7284 70.2027 87.5Z" fill="#BA1918"/>
</g>
<mask id="mask15_651_72194" style="mask-type:alpha" maskUnits="userSpaceOnUse" x="44" y="1" width="93" height="107">
<path fill-rule="evenodd" clip-rule="evenodd" d="M60.788 31.9996C59.9766 51.3707 73.2123 63.2669 68.4599 77.3696C65.2307 86.953 59.4554 92.1101 56.451 89.4643C52.8624 86.3039 58.2413 77.0384 60.2222 73.2173C65.2222 63.5734 63.4092 59.5906 61.3827 56.9224C60.5732 61.5177 59.0622 65.4801 56.378 69.3596C52.4546 75.03 46.8623 79.2221 45.33 86.251C42.5695 98.9154 53.5335 104.818 64.489 101.461C69.4904 110.477 80.1855 104.197 87.9755 103.627C92.2005 103.319 94.8946 104.481 96.6651 105.643C98.8378 107.07 99.6193 108.496 100.132 107.204C100.62 105.972 99.9079 104.64 99.1477 103.674C96.7717 100.654 91.9454 98.0279 88.2558 97.5065C82.2096 96.6522 80.9287 96.882 78.3293 96.5561C78.4489 96.493 84.3588 93.1214 87.4377 93.2287C92.5453 99.4647 101.627 99.0378 108.124 98.6108C111.503 98.3887 114.182 98.1667 115.239 98.8821C115.451 99.0256 115.883 99.2871 115.992 99.5415C115.992 99.5417 115.904 99.5922 115.9 99.5948C115.727 99.704 115.567 99.8267 115.414 99.962C114.939 100.384 114.542 100.964 114.366 101.575C113.705 103.861 115.014 105.989 117.319 106.433C122.588 107.45 126.977 101.204 123.641 96.5969C120.685 92.5145 114.823 91.563 111.097 90.559C112.491 89.9375 113.868 89.1407 115.231 88.2495C119.242 85.626 122.626 82.1754 126.927 79.9876C126.898 80.947 127.376 81.8934 128.014 82.5702C132.045 86.8369 139.917 80.4325 135.805 74.787C131.472 68.8374 122.289 74.1876 118.082 75.8041C112.033 78.1278 108.287 78.954 102.125 75.7705C99.3787 74.3513 97.503 72.1562 97.3072 69.0754C96.7001 59.5079 114.769 60.1872 119.431 39.1387C124.042 18.3173 110.497 4.18381 95.9537 2.12192C94.2843 1.88532 92.5724 1.76158 90.842 1.76172C76.8131 1.76257 61.7138 9.90215 60.788 31.9996Z" fill="white"/>
</mask>
<g mask="url(#mask15_651_72194)">
<path fill-rule="evenodd" clip-rule="evenodd" d="M101.014 109.292C99.922 102.51 91.7157 99.7262 85.6307 100.54C81.8775 101.042 78.4293 102.768 74.6946 103.345C70.858 103.938 64.8123 103.855 64.1797 98.9102C64.2025 101.367 65.0921 103.671 66.7074 105.539C72.985 112.798 81.1529 107.1 88.8095 108.149C92.1449 108.606 98.4917 112.151 101.014 109.292Z" fill="#BA1918"/>
</g>
<path fill-rule="evenodd" clip-rule="evenodd" d="M68.4599 77.3696C73.2123 63.2669 59.9766 51.3707 60.788 31.9996C61.828 7.17654 80.7508 -0.0330637 95.9537 2.12196C110.497 4.18381 124.042 18.3173 119.431 39.1387C114.769 60.1871 96.7001 59.5079 97.3072 69.0754C97.503 72.1561 99.3787 74.3513 102.125 75.7705C108.287 78.954 112.033 78.1278 118.082 75.8041C122.289 74.1877 131.472 68.8374 135.805 74.7869C139.917 80.4326 132.045 86.8369 128.014 82.5702C127.376 81.8935 126.898 80.947 126.927 79.9877C122.626 82.1754 119.242 85.626 115.231 88.2495C113.868 89.1407 112.491 89.9375 111.097 90.5591C114.823 91.563 120.685 92.5145 123.641 96.5969C126.977 101.204 122.588 107.45 117.319 106.433C115.014 105.989 113.705 103.861 114.366 101.575C114.542 100.964 114.939 100.384 115.414 99.962C115.567 99.8267 115.727 99.704 115.9 99.5948C115.904 99.5922 115.992 99.5417 115.992 99.5415C115.883 99.2871 115.451 99.0256 115.239 98.8821C112.151 96.791 95.202 102.708 87.4377 93.2287C84.3589 93.1214 78.4489 96.493 78.3293 96.5561C80.9287 96.8821 82.2096 96.6522 88.2557 97.5065C91.9454 98.0279 96.7717 100.654 99.1477 103.674C99.908 104.64 100.62 105.972 100.132 107.204C99.2018 109.55 97.3854 102.94 87.9755 103.627C80.1855 104.197 69.4904 110.477 64.489 101.461C53.5335 104.818 42.5695 98.9154 45.33 86.251C46.8623 79.2221 52.4546 75.03 56.378 69.3597C59.0622 65.4801 60.5732 61.5177 61.3827 56.9224C63.4092 59.5906 65.2222 63.5734 60.2222 73.2173C58.2413 77.0384 52.8624 86.3039 56.451 89.4643C59.4554 92.1102 65.2307 86.953 68.4599 77.3696Z" stroke="#020203" stroke-width="0.774328" stroke-linecap="round" stroke-linejoin="round"/>
<path fill-rule="evenodd" clip-rule="evenodd" d="M127.249 79.9966C127.288 78.4783 128.252 77.3475 129.456 76.9716C129.831 76.8544 130.229 76.8104 130.632 76.8479C130.892 76.8719 131.154 76.9259 131.413 77.0189C131.72 77.1284 132.023 77.2833 132.318 77.4974C132.587 77.6922 132.85 77.9242 133.098 78.2134C133.143 78.2746 133.23 78.2879 133.291 78.2431C133.352 78.1983 133.365 78.1123 133.321 78.0511C133.054 77.6246 132.754 77.278 132.427 77.0026C132.174 76.7889 131.904 76.6235 131.628 76.4962C131.327 76.357 131.016 76.2695 130.705 76.2262C130.215 76.1578 129.724 76.2056 129.263 76.3444C127.81 76.7823 126.647 78.1546 126.606 79.9809C126.601 80.158 126.742 80.3053 126.92 80.3097C127.097 80.314 127.245 80.1737 127.249 79.9966Z" fill="#020203"/>
<path fill-rule="evenodd" clip-rule="evenodd" d="M116.157 99.8226C116.474 99.5782 117.15 99.326 117.858 99.3151C118.413 99.3064 118.996 99.4467 119.435 99.9122C119.653 100.121 119.838 100.383 119.903 100.705C119.961 100.986 119.95 101.303 119.788 101.667C119.749 101.735 119.772 101.821 119.84 101.859C119.907 101.898 119.993 101.875 120.032 101.808C120.328 101.399 120.427 101.006 120.413 100.643C120.395 100.19 120.173 99.7979 119.908 99.4762C119.341 98.852 118.581 98.6282 117.849 98.637C116.971 98.6473 116.141 98.9974 115.751 99.3047C115.608 99.4164 115.583 99.6231 115.695 99.7661C115.807 99.909 116.014 99.9344 116.157 99.8226Z" fill="black"/>
<path fill-rule="evenodd" clip-rule="evenodd" d="M91.2272 24.6582C90.4883 25.1123 89.833 25.652 89.2658 26.2517C88.8716 26.6685 88.5193 27.1121 88.2087 27.571C88.0811 27.7592 87.9625 27.9513 87.8501 28.1443C87.6779 28.4418 87.5224 28.7421 87.382 29.0425C86.9988 29.8632 86.7286 30.6782 86.5455 31.4189C86.5355 31.4544 86.5564 31.4913 86.5919 31.5012C86.6275 31.5107 86.6645 31.4898 86.674 31.4544C86.8964 30.7368 87.2165 29.9554 87.6319 29.166C87.7832 28.8793 87.9464 28.5917 88.1219 28.3055C88.2357 28.1197 88.3547 27.9352 88.4776 27.7502C88.7768 27.3018 89.1064 26.8605 89.4739 26.44C90.0051 25.8312 90.6088 25.2622 91.3069 24.7802C91.3406 24.758 91.35 24.713 91.3282 24.6795C91.3059 24.6459 91.2609 24.6364 91.2272 24.6582Z" fill="#020203"/>
<path fill-rule="evenodd" clip-rule="evenodd" d="M98.5198 24.729C98.9708 24.9541 99.3995 25.2346 99.8059 25.5497C100.072 25.7559 100.325 25.9791 100.567 26.2147C100.663 26.3088 100.758 26.4039 100.851 26.5009C100.991 26.647 101.126 26.797 101.255 26.9526C101.58 27.3452 101.863 27.7681 102.081 28.2269C102.096 28.2609 102.135 28.277 102.169 28.2624C102.203 28.2482 102.219 28.2094 102.205 28.1753C102.024 27.682 101.78 27.2146 101.477 26.7837C101.355 26.6116 101.224 26.446 101.084 26.2875C100.991 26.1825 100.893 26.0804 100.791 25.9829C100.537 25.7403 100.261 25.5203 99.971 25.3236C99.5327 25.0265 99.0614 24.7867 98.579 24.5961C98.5425 24.58 98.4994 24.5961 98.4828 24.633C98.4666 24.6694 98.4828 24.7124 98.5198 24.729Z" fill="#020203"/>
<path fill-rule="evenodd" clip-rule="evenodd" d="M96.7901 24.669C99.6028 25.1907 102.303 26.9806 104.031 28.6881C105.218 29.8607 103.689 30.3545 103.592 32.7522C103.474 35.6792 93.0146 23.9684 96.7901 24.669Z" fill="#020203"/>
<path fill-rule="evenodd" clip-rule="evenodd" d="M104.713 23.6257C104.559 22.5032 104.192 21.3217 103.572 20.2257C102.963 19.1501 102.079 18.2211 100.989 17.4908C100.173 17.0121 99.2932 16.6715 98.3812 16.5424C97.4806 16.4147 96.5605 16.4615 95.6795 16.6521C93.8759 17.0428 92.2478 17.9581 91.1546 19.1326C90.9574 19.3043 90.937 19.6032 91.1087 19.7995C91.2808 19.9963 91.5805 20.0166 91.7773 19.8449C92.8833 19.0711 94.3823 18.6615 95.9322 18.5919C96.625 18.5607 97.3179 18.6378 98.0046 18.7712C98.6539 18.8975 99.2993 19.073 99.8935 19.4022C100.801 19.8364 101.546 20.4679 102.15 21.1987C102.841 22.0364 103.381 22.9493 103.71 23.8698C103.777 24.1455 104.056 24.3153 104.333 24.2477C104.61 24.1805 104.78 23.9014 104.713 23.6257Z" fill="#020203"/>
<path fill-rule="evenodd" clip-rule="evenodd" d="M97.5897 25.0674C102.037 26.4514 104.387 31.603 102.835 36.5653C101.283 41.5272 96.4122 44.4324 91.9652 43.0488C87.5187 41.6653 85.1683 36.5133 86.7205 31.551C88.2722 26.5891 93.1427 23.6839 97.5897 25.0674Z" fill="#ECEAE9"/>
<mask id="mask16_651_72194" style="mask-type:alpha" maskUnits="userSpaceOnUse" x="86" y="24" width="18" height="20">
<path fill-rule="evenodd" clip-rule="evenodd" d="M86.7205 31.551C85.1683 36.5133 87.5187 41.6653 91.9652 43.0489C96.4122 44.4324 101.283 41.5272 102.835 36.5653C104.387 31.603 102.037 26.4515 97.5897 25.0674C96.8392 24.8339 96.0775 24.7226 95.3208 24.7227C91.5941 24.723 88.0103 27.4265 86.7205 31.551Z" fill="white"/>
</mask>
<g mask="url(#mask16_651_72194)">
<path fill-rule="evenodd" clip-rule="evenodd" d="M92.8678 27.8166C96.7352 27.5749 100.036 31.0345 100.235 35.5375C100.433 40.0406 97.4547 43.8928 93.5872 44.1345C89.7202 44.3762 86.419 40.9166 86.2203 36.4136C86.0221 31.9105 89.0003 28.0583 92.8678 27.8166Z" fill="#020203"/>
</g>
<mask id="mask17_651_72194" style="mask-type:alpha" maskUnits="userSpaceOnUse" x="86" y="24" width="18" height="20">
<path fill-rule="evenodd" clip-rule="evenodd" d="M86.7205 31.551C85.1683 36.5133 87.5187 41.6653 91.9652 43.0489C96.4122 44.4324 101.283 41.5272 102.835 36.5653C104.387 31.603 102.037 26.4515 97.5897 25.0674C96.8392 24.8339 96.0775 24.7226 95.3208 24.7227C91.5941 24.723 88.0103 27.4265 86.7205 31.551Z" fill="white"/>
</mask>
<g mask="url(#mask17_651_72194)">
<path fill-rule="evenodd" clip-rule="evenodd" d="M88.0722 37.3698C88.5925 40.6208 90.6559 42.1429 92.8075 42.4461C93.4416 42.5355 94.0937 42.5024 94.7235 42.3652C95.6487 42.1642 96.5361 41.738 97.2654 41.1203C98.8143 39.8091 99.7472 37.698 99.0424 35.1807C98.94 34.7309 98.4909 34.448 98.0394 34.5502C97.5884 34.6523 97.3053 35.1003 97.4072 35.5506C97.6605 37.0065 97.1607 38.1767 96.3507 38.9979C95.7744 39.582 95.0185 39.9515 94.2303 40.135C92.395 40.5621 90.3358 39.7864 89.6168 37.041C89.5258 36.6163 89.1061 36.3443 88.6798 36.4351C88.2539 36.5259 87.9812 36.9445 88.0722 37.3698Z" fill="#8F1913"/>
</g>
<mask id="mask18_651_72194" style="mask-type:alpha" maskUnits="userSpaceOnUse" x="86" y="24" width="18" height="20">
<path fill-rule="evenodd" clip-rule="evenodd" d="M86.7205 31.551C85.1683 36.5133 87.5187 41.6653 91.9652 43.0489C96.4122 44.4324 101.283 41.5272 102.835 36.5653C104.387 31.603 102.037 26.4515 97.5897 25.0674C96.8392 24.8339 96.0775 24.7226 95.3208 24.7227C91.5941 24.723 88.0103 27.4265 86.7205 31.551Z" fill="white"/>
</mask>
<g mask="url(#mask18_651_72194)">
<path fill-rule="evenodd" clip-rule="evenodd" d="M89.7853 29.7976C90.3288 29.1874 91.1749 29.0176 91.6723 29.4182C92.1703 29.8193 92.1333 30.64 91.5894 31.2502C91.0453 31.8604 90.1998 32.0306 89.7019 31.6295C89.2039 31.2289 89.2414 30.4077 89.7853 29.7976Z" fill="#FEFEFE"/>
</g>
<mask id="mask19_651_72194" style="mask-type:alpha" maskUnits="userSpaceOnUse" x="86" y="24" width="18" height="20">
<path fill-rule="evenodd" clip-rule="evenodd" d="M86.7205 31.551C85.1683 36.5133 87.5187 41.6653 91.9652 43.0489C96.4122 44.4324 101.283 41.5272 102.835 36.5653C104.387 31.603 102.037 26.4515 97.5897 25.0674C96.8392 24.8339 96.0775 24.7226 95.3208 24.7227C91.5941 24.723 88.0103 27.4265 86.7205 31.551Z" fill="white"/>
</mask>
<g mask="url(#mask19_651_72194)">
<path fill-rule="evenodd" clip-rule="evenodd" d="M95.6723 39.259C95.955 38.8214 96.4406 38.6142 96.7564 38.7968C97.0718 38.9789 97.0988 39.4822 96.8162 39.9198C96.5331 40.3573 96.0474 40.5645 95.7316 40.3819C95.4163 40.1998 95.3897 39.6965 95.6723 39.259Z" fill="#FEFEFE"/>
</g>
<path fill-rule="evenodd" clip-rule="evenodd" d="M97.6515 24.8799C95.2908 24.1382 92.81 24.5757 90.7442 25.8779C88.8282 27.085 87.2699 29.0371 86.4983 31.4797C85.7248 33.9276 85.8822 36.4227 86.7601 38.5115C87.7114 40.7758 89.5093 42.5623 91.8871 43.3092C94.2702 44.0575 96.7742 43.6162 98.8589 42.3008C100.788 41.0837 102.357 39.1169 103.133 36.6559C103.909 34.191 103.754 31.6765 102.861 29.5778C102.476 28.6724 101.958 27.8399 101.312 27.1318C100.342 26.0685 99.0961 25.28 97.6548 24.869L97.6515 24.8799ZM97.5329 25.2643C98.8617 25.7123 99.9742 26.5178 100.853 27.5381C101.435 28.2135 101.916 28.9836 102.272 29.8265C103.104 31.8004 103.265 34.156 102.545 36.4728C101.825 38.7933 100.357 40.6537 98.5463 41.8088C96.6085 43.0443 94.2772 43.4728 92.052 42.7865C89.8216 42.0987 88.1362 40.4285 87.2337 38.3132C86.3876 36.329 86.2279 33.9545 86.9506 31.6206C87.6748 29.2816 89.1525 27.4061 90.9774 26.2416C92.9336 24.9928 95.2887 24.561 97.5362 25.253L97.5329 25.2643Z" fill="#020203"/>
<path fill-rule="evenodd" clip-rule="evenodd" d="M63.754 22.7542C64.0826 22.3186 64.4597 21.907 64.868 21.5263C65.1359 21.2765 65.4186 21.0428 65.714 20.8276C65.8321 20.742 65.9507 20.6573 66.0721 20.5769C66.2547 20.4554 66.4411 20.3409 66.6331 20.2368C67.1145 19.9753 67.6267 19.7738 68.1749 19.6678C68.2114 19.6626 68.2365 19.6285 68.2309 19.5921C68.2256 19.5557 68.1915 19.5306 68.155 19.5358C67.5783 19.5969 67.0267 19.752 66.5084 19.988C66.2997 20.0826 66.0972 20.191 65.9014 20.3116C65.7714 20.3915 65.6443 20.4767 65.5215 20.5684C65.217 20.795 64.933 21.0518 64.6702 21.3276C64.2761 21.741 63.9337 22.2003 63.634 22.6714C63.6112 22.7045 63.6193 22.7495 63.6525 22.7726C63.6857 22.7953 63.7312 22.7868 63.754 22.7542Z" fill="#020203"/>
<path fill-rule="evenodd" clip-rule="evenodd" d="M72.0618 21.2892C72.2842 21.6065 72.4716 21.9504 72.6385 22.309C72.7481 22.5436 72.8467 22.7843 72.9387 23.0289C73.0075 23.2115 73.071 23.3959 73.1336 23.5814C73.1967 23.7668 73.2588 23.9522 73.3171 24.139C73.4054 24.4224 73.4874 24.7062 73.5614 24.9886C73.6377 25.2809 73.7084 25.5689 73.7691 25.8527C73.7748 25.8892 73.8089 25.9138 73.8455 25.9081C73.882 25.9024 73.9071 25.8684 73.9009 25.8319C73.8483 25.3499 73.7795 24.8509 73.6733 24.3519C73.6316 24.1561 73.5837 23.9607 73.5291 23.7672C73.4921 23.6386 73.4528 23.5099 73.4082 23.3836C73.2963 23.0658 73.164 22.755 73.0122 22.4575C72.7798 22.0025 72.5 21.5805 72.1775 21.2002C72.1529 21.1685 72.1069 21.1624 72.0751 21.187C72.0433 21.2116 72.0376 21.2575 72.0618 21.2892Z" fill="#020203"/>
<path fill-rule="evenodd" clip-rule="evenodd" d="M69.6439 20.5563C67.7075 20.0237 65.5189 20.4707 63.5802 21.2578C61.4627 22.1173 63.6461 21.9527 62.3405 25.2926C61.2735 28.0218 73.3458 21.5752 69.6439 20.5563Z" fill="#020203"/>
<path fill-rule="evenodd" clip-rule="evenodd" d="M76.7202 17.414C76.3527 16.3942 75.7964 15.3768 75.0452 14.497C74.2608 13.5784 73.2455 12.8888 72.0978 12.4579C71.4082 12.2422 70.703 12.1315 70.0059 12.1788C68.9886 12.2478 67.9923 12.5789 67.1116 13.1092C65.6988 13.9592 64.5682 15.2453 63.9446 16.6435C63.8118 16.8682 63.8867 17.1581 64.112 17.2906C64.3373 17.423 64.628 17.3483 64.7608 17.1236C65.5257 16.1147 66.6924 15.3413 67.9681 14.8598C68.5471 14.6413 69.1508 14.5301 69.7607 14.4733C70.3303 14.4208 70.9084 14.4204 71.4789 14.5798C72.3577 14.7633 73.1459 15.1833 73.8364 15.7367C74.6127 16.3592 75.2909 17.0829 75.7936 17.8681C75.9192 18.1236 76.2289 18.2286 76.4845 18.1032C76.7406 17.9779 76.8459 17.669 76.7202 17.414Z" fill="#020203"/>
<path fill-rule="evenodd" clip-rule="evenodd" d="M69.4012 20.6611C72.6972 21.2822 74.6534 25.5861 73.767 30.2665C72.8802 34.9465 69.4846 38.2419 66.1886 37.6208C62.8926 36.9998 60.9364 32.6959 61.8227 28.0159C62.7091 23.3355 66.1052 20.0401 69.4012 20.6611Z" fill="#ECEAE9"/>
<mask id="mask20_651_72194" style="mask-type:alpha" maskUnits="userSpaceOnUse" x="61" y="20" width="13" height="18">
<path fill-rule="evenodd" clip-rule="evenodd" d="M61.8227 28.0159C60.9364 32.6959 62.8926 36.9998 66.1886 37.6208C69.4846 38.2419 72.8802 34.9464 73.767 30.2665C74.6534 25.5861 72.6972 21.2822 69.4012 20.6611C69.1326 20.6105 68.8639 20.5859 68.5954 20.5859C65.5689 20.5863 62.6369 23.7168 61.8227 28.0159Z" fill="white"/>
</mask>
<g mask="url(#mask20_651_72194)">
<path fill-rule="evenodd" clip-rule="evenodd" d="M69.8845 23.2713C72.8803 23.6256 74.7896 27.1249 74.1451 31.0807C73.5011 35.036 70.5456 37.9597 67.5498 37.6054C64.554 37.2507 62.6447 33.7513 63.2892 29.7956C63.9332 25.8403 66.8887 22.9166 69.8845 23.2713Z" fill="#020203"/>
</g>
<mask id="mask21_651_72194" style="mask-type:alpha" maskUnits="userSpaceOnUse" x="63" y="23" width="11" height="15">
<path fill-rule="evenodd" clip-rule="evenodd" d="M63.2814 29.7975C62.6369 33.7533 64.5462 37.2526 67.542 37.6073C67.6182 37.6164 67.6941 37.6232 67.7702 37.6281C70.5068 37.1477 73.0183 34.1951 73.7626 30.2672C73.9587 29.2316 74.0157 28.2144 73.9498 27.2516C73.3303 25.0816 71.8359 23.505 69.8766 23.2733C69.7113 23.2537 69.5465 23.2441 69.3818 23.2441C66.562 23.2443 63.8898 26.0604 63.2814 29.7975Z" fill="white"/>
</mask>
<g mask="url(#mask21_651_72194)">
<path fill-rule="evenodd" clip-rule="evenodd" d="M64.6403 30.1198C63.7051 33.5742 65.3754 35.8258 67.5664 36.5897C68.1948 36.8087 68.8829 36.8914 69.5801 36.8366C70.5172 36.7633 71.4837 36.4416 72.3492 35.8385C73.8037 34.8253 75.032 33.0388 75.3976 30.3857C75.4825 29.9321 75.1823 29.4955 74.7275 29.4108C74.2727 29.3261 73.8345 29.6256 73.7496 30.0792C73.4252 31.422 72.8353 32.4291 72.1476 33.1741C71.339 34.0496 70.3488 34.4739 69.3956 34.56C67.445 34.7369 65.6984 33.2843 66.1835 30.4533C66.276 30.0286 66.0052 29.609 65.5793 29.5168C65.1535 29.425 64.7328 29.6951 64.6403 30.1198Z" fill="#8F1913"/>
</g>
<mask id="mask22_651_72194" style="mask-type:alpha" maskUnits="userSpaceOnUse" x="61" y="20" width="13" height="18">
<path fill-rule="evenodd" clip-rule="evenodd" d="M61.8227 28.0159C60.9364 32.6959 62.8926 36.9998 66.1886 37.6208C69.4846 38.2419 72.8802 34.9464 73.767 30.2665C74.6534 25.5861 72.6972 21.2822 69.4012 20.6611C69.1326 20.6105 68.8639 20.5859 68.5954 20.5859C65.5689 20.5863 62.6369 23.7168 61.8227 28.0159Z" fill="white"/>
</mask>
<g mask="url(#mask22_651_72194)">
<path fill-rule="evenodd" clip-rule="evenodd" d="M65.7175 25.4092C66.2568 24.8799 67.0573 24.781 67.5035 25.1892C67.9498 25.5974 67.8744 26.359 67.3352 26.8883C66.796 27.418 65.9954 27.5164 65.5492 27.1082C65.1024 26.7 65.1778 25.9389 65.7175 25.4092Z" fill="#FEFEFE"/>
</g>
<mask id="mask23_651_72194" style="mask-type:alpha" maskUnits="userSpaceOnUse" x="61" y="20" width="13" height="18">
<path fill-rule="evenodd" clip-rule="evenodd" d="M61.8227 28.0159C60.9364 32.6959 62.8926 36.9998 66.1886 37.6208C69.4846 38.2419 72.8802 34.9464 73.767 30.2665C74.6534 25.5861 72.6972 21.2822 69.4012 20.6611C69.1326 20.6105 68.8639 20.5859 68.5954 20.5859C65.5689 20.5863 62.6369 23.7168 61.8227 28.0159Z" fill="white"/>
</mask>
<g mask="url(#mask23_651_72194)">
<path fill-rule="evenodd" clip-rule="evenodd" d="M69.3717 34.666C69.6724 34.3151 70.1627 34.1779 70.4667 34.3595C70.7712 34.5412 70.774 34.9735 70.4734 35.3245C70.1732 35.675 69.6823 35.8126 69.3783 35.631C69.0744 35.4493 69.0715 35.017 69.3717 34.666Z" fill="#FEFEFE"/>
</g>
<path fill-rule="evenodd" clip-rule="evenodd" d="M69.432 20.5042C67.8836 20.1774 66.2916 20.6835 64.9281 21.7984C64.0645 22.5041 63.2939 23.4567 62.6878 24.5891C62.1533 25.5867 61.7535 26.7271 61.5174 27.9593C61.026 30.5925 61.4111 33.108 62.4137 34.9504C63.2659 36.5165 64.5615 37.6002 66.1389 37.8906C67.711 38.1791 69.3044 37.6333 70.6565 36.4777C72.2429 35.1225 73.4987 32.9259 73.981 30.3073C74.4609 27.6987 74.0744 25.2097 73.0785 23.3872C72.2414 21.8556 70.9747 20.7932 69.4306 20.5108L69.432 20.5042ZM69.3713 20.8125C70.8178 21.0935 71.9896 22.1109 72.7598 23.5569C73.6998 25.3208 74.0412 27.7208 73.5527 30.2268C73.1563 32.2631 72.2766 34.0293 71.136 35.3074C69.7512 36.8594 67.9813 37.69 66.2385 37.3532C64.8252 37.0807 63.6828 36.0841 62.9273 34.6731C61.994 32.9291 61.6511 30.5551 62.1282 28.0742C62.3473 26.9039 62.7319 25.825 63.2261 24.8714C63.781 23.7996 64.4781 22.889 65.2668 22.1984C66.4908 21.1261 67.9277 20.5803 69.3704 20.8192L69.3713 20.8125Z" fill="#020203"/>
<path fill-rule="evenodd" clip-rule="evenodd" d="M75.675 59.0402C82.1987 53.5316 80.3397 46.1039 79.2076 44.2426C78.143 42.492 75.2415 41.7915 73.8302 43.5199C72.2287 45.4805 73.3099 46.839 72.3999 51.3411C71.8431 54.0945 70.1804 55.802 70.1007 57.7584C69.9751 60.8372 73.7382 60.6759 75.675 59.0402Z" fill="black"/>
<mask id="mask24_651_72194" style="mask-type:alpha" maskUnits="userSpaceOnUse" x="70" y="42" width="11" height="19">
<path fill-rule="evenodd" clip-rule="evenodd" d="M73.8263 43.5199C72.2248 45.4805 73.306 46.839 72.396 51.3411C71.8392 54.0945 70.1764 55.802 70.0968 57.7584C69.9711 60.8372 73.7343 60.6759 75.6711 59.0402C82.1948 53.5315 80.3358 46.1039 79.2037 44.2426C78.5666 43.1951 77.2716 42.5235 76.0319 42.5234C75.2 42.5234 74.3931 42.8257 73.8263 43.5199Z" fill="white"/>
</mask>
<g mask="url(#mask24_651_72194)">
<path fill-rule="evenodd" clip-rule="evenodd" d="M70.4648 62.1564C71.8364 57.3629 76.0073 53.84 80.8142 52.7927C81.7874 52.5808 82.8445 52.3292 83.8485 52.4673C83.4691 56.8104 80.2153 59.9115 76.2976 61.5386C75.0532 62.0556 71.8112 62.785 70.4648 62.1564Z" fill="#ED7483"/>
</g>
<path fill-rule="evenodd" clip-rule="evenodd" d="M75.8836 59.2903C78.4625 57.1092 79.76 54.6349 80.3163 52.3105C81.2065 48.5927 80.1925 45.2537 79.4755 44.0764C78.8988 43.1299 77.8308 42.462 76.7116 42.2667C75.562 42.0661 74.3655 42.3599 73.5821 43.3205C72.9233 44.128 72.6876 44.8403 72.5928 45.6837C72.4515 46.9419 72.6497 48.5151 72.0929 51.2789C71.6699 53.3781 70.5948 54.8634 70.0855 56.3203C69.9204 56.7923 69.8118 57.2615 69.7924 57.745C69.734 59.1971 70.4511 60.0054 71.4513 60.3304C72.7758 60.7604 74.6548 60.2892 75.8637 59.2671L75.8836 59.2903ZM75.477 58.8122C74.4223 59.7014 72.7914 60.1342 71.6385 59.7582C70.8759 59.5093 70.3533 58.8774 70.3993 57.7701C70.4168 57.3463 70.5155 56.9352 70.6606 56.5213C71.1799 55.0427 72.265 53.5324 72.6975 51.4011C73.2633 48.6122 73.0688 47.0238 73.2135 45.7543C73.296 45.0267 73.4994 44.4128 74.0685 43.717C74.7021 42.9427 75.6738 42.7256 76.6015 42.8888C77.5428 43.0543 78.4463 43.6096 78.9305 44.4067C79.6039 45.5159 80.5282 48.6623 79.6855 52.1607C79.1534 54.3701 77.9123 56.7186 75.4571 58.789L75.477 58.8122Z" fill="black"/>
<path fill-rule="evenodd" clip-rule="evenodd" d="M117.88 45.1741C120.719 25.7958 88.1956 10.4084 68.1797 10.6245C90.416 -12.4848 133.472 9.68941 117.88 45.1741Z" fill="#FEFEFE"/>
<path fill-rule="evenodd" clip-rule="evenodd" d="M83.2233 10.6906C80.4707 10.0494 77.455 9.51569 74.4688 9.07816C76.533 6.74722 78.493 4.53396 80.3566 2.42969C83.1349 2.82006 85.8399 3.35239 88.4714 4.02638C86.7929 6.19659 85.0796 8.29372 83.2233 10.6906Z" fill="#75151E"/>
<path fill-rule="evenodd" clip-rule="evenodd" d="M91.0712 10.3203C90.571 10.4541 90.0981 10.4494 89.7025 10.3086C88.7525 9.9702 88.5984 8.9704 89.322 8.02906C90.0302 7.10802 91.3149 6.63218 92.2721 6.95141C92.6686 7.08404 92.9506 7.33403 93.0832 7.67445C93.0857 7.68017 93.0883 7.6858 93.0908 7.69157C93.5106 7.5448 93.9292 7.39949 94.3468 7.25551C94.3442 7.24841 94.3417 7.24136 94.3391 7.23432C94.1418 6.64977 93.6589 6.20675 92.9913 5.9885C91.4367 5.48319 89.3196 6.24313 88.2184 7.67256C87.0786 9.15237 87.3439 10.8064 88.8782 11.3617C89.5435 11.6017 90.3792 11.5955 91.2303 11.341C91.24 11.338 91.2498 11.335 91.2596 11.332C91.207 10.9901 91.1526 10.6507 91.0961 10.3139C91.0878 10.3161 91.0795 10.3181 91.0712 10.3203ZM91.8359 12.2669C92.1904 12.4058 92.5445 12.5469 92.8983 12.6901C94.2587 10.9119 95.5514 9.18201 96.7733 7.50349C96.4221 7.36967 96.0701 7.23832 95.7171 7.10938C94.4956 8.77654 93.2006 10.4968 91.8359 12.2669ZM98.532 12.5511C98.5642 12.4737 99.1178 8.42751 99.0973 8.42084C98.7563 8.27794 98.4144 8.13769 98.0716 8C96.8509 9.69176 95.5625 11.4327 94.209 13.22C94.5634 13.3698 94.9176 13.5219 95.271 13.6766C96.0819 12.5966 96.8697 11.533 97.6343 10.486C97.6291 10.6641 97.0816 14.5589 97.0681 14.5479C97.0699 14.5407 101.067 12.2393 101.24 12.1472C100.489 13.21 99.7165 14.2872 98.924 15.3785C99.2779 15.5539 99.6312 15.7323 99.9838 15.9137C101.289 14.0964 102.541 12.3158 103.738 10.574C103.403 10.4021 103.067 10.2336 102.729 10.0681C102.731 10.0613 98.6224 12.491 98.532 12.5511ZM104.002 16.7384C103.661 16.5396 103.318 16.344 102.975 16.1517C103.273 15.7223 103.569 15.2948 103.862 14.8691C104.202 15.0608 104.542 15.2558 104.881 15.4542C105.357 15.7345 105.303 16.1655 105.094 16.473C104.882 16.7853 104.483 17.0183 104.002 16.7384ZM105.323 12.7266C105.638 12.9045 105.951 13.0854 106.264 13.2694C106.658 13.5022 106.748 13.862 106.504 14.2263C106.261 14.5914 105.878 14.6679 105.48 14.4346C105.166 14.2498 104.85 14.068 104.533 13.8892C104.799 13.5 105.062 13.1124 105.323 12.7266ZM106.235 15.5384C106.552 15.5447 107.167 15.4119 107.56 14.8157C108.162 13.9023 107.941 12.9483 106.97 12.371C106.296 11.9722 105.617 11.5883 104.934 11.2188C103.746 12.969 102.506 14.7555 101.215 16.5765C101.95 16.9712 102.682 17.3796 103.411 17.8023C104.41 18.3787 105.44 18.1474 106.101 17.1628C106.59 16.4342 106.409 15.8444 106.235 15.5384Z" fill="#7C1710"/>
<path fill-rule="evenodd" clip-rule="evenodd" d="M80.4468 3.63672C81.9281 3.86712 83.3874 4.13868 84.8247 4.45143C84.9876 5.30408 85.1466 6.18326 85.3013 7.08987C83.939 7.7071 82.5478 8.34477 81.1269 9.00367C79.6225 8.66301 78.0932 8.36804 76.5391 8.11876C77.9383 7.4144 79.3082 6.73062 80.6496 6.06647C80.5865 5.23383 80.5188 4.42418 80.4468 3.63672Z" fill="#E5292B"/>
<path fill-rule="evenodd" clip-rule="evenodd" d="M85.2998 7.08987C85.1451 6.18326 84.9861 5.30408 84.8232 4.45143C83.386 4.13868 81.9267 3.86707 80.4453 3.63672C80.5174 4.42418 80.585 5.23388 80.6481 6.06647" fill="#FEFEFE"/>
<mask id="mask25_651_72194" style="mask-type:alpha" maskUnits="userSpaceOnUse" x="68" y="1" width="54" height="45">
<path fill-rule="evenodd" clip-rule="evenodd" d="M68.1797 10.6245C88.1956 10.4084 120.719 25.7958 117.88 45.1741C129.052 19.7496 110.119 1.15822 90.3048 1.16016C82.4646 1.16091 74.4839 4.07285 68.1797 10.6245Z" fill="white"/>
</mask>
<g mask="url(#mask25_651_72194)">
<path fill-rule="evenodd" clip-rule="evenodd" d="M119.204 45.1246C126.164 34.3013 124.229 21.6189 119.264 15.0484C117.744 13.0367 114.64 8.95034 111.303 6.5957C115.823 12.2912 110.773 26.2346 106.715 27.9965C108.941 34.6423 113.512 41.1012 119.204 45.1246Z" fill="#C7C5C5"/>
</g>
<path fill-rule="evenodd" clip-rule="evenodd" d="M117.879 45.1741C120.719 25.7958 88.1956 10.4084 68.1797 10.6245C90.416 -12.4848 133.472 9.68941 117.879 45.1741Z" stroke="#020203" stroke-width="0.774328" stroke-linecap="round" stroke-linejoin="round"/>
<path fill-rule="evenodd" clip-rule="evenodd" d="M107.596 24.6623C109.651 20.4071 111.071 16.6646 111.273 13.5149C111.366 12.0703 111.213 10.7449 110.743 9.55721C110.595 9.18069 110.413 8.81837 110.198 8.47212C109.726 7.71578 109.097 7.03418 108.301 6.42163C108.23 6.3625 108.124 6.37196 108.065 6.44291C108.006 6.51387 108.016 6.61935 108.087 6.67847C108.481 7.03418 108.819 7.40927 109.116 7.79714C109.589 8.41252 109.937 9.06859 110.189 9.76627C110.595 10.8892 110.736 12.1223 110.642 13.4728C110.425 16.5563 109.032 20.2174 107.016 24.3837C106.939 24.5431 107.007 24.7351 107.166 24.8122C107.327 24.8888 107.519 24.8217 107.596 24.6623Z" fill="#020203"/>
<path fill-rule="evenodd" clip-rule="evenodd" d="M110.22 27.0783C102.436 28.2684 91.7677 18.2818 79.4848 13.6118C68.4131 9.40198 61.5622 10.708 59.6211 11.5589C73.3439 6.51095 99.9954 16.7776 110.22 27.0783Z" fill="#FEFEFE"/>
<mask id="mask26_651_72194" style="mask-type:alpha" maskUnits="userSpaceOnUse" x="59" y="10" width="52" height="18">
<path fill-rule="evenodd" clip-rule="evenodd" d="M60.8066 11.1697C63.6873 10.4419 70.0553 10.0264 79.4849 13.6118C91.7678 18.2818 102.436 28.2684 110.22 27.0784C101.848 18.6437 82.4626 10.2318 68.179 10.2324C65.5088 10.2326 63.0149 10.5268 60.8066 11.1697ZM59.6211 11.5591C60.0064 11.4174 60.4015 11.2878 60.8065 11.1699C60.3049 11.2966 59.909 11.4329 59.6211 11.5591Z" fill="white"/>
</mask>
<g mask="url(#mask26_651_72194)">
<path fill-rule="evenodd" clip-rule="evenodd" d="M86.2266 18.6406C92.7607 20.6041 99.3641 22.4867 106.178 22.5264C108.541 22.5406 110.457 25.1738 112.247 26.8965C103.525 30.5131 93.1031 24.5537 86.2266 18.6406Z" fill="#C8C6C5"/>
</g>
<path fill-rule="evenodd" clip-rule="evenodd" d="M110.224 27.0783C102.44 28.2684 91.7716 18.2818 79.4887 13.6118C68.417 9.40198 61.5661 10.708 59.625 11.5589C73.3478 6.51095 99.9993 16.7776 110.224 27.0783Z" stroke="#020203" stroke-width="0.774328" stroke-linecap="round" stroke-linejoin="round"/>
<path fill-rule="evenodd" clip-rule="evenodd" d="M64.8007 101.36C63.8186 98.3145 64.1875 95.8824 65.2802 93.767C66.2614 91.8667 67.8188 90.2213 69.4986 88.6145C70.5846 87.5761 71.7247 86.5576 72.7946 85.4962C73.5254 84.771 74.2268 84.0287 74.8542 83.2469C75.8316 82.0284 76.6312 80.7206 77.1415 79.2802C77.1728 79.199 77.1315 79.1079 77.0504 79.0768C76.9689 79.0458 76.8773 79.0865 76.8465 79.1678C76.2817 80.5389 75.4257 81.7528 74.4355 82.9003C73.7933 83.6447 73.0948 84.361 72.3678 85.0623C71.01 86.3732 69.5621 87.6369 68.2395 88.9479C66.8215 90.3534 65.5529 91.8198 64.6988 93.4677C63.5307 95.721 63.1281 98.3139 64.1733 101.561C64.2288 101.734 64.4147 101.829 64.5878 101.774C64.7609 101.718 64.8567 101.533 64.8007 101.36Z" fill="black"/>
<path fill-rule="evenodd" clip-rule="evenodd" d="M78.3243 96.2281C77.5735 96.238 75.9071 95.9747 74.7703 95.1251C74.4463 94.8834 74.1708 94.593 73.9617 94.247C73.8398 94.0461 73.7321 93.834 73.66 93.5915C73.6141 93.4368 73.5728 93.2779 73.551 93.1035C73.5505 93.0165 73.4789 92.9465 73.3917 92.9473C73.3044 92.9479 73.2342 93.0191 73.2351 93.1061C73.2091 93.3573 73.2148 93.5917 73.2475 93.8173C73.2835 94.0674 73.3556 94.2996 73.4571 94.5155C73.6653 94.9587 73.9996 95.3224 74.3838 95.6254C75.6249 96.604 77.4948 96.8912 78.3309 96.8855C78.513 96.8837 78.6591 96.735 78.6572 96.5535C78.6552 96.3721 78.5064 96.2263 78.3243 96.2281Z" fill="black"/>
<path fill-rule="evenodd" clip-rule="evenodd" d="M111.205 90.2486C109.421 89.6432 106.771 89.2236 103.791 88.2184C102.309 87.7185 100.743 87.074 99.1642 86.181C98.6031 85.8665 98.0521 85.463 97.5441 84.998C97.216 84.6974 96.9068 84.3706 96.6256 84.023C95.9104 83.1401 95.3774 82.1208 95.2375 81.022C95.2294 80.9353 95.1521 80.8715 95.0653 80.8796C94.9785 80.8876 94.9145 80.9645 94.9226 81.0511C94.9927 82.235 95.4722 83.374 96.1883 84.3571C96.4695 84.7438 96.7906 85.1037 97.134 85.4334C97.6661 85.9446 98.2574 86.3781 98.8545 86.7226C100.467 87.6452 102.066 88.3169 103.582 88.8336C106.558 89.8477 109.209 90.2638 110.992 90.8709C111.164 90.9295 111.352 90.8375 111.411 90.6658C111.469 90.4941 111.377 90.3071 111.205 90.2486Z" fill="black"/>
<path fill-rule="evenodd" clip-rule="evenodd" d="M87.7041 93.0391C87.1202 92.2211 86.654 91.3273 86.2842 90.3287C85.9811 89.5107 85.7611 88.6192 85.5671 87.6438C85.5192 87.4036 85.469 87.1602 85.4187 86.9106C85.3461 86.5505 85.2679 86.1853 85.2024 85.8011C85.1953 85.7144 85.1194 85.6497 85.0321 85.6568C84.9454 85.6637 84.8804 85.7398 84.8875 85.8265C84.8837 86.0439 84.8804 86.2548 84.8852 86.4652C84.8927 86.7939 84.9089 87.1119 84.9406 87.4233C84.9743 87.7503 85.0265 88.0665 85.0839 88.3744C85.1749 88.8659 85.2911 89.3339 85.4229 89.7823C85.8279 91.1599 86.408 92.3486 87.1662 93.4196C87.2716 93.5676 87.4774 93.6024 87.6258 93.4975C87.7742 93.3925 87.8093 93.1871 87.7041 93.0391Z" fill="black"/>
<path fill-rule="evenodd" clip-rule="evenodd" d="M36.992 87.2253C36.0974 84.7449 34.0615 84.2657 32.4559 84.8948C31.9233 85.1035 31.4353 85.4357 31.0584 85.8629C30.8056 86.1495 30.5991 86.4766 30.464 86.8355C30.3326 87.1841 30.2605 87.5598 30.2753 87.9526C30.2943 88.4565 30.4452 88.9838 30.7652 89.5153C30.7927 89.5696 30.8591 89.5914 30.9135 89.564C30.9679 89.5366 30.9898 89.4703 30.9623 89.416C30.8243 89.081 30.7541 88.7582 30.7256 88.4483C30.6786 87.9358 30.7782 87.4675 30.976 87.0507C31.0778 86.8363 31.2072 86.6382 31.3562 86.455C31.7043 86.0274 32.1717 85.6957 32.6901 85.5C34.0076 85.0024 35.6443 85.4204 36.3714 87.4473C36.4328 87.6182 36.6217 87.7071 36.7928 87.6458C36.964 87.5845 37.0532 87.3961 36.992 87.2253Z" fill="black"/>
<path fill-rule="evenodd" clip-rule="evenodd" d="M70.6307 62.3146C70.7882 62.4584 70.939 62.5767 71.1031 62.6802C71.1785 62.728 71.2543 62.7672 71.3331 62.8032C71.5133 62.886 71.6978 62.9456 71.8865 62.9801C72.0008 63.0009 72.1165 63.008 72.2327 63.0094C72.403 63.0113 72.5718 63.0009 72.7444 62.9768C73.1342 62.9215 73.5217 62.8132 73.9433 62.6774C74.0031 62.6665 74.0429 62.6088 74.0315 62.5492C74.0206 62.4891 73.9627 62.4498 73.903 62.4608C73.4349 62.4872 73.0147 62.4768 72.6036 62.4352C72.4177 62.4167 72.2393 62.3822 72.0577 62.3501C71.9396 62.3293 71.8215 62.3103 71.702 62.2872C71.5541 62.2583 71.4061 62.2318 71.2515 62.1911C71.0993 62.1509 70.9489 62.1168 70.7886 62.0573C70.7175 62.0138 70.6245 62.0365 70.5809 62.1074C70.5373 62.1784 70.5596 62.2711 70.6307 62.3146Z" fill="black"/>
<path fill-rule="evenodd" clip-rule="evenodd" d="M63.4746 53.2365C62.9088 58.8606 61.0588 66.5602 57.3151 70.9584C56.9832 71.3488 56.6057 71.796 56.0897 71.9379C54.3061 72.4288 49.1102 70.0495 49.1605 67.7451C49.1928 66.2707 51.4644 64.1332 52.3071 62.9464C54.3805 60.027 58.939 54.9819 54.9904 52.9238L63.4746 53.2365Z" fill="#75151E"/>
<mask id="mask27_651_72194" style="mask-type:alpha" maskUnits="userSpaceOnUse" x="49" y="52" width="15" height="21">
<path fill-rule="evenodd" clip-rule="evenodd" d="M52.3032 62.9484C51.4605 64.1351 49.1889 66.2727 49.1566 67.747C49.1063 70.0515 54.3022 72.4307 56.0858 71.9398C56.6018 71.7979 56.9793 71.3507 57.3112 70.9604C61.0549 66.5622 62.9049 58.8625 63.4707 53.2384L54.9865 52.9258C58.935 54.9838 54.3766 60.029 52.3032 62.9484Z" fill="white"/>
</mask>
<g mask="url(#mask27_651_72194)">
<path fill-rule="evenodd" clip-rule="evenodd" d="M48.5337 67.371C50.7328 70.6948 55.1641 71.3276 57.1839 67.6694C58.1903 65.8465 58.5621 63.7699 59.0164 61.7407C59.9066 57.7656 59.5115 56.5083 55.4439 55.5088C55.461 53.9791 55.2794 52.2999 55.8774 50.8511C58.444 50.6761 62.3309 50.2438 64.4754 51.9651C68.4947 55.191 65.9783 65.3289 64.0282 68.9968C62.8312 71.2477 61.0699 73.4162 58.8485 74.7198C57.5306 75.4933 55.6113 76.282 54.0269 76.1571C50.242 75.8586 47.6734 71.2543 48.5337 67.371Z" fill="#C8C6C5"/>
</g>
<mask id="mask28_651_72194" style="mask-type:alpha" maskUnits="userSpaceOnUse" x="49" y="52" width="15" height="21">
<path fill-rule="evenodd" clip-rule="evenodd" d="M52.3032 62.9484C51.4605 64.1351 49.1889 66.2727 49.1566 67.747C49.1063 70.0515 54.3022 72.4307 56.0858 71.9398C56.6018 71.7979 56.9793 71.3507 57.3112 70.9604C61.0549 66.5622 62.9049 58.8625 63.4707 53.2384L54.9865 52.9258C58.935 54.9838 54.3766 60.029 52.3032 62.9484Z" fill="white"/>
</mask>
<g mask="url(#mask28_651_72194)">
<path fill-rule="evenodd" clip-rule="evenodd" d="M56.4035 56.2852C56.3636 61.204 58.7358 63.2105 57.2604 65.6313C56.6135 66.6938 55.1756 66.7968 54.0915 66.4899C52.1481 65.9397 51.2337 64.1116 51.1953 62.2205C52.4715 61.0555 55.0936 57.4123 56.4035 56.2852Z" fill="#C8C6C5"/>
</g>
<path fill-rule="evenodd" clip-rule="evenodd" d="M63.4707 53.2384C62.9049 58.8625 61.0549 66.5622 57.3112 70.9604C56.9793 71.3507 56.6018 71.7979 56.0858 71.9399C54.3022 72.4307 49.1063 70.0515 49.1566 67.747C49.1889 66.2727 51.4605 64.1351 52.3032 62.9484C54.3766 60.029 58.935 54.9838 54.9865 52.9258L63.4707 53.2384Z" stroke="black" stroke-width="0.792867" stroke-linecap="round" stroke-linejoin="round"/>
<path fill-rule="evenodd" clip-rule="evenodd" d="M50.1155 61.1384C50.7505 63.959 53.5946 65.9626 55.7638 64.501C57.7822 63.1411 55.5134 59.5817 56.5572 55.2726C53.9384 54.4042 49.0618 56.4589 50.1155 61.1384Z" fill="#E52B31"/>
<path fill-rule="evenodd" clip-rule="evenodd" d="M49.7987 61.2076C50.1867 62.9232 51.3486 64.3498 52.6983 64.9704C53.752 65.4548 54.9191 65.459 55.9483 64.7637C56.5984 64.3247 56.873 63.6937 56.9404 62.8943C57.012 62.0472 56.8403 60.9942 56.7089 59.7918C56.5648 58.4708 56.4737 56.9609 56.864 55.3428C56.902 55.1862 56.8133 55.0268 56.6601 54.9762C55.1558 54.4791 52.9472 54.8816 51.4211 56.1539C50.1274 57.2324 49.3131 58.9239 49.8286 61.2009L49.7987 61.2076ZM56.193 55.4884C54.8732 55.1729 53.0796 55.5683 51.8105 56.6222C50.668 57.5705 49.9605 59.0638 50.4105 61.0718L50.4404 61.0652C50.7178 62.3044 51.4486 63.3781 52.3582 64.0266C53.3461 64.7315 54.5512 64.9306 55.5874 64.2343C56.0692 63.9103 56.2523 63.4331 56.3035 62.8418C56.3737 62.0278 56.2034 61.016 56.0796 59.8604C55.9402 58.5553 55.8563 57.0744 56.193 55.4884Z" fill="#020203"/>
<path fill-rule="evenodd" clip-rule="evenodd" d="M37.3899 60.1546C47.367 53.899 58.3439 52.3395 70.0269 54.3238C73.7706 54.96 75.6533 46.8086 71.5198 45.9482C63.4724 44.2738 48.1401 36.5226 42.4084 28.752C40.1785 25.7295 36.1673 32.7049 35.6692 34.0568C33.4377 40.1127 32.3649 48.3251 32.8819 54.75C33.0063 56.2962 34.0245 62.2646 37.3899 60.1546Z" fill="#A5D2D9"/>
<mask id="mask29_651_72194" style="mask-type:alpha" maskUnits="userSpaceOnUse" x="32" y="28" width="42" height="33">
<path fill-rule="evenodd" clip-rule="evenodd" d="M35.6692 34.0568C33.4377 40.1127 32.3649 48.3251 32.8819 54.75C33.0063 56.2962 34.0245 62.2647 37.3899 60.1546C47.3671 53.899 58.3439 52.3395 70.0269 54.3238C73.7706 54.96 75.6533 46.8086 71.5198 45.9482C63.4724 44.2738 48.1401 36.5226 42.4084 28.752C42.0179 28.2227 41.5728 28 41.1015 28C38.8814 28 36.0801 32.9417 35.6692 34.0568Z" fill="white"/>
</mask>
<g mask="url(#mask29_651_72194)">
<path fill-rule="evenodd" clip-rule="evenodd" d="M64.7707 43.8058C67.9367 45.1643 66.1327 53.7011 62.8125 53.5559C66.2076 54.1869 68.8989 56.568 72.3353 56.9351C76.3977 57.3693 76.4299 46.8643 73.7652 43.6535C70.8775 43.4936 67.6327 44.1809 64.7707 43.8058Z" fill="#75151E"/>
</g>
<mask id="mask30_651_72194" style="mask-type:alpha" maskUnits="userSpaceOnUse" x="32" y="28" width="42" height="33">
<path fill-rule="evenodd" clip-rule="evenodd" d="M35.6692 34.0568C33.4377 40.1127 32.3649 48.3251 32.8819 54.75C33.0063 56.2962 34.0245 62.2647 37.3899 60.1546C47.3671 53.899 58.3439 52.3395 70.0269 54.3238C73.7706 54.96 75.6533 46.8086 71.5198 45.9482C63.4724 44.2738 48.1401 36.5226 42.4084 28.752C42.0179 28.2227 41.5728 28 41.1015 28C38.8814 28 36.0801 32.9417 35.6692 34.0568Z" fill="white"/>
</mask>
<g mask="url(#mask30_651_72194)">
<path fill-rule="evenodd" clip-rule="evenodd" d="M64.7707 43.8058C67.9367 45.1643 66.1327 53.7011 62.8125 53.5559C66.2076 54.1869 68.8989 56.568 72.3353 56.9351C76.3977 57.3693 76.4299 46.8643 73.7652 43.6535C70.8775 43.4936 67.6327 44.1809 64.7707 43.8058Z" stroke="black" stroke-width="0.792867" stroke-linecap="round" stroke-linejoin="round"/>
</g>
<mask id="mask31_651_72194" style="mask-type:alpha" maskUnits="userSpaceOnUse" x="32" y="28" width="42" height="33">
<path fill-rule="evenodd" clip-rule="evenodd" d="M35.6692 34.0568C33.4377 40.1127 32.3649 48.3251 32.8819 54.75C33.0063 56.2962 34.0245 62.2647 37.3899 60.1546C47.3671 53.899 58.3439 52.3395 70.0269 54.3238C73.7706 54.96 75.6533 46.8086 71.5198 45.9482C63.4724 44.2738 48.1401 36.5226 42.4084 28.752C42.0179 28.2227 41.5728 28 41.1015 28C38.8814 28 36.0801 32.9417 35.6692 34.0568Z" fill="white"/>
</mask>
<g mask="url(#mask31_651_72194)">
<path fill-rule="evenodd" clip-rule="evenodd" d="M36.12 52.6826C48.4197 47.8612 63.4528 48.8082 75.9477 52.6277C74.1375 57.1582 68.7928 57.9699 64.5938 59.2754C56.6331 61.7502 42.0113 67.4173 33.3828 65.4799L36.12 52.6826Z" fill="#C8C6C5"/>
</g>
<path fill-rule="evenodd" clip-rule="evenodd" d="M63.4143 53.2401C62.8491 58.8589 61.0008 66.5513 57.2606 70.9454C56.929 71.3354 56.5518 71.7822 56.0363 71.924C54.2544 72.4144 49.0634 70.0374 49.1136 67.7351C49.1459 66.2621 51.4154 64.1266 52.2573 62.9409C54.3288 60.0242 58.8829 54.9839 54.9381 52.9277L63.4143 53.2401Z" fill="#75151E"/>
<mask id="mask32_651_72194" style="mask-type:alpha" maskUnits="userSpaceOnUse" x="49" y="52" width="15" height="20">
<path fill-rule="evenodd" clip-rule="evenodd" d="M52.2573 62.9409C51.4154 64.1266 49.1459 66.2621 49.1136 67.7351C49.0634 70.0374 54.2544 72.4144 56.0363 71.924C56.5518 71.7822 56.929 71.3354 57.2606 70.9454C61.0008 66.5513 62.8491 58.8589 63.4144 53.2401L54.9381 52.9277C58.8829 54.9839 54.3288 60.0242 52.2573 62.9409Z" fill="white"/>
</mask>
<g mask="url(#mask32_651_72194)">
<path fill-rule="evenodd" clip-rule="evenodd" d="M48.4945 67.3592C50.6915 70.6799 55.1187 71.3122 57.1366 67.6574C58.142 65.8361 58.5135 63.7616 58.9674 61.7343C59.8567 57.7628 59.462 56.5067 55.3982 55.5082C55.4153 53.9799 55.2338 52.3023 55.8313 50.8549C58.3955 50.68 62.2787 50.2481 64.4213 51.9678C68.4367 55.1907 65.9227 65.3191 63.9745 68.9835C62.7786 71.2323 61.0189 73.3988 58.7996 74.7012C57.483 75.4739 55.5655 76.2619 53.9825 76.1371C50.2011 75.8389 47.635 71.2389 48.4945 67.3592Z" fill="#612322"/>
</g>
<path fill-rule="evenodd" clip-rule="evenodd" d="M63.4182 53.2401C62.853 58.8589 61.0047 66.5513 57.2645 70.9454C56.9329 71.3354 56.5557 71.7822 56.0402 71.924C54.2583 72.4144 49.0673 70.0374 49.1175 67.7351C49.1498 66.2621 51.4193 64.1266 52.2612 62.9409C54.3327 60.0242 58.8868 54.9839 54.942 52.9277L63.4182 53.2401Z" stroke="black" stroke-width="0.819128" stroke-linecap="round" stroke-linejoin="round"/>
<path fill-rule="evenodd" clip-rule="evenodd" d="M37.3582 60.1498C47.326 53.9001 58.2926 52.3421 69.9646 54.3245C73.7048 54.9601 75.5858 46.8164 71.4561 45.9568C63.4162 44.2839 48.0983 36.54 42.372 28.7767C40.1442 25.757 36.1367 32.7259 35.6391 34.0765C33.4097 40.1267 32.3379 48.3314 32.8545 54.7503C32.9787 56.2951 33.9959 62.2579 37.3582 60.1498Z" fill="#A5D2D9"/>
<path fill-rule="evenodd" clip-rule="evenodd" d="M65.4915 47.4704C65.6727 47.5259 65.8416 47.6097 66.0218 47.6669C66.0265 47.6684 66.0312 47.6697 66.0358 47.6711C66.053 47.1797 66.0252 46.709 65.9516 46.2773C65.8644 46.2509 65.7766 46.226 65.6875 46.2045C65.4416 46.1452 65.2072 46.0435 64.9694 45.9558C64.6479 45.8373 64.3224 45.7298 64.0027 45.6064C63.5825 45.4442 63.1609 45.2858 62.7423 45.1198C62.2643 44.9302 61.7861 44.7413 61.313 44.5394C61.0624 44.4324 60.8111 44.3269 60.561 44.2188C60.1968 44.0614 59.8293 43.9124 59.4702 43.7429C59.111 43.5734 58.7446 43.4188 58.386 43.2474C58.0036 43.0648 57.6183 42.8883 57.2368 42.7038C57.0053 42.5917 56.7681 42.4903 56.5451 42.3609C56.5189 42.3457 56.4916 42.3314 56.463 42.3221C56.3468 42.2839 56.2452 42.2173 56.1379 42.1615C55.9028 42.0394 55.666 41.9207 55.4302 41.7998C55.2586 41.712 55.0928 41.6137 54.9169 41.5333C54.7969 41.4784 54.6857 41.4045 54.5695 41.3411C54.2938 41.1907 54.0158 41.0443 53.7417 40.891C53.3783 40.6878 53.0167 40.4817 52.6563 40.2733C52.2599 40.044 51.864 39.8136 51.4711 39.5782C51.1597 39.3915 50.8524 39.1977 50.5447 39.0048C50.2529 38.8218 49.9601 38.6399 49.6726 38.4503C49.1387 38.0981 48.6026 37.749 48.0778 37.3831C47.752 37.1559 47.4248 36.9303 47.1038 36.6964C46.6816 36.3889 46.2569 36.0848 45.8451 35.7633C45.6483 35.6097 45.4454 35.4639 45.25 35.3085C44.8653 35.0026 44.4842 34.6923 44.1012 34.3842C44.0138 34.3137 43.927 34.2427 43.8398 34.1719C43.9322 35.5091 43.9476 36.9644 43.8877 38.4976C44.309 38.739 44.7325 38.9768 45.158 39.2111C45.4828 39.3901 45.8108 39.5633 46.137 39.7395C46.4933 39.932 46.8524 40.1198 47.2151 40.2997C47.6527 40.5168 48.0876 40.7391 48.5288 40.9491C49.0962 41.2193 49.6629 41.4908 50.2348 41.7515C50.6171 41.9258 50.9988 42.1016 51.3822 42.2734C51.6655 42.4003 51.95 42.5249 52.2361 42.6453C52.9622 42.9506 53.6876 43.2578 54.417 43.5551C55.2483 43.8938 56.0848 44.2196 56.9249 44.5364C57.5486 44.7716 58.1729 45.005 58.7999 45.2315C59.3483 45.4296 59.8969 45.6279 60.4487 45.8166C61.2336 46.0852 62.0185 46.3539 62.8069 46.6122C63.6998 46.9047 64.5931 47.1955 65.4915 47.4704Z" fill="#D3E3E9"/>
<mask id="mask33_651_72194" style="mask-type:alpha" maskUnits="userSpaceOnUse" x="32" y="28" width="42" height="33">
<path fill-rule="evenodd" clip-rule="evenodd" d="M35.6391 34.0765C33.4097 40.1267 32.3379 48.3314 32.8545 54.7503C32.9787 56.2951 33.996 62.2579 37.3582 60.1498C47.326 53.9002 58.2926 52.3421 69.9646 54.3246C73.7047 54.9601 75.5857 46.8164 71.4561 45.9568C63.4162 44.2839 48.0983 36.54 42.3719 28.7767C41.9818 28.2479 41.5371 28.0254 41.0663 28.0254C38.8483 28.0254 36.0495 32.9624 35.6391 34.0765Z" fill="white"/>
</mask>
<g mask="url(#mask33_651_72194)">
<path fill-rule="evenodd" clip-rule="evenodd" d="M36.0861 52.6874C48.3744 47.8705 63.3933 48.8166 75.8765 52.6325C74.068 57.1588 68.7283 57.9697 64.5333 59.274C56.5801 61.7464 41.9719 67.4082 33.3516 65.4726L36.0861 52.6874Z" fill="#98B0B2"/>
</g>
<mask id="mask34_651_72194" style="mask-type:alpha" maskUnits="userSpaceOnUse" x="32" y="28" width="42" height="33">
<path fill-rule="evenodd" clip-rule="evenodd" d="M35.6391 34.0765C33.4097 40.1267 32.3379 48.3314 32.8545 54.7503C32.9787 56.2951 33.996 62.2579 37.3582 60.1498C47.326 53.9002 58.2926 52.3421 69.9646 54.3246C73.7047 54.9601 75.5857 46.8164 71.4561 45.9568C63.4162 44.2839 48.0983 36.54 42.3719 28.7767C41.9818 28.2479 41.5371 28.0254 41.0663 28.0254C38.8483 28.0254 36.0495 32.9624 35.6391 34.0765Z" fill="white"/>
</mask>
<g mask="url(#mask34_651_72194)">
<path fill-rule="evenodd" clip-rule="evenodd" d="M64.7141 43.8173C67.8772 45.1745 66.0749 53.7034 62.7578 53.5583C66.1497 54.1887 68.8386 56.5676 72.2717 56.9343C76.3303 57.3681 76.3625 46.8729 73.7002 43.6652C70.8152 43.5054 67.5735 44.1921 64.7141 43.8173Z" fill="#75151E"/>
</g>
<mask id="mask35_651_72194" style="mask-type:alpha" maskUnits="userSpaceOnUse" x="32" y="28" width="42" height="33">
<path fill-rule="evenodd" clip-rule="evenodd" d="M35.6391 34.0765C33.4097 40.1268 32.3379 48.3314 32.8545 54.7503C32.9787 56.2951 33.996 62.2579 37.3582 60.1498C47.326 53.9002 58.2926 52.3421 69.9646 54.3246C73.7047 54.9601 75.5857 46.8164 71.4561 45.9568C63.4162 44.2839 48.0983 36.54 42.3719 28.7767C41.9818 28.2479 41.5371 28.0254 41.0663 28.0254C38.8483 28.0254 36.0495 32.9624 35.6391 34.0765Z" fill="white"/>
</mask>
<g mask="url(#mask35_651_72194)">
<path fill-rule="evenodd" clip-rule="evenodd" d="M64.7141 43.8173C67.8772 45.1745 66.0749 53.7034 62.7578 53.5583C66.1497 54.1887 68.8386 56.5676 72.2717 56.9343C76.3303 57.3681 76.3625 46.8729 73.7002 43.6652C70.8152 43.5054 67.5735 44.1921 64.7141 43.8173Z" stroke="black" stroke-width="0.819128" stroke-linecap="round" stroke-linejoin="round"/>
</g>
<path fill-rule="evenodd" clip-rule="evenodd" d="M37.3582 60.1479C47.326 53.8982 58.2926 52.3401 69.9646 54.3225C73.7048 54.9581 75.5858 46.8144 71.4561 45.9548C63.4162 44.2819 48.0983 36.538 42.372 28.7747C40.1442 25.755 36.1367 32.7239 35.6391 34.0745C33.4097 40.1248 32.3379 48.3295 32.8545 54.7483C32.9787 56.2931 33.9959 62.2559 37.3582 60.1479Z" stroke="black" stroke-width="0.819128" stroke-linecap="round" stroke-linejoin="round"/>
<path fill-rule="evenodd" clip-rule="evenodd" d="M40.7317 27.2034C43.3689 27.6046 44.3558 35.4809 42.9339 44.7805C41.512 54.0806 38.2163 61.3056 35.5792 60.9044C32.9419 60.5033 31.9552 52.6274 33.3771 43.3274C34.799 34.0273 38.0945 26.8022 40.7317 27.2034Z" fill="#A5D2D9"/>
<mask id="mask36_651_72194" style="mask-type:alpha" maskUnits="userSpaceOnUse" x="32" y="27" width="12" height="34">
<path fill-rule="evenodd" clip-rule="evenodd" d="M33.3771 43.3274C31.9552 52.6274 32.9419 60.5033 35.5791 60.9044C38.2163 61.3057 41.5121 54.0806 42.9339 44.7805C44.3558 35.4809 43.3688 27.6047 40.7317 27.2034C40.6615 27.1927 40.5913 27.1875 40.5202 27.1875C37.9208 27.1883 34.7612 34.2748 33.3771 43.3274Z" fill="white"/>
</mask>
<g mask="url(#mask36_651_72194)">
<path fill-rule="evenodd" clip-rule="evenodd" d="M50.2128 53.8448C47.4179 49.656 42.9087 47.9524 37.8438 46.874C36.7508 46.6415 37.2354 42.3601 38.5161 42.4678C42.035 42.7632 50.2829 42.0898 53.9615 39.6244C55.3924 38.6656 55.7022 42.2618 55.6525 42.9163C55.4279 45.8495 54.3529 49.5322 52.977 52.2083C52.6458 52.8524 51.1557 55.2574 50.2128 53.8448Z" fill="#A5D2D9"/>
</g>
<mask id="mask37_651_72194" style="mask-type:alpha" maskUnits="userSpaceOnUse" x="37" y="42" width="7" height="7">
<path fill-rule="evenodd" clip-rule="evenodd" d="M38.5122 42.4687C37.2316 42.3609 36.7468 46.6424 37.8399 46.8749C39.3992 47.2069 40.9058 47.5981 42.3259 48.1029C42.5524 47.0337 42.7553 45.9226 42.9299 44.7805C43.0525 43.979 43.157 43.1885 43.2443 42.4121C41.3724 42.558 39.6812 42.5668 38.5122 42.4687Z" fill="white"/>
</mask>
<g mask="url(#mask37_651_72194)">
<path fill-rule="evenodd" clip-rule="evenodd" d="M37.1687 44.7227C39.7589 44.9745 42.2914 45.5525 44.8589 45.9542C47.6775 46.3951 50.5166 46.7216 53.3267 47.214C52.7325 48.6705 51.8465 50.014 51.3481 51.5073C48.9284 50.7932 46.3883 50.427 43.9165 49.9393C41.2301 49.4096 38.5735 48.722 35.9141 48.0746L37.1687 44.7227Z" fill="#98B0B2"/>
</g>
<mask id="mask38_651_72194" style="mask-type:alpha" maskUnits="userSpaceOnUse" x="37" y="42" width="7" height="7">
<path fill-rule="evenodd" clip-rule="evenodd" d="M38.5122 42.4687C37.2316 42.3609 36.7468 46.6424 37.8399 46.8749C39.3992 47.2069 40.9058 47.5981 42.3259 48.1029C42.5524 47.0337 42.7553 45.9226 42.9299 44.7805C43.0525 43.979 43.157 43.1885 43.2443 42.4121C41.3724 42.558 39.6812 42.5668 38.5122 42.4687Z" fill="white"/>
</mask>
<g mask="url(#mask38_651_72194)">
<path fill-rule="evenodd" clip-rule="evenodd" d="M38.5134 42.4732C39.0175 42.5497 39.2767 43.5974 39.091 44.811C38.9057 46.0245 38.3452 46.9474 37.8411 46.8709C37.3365 46.7943 37.0778 45.7466 37.263 44.5331C37.4488 43.3196 38.0088 42.3966 38.5134 42.4732Z" fill="#A5D2D9"/>
</g>
<mask id="mask39_651_72194" style="mask-type:alpha" maskUnits="userSpaceOnUse" x="37" y="42" width="7" height="7">
<path fill-rule="evenodd" clip-rule="evenodd" d="M38.5122 42.4687C37.2316 42.3609 36.7468 46.6424 37.8399 46.8749C39.3992 47.2069 40.9058 47.5981 42.3259 48.1029C42.5524 47.0337 42.7553 45.9226 42.9299 44.7805C43.0525 43.979 43.157 43.1885 43.2443 42.4121C41.3724 42.558 39.6812 42.5668 38.5122 42.4687Z" fill="white"/>
</mask>
<g mask="url(#mask39_651_72194)">
<path fill-rule="evenodd" clip-rule="evenodd" d="M38.5134 42.4732C39.0175 42.5497 39.2767 43.5974 39.091 44.811C38.9057 46.0245 38.3452 46.9474 37.8411 46.8709C37.3365 46.7943 37.0778 45.7466 37.263 44.5331C37.4488 43.3196 38.0088 42.3966 38.5134 42.4732Z" stroke="black" stroke-width="0.819128" stroke-linecap="round" stroke-linejoin="round"/>
</g>
<mask id="mask40_651_72194" style="mask-type:alpha" maskUnits="userSpaceOnUse" x="32" y="27" width="12" height="34">
<path fill-rule="evenodd" clip-rule="evenodd" d="M33.3771 43.3274C31.9552 52.6274 32.9419 60.5033 35.5791 60.9044C38.2163 61.3057 41.5121 54.0806 42.9339 44.7805C44.3558 35.4809 43.3688 27.6047 40.7317 27.2034C40.6615 27.1927 40.5913 27.1875 40.5202 27.1875C37.9208 27.1883 34.7612 34.2748 33.3771 43.3274Z" fill="white"/>
</mask>
<g mask="url(#mask40_651_72194)">
<path fill-rule="evenodd" clip-rule="evenodd" d="M50.2128 53.8448C47.4179 49.656 42.9087 47.9524 37.8438 46.874C36.7508 46.6415 37.2354 42.3601 38.5161 42.4678C42.035 42.7632 50.2829 42.0898 53.9615 39.6244C55.3924 38.6656 55.7022 42.2618 55.6525 42.9163C55.4279 45.8495 54.3529 49.5322 52.977 52.2083C52.6458 52.8524 51.1557 55.2574 50.2128 53.8448Z" stroke="black" stroke-width="0.819128" stroke-linecap="round" stroke-linejoin="round"/>
</g>
<mask id="mask41_651_72194" style="mask-type:alpha" maskUnits="userSpaceOnUse" x="32" y="27" width="12" height="34">
<path fill-rule="evenodd" clip-rule="evenodd" d="M35.5791 60.9044C38.2163 61.3057 41.5121 54.0806 42.9339 44.7805C44.3558 35.4809 43.3688 27.6047 40.7317 27.2034C40.6615 27.1927 40.5913 27.1875 40.5202 27.1875C37.9208 27.1883 34.7612 34.2748 33.3771 43.3274C31.9552 52.6274 32.9419 60.5033 35.5791 60.9044Z" fill="white"/>
</mask>
<g mask="url(#mask41_651_72194)">
<path fill-rule="evenodd" clip-rule="evenodd" d="M32.3963 36.1578C39.0561 37.5845 45.5883 39.7257 51.065 43.9055C52.2916 37.8628 51.3407 28.0623 45.9887 24.1925C44.4147 23.0545 42.3333 22.5357 40.4092 22.78C34.2024 23.5673 31.7227 30.6671 32.3963 36.1578Z" fill="#98B0B2"/>
</g>
<path fill-rule="evenodd" clip-rule="evenodd" d="M40.7317 27.2034C43.3689 27.6046 44.3558 35.4809 42.9339 44.7805C41.512 54.0806 38.2163 61.3056 35.5792 60.9044C32.9419 60.5033 31.9552 52.6274 33.3771 43.3274C34.799 34.0273 38.0945 26.8022 40.7317 27.2034Z" stroke="black" stroke-width="0.819128" stroke-linecap="round" stroke-linejoin="round"/>
<path fill-rule="evenodd" clip-rule="evenodd" d="M9.97949 24.3789L28.5167 34.9238L8.92188 26.4932L9.97949 24.3789Z" fill="#1D1D1B"/>
<path fill-rule="evenodd" clip-rule="evenodd" d="M0.625 43.2762L27.9088 43.3916L0.737859 40.916L0.625 43.2762Z" fill="#1D1D1B"/>
<path fill-rule="evenodd" clip-rule="evenodd" d="M9.19531 55.9948L25.271 53.7344L9.69626 58.3042L9.19531 55.9948Z" fill="#1D1D1B"/>
<path fill-rule="evenodd" clip-rule="evenodd" d="M66.6719 46.668C66.6719 46.668 66.6968 47.765 66.6719 48.0018L73.4086 49.9964C73.4086 49.9964 73.5586 49.797 73.4086 48.6127L66.6719 46.668Z" fill="#9B2331"/>
<path fill-rule="evenodd" clip-rule="evenodd" d="M37.3899 60.1526C47.367 53.8971 58.3439 52.3376 70.0269 54.3218C73.7706 54.958 75.6533 46.8067 71.5198 45.9463C63.4724 44.2718 48.1401 36.5206 42.4084 28.75C40.1785 25.7275 36.1673 32.703 35.6692 34.0548C33.4377 40.1108 32.3649 48.3231 32.8819 54.748C33.0063 56.2943 34.0245 62.2627 37.3899 60.1526Z" stroke="black" stroke-width="0.792867" stroke-linecap="round" stroke-linejoin="round"/>
<path fill-rule="evenodd" clip-rule="evenodd" d="M40.7665 27.1761C43.4062 27.5777 44.394 35.4613 42.9708 44.7697C41.5476 54.0785 38.2488 61.3103 35.6092 60.9087C32.9695 60.5072 31.9818 52.624 33.4051 43.3152C34.8283 34.0064 38.1269 26.7745 40.7665 27.1761Z" fill="#A5D2D9"/>
<mask id="mask42_651_72194" style="mask-type:alpha" maskUnits="userSpaceOnUse" x="32" y="27" width="12" height="34">
<path fill-rule="evenodd" clip-rule="evenodd" d="M33.4051 43.3152C31.9819 52.624 32.9694 60.5072 35.6092 60.9087C38.2488 61.3103 41.5476 54.0785 42.9708 44.7697C44.3941 35.4613 43.4062 27.5777 40.7666 27.1761C40.6963 27.1654 40.626 27.1601 40.5549 27.1602C37.9531 27.1609 34.7904 34.2541 33.4051 43.3152Z" fill="white"/>
</mask>
<g mask="url(#mask42_651_72194)">
<path fill-rule="evenodd" clip-rule="evenodd" d="M50.2562 53.8447C47.4587 49.6519 42.9453 47.9467 37.8756 46.8673C36.7815 46.6346 37.2667 42.3491 38.5486 42.457C42.0708 42.7526 50.3264 42.0786 54.0085 39.6109C55.4407 38.6511 55.7508 42.2507 55.701 42.9059C55.4762 45.8418 54.4002 49.528 53.023 52.2066C52.6915 52.8513 51.2 55.2585 50.2562 53.8447Z" fill="#A5D2D9"/>
</g>
<mask id="mask43_651_72194" style="mask-type:alpha" maskUnits="userSpaceOnUse" x="37" y="42" width="7" height="7">
<path fill-rule="evenodd" clip-rule="evenodd" d="M38.5486 42.457C37.2667 42.3492 36.7815 46.6346 37.8756 46.8673C39.4364 47.1996 40.9444 47.5912 42.3659 48.0965C42.5925 47.0263 42.7957 45.9141 42.9704 44.771C43.0931 43.9688 43.1978 43.1775 43.2851 42.4004C41.4118 42.5464 39.7185 42.5552 38.5486 42.457Z" fill="white"/>
</mask>
<g mask="url(#mask43_651_72194)">
<path fill-rule="evenodd" clip-rule="evenodd" d="M37.205 44.7109C39.7977 44.9631 42.3325 45.5415 44.9025 45.9436C47.7237 46.3849 50.5654 46.7118 53.3782 47.2046C52.7835 48.6625 51.8966 50.0072 51.3977 51.5019C48.9758 50.7872 46.4333 50.4206 43.9592 49.9325C41.2702 49.4022 38.6112 48.714 35.9492 48.066L37.205 44.7109Z" fill="#C8C6C5"/>
</g>
<mask id="mask44_651_72194" style="mask-type:alpha" maskUnits="userSpaceOnUse" x="37" y="42" width="7" height="7">
<path fill-rule="evenodd" clip-rule="evenodd" d="M38.5486 42.457C37.2667 42.3492 36.7815 46.6346 37.8756 46.8673C39.4364 47.1996 40.9444 47.5912 42.3659 48.0965C42.5925 47.0263 42.7957 45.9141 42.9704 44.771C43.0931 43.9688 43.1978 43.1775 43.2851 42.4004C41.4118 42.5464 39.7185 42.5552 38.5486 42.457Z" fill="white"/>
</mask>
<g mask="url(#mask44_651_72194)">
<path fill-rule="evenodd" clip-rule="evenodd" d="M38.5459 42.4615C39.0505 42.5381 39.3099 43.5868 39.124 44.8014C38.9386 46.0161 38.3775 46.9399 37.8729 46.8633C37.3679 46.7867 37.1089 45.738 37.2943 44.5233C37.4803 43.3086 38.0408 42.3848 38.5459 42.4615Z" fill="#A5D2D9"/>
</g>
<mask id="mask45_651_72194" style="mask-type:alpha" maskUnits="userSpaceOnUse" x="37" y="42" width="7" height="7">
<path fill-rule="evenodd" clip-rule="evenodd" d="M38.5486 42.457C37.2667 42.3492 36.7815 46.6346 37.8756 46.8673C39.4364 47.1996 40.9444 47.5912 42.3659 48.0965C42.5925 47.0263 42.7957 45.9141 42.9704 44.771C43.0931 43.9688 43.1978 43.1775 43.2851 42.4004C41.4118 42.5464 39.7185 42.5552 38.5486 42.457Z" fill="white"/>
</mask>
<g mask="url(#mask45_651_72194)">
<path fill-rule="evenodd" clip-rule="evenodd" d="M38.5459 42.4615C39.0505 42.5381 39.3099 43.5868 39.124 44.8014C38.9386 46.0161 38.3775 46.9399 37.8729 46.8633C37.3679 46.7867 37.1089 45.738 37.2943 44.5233C37.4803 43.3086 38.0408 42.3848 38.5459 42.4615Z" stroke="black" stroke-width="0.792867" stroke-linecap="round" stroke-linejoin="round"/>
</g>
<mask id="mask46_651_72194" style="mask-type:alpha" maskUnits="userSpaceOnUse" x="32" y="27" width="12" height="34">
<path fill-rule="evenodd" clip-rule="evenodd" d="M33.4051 43.3152C31.9819 52.624 32.9694 60.5072 35.6092 60.9087C38.2488 61.3103 41.5476 54.0785 42.9708 44.7697C44.3941 35.4613 43.4062 27.5777 40.7666 27.1761C40.6963 27.1654 40.626 27.1601 40.5549 27.1602C37.9531 27.1609 34.7904 34.2541 33.4051 43.3152Z" fill="white"/>
</mask>
<g mask="url(#mask46_651_72194)">
<path fill-rule="evenodd" clip-rule="evenodd" d="M50.2562 53.8447C47.4587 49.6519 42.9453 47.9467 37.8756 46.8673C36.7815 46.6346 37.2667 42.3491 38.5486 42.457C42.0708 42.7526 50.3264 42.0786 54.0085 39.6109C55.4407 38.6511 55.7508 42.2507 55.701 42.9059C55.4762 45.8418 54.4002 49.528 53.023 52.2066C52.6915 52.8513 51.2 55.2585 50.2562 53.8447Z" stroke="black" stroke-width="0.792867" stroke-linecap="round" stroke-linejoin="round"/>
</g>
<mask id="mask47_651_72194" style="mask-type:alpha" maskUnits="userSpaceOnUse" x="32" y="27" width="12" height="34">
<path fill-rule="evenodd" clip-rule="evenodd" d="M33.4051 43.3152C31.9819 52.624 32.9694 60.5072 35.6092 60.9087C38.2488 61.3103 41.5476 54.0785 42.9708 44.7697C44.3941 35.4613 43.4062 27.5777 40.7666 27.1761C40.6963 27.1654 40.626 27.1601 40.5549 27.1602C37.9531 27.1609 34.7904 34.2541 33.4051 43.3152Z" fill="white"/>
</mask>
<g mask="url(#mask47_651_72194)">
<path fill-rule="evenodd" clip-rule="evenodd" d="M32.4237 36.1392C39.0898 37.5672 45.6282 39.7104 51.1099 43.8942C52.3378 37.8458 51.386 28.0361 46.0289 24.1626C44.4535 23.0236 42.3701 22.5042 40.4442 22.7488C34.2316 23.5368 31.7495 30.6433 32.4237 36.1392Z" fill="#C8C6C5"/>
</g>
<path fill-rule="evenodd" clip-rule="evenodd" d="M40.7665 27.1761C43.4062 27.5777 44.394 35.4613 42.9708 44.7697C41.5476 54.0785 38.2488 61.3103 35.6092 60.9087C32.9695 60.5072 31.9818 52.624 33.4051 43.3152C34.8283 34.0064 38.1269 26.7745 40.7665 27.1761Z" stroke="black" stroke-width="0.792867" stroke-linecap="round" stroke-linejoin="round"/>
<path fill-rule="evenodd" clip-rule="evenodd" d="M9.98829 24.3496L28.5429 34.9044L8.92969 26.4659L9.98829 24.3496Z" fill="#1D1D1B"/>
<path fill-rule="evenodd" clip-rule="evenodd" d="M0.737965 40.9023L27.9344 43.3802L0.625 43.2647L0.737965 40.9023Z" fill="#1D1D1B"/>
<path fill-rule="evenodd" clip-rule="evenodd" d="M9.20312 55.993L25.2939 53.7305L9.70454 58.3046L9.20312 55.993Z" fill="#1D1D1B"/>
<path fill-rule="evenodd" clip-rule="evenodd" d="M66.7344 46.6582C66.7344 46.6582 66.7594 47.7562 66.7344 47.9933L73.4775 49.9898C73.4775 49.9898 73.6276 49.7901 73.4775 48.6047L66.7344 46.6582Z" fill="#9B2331"/>
</svg>
