<svg width="177" height="157" viewBox="0 0 177 157" fill="none" xmlns="http://www.w3.org/2000/svg">
<path opacity="0.1" d="M128.779 155.762C102.147 155.762 80.5578 134.09 80.5578 107.357C80.5578 80.6233 102.147 58.9514 128.779 58.9514C155.411 58.9514 177 80.6233 177 107.357C177 134.09 155.411 155.762 128.779 155.762Z" fill="#333739"/>
<path opacity="0.1" d="M48.2232 96.8109C21.5915 96.8109 0.00216675 75.1391 0.00216675 48.4055C0.00216675 21.6719 21.5915 0 48.2232 0C74.855 0 96.4443 21.6719 96.4443 48.4055C96.4443 75.1391 74.855 96.8109 48.2232 96.8109Z" fill="#333739"/>
<path opacity="0.3" fill-rule="evenodd" clip-rule="evenodd" d="M129.74 149.695C129.74 149.695 155.797 149.662 155.743 150.437C155.58 153.013 135.091 151.507 133.416 152.282C132.59 152.664 133.503 153.494 132.046 154.029C126.26 156.157 106.108 154.225 98.9196 154.236C79.3332 154.28 74.3632 155.24 72.0903 155.36C65.7065 155.71 47.6426 155.568 42.5638 155.502C32.1127 155.36 3.98914 155.928 4.58727 153.756C4.84828 152.773 25.4176 149.762 30.0178 149.5C33.9547 149.271 43.0858 148.865 46.6203 148.068C51.5577 146.954 56.9845 146.278 62.3134 145.852C84.6512 144.083 107.555 148.243 129.74 149.695Z" fill="#333739"/>
<path d="M61.3519 151.243H109.791C114.706 151.243 118.687 147.247 118.687 142.313V22.347C118.687 17.4126 114.706 13.417 109.791 13.417H61.3411C56.4254 13.417 52.4451 17.4126 52.4451 22.347V142.313C52.4451 147.247 56.4363 151.243 61.3519 151.243Z" fill="white" stroke="#333739" stroke-miterlimit="10"/>
<path d="M74.5329 17.1068H95.8376C96.7729 17.1068 97.5342 16.3426 97.5342 15.4038V13.406H72.695V15.251C72.695 16.2771 73.5215 17.1068 74.5329 17.1068Z" fill="#333739"/>
<path opacity="0.2" d="M81.1996 105.108H129.084C131.563 105.108 133.586 103.088 133.586 100.588V28.231C133.586 25.742 131.574 23.7114 129.084 23.7114H81.1887C78.7092 23.7114 76.6864 25.7311 76.6864 28.231V100.588C76.6972 103.088 78.7092 105.108 81.1996 105.108Z" fill="#333739"/>
<path d="M103.635 61.1347H124.951C126.832 61.1347 128.354 59.6063 128.354 57.7177V31.7246C128.354 29.836 126.832 28.3076 124.951 28.3076H103.635C101.753 28.3076 100.231 29.836 100.231 31.7246V57.7177C100.231 59.6063 101.753 61.1347 103.635 61.1347Z" fill="white"/>
<path d="M97.4577 32.2484C96.8271 32.2484 96.3158 31.7352 96.3158 31.1021C96.3158 30.469 96.8271 29.9558 97.4577 29.9558C98.0884 29.9558 98.5996 30.469 98.5996 31.1021C98.5996 31.7352 98.0884 32.2484 97.4577 32.2484Z" fill="white"/>
<path d="M92.8796 32.2484C92.2489 32.2484 91.7377 31.7352 91.7377 31.1021C91.7377 30.469 92.2489 29.9558 92.8796 29.9558C93.5102 29.9558 94.0215 30.469 94.0215 31.1021C94.0215 31.7352 93.5102 32.2484 92.8796 32.2484Z" fill="white"/>
<path d="M87.3222 69.9883H129.497C130.312 69.9883 130.965 69.3224 130.965 68.5146C130.965 67.6958 130.301 67.0408 129.497 67.0408H87.3222C86.5066 67.0408 85.8541 67.7067 85.8541 68.5146C85.8541 69.3333 86.5066 69.9883 87.3222 69.9883Z" fill="white"/>
<path d="M82.418 78.5252H124.592C125.408 78.5252 126.061 77.8593 126.061 77.0514C126.061 76.2326 125.397 75.5776 124.592 75.5776H82.418C81.6023 75.5776 80.9498 76.2436 80.9498 77.0514C80.9498 77.8593 81.6023 78.5252 82.418 78.5252Z" fill="white"/>
<path d="M86.3437 86.3963H128.518C129.334 86.3963 129.986 85.7303 129.986 84.9225C129.986 84.1037 129.323 83.4487 128.518 83.4487H86.3437C85.5281 83.4487 84.8756 84.1147 84.8756 84.9225C84.8756 85.7413 85.5281 86.3963 86.3437 86.3963Z" fill="white"/>
<path d="M53.4674 115.795H74.7177C76.61 115.795 78.1543 114.256 78.1543 112.346C78.1543 110.446 76.6209 108.896 74.7177 108.896H53.4674C51.5751 108.896 50.0308 110.435 50.0308 112.346C50.0416 114.256 51.5751 115.795 53.4674 115.795Z" fill="#333739" stroke="white" stroke-width="0.5" stroke-miterlimit="10"/>
<path d="M61.4931 138.906H108.246C110.138 138.906 111.683 137.367 111.683 135.457C111.683 133.557 110.149 132.007 108.246 132.007H61.4931C59.6008 132.007 58.0565 133.546 58.0565 135.457C58.0674 137.367 59.6008 138.906 61.4931 138.906Z" fill="#333739" stroke="white" stroke-width="0.5" stroke-miterlimit="10"/>
<path d="M110.313 53.1542C110.28 53.1651 112.955 54.7153 115.043 54.235C117.001 53.7874 118.339 52.128 118.306 52.1171C117.49 51.9206 117.349 49.9774 117.577 45.1194L117.208 45.174L110.922 46.1347C110.922 46.1347 110.976 48.1106 110.9 49.9665C110.835 51.5276 110.682 53.0014 110.313 53.1542Z" fill="#FFDDC5"/>
<path opacity="0.1" d="M110.922 46.6805C110.922 46.6805 110.976 48.6128 110.9 50.4141C114.304 50.4687 116.24 47.4338 117.056 45.7417L110.922 46.6805Z" fill="#333739"/>
<path d="M110.106 48.6347C110.106 48.6347 118.154 49.126 118.382 44.0933C118.611 39.0606 119.807 35.7309 114.674 35.2069C109.541 34.6829 108.464 36.5606 107.975 38.22C107.496 39.8684 108.018 48.3727 110.106 48.6347Z" fill="#FFDDC5"/>
<path d="M107.517 32.3032C105.255 34.9997 106.049 36.6154 108.453 36.6918C110.856 36.7682 114.369 36.528 114.369 36.528C114.369 36.528 115.489 44.814 115.794 42.7725C116.087 40.731 115.021 40.4472 115.968 39.0171C116.914 37.587 117.914 38.4822 117.925 39.5083C117.936 40.5454 118.36 45.1633 118.36 45.1633C118.36 45.1633 119.763 40.1306 119.404 37.1175C119.045 34.1154 117.653 31.6373 114.576 32.2595C111.498 32.8818 111.172 33.8971 109.29 33.6132C107.398 33.3403 107.517 32.3032 107.517 32.3032Z" fill="#333739"/>
<path d="M118.317 52.1172C113.314 55.9818 110.704 52.3683 110.704 52.3683L102.797 54.3224L100.242 58.9293C100.894 61.8878 104.646 62.5428 104.82 62.5428C105.473 62.5428 121.699 62.7721 124.863 62.3354C128.028 61.8878 128.441 58.7001 128.441 58.7001L126.397 54.6717L118.317 52.1172Z" fill="#FF6666"/>
<path opacity="0.1" d="M53.1084 105.108H60.2861C62.4938 105.108 64.2773 103.318 64.2773 101.101V28.2858C64.2773 26.0697 62.4938 24.2793 60.2861 24.2793H53.1084V105.108Z" fill="#333739"/>
<path d="M53.1081 62.1172H53.4887C56.3815 62.1172 58.7197 59.77 58.7197 56.8661V32.9363C58.7197 30.5674 56.8057 28.646 54.4457 28.646H53.1081V62.1172Z" fill="white"/>
<path d="M46.2896 44.137V40.982C46.2896 40.982 48.4211 40.6763 48.9105 40.1851C49.3129 39.7811 50.0307 37.9799 50.2917 37.3139C50.3569 37.1611 50.3896 37.0628 50.3896 37.0628L50.7158 33.1109V30.5345C50.7158 30.5345 50.3896 29.4865 50.0633 28.8315C49.737 28.1765 49.4108 27.5106 48.7474 26.8555C48.0949 26.2005 47.1052 25.873 47.1052 25.873C47.1052 25.873 45.7893 25.218 44.8105 25.218C43.8318 25.218 43.8317 25.218 42.8421 25.5455C41.8633 25.873 40.8737 26.528 40.8737 26.528C40.8737 26.528 40.2211 26.8555 39.8949 27.1831C39.5686 27.5106 38.9161 28.504 38.579 29.159C38.2527 29.814 38.2527 30.48 38.2527 30.8075C38.2527 31.135 38.2527 32.4887 38.2527 32.9581C38.2527 33.4275 38.9052 35.076 39.2315 35.7419C39.5578 36.4078 39.6339 36.8445 39.884 37.3903C40.1885 38.0563 40.5365 38.7113 40.5365 38.7113C40.5365 38.7113 40.8628 39.3663 40.8628 39.6938C40.8628 40.0213 40.8628 42.3248 40.8628 42.3248V43.6457V44.6282H46.3331L46.2896 44.137Z" fill="#FFDDC5"/>
<path d="M44.4847 39.2789L40.2216 39.3663L38.5794 35.0868C38.5794 35.0868 37.1003 31.6371 36.9372 30.8074C36.7741 29.9887 36.7741 29.4974 36.9372 28.4275C37.1003 27.3577 37.5897 26.8664 37.5897 26.8664C37.5897 26.8664 38.4054 26.0477 39.5582 25.5455C40.7001 25.0542 40.7001 25.0542 41.2003 24.8905C41.7006 24.7267 43.495 24.563 43.495 24.563H45.855H47.6168L48.5629 24.3992L49.0523 24.2355L49.3786 23.908L49.7048 24.2355L50.0311 24.8905L50.3573 25.5455C50.3573 25.5455 50.6836 26.2333 50.6836 26.2223C50.6836 26.2114 50.6836 27.3468 50.6836 27.3468C50.6836 27.3468 50.5205 27.6961 50.3573 28.1874C50.1942 28.6786 49.5417 28.6786 49.3786 28.8424C49.2154 29.0061 48.3998 29.1699 48.3998 29.1699L47.421 29.4974H47.0947V30.1524L47.5841 30.6437L47.9321 31.0913L48.2475 31.6262L48.0844 32.7725V33.1C48.0844 33.1 46.638 31.6153 46.29 31.6153C45.942 31.6153 45.6266 31.9428 45.4526 32.1065C45.2894 32.2703 44.9632 32.9253 45.1263 33.4275C45.2894 33.9297 45.855 34.9122 45.855 34.9122L46.116 35.4034L44.4738 39.3553" fill="#333739"/>
<path d="M35.4363 78.46H54.0874C54.0874 78.46 54.4463 107.072 54.4463 108.063C54.4463 109.054 53.7938 118.265 53.4675 119.506L50.8466 143.644H43.4731C43.4731 143.644 44.1256 112.669 43.4731 103.218C43.4079 102.325 43.3535 101.476 43.31 100.66C42.8206 92.8642 42.8206 88.7813 42.8206 88.7813L43.3535 101.465L33.9681 143.513L26.2575 143.633C26.2575 143.633 28.4 129.076 30.0421 116.142L35.4363 78.46Z" fill="#333739"/>
<path d="M42.8098 88.7812L42.6466 98.3623L43.3535 101.465L42.8098 88.7812Z" fill="#333739"/>
<path d="M59.9272 55.4468L57.7413 60.3157C57.6325 60.5559 57.7195 60.8288 57.937 60.9707L63.3747 64.606C63.6248 64.7807 63.9728 64.7043 64.1468 64.4532L79.7746 41.3858C79.9378 41.1347 79.8616 40.7963 79.6006 40.6435L77.9585 39.5736C77.7736 39.4645 77.6648 39.257 77.6975 39.0496L77.8606 37.816C77.9041 37.4994 77.6431 37.2156 77.3168 37.2156C77.0776 37.2156 76.8601 37.3684 76.7948 37.5977L76.2945 39.3116C76.2837 39.3662 76.251 39.4099 76.2293 39.4645L75.2831 40.8509C75.207 40.971 75.1744 41.1129 75.207 41.2548L75.3919 42.1718C75.4245 42.3247 75.3919 42.4775 75.294 42.5976L64.1903 57.128C64.0055 57.3681 63.6574 57.4118 63.4182 57.2371L60.7864 55.2503C60.4819 55.021 60.0686 55.1302 59.9272 55.4468Z" fill="#FFDDC5"/>
<path d="M29.9115 55.4578L34.229 56.2548C34.5008 56.3094 34.6749 56.5823 34.6096 56.8552L32.9566 63.8202C32.9022 64.0603 33.0327 64.3114 33.2719 64.3988L55.4576 72.1934C55.5119 72.2153 55.5663 72.2262 55.6207 72.2262H57.078C57.0997 72.2262 57.1215 72.2262 57.1432 72.2262L60.6124 72.7065C60.9496 72.7502 61.1345 73.1104 60.9822 73.4161C60.8952 73.5799 60.7321 73.689 60.5472 73.689H59.3835C59.1552 73.689 58.9594 73.8419 58.905 74.0602L58.6005 75.2829C58.5353 75.5558 58.2634 75.7087 57.9915 75.6322L27.9539 67.2153C27.7147 67.1498 27.5624 66.9097 27.6059 66.6695L29.3351 55.8727C29.3894 55.5888 29.6396 55.4142 29.9115 55.4578Z" fill="#FFDDC5"/>
<path d="M39.6775 43.9952V45.3162H49.5088C49.5088 45.3162 48.8563 43.9952 47.2141 43.6677H39.6775V43.9952Z" fill="#FF6666"/>
<path d="M34.7296 61.7239C35.7084 57.772 35.5779 58.6235 35.5779 58.6235C35.5779 58.6235 31.5323 91.8764 31.8368 92.9244C32.1413 93.9615 56.3715 93.6558 57.0675 92.9244C57.7635 92.193 55.7516 48.5145 55.7516 48.5145C55.7516 48.5145 55.5667 45.4687 49.4983 45.3049H39.667C39.667 45.3049 35.0776 45.3049 34.0988 45.9599C34.0988 45.9599 33.1201 46.2875 32.1304 47.6084C30.8145 49.5844 29.814 50.2066 28.1718 59.748" fill="#FF6666"/>
<path d="M57.5347 48.1108C57.5347 48.1108 54.1416 45.4361 51.4119 45.458C51.4119 45.458 49.3456 45.1523 48.0297 45.8073C47.3119 46.1676 46.0613 47.1501 45.735 48.7658C45.4087 50.4142 46.3875 51.3967 47.3772 53.0452L51.9665 57.3246L54.2612 59.3006L59.8729 62.7503L63.6357 55.1849L57.5347 48.1108Z" fill="#FF6666"/>
<path d="M46.2546 149.867L44.1566 149.858C44.1491 149.858 44.1416 149.858 44.1416 149.849L44.3597 143.661C44.3597 143.652 44.3672 143.643 44.3747 143.643H49.0219C49.0294 143.643 49.0294 143.643 49.0294 143.643C49.0896 143.751 51.2176 147.457 55.5189 148.527C56.1355 148.68 56.5642 149.21 56.5416 149.831C56.5416 149.84 56.5341 149.849 56.5266 149.849L47.8037 149.867" fill="#333739"/>
<path d="M44.3747 143.643H49.0294L50.1273 145.136C50.1273 145.136 48.8865 146.27 47.3826 146.27C45.8786 146.27 44.292 145.514 44.292 145.514L44.3597 143.661L44.3747 143.643Z" fill="#FFDDC5"/>
<path d="M29.4265 149.867L27.3285 149.858C27.321 149.858 27.3135 149.858 27.3135 149.849L27.5315 143.661C27.5315 143.652 27.5391 143.643 27.5466 143.643H32.1938C32.2013 143.643 32.2013 143.643 32.2013 143.643C32.2614 143.751 34.3895 147.457 38.6908 148.527C39.3074 148.68 39.736 149.21 39.7135 149.831C39.7135 149.84 39.7059 149.849 39.6984 149.849L30.9756 149.867" fill="#333739"/>
<path d="M27.5466 143.643H32.2013L33.2992 145.136C33.2992 145.136 32.0584 146.27 30.5545 146.27C29.0505 146.27 27.4639 145.514 27.4639 145.514L27.5315 143.661L27.5466 143.643Z" fill="#FFDDC5"/>
<path fill-rule="evenodd" clip-rule="evenodd" d="M130.074 131.752C125.34 132.475 122.387 125.383 120.725 122.134C119.775 120.279 118.796 118.343 117.437 116.756C114.6 113.447 110.869 112.791 110.373 114.138C109.958 115.266 111.477 115.207 113.026 116.705C113.882 117.534 114.802 118.823 115.044 120.749C115.93 127.814 115.683 130.065 118.51 135.3C119.182 136.544 119.924 137.809 120.938 138.806C125.809 143.597 130.528 137.201 130.074 131.752Z" fill="#EF383D"/>
<mask id="mask0" mask-type="alpha" maskUnits="userSpaceOnUse" x="110" y="113" width="21" height="28">
<path fill-rule="evenodd" clip-rule="evenodd" d="M117.437 116.756C118.796 118.343 119.775 120.279 120.725 122.133C122.387 125.384 125.34 132.475 130.074 131.751C130.528 137.201 125.809 143.597 120.938 138.807C119.923 137.808 119.181 136.544 118.51 135.3C115.684 130.065 115.929 127.814 115.044 120.75C114.802 118.823 113.882 117.534 113.025 116.704C111.478 115.206 109.958 115.266 110.373 114.138C110.532 113.707 111.02 113.48 111.705 113.48C113.162 113.481 115.507 114.504 117.437 116.756Z" fill="white"/>
</mask>
<g mask="url(#mask0)">
<path fill-rule="evenodd" clip-rule="evenodd" d="M108.573 113.678C113.509 113.779 116.793 118.39 117.835 122.796C118.361 125.02 118.459 127.322 119.009 129.546C120.021 133.645 121.955 137.598 124.814 140.718C112.922 138.66 116.411 130.744 112.809 122.239C112.31 121.059 111.692 119.955 111 118.881C110.118 117.513 108.027 115.56 108.573 113.678Z" fill="#BC2025"/>
</g>
<mask id="mask1" mask-type="alpha" maskUnits="userSpaceOnUse" x="110" y="113" width="21" height="28">
<path fill-rule="evenodd" clip-rule="evenodd" d="M117.437 116.756C118.796 118.343 119.775 120.279 120.725 122.133C122.387 125.384 125.34 132.475 130.074 131.751C130.528 137.201 125.809 143.597 120.938 138.807C119.923 137.808 119.181 136.544 118.51 135.3C115.684 130.065 115.929 127.814 115.044 120.75C114.802 118.823 113.882 117.534 113.025 116.704C111.478 115.206 109.958 115.266 110.373 114.138C110.532 113.707 111.02 113.48 111.705 113.48C113.162 113.481 115.507 114.504 117.437 116.756Z" fill="white"/>
</mask>
<g mask="url(#mask1)">
<path fill-rule="evenodd" clip-rule="evenodd" d="M123.745 129.258C121.739 127.169 120.801 124.35 119.591 121.786C117.6 117.568 115.776 114.537 111.315 113.092C113.524 112.835 115.271 113.946 116.835 115.403C119.524 117.908 121.354 121.054 123.163 124.214C123.74 125.221 125.247 127.706 125.407 128.829C125.024 128.74 124.127 129.182 123.745 129.258Z" fill="#F48EAA"/>
</g>
<path fill-rule="evenodd" clip-rule="evenodd" d="M130.044 131.57C130.099 131.562 130.155 131.576 130.199 131.607C130.243 131.639 130.271 131.686 130.275 131.736H130.257C130.531 135.017 128.96 138.629 126.614 140.047C124.948 141.055 122.89 140.989 120.807 138.941C120.393 138.534 120.023 138.083 119.685 137.608C119.183 136.903 118.751 136.144 118.344 135.391C117.15 133.179 116.5 131.496 116.081 129.763C115.505 127.373 115.37 124.888 114.853 120.774C114.749 119.944 114.516 119.238 114.215 118.637C113.838 117.88 113.355 117.294 112.891 116.845C112.251 116.226 111.615 115.88 111.126 115.603C110.759 115.394 110.471 115.217 110.302 115.009C110.104 114.765 110.039 114.481 110.191 114.069C110.321 113.716 110.631 113.468 111.084 113.355C111.676 113.208 112.529 113.293 113.489 113.65C114.781 114.131 116.277 115.102 117.585 116.629C118.137 117.272 118.628 117.973 119.079 118.702C119.747 119.783 120.33 120.928 120.901 122.043C121.874 123.943 123.289 127.168 125.25 129.353C126.581 130.834 128.163 131.839 130.044 131.552V131.57ZM129.906 131.978C130.085 135.06 128.618 138.401 126.423 139.728C124.884 140.656 122.991 140.562 121.07 138.672C120.671 138.281 120.316 137.846 119.99 137.389C119.498 136.696 119.074 135.95 118.676 135.21C117.501 133.034 116.861 131.379 116.451 129.672C115.878 127.294 115.748 124.82 115.235 120.726C115.125 119.848 114.879 119.099 114.561 118.463C114.161 117.663 113.651 117.04 113.159 116.565C112.492 115.918 111.829 115.554 111.318 115.263C111.003 115.084 110.748 114.941 110.603 114.762C110.486 114.618 110.467 114.448 110.555 114.205C110.645 113.964 110.869 113.812 111.179 113.735C111.714 113.602 112.484 113.694 113.352 114.019C114.594 114.481 116.029 115.418 117.287 116.885C117.825 117.514 118.303 118.199 118.743 118.91C119.405 119.983 119.982 121.119 120.547 122.225C121.532 124.15 122.968 127.41 124.952 129.622C126.331 131.16 127.976 132.19 129.906 131.978Z" fill="black"/>
<path fill-rule="evenodd" clip-rule="evenodd" d="M119.432 134.878C117.855 132.312 115.882 129.453 112.85 128.54C109.371 127.494 105.844 129.536 106.403 133.246C107.128 138.057 114.187 137.558 113.411 133.38C116.079 137.588 117.862 142.407 117.657 147.466C122.215 145.536 124.404 142.147 121.623 137.589C121.073 136.686 120.216 135.599 119.432 134.878Z" fill="#EF383D"/>
<mask id="mask2" mask-type="alpha" maskUnits="userSpaceOnUse" x="106" y="128" width="17" height="20">
<path fill-rule="evenodd" clip-rule="evenodd" d="M111.025 128.267C111.619 128.267 112.236 128.356 112.851 128.54C115.882 129.452 117.855 132.311 119.433 134.878C120.216 135.599 121.072 136.686 121.622 137.589C124.405 142.147 122.215 145.536 117.657 147.465C117.862 142.407 116.08 137.588 113.411 133.379C114.188 137.557 107.129 138.057 106.403 133.245C105.942 130.192 108.252 128.267 111.024 128.267C111.025 128.267 111.025 128.267 111.025 128.267Z" fill="white"/>
</mask>
<g mask="url(#mask2)">
<path fill-rule="evenodd" clip-rule="evenodd" d="M113.359 134.429C111.587 135.99 108.668 135.29 107.898 133.04C107.525 131.95 107.515 130.83 108.022 129.778C108.196 129.417 108.431 129.067 108.681 128.755C108.772 128.643 108.864 128.533 108.957 128.424C109.002 128.371 109.158 128.279 109.091 128.266C108.034 128.061 106.611 129.538 106.177 130.347C104.579 133.321 106.499 138.138 109.812 138.978C112.096 139.557 113.822 136.811 113.359 134.429Z" fill="#BC2025"/>
</g>
<mask id="mask3" mask-type="alpha" maskUnits="userSpaceOnUse" x="106" y="128" width="17" height="20">
<path fill-rule="evenodd" clip-rule="evenodd" d="M111.025 128.267C111.619 128.267 112.236 128.356 112.851 128.54C115.882 129.452 117.855 132.311 119.433 134.878C120.216 135.599 121.072 136.686 121.622 137.589C124.405 142.147 122.215 145.536 117.657 147.465C117.862 142.407 116.08 137.588 113.411 133.379C114.188 137.557 107.129 138.057 106.403 133.245C105.942 130.192 108.252 128.267 111.024 128.267C111.025 128.267 111.025 128.267 111.025 128.267Z" fill="white"/>
</mask>
<g mask="url(#mask3)">
<path fill-rule="evenodd" clip-rule="evenodd" d="M120.115 140.155C119.881 138.705 119.443 137.298 118.897 135.938C117.704 132.966 116.303 130.776 113.412 129.285C112.036 128.576 110.511 128.27 108.953 128.661C110.39 127.743 112.472 128.197 113.917 128.956C116.474 130.301 118.586 132.701 119.703 135.366C120.087 136.286 120.748 139.105 120.115 140.155Z" fill="#F48EAA"/>
</g>
<mask id="mask4" mask-type="alpha" maskUnits="userSpaceOnUse" x="106" y="128" width="17" height="20">
<path fill-rule="evenodd" clip-rule="evenodd" d="M111.025 128.267C111.619 128.267 112.236 128.356 112.851 128.54C115.882 129.452 117.855 132.311 119.433 134.878C120.216 135.599 121.072 136.686 121.622 137.589C124.405 142.147 122.215 145.536 117.657 147.465C117.862 142.407 116.08 137.588 113.411 133.379C114.188 137.557 107.129 138.057 106.403 133.245C105.942 130.192 108.252 128.267 111.024 128.267C111.025 128.267 111.025 128.267 111.025 128.267Z" fill="white"/>
</mask>
<g mask="url(#mask4)">
<path fill-rule="evenodd" clip-rule="evenodd" d="M119.06 143.082C119.066 142.046 118.937 141.025 118.738 140.009C118.121 136.854 116.056 131.968 112.542 131.115C111.749 130.923 110.953 130.951 110.241 131.385C112.424 130.452 113.719 132.9 113.745 134.722C113.781 137.219 115.147 139.534 115.746 141.96C115.88 142.501 115.972 144.023 116.254 144.485C117.07 145.832 118.827 144.308 119.06 143.082Z" fill="#BC2025"/>
</g>
<path fill-rule="evenodd" clip-rule="evenodd" d="M113.661 134.15C114.805 136.048 115.761 138.063 116.431 140.163C117.178 142.504 117.57 144.951 117.469 147.459C117.466 147.523 117.497 147.584 117.55 147.621C117.603 147.659 117.671 147.666 117.73 147.64C120.041 146.661 121.75 145.307 122.543 143.631C123.355 141.915 123.224 139.856 121.78 137.493C121.501 137.034 121.143 136.529 120.757 136.048C120.37 135.566 119.954 135.108 119.556 134.743L119.604 134.771C118.65 133.22 117.552 131.565 116.168 130.287C115.227 129.419 114.155 128.724 112.908 128.349C111.147 127.82 109.376 128.06 108.091 128.887C106.732 129.761 105.909 131.289 106.209 133.275C106.563 135.624 108.358 136.765 110.092 136.872C111.328 136.949 112.531 136.495 113.175 135.592C113.457 135.196 113.635 134.715 113.661 134.15ZM117.855 147.173C117.919 144.726 117.523 142.336 116.794 140.046C116.037 137.667 114.916 135.394 113.575 133.275C113.524 133.197 113.426 133.165 113.341 133.199C113.255 133.233 113.204 133.323 113.222 133.414C113.37 134.214 113.214 134.869 112.86 135.365C112.289 136.166 111.213 136.55 110.116 136.481C108.544 136.383 106.917 135.347 106.598 133.216C106.326 131.409 107.068 130.015 108.305 129.22C109.501 128.451 111.153 128.238 112.793 128.732C113.981 129.089 115.001 129.755 115.897 130.583C117.253 131.837 118.326 133.463 119.26 134.984H119.276C119.285 135 119.296 135.014 119.308 135.027V135.014C119.693 135.368 120.095 135.813 120.47 136.279C120.847 136.748 121.194 137.239 121.465 137.685C122.825 139.914 122.973 141.853 122.206 143.469C121.477 145.008 119.932 146.249 117.855 147.173Z" fill="black"/>
<path fill-rule="evenodd" clip-rule="evenodd" d="M141.614 131.588C142.958 136.119 153.146 137.206 155.842 129.24C156.807 126.389 157.291 123.489 159.023 120.977C160.206 119.258 161.912 117.754 163.96 117.206C164.457 117.073 165.669 116.773 166.085 117.292C166.562 117.886 165.387 118.633 165.003 118.962C162.294 121.274 161.997 124.584 161.438 133.157C161.052 139.078 158.537 140.095 154.45 141.267C144.467 144.13 138.992 133.377 141.614 131.588Z" fill="#EF383D"/>
<mask id="mask5" mask-type="alpha" maskUnits="userSpaceOnUse" x="140" y="116" width="27" height="26">
<path fill-rule="evenodd" clip-rule="evenodd" d="M166.084 117.292C166.561 117.887 165.386 118.632 165.002 118.961C162.293 121.274 161.997 124.584 161.438 133.158C161.052 139.077 158.536 140.095 154.45 141.267C144.466 144.129 138.991 133.377 141.613 131.588C142.957 136.119 153.145 137.206 155.842 129.24C156.807 126.39 157.29 123.489 159.022 120.976C160.205 119.257 161.911 117.754 163.959 117.206C164.244 117.13 164.764 116.998 165.235 116.998C165.585 116.998 165.907 117.07 166.084 117.292Z" fill="white"/>
</mask>
<g mask="url(#mask5)">
<path fill-rule="evenodd" clip-rule="evenodd" d="M141.613 131.588C142.938 137.192 151.486 137.723 154.484 132.362C155.451 130.634 156.214 128.53 156.671 125.22C157.182 121.515 161.661 116.964 163.258 116.215C166.693 114.608 160.794 116.998 159.62 123.472C158.381 130.302 158.139 136.848 152.216 138.933C145.983 141.126 140.191 144.445 137.58 138.043C140.424 128.734 138.085 128.177 141.613 131.588Z" fill="#BC2025"/>
</g>
<mask id="mask6" mask-type="alpha" maskUnits="userSpaceOnUse" x="140" y="116" width="27" height="26">
<path fill-rule="evenodd" clip-rule="evenodd" d="M166.084 117.292C166.561 117.887 165.386 118.632 165.002 118.961C162.293 121.274 161.997 124.584 161.438 133.158C161.052 139.077 158.536 140.095 154.45 141.267C144.466 144.129 138.991 133.377 141.613 131.588C142.957 136.119 153.145 137.206 155.842 129.24C156.807 126.39 157.29 123.489 159.022 120.976C160.205 119.257 161.911 117.754 163.959 117.206C164.244 117.13 164.764 116.998 165.235 116.998C165.585 116.998 165.907 117.07 166.084 117.292Z" fill="white"/>
</mask>
<g mask="url(#mask6)">
<path fill-rule="evenodd" clip-rule="evenodd" d="M167.857 117.796C160.516 121.09 163.113 129.89 161.386 137.852C160.727 140.897 158.219 145.835 155.186 144.308C156.157 143.187 156.162 141.063 157.536 140.191C160.173 138.519 160.465 133.095 160.384 129.373C160.285 124.814 161.959 116.998 167.857 117.796Z" fill="#F48EAA"/>
</g>
<path fill-rule="evenodd" clip-rule="evenodd" d="M141.614 131.588C142.958 136.119 153.146 137.206 155.842 129.24C156.807 126.389 157.291 123.489 159.023 120.977C160.206 119.258 161.912 117.754 163.96 117.206C164.457 117.073 165.669 116.773 166.085 117.292C166.562 117.886 165.387 118.633 165.003 118.962C162.294 121.274 161.997 124.584 161.438 133.157C161.052 139.078 158.537 140.095 154.45 141.267C144.467 144.13 138.992 133.377 141.614 131.588Z" stroke="black" stroke-width="0.481" stroke-linecap="round" stroke-linejoin="round"/>
<path fill-rule="evenodd" clip-rule="evenodd" d="M128.07 98.2666C121.543 98.011 117.591 99.8918 119.287 102.667C119.488 102.995 119.719 103.271 119.953 103.498C121.35 104.849 122.853 105.014 124.371 105.237C125.421 103.259 127.14 100.457 128.07 98.2666Z" fill="#9FA0A0"/>
<path fill-rule="evenodd" clip-rule="evenodd" d="M128.07 98.2666C121.543 98.011 117.591 99.8918 119.287 102.667C119.488 102.995 119.719 103.271 119.953 103.498C121.35 104.849 122.853 105.014 124.371 105.237C125.421 103.259 127.14 100.457 128.07 98.2666Z" stroke="black" stroke-width="0.481" stroke-linecap="round" stroke-linejoin="round"/>
<path fill-rule="evenodd" clip-rule="evenodd" d="M126.102 129.72C124.781 129.524 120.655 128.346 119.65 129.225C116.754 131.761 119.134 137.029 120.432 139.668C118.499 143.573 112.67 144.109 112.845 149.354C113.012 154.376 118.804 155.866 122.786 154.068C125.334 152.919 126.262 150.438 127.071 147.948C128.538 147.374 130.183 147.202 131.731 147.008C133.608 160.67 152.019 157.189 148.421 147.045C149.806 147.092 151.101 146.583 154.707 145.506C155.954 145.132 157.549 144.91 159.248 145.103C158.452 147.026 159.422 149.725 162.103 150.086C165.677 150.566 168.629 146.31 166.106 142.825C163.448 139.151 159.513 138.458 157.495 138.482C153.52 138.527 149.068 139.975 145.289 138.009C143.603 137.133 142.231 135.685 142.111 133.783C141.738 127.876 153.64 127.019 156.5 114.023C159.329 101.168 151.019 92.4414 142.098 91.1683C132.771 89.8383 121.162 94.2893 120.524 109.615C120.027 121.576 125.811 123.437 126.102 129.72Z" fill="#EF383D"/>
<mask id="mask7" mask-type="alpha" maskUnits="userSpaceOnUse" x="112" y="90" width="56" height="66">
<path fill-rule="evenodd" clip-rule="evenodd" d="M142.098 91.1684C151.02 92.4407 159.329 101.167 156.5 114.023C153.64 127.019 141.738 127.876 142.111 133.783C142.231 135.685 143.603 137.133 145.289 138.008C149.069 139.974 153.52 138.526 157.495 138.481C159.513 138.459 163.448 139.15 166.106 142.824C168.629 146.309 165.677 150.566 162.103 150.086C159.422 149.725 158.452 147.026 159.248 145.103C157.549 144.909 155.954 145.133 154.707 145.505C151.101 146.583 149.807 147.092 148.421 147.045C152.02 157.189 133.608 160.67 131.731 147.008C130.183 147.202 128.539 147.375 127.071 147.948C126.262 150.437 125.334 152.919 122.787 154.068C118.804 155.866 113.013 154.376 112.845 149.354C112.67 144.109 118.499 143.573 120.432 139.668C119.134 137.029 116.754 131.761 119.65 129.225C120.655 128.346 124.781 129.523 126.102 129.72C125.811 123.437 120.026 121.575 120.525 109.615C121.092 95.9715 130.355 90.9458 138.962 90.9458C140.023 90.9458 141.074 91.0225 142.098 91.1684Z" fill="white"/>
</mask>
<g mask="url(#mask7)">
<path fill-rule="evenodd" clip-rule="evenodd" d="M149.666 104.57C141.952 108.082 134.35 101.401 129.447 101.524C124.773 105.648 124.835 109.993 125.634 115.275C125.143 116.519 124.487 116.896 124.269 117.205C124.462 117.731 125.899 117.954 126.147 118.493C127.614 121.672 128.785 125.819 128.785 128.673C128.785 130.948 128.863 132.876 129.402 135.08C129.958 137.354 133.409 145.696 131.744 147.919C131.044 148.855 126.733 149.777 127.117 147.937C127.931 144.046 124.114 141.572 124.133 143.348C124.222 151.95 118.973 157.331 113.704 153.064C112.313 151.938 111.487 151.213 111.213 149.396C110.456 144.358 116.443 144.486 116.86 139.495C117.088 136.771 116.217 134.174 116.3 131.479C116.378 128.961 117.559 126.695 117.378 124.13C116.992 118.614 115.072 112.847 116.621 107.34C117.521 104.14 119.65 101.807 121.242 99.005C121.238 99.0066 121.231 99.0075 121.225 99.0091C128.451 91.8445 142.814 99.555 149.666 104.57Z" fill="#BC2025"/>
</g>
<mask id="mask8" mask-type="alpha" maskUnits="userSpaceOnUse" x="112" y="90" width="56" height="66">
<path fill-rule="evenodd" clip-rule="evenodd" d="M142.098 91.1684C151.02 92.4407 159.329 101.167 156.5 114.023C153.64 127.019 141.738 127.876 142.111 133.783C142.231 135.685 143.603 137.133 145.289 138.008C149.069 139.974 153.52 138.526 157.495 138.481C159.513 138.459 163.448 139.15 166.106 142.824C168.629 146.309 165.677 150.566 162.103 150.086C159.422 149.725 158.452 147.026 159.248 145.103C157.549 144.909 155.954 145.133 154.707 145.505C151.101 146.583 149.807 147.092 148.421 147.045C152.02 157.189 133.608 160.67 131.731 147.008C130.183 147.202 128.539 147.375 127.071 147.948C126.262 150.437 125.334 152.919 122.787 154.068C118.804 155.866 113.013 154.376 112.845 149.354C112.67 144.109 118.499 143.573 120.432 139.668C119.134 137.029 116.754 131.761 119.65 129.225C120.655 128.346 124.781 129.523 126.102 129.72C125.811 123.437 120.026 121.575 120.525 109.615C121.092 95.9715 130.355 90.9458 138.962 90.9458C140.023 90.9458 141.074 91.0225 142.098 91.1684Z" fill="white"/>
</mask>
<g mask="url(#mask8)">
<path fill-rule="evenodd" clip-rule="evenodd" d="M160.715 143.67C159.715 145.445 160.667 148.001 162.588 148.497C165.892 149.352 167.472 145.967 167.51 146.354C167.698 148.24 166.473 149.844 164.836 150.633C162.093 151.956 158.434 150.897 157.164 148.024C156.011 145.415 157.992 143.533 160.715 143.67Z" fill="#BC2025"/>
</g>
<mask id="mask9" mask-type="alpha" maskUnits="userSpaceOnUse" x="112" y="90" width="56" height="66">
<path fill-rule="evenodd" clip-rule="evenodd" d="M142.098 91.1684C151.02 92.4407 159.329 101.167 156.5 114.023C153.64 127.019 141.738 127.876 142.111 133.783C142.231 135.685 143.603 137.133 145.289 138.008C149.069 139.974 153.52 138.526 157.495 138.481C159.513 138.459 163.448 139.15 166.106 142.824C168.629 146.309 165.677 150.566 162.103 150.086C159.422 149.725 158.452 147.026 159.248 145.103C157.549 144.909 155.954 145.133 154.707 145.505C151.101 146.583 149.807 147.092 148.421 147.045C152.02 157.189 133.608 160.67 131.731 147.008C130.183 147.202 128.539 147.375 127.071 147.948C126.262 150.437 125.334 152.919 122.787 154.068C118.804 155.866 113.013 154.376 112.845 149.354C112.67 144.109 118.499 143.573 120.432 139.668C119.134 137.029 116.754 131.761 119.65 129.225C120.655 128.346 124.781 129.523 126.102 129.72C125.811 123.437 120.026 121.575 120.525 109.615C121.092 95.9715 130.355 90.9458 138.962 90.9458C140.023 90.9458 141.074 91.0225 142.098 91.1684Z" fill="white"/>
</mask>
<g mask="url(#mask9)">
<path fill-rule="evenodd" clip-rule="evenodd" d="M161.972 144.107C158.229 142.27 155.064 142.867 151.117 143.319C149.678 143.484 148.215 143.676 146.78 143.364C145.034 142.984 143.814 141.492 142.457 140.438C144.885 142.691 147.539 144.797 148.878 147.929C150.842 147.041 156.551 146.461 158.883 146.543C158.73 145.423 160.54 143.54 161.972 144.107Z" fill="#BC2025"/>
</g>
<mask id="mask10" mask-type="alpha" maskUnits="userSpaceOnUse" x="112" y="90" width="56" height="66">
<path fill-rule="evenodd" clip-rule="evenodd" d="M142.098 91.1684C151.02 92.4407 159.329 101.167 156.5 114.023C153.64 127.019 141.738 127.876 142.111 133.783C142.231 135.685 143.603 137.133 145.289 138.008C149.069 139.974 153.52 138.526 157.495 138.481C159.513 138.459 163.448 139.15 166.106 142.824C168.629 146.309 165.677 150.566 162.103 150.086C159.422 149.725 158.452 147.026 159.248 145.103C157.549 144.909 155.954 145.133 154.707 145.505C151.101 146.583 149.807 147.092 148.421 147.045C152.02 157.189 133.608 160.67 131.731 147.008C130.183 147.202 128.539 147.375 127.071 147.948C126.262 150.437 125.334 152.919 122.787 154.068C118.804 155.866 113.013 154.376 112.845 149.354C112.67 144.109 118.499 143.573 120.432 139.668C119.134 137.029 116.754 131.761 119.65 129.225C120.655 128.346 124.781 129.523 126.102 129.72C125.811 123.437 120.026 121.575 120.525 109.615C121.092 95.9715 130.355 90.9458 138.962 90.9458C140.023 90.9458 141.074 91.0225 142.098 91.1684Z" fill="white"/>
</mask>
<g mask="url(#mask10)">
<path fill-rule="evenodd" clip-rule="evenodd" d="M142.849 132.209C143.416 129.876 147.522 128.431 149.336 125.611C145.968 126.986 144.2 127.926 142.468 129.976C139.708 133.243 141.451 137.154 144.96 138.991C147.831 140.493 151.334 140.396 154.424 139.766C156.708 139.302 159.29 139.331 161.522 140.131C164.859 141.329 167.095 144.393 166.588 148.17C167.24 146.939 167.681 145.346 167.555 143.953C167.309 141.271 164.846 138.979 162.346 138.352C159.276 137.584 156.14 138.207 153.07 138.581C151.887 138.724 150.697 138.752 149.506 138.785C148.774 138.805 141.332 138.943 142.849 132.209Z" fill="#F48EAA"/>
</g>
<mask id="mask11" mask-type="alpha" maskUnits="userSpaceOnUse" x="112" y="90" width="56" height="66">
<path fill-rule="evenodd" clip-rule="evenodd" d="M142.098 91.1684C151.02 92.4407 159.329 101.167 156.5 114.023C153.64 127.019 141.738 127.876 142.111 133.783C142.231 135.685 143.603 137.133 145.289 138.008C149.069 139.974 153.52 138.526 157.495 138.481C159.513 138.459 163.448 139.15 166.106 142.824C168.629 146.309 165.677 150.566 162.103 150.086C159.422 149.725 158.452 147.026 159.248 145.103C157.549 144.909 155.954 145.133 154.707 145.505C151.101 146.583 149.807 147.092 148.421 147.045C152.02 157.189 133.608 160.67 131.731 147.008C130.183 147.202 128.539 147.375 127.071 147.948C126.262 150.437 125.334 152.919 122.787 154.068C118.804 155.866 113.013 154.376 112.845 149.354C112.67 144.109 118.499 143.573 120.432 139.668C119.134 137.029 116.754 131.761 119.65 129.225C120.655 128.346 124.781 129.523 126.102 129.72C125.811 123.437 120.026 121.575 120.525 109.615C121.092 95.9715 130.355 90.9458 138.962 90.9458C140.023 90.9458 141.074 91.0225 142.098 91.1684Z" fill="white"/>
</mask>
<g mask="url(#mask11)">
<path fill-rule="evenodd" clip-rule="evenodd" d="M138.591 133.279C138.163 134.951 138.516 137.067 139.544 138.751C140.642 140.546 142.938 142.485 144.468 143.865C147.17 146.304 149.407 150.446 147.056 153.931C153.927 146.585 142.713 142.376 139.635 137.319C139.042 136.345 138.693 134.395 138.591 133.279Z" fill="#F48EAA"/>
</g>
<mask id="mask12" mask-type="alpha" maskUnits="userSpaceOnUse" x="112" y="90" width="56" height="66">
<path fill-rule="evenodd" clip-rule="evenodd" d="M142.098 91.1684C151.02 92.4407 159.329 101.167 156.5 114.023C153.64 127.019 141.738 127.876 142.111 133.783C142.231 135.685 143.603 137.133 145.289 138.008C149.069 139.974 153.52 138.526 157.495 138.481C159.513 138.459 163.448 139.15 166.106 142.824C168.629 146.309 165.677 150.566 162.103 150.086C159.422 149.725 158.452 147.026 159.248 145.103C157.549 144.909 155.954 145.133 154.707 145.505C151.101 146.583 149.807 147.092 148.421 147.045C152.02 157.189 133.608 160.67 131.731 147.008C130.183 147.202 128.539 147.375 127.071 147.948C126.262 150.437 125.334 152.919 122.787 154.068C118.804 155.866 113.013 154.376 112.845 149.354C112.67 144.109 118.499 143.573 120.432 139.668C119.134 137.029 116.754 131.761 119.65 129.225C120.655 128.346 124.781 129.523 126.102 129.72C125.811 123.437 120.026 121.575 120.525 109.615C121.092 95.9715 130.355 90.9458 138.962 90.9458C140.023 90.9458 141.074 91.0225 142.098 91.1684Z" fill="white"/>
</mask>
<g mask="url(#mask12)">
<path fill-rule="evenodd" clip-rule="evenodd" d="M141.952 148.115C138.492 149.26 136.946 146.954 136.006 143.903C135.42 142.003 135.309 140.016 134.778 138.105C134.031 135.42 131.911 131.439 128.785 131C130.773 130.546 132.693 132.047 133.755 133.594C134.885 135.239 135.638 137.061 136.116 138.996C136.616 141.017 136.858 143.1 137.669 145.037C138.543 147.124 139.751 148.048 141.952 148.115Z" fill="#F48EAA"/>
</g>
<mask id="mask13" mask-type="alpha" maskUnits="userSpaceOnUse" x="112" y="90" width="56" height="66">
<path fill-rule="evenodd" clip-rule="evenodd" d="M142.098 91.1684C151.02 92.4407 159.329 101.167 156.5 114.023C153.64 127.019 141.738 127.876 142.111 133.783C142.231 135.685 143.603 137.133 145.289 138.008C149.069 139.974 153.52 138.526 157.495 138.481C159.513 138.459 163.448 139.15 166.106 142.824C168.629 146.309 165.677 150.566 162.103 150.086C159.422 149.725 158.452 147.026 159.248 145.103C157.549 144.909 155.954 145.133 154.707 145.505C151.101 146.583 149.807 147.092 148.421 147.045C152.02 157.189 133.608 160.67 131.731 147.008C130.183 147.202 128.539 147.375 127.071 147.948C126.262 150.437 125.334 152.919 122.787 154.068C118.804 155.866 113.013 154.376 112.845 149.354C112.67 144.109 118.499 143.573 120.432 139.668C119.134 137.029 116.754 131.761 119.65 129.225C120.655 128.346 124.781 129.523 126.102 129.72C125.811 123.437 120.026 121.575 120.525 109.615C121.092 95.9715 130.355 90.9458 138.962 90.9458C140.023 90.9458 141.074 91.0225 142.098 91.1684Z" fill="white"/>
</mask>
<g mask="url(#mask13)">
<path fill-rule="evenodd" clip-rule="evenodd" d="M127.147 145.868C126.777 150.136 125.881 156 117.71 155.038C119.325 155.151 122.122 153.854 123.303 152.981C125.997 150.99 126.629 148.318 127.147 145.868Z" fill="#F48EAA"/>
</g>
<mask id="mask14" mask-type="alpha" maskUnits="userSpaceOnUse" x="112" y="90" width="56" height="66">
<path fill-rule="evenodd" clip-rule="evenodd" d="M142.098 91.1684C151.02 92.4407 159.329 101.167 156.5 114.023C153.64 127.019 141.738 127.876 142.111 133.783C142.231 135.685 143.603 137.133 145.289 138.008C149.069 139.974 153.52 138.526 157.495 138.481C159.513 138.459 163.448 139.15 166.106 142.824C168.629 146.309 165.677 150.566 162.103 150.086C159.422 149.725 158.452 147.026 159.248 145.103C157.549 144.909 155.954 145.133 154.707 145.505C151.101 146.583 149.807 147.092 148.421 147.045C152.02 157.189 133.608 160.67 131.731 147.008C130.183 147.202 128.539 147.375 127.071 147.948C126.262 150.437 125.334 152.919 122.787 154.068C118.804 155.866 113.013 154.376 112.845 149.354C112.67 144.109 118.499 143.573 120.432 139.668C119.134 137.029 116.754 131.761 119.65 129.225C120.655 128.346 124.781 129.523 126.102 129.72C125.811 123.437 120.026 121.575 120.525 109.615C121.092 95.9715 130.355 90.9458 138.962 90.9458C140.023 90.9458 141.074 91.0225 142.098 91.1684Z" fill="white"/>
</mask>
<g mask="url(#mask14)">
<path fill-rule="evenodd" clip-rule="evenodd" d="M147.934 152.999C146.704 153.908 145.36 154.296 143.848 154.369C139.126 154.598 135.541 150.919 134.385 146.542C133.523 143.276 134.314 139.158 133.027 135.964C132.447 134.524 130.013 131.686 128.071 131.601C129.34 133.988 131.094 135.35 131.517 138.085C131.842 140.18 131.708 142.973 131.517 145.041C131.199 148.485 132.888 151.554 135.003 154.192C136.115 155.579 137.577 156.719 139.315 157.165C142.5 157.981 146.68 156.279 147.934 152.999Z" fill="#BC2025"/>
</g>
<mask id="mask15" mask-type="alpha" maskUnits="userSpaceOnUse" x="112" y="90" width="56" height="66">
<path fill-rule="evenodd" clip-rule="evenodd" d="M142.098 91.1684C151.02 92.4407 159.329 101.167 156.5 114.023C153.64 127.019 141.738 127.876 142.111 133.783C142.231 135.685 143.603 137.133 145.289 138.008C149.069 139.974 153.52 138.526 157.495 138.481C159.513 138.459 163.448 139.15 166.106 142.824C168.629 146.309 165.677 150.566 162.103 150.086C159.422 149.725 158.452 147.026 159.248 145.103C157.549 144.909 155.954 145.133 154.707 145.505C151.101 146.583 149.807 147.092 148.421 147.045C152.02 157.189 133.608 160.67 131.731 147.008C130.183 147.202 128.539 147.375 127.071 147.948C126.262 150.437 125.334 152.919 122.787 154.068C118.804 155.866 113.013 154.376 112.845 149.354C112.67 144.109 118.499 143.573 120.432 139.668C119.134 137.029 116.754 131.761 119.65 129.225C120.655 128.346 124.781 129.523 126.102 129.72C125.811 123.437 120.026 121.575 120.525 109.615C121.092 95.9715 130.355 90.9458 138.962 90.9458C140.023 90.9458 141.074 91.0225 142.098 91.1684Z" fill="white"/>
</mask>
<g mask="url(#mask15)">
<path fill-rule="evenodd" clip-rule="evenodd" d="M142.049 148.25C143.587 148.466 144.282 147.413 142.767 145.897C142.09 145.221 141.132 144.753 140.319 144.265C138.738 143.319 136.986 141.96 136.257 140.194C136.851 143.179 137.646 148.269 142.049 148.25Z" fill="#BC2025"/>
</g>
<path fill-rule="evenodd" clip-rule="evenodd" d="M126.102 129.72C124.781 129.524 120.655 128.346 119.65 129.225C116.754 131.761 119.134 137.029 120.432 139.668C118.499 143.573 112.67 144.109 112.845 149.354C113.012 154.376 118.804 155.866 122.786 154.068C125.334 152.919 126.262 150.438 127.071 147.948C128.538 147.374 130.183 147.202 131.731 147.008C133.608 160.67 152.019 157.189 148.421 147.045C149.806 147.092 151.101 146.583 154.707 145.506C155.954 145.132 157.549 144.91 159.248 145.103C158.452 147.026 159.422 149.725 162.103 150.086C165.677 150.566 168.629 146.31 166.106 142.825C163.448 139.151 159.513 138.458 157.495 138.482C153.52 138.527 149.068 139.975 145.289 138.009C143.603 137.133 142.231 135.685 142.111 133.783C141.738 127.876 153.64 127.019 156.5 114.023C159.329 101.168 151.019 92.4414 142.098 91.1683C132.771 89.8383 121.162 94.2893 120.524 109.615C120.027 121.576 125.811 123.437 126.102 129.72Z" stroke="black" stroke-width="0.481" stroke-linecap="round" stroke-linejoin="round"/>
<path fill-rule="evenodd" clip-rule="evenodd" d="M120.611 139.594C121.298 141.249 121.747 143.136 121.244 144.677C120.999 145.428 120.543 146.117 119.761 146.626C119.647 146.701 119.526 146.771 119.394 146.832C119.211 146.917 119.015 146.981 118.804 147.043C118.758 147.063 118.705 147.041 118.685 146.995C118.666 146.949 118.687 146.895 118.733 146.876C118.916 146.772 119.076 146.659 119.235 146.55C119.346 146.475 119.453 146.401 119.556 146.326C120.234 145.829 120.661 145.236 120.878 144.558C121.347 143.095 120.907 141.312 120.253 139.744C120.212 139.645 120.259 139.531 120.358 139.49C120.456 139.448 120.57 139.495 120.611 139.594Z" fill="black"/>
<path fill-rule="evenodd" clip-rule="evenodd" d="M113.303 133.887C113.131 133.154 112.681 132.272 112.034 131.79C111.622 131.483 111.127 131.342 110.564 131.542C110.135 131.682 109.813 132.04 109.695 132.435C109.573 132.848 109.667 133.299 110.1 133.604C110.13 133.624 110.139 133.664 110.121 133.695C110.102 133.726 110.061 133.735 110.03 133.716C109.477 133.406 109.318 132.871 109.422 132.366C109.525 131.861 109.909 131.392 110.431 131.179C111.133 130.915 111.763 131.072 112.28 131.455C113.004 131.989 113.502 132.98 113.686 133.799C113.709 133.904 113.644 134.01 113.539 134.035C113.433 134.059 113.327 133.993 113.303 133.887Z" fill="black"/>
<path fill-rule="evenodd" clip-rule="evenodd" d="M159 145.22C159.47 144.482 160.21 143.937 161.011 143.731C161.836 143.518 162.722 143.658 163.446 144.284C163.897 144.697 164.206 145.292 164.175 145.861C164.146 146.375 163.853 146.873 163.138 147.168C163.105 147.184 163.066 147.169 163.051 147.136C163.035 147.103 163.049 147.064 163.082 147.049C163.673 146.737 163.901 146.301 163.89 145.856C163.885 145.662 163.831 145.469 163.746 145.284C163.623 145.017 163.428 144.771 163.193 144.581C162.89 144.327 162.556 144.172 162.211 144.101C161.848 144.024 161.475 144.04 161.115 144.134C160.407 144.314 159.75 144.787 159.329 145.434C159.271 145.525 159.149 145.551 159.058 145.492C158.967 145.433 158.941 145.31 159 145.22Z" fill="black"/>
<path fill-rule="evenodd" clip-rule="evenodd" d="M148.243 147.13C147.829 146.261 147.218 145.364 146.509 144.523C145.825 143.711 145.048 142.953 144.263 142.32C142.939 141.251 140.765 139.736 139.501 137.454C139.071 136.674 138.732 135.809 138.593 134.839C138.551 134.54 138.531 134.232 138.53 133.915C138.529 133.616 138.547 133.31 138.584 132.995C138.588 132.934 138.641 132.888 138.702 132.891C138.763 132.896 138.809 132.95 138.805 133.011C138.798 133.318 138.81 133.614 138.834 133.902C138.859 134.205 138.901 134.497 138.953 134.78C139.119 135.699 139.424 136.525 139.839 137.265C141.085 139.491 143.214 140.967 144.511 142.01C145.315 142.657 146.111 143.435 146.812 144.265C147.544 145.134 148.173 146.061 148.6 146.959C148.647 147.058 148.605 147.177 148.506 147.223C148.409 147.271 148.29 147.229 148.243 147.13Z" fill="black"/>
<path fill-rule="evenodd" clip-rule="evenodd" d="M140.902 104.923C140.41 105.095 139.959 105.333 139.545 105.607C139.258 105.797 138.99 106.005 138.739 106.222C138.636 106.312 138.535 106.402 138.438 106.493C138.287 106.634 138.143 106.779 138.006 106.924C137.63 107.325 137.312 107.737 137.062 108.127C137.05 108.146 137.025 108.152 137.005 108.14C136.985 108.129 136.98 108.103 136.991 108.084C137.222 107.674 137.516 107.235 137.878 106.809C138.011 106.654 138.153 106.501 138.303 106.352C138.402 106.256 138.504 106.162 138.61 106.071C138.869 105.849 139.152 105.644 139.453 105.461C139.888 105.199 140.364 104.986 140.875 104.838C140.899 104.831 140.924 104.843 140.932 104.867C140.939 104.891 140.926 104.916 140.902 104.923Z" fill="black"/>
<path fill-rule="evenodd" clip-rule="evenodd" d="M143.5 105.36C143.795 105.478 144.085 105.625 144.354 105.809C144.531 105.929 144.701 106.065 144.857 106.216C144.92 106.276 144.979 106.338 145.037 106.404C145.123 106.502 145.203 106.604 145.277 106.71C145.464 106.977 145.613 107.265 145.724 107.569C145.733 107.59 145.723 107.614 145.702 107.623C145.681 107.632 145.657 107.622 145.649 107.602C145.515 107.318 145.341 107.057 145.142 106.815C145.062 106.718 144.98 106.625 144.894 106.535C144.837 106.476 144.779 106.417 144.719 106.359C144.571 106.213 144.416 106.075 144.252 105.948C144.003 105.754 143.74 105.581 143.464 105.442C143.441 105.431 143.431 105.405 143.441 105.382C143.451 105.36 143.478 105.349 143.5 105.36Z" fill="black"/>
<path fill-rule="evenodd" clip-rule="evenodd" d="M142.56 105.741C144.286 106.063 146.047 107.585 147.029 108.105C147.769 108.497 146.407 109.595 146.348 111.075C146.275 112.881 140.244 105.309 142.56 105.741Z" fill="black"/>
<path fill-rule="evenodd" clip-rule="evenodd" d="M147.619 106.829C147.462 106.113 147.155 105.376 146.724 104.691C146.34 104.082 145.842 103.534 145.204 103.126C144.783 102.827 144.313 102.638 143.833 102.495C143.33 102.345 142.814 102.246 142.293 102.226C141.144 102.181 140.004 102.414 139.135 102.928C139.005 103.021 138.823 102.99 138.73 102.859C138.636 102.727 138.667 102.546 138.797 102.452C139.683 101.691 140.931 101.156 142.254 101.019C142.902 100.952 143.565 100.989 144.201 101.149C144.844 101.312 145.449 101.618 145.997 102.024C146.729 102.625 147.294 103.367 147.657 104.19C148.028 105.028 148.21 105.918 148.247 106.745C148.27 106.92 148.148 107.08 147.975 107.103C147.801 107.126 147.641 107.003 147.619 106.829Z" fill="black"/>
<path fill-rule="evenodd" clip-rule="evenodd" d="M142.969 105.758C145.697 106.612 147.143 109.78 146.196 112.828C145.249 115.876 142.265 117.658 139.537 116.803C136.809 115.948 135.363 112.78 136.311 109.732C137.257 106.684 140.241 104.903 142.969 105.758Z" fill="white"/>
<mask id="mask16" mask-type="alpha" maskUnits="userSpaceOnUse" x="136" y="105" width="11" height="13">
<path fill-rule="evenodd" clip-rule="evenodd" d="M142.969 105.758C145.697 106.612 147.143 109.78 146.196 112.828C145.249 115.876 142.265 117.658 139.537 116.803C136.809 115.949 135.363 112.78 136.311 109.732C137.097 107.201 139.289 105.544 141.57 105.544C142.037 105.544 142.506 105.612 142.969 105.758Z" fill="white"/>
</mask>
<g mask="url(#mask16)">
<path fill-rule="evenodd" clip-rule="evenodd" d="M142.525 107.586C144.573 108.206 145.666 110.605 144.964 112.939C144.262 115.274 142.029 116.666 139.982 116.045C137.935 115.425 136.841 113.025 137.543 110.692C138.244 108.357 140.477 106.965 142.525 107.586Z" fill="black"/>
</g>
<mask id="mask17" mask-type="alpha" maskUnits="userSpaceOnUse" x="136" y="105" width="11" height="13">
<path fill-rule="evenodd" clip-rule="evenodd" d="M142.969 105.758C145.697 106.612 147.143 109.78 146.196 112.828C145.249 115.876 142.265 117.658 139.537 116.803C136.809 115.949 135.363 112.78 136.311 109.732C137.097 107.201 139.289 105.544 141.57 105.544C142.037 105.544 142.506 105.612 142.969 105.758Z" fill="white"/>
</mask>
<g mask="url(#mask17)">
<path fill-rule="evenodd" clip-rule="evenodd" d="M138.927 111.2C138.806 111.807 138.835 112.321 138.945 112.753C139.135 113.495 139.674 113.91 140.286 114.05C140.813 114.171 141.4 114.099 141.901 113.768C142.361 113.466 142.765 112.994 142.983 112.3C143.054 112.024 143.334 111.857 143.609 111.928C143.884 111.998 144.051 112.28 143.98 112.556C143.677 114.079 142.712 114.991 141.661 115.345C141.104 115.533 140.512 115.552 139.966 115.423C139.584 115.333 139.222 115.169 138.911 114.931C137.97 114.211 137.369 112.857 137.992 110.949C138.061 110.69 138.327 110.536 138.585 110.605C138.843 110.674 138.996 110.942 138.927 111.2Z" fill="#8C181B"/>
</g>
<mask id="mask18" mask-type="alpha" maskUnits="userSpaceOnUse" x="136" y="105" width="11" height="13">
<path fill-rule="evenodd" clip-rule="evenodd" d="M142.969 105.758C145.697 106.612 147.143 109.78 146.196 112.828C145.249 115.876 142.265 117.658 139.537 116.803C136.809 115.949 135.363 112.78 136.311 109.732C137.097 107.201 139.289 105.544 141.57 105.544C142.037 105.544 142.506 105.612 142.969 105.758Z" fill="white"/>
</mask>
<g mask="url(#mask18)">
<path fill-rule="evenodd" clip-rule="evenodd" d="M141.974 109.127C142.367 108.821 142.948 108.909 143.272 109.325C143.596 109.739 143.54 110.324 143.146 110.63C142.754 110.935 142.172 110.847 141.849 110.431C141.526 110.016 141.582 109.432 141.974 109.127Z" fill="white"/>
</g>
<mask id="mask19" mask-type="alpha" maskUnits="userSpaceOnUse" x="136" y="105" width="11" height="13">
<path fill-rule="evenodd" clip-rule="evenodd" d="M142.969 105.758C145.697 106.612 147.143 109.78 146.196 112.828C145.249 115.876 142.265 117.658 139.537 116.803C136.809 115.949 135.363 112.78 136.311 109.732C137.097 107.201 139.289 105.544 141.57 105.544C142.037 105.544 142.506 105.612 142.969 105.758Z" fill="white"/>
</mask>
<g mask="url(#mask19)">
<path fill-rule="evenodd" clip-rule="evenodd" d="M138.795 113.66C139.064 113.66 139.283 113.89 139.284 114.173C139.284 114.457 139.066 114.686 138.796 114.685C138.527 114.685 138.308 114.455 138.307 114.172C138.307 113.889 138.525 113.66 138.795 113.66Z" fill="white"/>
</g>
<path fill-rule="evenodd" clip-rule="evenodd" d="M143.007 105.635C143.889 105.889 144.652 106.373 145.248 107.025C145.644 107.459 145.963 107.97 146.201 108.527C146.752 109.819 146.85 111.368 146.376 112.885C145.902 114.399 144.939 115.609 143.754 116.355C142.478 117.158 140.945 117.426 139.485 116.964C138.029 116.505 136.928 115.407 136.341 114.018C135.798 112.731 135.699 111.195 136.171 109.689C136.643 108.186 137.599 106.986 138.777 106.245C140.041 105.45 141.559 105.185 143.005 105.643L143.007 105.635ZM142.933 105.873C141.556 105.447 140.115 105.708 138.918 106.471C137.797 107.185 136.891 108.337 136.449 109.775C136.007 111.212 136.108 112.673 136.63 113.894C137.186 115.192 138.22 116.218 139.586 116.642C140.949 117.064 142.376 116.805 143.562 116.05C144.674 115.342 145.574 114.199 146.014 112.771C146.455 111.346 146.352 109.897 145.838 108.681C145.62 108.163 145.323 107.691 144.966 107.275C144.426 106.65 143.744 106.156 142.931 105.879L142.933 105.873Z" fill="black"/>
<path fill-rule="evenodd" clip-rule="evenodd" d="M122.498 104.453C122.682 104.162 122.891 103.879 123.134 103.623C123.295 103.452 123.47 103.295 123.656 103.154C123.731 103.097 123.809 103.045 123.888 102.996C124.009 102.921 124.133 102.855 124.261 102.795C124.579 102.65 124.918 102.554 125.271 102.517C125.294 102.513 125.314 102.529 125.318 102.551C125.322 102.574 125.305 102.595 125.284 102.598C124.947 102.664 124.633 102.788 124.338 102.949C124.22 103.014 124.106 103.085 123.994 103.16C123.919 103.209 123.847 103.262 123.774 103.315C123.593 103.447 123.419 103.591 123.255 103.746C123.005 103.981 122.773 104.235 122.572 104.504C122.558 104.524 122.53 104.529 122.509 104.515C122.489 104.501 122.484 104.472 122.498 104.453Z" fill="black"/>
<path fill-rule="evenodd" clip-rule="evenodd" d="M127.74 103.545C127.938 103.779 128.11 104.04 128.252 104.321C128.345 104.505 128.426 104.696 128.495 104.893C128.522 104.97 128.547 105.05 128.569 105.13C128.603 105.249 128.632 105.37 128.658 105.49C128.722 105.798 128.765 106.107 128.797 106.404C128.801 106.427 128.786 106.448 128.764 106.451C128.741 106.455 128.72 106.44 128.716 106.417C128.679 106.242 128.635 106.065 128.589 105.884C128.543 105.709 128.493 105.534 128.439 105.359C128.404 105.244 128.365 105.13 128.327 105.014C128.288 104.9 128.249 104.787 128.207 104.674C128.151 104.523 128.09 104.374 128.023 104.229C127.921 104.008 127.806 103.795 127.669 103.599C127.655 103.58 127.658 103.551 127.677 103.537C127.696 103.522 127.724 103.525 127.74 103.545Z" fill="black"/>
<path fill-rule="evenodd" clip-rule="evenodd" d="M126.186 103.148C124.857 103.041 123.661 103.165 122.779 103.309C121.786 103.471 122.402 104.455 121.771 106.373C121.207 108.09 128.534 103.337 126.186 103.148Z" fill="black"/>
<path fill-rule="evenodd" clip-rule="evenodd" d="M129.369 100.203C128.996 99.9576 128.547 99.7836 128.058 99.6673C127.645 99.5675 127.208 99.5469 126.76 99.6302C126.457 99.6624 126.175 99.7663 125.9 99.8792C125.605 100.002 125.318 100.133 125.057 100.311C124.458 100.719 123.955 101.222 123.707 101.789C123.663 101.943 123.502 102.034 123.348 101.989C123.193 101.946 123.105 101.784 123.148 101.629C123.209 101.156 123.387 100.677 123.654 100.207C123.822 99.913 124.034 99.6442 124.275 99.3919C124.577 99.0744 124.931 98.8015 125.33 98.6061C125.732 98.4082 126.182 98.3093 126.642 98.2771C127.281 98.282 127.887 98.4033 128.418 98.6712C128.965 98.9458 129.427 99.3152 129.785 99.7242C129.917 99.8396 129.931 100.041 129.816 100.173C129.701 100.306 129.5 100.32 129.369 100.203Z" fill="black"/>
<path fill-rule="evenodd" clip-rule="evenodd" d="M126.035 103.213C128.058 103.597 129.258 106.254 128.714 109.143C128.17 112.033 126.086 114.068 124.065 113.684C122.042 113.301 120.842 110.644 121.386 107.754C121.93 104.864 124.014 102.83 126.035 103.213Z" fill="white"/>
<mask id="mask20" mask-type="alpha" maskUnits="userSpaceOnUse" x="121" y="103" width="8" height="11">
<path fill-rule="evenodd" clip-rule="evenodd" d="M126.035 103.213C128.058 103.596 129.257 106.254 128.714 109.144C128.17 112.033 126.086 114.068 124.065 113.685C122.043 113.301 120.843 110.644 121.386 107.754C121.886 105.1 123.685 103.166 125.541 103.166C125.706 103.166 125.871 103.182 126.035 103.213Z" fill="white"/>
</mask>
<g mask="url(#mask20)">
<path fill-rule="evenodd" clip-rule="evenodd" d="M126.429 104.959C128.241 105.149 129.323 107.157 128.845 109.441C128.367 111.724 126.509 113.422 124.699 113.232C122.888 113.041 121.806 111.034 122.283 108.75C122.761 106.467 124.619 104.769 126.429 104.959Z" fill="black"/>
</g>
<mask id="mask21" mask-type="alpha" maskUnits="userSpaceOnUse" x="121" y="103" width="8" height="11">
<path fill-rule="evenodd" clip-rule="evenodd" d="M126.035 103.213C128.058 103.596 129.257 106.254 128.714 109.144C128.17 112.033 126.086 114.068 124.065 113.685C122.043 113.301 120.843 110.644 121.386 107.754C121.886 105.1 123.685 103.166 125.541 103.166C125.706 103.166 125.871 103.182 126.035 103.213Z" fill="white"/>
</mask>
<g mask="url(#mask21)">
<path fill-rule="evenodd" clip-rule="evenodd" d="M123.573 109.177C123.486 109.813 123.601 110.32 123.813 110.699C124.03 111.09 124.4 111.282 124.792 111.287C125.178 111.292 125.581 111.118 125.921 110.724C126.223 110.375 126.495 109.901 126.661 109.256C126.713 108.975 126.983 108.791 127.262 108.843C127.54 108.896 127.724 109.166 127.672 109.446C127.499 110.828 126.915 111.725 126.249 112.218C125.786 112.561 125.262 112.707 124.765 112.697C124.397 112.688 124.037 112.594 123.721 112.41C122.819 111.886 122.148 110.68 122.625 108.975C122.681 108.713 122.938 108.545 123.199 108.6C123.461 108.656 123.628 108.915 123.573 109.177Z" fill="#8C181B"/>
</g>
<mask id="mask22" mask-type="alpha" maskUnits="userSpaceOnUse" x="121" y="103" width="8" height="11">
<path fill-rule="evenodd" clip-rule="evenodd" d="M126.035 103.213C128.058 103.596 129.257 106.254 128.714 109.144C128.17 112.033 126.086 114.068 124.065 113.685C122.043 113.301 120.843 110.644 121.386 107.754C121.886 105.1 123.685 103.166 125.541 103.166C125.706 103.166 125.871 103.182 126.035 103.213Z" fill="white"/>
</mask>
<g mask="url(#mask22)">
<path fill-rule="evenodd" clip-rule="evenodd" d="M127.575 106.735C127.931 107.064 127.968 107.584 127.656 107.896C127.344 108.208 126.801 108.194 126.445 107.863C126.087 107.534 126.052 107.014 126.363 106.702C126.675 106.39 127.217 106.406 127.575 106.735Z" fill="white"/>
</g>
<mask id="mask23" mask-type="alpha" maskUnits="userSpaceOnUse" x="121" y="103" width="8" height="11">
<path fill-rule="evenodd" clip-rule="evenodd" d="M126.035 103.213C128.058 103.596 129.257 106.254 128.714 109.144C128.17 112.033 126.086 114.068 124.065 113.685C122.043 113.301 120.843 110.644 121.386 107.754C121.886 105.1 123.685 103.166 125.541 103.166C125.706 103.166 125.871 103.182 126.035 103.213Z" fill="white"/>
</mask>
<g mask="url(#mask23)">
<path fill-rule="evenodd" clip-rule="evenodd" d="M123.788 111.29C123.975 111.528 123.944 111.865 123.72 112.042C123.496 112.219 123.163 112.169 122.976 111.931C122.79 111.693 122.82 111.356 123.043 111.179C123.268 111.002 123.601 111.051 123.788 111.29Z" fill="white"/>
</g>
<path fill-rule="evenodd" clip-rule="evenodd" d="M126.052 103.12C127 103.294 127.777 103.95 128.29 104.896C128.901 106.022 129.138 107.558 128.844 109.169C128.548 110.785 127.777 112.141 126.805 112.977C125.975 113.691 124.998 114.028 124.033 113.851C123.066 113.671 122.271 113.001 121.747 112.035C121.133 110.898 120.896 109.344 121.198 107.718C121.343 106.957 121.588 106.254 121.916 105.638C122.288 104.938 122.76 104.35 123.29 103.915C124.127 103.226 125.104 102.914 126.053 103.116L126.052 103.12ZM126.017 103.31C125.132 103.163 124.25 103.5 123.499 104.162C123.016 104.588 122.588 105.151 122.248 105.813C121.945 106.401 121.708 107.067 121.574 107.789C121.281 109.321 121.491 110.788 122.064 111.864C122.527 112.735 123.228 113.35 124.095 113.518C125.164 113.726 126.25 113.214 127.1 112.255C127.8 111.467 128.339 110.376 128.582 109.119C128.882 107.571 128.673 106.09 128.096 105.001C127.624 104.108 126.905 103.48 126.017 103.307V103.31Z" fill="black"/>
<path fill-rule="evenodd" clip-rule="evenodd" d="M128.805 129.596C133.324 130.932 137.084 126.881 137.775 119.029C137.458 118.948 137.367 118.939 137.048 118.868C133.798 120.509 129.338 120.302 125.641 118.206C126.86 120.037 128.908 123.115 128.805 129.596Z" fill="black"/>
<mask id="mask24" mask-type="alpha" maskUnits="userSpaceOnUse" x="125" y="118" width="13" height="12">
<path fill-rule="evenodd" clip-rule="evenodd" d="M137.049 118.867C137.367 118.939 137.458 118.948 137.776 119.029C137.084 126.881 133.324 130.932 128.806 129.596C128.909 123.115 126.861 120.037 125.642 118.207C129.339 120.303 133.798 120.51 137.049 118.867Z" fill="white"/>
</mask>
<g mask="url(#mask24)">
<path fill-rule="evenodd" clip-rule="evenodd" d="M132.251 124.723C134.875 122.452 137.901 121.651 139.005 122.936C140.108 124.221 138.875 127.108 136.251 129.378C133.627 131.649 130.601 132.45 129.497 131.165C128.394 129.881 129.628 126.994 132.251 124.723Z" fill="#F48EAA"/>
</g>
<mask id="mask25" mask-type="alpha" maskUnits="userSpaceOnUse" x="125" y="118" width="13" height="12">
<path fill-rule="evenodd" clip-rule="evenodd" d="M137.049 118.867C137.367 118.939 137.458 118.948 137.776 119.029C137.084 126.881 133.324 130.932 128.806 129.596C128.909 123.115 126.861 120.037 125.642 118.207C129.339 120.303 133.798 120.51 137.049 118.867Z" fill="white"/>
</mask>
<g mask="url(#mask25)">
<path fill-rule="evenodd" clip-rule="evenodd" d="M127.658 116.855C127.904 118.103 128.368 118.768 128.959 119.144C129.224 119.314 129.526 119.367 129.838 119.426C130.39 119.53 130.988 119.519 131.594 119.512C132.141 119.544 132.729 119.511 133.329 119.484C134.22 119.444 135.127 119.393 135.974 119.231C137.055 119.023 138.02 118.764 138.642 118.252C138.83 118.052 139.144 118.042 139.345 118.231C139.544 118.42 139.554 118.735 139.366 118.937C138.661 119.909 137.301 120.728 135.709 121.29C134.907 121.573 134.053 121.771 133.211 121.868C132.616 121.936 132.028 121.923 131.479 121.898C130.086 121.725 128.708 121.523 127.784 120.623C127.045 119.902 126.495 118.807 126.577 116.938C126.554 116.639 126.778 116.377 127.076 116.354C127.374 116.331 127.635 116.556 127.658 116.855Z" fill="white"/>
</g>
<path fill-rule="evenodd" clip-rule="evenodd" d="M124.373 117.188C124.685 116.965 124.954 116.71 125.176 116.42C125.436 116.081 125.633 115.694 125.764 115.25C125.783 115.19 125.75 115.126 125.689 115.107C125.628 115.088 125.564 115.122 125.545 115.183C125.414 115.592 125.223 115.95 124.974 116.26C124.725 116.572 124.419 116.837 124.058 117.064C124.02 117.088 123.996 117.13 123.993 117.175C123.991 117.221 124.012 117.265 124.047 117.293C125.985 118.837 128.199 119.726 130.372 120.039C132.831 120.395 135.233 120.014 137.114 119.061C137.223 119.103 137.33 119.141 137.434 119.173C137.469 119.183 137.502 119.192 137.535 119.2C137.274 121.135 137.056 122.628 136.589 124.017C136.25 125.025 135.781 125.98 135.066 127.013C134.214 128.25 133.108 129.051 131.95 129.446C131.431 129.623 130.903 129.72 130.379 129.738C129.564 129.763 128.762 129.602 128.036 129.237C127.992 129.213 127.937 129.23 127.913 129.274C127.889 129.318 127.906 129.373 127.95 129.397C128.814 129.892 129.804 130.116 130.81 130.044C131.229 130.014 131.65 129.93 132.065 129.796C133.299 129.396 134.475 128.542 135.386 127.237C136.127 126.172 136.615 125.186 136.967 124.146C137.459 122.69 137.683 121.124 137.961 119.065C137.977 118.954 137.898 118.852 137.788 118.836C137.71 118.826 137.631 118.807 137.549 118.784C137.428 118.747 137.302 118.7 137.176 118.651C137.121 118.63 137.061 118.633 137.009 118.66C135.185 119.615 132.836 119.988 130.424 119.663C128.359 119.383 126.246 118.594 124.373 117.188Z" fill="black"/>
<path d="M125.643 118.207C127.001 120.029 128.826 123.746 128.807 129.536" stroke="black" stroke-width="0.481" stroke-linecap="round" stroke-linejoin="round"/>
<path fill-rule="evenodd" clip-rule="evenodd" d="M135.954 117.735C136.171 118.007 136.424 118.217 136.694 118.389C136.878 118.507 137.071 118.6 137.272 118.679C137.472 118.758 137.677 118.824 137.892 118.867C138.21 118.929 138.541 118.954 138.885 118.923C138.942 118.915 138.997 118.954 139.006 119.012C139.015 119.07 138.975 119.125 138.918 119.133C138.553 119.216 138.192 119.244 137.842 119.211C137.595 119.188 137.354 119.136 137.128 119.047C136.899 118.957 136.685 118.832 136.49 118.679C136.214 118.459 135.979 118.181 135.786 117.851C135.754 117.804 135.766 117.74 135.813 117.708C135.859 117.677 135.922 117.688 135.954 117.735Z" fill="black"/>
<path fill-rule="evenodd" clip-rule="evenodd" d="M149.807 104.883C144.96 105.559 138.883 101.623 134.506 99.9177C130.436 98.3329 126.403 97.8901 123.904 98.436C128.686 93.7995 147.599 99.5178 149.807 104.883Z" fill="white"/>
<mask id="mask26" mask-type="alpha" maskUnits="userSpaceOnUse" x="123" y="96" width="27" height="9">
<path fill-rule="evenodd" clip-rule="evenodd" d="M149.807 104.884C144.96 105.56 138.883 101.622 134.506 99.9173C130.435 98.3325 126.403 97.8897 123.904 98.4364C125.139 97.2383 127.319 96.7312 129.909 96.7312C137.345 96.7296 148.17 100.903 149.807 104.884Z" fill="white"/>
</mask>
<g mask="url(#mask26)">
<path fill-rule="evenodd" clip-rule="evenodd" d="M131.087 97.286C129.392 97.4064 127.707 97.9861 126.21 98.7851C124.81 99.5338 122.719 98.4198 121.164 98.7999C123.177 97.7131 128.59 96.863 131.087 97.286Z" fill="#BDBDBC"/>
</g>
<path fill-rule="evenodd" clip-rule="evenodd" d="M149.807 104.883C144.96 105.559 138.883 101.623 134.506 99.9177C130.436 98.3329 126.403 97.8901 123.904 98.436C128.686 93.7995 147.599 99.5178 149.807 104.883Z" stroke="black" stroke-width="0.481" stroke-linecap="round" stroke-linejoin="round"/>
<path fill-rule="evenodd" clip-rule="evenodd" d="M155.914 116.68C157.655 104.716 133.061 93.3054 123.903 98.4358C128.047 90.9603 141.921 86.5827 152.115 95.8813C160.269 103.32 157.806 113.148 155.914 116.68Z" fill="white"/>
<mask id="mask27" mask-type="alpha" maskUnits="userSpaceOnUse" x="123" y="90" width="35" height="27">
<path fill-rule="evenodd" clip-rule="evenodd" d="M152.115 95.882C160.269 103.32 157.806 113.148 155.914 116.68C157.655 104.716 133.061 93.3061 123.904 98.4365C126.379 93.9707 132.326 90.6114 138.887 90.6106C143.309 90.6106 148.01 92.1369 152.115 95.882Z" fill="white"/>
</mask>
<g mask="url(#mask27)">
<path fill-rule="evenodd" clip-rule="evenodd" d="M142.046 97.9136C143.694 98.6219 145.426 99.5982 147.112 100.744C147.621 98.8635 148.094 97.0998 148.535 95.4433C147.009 94.4612 145.45 93.6754 143.86 93.0801C143.267 94.6278 142.723 96.1697 142.046 97.9136Z" fill="#700D20"/>
</g>
<mask id="mask28" mask-type="alpha" maskUnits="userSpaceOnUse" x="123" y="90" width="35" height="27">
<path fill-rule="evenodd" clip-rule="evenodd" d="M152.115 95.882C160.269 103.32 157.806 113.148 155.914 116.68C157.655 104.716 133.061 93.3061 123.904 98.4365C126.379 93.9707 132.326 90.6114 138.887 90.6106C143.309 90.6106 148.01 92.1369 152.115 95.882Z" fill="white"/>
</mask>
<g mask="url(#mask28)">
<path fill-rule="evenodd" clip-rule="evenodd" d="M139.119 95.2294C139.248 95.4438 139.451 95.5856 139.706 95.6417C140.322 95.7761 141.007 95.3646 141.276 94.6951C141.537 94.0445 141.277 93.4179 140.674 93.2785C140.425 93.2208 140.154 93.2554 139.89 93.3783C139.886 93.3799 139.881 93.3816 139.876 93.3841C139.789 93.1919 139.702 93.0023 139.615 92.8143C139.62 92.8118 139.626 92.8093 139.631 92.8069C140.068 92.5851 140.54 92.5166 140.955 92.6139C141.926 92.8423 142.376 93.8771 141.975 94.8889C141.555 95.9493 140.41 96.6147 139.406 96.397C138.974 96.3022 138.624 96.0457 138.424 95.6706L138.417 95.6582C138.65 95.5089 138.881 95.363 139.112 95.2187C139.115 95.2228 139.117 95.2261 139.119 95.2294ZM137.6 95.942C137.367 95.9065 137.134 95.8752 136.901 95.8463C137.428 94.6004 137.947 93.4056 138.459 92.2636C138.684 92.2933 138.908 92.3263 139.132 92.3609C138.629 93.5004 138.118 94.6961 137.6 95.942ZM134.718 94.3045C134.751 94.2525 136.956 92.1021 136.968 92.1086C137.191 92.1235 137.413 92.1416 137.634 92.1631C137.112 93.3076 136.581 94.5023 136.043 95.7466C135.808 95.7252 135.573 95.707 135.336 95.6922C135.666 94.9418 135.993 94.2105 136.317 93.4947C136.211 93.5805 134.079 95.6724 134.092 95.6741C134.096 95.6691 133.913 93.5483 133.901 93.4626C133.559 94.1783 133.214 94.9072 132.867 95.6534C132.625 95.6609 132.381 95.6724 132.138 95.6872C132.722 94.4537 133.301 93.2597 133.87 92.107C134.1 92.0913 134.329 92.0798 134.557 92.0715C134.561 92.0666 134.718 94.2509 134.718 94.3045ZM130.139 95.2641C130.382 95.227 130.625 95.1931 130.866 95.1635C131.008 94.8749 131.15 94.5887 131.292 94.3043C131.052 94.3348 130.812 94.3694 130.57 94.4073C130.23 94.4601 129.998 94.7017 129.894 94.9062C129.789 95.1148 129.797 95.3168 130.139 95.2641ZM132.004 92.8856C131.783 92.9144 131.56 92.9466 131.337 92.982C131.056 93.0274 130.813 93.2005 130.69 93.4396C130.566 93.6804 130.662 93.7942 130.946 93.7497C131.171 93.7142 131.394 93.6821 131.618 93.654C131.747 93.3959 131.875 93.1403 132.004 92.8856ZM130.024 94.1867C129.905 94.1298 129.759 93.9435 129.962 93.5518C130.274 92.9548 130.907 92.4865 131.6 92.3727C132.082 92.2944 132.561 92.2317 133.035 92.1839C132.455 93.3374 131.868 94.5306 131.274 95.7608C130.763 95.8086 130.248 95.8713 129.73 95.9505C129.024 96.0577 128.788 95.7402 129.125 95.0822C129.373 94.599 129.782 94.317 130.024 94.1867Z" fill="#781214"/>
</g>
<mask id="mask29" mask-type="alpha" maskUnits="userSpaceOnUse" x="123" y="90" width="35" height="27">
<path fill-rule="evenodd" clip-rule="evenodd" d="M152.115 95.882C160.269 103.32 157.806 113.148 155.914 116.68C157.655 104.716 133.061 93.3061 123.904 98.4365C126.379 93.9707 132.326 90.6114 138.887 90.6106C143.309 90.6106 148.01 92.1369 152.115 95.882Z" fill="white"/>
</mask>
<g mask="url(#mask29)">
<path fill-rule="evenodd" clip-rule="evenodd" d="M147.988 95.9841C147.159 95.477 146.321 95.026 145.474 94.6318C144.873 94.9435 144.255 95.2742 143.622 95.6238C143.847 96.3882 144.073 97.1855 144.303 98.0183C145.209 98.4496 146.106 98.9459 146.992 99.5075C146.782 98.6128 146.576 97.7536 146.373 96.9299C146.925 96.5992 147.463 96.2843 147.988 95.9841Z" fill="#EF3737"/>
</g>
<mask id="mask30" mask-type="alpha" maskUnits="userSpaceOnUse" x="123" y="90" width="35" height="27">
<path fill-rule="evenodd" clip-rule="evenodd" d="M152.115 95.882C160.269 103.32 157.806 113.148 155.914 116.68C157.655 104.716 133.061 93.3061 123.904 98.4365C126.379 93.9707 132.326 90.6114 138.887 90.6106C143.309 90.6106 148.01 92.1369 152.115 95.882Z" fill="white"/>
</mask>
<g mask="url(#mask30)">
<path fill-rule="evenodd" clip-rule="evenodd" d="M143.622 95.624C144.256 95.2736 144.873 94.9438 145.474 94.6321C146.321 95.0254 147.159 95.4764 147.988 95.9844C147.463 96.2845 146.925 96.5995 146.373 96.9293" fill="white"/>
</g>
<mask id="mask31" mask-type="alpha" maskUnits="userSpaceOnUse" x="123" y="90" width="16" height="9">
<path fill-rule="evenodd" clip-rule="evenodd" d="M138.771 90.6113L138.543 90.6136C132.119 90.7295 126.336 94.0489 123.905 98.4364L123.935 98.3828H124.006L124.184 98.2874C127.357 96.6771 132.22 96.9094 137.197 98.3813L138.771 98.3828" fill="white"/>
</mask>
<g mask="url(#mask31)">
<path fill-rule="evenodd" clip-rule="evenodd" d="M131.456 91.4761C129.395 91.927 127.009 94.6063 126.287 98.1504C124.978 98.1825 123.841 98.3886 122.658 99.32C122.915 96.8236 123.478 95.1045 124.677 93.5049C126.167 91.5154 127.428 91.0622 129.288 91.0133C129.958 90.9956 130.829 90.921 131.456 91.4761Z" fill="#BDBDBC"/>
</g>
<mask id="mask32" mask-type="alpha" maskUnits="userSpaceOnUse" x="123" y="90" width="35" height="27">
<path fill-rule="evenodd" clip-rule="evenodd" d="M152.115 95.882C160.269 103.32 157.806 113.148 155.914 116.68C157.655 104.716 133.061 93.3061 123.904 98.4365C126.379 93.9707 132.326 90.6114 138.887 90.6106C143.309 90.6106 148.01 92.1369 152.115 95.882Z" fill="white"/>
</mask>
<g mask="url(#mask32)">
<path fill-rule="evenodd" clip-rule="evenodd" d="M153.641 115.18C154.795 109.693 153.193 98.8002 150.605 95.4202C149.57 94.3802 148.642 93.1327 147.5 92.8202C149.216 92.7691 150.572 95.0736 152.028 95.9188C153.297 96.6543 154.98 99.5145 155.963 100.62C159.401 104.487 157.928 111.223 155.963 116.226C155.134 115.934 154.48 115.451 153.641 115.18Z" fill="#BDBDBC"/>
</g>
<path fill-rule="evenodd" clip-rule="evenodd" d="M155.914 116.68C157.655 104.716 133.061 93.3054 123.903 98.4358C128.047 90.9603 141.921 86.5827 152.115 95.8813C160.269 103.32 157.806 113.148 155.914 116.68Z" stroke="black" stroke-width="0.481" stroke-linecap="round" stroke-linejoin="round"/>
<path fill-rule="evenodd" clip-rule="evenodd" d="M147.748 103.38C148.641 100.938 149.021 98.3213 148.663 96.1725C148.522 95.3306 148.264 94.5646 147.886 93.9033C147.645 93.4803 147.357 93.1002 147.009 92.7737C146.778 92.556 146.525 92.3597 146.244 92.1923C146.194 92.1643 146.175 92.1016 146.202 92.0522C146.229 92.0019 146.291 91.9837 146.341 92.0101C146.891 92.2822 147.359 92.6475 147.746 93.0944C147.913 93.2874 148.063 93.496 148.199 93.7161C148.618 94.4038 148.893 95.2185 149.046 96.1074C149.426 98.3139 149.035 101.006 148.119 103.517C148.081 103.619 147.968 103.672 147.866 103.635C147.763 103.597 147.711 103.482 147.748 103.38Z" fill="black"/>
<path fill-rule="evenodd" clip-rule="evenodd" d="M126.81 148.128C127.022 147.165 127.008 146.17 126.836 145.191C126.63 144.023 126.172 142.892 125.642 141.835C125.588 141.727 125.535 141.62 125.485 141.512C125.408 141.344 125.344 141.177 125.267 141.012C125.241 140.97 125.253 140.914 125.296 140.887C125.338 140.861 125.393 140.873 125.42 140.915C125.487 140.994 125.553 141.069 125.617 141.153C125.712 141.274 125.801 141.398 125.884 141.529C126.046 141.788 126.179 142.066 126.312 142.345C126.621 142.992 126.872 143.674 127.053 144.368C127.382 145.635 127.466 146.948 127.188 148.213C127.165 148.317 127.061 148.384 126.957 148.36C126.852 148.337 126.787 148.233 126.81 148.128Z" fill="black"/>
<mask id="mask33" mask-type="alpha" maskUnits="userSpaceOnUse" x="116" y="124" width="22" height="26">
<path fill-rule="evenodd" clip-rule="evenodd" d="M137.315 149.197H116.718V124.723H137.315M134.81 144.788C135.306 143.847 135.352 142.538 135.153 141.519C134.79 139.664 132.479 135.332 130.599 134.386L130.396 134.579C131.191 136.313 131.857 138.013 131.878 139.952C131.902 142.276 131.272 144.588 131.659 146.91C132.858 146.436 134.169 146.001 134.81 144.788Z" fill="white"/>
</mask>
<g mask="url(#mask33)">
<path fill-rule="evenodd" clip-rule="evenodd" d="M118.88 128.911C118.78 128.699 118.795 128.451 118.919 128.254C119.044 128.057 119.26 127.937 119.493 127.937C121.178 127.936 124.43 127.934 126.17 127.933C126.881 127.933 127.529 128.345 127.835 128.99C129.186 131.843 132.891 139.665 134.13 142.282C134.219 142.469 134.206 142.689 134.096 142.864C133.985 143.04 133.793 143.146 133.586 143.146C131.966 143.147 128.682 143.148 126.879 143.149C126.112 143.15 125.415 142.706 125.085 142.013C123.723 139.135 120.155 131.603 118.88 128.911Z" fill="#F79120"/>
</g>
<mask id="mask34" mask-type="alpha" maskUnits="userSpaceOnUse" x="116" y="124" width="22" height="26">
<path fill-rule="evenodd" clip-rule="evenodd" d="M137.315 149.197H116.718V124.723H137.315V149.197ZM134.81 144.788C135.306 143.847 135.352 142.538 135.153 141.519C134.79 139.664 132.479 135.332 130.599 134.386L130.396 134.579C131.191 136.313 131.857 138.013 131.878 139.952C131.902 142.276 131.272 144.588 131.659 146.91C132.858 146.436 134.169 146.001 134.81 144.788Z" fill="white"/>
</mask>
<g mask="url(#mask34)">
<path fill-rule="evenodd" clip-rule="evenodd" d="M118.88 128.911C118.78 128.699 118.795 128.451 118.919 128.254C119.044 128.057 119.26 127.937 119.493 127.937C121.178 127.936 124.43 127.934 126.17 127.933C126.881 127.933 127.529 128.345 127.835 128.99C129.186 131.843 132.891 139.665 134.13 142.282C134.219 142.469 134.206 142.689 134.096 142.864C133.985 143.04 133.793 143.146 133.586 143.146C131.966 143.147 128.682 143.148 126.879 143.149C126.112 143.15 125.415 142.706 125.085 142.013C123.723 139.135 120.155 131.603 118.88 128.911Z" stroke="black" stroke-width="0.478" stroke-linecap="round" stroke-linejoin="round"/>
</g>
<mask id="mask35" mask-type="alpha" maskUnits="userSpaceOnUse" x="116" y="124" width="22" height="26">
<path fill-rule="evenodd" clip-rule="evenodd" d="M137.315 149.197H116.718V124.723H137.315M134.81 144.788C135.306 143.847 135.352 142.538 135.153 141.519C134.79 139.664 132.479 135.332 130.599 134.386L130.396 134.579C131.191 136.313 131.857 138.013 131.878 139.952C131.902 142.276 131.272 144.588 131.659 146.91C132.858 146.436 134.169 146.001 134.81 144.788Z" fill="white"/>
</mask>
<g mask="url(#mask35)">
<path d="M132.032 138.86C132.032 138.86 128.607 131.648 127.432 129.177C127.195 128.676 126.692 128.359 126.14 128.359C124.118 128.363 119.406 128.368 119.406 128.368" stroke="#FCBC7B" stroke-width="0.508" stroke-linecap="round" stroke-linejoin="round"/>
</g>
<mask id="mask36" mask-type="alpha" maskUnits="userSpaceOnUse" x="116" y="124" width="22" height="26">
<path fill-rule="evenodd" clip-rule="evenodd" d="M137.315 149.197H116.718V124.723H137.315M134.81 144.788C135.306 143.847 135.352 142.538 135.153 141.519C134.79 139.664 132.479 135.332 130.599 134.386L130.396 134.579C131.191 136.313 131.857 138.013 131.878 139.952C131.902 142.276 131.272 144.588 131.659 146.91C132.858 146.436 134.169 146.001 134.81 144.788Z" fill="white"/>
</mask>
<g mask="url(#mask36)">
<path d="M128.318 130.011C128.08 130.576 127.481 130.768 126.479 130.758C125.477 130.749 119.724 130.693 119.724 130.693" stroke="black" stroke-width="0.478" stroke-linecap="round" stroke-linejoin="round"/>
</g>
<mask id="mask37" mask-type="alpha" maskUnits="userSpaceOnUse" x="116" y="124" width="22" height="26">
<path fill-rule="evenodd" clip-rule="evenodd" d="M137.315 149.197H116.718V124.723H137.315M134.81 144.788C135.306 143.847 135.352 142.538 135.153 141.519C134.79 139.664 132.479 135.332 130.599 134.386L130.396 134.579C131.191 136.313 131.857 138.013 131.878 139.952C131.902 142.276 131.272 144.588 131.659 146.91C132.858 146.436 134.169 146.001 134.81 144.788Z" fill="white"/>
</mask>
<g mask="url(#mask37)">
<path fill-rule="evenodd" clip-rule="evenodd" d="M124.249 129.419C124.236 129.305 124.273 129.192 124.35 129.107C124.425 129.022 124.534 128.973 124.648 128.973H125.721C125.927 128.973 126.098 129.128 126.121 129.333C126.121 129.343 126.123 129.354 126.124 129.364C126.135 129.477 126.099 129.59 126.023 129.676C125.947 129.761 125.839 129.809 125.725 129.809H124.651C124.446 129.809 124.274 129.654 124.252 129.449C124.251 129.438 124.249 129.429 124.249 129.419Z" fill="#231F20"/>
</g>
<mask id="mask38" mask-type="alpha" maskUnits="userSpaceOnUse" x="116" y="124" width="22" height="26">
<path fill-rule="evenodd" clip-rule="evenodd" d="M137.315 149.197H116.718V124.723H137.315V149.197ZM134.81 144.788C135.306 143.847 135.352 142.538 135.153 141.519C134.79 139.664 132.479 135.332 130.599 134.386L130.396 134.579C131.191 136.313 131.857 138.013 131.878 139.952C131.902 142.276 131.272 144.588 131.659 146.91C132.858 146.436 134.169 146.001 134.81 144.788Z" fill="white"/>
</mask>
<g mask="url(#mask38)">
<path fill-rule="evenodd" clip-rule="evenodd" d="M124.249 129.419C124.236 129.305 124.273 129.192 124.35 129.107C124.425 129.022 124.534 128.973 124.648 128.973H125.721C125.927 128.973 126.098 129.128 126.121 129.333C126.121 129.343 126.123 129.354 126.124 129.364C126.135 129.477 126.099 129.59 126.023 129.676C125.947 129.761 125.839 129.809 125.725 129.809H124.651C124.446 129.809 124.274 129.654 124.252 129.449C124.251 129.438 124.249 129.429 124.249 129.419Z" stroke="black" stroke-width="0.478" stroke-linecap="round" stroke-linejoin="round"/>
</g>
<path fill-rule="evenodd" clip-rule="evenodd" d="M129.036 131.063C129.63 130.895 130.409 131.103 131.229 131.617C132.155 132.197 133.126 133.174 133.948 134.498C134.59 135.533 135.015 136.484 135.327 137.395C136.176 139.88 136.181 142.057 137.323 144.741C137.701 145.628 138.095 146.691 139.045 147.445C139.431 147.75 139.904 148.015 140.508 148.178C140.797 148.257 141.114 148.31 141.465 148.338C141.668 148.354 141.882 148.359 142.107 148.356C142.179 148.359 142.241 148.301 142.243 148.227C142.246 148.154 142.188 148.092 142.115 148.09C141.899 148.073 141.696 148.046 141.503 148.017C141.175 147.965 140.88 147.896 140.612 147.814C140.066 147.649 139.631 147.425 139.282 147.146C138.388 146.435 138.032 145.424 137.678 144.588C136.542 141.915 136.542 139.744 135.697 137.267C135.378 136.333 134.941 135.354 134.281 134.289C133.424 132.906 132.407 131.887 131.437 131.281C130.388 130.623 129.388 130.451 128.683 130.772C128.635 130.794 128.598 130.834 128.579 130.884C128.562 130.934 128.564 130.989 128.587 131.037C128.982 131.871 129.279 132.431 129.629 133.166C129.821 133.567 130.028 134.02 130.274 134.6C131.103 136.544 131.47 138.083 131.606 139.421C131.888 142.212 131.179 144.138 131.535 147.032C131.548 147.141 131.647 147.218 131.755 147.204C131.863 147.191 131.94 147.091 131.927 146.984C131.571 144.093 132.281 142.168 131.998 139.38C131.86 138.011 131.486 136.436 130.637 134.444C130.388 133.859 130.179 133.4 129.986 132.996C129.664 132.319 129.385 131.792 129.036 131.063Z" fill="black"/>
</svg>
