<svg width="136" height="121" viewBox="0 0 136 121" fill="none" xmlns="http://www.w3.org/2000/svg">
<path opacity="0.1" d="M37.0512 119.818C57.5141 119.818 74.1025 103.147 74.1025 82.5826C74.1025 62.0183 57.5141 45.3477 37.0512 45.3477C16.5884 45.3477 0 62.0183 0 82.5826C0 103.147 16.5884 119.818 37.0512 119.818Z" fill="#333739"/>
<path opacity="0.1" d="M98.9471 74.4699C119.41 74.4699 135.998 57.7993 135.998 37.235C135.998 16.6707 119.41 0 98.9471 0C78.4843 0 61.8959 16.6707 61.8959 37.235C61.8959 57.7993 78.4843 74.4699 98.9471 74.4699Z" fill="#333739"/>
<path opacity="0.3" fill-rule="evenodd" clip-rule="evenodd" d="M36.3128 115.15C36.3128 115.15 16.2914 115.125 16.3332 115.721C16.4585 117.703 32.2015 116.544 33.4884 117.141C34.1235 117.434 33.4215 118.073 34.5413 118.484C38.9868 120.122 54.4707 118.635 59.9941 118.644C75.0436 118.677 78.8624 119.416 80.6088 119.509C85.5139 119.777 99.3934 119.668 103.296 119.618C111.326 119.509 132.935 119.945 132.476 118.274C132.275 117.518 116.47 115.202 112.936 115.001C109.911 114.824 102.895 114.512 100.179 113.899C96.3852 113.043 92.2155 112.522 88.121 112.194C70.9574 110.834 53.3593 114.033 36.3128 115.15Z" fill="#333739"/>
<path d="M88.8595 116.34H51.6411C47.8641 116.34 44.8058 113.267 44.8058 109.471V17.1895C44.8058 13.3938 47.8641 10.3203 51.6411 10.3203H88.8678C92.6448 10.3203 95.7032 13.3938 95.7032 17.1895V109.471C95.7032 113.267 92.6365 116.34 88.8595 116.34Z" fill="white" stroke="#333739" stroke-miterlimit="10"/>
<path d="M78.7318 13.1593H62.362C61.6434 13.1593 61.0585 12.5715 61.0585 11.8493V10.3125H80.144V11.7317C80.144 12.5211 79.5089 13.1593 78.7318 13.1593Z" fill="#333739"/>
<path opacity="0.2" d="M73.6094 80.8508H36.8172C34.912 80.8508 33.3578 79.2972 33.3578 77.3742V21.7149C33.3578 19.8002 34.9037 18.2383 36.8172 18.2383H73.6178C75.523 18.2383 77.0772 19.7918 77.0772 21.7149V77.3742C77.0689 79.2972 75.523 80.8508 73.6094 80.8508Z" fill="#333739"/>
<path d="M56.3706 47.025H39.9926C38.5469 47.025 37.3771 45.8494 37.3771 44.3966V24.4019C37.3771 22.9491 38.5469 21.7734 39.9926 21.7734H56.3706C57.8163 21.7734 58.9861 22.9491 58.9861 24.4019V44.3966C58.9861 45.8494 57.8163 47.025 56.3706 47.025Z" fill="white"/>
<path d="M61.117 24.8065C61.6016 24.8065 61.9944 24.4117 61.9944 23.9247C61.9944 23.4377 61.6016 23.043 61.117 23.043C60.6324 23.043 60.2396 23.4377 60.2396 23.9247C60.2396 24.4117 60.6324 24.8065 61.117 24.8065Z" fill="white"/>
<path d="M64.635 24.8065C65.1195 24.8065 65.5124 24.4117 65.5124 23.9247C65.5124 23.4377 65.1195 23.043 64.635 23.043C64.1504 23.043 63.7576 23.4377 63.7576 23.9247C63.7576 24.4117 64.1504 24.8065 64.635 24.8065Z" fill="white"/>
<path d="M68.9049 53.8377H36.4997C35.873 53.8377 35.3716 53.3254 35.3716 52.704C35.3716 52.0742 35.8813 51.5703 36.4997 51.5703H68.9049C69.5316 51.5703 70.033 52.0826 70.033 52.704C70.033 53.3338 69.5316 53.8377 68.9049 53.8377Z" fill="white"/>
<path d="M72.6735 60.4041H40.2683C39.6416 60.4041 39.1403 59.8918 39.1403 59.2704C39.1403 58.6406 39.65 58.1367 40.2683 58.1367H72.6735C73.3003 58.1367 73.8016 58.649 73.8016 59.2704C73.8016 59.8918 73.3003 60.4041 72.6735 60.4041Z" fill="white"/>
<path d="M69.6569 66.4587H37.2517C36.625 66.4587 36.1237 65.9465 36.1237 65.3251C36.1237 64.6953 36.6334 64.1914 37.2517 64.1914H69.6569C70.2837 64.1914 70.785 64.7037 70.785 65.3251C70.785 65.9549 70.2837 66.4587 69.6569 66.4587Z" fill="white"/>
<path d="M94.9177 89.0729H78.5898C77.1358 89.0729 75.9492 87.8889 75.9492 86.4193C75.9492 84.9581 77.1274 83.7656 78.5898 83.7656H94.9177C96.3717 83.7656 97.5583 84.9497 97.5583 86.4193C97.5499 87.8889 96.3717 89.0729 94.9177 89.0729Z" fill="#333739" stroke="white" stroke-width="0.5" stroke-miterlimit="10"/>
<path d="M88.7508 106.85H52.8277C51.3737 106.85 50.1871 105.666 50.1871 104.197C50.1871 102.735 51.3653 101.543 52.8277 101.543H88.7508C90.2048 101.543 91.3914 102.727 91.3914 104.197C91.383 105.666 90.2048 106.85 88.7508 106.85Z" fill="#333739" stroke="white" stroke-width="0.5" stroke-miterlimit="10"/>
<path d="M51.24 40.8877C51.2651 40.8961 49.2095 42.0885 47.6051 41.719C46.101 41.3747 45.0732 40.0983 45.0982 40.0899C45.7249 39.9387 45.8336 38.444 45.6581 34.707L45.9422 34.749L50.7721 35.488C50.7721 35.488 50.7303 37.008 50.7888 38.4356C50.8389 39.6364 50.9559 40.7701 51.24 40.8877Z" fill="#FFDDC5"/>
<path opacity="0.1" d="M50.7721 35.9097C50.7721 35.9097 50.7303 37.3961 50.7888 38.7817C48.1733 38.8237 46.6859 36.4891 46.0592 35.1875L50.7721 35.9097Z" fill="#333739"/>
<path d="M51.3988 37.4096C51.3988 37.4096 45.2152 37.7875 45.0397 33.9162C44.8642 30.0449 43.9451 27.4836 47.8892 27.0806C51.8333 26.6775 52.6605 28.1219 53.0366 29.3983C53.4042 30.6663 53.0032 37.2081 51.3988 37.4096Z" fill="#FFDDC5"/>
<path d="M53.3875 24.85C55.1256 26.9242 54.5156 28.167 52.6689 28.2258C50.8222 28.2846 48.1231 28.0998 48.1231 28.0998C48.1231 28.0998 47.2625 34.4736 47.0285 32.9033C46.8029 31.3329 47.6218 31.1146 46.8948 30.0145C46.1678 28.9144 45.399 29.603 45.3907 30.3924C45.3823 31.1902 45.0564 34.7423 45.0564 34.7423C45.0564 34.7423 43.9785 30.8711 44.2542 28.5533C44.53 26.244 45.5996 24.3377 47.9644 24.8164C50.3292 25.295 50.5799 26.076 52.0255 25.8577C53.4794 25.6477 53.3875 24.85 53.3875 24.85Z" fill="#333739"/>
<path d="M45.0899 40.0898C48.9337 43.0626 50.9392 40.283 50.9392 40.283L57.0141 41.7862L58.9778 45.3299C58.4765 47.6057 55.5936 48.1096 55.4599 48.1096C54.9585 48.1096 42.4911 48.2859 40.0595 47.95C37.6278 47.6057 37.3103 45.1536 37.3103 45.1536L38.8813 42.0549L45.0899 40.0898Z" fill="#FF6666"/>
<path opacity="0.1" d="M95.1935 80.8516H89.6784C87.9821 80.8516 86.6117 79.4744 86.6117 77.7697V21.7577C86.6117 20.053 87.9821 18.6758 89.6784 18.6758H95.1935V80.8516Z" fill="#333739"/>
<path d="M95.1934 47.7822H94.9009C92.6782 47.7822 90.8816 45.9767 90.8816 43.743V25.3354C90.8816 23.5131 92.3523 22.0352 94.1656 22.0352H95.1934V47.7822Z" fill="white"/>
<path d="M100.433 33.9515V31.5246C100.433 31.5246 98.795 31.2894 98.419 30.9115C98.1098 30.6008 97.5583 29.2152 97.3578 28.703C97.3076 28.5854 97.2825 28.5098 97.2825 28.5098L97.0319 25.4699V23.4881C97.0319 23.4881 97.2826 22.6819 97.5332 22.178C97.7839 21.6742 98.0346 21.1619 98.5443 20.6581C99.0457 20.1542 99.8061 19.9023 99.8061 19.9023C99.8061 19.9023 100.817 19.3984 101.569 19.3984C102.321 19.3984 102.321 19.3984 103.082 19.6504C103.834 19.9023 104.594 20.4061 104.594 20.4061C104.594 20.4061 105.096 20.6581 105.346 20.91C105.597 21.1619 106.098 21.9261 106.357 22.43C106.608 22.9338 106.608 23.4461 106.608 23.698C106.608 23.9499 106.608 24.9912 106.608 25.3523C106.608 25.7134 106.107 26.9815 105.856 27.4937C105.605 28.006 105.547 28.3419 105.355 28.7618C105.121 29.274 104.853 29.7779 104.853 29.7779C104.853 29.7779 104.603 30.2817 104.603 30.5337C104.603 30.7856 104.603 32.5575 104.603 32.5575V33.5736V34.3294H100.399L100.433 33.9515Z" fill="#FFDDC5"/>
<path d="M101.82 30.2144L105.096 30.2816L106.357 26.9898C106.357 26.9898 107.494 24.3361 107.619 23.6979C107.744 23.0681 107.744 22.6902 107.619 21.8672C107.494 21.0443 107.118 20.6664 107.118 20.6664C107.118 20.6664 106.491 20.0366 105.605 19.6503C104.728 19.2724 104.728 19.2724 104.343 19.1464C103.959 19.0204 102.58 18.8945 102.58 18.8945H100.767H99.4133L98.6863 18.7685L98.3103 18.6426L98.0596 18.3906L97.8089 18.6426L97.5583 19.1464L97.3076 19.6503C97.3076 19.6503 97.0569 20.1793 97.0569 20.1709C97.0569 20.1625 97.0569 21.0359 97.0569 21.0359C97.0569 21.0359 97.1822 21.3046 97.3076 21.6825C97.4329 22.0604 97.9343 22.0604 98.0596 22.1863C98.185 22.3123 98.8117 22.4383 98.8117 22.4383L99.5637 22.6902H99.8144V23.1941L99.4384 23.5719L99.171 23.9162L98.9287 24.3277L99.054 25.2095V25.4614C99.054 25.4614 100.165 24.3193 100.433 24.3193C100.7 24.3193 100.942 24.5713 101.076 24.6972C101.202 24.8232 101.452 25.327 101.327 25.7133C101.202 26.0996 100.767 26.8554 100.767 26.8554L100.566 27.2333L101.828 30.2732" fill="#333739"/>
<path d="M108.772 60.3555H94.4414C94.4414 60.3555 94.1656 82.365 94.1656 83.1272C94.1656 83.8893 94.667 90.9746 94.9177 91.9293L96.9315 110.497H102.597C102.597 110.497 102.096 86.6698 102.597 79.4003C102.647 78.7135 102.689 78.0603 102.722 77.4322C103.098 71.4356 103.098 68.295 103.098 68.295L102.689 78.0519L109.9 110.396L115.825 110.488C115.825 110.488 114.179 99.291 112.917 89.3414L108.772 60.3555Z" fill="#333739"/>
<path d="M103.107 68.293L103.232 75.663L102.689 78.0499L103.107 68.293Z" fill="#333739"/>
<path d="M89.9542 42.6529L91.6337 46.3982C91.7173 46.583 91.6505 46.7929 91.4833 46.9021L87.3053 49.6985C87.1131 49.8328 86.8457 49.7741 86.712 49.5809L74.7042 31.8368C74.5788 31.6436 74.6373 31.3833 74.8379 31.2658L76.0996 30.4428C76.2417 30.3588 76.3253 30.1993 76.3002 30.0397L76.1748 29.0908C76.1414 28.8472 76.342 28.6289 76.5927 28.6289C76.7765 28.6289 76.9436 28.7465 76.9937 28.9228L77.3781 30.2412C77.3865 30.2832 77.4116 30.3168 77.4283 30.3588L78.1553 31.4253C78.2137 31.5177 78.2388 31.6269 78.2137 31.736L78.0717 32.4414C78.0466 32.559 78.0717 32.6766 78.1469 32.7689L86.6785 43.9461C86.8206 44.1309 87.088 44.1645 87.2718 44.0301L89.294 42.5017C89.528 42.3254 89.8455 42.4094 89.9542 42.6529Z" fill="#FFDDC5"/>
<path d="M113.017 42.6614L109.7 43.2744C109.491 43.3164 109.357 43.5263 109.407 43.7363L110.677 49.0939C110.719 49.2787 110.619 49.4718 110.435 49.539L93.3885 55.5349C93.3468 55.5517 93.305 55.5601 93.2632 55.5601H92.1435C92.1268 55.5601 92.11 55.5601 92.0933 55.5601L89.4277 55.9296C89.1687 55.9632 89.0266 56.2403 89.1436 56.4754C89.2105 56.6014 89.3358 56.6854 89.4779 56.6854H90.372C90.5474 56.6854 90.6979 56.8029 90.7396 56.9709L90.9736 57.9114C91.0237 58.1214 91.2326 58.2389 91.4416 58.1801L114.521 51.7056C114.705 51.6552 114.822 51.4705 114.789 51.2857L113.46 42.9805C113.418 42.7621 113.226 42.6278 113.017 42.6614Z" fill="#FFDDC5"/>
<path d="M105.513 33.8457V34.8618H97.9594C97.9594 34.8618 98.4607 33.8457 99.7225 33.5938H105.513V33.8457Z" fill="#FF6666"/>
<path d="M109.315 47.4816C108.563 44.4416 108.664 45.0966 108.664 45.0966C108.664 45.0966 111.772 70.6757 111.538 71.4819C111.304 72.2797 92.6867 72.0445 92.1519 71.4819C91.6171 70.9193 93.163 37.3205 93.163 37.3205C93.163 37.3205 93.3051 34.9775 97.9678 34.8516H105.522C105.522 34.8516 109.048 34.8516 109.8 35.3554C109.8 35.3554 110.552 35.6073 111.313 36.6235C112.324 38.1434 113.092 38.6221 114.354 45.9616" fill="#FF6666"/>
<path d="M91.7925 37.0095C91.7925 37.0095 94.3997 34.9521 96.4971 34.9689C96.4971 34.9689 98.0847 34.7337 99.0958 35.2376C99.6473 35.5147 100.608 36.2705 100.859 37.5133C101.11 38.7814 100.358 39.5372 99.5972 40.8052L96.0709 44.0971L94.3077 45.617L89.996 48.2707L87.1047 42.4511L91.7925 37.0095Z" fill="#FF6666"/>
<path d="M100.459 115.284L102.071 115.277C102.077 115.277 102.083 115.277 102.083 115.27L101.915 110.51C101.915 110.503 101.91 110.496 101.904 110.496H98.3332C98.3274 110.496 98.3274 110.496 98.3274 110.496C98.2812 110.579 96.6461 113.429 93.3411 114.253C92.8673 114.37 92.538 114.779 92.5553 115.256C92.5553 115.263 92.5611 115.27 92.5669 115.27L99.2692 115.284" fill="#333739"/>
<path d="M101.904 110.496H98.3274L97.4838 111.645C97.4838 111.645 98.4371 112.516 99.5927 112.516C100.748 112.516 101.967 111.935 101.967 111.935L101.915 110.51L101.904 110.496Z" fill="#FFDDC5"/>
<path d="M113.39 115.284L115.002 115.277C115.008 115.277 115.013 115.277 115.013 115.27L114.846 110.51C114.846 110.503 114.84 110.496 114.834 110.496H111.264C111.258 110.496 111.258 110.496 111.258 110.496C111.212 110.579 109.576 113.429 106.272 114.253C105.798 114.37 105.468 114.779 105.486 115.256C105.486 115.263 105.492 115.27 105.497 115.27L112.2 115.284" fill="#333739"/>
<path d="M114.834 110.496H111.258L110.414 111.645C110.414 111.645 111.368 112.516 112.523 112.516C113.679 112.516 114.898 111.935 114.898 111.935L114.846 110.51L114.834 110.496Z" fill="#FFDDC5"/>
<path fill-rule="evenodd" clip-rule="evenodd" d="M36.0561 101.347C39.6934 101.903 41.9624 96.4483 43.2398 93.9487C43.9694 92.5222 44.7217 91.0329 45.7663 89.8119C47.9463 87.2666 50.8129 86.7617 51.1935 87.7981C51.5129 88.6658 50.3453 88.6201 49.1555 89.7726C48.4973 90.4107 47.7904 91.402 47.6048 92.8837C46.9238 98.3182 47.1138 100.05 44.9414 104.077C44.4251 105.033 43.8552 106.006 43.0757 106.774C39.333 110.459 35.7077 105.539 36.0561 101.347Z" fill="#EF383D"/>
<mask id="mask0" mask-type="alpha" maskUnits="userSpaceOnUse" x="36" y="87" width="16" height="22">
<path fill-rule="evenodd" clip-rule="evenodd" d="M45.7664 89.813C44.7218 91.0339 43.9695 92.5226 43.2399 93.9491C41.9624 96.4494 39.6935 101.904 36.0562 101.347C35.7071 105.54 39.3331 110.46 43.0758 106.775C43.8559 106.007 44.4258 105.034 44.9414 104.077C47.1132 100.051 46.9245 98.3186 47.6049 92.8848C47.7904 91.4031 48.4973 90.4111 49.1562 89.773C50.3447 88.6205 51.5129 88.6668 51.1936 87.7991C51.0718 87.4674 50.6962 87.293 50.1705 87.293C49.0508 87.2936 47.2489 88.0807 45.7664 89.813Z" fill="white"/>
</mask>
<g mask="url(#mask0)">
<path fill-rule="evenodd" clip-rule="evenodd" d="M52.5768 87.4453C48.7836 87.5233 46.2603 91.0696 45.46 94.4591C45.0561 96.1698 44.9804 97.9407 44.5581 99.6513C43.7805 102.804 42.2942 105.846 40.0972 108.245C49.2349 106.662 46.5538 100.573 49.322 94.0304C49.7051 93.1234 50.1797 92.2741 50.7118 91.4476C51.389 90.3953 52.9959 88.8934 52.5768 87.4453Z" fill="#BC2025"/>
</g>
<mask id="mask1" mask-type="alpha" maskUnits="userSpaceOnUse" x="36" y="87" width="16" height="22">
<path fill-rule="evenodd" clip-rule="evenodd" d="M45.7664 89.813C44.7218 91.0339 43.9695 92.5226 43.2399 93.9491C41.9624 96.4494 39.6935 101.904 36.0562 101.347C35.7071 105.54 39.3331 110.46 43.0758 106.775C43.8559 106.007 44.4258 105.034 44.9414 104.077C47.1132 100.051 46.9245 98.3186 47.6049 92.8848C47.7904 91.4031 48.4973 90.4111 49.1562 89.773C50.3447 88.6205 51.5129 88.6668 51.1936 87.7991C51.0718 87.4674 50.6962 87.293 50.1705 87.293C49.0508 87.2936 47.2489 88.0807 45.7664 89.813Z" fill="white"/>
</mask>
<g mask="url(#mask1)">
<path fill-rule="evenodd" clip-rule="evenodd" d="M40.9185 99.4289C42.4604 97.8217 43.1812 95.6537 44.1109 93.6811C45.6401 90.4361 47.0419 88.1052 50.4697 86.9933C48.7725 86.796 47.4301 87.6504 46.2284 88.7712C44.162 90.6981 42.7564 93.1179 41.366 95.549C40.923 96.3235 39.7648 98.2352 39.6417 99.0985C39.9358 99.03 40.6251 99.3699 40.9185 99.4289Z" fill="#F48EAA"/>
</g>
<path fill-rule="evenodd" clip-rule="evenodd" d="M36.0795 101.205C36.0373 101.198 35.9937 101.209 35.9603 101.233C35.9262 101.258 35.9047 101.294 35.9016 101.333H35.9155C35.7053 103.857 36.912 106.635 38.7146 107.726C39.9946 108.501 41.5762 108.45 43.1768 106.875C43.4949 106.562 43.7789 106.215 44.0389 105.85C44.4246 105.307 44.7566 104.723 45.069 104.144C45.9867 102.443 46.4859 101.148 46.8078 99.8151C47.2509 97.9763 47.3544 96.0646 47.7514 92.9002C47.8315 92.2621 48.0108 91.7185 48.2418 91.2561C48.5315 90.6745 48.9026 90.2235 49.2592 89.8779C49.7508 89.4021 50.2393 89.1358 50.6149 88.9226C50.897 88.7622 51.1185 88.6258 51.2485 88.466C51.4006 88.2782 51.4505 88.0594 51.3337 87.7429C51.234 87.4714 50.9955 87.2805 50.6471 87.1936C50.1926 87.0801 49.5375 87.146 48.7997 87.4207C47.8069 87.7904 46.6576 88.537 45.6522 89.7117C45.228 90.2064 44.8512 90.7455 44.5047 91.3062C43.991 92.1378 43.5435 93.0188 43.1042 93.8763C42.3569 95.3383 41.2695 97.819 39.7629 99.4992C38.7398 100.639 37.5242 101.412 36.0795 101.191V101.205ZM36.1849 101.519C36.048 103.89 37.1752 106.46 38.8616 107.48C40.0438 108.195 41.4986 108.122 42.9748 106.668C43.2809 106.367 43.5542 106.033 43.8042 105.681C44.1822 105.148 44.5079 104.574 44.814 104.005C45.7165 102.331 46.2082 101.058 46.5238 99.7453C46.9637 97.9154 47.064 96.0126 47.4579 92.8634C47.5424 92.1879 47.7318 91.612 47.976 91.1223C48.2828 90.5071 48.6754 90.0282 49.0528 89.6629C49.5659 89.165 50.0752 88.8846 50.4678 88.6613C50.7095 88.5237 50.9052 88.4133 51.0169 88.2757C51.1072 88.1647 51.1217 88.034 51.0535 87.8476C50.9847 87.6617 50.8124 87.545 50.5745 87.4854C50.1636 87.3833 49.5716 87.4543 48.9045 87.7042C47.9502 88.0594 46.8476 88.7806 45.8813 89.909C45.4679 90.3929 45.1005 90.9194 44.7629 91.4661C44.2535 92.2919 43.8105 93.1653 43.3762 94.0165C42.6195 95.4969 41.5162 98.0049 39.992 99.7066C38.9323 100.89 37.6681 101.682 36.1849 101.519Z" fill="black"/>
<path fill-rule="evenodd" clip-rule="evenodd" d="M44.233 103.749C45.4448 101.775 46.9608 99.5764 49.2904 98.8742C51.9633 98.0693 54.6734 99.6404 54.2443 102.494C53.687 106.195 48.2629 105.811 48.8593 102.597C46.8093 105.834 45.4391 109.541 45.5969 113.433C42.0947 111.948 40.4127 109.341 42.5497 105.835C42.9726 105.14 43.6309 104.304 44.233 103.749Z" fill="#EF383D"/>
<mask id="mask2" mask-type="alpha" maskUnits="userSpaceOnUse" x="41" y="98" width="14" height="16">
<path fill-rule="evenodd" clip-rule="evenodd" d="M50.6925 98.6641C50.2361 98.6641 49.7621 98.7326 49.29 98.874C46.9605 99.5755 45.4451 101.775 44.2327 103.749C43.6305 104.304 42.9729 105.14 42.55 105.835C40.4123 109.341 42.095 111.948 45.5966 113.432C45.4394 109.541 46.809 105.834 48.8596 102.596C48.2625 105.81 53.6866 106.195 54.2439 102.493C54.598 100.144 52.8232 98.6641 50.6937 98.6641C50.6931 98.6641 50.6931 98.6641 50.6925 98.6641Z" fill="white"/>
</mask>
<g mask="url(#mask2)">
<path fill-rule="evenodd" clip-rule="evenodd" d="M48.8994 103.404C50.2608 104.605 52.5039 104.067 53.0953 102.336C53.3819 101.497 53.3901 100.636 53.0006 99.8266C52.8668 99.5488 52.6863 99.2798 52.4938 99.0395C52.4244 98.9532 52.3537 98.8688 52.2818 98.7851C52.2477 98.7445 52.1271 98.6735 52.1789 98.6633C52.9912 98.5054 54.0843 99.642 54.4182 100.264C55.6458 102.551 54.1708 106.258 51.6254 106.903C49.8702 107.349 48.5441 105.236 48.8994 103.404Z" fill="#BC2025"/>
</g>
<mask id="mask3" mask-type="alpha" maskUnits="userSpaceOnUse" x="41" y="98" width="14" height="16">
<path fill-rule="evenodd" clip-rule="evenodd" d="M50.6925 98.6641C50.2361 98.6641 49.7621 98.7326 49.29 98.874C46.9605 99.5755 45.4451 101.775 44.2327 103.749C43.6305 104.304 42.9729 105.14 42.55 105.835C40.4123 109.341 42.095 111.948 45.5966 113.432C45.4394 109.541 46.809 105.834 48.8596 102.596C48.2625 105.81 53.6866 106.195 54.2439 102.493C54.598 100.144 52.8232 98.6641 50.6937 98.6641C50.6931 98.6641 50.6931 98.6641 50.6925 98.6641Z" fill="white"/>
</mask>
<g mask="url(#mask3)">
<path fill-rule="evenodd" clip-rule="evenodd" d="M43.7085 107.809C43.8883 106.694 44.2247 105.612 44.6444 104.566C45.5609 102.279 46.6376 100.594 48.8586 99.4477C49.9158 98.9022 51.0878 98.6669 52.2851 98.9675C51.1806 98.2616 49.5813 98.6105 48.4711 99.1946C46.5063 100.229 44.8837 102.076 44.0253 104.125C43.7299 104.833 43.2218 107.001 43.7085 107.809Z" fill="#F48EAA"/>
</g>
<mask id="mask4" mask-type="alpha" maskUnits="userSpaceOnUse" x="41" y="98" width="14" height="16">
<path fill-rule="evenodd" clip-rule="evenodd" d="M50.6925 98.6641C50.2361 98.6641 49.7621 98.7326 49.29 98.874C46.9605 99.5755 45.4451 101.775 44.2327 103.749C43.6305 104.304 42.9729 105.14 42.55 105.835C40.4123 109.341 42.095 111.948 45.5966 113.432C45.4394 109.541 46.809 105.834 48.8596 102.596C48.2625 105.81 53.6866 106.195 54.2439 102.493C54.598 100.144 52.8232 98.6641 50.6937 98.6641C50.6931 98.6641 50.6931 98.6641 50.6925 98.6641Z" fill="white"/>
</mask>
<g mask="url(#mask4)">
<path fill-rule="evenodd" clip-rule="evenodd" d="M44.5185 110.058C44.514 109.262 44.6131 108.476 44.7665 107.695C45.2405 105.267 46.8272 101.509 49.5272 100.853C50.1363 100.705 50.7479 100.727 51.2951 101.06C49.6175 100.343 48.6228 102.226 48.6026 103.627C48.5748 105.548 47.5252 107.329 47.0651 109.196C46.9622 109.612 46.8916 110.782 46.6751 111.138C46.0477 112.173 44.6977 111.001 44.5185 110.058Z" fill="#BC2025"/>
</g>
<path fill-rule="evenodd" clip-rule="evenodd" d="M48.6673 103.19C47.7888 104.65 47.0541 106.2 46.5391 107.816C45.9648 109.617 45.6637 111.499 45.7413 113.428C45.7439 113.477 45.7199 113.524 45.6795 113.553C45.6385 113.581 45.5861 113.587 45.5406 113.567C43.7652 112.814 42.4524 111.772 41.8428 110.483C41.2192 109.164 41.3195 107.579 42.4291 105.761C42.6437 105.409 42.9182 105.021 43.2155 104.65C43.5128 104.28 43.8321 103.927 44.1376 103.646L44.101 103.668C44.8338 102.475 45.6776 101.202 46.7411 100.219C47.4644 99.5512 48.288 99.0166 49.2461 98.728C50.5993 98.3208 51.96 98.5053 52.9472 99.1415C53.9917 99.8145 54.6235 100.99 54.3931 102.517C54.1211 104.324 52.742 105.202 51.4097 105.284C50.4598 105.343 49.5358 104.994 49.041 104.299C48.8245 103.995 48.6875 103.625 48.6673 103.19ZM45.4447 113.208C45.3961 111.326 45.6997 109.488 46.2602 107.726C46.8421 105.896 47.703 104.147 48.7336 102.517C48.7728 102.457 48.8479 102.433 48.9135 102.459C48.9798 102.485 49.0183 102.554 49.005 102.624C48.8908 103.239 49.0107 103.744 49.2827 104.125C49.722 104.741 50.5482 105.036 51.3914 104.984C52.5994 104.908 53.8491 104.111 54.0946 102.472C54.3035 101.082 53.7336 100.01 52.7831 99.3981C51.8635 98.8063 50.5942 98.6427 49.3345 99.0226C48.4218 99.2973 47.638 99.8098 46.9494 100.447C45.9073 101.411 45.0831 102.661 44.3655 103.832H44.3528C44.3459 103.844 44.3377 103.855 44.3282 103.865V103.855C44.0328 104.127 43.7236 104.469 43.4358 104.828C43.1461 105.188 42.8797 105.566 42.6708 105.91C41.6263 107.624 41.5127 109.116 42.1015 110.359C42.662 111.543 43.8492 112.497 45.4447 113.208Z" fill="black"/>
<path fill-rule="evenodd" clip-rule="evenodd" d="M27.1896 101.219C26.1564 104.704 18.3283 105.54 16.2568 99.4126C15.5152 97.2199 15.1435 94.9891 13.813 93.0565C12.9036 91.734 11.5933 90.5777 10.0192 90.1559C9.63737 90.0532 8.70642 89.8229 8.38643 90.2219C8.02037 90.6792 8.92291 91.2532 9.21828 91.5063C11.2992 93.2855 11.5277 95.8315 11.9575 102.426C12.2535 106.98 14.186 107.763 17.3266 108.664C24.997 110.866 29.2042 102.595 27.1896 101.219Z" fill="#EF383D"/>
<mask id="mask5" mask-type="alpha" maskUnits="userSpaceOnUse" x="8" y="89" width="20" height="21">
<path fill-rule="evenodd" clip-rule="evenodd" d="M8.38668 90.2225C8.02061 90.6798 8.92315 91.2532 9.21853 91.5063C11.2994 93.2855 11.5273 95.8314 11.9571 102.427C12.2537 106.98 14.1863 107.763 17.3262 108.665C24.9972 110.866 29.2038 102.595 27.1898 101.219C26.1566 104.705 18.3285 105.541 16.2564 99.4132C15.5148 97.2205 15.1437 94.9891 13.8133 93.0565C12.9038 91.734 11.5935 90.5777 10.0195 90.1559C9.80045 90.0976 9.40093 89.9961 9.03928 89.9961C8.77041 89.9961 8.523 90.0519 8.38668 90.2225Z" fill="white"/>
</mask>
<g mask="url(#mask5)">
<path fill-rule="evenodd" clip-rule="evenodd" d="M27.1896 101.221C26.1721 105.532 19.6038 105.94 17.3001 101.816C16.5572 100.487 15.9709 98.8689 15.62 96.3222C15.2274 93.4724 11.7858 89.9719 10.5588 89.3959C7.91936 88.1591 12.4523 89.9979 13.3542 94.9782C14.3059 100.232 14.4921 105.267 19.0427 106.871C23.8325 108.558 28.2821 111.111 30.2885 106.187C28.1035 99.0255 29.901 98.5974 27.1896 101.221Z" fill="#BC2025"/>
</g>
<mask id="mask6" mask-type="alpha" maskUnits="userSpaceOnUse" x="8" y="89" width="20" height="21">
<path fill-rule="evenodd" clip-rule="evenodd" d="M8.38668 90.2225C8.02061 90.6798 8.92315 91.2532 9.21853 91.5063C11.2994 93.2855 11.5273 95.8314 11.9571 102.427C12.2537 106.98 14.1863 107.763 17.3262 108.665C24.9972 110.866 29.2038 102.595 27.1898 101.219C26.1566 104.705 18.3285 105.541 16.2564 99.4132C15.5148 97.2205 15.1437 94.9891 13.8133 93.0565C12.9038 91.734 11.5935 90.5777 10.0195 90.1559C9.80045 90.0976 9.40093 89.9961 9.03928 89.9961C8.77041 89.9961 8.523 90.0519 8.38668 90.2225Z" fill="white"/>
</mask>
<g mask="url(#mask6)">
<path fill-rule="evenodd" clip-rule="evenodd" d="M7.02466 90.61C12.6652 93.144 10.6702 99.913 11.9968 106.038C12.5036 108.381 14.4305 112.179 16.7607 111.004C16.0147 110.142 16.0109 108.508 14.955 107.837C12.929 106.551 12.7044 102.379 12.7668 99.5159C12.8432 96.009 11.5569 89.996 7.02466 90.61Z" fill="#F48EAA"/>
</g>
<path fill-rule="evenodd" clip-rule="evenodd" d="M27.1896 101.219C26.1564 104.704 18.3283 105.54 16.2568 99.4126C15.5152 97.2199 15.1435 94.9891 13.813 93.0565C12.9036 91.734 11.5933 90.5777 10.0192 90.1559C9.63737 90.0532 8.70642 89.8229 8.38643 90.2219C8.02037 90.6792 8.92291 91.2532 9.21828 91.5063C11.2992 93.2855 11.5277 95.8315 11.9575 102.426C12.2535 106.98 14.186 107.763 17.3266 108.664C24.997 110.866 29.2042 102.595 27.1896 101.219Z" stroke="black" stroke-width="0.481" stroke-linecap="round" stroke-linejoin="round"/>
<path fill-rule="evenodd" clip-rule="evenodd" d="M37.5957 75.5882C42.6108 75.3915 45.6472 76.8383 44.3446 78.9733C44.1899 79.2257 44.0126 79.4376 43.8327 79.612C42.7591 80.6516 41.6041 80.7785 40.4384 80.9497C39.6312 79.4281 38.3102 77.2728 37.5957 75.5882Z" fill="#9FA0A0"/>
<path fill-rule="evenodd" clip-rule="evenodd" d="M37.5957 75.5882C42.6108 75.3915 45.6472 76.8383 44.3446 78.9733C44.1899 79.2257 44.0126 79.4376 43.8327 79.612C42.7591 80.6516 41.6041 80.7785 40.4384 80.9497C39.6312 79.4281 38.3102 77.2728 37.5957 75.5882Z" stroke="black" stroke-width="0.481" stroke-linecap="round" stroke-linejoin="round"/>
<path fill-rule="evenodd" clip-rule="evenodd" d="M39.1077 99.783C40.1226 99.632 43.2928 98.7263 44.0653 99.4024C46.2908 101.353 44.4617 105.405 43.4645 107.436C44.9496 110.439 49.4282 110.852 49.2938 114.886C49.1656 118.749 44.7154 119.895 41.6556 118.513C39.6978 117.628 38.9846 115.72 38.3635 113.804C37.2363 113.364 35.9721 113.231 34.783 113.082C33.3409 123.591 19.1943 120.913 21.9588 113.11C20.8946 113.146 19.8993 112.755 17.1292 111.926C16.1705 111.639 14.9448 111.468 13.6396 111.616C14.2512 113.095 13.5058 115.172 11.4457 115.449C8.70025 115.818 6.43191 112.545 8.37016 109.864C10.4126 107.038 13.4364 106.505 14.9865 106.523C18.0412 106.558 21.4614 107.672 24.3653 106.159C25.6604 105.485 26.7151 104.371 26.8072 102.909C27.0938 98.3648 17.9491 97.7057 15.7514 87.7089C13.5778 77.8199 19.9624 71.1073 26.8173 70.128C33.9834 69.1049 42.9034 72.5288 43.3938 84.3181C43.7756 93.5182 39.3311 94.9498 39.1077 99.783Z" fill="#EF383D"/>
<mask id="mask7" mask-type="alpha" maskUnits="userSpaceOnUse" x="7" y="69" width="43" height="51">
<path fill-rule="evenodd" clip-rule="evenodd" d="M26.8175 70.1283C19.9619 71.107 13.5779 77.8195 15.7516 87.7085C17.9492 97.7054 27.0939 98.365 26.8074 102.908C26.7152 104.372 25.6606 105.485 24.3654 106.159C21.4609 107.671 18.0407 106.557 14.9866 106.522C13.4365 106.505 10.4127 107.037 8.37029 109.863C6.43203 112.544 8.70038 115.818 11.4459 115.449C13.5059 115.171 14.2513 113.095 13.6397 111.616C14.9449 111.467 16.1706 111.639 17.1293 111.926C19.8995 112.755 20.8941 113.146 21.9589 113.11C19.1938 120.914 33.341 123.591 34.7832 113.082C35.9722 113.231 37.2358 113.364 38.3637 113.805C38.9847 115.719 39.6979 117.629 41.6551 118.513C44.7155 119.896 49.1651 118.749 49.2939 114.887C49.4283 110.852 44.9497 110.439 43.4646 107.436C44.4618 105.406 46.2909 101.353 44.0654 99.4027C43.2929 98.7266 40.1227 99.6317 39.1078 99.7833C39.3312 94.9501 43.7764 93.5179 43.3933 84.3183C42.9571 73.8229 35.8403 69.957 29.2265 69.957C28.4117 69.957 27.6039 70.016 26.8175 70.1283Z" fill="white"/>
</mask>
<g mask="url(#mask7)">
<path fill-rule="evenodd" clip-rule="evenodd" d="M21.0023 80.437C26.9294 83.1383 32.7707 77.9994 36.538 78.0939C40.1292 81.266 40.0819 84.6086 39.4678 88.6718C39.8446 89.6283 40.3489 89.9188 40.5168 90.156C40.3678 90.5607 39.2639 90.7325 39.0733 91.1474C37.9461 93.5925 37.0467 96.7823 37.0467 98.9775C37.0467 100.727 36.9868 102.211 36.5727 103.906C36.1454 105.656 33.4934 112.072 34.7727 113.782C35.3111 114.503 38.6233 115.212 38.3279 113.796C37.7025 110.803 40.6354 108.9 40.6209 110.266C40.5527 116.883 44.5858 121.022 48.6339 117.74C49.7031 116.874 50.3374 116.316 50.5482 114.919C51.1301 111.043 46.5297 111.142 46.2091 107.302C46.0342 105.207 46.7033 103.209 46.6395 101.137C46.5796 99.1995 45.672 97.4559 45.8108 95.4833C46.1075 91.24 47.5831 86.8038 46.3927 82.5681C45.7016 80.1065 44.0657 78.3115 42.8419 76.1562C42.8457 76.1575 42.8507 76.1581 42.8552 76.1594C37.303 70.6482 26.2673 76.5793 21.0023 80.437Z" fill="#BC2025"/>
</g>
<mask id="mask8" mask-type="alpha" maskUnits="userSpaceOnUse" x="7" y="69" width="43" height="51">
<path fill-rule="evenodd" clip-rule="evenodd" d="M26.8175 70.1283C19.9619 71.107 13.5779 77.8195 15.7516 87.7085C17.9492 97.7054 27.0939 98.365 26.8074 102.908C26.7152 104.372 25.6606 105.485 24.3654 106.159C21.4609 107.671 18.0407 106.557 14.9866 106.522C13.4365 106.505 10.4127 107.037 8.37029 109.863C6.43203 112.544 8.70038 115.818 11.4459 115.449C13.5059 115.171 14.2513 113.095 13.6397 111.616C14.9449 111.467 16.1706 111.639 17.1293 111.926C19.8995 112.755 20.8941 113.146 21.9589 113.11C19.1938 120.914 33.341 123.591 34.7832 113.082C35.9722 113.231 37.2358 113.364 38.3637 113.805C38.9847 115.719 39.6979 117.629 41.6551 118.513C44.7155 119.896 49.1651 118.749 49.2939 114.887C49.4283 110.852 44.9497 110.439 43.4646 107.436C44.4618 105.406 46.2909 101.353 44.0654 99.4027C43.2929 98.7266 40.1227 99.6317 39.1078 99.7833C39.3312 94.9501 43.7764 93.5179 43.3933 84.3183C42.9571 73.8229 35.8403 69.957 29.2265 69.957C28.4117 69.957 27.6039 70.016 26.8175 70.1283Z" fill="white"/>
</mask>
<g mask="url(#mask8)">
<path fill-rule="evenodd" clip-rule="evenodd" d="M12.5126 110.513C13.2807 111.878 12.5492 113.844 11.073 114.226C8.53451 114.884 7.32018 112.28 7.29115 112.577C7.14662 114.028 8.08829 115.262 9.34616 115.869C11.4536 116.886 14.2653 116.072 15.2404 113.862C16.1266 111.855 14.6043 110.407 12.5126 110.513Z" fill="#BC2025"/>
</g>
<mask id="mask9" mask-type="alpha" maskUnits="userSpaceOnUse" x="7" y="69" width="43" height="51">
<path fill-rule="evenodd" clip-rule="evenodd" d="M26.8175 70.1283C19.9619 71.107 13.5779 77.8195 15.7516 87.7085C17.9492 97.7054 27.0939 98.365 26.8074 102.908C26.7152 104.372 25.6606 105.485 24.3654 106.159C21.4609 107.671 18.0407 106.557 14.9866 106.522C13.4365 106.505 10.4127 107.037 8.37029 109.863C6.43203 112.544 8.70038 115.818 11.4459 115.449C13.5059 115.171 14.2513 113.095 13.6397 111.616C14.9449 111.467 16.1706 111.639 17.1293 111.926C19.8995 112.755 20.8941 113.146 21.9589 113.11C19.1938 120.914 33.341 123.591 34.7832 113.082C35.9722 113.231 37.2358 113.364 38.3637 113.805C38.9847 115.719 39.6979 117.629 41.6551 118.513C44.7155 119.896 49.1651 118.749 49.2939 114.887C49.4283 110.852 44.9497 110.439 43.4646 107.436C44.4618 105.406 46.2909 101.353 44.0654 99.4027C43.2929 98.7266 40.1227 99.6317 39.1078 99.7833C39.3312 94.9501 43.7764 93.5179 43.3933 84.3183C42.9571 73.8229 35.8403 69.957 29.2265 69.957C28.4117 69.957 27.6039 70.016 26.8175 70.1283Z" fill="white"/>
</mask>
<g mask="url(#mask9)">
<path fill-rule="evenodd" clip-rule="evenodd" d="M11.5474 110.85C14.4229 109.437 16.8547 109.896 19.8873 110.244C20.9931 110.371 22.1178 110.518 23.2204 110.278C24.5616 109.986 25.4989 108.839 26.5415 108.027C24.6759 109.761 22.6372 111.381 21.6078 113.79C20.0988 113.107 15.7123 112.661 13.9205 112.724C14.0385 111.862 12.6475 110.414 11.5474 110.85Z" fill="#BC2025"/>
</g>
<mask id="mask10" mask-type="alpha" maskUnits="userSpaceOnUse" x="7" y="69" width="43" height="51">
<path fill-rule="evenodd" clip-rule="evenodd" d="M26.8175 70.1283C19.9619 71.107 13.5779 77.8195 15.7516 87.7085C17.9492 97.7054 27.0939 98.365 26.8074 102.908C26.7152 104.372 25.6606 105.485 24.3654 106.159C21.4609 107.671 18.0407 106.557 14.9866 106.522C13.4365 106.505 10.4127 107.037 8.37029 109.863C6.43203 112.544 8.70038 115.818 11.4459 115.449C13.5059 115.171 14.2513 113.095 13.6397 111.616C14.9449 111.467 16.1706 111.639 17.1293 111.926C19.8995 112.755 20.8941 113.146 21.9589 113.11C19.1938 120.914 33.341 123.591 34.7832 113.082C35.9722 113.231 37.2358 113.364 38.3637 113.805C38.9847 115.719 39.6979 117.629 41.6551 118.513C44.7155 119.896 49.1651 118.749 49.2939 114.887C49.4283 110.852 44.9497 110.439 43.4646 107.436C44.4618 105.406 46.2909 101.353 44.0654 99.4027C43.2929 98.7266 40.1227 99.6317 39.1078 99.7833C39.3312 94.9501 43.7764 93.5179 43.3933 84.3183C42.9571 73.8229 35.8403 69.957 29.2265 69.957C28.4117 69.957 27.6039 70.016 26.8175 70.1283Z" fill="white"/>
</mask>
<g mask="url(#mask10)">
<path fill-rule="evenodd" clip-rule="evenodd" d="M26.2404 101.696C25.8043 99.9016 22.6498 98.7903 21.2556 96.6211C23.8433 97.6784 25.2021 98.4015 26.5326 99.9783C28.6539 102.492 27.3146 105.5 24.6183 106.913C22.4118 108.069 19.7206 107.994 17.3463 107.509C15.591 107.152 13.6073 107.175 11.8925 107.79C9.32816 108.712 7.61081 111.069 8.00023 113.974C7.4991 113.027 7.16017 111.802 7.25737 110.73C7.44608 108.667 9.33826 106.904 11.2595 106.422C13.6181 105.831 16.0278 106.31 18.3864 106.598C19.2959 106.708 20.2104 106.73 21.1249 106.755C21.6879 106.77 27.4055 106.876 26.2404 101.696Z" fill="#F48EAA"/>
</g>
<mask id="mask11" mask-type="alpha" maskUnits="userSpaceOnUse" x="7" y="69" width="43" height="51">
<path fill-rule="evenodd" clip-rule="evenodd" d="M26.8175 70.1283C19.9619 71.107 13.5779 77.8195 15.7516 87.7085C17.9492 97.7054 27.0939 98.365 26.8074 102.908C26.7152 104.372 25.6606 105.485 24.3654 106.159C21.4609 107.671 18.0407 106.557 14.9866 106.522C13.4365 106.505 10.4127 107.037 8.37029 109.863C6.43203 112.544 8.70038 115.818 11.4459 115.449C13.5059 115.171 14.2513 113.095 13.6397 111.616C14.9449 111.467 16.1706 111.639 17.1293 111.926C19.8995 112.755 20.8941 113.146 21.9589 113.11C19.1938 120.914 33.341 123.591 34.7832 113.082C35.9722 113.231 37.2358 113.364 38.3637 113.805C38.9847 115.719 39.6979 117.629 41.6551 118.513C44.7155 119.896 49.1651 118.749 49.2939 114.887C49.4283 110.852 44.9497 110.439 43.4646 107.436C44.4618 105.406 46.2909 101.353 44.0654 99.4027C43.2929 98.7266 40.1227 99.6317 39.1078 99.7833C39.3312 94.9501 43.7764 93.5179 43.3933 84.3183C42.9571 73.8229 35.8403 69.957 29.2265 69.957C28.4117 69.957 27.6039 70.016 26.8175 70.1283Z" fill="white"/>
</mask>
<g mask="url(#mask11)">
<path fill-rule="evenodd" clip-rule="evenodd" d="M29.5117 102.52C29.8405 103.806 29.5698 105.433 28.7796 106.729C27.9364 108.109 26.1717 109.601 24.9965 110.663C22.92 112.539 21.2014 115.725 23.0077 118.406C17.7288 112.755 26.3446 109.518 28.7095 105.627C29.1652 104.878 29.4334 103.378 29.5117 102.52Z" fill="#F48EAA"/>
</g>
<mask id="mask12" mask-type="alpha" maskUnits="userSpaceOnUse" x="7" y="69" width="43" height="51">
<path fill-rule="evenodd" clip-rule="evenodd" d="M26.8175 70.1283C19.9619 71.107 13.5779 77.8195 15.7516 87.7085C17.9492 97.7054 27.0939 98.365 26.8074 102.908C26.7152 104.372 25.6606 105.485 24.3654 106.159C21.4609 107.671 18.0407 106.557 14.9866 106.522C13.4365 106.505 10.4127 107.037 8.37029 109.863C6.43203 112.544 8.70038 115.818 11.4459 115.449C13.5059 115.171 14.2513 113.095 13.6397 111.616C14.9449 111.467 16.1706 111.639 17.1293 111.926C19.8995 112.755 20.8941 113.146 21.9589 113.11C19.1938 120.914 33.341 123.591 34.7832 113.082C35.9722 113.231 37.2358 113.364 38.3637 113.805C38.9847 115.719 39.6979 117.629 41.6551 118.513C44.7155 119.896 49.1651 118.749 49.2939 114.887C49.4283 110.852 44.9497 110.439 43.4646 107.436C44.4618 105.406 46.2909 101.353 44.0654 99.4027C43.2929 98.7266 40.1227 99.6317 39.1078 99.7833C39.3312 94.9501 43.7764 93.5179 43.3933 84.3183C42.9571 73.8229 35.8403 69.957 29.2265 69.957C28.4117 69.957 27.6039 70.016 26.8175 70.1283Z" fill="white"/>
</mask>
<g mask="url(#mask12)">
<path fill-rule="evenodd" clip-rule="evenodd" d="M26.9292 113.932C29.5882 114.812 30.7754 113.039 31.4981 110.692C31.9481 109.23 32.0333 107.702 32.4416 106.232C33.0154 104.166 34.6443 101.104 37.0465 100.766C35.5191 100.418 34.0435 101.572 33.2274 102.762C32.3596 104.027 31.7808 105.429 31.4135 106.917C31.0291 108.472 30.8436 110.074 30.22 111.564C29.5485 113.17 28.6207 113.88 26.9292 113.932Z" fill="#F48EAA"/>
</g>
<mask id="mask13" mask-type="alpha" maskUnits="userSpaceOnUse" x="7" y="69" width="43" height="51">
<path fill-rule="evenodd" clip-rule="evenodd" d="M26.8175 70.1283C19.9619 71.107 13.5779 77.8195 15.7516 87.7085C17.9492 97.7054 27.0939 98.365 26.8074 102.908C26.7152 104.372 25.6606 105.485 24.3654 106.159C21.4609 107.671 18.0407 106.557 14.9866 106.522C13.4365 106.505 10.4127 107.037 8.37029 109.863C6.43203 112.544 8.70038 115.818 11.4459 115.449C13.5059 115.171 14.2513 113.095 13.6397 111.616C14.9449 111.467 16.1706 111.639 17.1293 111.926C19.8995 112.755 20.8941 113.146 21.9589 113.11C19.1938 120.914 33.341 123.591 34.7832 113.082C35.9722 113.231 37.2358 113.364 38.3637 113.805C38.9847 115.719 39.6979 117.629 41.6551 118.513C44.7155 119.896 49.1651 118.749 49.2939 114.887C49.4283 110.852 44.9497 110.439 43.4646 107.436C44.4618 105.406 46.2909 101.353 44.0654 99.4027C43.2929 98.7266 40.1227 99.6317 39.1078 99.7833C39.3312 94.9501 43.7764 93.5179 43.3933 84.3183C42.9571 73.8229 35.8403 69.957 29.2265 69.957C28.4117 69.957 27.6039 70.016 26.8175 70.1283Z" fill="white"/>
</mask>
<g mask="url(#mask13)">
<path fill-rule="evenodd" clip-rule="evenodd" d="M38.3046 112.203C38.5892 115.486 39.2778 119.997 45.5558 119.257C44.315 119.344 42.1659 118.347 41.2583 117.675C39.1888 116.143 38.7028 114.088 38.3046 112.203Z" fill="#F48EAA"/>
</g>
<mask id="mask14" mask-type="alpha" maskUnits="userSpaceOnUse" x="7" y="69" width="43" height="51">
<path fill-rule="evenodd" clip-rule="evenodd" d="M26.8175 70.1283C19.9619 71.107 13.5779 77.8195 15.7516 87.7085C17.9492 97.7054 27.0939 98.365 26.8074 102.908C26.7152 104.372 25.6606 105.485 24.3654 106.159C21.4609 107.671 18.0407 106.557 14.9866 106.522C13.4365 106.505 10.4127 107.037 8.37029 109.863C6.43203 112.544 8.70038 115.818 11.4459 115.449C13.5059 115.171 14.2513 113.095 13.6397 111.616C14.9449 111.467 16.1706 111.639 17.1293 111.926C19.8995 112.755 20.8941 113.146 21.9589 113.11C19.1938 120.914 33.341 123.591 34.7832 113.082C35.9722 113.231 37.2358 113.364 38.3637 113.805C38.9847 115.719 39.6979 117.629 41.6551 118.513C44.7155 119.896 49.1651 118.749 49.2939 114.887C49.4283 110.852 44.9497 110.439 43.4646 107.436C44.4618 105.406 46.2909 101.353 44.0654 99.4027C43.2929 98.7266 40.1227 99.6317 39.1078 99.7833C39.3312 94.9501 43.7764 93.5179 43.3933 84.3183C42.9571 73.8229 35.8403 69.957 29.2265 69.957C28.4117 69.957 27.6039 70.016 26.8175 70.1283Z" fill="white"/>
</mask>
<g mask="url(#mask14)">
<path fill-rule="evenodd" clip-rule="evenodd" d="M22.3334 117.691C23.2782 118.39 24.3108 118.688 25.4727 118.745C29.1012 118.92 31.8555 116.091 32.7435 112.724C33.4062 110.211 32.7978 107.044 33.7868 104.586C34.233 103.479 36.1031 101.296 37.5951 101.23C36.62 103.067 35.2725 104.115 34.9475 106.218C34.6975 107.829 34.8004 109.978 34.9475 111.569C35.1917 114.219 33.8941 116.579 32.2689 118.608C31.4143 119.675 30.2909 120.552 28.9554 120.895C26.5084 121.523 23.2965 120.214 22.3334 117.691Z" fill="#BC2025"/>
</g>
<mask id="mask15" mask-type="alpha" maskUnits="userSpaceOnUse" x="7" y="69" width="43" height="51">
<path fill-rule="evenodd" clip-rule="evenodd" d="M26.8175 70.1283C19.9619 71.107 13.5779 77.8195 15.7516 87.7085C17.9492 97.7054 27.0939 98.365 26.8074 102.908C26.7152 104.372 25.6606 105.485 24.3654 106.159C21.4609 107.671 18.0407 106.557 14.9866 106.522C13.4365 106.505 10.4127 107.037 8.37029 109.863C6.43203 112.544 8.70038 115.818 11.4459 115.449C13.5059 115.171 14.2513 113.095 13.6397 111.616C14.9449 111.467 16.1706 111.639 17.1293 111.926C19.8995 112.755 20.8941 113.146 21.9589 113.11C19.1938 120.914 33.341 123.591 34.7832 113.082C35.9722 113.231 37.2358 113.364 38.3637 113.805C38.9847 115.719 39.6979 117.629 41.6551 118.513C44.7155 119.896 49.1651 118.749 49.2939 114.887C49.4283 110.852 44.9497 110.439 43.4646 107.436C44.4618 105.406 46.2909 101.353 44.0654 99.4027C43.2929 98.7266 40.1227 99.6317 39.1078 99.7833C39.3312 94.9501 43.7764 93.5179 43.3933 84.3183C42.9571 73.8229 35.8403 69.957 29.2265 69.957C28.4117 69.957 27.6039 70.016 26.8175 70.1283Z" fill="white"/>
</mask>
<g mask="url(#mask15)">
<path fill-rule="evenodd" clip-rule="evenodd" d="M26.8549 114.037C25.6728 114.203 25.1389 113.393 26.3027 112.227C26.8228 111.707 27.5593 111.347 28.1835 110.972C29.3985 110.244 30.7447 109.198 31.3052 107.84C30.8488 110.137 30.2379 114.051 26.8549 114.037Z" fill="#BC2025"/>
</g>
<path fill-rule="evenodd" clip-rule="evenodd" d="M39.1077 99.783C40.1226 99.632 43.2928 98.7263 44.0653 99.4024C46.2908 101.353 44.4617 105.405 43.4645 107.436C44.9496 110.439 49.4282 110.852 49.2938 114.886C49.1656 118.749 44.7154 119.895 41.6556 118.513C39.6978 117.628 38.9846 115.72 38.3635 113.804C37.2363 113.364 35.9721 113.231 34.783 113.082C33.3409 123.591 19.1943 120.913 21.9588 113.11C20.8946 113.146 19.8993 112.755 17.1292 111.926C16.1705 111.639 14.9448 111.468 13.6396 111.616C14.2512 113.095 13.5058 115.172 11.4457 115.449C8.70025 115.818 6.43191 112.545 8.37016 109.864C10.4126 107.038 13.4364 106.505 14.9865 106.523C18.0412 106.558 21.4614 107.672 24.3653 106.159C25.6604 105.485 26.7151 104.371 26.8072 102.909C27.0938 98.3648 17.9491 97.7057 15.7514 87.7089C13.5778 77.8199 19.9624 71.1073 26.8173 70.128C33.9834 69.1049 42.9034 72.5288 43.3938 84.3181C43.7756 93.5182 39.3311 94.9498 39.1077 99.783Z" stroke="black" stroke-width="0.481" stroke-linecap="round" stroke-linejoin="round"/>
<path fill-rule="evenodd" clip-rule="evenodd" d="M43.3272 107.377C42.799 108.651 42.4544 110.102 42.8406 111.287C43.0293 111.865 43.3796 112.395 43.9798 112.786C44.0676 112.844 44.161 112.898 44.262 112.945C44.4027 113.01 44.5536 113.059 44.7158 113.107C44.7511 113.122 44.7915 113.106 44.8066 113.07C44.8218 113.035 44.8054 112.993 44.77 112.979C44.6293 112.899 44.5062 112.811 44.3844 112.728C44.2992 112.67 44.2165 112.614 44.1376 112.556C43.6169 112.173 43.2887 111.717 43.1221 111.196C42.7617 110.07 43.1 108.699 43.6018 107.492C43.6333 107.416 43.5974 107.329 43.5216 107.297C43.4459 107.265 43.3588 107.301 43.3272 107.377Z" fill="black"/>
<path fill-rule="evenodd" clip-rule="evenodd" d="M48.9425 102.988C49.0744 102.424 49.4203 101.746 49.9176 101.375C50.2338 101.139 50.6144 101.031 51.0468 101.185C51.3762 101.292 51.6236 101.568 51.7145 101.872C51.8086 102.189 51.736 102.536 51.4034 102.771C51.38 102.786 51.3731 102.817 51.3876 102.841C51.4021 102.865 51.4337 102.872 51.457 102.857C51.8824 102.618 52.0042 102.207 51.9247 101.819C51.8452 101.43 51.5504 101.069 51.149 100.905C50.6094 100.702 50.1259 100.823 49.7283 101.118C49.1723 101.529 48.7898 102.291 48.6484 102.921C48.6301 103.002 48.6806 103.083 48.7614 103.102C48.8428 103.121 48.9242 103.07 48.9425 102.988Z" fill="black"/>
<path fill-rule="evenodd" clip-rule="evenodd" d="M13.8307 111.705C13.469 111.138 12.901 110.719 12.285 110.56C11.6513 110.396 10.9703 110.504 10.4143 110.985C10.0678 111.303 9.83047 111.761 9.85445 112.199C9.87654 112.594 10.1019 112.977 10.651 113.204C10.6762 113.216 10.7065 113.205 10.7179 113.179C10.7299 113.154 10.7191 113.124 10.6939 113.112C10.2401 112.872 10.0646 112.537 10.0735 112.195C10.0772 112.045 10.1183 111.897 10.1839 111.755C10.2779 111.549 10.4282 111.36 10.6087 111.214C10.8416 111.018 11.0984 110.9 11.3629 110.844C11.6419 110.785 11.929 110.798 12.2055 110.87C12.7495 111.009 13.2538 111.372 13.5776 111.87C13.6224 111.94 13.7158 111.96 13.7859 111.914C13.8559 111.869 13.8761 111.775 13.8307 111.705Z" fill="black"/>
<path fill-rule="evenodd" clip-rule="evenodd" d="M22.0953 113.175C22.4134 112.507 22.883 111.817 23.4276 111.17C23.9534 110.546 24.5505 109.962 25.1538 109.476C26.1712 108.654 27.8413 107.488 28.8126 105.733C29.1433 105.133 29.4033 104.467 29.51 103.721C29.5428 103.491 29.558 103.254 29.5586 103.011C29.5599 102.78 29.5454 102.545 29.5176 102.303C29.5144 102.256 29.4734 102.22 29.4267 102.223C29.38 102.227 29.344 102.268 29.3472 102.315C29.3529 102.551 29.3434 102.778 29.3251 103C29.3061 103.233 29.2733 103.458 29.2336 103.675C29.1061 104.382 28.8719 105.018 28.5532 105.587C27.5957 107.3 25.9598 108.435 24.9632 109.237C24.3453 109.735 23.7337 110.333 23.1954 110.972C22.633 111.641 22.1496 112.353 21.8214 113.044C21.7854 113.12 21.8176 113.212 21.8933 113.247C21.9684 113.284 22.0593 113.252 22.0953 113.175Z" fill="black"/>
<path fill-rule="evenodd" clip-rule="evenodd" d="M27.736 80.7079C28.114 80.8399 28.4605 81.0232 28.7786 81.2338C28.9989 81.3803 29.2053 81.5401 29.3978 81.7069C29.4767 81.7761 29.5543 81.8452 29.6294 81.9156C29.7455 82.0241 29.856 82.1351 29.9614 82.2467C30.2498 82.555 30.4947 82.8721 30.6866 83.1721C30.6954 83.1867 30.715 83.1918 30.7301 83.1823C30.7453 83.174 30.7497 83.1537 30.7409 83.1391C30.5635 82.8239 30.3376 82.4858 30.0592 82.1585C29.9576 82.0393 29.8484 81.9213 29.7329 81.8072C29.6566 81.7329 29.5783 81.6606 29.4969 81.5909C29.2981 81.4202 29.0809 81.2623 28.8493 81.1215C28.5154 80.9198 28.1494 80.7562 27.7568 80.642C27.7385 80.6369 27.7189 80.6464 27.7133 80.6648C27.7076 80.6832 27.7177 80.7022 27.736 80.7079Z" fill="black"/>
<path fill-rule="evenodd" clip-rule="evenodd" d="M25.7402 81.0462C25.513 81.1369 25.2908 81.2504 25.0838 81.3919C24.9474 81.4845 24.8174 81.5891 24.6975 81.7046C24.6489 81.7509 24.6035 81.7991 24.5593 81.8498C24.493 81.9247 24.4318 82.0033 24.3744 82.0851C24.2311 82.29 24.1162 82.512 24.031 82.7461C24.0241 82.7619 24.0316 82.7803 24.0481 82.7873C24.0638 82.7943 24.0828 82.7867 24.0891 82.7708C24.192 82.5526 24.3258 82.3522 24.4785 82.1657C24.5397 82.0909 24.6028 82.0198 24.6691 81.9507C24.7127 81.905 24.7575 81.8593 24.8035 81.8149C24.9171 81.7027 25.0364 81.5967 25.162 81.4991C25.3533 81.3494 25.5559 81.2162 25.7679 81.1096C25.7856 81.1014 25.7932 81.0811 25.7856 81.0633C25.7774 81.0462 25.7572 81.0379 25.7402 81.0462Z" fill="black"/>
<path fill-rule="evenodd" clip-rule="evenodd" d="M26.4623 81.3379C25.1362 81.586 23.7831 82.7568 23.0282 83.1564C22.4595 83.4583 23.506 84.3026 23.5514 85.4411C23.6076 86.8308 28.2421 81.0056 26.4623 81.3379Z" fill="black"/>
<path fill-rule="evenodd" clip-rule="evenodd" d="M22.5749 82.1731C22.6955 81.6226 22.9315 81.0555 23.2629 80.5284C23.5576 80.0603 23.9401 79.6385 24.4305 79.3252C24.7536 79.095 25.1153 78.9497 25.4839 78.8394C25.8708 78.7239 26.2671 78.6478 26.6673 78.6326C27.5503 78.5977 28.4257 78.7772 29.094 79.1723C29.1938 79.244 29.3332 79.2206 29.4052 79.1197C29.4771 79.0182 29.4532 78.8787 29.3534 78.8064C28.6724 78.2209 27.7137 77.8093 26.6969 77.704C26.1996 77.6526 25.6896 77.6812 25.2011 77.8042C24.7069 77.9292 24.2424 78.1645 23.8214 78.4772C23.2585 78.9396 22.8249 79.5104 22.5459 80.1434C22.2606 80.7878 22.1205 81.4722 22.0921 82.109C22.0751 82.2435 22.1685 82.3666 22.3016 82.3843C22.4354 82.4015 22.5579 82.3069 22.5749 82.1731Z" fill="black"/>
<path fill-rule="evenodd" clip-rule="evenodd" d="M26.1478 81.352C24.0518 82.0092 22.941 84.4461 23.6687 86.791C24.3964 89.1353 26.6887 90.5059 28.7854 89.8488C30.8814 89.1911 31.9923 86.7542 31.2639 84.4093C30.5368 82.065 28.2439 80.6949 26.1478 81.352Z" fill="white"/>
<mask id="mask16" mask-type="alpha" maskUnits="userSpaceOnUse" x="23" y="81" width="9" height="10">
<path fill-rule="evenodd" clip-rule="evenodd" d="M26.1477 81.3518C24.0517 82.0089 22.9409 84.4458 23.6686 86.7907C24.3963 89.135 26.6892 90.5057 28.7853 89.8486C30.8813 89.1915 31.9921 86.7539 31.2638 84.409C30.6598 82.4624 28.9759 81.1875 27.2226 81.1875C26.8641 81.1875 26.5037 81.2401 26.1477 81.3518Z" fill="white"/>
</mask>
<g mask="url(#mask16)">
<path fill-rule="evenodd" clip-rule="evenodd" d="M26.4896 82.7583C24.9161 83.2352 24.0761 85.081 24.6151 86.876C25.1547 88.6722 26.8702 89.7429 28.443 89.2653C30.0164 88.7883 30.8565 86.9426 30.3175 85.1476C29.7785 83.3513 28.063 82.2806 26.4896 82.7583Z" fill="black"/>
</g>
<mask id="mask17" mask-type="alpha" maskUnits="userSpaceOnUse" x="23" y="81" width="9" height="10">
<path fill-rule="evenodd" clip-rule="evenodd" d="M26.1477 81.3518C24.0517 82.0089 22.9409 84.4458 23.6686 86.7907C24.3963 89.135 26.6892 90.5057 28.7853 89.8486C30.8813 89.1915 31.9921 86.7539 31.2638 84.409C30.6598 82.4624 28.9759 81.1875 27.2226 81.1875C26.8641 81.1875 26.5037 81.2401 26.1477 81.3518Z" fill="white"/>
</mask>
<g mask="url(#mask17)">
<path fill-rule="evenodd" clip-rule="evenodd" d="M29.2537 85.5371C29.3471 86.0039 29.325 86.3991 29.2404 86.7314C29.094 87.3023 28.6799 87.6213 28.2097 87.7292C27.8045 87.8224 27.3539 87.7666 26.9689 87.5122C26.6155 87.2801 26.3049 86.9167 26.1371 86.3832C26.0828 86.1707 25.8676 86.042 25.6561 86.0965C25.4453 86.1504 25.3172 86.3674 25.3715 86.5799C25.6044 87.7514 26.3453 88.4529 27.1532 88.7256C27.5811 88.8702 28.0362 88.8848 28.4559 88.7852C28.7487 88.7161 29.0271 88.5899 29.2663 88.4066C29.9896 87.8528 30.4509 86.8114 29.9725 85.3436C29.9195 85.1445 29.715 85.0259 29.5168 85.0792C29.3187 85.1324 29.2006 85.3386 29.2537 85.5371Z" fill="#8C181B"/>
</g>
<mask id="mask18" mask-type="alpha" maskUnits="userSpaceOnUse" x="23" y="81" width="9" height="10">
<path fill-rule="evenodd" clip-rule="evenodd" d="M26.1477 81.3518C24.0517 82.0089 22.9409 84.4458 23.6686 86.7907C24.3963 89.135 26.6892 90.5057 28.7853 89.8486C30.8813 89.1915 31.9921 86.7539 31.2638 84.409C30.6598 82.4624 28.9759 81.1875 27.2226 81.1875C26.8641 81.1875 26.5037 81.2401 26.1477 81.3518Z" fill="white"/>
</mask>
<g mask="url(#mask18)">
<path fill-rule="evenodd" clip-rule="evenodd" d="M26.9128 83.9448C26.6111 83.7095 26.1642 83.7774 25.9155 84.0971C25.6669 84.4161 25.7098 84.8658 26.0121 85.1011C26.3138 85.3358 26.7607 85.2679 27.0087 84.9483C27.2574 84.6292 27.2144 84.1795 26.9128 83.9448Z" fill="white"/>
</g>
<mask id="mask19" mask-type="alpha" maskUnits="userSpaceOnUse" x="23" y="81" width="9" height="10">
<path fill-rule="evenodd" clip-rule="evenodd" d="M26.1477 81.3518C24.0517 82.0089 22.9409 84.4458 23.6686 86.7907C24.3963 89.135 26.6892 90.5057 28.7853 89.8486C30.8813 89.1915 31.9921 86.7539 31.2638 84.409C30.6598 82.4624 28.9759 81.1875 27.2226 81.1875C26.8641 81.1875 26.5037 81.2401 26.1477 81.3518Z" fill="white"/>
</mask>
<g mask="url(#mask19)">
<path fill-rule="evenodd" clip-rule="evenodd" d="M29.355 87.4297C29.148 87.4297 28.9795 87.6067 28.9789 87.8242C28.9789 88.0424 29.1468 88.2187 29.3538 88.2181C29.5608 88.2181 29.7293 88.0411 29.7299 87.8229C29.7299 87.6054 29.5621 87.4291 29.355 87.4297Z" fill="white"/>
</g>
<path fill-rule="evenodd" clip-rule="evenodd" d="M26.1186 81.2564C25.4407 81.4518 24.8544 81.8241 24.3968 82.3252C24.092 82.6594 23.8471 83.0527 23.6647 83.4808C23.2412 84.4747 23.1654 85.6659 23.5296 86.833C23.8944 87.9981 24.6341 88.9286 25.5449 89.502C26.525 90.1204 27.7028 90.3259 28.8243 89.9707C29.9433 89.6174 30.7897 88.7732 31.2403 87.7045C31.6575 86.715 31.7339 85.5333 31.371 84.3745C31.0081 83.2182 30.2734 82.2954 29.369 81.7258C28.3977 81.1137 27.2313 80.9101 26.1198 81.2621L26.1186 81.2564ZM26.1754 81.4392C27.2332 81.1113 28.3408 81.3123 29.2604 81.899C30.1213 82.4483 30.8181 83.3344 31.1577 84.4412C31.4972 85.5461 31.4196 86.6701 31.0182 87.6094C30.5909 88.6078 29.7963 89.3968 28.7467 89.7228C27.6996 90.0476 26.6033 89.8484 25.6919 89.2674C24.8374 88.7232 24.1462 87.8441 23.808 86.7455C23.469 85.6495 23.5479 84.5345 23.943 83.5995C24.1109 83.2012 24.3387 82.8378 24.6133 82.5181C25.028 82.0367 25.5518 81.6567 26.1766 81.4443L26.1754 81.4392Z" fill="black"/>
<path fill-rule="evenodd" clip-rule="evenodd" d="M41.8773 80.349C41.7359 80.1251 41.575 79.9075 41.3888 79.7109C41.2651 79.5796 41.1306 79.4585 40.9874 79.35C40.9299 79.3062 40.87 79.2663 40.8088 79.2282C40.716 79.1711 40.6207 79.1198 40.5222 79.0741C40.278 78.9625 40.0179 78.8889 39.7465 78.8597C39.7289 78.8572 39.7131 78.8692 39.7106 78.8864C39.7074 78.9041 39.72 78.92 39.7364 78.9225C39.9952 78.9732 40.2363 79.0684 40.4635 79.1927C40.5538 79.2422 40.6415 79.2967 40.728 79.3544C40.7854 79.3925 40.841 79.4331 40.8965 79.4737C41.036 79.5752 41.1691 79.6862 41.2954 79.8054C41.4879 79.9862 41.6659 80.1815 41.8205 80.3883C41.8312 80.4042 41.8527 80.408 41.8685 80.3972C41.8842 80.3864 41.888 80.3642 41.8773 80.349Z" fill="black"/>
<path fill-rule="evenodd" clip-rule="evenodd" d="M37.8494 79.6502C37.6973 79.8303 37.5654 80.0314 37.4562 80.247C37.3843 80.3885 37.3224 80.5356 37.2694 80.6872C37.2486 80.7468 37.2296 80.8077 37.2126 80.8692C37.1867 80.9612 37.164 81.0538 37.1444 81.1464C37.0946 81.3836 37.0617 81.6209 37.0371 81.8498C37.034 81.867 37.046 81.8834 37.063 81.886C37.08 81.8885 37.0965 81.8771 37.0996 81.8593C37.128 81.7249 37.1615 81.5885 37.1974 81.4496C37.2322 81.3151 37.2707 81.18 37.3123 81.0456C37.3394 80.9574 37.3691 80.8692 37.3988 80.7804C37.4284 80.6929 37.4581 80.6054 37.4909 80.5185C37.5338 80.4024 37.5805 80.2882 37.6323 80.1766C37.7106 80.0066 37.7989 79.843 37.9037 79.692C37.9151 79.6774 37.9125 79.6552 37.898 79.6438C37.8829 79.6324 37.8614 79.6349 37.8494 79.6502Z" fill="black"/>
<path fill-rule="evenodd" clip-rule="evenodd" d="M39.0433 79.3436C40.0645 79.2611 40.9835 79.3569 41.6607 79.4672C42.4238 79.5922 41.9504 80.3489 42.4351 81.8242C42.8687 83.1454 37.2389 79.4888 39.0433 79.3436Z" fill="black"/>
<path fill-rule="evenodd" clip-rule="evenodd" d="M36.5976 77.0793C36.8841 76.8903 37.2294 76.7565 37.6049 76.667C37.9224 76.5903 38.2575 76.5744 38.6021 76.6385C38.835 76.6632 39.0515 76.7432 39.2629 76.8301C39.4895 76.9246 39.7098 77.0254 39.9105 77.1624C40.3706 77.4764 40.7575 77.8633 40.9481 78.299C40.9815 78.4176 41.1052 78.4874 41.2239 78.4532C41.3425 78.4196 41.4107 78.2952 41.3773 78.176C41.3306 77.8125 41.1936 77.444 40.9885 77.0825C40.8597 76.8561 40.6963 76.6493 40.5113 76.4552C40.2791 76.211 40.007 76.0011 39.7009 75.8507C39.3917 75.6985 39.0458 75.6224 38.6924 75.5977C38.202 75.6015 37.7362 75.6947 37.3278 75.9008C36.9075 76.1121 36.5528 76.3962 36.2776 76.7108C36.1766 76.7996 36.1659 76.9544 36.2542 77.0559C36.3426 77.158 36.4966 77.1688 36.5976 77.0793Z" fill="black"/>
<path fill-rule="evenodd" clip-rule="evenodd" d="M39.1589 79.3951C37.605 79.69 36.6829 81.7343 37.1007 83.9568C37.5185 86.1793 39.1197 87.7447 40.673 87.4498C42.2269 87.1548 43.149 85.1112 42.7312 82.888C42.3134 80.6649 40.7121 79.1001 39.1589 79.3951Z" fill="white"/>
<mask id="mask20" mask-type="alpha" maskUnits="userSpaceOnUse" x="37" y="79" width="6" height="9">
<path fill-rule="evenodd" clip-rule="evenodd" d="M39.1589 79.3955C37.605 79.6905 36.6835 81.7347 37.1007 83.9579C37.5185 86.1798 39.1198 87.7452 40.673 87.4508C42.2269 87.1553 43.1484 85.1116 42.7312 82.8885C42.3468 80.8474 40.9652 79.3594 39.5388 79.3594C39.412 79.3594 39.2851 79.3714 39.1589 79.3955Z" fill="white"/>
</mask>
<g mask="url(#mask20)">
<path fill-rule="evenodd" clip-rule="evenodd" d="M38.856 80.7378C37.4644 80.8837 36.6331 82.4288 36.9998 84.1851C37.3672 85.9414 38.7948 87.248 40.1859 87.1015C41.5775 86.955 42.4088 85.4105 42.0421 83.6542C41.6747 81.8979 40.2471 80.5913 38.856 80.7378Z" fill="black"/>
</g>
<mask id="mask21" mask-type="alpha" maskUnits="userSpaceOnUse" x="37" y="79" width="6" height="9">
<path fill-rule="evenodd" clip-rule="evenodd" d="M39.1589 79.3955C37.605 79.6905 36.6835 81.7347 37.1007 83.9579C37.5185 86.1798 39.1198 87.7452 40.673 87.4508C42.2269 87.1553 43.1484 85.1116 42.7312 82.8885C42.3468 80.8474 40.9652 79.3594 39.5388 79.3594C39.412 79.3594 39.2851 79.3714 39.1589 79.3955Z" fill="white"/>
</mask>
<g mask="url(#mask21)">
<path fill-rule="evenodd" clip-rule="evenodd" d="M41.0507 83.9833C41.1176 84.4724 41.0293 84.8624 40.8664 85.1542C40.6998 85.4548 40.4152 85.602 40.1141 85.6064C39.8175 85.6102 39.5076 85.4764 39.2463 85.1732C39.0146 84.9043 38.8057 84.5402 38.6776 84.0436C38.6378 83.8279 38.4308 83.6858 38.2162 83.7264C38.0023 83.767 37.8609 83.9744 37.9013 84.1901C38.0338 85.2531 38.4826 85.9432 38.9944 86.3225C39.3504 86.5864 39.7531 86.6987 40.1349 86.6904C40.4177 86.6841 40.6941 86.6118 40.9365 86.4703C41.6301 86.0669 42.1451 85.1396 41.7791 83.8279C41.7361 83.6262 41.5386 83.4968 41.3379 83.5393C41.1366 83.5825 41.0084 83.7816 41.0507 83.9833Z" fill="#8C181B"/>
</g>
<mask id="mask22" mask-type="alpha" maskUnits="userSpaceOnUse" x="37" y="79" width="6" height="9">
<path fill-rule="evenodd" clip-rule="evenodd" d="M39.1589 79.3955C37.605 79.6905 36.6835 81.7347 37.1007 83.9579C37.5185 86.1798 39.1198 87.7452 40.673 87.4508C42.2269 87.1553 43.1484 85.1116 42.7312 82.8885C42.3468 80.8474 40.9652 79.3594 39.5388 79.3594C39.412 79.3594 39.2851 79.3714 39.1589 79.3955Z" fill="white"/>
</mask>
<g mask="url(#mask22)">
<path fill-rule="evenodd" clip-rule="evenodd" d="M37.976 82.104C37.7021 82.3571 37.6737 82.7573 37.9135 82.9971C38.1534 83.2368 38.5706 83.226 38.8445 82.9717C39.119 82.7186 39.1462 82.3184 38.907 82.0786C38.6671 81.8389 38.2506 81.8509 37.976 82.104Z" fill="white"/>
</g>
<mask id="mask23" mask-type="alpha" maskUnits="userSpaceOnUse" x="37" y="79" width="6" height="9">
<path fill-rule="evenodd" clip-rule="evenodd" d="M39.1589 79.3955C37.605 79.6905 36.6835 81.7347 37.1007 83.9579C37.5185 86.1798 39.1198 87.7452 40.673 87.4508C42.2269 87.1553 43.1484 85.1116 42.7312 82.8885C42.3468 80.8474 40.9652 79.3594 39.5388 79.3594C39.412 79.3594 39.2851 79.3714 39.1589 79.3955Z" fill="white"/>
</mask>
<g mask="url(#mask23)">
<path fill-rule="evenodd" clip-rule="evenodd" d="M40.8859 85.6082C40.742 85.7915 40.766 86.0509 40.9377 86.1867C41.11 86.323 41.3662 86.2843 41.5095 86.1017C41.6528 85.9184 41.6294 85.6589 41.4577 85.5232C41.2854 85.3868 41.0292 85.4249 40.8859 85.6082Z" fill="white"/>
</g>
<path fill-rule="evenodd" clip-rule="evenodd" d="M39.1452 79.3232C38.4175 79.457 37.8205 79.9619 37.426 80.6894C36.9564 81.5552 36.774 82.7369 37.0006 83.9763C37.2278 85.2195 37.8198 86.2622 38.5671 86.906C39.2046 87.4546 39.9556 87.7141 40.6966 87.5777C41.4401 87.4394 42.051 86.9244 42.4531 86.181C42.9252 85.3063 43.1069 84.1114 42.8753 82.8606C42.7636 82.2751 42.5755 81.7341 42.3237 81.2603C42.0378 80.7218 41.6749 80.2696 41.2678 79.9347C40.6246 79.405 39.8742 79.1646 39.1446 79.32L39.1452 79.3232ZM39.1724 79.4698C39.8527 79.3563 40.53 79.6157 41.1068 80.125C41.4786 80.4529 41.8074 80.8855 42.0687 81.3948C42.3016 81.8471 42.4834 82.3596 42.5862 82.9152C42.8116 84.0937 42.65 85.2214 42.2095 86.0491C41.8541 86.7196 41.3151 87.1927 40.6493 87.3221C39.8275 87.482 38.9931 87.0881 38.3405 86.3504C37.8028 85.7441 37.3881 84.9049 37.2013 83.9376C36.9709 82.7471 37.1319 81.6079 37.5749 80.7701C37.9378 80.0831 38.4901 79.6004 39.1724 79.4672V79.4698Z" fill="black"/>
<path fill-rule="evenodd" clip-rule="evenodd" d="M37.0302 99.691C33.5582 100.718 30.6695 97.6029 30.1381 91.5627C30.3817 91.5005 30.4517 91.4929 30.6973 91.4384C33.1941 92.7012 36.6212 92.542 39.4614 90.9297C38.5247 92.3378 36.9513 94.7055 37.0302 99.691Z" fill="black"/>
<mask id="mask24" mask-type="alpha" maskUnits="userSpaceOnUse" x="30" y="90" width="10" height="10">
<path fill-rule="evenodd" clip-rule="evenodd" d="M30.697 91.4338C30.4521 91.489 30.3821 91.496 30.1378 91.5582C30.6699 97.5984 33.5586 100.715 37.0299 99.687C36.9511 94.701 38.5245 92.3339 39.4611 90.9258C36.621 92.5381 33.1945 92.6973 30.697 91.4338Z" fill="white"/>
</mask>
<g mask="url(#mask24)">
<path fill-rule="evenodd" clip-rule="evenodd" d="M34.3833 95.9397C32.3674 94.1929 30.0422 93.577 29.194 94.5652C28.3463 95.554 29.2943 97.7746 31.3102 99.5208C33.3261 101.268 35.6512 101.883 36.4995 100.895C37.3471 99.9077 36.3991 97.6871 34.3833 95.9397Z" fill="#F48EAA"/>
</g>
<mask id="mask25" mask-type="alpha" maskUnits="userSpaceOnUse" x="30" y="90" width="10" height="10">
<path fill-rule="evenodd" clip-rule="evenodd" d="M30.697 91.4338C30.4521 91.489 30.3821 91.496 30.1378 91.5582C30.6699 97.5984 33.5586 100.715 37.0299 99.687C36.9511 94.701 38.5245 92.3339 39.4611 90.9258C36.621 92.5381 33.1945 92.6973 30.697 91.4338Z" fill="white"/>
</mask>
<g mask="url(#mask25)">
<path fill-rule="evenodd" clip-rule="evenodd" d="M37.9126 89.8869C37.7232 90.8466 37.3666 91.3578 36.9122 91.6476C36.709 91.7777 36.4767 91.8189 36.2369 91.8639C35.8127 91.9438 35.3533 91.9356 34.8881 91.9305C34.4678 91.9553 34.0159 91.9299 33.5545 91.909C32.8703 91.8779 32.1735 91.8386 31.5222 91.7142C30.6922 91.5544 29.9506 91.3546 29.4729 90.9614C29.3283 90.8072 29.0866 90.7996 28.9326 90.9449C28.7792 91.0901 28.7717 91.333 28.9162 91.4878C29.4577 92.2356 30.5029 92.8661 31.7261 93.298C32.3421 93.5156 32.9985 93.6678 33.6454 93.7427C34.1023 93.7953 34.5542 93.7851 34.9765 93.7661C36.0469 93.6329 37.1053 93.4775 37.8154 92.7849C38.3834 92.2305 38.8056 91.3882 38.7432 89.9503C38.7608 89.7201 38.5885 89.519 38.3594 89.5013C38.1303 89.4835 37.9296 89.6567 37.9126 89.8869Z" fill="white"/>
</g>
<path fill-rule="evenodd" clip-rule="evenodd" d="M40.4368 90.144C40.197 89.9721 39.9906 89.7762 39.8196 89.5529C39.6201 89.2922 39.4687 88.9947 39.3677 88.6535C39.3532 88.6072 39.379 88.5577 39.4257 88.5431C39.4724 88.5285 39.5217 88.5545 39.5362 88.6015C39.6372 88.9167 39.7836 89.1913 39.9748 89.4305C40.1661 89.6702 40.4015 89.8738 40.6792 90.0483C40.7082 90.0673 40.7265 90.0996 40.7284 90.1339C40.7303 90.1694 40.7145 90.203 40.6874 90.2246C39.1985 91.4126 37.497 92.0963 35.8276 92.3374C33.9379 92.6107 32.0924 92.3177 30.6471 91.5851C30.5632 91.6175 30.4811 91.6466 30.401 91.6707C30.3745 91.6784 30.3492 91.6853 30.324 91.6917C30.524 93.1803 30.6919 94.3284 31.0504 95.3971C31.3111 96.1728 31.6715 96.9073 32.2206 97.7021C32.8751 98.6529 33.7252 99.2694 34.6151 99.5732C35.0134 99.7096 35.4192 99.7838 35.8219 99.7977C36.448 99.8174 37.0646 99.6931 37.6226 99.4121C37.656 99.3943 37.6983 99.407 37.7166 99.4406C37.7349 99.4749 37.7223 99.5174 37.6882 99.5358C37.0249 99.9163 36.2637 100.089 35.4912 100.033C35.1687 100.01 34.8455 99.9455 34.5268 99.8421C33.5782 99.5351 32.675 98.878 31.975 97.874C31.4058 97.0545 31.0309 96.2965 30.7601 95.4961C30.382 94.3766 30.2097 93.1714 29.9964 91.5876C29.9844 91.5027 30.0444 91.424 30.1296 91.412C30.1889 91.4037 30.2501 91.3898 30.3126 91.3714C30.406 91.3435 30.5026 91.3073 30.5998 91.2692C30.6414 91.2534 30.6881 91.2559 30.7279 91.2762C32.129 92.0107 33.9341 92.298 35.7872 92.0475C37.3739 91.8325 38.9978 91.2255 40.4368 90.144Z" fill="black"/>
<path d="M39.4612 90.9258C38.4173 92.3275 37.0149 95.1869 37.0294 99.6407" stroke="black" stroke-width="0.481" stroke-linecap="round" stroke-linejoin="round"/>
<path fill-rule="evenodd" clip-rule="evenodd" d="M31.538 90.5613C31.3713 90.7707 31.1769 90.9324 30.9693 91.065C30.8279 91.1557 30.6796 91.2267 30.5256 91.2876C30.3716 91.3485 30.2138 91.3992 30.0491 91.4322C29.8042 91.4798 29.5498 91.4995 29.286 91.4753C29.2418 91.469 29.2002 91.4995 29.1933 91.5439C29.1863 91.5883 29.2166 91.6307 29.2608 91.6371C29.541 91.7005 29.8181 91.7227 30.087 91.6973C30.2769 91.6796 30.4619 91.639 30.6361 91.5711C30.8121 91.502 30.9762 91.4056 31.1258 91.2876C31.3385 91.1189 31.5184 90.9045 31.6667 90.6508C31.6913 90.6146 31.6825 90.5658 31.6465 90.5411C31.6112 90.5169 31.5626 90.5252 31.538 90.5613Z" fill="black"/>
<path fill-rule="evenodd" clip-rule="evenodd" d="M20.8944 80.677C24.6182 81.1971 29.2874 78.1691 32.6508 76.8574C35.7781 75.6383 38.8771 75.2977 40.797 75.7176C37.1225 72.1511 22.5903 76.5498 20.8944 80.677Z" fill="white"/>
<mask id="mask26" mask-type="alpha" maskUnits="userSpaceOnUse" x="20" y="74" width="21" height="7">
<path fill-rule="evenodd" clip-rule="evenodd" d="M20.894 80.6774C24.6178 81.1975 29.2877 78.1688 32.6504 76.8571C35.7784 75.638 38.8767 75.2974 40.7966 75.7179C39.8474 74.7963 38.1723 74.4063 36.1823 74.4063C30.4692 74.405 22.1519 77.6157 20.894 80.6774Z" fill="white"/>
</mask>
<g mask="url(#mask26)">
<path fill-rule="evenodd" clip-rule="evenodd" d="M35.2778 74.8313C36.5805 74.9239 37.875 75.3698 39.025 75.9844C40.1011 76.5603 41.7073 75.7034 42.9021 75.9958C41.3558 75.1598 37.1965 74.5059 35.2778 74.8313Z" fill="#BDBDBC"/>
</g>
<path fill-rule="evenodd" clip-rule="evenodd" d="M20.8944 80.677C24.6182 81.1971 29.2874 78.1691 32.6508 76.8574C35.7781 75.6383 38.8771 75.2977 40.797 75.7176C37.1225 72.1511 22.5903 76.5498 20.8944 80.677Z" stroke="black" stroke-width="0.481" stroke-linecap="round" stroke-linejoin="round"/>
<path fill-rule="evenodd" clip-rule="evenodd" d="M16.2015 89.7528C14.8635 80.5494 33.7613 71.7723 40.7973 75.7188C37.6132 69.9684 26.9531 66.601 19.1205 73.7538C12.8552 79.4762 14.748 87.0362 16.2015 89.7528Z" fill="white"/>
<mask id="mask27" mask-type="alpha" maskUnits="userSpaceOnUse" x="14" y="69" width="27" height="21">
<path fill-rule="evenodd" clip-rule="evenodd" d="M19.1205 73.7542C12.8552 79.476 14.748 87.0359 16.2015 89.7525C14.8635 80.5492 33.7613 71.7727 40.7967 75.7191C38.895 72.2839 34.3255 69.6999 29.2845 69.6992C25.8864 69.6992 22.2744 70.8733 19.1205 73.7542Z" fill="white"/>
</mask>
<g mask="url(#mask27)">
<path fill-rule="evenodd" clip-rule="evenodd" d="M26.8574 75.3158C25.5913 75.8606 24.2602 76.6116 22.9651 77.4926C22.5738 76.0465 22.2103 74.6898 21.8713 73.4155C23.044 72.6601 24.2419 72.0556 25.4632 71.5977C25.9195 72.7882 26.3373 73.9743 26.8574 75.3158Z" fill="#700D20"/>
</g>
<mask id="mask28" mask-type="alpha" maskUnits="userSpaceOnUse" x="14" y="69" width="27" height="21">
<path fill-rule="evenodd" clip-rule="evenodd" d="M19.1205 73.7542C12.8552 79.476 14.748 87.0359 16.2015 89.7525C14.8635 80.5492 33.7613 71.7727 40.7967 75.7191C38.895 72.2839 34.3255 69.6999 29.2845 69.6992C25.8864 69.6992 22.2744 70.8733 19.1205 73.7542Z" fill="white"/>
</mask>
<g mask="url(#mask28)">
<path fill-rule="evenodd" clip-rule="evenodd" d="M29.1061 73.2534C29.007 73.4183 28.8505 73.5274 28.6548 73.5705C28.1814 73.6739 27.6551 73.3574 27.4487 72.8423C27.248 72.3419 27.448 71.8598 27.9113 71.7527C28.1025 71.7083 28.3108 71.7349 28.5134 71.8294C28.5166 71.8307 28.5204 71.8319 28.5242 71.8338C28.5911 71.6861 28.658 71.5402 28.7249 71.3956C28.7211 71.3937 28.7167 71.3918 28.7122 71.3898C28.3771 71.2192 28.0142 71.1666 27.6955 71.2414C26.9494 71.4171 26.6036 72.2131 26.9116 72.9914C27.2341 73.8071 28.1139 74.3189 28.8852 74.1515C29.2171 74.0786 29.486 73.8813 29.64 73.5927L29.6451 73.5832C29.4665 73.4684 29.2885 73.3561 29.1111 73.2451C29.1092 73.2483 29.1073 73.2508 29.1061 73.2534ZM30.2731 73.8015C30.4517 73.7742 30.6309 73.7501 30.8102 73.7279C30.405 72.7695 30.0061 71.8504 29.6129 70.972C29.44 70.9948 29.2676 71.0202 29.096 71.0468C29.4822 71.9234 29.8748 72.8431 30.2731 73.8015ZM32.4871 72.5418C32.4619 72.5019 30.7679 70.8477 30.7584 70.8528C30.5874 70.8642 30.417 70.8781 30.2472 70.8946C30.648 71.775 31.0557 72.6941 31.4691 73.6512C31.6496 73.6347 31.8307 73.6208 32.0125 73.6093C31.7594 73.0321 31.5076 72.4695 31.2589 71.919C31.3403 71.985 32.9782 73.5941 32.9687 73.5954C32.9655 73.5916 33.1057 71.9602 33.1151 71.8943C33.3783 72.4448 33.6428 73.0055 33.9097 73.5795C34.0959 73.5852 34.2827 73.5941 34.4702 73.6055C34.0208 72.6567 33.5765 71.7382 33.1391 70.8515C32.9624 70.8394 32.7863 70.8306 32.6108 70.8242C32.6083 70.8204 32.4871 72.5006 32.4871 72.5418ZM36.0058 73.28C35.819 73.2515 35.6321 73.2255 35.4472 73.2026C35.338 72.9806 35.2288 72.7605 35.1196 72.5417C35.3039 72.5652 35.4889 72.5918 35.6744 72.621C35.9357 72.6616 36.1143 72.8474 36.1939 73.0047C36.2746 73.1652 36.2683 73.3206 36.0058 73.28ZM34.5724 71.4504C34.7429 71.4726 34.9139 71.4973 35.0856 71.5246C35.3014 71.5595 35.4876 71.6927 35.5823 71.8766C35.6776 72.0618 35.6037 72.1493 35.386 72.1151C35.2131 72.0878 35.0414 72.0631 34.8697 72.0415C34.7706 71.843 34.6715 71.6464 34.5724 71.4504ZM36.0941 72.4513C36.1856 72.4075 36.298 72.2642 36.1415 71.9629C35.9023 71.5037 35.4156 71.1434 34.883 71.0559C34.5125 70.9956 34.1445 70.9474 33.7803 70.9106C34.2259 71.798 34.6772 72.7158 35.1335 73.6621C35.5261 73.6989 35.9218 73.7471 36.3201 73.808C36.8622 73.8905 37.044 73.6463 36.7852 73.1401C36.5946 72.7684 36.2803 72.5515 36.0941 72.4513Z" fill="#781214"/>
</g>
<mask id="mask29" mask-type="alpha" maskUnits="userSpaceOnUse" x="14" y="69" width="27" height="21">
<path fill-rule="evenodd" clip-rule="evenodd" d="M19.1205 73.7542C12.8552 79.476 14.748 87.0359 16.2015 89.7525C14.8635 80.5492 33.7613 71.7727 40.7967 75.7191C38.895 72.2839 34.3255 69.6999 29.2845 69.6992C25.8864 69.6992 22.2744 70.8733 19.1205 73.7542Z" fill="white"/>
</mask>
<g mask="url(#mask29)">
<path fill-rule="evenodd" clip-rule="evenodd" d="M22.2913 73.8332C22.9287 73.4431 23.5725 73.0962 24.2232 72.793C24.6852 73.0327 25.1598 73.2871 25.6458 73.556C25.4735 74.144 25.2993 74.7573 25.1226 75.398C24.4271 75.7297 23.7378 76.1115 23.0568 76.5435C23.2178 75.8553 23.3762 75.1944 23.5327 74.5607C23.1086 74.3064 22.6952 74.0641 22.2913 73.8332Z" fill="#EF3737"/>
</g>
<mask id="mask30" mask-type="alpha" maskUnits="userSpaceOnUse" x="14" y="69" width="27" height="21">
<path fill-rule="evenodd" clip-rule="evenodd" d="M19.1205 73.7542C12.8552 79.476 14.748 87.0359 16.2015 89.7525C14.8635 80.5492 33.7613 71.7727 40.7967 75.7191C38.895 72.2839 34.3255 69.6999 29.2845 69.6992C25.8864 69.6992 22.2744 70.8733 19.1205 73.7542Z" fill="white"/>
</mask>
<g mask="url(#mask30)">
<path fill-rule="evenodd" clip-rule="evenodd" d="M25.6462 73.556C25.1596 73.2864 24.6856 73.0327 24.2236 72.793C23.5729 73.0955 22.9285 73.4425 22.2916 73.8332C22.6949 74.0641 23.1083 74.3064 23.5325 74.5601" fill="white"/>
</g>
<mask id="mask31" mask-type="alpha" maskUnits="userSpaceOnUse" x="29" y="69" width="12" height="7">
<path fill-rule="evenodd" clip-rule="evenodd" d="M29.3735 69.6992L29.5494 69.701C34.485 69.7901 38.9284 72.3435 40.7967 75.7185L40.7733 75.6773H40.719L40.5821 75.6039C38.1439 74.3652 34.4073 74.5439 30.5834 75.6762L29.3735 75.6773" fill="white"/>
</mask>
<g mask="url(#mask31)">
<path fill-rule="evenodd" clip-rule="evenodd" d="M34.9941 70.3662C36.5774 70.713 38.4112 72.7741 38.966 75.5003C39.9717 75.525 40.8453 75.6836 41.7544 76.4C41.5564 74.4797 41.1239 73.1573 40.2033 71.9268C39.0582 70.3965 38.0891 70.0478 36.6603 70.0102C36.145 69.9966 35.4758 69.9392 34.9941 70.3662Z" fill="#BDBDBC"/>
</g>
<mask id="mask32" mask-type="alpha" maskUnits="userSpaceOnUse" x="14" y="69" width="27" height="21">
<path fill-rule="evenodd" clip-rule="evenodd" d="M19.1205 73.7542C12.8552 79.476 14.748 87.0359 16.2015 89.7525C14.8635 80.5492 33.7613 71.7727 40.7967 75.7191C38.895 72.2839 34.3255 69.6999 29.2845 69.6992C25.8864 69.6992 22.2744 70.8733 19.1205 73.7542Z" fill="white"/>
</mask>
<g mask="url(#mask32)">
<path fill-rule="evenodd" clip-rule="evenodd" d="M17.9478 88.5991C17.061 84.378 18.2923 75.9991 20.2806 73.3991C21.076 72.5991 21.7887 71.6395 22.6666 71.3991C21.3475 71.3598 20.3055 73.1325 19.1871 73.7826C18.212 74.3484 16.919 76.5486 16.1636 77.3991C13.5222 80.3733 14.6539 85.5552 16.1636 89.4034C16.8004 89.1788 17.3034 88.8071 17.9478 88.5991Z" fill="#BDBDBC"/>
</g>
<path fill-rule="evenodd" clip-rule="evenodd" d="M16.2015 89.7528C14.8635 80.5494 33.7613 71.7723 40.7973 75.7188C37.6132 69.9684 26.9531 66.601 19.1205 73.7538C12.8552 79.4762 14.748 87.0362 16.2015 89.7528Z" stroke="black" stroke-width="0.481" stroke-linecap="round" stroke-linejoin="round"/>
<path fill-rule="evenodd" clip-rule="evenodd" d="M22.4762 79.521C21.7895 77.6429 21.498 75.6297 21.7731 73.9767C21.8811 73.3291 22.0792 72.7399 22.3696 72.2312C22.5551 71.9058 22.7767 71.6134 23.0436 71.3623C23.221 71.1948 23.4154 71.0438 23.6319 70.9151C23.6704 70.8935 23.6849 70.8453 23.6641 70.8073C23.6432 70.7686 23.5953 70.7546 23.5568 70.7749C23.1345 70.9842 22.7748 71.2652 22.4775 71.609C22.3494 71.7574 22.2339 71.9179 22.1297 72.0872C21.8072 72.6162 21.5964 73.2429 21.4784 73.9266C21.1868 75.624 21.4872 77.6949 22.191 79.6262C22.22 79.7049 22.3071 79.7455 22.3853 79.7169C22.4642 79.6878 22.5046 79.5996 22.4762 79.521Z" fill="black"/>
<path fill-rule="evenodd" clip-rule="evenodd" d="M38.5645 113.944C38.401 113.203 38.4123 112.438 38.5443 111.685C38.7027 110.786 39.0542 109.916 39.462 109.103C39.503 109.02 39.544 108.938 39.5825 108.855C39.6412 108.725 39.6911 108.597 39.7498 108.47C39.77 108.437 39.7605 108.394 39.7277 108.374C39.6955 108.354 39.6532 108.363 39.6324 108.396C39.5806 108.456 39.5301 108.514 39.4809 108.578C39.4083 108.671 39.3395 108.767 39.2758 108.868C39.1514 109.067 39.0492 109.281 38.9469 109.495C38.7096 109.993 38.5165 110.518 38.3776 111.051C38.1245 112.026 38.0602 113.037 38.2741 114.009C38.2918 114.089 38.3713 114.141 38.4515 114.122C38.5316 114.105 38.5821 114.025 38.5645 113.944Z" fill="black"/>
<mask id="mask33" mask-type="alpha" maskUnits="userSpaceOnUse" x="30" y="95" width="17" height="20">
<path fill-rule="evenodd" clip-rule="evenodd" d="M30.4919 114.764H46.318V95.9375H30.4919M32.4169 111.373C32.0357 110.649 32.0004 109.642 32.1538 108.858C32.4321 107.431 34.2081 104.099 35.6522 103.37L35.8087 103.52C35.1978 104.853 34.6859 106.161 34.6701 107.652C34.6512 109.44 35.1353 111.218 34.838 113.005C33.9166 112.64 32.9092 112.306 32.4169 111.373Z" fill="white"/>
</mask>
<g mask="url(#mask33)">
<path fill-rule="evenodd" clip-rule="evenodd" d="M44.6564 99.1585C44.7334 98.9955 44.722 98.8046 44.6267 98.653C44.5308 98.5014 44.3648 98.4088 44.1856 98.4088C42.8911 98.4082 40.3924 98.4069 39.0556 98.4062C38.509 98.4062 38.011 98.7228 37.7762 99.2188C36.738 101.413 33.8909 107.431 32.9391 109.443C32.871 109.587 32.8811 109.757 32.9656 109.892C33.0508 110.027 33.1985 110.109 33.3576 110.109C34.6016 110.109 37.1255 110.11 38.5109 110.111C39.0998 110.111 39.6356 109.77 39.8887 109.237C40.9358 107.023 43.6768 101.229 44.6564 99.1585Z" fill="#F79120"/>
</g>
<mask id="mask34" mask-type="alpha" maskUnits="userSpaceOnUse" x="30" y="95" width="17" height="20">
<path fill-rule="evenodd" clip-rule="evenodd" d="M30.4919 114.764H46.318V95.9375H30.4919V114.764ZM32.4169 111.373C32.0357 110.649 32.0004 109.642 32.1538 108.858C32.4321 107.431 34.2081 104.099 35.6522 103.37L35.8087 103.52C35.1978 104.853 34.6859 106.161 34.6701 107.652C34.6512 109.44 35.1353 111.218 34.838 113.005C33.9166 112.64 32.9092 112.306 32.4169 111.373Z" fill="white"/>
</mask>
<g mask="url(#mask34)">
<path fill-rule="evenodd" clip-rule="evenodd" d="M44.6564 99.1585C44.7334 98.9955 44.722 98.8046 44.6267 98.653C44.5308 98.5014 44.3648 98.4088 44.1856 98.4088C42.8911 98.4082 40.3924 98.4069 39.0556 98.4062C38.509 98.4062 38.011 98.7228 37.7762 99.2188C36.738 101.413 33.8909 107.431 32.9391 109.443C32.871 109.587 32.8811 109.757 32.9656 109.892C33.0508 110.027 33.1985 110.109 33.3576 110.109C34.6016 110.109 37.1255 110.11 38.5109 110.111C39.0998 110.111 39.6356 109.77 39.8887 109.237C40.9358 107.023 43.6768 101.229 44.6564 99.1585Z" stroke="black" stroke-width="0.478" stroke-linecap="round" stroke-linejoin="round"/>
</g>
<mask id="mask35" mask-type="alpha" maskUnits="userSpaceOnUse" x="30" y="95" width="17" height="20">
<path fill-rule="evenodd" clip-rule="evenodd" d="M30.4919 114.764H46.318V95.9375H30.4919M32.4169 111.373C32.0357 110.649 32.0004 109.642 32.1538 108.858C32.4321 107.431 34.2081 104.099 35.6522 103.37L35.8087 103.52C35.1978 104.853 34.6859 106.161 34.6701 107.652C34.6512 109.44 35.1353 111.218 34.838 113.005C33.9166 112.64 32.9092 112.306 32.4169 111.373Z" fill="white"/>
</mask>
<g mask="url(#mask35)">
<path d="M34.551 106.812C34.551 106.812 37.1829 101.264 38.0854 99.3636C38.2679 98.9779 38.6541 98.7337 39.0782 98.7344C40.6321 98.7369 44.2524 98.7414 44.2524 98.7414" stroke="#FCBC7B" stroke-width="0.508" stroke-linecap="round" stroke-linejoin="round"/>
</g>
<mask id="mask36" mask-type="alpha" maskUnits="userSpaceOnUse" x="30" y="95" width="17" height="20">
<path fill-rule="evenodd" clip-rule="evenodd" d="M30.4919 114.764H46.318V95.9375H30.4919M32.4169 111.373C32.0357 110.649 32.0004 109.642 32.1538 108.858C32.4321 107.431 34.2081 104.099 35.6522 103.37L35.8087 103.52C35.1978 104.853 34.6859 106.161 34.6701 107.652C34.6512 109.44 35.1353 111.218 34.838 113.005C33.9166 112.64 32.9092 112.306 32.4169 111.373Z" fill="white"/>
</mask>
<g mask="url(#mask36)">
<path d="M37.4047 100.006C37.5877 100.441 38.0478 100.588 38.8178 100.581C39.5878 100.574 44.0084 100.531 44.0084 100.531" stroke="black" stroke-width="0.478" stroke-linecap="round" stroke-linejoin="round"/>
</g>
<mask id="mask37" mask-type="alpha" maskUnits="userSpaceOnUse" x="30" y="95" width="17" height="20">
<path fill-rule="evenodd" clip-rule="evenodd" d="M30.4919 114.764H46.318V95.9375H30.4919M32.4169 111.373C32.0357 110.649 32.0004 109.642 32.1538 108.858C32.4321 107.431 34.2081 104.099 35.6522 103.37L35.8087 103.52C35.1978 104.853 34.6859 106.161 34.6701 107.652C34.6512 109.44 35.1353 111.218 34.838 113.005C33.9166 112.64 32.9092 112.306 32.4169 111.373Z" fill="white"/>
</mask>
<g mask="url(#mask37)">
<path fill-rule="evenodd" clip-rule="evenodd" d="M40.532 99.5495C40.5415 99.462 40.5131 99.3751 40.4544 99.3098C40.3963 99.2445 40.313 99.207 40.2253 99.207H39.4003C39.2426 99.207 39.1107 99.3256 39.0936 99.4836C39.093 99.4912 39.0917 99.4994 39.0911 99.5077C39.0823 99.5946 39.11 99.6815 39.1687 99.7474C39.2268 99.8128 39.3101 99.8502 39.3978 99.8502H40.2227C40.3805 99.8502 40.5124 99.7303 40.5295 99.573C40.5301 99.5648 40.5314 99.5578 40.532 99.5495Z" fill="#231F20"/>
</g>
<mask id="mask38" mask-type="alpha" maskUnits="userSpaceOnUse" x="30" y="95" width="17" height="20">
<path fill-rule="evenodd" clip-rule="evenodd" d="M30.4919 114.764H46.318V95.9375H30.4919V114.764ZM32.4169 111.373C32.0357 110.649 32.0004 109.642 32.1538 108.858C32.4321 107.431 34.2081 104.099 35.6522 103.37L35.8087 103.52C35.1978 104.853 34.6859 106.161 34.6701 107.652C34.6512 109.44 35.1353 111.218 34.838 113.005C33.9166 112.64 32.9092 112.306 32.4169 111.373Z" fill="white"/>
</mask>
<g mask="url(#mask38)">
<path fill-rule="evenodd" clip-rule="evenodd" d="M40.532 99.5495C40.5415 99.462 40.5131 99.3751 40.4544 99.3098C40.3963 99.2445 40.313 99.207 40.2253 99.207H39.4003C39.2426 99.207 39.1107 99.3256 39.0936 99.4836C39.093 99.4912 39.0917 99.4994 39.0911 99.5077C39.0823 99.5946 39.11 99.6815 39.1687 99.7474C39.2268 99.8128 39.3101 99.8502 39.3978 99.8502H40.2227C40.3805 99.8502 40.5124 99.7303 40.5295 99.573C40.5301 99.5648 40.5314 99.5578 40.532 99.5495Z" stroke="black" stroke-width="0.478" stroke-linecap="round" stroke-linejoin="round"/>
</g>
<path fill-rule="evenodd" clip-rule="evenodd" d="M36.8533 100.817C36.397 100.688 35.7987 100.848 35.1688 101.243C34.4569 101.69 33.7109 102.442 33.0797 103.46C32.5861 104.256 32.2592 104.987 32.02 105.688C31.3674 107.599 31.3636 109.275 30.4863 111.339C30.196 112.021 29.893 112.839 29.1628 113.419C28.8668 113.654 28.5033 113.857 28.0387 113.983C27.8172 114.043 27.5729 114.084 27.3034 114.106C27.1476 114.118 26.9835 114.122 26.8105 114.12C26.755 114.122 26.7076 114.077 26.7057 114.02C26.7039 113.964 26.748 113.917 26.8042 113.915C26.9702 113.902 27.1261 113.881 27.2744 113.858C27.5262 113.819 27.7528 113.766 27.9592 113.702C28.3783 113.576 28.7128 113.403 28.981 113.189C29.6677 112.642 29.941 111.864 30.2137 111.221C31.0859 109.165 31.0865 107.495 31.7354 105.589C31.9809 104.871 32.3166 104.118 32.8235 103.299C33.4824 102.235 34.2637 101.451 35.0085 100.985C35.8145 100.479 36.5832 100.346 37.1247 100.593C37.162 100.61 37.1904 100.641 37.2049 100.679C37.2181 100.718 37.2162 100.76 37.1986 100.797C36.895 101.439 36.6665 101.869 36.3976 102.435C36.2506 102.743 36.0915 103.092 35.9022 103.538C35.2654 105.034 34.9832 106.217 34.8791 107.246C34.662 109.393 35.2073 110.875 34.9334 113.101C34.9233 113.185 34.8475 113.245 34.7642 113.234C34.6816 113.224 34.6222 113.147 34.6323 113.064C34.9056 110.841 34.3603 109.36 34.5774 107.215C34.6841 106.162 34.9713 104.951 35.6232 103.418C35.8151 102.968 35.9754 102.615 36.1237 102.304C36.3711 101.783 36.5851 101.378 36.8533 100.817Z" fill="black"/>
</svg>
