<svg xmlns="http://www.w3.org/2000/svg" width="12" height="16" fill="none">
  <path fill="#575A5C" d="M3.6 4a.6.6 0 0 0 0 1.2h1.8a.6.6 0 0 0 0-1.2H3.6ZM3 7a.6.6 0 0 1 .6-.6h4.8a.6.6 0 0 1 0 1.2H3.6A.6.6 0 0 1 3 7Z"/>
  <path fill="#575A5C" fill-rule="evenodd" d="M4.428 11.941c.162-.137.242-.334.242-.592 0-.249-.075-.436-.227-.561-.152-.125-.373-.188-.664-.188h-.767V13h.51v-.854h.218c.297 0 .527-.068.688-.205Zm-.74-.212h-.167v-.712h.232c.139 0 .24.028.306.085.065.057.098.145.098.265 0 .118-.04.208-.117.27-.078.061-.195.092-.351.092ZM6.777 12.685c.225-.21.338-.513.338-.908 0-.371-.109-.66-.325-.867-.217-.207-.521-.31-.913-.31h-.754V13h.68c.425 0 .75-.105.974-.315Zm-.874-1.668c.455 0 .683.258.683.773 0 .527-.245.79-.735.79h-.219v-1.563h.271Z" clip-rule="evenodd"/>
  <path fill="#575A5C" d="M7.612 13h.5v-.949h.815v-.415h-.814v-.619h.875V10.6H7.612V13Z"/>
  <path fill="#575A5C" fill-rule="evenodd" d="M12 1.2A1.2 1.2 0 0 0 10.8 0H1.2A1.2 1.2 0 0 0 0 1.2v13.6A1.2 1.2 0 0 0 1.2 16h9.6a1.2 1.2 0 0 0 1.2-1.2V1.2Zm-10.8 0h9.6v13.6H1.2V1.2Z" clip-rule="evenodd"/>
</svg>