<svg width="121" height="41" viewBox="0 0 121 41" fill="none" xmlns="http://www.w3.org/2000/svg">
<path d="M42.1094 30.1816H42.9199C43.4635 30.1816 43.8574 30.0807 44.1016 29.8789C44.3457 29.6771 44.4678 29.3776 44.4678 28.9805C44.4678 28.5768 44.3359 28.2871 44.0723 28.1113C43.8086 27.9355 43.4115 27.8477 42.8809 27.8477H42.1094V30.1816ZM42.1094 31.1484V34H40.9424V26.8613H42.959C43.8802 26.8613 44.5622 27.0339 45.0049 27.3789C45.4476 27.724 45.6689 28.2448 45.6689 28.9414C45.6689 29.8301 45.2067 30.4632 44.2822 30.8408L46.2988 34H44.9707L43.2617 31.1484H42.1094ZM49.9752 34.0977C49.1354 34.0977 48.4778 33.8535 48.0025 33.3652C47.5305 32.8737 47.2945 32.1982 47.2945 31.3389C47.2945 30.4567 47.5143 29.7633 47.9537 29.2588C48.3932 28.7542 48.997 28.502 49.7652 28.502C50.4781 28.502 51.0413 28.7184 51.4547 29.1514C51.8681 29.5843 52.0748 30.18 52.0748 30.9385V31.5586H48.4762C48.4924 32.0827 48.634 32.4863 48.901 32.7695C49.1679 33.0495 49.5439 33.1895 50.0289 33.1895C50.3479 33.1895 50.6441 33.1602 50.9176 33.1016C51.1943 33.0397 51.4905 32.9388 51.8063 32.7988V33.7314C51.5263 33.8649 51.2431 33.9593 50.9566 34.0146C50.6702 34.07 50.343 34.0977 49.9752 34.0977ZM49.7652 29.3711C49.4007 29.3711 49.1077 29.4867 48.8863 29.7178C48.6682 29.9489 48.538 30.2858 48.4957 30.7285H50.9469C50.9404 30.2826 50.8329 29.9456 50.6246 29.7178C50.4163 29.4867 50.1298 29.3711 49.7652 29.3711ZM55.9563 34.0977C55.1392 34.0977 54.5174 33.86 54.091 33.3848C53.6678 32.9062 53.4563 32.221 53.4563 31.3291C53.4563 30.4209 53.6776 29.7227 54.1203 29.2344C54.5663 28.7461 55.2092 28.502 56.049 28.502C56.6187 28.502 57.1314 28.6077 57.5871 28.8193L57.2404 29.7422C56.7554 29.5534 56.355 29.459 56.0393 29.459C55.105 29.459 54.6379 30.0791 54.6379 31.3193C54.6379 31.9248 54.7535 32.3805 54.9846 32.6865C55.2189 32.9893 55.5607 33.1406 56.01 33.1406C56.521 33.1406 57.0044 33.0137 57.4602 32.7598V33.7607C57.2551 33.8812 57.0354 33.9674 56.801 34.0195C56.5699 34.0716 56.2883 34.0977 55.9563 34.0977ZM63.9197 31.29C63.9197 32.1722 63.6935 32.8607 63.241 33.3555C62.7885 33.8503 62.1587 34.0977 61.3514 34.0977C60.8468 34.0977 60.4008 33.9837 60.0135 33.7559C59.6261 33.528 59.3283 33.2008 59.1199 32.7744C58.9116 32.348 58.8074 31.8532 58.8074 31.29C58.8074 30.4144 59.032 29.7308 59.4813 29.2393C59.9305 28.7477 60.5636 28.502 61.3807 28.502C62.1619 28.502 62.7804 28.7542 63.2361 29.2588C63.6919 29.7601 63.9197 30.4372 63.9197 31.29ZM59.9891 31.29C59.9891 32.5368 60.4497 33.1602 61.3709 33.1602C62.2824 33.1602 62.7381 32.5368 62.7381 31.29C62.7381 30.0563 62.2791 29.4395 61.3611 29.4395C60.8794 29.4395 60.5294 29.599 60.3113 29.918C60.0965 30.237 59.9891 30.6943 59.9891 31.29ZM70.1938 34H69.0414V30.6699C69.0414 30.2565 68.9633 29.9489 68.807 29.7471C68.6508 29.542 68.4066 29.4395 68.0746 29.4395C67.6319 29.4395 67.3064 29.5843 67.098 29.874C66.893 30.1605 66.7904 30.639 66.7904 31.3096V34H65.643V28.5996H66.5414L66.7025 29.3076H66.7611C66.9109 29.0505 67.1273 28.8519 67.4105 28.7119C67.697 28.5719 68.0111 28.502 68.3529 28.502C69.183 28.502 69.7331 28.7852 70.0033 29.3516H70.0814C70.241 29.0846 70.4656 28.8763 70.7553 28.7266C71.045 28.5768 71.377 28.502 71.7514 28.502C72.3959 28.502 72.8646 28.6647 73.1576 28.9902C73.4538 29.3158 73.602 29.8122 73.602 30.4795V34H72.4545V30.6699C72.4545 30.2565 72.3747 29.9489 72.2152 29.7471C72.059 29.542 71.8148 29.4395 71.4828 29.4395C71.0368 29.4395 70.7097 29.5794 70.5014 29.8594C70.2963 30.1361 70.1938 30.5625 70.1938 31.1387V34ZM80.1543 34H79.002V30.6699C79.002 30.2565 78.9238 29.9489 78.7676 29.7471C78.6113 29.542 78.3672 29.4395 78.0352 29.4395C77.5924 29.4395 77.2669 29.5843 77.0586 29.874C76.8535 30.1605 76.751 30.639 76.751 31.3096V34H75.6035V28.5996H76.502L76.6631 29.3076H76.7217C76.8714 29.0505 77.0879 28.8519 77.3711 28.7119C77.6576 28.5719 77.9717 28.502 78.3135 28.502C79.1436 28.502 79.6937 28.7852 79.9639 29.3516H80.042C80.2015 29.0846 80.4261 28.8763 80.7158 28.7266C81.0055 28.5768 81.3376 28.502 81.7119 28.502C82.3564 28.502 82.8252 28.6647 83.1182 28.9902C83.4144 29.3158 83.5625 29.8122 83.5625 30.4795V34H82.415V30.6699C82.415 30.2565 82.3353 29.9489 82.1758 29.7471C82.0195 29.542 81.7754 29.4395 81.4434 29.4395C80.9974 29.4395 80.6702 29.5794 80.4619 29.8594C80.2568 30.1361 80.1543 30.5625 80.1543 31.1387V34ZM87.9225 34.0977C87.0826 34.0977 86.4251 33.8535 85.9498 33.3652C85.4778 32.8737 85.2418 32.1982 85.2418 31.3389C85.2418 30.4567 85.4615 29.7633 85.901 29.2588C86.3404 28.7542 86.9443 28.502 87.7125 28.502C88.4254 28.502 88.9885 28.7184 89.402 29.1514C89.8154 29.5843 90.0221 30.18 90.0221 30.9385V31.5586H86.4234C86.4397 32.0827 86.5813 32.4863 86.8482 32.7695C87.1152 33.0495 87.4911 33.1895 87.9762 33.1895C88.2952 33.1895 88.5914 33.1602 88.8648 33.1016C89.1415 33.0397 89.4378 32.9388 89.7535 32.7988V33.7314C89.4736 33.8649 89.1904 33.9593 88.9039 34.0146C88.6174 34.07 88.2903 34.0977 87.9225 34.0977ZM87.7125 29.3711C87.3479 29.3711 87.0549 29.4867 86.8336 29.7178C86.6155 29.9489 86.4853 30.2858 86.443 30.7285H88.8941C88.8876 30.2826 88.7802 29.9456 88.5719 29.7178C88.3635 29.4867 88.0771 29.3711 87.7125 29.3711ZM96.4768 34H95.3244V30.6797C95.3244 30.263 95.2398 29.9521 95.0705 29.7471C94.9045 29.542 94.6392 29.4395 94.2746 29.4395C93.7896 29.4395 93.4348 29.5827 93.2102 29.8691C92.9855 30.1556 92.8732 30.6357 92.8732 31.3096V34H91.7258V28.5996H92.6242L92.7854 29.3076H92.8439C93.0067 29.0505 93.2378 28.8519 93.5373 28.7119C93.8368 28.5719 94.1688 28.502 94.5334 28.502C95.829 28.502 96.4768 29.1611 96.4768 30.4795V34ZM100.295 34.0977C99.6209 34.0977 99.0952 33.8535 98.7176 33.3652C98.34 32.877 98.1512 32.1917 98.1512 31.3096C98.1512 30.4242 98.3416 29.7357 98.7225 29.2441C99.1066 28.7493 99.6372 28.502 100.314 28.502C101.024 28.502 101.564 28.764 101.935 29.2881H101.994C101.939 28.9007 101.911 28.5947 101.911 28.3701V26.4023H103.063V34H102.165L101.965 33.292H101.911C101.543 33.8291 101.004 34.0977 100.295 34.0977ZM100.602 33.1699C101.074 33.1699 101.418 33.0381 101.633 32.7744C101.847 32.5075 101.958 32.0762 101.965 31.4805V31.3193C101.965 30.639 101.854 30.1556 101.633 29.8691C101.411 29.5827 101.065 29.4395 100.593 29.4395C100.189 29.4395 99.8781 29.6038 99.66 29.9326C99.4419 30.2581 99.3328 30.7236 99.3328 31.3291C99.3328 31.9281 99.4386 32.3854 99.6502 32.7012C99.8618 33.0137 100.179 33.1699 100.602 33.1699ZM107.462 34.0977C106.622 34.0977 105.965 33.8535 105.49 33.3652C105.018 32.8737 104.782 32.1982 104.782 31.3389C104.782 30.4567 105.001 29.7633 105.441 29.2588C105.88 28.7542 106.484 28.502 107.252 28.502C107.965 28.502 108.528 28.7184 108.942 29.1514C109.355 29.5843 109.562 30.18 109.562 30.9385V31.5586H105.963C105.98 32.0827 106.121 32.4863 106.388 32.7695C106.655 33.0495 107.031 33.1895 107.516 33.1895C107.835 33.1895 108.131 33.1602 108.405 33.1016C108.681 33.0397 108.978 32.9388 109.293 32.7988V33.7314C109.013 33.8649 108.73 33.9593 108.444 34.0146C108.157 34.07 107.83 34.0977 107.462 34.0977ZM107.252 29.3711C106.888 29.3711 106.595 29.4867 106.373 29.7178C106.155 29.9489 106.025 30.2858 105.983 30.7285H108.434C108.427 30.2826 108.32 29.9456 108.112 29.7178C107.903 29.4867 107.617 29.3711 107.252 29.3711ZM113.087 34.0977C112.413 34.0977 111.887 33.8535 111.51 33.3652C111.132 32.877 110.943 32.1917 110.943 31.3096C110.943 30.4242 111.134 29.7357 111.515 29.2441C111.899 28.7493 112.429 28.502 113.106 28.502C113.816 28.502 114.356 28.764 114.728 29.2881H114.786C114.731 28.9007 114.703 28.5947 114.703 28.3701V26.4023H115.855V34H114.957L114.757 33.292H114.703C114.335 33.8291 113.797 34.0977 113.087 34.0977ZM113.395 33.1699C113.867 33.1699 114.21 33.0381 114.425 32.7744C114.64 32.5075 114.75 32.0762 114.757 31.4805V31.3193C114.757 30.639 114.646 30.1556 114.425 29.8691C114.203 29.5827 113.857 29.4395 113.385 29.4395C112.981 29.4395 112.67 29.6038 112.452 29.9326C112.234 30.2581 112.125 30.7236 112.125 31.3291C112.125 31.9281 112.231 32.3854 112.442 32.7012C112.654 33.0137 112.971 33.1699 113.395 33.1699Z" fill="#333739"/>
<path d="M121 40L35.8528 40L1 1" stroke="#333739"/>
</svg>
