<svg width="148" height="121" fill="none" xmlns="http://www.w3.org/2000/svg">
    <g opacity=".5" fill="#fff">
        <path d="M104.745 70.309h2.14c1.536 0 2.782-1.16 2.782-2.59s-1.244-2.59-2.782-2.59H71.654c-1.539 0-2.785 1.16-2.785 2.59 0 1.397 1.19 2.537 2.68 2.588h-2.316c-1.545 0-2.798 1.16-2.798 2.591 0 1.43 1.251 2.59 2.798 2.59h35.406c1.545 0 2.798-1.16 2.798-2.59 0-1.398-1.195-2.538-2.692-2.59zM109.725 75.49H73.686c-.866 0-1.568.678-1.568 1.516v2.148c0 .837.702 1.516 1.568 1.516h3.698c-.477.27-.8.784-.8 1.373v2.231c0 .593.327 1.11.81 1.378h-5.741c-1.538 0-2.784 1.16-2.784 2.59s1.245 2.59 2.784 2.59h1.329c-1.495.045-2.692 1.187-2.692 2.588 0 1.43 1.245 2.59 2.783 2.59h35.233c1.537 0 2.782-1.16 2.782-2.59s-1.244-2.59-2.782-2.59h-1.33c1.495-.044 2.691-1.186 2.691-2.588 0-1.08-.709-2.005-1.718-2.394h4.821c.866 0 1.569-.705 1.569-1.574v-2.231c0-.87-.703-1.574-1.569-1.574h-2.264c.471-.262.787-.753.787-1.315v-2.148c0-.838-.702-1.516-1.568-1.516zM71.054 96.043H108.3c.869 0 1.574.677 1.574 1.515v2.148c0 .812-.664 1.476-1.496 1.515h.123c.871 0 1.576.705 1.576 1.574v2.232c0 .844-.665 1.532-1.501 1.572h3.796c1.536 0 2.777 1.16 2.777 2.59 0 1.431-1.243 2.59-2.777 2.59h-5.661c1.527.016 2.758 1.17 2.758 2.591.001 1.43-1.25 2.589-2.789 2.589h-38.67c-1.543 0-2.79-1.159-2.79-2.589 0-1.431 1.248-2.591 2.79-2.591h8.073c-1.522-.015-2.747-1.169-2.747-2.59 0-1.397 1.188-2.538 2.674-2.588h-4.748a1.576 1.576 0 0 1-1.577-1.574v-2.232c0-.843.665-1.533 1.501-1.573h-.13c-.87 0-1.575-.679-1.575-1.516v-2.148c0-.838.706-1.516 1.574-1.516z"/>
    </g>
    <path opacity=".3" fill-rule="evenodd" clip-rule="evenodd" d="M106.679 116.961h-38.67c-1.543 0-2.79-1.16-2.79-2.589 0-1.431 1.248-2.591 2.79-2.591h38.67c1.541 0 2.789 1.16 2.789 2.591.001 1.429-1.25 2.589-2.789 2.589" fill="#FFAB00"/>
    <path opacity=".5" fill-rule="evenodd" clip-rule="evenodd" d="M112.371 111.778H76.113c-1.536 0-2.778-1.159-2.778-2.59 0-1.43 1.244-2.59 2.778-2.59h36.258c1.536 0 2.777 1.16 2.777 2.59 0 1.431-1.243 2.59-2.777 2.59" fill="#FFAB00"/>
    <path opacity=".3" fill-rule="evenodd" clip-rule="evenodd" d="M108.5 101.219H71.261c-.87 0-1.577.705-1.577 1.574v2.232c0 .869.706 1.574 1.577 1.574H108.5c.871 0 1.576-.705 1.576-1.574v-2.232c0-.869-.705-1.574-1.576-1.574" fill="#FFAB00"/>
    <path opacity=".5" fill-rule="evenodd" clip-rule="evenodd" d="M108.299 96.043H71.054c-.868 0-1.573.678-1.573 1.516v2.148c0 .836.705 1.516 1.573 1.516H108.3c.869 0 1.574-.68 1.574-1.516v-2.148c0-.838-.705-1.516-1.574-1.516" fill="#FFAB00"/>
    <path opacity=".3" fill-rule="evenodd" clip-rule="evenodd" d="M108.306 96.012H73.073c-1.538 0-2.783-1.16-2.783-2.59s1.247-2.59 2.783-2.59h35.233c1.538 0 2.783 1.16 2.783 2.59s-1.245 2.59-2.783 2.59" fill="#FFAB00"/>
    <path opacity=".5" fill-rule="evenodd" clip-rule="evenodd" d="M106.885 90.832H71.653c-1.54 0-2.784-1.16-2.784-2.59s1.246-2.59 2.784-2.59h35.232c1.538 0 2.782 1.16 2.782 2.59s-1.245 2.59-2.782 2.59M109.725 75.492H73.686c-.866 0-1.568.678-1.568 1.516v2.148c0 .837.702 1.516 1.568 1.516h36.039c.866 0 1.568-.68 1.568-1.516v-2.148c0-.838-.702-1.516-1.568-1.516z" fill="#FFAB00"/>
    <path opacity=".3" fill-rule="evenodd" clip-rule="evenodd" d="M112.771 80.469H78.153a1.57 1.57 0 0 0-1.569 1.574v2.231c0 .87.702 1.574 1.569 1.574h34.618c.865 0 1.568-.705 1.568-1.574v-2.231c0-.87-.703-1.574-1.568-1.574M104.639 75.49H69.233c-1.547 0-2.798-1.16-2.798-2.59 0-1.432 1.253-2.591 2.798-2.591h35.406c1.547 0 2.798 1.16 2.798 2.59 0 1.431-1.253 2.59-2.798 2.59" fill="#FFAB00"/>
    <path opacity=".5" fill-rule="evenodd" clip-rule="evenodd" d="M106.885 70.309H71.654c-1.54 0-2.785-1.16-2.785-2.59s1.246-2.59 2.785-2.59h35.231c1.538 0 2.782 1.16 2.782 2.59s-1.245 2.59-2.782 2.59" fill="#FFAB00"/>
    <path fill-rule="evenodd" clip-rule="evenodd" d="M91.77 111.866a16.506 16.506 0 0 0 0-23.694c-6.682-6.542-17.519-6.542-24.202 0a16.506 16.506 0 0 0 0 23.694c6.683 6.542 17.52 6.542 24.202 0" fill="#FFAB00"/>
    <path opacity=".5" fill-rule="evenodd" clip-rule="evenodd" d="M89.4 89.767c5.851 5.26 6.218 14.145.824 19.847-5.395 5.703-14.514 6.063-20.365.804-5.85-5.259-6.22-14.146-.822-19.849 5.395-5.703 14.513-6.059 20.363-.802" fill="#fff"/>
    <path fill-rule="evenodd" clip-rule="evenodd" d="M89.135 104.33c.16.205.242.459.233.716a1.1 1.1 0 0 1-.288.696c-.714.779-1.88 1.721-3.345 2.421-2.143 1.023-4.605 1.336-6.928.564-1.452-.482-2.836-1.467-3.878-2.811l-1.267.602a.902.902 0 0 1-.661.041.872.872 0 0 1-.499-.427l-.015-.032a.823.823 0 0 1-.041-.643.852.852 0 0 1 .437-.485l1.04-.496c-.208-.331-.353-.537-.448-.727a7.973 7.973 0 0 1-.46-1.151l-1.072.511a.892.892 0 0 1-.662.04.863.863 0 0 1-.498-.426.825.825 0 0 1-.042-.644.858.858 0 0 1 .439-.485l1.298-.619c-.376-1.623-.316-3.258.18-4.67.84-2.4 2.697-4.229 4.94-5.296 1.306-.623 2.406-.875 3.307-.971.302-.032.604.052.843.233.24.18.399.444.442.735v.02a1.118 1.118 0 0 1-.226.85 1.17 1.17 0 0 1-.78.442 8.585 8.585 0 0 0-2.567.791c-1.43.681-2.635 1.804-3.23 3.422-.33.942-.42 2.042-.087 3.098l7.306-3.488a.894.894 0 0 1 .662-.04.865.865 0 0 1 .498.425.822.822 0 0 1 .041.644.854.854 0 0 1-.438.485l-7.627 3.641c.142.364.285.727.396.948.144.284.287.568.51.932l7.648-3.651a.909.909 0 0 1 .976.127.839.839 0 0 1 .253.925.866.866 0 0 1-.448.495l-7.324 3.495c.689.807 1.545 1.38 2.413 1.669 1.727.547 3.248.37 4.873-.406a9.575 9.575 0 0 0 2.39-1.627 1.162 1.162 0 0 1 1.703.127h.002z" fill="#fff"/>
    <path fill-rule="evenodd" clip-rule="evenodd" d="M111.526 59.64c-2.329 3.98-5.259 5.515-5.259 5.515H94.079s19.224-8.55 17.447-5.515" fill="#333739"/>
    <path fill-rule="evenodd" clip-rule="evenodd" d="M102.165 90.428c-.317.357-.357.756-.2 1.182l.002.007c.291.788 1.252 1.669 2.367 2.548a12.998 12.998 0 0 1 .466.386l.065.058c1.041.941.649 1.157 2.518 3.067 2.132 2.176 3.599 2.215 4.016 2.017.353-.168-.364-1.323-1.159-2.621l-.116-.189c-.106-.172-.211-.347-.316-.52-.932-1.563-.693-2.295-.472-4.619.18-1.888 2.993-10.55 2.993-10.55l-4.084-.69s-1.23 6.897-2.585 7.96c-.725.565-1.536.572-2.232.992l-.145.09c-.396.258-.799.523-1.118.882" fill="#FFDDC5"/>
    <path fill-rule="evenodd" clip-rule="evenodd" d="M102.165 90.429c-.317.357-.357.756-.2 1.182l.002.007c.356.787 1.293 1.663 2.371 2.54.142.114.266.22.377.318l.085.076c.022.019.044.04.066.058 1.04.941.648 1.157 2.517 3.067 2.132 2.176 3.599 2.215 4.016 2.017.353-.168-.364-1.323-1.159-2.621-.416-.149-2.342-.917-3.799-2.747-1.284-1.607-2.139-3.672-3.013-4.869l-.145.09c-.396.258-.799.523-1.118.882" fill="#333739"/>
    <path fill-rule="evenodd" clip-rule="evenodd" d="M135.096 87.922c.252 1.237 2.05 1.03 4.058.55 2.008-.483 1.529.09 4.387-.22 2.857-.311 3.723-1.357 3.81-1.774.079-.37-1.334-.5-2.848-.672-.191-.02-.381-.044-.573-.067-1.71-.21-2.962-1.294-4.515-2.183-1.471-.842-3.666-4.275-3.666-4.275l-3.919.306s2.057 3.065 2.852 4.398c.467.784.443 1.82.384 2.62-.03.435-.059.88.03 1.317" fill="#FFDDC5"/>
    <mask id="a" mask-type="alpha" maskUnits="userSpaceOnUse" x="135" y="85" width="13" height="4">
        <path fill-rule="evenodd" clip-rule="evenodd" d="M135.037 85.809h12.318v3.04h-12.318v-3.04z" fill="#fff"/>
    </mask>
    <g mask="url(#a)">
        <path fill-rule="evenodd" clip-rule="evenodd" d="M139.154 88.473c2.008-.482 1.531.09 4.388-.22s3.723-1.356 3.81-1.773c.078-.37-1.334-.5-2.848-.671l-.015.028s-1.713 1.193-4.092 1.249c-1.938.045-3.991-.5-5.33-.478-.03.435-.059.88.03 1.315.252 1.238 2.049 1.031 4.057.55" fill="#333739"/>
    </g>
    <path fill-rule="evenodd" clip-rule="evenodd" d="m120.082 63.33-3.663 9.675-4.783 12.633s-1.297.122-2.54-.229c-1.145-.324-2.457-1.174-2.457-1.174s1.327-13.563 3.804-21.35c.636-1.998 1.347-3.615 2.132-4.525 3.84-4.455 7.507 4.97 7.507 4.97" fill="#333739"/>
    <path fill-rule="evenodd" clip-rule="evenodd" d="M116.355 47.967c-2.401-.76-9.245.216-16.121 1.537l-1.44-2.33-14.85-1.139S79.042 56.703 81.725 63.5c.394 1 1.37 1.42 2.706 1.442l.001.001s8.862.213 11.733.213c7.385 0 15.63-4.983 16.697-5.193 1.746-.342 2.444 3.084 4.19 6.683 1.746 3.599 16.411 15.936 16.411 15.936s2.253.022 3.184-.32c1.001-.368 1.368-.848 1.368-.848s-16.249-31.732-21.661-33.446z" fill="#333739"/>
    <path fill-rule="evenodd" clip-rule="evenodd" d="M94.278 24.662c.023.015-2.602.894-4.357.131-1.652-.716-2.903-3.383-2.878-3.385.751-.034 1.575-.678 2.21-4.908l.32.113 5.379 1.899s-.39 1.694-.641 3.306c-.213 1.355-.327 2.652-.033 2.844" fill="#FFDDC5"/>
    <path opacity=".1" fill-rule="evenodd" clip-rule="evenodd" d="M94.951 18.513s-.39 1.694-.641 3.307c-3.09-.546-4.303-3.567-4.737-5.207l5.378 1.9z" fill="#333739"/>
    <path fill-rule="evenodd" clip-rule="evenodd" d="M95.753 20.194s-7.36-.969-6.673-5.458c.686-4.49.197-7.638 4.925-7.209 4.727.43 5.376 2.277 5.519 3.83.142 1.553-1.839 8.973-3.771 8.837z" fill="#FFDDC5"/>
    <path fill-rule="evenodd" clip-rule="evenodd" d="M100.473 35.306c-.222 14.622-.061 11.566-1.69 12.953-.393.334-1.497.533-2.95.628-4.568.297-12.596-.441-12.902-1.27-1.054-2.867-.31-3.757-1.189-8.146a35.691 35.691 0 0 0-.338-1.523c-.733-3.014-1.447-4.04 1.154-8.883 2.357-4.387 4.807-7.948 5.028-7.82 6.22 3.625 6.723.578 6.723.578s6.273 6.351 6.164 13.483z" fill="#F66"/>
    <path fill-rule="evenodd" clip-rule="evenodd" d="m116.419 73.007-4.783 12.632s-1.298.123-2.54-.228c-1.145-.324-2.457-1.174-2.457-1.174s1.327-13.563 3.804-21.35l5.976 10.12z" fill="#333739"/>
    <path fill-rule="evenodd" clip-rule="evenodd" d="M94.31 21.82s6.401 1.066 7.153 3.77l5.175 18.61s-3.254.574-4.757-.902c-1.504-1.475-5.231-13.69-5.231-13.69l-2.34-7.788zM95.833 48.884c-4.568.298-12.597-.44-12.903-1.27-1.053-2.867-.31-3.757-1.189-8.146l2.204-6.09s-.364 6.782 1.672 8.565c2.035 1.783 8.342 3.443 9.332 4.933.478.715.792 1.433.884 2.008" fill="#F66"/>
    <path fill-rule="evenodd" clip-rule="evenodd" d="M90.6 46.032s4.506-.985 5.233-.592c.728.392 2.504 1.822 2.727 2.319.223.498-1.62-.377-2.218-.535-.388-.102-1.409.246-1.914.411-2.127.696-3.43.338-3.43.338l-.398-1.94z" fill="#FFDDC5"/>
    <mask id="b" mask-type="alpha" maskUnits="userSpaceOnUse" x="72" y="21" width="20" height="29">
        <path fill-rule="evenodd" clip-rule="evenodd" d="M72.984 21.242H91.33v28.122H72.984V21.242z" fill="#fff"/>
    </mask>
    <g mask="url(#b)">
        <path fill-rule="evenodd" clip-rule="evenodd" d="M87.582 21.242s-6.05.366-8.145 3.234c-2.95 4.036-8.799 21.24-5.446 23.534 3.775 2.584 17.183.675 17.183.675s.446-2.046-.175-3.036c-.621-.99-10.708-2.59-11.174-3.047-.466-.457 5.82-8.91 5.82-10.282 0-1.37 1.937-11.078 1.937-11.078" fill="#F66"/>
    </g>
    <path fill-rule="evenodd" clip-rule="evenodd" d="M96.054 46.672s.944 1.196 1.254 1.338c.31.143.509.107.509.107l-.636-1.124-1.127-.321zM95.833 45.438l2.745 1.308s-.116.188-.455.172c-.337-.014-1.19-.32-1.19-.32l-1.1-1.16z" fill="#FFDDC5"/>
    <path fill-rule="evenodd" clip-rule="evenodd" d="M98.672 46.53c-.202.489-.302.733-.34.926a2 2 0 0 0 1.572 2.349c.193.038.458.038.987.038h16.521c.258 0 .387 0 .504-.014a2 2 0 0 0 1.513-1.015c.057-.103.106-.222.204-.461l4.566-11.145c.201-.489.301-.733.338-.926a2 2 0 0 0-1.573-2.345c-.193-.039-.457-.039-.986-.039H105.48c-.257 0-.386 0-.503.014a1.999 1.999 0 0 0-1.511 1.013 4.42 4.42 0 0 0-.205.46l-4.59 11.144z" fill="#fff"/>
    <path opacity=".5" fill-rule="evenodd" clip-rule="evenodd" d="M98.672 46.53c-.202.489-.302.733-.34.926a2 2 0 0 0 1.572 2.349c.193.038.458.038.987.038h16.521c.258 0 .387 0 .504-.014a2 2 0 0 0 1.513-1.015c.057-.103.106-.222.204-.461l4.566-11.145c.201-.489.301-.733.338-.926a2 2 0 0 0-1.573-2.345c-.193-.039-.457-.039-.986-.039H105.48c-.257 0-.386 0-.503.014a1.999 1.999 0 0 0-1.511 1.013 4.42 4.42 0 0 0-.205.46l-4.59 11.144z" fill="#333739"/>
    <path fill-rule="evenodd" clip-rule="evenodd" d="M119.275 49.22H90.6v.621h28.421l.254-.621z" fill="#333739"/>
    <path fill-rule="evenodd" clip-rule="evenodd" d="M113.537 41.867c.165-.561-.166-1.015-.737-1.015s-1.167.454-1.331 1.015c-.163.56.167 1.014.738 1.014s1.167-.454 1.33-1.014" fill="#fff"/>
    <path fill-rule="evenodd" clip-rule="evenodd" d="M89.43 4.87C88.98 3.348 84.56.851 80.18 2.948c-4.43 2.126-2.19 6.041-1.554 6.961.634.92 2.828 2.233 6.133.204 3.305-2.03 5.18-3.507 4.67-5.243z" fill="#333739"/>
    <path fill-rule="evenodd" clip-rule="evenodd" d="m92.318 8.157-.088.073c-.54.45-1.377.39-1.863-.126l-1.37-1.444c-.493-.517-.452-1.298.088-1.75l.089-.072c.538-.45 1.375-.39 1.861.126l1.37 1.444c.493.523.452 1.305-.087 1.75" fill="#F66"/>
    <path fill-rule="evenodd" clip-rule="evenodd" d="M99.215 14.758c.248-1.703.258-3.724-.555-4.796-1.32 1.933-4.833 3.318-7.052 3.467-.097.003-.19.008-.273.003l-.258.005c-.097-.047-.03-.085-.121-.115a2.82 2.82 0 0 0-.41-.111h-.004c-.03-.002-.064-.011-.088-.013h-.014c-.024-.003-.054-.003-.078-.005h-.014l-.078-.005h-.01a1.187 1.187 0 0 0-.307.027c-.01.008-.01.008-.014.007-.02.008-.034.007-.054.014-.01 0-.02.008-.024.008a.12.12 0 0 0-.044.014c-.01 0-.02.008-.024.008-.02.007-.03.015-.045.022-.01.008-.019.008-.029.015-.01.008-.024.015-.033.024-.01.007-.02.007-.025.015-.311.21-.438.612-.33 1.157.228 1.128.685 1.666 1.79 1.429 0 0 .15-.068.224.119l-.058 1.146c-1.013-.05-2.034-.716-2.74-2.649-1.377-3.755.126-6.353 3.703-7.659a7.964 7.964 0 0 1 1.275-.388c.136-.035.268-.062.395-.072.238-.038.486-.06.734-.072a.212.212 0 0 1 .093-.02c1.567.018 2.73.374 3.563.965.257.154.443.312.579.494 1.008 1.048 1.352 2.58 1.289 4.308-.034.99-.399 1.879-.963 2.658" fill="#333739"/>
    <path fill-rule="evenodd" clip-rule="evenodd" d="m5.98 111.539-1.519.557 19.5 8.119 20.972-1.336-7.945-5.942-31.009-1.398z" fill="#C8C6C5"/>
    <path fill-rule="evenodd" clip-rule="evenodd" d="M31.89 105.633c-10.209 0-16.915 1.624-16.915 2.931 0 .891 1.477 1.496 3.516 1.496 2.04 0 1.82 1.843 3.86 1.843 8.203 0 7.562 3.962 15.123 3.962 1.96 0 2.654-.714 9.695-.435 4.603.182 8.212-.725 9.22-2.082.785-1.058 1.375-1.902 4.154-2.306 2.744-.399 13.222-.726 14.252-2.578 1.182-2.124-8.87-2.594-10.027-2.831-7.952-1.625-24.78-.189-32.878 0" fill="#9C9C9B"/>
    <path fill-rule="evenodd" clip-rule="evenodd" d="m36.974 112.395-12.743 5.412v1.606l12.474-6.351a.485.485 0 0 0 .268-.43l.001-.237" fill="#5B5958"/>
    <path clip-rule="evenodd" d="m36.974 112.395-12.743 5.412v1.606l12.474-6.351a.485.485 0 0 0 .268-.43l.001-.237z" stroke="#000" stroke-width=".501" stroke-linecap="round" stroke-linejoin="round"/>
    <path fill-rule="evenodd" clip-rule="evenodd" d="m4.964 111.51 19.267 7.902v-1.607l-19.267-7.922v1.627z" fill="#5B5958"/>
    <path clip-rule="evenodd" d="m4.964 111.51 19.267 7.902v-1.607l-19.267-7.922v1.627z" stroke="#000" stroke-width=".501" stroke-linecap="round" stroke-linejoin="round"/>
    <path d="m25.747 117.917.821-.386M27.346 117.167l.82-.386" stroke="#000" stroke-width=".501" stroke-linecap="round" stroke-linejoin="round"/>
    <path fill-rule="evenodd" clip-rule="evenodd" d="m36.974 112.393-12.743 5.412-19.267-7.923 14.09-4.355 17.92 6.866z" fill="#929090"/>
    <path clip-rule="evenodd" d="m36.974 112.393-12.743 5.412-19.267-7.923 14.09-4.355 17.92 6.866z" stroke="#000" stroke-width=".501" stroke-linecap="round" stroke-linejoin="round"/>
    <path fill-rule="evenodd" clip-rule="evenodd" d="m28.903 113.637-6.192 2.434-13.508-5.576 6.676-2.054 13.024 5.196z" fill="#000"/>
    <path clip-rule="evenodd" d="m28.903 113.637-6.192 2.434-13.508-5.576 6.676-2.054 13.024 5.196z" stroke="#000" stroke-width=".501" stroke-linecap="round" stroke-linejoin="round"/>
    <path d="m28.903 112.254-7.311 2.921M27.96 114.617l-7.3-2.949M26.353 115.859l-7.3-2.949M26.922 111.465l-7.311 2.921M24.625 110.793l-7.311 2.922" stroke="#929090" stroke-width=".501" stroke-linecap="round" stroke-linejoin="round"/>
    <path d="m28.385 109.689-5.647-2.169-3.374 1.326" stroke="#5B5958" stroke-width=".501" stroke-linecap="round" stroke-linejoin="round"/>
    <path d="m28.385 109.688-3.78 1.609" stroke="#C8C6C5" stroke-width=".501" stroke-linecap="round" stroke-linejoin="round"/>
    <path fill-rule="evenodd" clip-rule="evenodd" d="m.503 94.02 19.043 7.066c.509.189.887.616 1.005 1.137l3.68 16.143a1.973 1.973 0 0 1-1.527.006l-17.742-7.375a1.399 1.399 0 0 1-.822-.944L.43 95.433a2.388 2.388 0 0 1 .074-1.414" fill="#9C9C9C"/>
    <mask id="c" mask-type="alpha" maskUnits="userSpaceOnUse" x="0" y="94" width="25" height="25">
        <path fill-rule="evenodd" clip-rule="evenodd" d="m.429 95.433 3.711 14.62c.108.424.412.773.822.944l17.741 7.375c.489.203 1.04.201 1.527-.006l-3.679-16.143a1.596 1.596 0 0 0-1.006-1.137L.503 94.019a2.388 2.388 0 0 0-.074 1.414" fill="#fff"/>
    </mask>
    <g mask="url(#c)">
        <path fill-rule="evenodd" clip-rule="evenodd" d="m4.155 110.182.626.709-4.027-15.56a.177.177 0 0 1 .056-.179.185.185 0 0 1 .186-.034l18.208 6.78a.37.37 0 0 0 .425-.127l.057-.079a.351.351 0 0 0 .053-.31.361.361 0 0 0-.219-.231A251413.2 251413.2 0 0 1 .514 93.984l-.203.756a.688.688 0 0 0-.003.35l3.847 15.092" fill="#C8C6C5"/>
    </g>
    <mask id="d" mask-type="alpha" maskUnits="userSpaceOnUse" x="0" y="94" width="25" height="25">
        <path fill-rule="evenodd" clip-rule="evenodd" d="m.429 95.433 3.711 14.62c.108.424.412.773.822.944l17.741 7.375c.489.203 1.04.201 1.527-.006l-3.679-16.143a1.596 1.596 0 0 0-1.006-1.137L.503 94.019a2.388 2.388 0 0 0-.074 1.414" fill="#fff"/>
    </mask>
    <g mask="url(#d)">
        <path fill-rule="evenodd" clip-rule="evenodd" d="M20.422 101.657a.128.128 0 0 0-.098-.096.13.13 0 0 0-.13.048l-.354.47a.962.962 0 0 0-.17.796l3.583 15.524h1.027l-3.858-16.742" fill="#C8C6C5"/>
    </g>
    <path clip-rule="evenodd" d="m.503 94.02 19.042 7.066c.51.189.887.616 1.006 1.137l3.68 16.143v0a1.973 1.973 0 0 1-1.528.006l-17.741-7.375a1.399 1.399 0 0 1-.822-.944L.429 95.433a2.388 2.388 0 0 1 .074-1.414z" stroke="#000" stroke-width=".501" stroke-linecap="round" stroke-linejoin="round"/>
    <path fill-rule="evenodd" clip-rule="evenodd" d="M11.144 104.553c.677-.203 1.48.441 1.79 1.439.313.998.016 1.974-.66 2.177-.677.204-1.48-.441-1.791-1.439-.312-.998-.016-1.973.661-2.177" fill="#FEFEFE"/>
    <path fill-rule="evenodd" clip-rule="evenodd" d="M59.678 97.874c1.985 4.06 6.78 3.565 8.346-.586 1.27-3.366.646-6.636.177-10.024-.305-2.205-.334-4.699.23-6.858.147-.557 1.582-4.863 2.882-4.166.806.433-.194 1.972-.241 4.543-.038 2.077 1.126 5.882 1.753 7.373 1.729 4.114 3 8.156 1.017 12.369-.78 1.655-2.05 1.92-3.43 3.173-4.673 4.243-11.94.689-10.734-5.824" fill="#E52B31"/>
    <mask id="e" mask-type="alpha" maskUnits="userSpaceOnUse" x="59" y="76" width="16" height="30">
        <path fill-rule="evenodd" clip-rule="evenodd" d="M68.432 80.406c-.565 2.16-.536 4.653-.23 6.858.468 3.388 1.092 6.658-.178 10.024-1.567 4.151-6.361 4.646-8.346.586-1.207 6.513 6.061 10.067 10.734 5.824 1.38-1.253 2.65-1.518 3.43-3.173 1.984-4.213.712-8.255-1.017-12.37-.627-1.49-1.79-5.295-1.753-7.372.047-2.571 1.047-4.11.241-4.543a.61.61 0 0 0-.293-.076c-1.214 0-2.453 3.726-2.588 4.242" fill="#fff"/>
    </mask>
    <g mask="url(#e)">
        <path fill-rule="evenodd" clip-rule="evenodd" d="M63.031 99.716c2.868.299 5.493-.966 6.286-1.748 3.182-3.139 1.508-9.947-.062-10.927-2.26-1.412-.884-3.152-.694-4.885.096-.885 1.433-7.6 2.562-7.231.345.112 1.743.931 1.826 1.23.217.784.125 1.616.265 2.412.25 1.423.746 2.765 1.12 4.156.468 1.741.886 3.492 1.41 5.22 1.016 3.345 2.649 6.829 1.404 10.362-1.685 4.782-9.463 9.825-13.63 4.831-1.4-1.678-2.55-3.176-.487-3.42" fill="#BA1918"/>
    </g>
    <mask id="f" mask-type="alpha" maskUnits="userSpaceOnUse" x="59" y="76" width="16" height="30">
        <path fill-rule="evenodd" clip-rule="evenodd" d="M68.432 80.406c-.565 2.16-.536 4.653-.23 6.858.468 3.388 1.092 6.658-.178 10.024-1.567 4.151-6.361 4.646-8.346.586-1.207 6.513 6.061 10.067 10.734 5.824 1.38-1.253 2.65-1.518 3.43-3.173 1.984-4.213.712-8.255-1.017-12.37-.627-1.49-1.79-5.295-1.753-7.372.047-2.571 1.047-4.11.241-4.543a.61.61 0 0 0-.293-.076c-1.214 0-2.453 3.726-2.588 4.242" fill="#fff"/>
    </mask>
    <g mask="url(#f)">
        <path fill-rule="evenodd" clip-rule="evenodd" d="M68.143 86.5c.24.983.729 1.885 1.066 2.836.758 2.139.725 4.508.093 6.68-.383 1.313-.99 2.683-2.376 3.215.409-1.097.842-2.105 1.041-3.267.52-3.04-.146-6.425.176-9.464" fill="#F090AD"/>
    </g>
    <path clip-rule="evenodd" d="M59.678 97.874c1.985 4.06 6.78 3.565 8.346-.586 1.27-3.366.646-6.636.177-10.024-.305-2.205-.334-4.699.23-6.858.147-.557 1.582-4.863 2.882-4.166.806.433-.194 1.972-.24 4.543-.039 2.077 1.125 5.882 1.752 7.373 1.729 4.114 3 8.156 1.017 12.369-.78 1.655-2.05 1.92-3.43 3.173-4.673 4.243-11.94.689-10.734-5.824z" stroke="#000" stroke-width=".503" stroke-linecap="round" stroke-linejoin="round"/>
    <path fill-rule="evenodd" clip-rule="evenodd" d="M37.218 76.045c.64-.321 2.717 1.736 3.39 3.092 2.06 4.144 1.101 8.285-.275 12.406-.588 1.761-2.284 4.066-1.786 6.415.512 2.421 2.887 3.375 4.845 1.668 1.05-.918 1.624-2.219 2.031-3.511.369 2.48 1.66 5.063.338 7.222-2.341 3.823-7.245 4.368-11.077.775-1.19-1.116-1.8-2.961-1.873-4.42-.35-6.995 4.729-9.319 5.648-15.321.17-1.108-.075-2.172-.226-3.284-.379-2.802-2.05-4.523-1.015-5.042" fill="#E52B31"/>
    <mask id="g" mask-type="alpha" maskUnits="userSpaceOnUse" x="32" y="76" width="15" height="31">
        <path fill-rule="evenodd" clip-rule="evenodd" d="M37.218 76.045c-1.036.519.636 2.24 1.015 5.042.15 1.112.395 2.176.226 3.284-.919 6.002-5.997 8.326-5.648 15.32.073 1.46.683 3.305 1.873 4.421 3.832 3.593 8.736 3.048 11.077-.775 1.323-2.159.031-4.743-.338-7.222-.407 1.293-.98 2.594-2.032 3.51-1.957 1.708-4.331.754-4.844-1.667-.498-2.349 1.198-4.654 1.786-6.415 1.376-4.12 2.334-8.262.276-12.406-.626-1.26-2.463-3.125-3.235-3.125a.347.347 0 0 0-.156.033" fill="#fff"/>
    </mask>
    <g mask="url(#g)">
        <path fill-rule="evenodd" clip-rule="evenodd" d="M39.392 83.941c1.28 7.318-5.7 13.237-1.283 20.497.729-.728 1.514-1.028 2.33-1.665 1.404-1.095 2.933-2.019 3.467-3.84.292-.994-1.127-2.722-1.44-3.767-.535-1.78.376-2.43-.548-4.052-1.297-2.275-2.13-5.376-2.526-7.173" fill="#BA1918"/>
    </g>
    <mask id="h" mask-type="alpha" maskUnits="userSpaceOnUse" x="32" y="76" width="15" height="31">
        <path fill-rule="evenodd" clip-rule="evenodd" d="M37.218 76.045c-1.036.519.636 2.24 1.015 5.042.15 1.112.395 2.176.226 3.284-.919 6.002-5.997 8.326-5.648 15.32.073 1.46.683 3.305 1.873 4.421 3.832 3.593 8.736 3.048 11.077-.775 1.323-2.159.031-4.743-.338-7.222-.407 1.293-.98 2.594-2.032 3.51-1.957 1.708-4.331.754-4.844-1.667-.498-2.349 1.198-4.654 1.786-6.415 1.376-4.12 2.334-8.262.276-12.406-.626-1.26-2.463-3.125-3.235-3.125a.347.347 0 0 0-.156.033" fill="#fff"/>
    </mask>
    <g mask="url(#h)">
        <path fill-rule="evenodd" clip-rule="evenodd" d="M37.093 76.072c1.896 4.647 3.212 8.358.546 13.103-2.936 5.225-4.259 6.329-4.151 11.195.021.97.373 2.504.788 3.397-3.277-4.407-1.333-9.044.957-13.402.794-1.51 1.749-2.999 2.165-4.666.802-3.219-.994-4.57-1.24-7.406-.033-.384.02-2.475.935-2.22" fill="#F090AD"/>
    </g>
    <path clip-rule="evenodd" d="M37.218 76.045c.64-.321 2.717 1.736 3.39 3.092 2.06 4.144 1.101 8.285-.275 12.406-.588 1.761-2.284 4.066-1.786 6.415.512 2.421 2.887 3.375 4.845 1.668 1.05-.918 1.624-2.219 2.031-3.511.369 2.48 1.66 5.063.338 7.222-2.341 3.823-7.245 4.368-11.077.775-1.19-1.116-1.8-2.961-1.873-4.42-.35-6.995 4.729-9.319 5.648-15.321.17-1.108-.075-2.172-.226-3.284-.379-2.802-2.05-4.523-1.015-5.042z" stroke="#000" stroke-width=".503" stroke-linecap="round" stroke-linejoin="round"/>
    <path fill-rule="evenodd" clip-rule="evenodd" d="M43.11 101.575c-4.992 5.114-9.065 1.867-12.831.441-2.178-.825-4.353-.816-6.286 1.188-1.253 1.3-2.046 4.399-1.106 4.722.817.281 1.528-1.928 3.724-1.793 1.28.078 3.18 1.316 4.185 2.065 2.782 2.075 7.316 2.416 10.371.658.16-1.896 2.304-5.423 1.943-7.281" fill="#E52B31"/>
    <mask id="i" mask-type="alpha" maskUnits="userSpaceOnUse" x="22" y="101" width="22" height="9">
        <path fill-rule="evenodd" clip-rule="evenodd" d="M23.993 103.2c-1.253 1.3-2.046 4.399-1.106 4.722.42.145.813-.371 1.395-.887.548-.486 1.264-.971 2.33-.906 1.28.079 3.18 1.316 4.184 2.065 2.782 2.075 7.316 2.416 10.371.658.16-1.896 2.304-5.423 1.943-7.281-4.992 5.114-9.065 1.867-12.832.441-.847-.321-1.694-.516-2.526-.516-1.307 0-2.578.48-3.76 1.704" fill="#fff"/>
    </mask>
    <g mask="url(#i)">
        <path fill-rule="evenodd" clip-rule="evenodd" d="M40.439 106.384c-.964.578-1.985.763-3.103.769-3.923.021-6.585-2.734-10.187-3.025-2.418-.194-4.978 1.504-4.906 4.049.05 1.748 2.676.611 3.631.54.686-.051 1.391.095 2.032.33 3.44 1.261 7.08 5.827 10.843 2.678 1.105-.925 1.671-3.925 1.69-5.341" fill="#BA1918"/>
    </g>
    <mask id="j" mask-type="alpha" maskUnits="userSpaceOnUse" x="22" y="101" width="22" height="9">
        <path fill-rule="evenodd" clip-rule="evenodd" d="M23.993 103.2c-1.253 1.3-2.046 4.399-1.106 4.722.42.145.813-.371 1.395-.887.548-.486 1.264-.971 2.33-.906 1.28.079 3.18 1.316 4.184 2.065 2.782 2.075 7.316 2.416 10.371.658.16-1.896 2.304-5.423 1.943-7.281-4.992 5.114-9.065 1.867-12.832.441-.847-.321-1.694-.516-2.526-.516-1.307 0-2.578.48-3.76 1.704" fill="#fff"/>
    </mask>
    <g mask="url(#j)">
        <path fill-rule="evenodd" clip-rule="evenodd" d="M22.665 106.072c.42-.889.867-1.782 1.547-2.515 1.412-1.52 3.762-1.315 5.542-.633 2.701 1.035 5.415 2.361 8.325 1.393-1.768-.018-3.486-.551-5.112-1.206-2.134-.861-4.144-2.052-6.547-1.628-1.8.317-4.16 2.565-3.755 4.589" fill="#F090AD"/>
    </g>
    <path clip-rule="evenodd" d="M43.11 101.571c-4.992 5.114-9.065 1.867-12.831.441-2.178-.825-4.353-.816-6.286 1.188-1.253 1.3-2.046 4.399-1.106 4.722.817.281 1.528-1.928 3.724-1.793 1.28.079 3.18 1.316 4.185 2.065 2.782 2.075 7.316 2.416 10.371.658.16-1.896 2.304-5.423 1.943-7.281z" stroke="#000" stroke-width=".503" stroke-linecap="round" stroke-linejoin="round"/>
    <path fill-rule="evenodd" clip-rule="evenodd" d="M57.53 62.412c-9.082-1.728-13.21 3.225-14.855 4.778-1.454 1.374-2.493 3.278-3.274 5.093-2.503 5.819-.993 11.081 1.451 16.597 1.103 2.489 3.562 5.69 3.419 8.43-.26 4.935-6.902 5.792-7.836 10.389-.139.685-.169 1.459.067 2.129 1.446 4.102 10.922 4.332 14.024-1.366.743 1.935 2.085 3.677 3.981 4.665 3.563 1.858 9.335.739 10.663-3.409.218-.683.155-1.347.162-2.049 3.83-.093 6.179-2.76 7.893-5.906.859-1.576 1.673-4.076 3.547-4.792 1.034-.395 2.374-.214 2.125 3.342-.156 2.217 1.892 3.158 3.021 2.745.965-.354-.257-.79-.445-1.815-.448-2.438.95-4.395-.495-6.7-1.448-2.311-4.644-2.368-6.576-1.087-3.407 2.261-5.59 8.467-10.58 7.724-.852-.126-1.718-.392-2.325-1.023-.522-.542-.786-1.285-.922-2.005-.653-3.459 2.237-5.886 4.303-8.285.88-1.022 1.671-2.11 2.478-3.187 4.926-6.573 3.1-21.808-9.825-24.268" fill="#E52B31"/>
    <mask id="k" mask-type="alpha" maskUnits="userSpaceOnUse" x="36" y="62" width="47" height="52">
        <path fill-rule="evenodd" clip-rule="evenodd" d="M42.675 67.19c-1.454 1.374-2.493 3.278-3.274 5.093-2.503 5.819-.993 11.081 1.451 16.597 1.103 2.489 3.562 5.69 3.419 8.43-.26 4.935-6.902 5.792-7.836 10.389-.139.685-.169 1.459.067 2.129 1.446 4.102 10.922 4.332 14.024-1.366.743 1.935 2.085 3.677 3.981 4.665 3.563 1.858 9.335.739 10.663-3.409.218-.683.155-1.347.162-2.049 3.83-.093 6.179-2.76 7.893-5.906.859-1.576 1.673-4.076 3.547-4.792 1.034-.395 2.374-.214 2.125 3.342-.156 2.217 1.892 3.158 3.021 2.745.965-.354-.257-.79-.445-1.815-.448-2.438.95-4.395-.495-6.7-1.448-2.312-4.644-2.368-6.576-1.087-3.407 2.261-5.59 8.467-10.58 7.724-.852-.126-1.718-.392-2.325-1.023-.522-.542-.786-1.285-.922-2.005-.653-3.459 2.237-5.886 4.303-8.285.88-1.022 1.671-2.11 2.478-3.187 4.926-6.573 3.1-21.808-9.825-24.268a19.528 19.528 0 0 0-3.652-.361c-6.578 0-9.798 3.812-11.204 5.139" fill="#fff"/>
    </mask>
    <g mask="url(#k)">
        <path fill-rule="evenodd" clip-rule="evenodd" d="M61.055 106.773a3.761 3.761 0 0 1-.4-.099c-2.616-.792-3.724-4.627-3.811-6.654-.16-3.742 4.318-9.999 6.062-13.136 2.402-4.319 1.942-8.227-.273-11.998-8.046-.18-18.108-8.49-23.87-1.017.2-2.779 1.552-5.154 4.055-6.539 6.062-3.355 13.424.427 19.089 3.383.58.303 1.195.695 1.81 1.124.926.097 1.834.396 2.346.688 3.055 1.747 4.087 5.415 3.549 8.67-.622 3.757-2.917 7.263-5.2 10.26-.995 1.307-2.185 2.505-3.024 3.92-1.62 2.728-1.01 4.89 2.151 5.689-.485 3.035 3.888 3.701 5.984 2.658 3.113-1.548 3.212-5.344 5.588-7.397 1.864-1.612 3.764-.334 3.704 1.888-.38-1.636-1.86-1.706-2.833-.36-.773 1.07-1.02 2.389-1.522 3.583-1.64 3.908-4.362 6.336-8.765 6.635-.114-.514-.294-.845-.53-1.054.159.567.13 1.214.167 1.965.203 4.168-6.025 7.856-12.19 3.233 3.256 1.781 7.319.403 7.52-.677.37-2-2.684-.548-5.02-4.549-1.332-2.284-.601-5.446-.18-7.822a14.19 14.19 0 0 0 .181-3.635c-.2-2.516-3.002-6.32-1.31-8.489.066 2.69 2.119 5.344 2.622 7.924.55 2.822-1.201 5.556-.605 8.329.323 1.507 2.113 3.725 4.582 3.524a.214.214 0 0 0 .123-.047" fill="#BA1918"/>
    </g>
    <mask id="l" mask-type="alpha" maskUnits="userSpaceOnUse" x="36" y="62" width="47" height="52">
        <path fill-rule="evenodd" clip-rule="evenodd" d="M42.675 67.19c-1.454 1.374-2.493 3.278-3.274 5.093-2.503 5.819-.993 11.081 1.451 16.597 1.103 2.489 3.562 5.69 3.419 8.43-.26 4.935-6.902 5.792-7.836 10.389-.139.685-.169 1.459.067 2.129 1.446 4.102 10.922 4.332 14.024-1.366.743 1.935 2.085 3.677 3.981 4.665 3.563 1.858 9.335.739 10.663-3.409.218-.683.155-1.347.162-2.049 3.83-.093 6.179-2.76 7.893-5.906.859-1.576 1.673-4.076 3.547-4.792 1.034-.395 2.374-.214 2.125 3.342-.156 2.217 1.892 3.158 3.021 2.745.965-.354-.257-.79-.445-1.815-.448-2.438.95-4.395-.495-6.7-1.448-2.312-4.644-2.368-6.576-1.087-3.407 2.261-5.59 8.467-10.58 7.724-.852-.126-1.718-.392-2.325-1.023-.522-.542-.786-1.285-.922-2.005-.653-3.459 2.237-5.886 4.303-8.285.88-1.022 1.671-2.11 2.478-3.187 4.926-6.573 3.1-21.808-9.825-24.268a19.528 19.528 0 0 0-3.652-.361c-6.578 0-9.798 3.812-11.204 5.139" fill="#fff"/>
    </mask>
    <g mask="url(#l)">
        <path fill-rule="evenodd" clip-rule="evenodd" d="M39.257 72.707c-1.633 5.289.607 11.275 2.882 16.003 1.346 2.798 2.863 5.69 2.72 8.883-.102 2.313-.94 4.434-2.85 5.828-1.964 1.432-4.572 2.307-5.231 4.876-.146.57-.21 1.156-.049 1.728-.356-.842-.41-1.706-.206-2.589.574-2.485 2.839-3.481 4.64-4.992 1.076-.902 2.037-1.962 2.687-3.201 1.825-3.479-1.228-7.174-2.832-10.075-2.22-4.02-3.685-8.223-2.838-12.822.213-1.154.453-2.623 1.077-3.639" fill="#F090AD"/>
    </g>
    <mask id="m" mask-type="alpha" maskUnits="userSpaceOnUse" x="36" y="62" width="47" height="52">
        <path fill-rule="evenodd" clip-rule="evenodd" d="M42.675 67.19c-1.454 1.374-2.493 3.278-3.274 5.093-2.503 5.819-.993 11.081 1.451 16.597 1.103 2.489 3.562 5.69 3.419 8.43-.26 4.935-6.902 5.792-7.836 10.389-.139.685-.169 1.459.067 2.129 1.446 4.102 10.922 4.332 14.024-1.366.743 1.935 2.085 3.677 3.981 4.665 3.563 1.858 9.335.739 10.663-3.409.218-.683.155-1.347.162-2.049 3.83-.093 6.179-2.76 7.893-5.906.859-1.576 1.673-4.076 3.547-4.792 1.034-.395 2.374-.214 2.125 3.342-.156 2.217 1.892 3.158 3.021 2.745.965-.354-.257-.79-.445-1.815-.448-2.438.95-4.395-.495-6.7-1.448-2.312-4.644-2.368-6.576-1.087-3.407 2.261-5.59 8.467-10.58 7.724-.852-.126-1.718-.392-2.325-1.023-.522-.542-.786-1.285-.922-2.005-.653-3.459 2.237-5.886 4.303-8.285.88-1.022 1.671-2.11 2.478-3.187 4.926-6.573 3.1-21.808-9.825-24.268a19.528 19.528 0 0 0-3.652-.361c-6.578 0-9.798 3.812-11.204 5.139" fill="#fff"/>
    </mask>
    <g mask="url(#m)">
        <path fill-rule="evenodd" clip-rule="evenodd" d="M51.988 87.969c-.144 3.262-3.869 4.42-5.41 6.933-1.73 2.82-.252 5.548-.839 8.401-.42 2.048-2.706 2.652-4.541 2.141.856-.072 2.05-.236 2.759-.763 1.176-.875 1.105-2.316 1.086-3.614-.026-1.683-.001-3.37.491-4.997.51-1.682 1.606-2.842 2.995-3.905.636-.488 1.292-.95 1.823-1.553.306-.348.562-.74.78-1.146.22-.412.45-1.214.856-1.497" fill="#F090AD"/>
    </g>
    <mask id="n" mask-type="alpha" maskUnits="userSpaceOnUse" x="36" y="62" width="47" height="52">
        <path fill-rule="evenodd" clip-rule="evenodd" d="M42.675 67.19c-1.454 1.374-2.493 3.278-3.274 5.093-2.503 5.819-.993 11.081 1.451 16.597 1.103 2.489 3.562 5.69 3.419 8.43-.26 4.935-6.902 5.792-7.836 10.389-.139.685-.169 1.459.067 2.129 1.446 4.102 10.922 4.332 14.024-1.366.743 1.935 2.085 3.677 3.981 4.665 3.563 1.858 9.335.739 10.663-3.409.218-.683.155-1.347.162-2.049 3.83-.093 6.179-2.76 7.893-5.906.859-1.576 1.673-4.076 3.547-4.792 1.034-.395 2.374-.214 2.125 3.342-.156 2.217 1.892 3.158 3.021 2.745.965-.354-.257-.79-.445-1.815-.448-2.438.95-4.395-.495-6.7-1.448-2.312-4.644-2.368-6.576-1.087-3.407 2.261-5.59 8.467-10.58 7.724-.852-.126-1.718-.392-2.325-1.023-.522-.542-.786-1.285-.922-2.005-.653-3.459 2.237-5.886 4.303-8.285.88-1.022 1.671-2.11 2.478-3.187 4.926-6.573 3.1-21.808-9.825-24.268a19.528 19.528 0 0 0-3.652-.361c-6.578 0-9.798 3.812-11.204 5.139" fill="#fff"/>
    </mask>
    <g mask="url(#n)">
        <path fill-rule="evenodd" clip-rule="evenodd" d="M64.48 101.365c5.124.247 6.802-4.524 10.434-6.945 1.748-1.165 4.461-1.765 6.03.027-.483-.505-.975-.953-1.592-1.3-2.279-1.28-4.495-.4-6.262 1.248-2.612 2.435-4.627 6.509-8.61 6.97" fill="#F090AD"/>
    </g>
    <mask id="o" mask-type="alpha" maskUnits="userSpaceOnUse" x="36" y="62" width="47" height="52">
        <path fill-rule="evenodd" clip-rule="evenodd" d="M42.675 67.19c-1.454 1.374-2.493 3.278-3.274 5.093-2.503 5.819-.993 11.081 1.451 16.597 1.103 2.489 3.562 5.69 3.419 8.43-.26 4.935-6.902 5.792-7.836 10.389-.139.685-.169 1.459.067 2.129 1.446 4.102 10.922 4.332 14.024-1.366.743 1.935 2.085 3.677 3.981 4.665 3.563 1.858 9.335.739 10.663-3.409.218-.683.155-1.347.162-2.049 3.83-.093 6.179-2.76 7.893-5.906.859-1.576 1.673-4.076 3.547-4.792 1.034-.395 2.374-.214 2.125 3.342-.156 2.217 1.892 3.158 3.021 2.745.965-.354-.257-.79-.445-1.815-.448-2.438.95-4.395-.495-6.7-1.448-2.312-4.644-2.368-6.576-1.087-3.407 2.261-5.59 8.467-10.58 7.724-.852-.126-1.718-.392-2.325-1.023-.522-.542-.786-1.285-.922-2.005-.653-3.459 2.237-5.886 4.303-8.285.88-1.022 1.671-2.11 2.478-3.187 4.926-6.573 3.1-21.808-9.825-24.268a19.528 19.528 0 0 0-3.652-.361c-6.578 0-9.798 3.812-11.204 5.139" fill="#fff"/>
    </mask>
    <g mask="url(#o)">
        <path fill-rule="evenodd" clip-rule="evenodd" d="M52.144 87.8c-.113 3.457-2.934 5.062-3.857 8.133-.785 2.613.353 5.228-.2 7.868-.815 3.893-3.327 7.502-7.287 7.736-1.055.062-3.24-.525-4.238-1.552 1.464 5.992 12.326 4.098 14.303-.631a7.81 7.81 0 0 1-.24-5.611c.21-.626.43-1.018.733-1.839.18-.488 1.887-4.962 1.966-6.01.154-2.053-.643-3.932-.42-6.04.031-.299-.083-2.287-.76-2.054" fill="#BA1918"/>
    </g>
    <mask id="p" mask-type="alpha" maskUnits="userSpaceOnUse" x="36" y="62" width="47" height="52">
        <path fill-rule="evenodd" clip-rule="evenodd" d="M42.675 67.19c-1.454 1.374-2.493 3.278-3.274 5.093-2.503 5.819-.993 11.081 1.451 16.597 1.103 2.489 3.562 5.69 3.419 8.43-.26 4.935-6.902 5.792-7.836 10.389-.139.685-.169 1.459.067 2.129 1.446 4.102 10.922 4.332 14.024-1.366.743 1.935 2.085 3.677 3.981 4.665 3.563 1.858 9.335.739 10.663-3.409.218-.683.155-1.347.162-2.049 3.83-.093 6.179-2.76 7.893-5.906.859-1.576 1.673-4.076 3.547-4.792 1.034-.395 2.374-.214 2.125 3.342-.156 2.217 1.892 3.158 3.021 2.745.965-.354-.257-.79-.445-1.815-.448-2.438.95-4.395-.495-6.7-1.448-2.312-4.644-2.368-6.576-1.087-3.407 2.261-5.59 8.467-10.58 7.724-.852-.126-1.718-.392-2.325-1.023-.522-.542-.786-1.285-.922-2.005-.653-3.459 2.237-5.886 4.303-8.285.88-1.022 1.671-2.11 2.478-3.187 4.926-6.573 3.1-21.808-9.825-24.268a19.528 19.528 0 0 0-3.652-.361c-6.578 0-9.798 3.812-11.204 5.139" fill="#fff"/>
    </mask>
    <g mask="url(#p)">
        <path fill-rule="evenodd" clip-rule="evenodd" d="M80.24 93.668c1.126 2.733-.462 5.79.28 8.594.172.652.848 2.554 1.821 2.389.792-.135.97-2.248 1.015-2.831.17-2.201.04-4.473-.904-6.512-.32-.69-1.049-1.79-1.945-1.808" fill="#BA1918"/>
    </g>
    <path clip-rule="evenodd" d="M57.53 62.412c-9.082-1.728-13.21 3.225-14.855 4.778-1.454 1.374-2.493 3.278-3.274 5.093-2.503 5.819-.993 11.081 1.451 16.597 1.103 2.489 3.562 5.69 3.419 8.43-.26 4.935-6.902 5.792-7.836 10.389-.139.685-.169 1.459.067 2.129 1.446 4.102 10.922 4.332 14.024-1.366.743 1.935 2.085 3.677 3.981 4.665 3.563 1.858 9.335.739 10.663-3.409.218-.683.155-1.347.162-2.049 3.83-.093 6.179-2.76 7.893-5.906.859-1.576 1.673-4.076 3.547-4.792 1.034-.395 2.374-.214 2.125 3.342-.156 2.217 1.892 3.158 3.021 2.745.965-.354-.257-.79-.445-1.815-.448-2.438.95-4.395-.495-6.7-1.448-2.312-4.644-2.368-6.576-1.087-3.407 2.261-5.59 8.467-10.58 7.724-.852-.126-1.718-.392-2.325-1.023-.522-.542-.786-1.285-.922-2.005-.653-3.459 2.237-5.886 4.303-8.285.88-1.022 1.671-2.11 2.478-3.187 4.926-6.573 3.1-21.808-9.825-24.268z" stroke="#000" stroke-width=".503" stroke-linecap="round" stroke-linejoin="round"/>
    <path fill-rule="evenodd" clip-rule="evenodd" d="M59.383 85.585c.23.242.505.436.814.579.201.092.415.164.634.212.217.048.44.07.66.08.338.015.671-.01.984-.052a.107.107 0 0 0 .098-.115.107.107 0 0 0-.117-.096 5.91 5.91 0 0 1-1.487-.144 6.04 6.04 0 0 1-.357-.086 3.888 3.888 0 0 1-.462-.155 2.538 2.538 0 0 1-.631-.364.1.1 0 0 0-.14.004.096.096 0 0 0 .004.137M44.285 85.378c.282.171.568.297.86.369.211.052.424.076.635.07.213-.006.424-.044.63-.107.292-.09.572-.232.838-.421a.105.105 0 0 0 .033-.146.11.11 0 0 0-.15-.033 2.89 2.89 0 0 1-1.36.359 3.261 3.261 0 0 1-1.394-.263.1.1 0 0 0-.133.041.096.096 0 0 0 .041.131" fill="#000"/>
    <path fill-rule="evenodd" clip-rule="evenodd" d="M45.758 85.703c4.483 2.429 11.154 2.23 15.174.601-1.45 6.656-14.287 8.207-15.174-.6" fill="#FEFEFE"/>
    <mask id="q" mask-type="alpha" maskUnits="userSpaceOnUse" x="45" y="85" width="16" height="7">
        <path fill-rule="evenodd" clip-rule="evenodd" d="M60.932 86.308c-4.02 1.628-10.692 1.828-15.174-.601.887 8.808 13.724 7.257 15.174.601" fill="#fff"/>
    </mask>
    <g mask="url(#q)">
        <path fill-rule="evenodd" clip-rule="evenodd" d="M45.655 87.592c.643.428 1.35.79 2.09 1.064a8.957 8.957 0 0 0 2.278.525c.02.002.04-.012.041-.032a.037.037 0 0 0-.032-.041 8.789 8.789 0 0 1-2.205-.647 9.825 9.825 0 0 1-1.965-1.15.18.18 0 0 0-.247.039.172.172 0 0 0 .04.242" fill="#C8C6C5"/>
    </g>
    <mask id="r" mask-type="alpha" maskUnits="userSpaceOnUse" x="45" y="85" width="16" height="7">
        <path fill-rule="evenodd" clip-rule="evenodd" d="M60.932 86.308c-4.02 1.628-10.692 1.828-15.174-.601.887 8.808 13.724 7.257 15.174.601" fill="#fff"/>
    </mask>
    <g mask="url(#r)">
        <path fill-rule="evenodd" clip-rule="evenodd" d="M60.215 88.145c-.59.33-1.373.615-2.18.828a12.96 12.96 0 0 1-2.33.403.037.037 0 0 0-.036.039c.001.02.018.036.04.035a13.145 13.145 0 0 0 2.375-.272c.845-.172 1.67-.42 2.297-.725a.172.172 0 0 0 .074-.236.179.179 0 0 0-.24-.072" fill="#C8C6C5"/>
    </g>
    <path clip-rule="evenodd" d="M45.758 85.707c4.483 2.429 11.154 2.23 15.174.601-1.45 6.656-14.287 8.207-15.174-.601z" stroke="#000" stroke-width=".503" stroke-linecap="round" stroke-linejoin="round"/>
    <path fill-rule="evenodd" clip-rule="evenodd" d="M41.1 105.343c5.833.099 3.217-5.673 4.323-9.23.512-1.645 1.859-3.328 3.245-4.285 2.895-2.002 2.809-3.722 3.182-3.907 1.01-.499.898 1.682.809 2.066-.504 2.162-2.32 3.75-2.802 5.898-.492 2.193.905 4.117 1.296 6.192" fill="#E52B31"/>
    <mask id="s" mask-type="alpha" maskUnits="userSpaceOnUse" x="41" y="87" width="12" height="19">
        <path fill-rule="evenodd" clip-rule="evenodd" d="M51.85 87.921c-.373.185-.287 1.905-3.182 3.906-1.386.958-2.733 2.641-3.244 4.287-.815 2.617.388 6.436-1.247 8.229l6.976-2.266c-.391-2.075-1.787-3.999-1.295-6.192.481-2.149 2.297-3.736 2.801-5.898.08-.345.18-2.14-.534-2.14a.626.626 0 0 0-.275.075M41.1 105.343c1.539.026 2.49-.357 3.077-1" fill="#fff"/>
    </mask>
    <g mask="url(#s)">
        <path fill-rule="evenodd" clip-rule="evenodd" d="M51.989 87.969c-.144 3.262-3.869 4.42-5.41 6.933-1.73 2.82-.252 5.548-.839 8.401-.42 2.048-2.706 2.652-4.541 2.141.856-.072 2.05-.236 2.759-.763 1.176-.875 1.105-2.316 1.086-3.614-.026-1.683-.001-3.37.491-4.997.51-1.682 1.606-2.842 2.995-3.905.636-.488 1.292-.95 1.823-1.553.306-.348.562-.74.78-1.146.22-.412.45-1.214.856-1.497" fill="#F090AD"/>
    </g>
    <mask id="t" mask-type="alpha" maskUnits="userSpaceOnUse" x="41" y="87" width="12" height="19">
        <path fill-rule="evenodd" clip-rule="evenodd" d="M51.85 87.921c-.373.185-.287 1.905-3.182 3.906-1.386.958-2.733 2.641-3.244 4.287-.815 2.617.388 6.436-1.247 8.229l6.976-2.266c-.391-2.075-1.787-3.999-1.295-6.192.481-2.149 2.297-3.736 2.801-5.898.08-.345.18-2.14-.534-2.14a.626.626 0 0 0-.275.075M41.1 105.343c1.539.026 2.49-.357 3.077-1" fill="#fff"/>
    </mask>
    <g mask="url(#t)">
        <path fill-rule="evenodd" clip-rule="evenodd" d="M52.144 87.8c-.113 3.457-2.934 5.062-3.857 8.133-.785 2.613.353 5.228-.2 7.868-.815 3.893-3.873 6.383-7.832 6.617-1.056.063-2.266.023-3.267-.361 1.464 5.992 11.9 4.027 13.876-.703a7.81 7.81 0 0 1-.239-5.611c.21-.626.43-1.018.732-1.839.18-.488 1.888-4.962 1.967-6.01.154-2.053-.643-3.932-.42-6.04.03-.299-.083-2.287-.76-2.054" fill="#BA1918"/>
    </g>
    <path fill-rule="evenodd" clip-rule="evenodd" d="M60.932 106.819c-2.286.17-4.482-1.855-4.74-3.999-.345-2.878 1.391-6.132.515-8.902-.243-.769-.77-1.471-1.206-2.143-.675-1.04-1.12-2.03-1.25-3.26-.015-.155-.029-.314-.204-.35a.517.517 0 0 0-.113-.009c-.303.005-.565.258-.743.472-1.16 1.392-.28 3.145.055 4.667.592 2.694-.576 5.068-1.55 7.494-1.058 2.631-1.954 4.903-1.17 7.673" fill="#E52B31"/>
    <mask id="u" mask-type="alpha" maskUnits="userSpaceOnUse" x="50" y="88" width="11" height="21">
        <path fill-rule="evenodd" clip-rule="evenodd" d="M53.934 88.156c-.303.005-.565.258-.743.472-1.16 1.392-.28 3.145.055 4.667.592 2.694-.576 5.068-1.55 7.494-1.058 2.631-1.954 4.903-1.17 7.673l10.406-1.643c-2.286.17-4.482-1.855-4.74-3.999-.345-2.878 1.391-6.132.515-8.902-.243-.769-.77-1.471-1.206-2.143-.675-1.04-1.12-2.03-1.25-3.26-.015-.155-.029-.314-.204-.35a.502.502 0 0 0-.103-.009h-.01" fill="#fff"/>
    </mask>
    <g mask="url(#u)">
        <path fill-rule="evenodd" clip-rule="evenodd" d="M54.332 87.043c-1.691 2.17 1.11 5.972 1.312 8.489a14.19 14.19 0 0 1-.182 3.635c-.421 2.376-1.486 5.019-.187 7.322 1.467 2.604 5.456 5.332 1.061 7.297 4.864 1.262 8.748-1.841 8.996-4.804.288-3.442-2.235-4.76-3.225-5.838a8.038 8.038 0 0 1-1.564-2.562c-1.753 2.053 1.365 6.158.39 6.237-2.47.201-4.26-2.016-4.584-3.523-.596-2.774 1.157-5.507.606-8.33-.503-2.58-2.556-5.234-2.623-7.923" fill="#BA1918"/>
    </g>
    <mask id="v" mask-type="alpha" maskUnits="userSpaceOnUse" x="50" y="88" width="11" height="21">
        <path fill-rule="evenodd" clip-rule="evenodd" d="M53.934 88.156c-.303.005-.565.258-.743.472-1.16 1.392-.28 3.145.055 4.667.592 2.694-.576 5.068-1.55 7.494-1.058 2.631-1.954 4.903-1.17 7.673l10.406-1.643c-2.286.17-4.482-1.855-4.74-3.999-.345-2.878 1.391-6.132.515-8.902-.243-.769-.77-1.471-1.206-2.143-.675-1.04-1.12-2.03-1.25-3.26-.015-.155-.029-.314-.204-.35a.502.502 0 0 0-.103-.009h-.01" fill="#fff"/>
    </mask>
    <g mask="url(#v)">
        <path fill-rule="evenodd" clip-rule="evenodd" d="M53.848 88.309c-1.127 1.502-.006 3.572.343 5.148.171.77.23 1.58.162 2.365-.178 2.058-1.184 3.868-1.924 5.766-1.657 4.247-1.955 8.791 2.22 11.569-1.022-.694-2.006-1.352-2.831-2.271-4.537-5.049.765-10.04 1.566-15.355a5.58 5.58 0 0 0-.067-2.034c-.345-1.547-1.33-4.013.53-5.188" fill="#F090AD"/>
    </g>
    <path fill-rule="evenodd" clip-rule="evenodd" d="M41.098 105.453a6.5 6.5 0 0 0 1.364-.064c.207-.035.4-.083.578-.141 1.111-.367 1.675-1.132 1.96-2.097.301-1.018.282-2.275.273-3.545-.008-1.202-.006-2.416.315-3.443.249-.8.7-1.609 1.258-2.335.564-.737 1.238-1.39 1.922-1.862.895-.618 1.51-1.211 1.944-1.741.629-.768.878-1.406 1.043-1.808.043-.106.08-.195.117-.262.02-.037.033-.068.057-.08.111-.055.2-.071.273-.041.13.053.196.214.247.403.144.53.088 1.302.04 1.511-.401 1.717-1.638 3.067-2.362 4.63a6.295 6.295 0 0 0-.442 1.27c-.152.679-.13 1.333-.013 1.974.265 1.451 1.032 2.832 1.306 4.287a.178.178 0 0 0 .35-.063c-.275-1.455-1.043-2.835-1.308-4.285-.11-.597-.132-1.206.01-1.839.383-1.709 1.62-3.057 2.352-4.63.189-.405.345-.825.448-1.267.064-.273.133-1.402-.148-1.959-.092-.183-.221-.31-.383-.363-.143-.047-.318-.038-.527.065-.085.042-.164.131-.235.277-.166.338-.354 1.058-1.096 1.966-.417.51-1.01 1.081-1.873 1.678-.71.49-1.41 1.169-1.997 1.935-.582.76-1.051 1.605-1.311 2.44-.328 1.058-.335 2.307-.326 3.544.01 1.237.037 2.461-.254 3.452-.254.865-.758 1.538-1.747 1.886a4.67 4.67 0 0 1-.895.215 7.112 7.112 0 0 1-.936.071.112.112 0 0 0-.115.109.111.111 0 0 0 .11.112M65.508 107.648a4.49 4.49 0 0 0-.545-1.672c-.278-.5-.644-.96-1.074-1.387-.388-.384-.851-.764-1.305-1.162a11.31 11.31 0 0 1-.824-.788 4.545 4.545 0 0 1-.669-.897 2.91 2.91 0 0 1-.276-.686.086.086 0 0 0-.101-.066.085.085 0 0 0-.067.1c.115.654.45 1.226.888 1.742.25.295.536.569.827.834.441.402.9.778 1.28 1.16.405.406.75.842 1.011 1.315.262.475.438.988.502 1.546.011.096.1.165.197.154a.175.175 0 0 0 .156-.193" fill="#000"/>
    <path fill-rule="evenodd" clip-rule="evenodd" d="M53.848 88.309c-1.126 1.502-.006 3.572.344 5.148.17.77.23 1.58.161 2.365-.178 2.058-1.184 3.868-1.924 5.766-1.657 4.247-1.955 8.791 2.22 11.569-1.022-.694-1.705-1.16-2.486-2.115-4.27-5.222.42-10.196 1.222-15.51a5.58 5.58 0 0 0-.068-2.035c-.344-1.547-1.33-4.013.531-5.188" fill="#F090AD"/>
    <path fill-rule="evenodd" clip-rule="evenodd" d="M60.923 106.706c-1.105.07-2.18-.393-3.01-1.127a5.05 5.05 0 0 1-.86-.983c-.367-.552-.617-1.167-.69-1.794-.237-1.981.522-4.14.721-6.196.091-.942.067-1.863-.21-2.738-.1-.32-.248-.629-.42-.93-.246-.434-.542-.85-.805-1.255a8.77 8.77 0 0 1-.812-1.526 6.163 6.163 0 0 1-.41-1.658.785.785 0 0 0-.085-.328.376.376 0 0 0-.26-.174l-.151-.013a.868.868 0 0 0-.433.134c-.174.104-.326.26-.444.401-.497.596-.645 1.254-.618 1.933.038.959.435 1.962.636 2.88.23 1.049.188 2.047-.007 3.019-.298 1.494-.952 2.925-1.535 4.375-.64 1.594-1.22 3.057-1.412 4.577a7.908 7.908 0 0 0 .237 3.207.177.177 0 0 0 .219.121.174.174 0 0 0 .123-.215 7.566 7.566 0 0 1-.226-3.07c.188-1.492.76-2.928 1.39-4.492.59-1.47 1.25-2.922 1.553-4.436.203-1.017.246-2.062.005-3.159-.198-.9-.592-1.882-.63-2.82-.023-.597.102-1.176.539-1.7.08-.096.178-.202.291-.284a.565.565 0 0 1 .317-.124l.075.005c.03.007.038.029.044.052.012.045.016.096.022.146.066.633.214 1.203.432 1.749.216.54.5 1.057.844 1.586.26.4.551.81.795 1.238.16.279.298.566.392.864.263.83.283 1.707.197 2.603-.2 2.079-.956 4.264-.714 6.267.069.567.266 1.127.565 1.641.289.495.671.949 1.117 1.328.901.764 2.061 1.225 3.236 1.124a.115.115 0 0 0 .107-.122.117.117 0 0 0-.125-.106" fill="#000"/>
    <path fill-rule="evenodd" clip-rule="evenodd" d="M66.886 73.886c-2.38.707-6.372-1.177-8.449-2.181-3.636-1.758-5.427-3.106-9.453-3.909 6.182-.409 13.137 2.178 17.902 6.09" fill="#FEFEFE"/>
    <mask id="w" mask-type="alpha" maskUnits="userSpaceOnUse" x="48" y="67" width="19" height="8">
        <path fill-rule="evenodd" clip-rule="evenodd" d="M48.984 67.796c4.026.803 5.817 2.15 9.453 3.909 2.077 1.004 6.07 2.888 8.45 2.18-4.434-3.639-10.762-6.131-16.6-6.131-.437 0-.872.014-1.303.042" fill="#fff"/>
    </mask>
    <g mask="url(#w)">
        <path fill-rule="evenodd" clip-rule="evenodd" d="M56.606 70.695c2.432.596 4.949.539 7.397 1.019 1.497.293 2.902 1.399 3.716 2.745-1.253.165-2.554.336-3.82.224-1.81-.16-7.178-3.96-7.313-3.427" fill="#C8C6C5"/>
    </g>
    <path clip-rule="evenodd" d="M66.886 73.886c-2.38.707-6.372-1.177-8.449-2.181-3.636-1.758-5.428-3.106-9.453-3.909 6.182-.409 13.137 2.178 17.902 6.09z" stroke="#000" stroke-width=".503" stroke-linecap="round" stroke-linejoin="round"/>
    <path fill-rule="evenodd" clip-rule="evenodd" d="M69.927 78.66c-.574-2.576-2.667-4.75-4.847-6.122-7.104-4.47-19.678-7.138-24.761-1.64 1.484-3.875 3.531-6.377 6.87-8.079 10.952-5.579 25.774 4.079 22.738 15.841" fill="#FEFEFE"/>
    <mask id="x" mask-type="alpha" maskUnits="userSpaceOnUse" x="40" y="61" width="31" height="18">
        <path fill-rule="evenodd" clip-rule="evenodd" d="M47.19 62.82c-3.34 1.7-5.387 4.203-6.871 8.078 5.083-5.498 17.657-2.83 24.761 1.64 2.18 1.371 4.273 3.546 4.847 6.123 2.428-9.406-6.563-17.466-15.862-17.466-2.33 0-4.681.507-6.875 1.624" fill="#fff"/>
    </mask>
    <g mask="url(#x)">
        <path fill-rule="evenodd" clip-rule="evenodd" d="M61.587 62.59c1.596 2.116 1.966 6.103 1.518 8.738 3.205 1.096 5.59 4.536 6.708 7.618 2.4-5.757 1.306-12.132-4.447-15.287-1.096-.6-2.587-.74-3.779-1.07" fill="#C8C6C5"/>
    </g>
    <mask id="y" mask-type="alpha" maskUnits="userSpaceOnUse" x="40" y="61" width="31" height="18">
        <path fill-rule="evenodd" clip-rule="evenodd" d="M47.19 62.82c-3.34 1.7-5.387 4.203-6.871 8.078 5.083-5.498 17.657-2.83 24.761 1.64 2.18 1.371 4.273 3.546 4.847 6.123 2.428-9.406-6.563-17.466-15.862-17.466-2.33 0-4.681.507-6.875 1.624" fill="#fff"/>
    </mask>
    <g mask="url(#y)" fill-rule="evenodd" clip-rule="evenodd">
        <path d="M49.943 66.997c-1.665-.173-3.477-.265-5.265-.303l2.983-4.238c1.662.026 3.292.14 4.888.34-.83 1.365-1.687 2.692-2.606 4.2" fill="#75151E"/>
        <path d="M54.535 66.23a1.392 1.392 0 0 1-.804.088c-.583-.128-.747-.693-.391-1.285.348-.58 1.068-.944 1.653-.827.243.048.426.172.53.36l.005.008.706-.339-.007-.011c-.158-.323-.474-.544-.882-.623-.95-.182-2.137.404-2.68 1.304-.56.932-.283 1.865.659 2.078.408.091.898.029 1.38-.177l.016-.007a43.83 43.83 0 0 0-.17-.575l-.015.005m.595 1.062c.218.055.436.112.655.17.668-1.12 1.3-2.205 1.893-3.256a48.06 48.06 0 0 0-.648-.153 151.636 151.636 0 0 1-1.9 3.24m3.953-.315c.013-.047.042-2.415.029-2.417-.21-.059-.422-.115-.633-.17a161.267 161.267 0 0 1-1.885 3.275c.219.061.438.124.657.189.397-.679.781-1.347 1.154-2.003.01.103-.026 2.384-.035 2.378 0-.004 2.179-1.609 2.274-1.674-.364.664-.738 1.339-1.123 2.022l.661.234c.633-1.137 1.238-2.25 1.813-3.337-.21-.075-.42-.149-.63-.22a423.3 423.3 0 0 0-2.282 1.723m3.52 2.017c-.216-.09-.431-.179-.647-.266l.427-.8c.214.086.428.175.641.265.3.128.3.38.2.572-.102.195-.318.356-.621.23m.486-2.401c.197.08.395.163.592.247.248.106.327.307.211.534-.116.227-.335.298-.586.191a38.08 38.08 0 0 0-.596-.247l.379-.725m.739 1.553a.938.938 0 0 0 .725-.509c.286-.567.086-1.1-.526-1.365a36.214 36.214 0 0 0-1.28-.52 181.236 181.236 0 0 1-1.79 3.343c.46.176.92.36 1.38.552.628.261 1.215.056 1.531-.557.234-.453.085-.78-.04-.944" fill="#7C1710"/>
        <path d="M47.802 63.144c.888.027 1.766.079 2.634.156.157.478.314.972.47 1.482-.756.451-1.528.916-2.317 1.396-.909-.089-1.83-.15-2.762-.182.772-.504 1.529-.994 2.27-1.471a88.573 88.573 0 0 0-.295-1.381" fill="#E5292B"/>
        <path d="M50.907 64.782a77.015 77.015 0 0 0-.471-1.481 44.975 44.975 0 0 0-2.634-.157c.1.448.198.908.295 1.382" fill="#FEFEFE"/>
    </g>
    <path clip-rule="evenodd" d="M69.927 78.66c-.574-2.576-2.667-4.75-4.847-6.122-7.104-4.47-19.677-7.138-24.761-1.64 1.484-3.875 3.532-6.377 6.87-8.079 10.952-5.579 25.774 4.079 22.738 15.841z" stroke="#000" stroke-width=".503" stroke-linecap="round" stroke-linejoin="round"/>
    <path fill-rule="evenodd" clip-rule="evenodd" d="M49.346 67.849c-2.919-.94-6.902-1.507-9.878-.502-3.55 1.198-3.098 4.077-.557 6.181.983-4.11 6.235-6.112 10.434-5.68" fill="#C8C6C5"/>
    <path clip-rule="evenodd" d="M49.346 67.849c-2.919-.94-6.902-1.507-9.878-.502-3.55 1.198-3.098 4.077-.557 6.181.983-4.11 6.235-6.112 10.434-5.68z" stroke="#000" stroke-width=".503" stroke-linecap="round" stroke-linejoin="round"/>
    <path fill-rule="evenodd" clip-rule="evenodd" d="M65.348 72.611c.444-1.469.64-3.555.223-5.398a7.046 7.046 0 0 0-.196-.705 5.898 5.898 0 0 0-.442-1.009 4.577 4.577 0 0 0-1.19-1.395.077.077 0 0 0-.108.008.074.074 0 0 0 .01.105c.439.392.774.875 1.037 1.41.152.31.28.636.384.977.068.221.127.448.177.679.385 1.79.2 3.807-.235 5.228a.174.174 0 0 0 .119.217.178.178 0 0 0 .221-.117M42.57 75.526a3.838 3.838 0 0 1 1.256-1.029c.206-.102.427-.186.666-.243a.041.041 0 0 0 .034-.049.042.042 0 0 0-.05-.032 3.057 3.057 0 0 0-.715.183 2.618 2.618 0 0 0-.833.527 3.544 3.544 0 0 0-.477.557.072.072 0 0 0 .016.102.074.074 0 0 0 .103-.016M49.408 77.827a4.03 4.03 0 0 0-.31-1.198 4.771 4.771 0 0 0-.895-1.387 4.215 4.215 0 0 0-.964-.786.043.043 0 0 0-.058.012.04.04 0 0 0 .013.057c.323.215.621.498.889.818.17.204.325.424.467.653.142.228.27.465.376.705.17.382.29.77.335 1.141.004.04.04.069.081.065.04-.004.07-.04.066-.08M57.826 77.212a8.449 8.449 0 0 1 1.21-1.312c.148-.132.3-.26.46-.38.193-.149.409-.299.637-.418.152-.08.31-.146.47-.188a.041.041 0 0 0 .032-.05.042.042 0 0 0-.05-.03c-.172.032-.34.089-.505.162-.244.107-.475.25-.684.391a5.84 5.84 0 0 0-.93.793c-.28.294-.53.614-.76.948a.071.071 0 0 0 .018.101c.033.023.079.015.102-.017M65.443 77.387c-.063-.256-.258-.628-.567-1.022a5.174 5.174 0 0 0-1.129-1.06 5.09 5.09 0 0 0-1.024-.555.042.042 0 0 0-.056.02c-.009.021 0 .046.022.055.348.165.67.375.963.603.204.16.393.33.567.499.19.185.361.372.51.553.298.365.503.704.571.943.01.039.05.062.09.052.04-.01.063-.05.053-.088" fill="#000"/>
    <path fill-rule="evenodd" clip-rule="evenodd" d="M61.347 75.141c1.076-.065 3.463.618 4.428 1.619.199.207.08.647.067.928-.022.45.018.836.106 1.509a42.976 42.976 0 0 1-1.36-1.585c-.762-.963-2.05-2.124-3.24-2.471M45.918 74.492c-1.05-.244-3.017.271-4.134.818-.26.127-.078.585-.198 1.015-.122.435-.166.86-.37 1.509a43.929 43.929 0 0 0 1.619-1.375c.918-.822 1.85-1.824 3.083-1.967" fill="#000"/>
    <path fill-rule="evenodd" clip-rule="evenodd" d="M45.142 74.54c2.274-.11 4.222 1.835 4.347 4.34.125 2.504-1.62 4.626-3.895 4.735-2.274.109-4.222-1.835-4.347-4.34-.125-2.504 1.62-4.626 3.895-4.736" fill="#FEFEFE"/>
    <path fill-rule="evenodd" clip-rule="evenodd" d="M45.136 74.437a3.834 3.834 0 0 0-2.019.608c-.394.253-.744.58-1.039.957-.682.875-1.064 2.034-1 3.281a4.948 4.948 0 0 0 1.332 3.16c.829.871 1.966 1.383 3.191 1.32 1.224-.062 2.299-.683 3.03-1.63a4.905 4.905 0 0 0 .988-3.26 4.911 4.911 0 0 0-1.324-3.134c-.82-.86-1.946-1.367-3.159-1.304v.002zm.011.208c1.146-.051 2.205.435 2.974 1.253a4.668 4.668 0 0 1 1.238 2.987 4.644 4.644 0 0 1-.952 3.08c-.685.876-1.684 1.45-2.82 1.501-1.133.052-2.18-.429-2.941-1.237a4.63 4.63 0 0 1-1.23-2.962 4.63 4.63 0 0 1 .94-3.057c.27-.35.59-.651.947-.896.271-.187.562-.342.873-.455.307-.113.632-.189.971-.217v.003z" fill="#000"/>
    <path fill-rule="evenodd" clip-rule="evenodd" d="M61.631 75.236c-2.426-.117-4.496 1.798-4.62 4.273-.123 2.475 1.747 4.579 4.173 4.695 2.427.117 4.497-1.798 4.62-4.273.124-2.475-1.746-4.579-4.173-4.695" fill="#FEFEFE"/>
    <path fill-rule="evenodd" clip-rule="evenodd" d="M61.637 75.13a4.469 4.469 0 0 0-3.293 1.216 4.65 4.65 0 0 0-1.463 3.157 4.645 4.645 0 0 0 1.125 3.296c.78.9 1.901 1.49 3.17 1.554a4.512 4.512 0 0 0 3.324-1.228 4.69 4.69 0 0 0 1.474-3.185 4.66 4.66 0 0 0-1.14-3.32 4.412 4.412 0 0 0-1.116-.92 4.23 4.23 0 0 0-1.007-.417 4.351 4.351 0 0 0-1.075-.15v-.002zm-.01.208a4.388 4.388 0 0 1 1.92.638c.383.237.729.528 1.023.867a4.366 4.366 0 0 1 1.065 3.08 4.37 4.37 0 0 1-1.357 2.974 4.198 4.198 0 0 1-3.087 1.16 4.193 4.193 0 0 1-2.97-1.438 4.383 4.383 0 0 1-1.08-3.104 4.408 4.408 0 0 1 1.367-3 4.241 4.241 0 0 1 3.118-1.174v-.003z" fill="#000"/>
    <path fill-rule="evenodd" clip-rule="evenodd" d="M46.228 76.64c1.636.11 2.866 1.598 2.746 3.32-.121 1.723-1.547 3.031-3.183 2.92-1.636-.11-2.866-1.598-2.746-3.32.121-1.722 1.547-3.031 3.183-2.92M60.386 77.112c-1.62.11-2.842 1.554-2.725 3.224.117 1.67 1.528 2.937 3.149 2.828 1.62-.11 2.841-1.554 2.724-3.224-.117-1.67-1.527-2.937-3.148-2.828" fill="#020303"/>
    <path fill-rule="evenodd" clip-rule="evenodd" d="M43.78 79.397c-.225.99.025 1.73.437 2.238.241.297.565.506.917.64.277.104.578.163.883.155a2.6 2.6 0 0 0 1.234-.33c.767-.446 1.377-1.23 1.279-2.324a.32.32 0 0 0-.306-.334.321.321 0 0 0-.34.3c-.08.385-.289.657-.53.878-.144.132-.32.206-.497.28-.257.106-.538.11-.807.091-.201-.014-.394-.059-.565-.153-.372-.207-.627-.614-.583-1.288a.557.557 0 0 0-.482-.627.565.565 0 0 0-.64.474M61.809 79.837c.043.65-.21 1.038-.576 1.235a1.36 1.36 0 0 1-.556.147c-.265.018-.54.017-.794-.085-.174-.07-.347-.14-.49-.266-.238-.212-.446-.475-.526-.848a.321.321 0 0 0-.34-.3.32.32 0 0 0-.305.334c-.098 1.073.51 1.843 1.274 2.282.37.212.795.309 1.211.321.3.01.595-.047.867-.147.233-.085.453-.202.64-.36.581-.493.98-1.304.716-2.469a.565.565 0 0 0-.64-.472.558.558 0 0 0-.481.628" fill="#8F1913"/>
    <path fill-rule="evenodd" clip-rule="evenodd" d="M44.755 77.513c.337-.097.682.06.77.353.089.293-.114.61-.45.707-.338.098-.683-.06-.77-.353-.089-.293.114-.61.45-.707M46.879 80.823a.535.535 0 0 1 .665.349.523.523 0 0 1-.365.647.536.536 0 0 1-.666-.348.522.522 0 0 1 .366-.648M59.402 77.673c.336-.097.681.06.77.353.088.293-.115.61-.451.707-.337.098-.683-.06-.77-.353-.088-.292.114-.609.45-.707M61.834 80.815a.535.535 0 0 1 .665.349.523.523 0 0 1-.366.648.535.535 0 0 1-.665-.35.523.523 0 0 1 .366-.647" fill="#FEFEFE"/>
    <path fill-rule="evenodd" clip-rule="evenodd" d="M48.257 69.364c-.281-.12-1.388-.36-2.452-.382-.687-.015-1.343.098-1.775.293a4.84 4.84 0 0 0-.94.628 5.407 5.407 0 0 0-1.052 1.264c-.457.752-.758 1.592-.946 2.434a.26.26 0 0 0 .172.33c.14.043.29-.033.335-.17.313-.723.741-1.41 1.26-2.025.296-.35.63-.657.994-.934.232-.178.474-.346.74-.482.297-.175.772-.262 1.269-.325.943-.121 1.951-.15 2.219-.093a.29.29 0 0 0 .363-.183.282.282 0 0 0-.187-.355" fill="#000"/>
    <mask id="z" mask-type="alpha" maskUnits="userSpaceOnUse" x="78" y="94" width="5" height="10">
        <path fill-rule="evenodd" clip-rule="evenodd" d="M78.723 97.883c.174.537.252 1.319.174 2.43-.156 2.217 1.893 3.158 3.021 2.745.966-.354-.257-.79-.444-1.815-.449-2.438.948-4.395-.496-6.7" fill="#fff"/>
    </mask>
    <g mask="url(#z)">
        <path fill-rule="evenodd" clip-rule="evenodd" d="M80.24 93.668c1.126 2.733-.462 5.79.28 8.594.172.652.848 2.554 1.821 2.389.792-.135.97-2.248 1.015-2.831.17-2.201.04-4.473-.904-6.512-.32-.69-1.049-1.79-1.945-1.808" fill="#BA1918"/>
    </g>
    <path d="M78.723 97.883c.174.537.252 1.319.174 2.43-.156 2.217 1.893 3.158 3.021 2.745.966-.354-.257-.79-.444-1.815-.449-2.438.948-4.395-.496-6.7" stroke="#000" stroke-width=".503" stroke-linecap="round" stroke-linejoin="round"/>
</svg>
