<svg width="250" height="180" viewBox="0 0 250 180" fill="none" xmlns="http://www.w3.org/2000/svg">
<path opacity="0.05" d="M234.668 179.913C234.668 179.913 265.386 140.383 239.863 97.5902C217.216 59.6207 183.257 69.3326 163.884 84.7458C155.63 91.3035 139.413 78.4374 119.159 39.796C91.5541 -12.9039 -4.14116 19.0607 13.3107 100.127C21.7575 139.353 -12.3841 140.784 5.01408 180L234.668 179.913Z" fill="#333739"/>
<path opacity="0.3" fill-rule="evenodd" clip-rule="evenodd" d="M71.9368 175.796C71.9368 175.796 41.9457 175.825 42.0001 175.067C42.1823 172.529 65.7672 174.015 67.704 173.252C68.6548 172.879 67.6034 172.064 69.2791 171.537C75.9438 169.44 99.1301 171.343 107.409 171.328C129.959 171.287 135.669 170.344 138.287 170.222C145.635 169.883 166.422 170.015 172.273 170.082C184.306 170.218 216.673 169.66 215.989 171.804C215.683 172.766 184.603 174.795 179.312 175.055C174.784 175.276 171.673 176.612 167.613 177.396C161.926 178.494 155.689 179.157 149.551 179.574C123.836 181.321 97.4748 177.222 71.9368 175.796Z" fill="#333739"/>
<path d="M51.6152 175.928L48.1693 175.696C48.1569 175.695 48.1446 175.694 48.1449 175.681L48.7111 166.332C48.7114 166.319 48.7241 166.306 48.7364 166.307L56.37 166.791C56.3824 166.791 56.3824 166.791 56.3824 166.791C56.4776 166.961 59.8486 172.795 66.878 174.864C67.8858 175.16 68.572 176.008 68.5141 176.945C68.5138 176.959 68.5011 176.972 68.4888 176.971L54.1597 176.089" fill="#333739"/>
<path d="M48.7003 166.046L56.2375 166.524L57.961 169.078C57.961 169.078 55.9108 170.803 53.4755 170.649C51.0403 170.495 48.4985 169.096 48.4985 169.096L48.6753 166.073L48.7003 166.046Z" fill="#FFDDC5"/>
<path fill-rule="evenodd" clip-rule="evenodd" d="M66.304 124.669L67.7402 114.652C67.7402 114.652 73.9058 87.3697 75.7513 79.5023L59.0534 74.0303C59.0534 74.0303 57.4576 78.88 55.5015 91.898C55.1836 93.6016 54.8747 95.4813 54.6019 97.5269C54.293 99.8425 54.0241 102.37 53.8349 105.093C53.5144 109.708 53.7049 120.527 53.7049 120.527L54.2634 127.652L54.0459 134.627L47 165.997L57.2954 168.383C57.2954 168.383 62.3145 151.185 64.6889 135.793C65.111 133.045 66.6887 129.758 66.304 127.24C66.304 127.24 66.0311 127.192 66.304 125.954" fill="#333739"/>
<path fill-rule="evenodd" clip-rule="evenodd" d="M53.834 106.377L65.2748 127.018C65.3932 126.474 65.5373 125.835 65.6956 125.111C66.2143 122.775 66.9272 119.576 67.7393 115.935C69.6105 107.556 73.905 88.6521 75.7504 80.7847L59.0525 75.314C59.0525 75.314 57.4567 80.1637 55.5006 93.1804C55.1827 94.8853 54.8738 96.765 54.601 98.8093C54.2921 101.126 54.0232 103.653 53.834 106.377Z" fill="#333739"/>
<path d="M76.4586 175.845L73.7734 175.812C73.7637 175.812 73.7541 175.811 73.7533 175.8L73.4935 168.072C73.4927 168.06 73.5015 168.049 73.5112 168.049L79.4574 168.099C79.467 168.099 79.467 168.099 79.467 168.099C79.5534 168.235 82.5991 172.887 88.196 174.271C88.9983 174.468 89.5929 175.136 89.6181 175.911C89.6189 175.922 89.61 175.933 89.6004 175.933L78.4407 175.862" fill="#333739"/>
<path d="M73.4637 167.839L79.3348 167.888L80.86 169.914C80.86 169.914 79.4016 171.429 77.5046 171.413C75.6076 171.397 73.5353 170.361 73.5353 170.361L73.4464 167.863L73.4637 167.839Z" fill="#FFDDC5"/>
<path fill-rule="evenodd" clip-rule="evenodd" d="M66.2109 76.677C66.2109 76.677 66.2367 76.8351 66.2804 77.136C66.2997 77.2658 66.3255 77.4227 66.3525 77.6052C66.5365 78.8151 66.8866 81.1346 67.3396 84.1509C68.5248 92.0645 70.4012 104.777 71.7576 114.819C72.8168 122.67 73.558 128.89 73.3984 129.909C72.9236 132.973 72.7395 168.387 72.7395 168.387C75.1152 169.463 81.3684 168.618 81.3684 168.618C81.3684 168.618 85.7182 135.673 84.6076 131.212C83.497 126.751 84.7196 122.793 84.7196 122.793C88.1222 97.6549 86.8392 83.9413 85.5278 77.424C85.1468 75.5288 84.762 74.2418 84.4892 73.4614C84.2589 72.7966 84.107 72.4958 84.107 72.4958C73.4036 70.0593 66.2109 76.677 66.2109 76.677Z" fill="#333739"/>
<path fill-rule="evenodd" clip-rule="evenodd" d="M75.217 31.0889C75.2615 31.0914 72.3271 34.4349 69.2649 34.7588C66.3844 35.0655 63.792 33.4206 63.8253 33.3985C64.8429 32.7496 64.1437 30.0475 61.5803 23.5517L62.1166 23.4563L71.1445 21.8443C71.1445 21.8443 71.982 24.5542 72.9461 27.0382C73.754 29.1254 74.6521 31.0523 75.217 31.0889Z" fill="#FFDDC5"/>
<path opacity="0.1" fill-rule="evenodd" clip-rule="evenodd" d="M71.4027 22.5739C71.4027 22.5739 72.2201 25.2181 73.1599 27.642C68.535 29.2971 64.488 26.0714 62.5938 24.1458L71.4027 22.5739Z" fill="#333739"/>
<path d="M75.095 24.2369C75.095 24.2369 63.1261 29.2995 59.5217 21.9141C56.1878 15.0831 52.1481 11.2106 59.5253 7.09468C66.9025 2.97873 69.7498 5.0787 71.5553 7.25621C73.3607 9.43372 78.0653 22.4923 75.095 24.2369Z" fill="#FFDDC5"/>
<path d="M67.9498 0C72.6867 2.27443 72.5961 4.96239 69.3605 6.53253C66.1249 8.10912 61.1809 9.93771 61.1809 9.93771C61.1809 9.93771 64.7207 21.8914 63.064 19.3004C61.4074 16.7158 62.6952 15.669 60.5273 14.3057C58.3659 12.9423 57.5441 14.7709 58.1589 16.1795C58.7736 17.5945 61.0256 24.1335 61.0256 24.1335C61.0256 24.1335 56.0234 18.1502 54.6774 13.8469C53.3378 9.54356 53.7131 5.32423 58.3012 4.28394C62.8958 3.24365 63.9506 4.41317 66.3514 2.87535C68.7522 1.34398 67.9498 0 67.9498 0Z" fill="#333739"/>
<path d="M69.716 6.61436L70.8484 5.92944L72.6733 10.6269L69.6836 6.95035L69.716 6.61436Z" fill="#333739"/>
<path fill-rule="evenodd" clip-rule="evenodd" d="M64.7735 32.8924C64.7735 32.8924 68.1888 34.9074 72.6421 32.2179L77.6878 77.3753L64.9112 78.9163L64.7735 32.8924Z" fill="white"/>
<path fill-rule="evenodd" clip-rule="evenodd" d="M85.269 48.9153C87.7773 72.662 90.9841 74.4211 88.6608 76.9832C88.2066 77.4835 80.2406 80.6147 76.0091 82.0174C75.0156 82.3457 71.4589 31.1408 71.4589 31.1408L71.2959 30.2146C71.2959 30.2146 70.1276 30.5698 69.3565 30.5877C68.6137 30.6048 67.4718 30.3266 67.4718 30.3266L68.4593 83.1312C62.6872 83.154 57.2135 81.8158 56.7192 80.8355C54.4792 76.3904 58.5091 66.2122 56.2495 59.2647C56.0125 58.5254 55.7335 57.7289 55.4137 56.8622C53.6557 52.1155 52.3192 50.5905 55.5119 42.2383C58.4094 34.6728 61.6144 28.43 61.9909 28.5957C62.2045 28.6904 62.4137 28.7804 62.6199 28.8669C72.6168 33.0758 72.8108 28.2413 72.8108 28.2413C72.8108 28.2413 84.0466 37.3321 85.269 48.9153Z" fill="#FF6666"/>
<path fill-rule="evenodd" clip-rule="evenodd" d="M72.8125 28.2393C72.8125 28.2393 79.5387 28.2595 83.0966 30.9087C86.6533 33.5581 85.3757 33.7122 88.6451 42.066C89.3182 44.8922 80.4912 45.8092 80.4912 45.8092L72.8125 28.2393Z" fill="#FF6666"/>
<path d="M151.577 175H88.4344C82.6755 175 78 170.347 78 164.615V12.385C78 6.65352 82.6755 2.00024 88.4344 2.00024H151.566C157.324 2.00024 162 6.65352 162 12.385V164.627C162 170.358 157.336 175 151.577 175Z" fill="white" stroke="#333739" stroke-width="0.926533" stroke-miterlimit="10"/>
<path d="M134.153 6.64193H107.012C105.803 6.64193 104.834 5.66587 104.834 4.47418V2H136.331V4.47418C136.343 5.67722 135.362 6.64193 134.153 6.64193Z" fill="#333739"/>
<path opacity="0.1" d="M154.371 47.2842H85.629C83.9869 47.2842 82.6641 45.9676 82.6641 44.3333V16.5612C82.6641 14.9269 83.9869 13.6104 85.629 13.6104H154.371C156.013 13.6104 157.336 14.9269 157.336 16.5612V44.3333C157.336 45.9676 156.013 47.2842 154.371 47.2842Z" fill="#333739"/>
<path d="M140.72 22.3269H90.4751C90.1786 22.3269 89.9277 22.0885 89.9277 21.7821V20.545C89.9277 20.2499 90.1672 20.0002 90.4751 20.0002H140.72C141.017 20.0002 141.267 20.2386 141.267 20.545V21.7821C141.256 22.0885 141.017 22.3269 140.72 22.3269Z" fill="white"/>
<path d="M143.046 28.1262H92.8013C92.5048 28.1262 92.2539 27.8879 92.2539 27.5814V26.3443C92.2539 26.0493 92.4934 25.7996 92.8013 25.7996H143.046C143.343 25.7996 143.594 26.0379 143.594 26.3443V27.5814C143.594 27.8879 143.354 28.1262 143.046 28.1262Z" fill="white"/>
<path d="M99.9638 41.4845H92.7338C91.5136 41.4845 90.5215 40.4971 90.5215 39.2827V32.0758C90.5215 30.8614 91.5136 29.874 92.7338 29.874H99.9638C101.184 29.874 102.176 30.8614 102.176 32.0758V39.2714C102.176 40.4971 101.184 41.4845 99.9638 41.4845Z" stroke="#FF6666" stroke-width="0.6949" stroke-miterlimit="10"/>
<path d="M116.294 41.4845H109.064C107.844 41.4845 106.852 40.4971 106.852 39.2827V32.0758C106.852 30.8614 107.844 29.874 109.064 29.874H116.294C117.514 29.874 118.506 30.8614 118.506 32.0758V39.2714C118.506 40.4971 117.514 41.4845 116.294 41.4845Z" stroke="#FF6666" stroke-width="0.6949" stroke-miterlimit="10"/>
<path d="M132.624 41.4845H125.394C124.174 41.4845 123.182 40.4971 123.182 39.2827V32.0758C123.182 30.8614 124.174 29.874 125.394 29.874H132.624C133.844 29.874 134.836 30.8614 134.836 32.0758V39.2714C134.848 40.4971 133.856 41.4845 132.624 41.4845Z" stroke="#FF6666" stroke-width="0.6949" stroke-miterlimit="10"/>
<path d="M148.966 41.4845H141.736C140.516 41.4845 139.523 40.4971 139.523 39.2827V32.0758C139.523 30.8614 140.516 29.874 141.736 29.874H148.966C150.186 29.874 151.178 30.8614 151.178 32.0758V39.2714C151.178 40.4971 150.186 41.4845 148.966 41.4845Z" stroke="#FF6666" stroke-width="0.6949" stroke-miterlimit="10"/>
<path opacity="0.7" d="M96.3483 37.4099C97.3119 37.4099 98.0931 36.6325 98.0931 35.6735C98.0931 34.7145 97.3119 33.937 96.3483 33.937C95.3847 33.937 94.6035 34.7145 94.6035 35.6735C94.6035 36.6325 95.3847 37.4099 96.3483 37.4099Z" fill="#333739"/>
<path opacity="0.7" d="M112.678 37.4099C113.642 37.4099 114.423 36.6325 114.423 35.6735C114.423 34.7145 113.642 33.937 112.678 33.937C111.715 33.937 110.934 34.7145 110.934 35.6735C110.934 36.6325 111.715 37.4099 112.678 37.4099Z" fill="#333739"/>
<path opacity="0.7" d="M129.008 37.4099C129.972 37.4099 130.753 36.6325 130.753 35.6735C130.753 34.7145 129.972 33.937 129.008 33.937C128.045 33.937 127.264 34.7145 127.264 35.6735C127.264 36.6325 128.045 37.4099 129.008 37.4099Z" fill="#333739"/>
<path opacity="0.7" d="M145.339 37.4099C146.302 37.4099 147.083 36.6325 147.083 35.6735C147.083 34.7145 146.302 33.937 145.339 33.937C144.375 33.937 143.594 34.7145 143.594 35.6735C143.594 36.6325 144.375 37.4099 145.339 37.4099Z" fill="#333739"/>
<path opacity="0.1" d="M149.364 57.1924H85.1157C84.8192 57.1924 84.5684 56.954 84.5684 56.6476V55.4105C84.5684 55.1154 84.8078 54.8657 85.1157 54.8657H149.353C149.65 54.8657 149.9 55.1041 149.9 55.4105V56.6476C149.912 56.9427 149.661 57.1924 149.364 57.1924Z" fill="#333739"/>
<path opacity="0.1" d="M155.193 65.3183H90.9556C90.6591 65.3183 90.4082 65.08 90.4082 64.7736V63.5365C90.4082 63.2414 90.6477 62.9917 90.9556 62.9917H155.193C155.489 62.9917 155.74 63.23 155.74 63.5365V64.7736C155.74 65.0687 155.501 65.3183 155.193 65.3183Z" fill="#333739"/>
<path opacity="0.1" d="M149.364 74.602H85.1157C84.8192 74.602 84.5684 74.3637 84.5684 74.0573V72.8202C84.5684 72.5251 84.8078 72.2754 85.1157 72.2754H149.353C149.65 72.2754 149.9 72.5137 149.9 72.8202V74.0573C149.912 74.3637 149.661 74.602 149.364 74.602Z" fill="#333739"/>
<path opacity="0.1" d="M152.866 83.8974H88.6177C88.3212 83.8974 88.0703 83.6591 88.0703 83.3527V82.1156C88.0703 81.8205 88.3098 81.5708 88.6177 81.5708H152.855C153.152 81.5708 153.402 81.8091 153.402 82.1156V83.3527C153.414 83.6478 153.163 83.8974 152.866 83.8974Z" fill="#333739"/>
<path opacity="0.1" d="M99.1986 94.339H86.2896C85.9931 94.339 85.7422 94.1006 85.7422 93.7942V92.5685C85.7422 92.2734 85.9817 92.0237 86.2896 92.0237H99.1986C99.4951 92.0237 99.746 92.262 99.746 92.5685V93.8055C99.746 94.1006 99.4951 94.339 99.1986 94.339Z" fill="#333739"/>
<path opacity="0.1" d="M119.031 94.339H106.122C105.825 94.339 105.574 94.1006 105.574 93.7942V92.5685C105.574 92.2734 105.814 92.0237 106.122 92.0237H119.031C119.327 92.0237 119.578 92.262 119.578 92.5685V93.8055C119.578 94.1006 119.327 94.339 119.031 94.339Z" fill="#333739"/>
<path opacity="0.1" d="M142.363 94.339H129.454C129.157 94.339 128.906 94.1006 128.906 93.7942V92.5685C128.906 92.2734 129.146 92.0237 129.454 92.0237H142.363C142.659 92.0237 142.91 92.262 142.91 92.5685V93.8055C142.91 94.1006 142.659 94.339 142.363 94.339Z" fill="#333739"/>
<path opacity="0.1" d="M151.691 107.118H87.4536C87.1571 107.118 86.9062 106.88 86.9062 106.574V105.337C86.9062 105.041 87.1457 104.792 87.4536 104.792H151.691C151.987 104.792 152.238 105.03 152.238 105.337V106.574C152.238 106.869 151.999 107.118 151.691 107.118Z" fill="#333739"/>
<path opacity="0.1" d="M151.691 126.855H87.4536C87.1571 126.855 86.9062 126.617 86.9062 126.31V125.073C86.9062 124.778 87.1457 124.529 87.4536 124.529H151.691C151.987 124.529 152.238 124.767 152.238 125.073V126.31C152.238 126.606 151.999 126.855 151.691 126.855Z" fill="#333739"/>
<path opacity="0.1" d="M145.055 154.253H94.5934C93.0653 154.253 91.8223 153.016 91.8223 151.495V144.243C91.8223 142.722 93.0653 141.485 94.5934 141.485H145.044C146.572 141.485 147.815 142.722 147.815 144.243V151.495C147.826 153.016 146.583 154.253 145.055 154.253Z" fill="#333739"/>
<path d="M76.2266 66.1696L55.3117 61.3752L56.6836 54.8685L46.1031 51.4504L44 65.4783C44 65.4783 44.7054 69.5877 48.9828 69.9302L76.2331 72.98V66.1696H76.2266Z" fill="#FFDDC5"/>
<path d="M84.0888 70.6733C84.0888 70.6733 83.7005 71.397 83.4029 71.7007C83.1052 72.0043 82.031 72.3856 82.031 72.3856C82.031 72.3856 80.5232 73.2449 79.9731 73.4129C79.4231 73.5809 78.4718 73.4129 78.4718 73.4129H77.6694L75.8574 73.0446V66.2278L77.5723 66.5703L78.6012 66.2278L79.6301 65.5429L82.031 61.4334L83.0599 60.0636L83.7458 59.3787H84.6518L85.1177 59.7211V60.3802L84.7748 61.0909L83.8947 63.4365L89.9129 61.7759H90.5988L91.2848 62.1183V62.4608V62.8032L90.9418 63.1457L85.7972 64.858L92.3137 64.5155H92.6567L92.9997 64.858V65.0777V65.3814V65.6075L92.6567 65.8853L91.9707 66.2278L90.2559 66.5703L85.7972 67.2552L91.9707 67.5976L92.6567 68.2825V68.9675L91.6278 69.6524H91.0518L86.1402 69.3099L89.9129 70.3373L90.2559 70.6797V71.0222L89.9129 71.3647L89.5699 71.7071H88.8969" fill="#FFDDC5"/>
<path d="M44.1562 65.6849C44.1562 65.6849 44.8616 69.7944 49.1391 70.1369L76.3894 73.1867V66.3698L55.4744 61.5754" fill="#FFDDC5"/>
<path fill-rule="evenodd" clip-rule="evenodd" d="M61.7148 47.3943C61.5185 50.8356 56.6672 59.2571 56.4388 59.8998C56.4388 59.8998 50.3278 54.7754 44.8749 55.3592C44.8749 55.3592 47.2005 39.6119 50.5711 35.3202C50.5711 35.3202 52.664 31.1826 62.6329 29.0621" fill="#FF6666"/>
<path fill-rule="evenodd" clip-rule="evenodd" d="M67.5004 29.9999L67.5924 31.4998L71.4302 31.0252L70.8847 29.7767L67.5004 29.9999Z" fill="#FFDDC5"/>
<path fill-rule="evenodd" clip-rule="evenodd" d="M182.284 147.929C187.569 148.736 190.867 140.82 192.723 137.192C193.783 135.122 194.876 132.96 196.394 131.188C199.562 127.494 203.728 126.762 204.281 128.266C204.745 129.525 203.048 129.459 201.319 131.131C200.363 132.057 199.336 133.496 199.066 135.646C198.076 143.533 198.352 146.046 195.196 151.891C194.445 153.279 193.617 154.691 192.484 155.805C187.046 161.153 181.778 154.013 182.284 147.929Z" fill="#EF383D"/>
<mask id="mask0_2634_444814" style="mask-type:luminance" maskUnits="userSpaceOnUse" x="182" y="127" width="23" height="31">
<path fill-rule="evenodd" clip-rule="evenodd" d="M196.394 131.189C194.876 132.961 193.783 135.121 192.723 137.191C190.867 140.82 187.569 148.736 182.284 147.928C181.777 154.013 187.046 161.153 192.485 155.805C193.618 154.69 194.446 153.279 195.196 151.89C198.352 146.047 198.077 143.533 199.066 135.647C199.336 133.496 200.363 132.057 201.32 131.131C203.047 129.458 204.745 129.525 204.281 128.266C204.104 127.785 203.558 127.531 202.794 127.531C201.167 127.532 198.549 128.675 196.394 131.189Z" fill="white"/>
</mask>
<g mask="url(#mask0_2634_444814)">
<path fill-rule="evenodd" clip-rule="evenodd" d="M206.291 127.752C200.779 127.865 197.112 133.012 195.949 137.931C195.362 140.414 195.252 142.984 194.639 145.467C193.509 150.042 191.349 154.456 188.156 157.939C201.435 155.641 197.539 146.804 201.561 137.309C202.118 135.993 202.808 134.76 203.581 133.561C204.565 132.034 206.9 129.854 206.291 127.752Z" fill="#BC2025"/>
</g>
<mask id="mask1_2634_444814" style="mask-type:luminance" maskUnits="userSpaceOnUse" x="182" y="127" width="23" height="31">
<path fill-rule="evenodd" clip-rule="evenodd" d="M196.394 131.189C194.876 132.961 193.783 135.121 192.723 137.191C190.867 140.82 187.569 148.736 182.284 147.928C181.777 154.013 187.046 161.153 192.485 155.805C193.618 154.69 194.446 153.279 195.196 151.89C198.352 146.047 198.077 143.533 199.066 135.647C199.336 133.496 200.363 132.057 201.32 131.131C203.047 129.458 204.745 129.525 204.281 128.266C204.104 127.785 203.558 127.531 202.794 127.531C201.167 127.532 198.549 128.675 196.394 131.189Z" fill="white"/>
</mask>
<g mask="url(#mask1_2634_444814)">
<path fill-rule="evenodd" clip-rule="evenodd" d="M189.35 145.145C191.59 142.812 192.638 139.666 193.989 136.803C196.211 132.094 198.248 128.711 203.229 127.097C200.763 126.811 198.812 128.051 197.066 129.678C194.063 132.474 192.02 135.986 190 139.514C189.356 140.638 187.673 143.413 187.494 144.665C187.922 144.566 188.923 145.059 189.35 145.145Z" fill="#F48EAA"/>
</g>
<path fill-rule="evenodd" clip-rule="evenodd" d="M182.318 147.726C182.256 147.717 182.193 147.732 182.145 147.767C182.095 147.803 182.064 147.856 182.059 147.912H182.079C181.774 151.575 183.528 155.607 186.147 157.19C188.007 158.315 190.305 158.241 192.631 155.954C193.094 155.501 193.506 154.997 193.884 154.467C194.445 153.68 194.927 152.832 195.381 151.992C196.715 149.523 197.44 147.644 197.908 145.709C198.552 143.041 198.702 140.266 199.279 135.674C199.395 134.748 199.656 133.959 199.992 133.288C200.412 132.444 200.952 131.789 201.47 131.287C202.184 130.597 202.894 130.21 203.44 129.901C203.85 129.668 204.172 129.47 204.361 129.238C204.582 128.966 204.654 128.648 204.485 128.189C204.34 127.795 203.993 127.518 203.487 127.392C202.826 127.227 201.874 127.323 200.802 127.721C199.36 128.258 197.689 129.341 196.228 131.046C195.612 131.764 195.065 132.547 194.561 133.36C193.814 134.567 193.164 135.846 192.526 137.09C191.44 139.212 189.86 142.812 187.67 145.251C186.184 146.905 184.417 148.026 182.318 147.706V147.726ZM182.471 148.182C182.272 151.623 183.91 155.353 186.361 156.834C188.079 157.87 190.193 157.765 192.338 155.655C192.783 155.218 193.18 154.733 193.543 154.222C194.093 153.449 194.566 152.616 195.011 151.79C196.322 149.361 197.037 147.513 197.495 145.608C198.134 142.953 198.28 140.191 198.853 135.621C198.976 134.64 199.251 133.804 199.606 133.094C200.051 132.201 200.622 131.506 201.17 130.976C201.916 130.253 202.656 129.846 203.227 129.522C203.578 129.322 203.862 129.162 204.024 128.963C204.156 128.801 204.177 128.612 204.078 128.341C203.978 128.071 203.727 127.902 203.382 127.816C202.784 127.667 201.924 127.77 200.955 128.133C199.568 128.649 197.966 129.695 196.562 131.333C195.961 132.035 195.427 132.799 194.936 133.593C194.196 134.791 193.552 136.059 192.921 137.294C191.822 139.443 190.218 143.082 188.004 145.552C186.464 147.269 184.627 148.419 182.471 148.182Z" fill="#333739"/>
<path fill-rule="evenodd" clip-rule="evenodd" d="M194.167 151.419C195.928 148.554 198.131 145.363 201.516 144.344C205.4 143.175 209.339 145.456 208.715 149.597C207.905 154.968 200.023 154.41 200.89 149.746C197.911 154.444 195.92 159.824 196.149 165.472C191.06 163.317 188.615 159.534 191.721 154.445C192.335 153.437 193.292 152.224 194.167 151.419Z" fill="#EF383D"/>
<mask id="mask2_2634_444814" style="mask-type:luminance" maskUnits="userSpaceOnUse" x="190" y="144" width="19" height="22">
<path fill-rule="evenodd" clip-rule="evenodd" d="M203.554 144.039C202.89 144.039 202.202 144.138 201.516 144.344C198.13 145.362 195.928 148.553 194.166 151.419C193.291 152.224 192.336 153.438 191.721 154.445C188.615 159.534 191.06 163.317 196.148 165.471C195.92 159.824 197.91 154.445 200.89 149.745C200.023 154.411 207.905 154.968 208.714 149.596C209.229 146.188 206.65 144.039 203.555 144.039C203.554 144.039 203.554 144.039 203.554 144.039Z" fill="white"/>
</mask>
<g mask="url(#mask2_2634_444814)">
<path fill-rule="evenodd" clip-rule="evenodd" d="M200.947 150.918C202.926 152.66 206.185 151.88 207.045 149.368C207.461 148.151 207.473 146.901 206.907 145.726C206.713 145.323 206.45 144.932 206.171 144.584C206.07 144.458 205.967 144.336 205.862 144.214C205.813 144.156 205.638 144.052 205.713 144.038C206.893 143.809 208.482 145.458 208.967 146.361C210.751 149.68 208.608 155.059 204.909 155.996C202.358 156.642 200.431 153.577 200.947 150.918Z" fill="#BC2025"/>
</g>
<mask id="mask3_2634_444814" style="mask-type:luminance" maskUnits="userSpaceOnUse" x="190" y="144" width="19" height="22">
<path fill-rule="evenodd" clip-rule="evenodd" d="M203.554 144.039C202.89 144.039 202.202 144.138 201.516 144.344C198.13 145.362 195.928 148.553 194.166 151.419C193.291 152.224 192.336 153.438 191.721 154.445C188.615 159.534 191.06 163.317 196.148 165.471C195.92 159.824 197.91 154.445 200.89 149.745C200.023 154.411 207.905 154.968 208.714 149.596C209.229 146.188 206.65 144.039 203.555 144.039C203.554 144.039 203.554 144.039 203.554 144.039Z" fill="white"/>
</mask>
<g mask="url(#mask3_2634_444814)">
<path fill-rule="evenodd" clip-rule="evenodd" d="M193.405 157.311C193.666 155.692 194.155 154.121 194.765 152.604C196.097 149.285 197.661 146.84 200.889 145.176C202.425 144.384 204.128 144.043 205.868 144.479C204.263 143.455 201.939 143.961 200.326 144.809C197.471 146.31 195.113 148.99 193.865 151.965C193.436 152.992 192.698 156.138 193.405 157.311Z" fill="#F48EAA"/>
</g>
<mask id="mask4_2634_444814" style="mask-type:luminance" maskUnits="userSpaceOnUse" x="190" y="144" width="19" height="22">
<path fill-rule="evenodd" clip-rule="evenodd" d="M203.554 144.039C202.89 144.039 202.202 144.138 201.516 144.344C198.13 145.362 195.928 148.553 194.166 151.419C193.291 152.224 192.336 153.438 191.721 154.445C188.615 159.534 191.06 163.317 196.148 165.471C195.92 159.824 197.91 154.445 200.89 149.745C200.023 154.411 207.905 154.968 208.714 149.596C209.229 146.188 206.65 144.039 203.555 144.039C203.554 144.039 203.554 144.039 203.554 144.039Z" fill="white"/>
</mask>
<g mask="url(#mask4_2634_444814)">
<path fill-rule="evenodd" clip-rule="evenodd" d="M194.582 160.578C194.576 159.422 194.72 158.282 194.943 157.148C195.631 153.625 197.937 148.17 201.861 147.218C202.746 147.004 203.635 147.035 204.43 147.519C201.992 146.478 200.547 149.211 200.517 151.245C200.477 154.033 198.952 156.617 198.283 159.326C198.133 159.93 198.031 161.628 197.716 162.145C196.805 163.648 194.843 161.947 194.582 160.578Z" fill="#BC2025"/>
</g>
<path fill-rule="evenodd" clip-rule="evenodd" d="M200.61 150.606C199.333 152.725 198.266 154.974 197.517 157.319C196.683 159.932 196.245 162.664 196.358 165.464C196.362 165.535 196.327 165.604 196.268 165.645C196.208 165.686 196.132 165.695 196.066 165.665C193.486 164.573 191.579 163.061 190.693 161.19C189.786 159.275 189.932 156.976 191.545 154.337C191.856 153.826 192.255 153.262 192.687 152.725C193.119 152.187 193.584 151.675 194.027 151.267L193.974 151.3C195.039 149.568 196.265 147.72 197.811 146.293C198.862 145.325 200.059 144.549 201.451 144.13C203.417 143.539 205.395 143.807 206.829 144.73C208.347 145.707 209.265 147.412 208.93 149.629C208.535 152.251 206.531 153.525 204.595 153.645C203.215 153.731 201.872 153.224 201.153 152.216C200.838 151.774 200.639 151.236 200.61 150.606ZM195.927 165.146C195.857 162.414 196.298 159.746 197.112 157.189C197.958 154.533 199.209 151.995 200.706 149.63C200.763 149.543 200.872 149.507 200.968 149.545C201.064 149.583 201.12 149.684 201.101 149.785C200.935 150.678 201.109 151.41 201.504 151.963C202.143 152.858 203.343 153.286 204.569 153.209C206.324 153.1 208.14 151.943 208.497 149.564C208.8 147.547 207.972 145.991 206.591 145.103C205.255 144.245 203.41 144.007 201.58 144.558C200.253 144.957 199.114 145.701 198.114 146.625C196.599 148.024 195.402 149.839 194.359 151.538H194.34C194.33 151.555 194.318 151.572 194.305 151.586V151.571C193.875 151.967 193.426 152.463 193.008 152.984C192.587 153.507 192.2 154.055 191.896 154.553C190.378 157.042 190.213 159.207 191.069 161.011C191.883 162.729 193.609 164.114 195.927 165.146Z" fill="#333739"/>
<path fill-rule="evenodd" clip-rule="evenodd" d="M169.4 147.746C167.899 152.804 156.523 154.018 153.513 145.124C152.435 141.942 151.895 138.705 149.962 135.9C148.64 133.981 146.736 132.303 144.449 131.69C143.894 131.541 142.541 131.207 142.076 131.786C141.544 132.45 142.856 133.283 143.285 133.65C146.309 136.232 146.641 139.927 147.265 149.498C147.696 156.107 150.504 157.243 155.068 158.551C166.214 161.747 172.328 149.744 169.4 147.746Z" fill="#EF383D"/>
<mask id="mask5_2634_444814" style="mask-type:luminance" maskUnits="userSpaceOnUse" x="141" y="131" width="30" height="29">
<path fill-rule="evenodd" clip-rule="evenodd" d="M142.076 131.787C141.544 132.451 142.856 133.283 143.285 133.65C146.309 136.232 146.64 139.927 147.265 149.499C147.696 156.107 150.504 157.244 155.067 158.552C166.214 161.747 172.327 149.744 169.4 147.746C167.899 152.805 156.523 154.018 153.512 145.125C152.435 141.943 151.895 138.705 149.962 135.9C148.64 133.981 146.736 132.303 144.449 131.69C144.131 131.606 143.55 131.458 143.025 131.458C142.634 131.458 142.274 131.54 142.076 131.787Z" fill="white"/>
</mask>
<g mask="url(#mask5_2634_444814)">
<path fill-rule="evenodd" clip-rule="evenodd" d="M169.399 147.747C167.921 154.003 158.376 154.596 155.028 148.611C153.949 146.682 153.097 144.333 152.587 140.638C152.016 136.502 147.015 131.421 145.232 130.586C141.397 128.791 147.984 131.459 149.294 138.687C150.677 146.312 150.948 153.619 157.561 155.947C164.521 158.395 170.987 162.1 173.903 154.953C170.727 144.561 173.339 143.939 169.399 147.747Z" fill="#BC2025"/>
</g>
<mask id="mask6_2634_444814" style="mask-type:luminance" maskUnits="userSpaceOnUse" x="141" y="131" width="30" height="29">
<path fill-rule="evenodd" clip-rule="evenodd" d="M142.076 131.787C141.544 132.451 142.856 133.283 143.285 133.65C146.309 136.232 146.64 139.927 147.265 149.499C147.696 156.107 150.504 157.244 155.067 158.552C166.214 161.747 172.327 149.744 169.4 147.746C167.899 152.805 156.523 154.018 153.512 145.125C152.435 141.943 151.895 138.705 149.962 135.9C148.64 133.981 146.736 132.303 144.449 131.69C144.131 131.606 143.55 131.458 143.025 131.458C142.634 131.458 142.274 131.54 142.076 131.787Z" fill="white"/>
</mask>
<g mask="url(#mask6_2634_444814)">
<path fill-rule="evenodd" clip-rule="evenodd" d="M140.096 132.349C148.292 136.027 145.393 145.851 147.321 154.74C148.058 158.14 150.858 163.652 154.244 161.947C153.16 160.696 153.154 158.325 151.62 157.351C148.676 155.485 148.349 149.43 148.44 145.274C148.551 140.185 146.682 131.458 140.096 132.349Z" fill="#F48EAA"/>
</g>
<path fill-rule="evenodd" clip-rule="evenodd" d="M169.4 147.747C167.899 152.805 156.523 154.018 153.513 145.125C152.435 141.943 151.895 138.705 149.962 135.9C148.64 133.981 146.736 132.303 144.449 131.691C143.894 131.542 142.541 131.208 142.076 131.787C141.544 132.45 142.856 133.283 143.285 133.651C146.309 136.233 146.641 139.928 147.265 149.498C147.696 156.108 150.504 157.244 155.068 158.552C166.214 161.748 172.328 149.744 169.4 147.747Z" stroke="#333739" stroke-width="0.362621" stroke-linecap="round" stroke-linejoin="round"/>
<path fill-rule="evenodd" clip-rule="evenodd" d="M184.521 110.547C191.809 110.262 196.222 112.362 194.329 115.46C194.104 115.827 193.846 116.134 193.585 116.387C192.025 117.896 190.346 118.08 188.652 118.329C187.479 116.12 185.56 112.992 184.521 110.547Z" fill="#C6C7C8"/>
<path fill-rule="evenodd" clip-rule="evenodd" d="M184.521 110.547C191.809 110.262 196.222 112.362 194.329 115.46C194.104 115.827 193.846 116.134 193.585 116.387C192.025 117.896 190.346 118.08 188.652 118.329C187.479 116.12 185.56 112.992 184.521 110.547Z" stroke="#333739" stroke-width="0.362621" stroke-linecap="round" stroke-linejoin="round"/>
<path fill-rule="evenodd" clip-rule="evenodd" d="M186.719 145.661C188.194 145.442 192.801 144.128 193.923 145.109C197.157 147.941 194.499 153.821 193.05 156.767C195.208 161.127 201.716 161.725 201.521 167.581C201.335 173.187 194.868 174.85 190.422 172.843C187.577 171.56 186.54 168.79 185.638 166.01C184 165.371 182.163 165.178 180.435 164.962C178.339 180.213 157.782 176.327 161.799 165.002C160.253 165.055 158.806 164.487 154.781 163.285C153.388 162.868 151.607 162.619 149.71 162.835C150.599 164.981 149.515 167.995 146.522 168.397C142.532 168.933 139.236 164.182 142.053 160.291C145.02 156.19 149.415 155.417 151.667 155.443C156.106 155.493 161.076 157.11 165.296 154.915C167.178 153.937 168.711 152.32 168.845 150.198C169.261 143.603 155.972 142.647 152.779 128.138C149.62 113.787 158.898 104.045 168.859 102.624C179.273 101.139 192.235 106.108 192.947 123.217C193.502 136.569 187.044 138.647 186.719 145.661Z" fill="#EF383D"/>
<mask id="mask7_2634_444814" style="mask-type:luminance" maskUnits="userSpaceOnUse" x="141" y="102" width="61" height="73">
<path fill-rule="evenodd" clip-rule="evenodd" d="M168.859 102.624C158.897 104.044 149.62 113.786 152.779 128.138C155.972 142.646 169.261 143.604 168.845 150.197C168.711 152.321 167.178 153.937 165.296 154.915C161.075 157.109 156.105 155.493 151.667 155.442C149.415 155.417 145.02 156.19 142.053 160.291C139.236 164.182 142.532 168.933 146.522 168.398C149.515 167.994 150.599 164.982 149.71 162.835C151.607 162.619 153.388 162.868 154.781 163.284C158.806 164.487 160.252 165.055 161.799 165.003C157.781 176.328 178.339 180.213 180.435 164.961C182.163 165.179 183.999 165.371 185.638 166.012C186.54 168.79 187.577 171.561 190.421 172.844C194.868 174.85 201.334 173.187 201.521 167.581C201.716 161.726 195.208 161.126 193.05 156.768C194.499 153.821 197.157 147.94 193.923 145.11C192.801 144.128 188.194 145.442 186.719 145.662C187.044 138.647 193.503 136.569 192.947 123.218C192.313 107.986 181.971 102.375 172.36 102.375C171.176 102.375 170.002 102.461 168.859 102.624Z" fill="white"/>
</mask>
<g mask="url(#mask7_2634_444814)">
<path fill-rule="evenodd" clip-rule="evenodd" d="M160.408 117.584C169.021 121.505 177.51 114.047 182.984 114.184C188.203 118.787 188.134 123.639 187.242 129.535C187.789 130.924 188.522 131.345 188.766 131.689C188.549 132.277 186.945 132.526 186.668 133.128C185.03 136.677 183.723 141.306 183.723 144.492C183.723 147.032 183.636 149.185 183.035 151.645C182.414 154.184 178.56 163.496 180.419 165.978C181.201 167.023 186.014 168.053 185.585 165.998C184.676 161.654 188.938 158.893 188.917 160.875C188.818 170.478 194.679 176.485 200.561 171.722C202.115 170.464 203.037 169.655 203.343 167.627C204.189 162.003 197.504 162.146 197.038 156.574C196.784 153.532 197.756 150.634 197.663 147.625C197.576 144.814 196.257 142.284 196.459 139.421C196.89 133.263 199.034 126.825 197.305 120.677C196.3 117.105 193.923 114.5 192.145 111.372C192.15 111.374 192.158 111.375 192.164 111.376C184.096 103.378 168.059 111.986 160.408 117.584Z" fill="#BC2025"/>
</g>
<mask id="mask8_2634_444814" style="mask-type:luminance" maskUnits="userSpaceOnUse" x="141" y="102" width="61" height="73">
<path fill-rule="evenodd" clip-rule="evenodd" d="M168.859 102.624C158.897 104.044 149.62 113.786 152.779 128.138C155.972 142.646 169.261 143.604 168.845 150.197C168.711 152.321 167.178 153.937 165.296 154.915C161.075 157.109 156.105 155.493 151.667 155.442C149.415 155.417 145.02 156.19 142.053 160.291C139.236 164.182 142.532 168.933 146.522 168.398C149.515 167.994 150.599 164.982 149.71 162.835C151.607 162.619 153.388 162.868 154.781 163.284C158.806 164.487 160.252 165.055 161.799 165.003C157.781 176.328 178.339 180.213 180.435 164.961C182.163 165.179 183.999 165.371 185.638 166.012C186.54 168.79 187.577 171.561 190.421 172.844C194.868 174.85 201.334 173.187 201.521 167.581C201.716 161.726 195.208 161.126 193.05 156.768C194.499 153.821 197.157 147.94 193.923 145.11C192.801 144.128 188.194 145.442 186.719 145.662C187.044 138.647 193.503 136.569 192.947 123.218C192.313 107.986 181.971 102.375 172.36 102.375C171.176 102.375 170.002 102.461 168.859 102.624Z" fill="white"/>
</mask>
<g mask="url(#mask8_2634_444814)">
<path fill-rule="evenodd" clip-rule="evenodd" d="M148.072 161.235C149.188 163.216 148.125 166.07 145.98 166.624C142.291 167.579 140.526 163.799 140.484 164.231C140.274 166.337 141.643 168.127 143.47 169.008C146.533 170.485 150.619 169.303 152.036 166.096C153.323 163.183 151.111 161.082 148.072 161.235Z" fill="#BC2025"/>
</g>
<mask id="mask9_2634_444814" style="mask-type:luminance" maskUnits="userSpaceOnUse" x="141" y="102" width="61" height="73">
<path fill-rule="evenodd" clip-rule="evenodd" d="M168.859 102.624C158.897 104.044 149.62 113.786 152.779 128.138C155.972 142.646 169.261 143.604 168.845 150.197C168.711 152.321 167.178 153.937 165.296 154.915C161.075 157.109 156.105 155.493 151.667 155.442C149.415 155.417 145.02 156.19 142.053 160.291C139.236 164.182 142.532 168.933 146.522 168.398C149.515 167.994 150.599 164.982 149.71 162.835C151.607 162.619 153.388 162.868 154.781 163.284C158.806 164.487 160.252 165.055 161.799 165.003C157.781 176.328 178.339 180.213 180.435 164.961C182.163 165.179 183.999 165.371 185.638 166.012C186.54 168.79 187.577 171.561 190.421 172.844C194.868 174.85 201.334 173.187 201.521 167.581C201.716 161.726 195.208 161.126 193.05 156.768C194.499 153.821 197.157 147.94 193.923 145.11C192.801 144.128 188.194 145.442 186.719 145.662C187.044 138.647 193.503 136.569 192.947 123.218C192.313 107.986 181.971 102.375 172.36 102.375C171.176 102.375 170.002 102.461 168.859 102.624Z" fill="white"/>
</mask>
<g mask="url(#mask9_2634_444814)">
<path fill-rule="evenodd" clip-rule="evenodd" d="M146.67 161.723C150.848 159.672 154.382 160.338 158.789 160.843C160.396 161.028 162.03 161.241 163.633 160.893C165.582 160.469 166.944 158.804 168.459 157.626C165.748 160.142 162.785 162.493 161.289 165.99C159.097 164.998 152.722 164.351 150.118 164.442C150.29 163.192 148.269 161.09 146.67 161.723Z" fill="#BC2025"/>
</g>
<mask id="mask10_2634_444814" style="mask-type:luminance" maskUnits="userSpaceOnUse" x="141" y="102" width="61" height="73">
<path fill-rule="evenodd" clip-rule="evenodd" d="M168.859 102.624C158.897 104.044 149.62 113.786 152.779 128.138C155.972 142.646 169.261 143.604 168.845 150.197C168.711 152.321 167.178 153.937 165.296 154.915C161.075 157.109 156.105 155.493 151.667 155.442C149.415 155.417 145.02 156.19 142.053 160.291C139.236 164.182 142.532 168.933 146.522 168.398C149.515 167.994 150.599 164.982 149.71 162.835C151.607 162.619 153.388 162.868 154.781 163.284C158.806 164.487 160.252 165.055 161.799 165.003C157.781 176.328 178.339 180.213 180.435 164.961C182.163 165.179 183.999 165.371 185.638 166.012C186.54 168.79 187.577 171.561 190.421 172.844C194.868 174.85 201.334 173.187 201.521 167.581C201.716 161.726 195.208 161.126 193.05 156.768C194.499 153.821 197.157 147.94 193.923 145.11C192.801 144.128 188.194 145.442 186.719 145.662C187.044 138.647 193.503 136.569 192.947 123.218C192.313 107.986 181.971 102.375 172.36 102.375C171.176 102.375 170.002 102.461 168.859 102.624Z" fill="white"/>
</mask>
<g mask="url(#mask10_2634_444814)">
<path fill-rule="evenodd" clip-rule="evenodd" d="M168.02 148.44C167.386 145.836 162.802 144.223 160.776 141.075C164.536 142.609 166.511 143.659 168.444 145.947C171.527 149.595 169.581 153.96 165.663 156.011C162.456 157.688 158.545 157.58 155.095 156.876C152.545 156.358 149.662 156.391 147.17 157.284C143.444 158.622 140.948 162.042 141.514 166.258C140.786 164.885 140.293 163.106 140.434 161.551C140.709 158.556 143.458 155.998 146.25 155.299C149.677 154.441 153.179 155.137 156.607 155.554C157.928 155.714 159.257 155.745 160.586 155.782C161.404 155.804 169.713 155.958 168.02 148.44Z" fill="#F48EAA"/>
</g>
<mask id="mask11_2634_444814" style="mask-type:luminance" maskUnits="userSpaceOnUse" x="141" y="102" width="61" height="73">
<path fill-rule="evenodd" clip-rule="evenodd" d="M168.859 102.624C158.897 104.044 149.62 113.786 152.779 128.138C155.972 142.646 169.261 143.604 168.845 150.197C168.711 152.321 167.178 153.937 165.296 154.915C161.075 157.109 156.105 155.493 151.667 155.442C149.415 155.417 145.02 156.19 142.053 160.291C139.236 164.182 142.532 168.933 146.522 168.398C149.515 167.994 150.599 164.982 149.71 162.835C151.607 162.619 153.388 162.868 154.781 163.284C158.806 164.487 160.252 165.055 161.799 165.003C157.781 176.328 178.339 180.213 180.435 164.961C182.163 165.179 183.999 165.371 185.638 166.012C186.54 168.79 187.577 171.561 190.421 172.844C194.868 174.85 201.334 173.187 201.521 167.581C201.716 161.726 195.208 161.126 193.05 156.768C194.499 153.821 197.157 147.94 193.923 145.11C192.801 144.128 188.194 145.442 186.719 145.662C187.044 138.647 193.503 136.569 192.947 123.218C192.313 107.986 181.971 102.375 172.36 102.375C171.176 102.375 170.002 102.461 168.859 102.624Z" fill="white"/>
</mask>
<g mask="url(#mask11_2634_444814)">
<path fill-rule="evenodd" clip-rule="evenodd" d="M172.773 149.635C173.251 151.501 172.858 153.863 171.71 155.743C170.484 157.747 167.92 159.912 166.212 161.453C163.195 164.176 160.697 168.8 163.322 172.69C155.651 164.489 168.171 159.791 171.608 154.145C172.27 153.057 172.66 150.881 172.773 149.635Z" fill="#F48EAA"/>
</g>
<mask id="mask12_2634_444814" style="mask-type:luminance" maskUnits="userSpaceOnUse" x="141" y="102" width="61" height="73">
<path fill-rule="evenodd" clip-rule="evenodd" d="M168.859 102.624C158.897 104.044 149.62 113.786 152.779 128.138C155.972 142.646 169.261 143.604 168.845 150.197C168.711 152.321 167.178 153.937 165.296 154.915C161.075 157.109 156.105 155.493 151.667 155.442C149.415 155.417 145.02 156.19 142.053 160.291C139.236 164.182 142.532 168.933 146.522 168.398C149.515 167.994 150.599 164.982 149.71 162.835C151.607 162.619 153.388 162.868 154.781 163.284C158.806 164.487 160.252 165.055 161.799 165.003C157.781 176.328 178.339 180.213 180.435 164.961C182.163 165.179 183.999 165.371 185.638 166.012C186.54 168.79 187.577 171.561 190.421 172.844C194.868 174.85 201.334 173.187 201.521 167.581C201.716 161.726 195.208 161.126 193.05 156.768C194.499 153.821 197.157 147.94 193.923 145.11C192.801 144.128 188.194 145.442 186.719 145.662C187.044 138.647 193.503 136.569 192.947 123.218C192.313 107.986 181.971 102.375 172.36 102.375C171.176 102.375 170.002 102.461 168.859 102.624Z" fill="white"/>
</mask>
<g mask="url(#mask12_2634_444814)">
<path fill-rule="evenodd" clip-rule="evenodd" d="M169.021 166.197C172.885 167.475 174.611 164.901 175.661 161.495C176.315 159.374 176.439 157.155 177.032 155.022C177.866 152.024 180.233 147.58 183.724 147.09C181.504 146.584 179.36 148.259 178.174 149.986C176.913 151.823 176.072 153.857 175.538 156.017C174.979 158.274 174.71 160.599 173.804 162.761C172.828 165.091 171.479 166.122 169.021 166.197Z" fill="#F48EAA"/>
</g>
<mask id="mask13_2634_444814" style="mask-type:luminance" maskUnits="userSpaceOnUse" x="141" y="102" width="61" height="73">
<path fill-rule="evenodd" clip-rule="evenodd" d="M168.859 102.624C158.897 104.044 149.62 113.786 152.779 128.138C155.972 142.646 169.261 143.604 168.845 150.197C168.711 152.321 167.178 153.937 165.296 154.915C161.075 157.109 156.105 155.493 151.667 155.442C149.415 155.417 145.02 156.19 142.053 160.291C139.236 164.182 142.532 168.933 146.522 168.398C149.515 167.994 150.599 164.982 149.71 162.835C151.607 162.619 153.388 162.868 154.781 163.284C158.806 164.487 160.252 165.055 161.799 165.003C157.781 176.328 178.339 180.213 180.435 164.961C182.163 165.179 183.999 165.371 185.638 166.012C186.54 168.79 187.577 171.561 190.421 172.844C194.868 174.85 201.334 173.187 201.521 167.581C201.716 161.726 195.208 161.126 193.05 156.768C194.499 153.821 197.157 147.94 193.923 145.11C192.801 144.128 188.194 145.442 186.719 145.662C187.044 138.647 193.503 136.569 192.947 123.218C192.313 107.986 181.971 102.375 172.36 102.375C171.176 102.375 170.002 102.461 168.859 102.624Z" fill="white"/>
</mask>
<g mask="url(#mask13_2634_444814)">
<path fill-rule="evenodd" clip-rule="evenodd" d="M185.553 163.688C185.966 168.453 186.967 175 196.09 173.926C194.287 174.053 191.164 172.605 189.845 171.63C186.838 169.407 186.131 166.424 185.553 163.688Z" fill="#F48EAA"/>
</g>
<mask id="mask14_2634_444814" style="mask-type:luminance" maskUnits="userSpaceOnUse" x="141" y="102" width="61" height="73">
<path fill-rule="evenodd" clip-rule="evenodd" d="M168.859 102.624C158.897 104.044 149.62 113.786 152.779 128.138C155.972 142.646 169.261 143.604 168.845 150.197C168.711 152.321 167.178 153.937 165.296 154.915C161.075 157.109 156.105 155.493 151.667 155.442C149.415 155.417 145.02 156.19 142.053 160.291C139.236 164.182 142.532 168.933 146.522 168.398C149.515 167.994 150.599 164.982 149.71 162.835C151.607 162.619 153.388 162.868 154.781 163.284C158.806 164.487 160.252 165.055 161.799 165.003C157.781 176.328 178.339 180.213 180.435 164.961C182.163 165.179 183.999 165.371 185.638 166.012C186.54 168.79 187.577 171.561 190.421 172.844C194.868 174.85 201.334 173.187 201.521 167.581C201.716 161.726 195.208 161.126 193.05 156.768C194.499 153.821 197.157 147.94 193.923 145.11C192.801 144.128 188.194 145.442 186.719 145.662C187.044 138.647 193.503 136.569 192.947 123.218C192.313 107.986 181.971 102.375 172.36 102.375C171.176 102.375 170.002 102.461 168.859 102.624Z" fill="white"/>
</mask>
<g mask="url(#mask14_2634_444814)">
<path fill-rule="evenodd" clip-rule="evenodd" d="M162.344 171.65C163.717 172.665 165.217 173.098 166.906 173.179C172.178 173.434 176.181 169.328 177.471 164.441C178.434 160.795 177.55 156.198 178.987 152.632C179.636 151.024 182.353 147.856 184.522 147.761C183.105 150.426 181.146 151.947 180.674 155C180.311 157.338 180.46 160.457 180.674 162.766C181.029 166.611 179.143 170.037 176.782 172.982C175.54 174.53 173.907 175.803 171.967 176.3C168.411 177.211 163.743 175.311 162.344 171.65Z" fill="#BC2025"/>
</g>
<mask id="mask15_2634_444814" style="mask-type:luminance" maskUnits="userSpaceOnUse" x="141" y="102" width="61" height="73">
<path fill-rule="evenodd" clip-rule="evenodd" d="M168.859 102.624C158.897 104.044 149.62 113.786 152.779 128.138C155.972 142.646 169.261 143.604 168.845 150.197C168.711 152.321 167.178 153.937 165.296 154.915C161.075 157.109 156.105 155.493 151.667 155.442C149.415 155.417 145.02 156.19 142.053 160.291C139.236 164.182 142.532 168.933 146.522 168.398C149.515 167.994 150.599 164.982 149.71 162.835C151.607 162.619 153.388 162.868 154.781 163.284C158.806 164.487 160.252 165.055 161.799 165.003C157.781 176.328 178.339 180.213 180.435 164.961C182.163 165.179 183.999 165.371 185.638 166.012C186.54 168.79 187.577 171.561 190.421 172.844C194.868 174.85 201.334 173.187 201.521 167.581C201.716 161.726 195.208 161.126 193.05 156.768C194.499 153.821 197.157 147.94 193.923 145.11C192.801 144.128 188.194 145.442 186.719 145.662C187.044 138.647 193.503 136.569 192.947 123.218C192.313 107.986 181.971 102.375 172.36 102.375C171.176 102.375 170.002 102.461 168.859 102.624Z" fill="white"/>
</mask>
<g mask="url(#mask15_2634_444814)">
<path fill-rule="evenodd" clip-rule="evenodd" d="M168.914 166.349C167.196 166.589 166.42 165.413 168.111 163.721C168.867 162.967 169.937 162.444 170.845 161.9C172.61 160.843 174.566 159.326 175.381 157.354C174.718 160.687 173.83 166.369 168.914 166.349Z" fill="#BC2025"/>
</g>
<path fill-rule="evenodd" clip-rule="evenodd" d="M186.719 145.661C188.194 145.442 192.801 144.128 193.923 145.109C197.157 147.941 194.499 153.821 193.05 156.767C195.208 161.127 201.716 161.725 201.521 167.581C201.335 173.187 194.868 174.85 190.422 172.843C187.577 171.56 186.54 168.79 185.638 166.01C184 165.371 182.163 165.178 180.435 164.962C178.339 180.213 157.782 176.327 161.799 165.002C160.253 165.055 158.806 164.487 154.781 163.285C153.388 162.868 151.607 162.619 149.71 162.835C150.599 164.981 149.515 167.995 146.522 168.397C142.532 168.933 139.236 164.182 142.053 160.291C145.02 156.19 149.415 155.417 151.667 155.443C156.106 155.493 161.076 157.11 165.296 154.915C167.178 153.937 168.711 152.32 168.845 150.198C169.261 143.603 155.972 142.647 152.779 128.138C149.62 113.787 158.898 104.045 168.859 102.624C179.273 101.139 192.235 106.108 192.947 123.217C193.502 136.569 187.044 138.647 186.719 145.661Z" stroke="#333739" stroke-width="0.362621" stroke-linecap="round" stroke-linejoin="round"/>
<path fill-rule="evenodd" clip-rule="evenodd" d="M192.851 156.684C192.084 158.532 191.583 160.639 192.144 162.359C192.418 163.198 192.927 163.966 193.8 164.534C193.927 164.618 194.063 164.697 194.21 164.765C194.414 164.859 194.633 164.931 194.869 165C194.92 165.022 194.979 164.998 195.001 164.947C195.023 164.895 194.999 164.835 194.948 164.814C194.743 164.698 194.565 164.571 194.388 164.45C194.264 164.366 194.144 164.284 194.029 164.2C193.272 163.645 192.795 162.983 192.553 162.226C192.03 160.592 192.521 158.602 193.25 156.852C193.296 156.741 193.244 156.614 193.134 156.568C193.024 156.521 192.897 156.574 192.851 156.684Z" fill="#333739"/>
<path fill-rule="evenodd" clip-rule="evenodd" d="M201.011 150.313C201.203 149.495 201.705 148.511 202.428 147.972C202.887 147.63 203.441 147.472 204.069 147.696C204.548 147.852 204.907 148.252 205.039 148.693C205.176 149.153 205.07 149.657 204.587 149.997C204.553 150.02 204.543 150.065 204.564 150.1C204.585 150.134 204.631 150.144 204.665 150.123C205.283 149.777 205.46 149.179 205.345 148.616C205.229 148.051 204.801 147.528 204.217 147.29C203.433 146.996 202.731 147.171 202.153 147.599C201.345 148.195 200.789 149.301 200.584 150.216C200.557 150.333 200.63 150.451 200.748 150.479C200.866 150.506 200.984 150.432 201.011 150.313Z" fill="#333739"/>
<path fill-rule="evenodd" clip-rule="evenodd" d="M149.988 162.965C149.462 162.141 148.637 161.533 147.741 161.302C146.821 161.065 145.831 161.221 145.023 161.92C144.519 162.381 144.175 163.046 144.209 163.681C144.242 164.254 144.569 164.81 145.367 165.14C145.404 165.157 145.448 165.141 145.464 165.104C145.482 165.067 145.466 165.024 145.429 165.007C144.77 164.659 144.515 164.172 144.528 163.675C144.533 163.458 144.593 163.243 144.688 163.037C144.825 162.738 145.043 162.464 145.305 162.252C145.644 161.968 146.017 161.796 146.401 161.716C146.807 161.63 147.224 161.648 147.626 161.752C148.416 161.954 149.149 162.482 149.62 163.204C149.685 163.305 149.821 163.335 149.922 163.269C150.024 163.203 150.054 163.066 149.988 162.965Z" fill="#333739"/>
<path fill-rule="evenodd" clip-rule="evenodd" d="M161.998 165.097C162.46 164.127 163.142 163.125 163.934 162.186C164.698 161.28 165.565 160.433 166.442 159.727C167.921 158.534 170.347 156.843 171.759 154.295C172.239 153.425 172.617 152.459 172.772 151.376C172.82 151.042 172.842 150.698 172.843 150.345C172.845 150.01 172.824 149.669 172.783 149.317C172.779 149.249 172.719 149.198 172.651 149.201C172.583 149.207 172.531 149.267 172.536 149.335C172.544 149.677 172.53 150.008 172.504 150.33C172.476 150.668 172.428 150.994 172.371 151.309C172.185 152.336 171.845 153.258 171.382 154.084C169.991 156.569 167.613 158.217 166.165 159.381C165.267 160.104 164.379 160.972 163.596 161.899C162.779 162.869 162.076 163.904 161.6 164.906C161.547 165.017 161.594 165.149 161.704 165.201C161.813 165.254 161.945 165.207 161.998 165.097Z" fill="#333739"/>
<path fill-rule="evenodd" clip-rule="evenodd" d="M170.194 117.979C170.743 118.171 171.246 118.437 171.709 118.742C172.029 118.955 172.329 119.187 172.608 119.429C172.723 119.529 172.836 119.63 172.945 119.732C173.114 119.889 173.274 120.05 173.427 120.212C173.847 120.66 174.202 121.12 174.481 121.555C174.494 121.576 174.523 121.584 174.545 121.57C174.567 121.558 174.573 121.529 174.56 121.507C174.302 121.05 173.974 120.559 173.57 120.084C173.422 119.911 173.263 119.74 173.095 119.574C172.984 119.467 172.871 119.362 172.752 119.26C172.463 119.013 172.148 118.784 171.811 118.579C171.326 118.286 170.794 118.049 170.224 117.883C170.197 117.876 170.169 117.89 170.161 117.916C170.152 117.943 170.167 117.971 170.194 117.979Z" fill="#333739"/>
<path fill-rule="evenodd" clip-rule="evenodd" d="M167.294 118.466C166.964 118.598 166.641 118.763 166.34 118.968C166.142 119.102 165.953 119.254 165.779 119.422C165.708 119.489 165.642 119.559 165.578 119.633C165.482 119.741 165.393 119.855 165.309 119.974C165.101 120.271 164.934 120.594 164.81 120.933C164.8 120.956 164.811 120.983 164.835 120.993C164.858 121.003 164.886 120.992 164.895 120.969C165.044 120.653 165.239 120.362 165.461 120.091C165.55 119.982 165.641 119.879 165.738 119.779C165.801 119.713 165.866 119.646 165.933 119.582C166.098 119.419 166.271 119.265 166.454 119.124C166.732 118.906 167.026 118.713 167.334 118.558C167.36 118.546 167.371 118.517 167.36 118.491C167.348 118.466 167.319 118.454 167.294 118.466Z" fill="#333739"/>
<path fill-rule="evenodd" clip-rule="evenodd" d="M168.343 118.892C166.416 119.251 164.45 120.951 163.353 121.531C162.526 121.969 164.047 123.194 164.113 124.846C164.195 126.863 170.929 118.409 168.343 118.892Z" fill="#333739"/>
<path fill-rule="evenodd" clip-rule="evenodd" d="M162.695 120.106C162.87 119.307 163.213 118.484 163.694 117.719C164.123 117.039 164.679 116.427 165.391 115.973C165.861 115.638 166.386 115.428 166.922 115.267C167.484 115.1 168.06 114.989 168.642 114.967C169.925 114.917 171.197 115.177 172.168 115.751C172.313 115.855 172.516 115.821 172.62 115.674C172.725 115.527 172.69 115.325 172.545 115.22C171.555 114.37 170.162 113.773 168.685 113.62C167.962 113.545 167.221 113.587 166.511 113.765C165.793 113.947 165.118 114.288 164.506 114.742C163.688 115.413 163.058 116.241 162.653 117.16C162.238 118.095 162.034 119.089 161.993 120.013C161.968 120.208 162.104 120.386 162.298 120.412C162.492 120.437 162.67 120.3 162.695 120.106Z" fill="#333739"/>
<path fill-rule="evenodd" clip-rule="evenodd" d="M167.886 118.91C164.84 119.864 163.226 123.401 164.283 126.804C165.341 130.206 168.672 132.195 171.719 131.242C174.765 130.287 176.379 126.75 175.32 123.347C174.264 119.945 170.932 117.957 167.886 118.91Z" fill="white"/>
<mask id="mask16_2634_444814" style="mask-type:luminance" maskUnits="userSpaceOnUse" x="163" y="118" width="13" height="14">
<path fill-rule="evenodd" clip-rule="evenodd" d="M167.886 118.91C164.84 119.864 163.226 123.4 164.283 126.803C165.341 130.206 168.673 132.195 171.719 131.241C174.765 130.288 176.379 126.75 175.32 123.347C174.443 120.522 171.996 118.672 169.448 118.672C168.927 118.672 168.403 118.748 167.886 118.91Z" fill="white"/>
</mask>
<g mask="url(#mask16_2634_444814)">
<path fill-rule="evenodd" clip-rule="evenodd" d="M168.383 120.951C166.096 121.643 164.876 124.322 165.659 126.927C166.443 129.534 168.936 131.087 171.222 130.394C173.508 129.702 174.729 127.023 173.946 124.418C173.162 121.811 170.669 120.258 168.383 120.951Z" fill="#333739"/>
</g>
<mask id="mask17_2634_444814" style="mask-type:luminance" maskUnits="userSpaceOnUse" x="163" y="118" width="13" height="14">
<path fill-rule="evenodd" clip-rule="evenodd" d="M167.886 118.91C164.84 119.864 163.226 123.4 164.283 126.803C165.341 130.206 168.673 132.195 171.719 131.241C174.765 130.288 176.379 126.75 175.32 123.347C174.443 120.522 171.996 118.672 169.448 118.672C168.927 118.672 168.403 118.748 167.886 118.91Z" fill="white"/>
</mask>
<g mask="url(#mask17_2634_444814)">
<path fill-rule="evenodd" clip-rule="evenodd" d="M172.4 124.986C172.536 125.664 172.503 126.237 172.381 126.719C172.168 127.548 171.566 128.011 170.883 128.167C170.294 128.303 169.639 128.222 169.08 127.853C168.566 127.516 168.115 126.988 167.871 126.214C167.792 125.906 167.479 125.719 167.172 125.798C166.866 125.876 166.679 126.191 166.758 126.499C167.097 128.2 168.174 129.218 169.347 129.614C169.969 129.823 170.631 129.845 171.241 129.7C171.666 129.6 172.071 129.417 172.418 129.151C173.469 128.347 174.14 126.835 173.444 124.705C173.367 124.416 173.07 124.244 172.782 124.321C172.494 124.399 172.323 124.698 172.4 124.986Z" fill="#780000"/>
</g>
<mask id="mask18_2634_444814" style="mask-type:luminance" maskUnits="userSpaceOnUse" x="163" y="118" width="13" height="14">
<path fill-rule="evenodd" clip-rule="evenodd" d="M167.886 118.91C164.84 119.864 163.226 123.4 164.283 126.803C165.341 130.206 168.673 132.195 171.719 131.241C174.765 130.288 176.379 126.75 175.32 123.347C174.443 120.522 171.996 118.672 169.448 118.672C168.927 118.672 168.403 118.748 167.886 118.91Z" fill="white"/>
</mask>
<g mask="url(#mask18_2634_444814)">
<path fill-rule="evenodd" clip-rule="evenodd" d="M168.998 122.671C168.56 122.33 167.911 122.428 167.549 122.892C167.188 123.355 167.25 124.008 167.69 124.349C168.128 124.69 168.777 124.591 169.138 124.127C169.499 123.664 169.437 123.012 168.998 122.671Z" fill="white"/>
</g>
<mask id="mask19_2634_444814" style="mask-type:luminance" maskUnits="userSpaceOnUse" x="163" y="118" width="13" height="14">
<path fill-rule="evenodd" clip-rule="evenodd" d="M167.886 118.91C164.84 119.864 163.226 123.4 164.283 126.803C165.341 130.206 168.673 132.195 171.719 131.241C174.765 130.288 176.379 126.75 175.32 123.347C174.443 120.522 171.996 118.672 169.448 118.672C168.927 118.672 168.403 118.748 167.886 118.91Z" fill="white"/>
</mask>
<g mask="url(#mask19_2634_444814)">
<path fill-rule="evenodd" clip-rule="evenodd" d="M172.547 127.732C172.246 127.732 172.001 127.989 172 128.304C172 128.621 172.244 128.877 172.545 128.876C172.846 128.876 173.091 128.619 173.092 128.303C173.092 127.987 172.848 127.731 172.547 127.732Z" fill="white"/>
</g>
<path fill-rule="evenodd" clip-rule="evenodd" d="M167.843 118.773C166.858 119.057 166.006 119.597 165.341 120.325C164.898 120.81 164.542 121.38 164.277 122.002C163.662 123.444 163.552 125.173 164.081 126.867C164.611 128.558 165.686 129.908 167.009 130.74C168.434 131.638 170.145 131.936 171.775 131.42C173.401 130.908 174.631 129.682 175.286 128.131C175.892 126.695 176.003 124.98 175.476 123.299C174.948 121.621 173.881 120.281 172.566 119.455C171.155 118.566 169.46 118.271 167.845 118.782L167.843 118.773ZM167.926 119.039C169.463 118.563 171.073 118.855 172.409 119.706C173.66 120.503 174.673 121.789 175.166 123.396C175.659 124.999 175.547 126.63 174.963 127.994C174.342 129.442 173.188 130.588 171.663 131.061C170.141 131.532 168.548 131.243 167.223 130.4C165.982 129.61 164.977 128.334 164.486 126.74C163.993 125.149 164.108 123.531 164.682 122.174C164.926 121.596 165.257 121.069 165.656 120.605C166.259 119.906 167.02 119.355 167.928 119.046L167.926 119.039Z" fill="#333739"/>
<path fill-rule="evenodd" clip-rule="evenodd" d="M190.743 117.453C190.538 117.128 190.304 116.812 190.033 116.527C189.853 116.336 189.658 116.16 189.45 116.003C189.366 115.94 189.279 115.882 189.19 115.826C189.055 115.743 188.917 115.669 188.774 115.603C188.419 115.441 188.041 115.334 187.647 115.292C187.621 115.288 187.598 115.305 187.594 115.33C187.59 115.356 187.608 115.379 187.632 115.383C188.008 115.456 188.358 115.594 188.689 115.775C188.82 115.847 188.947 115.926 189.073 116.01C189.156 116.065 189.237 116.124 189.318 116.183C189.52 116.33 189.714 116.491 189.897 116.664C190.177 116.926 190.436 117.21 190.661 117.51C190.676 117.533 190.707 117.538 190.73 117.523C190.753 117.507 190.759 117.475 190.743 117.453Z" fill="#333739"/>
<path fill-rule="evenodd" clip-rule="evenodd" d="M184.89 116.44C184.669 116.701 184.477 116.993 184.319 117.306C184.214 117.511 184.124 117.725 184.047 117.945C184.017 118.031 183.989 118.12 183.965 118.209C183.927 118.343 183.894 118.477 183.866 118.611C183.793 118.956 183.745 119.3 183.71 119.632C183.705 119.657 183.723 119.681 183.747 119.685C183.772 119.688 183.796 119.672 183.801 119.646C183.842 119.451 183.89 119.253 183.943 119.051C183.993 118.856 184.049 118.66 184.11 118.465C184.149 118.337 184.192 118.209 184.235 118.08C184.278 117.953 184.321 117.826 184.369 117.7C184.432 117.532 184.499 117.366 184.575 117.204C184.688 116.957 184.817 116.72 184.969 116.501C184.985 116.479 184.982 116.447 184.961 116.431C184.939 116.414 184.908 116.418 184.89 116.44Z" fill="#333739"/>
<path fill-rule="evenodd" clip-rule="evenodd" d="M186.625 115.997C188.109 115.877 189.445 116.016 190.429 116.176C191.538 116.358 190.85 117.456 191.554 119.597C192.184 121.514 184.003 116.208 186.625 115.997Z" fill="#333739"/>
<path fill-rule="evenodd" clip-rule="evenodd" d="M183.07 112.709C183.487 112.435 183.988 112.241 184.534 112.111C184.995 111.999 185.482 111.976 185.983 112.069C186.322 112.105 186.636 112.221 186.944 112.347C187.273 112.485 187.593 112.631 187.885 112.83C188.553 113.285 189.115 113.847 189.392 114.479C189.441 114.651 189.621 114.753 189.793 114.703C189.966 114.654 190.065 114.474 190.016 114.301C189.948 113.773 189.749 113.238 189.451 112.714C189.264 112.385 189.026 112.085 188.758 111.803C188.42 111.449 188.025 111.144 187.58 110.926C187.131 110.705 186.628 110.595 186.114 110.559C185.402 110.564 184.725 110.7 184.132 110.999C183.521 111.305 183.005 111.718 182.605 112.174C182.459 112.303 182.443 112.528 182.571 112.675C182.7 112.823 182.924 112.839 183.07 112.709Z" fill="#333739"/>
<path fill-rule="evenodd" clip-rule="evenodd" d="M186.793 116.069C184.535 116.497 183.195 119.464 183.802 122.69C184.41 125.915 186.736 128.187 188.994 127.759C191.252 127.331 192.592 124.365 191.984 121.139C191.377 117.912 189.05 115.641 186.793 116.069Z" fill="white"/>
<mask id="mask20_2634_444814" style="mask-type:luminance" maskUnits="userSpaceOnUse" x="183" y="116" width="10" height="12">
<path fill-rule="evenodd" clip-rule="evenodd" d="M186.793 116.069C184.535 116.497 183.196 119.464 183.802 122.69C184.409 125.915 186.736 128.187 188.993 127.76C191.251 127.331 192.59 124.365 191.984 121.138C191.426 118.176 189.418 116.017 187.345 116.017C187.161 116.017 186.976 116.034 186.793 116.069Z" fill="white"/>
</mask>
<g mask="url(#mask20_2634_444814)">
<path fill-rule="evenodd" clip-rule="evenodd" d="M186.353 118.018C184.33 118.23 183.122 120.472 183.655 123.021C184.189 125.57 186.264 127.466 188.285 127.254C190.307 127.041 191.515 124.799 190.982 122.251C190.449 119.702 188.374 117.805 186.353 118.018Z" fill="#333739"/>
</g>
<mask id="mask21_2634_444814" style="mask-type:luminance" maskUnits="userSpaceOnUse" x="183" y="116" width="10" height="12">
<path fill-rule="evenodd" clip-rule="evenodd" d="M186.793 116.069C184.535 116.497 183.196 119.464 183.802 122.69C184.409 125.915 186.736 128.187 188.993 127.76C191.251 127.331 192.59 124.365 191.984 121.138C191.426 118.176 189.418 116.017 187.345 116.017C187.161 116.017 186.976 116.034 186.793 116.069Z" fill="white"/>
</mask>
<g mask="url(#mask21_2634_444814)">
<path fill-rule="evenodd" clip-rule="evenodd" d="M189.542 122.728C189.639 123.438 189.511 124.004 189.274 124.427C189.032 124.863 188.618 125.077 188.181 125.083C187.75 125.089 187.299 124.895 186.92 124.455C186.583 124.064 186.279 123.536 186.093 122.815C186.035 122.502 185.735 122.296 185.423 122.355C185.112 122.414 184.906 122.715 184.965 123.028C185.158 124.571 185.81 125.572 186.554 126.123C187.071 126.506 187.656 126.669 188.211 126.657C188.622 126.647 189.024 126.542 189.376 126.337C190.384 125.752 191.132 124.406 190.6 122.502C190.538 122.21 190.251 122.022 189.959 122.084C189.666 122.146 189.48 122.435 189.542 122.728Z" fill="#780000"/>
</g>
<mask id="mask22_2634_444814" style="mask-type:luminance" maskUnits="userSpaceOnUse" x="183" y="116" width="10" height="12">
<path fill-rule="evenodd" clip-rule="evenodd" d="M186.793 116.069C184.535 116.497 183.196 119.464 183.802 122.69C184.409 125.915 186.736 128.187 188.993 127.76C191.251 127.331 192.59 124.365 191.984 121.138C191.426 118.176 189.418 116.017 187.345 116.017C187.161 116.017 186.976 116.034 186.793 116.069Z" fill="white"/>
</mask>
<g mask="url(#mask22_2634_444814)">
<path fill-rule="evenodd" clip-rule="evenodd" d="M185.076 120.001C184.678 120.369 184.636 120.949 184.985 121.297C185.333 121.645 185.94 121.63 186.338 121.261C186.737 120.893 186.776 120.312 186.428 119.965C186.08 119.617 185.475 119.634 185.076 120.001Z" fill="white"/>
</g>
<mask id="mask23_2634_444814" style="mask-type:luminance" maskUnits="userSpaceOnUse" x="183" y="116" width="10" height="12">
<path fill-rule="evenodd" clip-rule="evenodd" d="M186.793 116.069C184.535 116.497 183.196 119.464 183.802 122.69C184.409 125.915 186.736 128.187 188.993 127.76C191.251 127.331 192.59 124.365 191.984 121.138C191.426 118.176 189.418 116.017 187.345 116.017C187.161 116.017 186.976 116.034 186.793 116.069Z" fill="white"/>
</mask>
<g mask="url(#mask23_2634_444814)">
<path fill-rule="evenodd" clip-rule="evenodd" d="M189.303 125.085C189.094 125.351 189.129 125.728 189.378 125.925C189.628 126.123 190.001 126.067 190.209 125.801C190.417 125.535 190.383 125.159 190.134 124.962C189.883 124.764 189.511 124.819 189.303 125.085Z" fill="white"/>
</g>
<path fill-rule="evenodd" clip-rule="evenodd" d="M186.775 115.965C185.717 116.16 184.85 116.892 184.277 117.948C183.594 119.205 183.329 120.92 183.658 122.718C183.989 124.522 184.849 126.036 185.935 126.97C186.861 127.766 187.953 128.143 189.029 127.945C190.11 127.744 190.998 126.997 191.582 125.918C192.268 124.649 192.532 122.914 192.195 121.099C192.033 120.249 191.76 119.464 191.394 118.777C190.978 117.995 190.451 117.339 189.859 116.853C188.925 116.084 187.834 115.735 186.774 115.961L186.775 115.965ZM186.815 116.178C187.803 116.014 188.787 116.39 189.626 117.129C190.166 117.605 190.644 118.233 191.023 118.972C191.362 119.629 191.626 120.372 191.775 121.179C192.103 122.889 191.868 124.526 191.228 125.727C190.712 126.7 189.928 127.387 188.961 127.574C187.767 127.806 186.554 127.235 185.606 126.164C184.824 125.284 184.222 124.066 183.95 122.663C183.615 120.935 183.849 119.281 184.493 118.065C185.021 117.069 185.823 116.368 186.815 116.175V116.178Z" fill="#333739"/>
<path fill-rule="evenodd" clip-rule="evenodd" d="M183.701 145.522C178.656 147.013 174.458 142.492 173.686 133.726C174.04 133.636 174.141 133.625 174.498 133.545C178.126 135.378 183.107 135.147 187.234 132.807C185.873 134.851 183.586 138.287 183.701 145.522Z" fill="#333739"/>
<mask id="mask24_2634_444814" style="mask-type:luminance" maskUnits="userSpaceOnUse" x="173" y="132" width="15" height="14">
<path fill-rule="evenodd" clip-rule="evenodd" d="M174.496 133.545C174.14 133.625 174.039 133.635 173.684 133.726C174.457 142.492 178.655 147.014 183.699 145.523C183.584 138.287 185.871 134.851 187.232 132.808C183.105 135.148 178.125 135.379 174.496 133.545Z" fill="white"/>
</mask>
<g mask="url(#mask24_2634_444814)">
<path fill-rule="evenodd" clip-rule="evenodd" d="M179.853 140.082C176.924 137.547 173.545 136.653 172.312 138.087C171.081 139.522 172.458 142.745 175.388 145.279C178.317 147.814 181.696 148.708 182.929 147.274C184.16 145.841 182.783 142.618 179.853 140.082Z" fill="#F48EAA"/>
</g>
<mask id="mask25_2634_444814" style="mask-type:luminance" maskUnits="userSpaceOnUse" x="173" y="132" width="15" height="14">
<path fill-rule="evenodd" clip-rule="evenodd" d="M174.496 133.545C174.14 133.625 174.039 133.635 173.684 133.726C174.457 142.492 178.655 147.014 183.699 145.523C183.584 138.287 185.871 134.851 187.232 132.808C183.105 135.148 178.125 135.379 174.496 133.545Z" fill="white"/>
</mask>
<g mask="url(#mask25_2634_444814)">
<path fill-rule="evenodd" clip-rule="evenodd" d="M184.982 131.299C184.707 132.692 184.188 133.434 183.528 133.855C183.233 134.043 182.895 134.103 182.547 134.169C181.93 134.285 181.263 134.273 180.587 134.265C179.976 134.301 179.319 134.264 178.649 134.234C177.654 134.189 176.642 134.132 175.695 133.951C174.489 133.719 173.412 133.429 172.717 132.859C172.507 132.635 172.156 132.624 171.932 132.835C171.709 133.046 171.698 133.398 171.908 133.623C172.695 134.708 174.214 135.623 175.992 136.25C176.887 136.566 177.841 136.786 178.781 136.895C179.445 136.972 180.101 136.957 180.715 136.929C182.271 136.736 183.809 136.51 184.84 135.505C185.666 134.701 186.279 133.478 186.189 131.391C186.214 131.057 185.964 130.765 185.631 130.74C185.298 130.714 185.006 130.965 184.982 131.299Z" fill="white"/>
</g>
<path fill-rule="evenodd" clip-rule="evenodd" d="M188.65 131.671C188.302 131.421 188.002 131.137 187.753 130.813C187.464 130.434 187.243 130.003 187.097 129.507C187.076 129.44 187.113 129.368 187.181 129.347C187.249 129.326 187.321 129.364 187.342 129.432C187.488 129.889 187.701 130.288 187.979 130.635C188.257 130.983 188.599 131.278 189.003 131.532C189.045 131.559 189.071 131.606 189.074 131.656C189.077 131.707 189.054 131.756 189.015 131.787C186.851 133.512 184.378 134.504 181.952 134.854C179.206 135.25 176.525 134.825 174.424 133.762C174.302 133.809 174.183 133.851 174.067 133.886C174.028 133.897 173.991 133.907 173.955 133.917C174.246 136.077 174.489 137.743 175.01 139.294C175.389 140.42 175.913 141.486 176.711 142.639C177.662 144.019 178.897 144.914 180.191 145.355C180.769 145.553 181.359 145.661 181.944 145.681C182.854 145.709 183.75 145.529 184.561 145.121C184.609 145.095 184.671 145.114 184.697 145.163C184.724 145.212 184.706 145.274 184.656 145.301C183.692 145.853 182.586 146.103 181.464 146.022C180.995 145.989 180.525 145.895 180.062 145.745C178.684 145.3 177.371 144.346 176.354 142.889C175.527 141.7 174.982 140.6 174.589 139.438C174.039 137.813 173.789 136.064 173.479 133.766C173.461 133.642 173.548 133.528 173.672 133.511C173.759 133.499 173.847 133.478 173.938 133.452C174.074 133.411 174.214 133.359 174.356 133.304C174.416 133.281 174.484 133.284 174.542 133.314C176.578 134.38 179.201 134.797 181.894 134.433C184.199 134.121 186.559 133.24 188.65 131.671Z" fill="#333739"/>
<path d="M187.233 132.808C185.716 134.842 183.678 138.992 183.699 145.455" stroke="#333739" stroke-width="0.362621" stroke-linecap="round" stroke-linejoin="round"/>
<path fill-rule="evenodd" clip-rule="evenodd" d="M175.719 132.281C175.477 132.585 175.195 132.82 174.893 133.012C174.687 133.144 174.472 133.247 174.248 133.335C174.024 133.423 173.795 133.497 173.556 133.545C173.2 133.614 172.83 133.642 172.447 133.607C172.383 133.598 172.322 133.642 172.312 133.707C172.302 133.771 172.346 133.833 172.41 133.842C172.817 133.934 173.22 133.966 173.611 133.93C173.887 133.904 174.155 133.845 174.409 133.746C174.664 133.646 174.903 133.506 175.12 133.335C175.429 133.09 175.691 132.779 175.906 132.411C175.942 132.358 175.929 132.287 175.877 132.252C175.826 132.217 175.755 132.229 175.719 132.281Z" fill="#333739"/>
<path fill-rule="evenodd" clip-rule="evenodd" d="M160.252 117.934C165.663 118.688 172.448 114.294 177.336 112.39C181.88 110.621 186.384 110.127 189.174 110.736C183.834 105.56 162.716 111.944 160.252 117.934Z" fill="white"/>
<mask id="mask26_2634_444814" style="mask-type:luminance" maskUnits="userSpaceOnUse" x="160" y="108" width="30" height="11">
<path fill-rule="evenodd" clip-rule="evenodd" d="M160.252 117.934C165.663 118.689 172.449 114.294 177.336 112.39C181.881 110.621 186.384 110.126 189.174 110.737C187.794 109.399 185.36 108.833 182.468 108.833C174.166 108.831 162.08 113.491 160.252 117.934Z" fill="white"/>
</mask>
<g mask="url(#mask26_2634_444814)">
<path fill-rule="evenodd" clip-rule="evenodd" d="M181.154 109.452C183.047 109.587 184.928 110.234 186.599 111.126C188.163 111.962 190.497 110.718 192.234 111.142C189.987 109.929 183.942 108.98 181.154 109.452Z" fill="#C6C7C8"/>
</g>
<path fill-rule="evenodd" clip-rule="evenodd" d="M160.252 117.934C165.663 118.689 172.448 114.294 177.336 112.391C181.88 110.621 186.384 110.127 189.174 110.736C183.834 105.56 162.716 111.944 160.252 117.934Z" stroke="#333739" stroke-width="0.362621" stroke-linecap="round" stroke-linejoin="round"/>
<path fill-rule="evenodd" clip-rule="evenodd" d="M153.433 131.103C151.488 117.747 178.95 105.009 189.174 110.736C184.547 102.391 169.056 97.5037 157.674 107.884C148.57 116.189 151.32 127.161 153.433 131.103Z" fill="white"/>
<mask id="mask27_2634_444814" style="mask-type:luminance" maskUnits="userSpaceOnUse" x="151" y="102" width="39" height="30">
<path fill-rule="evenodd" clip-rule="evenodd" d="M157.674 107.885C148.57 116.189 151.32 127.16 153.433 131.103C151.488 117.746 178.95 105.009 189.173 110.737C186.41 105.751 179.77 102.001 172.444 102C167.506 102 162.257 103.704 157.674 107.885Z" fill="white"/>
</mask>
<g mask="url(#mask27_2634_444814)">
<path fill-rule="evenodd" clip-rule="evenodd" d="M168.882 110.988C167.042 111.779 165.108 112.869 163.226 114.148C162.658 112.049 162.129 110.08 161.637 108.23C163.341 107.134 165.082 106.257 166.856 105.592C167.519 107.32 168.127 109.041 168.882 110.988Z" fill="#780000"/>
</g>
<mask id="mask28_2634_444814" style="mask-type:luminance" maskUnits="userSpaceOnUse" x="151" y="102" width="39" height="30">
<path fill-rule="evenodd" clip-rule="evenodd" d="M157.674 107.885C148.57 116.189 151.32 127.16 153.433 131.103C151.488 117.746 178.95 105.009 189.173 110.737C186.41 105.751 179.77 102.001 172.444 102C167.506 102 162.257 103.704 157.674 107.885Z" fill="white"/>
</mask>
<g mask="url(#mask28_2634_444814)">
<path fill-rule="evenodd" clip-rule="evenodd" d="M172.428 107.905C172.284 108.144 172.057 108.303 171.773 108.365C171.085 108.515 170.32 108.056 170.02 107.309C169.728 106.582 170.019 105.883 170.692 105.727C170.97 105.663 171.273 105.701 171.567 105.839C171.572 105.84 171.577 105.842 171.583 105.845C171.68 105.631 171.777 105.419 171.874 105.209C171.869 105.206 171.863 105.203 171.856 105.201C171.369 104.953 170.842 104.877 170.379 104.985C169.295 105.24 168.792 106.395 169.239 107.525C169.708 108.709 170.987 109.452 172.107 109.209C172.59 109.103 172.981 108.816 173.204 108.398L173.212 108.384C172.952 108.217 172.693 108.054 172.436 107.893C172.433 107.898 172.43 107.901 172.428 107.905ZM174.124 108.7C174.384 108.661 174.644 108.626 174.905 108.594C174.316 107.203 173.736 105.869 173.165 104.594C172.914 104.627 172.663 104.664 172.414 104.702C172.975 105.975 173.546 107.309 174.124 108.7ZM177.342 106.872C177.305 106.814 174.843 104.413 174.83 104.421C174.581 104.437 174.333 104.458 174.087 104.482C174.669 105.759 175.262 107.093 175.862 108.482C176.125 108.458 176.388 108.438 176.652 108.421C176.284 107.584 175.918 106.767 175.557 105.968C175.675 106.064 178.055 108.399 178.041 108.401C178.037 108.396 178.24 106.028 178.254 105.932C178.637 106.731 179.021 107.545 179.409 108.378C179.679 108.386 179.951 108.399 180.223 108.416C179.57 107.039 178.925 105.706 178.289 104.419C178.032 104.401 177.776 104.389 177.521 104.379C177.518 104.374 177.342 106.812 177.342 106.872ZM182.455 107.944C182.183 107.902 181.912 107.864 181.643 107.831C181.484 107.509 181.326 107.19 181.167 106.872C181.435 106.906 181.704 106.945 181.973 106.987C182.353 107.046 182.613 107.316 182.728 107.544C182.846 107.777 182.836 108.002 182.455 107.944ZM180.372 105.288C180.62 105.32 180.868 105.356 181.118 105.396C181.431 105.446 181.702 105.639 181.839 105.906C181.978 106.175 181.871 106.302 181.554 106.253C181.303 106.213 181.053 106.177 180.804 106.146C180.66 105.858 180.516 105.572 180.372 105.288ZM182.583 106.741C182.716 106.677 182.879 106.469 182.652 106.032C182.304 105.365 181.597 104.842 180.823 104.715C180.285 104.628 179.75 104.558 179.221 104.505C179.868 105.792 180.524 107.124 181.187 108.498C181.758 108.551 182.333 108.621 182.912 108.71C183.699 108.829 183.964 108.475 183.588 107.74C183.311 107.201 182.854 106.886 182.583 106.741Z" fill="#780000"/>
</g>
<mask id="mask29_2634_444814" style="mask-type:luminance" maskUnits="userSpaceOnUse" x="151" y="102" width="39" height="30">
<path fill-rule="evenodd" clip-rule="evenodd" d="M157.674 107.885C148.57 116.189 151.32 127.16 153.433 131.103C151.488 117.746 178.95 105.009 189.173 110.737C186.41 105.751 179.77 102.001 172.444 102C167.506 102 162.257 103.704 157.674 107.885Z" fill="white"/>
</mask>
<g mask="url(#mask29_2634_444814)">
<path fill-rule="evenodd" clip-rule="evenodd" d="M162.525 108.747C163.452 108.181 164.387 107.678 165.333 107.238C166.004 107.586 166.694 107.955 167.4 108.345C167.15 109.198 166.897 110.089 166.64 111.018C165.629 111.5 164.628 112.054 163.638 112.681C163.872 111.682 164.102 110.723 164.329 109.803C163.713 109.434 163.112 109.083 162.525 108.747Z" fill="#EF3737"/>
</g>
<mask id="mask30_2634_444814" style="mask-type:luminance" maskUnits="userSpaceOnUse" x="151" y="102" width="39" height="30">
<path fill-rule="evenodd" clip-rule="evenodd" d="M157.674 107.885C148.57 116.189 151.32 127.16 153.433 131.103C151.488 117.746 178.95 105.009 189.173 110.737C186.41 105.751 179.77 102.001 172.444 102C167.506 102 162.257 103.704 157.674 107.885Z" fill="white"/>
</mask>
<g mask="url(#mask30_2634_444814)">
<path fill-rule="evenodd" clip-rule="evenodd" d="M167.4 108.345C166.693 107.954 166.004 107.586 165.333 107.238C164.387 107.677 163.451 108.181 162.525 108.748C163.111 109.083 163.712 109.434 164.329 109.803" fill="white"/>
</g>
<mask id="mask31_2634_444814" style="mask-type:luminance" maskUnits="userSpaceOnUse" x="172" y="102" width="18" height="9">
<path fill-rule="evenodd" clip-rule="evenodd" d="M172.574 102.001L172.83 102.004C180.002 102.133 186.459 105.839 189.174 110.737L189.14 110.677H189.061L188.862 110.57C185.319 108.773 179.889 109.032 174.332 110.675L172.574 110.677" fill="white"/>
</mask>
<g mask="url(#mask31_2634_444814)">
<path fill-rule="evenodd" clip-rule="evenodd" d="M182.275 103.564C184.021 103.969 186.042 106.38 186.653 109.569C187.762 109.598 188.725 109.783 189.727 110.621C189.509 108.375 189.032 106.828 188.017 105.389C186.755 103.599 185.687 103.191 184.112 103.147C183.544 103.131 182.806 103.064 182.275 103.564Z" fill="#C6C7C8"/>
</g>
<mask id="mask32_2634_444814" style="mask-type:luminance" maskUnits="userSpaceOnUse" x="151" y="102" width="39" height="30">
<path fill-rule="evenodd" clip-rule="evenodd" d="M157.674 107.885C148.57 116.189 151.32 127.16 153.433 131.103C151.488 117.746 178.95 105.009 189.173 110.737C186.41 105.751 179.77 102.001 172.444 102C167.506 102 162.257 103.704 157.674 107.885Z" fill="white"/>
</mask>
<g mask="url(#mask32_2634_444814)">
<path fill-rule="evenodd" clip-rule="evenodd" d="M155.484 129.336C153.84 121.297 156.071 109.183 162.709 104.386C164.106 103.375 165.745 102.848 167.372 102.391C164.927 102.316 162.627 103.406 160.554 104.645C158.747 105.722 156.884 106.948 155.484 108.568C150.588 114.232 147.804 123.504 150.603 130.833C151.783 130.405 153.883 130.855 155.077 130.459" fill="#C6C7C8"/>
</g>
<path fill-rule="evenodd" clip-rule="evenodd" d="M153.433 131.103C151.488 117.747 178.95 105.009 189.174 110.736C184.547 102.391 169.056 97.5037 157.674 107.884C148.57 116.189 151.32 127.161 153.433 131.103Z" stroke="#333739" stroke-width="0.362621" stroke-linecap="round" stroke-linejoin="round"/>
<path fill-rule="evenodd" clip-rule="evenodd" d="M162.55 116.256C161.552 113.53 161.129 110.608 161.529 108.209C161.685 107.269 161.973 106.414 162.395 105.676C162.665 105.204 162.987 104.779 163.375 104.415C163.633 104.172 163.915 103.953 164.23 103.766C164.286 103.735 164.307 103.665 164.276 103.609C164.246 103.553 164.176 103.533 164.121 103.563C163.507 103.866 162.984 104.274 162.552 104.773C162.366 104.988 162.198 105.221 162.047 105.467C161.578 106.235 161.272 107.144 161.1 108.137C160.677 110.6 161.113 113.605 162.136 116.408C162.178 116.522 162.305 116.581 162.418 116.54C162.533 116.498 162.592 116.37 162.55 116.256Z" fill="#333739"/>
<path fill-rule="evenodd" clip-rule="evenodd" d="M185.93 166.212C185.692 165.136 185.709 164.026 185.9 162.933C186.13 161.628 186.641 160.366 187.234 159.186C187.293 159.066 187.353 158.946 187.409 158.826C187.494 158.638 187.567 158.452 187.652 158.267C187.681 158.22 187.668 158.157 187.62 158.128C187.573 158.098 187.512 158.112 187.481 158.159C187.406 158.247 187.333 158.331 187.261 158.424C187.156 158.559 187.056 158.698 186.963 158.845C186.783 159.134 186.634 159.444 186.485 159.755C186.141 160.478 185.86 161.239 185.658 162.013C185.29 163.428 185.197 164.894 185.508 166.307C185.533 166.423 185.649 166.497 185.765 166.47C185.882 166.445 185.955 166.329 185.93 166.212Z" fill="#333739"/>
<mask id="mask33_2634_444814" style="mask-type:luminance" maskUnits="userSpaceOnUse" x="174" y="140" width="24" height="28">
<path fill-rule="evenodd" clip-rule="evenodd" d="M174.199 167.405H197.197V140.082H174.199M176.997 162.482C176.443 161.432 176.391 159.97 176.614 158.833C177.019 156.762 179.6 151.926 181.698 150.869L181.925 151.086C181.038 153.021 180.294 154.919 180.271 157.084C180.243 159.678 180.947 162.259 180.515 164.851C179.176 164.322 177.712 163.837 176.997 162.482Z" fill="white"/>
</mask>
<g mask="url(#mask33_2634_444814)">
<path fill-rule="evenodd" clip-rule="evenodd" d="M194.782 144.758C194.894 144.522 194.877 144.245 194.739 144.025C194.599 143.805 194.358 143.67 194.097 143.67C192.216 143.669 188.585 143.667 186.643 143.667C185.849 143.667 185.125 144.126 184.784 144.846C183.275 148.031 179.138 156.764 177.755 159.684C177.656 159.893 177.67 160.139 177.793 160.335C177.917 160.531 178.132 160.65 178.363 160.65C180.17 160.651 183.838 160.652 185.851 160.653C186.707 160.654 187.486 160.158 187.853 159.384C189.375 156.172 193.358 147.763 194.782 144.758Z" fill="#FFAB00"/>
</g>
<mask id="mask34_2634_444814" style="mask-type:luminance" maskUnits="userSpaceOnUse" x="174" y="140" width="24" height="28">
<path fill-rule="evenodd" clip-rule="evenodd" d="M174.199 167.405H197.197V140.082H174.199V167.405ZM176.997 162.482C176.443 161.432 176.391 159.97 176.614 158.833C177.019 156.762 179.6 151.926 181.698 150.869L181.925 151.086C181.038 153.021 180.294 154.919 180.271 157.084C180.243 159.678 180.947 162.259 180.515 164.851C179.176 164.322 177.712 163.837 176.997 162.482Z" fill="white"/>
</mask>
<g mask="url(#mask34_2634_444814)">
<path fill-rule="evenodd" clip-rule="evenodd" d="M194.782 144.758C194.894 144.522 194.877 144.245 194.739 144.025C194.599 143.805 194.358 143.67 194.097 143.67C192.216 143.669 188.585 143.667 186.643 143.667C185.849 143.667 185.125 144.126 184.784 144.846C183.275 148.031 179.138 156.764 177.755 159.684C177.656 159.893 177.67 160.139 177.793 160.335C177.917 160.531 178.132 160.65 178.363 160.65C180.17 160.651 183.838 160.652 185.851 160.653C186.707 160.654 187.486 160.158 187.853 159.384C189.375 156.172 193.358 147.763 194.782 144.758Z" stroke="#333739" stroke-width="0.36036" stroke-linecap="round" stroke-linejoin="round"/>
</g>
<mask id="mask35_2634_444814" style="mask-type:luminance" maskUnits="userSpaceOnUse" x="174" y="140" width="24" height="28">
<path fill-rule="evenodd" clip-rule="evenodd" d="M174.199 167.405H197.197V140.082H174.199M176.997 162.482C176.443 161.432 176.391 159.97 176.614 158.833C177.019 156.762 179.6 151.926 181.698 150.869L181.925 151.086C181.038 153.021 180.294 154.919 180.271 157.084C180.243 159.678 180.947 162.259 180.515 164.851C179.176 164.322 177.712 163.837 176.997 162.482Z" fill="white"/>
</mask>
<g mask="url(#mask35_2634_444814)">
<path d="M180.098 155.865C180.098 155.865 183.922 147.813 185.234 145.055C185.499 144.495 186.06 144.141 186.676 144.142C188.934 144.146 194.195 144.152 194.195 144.152" stroke="#FCBC7B" stroke-width="0.382976" stroke-linecap="round" stroke-linejoin="round"/>
</g>
<mask id="mask36_2634_444814" style="mask-type:luminance" maskUnits="userSpaceOnUse" x="174" y="140" width="24" height="28">
<path fill-rule="evenodd" clip-rule="evenodd" d="M174.199 167.405H197.197V140.082H174.199M176.997 162.482C176.443 161.432 176.391 159.97 176.614 158.833C177.019 156.762 179.6 151.926 181.698 150.869L181.925 151.086C181.038 153.021 180.294 154.919 180.271 157.084C180.243 159.678 180.947 162.259 180.515 164.851C179.176 164.322 177.712 163.837 176.997 162.482Z" fill="white"/>
</mask>
<g mask="url(#mask36_2634_444814)">
<path d="M184.244 145.985C184.51 146.616 185.179 146.83 186.298 146.819C187.417 146.809 193.84 146.747 193.84 146.747" stroke="#333739" stroke-width="0.36036" stroke-linecap="round" stroke-linejoin="round"/>
</g>
<mask id="mask37_2634_444814" style="mask-type:luminance" maskUnits="userSpaceOnUse" x="174" y="140" width="24" height="28">
<path fill-rule="evenodd" clip-rule="evenodd" d="M174.199 167.405H197.197V140.082H174.199M176.997 162.482C176.443 161.432 176.391 159.97 176.614 158.833C177.019 156.762 179.6 151.926 181.698 150.869L181.925 151.086C181.038 153.021 180.294 154.919 180.271 157.084C180.243 159.678 180.947 162.259 180.515 164.851C179.176 164.322 177.712 163.837 176.997 162.482Z" fill="white"/>
</mask>
<g mask="url(#mask37_2634_444814)">
<path fill-rule="evenodd" clip-rule="evenodd" d="M188.79 145.324C188.803 145.197 188.762 145.071 188.677 144.977C188.592 144.882 188.471 144.827 188.344 144.827H187.145C186.916 144.827 186.724 145 186.699 145.229C186.698 145.24 186.697 145.252 186.696 145.264C186.683 145.39 186.723 145.516 186.809 145.612C186.893 145.706 187.014 145.761 187.141 145.761H188.34C188.569 145.761 188.761 145.587 188.786 145.359C188.787 145.347 188.789 145.336 188.79 145.324Z" fill="#333739"/>
</g>
<mask id="mask38_2634_444814" style="mask-type:luminance" maskUnits="userSpaceOnUse" x="174" y="140" width="24" height="28">
<path fill-rule="evenodd" clip-rule="evenodd" d="M174.199 167.405H197.197V140.082H174.199V167.405ZM176.997 162.482C176.443 161.432 176.391 159.97 176.614 158.833C177.019 156.762 179.6 151.926 181.698 150.869L181.925 151.086C181.038 153.021 180.294 154.919 180.271 157.084C180.243 159.678 180.947 162.259 180.515 164.851C179.176 164.322 177.712 163.837 176.997 162.482Z" fill="white"/>
</mask>
<g mask="url(#mask38_2634_444814)">
<path fill-rule="evenodd" clip-rule="evenodd" d="M188.79 145.324C188.803 145.197 188.762 145.071 188.677 144.977C188.592 144.882 188.471 144.827 188.344 144.827H187.145C186.916 144.827 186.724 145 186.699 145.229C186.698 145.24 186.697 145.252 186.696 145.264C186.683 145.39 186.723 145.516 186.809 145.612C186.893 145.706 187.014 145.761 187.141 145.761H188.34C188.569 145.761 188.761 145.587 188.786 145.359C188.787 145.347 188.789 145.336 188.79 145.324Z" stroke="#333739" stroke-width="0.36036" stroke-linecap="round" stroke-linejoin="round"/>
</g>
<path fill-rule="evenodd" clip-rule="evenodd" d="M183.443 147.16C182.78 146.973 181.911 147.205 180.996 147.779C179.961 148.427 178.877 149.518 177.96 150.995C177.243 152.15 176.767 153.212 176.42 154.23C175.471 157.003 175.466 159.434 174.191 162.43C173.769 163.42 173.329 164.608 172.268 165.449C171.838 165.789 171.309 166.085 170.634 166.267C170.312 166.355 169.958 166.415 169.566 166.446C169.339 166.463 169.101 166.469 168.85 166.466C168.769 166.469 168.7 166.404 168.697 166.322C168.695 166.241 168.759 166.171 168.84 166.169C169.082 166.149 169.308 166.12 169.524 166.087C169.89 166.03 170.219 165.952 170.519 165.86C171.128 165.676 171.614 165.426 172.004 165.115C173.002 164.321 173.399 163.193 173.795 162.259C175.062 159.275 175.063 156.851 176.006 154.086C176.363 153.043 176.851 151.95 177.587 150.762C178.545 149.217 179.68 148.081 180.763 147.404C181.934 146.669 183.051 146.477 183.838 146.835C183.892 146.86 183.933 146.905 183.954 146.96C183.974 147.016 183.971 147.077 183.945 147.132C183.504 148.062 183.172 148.687 182.781 149.508C182.568 149.956 182.336 150.462 182.061 151.109C181.136 153.28 180.726 154.997 180.575 156.49C180.259 159.606 181.051 161.757 180.653 164.988C180.639 165.109 180.529 165.196 180.408 165.18C180.287 165.165 180.201 165.054 180.216 164.934C180.613 161.707 179.821 159.558 180.136 156.445C180.291 154.917 180.708 153.159 181.656 150.935C181.935 150.282 182.168 149.77 182.383 149.318C182.743 148.562 183.054 147.974 183.443 147.16Z" fill="#333739"/>
</svg>
