<svg width="242" height="165" viewBox="0 0 242 165" fill="none" xmlns="http://www.w3.org/2000/svg">
<path opacity="0.3" fill-rule="evenodd" clip-rule="evenodd" d="M97.5792 153.217C97.5792 153.217 68.3753 153.187 68.4263 153.95C68.5997 156.497 91.5711 155 93.4582 155.763C94.3864 156.14 93.3562 156.955 94.9882 157.485C101.476 159.583 124.06 157.678 132.118 157.699C154.079 157.739 159.639 158.687 162.189 158.809C169.339 159.145 189.587 159.013 195.279 158.951C206.999 158.819 238.519 159.369 237.846 157.23C237.55 156.263 207.285 154.236 202.134 153.971C197.727 153.747 194.698 152.413 190.74 151.628C185.201 150.528 179.132 149.866 173.154 149.449C148.122 147.687 122.448 151.791 97.5792 153.217Z" fill="#333739"/>
<path opacity="0.1" d="M223.024 156.904C223.024 156.904 252.218 119.758 227.961 79.5473C206.438 43.8685 174.164 52.9944 155.752 67.4778C147.908 73.6398 132.495 61.55 113.247 25.2397C87.0115 -24.2808 -3.93569 5.7554 12.6502 81.9306C20.678 118.791 -11.7696 120.135 4.76529 156.985L223.024 156.904Z" fill="#333739"/>
<path d="M45.8323 96.5669L48.5354 79.8428" stroke="#FF6666" stroke-miterlimit="10"/>
<path d="M139.574 156.406H83.0945C77.9433 156.406 73.7611 152.23 73.7611 147.086V10.4718C73.7611 5.32828 77.9433 1.15234 83.0945 1.15234H139.564C144.715 1.15234 148.898 5.32828 148.898 10.4718V147.096C148.898 152.24 144.726 156.406 139.574 156.406Z" fill="white" stroke="#333739" stroke-miterlimit="10"/>
<path d="M123.988 5.3181H99.711C98.6298 5.3181 97.7628 4.44217 97.7628 3.37272V1.15234H125.936V3.37272C125.947 4.45235 125.069 5.3181 123.988 5.3181Z" fill="#333739"/>
<path opacity="0.1" d="M142.074 41.7908H80.5852C79.1164 41.7908 77.9331 40.6093 77.9331 39.1427V14.2194C77.9331 12.7528 79.1164 11.5713 80.5852 11.5713H142.074C143.542 11.5713 144.726 12.7528 144.726 14.2194V39.1427C144.726 40.6093 143.542 41.7908 142.074 41.7908Z" fill="#333739"/>
<path d="M129.864 19.3936H84.9204C84.6552 19.3936 84.4308 19.1797 84.4308 18.9047V17.7946C84.4308 17.5297 84.645 17.3057 84.9204 17.3057H129.864C130.129 17.3057 130.353 17.5196 130.353 17.7946V18.9047C130.343 19.1797 130.129 19.3936 129.864 19.3936Z" fill="white"/>
<path d="M131.944 24.5987H87.0013C86.7361 24.5987 86.5117 24.3848 86.5117 24.1098V22.9996C86.5117 22.7348 86.7259 22.5107 87.0013 22.5107H131.944C132.21 22.5107 132.434 22.7246 132.434 22.9996V24.1098C132.434 24.3848 132.22 24.5987 131.944 24.5987Z" fill="white"/>
<path d="M93.4072 36.5865H86.9401C85.8486 36.5865 84.9612 35.7003 84.9612 34.6105V28.1429C84.9612 27.0531 85.8486 26.167 86.9401 26.167H93.4072C94.4986 26.167 95.3861 27.0531 95.3861 28.1429V34.6003C95.3861 35.7004 94.4986 36.5865 93.4072 36.5865Z" stroke="#FF6666" stroke-width="0.75" stroke-miterlimit="10"/>
<path d="M108.014 36.5865H101.547C100.456 36.5865 99.5682 35.7003 99.5682 34.6105V28.1429C99.5682 27.0531 100.456 26.167 101.547 26.167H108.014C109.106 26.167 109.993 27.0531 109.993 28.1429V34.6003C109.993 35.7004 109.106 36.5865 108.014 36.5865Z" stroke="#FF6666" stroke-width="0.75" stroke-miterlimit="10"/>
<path d="M122.621 36.5865H116.154C115.063 36.5865 114.175 35.7003 114.175 34.6105V28.1429C114.175 27.0531 115.063 26.167 116.154 26.167H122.621C123.713 26.167 124.6 27.0531 124.6 28.1429V34.6003C124.61 35.7004 123.723 36.5865 122.621 36.5865Z" stroke="#FF6666" stroke-width="0.75" stroke-miterlimit="10"/>
<path d="M137.239 36.5865H130.771C129.68 36.5865 128.793 35.7003 128.793 34.6105V28.1429C128.793 27.0531 129.68 26.167 130.771 26.167H137.239C138.33 26.167 139.217 27.0531 139.217 28.1429V34.6003C139.217 35.7004 138.33 36.5865 137.239 36.5865Z" stroke="#FF6666" stroke-width="0.75" stroke-miterlimit="10"/>
<path opacity="0.7" d="M90.1736 32.9302C91.0356 32.9302 91.7343 32.2325 91.7343 31.3718C91.7343 30.5112 91.0356 29.8135 90.1736 29.8135C89.3117 29.8135 88.613 30.5112 88.613 31.3718C88.613 32.2325 89.3117 32.9302 90.1736 32.9302Z" fill="#333739"/>
<path opacity="0.7" d="M104.781 32.9302C105.643 32.9302 106.341 32.2325 106.341 31.3718C106.341 30.5112 105.643 29.8135 104.781 29.8135C103.919 29.8135 103.22 30.5112 103.22 31.3718C103.22 32.2325 103.919 32.9302 104.781 32.9302Z" fill="#333739"/>
<path opacity="0.7" d="M119.388 32.9302C120.25 32.9302 120.948 32.2325 120.948 31.3718C120.948 30.5112 120.25 29.8135 119.388 29.8135C118.526 29.8135 117.827 30.5112 117.827 31.3718C117.827 32.2325 118.526 32.9302 119.388 32.9302Z" fill="#333739"/>
<path opacity="0.7" d="M133.995 32.9302C134.857 32.9302 135.555 32.2325 135.555 31.3718C135.555 30.5112 134.857 29.8135 133.995 29.8135C133.133 29.8135 132.434 30.5112 132.434 31.3718C132.434 32.2325 133.133 32.9302 133.995 32.9302Z" fill="#333739"/>
<path opacity="0.1" d="M137.596 50.6827H80.1262C79.861 50.6827 79.6366 50.4688 79.6366 50.1938V49.0836C79.6366 48.8188 79.8508 48.5947 80.1262 48.5947H137.585C137.851 48.5947 138.075 48.8086 138.075 49.0836V50.1938C138.085 50.4586 137.861 50.6827 137.596 50.6827Z" fill="#333739"/>
<path opacity="0.1" d="M142.808 57.9757H85.3488C85.0836 57.9757 84.8592 57.7618 84.8592 57.4868V56.3766C84.8592 56.1118 85.0734 55.8877 85.3488 55.8877H142.808C143.073 55.8877 143.298 56.1016 143.298 56.3766V57.4868C143.298 57.7516 143.083 57.9757 142.808 57.9757Z" fill="#333739"/>
<path opacity="0.1" d="M137.596 66.3067H80.1262C79.861 66.3067 79.6366 66.0928 79.6366 65.8178V64.7076C79.6366 64.4428 79.8508 64.2188 80.1262 64.2188H137.585C137.851 64.2188 138.075 64.4326 138.075 64.7076V65.8178C138.085 66.0928 137.861 66.3067 137.596 66.3067Z" fill="#333739"/>
<path opacity="0.1" d="M140.727 74.6485H83.2577C82.9925 74.6485 82.7681 74.4346 82.7681 74.1596V73.0494C82.7681 72.7846 82.9823 72.5605 83.2577 72.5605H140.717C140.982 72.5605 141.206 72.7744 141.206 73.0494V74.1596C141.217 74.4244 140.992 74.6485 140.727 74.6485Z" fill="#333739"/>
<path opacity="0.1" d="M92.7237 84.0192H81.1768C80.9116 84.0192 80.6872 83.8053 80.6872 83.5303V82.4303C80.6872 82.1655 80.9014 81.9414 81.1768 81.9414H92.7237C92.989 81.9414 93.2134 82.1553 93.2134 82.4303V83.5405C93.2134 83.8053 92.989 84.0192 92.7237 84.0192Z" fill="#333739"/>
<path opacity="0.1" d="M110.462 84.0192H98.9154C98.6502 84.0192 98.4258 83.8053 98.4258 83.5303V82.4303C98.4258 82.1655 98.64 81.9414 98.9154 81.9414H110.462C110.728 81.9414 110.952 82.1553 110.952 82.4303V83.5405C110.952 83.8053 110.728 84.0192 110.462 84.0192Z" fill="#333739"/>
<path opacity="0.1" d="M131.332 84.0192H119.786C119.52 84.0192 119.296 83.8053 119.296 83.5303V82.4303C119.296 82.1655 119.51 81.9414 119.786 81.9414H131.332C131.598 81.9414 131.822 82.1553 131.822 82.4303V83.5405C131.822 83.8053 131.598 84.0192 131.332 84.0192Z" fill="#333739"/>
<path opacity="0.1" d="M139.676 95.4874H82.2173C81.9521 95.4874 81.7277 95.2735 81.7277 94.9985V93.8883C81.7277 93.6235 81.9419 93.3994 82.2173 93.3994H139.676C139.942 93.3994 140.166 93.6133 140.166 93.8883V94.9985C140.166 95.2633 139.952 95.4874 139.676 95.4874Z" fill="#333739"/>
<path opacity="0.1" d="M139.676 113.199H82.2173C81.9521 113.199 81.7277 112.985 81.7277 112.71V111.6C81.7277 111.335 81.9419 111.111 82.2173 111.111H139.676C139.942 111.111 140.166 111.325 140.166 111.6V112.71C140.166 112.975 139.952 113.199 139.676 113.199Z" fill="#333739"/>
<path opacity="0.1" d="M133.74 137.786H88.6028C87.2359 137.786 86.1241 136.676 86.1241 135.311V128.803C86.1241 127.438 87.2359 126.328 88.6028 126.328H133.73C135.096 126.328 136.208 127.438 136.208 128.803V135.311C136.218 136.676 135.107 137.786 133.74 137.786Z" fill="#333739"/>
<path d="M52.6666 56.1513C52.6666 56.1513 55.2371 53.8291 56.1654 52.3828C57.0936 50.9365 57.3282 49.867 57.3282 49.867L67.8143 48.6143C67.8143 48.6143 67.8143 49.867 68.9771 51.13C70.089 52.3217 73.4143 52.617 73.4143 52.617V67.7421L58.4911 72.4986L52.6666 67.4671V56.1513Z" fill="#FFDDC5"/>
<path d="M74.0161 49.3882C74.0161 49.3882 55.1498 57.3685 49.4682 45.7268C44.2131 34.9591 37.8453 28.8548 49.4739 22.3669C61.1024 15.8789 65.5906 19.1891 68.4365 22.6215C71.2824 26.0539 78.6981 46.6382 74.0161 49.3882Z" fill="#FFDDC5"/>
<path d="M62.7548 11.1836C70.2216 14.7688 70.0788 19.0058 64.9785 21.4808C59.8783 23.966 52.0852 26.8485 52.0852 26.8485C52.0852 26.8485 57.6648 45.6911 55.0535 41.6068C52.4422 37.5327 54.4721 35.8827 51.0549 33.7337C47.648 31.5846 46.3525 34.467 47.3216 36.6874C48.2906 38.9179 51.8404 49.2254 51.8404 49.2254C51.8404 49.2254 43.9554 39.7939 41.8337 33.0105C39.7222 26.2272 40.3139 19.5762 47.546 17.9364C54.7883 16.2966 56.451 18.1401 60.2353 15.716C64.0197 13.3021 62.7548 11.1836 62.7548 11.1836Z" fill="#333739"/>
<path d="M65.8354 20.0347L67.6204 18.9551L70.497 26.3597L65.7844 20.5643L65.8354 20.0347Z" fill="#333739"/>
<path d="M70.6908 52.322L73.9345 51.7822L73.8733 143.357H46.0771V57.2822L53.1256 55.8258C53.1256 55.8258 52.0444 66.6221 62.8569 66.0823C73.6591 65.5425 70.6908 52.322 70.6908 52.322Z" fill="white"/>
<path d="M73.9345 51.7822L73.8733 143.357H69.2117L68.7323 63.5971C72.3127 60.4091 70.6908 52.322 70.6908 52.322L73.9345 51.7822Z" fill="#FF6666"/>
<path d="M76.097 113.912L43.1292 106.354L45.2917 96.0979L28.6139 90.71L25.2988 112.822C25.2988 112.822 26.4106 119.3 33.1531 119.84L76.1072 124.647V113.912H76.097Z" fill="#FFDDC5"/>
<path d="M61.1534 66.2456L59.6029 143.511H42.5784C42.5784 143.511 43.119 132.175 42.2213 124.79C41.8745 121.928 45.6691 96.73 45.6691 96.73L25.9618 91.8614L31.2661 66.2354C31.2661 66.2354 33.0103 60.5012 36.7845 59.4521L52.7176 55.9688C52.7278 55.9891 53.095 65.9808 61.1534 66.2456Z" fill="#FF6666"/>
<path d="M44.4144 143.357V155.783L92.0913 156.16V143.357H44.4144Z" fill="#333739"/>
<path d="M88.4906 121.011C88.4906 121.011 87.8786 122.152 87.4093 122.63C86.9401 123.109 85.2469 123.71 85.2469 123.71C85.2469 123.71 82.8701 125.065 82.0031 125.329C81.1361 125.594 79.6366 125.329 79.6366 125.329H78.3717L75.5156 124.749V114.003L78.2187 114.543L79.8406 114.003L81.4625 112.924L85.2469 106.446L86.8687 104.287L87.95 103.207H89.378L90.1125 103.747V104.786L89.5718 105.906L88.1846 109.603L97.671 106.986H98.7522L99.8335 107.526V108.065V108.605L99.2929 109.145L91.1835 111.844L101.455 111.304H101.996L102.537 111.844V112.19V112.669V113.026L101.996 113.464L100.915 114.003L98.2116 114.543L91.1835 115.623L100.915 116.163L101.996 117.242V118.322L100.374 119.402H99.4663L91.7241 118.862L97.671 120.481L98.2116 121.021V121.561L97.671 122.101L97.1304 122.64H96.0695" fill="#FFDDC5"/>
<path d="M25.5436 113.148C25.5436 113.148 26.6555 119.626 33.398 120.165L76.352 124.973V114.227L43.3842 106.67" fill="#FFDDC5"/>
<path fill-rule="evenodd" clip-rule="evenodd" d="M185.654 130.906C191.532 131.799 195.199 123.04 197.264 119.026C198.443 116.735 199.659 114.343 201.347 112.383C204.87 108.295 209.503 107.485 210.118 109.149C210.634 110.542 208.747 110.469 206.825 112.32C205.761 113.344 204.618 114.936 204.318 117.315C203.218 126.042 203.525 128.823 200.014 135.289C199.179 136.825 198.258 138.388 196.998 139.62C190.95 145.538 185.09 137.637 185.654 130.906Z" fill="#EF383D"/>
<mask id="mask0" mask-type="alpha" maskUnits="userSpaceOnUse" x="185" y="108" width="26" height="34">
<path fill-rule="evenodd" clip-rule="evenodd" d="M201.347 112.383C199.659 114.344 198.443 116.735 197.264 119.025C195.199 123.04 191.532 131.8 185.654 130.905C185.09 137.638 190.95 145.538 196.999 139.621C198.259 138.387 199.18 136.826 200.014 135.289C203.524 128.823 203.219 126.042 204.318 117.316C204.618 114.937 205.761 113.344 206.826 112.319C208.746 110.469 210.635 110.543 210.118 109.15C209.922 108.617 209.315 108.337 208.465 108.337C206.655 108.338 203.743 109.602 201.347 112.383Z" fill="white"/>
</mask>
<g mask="url(#mask0)">
<path fill-rule="evenodd" clip-rule="evenodd" d="M212.354 108.581C206.224 108.706 202.145 114.401 200.852 119.844C200.199 122.591 200.077 125.435 199.394 128.181C198.138 133.245 195.735 138.128 192.185 141.981C206.953 139.439 202.62 129.661 207.094 119.155C207.713 117.699 208.48 116.335 209.34 115.008C210.434 113.318 213.031 110.906 212.354 108.581Z" fill="#BC2025"/>
</g>
<mask id="mask1" mask-type="alpha" maskUnits="userSpaceOnUse" x="185" y="108" width="26" height="34">
<path fill-rule="evenodd" clip-rule="evenodd" d="M201.347 112.383C199.659 114.344 198.443 116.735 197.264 119.025C195.199 123.04 191.532 131.8 185.654 130.905C185.09 137.638 190.95 145.538 196.999 139.621C198.259 138.387 199.18 136.826 200.014 135.289C203.524 128.823 203.219 126.042 204.318 117.316C204.618 114.937 205.761 113.344 206.826 112.319C208.746 110.469 210.635 110.543 210.118 109.15C209.922 108.617 209.315 108.337 208.465 108.337C206.655 108.338 203.743 109.602 201.347 112.383Z" fill="white"/>
</mask>
<g mask="url(#mask1)">
<path fill-rule="evenodd" clip-rule="evenodd" d="M193.512 127.825C196.004 125.244 197.169 121.763 198.671 118.596C201.143 113.385 203.409 109.642 208.948 107.856C206.205 107.539 204.036 108.911 202.094 110.711C198.754 113.805 196.482 117.691 194.235 121.595C193.519 122.839 191.647 125.908 191.448 127.295C191.924 127.185 193.038 127.731 193.512 127.825Z" fill="#F48EAA"/>
</g>
<path fill-rule="evenodd" clip-rule="evenodd" d="M185.691 130.681C185.623 130.671 185.553 130.688 185.499 130.727C185.444 130.766 185.409 130.824 185.404 130.887H185.426C185.087 134.939 187.037 139.4 189.95 141.152C192.019 142.397 194.575 142.315 197.162 139.785C197.676 139.283 198.135 138.726 198.555 138.139C199.178 137.269 199.715 136.331 200.22 135.401C201.703 132.669 202.51 130.59 203.03 128.449C203.746 125.497 203.914 122.427 204.555 117.345C204.685 116.321 204.974 115.448 205.348 114.705C205.816 113.771 206.416 113.047 206.992 112.492C207.787 111.728 208.576 111.3 209.183 110.958C209.639 110.701 209.997 110.482 210.207 110.225C210.453 109.923 210.534 109.572 210.345 109.064C210.184 108.628 209.798 108.321 209.235 108.182C208.501 107.999 207.442 108.105 206.249 108.546C204.645 109.14 202.787 110.339 201.162 112.225C200.477 113.02 199.868 113.885 199.308 114.786C198.478 116.121 197.754 117.536 197.045 118.913C195.837 121.261 194.079 125.244 191.644 127.942C189.991 129.772 188.026 131.013 185.691 130.658V130.681ZM185.862 131.186C185.641 134.993 187.463 139.12 190.188 140.759C192.099 141.905 194.45 141.789 196.836 139.454C197.33 138.971 197.772 138.434 198.176 137.869C198.787 137.013 199.313 136.092 199.808 135.178C201.267 132.49 202.061 130.445 202.571 128.338C203.282 125.399 203.445 122.344 204.081 117.287C204.218 116.202 204.524 115.277 204.919 114.491C205.414 113.503 206.049 112.734 206.659 112.147C207.488 111.348 208.311 110.898 208.946 110.539C209.336 110.318 209.653 110.141 209.833 109.92C209.979 109.742 210.002 109.532 209.892 109.232C209.781 108.934 209.503 108.746 209.118 108.651C208.454 108.487 207.497 108.601 206.419 109.002C204.877 109.573 203.095 110.731 201.533 112.543C200.865 113.32 200.271 114.165 199.726 115.043C198.902 116.369 198.186 117.772 197.484 119.138C196.261 121.516 194.478 125.543 192.015 128.276C190.302 130.175 188.259 131.447 185.862 131.186Z" fill="#333739"/>
<path fill-rule="evenodd" clip-rule="evenodd" d="M198.869 134.766C200.827 131.597 203.277 128.066 207.042 126.938C211.362 125.646 215.742 128.168 215.049 132.751C214.148 138.694 205.382 138.077 206.346 132.916C203.033 138.114 200.818 144.067 201.073 150.316C195.413 147.932 192.694 143.746 196.148 138.115C196.832 137 197.896 135.658 198.869 134.766Z" fill="#EF383D"/>
<mask id="mask2" mask-type="alpha" maskUnits="userSpaceOnUse" x="194" y="126" width="22" height="25">
<path fill-rule="evenodd" clip-rule="evenodd" d="M209.308 126.602C208.571 126.602 207.805 126.712 207.042 126.939C203.277 128.065 200.828 131.596 198.868 134.767C197.895 135.658 196.832 137.001 196.149 138.116C192.694 143.746 195.413 147.932 201.073 150.316C200.819 144.067 203.032 138.115 206.346 132.915C205.381 138.077 214.148 138.694 215.048 132.75C215.621 128.979 212.752 126.602 209.311 126.602C209.309 126.602 209.309 126.602 209.308 126.602Z" fill="white"/>
</mask>
<g mask="url(#mask2)">
<path fill-rule="evenodd" clip-rule="evenodd" d="M206.411 134.213C208.611 136.141 212.236 135.277 213.192 132.497C213.655 131.151 213.668 129.768 213.039 128.468C212.823 128.022 212.531 127.59 212.22 127.204C212.108 127.066 211.993 126.93 211.877 126.796C211.822 126.73 211.627 126.616 211.711 126.6C213.024 126.346 214.79 128.172 215.33 129.171C217.314 132.844 214.93 138.795 210.816 139.832C207.979 140.547 205.836 137.155 206.411 134.213Z" fill="#BC2025"/>
</g>
<mask id="mask3" mask-type="alpha" maskUnits="userSpaceOnUse" x="194" y="126" width="22" height="25">
<path fill-rule="evenodd" clip-rule="evenodd" d="M209.308 126.602C208.571 126.602 207.805 126.712 207.042 126.939C203.277 128.065 200.828 131.596 198.868 134.767C197.895 135.658 196.832 137.001 196.149 138.116C192.694 143.746 195.413 147.932 201.073 150.316C200.819 144.067 203.032 138.115 206.346 132.915C205.381 138.077 214.148 138.694 215.048 132.75C215.621 128.979 212.752 126.602 209.311 126.602C209.309 126.602 209.309 126.602 209.308 126.602Z" fill="white"/>
</mask>
<g mask="url(#mask3)">
<path fill-rule="evenodd" clip-rule="evenodd" d="M198.021 141.287C198.312 139.495 198.856 137.758 199.534 136.078C201.015 132.406 202.755 129.701 206.345 127.86C208.053 126.984 209.948 126.606 211.883 127.089C210.097 125.955 207.513 126.515 205.718 127.453C202.543 129.114 199.92 132.079 198.533 135.371C198.056 136.508 197.235 139.989 198.021 141.287Z" fill="#F48EAA"/>
</g>
<mask id="mask4" mask-type="alpha" maskUnits="userSpaceOnUse" x="194" y="126" width="22" height="25">
<path fill-rule="evenodd" clip-rule="evenodd" d="M209.308 126.602C208.571 126.602 207.805 126.712 207.042 126.939C203.277 128.065 200.828 131.596 198.868 134.767C197.895 135.658 196.832 137.001 196.149 138.116C192.694 143.746 195.413 147.932 201.073 150.316C200.819 144.067 203.032 138.115 206.346 132.915C205.381 138.077 214.148 138.694 215.048 132.75C215.621 128.979 212.752 126.602 209.311 126.602C209.309 126.602 209.309 126.602 209.308 126.602Z" fill="white"/>
</mask>
<g mask="url(#mask4)">
<path fill-rule="evenodd" clip-rule="evenodd" d="M199.33 144.901C199.323 143.622 199.483 142.361 199.731 141.106C200.497 137.209 203.061 131.173 207.425 130.12C208.409 129.882 209.398 129.917 210.282 130.453C207.571 129.301 205.963 132.325 205.931 134.575C205.886 137.66 204.19 140.519 203.446 143.516C203.28 144.184 203.165 146.064 202.816 146.635C201.802 148.298 199.62 146.416 199.33 144.901Z" fill="#BC2025"/>
</g>
<path fill-rule="evenodd" clip-rule="evenodd" d="M206.036 133.867C204.616 136.212 203.428 138.701 202.596 141.295C201.668 144.187 201.181 147.21 201.307 150.307C201.311 150.386 201.272 150.462 201.207 150.508C201.14 150.553 201.056 150.563 200.982 150.53C198.113 149.321 195.991 147.649 195.006 145.578C193.998 143.459 194.16 140.915 195.953 137.996C196.3 137.43 196.744 136.806 197.224 136.212C197.705 135.617 198.221 135.051 198.715 134.599L198.655 134.635C199.84 132.719 201.204 130.674 202.922 129.095C204.091 128.024 205.422 127.165 206.971 126.702C209.158 126.048 211.357 126.344 212.952 127.366C214.641 128.446 215.662 130.334 215.289 132.786C214.85 135.688 212.621 137.098 210.468 137.23C208.932 137.325 207.439 136.764 206.639 135.648C206.29 135.16 206.068 134.565 206.036 133.867ZM200.827 149.955C200.749 146.932 201.24 143.981 202.145 141.151C203.086 138.213 204.477 135.405 206.143 132.787C206.206 132.691 206.328 132.652 206.434 132.693C206.541 132.735 206.603 132.847 206.582 132.959C206.397 133.947 206.591 134.757 207.03 135.369C207.74 136.359 209.076 136.833 210.438 136.748C212.391 136.627 214.41 135.347 214.807 132.715C215.145 130.483 214.224 128.761 212.688 127.779C211.201 126.829 209.15 126.566 207.114 127.176C205.639 127.617 204.372 128.44 203.259 129.463C201.575 131.011 200.243 133.019 199.083 134.899H199.063C199.052 134.918 199.038 134.936 199.023 134.952V134.935C198.546 135.373 198.046 135.922 197.581 136.499C197.112 137.077 196.682 137.684 196.344 138.235C194.656 140.988 194.473 143.384 195.424 145.38C196.33 147.281 198.249 148.814 200.827 149.955Z" fill="#333739"/>
<path fill-rule="evenodd" clip-rule="evenodd" d="M171.324 130.703C169.654 136.3 157.003 137.643 153.655 127.803C152.457 124.282 151.856 120.699 149.705 117.596C148.236 115.472 146.118 113.616 143.574 112.938C142.957 112.773 141.452 112.404 140.935 113.044C140.344 113.779 141.802 114.7 142.28 115.107C145.643 117.964 146.012 122.052 146.707 132.642C147.185 139.955 150.308 141.211 155.384 142.659C167.781 146.195 174.58 132.914 171.324 130.703Z" fill="#EF383D"/>
<mask id="mask5" mask-type="alpha" maskUnits="userSpaceOnUse" x="140" y="112" width="33" height="32">
<path fill-rule="evenodd" clip-rule="evenodd" d="M140.936 113.045C140.344 113.78 141.803 114.7 142.28 115.107C145.643 117.964 146.011 122.052 146.706 132.643C147.185 139.955 150.309 141.212 155.383 142.66C167.781 146.195 174.58 132.914 171.325 130.703C169.655 136.301 157.003 137.644 153.654 127.804C152.456 124.283 151.856 120.699 149.706 117.596C148.236 115.472 146.118 113.616 143.574 112.938C143.22 112.845 142.575 112.682 141.99 112.682C141.556 112.682 141.156 112.771 140.936 113.045Z" fill="white"/>
</mask>
<g mask="url(#mask5)">
<path fill-rule="evenodd" clip-rule="evenodd" d="M171.324 130.704C169.679 137.627 159.064 138.282 155.341 131.66C154.14 129.525 153.192 126.927 152.625 122.838C151.991 118.261 146.428 112.64 144.445 111.715C140.18 109.729 147.506 112.682 148.963 120.679C150.501 129.116 150.802 137.201 158.157 139.777C165.898 142.486 173.089 146.585 176.332 138.678C172.801 127.179 175.706 126.491 171.324 130.704Z" fill="#BC2025"/>
</g>
<mask id="mask6" mask-type="alpha" maskUnits="userSpaceOnUse" x="140" y="112" width="33" height="32">
<path fill-rule="evenodd" clip-rule="evenodd" d="M140.936 113.045C140.344 113.78 141.803 114.7 142.28 115.107C145.643 117.964 146.011 122.052 146.706 132.643C147.185 139.955 150.309 141.212 155.383 142.66C167.781 146.195 174.58 132.914 171.325 130.703C169.655 136.301 157.003 137.644 153.654 127.804C152.456 124.283 151.856 120.699 149.706 117.596C148.236 115.472 146.118 113.616 143.574 112.938C143.22 112.845 142.575 112.682 141.99 112.682C141.556 112.682 141.156 112.771 140.936 113.045Z" fill="white"/>
</mask>
<g mask="url(#mask6)">
<path fill-rule="evenodd" clip-rule="evenodd" d="M138.733 113.668C147.849 117.737 144.625 128.606 146.769 138.442C147.588 142.204 150.702 148.303 154.468 146.416C153.262 145.032 153.256 142.408 151.55 141.331C148.275 139.266 147.912 132.566 148.013 127.969C148.137 122.337 146.058 112.682 138.733 113.668Z" fill="#F48EAA"/>
</g>
<path fill-rule="evenodd" clip-rule="evenodd" d="M171.324 130.703C169.654 136.3 157.003 137.643 153.655 127.803C152.457 124.282 151.856 120.699 149.705 117.596C148.236 115.472 146.118 113.616 143.574 112.938C142.957 112.773 141.452 112.404 140.935 113.044C140.344 113.779 141.802 114.7 142.28 115.107C145.643 117.964 146.012 122.052 146.707 132.642C147.185 139.955 150.308 141.211 155.384 142.659C167.781 146.195 174.58 132.914 171.324 130.703Z" stroke="#333739" stroke-width="0.481" stroke-linecap="round" stroke-linejoin="round"/>
<path fill-rule="evenodd" clip-rule="evenodd" d="M188.142 89.5443C196.247 89.2286 201.155 91.5518 199.049 94.9801C198.799 95.3855 198.513 95.7257 198.222 96.0058C196.487 97.6751 194.62 97.8788 192.736 98.1538C191.432 95.7104 189.297 92.2495 188.142 89.5443Z" fill="#C6C7C8"/>
<path fill-rule="evenodd" clip-rule="evenodd" d="M188.142 89.5443C196.247 89.2286 201.155 91.5518 199.049 94.9801C198.799 95.3855 198.513 95.7257 198.222 96.0058C196.487 97.6751 194.62 97.8788 192.736 98.1538C191.432 95.7104 189.297 92.2495 188.142 89.5443Z" stroke="#333739" stroke-width="0.481" stroke-linecap="round" stroke-linejoin="round"/>
<path fill-rule="evenodd" clip-rule="evenodd" d="M190.585 128.396C192.226 128.154 197.349 126.7 198.598 127.785C202.195 130.918 199.238 137.425 197.627 140.685C200.027 145.509 207.265 146.171 207.048 152.649C206.841 158.852 199.649 160.693 194.703 158.472C191.539 157.053 190.387 153.988 189.383 150.912C187.561 150.204 185.518 149.991 183.596 149.752C181.265 166.627 158.402 162.327 162.87 149.797C161.15 149.855 159.541 149.226 155.064 147.896C153.515 147.435 151.534 147.16 149.425 147.398C150.413 149.773 149.208 153.108 145.879 153.553C141.442 154.146 137.776 148.889 140.908 144.584C144.209 140.046 149.096 139.191 151.601 139.219C156.538 139.275 162.066 141.064 166.759 138.636C168.852 137.553 170.557 135.764 170.706 133.416C171.169 126.119 156.389 125.061 152.838 109.008C149.325 93.1281 159.643 82.3491 170.722 80.7765C182.304 79.1336 196.72 84.6316 197.513 103.563C198.13 118.337 190.947 120.635 190.585 128.396Z" fill="#EF383D"/>
<mask id="mask7" mask-type="alpha" maskUnits="userSpaceOnUse" x="139" y="80" width="69" height="81">
<path fill-rule="evenodd" clip-rule="evenodd" d="M170.722 80.777C159.642 82.3485 149.325 93.1275 152.838 109.007C156.39 125.06 171.169 126.119 170.706 133.415C170.557 135.765 168.852 137.553 166.759 138.635C162.065 141.063 156.537 139.275 151.601 139.219C149.096 139.191 144.209 140.046 140.908 144.583C137.776 148.889 141.442 154.146 145.879 153.553C149.208 153.107 150.413 149.774 149.425 147.398C151.534 147.159 153.515 147.435 155.064 147.895C159.541 149.227 161.149 149.855 162.87 149.797C158.401 162.328 181.265 166.627 183.596 149.751C185.518 149.992 187.56 150.204 189.383 150.913C190.387 153.987 191.539 157.053 194.702 158.473C199.649 160.693 206.84 158.853 207.048 152.65C207.265 146.171 200.027 145.508 197.627 140.685C199.239 137.425 202.195 130.918 198.598 127.786C197.349 126.7 192.226 128.153 190.586 128.397C190.947 120.636 198.131 118.336 197.512 103.563C196.807 86.7098 185.305 80.502 174.616 80.502C173.299 80.502 171.993 80.5967 170.722 80.777Z" fill="white"/>
</mask>
<g mask="url(#mask7)">
<path fill-rule="evenodd" clip-rule="evenodd" d="M161.324 97.3301C170.903 101.668 180.344 93.4159 186.432 93.5677C192.236 98.6613 192.16 104.029 191.167 110.554C191.776 112.089 192.591 112.556 192.863 112.937C192.622 113.587 190.838 113.863 190.53 114.529C188.708 118.455 187.254 123.577 187.254 127.102C187.254 129.913 187.158 132.295 186.488 135.017C185.798 137.826 181.512 148.13 183.579 150.876C184.449 152.033 189.803 153.172 189.325 150.898C188.314 146.092 193.054 143.036 193.031 145.23C192.921 155.855 199.439 162.502 205.981 157.231C207.709 155.84 208.735 154.945 209.075 152.701C210.016 146.478 202.581 146.636 202.062 140.471C201.78 137.105 202.861 133.898 202.758 130.57C202.661 127.459 201.194 124.659 201.419 121.491C201.898 114.678 204.283 107.554 202.359 100.752C201.242 96.7994 198.598 93.917 196.621 90.4561C196.627 90.4581 196.635 90.4591 196.642 90.4612C187.669 81.6112 169.833 91.1354 161.324 97.3301Z" fill="#BC2025"/>
</g>
<mask id="mask8" mask-type="alpha" maskUnits="userSpaceOnUse" x="139" y="80" width="69" height="81">
<path fill-rule="evenodd" clip-rule="evenodd" d="M170.722 80.777C159.642 82.3485 149.325 93.1275 152.838 109.007C156.39 125.06 171.169 126.119 170.706 133.415C170.557 135.765 168.852 137.553 166.759 138.635C162.065 141.063 156.537 139.275 151.601 139.219C149.096 139.191 144.209 140.046 140.908 144.583C137.776 148.889 141.442 154.146 145.879 153.553C149.208 153.107 150.413 149.774 149.425 147.398C151.534 147.159 153.515 147.435 155.064 147.895C159.541 149.227 161.149 149.855 162.87 149.797C158.401 162.328 181.265 166.627 183.596 149.751C185.518 149.992 187.56 150.204 189.383 150.913C190.387 153.987 191.539 157.053 194.702 158.473C199.649 160.693 206.84 158.853 207.048 152.65C207.265 146.171 200.027 145.508 197.627 140.685C199.239 137.425 202.195 130.918 198.598 127.786C197.349 126.7 192.226 128.153 190.586 128.397C190.947 120.636 198.131 118.336 197.512 103.563C196.807 86.7098 185.305 80.502 174.616 80.502C173.299 80.502 171.993 80.5967 170.722 80.777Z" fill="white"/>
</mask>
<g mask="url(#mask8)">
<path fill-rule="evenodd" clip-rule="evenodd" d="M147.603 145.629C148.844 147.821 147.662 150.978 145.276 151.591C141.173 152.648 139.211 148.465 139.164 148.943C138.93 151.274 140.452 153.255 142.485 154.229C145.891 155.863 150.435 154.555 152.011 151.007C153.443 147.784 150.983 145.459 147.603 145.629Z" fill="#BC2025"/>
</g>
<mask id="mask9" mask-type="alpha" maskUnits="userSpaceOnUse" x="139" y="80" width="69" height="81">
<path fill-rule="evenodd" clip-rule="evenodd" d="M170.722 80.777C159.642 82.3485 149.325 93.1275 152.838 109.007C156.39 125.06 171.169 126.119 170.706 133.415C170.557 135.765 168.852 137.553 166.759 138.635C162.065 141.063 156.537 139.275 151.601 139.219C149.096 139.191 144.209 140.046 140.908 144.583C137.776 148.889 141.442 154.146 145.879 153.553C149.208 153.107 150.413 149.774 149.425 147.398C151.534 147.159 153.515 147.435 155.064 147.895C159.541 149.227 161.149 149.855 162.87 149.797C158.401 162.328 181.265 166.627 183.596 149.751C185.518 149.992 187.56 150.204 189.383 150.913C190.387 153.987 191.539 157.053 194.702 158.473C199.649 160.693 206.84 158.853 207.048 152.65C207.265 146.171 200.027 145.508 197.627 140.685C199.239 137.425 202.195 130.918 198.598 127.786C197.349 126.7 192.226 128.153 190.586 128.397C190.947 120.636 198.131 118.336 197.512 103.563C196.807 86.7098 185.305 80.502 174.616 80.502C173.299 80.502 171.993 80.5967 170.722 80.777Z" fill="white"/>
</mask>
<g mask="url(#mask9)">
<path fill-rule="evenodd" clip-rule="evenodd" d="M146.043 146.167C150.69 143.898 154.621 144.635 159.522 145.194C161.309 145.398 163.127 145.634 164.909 145.249C167.076 144.78 168.591 142.937 170.276 141.635C167.261 144.418 163.966 147.02 162.303 150.889C159.864 149.791 152.774 149.075 149.878 149.176C150.069 147.793 147.821 145.467 146.043 146.167Z" fill="#BC2025"/>
</g>
<mask id="mask10" mask-type="alpha" maskUnits="userSpaceOnUse" x="139" y="80" width="69" height="81">
<path fill-rule="evenodd" clip-rule="evenodd" d="M170.722 80.777C159.642 82.3485 149.325 93.1275 152.838 109.007C156.39 125.06 171.169 126.119 170.706 133.415C170.557 135.765 168.852 137.553 166.759 138.635C162.065 141.063 156.537 139.275 151.601 139.219C149.096 139.191 144.209 140.046 140.908 144.583C137.776 148.889 141.442 154.146 145.879 153.553C149.208 153.107 150.413 149.774 149.425 147.398C151.534 147.159 153.515 147.435 155.064 147.895C159.541 149.227 161.149 149.855 162.87 149.797C158.401 162.328 181.265 166.627 183.596 149.751C185.518 149.992 187.56 150.204 189.383 150.913C190.387 153.987 191.539 157.053 194.702 158.473C199.649 160.693 206.84 158.853 207.048 152.65C207.265 146.171 200.027 145.508 197.627 140.685C199.239 137.425 202.195 130.918 198.598 127.786C197.349 126.7 192.226 128.153 190.586 128.397C190.947 120.636 198.131 118.336 197.512 103.563C196.807 86.7098 185.305 80.502 174.616 80.502C173.299 80.502 171.993 80.5967 170.722 80.777Z" fill="white"/>
</mask>
<g mask="url(#mask10)">
<path fill-rule="evenodd" clip-rule="evenodd" d="M169.789 131.47C169.084 128.589 163.986 126.805 161.733 123.321C165.915 125.019 168.111 126.18 170.261 128.712C173.69 132.749 171.525 137.579 167.168 139.848C163.602 141.704 159.252 141.583 155.415 140.805C152.578 140.232 149.372 140.268 146.6 141.256C142.456 142.736 139.68 146.521 140.31 151.186C139.5 149.666 138.952 147.699 139.109 145.977C139.414 142.664 142.472 139.834 145.577 139.059C149.389 138.11 153.284 138.88 157.096 139.342C158.566 139.519 160.044 139.553 161.522 139.594C162.432 139.619 171.672 139.789 169.789 131.47Z" fill="#F48EAA"/>
</g>
<mask id="mask11" mask-type="alpha" maskUnits="userSpaceOnUse" x="139" y="80" width="69" height="81">
<path fill-rule="evenodd" clip-rule="evenodd" d="M170.722 80.777C159.642 82.3485 149.325 93.1275 152.838 109.007C156.39 125.06 171.169 126.119 170.706 133.415C170.557 135.765 168.852 137.553 166.759 138.635C162.065 141.063 156.537 139.275 151.601 139.219C149.096 139.191 144.209 140.046 140.908 144.583C137.776 148.889 141.442 154.146 145.879 153.553C149.208 153.107 150.413 149.774 149.425 147.398C151.534 147.159 153.515 147.435 155.064 147.895C159.541 149.227 161.149 149.855 162.87 149.797C158.401 162.328 181.265 166.627 183.596 149.751C185.518 149.992 187.56 150.204 189.383 150.913C190.387 153.987 191.539 157.053 194.702 158.473C199.649 160.693 206.84 158.853 207.048 152.65C207.265 146.171 200.027 145.508 197.627 140.685C199.239 137.425 202.195 130.918 198.598 127.786C197.349 126.7 192.226 128.153 190.586 128.397C190.947 120.636 198.131 118.336 197.512 103.563C196.807 86.7098 185.305 80.502 174.616 80.502C173.299 80.502 171.993 80.5967 170.722 80.777Z" fill="white"/>
</mask>
<g mask="url(#mask11)">
<path fill-rule="evenodd" clip-rule="evenodd" d="M175.077 132.793C175.608 134.859 175.17 137.472 173.893 139.552C172.531 141.769 169.678 144.165 167.779 145.87C164.423 148.883 161.646 153.999 164.565 158.303C156.033 149.229 169.958 144.03 173.78 137.784C174.517 136.58 174.95 134.172 175.077 132.793Z" fill="#F48EAA"/>
</g>
<mask id="mask12" mask-type="alpha" maskUnits="userSpaceOnUse" x="139" y="80" width="69" height="81">
<path fill-rule="evenodd" clip-rule="evenodd" d="M170.722 80.777C159.642 82.3485 149.325 93.1275 152.838 109.007C156.39 125.06 171.169 126.119 170.706 133.415C170.557 135.765 168.852 137.553 166.759 138.635C162.065 141.063 156.537 139.275 151.601 139.219C149.096 139.191 144.209 140.046 140.908 144.583C137.776 148.889 141.442 154.146 145.879 153.553C149.208 153.107 150.413 149.774 149.425 147.398C151.534 147.159 153.515 147.435 155.064 147.895C159.541 149.227 161.149 149.855 162.87 149.797C158.401 162.328 181.265 166.627 183.596 149.751C185.518 149.992 187.56 150.204 189.383 150.913C190.387 153.987 191.539 157.053 194.702 158.473C199.649 160.693 206.84 158.853 207.048 152.65C207.265 146.171 200.027 145.508 197.627 140.685C199.239 137.425 202.195 130.918 198.598 127.786C197.349 126.7 192.226 128.153 190.586 128.397C190.947 120.636 198.131 118.336 197.512 103.563C196.807 86.7098 185.305 80.502 174.616 80.502C173.299 80.502 171.993 80.5967 170.722 80.777Z" fill="white"/>
</mask>
<g mask="url(#mask12)">
<path fill-rule="evenodd" clip-rule="evenodd" d="M170.903 151.119C175.2 152.533 177.119 149.685 178.287 145.916C179.014 143.569 179.152 141.114 179.812 138.754C180.739 135.437 183.372 130.519 187.254 129.978C184.786 129.417 182.401 131.271 181.082 133.182C179.679 135.214 178.744 137.465 178.15 139.854C177.529 142.352 177.229 144.924 176.221 147.317C175.136 149.895 173.636 151.035 170.903 151.119Z" fill="#F48EAA"/>
</g>
<mask id="mask13" mask-type="alpha" maskUnits="userSpaceOnUse" x="139" y="80" width="69" height="81">
<path fill-rule="evenodd" clip-rule="evenodd" d="M170.722 80.777C159.642 82.3485 149.325 93.1275 152.838 109.007C156.39 125.06 171.169 126.119 170.706 133.415C170.557 135.765 168.852 137.553 166.759 138.635C162.065 141.063 156.537 139.275 151.601 139.219C149.096 139.191 144.209 140.046 140.908 144.583C137.776 148.889 141.442 154.146 145.879 153.553C149.208 153.107 150.413 149.774 149.425 147.398C151.534 147.159 153.515 147.435 155.064 147.895C159.541 149.227 161.149 149.855 162.87 149.797C158.401 162.328 181.265 166.627 183.596 149.751C185.518 149.992 187.56 150.204 189.383 150.913C190.387 153.987 191.539 157.053 194.702 158.473C199.649 160.693 206.84 158.853 207.048 152.65C207.265 146.171 200.027 145.508 197.627 140.685C199.239 137.425 202.195 130.918 198.598 127.786C197.349 126.7 192.226 128.153 190.586 128.397C190.947 120.636 198.131 118.336 197.512 103.563C196.807 86.7098 185.305 80.502 174.616 80.502C173.299 80.502 171.993 80.5967 170.722 80.777Z" fill="white"/>
</mask>
<g mask="url(#mask13)">
<path fill-rule="evenodd" clip-rule="evenodd" d="M189.287 148.343C189.747 153.615 190.86 160.858 201.007 159.67C199.001 159.81 195.528 158.208 194.061 157.13C190.716 154.67 189.931 151.37 189.287 148.343Z" fill="#F48EAA"/>
</g>
<mask id="mask14" mask-type="alpha" maskUnits="userSpaceOnUse" x="139" y="80" width="69" height="81">
<path fill-rule="evenodd" clip-rule="evenodd" d="M170.722 80.777C159.642 82.3485 149.325 93.1275 152.838 109.007C156.39 125.06 171.169 126.119 170.706 133.415C170.557 135.765 168.852 137.553 166.759 138.635C162.065 141.063 156.537 139.275 151.601 139.219C149.096 139.191 144.209 140.046 140.908 144.583C137.776 148.889 141.442 154.146 145.879 153.553C149.208 153.107 150.413 149.774 149.425 147.398C151.534 147.159 153.515 147.435 155.064 147.895C159.541 149.227 161.149 149.855 162.87 149.797C158.401 162.328 181.265 166.627 183.596 149.751C185.518 149.992 187.56 150.204 189.383 150.913C190.387 153.987 191.539 157.053 194.702 158.473C199.649 160.693 206.84 158.853 207.048 152.65C207.265 146.171 200.027 145.508 197.627 140.685C199.239 137.425 202.195 130.918 198.598 127.786C197.349 126.7 192.226 128.153 190.586 128.397C190.947 120.636 198.131 118.336 197.512 103.563C196.807 86.7098 185.305 80.502 174.616 80.502C173.299 80.502 171.993 80.5967 170.722 80.777Z" fill="white"/>
</mask>
<g mask="url(#mask14)">
<path fill-rule="evenodd" clip-rule="evenodd" d="M163.475 157.151C165.002 158.275 166.671 158.754 168.549 158.844C174.413 159.126 178.864 154.583 180.3 149.175C181.371 145.141 180.387 140.054 181.986 136.109C182.707 134.33 185.729 130.825 188.141 130.72C186.565 133.668 184.387 135.351 183.862 138.729C183.458 141.316 183.624 144.767 183.862 147.322C184.256 151.576 182.159 155.367 179.533 158.625C178.151 160.338 176.336 161.747 174.177 162.297C170.223 163.305 165.032 161.203 163.475 157.151Z" fill="#BC2025"/>
</g>
<mask id="mask15" mask-type="alpha" maskUnits="userSpaceOnUse" x="139" y="80" width="69" height="81">
<path fill-rule="evenodd" clip-rule="evenodd" d="M170.722 80.777C159.642 82.3485 149.325 93.1275 152.838 109.007C156.39 125.06 171.169 126.119 170.706 133.415C170.557 135.765 168.852 137.553 166.759 138.635C162.065 141.063 156.537 139.275 151.601 139.219C149.096 139.191 144.209 140.046 140.908 144.583C137.776 148.889 141.442 154.146 145.879 153.553C149.208 153.107 150.413 149.774 149.425 147.398C151.534 147.159 153.515 147.435 155.064 147.895C159.541 149.227 161.149 149.855 162.87 149.797C158.401 162.328 181.265 166.627 183.596 149.751C185.518 149.992 187.56 150.204 189.383 150.913C190.387 153.987 191.539 157.053 194.702 158.473C199.649 160.693 206.84 158.853 207.048 152.65C207.265 146.171 200.027 145.508 197.627 140.685C199.239 137.425 202.195 130.918 198.598 127.786C197.349 126.7 192.226 128.153 190.586 128.397C190.947 120.636 198.131 118.336 197.512 103.563C196.807 86.7098 185.305 80.502 174.616 80.502C173.299 80.502 171.993 80.5967 170.722 80.777Z" fill="white"/>
</mask>
<g mask="url(#mask15)">
<path fill-rule="evenodd" clip-rule="evenodd" d="M170.783 151.286C168.872 151.552 168.009 150.251 169.89 148.379C170.731 147.544 171.921 146.965 172.93 146.363C174.893 145.194 177.069 143.516 177.975 141.334C177.238 145.022 176.25 151.308 170.783 151.286Z" fill="#BC2025"/>
</g>
<path fill-rule="evenodd" clip-rule="evenodd" d="M190.585 128.396C192.226 128.154 197.349 126.7 198.598 127.785C202.195 130.918 199.238 137.425 197.627 140.685C200.027 145.509 207.265 146.171 207.048 152.649C206.841 158.852 199.649 160.693 194.703 158.472C191.539 157.053 190.387 153.988 189.383 150.912C187.561 150.204 185.518 149.991 183.596 149.752C181.265 166.627 158.402 162.327 162.87 149.797C161.15 149.855 159.541 149.226 155.064 147.896C153.515 147.435 151.534 147.16 149.425 147.398C150.413 149.773 149.208 153.108 145.879 153.553C141.442 154.146 137.776 148.889 140.908 144.584C144.209 140.046 149.096 139.191 151.601 139.219C156.538 139.275 162.066 141.064 166.759 138.636C168.852 137.553 170.557 135.764 170.706 133.416C171.169 126.119 156.389 125.061 152.838 109.008C149.325 93.1281 159.643 82.3491 170.722 80.7765C182.304 79.1336 196.72 84.6316 197.513 103.563C198.13 118.337 190.947 120.635 190.585 128.396Z" stroke="#333739" stroke-width="0.481" stroke-linecap="round" stroke-linejoin="round"/>
<path fill-rule="evenodd" clip-rule="evenodd" d="M197.405 140.593C196.551 142.638 195.994 144.968 196.619 146.872C196.924 147.8 197.49 148.65 198.46 149.279C198.602 149.371 198.753 149.459 198.916 149.534C199.143 149.638 199.387 149.718 199.649 149.794C199.706 149.818 199.772 149.792 199.796 149.735C199.821 149.678 199.794 149.612 199.737 149.588C199.509 149.46 199.311 149.319 199.114 149.186C198.976 149.092 198.842 149.002 198.715 148.909C197.873 148.295 197.343 147.562 197.074 146.725C196.491 144.917 197.038 142.715 197.849 140.778C197.9 140.656 197.842 140.515 197.719 140.464C197.597 140.412 197.456 140.47 197.405 140.593Z" fill="#333739"/>
<path fill-rule="evenodd" clip-rule="evenodd" d="M206.48 133.543C206.693 132.638 207.252 131.549 208.056 130.953C208.567 130.574 209.182 130.4 209.881 130.648C210.414 130.82 210.813 131.263 210.96 131.751C211.112 132.26 210.995 132.817 210.457 133.194C210.42 133.219 210.408 133.268 210.432 133.307C210.455 133.345 210.506 133.356 210.544 133.333C211.232 132.95 211.429 132.289 211.3 131.665C211.171 131.041 210.695 130.461 210.046 130.199C209.174 129.873 208.393 130.067 207.75 130.54C206.852 131.2 206.233 132.423 206.005 133.435C205.975 133.565 206.057 133.696 206.188 133.727C206.319 133.756 206.451 133.675 206.48 133.543Z" fill="#333739"/>
<path fill-rule="evenodd" clip-rule="evenodd" d="M149.733 147.542C149.149 146.63 148.231 145.958 147.235 145.703C146.211 145.44 145.111 145.613 144.212 146.386C143.652 146.896 143.268 147.632 143.307 148.334C143.343 148.969 143.707 149.584 144.594 149.949C144.635 149.968 144.684 149.95 144.702 149.909C144.722 149.868 144.705 149.82 144.664 149.801C143.93 149.416 143.647 148.877 143.661 148.328C143.667 148.088 143.733 147.85 143.84 147.621C143.992 147.291 144.234 146.988 144.526 146.754C144.902 146.439 145.318 146.248 145.745 146.16C146.196 146.065 146.66 146.084 147.107 146.201C147.986 146.424 148.801 147.007 149.324 147.807C149.397 147.919 149.548 147.951 149.661 147.878C149.774 147.806 149.807 147.654 149.733 147.542Z" fill="#333739"/>
<path fill-rule="evenodd" clip-rule="evenodd" d="M163.091 149.902C163.605 148.828 164.364 147.72 165.244 146.681C166.094 145.679 167.059 144.742 168.034 143.96C169.678 142.64 172.377 140.768 173.947 137.95C174.481 136.987 174.902 135.918 175.074 134.719C175.127 134.351 175.152 133.97 175.153 133.579C175.155 133.209 175.131 132.831 175.086 132.442C175.081 132.367 175.015 132.31 174.939 132.314C174.864 132.32 174.806 132.386 174.811 132.461C174.82 132.84 174.805 133.206 174.775 133.562C174.745 133.936 174.691 134.297 174.627 134.646C174.421 135.782 174.043 136.802 173.528 137.716C171.98 140.466 169.336 142.289 167.726 143.578C166.727 144.377 165.739 145.338 164.868 146.363C163.96 147.437 163.178 148.582 162.648 149.691C162.59 149.813 162.642 149.96 162.764 150.017C162.885 150.076 163.032 150.024 163.091 149.902Z" fill="#333739"/>
<path fill-rule="evenodd" clip-rule="evenodd" d="M172.207 97.7673C172.818 97.9791 173.378 98.2735 173.892 98.6116C174.248 98.8469 174.581 99.1036 174.892 99.3714C175.02 99.4825 175.145 99.5935 175.267 99.7065C175.454 99.8807 175.633 100.059 175.803 100.238C176.269 100.733 176.665 101.242 176.975 101.724C176.99 101.748 177.021 101.756 177.046 101.741C177.07 101.727 177.077 101.695 177.063 101.671C176.776 101.165 176.411 100.622 175.961 100.097C175.797 99.9052 175.621 99.7157 175.434 99.5324C175.311 99.4132 175.184 99.2971 175.053 99.1851C174.731 98.9111 174.38 98.6575 174.006 98.4314C173.466 98.1075 172.875 97.8447 172.24 97.6614C172.211 97.6532 172.179 97.6685 172.17 97.698C172.161 97.7276 172.177 97.7581 172.207 97.7673Z" fill="#333739"/>
<path fill-rule="evenodd" clip-rule="evenodd" d="M168.981 98.306C168.614 98.4516 168.255 98.6339 167.92 98.8611C167.7 99.0098 167.49 99.1778 167.296 99.3632C167.218 99.4375 167.144 99.5149 167.073 99.5964C166.966 99.7166 166.867 99.8429 166.774 99.9743C166.542 100.303 166.357 100.66 166.219 101.036C166.208 101.061 166.22 101.091 166.246 101.102C166.272 101.113 166.303 101.101 166.313 101.075C166.479 100.725 166.695 100.403 166.942 100.104C167.041 99.9835 167.143 99.8694 167.25 99.7584C167.321 99.685 167.393 99.6117 167.467 99.5404C167.651 99.3601 167.844 99.19 168.047 99.0332C168.356 98.7928 168.683 98.5789 169.026 98.4078C169.055 98.3946 169.067 98.362 169.055 98.3335C169.041 98.306 169.009 98.2927 168.981 98.306Z" fill="#333739"/>
<path fill-rule="evenodd" clip-rule="evenodd" d="M170.148 98.776C168.005 99.1742 165.818 101.054 164.598 101.696C163.679 102.181 165.37 103.537 165.444 105.365C165.535 107.596 173.025 98.2422 170.148 98.776Z" fill="#333739"/>
<path fill-rule="evenodd" clip-rule="evenodd" d="M163.866 100.12C164.06 99.2357 164.442 98.3252 164.977 97.4788C165.454 96.7271 166.072 96.0498 166.864 95.5467C167.387 95.1769 167.971 94.9437 168.567 94.7665C169.192 94.5811 169.833 94.4589 170.48 94.4344C171.907 94.3784 173.321 94.6667 174.402 95.3012C174.563 95.4163 174.788 95.3786 174.904 95.2167C175.021 95.0537 174.982 94.8296 174.821 94.7135C173.72 93.7734 172.171 93.1124 170.527 92.9433C169.724 92.8608 168.899 92.9067 168.11 93.1043C167.311 93.3049 166.561 93.6828 165.88 94.1849C164.97 94.9274 164.269 95.8441 163.819 96.8606C163.358 97.8954 163.131 98.9944 163.085 100.017C163.058 100.233 163.209 100.43 163.424 100.459C163.64 100.486 163.838 100.335 163.866 100.12Z" fill="#333739"/>
<path fill-rule="evenodd" clip-rule="evenodd" d="M169.64 98.7974C166.253 99.8526 164.457 103.766 165.633 107.531C166.81 111.296 170.514 113.497 173.903 112.442C177.29 111.385 179.086 107.472 177.909 103.707C176.734 99.9423 173.028 97.7422 169.64 98.7974Z" fill="white"/>
<mask id="mask16" mask-type="alpha" maskUnits="userSpaceOnUse" x="165" y="98" width="14" height="15">
<path fill-rule="evenodd" clip-rule="evenodd" d="M169.64 98.797C166.252 99.8522 164.457 103.765 165.633 107.531C166.809 111.295 170.515 113.496 173.903 112.441C177.29 111.386 179.086 107.472 177.908 103.706C176.932 100.58 174.211 98.5332 171.377 98.5332C170.798 98.5332 170.215 98.6177 169.64 98.797Z" fill="white"/>
</mask>
<g mask="url(#mask16)">
<path fill-rule="evenodd" clip-rule="evenodd" d="M170.193 101.055C167.65 101.821 166.292 104.785 167.163 107.667C168.035 110.551 170.808 112.271 173.35 111.504C175.893 110.738 177.25 107.774 176.379 104.891C175.508 102.007 172.735 100.288 170.193 101.055Z" fill="#333739"/>
</g>
<mask id="mask17" mask-type="alpha" maskUnits="userSpaceOnUse" x="165" y="98" width="14" height="15">
<path fill-rule="evenodd" clip-rule="evenodd" d="M169.64 98.797C166.252 99.8522 164.457 103.765 165.633 107.531C166.809 111.295 170.515 113.496 173.903 112.441C177.29 111.386 179.086 107.472 177.908 103.706C176.932 100.58 174.211 98.5332 171.377 98.5332C170.798 98.5332 170.215 98.6177 169.64 98.797Z" fill="white"/>
</mask>
<g mask="url(#mask17)">
<path fill-rule="evenodd" clip-rule="evenodd" d="M174.66 105.52C174.811 106.27 174.775 106.905 174.638 107.438C174.402 108.355 173.732 108.867 172.973 109.041C172.318 109.19 171.589 109.101 170.967 108.692C170.396 108.319 169.894 107.736 169.623 106.879C169.535 106.538 169.187 106.331 168.845 106.419C168.505 106.505 168.298 106.854 168.385 107.195C168.762 109.076 169.959 110.203 171.265 110.641C171.957 110.873 172.692 110.896 173.37 110.736C173.844 110.625 174.293 110.423 174.68 110.128C175.849 109.239 176.595 107.567 175.822 105.21C175.736 104.89 175.405 104.7 175.085 104.785C174.765 104.871 174.574 105.202 174.66 105.52Z" fill="#780000"/>
</g>
<mask id="mask18" mask-type="alpha" maskUnits="userSpaceOnUse" x="165" y="98" width="14" height="15">
<path fill-rule="evenodd" clip-rule="evenodd" d="M169.64 98.797C166.252 99.8522 164.457 103.765 165.633 107.531C166.809 111.295 170.515 113.496 173.903 112.441C177.29 111.386 179.086 107.472 177.908 103.706C176.932 100.58 174.211 98.5332 171.377 98.5332C170.798 98.5332 170.215 98.6177 169.64 98.797Z" fill="white"/>
</mask>
<g mask="url(#mask18)">
<path fill-rule="evenodd" clip-rule="evenodd" d="M170.876 102.958C170.389 102.581 169.667 102.69 169.265 103.203C168.863 103.715 168.932 104.437 169.421 104.815C169.908 105.192 170.63 105.083 171.031 104.57C171.433 104.057 171.364 103.335 170.876 102.958Z" fill="white"/>
</g>
<mask id="mask19" mask-type="alpha" maskUnits="userSpaceOnUse" x="165" y="98" width="14" height="15">
<path fill-rule="evenodd" clip-rule="evenodd" d="M169.64 98.797C166.252 99.8522 164.457 103.765 165.633 107.531C166.809 111.295 170.515 113.496 173.903 112.441C177.29 111.386 179.086 107.472 177.908 103.706C176.932 100.58 174.211 98.5332 171.377 98.5332C170.798 98.5332 170.215 98.6177 169.64 98.797Z" fill="white"/>
</mask>
<g mask="url(#mask19)">
<path fill-rule="evenodd" clip-rule="evenodd" d="M174.824 108.559C174.489 108.559 174.217 108.843 174.216 109.192C174.216 109.542 174.487 109.826 174.822 109.825C175.157 109.825 175.429 109.54 175.43 109.19C175.43 108.841 175.159 108.558 174.824 108.559Z" fill="white"/>
</g>
<path fill-rule="evenodd" clip-rule="evenodd" d="M169.593 98.6454C168.497 98.9591 167.55 99.557 166.81 100.362C166.317 100.898 165.922 101.53 165.627 102.217C164.942 103.813 164.82 105.726 165.409 107.6C165.998 109.471 167.194 110.965 168.666 111.886C170.25 112.879 172.153 113.209 173.966 112.639C175.774 112.072 177.142 110.716 177.87 109C178.545 107.411 178.668 105.513 178.082 103.652C177.495 101.796 176.308 100.314 174.846 99.3991C173.276 98.4162 171.391 98.0893 169.595 98.6546L169.593 98.6454ZM169.685 98.939C171.395 98.4125 173.185 98.7353 174.671 99.6775C176.062 100.56 177.188 101.982 177.737 103.76C178.286 105.534 178.16 107.339 177.512 108.847C176.821 110.45 175.537 111.717 173.841 112.241C172.148 112.762 170.377 112.443 168.904 111.51C167.522 110.636 166.405 109.224 165.859 107.46C165.311 105.7 165.438 103.909 166.077 102.408C166.348 101.768 166.717 101.185 167.16 100.672C167.83 99.8985 168.677 99.2884 169.687 98.9472L169.685 98.939Z" fill="#333739"/>
<path fill-rule="evenodd" clip-rule="evenodd" d="M195.062 97.185C194.833 96.8255 194.573 96.4761 194.272 96.1604C194.072 95.9495 193.855 95.755 193.623 95.5808C193.531 95.5106 193.434 95.4464 193.335 95.3853C193.185 95.2936 193.031 95.2111 192.872 95.1378C192.477 94.9585 192.057 94.8404 191.618 94.7935C191.589 94.7894 191.564 94.8088 191.56 94.8363C191.555 94.8648 191.575 94.8903 191.602 94.8943C192.02 94.9758 192.41 95.1286 192.777 95.3282C192.923 95.4077 193.064 95.4953 193.204 95.588C193.297 95.6491 193.387 95.7143 193.476 95.7794C193.702 95.9424 193.917 96.1206 194.121 96.3121C194.432 96.6024 194.72 96.9161 194.97 97.2482C194.987 97.2736 195.022 97.2797 195.047 97.2624C195.073 97.2451 195.079 97.2094 195.062 97.185Z" fill="#333739"/>
<path fill-rule="evenodd" clip-rule="evenodd" d="M188.552 96.0636C188.306 96.3528 188.093 96.6757 187.916 97.022C187.8 97.2491 187.7 97.4854 187.614 97.7289C187.581 97.8246 187.55 97.9224 187.523 98.0212C187.481 98.1689 187.444 98.3176 187.412 98.4663C187.332 98.8472 187.279 99.2281 187.239 99.5958C187.234 99.6233 187.253 99.6498 187.281 99.6539C187.308 99.6579 187.335 99.6396 187.34 99.6111C187.386 99.3952 187.44 99.1762 187.498 98.9531C187.554 98.7372 187.616 98.5203 187.684 98.3043C187.728 98.1627 187.776 98.0212 187.824 97.8786C187.871 97.738 187.919 97.5975 187.972 97.4579C188.042 97.2715 188.117 97.0882 188.201 96.9089C188.327 96.636 188.47 96.3732 188.64 96.1308C188.658 96.1074 188.654 96.0717 188.63 96.0534C188.606 96.0351 188.571 96.0391 188.552 96.0636Z" fill="#333739"/>
<path fill-rule="evenodd" clip-rule="evenodd" d="M190.481 95.5733C192.132 95.4409 193.617 95.5947 194.712 95.7719C195.945 95.9726 195.18 97.1877 195.963 99.5567C196.664 101.678 187.565 95.8065 190.481 95.5733Z" fill="#333739"/>
<path fill-rule="evenodd" clip-rule="evenodd" d="M186.529 91.9359C186.992 91.6324 187.55 91.4175 188.157 91.2739C188.67 91.1506 189.211 91.1252 189.768 91.228C190.145 91.2678 190.495 91.3961 190.836 91.5356C191.203 91.6874 191.559 91.8493 191.883 92.0693C192.627 92.5735 193.252 93.1948 193.56 93.8945C193.614 94.085 193.814 94.197 194.006 94.142C194.197 94.088 194.308 93.8884 194.254 93.6969C194.178 93.1133 193.957 92.5216 193.625 91.941C193.417 91.5774 193.153 91.2453 192.854 90.9337C192.479 90.5416 192.039 90.2044 191.544 89.963C191.044 89.7186 190.485 89.5964 189.914 89.5566C189.122 89.5628 188.369 89.7125 187.709 90.0435C187.03 90.3827 186.456 90.839 186.012 91.3441C185.848 91.4867 185.831 91.7353 185.974 91.8982C186.117 92.0622 186.366 92.0795 186.529 91.9359Z" fill="#333739"/>
<path fill-rule="evenodd" clip-rule="evenodd" d="M190.668 95.654C188.157 96.1276 186.667 99.4103 187.342 102.979C188.017 106.548 190.605 109.062 193.115 108.588C195.627 108.115 197.117 104.833 196.442 101.263C195.766 97.6931 193.178 95.1804 190.668 95.654Z" fill="white"/>
<mask id="mask20" mask-type="alpha" maskUnits="userSpaceOnUse" x="187" y="95" width="10" height="14">
<path fill-rule="evenodd" clip-rule="evenodd" d="M190.668 95.6538C188.157 96.1274 186.668 99.4101 187.342 102.98C188.017 106.548 190.605 109.062 193.115 108.589C195.627 108.114 197.116 104.833 196.442 101.263C195.82 97.9852 193.588 95.5957 191.282 95.5957C191.077 95.5957 190.872 95.6151 190.668 95.6538Z" fill="white"/>
</mask>
<g mask="url(#mask20)">
<path fill-rule="evenodd" clip-rule="evenodd" d="M190.179 97.81C187.93 98.0443 186.586 100.525 187.179 103.346C187.773 106.166 190.08 108.264 192.328 108.029C194.577 107.794 195.921 105.313 195.328 102.493C194.734 99.6729 192.427 97.5747 190.179 97.81Z" fill="#333739"/>
</g>
<mask id="mask21" mask-type="alpha" maskUnits="userSpaceOnUse" x="187" y="95" width="10" height="14">
<path fill-rule="evenodd" clip-rule="evenodd" d="M190.668 95.6538C188.157 96.1274 186.668 99.4101 187.342 102.98C188.017 106.548 190.605 109.062 193.115 108.589C195.627 108.114 197.116 104.833 196.442 101.263C195.82 97.9852 193.588 95.5957 191.282 95.5957C191.077 95.5957 190.872 95.6151 190.668 95.6538Z" fill="white"/>
</mask>
<g mask="url(#mask21)">
<path fill-rule="evenodd" clip-rule="evenodd" d="M193.726 103.022C193.834 103.807 193.691 104.434 193.428 104.902C193.159 105.385 192.699 105.621 192.212 105.628C191.733 105.634 191.232 105.419 190.809 104.933C190.435 104.501 190.097 103.916 189.89 103.119C189.826 102.772 189.492 102.544 189.145 102.609C188.799 102.675 188.57 103.008 188.636 103.354C188.85 105.061 189.575 106.169 190.402 106.778C190.978 107.202 191.629 107.382 192.246 107.369C192.703 107.359 193.149 107.243 193.541 107.015C194.662 106.368 195.494 104.879 194.903 102.772C194.834 102.448 194.514 102.241 194.19 102.309C193.864 102.378 193.657 102.698 193.726 103.022Z" fill="#780000"/>
</g>
<mask id="mask22" mask-type="alpha" maskUnits="userSpaceOnUse" x="187" y="95" width="10" height="14">
<path fill-rule="evenodd" clip-rule="evenodd" d="M190.668 95.6538C188.157 96.1274 186.668 99.4101 187.342 102.98C188.017 106.548 190.605 109.062 193.115 108.589C195.627 108.114 197.116 104.833 196.442 101.263C195.82 97.9852 193.588 95.5957 191.282 95.5957C191.077 95.5957 190.872 95.6151 190.668 95.6538Z" fill="white"/>
</mask>
<g mask="url(#mask22)">
<path fill-rule="evenodd" clip-rule="evenodd" d="M188.757 100.005C188.315 100.411 188.269 101.054 188.656 101.439C189.044 101.824 189.718 101.807 190.161 101.398C190.605 100.992 190.648 100.349 190.262 99.9643C189.874 99.5793 189.201 99.5987 188.757 100.005Z" fill="white"/>
</g>
<mask id="mask23" mask-type="alpha" maskUnits="userSpaceOnUse" x="187" y="95" width="10" height="14">
<path fill-rule="evenodd" clip-rule="evenodd" d="M190.668 95.6538C188.157 96.1274 186.668 99.4101 187.342 102.98C188.017 106.548 190.605 109.062 193.115 108.589C195.627 108.114 197.116 104.833 196.442 101.263C195.82 97.9852 193.588 95.5957 191.282 95.5957C191.077 95.5957 190.872 95.6151 190.668 95.6538Z" fill="white"/>
</mask>
<g mask="url(#mask23)">
<path fill-rule="evenodd" clip-rule="evenodd" d="M193.459 105.63C193.227 105.924 193.265 106.341 193.543 106.559C193.821 106.778 194.236 106.716 194.467 106.423C194.699 106.128 194.661 105.712 194.383 105.494C194.105 105.275 193.691 105.336 193.459 105.63Z" fill="white"/>
</g>
<path fill-rule="evenodd" clip-rule="evenodd" d="M190.646 95.5389C189.47 95.7538 188.505 96.5646 187.868 97.7328C187.109 99.1231 186.814 101.021 187.18 103.011C187.547 105.007 188.504 106.682 189.712 107.715C190.742 108.596 191.956 109.013 193.154 108.794C194.355 108.572 195.343 107.745 195.992 106.551C196.755 105.147 197.049 103.228 196.675 101.219C196.494 100.279 196.19 99.4103 195.783 98.6495C195.321 97.7847 194.735 97.0585 194.077 96.5208C193.037 95.6703 191.824 95.2843 190.645 95.5338L190.646 95.5389ZM190.69 95.7747C191.79 95.5924 192.884 96.009 193.817 96.8268C194.418 97.3534 194.949 98.048 195.371 98.8659C195.748 99.5921 196.041 100.415 196.208 101.307C196.572 103.2 196.311 105.011 195.599 106.34C195.024 107.416 194.153 108.176 193.077 108.384C191.749 108.641 190.401 108.008 189.346 106.824C188.477 105.85 187.807 104.502 187.505 102.949C187.132 101.037 187.393 99.2081 188.109 97.8627C188.695 96.7596 189.588 95.9845 190.69 95.7706V95.7747Z" fill="#333739"/>
<path fill-rule="evenodd" clip-rule="evenodd" d="M187.228 128.243C181.617 129.893 176.948 124.89 176.089 115.19C176.483 115.09 176.596 115.078 176.993 114.991C181.028 117.019 186.567 116.763 191.157 114.174C189.643 116.435 187.1 120.237 187.228 128.243Z" fill="#333739"/>
<mask id="mask24" mask-type="alpha" maskUnits="userSpaceOnUse" x="176" y="114" width="16" height="15">
<path fill-rule="evenodd" clip-rule="evenodd" d="M176.992 114.991C176.597 115.079 176.483 115.09 176.089 115.19C176.949 124.89 181.617 129.894 187.228 128.244C187.1 120.237 189.643 116.436 191.157 114.175C186.567 116.764 181.029 117.02 176.992 114.991Z" fill="white"/>
</mask>
<g mask="url(#mask24)">
<path fill-rule="evenodd" clip-rule="evenodd" d="M182.95 122.223C179.692 119.418 175.934 118.429 174.563 120.016C173.193 121.604 174.725 125.17 177.983 127.974C181.241 130.779 184.999 131.768 186.37 130.181C187.74 128.595 186.208 125.029 182.95 122.223Z" fill="#F48EAA"/>
</g>
<mask id="mask25" mask-type="alpha" maskUnits="userSpaceOnUse" x="176" y="114" width="16" height="15">
<path fill-rule="evenodd" clip-rule="evenodd" d="M176.992 114.991C176.597 115.079 176.483 115.09 176.089 115.19C176.949 124.89 181.617 129.894 187.228 128.244C187.1 120.237 189.643 116.436 191.157 114.175C186.567 116.764 181.029 117.02 176.992 114.991Z" fill="white"/>
</mask>
<g mask="url(#mask25)">
<path fill-rule="evenodd" clip-rule="evenodd" d="M188.654 112.506C188.348 114.047 187.772 114.868 187.037 115.333C186.709 115.542 186.333 115.608 185.946 115.681C185.26 115.809 184.518 115.796 183.766 115.788C183.087 115.827 182.356 115.787 181.611 115.753C180.505 115.703 179.379 115.64 178.326 115.44C176.985 115.184 175.786 114.863 175.014 114.231C174.78 113.984 174.39 113.972 174.141 114.205C173.893 114.438 173.881 114.828 174.114 115.077C174.989 116.278 176.679 117.29 178.655 117.984C179.651 118.333 180.712 118.577 181.757 118.698C182.496 118.782 183.226 118.766 183.909 118.735C185.639 118.521 187.349 118.272 188.497 117.16C189.415 116.269 190.097 114.917 189.996 112.608C190.025 112.238 189.746 111.915 189.376 111.887C189.006 111.858 188.681 112.136 188.654 112.506Z" fill="white"/>
</g>
<path fill-rule="evenodd" clip-rule="evenodd" d="M192.734 112.916C192.346 112.64 192.012 112.325 191.736 111.967C191.414 111.548 191.169 111.071 191.006 110.523C190.982 110.448 191.024 110.369 191.1 110.345C191.175 110.322 191.255 110.364 191.278 110.439C191.441 110.945 191.678 111.386 191.987 111.77C192.296 112.155 192.677 112.482 193.125 112.762C193.172 112.793 193.202 112.845 193.205 112.9C193.208 112.957 193.182 113.011 193.139 113.045C190.732 114.953 187.982 116.051 185.284 116.438C182.23 116.877 179.248 116.407 176.912 115.23C176.776 115.282 176.643 115.329 176.514 115.368C176.471 115.38 176.43 115.391 176.389 115.401C176.713 117.792 176.984 119.635 177.564 121.352C177.985 122.597 178.567 123.777 179.455 125.053C180.512 126.58 181.887 127.57 183.325 128.057C183.968 128.276 184.624 128.396 185.275 128.418C186.287 128.45 187.284 128.25 188.185 127.799C188.239 127.77 188.308 127.791 188.337 127.845C188.367 127.9 188.346 127.968 188.291 127.997C187.219 128.608 185.989 128.886 184.741 128.796C184.219 128.759 183.697 128.655 183.182 128.489C181.649 127.996 180.189 126.941 179.058 125.329C178.138 124.013 177.532 122.796 177.094 121.51C176.483 119.713 176.205 117.778 175.86 115.234C175.841 115.098 175.938 114.971 176.075 114.952C176.171 114.939 176.27 114.916 176.371 114.887C176.522 114.842 176.678 114.784 176.835 114.723C176.903 114.698 176.978 114.702 177.042 114.734C179.307 115.914 182.224 116.375 185.219 115.973C187.783 115.627 190.408 114.653 192.734 112.916Z" fill="#333739"/>
<path d="M191.157 114.175C189.47 116.426 187.203 121.017 187.227 128.169" stroke="#333739" stroke-width="0.481" stroke-linecap="round" stroke-linejoin="round"/>
<path fill-rule="evenodd" clip-rule="evenodd" d="M178.351 113.592C178.082 113.928 177.768 114.188 177.432 114.4C177.204 114.546 176.964 114.66 176.715 114.758C176.466 114.856 176.211 114.937 175.945 114.99C175.549 115.067 175.138 115.098 174.712 115.059C174.641 115.049 174.573 115.098 174.562 115.169C174.551 115.241 174.6 115.309 174.671 115.319C175.124 115.421 175.572 115.457 176.006 115.416C176.313 115.387 176.612 115.322 176.894 115.213C177.178 115.102 177.444 114.947 177.685 114.758C178.029 114.487 178.32 114.143 178.56 113.735C178.599 113.677 178.585 113.599 178.527 113.559C178.47 113.52 178.391 113.534 178.351 113.592Z" fill="#333739"/>
<path fill-rule="evenodd" clip-rule="evenodd" d="M161.15 97.7171C167.168 98.5522 174.714 93.6898 180.15 91.5835C185.204 89.6259 190.213 89.079 193.316 89.7532C187.377 84.0261 163.89 91.0895 161.15 97.7171Z" fill="white"/>
<mask id="mask26" mask-type="alpha" maskUnits="userSpaceOnUse" x="161" y="87" width="33" height="11">
<path fill-rule="evenodd" clip-rule="evenodd" d="M161.149 97.7176C167.167 98.5528 174.715 93.6893 180.149 91.583C185.205 89.6254 190.212 89.0785 193.315 89.7538C191.781 88.2739 189.074 87.6475 185.858 87.6475C176.624 87.6454 163.182 92.8012 161.149 97.7176Z" fill="white"/>
</mask>
<g mask="url(#mask26)">
<path fill-rule="evenodd" clip-rule="evenodd" d="M184.396 88.3331C186.501 88.4818 188.593 89.1978 190.452 90.1847C192.191 91.1095 194.787 89.7335 196.718 90.2031C194.219 88.8606 187.497 87.8106 184.396 88.3331Z" fill="#C6C7C8"/>
</g>
<path fill-rule="evenodd" clip-rule="evenodd" d="M161.15 97.7171C167.168 98.5522 174.714 93.6898 180.15 91.5835C185.204 89.6259 190.213 89.079 193.316 89.7532C187.377 84.0261 163.89 91.0895 161.15 97.7171Z" stroke="#333739" stroke-width="0.481" stroke-linecap="round" stroke-linejoin="round"/>
<path fill-rule="evenodd" clip-rule="evenodd" d="M153.565 112.289C151.402 97.5102 181.945 83.4159 193.316 89.7531C188.17 80.5192 170.941 75.1119 158.283 86.5977C148.157 95.7868 151.216 107.927 153.565 112.289Z" fill="white"/>
<mask id="mask27" mask-type="alpha" maskUnits="userSpaceOnUse" x="151" y="80" width="43" height="33">
<path fill-rule="evenodd" clip-rule="evenodd" d="M158.283 86.5983C148.157 95.7864 151.216 107.926 153.565 112.288C151.403 97.5097 181.945 83.4165 193.315 89.7537C190.242 84.2374 182.857 80.0879 174.71 80.0869C169.218 80.0869 163.38 81.9722 158.283 86.5983Z" fill="white"/>
</mask>
<g mask="url(#mask27)">
<path fill-rule="evenodd" clip-rule="evenodd" d="M170.749 90.0321C168.703 90.907 166.551 92.1129 164.458 93.5277C163.826 91.2054 163.238 89.0268 162.69 86.9806C164.586 85.7675 166.522 84.7969 168.496 84.0615C169.233 85.9733 169.908 87.8779 170.749 90.0321Z" fill="#780000"/>
</g>
<mask id="mask28" mask-type="alpha" maskUnits="userSpaceOnUse" x="151" y="80" width="43" height="33">
<path fill-rule="evenodd" clip-rule="evenodd" d="M158.283 86.5983C148.157 95.7864 151.216 107.926 153.565 112.288C151.403 97.5097 181.945 83.4165 193.315 89.7537C190.242 84.2374 182.857 80.0879 174.71 80.0869C169.218 80.0869 163.38 81.9722 158.283 86.5983Z" fill="white"/>
</mask>
<g mask="url(#mask28)">
<path fill-rule="evenodd" clip-rule="evenodd" d="M174.692 86.6208C174.531 86.8856 174.278 87.0608 173.962 87.1301C173.197 87.2961 172.347 86.7878 172.013 85.9608C171.689 85.1572 172.012 84.3831 172.761 84.211C173.07 84.1397 173.406 84.1825 173.734 84.3342C173.739 84.3363 173.745 84.3383 173.751 84.3414C173.859 84.104 173.967 83.8698 174.075 83.6376C174.069 83.6345 174.062 83.6314 174.055 83.6284C173.513 83.3544 172.927 83.2699 172.412 83.3901C171.206 83.6722 170.647 84.9504 171.145 86.2002C171.666 87.51 173.088 88.3319 174.335 88.063C174.871 87.9459 175.306 87.6291 175.555 87.1657L175.563 87.1504C175.274 86.9661 174.986 86.7858 174.7 86.6076C174.697 86.6127 174.694 86.6167 174.692 86.6208ZM176.578 87.5009C176.866 87.4571 177.156 87.4184 177.446 87.3827C176.791 85.8437 176.146 84.3679 175.511 82.9573C175.231 82.9939 174.953 83.0347 174.675 83.0774C175.3 84.485 175.934 85.9619 176.578 87.5009ZM180.156 85.4779C180.115 85.4137 177.377 82.7574 177.362 82.7656C177.086 82.7839 176.81 82.8063 176.536 82.8328C177.184 84.2465 177.843 85.7223 178.511 87.2593C178.802 87.2328 179.095 87.2104 179.389 87.1921C178.98 86.2652 178.573 85.3618 178.171 84.4777C178.303 84.5836 180.95 87.1676 180.934 87.1697C180.929 87.1636 181.156 84.5439 181.171 84.438C181.596 85.3221 182.024 86.2224 182.455 87.1442C182.756 87.1534 183.058 87.1676 183.361 87.186C182.635 85.6622 181.917 84.1874 181.21 82.7635C180.924 82.7442 180.639 82.7299 180.356 82.7197C180.352 82.7136 180.156 85.4117 180.156 85.4779ZM185.843 86.6635C185.541 86.6176 185.239 86.5759 184.94 86.5392C184.764 86.1827 184.587 85.8293 184.411 85.4779C184.708 85.5156 185.007 85.5584 185.307 85.6052C185.73 85.6704 186.018 85.9688 186.147 86.2214C186.277 86.4791 186.267 86.7286 185.843 86.6635ZM183.526 83.725C183.802 83.7606 184.078 83.8003 184.356 83.8441C184.704 83.9002 185.005 84.114 185.158 84.4094C185.312 84.7068 185.193 84.8474 184.841 84.7924C184.562 84.7486 184.284 84.7089 184.007 84.6742C183.847 84.3554 183.686 84.0397 183.526 83.725ZM185.986 85.3323C186.133 85.2621 186.315 85.0319 186.062 84.5481C185.675 83.8107 184.889 83.2321 184.028 83.0916C183.429 82.9948 182.835 82.9174 182.246 82.8583C182.966 84.2833 183.696 85.7571 184.433 87.2767C185.068 87.3358 185.707 87.4132 186.351 87.511C187.227 87.6434 187.521 87.2512 187.102 86.4384C186.794 85.8416 186.286 85.4933 185.986 85.3323Z" fill="#780000"/>
</g>
<mask id="mask29" mask-type="alpha" maskUnits="userSpaceOnUse" x="151" y="80" width="43" height="33">
<path fill-rule="evenodd" clip-rule="evenodd" d="M158.283 86.5983C148.157 95.7864 151.216 107.926 153.565 112.288C151.403 97.5097 181.945 83.4165 193.315 89.7537C190.242 84.2374 182.857 80.0879 174.71 80.0869C169.218 80.0869 163.38 81.9722 158.283 86.5983Z" fill="white"/>
</mask>
<g mask="url(#mask29)">
<path fill-rule="evenodd" clip-rule="evenodd" d="M163.678 87.5522C164.708 86.9258 165.748 86.3687 166.8 85.8818C167.547 86.2668 168.314 86.6753 169.099 87.1071C168.821 88.0513 168.539 89.0362 168.254 90.0649C167.13 90.5976 166.016 91.2107 164.915 91.9043C165.175 90.7992 165.431 89.738 165.684 88.7205C164.999 88.312 164.331 87.9229 163.678 87.5522Z" fill="#EF3737"/>
</g>
<mask id="mask30" mask-type="alpha" maskUnits="userSpaceOnUse" x="151" y="80" width="43" height="33">
<path fill-rule="evenodd" clip-rule="evenodd" d="M158.283 86.5983C148.157 95.7864 151.216 107.926 153.565 112.288C151.403 97.5097 181.945 83.4165 193.315 89.7537C190.242 84.2374 182.857 80.0879 174.71 80.0869C169.218 80.0869 163.38 81.9722 158.283 86.5983Z" fill="white"/>
</mask>
<g mask="url(#mask30)">
<path fill-rule="evenodd" clip-rule="evenodd" d="M169.1 87.1081C168.313 86.6752 167.547 86.2678 166.801 85.8828C165.749 86.3686 164.707 86.9258 163.678 87.5532C164.33 87.9239 164.998 88.313 165.684 88.7204" fill="white"/>
</g>
<mask id="mask31" mask-type="alpha" maskUnits="userSpaceOnUse" x="174" y="80" width="20" height="10">
<path fill-rule="evenodd" clip-rule="evenodd" d="M174.853 80.0879L175.138 80.0907C183.114 80.2339 190.296 84.3341 193.315 89.7537L193.277 89.6875H193.19L192.968 89.5697C189.028 87.5805 182.989 87.8675 176.809 89.6856L174.853 89.6875" fill="white"/>
</mask>
<g mask="url(#mask31)">
<path fill-rule="evenodd" clip-rule="evenodd" d="M185.644 81.8168C187.585 82.2656 189.833 84.933 190.513 88.4612C191.746 88.4932 192.817 88.6984 193.931 89.6256C193.689 87.1403 193.159 85.4289 192.03 83.8365C190.626 81.8559 189.438 81.4047 187.686 81.356C187.055 81.3384 186.234 81.2641 185.644 81.8168Z" fill="#C6C7C8"/>
</g>
<mask id="mask32" mask-type="alpha" maskUnits="userSpaceOnUse" x="151" y="80" width="43" height="33">
<path fill-rule="evenodd" clip-rule="evenodd" d="M158.283 86.5983C148.157 95.7864 151.216 107.926 153.565 112.288C151.403 97.5097 181.945 83.4165 193.315 89.7537C190.242 84.2374 182.857 80.0879 174.71 80.0869C169.218 80.0869 163.38 81.9722 158.283 86.5983Z" fill="white"/>
</mask>
<g mask="url(#mask32)">
<path fill-rule="evenodd" clip-rule="evenodd" d="M155.846 110.333C154.018 101.438 156.499 88.0342 163.882 82.7267C165.436 81.608 167.259 81.0252 169.068 80.5187C166.349 80.4358 163.791 81.6427 161.485 83.0127C159.475 84.2049 157.404 85.5615 155.846 87.3539C150.401 93.621 147.305 103.88 150.418 111.989C151.73 111.516 154.065 112.014 155.394 111.575" fill="#C6C7C8"/>
</g>
<path fill-rule="evenodd" clip-rule="evenodd" d="M153.565 112.289C151.402 97.5102 181.945 83.4159 193.316 89.7531C188.17 80.5192 170.941 75.1119 158.283 86.5977C148.157 95.7868 151.216 107.927 153.565 112.289Z" stroke="#333739" stroke-width="0.481" stroke-linecap="round" stroke-linejoin="round"/>
<path fill-rule="evenodd" clip-rule="evenodd" d="M163.706 95.8601C162.596 92.8442 162.125 89.6115 162.57 86.9572C162.744 85.9173 163.065 84.9711 163.534 84.1542C163.834 83.6317 164.192 83.1622 164.623 82.7588C164.91 82.49 165.224 82.2475 165.574 82.0408C165.636 82.0062 165.66 81.9287 165.626 81.8676C165.592 81.8055 165.515 81.7831 165.452 81.8157C164.77 82.1518 164.189 82.603 163.708 83.155C163.501 83.3934 163.314 83.6511 163.146 83.923C162.625 84.7725 162.284 85.7788 162.093 86.8767C161.622 89.6023 162.108 92.9278 163.245 96.0292C163.292 96.1555 163.433 96.2206 163.559 96.1748C163.687 96.128 163.752 95.9864 163.706 95.8601Z" fill="#333739"/>
<path fill-rule="evenodd" clip-rule="evenodd" d="M189.707 151.136C189.443 149.945 189.462 148.717 189.675 147.508C189.931 146.064 190.499 144.667 191.158 143.362C191.224 143.229 191.29 143.096 191.353 142.963C191.448 142.755 191.528 142.549 191.623 142.345C191.656 142.293 191.64 142.224 191.587 142.191C191.535 142.158 191.467 142.174 191.433 142.226C191.35 142.323 191.268 142.416 191.188 142.519C191.071 142.669 190.96 142.821 190.857 142.984C190.656 143.304 190.491 143.647 190.325 143.992C189.942 144.791 189.63 145.634 189.405 146.49C188.996 148.056 188.892 149.678 189.238 151.241C189.267 151.369 189.395 151.451 189.525 151.422C189.654 151.393 189.736 151.265 189.707 151.136Z" fill="#333739"/>
<mask id="mask33" mask-type="alpha" maskUnits="userSpaceOnUse" x="176" y="122" width="27" height="31">
<path fill-rule="evenodd" clip-rule="evenodd" d="M176.661 152.455H202.239V122.224H176.661M179.772 147.009C179.156 145.847 179.099 144.23 179.347 142.971C179.796 140.68 182.667 135.329 185.001 134.16L185.254 134.399C184.266 136.541 183.439 138.64 183.414 141.036C183.383 143.906 184.165 146.762 183.685 149.63C182.196 149.044 180.568 148.507 179.772 147.009Z" fill="white"/>
</mask>
<g mask="url(#mask33)">
<path fill-rule="evenodd" clip-rule="evenodd" d="M199.553 127.398C199.678 127.137 199.659 126.83 199.505 126.587C199.35 126.343 199.082 126.195 198.792 126.195C196.7 126.193 192.662 126.191 190.501 126.19C189.618 126.19 188.813 126.699 188.434 127.495C186.756 131.019 182.154 140.682 180.616 143.914C180.506 144.145 180.522 144.417 180.659 144.634C180.797 144.851 181.035 144.982 181.292 144.982C183.303 144.983 187.382 144.984 189.621 144.985C190.573 144.986 191.439 144.438 191.848 143.582C193.54 140.027 197.97 130.723 199.553 127.398Z" fill="#FFAB00"/>
</g>
<mask id="mask34" mask-type="alpha" maskUnits="userSpaceOnUse" x="176" y="122" width="27" height="31">
<path fill-rule="evenodd" clip-rule="evenodd" d="M176.661 152.455H202.239V122.224H176.661V152.455ZM179.772 147.009C179.156 145.847 179.099 144.23 179.347 142.971C179.796 140.68 182.667 135.329 185.001 134.16L185.254 134.399C184.266 136.541 183.439 138.64 183.414 141.036C183.383 143.906 184.165 146.762 183.685 149.63C182.196 149.044 180.568 148.507 179.772 147.009Z" fill="white"/>
</mask>
<g mask="url(#mask34)">
<path fill-rule="evenodd" clip-rule="evenodd" d="M199.553 127.398C199.678 127.137 199.659 126.83 199.505 126.587C199.35 126.343 199.082 126.195 198.792 126.195C196.7 126.193 192.662 126.191 190.501 126.19C189.618 126.19 188.813 126.699 188.434 127.495C186.756 131.019 182.154 140.682 180.616 143.914C180.506 144.145 180.522 144.417 180.659 144.634C180.797 144.851 181.035 144.982 181.292 144.982C183.303 144.983 187.382 144.984 189.621 144.985C190.573 144.986 191.439 144.438 191.848 143.582C193.54 140.027 197.97 130.723 199.553 127.398Z" stroke="#333739" stroke-width="0.478" stroke-linecap="round" stroke-linejoin="round"/>
</g>
<mask id="mask35" mask-type="alpha" maskUnits="userSpaceOnUse" x="176" y="122" width="27" height="31">
<path fill-rule="evenodd" clip-rule="evenodd" d="M176.661 152.455H202.239V122.224H176.661M179.772 147.009C179.156 145.847 179.099 144.23 179.347 142.971C179.796 140.68 182.667 135.329 185.001 134.16L185.254 134.399C184.266 136.541 183.439 138.64 183.414 141.036C183.383 143.906 184.165 146.762 183.685 149.63C182.196 149.044 180.568 148.507 179.772 147.009Z" fill="white"/>
</mask>
<g mask="url(#mask35)">
<path d="M183.221 139.687C183.221 139.687 187.475 130.778 188.933 127.726C189.228 127.107 189.852 126.715 190.538 126.716C193.049 126.72 198.9 126.727 198.9 126.727" stroke="#FCBC7B" stroke-width="0.508" stroke-linecap="round" stroke-linejoin="round"/>
</g>
<mask id="mask36" mask-type="alpha" maskUnits="userSpaceOnUse" x="176" y="122" width="27" height="31">
<path fill-rule="evenodd" clip-rule="evenodd" d="M176.661 152.455H202.239V122.224H176.661M179.772 147.009C179.156 145.847 179.099 144.23 179.347 142.971C179.796 140.68 182.667 135.329 185.001 134.16L185.254 134.399C184.266 136.541 183.439 138.64 183.414 141.036C183.383 143.906 184.165 146.762 183.685 149.63C182.196 149.044 180.568 148.507 179.772 147.009Z" fill="white"/>
</mask>
<g mask="url(#mask36)">
<path d="M187.833 128.756C188.129 129.453 188.873 129.691 190.117 129.678C191.361 129.667 198.506 129.598 198.506 129.598" stroke="#333739" stroke-width="0.478" stroke-linecap="round" stroke-linejoin="round"/>
</g>
<mask id="mask37" mask-type="alpha" maskUnits="userSpaceOnUse" x="176" y="122" width="27" height="31">
<path fill-rule="evenodd" clip-rule="evenodd" d="M176.661 152.455H202.239V122.224H176.661M179.772 147.009C179.156 145.847 179.099 144.23 179.347 142.971C179.796 140.68 182.667 135.329 185.001 134.16L185.254 134.399C184.266 136.541 183.439 138.64 183.414 141.036C183.383 143.906 184.165 146.762 183.685 149.63C182.196 149.044 180.568 148.507 179.772 147.009Z" fill="white"/>
</mask>
<g mask="url(#mask37)">
<path fill-rule="evenodd" clip-rule="evenodd" d="M192.887 128.025C192.903 127.884 192.857 127.745 192.762 127.64C192.668 127.535 192.533 127.475 192.392 127.475H191.059C190.804 127.475 190.59 127.665 190.563 127.919C190.562 127.931 190.56 127.944 190.559 127.957C190.544 128.097 190.589 128.236 190.684 128.342C190.778 128.447 190.913 128.507 191.054 128.507H192.388C192.643 128.507 192.856 128.315 192.883 128.062C192.884 128.049 192.886 128.038 192.887 128.025Z" fill="#333739"/>
</g>
<mask id="mask38" mask-type="alpha" maskUnits="userSpaceOnUse" x="176" y="122" width="27" height="31">
<path fill-rule="evenodd" clip-rule="evenodd" d="M176.661 152.455H202.239V122.224H176.661V152.455ZM179.772 147.009C179.156 145.847 179.099 144.23 179.347 142.971C179.796 140.68 182.667 135.329 185.001 134.16L185.254 134.399C184.266 136.541 183.439 138.64 183.414 141.036C183.383 143.906 184.165 146.762 183.685 149.63C182.196 149.044 180.568 148.507 179.772 147.009Z" fill="white"/>
</mask>
<g mask="url(#mask38)">
<path fill-rule="evenodd" clip-rule="evenodd" d="M192.887 128.025C192.903 127.884 192.857 127.745 192.762 127.64C192.668 127.535 192.533 127.475 192.392 127.475H191.059C190.804 127.475 190.59 127.665 190.563 127.919C190.562 127.931 190.56 127.944 190.559 127.957C190.544 128.097 190.589 128.236 190.684 128.342C190.778 128.447 190.913 128.507 191.054 128.507H192.388C192.643 128.507 192.856 128.315 192.883 128.062C192.884 128.049 192.886 128.038 192.887 128.025Z" stroke="#333739" stroke-width="0.478" stroke-linecap="round" stroke-linejoin="round"/>
</g>
<path fill-rule="evenodd" clip-rule="evenodd" d="M186.942 130.055C186.205 129.848 185.238 130.105 184.22 130.74C183.069 131.457 181.863 132.664 180.843 134.298C180.046 135.577 179.517 136.752 179.131 137.877C178.076 140.946 178.07 143.636 176.652 146.95C176.183 148.046 175.693 149.36 174.513 150.291C174.034 150.668 173.447 150.995 172.696 151.197C172.338 151.293 171.943 151.36 171.508 151.394C171.256 151.413 170.991 151.42 170.711 151.417C170.621 151.42 170.545 151.348 170.542 151.257C170.539 151.167 170.61 151.091 170.701 151.088C170.969 151.066 171.221 151.034 171.461 150.997C171.868 150.934 172.234 150.848 172.568 150.746C173.245 150.543 173.785 150.266 174.219 149.921C175.329 149.043 175.771 147.795 176.211 146.762C177.621 143.46 177.622 140.778 178.67 137.718C179.067 136.564 179.61 135.355 180.429 134.041C181.494 132.332 182.757 131.074 183.96 130.325C185.263 129.512 186.505 129.299 187.381 129.696C187.441 129.723 187.487 129.773 187.51 129.834C187.532 129.896 187.529 129.963 187.5 130.024C187.009 131.053 186.64 131.745 186.206 132.653C185.968 133.148 185.711 133.709 185.405 134.425C184.376 136.826 183.92 138.727 183.751 140.379C183.4 143.827 184.282 146.206 183.839 149.781C183.823 149.915 183.7 150.011 183.566 149.994C183.432 149.977 183.336 149.854 183.352 149.722C183.794 146.151 182.913 143.773 183.264 140.329C183.436 138.638 183.9 136.693 184.954 134.232C185.264 133.509 185.523 132.943 185.763 132.443C186.163 131.606 186.509 130.955 186.942 130.055Z" fill="#333739"/>
</svg>
