<svg width="144" height="66" viewBox="0 0 144 66" fill="none" xmlns="http://www.w3.org/2000/svg">
<path opacity="0.3" d="M135.963 65.6488H113.47C112.574 65.6488 111.847 64.9846 111.847 64.1623C111.847 63.34 112.574 62.6758 113.47 62.6758H135.963C136.859 62.6758 137.587 63.34 137.587 64.1623C137.582 64.9801 136.859 65.6488 135.963 65.6488Z" fill="#FFAB00"/>
<path opacity="0.5" d="M139.272 62.6448H118.184C117.292 62.6448 116.569 61.9807 116.569 61.1584C116.569 60.336 117.292 59.6719 118.184 59.6719H139.272C140.163 59.6719 140.887 60.336 140.887 61.1584C140.891 61.9761 140.168 62.6448 139.272 62.6448Z" fill="#FFAB00"/>
<path opacity="0.5" d="M136.241 56.7816H115.153C114.262 56.7816 113.538 56.1174 113.538 55.2951C113.538 54.4728 114.262 53.8086 115.153 53.8086H136.241C137.132 53.8086 137.856 54.4728 137.856 55.2951C137.86 56.1129 137.137 56.7816 136.241 56.7816Z" fill="#FFAB00"/>
<path opacity="0.3" d="M136.911 53.8089H116.42C115.524 53.8089 114.801 53.1447 114.801 52.3224C114.801 51.5001 115.524 50.8359 116.42 50.8359H136.911C137.807 50.8359 138.53 51.5001 138.53 52.3224C138.53 53.1447 137.803 53.8089 136.911 53.8089Z" fill="#FFAB00"/>
<path opacity="0.3" d="M137.187 59.7581H116.696C115.8 59.7581 115.077 59.094 115.077 58.2716C115.077 57.4493 115.8 56.7852 116.696 56.7852H137.187C138.083 56.7852 138.806 57.4493 138.806 58.2716C138.806 59.094 138.078 59.7581 137.187 59.7581Z" fill="#FFAB00"/>
<path opacity="0.5" d="M136.08 50.8663H115.589C114.693 50.8663 113.97 50.1954 113.97 49.3648C113.97 48.5342 114.693 47.8633 115.589 47.8633H136.08C136.976 47.8633 137.699 48.5342 137.699 49.3648C137.699 50.1954 136.976 50.8663 136.08 50.8663Z" fill="#FFAB00"/>
<path opacity="0.5" d="M137.187 44.9209H116.696C115.8 44.9209 115.077 44.2501 115.077 43.4195C115.077 42.5888 115.8 41.918 116.696 41.918H137.187C138.083 41.918 138.806 42.5888 138.806 43.4195C138.806 44.2501 138.083 44.9209 137.187 44.9209Z" fill="#FFAB00"/>
<path opacity="0.3" d="M138.838 47.8936H118.244C117.343 47.8936 116.615 47.2227 116.615 46.3921C116.615 45.5615 117.343 44.8906 118.244 44.8906H138.838C139.738 44.8906 140.466 45.5615 140.466 46.3921C140.466 47.2182 139.738 47.8936 138.838 47.8936Z" fill="#FFAB00"/>
<path opacity="0.3" d="M134.775 41.9795H114.181C113.28 41.9795 112.552 41.3087 112.552 40.478C112.552 39.6474 113.28 38.9766 114.181 38.9766H134.775C135.675 38.9766 136.403 39.6474 136.403 40.478C136.403 41.3041 135.675 41.9795 134.775 41.9795Z" fill="#FFAB00"/>
<path opacity="0.5" d="M136.08 38.9756H115.589C114.693 38.9756 113.97 38.3048 113.97 37.4741C113.97 36.6435 114.693 35.9727 115.589 35.9727H136.08C136.976 35.9727 137.699 36.6435 137.699 37.4741C137.699 38.3048 136.976 38.9756 136.08 38.9756Z" fill="#FFAB00"/>
<path d="M127.291 62.9557C131.177 59.1632 131.177 53.0158 127.291 49.2233C123.404 45.4308 117.101 45.4308 113.214 49.2233C109.328 53.0158 109.328 59.1632 113.214 62.9557C117.101 66.7482 123.404 66.7482 127.291 62.9557Z" fill="#FFAB00"/>
<path opacity="0.5" d="M125.913 50.1446C129.314 53.1932 129.528 58.3457 126.393 61.6499C123.253 64.9541 117.953 65.164 114.547 62.1154C111.146 59.0668 110.931 53.9142 114.066 50.6101C117.206 47.3059 122.507 47.0959 125.913 50.1446Z" fill="white"/>
<path d="M125.759 58.5878C125.853 58.7064 125.899 58.8524 125.895 59.0031C125.89 59.1537 125.829 59.2951 125.727 59.4047C125.312 59.8565 124.635 60.4041 123.781 60.8103C122.535 61.4036 121.103 61.5862 119.75 61.1389C118.906 60.8605 118.103 60.29 117.497 59.5096L116.759 59.8565C116.638 59.9113 116.503 59.9204 116.377 59.8793C116.251 59.8382 116.148 59.747 116.088 59.6329L116.078 59.6146C116.018 59.5005 116.013 59.3636 116.055 59.2404C116.097 59.1171 116.19 59.0167 116.311 58.9574L116.918 58.6699C116.797 58.4782 116.713 58.3596 116.657 58.25C116.549 58.0355 116.461 57.8119 116.391 57.5837L115.766 57.8804C115.644 57.9351 115.509 57.9443 115.378 57.9032C115.252 57.8621 115.15 57.7708 115.089 57.6567C115.028 57.5426 115.024 57.4057 115.066 57.2825C115.108 57.1593 115.201 57.0589 115.322 56.9996L116.078 56.639C115.859 55.6989 115.896 54.7496 116.181 53.9327C116.671 52.5407 117.748 51.4819 119.055 50.8658C119.815 50.5053 120.455 50.3592 120.977 50.3045C121.154 50.2862 121.327 50.3364 121.467 50.4414C121.607 50.5463 121.7 50.697 121.724 50.8658V50.8749C121.738 50.9617 121.733 51.0484 121.71 51.1351C121.686 51.2218 121.649 51.2994 121.593 51.3678C121.537 51.4363 121.472 51.4956 121.392 51.5413C121.313 51.5869 121.229 51.6143 121.14 51.6234C120.623 51.6964 120.114 51.8516 119.647 52.0798C118.817 52.4768 118.117 53.1249 117.767 54.065C117.576 54.6127 117.525 55.2471 117.716 55.8586L121.966 53.8368C122.088 53.7775 122.223 53.7729 122.353 53.814C122.479 53.8551 122.582 53.9464 122.643 54.0605C122.703 54.1791 122.708 54.3115 122.666 54.4347C122.624 54.5579 122.531 54.6583 122.409 54.7177L117.972 56.8261C118.056 57.0361 118.14 57.246 118.201 57.3738C118.285 57.5381 118.369 57.7024 118.5 57.9123L122.946 55.7947C123.007 55.7673 123.072 55.7491 123.142 55.7445C123.207 55.7399 123.277 55.7491 123.343 55.7719C123.408 55.7947 123.464 55.8267 123.515 55.8677C123.567 55.9088 123.609 55.9636 123.637 56.0229C123.697 56.1416 123.707 56.2785 123.66 56.4063C123.618 56.5295 123.52 56.6344 123.399 56.6938L119.139 58.7201C119.54 59.1902 120.039 59.5188 120.543 59.6876C121.546 60.0025 122.433 59.9021 123.375 59.4503C123.884 59.2084 124.355 58.889 124.766 58.5056C124.831 58.4417 124.915 58.3961 125.004 58.3641C125.092 58.3322 125.186 58.323 125.279 58.3276C125.372 58.3322 125.465 58.3596 125.545 58.4052C125.629 58.4554 125.699 58.5147 125.759 58.5878Z" fill="white"/>
<path opacity="0.1" d="M87.8645 51.05H41.3248C37.8209 51.05 34.9795 48.2706 34.9795 44.8432V7.51144C34.9795 4.08404 37.8209 1.30469 41.3248 1.30469H87.8598C91.3637 1.30469 94.2051 4.08404 94.2051 7.51144V44.8478C94.2051 48.2752 91.3684 51.05 87.8645 51.05Z" fill="#333739"/>
<path d="M94.2107 1.1875H34.9572V7.91453H94.2107V1.1875Z" fill="white" stroke="white" stroke-width="0.605428" stroke-miterlimit="10"/>
<path opacity="0.4" d="M94.2107 1.1875H34.9572V7.91453H94.2107V1.1875Z" fill="#333739"/>
<path d="M39.1714 6.34253C39.7047 6.34253 40.1371 5.91957 40.1371 5.39783C40.1371 4.87608 39.7047 4.45312 39.1714 4.45312C38.638 4.45312 38.2056 4.87608 38.2056 5.39783C38.2056 5.91957 38.638 6.34253 39.1714 6.34253Z" fill="white"/>
<path d="M42.3853 6.34253C42.9187 6.34253 43.3511 5.91957 43.3511 5.39783C43.3511 4.87608 42.9187 4.45312 42.3853 4.45312C41.852 4.45312 41.4196 4.87608 41.4196 5.39783C41.4196 5.91957 41.852 6.34253 42.3853 6.34253Z" fill="white"/>
<path d="M45.281 6.34253C45.8144 6.34253 46.2468 5.91957 46.2468 5.39783C46.2468 4.87608 45.8144 4.45312 45.281 4.45312C44.7476 4.45312 44.3152 4.87608 44.3152 5.39783C44.3152 5.91957 44.7476 6.34253 45.281 6.34253Z" fill="white"/>
<path d="M40.7788 13.5859V46.646V13.5859Z" stroke="white" stroke-width="0.605428" stroke-miterlimit="10"/>
<path d="M87.7726 46.3242C72.0027 46.3242 56.2282 46.3242 40.4584 46.3242C56.2282 46.3242 71.9981 46.3242 87.7726 46.3242Z" stroke="white" stroke-width="0.605428" stroke-miterlimit="10"/>
<path d="M40.7804 13.5824L39.1708 14.8968L40.7804 11.9258L42.1568 14.8968L40.7804 13.5824Z" fill="white" stroke="white" stroke-width="0.605428" stroke-miterlimit="10"/>
<path d="M88.2188 46.4065L86.8751 44.832L89.9125 46.4065L86.8751 47.7574L88.2188 46.4065Z" fill="white" stroke="white" stroke-width="0.605428" stroke-miterlimit="10"/>
<path d="M41.4257 45.6999C45.1815 43.4728 47.463 41.095 48.83 39.4019C52.0073 35.4633 51.6947 33.1723 55.2686 29.9548C56.4957 28.8504 58.7958 26.8195 62.351 25.5462C66.6388 24.0082 68.771 24.9986 72.3308 24.2866C75.2609 23.7024 79.306 21.9317 83.5983 16.4141" stroke="#FFAB00" stroke-width="0.605428" stroke-miterlimit="10"/>
<path d="M83.8054 16.3442L81.7106 16.2575L84.9438 15.1211L83.9221 18.2245L83.8054 16.3442Z" fill="#FFAB00" stroke="#FFAB00" stroke-width="0.605428" stroke-miterlimit="10"/>
<path d="M122.886 60.918H100.617V65.6552H122.886V60.918Z" fill="#333739"/>
<path d="M35.4829 0.098382H95.2861V41.4483C95.2861 46.7438 90.9932 51.0368 85.6977 51.0368H45.0714C39.7758 51.0368 35.4829 46.7439 35.4829 41.4483V0.098382Z" stroke="#333739" stroke-width="0.196764"/>
<path d="M110.261 22.0481V19.3144C110.261 19.3144 108.362 19.0497 107.928 18.6207C107.574 18.2738 106.93 16.7085 106.701 16.1289C106.645 15.992 106.617 15.9098 106.617 15.9098L106.323 12.487V10.2553C106.323 10.2553 106.617 9.34708 106.906 8.7766C107.2 8.20613 107.49 7.63566 108.073 7.06518C108.656 6.49471 109.533 6.20719 109.533 6.20719C109.533 6.20719 110.699 5.63672 111.577 5.63672C112.454 5.63672 112.454 5.63672 113.326 5.92424C114.203 6.21176 115.076 6.78223 115.076 6.78223C115.076 6.78223 115.659 7.06975 115.953 7.3527C116.247 7.64022 116.83 8.49365 117.119 9.06412C117.413 9.6346 117.413 10.2051 117.413 10.4926C117.413 10.7801 117.413 11.9484 117.413 12.3592C117.413 12.7745 116.83 14.2029 116.536 14.7734C116.242 15.3439 116.177 15.7318 115.953 16.2019C115.678 16.7815 115.37 17.3428 115.37 17.3428C115.37 17.3428 115.076 17.9133 115.076 18.2008C115.076 18.4883 115.076 20.4827 115.076 20.4827V21.6237V22.4817H110.224L110.261 22.0481Z" fill="#FFDDC5"/>
<path d="M111.865 17.8354L115.658 17.913L117.119 14.2026C117.119 14.2026 118.43 11.2042 118.579 10.4923C118.724 9.7803 118.724 9.35131 118.579 8.42486C118.434 7.49841 117.996 7.06941 117.996 7.06941C117.996 7.06941 117.268 6.35746 116.246 5.92847C115.224 5.49947 115.224 5.49947 114.786 5.35799C114.347 5.21651 112.742 5.07047 112.742 5.07047H110.638H109.066L108.221 4.929L107.783 4.78752L107.489 4.5L107.195 4.78752L106.901 5.35799L106.607 5.92847C106.607 5.92847 106.313 6.52176 106.313 6.51263C106.313 6.5035 106.313 7.48472 106.313 7.48472C106.313 7.48472 106.458 7.78593 106.607 8.21492C106.756 8.64392 107.335 8.64392 107.484 8.7854C107.629 8.92687 108.361 9.07292 108.361 9.07292L109.238 9.36044H109.532V9.93091L109.094 10.3599L108.79 10.7524L108.51 11.2179L108.655 12.2174V12.5049C108.655 12.5049 109.948 11.2225 110.251 11.2225C110.554 11.2225 110.848 11.51 110.993 11.6515C111.137 11.7929 111.431 12.3634 111.287 12.7924C111.142 13.2214 110.638 14.0748 110.638 14.0748L110.409 14.5038L111.87 17.9267" fill="#333739"/>
<path d="M98.1203 31.8611L100.066 36.0871C100.159 36.2925 100.089 36.5298 99.8932 36.6576L95.0503 39.8112C94.8217 39.9572 94.5138 39.8979 94.3645 39.6788L80.4515 19.6666C80.3022 19.4476 80.3769 19.1509 80.6102 19.0186L82.0705 18.0921C82.2338 17.9963 82.3271 17.8183 82.3038 17.6357L82.1638 16.5632C82.1265 16.2848 82.3551 16.043 82.649 16.043C82.8683 16.043 83.055 16.1799 83.1156 16.3807L83.5635 17.8685C83.5775 17.9141 83.6008 17.9598 83.6242 17.9963L84.464 19.1965C84.534 19.297 84.562 19.4247 84.5386 19.5434L84.3707 20.3375C84.3427 20.4653 84.3753 20.6022 84.4593 20.7072L94.3411 33.3123C94.5044 33.5177 94.8124 33.5588 95.027 33.4036L97.3738 31.6831C97.6257 31.496 97.9897 31.5872 98.1203 31.8611Z" fill="#FFDDC5"/>
<path d="M124.841 31.8738L120.996 32.5675C120.753 32.6131 120.595 32.8459 120.651 33.0832L122.125 39.1256C122.176 39.3356 122.055 39.5546 121.845 39.6231L102.091 46.3912C102.044 46.4049 101.998 46.414 101.946 46.414H100.649C100.631 46.414 100.607 46.414 100.589 46.4186L97.4953 46.8384C97.2013 46.8795 97.0334 47.1899 97.1687 47.45C97.2433 47.5915 97.3926 47.6827 97.5559 47.6827H98.5964C98.797 47.6827 98.9696 47.8151 99.0163 48.0068L99.2869 49.0656C99.3475 49.2983 99.5901 49.4352 99.8234 49.3713L126.572 42.0693C126.786 42.01 126.917 41.8046 126.884 41.5946L125.344 32.2252C125.312 31.9879 125.083 31.8327 124.841 31.8738Z" fill="#FFDDC5"/>
<path d="M116.148 21.9138V23H107.396C107.396 23 107.979 21.9138 109.439 21.6445H116.148V21.9138Z" fill="#FF6666"/>
<path d="M120.546 36.5362C119.669 33.2822 119.795 33.985 119.795 33.985C119.795 33.985 123.402 61.4043 123.126 62.2623C122.851 63.1203 101.277 62.8647 100.657 62.2623C100.036 61.6599 101.823 25.647 101.823 25.647C101.823 25.647 101.991 23.1369 107.389 23H116.142C116.142 23 120.229 23 121.101 23.5431C121.101 23.5431 121.979 23.8124 122.851 24.8985C124.017 26.5278 124.913 27.0435 126.374 34.9069" fill="#FF6666"/>
<path d="M100.247 25.3047C100.247 25.3047 103.27 23.105 105.697 23.1187C105.697 23.1187 107.539 22.8631 108.706 23.4062C109.35 23.7028 110.46 24.5152 110.749 25.8478C111.043 27.2033 110.166 28.0156 109.289 29.3756L105.202 32.9034L103.158 34.5327L98.1616 37.3805L94.8116 31.1464L100.247 25.3047Z" fill="#FF6666"/>
<path opacity="0.3" fill-rule="evenodd" clip-rule="evenodd" d="M15.5437 56.7438C6.16263 56.7438 0 58.2125 0 59.3947C0 60.2009 1.35693 60.7478 3.23111 60.7478C5.10532 60.7478 4.90393 62.4151 6.77811 62.4151C14.3161 62.4151 13.7268 65.9991 20.6749 65.9991C22.4754 65.9991 23.1138 65.3534 29.5833 65.6055C33.8135 65.7703 37.1293 64.9503 38.0554 63.7221C38.7773 62.7649 39.3195 62.0016 41.8727 61.6361C44.3948 61.275 54.0232 60.9792 54.9698 59.304C56.0556 57.383 46.8187 56.9576 45.7556 56.7438C38.4481 55.274 22.9847 56.5725 15.5437 56.7438Z" fill="#333739"/>
<path fill-rule="evenodd" clip-rule="evenodd" d="M53.2963 40.293L54.366 41.3335L52.9111 40.9121L53.2963 40.293Z" fill="#FEFEFE"/>
<path fill-rule="evenodd" clip-rule="evenodd" d="M45.8846 36.0682C45.9772 36.1197 45.9668 36.3043 45.8616 36.4803C45.7567 36.656 45.5963 36.7569 45.5037 36.7051C45.4114 36.6536 45.4217 36.4691 45.5266 36.2931C45.6318 36.1174 45.7922 36.0165 45.8846 36.0682Z" fill="#FEFEFE"/>
<path fill-rule="evenodd" clip-rule="evenodd" d="M35.2519 46.5024C34.7488 50.7262 39.3118 52.7678 41.8597 49.2057C43.5212 46.8825 43.7516 39.8907 49.131 37.9064C50.9256 37.2443 52.7953 38.1611 53.1445 39.976C50.9246 39.2778 49.138 41.5122 48.3951 43.3471C46.6904 47.5583 47.5242 53.2108 42.7019 55.6377C37.7663 58.1215 33.5882 54.3473 34.0745 49.428C34.1724 48.4373 34.642 47.3358 35.2519 46.5024Z" fill="#E52B31"/>
<mask id="mask0" mask-type="alpha" maskUnits="userSpaceOnUse" x="34" y="37" width="20" height="20">
<path fill-rule="evenodd" clip-rule="evenodd" d="M49.131 37.9025C43.7516 39.8868 43.5212 46.8786 41.8597 49.2018C39.3118 52.7639 34.7488 50.7223 35.2519 46.4986C34.642 47.3319 34.1724 48.4334 34.0745 49.4241C33.5882 54.3434 37.7663 58.1176 42.7019 55.6338C47.5242 53.2069 46.6904 47.5544 48.3951 43.3432C49.138 41.5083 50.9246 39.2739 53.1446 39.9721C52.8722 38.5566 51.6751 37.6875 50.3099 37.6875C49.9247 37.6875 49.526 37.7568 49.131 37.9025Z" fill="white"/>
</mask>
<g mask="url(#mask0)">
<path fill-rule="evenodd" clip-rule="evenodd" d="M37.6111 49.769C38.5298 51.8402 39.5483 52.3305 40.7263 52.2511C45.0136 51.9619 46.0133 43.6473 47.8902 40.9746C48.8132 39.6603 50.2487 38.713 51.857 38.389C52.6601 38.2273 53.5593 38.1747 54.1982 38.7656C55.9352 40.372 54.0735 44.5538 53.4949 46.3126C51.698 51.7731 45.2191 61.4019 38.2037 60.1094C36.7206 59.8361 35.356 59.0734 34.2273 58.1216C30.5342 55.0075 30.145 49.2619 34.1072 46.1648C36.6461 44.1803 37.8752 45.9714 37.6111 49.769Z" fill="#BA1918"/>
</g>
<mask id="mask1" mask-type="alpha" maskUnits="userSpaceOnUse" x="34" y="37" width="20" height="20">
<path fill-rule="evenodd" clip-rule="evenodd" d="M49.131 37.9025C43.7516 39.8868 43.5212 46.8786 41.8597 49.2018C39.3118 52.7639 34.7488 50.7223 35.2519 46.4986C34.642 47.3319 34.1724 48.4334 34.0745 49.4241C33.5882 54.3434 37.7663 58.1176 42.7019 55.6338C47.5242 53.2069 46.6904 47.5544 48.3951 43.3432C49.138 41.5083 50.9246 39.2739 53.1446 39.9721C52.8722 38.5566 51.6751 37.6875 50.3099 37.6875C49.9247 37.6875 49.526 37.7568 49.131 37.9025Z" fill="white"/>
</mask>
<g mask="url(#mask1)">
<path fill-rule="evenodd" clip-rule="evenodd" d="M38.8141 51.1751C41.5023 51.2655 43.1205 49.2369 43.9154 46.9501C44.2405 46.0147 44.4108 45.0388 44.7369 44.1029C45.1428 42.9368 45.7298 41.7825 46.4978 40.798C47.8055 39.121 50.0386 37.4369 52.2947 38.2325C50.4703 36.2074 47.6183 37.4259 45.957 39.0294C42.5754 42.2934 43.4617 49.4122 38.8141 51.1751Z" fill="#F090AD"/>
</g>
<path fill-rule="evenodd" clip-rule="evenodd" d="M35.2519 46.5024C34.7488 50.7262 39.3118 52.7678 41.8597 49.2057C43.5212 46.8825 43.7516 39.8907 49.131 37.9064C50.9256 37.2443 52.7953 38.1611 53.1445 39.976C50.9246 39.2778 49.138 41.5122 48.3951 43.3471C46.6904 47.5583 47.5242 53.2108 42.7019 55.6377C37.7663 58.1215 33.5882 54.3473 34.0745 49.428C34.1724 48.4373 34.642 47.3358 35.2519 46.5024Z" stroke="black" stroke-width="0.242029" stroke-linecap="round" stroke-linejoin="round"/>
<path fill-rule="evenodd" clip-rule="evenodd" d="M3.74289 37.6906C4.29243 36.7806 8.81572 38.5216 11.4051 44.7428C12.4415 47.233 13.1115 49.528 14.384 51.3652C16.8564 54.9347 21.3668 52.4249 20.3113 49.3884C20.5629 50.1924 22.3759 51.5968 22.3433 52.4493C22.3117 53.2707 22.0004 53.9834 21.5508 54.6695C19.8777 57.2245 16.3248 57.0296 13.8034 55.8129C10.6683 54.2999 9.10514 52.4559 8.50473 49.1649C8.1171 47.0407 7.5795 43.785 6.6423 41.9529C5.41997 39.5635 3.28545 38.4482 3.74289 37.6906Z" fill="#E52B31"/>
<mask id="mask2" mask-type="alpha" maskUnits="userSpaceOnUse" x="3" y="37" width="20" height="20">
<path fill-rule="evenodd" clip-rule="evenodd" d="M3.74289 37.6906C3.28545 38.4482 5.41997 39.5635 6.6423 41.9529C7.5795 43.785 8.1171 47.0407 8.50473 49.1649C9.10514 52.4558 10.6683 54.2999 13.8034 55.8129C16.3248 57.0296 19.8777 57.2244 21.5508 54.6695C22.0004 53.9834 22.3117 53.2707 22.3433 52.4493C22.3754 51.6106 20.621 50.2376 20.3248 49.4278C21.3277 52.4465 16.8456 54.9193 14.384 51.3652C13.1115 49.528 12.4415 47.233 11.4051 44.7428C9.23642 39.5324 5.71144 37.4646 4.30034 37.4648C4.02659 37.4649 3.83217 37.5427 3.74289 37.6906ZM20.3246 49.4279C20.3202 49.4148 20.3158 49.4016 20.3112 49.3885C20.3153 49.4015 20.3197 49.4146 20.3246 49.4279Z" fill="white"/>
</mask>
<g mask="url(#mask2)">
<path fill-rule="evenodd" clip-rule="evenodd" d="M6.86694 38.4922C9.58809 41.6948 10.194 43.2424 10.9267 47.232C11.0827 48.0817 11.1951 48.9406 11.2622 49.8013C11.3553 50.9995 11.3295 52.3732 11.9891 53.4492C12.8933 54.924 16.5533 55.6721 18.2869 55.4772C19.9588 55.2892 21.3256 53.5371 21.2267 51.9575C21.1956 51.4589 20.9798 50.9399 20.8078 50.4745C20.8401 53.5306 16.595 55.4471 14.1648 52.4642C12.6649 50.6229 12.3969 47.8095 11.9281 45.6781C11.3217 42.9222 9.37223 40.0596 6.86694 38.4922Z" fill="#BA1918"/>
</g>
<mask id="mask3" mask-type="alpha" maskUnits="userSpaceOnUse" x="3" y="37" width="20" height="20">
<path fill-rule="evenodd" clip-rule="evenodd" d="M3.74289 37.6906C3.28545 38.4482 5.41997 39.5635 6.6423 41.9529C7.5795 43.785 8.1171 47.0407 8.50473 49.1649C9.10514 52.4558 10.6683 54.2999 13.8034 55.8129C16.3248 57.0296 19.8777 57.2244 21.5508 54.6695C22.0004 53.9834 22.3117 53.2707 22.3433 52.4493C22.3754 51.6106 20.621 50.2376 20.3248 49.4278C21.3277 52.4465 16.8456 54.9193 14.384 51.3652C13.1115 49.528 12.4415 47.233 11.4051 44.7428C9.23642 39.5324 5.71144 37.4646 4.30034 37.4648C4.02659 37.4649 3.83217 37.5427 3.74289 37.6906ZM20.3246 49.4279C20.3202 49.4148 20.3158 49.4016 20.3112 49.3885C20.3153 49.4015 20.3197 49.4146 20.3246 49.4279Z" fill="white"/>
</mask>
<g mask="url(#mask3)">
<path fill-rule="evenodd" clip-rule="evenodd" d="M11.3199 53.1201C9.7529 51.3581 9.4724 49.0611 9.01704 46.8757C8.56074 44.6863 7.87153 42.5544 6.69792 40.6235C5.94371 39.3826 5.06102 38.3784 3.69745 37.7611C3.41257 37.632 3.02491 37.4518 2.69564 37.4947C2.25857 37.5516 3.64681 39.1402 3.77729 39.2789C4.79794 40.363 5.42663 41.1217 6.08946 42.5892C6.70694 43.9564 6.96721 45.3441 7.36702 46.7815C7.74797 48.1513 8.15871 50.8 8.80065 52.1686C9.52498 53.713 11.0037 52.9453 11.3199 53.1201Z" fill="#F090AD"/>
</g>
<path fill-rule="evenodd" clip-rule="evenodd" d="M3.74264 37.6906C4.29218 36.7806 8.81547 38.5216 11.4048 44.7428C12.4412 47.233 13.1112 49.528 14.3837 51.3652C16.8561 54.9348 21.3665 52.4249 20.3111 49.3884C20.5627 50.1924 22.3756 51.5968 22.3431 52.4493C22.3115 53.2707 22.0001 53.9834 21.5506 54.6695C19.8774 57.2245 16.3245 57.0296 13.8032 55.8129C10.668 54.2999 9.1049 52.4559 8.50449 49.1649C8.11686 47.0408 7.57925 43.785 6.64205 41.9529C5.41973 39.5635 3.28521 38.4482 3.74264 37.6906Z" stroke="black" stroke-width="0.242029" stroke-linecap="round" stroke-linejoin="round"/>
<path fill-rule="evenodd" clip-rule="evenodd" d="M40.2148 31.0847C40.2256 30.0694 40.1513 28.7994 39.8397 28.2084C41.5941 28.1231 43.505 27.588 45.1709 27.6882C45.6207 27.7153 46.6014 27.7532 46.8377 28.2189C47.2217 28.9748 46.0541 29.6574 45.525 29.9366C43.924 30.7809 42.0265 31.0941 40.2148 31.0847Z" fill="#9C9C9C"/>
<path fill-rule="evenodd" clip-rule="evenodd" d="M40.0917 31.0818C40.0912 31.1012 40.104 31.1198 40.1269 31.1336C40.1499 31.1476 40.1812 31.1553 40.214 31.1555C41.1252 31.1648 42.0579 31.0933 42.965 30.9141C43.8769 30.7339 44.7625 30.4445 45.5739 30.0211C45.8956 29.853 46.4448 29.5394 46.7622 29.1521C47.0044 28.8568 47.1136 28.5198 46.9373 28.1696C46.8276 27.9526 46.5796 27.8109 46.2849 27.7252C45.9045 27.6145 45.448 27.5926 45.1781 27.5758C44.6557 27.5436 44.1094 27.5728 43.5513 27.6313C42.3256 27.7604 41.0422 28.0323 39.8337 28.0899C39.7929 28.0917 39.7558 28.1137 39.7355 28.1479C39.715 28.1822 39.7138 28.2239 39.7324 28.2591C39.8677 28.5163 39.9543 28.9074 40.0097 29.3485C40.0792 29.9001 40.098 30.5288 40.0917 31.0814V31.0818ZM40.3382 31.0091C41.1983 31.0021 42.0752 30.921 42.928 30.7439C43.8195 30.5589 44.6848 30.269 45.4757 29.8474C45.7779 29.6866 46.2962 29.3907 46.5929 29.0234C46.7788 28.7934 46.8767 28.5345 46.7383 28.2637C46.6524 28.0955 46.4501 27.9988 46.2205 27.9328C45.8572 27.8286 45.4214 27.8114 45.1638 27.7965C44.654 27.7664 44.1212 27.7972 43.5768 27.8557C42.4054 27.9817 41.1816 28.2367 40.0201 28.3127C40.1264 28.5786 40.2014 28.9307 40.2511 29.3198C40.3196 29.8568 40.3413 30.4652 40.3382 31.0091Z" fill="black"/>
<path fill-rule="evenodd" clip-rule="evenodd" d="M12.994 23.3964C7.19716 30.1725 10.921 39.1216 13.2933 42.2347C17.1072 47.2399 19.7364 47.6635 20.8343 50.3612C22.0527 53.3548 19.9267 55.7221 16.2481 55.0272C12.1692 54.2568 8.00374 50.2868 4.31005 52.18C2.84721 52.9298 2.40997 54.7545 3.56259 55.937C4.54166 56.9413 6.05139 56.608 6.62461 55.4169C7.78556 55.8123 8.88713 56.8599 9.89166 57.5108C8.73887 57.8792 7.24089 58.7615 6.74856 60.2027C6.58815 60.6722 6.34344 62.0875 7.10428 62.0621C8.03466 62.0309 7.5799 61.0419 9.89166 60.5588C13.2883 59.849 16.2662 62.4154 21.7134 61.1188C26.1743 60.0569 28.1615 58.3772 30.741 58.7465C29.3527 62.0539 25.0946 60.1761 21.4719 61.7972C18.5198 63.1183 19.0352 65.5953 20.4269 65.6543C21.4073 65.6959 20.4891 63.9286 23.7461 63.9351C25.5789 63.9387 27.8458 64.4846 29.6889 64.5023C33.9644 64.5433 39.8153 62.7792 38.8636 57.6031C41.1184 57.5688 43.1856 56.2697 45.4378 57.0798C43.6996 58.0827 45.2589 60.7658 47.3919 60.0159C48.2165 59.7261 48.9456 59.1 49.3127 58.3257C50.6592 55.4864 47.8803 53.5676 45.2881 53.4278C43.0646 53.3079 40.7067 53.569 38.6132 52.6753C34.2082 50.7949 36.136 47.581 37.3921 44.5674C38.0339 43.0273 38.9436 41.1462 39.4357 39.5492C40.5775 35.8439 41.0248 30.1759 38.8344 26.7811C32.6379 17.1764 20.8615 14.2001 12.994 23.3964Z" fill="#E52B31"/>
<mask id="mask4" mask-type="alpha" maskUnits="userSpaceOnUse" x="2" y="17" width="48" height="49">
<path fill-rule="evenodd" clip-rule="evenodd" d="M12.994 23.3964C7.19716 30.1724 10.921 39.1215 13.2933 42.2347C17.1072 47.2399 19.7364 47.6635 20.8343 50.3612C22.0527 53.3548 19.9267 55.722 16.2481 55.0272C12.1692 54.2568 8.00374 50.2868 4.31005 52.18C2.84721 52.9298 2.40997 54.7545 3.56259 55.9369C4.54166 56.9413 6.05141 56.608 6.62461 55.4169C7.78556 55.8123 8.88713 56.8599 9.89166 57.5108C8.73887 57.8792 7.24089 58.7615 6.74856 60.2027C6.58815 60.6722 6.34344 62.0875 7.10428 62.062C8.03468 62.0309 7.5799 61.0418 9.89166 60.5588C11.4503 60.2331 12.9209 60.5973 14.5823 60.9615C16.5414 61.391 18.7659 61.8204 21.7134 61.1188C26.1743 60.0569 28.1615 58.3772 30.7409 58.7464C29.3527 62.0539 25.0946 60.1761 21.4719 61.7971C18.5198 63.1183 19.0353 65.5953 20.4269 65.6543C20.9219 65.6753 20.9329 65.2352 21.2417 64.795C21.5444 64.3634 22.1335 63.9318 23.7461 63.9351C25.5789 63.9387 27.8458 64.4846 29.6889 64.5023C33.9644 64.5433 39.8153 62.7792 38.8636 57.6031C41.1184 57.5688 43.1857 56.2697 45.4378 57.0797C43.6996 58.0827 45.2589 60.7658 47.3919 60.0159C48.2165 59.726 48.9456 59.1 49.3127 58.3257C50.6593 55.4864 47.8803 53.5676 45.2881 53.4278C43.0646 53.3079 40.7067 53.569 38.6132 52.6753C34.2082 50.7949 36.136 47.581 37.3921 44.5674C38.0339 43.0272 38.9436 41.1462 39.4357 39.5492C40.5774 35.8439 41.0248 30.176 38.8344 26.7811C35.2248 21.1862 29.7203 17.8404 24.1995 17.8398C20.2428 17.8394 16.2785 19.5571 12.994 23.3964Z" fill="white"/>
</mask>
<g mask="url(#mask4)">
<path fill-rule="evenodd" clip-rule="evenodd" d="M31.3184 25.1869C31.9633 27.3984 33.2732 29.7386 35.5134 30.5307C36.2434 34.4436 35.1216 38.3992 33.4642 41.9705C32.425 44.2104 30.9316 46.6956 31.1363 49.2266C31.4535 53.1429 36.5835 56.5962 34.319 60.221C32.0687 63.8227 26.6365 61.966 23.1712 62.7526C22.0996 62.9959 19.4909 64.3046 20.2504 65.8382C20.3199 65.9783 20.4588 66.0296 20.6144 66.0485C21.3796 66.1418 22.1654 65.5995 22.8984 65.4363C23.9878 65.1936 25.1163 65.2759 26.2149 65.4034C28.2501 65.6394 30.5531 66.0296 32.5938 65.75C39.292 64.8322 39.2684 60.9102 38.9348 57.7414C40.3595 58.0027 43.2894 56.8115 44.0947 57.4708C44.9232 58.149 43.0347 59.676 44.998 60.5706C45.5187 60.8079 46.153 60.886 46.72 60.7914C49.6056 60.31 52.4566 55.9562 48.1643 54.2862C49.1866 55.1691 49.1507 55.9815 49.0656 56.7032C48.7168 59.6628 45.9178 60.1973 44.9835 59.1097C43.9379 57.8924 45.3928 56.6493 46.8913 56.9839C45.1314 54.2439 39.8378 56.4886 38.0699 54.9703C37.0019 54.0531 37.3015 52.6896 38.7662 52.789C38.3569 50.4551 37.7981 46.7571 38.8969 44.6956C39.8079 42.9865 40.6287 41.1047 41.0855 39.2297C41.7451 36.5221 41.7333 30.4724 39.9029 28.1807C39.0578 27.1225 37.6302 26.4618 36.3435 26.0526C35.3291 25.7301 32.3919 24.722 31.3184 25.1869Z" fill="#BA1918"/>
</g>
<mask id="mask5" mask-type="alpha" maskUnits="userSpaceOnUse" x="2" y="17" width="48" height="49">
<path fill-rule="evenodd" clip-rule="evenodd" d="M12.994 23.3964C7.19716 30.1724 10.921 39.1215 13.2933 42.2347C17.1072 47.2399 19.7364 47.6635 20.8343 50.3612C22.0527 53.3548 19.9267 55.722 16.2481 55.0272C12.1692 54.2568 8.00374 50.2868 4.31005 52.18C2.84721 52.9298 2.40997 54.7545 3.56259 55.9369C4.54166 56.9413 6.05141 56.608 6.62461 55.4169C7.78556 55.8123 8.88713 56.8599 9.89166 57.5108C8.73887 57.8792 7.24089 58.7615 6.74856 60.2027C6.58815 60.6722 6.34344 62.0875 7.10428 62.062C8.03468 62.0309 7.5799 61.0418 9.89166 60.5588C11.4503 60.2331 12.9209 60.5973 14.5823 60.9615C16.5414 61.391 18.7659 61.8204 21.7134 61.1188C26.1743 60.0569 28.1615 58.3772 30.7409 58.7464C29.3527 62.0539 25.0946 60.1761 21.4719 61.7971C18.5198 63.1183 19.0353 65.5953 20.4269 65.6543C20.9219 65.6753 20.9329 65.2352 21.2417 64.795C21.5444 64.3634 22.1335 63.9318 23.7461 63.9351C25.5789 63.9387 27.8458 64.4846 29.6889 64.5023C33.9644 64.5433 39.8153 62.7792 38.8636 57.6031C41.1184 57.5688 43.1857 56.2697 45.4378 57.0797C43.6996 58.0827 45.2589 60.7658 47.3919 60.0159C48.2165 59.726 48.9456 59.1 49.3127 58.3257C50.6593 55.4864 47.8803 53.5676 45.2881 53.4278C43.0646 53.3079 40.7067 53.569 38.6132 52.6753C34.2082 50.7949 36.136 47.581 37.3921 44.5674C38.0339 43.0272 38.9436 41.1462 39.4357 39.5492C40.5774 35.8439 41.0248 30.176 38.8344 26.7811C35.2248 21.1862 29.7203 17.8404 24.1995 17.8398C20.2428 17.8394 16.2785 19.5571 12.994 23.3964Z" fill="white"/>
</mask>
<g mask="url(#mask5)">
<path fill-rule="evenodd" clip-rule="evenodd" d="M27.9721 55.418C24.8166 58.0536 21.0247 58.9508 16.8956 58.7891C14.8549 58.7093 12.7156 58.4802 10.6952 58.8844C9.31322 59.1609 6.05263 61.2244 6.64218 62.9406C7.00734 64.0035 11.3744 62.1661 12.3063 61.9831C15.045 61.4454 16.863 62.2666 19.3784 62.0933C20.8889 61.9892 22.2386 61.327 23.6768 60.95C24.7042 60.6805 25.7647 60.5972 26.8091 60.4122C27.9663 60.2071 31.872 59.2039 30.4329 57.6579C29.7187 56.8907 28.6223 56.3296 27.9721 55.418Z" fill="#BA1918"/>
</g>
<mask id="mask6" mask-type="alpha" maskUnits="userSpaceOnUse" x="2" y="17" width="48" height="49">
<path fill-rule="evenodd" clip-rule="evenodd" d="M12.994 23.3964C7.19716 30.1724 10.921 39.1215 13.2933 42.2347C17.1072 47.2399 19.7364 47.6635 20.8343 50.3612C22.0527 53.3548 19.9267 55.722 16.2481 55.0272C12.1692 54.2568 8.00374 50.2868 4.31005 52.18C2.84721 52.9298 2.40997 54.7545 3.56259 55.9369C4.54166 56.9413 6.05141 56.608 6.62461 55.4169C7.78556 55.8123 8.88713 56.8599 9.89166 57.5108C8.73887 57.8792 7.24089 58.7615 6.74856 60.2027C6.58815 60.6722 6.34344 62.0875 7.10428 62.062C8.03468 62.0309 7.5799 61.0418 9.89166 60.5588C11.4503 60.2331 12.9209 60.5973 14.5823 60.9615C16.5414 61.391 18.7659 61.8204 21.7134 61.1188C26.1743 60.0569 28.1615 58.3772 30.7409 58.7464C29.3527 62.0539 25.0946 60.1761 21.4719 61.7971C18.5198 63.1183 19.0353 65.5953 20.4269 65.6543C20.9219 65.6753 20.9329 65.2352 21.2417 64.795C21.5444 64.3634 22.1335 63.9318 23.7461 63.9351C25.5789 63.9387 27.8458 64.4846 29.6889 64.5023C33.9644 64.5433 39.8153 62.7792 38.8636 57.6031C41.1184 57.5688 43.1857 56.2697 45.4378 57.0797C43.6996 58.0827 45.2589 60.7658 47.3919 60.0159C48.2165 59.726 48.9456 59.1 49.3127 58.3257C50.6593 55.4864 47.8803 53.5676 45.2881 53.4278C43.0646 53.3079 40.7067 53.569 38.6132 52.6753C34.2082 50.7949 36.136 47.581 37.3921 44.5674C38.0339 43.0272 38.9436 41.1462 39.4357 39.5492C40.5774 35.8439 41.0248 30.176 38.8344 26.7811C35.2248 21.1862 29.7203 17.8404 24.1995 17.8398C20.2428 17.8394 16.2785 19.5571 12.994 23.3964Z" fill="white"/>
</mask>
<g mask="url(#mask6)">
<path fill-rule="evenodd" clip-rule="evenodd" d="M24.576 50.1445C23.8771 54.7961 18.6687 56.9051 14.1276 55.9151C11.8593 55.4206 8.70747 53.98 6.4873 54.0933C6.76076 54.7236 6.84383 55.1983 6.50884 55.8743C7.49307 56.2747 8.7053 56.8532 9.55475 57.4974C10.2556 57.3783 10.949 57.2177 11.6598 57.1607C14.7759 56.9109 18.064 57.1693 21.0325 56.0312C22.9449 55.2981 25.1312 52.6502 24.576 50.1445Z" fill="#BA1918"/>
</g>
<mask id="mask7" mask-type="alpha" maskUnits="userSpaceOnUse" x="2" y="17" width="48" height="49">
<path fill-rule="evenodd" clip-rule="evenodd" d="M12.994 23.3964C7.19716 30.1724 10.921 39.1215 13.2933 42.2347C17.1072 47.2399 19.7364 47.6635 20.8343 50.3612C22.0527 53.3548 19.9267 55.722 16.2481 55.0272C12.1692 54.2568 8.00374 50.2868 4.31005 52.18C2.84721 52.9298 2.40997 54.7545 3.56259 55.9369C4.54166 56.9413 6.05141 56.608 6.62461 55.4169C7.78556 55.8123 8.88713 56.8599 9.89166 57.5108C8.73887 57.8792 7.24089 58.7615 6.74856 60.2027C6.58815 60.6722 6.34344 62.0875 7.10428 62.062C8.03468 62.0309 7.5799 61.0418 9.89166 60.5588C11.4503 60.2331 12.9209 60.5973 14.5823 60.9615C16.5414 61.391 18.7659 61.8204 21.7134 61.1188C26.1743 60.0569 28.1615 58.3772 30.7409 58.7464C29.3527 62.0539 25.0946 60.1761 21.4719 61.7971C18.5198 63.1183 19.0353 65.5953 20.4269 65.6543C20.9219 65.6753 20.9329 65.2352 21.2417 64.795C21.5444 64.3634 22.1335 63.9318 23.7461 63.9351C25.5789 63.9387 27.8458 64.4846 29.6889 64.5023C33.9644 64.5433 39.8153 62.7792 38.8636 57.6031C41.1184 57.5688 43.1857 56.2697 45.4378 57.0797C43.6996 58.0827 45.2589 60.7658 47.3919 60.0159C48.2165 59.726 48.9456 59.1 49.3127 58.3257C50.6593 55.4864 47.8803 53.5676 45.2881 53.4278C43.0646 53.3079 40.7067 53.569 38.6132 52.6753C34.2082 50.7949 36.136 47.581 37.3921 44.5674C38.0339 43.0272 38.9436 41.1462 39.4357 39.5492C40.5774 35.8439 41.0248 30.176 38.8344 26.7811C35.2248 21.1862 29.7203 17.8404 24.1995 17.8398C20.2428 17.8394 16.2785 19.5571 12.994 23.3964Z" fill="white"/>
</mask>
<g mask="url(#mask7)">
<path fill-rule="evenodd" clip-rule="evenodd" d="M5.73795 53.7852C6.51671 54.4454 6.04435 55.7322 5.02968 55.9447C4.60401 56.0338 4.10621 55.9992 3.7076 55.824C3.5379 55.7494 3.38851 55.6444 3.24262 55.5337C3.23748 55.5298 3.19026 55.4885 3.18618 55.4907C3.06462 55.5556 3.30614 56.3036 3.33685 56.3653C3.41948 56.5315 3.53288 56.6827 3.67292 56.8081C3.97049 57.0745 4.43229 56.8053 4.83355 56.7899C6.85309 56.7123 7.55817 54.0898 5.73795 53.7852Z" fill="#BA1918"/>
</g>
<mask id="mask8" mask-type="alpha" maskUnits="userSpaceOnUse" x="2" y="17" width="48" height="49">
<path fill-rule="evenodd" clip-rule="evenodd" d="M12.994 23.3964C7.19716 30.1724 10.921 39.1215 13.2933 42.2347C17.1072 47.2399 19.7364 47.6635 20.8343 50.3612C22.0527 53.3548 19.9267 55.722 16.2481 55.0272C12.1692 54.2568 8.00374 50.2868 4.31005 52.18C2.84721 52.9298 2.40997 54.7545 3.56259 55.9369C4.54166 56.9413 6.05141 56.608 6.62461 55.4169C7.78556 55.8123 8.88713 56.8599 9.89166 57.5108C8.73887 57.8792 7.24089 58.7615 6.74856 60.2027C6.58815 60.6722 6.34344 62.0875 7.10428 62.062C8.03468 62.0309 7.5799 61.0418 9.89166 60.5588C11.4503 60.2331 12.9209 60.5973 14.5823 60.9615C16.5414 61.391 18.7659 61.8204 21.7134 61.1188C26.1743 60.0569 28.1615 58.3772 30.7409 58.7464C29.3527 62.0539 25.0946 60.1761 21.4719 61.7971C18.5198 63.1183 19.0353 65.5953 20.4269 65.6543C20.9219 65.6753 20.9329 65.2352 21.2417 64.795C21.5444 64.3634 22.1335 63.9318 23.7461 63.9351C25.5789 63.9387 27.8458 64.4846 29.6889 64.5023C33.9644 64.5433 39.8153 62.7792 38.8636 57.6031C41.1184 57.5688 43.1857 56.2697 45.4378 57.0797C43.6996 58.0827 45.2589 60.7658 47.3919 60.0159C48.2165 59.726 48.9456 59.1 49.3127 58.3257C50.6593 55.4864 47.8803 53.5676 45.2881 53.4278C43.0646 53.3079 40.7067 53.569 38.6132 52.6753C34.2082 50.7949 36.136 47.581 37.3921 44.5674C38.0339 43.0272 38.9436 41.1462 39.4357 39.5492C40.5774 35.8439 41.0248 30.176 38.8344 26.7811C35.2248 21.1862 29.7203 17.8404 24.1995 17.8398C20.2428 17.8394 16.2785 19.5571 12.994 23.3964Z" fill="white"/>
</mask>
<g mask="url(#mask8)">
<path fill-rule="evenodd" clip-rule="evenodd" d="M3.5399 55.9277C2.60653 52.367 6.92834 50.8908 13.3048 54.0764C11.9199 53.2333 5.89078 50.8819 4.312 51.5696C2.53726 52.3428 2.02978 54.5659 3.5399 55.9277Z" fill="#F090AD"/>
</g>
<mask id="mask9" mask-type="alpha" maskUnits="userSpaceOnUse" x="2" y="17" width="48" height="49">
<path fill-rule="evenodd" clip-rule="evenodd" d="M12.994 23.3964C7.19716 30.1724 10.921 39.1215 13.2933 42.2347C17.1072 47.2399 19.7364 47.6635 20.8343 50.3612C22.0527 53.3548 19.9267 55.722 16.2481 55.0272C12.1692 54.2568 8.00374 50.2868 4.31005 52.18C2.84721 52.9298 2.40997 54.7545 3.56259 55.9369C4.54166 56.9413 6.05141 56.608 6.62461 55.4169C7.78556 55.8123 8.88713 56.8599 9.89166 57.5108C8.73887 57.8792 7.24089 58.7615 6.74856 60.2027C6.58815 60.6722 6.34344 62.0875 7.10428 62.062C8.03468 62.0309 7.5799 61.0418 9.89166 60.5588C11.4503 60.2331 12.9209 60.5973 14.5823 60.9615C16.5414 61.391 18.7659 61.8204 21.7134 61.1188C26.1743 60.0569 28.1615 58.3772 30.7409 58.7464C29.3527 62.0539 25.0946 60.1761 21.4719 61.7971C18.5198 63.1183 19.0353 65.5953 20.4269 65.6543C20.9219 65.6753 20.9329 65.2352 21.2417 64.795C21.5444 64.3634 22.1335 63.9318 23.7461 63.9351C25.5789 63.9387 27.8458 64.4846 29.6889 64.5023C33.9644 64.5433 39.8153 62.7792 38.8636 57.6031C41.1184 57.5688 43.1857 56.2697 45.4378 57.0797C43.6996 58.0827 45.2589 60.7658 47.3919 60.0159C48.2165 59.726 48.9456 59.1 49.3127 58.3257C50.6593 55.4864 47.8803 53.5676 45.2881 53.4278C43.0646 53.3079 40.7067 53.569 38.6132 52.6753C34.2082 50.7949 36.136 47.581 37.3921 44.5674C38.0339 43.0272 38.9436 41.1462 39.4357 39.5492C40.5774 35.8439 41.0248 30.176 38.8344 26.7811C35.2248 21.1862 29.7203 17.8404 24.1995 17.8398C20.2428 17.8394 16.2785 19.5571 12.994 23.3964Z" fill="white"/>
</mask>
<g mask="url(#mask9)">
<path fill-rule="evenodd" clip-rule="evenodd" d="M6.56463 61.6709C7.45989 57.2973 12.7685 57.6473 16.1777 57.3198C17.435 57.199 19.5439 56.999 20.7219 56.5549C22.7859 55.7764 25.1163 53.7669 24.6235 51.2812C24.2162 52.8328 23.6354 53.5477 22.5175 54.4663C19.0869 57.2851 14.1004 56.2139 10.5067 57.3327C8.51042 57.9543 5.70874 59.4437 6.56463 61.6709Z" fill="#F090AD"/>
</g>
<mask id="mask10" mask-type="alpha" maskUnits="userSpaceOnUse" x="2" y="17" width="48" height="49">
<path fill-rule="evenodd" clip-rule="evenodd" d="M12.994 23.3964C7.19716 30.1724 10.921 39.1215 13.2933 42.2347C17.1072 47.2399 19.7364 47.6635 20.8343 50.3612C22.0527 53.3548 19.9267 55.722 16.2481 55.0272C12.1692 54.2568 8.00374 50.2868 4.31005 52.18C2.84721 52.9298 2.40997 54.7545 3.56259 55.9369C4.54166 56.9413 6.05141 56.608 6.62461 55.4169C7.78556 55.8123 8.88713 56.8599 9.89166 57.5108C8.73887 57.8792 7.24089 58.7615 6.74856 60.2027C6.58815 60.6722 6.34344 62.0875 7.10428 62.062C8.03468 62.0309 7.5799 61.0418 9.89166 60.5588C11.4503 60.2331 12.9209 60.5973 14.5823 60.9615C16.5414 61.391 18.7659 61.8204 21.7134 61.1188C26.1743 60.0569 28.1615 58.3772 30.7409 58.7464C29.3527 62.0539 25.0946 60.1761 21.4719 61.7971C18.5198 63.1183 19.0353 65.5953 20.4269 65.6543C20.9219 65.6753 20.9329 65.2352 21.2417 64.795C21.5444 64.3634 22.1335 63.9318 23.7461 63.9351C25.5789 63.9387 27.8458 64.4846 29.6889 64.5023C33.9644 64.5433 39.8153 62.7792 38.8636 57.6031C41.1184 57.5688 43.1857 56.2697 45.4378 57.0797C43.6996 58.0827 45.2589 60.7658 47.3919 60.0159C48.2165 59.726 48.9456 59.1 49.3127 58.3257C50.6593 55.4864 47.8803 53.5676 45.2881 53.4278C43.0646 53.3079 40.7067 53.569 38.6132 52.6753C34.2082 50.7949 36.136 47.581 37.3921 44.5674C38.0339 43.0272 38.9436 41.1462 39.4357 39.5492C40.5774 35.8439 41.0248 30.176 38.8344 26.7811C35.2248 21.1862 29.7203 17.8404 24.1995 17.8398C20.2428 17.8394 16.2785 19.5571 12.994 23.3964Z" fill="white"/>
</mask>
<g mask="url(#mask10)">
<path fill-rule="evenodd" clip-rule="evenodd" d="M19.7493 65.2967C19.7315 63.8411 20.6191 62.8228 21.9157 62.332C24.2441 61.4509 26.9077 61.9493 29.2694 61.144C30.3499 60.7757 31.6345 59.9003 31.6036 58.5647C31.5612 56.7299 28.9202 56.8147 28.1812 55.4844C28.4429 55.7981 28.6855 56.1259 28.9877 56.406C29.3664 56.7569 30.2173 57.4233 30.5101 57.8506C31.2061 58.8665 29.9891 59.9589 28.9318 60.4136C27.0413 61.2266 24.2966 60.4906 22.3833 61.1349C20.991 61.6038 19.7602 62.1052 19.3171 63.5982C19.178 64.0668 19.3712 64.8895 19.7493 65.2967Z" fill="#F090AD"/>
</g>
<mask id="mask11" mask-type="alpha" maskUnits="userSpaceOnUse" x="2" y="17" width="48" height="49">
<path fill-rule="evenodd" clip-rule="evenodd" d="M12.994 23.3964C7.19716 30.1724 10.921 39.1215 13.2933 42.2347C17.1072 47.2399 19.7364 47.6635 20.8343 50.3612C22.0527 53.3548 19.9267 55.722 16.2481 55.0272C12.1692 54.2568 8.00374 50.2868 4.31005 52.18C2.84721 52.9298 2.40997 54.7545 3.56259 55.9369C4.54166 56.9413 6.05141 56.608 6.62461 55.4169C7.78556 55.8123 8.88713 56.8599 9.89166 57.5108C8.73887 57.8792 7.24089 58.7615 6.74856 60.2027C6.58815 60.6722 6.34344 62.0875 7.10428 62.062C8.03468 62.0309 7.5799 61.0418 9.89166 60.5588C11.4503 60.2331 12.9209 60.5973 14.5823 60.9615C16.5414 61.391 18.7659 61.8204 21.7134 61.1188C26.1743 60.0569 28.1615 58.3772 30.7409 58.7464C29.3527 62.0539 25.0946 60.1761 21.4719 61.7971C18.5198 63.1183 19.0353 65.5953 20.4269 65.6543C20.9219 65.6753 20.9329 65.2352 21.2417 64.795C21.5444 64.3634 22.1335 63.9318 23.7461 63.9351C25.5789 63.9387 27.8458 64.4846 29.6889 64.5023C33.9644 64.5433 39.8153 62.7792 38.8636 57.6031C41.1184 57.5688 43.1857 56.2697 45.4378 57.0797C43.6996 58.0827 45.2589 60.7658 47.3919 60.0159C48.2165 59.726 48.9456 59.1 49.3127 58.3257C50.6593 55.4864 47.8803 53.5676 45.2881 53.4278C43.0646 53.3079 40.7067 53.569 38.6132 52.6753C34.2082 50.7949 36.136 47.581 37.3921 44.5674C38.0339 43.0272 38.9436 41.1462 39.4357 39.5492C40.5774 35.8439 41.0248 30.176 38.8344 26.7811C35.2248 21.1862 29.7203 17.8404 24.1995 17.8398C20.2428 17.8394 16.2785 19.5571 12.994 23.3964Z" fill="white"/>
</mask>
<g mask="url(#mask11)">
<path fill-rule="evenodd" clip-rule="evenodd" d="M11.094 30.0195C10.9138 33.2762 11.2756 36.9438 15.6459 42.7394C17.147 44.7298 21.1497 47.6782 22.0781 50.0368C23.1407 52.7366 20.6174 55.7799 17.9019 55.1648C18.0599 51.3173 15.998 48.8594 14.0984 45.6953C12.7316 43.4185 10.5516 39.4739 9.87215 36.9797C9.43632 35.3803 9.24506 31.1526 11.094 30.0195Z" fill="#F090AD"/>
</g>
<path fill-rule="evenodd" clip-rule="evenodd" d="M12.9939 23.3964C7.19704 30.1725 10.9209 39.1216 13.2932 42.2347C17.1071 47.2399 19.7363 47.6635 20.8341 50.3612C22.0526 53.3548 19.9265 55.7221 16.248 55.0272C12.1691 54.2568 8.00361 50.2868 4.30993 52.18C2.84709 52.9298 2.40985 54.7545 3.56247 55.937C4.54154 56.9413 6.05126 56.608 6.62449 55.4169C7.78544 55.8123 8.887 56.8599 9.89154 57.5108C8.73875 57.8792 7.24077 58.7615 6.74844 60.2027C6.58802 60.6722 6.34332 62.0875 7.10416 62.0621C8.03453 62.0309 7.57978 61.0419 9.89154 60.5588C13.2882 59.849 16.2661 62.4154 21.7132 61.1188C26.1742 60.0569 28.1613 58.3772 30.7408 58.7465C29.3526 62.0539 25.0944 60.1761 21.4718 61.7972C18.5197 63.1183 19.0351 65.5953 20.4268 65.6543C21.4072 65.6959 20.489 63.9286 23.746 63.9351C25.5787 63.9387 27.8456 64.4846 29.6888 64.5023C33.9643 64.5433 39.8152 62.7792 38.8635 57.6031C41.1183 57.5688 43.1855 56.2697 45.4377 57.0798C43.6995 58.0827 45.2587 60.7658 47.3918 60.0159C48.2164 59.7261 48.9455 59.1 49.3126 58.3257C50.6591 55.4864 47.8802 53.5676 45.2879 53.4278C43.0644 53.3079 40.7066 53.569 38.6131 52.6753C34.2081 50.7949 36.1359 47.581 37.392 44.5674C38.0338 43.0273 38.9435 41.1462 39.4356 39.5492C40.5773 35.8439 41.0247 30.1759 38.8343 26.7811C32.6377 17.1764 20.8614 14.2001 12.9939 23.3964Z" stroke="black" stroke-width="0.242029" stroke-linecap="round" stroke-linejoin="round"/>
<path fill-rule="evenodd" clip-rule="evenodd" d="M6.50972 55.3747C6.56278 55.2379 6.59498 55.0952 6.59768 54.9525C6.60024 54.8101 6.57513 54.6682 6.52106 54.5358C6.41354 54.2705 6.197 54.0465 5.93331 53.9055C5.80146 53.8348 5.65802 53.784 5.51061 53.7564C5.3632 53.7291 5.21125 53.7261 5.06565 53.7529C4.91995 53.7788 4.78066 53.8341 4.65971 53.9172C4.53827 53.9996 4.43466 54.1083 4.35299 54.2333L4.35261 54.2339C4.32533 54.2757 4.26812 54.2882 4.22487 54.2618C4.18293 54.2362 4.16962 54.1833 4.19371 54.142C4.2795 53.9957 4.39346 53.8601 4.53605 53.755C4.67823 53.65 4.84607 53.5762 5.02117 53.5398C5.19661 53.5037 5.37769 53.5038 5.55212 53.5322C5.72686 53.5604 5.89528 53.6181 6.05031 53.6994C6.20539 53.7806 6.34767 53.8855 6.46879 54.0114C6.59016 54.1369 6.68895 54.2849 6.75474 54.447C6.82075 54.6088 6.85348 54.7844 6.84839 54.9581C6.84338 55.132 6.80259 55.3021 6.73919 55.4604C6.71468 55.5216 6.64343 55.552 6.58008 55.5284C6.51717 55.5048 6.48568 55.4368 6.50926 55.3759L6.50972 55.3747Z" fill="black"/>
<path fill-rule="evenodd" clip-rule="evenodd" d="M9.8547 57.3971C10.6053 57.1773 11.3662 56.9873 12.1371 56.8431C12.9076 56.6978 13.6887 56.6017 14.4704 56.5521C15.252 56.4972 16.0326 56.4774 16.8074 56.4158L16.9528 56.4048L17.0977 56.3907L17.3876 56.3626L17.6766 56.3273C17.7728 56.3151 17.8695 56.3048 17.9647 56.2892C18.3466 56.2311 18.7248 56.1492 19.0967 56.0462C19.2826 55.9945 19.4676 55.9391 19.6499 55.8764C19.8322 55.8138 20.0127 55.7464 20.1911 55.6743C20.5478 55.5299 20.8956 55.3653 21.2323 55.1824C21.5684 54.9984 21.8939 54.7965 22.2015 54.5722C22.3559 54.4607 22.5064 54.3445 22.6519 54.2228C22.7974 54.1012 22.9375 53.9737 23.0725 53.8417C23.2072 53.7094 23.336 53.5716 23.4575 53.4282C23.5793 53.2852 23.6945 53.1368 23.7998 52.9823C24.0103 52.6735 24.1885 52.3436 24.3165 51.9953C24.446 51.6478 24.5267 51.2828 24.5511 50.9127C24.5627 50.7277 24.563 50.5415 24.5484 50.3559L24.5432 50.2862L24.5353 50.2167C24.5296 50.1705 24.5253 50.1239 24.5172 50.078C24.5095 50.0319 24.5042 49.9854 24.4953 49.9395L24.469 49.8015L24.4687 49.8002C24.465 49.7807 24.4783 49.762 24.4985 49.7584C24.5178 49.755 24.5364 49.7667 24.5412 49.7849L24.5775 49.9232C24.5896 49.9694 24.5988 50.0162 24.6091 50.0628C24.6199 50.1094 24.6268 50.1566 24.6351 50.2037L24.647 50.2744L24.6562 50.3454C24.6807 50.5349 24.6929 50.7267 24.688 50.9185C24.6799 51.3023 24.6078 51.6851 24.4841 52.0508C24.3589 52.4163 24.183 52.7651 23.9675 53.088C23.7531 53.4119 23.4997 53.71 23.2232 53.9843C22.9474 54.2597 22.6445 54.5079 22.3274 54.7357C22.0094 54.9628 21.6744 55.166 21.3294 55.3506C20.9839 55.5344 20.6269 55.6973 20.262 55.8404C19.8967 55.9827 19.5238 56.1064 19.1449 56.2099C18.766 56.3135 18.3807 56.3956 17.9912 56.4535C17.8937 56.4687 17.7966 56.4801 17.6993 56.4928L17.4075 56.5298L17.115 56.5596L16.9687 56.5745L16.8223 56.5863C16.0411 56.6521 15.26 56.6757 14.4846 56.734C13.7087 56.79 12.9389 56.8928 12.1784 57.0435C11.418 57.1946 10.6688 57.3957 9.92858 57.6238L9.92776 57.6241C9.86303 57.644 9.79383 57.6095 9.77318 57.547C9.75254 57.4844 9.78828 57.4176 9.85302 57.3976C9.85335 57.3975 9.85434 57.3972 9.8547 57.3971Z" fill="black"/>
<path fill-rule="evenodd" clip-rule="evenodd" d="M30.6181 58.7381C30.6257 58.5699 30.6077 58.4035 30.5558 58.2462C30.5041 58.0891 30.4234 57.9407 30.3208 57.8032C30.2186 57.6655 30.097 57.5375 29.9655 57.4165C29.8346 57.2948 29.6945 57.1789 29.5518 57.064C29.2674 56.833 28.9702 56.6055 28.7031 56.3417C28.6695 56.3092 28.6372 56.275 28.605 56.2409L28.5566 56.1898L28.51 56.137L28.464 56.0838C28.4489 56.0659 28.4345 56.0472 28.4198 56.029C28.3906 55.9923 28.3605 55.9564 28.3342 55.9175C28.224 55.766 28.1283 55.6041 28.0571 55.4332C28.0492 55.4144 28.0587 55.393 28.0781 55.3855C28.0952 55.3788 28.1144 55.3851 28.1241 55.3994L28.1243 55.3997C28.2255 55.5498 28.3368 55.6908 28.4584 55.8229C28.4881 55.8564 28.5195 55.8886 28.5509 55.9207C28.5666 55.9367 28.5819 55.953 28.5979 55.9688L28.6469 56.0154L28.6952 56.0623L28.7452 56.1079C28.7785 56.1383 28.8117 56.1686 28.8465 56.1977C29.1186 56.4358 29.4139 56.6519 29.7095 56.877C29.8565 56.9907 30.0036 57.1069 30.1446 57.2333C30.2847 57.3606 30.4199 57.4978 30.5359 57.6539C30.6515 57.8096 30.7483 57.9846 30.8049 58.1738C30.8628 58.3623 30.8817 58.5616 30.8636 58.754C30.8575 58.8193 30.7977 58.8676 30.73 58.8617C30.6644 58.856 30.6155 58.8011 30.6181 58.7381Z" fill="black"/>
<path fill-rule="evenodd" clip-rule="evenodd" d="M38.7424 57.6254C38.6918 57.4352 38.6318 57.2489 38.5577 57.0664C38.4842 56.8837 38.3959 56.7058 38.2994 56.5302C38.2021 56.355 38.0932 56.1843 37.9794 56.0148C37.8653 55.8454 37.7443 55.6787 37.6253 55.5082C37.6164 55.4955 37.6199 55.4782 37.633 55.4696C37.6441 55.4624 37.6584 55.4636 37.668 55.4716C37.8294 55.607 37.981 55.753 38.1235 55.9083C38.2664 56.0634 38.3985 56.2291 38.5172 56.4052C38.6366 56.5808 38.739 56.769 38.8205 56.9664C38.9015 57.1639 38.9604 57.3717 38.9846 57.5838C38.992 57.6491 38.9432 57.708 38.8755 57.7152C38.8137 57.7218 38.7576 57.683 38.7426 57.6265L38.7424 57.6254Z" fill="black"/>
<path fill-rule="evenodd" clip-rule="evenodd" d="M45.3491 56.9957C45.445 56.9014 45.5629 56.8288 45.6882 56.7812C45.8135 56.7327 45.9458 56.7084 46.077 56.701C46.34 56.6884 46.6002 56.7443 46.8328 56.8568C46.9487 56.914 47.0578 56.9857 47.154 57.0732C47.25 57.1606 47.3319 57.2664 47.3853 57.3859C47.4398 57.5047 47.4643 57.6367 47.4554 57.7636C47.4474 57.8909 47.4072 58.0118 47.3479 58.1179C47.3356 58.1399 47.3072 58.1481 47.2844 58.1362C47.2655 58.1263 47.2564 58.1057 47.261 58.0863L47.2613 58.0851C47.287 57.9763 47.2983 57.8684 47.2878 57.7652C47.2774 57.6621 47.245 57.5646 47.1941 57.477C47.0913 57.3019 46.9186 57.1649 46.7215 57.0787C46.6234 57.0347 46.5191 57.002 46.4126 56.9824C46.3062 56.9621 46.1977 56.9537 46.0911 56.9594C45.878 56.9692 45.672 57.0366 45.5192 57.1674L45.5185 57.168C45.4676 57.2116 45.3899 57.207 45.3448 57.1579C45.3017 57.1109 45.3044 57.0398 45.3491 56.9957Z" fill="black"/>
<path fill-rule="evenodd" clip-rule="evenodd" d="M40.3846 33.365C40.4594 32.6873 40.3421 31.1719 39.2592 31.1719C38.3109 31.1719 37.5492 32.2308 36.9523 33.029C37.1973 33.1005 37.6732 33.0185 37.8145 32.7857C38.1047 32.3077 38.4295 31.5904 39.211 31.5904C39.9924 31.5904 40.318 32.4217 40.3846 33.365Z" fill="black"/>
<path fill-rule="evenodd" clip-rule="evenodd" d="M40.3846 33.365C40.4594 32.6873 40.3421 31.1719 39.2592 31.1719C38.3109 31.1719 37.5492 32.2308 36.9523 33.029C37.1973 33.1005 37.6732 33.0185 37.8145 32.7857C38.1047 32.3077 38.4295 31.5904 39.211 31.5904C39.9924 31.5904 40.318 32.4217 40.3846 33.365Z" stroke="black" stroke-width="0.242029" stroke-linecap="round" stroke-linejoin="round"/>
<path fill-rule="evenodd" clip-rule="evenodd" d="M40.4027 31.17C40.3607 30.4294 40.0173 28.7098 38.8635 28.6928C38.1059 28.6816 37.5092 29.6898 37.0794 30.2838C36.7986 30.6718 36.3587 30.5963 36.7958 29.6469C37.1481 28.8816 38.0355 27.8525 39.0711 27.8399C40.2799 27.8252 40.4746 30.493 40.4027 31.17Z" fill="black"/>
<path fill-rule="evenodd" clip-rule="evenodd" d="M40.4027 31.17C40.3607 30.4294 40.0173 28.7098 38.8635 28.6928C38.1059 28.6816 37.5092 29.6898 37.0794 30.2838C36.7986 30.6718 36.3587 30.5963 36.7958 29.6469C37.1481 28.8816 38.0355 27.8525 39.0711 27.8399C40.2799 27.8252 40.4746 30.493 40.4027 31.17Z" stroke="black" stroke-width="0.242029" stroke-linecap="round" stroke-linejoin="round"/>
<path fill-rule="evenodd" clip-rule="evenodd" d="M23.8096 26.2004C22.464 26.308 18.8699 27.0407 17.0945 27.5655C15.8493 27.9337 15.213 26.1517 16.5697 25.642C17.2853 25.3731 18.4984 25.0079 19.237 24.8101C20.6735 24.4253 22.0651 24.3086 23.5563 24.1953C23.7013 24.9212 23.7573 25.5667 23.8096 26.2004Z" fill="#8F1913"/>
<path fill-rule="evenodd" clip-rule="evenodd" d="M23.8198 26.2697C23.8873 26.2664 23.9378 26.2315 23.9324 26.1914H23.8849C23.8545 25.7978 23.8225 25.3995 23.7692 24.9803C23.7361 24.7216 23.6949 24.455 23.6406 24.1765C23.6324 24.1351 23.5933 24.1062 23.5497 24.1097C22.6518 24.1737 21.79 24.2392 20.9326 24.3639C20.3593 24.4471 19.7879 24.5571 19.2091 24.7097C18.7701 24.8258 18.164 24.9999 17.5934 25.1786C17.1995 25.3021 16.8228 25.428 16.529 25.5377C15.8079 25.8071 15.6019 26.4067 15.7302 26.9068C15.8703 27.4514 16.4082 27.8828 17.1288 27.6707C17.9715 27.4223 19.225 27.1277 20.4521 26.8753C21.8011 26.5978 23.118 26.3713 23.8198 26.3156V26.2697ZM23.4869 24.2811C22.6218 24.3508 21.7897 24.4235 20.9625 24.5505C20.3974 24.6374 19.8347 24.7495 19.265 24.9045C18.8969 25.0042 18.411 25.1463 17.9276 25.2969C17.4455 25.4472 16.966 25.6057 16.6105 25.7401C16.0235 25.9617 15.8479 26.4455 15.954 26.8529C16.0659 27.2828 16.4914 27.6231 17.0603 27.4541C17.9074 27.2029 19.1678 26.9037 20.4017 26.6478C21.7154 26.3754 22.9995 26.1519 23.724 26.0853C23.6929 25.7327 23.6587 25.375 23.6071 25.0005C23.575 24.7681 23.5362 24.5293 23.4869 24.2811Z" fill="black"/>
<path fill-rule="evenodd" clip-rule="evenodd" d="M15.0287 28.3827C16.9698 27.5049 18.8703 26.9743 20.6507 26.5846C22.5168 26.1761 22.1012 24.2992 20.6346 24.5316C18.1591 24.924 15.9879 25.8007 14.8688 26.4248C14.8196 26.9691 14.8606 27.8206 15.0287 28.3827Z" fill="#8F1913"/>
<path fill-rule="evenodd" clip-rule="evenodd" d="M14.9561 28.4149C14.9624 28.4482 14.9773 28.4757 14.9976 28.4902C15.0176 28.5046 15.0405 28.5044 15.0605 28.4895H15.0808C16.0079 28.0695 16.9258 27.7291 17.8257 27.4455C18.8008 27.1381 19.755 26.8974 20.6768 26.6949C21.5913 26.4935 21.9876 25.955 22.0117 25.4623C22.0414 24.8518 21.5074 24.2815 20.6165 24.4246C19.5468 24.5975 18.5338 24.8597 17.6376 25.1542C16.4488 25.5446 15.4657 25.9908 14.8256 26.3518C14.801 26.3653 14.7851 26.3898 14.7827 26.4168C14.759 26.6962 14.759 27.0549 14.7875 27.4152C14.8152 27.7673 14.8702 28.1206 14.9561 28.4021V28.4149ZM15.0669 28.2335C15.9736 27.8292 16.8708 27.4995 17.7511 27.2238C18.7339 26.9159 19.6955 26.6752 20.6246 26.4729C21.4012 26.304 21.7594 25.8694 21.7811 25.4513C21.8066 24.9631 21.3657 24.5257 20.6526 24.6373C19.5935 24.8016 18.5907 25.0558 17.7019 25.3399C16.5481 25.7086 15.5874 26.1285 14.9509 26.475C14.9285 26.7402 14.9263 27.0714 14.9488 27.4039C14.9685 27.6938 15.0066 27.9849 15.0669 28.2335Z" fill="black"/>
<path fill-rule="evenodd" clip-rule="evenodd" d="M15.1429 28.3023C13.1734 29.2505 11.2159 30.5231 9.90868 32.2614C9.8233 30.1463 10.0418 28.2916 10.8807 26.3124C11.602 24.61 12.5962 22.9774 13.9259 21.6526C18.1037 17.4901 24.0598 16.4071 29.7148 18.1631C35.8043 20.0539 38.1023 24.429 39.227 26.8971C35.3928 25.9647 28.1093 25.6776 23.4428 26.2406C23.3048 25.3117 23.3516 24.246 22.7588 23.4539C22.1903 22.6947 21.2772 22.2671 20.3308 22.1496C16.761 21.7064 14.2787 24.4413 15.1429 28.3023Z" fill="#FEFEFE"/>
<mask id="mask12" mask-type="alpha" maskUnits="userSpaceOnUse" x="9" y="17" width="31" height="16">
<path fill-rule="evenodd" clip-rule="evenodd" d="M13.9258 21.6526C12.5962 22.9774 11.602 24.61 10.8807 26.3124C10.0418 28.2916 9.8233 30.1463 9.90868 32.2614C11.2159 30.5232 13.1734 29.2505 15.1429 28.3023C14.2787 24.4413 16.761 21.7064 20.3308 22.1496C21.2772 22.2671 22.1903 22.6947 22.7588 23.4539C23.3516 24.2461 23.3048 25.3117 23.4428 26.2406C28.1093 25.6776 35.3928 25.9647 39.2269 26.8971C38.1023 24.429 35.8043 20.0539 29.7148 18.1631C27.988 17.6269 26.2338 17.3554 24.5101 17.3555C20.5888 17.3557 16.8279 18.7611 13.9258 21.6526Z" fill="white"/>
</mask>
<g mask="url(#mask12)">
<path fill-rule="evenodd" clip-rule="evenodd" d="M38.5359 24.8715C37.8065 24.7652 37.0884 24.7365 36.4296 24.7542C35.8576 23.3995 35.084 22.0501 34.1212 20.7483C34.7218 20.6738 35.4114 20.6837 36.1897 20.7809C37.2003 22.1447 37.9338 23.4545 38.5359 24.8715Z" fill="#75151E"/>
</g>
<mask id="mask13" mask-type="alpha" maskUnits="userSpaceOnUse" x="9" y="17" width="31" height="16">
<path fill-rule="evenodd" clip-rule="evenodd" d="M13.9258 21.6526C12.5962 22.9774 11.602 24.61 10.8807 26.3124C10.0418 28.2916 9.8233 30.1463 9.90868 32.2614C11.2159 30.5232 13.1734 29.2505 15.1429 28.3023C14.2787 24.4413 16.761 21.7064 20.3308 22.1496C21.2772 22.2671 22.1903 22.6947 22.7588 23.4539C23.3516 24.2461 23.3048 25.3117 23.4428 26.2406C28.1093 25.6776 35.3928 25.9647 39.2269 26.8971C38.1023 24.429 35.8043 20.0539 29.7148 18.1631C27.988 17.6269 26.2338 17.3554 24.5101 17.3555C20.5888 17.3557 16.8279 18.7611 13.9258 21.6526Z" fill="white"/>
</mask>
<g mask="url(#mask13)">
<path fill-rule="evenodd" clip-rule="evenodd" d="M39.8218 24.0069C39.7853 24.1239 39.6945 24.163 39.5619 24.1219C39.2448 24.0236 38.7928 23.4969 38.4672 22.9161C38.1442 22.3381 38.0982 21.9455 38.4304 22.0279C38.5678 22.0624 38.7486 22.1747 38.9464 22.3531C38.9498 22.3561 38.9531 22.359 38.9565 22.362C38.955 22.2373 38.9522 22.1129 38.9483 21.9888C38.9441 21.985 38.9399 21.9813 38.9357 21.9776C38.5889 21.6652 38.2582 21.4638 38.0256 21.4097C37.4849 21.2865 37.5943 21.9265 38.1061 22.8254C38.6268 23.732 39.3323 24.5914 39.8345 24.7556C40.054 24.8271 40.2131 24.7536 40.2747 24.5448C40.2754 24.5423 40.276 24.5399 40.2767 24.5374C40.1291 24.3577 39.978 24.179 39.8237 24.0013C39.823 24.0032 39.8224 24.005 39.8218 24.0069ZM40.7551 24.9905C40.8779 25.0351 41.0016 25.0811 41.1261 25.1282C40.7276 24.0474 40.1882 22.9561 39.5093 21.8813C39.3745 21.8409 39.2412 21.8022 39.1091 21.7651C39.7952 22.8304 40.3448 23.9145 40.7551 24.9905ZM42.2246 24.5679C42.2127 24.5457 41.8202 23.9441 41.3683 23.3499C40.9263 22.7553 40.4247 22.1682 40.4214 22.168C40.2825 22.1206 40.145 22.0749 40.0087 22.031C40.6776 23.1168 41.2037 24.2163 41.5868 25.3021C41.7144 25.3531 41.8428 25.4056 41.972 25.4596C41.7513 24.8082 41.4791 24.1512 41.1549 23.4941C41.1958 23.544 41.6228 24.1192 41.985 24.679C42.3557 25.2391 42.6618 25.7837 42.659 25.7808C42.686 25.7789 42.6592 24.165 42.626 24.0955C42.9191 24.7617 43.1582 25.4245 43.3446 26.078C43.4811 26.1441 43.6182 26.2119 43.7559 26.2814C43.4633 25.1894 43.0229 24.0689 42.4279 22.9468C42.2749 22.8801 42.1229 22.8157 41.9721 22.7533C42.004 22.7481 42.2553 24.5265 42.2246 24.5679ZM44.9474 26.412C44.8041 26.331 44.6611 26.2518 44.5184 26.1745C44.4477 25.916 44.3687 25.656 44.2813 25.3945C44.4291 25.4725 44.5774 25.5524 44.7262 25.6343C44.9369 25.7505 45.0717 25.9942 45.1216 26.1804C45.1727 26.3685 45.1491 26.5263 44.9474 26.412ZM43.7595 24.0454C43.9061 24.1186 44.0534 24.1937 44.2013 24.2708C44.3887 24.3686 44.5587 24.568 44.6463 24.7994C44.733 25.0298 44.6714 25.1069 44.4911 25.0098C44.3479 24.9329 44.2051 24.8579 44.0631 24.7847C43.9693 24.5391 43.8681 24.2925 43.7595 24.0454ZM45.0743 25.5663C45.1506 25.5428 45.2539 25.4153 45.121 25.0411C44.9138 24.4598 44.4456 23.9227 43.9668 23.6785C43.6373 23.5107 43.3113 23.3527 42.9898 23.2042C43.5616 24.3307 43.9776 25.4516 44.2457 26.5406C44.5374 26.6954 44.831 26.8579 45.1256 27.0282C45.5255 27.2603 45.7239 27.063 45.5835 26.4779C45.4744 26.0379 45.2239 25.7231 45.0743 25.5663Z" fill="#7C1710"/>
</g>
<mask id="mask14" mask-type="alpha" maskUnits="userSpaceOnUse" x="9" y="17" width="31" height="16">
<path fill-rule="evenodd" clip-rule="evenodd" d="M13.9258 21.6526C12.5962 22.9774 11.602 24.61 10.8807 26.3124C10.0418 28.2916 9.8233 30.1463 9.90868 32.2614C11.2159 30.5232 13.1734 29.2505 15.1429 28.3023C14.2787 24.4413 16.761 21.7064 20.3308 22.1496C21.2772 22.2671 22.1903 22.6947 22.7588 23.4539C23.3516 24.2461 23.3048 25.3117 23.4428 26.2406C28.1093 25.6776 35.3928 25.9647 39.2269 26.8971C38.1023 24.429 35.8043 20.0539 29.7148 18.1631C27.988 17.6269 26.2338 17.3554 24.5101 17.3555C20.5888 17.3557 16.8279 18.7611 13.9258 21.6526Z" fill="white"/>
</mask>
<g mask="url(#mask14)">
<path fill-rule="evenodd" clip-rule="evenodd" d="M34.8174 21.3918C35.1528 21.3684 35.5121 21.3694 35.8953 21.3952C36.3903 21.8445 36.8724 22.3085 37.3379 22.7861C37.4127 23.2435 37.4673 23.7065 37.5004 24.1736C37.1079 24.1243 36.7343 24.1011 36.3804 24.1035C36.3115 23.6226 36.2191 23.1449 36.104 22.6722C35.6885 22.2341 35.2588 21.8069 34.8174 21.3918Z" fill="#E5292B"/>
</g>
<mask id="mask15" mask-type="alpha" maskUnits="userSpaceOnUse" x="9" y="17" width="31" height="16">
<path fill-rule="evenodd" clip-rule="evenodd" d="M13.9258 21.6526C12.5962 22.9774 11.602 24.61 10.8807 26.3124C10.0418 28.2916 9.8233 30.1463 9.90868 32.2614C11.2159 30.5232 13.1734 29.2505 15.1429 28.3023C14.2787 24.4413 16.761 21.7064 20.3308 22.1496C21.2772 22.2671 22.1903 22.6947 22.7588 23.4539C23.3516 24.2461 23.3048 25.3117 23.4428 26.2406C28.1093 25.6776 35.3928 25.9647 39.2269 26.8971C38.1023 24.429 35.8043 20.0539 29.7148 18.1631C27.988 17.6269 26.2338 17.3554 24.5101 17.3555C20.5888 17.3557 16.8279 18.7611 13.9258 21.6526Z" fill="white"/>
</mask>
<g mask="url(#mask15)">
<path fill-rule="evenodd" clip-rule="evenodd" d="M37.3379 22.7862C36.8724 22.3086 36.3903 21.8445 35.8953 21.3952C35.5121 21.3694 35.1527 21.3684 34.8174 21.3918C35.2588 21.807 35.6886 22.2341 36.104 22.6722" fill="#FEFEFE"/>
</g>
<mask id="mask16" mask-type="alpha" maskUnits="userSpaceOnUse" x="9" y="17" width="31" height="16">
<path fill-rule="evenodd" clip-rule="evenodd" d="M13.9258 21.6526C12.5962 22.9774 11.602 24.61 10.8807 26.3124C10.0418 28.2916 9.8233 30.1463 9.90868 32.2614C11.2159 30.5232 13.1734 29.2505 15.1429 28.3023C14.2787 24.4413 16.761 21.7064 20.3308 22.1496C21.2772 22.2671 22.1903 22.6947 22.7588 23.4539C23.3516 24.2461 23.3048 25.3117 23.4428 26.2406C28.1093 25.6776 35.3928 25.9647 39.2269 26.8971C38.1023 24.429 35.8043 20.0539 29.7148 18.1631C27.988 17.6269 26.2338 17.3554 24.5101 17.3555C20.5888 17.3557 16.8279 18.7611 13.9258 21.6526Z" fill="white"/>
</mask>
<g mask="url(#mask16)">
<path fill-rule="evenodd" clip-rule="evenodd" d="M33.0236 26.6353C32.835 24.5573 32.5371 21.8634 31.3391 20.0709C30.9125 19.4324 30.4559 18.8011 29.9072 18.2534C29.6506 17.9971 29.4019 17.7356 29.1238 17.5003C29.1036 17.4832 29.0404 17.4627 29.0631 17.449C29.6033 17.1234 32.3883 18.0903 33.0236 18.3704C36.5398 19.9206 40.2273 23.6471 40.5784 27.5647C39.3381 27.4234 38.0477 27.3608 36.8227 27.1261C35.659 26.9033 34.1829 26.8819 33.0236 26.6353Z" fill="#C8C6C5"/>
</g>
<mask id="mask17" mask-type="alpha" maskUnits="userSpaceOnUse" x="9" y="17" width="31" height="16">
<path fill-rule="evenodd" clip-rule="evenodd" d="M9.77002 17.2422H39.3351V32.3785H9.77002V17.2422Z" fill="white"/>
</mask>
<g mask="url(#mask17)">
<path fill-rule="evenodd" clip-rule="evenodd" d="M15.1977 28.367C15.2481 28.3521 15.2751 28.3188 15.2631 28.2864H15.2168C14.8116 26.4661 15.1567 24.8999 16.0149 23.8093C16.9487 22.6229 18.4897 22.0032 20.3198 22.2325C20.7821 22.2903 21.2363 22.4239 21.6441 22.6359C22.0498 22.8468 22.4097 23.1353 22.6856 23.5047C22.9164 23.8137 23.0459 24.1656 23.1279 24.5342C23.2533 25.0977 23.2688 25.6997 23.3503 26.2529C23.3575 26.3016 23.4038 26.3356 23.4545 26.3296C25.7069 26.0602 28.5698 25.9903 31.3588 26.0947C34.3348 26.2061 37.2266 26.516 39.2007 26.9977C39.2408 27.0075 39.283 26.9944 39.3095 26.9639C39.3363 26.9334 39.3426 26.891 39.3259 26.8544C38.6627 25.3963 37.592 23.277 35.5823 21.3896C34.1662 20.0597 32.2843 18.8446 29.7501 18.0567C26.9075 17.1731 23.9889 17.0025 21.2553 17.5739C18.5097 18.1479 15.95 19.4703 13.8401 21.5716C13.1689 22.24 12.5823 22.9862 12.0724 23.7801C11.5643 24.5718 11.1323 25.4109 10.7691 26.2678C10.346 27.2652 10.0793 28.2316 9.92878 29.2148C9.77828 30.1985 9.74428 31.1991 9.78721 32.2655C9.78914 32.3156 9.82387 32.3589 9.87355 32.3734C9.92324 32.3881 9.97678 32.3706 10.0074 32.33C10.6545 31.4697 11.463 30.7251 12.3532 30.078C13.2458 29.4292 14.2204 28.8785 15.1977 28.408V28.367ZM39.039 26.745C38.3765 25.3158 37.3256 23.3252 35.4263 21.5452C34.0303 20.237 32.1758 19.0424 29.6798 18.2687C26.877 17.3993 23.9999 17.2315 21.3051 17.7964C18.6043 18.3624 16.0868 19.6646 14.0119 21.7328C13.353 22.3895 12.7773 23.1227 12.2768 23.9026C11.7759 24.6836 11.3504 25.5113 10.9925 26.3563C10.5776 27.3355 10.3162 28.284 10.1688 29.2492C10.0364 30.1159 9.99639 30.9961 10.0198 31.9238C10.6423 31.1566 11.3904 30.4825 12.2061 29.8891C13.0978 29.2404 14.0705 28.6881 15.0471 28.2155C14.6614 26.3889 15.022 24.8173 15.8857 23.7146C16.8504 22.4825 18.4444 21.8323 20.3423 22.0658C20.8259 22.1253 21.301 22.2642 21.7281 22.4848C22.1582 22.7072 22.5392 23.0122 22.832 23.4025C23.0785 23.7309 23.2189 24.1047 23.3072 24.4971C23.428 25.0345 23.45 25.6071 23.523 26.1396C25.7697 25.8734 28.6041 25.7998 31.3666 25.8984C34.2534 26.0014 37.0615 26.2924 39.039 26.745Z" fill="black"/>
</g>
<path fill-rule="evenodd" clip-rule="evenodd" d="M33.8906 26.0641C33.7796 24.4037 33.317 22.4019 32.3714 20.7536C31.7293 19.6348 30.8639 18.681 29.7514 18.0989C29.7149 18.0795 29.6691 18.0923 29.6489 18.1275C29.6288 18.1627 29.6421 18.2072 29.6785 18.2266C30.7511 18.8113 31.5682 19.7585 32.1806 20.8545C33.0908 22.4837 33.5445 24.447 33.6451 26.0788C33.6494 26.1442 33.7078 26.1941 33.7755 26.1899C33.8433 26.186 33.8949 26.1296 33.8906 26.0641Z" fill="black"/>
<path fill-rule="evenodd" clip-rule="evenodd" d="M31.4877 26C33.7396 28.7836 38.0445 28.4478 41.2349 28.051C42.0535 27.9494 43.3829 27.7058 44.2097 27.6888C42.4107 27.6203 40.8951 27.2847 39.2271 26.8953C36.9059 26.3533 34.1004 26.0226 31.4877 26Z" fill="#FEFEFE"/>
<mask id="mask18" mask-type="alpha" maskUnits="userSpaceOnUse" x="31" y="26" width="14" height="3">
<path fill-rule="evenodd" clip-rule="evenodd" d="M41.2349 28.051C42.0535 27.9493 43.3829 27.7058 44.2097 27.6888C42.4107 27.6203 40.8951 27.2847 39.2271 26.8953C36.9059 26.3533 34.1004 26.0226 31.4877 26C33.7396 28.7836 38.0445 28.4478 41.2349 28.051Z" fill="white"/>
</mask>
<g mask="url(#mask18)">
<path fill-rule="evenodd" clip-rule="evenodd" d="M42.0638 28.4984C40.0487 28.1558 34.8015 27.0412 33.0059 26.0389C35.3873 25.3902 44.2719 25.3983 45.9356 27.8646C44.5729 27.6744 43.3947 28.1468 42.0638 28.4984Z" fill="#C8C6C5"/>
</g>
<path fill-rule="evenodd" clip-rule="evenodd" d="M31.5854 25.9294C32.8371 25.9394 34.1311 26.0191 35.3935 26.159C36.7455 26.3086 38.0615 26.5272 39.2512 26.8012C40.2623 27.0347 41.2174 27.2482 42.2137 27.3948C42.8548 27.4891 43.5127 27.556 44.2141 27.5819C44.2751 27.5842 44.3229 27.6327 44.3224 27.6917C44.3219 27.7504 44.2729 27.7982 44.2122 27.7993C43.9556 27.8049 43.6502 27.8329 43.327 27.8713C42.6121 27.9566 41.8109 28.0939 41.2499 28.1643C39.3306 28.404 37.0104 28.6205 34.9697 28.1596C33.5778 27.8452 32.3157 27.2167 31.391 26.0748H31.4284C31.4105 26.0387 31.4074 25.99 31.4202 25.949C31.433 25.9082 31.4595 25.8824 31.4884 25.8828V25.9287L31.5842 25.9294L31.5847 25.9285L31.5854 25.9294ZM31.7101 26.0781C32.5852 27.0823 33.7491 27.6427 35.0247 27.9324C37.0372 28.3896 39.3263 28.1755 41.2201 27.9413C41.6829 27.8842 42.3093 27.7821 42.9159 27.7012C42.6672 27.6733 42.4224 27.6406 42.18 27.6041C41.1786 27.4526 40.2189 27.2326 39.203 26.9928C38.0222 26.7134 36.7155 26.4885 35.3723 26.331C34.1592 26.1886 32.9163 26.1007 31.7101 26.0781Z" fill="black"/>
<path fill-rule="evenodd" clip-rule="evenodd" d="M16.5774 26.3477C16.759 26.3477 16.9066 26.5001 16.9066 26.6877C16.9066 26.8755 16.759 27.0279 16.5774 27.0279C16.3955 27.0279 16.2482 26.8755 16.2482 26.6877C16.2482 26.5001 16.3955 26.3477 16.5774 26.3477Z" fill="#8F1913"/>
<path fill-rule="evenodd" clip-rule="evenodd" d="M16.5774 26.3477C16.759 26.3477 16.9066 26.5001 16.9066 26.6877C16.9066 26.8755 16.759 27.0279 16.5774 27.0279C16.3955 27.0279 16.2482 26.8755 16.2482 26.6877C16.2482 26.5001 16.3955 26.3477 16.5774 26.3477Z" stroke="black" stroke-width="0.242029" stroke-linecap="round" stroke-linejoin="round"/>
<path fill-rule="evenodd" clip-rule="evenodd" d="M18.1335 25.8633C18.3154 25.8633 18.4628 26.0157 18.4628 26.2035C18.4628 26.3913 18.3154 26.5438 18.1335 26.5438C17.9519 26.5438 17.8043 26.3913 17.8043 26.2035C17.8043 26.0157 17.9519 25.8633 18.1335 25.8633Z" fill="#8F1913"/>
<path fill-rule="evenodd" clip-rule="evenodd" d="M18.1335 25.8633C18.3154 25.8633 18.4628 26.0157 18.4628 26.2035C18.4628 26.3913 18.3154 26.5438 18.1335 26.5438C17.9519 26.5438 17.8043 26.3913 17.8043 26.2035C17.8043 26.0157 17.9519 25.8633 18.1335 25.8633Z" stroke="black" stroke-width="0.242029" stroke-linecap="round" stroke-linejoin="round"/>
<path fill-rule="evenodd" clip-rule="evenodd" d="M19.7134 25.4727C19.895 25.4727 20.0426 25.6251 20.0426 25.8127C20.0426 26.0005 19.895 26.1529 19.7134 26.1529C19.5315 26.1529 19.3839 26.0005 19.3839 25.8127C19.3839 25.6251 19.5315 25.4727 19.7134 25.4727Z" fill="#8F1913"/>
<path fill-rule="evenodd" clip-rule="evenodd" d="M19.7134 25.4727C19.895 25.4727 20.0426 25.6251 20.0426 25.8127C20.0426 26.0005 19.895 26.1529 19.7134 26.1529C19.5315 26.1529 19.3839 26.0005 19.3839 25.8127C19.3839 25.6251 19.5315 25.4727 19.7134 25.4727Z" stroke="black" stroke-width="0.242029" stroke-linecap="round" stroke-linejoin="round"/>
</svg>
