<svg width="113" height="41" viewBox="0 0 113 41" fill="none" xmlns="http://www.w3.org/2000/svg">
<path d="M47.082 30.2861C47.082 31.1748 46.7607 31.8721 46.1182 32.3779C45.4756 32.8838 44.5892 33.1367 43.459 33.1367C42.3288 33.1367 41.4036 32.9613 40.6836 32.6104V31.0654C41.1393 31.2796 41.6224 31.4482 42.1328 31.5713C42.6478 31.6943 43.1263 31.7559 43.5684 31.7559C44.2155 31.7559 44.6917 31.6328 44.9971 31.3867C45.307 31.1406 45.4619 30.8102 45.4619 30.3955C45.4619 30.0218 45.3206 29.7051 45.0381 29.4453C44.7555 29.1855 44.1722 28.8779 43.2881 28.5225C42.3766 28.1533 41.734 27.7318 41.3604 27.2578C40.9867 26.7839 40.7998 26.2142 40.7998 25.5488C40.7998 24.7148 41.096 24.0586 41.6885 23.5801C42.2809 23.1016 43.0762 22.8623 44.0742 22.8623C45.0312 22.8623 45.9837 23.0719 46.9316 23.4912L46.4121 24.8242C45.5234 24.4505 44.7305 24.2637 44.0332 24.2637C43.5046 24.2637 43.1035 24.3799 42.8301 24.6123C42.5566 24.8402 42.4199 25.1432 42.4199 25.5215C42.4199 25.7812 42.4746 26.0046 42.584 26.1914C42.6934 26.3737 42.8734 26.5469 43.124 26.7109C43.3747 26.875 43.8258 27.0915 44.4775 27.3604C45.2113 27.6657 45.749 27.9505 46.0908 28.2148C46.4326 28.4792 46.6833 28.7777 46.8428 29.1104C47.0023 29.443 47.082 29.835 47.082 30.2861ZM54.1777 33L53.9521 32.0088H53.8701C53.6468 32.3597 53.3278 32.6354 52.9131 32.8359C52.5029 33.0365 52.0335 33.1367 51.5049 33.1367C50.5889 33.1367 49.9053 32.9089 49.4541 32.4531C49.0029 31.9974 48.7773 31.307 48.7773 30.3818V25.4395H50.3975V30.1016C50.3975 30.6803 50.516 31.1156 50.7529 31.4072C50.9899 31.6943 51.3613 31.8379 51.8672 31.8379C52.5417 31.8379 53.0361 31.6374 53.3506 31.2363C53.6696 30.8307 53.8291 30.154 53.8291 29.2061V25.4395H55.4424V33H54.1777ZM64.1172 25.4395V26.3213L62.8252 26.5605C62.9437 26.7201 63.0417 26.916 63.1191 27.1484C63.1966 27.3809 63.2354 27.627 63.2354 27.8867C63.2354 28.666 62.9665 29.279 62.4287 29.7256C61.891 30.1722 61.1504 30.3955 60.207 30.3955C59.9655 30.3955 59.7467 30.3773 59.5508 30.3408C59.2044 30.555 59.0312 30.8057 59.0312 31.0928C59.0312 31.266 59.111 31.3958 59.2705 31.4824C59.4346 31.569 59.7331 31.6123 60.166 31.6123H61.4854C62.3193 31.6123 62.9528 31.79 63.3857 32.1455C63.8187 32.501 64.0352 33.0137 64.0352 33.6836C64.0352 34.5404 63.682 35.2012 62.9756 35.666C62.2692 36.1309 61.2484 36.3633 59.9131 36.3633C58.8831 36.3633 58.097 36.181 57.5547 35.8164C57.0124 35.4518 56.7412 34.9323 56.7412 34.2578C56.7412 33.793 56.887 33.401 57.1787 33.082C57.4749 32.7676 57.8874 32.5488 58.416 32.4258C58.2018 32.3346 58.0241 32.1888 57.8828 31.9883C57.7461 31.7832 57.6777 31.569 57.6777 31.3457C57.6777 31.0632 57.7575 30.8239 57.917 30.6279C58.0765 30.432 58.3135 30.2383 58.6279 30.0469C58.236 29.8783 57.917 29.6048 57.6709 29.2266C57.4294 28.8438 57.3086 28.3971 57.3086 27.8867C57.3086 27.0664 57.5661 26.4307 58.0811 25.9795C58.6006 25.5283 59.3389 25.3027 60.2959 25.3027C60.5101 25.3027 60.7334 25.3187 60.9658 25.3506C61.2028 25.3779 61.3805 25.4076 61.499 25.4395H64.1172ZM58.1768 34.1758C58.1768 34.5221 58.3317 34.7887 58.6416 34.9756C58.9561 35.1624 59.3958 35.2559 59.9609 35.2559C60.8359 35.2559 61.4876 35.1305 61.916 34.8799C62.3444 34.6292 62.5586 34.2965 62.5586 33.8818C62.5586 33.5537 62.4401 33.319 62.2031 33.1777C61.9707 33.041 61.5355 32.9727 60.8975 32.9727H59.6807C59.2204 32.9727 58.8535 33.0798 58.5801 33.2939C58.3112 33.5127 58.1768 33.8066 58.1768 34.1758ZM58.8672 27.8867C58.8672 28.3607 58.988 28.7253 59.2295 28.9805C59.4756 29.2357 59.8265 29.3633 60.2822 29.3633C61.2119 29.3633 61.6768 28.8665 61.6768 27.873C61.6768 27.3809 61.5605 27.0026 61.3281 26.7383C61.1003 26.4694 60.7516 26.335 60.2822 26.335C59.8174 26.335 59.4642 26.4671 59.2227 26.7314C58.9857 26.9958 58.8672 27.3809 58.8672 27.8867ZM71.9102 25.4395V26.3213L70.6182 26.5605C70.7367 26.7201 70.8346 26.916 70.9121 27.1484C70.9896 27.3809 71.0283 27.627 71.0283 27.8867C71.0283 28.666 70.7594 29.279 70.2217 29.7256C69.6839 30.1722 68.9434 30.3955 68 30.3955C67.7585 30.3955 67.5397 30.3773 67.3438 30.3408C66.9974 30.555 66.8242 30.8057 66.8242 31.0928C66.8242 31.266 66.904 31.3958 67.0635 31.4824C67.2275 31.569 67.526 31.6123 67.959 31.6123H69.2783C70.1123 31.6123 70.7458 31.79 71.1787 32.1455C71.6117 32.501 71.8281 33.0137 71.8281 33.6836C71.8281 34.5404 71.4749 35.2012 70.7686 35.666C70.0622 36.1309 69.0413 36.3633 67.7061 36.3633C66.6761 36.3633 65.89 36.181 65.3477 35.8164C64.8053 35.4518 64.5342 34.9323 64.5342 34.2578C64.5342 33.793 64.68 33.401 64.9717 33.082C65.2679 32.7676 65.6803 32.5488 66.209 32.4258C65.9948 32.3346 65.8171 32.1888 65.6758 31.9883C65.5391 31.7832 65.4707 31.569 65.4707 31.3457C65.4707 31.0632 65.5505 30.8239 65.71 30.6279C65.8695 30.432 66.1064 30.2383 66.4209 30.0469C66.029 29.8783 65.71 29.6048 65.4639 29.2266C65.2223 28.8438 65.1016 28.3971 65.1016 27.8867C65.1016 27.0664 65.359 26.4307 65.874 25.9795C66.3936 25.5283 67.1318 25.3027 68.0889 25.3027C68.3031 25.3027 68.5264 25.3187 68.7588 25.3506C68.9958 25.3779 69.1735 25.4076 69.292 25.4395H71.9102ZM65.9697 34.1758C65.9697 34.5221 66.1247 34.7887 66.4346 34.9756C66.749 35.1624 67.1888 35.2559 67.7539 35.2559C68.6289 35.2559 69.2806 35.1305 69.709 34.8799C70.1374 34.6292 70.3516 34.2965 70.3516 33.8818C70.3516 33.5537 70.2331 33.319 69.9961 33.1777C69.7637 33.041 69.3285 32.9727 68.6904 32.9727H67.4736C67.0133 32.9727 66.6465 33.0798 66.373 33.2939C66.1042 33.5127 65.9697 33.8066 65.9697 34.1758ZM66.6602 27.8867C66.6602 28.3607 66.7809 28.7253 67.0225 28.9805C67.2686 29.2357 67.6195 29.3633 68.0752 29.3633C69.0049 29.3633 69.4697 28.8665 69.4697 27.873C69.4697 27.3809 69.3535 27.0026 69.1211 26.7383C68.8932 26.4694 68.5446 26.335 68.0752 26.335C67.6104 26.335 67.2572 26.4671 67.0156 26.7314C66.7786 26.9958 66.6602 27.3809 66.6602 27.8867ZM76.6201 33.1367C75.4443 33.1367 74.5238 32.7949 73.8584 32.1113C73.1976 31.4232 72.8672 30.4775 72.8672 29.2744C72.8672 28.0394 73.1748 27.0687 73.79 26.3623C74.4053 25.6559 75.2507 25.3027 76.3262 25.3027C77.3242 25.3027 78.1126 25.6058 78.6914 26.2119C79.2702 26.818 79.5596 27.652 79.5596 28.7139V29.582H74.5215C74.5443 30.3158 74.7425 30.8809 75.1162 31.2773C75.4899 31.6693 76.0163 31.8652 76.6953 31.8652C77.1419 31.8652 77.5566 31.8242 77.9395 31.7422C78.3268 31.6556 78.7415 31.5143 79.1836 31.3184V32.624C78.7917 32.8109 78.3952 32.943 77.9941 33.0205C77.5931 33.098 77.1351 33.1367 76.6201 33.1367ZM76.3262 26.5195C75.8158 26.5195 75.4056 26.6813 75.0957 27.0049C74.7904 27.3285 74.6081 27.8001 74.5488 28.4199H77.9805C77.9714 27.7956 77.821 27.3239 77.5293 27.0049C77.2376 26.6813 76.8366 26.5195 76.3262 26.5195ZM86.4639 30.8467C86.4639 31.585 86.195 32.1523 85.6572 32.5488C85.1195 32.9408 84.3493 33.1367 83.3467 33.1367C82.3395 33.1367 81.5306 32.984 80.9199 32.6787V31.291C81.8086 31.7012 82.6357 31.9062 83.4014 31.9062C84.3903 31.9062 84.8848 31.6077 84.8848 31.0107C84.8848 30.8193 84.8301 30.6598 84.7207 30.5322C84.6113 30.4046 84.4313 30.2725 84.1807 30.1357C83.93 29.999 83.5814 29.8441 83.1348 29.6709C82.2643 29.3337 81.6742 28.9964 81.3643 28.6592C81.0589 28.3219 80.9062 27.8844 80.9062 27.3467C80.9062 26.6995 81.166 26.1982 81.6855 25.8428C82.2096 25.4827 82.9206 25.3027 83.8184 25.3027C84.707 25.3027 85.5479 25.4827 86.3408 25.8428L85.8213 27.0527C85.0055 26.7155 84.3197 26.5469 83.7637 26.5469C82.916 26.5469 82.4922 26.7884 82.4922 27.2715C82.4922 27.5085 82.6016 27.709 82.8203 27.873C83.0436 28.0371 83.5267 28.2627 84.2695 28.5498C84.8939 28.7913 85.3473 29.0124 85.6299 29.2129C85.9124 29.4134 86.1221 29.6458 86.2588 29.9102C86.3955 30.1699 86.4639 30.4821 86.4639 30.8467ZM91.0234 31.8379C91.4154 31.8379 91.8073 31.7764 92.1992 31.6533V32.8633C92.0215 32.9408 91.7913 33.0046 91.5088 33.0547C91.2308 33.1094 90.9414 33.1367 90.6406 33.1367C89.1185 33.1367 88.3574 32.3346 88.3574 30.7305V26.6562H87.3252V25.9453L88.4326 25.3574L88.9795 23.7578H89.9707V25.4395H92.124V26.6562H89.9707V30.7031C89.9707 31.0905 90.0664 31.3776 90.2578 31.5645C90.4538 31.7467 90.709 31.8379 91.0234 31.8379ZM97.0186 33.1367C95.8428 33.1367 94.9222 32.7949 94.2568 32.1113C93.596 31.4232 93.2656 30.4775 93.2656 29.2744C93.2656 28.0394 93.5732 27.0687 94.1885 26.3623C94.8037 25.6559 95.6491 25.3027 96.7246 25.3027C97.7227 25.3027 98.5111 25.6058 99.0898 26.2119C99.6686 26.818 99.958 27.652 99.958 28.7139V29.582H94.9199C94.9427 30.3158 95.141 30.8809 95.5146 31.2773C95.8883 31.6693 96.4147 31.8652 97.0938 31.8652C97.5404 31.8652 97.9551 31.8242 98.3379 31.7422C98.7253 31.6556 99.14 31.5143 99.582 31.3184V32.624C99.1901 32.8109 98.7936 32.943 98.3926 33.0205C97.9915 33.098 97.5335 33.1367 97.0186 33.1367ZM96.7246 26.5195C96.2142 26.5195 95.804 26.6813 95.4941 27.0049C95.1888 27.3285 95.0065 27.8001 94.9473 28.4199H98.3789C98.3698 27.7956 98.2194 27.3239 97.9277 27.0049C97.6361 26.6813 97.235 26.5195 96.7246 26.5195ZM104.333 33.1367C103.39 33.1367 102.654 32.7949 102.125 32.1113C101.596 31.4277 101.332 30.4684 101.332 29.2334C101.332 27.9938 101.599 27.0299 102.132 26.3418C102.67 25.6491 103.412 25.3027 104.36 25.3027C105.354 25.3027 106.11 25.6696 106.63 26.4033H106.712C106.634 25.861 106.596 25.4326 106.596 25.1182V22.3633H108.209V33H106.951L106.671 32.0088H106.596C106.081 32.7607 105.326 33.1367 104.333 33.1367ZM104.764 31.8379C105.424 31.8379 105.905 31.6533 106.206 31.2842C106.507 30.9105 106.662 30.3066 106.671 29.4727V29.2471C106.671 28.2946 106.516 27.6178 106.206 27.2168C105.896 26.8158 105.411 26.6152 104.75 26.6152C104.185 26.6152 103.75 26.8454 103.444 27.3057C103.139 27.7614 102.986 28.4131 102.986 29.2607C102.986 30.0993 103.134 30.7396 103.431 31.1816C103.727 31.6191 104.171 31.8379 104.764 31.8379Z" fill="#333739"/>
<path d="M113 40H35.8528L1 1" stroke="#333739"/>
</svg>
