<svg width="204" height="181" viewBox="0 0 204 181" fill="none" xmlns="http://www.w3.org/2000/svg">
<path opacity="0.1" d="M148.423 179.724C117.729 179.724 92.8463 154.718 92.8463 123.872C92.8463 93.0255 117.729 68.0195 148.423 68.0195C179.117 68.0195 204 93.0255 204 123.872C204 154.718 179.117 179.724 148.423 179.724Z" fill="#333739"/>
<path opacity="0.1" d="M55.5793 111.705C24.885 111.705 0.00244141 86.6989 0.00244141 55.8524C0.00244141 25.006 24.885 0 55.5793 0C86.2735 0 111.156 25.006 111.156 55.8524C111.156 86.6989 86.2735 111.705 55.5793 111.705Z" fill="#333739"/>
<path opacity="0.3" fill-rule="evenodd" clip-rule="evenodd" d="M149.531 172.724C149.531 172.724 179.563 172.686 179.5 173.58C179.312 176.553 155.698 174.815 153.767 175.709C152.815 176.15 153.868 177.107 152.188 177.724C145.52 180.181 122.294 177.951 114.009 177.964C91.4345 178.014 85.7064 179.123 83.0867 179.261C75.7291 179.664 54.9098 179.5 49.0563 179.425C37.0108 179.261 4.59729 179.916 5.28667 177.409C5.58749 176.276 29.2945 172.801 34.5965 172.499C39.1339 172.234 49.6579 171.766 53.7315 170.847C59.4221 169.562 65.6767 168.781 71.8185 168.29C97.5638 166.249 123.961 171.048 149.531 172.724Z" fill="#333739"/>
<path d="M70.7108 174.51H126.538C132.204 174.51 136.791 169.9 136.791 164.206V25.7843C136.791 20.0908 132.204 15.4805 126.538 15.4805H70.6983C65.0328 15.4805 60.4453 20.0908 60.4453 25.7843V164.206C60.4453 169.9 65.0454 174.51 70.7108 174.51Z" fill="white" stroke="#333739" stroke-miterlimit="10"/>
<path d="M85.9023 19.7389H110.457C111.535 19.7389 112.412 18.8572 112.412 17.7739V15.4688H83.784V17.5975C83.784 18.7816 84.7366 19.7389 85.9023 19.7389Z" fill="#333739"/>
<path opacity="0.2" d="M93.5858 121.278H148.774C151.632 121.278 153.963 118.948 153.963 116.063V32.5743C153.963 29.7023 151.644 27.3594 148.774 27.3594H93.5733C90.7154 27.3594 88.3841 29.6897 88.3841 32.5743V116.063C88.3966 118.948 90.7154 121.278 93.5858 121.278Z" fill="#333739"/>
<path d="M119.444 70.5414H144.011C146.18 70.5414 147.934 68.7779 147.934 66.5988V36.6067C147.934 34.4276 146.18 32.6641 144.011 32.6641H119.444C117.276 32.6641 115.521 34.4276 115.521 36.6067V66.5988C115.521 68.7779 117.276 70.5414 119.444 70.5414Z" fill="white"/>
<path d="M112.325 37.2117C111.598 37.2117 111.008 36.6195 111.008 35.889C111.008 35.1586 111.598 34.5664 112.325 34.5664C113.051 34.5664 113.641 35.1586 113.641 35.889C113.641 36.6195 113.051 37.2117 112.325 37.2117Z" fill="white"/>
<path d="M107.048 37.2117C106.321 37.2117 105.731 36.6195 105.731 35.889C105.731 35.1586 106.321 34.5664 107.048 34.5664C107.774 34.5664 108.364 35.1586 108.364 35.889C108.364 36.6195 107.774 37.2117 107.048 37.2117Z" fill="white"/>
<path d="M100.643 80.7565H149.25C150.19 80.7565 150.943 79.9881 150.943 79.056C150.943 78.1113 150.178 77.3555 149.25 77.3555H100.643C99.7025 77.3555 98.9504 78.1238 98.9504 79.056C98.9504 80.0007 99.7025 80.7565 100.643 80.7565Z" fill="white"/>
<path d="M94.9896 90.6081H143.597C144.537 90.6081 145.29 89.8397 145.29 88.9075C145.29 87.9628 144.525 87.207 143.597 87.207H94.9896C94.0495 87.207 93.2975 87.9754 93.2975 88.9075C93.2975 89.8397 94.0495 90.6081 94.9896 90.6081Z" fill="white"/>
<path d="M99.5145 99.6901H148.122C149.062 99.6901 149.814 98.9217 149.814 97.9896C149.814 97.0448 149.05 96.2891 148.122 96.2891H99.5145C98.5745 96.2891 97.8224 97.0574 97.8224 97.9896C97.8224 98.9343 98.5745 99.6901 99.5145 99.6901Z" fill="white"/>
<path d="M61.6234 133.609H86.1153C88.2963 133.609 90.0762 131.833 90.0762 129.629C90.0762 127.437 88.3088 125.648 86.1153 125.648H61.6234C59.4425 125.648 57.6626 127.425 57.6626 129.629C57.6751 131.833 59.4425 133.609 61.6234 133.609Z" fill="#333739" stroke="white" stroke-width="0.5" stroke-miterlimit="10"/>
<path d="M70.8737 160.277H124.758C126.939 160.277 128.719 158.501 128.719 156.297C128.719 154.105 126.952 152.316 124.758 152.316H70.8737C68.6927 152.316 66.9129 154.093 66.9129 156.297C66.9254 158.501 68.6927 160.277 70.8737 160.277Z" fill="#333739" stroke="white" stroke-width="0.5" stroke-miterlimit="10"/>
<path d="M127.14 61.3334C127.102 61.346 130.186 63.1347 132.592 62.5805C134.849 62.064 136.39 60.1494 136.353 60.1368C135.413 59.9101 135.25 57.6679 135.513 52.0625L135.087 52.1255L127.842 53.234C127.842 53.234 127.905 55.5139 127.817 57.6553C127.742 59.4566 127.566 61.1571 127.14 61.3334Z" fill="#FFDDC5"/>
<path opacity="0.1" d="M127.842 53.8606C127.842 53.8606 127.905 56.0902 127.817 58.1686C131.74 58.2316 133.971 54.7298 134.911 52.7773L127.842 53.8606Z" fill="#333739"/>
<path d="M126.902 56.1164C126.902 56.1164 136.177 56.6832 136.44 50.8763C136.704 45.0693 138.082 41.2274 132.166 40.6228C126.25 40.0182 125.009 42.1847 124.445 44.0994C123.894 46.0015 124.495 55.8141 126.902 56.1164Z" fill="#FFDDC5"/>
<path d="M123.919 37.271C121.312 40.3824 122.227 42.2466 124.997 42.3348C127.767 42.423 131.815 42.1459 131.815 42.1459C131.815 42.1459 133.106 51.7065 133.457 49.351C133.796 46.9955 132.567 46.668 133.658 45.0178C134.748 43.3677 135.901 44.4006 135.914 45.5847C135.926 46.7813 136.415 52.1096 136.415 52.1096C136.415 52.1096 138.032 46.3027 137.619 42.8261C137.205 39.3621 135.601 36.5027 132.053 37.2207C128.506 37.9387 128.13 39.1101 125.962 38.7826C123.781 38.4677 123.919 37.271 123.919 37.271Z" fill="#333739"/>
<path d="M136.365 60.1367C130.599 64.5958 127.591 60.4264 127.591 60.4264L118.479 62.6812L115.533 67.9969C116.285 71.4105 120.61 72.1663 120.81 72.1663C121.562 72.1663 140.263 72.4308 143.911 71.927C147.558 71.4105 148.035 67.7324 148.035 67.7324L145.678 63.0843L136.365 60.1367Z" fill="#FF6666"/>
<path opacity="0.1" d="M61.2099 121.279H69.4825C72.0269 121.279 74.0825 119.214 74.0825 116.657V32.6385C74.0825 30.0814 72.0269 28.0156 69.4825 28.0156H61.2099V121.279Z" fill="#333739"/>
<path d="M61.2098 71.6753H61.6485C64.9826 71.6753 67.6775 68.967 67.6775 65.6164V38.0051C67.6775 35.2717 65.4715 33.0547 62.7515 33.0547H61.2098V71.6753Z" fill="white"/>
<path d="M53.351 50.9272V47.2869C53.351 47.2869 55.8077 46.9342 56.3717 46.3673C56.8355 45.9013 57.6627 43.8228 57.9636 43.0545C58.0388 42.8781 58.0764 42.7648 58.0764 42.7648L58.4524 38.2049V35.2321C58.4524 35.2321 58.0764 34.0228 57.7003 33.2671C57.3243 32.5113 56.9483 31.7429 56.1837 30.9871C55.4316 30.2313 54.291 29.8534 54.291 29.8534C54.291 29.8534 52.7744 29.0977 51.6463 29.0977C50.5182 29.0977 50.5182 29.0977 49.3776 29.4755C48.2495 29.8534 47.1089 30.6092 47.1089 30.6092C47.1089 30.6092 46.3568 30.9871 45.9808 31.365C45.6048 31.7429 44.8527 32.8892 44.4641 33.645C44.0881 34.4007 44.0881 35.1691 44.0881 35.547C44.0881 35.9249 44.0881 37.4869 44.0881 38.0285C44.0881 38.5702 44.8402 40.4722 45.2162 41.2406C45.5922 42.009 45.68 42.5128 45.9683 43.1426C46.3192 43.911 46.7203 44.6668 46.7203 44.6668C46.7203 44.6668 47.0964 45.4226 47.0964 45.8005C47.0964 46.1784 47.0964 48.8362 47.0964 48.8362V50.3604V51.4941H53.4011L53.351 50.9272Z" fill="#FFDDC5"/>
<path d="M51.2702 45.3217L46.3567 45.4224L44.4641 40.4847C44.4641 40.4847 42.7594 36.5042 42.5714 35.5469C42.3834 34.6021 42.3834 34.0353 42.5714 32.8008C42.7594 31.5664 43.3235 30.9996 43.3235 30.9996C43.3235 30.9996 44.2635 30.0548 45.5922 29.4754C46.9082 28.9086 46.9082 28.9086 47.4848 28.7196C48.0614 28.5307 50.1295 28.3417 50.1295 28.3417H52.8495H54.88L55.9705 28.1528L56.5345 27.9638L56.9106 27.5859L57.2866 27.9638L57.6626 28.7196L58.0386 29.4754C58.0386 29.4754 58.4147 30.269 58.4147 30.2564C58.4147 30.2438 58.4147 31.5538 58.4147 31.5538C58.4147 31.5538 58.2267 31.9569 58.0386 32.5237C57.8506 33.0906 57.0986 33.0906 56.9106 33.2795C56.7226 33.4685 55.7825 33.6574 55.7825 33.6574L54.6544 34.0353H54.2784V34.7911L54.8424 35.3579L55.2435 35.8744L55.607 36.4916L55.419 37.8142V38.1921C55.419 38.1921 53.7519 36.479 53.3509 36.479C52.9498 36.479 52.5863 36.8569 52.3857 37.0458C52.1977 37.2348 51.8217 37.9906 52.0097 38.57C52.1977 39.1494 52.8495 40.2831 52.8495 40.2831L53.1503 40.8499L51.2576 45.4098" fill="#333739"/>
<path d="M40.8417 90.5312H62.338C62.338 90.5312 62.7516 123.546 62.7516 124.689C62.7516 125.832 61.9995 136.46 61.6235 137.892L58.6027 165.743H50.1045C50.1045 165.743 50.8566 130.003 50.1045 119.098C50.0293 118.068 49.9667 117.088 49.9165 116.146C49.3525 107.151 49.3525 102.441 49.3525 102.441L49.9667 117.076L39.1496 165.592L30.2628 165.731C30.2628 165.731 32.7321 148.934 34.6247 134.01L40.8417 90.5312Z" fill="#333739"/>
<path d="M49.34 102.441L49.152 113.496L49.9667 117.077L49.34 102.441Z" fill="#333739"/>
<path d="M69.0688 63.9774L66.5494 69.5954C66.4241 69.8725 66.5244 70.1874 66.7751 70.3512L73.0422 74.5458C73.3305 74.7473 73.7316 74.6591 73.9321 74.3694L91.9438 47.7532C92.1318 47.4635 92.0441 47.073 91.7433 46.8967L89.8506 45.6622C89.6375 45.5363 89.5122 45.2969 89.5498 45.0576L89.7378 43.6342C89.7879 43.2689 89.4871 42.9414 89.1111 42.9414C88.8353 42.9414 88.5846 43.1178 88.5094 43.3823L87.9329 45.3599C87.9203 45.4229 87.8827 45.4733 87.8577 45.5363L86.7672 47.136C86.6794 47.2746 86.6418 47.4383 86.6794 47.6021L86.8925 48.6602C86.9301 48.8365 86.8925 49.0129 86.7797 49.1514L73.9822 65.9172C73.7692 66.1944 73.3681 66.2447 73.0923 66.0432L70.059 63.7507C69.7081 63.4861 69.2318 63.6121 69.0688 63.9774Z" fill="#FFDDC5"/>
<path d="M34.4743 63.9882L39.4504 64.9077C39.7637 64.9707 39.9643 65.2856 39.8891 65.6005L37.9839 73.637C37.9212 73.9141 38.0716 74.2038 38.3474 74.3046L63.9173 83.2984C63.9799 83.3236 64.0426 83.3362 64.1053 83.3362H65.7849C65.8099 83.3362 65.835 83.3362 65.8601 83.3362L69.8585 83.8905C70.247 83.9409 70.4601 84.3565 70.2847 84.7092C70.1844 84.8982 69.9964 85.0242 69.7833 85.0242H68.4421C68.1789 85.0242 67.9533 85.2005 67.8906 85.4524L67.5396 86.8632C67.4644 87.1781 67.1511 87.3545 66.8377 87.2663L32.2181 77.5545C31.9424 77.4789 31.7669 77.2018 31.817 76.9247L33.81 64.4668C33.8727 64.1393 34.1609 63.9378 34.4743 63.9882Z" fill="#FFDDC5"/>
<path d="M45.7301 50.7646V52.2888H57.061C57.061 52.2888 56.309 50.7646 54.4163 50.3867H45.7301V50.7646Z" fill="#FF6666"/>
<path d="M40.027 71.2223C41.1551 66.6624 41.0047 67.645 41.0047 67.645C41.0047 67.645 36.3419 106.014 36.6929 107.223C37.0438 108.42 64.9701 108.067 65.7723 107.223C66.5745 106.379 64.2557 55.9807 64.2557 55.9807C64.2557 55.9807 64.0426 52.4663 57.0485 52.2773H45.7175C45.7175 52.2773 40.4281 52.2773 39.3 53.0331C39.3 53.0331 38.1719 53.411 37.0313 54.9352C35.5147 57.2151 34.3615 57.9331 32.4688 68.9424" fill="#FF6666"/>
<path d="M66.3113 55.5142C66.3113 55.5142 62.4006 52.4281 59.2545 52.4533C59.2545 52.4533 56.873 52.1006 55.3564 52.8564C54.5291 53.2721 53.0877 54.4057 52.7117 56.27C52.3356 58.1721 53.4637 59.3057 54.6043 61.2078L59.8938 66.1456L62.5385 68.4255L69.0062 72.406L73.343 63.6767L66.3113 55.5142Z" fill="#FF6666"/>
<path d="M53.311 172.923L50.8929 172.913C50.8843 172.913 50.8756 172.913 50.8756 172.903L51.1269 165.763C51.1269 165.753 51.1356 165.742 51.1443 165.742H56.5003C56.509 165.742 56.509 165.742 56.509 165.742C56.5783 165.867 59.031 170.142 63.9884 171.377C64.6991 171.554 65.1931 172.166 65.1671 172.882C65.1671 172.892 65.1585 172.903 65.1498 172.903L55.0963 172.923" fill="#333739"/>
<path d="M51.1443 165.742H56.509L57.7744 167.465C57.7744 167.465 56.3443 168.772 54.611 168.772C52.8776 168.772 51.049 167.901 51.049 167.901L51.127 165.763L51.1443 165.742Z" fill="#FFDDC5"/>
<path d="M33.9153 172.923L31.4973 172.913C31.4886 172.913 31.48 172.913 31.48 172.903L31.7313 165.763C31.7313 165.753 31.74 165.742 31.7487 165.742H37.1047C37.1134 165.742 37.1134 165.742 37.1134 165.742C37.1827 165.867 39.6354 170.142 44.5928 171.377C45.3035 171.554 45.7975 172.166 45.7715 172.882C45.7715 172.892 45.7628 172.903 45.7542 172.903L35.7007 172.923" fill="#333739"/>
<path d="M31.7487 165.742H37.1134L38.3788 167.465C38.3788 167.465 36.9487 168.772 35.2154 168.772C33.482 168.772 31.6533 167.901 31.6533 167.901L31.7313 165.763L31.7487 165.742Z" fill="#FFDDC5"/>
<path fill-rule="evenodd" clip-rule="evenodd" d="M149.916 152.022C144.46 152.857 141.056 144.674 139.14 140.925C138.046 138.785 136.917 136.551 135.351 134.72C132.081 130.902 127.781 130.144 127.21 131.699C126.731 133.001 128.482 132.932 130.267 134.661C131.254 135.618 132.314 137.105 132.593 139.328C133.614 147.479 133.329 150.077 136.588 156.117C137.362 157.552 138.217 159.011 139.386 160.163C145 165.69 150.438 158.31 149.916 152.022Z" fill="#EF383D"/>
<mask id="mask0" mask-type="alpha" maskUnits="userSpaceOnUse" x="127" y="130" width="23" height="33">
<path fill-rule="evenodd" clip-rule="evenodd" d="M135.35 134.717C136.917 136.549 138.046 138.782 139.14 140.922C141.056 144.672 144.46 152.854 149.916 152.019C150.439 158.308 145 165.688 139.386 160.16C138.216 159.008 137.361 157.55 136.588 156.114C133.33 150.074 133.613 147.476 132.593 139.325C132.314 137.103 131.254 135.615 130.266 134.658C128.483 132.929 126.731 132.998 127.21 131.697C127.392 131.199 127.956 130.938 128.744 130.938C130.424 130.938 133.127 132.119 135.35 134.717Z" fill="white"/>
</mask>
<g mask="url(#mask0)">
<path fill-rule="evenodd" clip-rule="evenodd" d="M125.135 131.164C130.824 131.281 134.609 136.6 135.81 141.685C136.416 144.251 136.529 146.907 137.163 149.473C138.329 154.203 140.559 158.765 143.854 162.364C130.148 159.989 134.169 150.855 130.017 141.042C129.442 139.681 128.73 138.407 127.932 137.167C126.916 135.589 124.506 133.336 125.135 131.164Z" fill="#BC2025"/>
</g>
<mask id="mask1" mask-type="alpha" maskUnits="userSpaceOnUse" x="127" y="130" width="23" height="33">
<path fill-rule="evenodd" clip-rule="evenodd" d="M135.35 134.717C136.917 136.549 138.046 138.782 139.14 140.922C141.056 144.672 144.46 152.854 149.916 152.019C150.439 158.308 145 165.688 139.386 160.16C138.216 159.008 137.361 157.55 136.588 156.114C133.33 150.074 133.613 147.476 132.593 139.325C132.314 137.103 131.254 135.615 130.266 134.658C128.483 132.929 126.731 132.998 127.21 131.697C127.392 131.199 127.956 130.938 128.744 130.938C130.424 130.938 133.127 132.119 135.35 134.717Z" fill="white"/>
</mask>
<g mask="url(#mask1)">
<path fill-rule="evenodd" clip-rule="evenodd" d="M142.622 149.141C140.309 146.731 139.228 143.479 137.834 140.52C135.54 135.652 133.437 132.156 128.295 130.488C130.841 130.192 132.855 131.474 134.657 133.155C137.757 136.045 139.865 139.675 141.951 143.322C142.616 144.483 144.353 147.351 144.537 148.646C144.096 148.543 143.062 149.053 142.622 149.141Z" fill="#F48EAA"/>
</g>
<path fill-rule="evenodd" clip-rule="evenodd" d="M149.881 151.811C149.944 151.802 150.009 151.818 150.06 151.854C150.111 151.891 150.143 151.945 150.148 152.003H150.127C150.442 155.789 148.632 159.956 145.928 161.593C144.008 162.755 141.636 162.679 139.235 160.316C138.758 159.847 138.332 159.326 137.942 158.778C137.363 157.965 136.865 157.089 136.396 156.22C135.02 153.668 134.271 151.726 133.788 149.727C133.124 146.968 132.968 144.101 132.373 139.354C132.253 138.397 131.984 137.582 131.637 136.888C131.203 136.016 130.646 135.339 130.111 134.821C129.374 134.107 128.641 133.708 128.078 133.388C127.654 133.147 127.322 132.943 127.127 132.703C126.899 132.421 126.824 132.093 126.999 131.618C127.149 131.211 127.507 130.925 128.029 130.794C128.711 130.624 129.694 130.723 130.8 131.135C132.29 131.69 134.014 132.809 135.522 134.571C136.158 135.314 136.723 136.122 137.243 136.963C138.013 138.211 138.685 139.532 139.344 140.818C140.465 143.011 142.096 146.732 144.356 149.253C145.89 150.962 147.714 152.121 149.881 151.79V151.811ZM149.723 152.282C149.928 155.838 148.237 159.694 145.707 161.224C143.934 162.296 141.752 162.187 139.538 160.006C139.079 159.555 138.669 159.053 138.294 158.525C137.727 157.726 137.238 156.865 136.779 156.012C135.425 153.501 134.688 151.59 134.214 149.622C133.554 146.877 133.404 144.023 132.813 139.299C132.686 138.286 132.402 137.422 132.036 136.687C131.576 135.765 130.987 135.046 130.421 134.498C129.651 133.751 128.887 133.331 128.298 132.996C127.936 132.789 127.642 132.624 127.475 132.417C127.339 132.251 127.317 132.055 127.42 131.775C127.523 131.496 127.781 131.321 128.138 131.232C128.755 131.079 129.643 131.185 130.643 131.56C132.075 132.093 133.729 133.175 135.178 134.867C135.798 135.593 136.349 136.383 136.856 137.203C137.62 138.442 138.284 139.752 138.936 141.029C140.071 143.249 141.726 147.011 144.012 149.564C145.601 151.338 147.498 152.527 149.723 152.282Z" fill="black"/>
<path fill-rule="evenodd" clip-rule="evenodd" d="M137.65 155.628C135.833 152.667 133.559 149.368 130.064 148.315C126.055 147.108 121.99 149.465 122.634 153.745C123.47 159.296 131.606 158.72 130.711 153.899C133.786 158.755 135.841 164.315 135.605 170.153C140.858 167.926 143.381 164.015 140.175 158.756C139.541 157.714 138.554 156.46 137.65 155.628Z" fill="#EF383D"/>
<mask id="mask2" mask-type="alpha" maskUnits="userSpaceOnUse" x="122" y="148" width="20" height="23">
<path fill-rule="evenodd" clip-rule="evenodd" d="M127.961 148C128.646 148 129.357 148.103 130.065 148.315C133.559 149.367 135.832 152.666 137.651 155.627C138.554 156.46 139.541 157.714 140.175 158.756C143.381 164.015 140.857 167.925 135.605 170.152C135.841 164.315 133.786 158.755 130.711 153.898C131.606 158.72 123.47 159.296 122.634 153.744C122.103 150.221 124.765 148 127.959 148C127.96 148 127.96 148 127.961 148Z" fill="white"/>
</mask>
<g mask="url(#mask2)">
<path fill-rule="evenodd" clip-rule="evenodd" d="M130.651 155.11C128.609 156.911 125.244 156.104 124.357 153.508C123.927 152.25 123.915 150.958 124.499 149.744C124.7 149.327 124.97 148.924 125.259 148.563C125.363 148.434 125.469 148.307 125.577 148.182C125.628 148.121 125.809 148.014 125.732 147.999C124.513 147.762 122.874 149.467 122.373 150.4C120.531 153.831 122.744 159.39 126.562 160.359C129.195 161.027 131.184 157.858 130.651 155.11Z" fill="#BC2025"/>
</g>
<mask id="mask3" mask-type="alpha" maskUnits="userSpaceOnUse" x="122" y="148" width="20" height="23">
<path fill-rule="evenodd" clip-rule="evenodd" d="M127.961 148C128.646 148 129.357 148.103 130.065 148.315C133.559 149.367 135.832 152.666 137.651 155.627C138.554 156.46 139.541 157.714 140.175 158.756C143.381 164.015 140.857 167.925 135.605 170.152C135.841 164.315 133.786 158.755 130.711 153.898C131.606 158.72 123.47 159.296 122.634 153.744C122.103 150.221 124.765 148 127.959 148C127.96 148 127.96 148 127.961 148Z" fill="white"/>
</mask>
<g mask="url(#mask3)">
<path fill-rule="evenodd" clip-rule="evenodd" d="M138.437 161.716C138.167 160.042 137.663 158.419 137.033 156.85C135.659 153.421 134.044 150.894 130.712 149.173C129.126 148.355 127.368 148.002 125.572 148.453C127.229 147.394 129.628 147.918 131.293 148.794C134.24 150.346 136.674 153.115 137.962 156.19C138.405 157.252 139.167 160.504 138.437 161.716Z" fill="#F48EAA"/>
</g>
<mask id="mask4" mask-type="alpha" maskUnits="userSpaceOnUse" x="122" y="148" width="20" height="23">
<path fill-rule="evenodd" clip-rule="evenodd" d="M127.961 148C128.646 148 129.357 148.103 130.065 148.315C133.559 149.367 135.832 152.666 137.651 155.627C138.554 156.46 139.541 157.714 140.175 158.756C143.381 164.015 140.857 167.925 135.605 170.152C135.841 164.315 133.786 158.755 130.711 153.898C131.606 158.72 123.47 159.296 122.634 153.744C122.103 150.221 124.765 148 127.959 148C127.96 148 127.96 148 127.961 148Z" fill="white"/>
</mask>
<g mask="url(#mask4)">
<path fill-rule="evenodd" clip-rule="evenodd" d="M137.222 165.095C137.229 163.9 137.08 162.722 136.85 161.55C136.139 157.909 133.759 152.271 129.709 151.287C128.796 151.066 127.878 151.098 127.057 151.598C129.574 150.522 131.066 153.347 131.096 155.449C131.138 158.331 132.712 161.001 133.402 163.801C133.557 164.425 133.663 166.181 133.987 166.714C134.928 168.268 136.953 166.51 137.222 165.095Z" fill="#BC2025"/>
</g>
<path fill-rule="evenodd" clip-rule="evenodd" d="M130.999 154.791C132.317 156.981 133.419 159.306 134.191 161.73C135.053 164.431 135.504 167.255 135.388 170.148C135.384 170.222 135.42 170.292 135.481 170.335C135.542 170.378 135.621 170.387 135.689 170.356C138.352 169.227 140.321 167.665 141.236 165.73C142.171 163.751 142.021 161.375 140.356 158.648C140.034 158.119 139.623 157.537 139.177 156.981C138.731 156.426 138.252 155.897 137.794 155.475L137.849 155.508C136.749 153.719 135.484 151.808 133.888 150.334C132.803 149.333 131.568 148.531 130.131 148.098C128.101 147.487 126.06 147.764 124.579 148.718C123.012 149.728 122.065 151.491 122.41 153.782C122.818 156.492 124.887 157.809 126.885 157.933C128.31 158.021 129.696 157.497 130.439 156.455C130.763 155.998 130.969 155.443 130.999 154.791ZM135.833 169.818C135.906 166.994 135.45 164.237 134.61 161.594C133.737 158.849 132.446 156.226 130.9 153.781C130.841 153.692 130.728 153.655 130.63 153.694C130.53 153.733 130.473 153.837 130.492 153.942C130.664 154.865 130.484 155.621 130.076 156.193C129.417 157.118 128.178 157.56 126.913 157.481C125.101 157.368 123.226 156.172 122.858 153.714C122.545 151.629 123.4 150.02 124.825 149.103C126.205 148.215 128.109 147.97 129.998 148.54C131.367 148.952 132.543 149.721 133.576 150.676C135.139 152.122 136.375 153.998 137.452 155.753H137.471C137.481 155.772 137.493 155.789 137.508 155.803V155.788C137.951 156.197 138.415 156.71 138.846 157.248C139.281 157.789 139.68 158.356 139.994 158.87C141.561 161.442 141.731 163.68 140.848 165.544C140.007 167.32 138.226 168.752 135.833 169.818Z" fill="black"/>
<path fill-rule="evenodd" clip-rule="evenodd" d="M163.216 151.834C164.765 157.062 176.508 158.316 179.615 149.125C180.727 145.836 181.285 142.49 183.281 139.591C184.645 137.607 186.61 135.872 188.971 135.24C189.544 135.086 190.94 134.74 191.42 135.339C191.97 136.025 190.616 136.886 190.173 137.265C187.051 139.934 186.709 143.753 186.064 153.645C185.62 160.476 182.721 161.65 178.01 163.002C166.505 166.305 160.194 153.899 163.216 151.834Z" fill="#EF383D"/>
<mask id="mask5" mask-type="alpha" maskUnits="userSpaceOnUse" x="162" y="134" width="30" height="30">
<path fill-rule="evenodd" clip-rule="evenodd" d="M191.42 135.336C191.969 136.022 190.615 136.882 190.172 137.261C187.051 139.93 186.709 143.749 186.064 153.642C185.619 160.472 182.721 161.647 178.011 162.999C166.504 166.301 160.194 153.895 163.215 151.83C164.765 157.059 176.507 158.313 179.615 149.122C180.728 145.833 181.284 142.486 183.28 139.587C184.644 137.603 186.61 135.869 188.971 135.236C189.299 135.148 189.899 134.996 190.441 134.996C190.844 134.996 191.215 135.08 191.42 135.336Z" fill="white"/>
</mask>
<g mask="url(#mask5)">
<path fill-rule="evenodd" clip-rule="evenodd" d="M163.216 151.831C164.742 158.298 174.594 158.911 178.05 152.725C179.164 150.73 180.044 148.303 180.57 144.483C181.159 140.209 186.321 134.958 188.162 134.094C192.121 132.239 185.321 134.997 183.969 142.467C182.541 150.348 182.262 157.9 175.436 160.306C168.251 162.837 161.577 166.667 158.567 159.28C161.845 148.538 159.148 147.896 163.216 151.831Z" fill="#BC2025"/>
</g>
<mask id="mask6" mask-type="alpha" maskUnits="userSpaceOnUse" x="162" y="134" width="30" height="30">
<path fill-rule="evenodd" clip-rule="evenodd" d="M191.42 135.336C191.969 136.022 190.615 136.882 190.172 137.261C187.051 139.93 186.709 143.749 186.064 153.642C185.619 160.472 182.721 161.647 178.011 162.999C166.504 166.301 160.194 153.895 163.215 151.83C164.765 157.059 176.507 158.313 179.615 149.122C180.728 145.833 181.284 142.486 183.28 139.587C184.644 137.603 186.61 135.869 188.971 135.236C189.299 135.148 189.899 134.996 190.441 134.996C190.844 134.996 191.215 135.08 191.42 135.336Z" fill="white"/>
</mask>
<g mask="url(#mask6)">
<path fill-rule="evenodd" clip-rule="evenodd" d="M193.463 135.917C185.002 139.718 187.995 149.871 186.005 159.059C185.245 162.573 182.354 168.27 178.859 166.508C179.978 165.215 179.984 162.764 181.567 161.757C184.606 159.829 184.943 153.57 184.85 149.276C184.735 144.015 186.665 134.996 193.463 135.917Z" fill="#F48EAA"/>
</g>
<path fill-rule="evenodd" clip-rule="evenodd" d="M163.216 151.83C164.765 157.058 176.508 158.312 179.615 149.121C180.727 145.832 181.285 142.486 183.281 139.587C184.645 137.603 186.61 135.869 188.971 135.236C189.544 135.082 190.94 134.736 191.42 135.335C191.97 136.021 190.616 136.882 190.173 137.261C187.051 139.93 186.709 143.749 186.064 153.641C185.62 160.472 182.721 161.646 178.01 162.998C166.505 166.301 160.194 153.895 163.216 151.83Z" stroke="black" stroke-width="0.481" stroke-linecap="round" stroke-linejoin="round"/>
<path fill-rule="evenodd" clip-rule="evenodd" d="M147.606 113.386C140.084 113.091 135.529 115.261 137.483 118.464C137.715 118.843 137.981 119.16 138.251 119.422C139.861 120.981 141.594 121.172 143.342 121.428C144.553 119.146 146.535 115.913 147.606 113.386Z" fill="#9FA0A0"/>
<path fill-rule="evenodd" clip-rule="evenodd" d="M147.606 113.386C140.084 113.091 135.529 115.261 137.483 118.464C137.715 118.843 137.981 119.16 138.251 119.422C139.861 120.981 141.594 121.172 143.342 121.428C144.553 119.146 146.535 115.913 147.606 113.386Z" stroke="black" stroke-width="0.481" stroke-linecap="round" stroke-linejoin="round"/>
<path fill-rule="evenodd" clip-rule="evenodd" d="M145.338 149.676C143.816 149.45 139.061 148.091 137.902 149.106C134.564 152.032 137.307 158.11 138.803 161.155C136.576 165.661 129.858 166.28 130.059 172.332C130.252 178.126 136.927 179.845 141.517 177.771C144.453 176.445 145.523 173.582 146.455 170.708C148.145 170.047 150.042 169.848 151.825 169.625C153.989 185.388 175.208 181.372 171.062 169.667C172.658 169.721 174.151 169.134 178.306 167.891C179.744 167.46 181.583 167.203 183.541 167.426C182.623 169.645 183.741 172.76 186.831 173.175C190.95 173.729 194.352 168.819 191.445 164.797C188.381 160.559 183.845 159.76 181.52 159.786C176.938 159.839 171.808 161.509 167.452 159.241C165.509 158.23 163.927 156.559 163.789 154.365C163.359 147.549 177.076 146.561 180.373 131.565C183.633 116.732 174.056 106.663 163.774 105.194C153.025 103.659 139.645 108.795 138.909 126.479C138.337 140.279 145.003 142.427 145.338 149.676Z" fill="#EF383D"/>
<mask id="mask7" mask-type="alpha" maskUnits="userSpaceOnUse" x="130" y="104" width="63" height="76">
<path fill-rule="evenodd" clip-rule="evenodd" d="M163.774 105.194C174.057 106.662 183.633 116.731 180.373 131.565C177.076 146.56 163.359 147.549 163.789 154.364C163.927 156.559 165.509 158.23 167.452 159.24C171.809 161.509 176.939 159.838 181.52 159.786C183.845 159.76 188.381 160.558 191.445 164.797C194.352 168.818 190.949 173.73 186.831 173.176C183.741 172.759 182.623 169.645 183.54 167.426C181.583 167.203 179.744 167.461 178.306 167.891C174.151 169.134 172.659 169.721 171.062 169.667C175.209 181.372 153.989 185.388 151.825 169.624C150.042 169.849 148.146 170.048 146.455 170.71C145.523 173.581 144.453 176.445 141.517 177.771C136.927 179.845 130.252 178.126 130.059 172.332C129.858 166.28 136.575 165.661 138.803 161.156C137.307 158.11 134.564 152.032 137.902 149.106C139.061 148.092 143.816 149.449 145.338 149.677C145.003 142.427 138.335 140.279 138.91 126.479C139.564 110.736 150.239 104.938 160.16 104.938C161.382 104.938 162.594 105.026 163.774 105.194Z" fill="white"/>
</mask>
<g mask="url(#mask7)">
<path fill-rule="evenodd" clip-rule="evenodd" d="M172.497 120.659C163.606 124.711 154.844 117.003 149.193 117.145C143.806 121.903 143.877 126.917 144.798 133.012C144.233 134.446 143.477 134.882 143.225 135.238C143.448 135.845 145.104 136.103 145.39 136.725C147.081 140.393 148.43 145.177 148.43 148.47C148.43 151.095 148.52 153.32 149.141 155.864C149.782 158.488 153.76 168.112 151.841 170.677C151.033 171.758 146.065 172.822 146.508 170.698C147.446 166.208 143.047 163.354 143.069 165.403C143.171 175.329 137.121 181.538 131.049 176.614C129.445 175.314 128.494 174.478 128.178 172.382C127.305 166.569 134.206 166.716 134.686 160.958C134.949 157.814 133.945 154.818 134.041 151.709C134.131 148.803 135.492 146.188 135.284 143.229C134.839 136.864 132.625 130.21 134.411 123.856C135.448 120.164 137.902 117.471 139.737 114.238C139.732 114.24 139.724 114.241 139.717 114.243C148.046 105.976 164.599 114.873 172.497 120.659Z" fill="#BC2025"/>
</g>
<mask id="mask8" mask-type="alpha" maskUnits="userSpaceOnUse" x="130" y="104" width="63" height="76">
<path fill-rule="evenodd" clip-rule="evenodd" d="M163.774 105.194C174.057 106.662 183.633 116.731 180.373 131.565C177.076 146.56 163.359 147.549 163.789 154.364C163.927 156.559 165.509 158.23 167.452 159.24C171.809 161.509 176.939 159.838 181.52 159.786C183.845 159.76 188.381 160.558 191.445 164.797C194.352 168.818 190.949 173.73 186.831 173.176C183.741 172.759 182.623 169.645 183.54 167.426C181.583 167.203 179.744 167.461 178.306 167.891C174.151 169.134 172.659 169.721 171.062 169.667C175.209 181.372 153.989 185.388 151.825 169.624C150.042 169.849 148.146 170.048 146.455 170.71C145.523 173.581 144.453 176.445 141.517 177.771C136.927 179.845 130.252 178.126 130.059 172.332C129.858 166.28 136.575 165.661 138.803 161.156C137.307 158.11 134.564 152.032 137.902 149.106C139.061 148.092 143.816 149.449 145.338 149.677C145.003 142.427 138.335 140.279 138.91 126.479C139.564 110.736 150.239 104.938 160.16 104.938C161.382 104.938 162.594 105.026 163.774 105.194Z" fill="white"/>
</mask>
<g mask="url(#mask8)">
<path fill-rule="evenodd" clip-rule="evenodd" d="M185.231 165.774C184.079 167.821 185.176 170.771 187.39 171.343C191.198 172.33 193.02 168.423 193.063 168.87C193.28 171.047 191.868 172.897 189.981 173.808C186.82 175.334 182.602 174.112 181.139 170.797C179.81 167.787 182.094 165.615 185.231 165.774Z" fill="#BC2025"/>
</g>
<mask id="mask9" mask-type="alpha" maskUnits="userSpaceOnUse" x="130" y="104" width="63" height="76">
<path fill-rule="evenodd" clip-rule="evenodd" d="M163.774 105.194C174.057 106.662 183.633 116.731 180.373 131.565C177.076 146.56 163.359 147.549 163.789 154.364C163.927 156.559 165.509 158.23 167.452 159.24C171.809 161.509 176.939 159.838 181.52 159.786C183.845 159.76 188.381 160.558 191.445 164.797C194.352 168.818 190.949 173.73 186.831 173.176C183.741 172.759 182.623 169.645 183.54 167.426C181.583 167.203 179.744 167.461 178.306 167.891C174.151 169.134 172.659 169.721 171.062 169.667C175.209 181.372 153.989 185.388 151.825 169.624C150.042 169.849 148.146 170.048 146.455 170.71C145.523 173.581 144.453 176.445 141.517 177.771C136.927 179.845 130.252 178.126 130.059 172.332C129.858 166.28 136.575 165.661 138.803 161.156C137.307 158.11 134.564 152.032 137.902 149.106C139.061 148.092 143.816 149.449 145.338 149.677C145.003 142.427 138.335 140.279 138.91 126.479C139.564 110.736 150.239 104.938 160.16 104.938C161.382 104.938 162.594 105.026 163.774 105.194Z" fill="white"/>
</mask>
<g mask="url(#mask9)">
<path fill-rule="evenodd" clip-rule="evenodd" d="M186.679 166.277C182.366 164.157 178.718 164.846 174.169 165.368C172.51 165.558 170.823 165.779 169.169 165.42C167.157 164.981 165.752 163.26 164.188 162.043C166.986 164.643 170.044 167.073 171.588 170.688C173.852 169.662 180.431 168.993 183.119 169.087C182.942 167.795 185.029 165.623 186.679 166.277Z" fill="#BC2025"/>
</g>
<mask id="mask10" mask-type="alpha" maskUnits="userSpaceOnUse" x="130" y="104" width="63" height="76">
<path fill-rule="evenodd" clip-rule="evenodd" d="M163.774 105.194C174.057 106.662 183.633 116.731 180.373 131.565C177.076 146.56 163.359 147.549 163.789 154.364C163.927 156.559 165.509 158.23 167.452 159.24C171.809 161.509 176.939 159.838 181.52 159.786C183.845 159.76 188.381 160.558 191.445 164.797C194.352 168.818 190.949 173.73 186.831 173.176C183.741 172.759 182.623 169.645 183.54 167.426C181.583 167.203 179.744 167.461 178.306 167.891C174.151 169.134 172.659 169.721 171.062 169.667C175.209 181.372 153.989 185.388 151.825 169.624C150.042 169.849 148.146 170.048 146.455 170.71C145.523 173.581 144.453 176.445 141.517 177.771C136.927 179.845 130.252 178.126 130.059 172.332C129.858 166.28 136.575 165.661 138.803 161.156C137.307 158.11 134.564 152.032 137.902 149.106C139.061 148.092 143.816 149.449 145.338 149.677C145.003 142.427 138.335 140.279 138.91 126.479C139.564 110.736 150.239 104.938 160.16 104.938C161.382 104.938 162.594 105.026 163.774 105.194Z" fill="white"/>
</mask>
<g mask="url(#mask10)">
<path fill-rule="evenodd" clip-rule="evenodd" d="M164.639 152.55C165.294 149.858 170.025 148.191 172.117 144.938C168.235 146.524 166.197 147.608 164.201 149.973C161.019 153.744 163.028 158.255 167.072 160.375C170.382 162.109 174.419 161.996 177.981 161.269C180.613 160.734 183.589 160.768 186.161 161.691C190.008 163.073 192.584 166.609 192 170.966C192.751 169.547 193.26 167.709 193.114 166.101C192.831 163.006 189.993 160.362 187.111 159.639C183.573 158.752 179.958 159.471 176.42 159.902C175.056 160.068 173.684 160.1 172.313 160.138C171.468 160.161 162.892 160.32 164.639 152.55Z" fill="#F48EAA"/>
</g>
<mask id="mask11" mask-type="alpha" maskUnits="userSpaceOnUse" x="130" y="104" width="63" height="76">
<path fill-rule="evenodd" clip-rule="evenodd" d="M163.774 105.194C174.057 106.662 183.633 116.731 180.373 131.565C177.076 146.56 163.359 147.549 163.789 154.364C163.927 156.559 165.509 158.23 167.452 159.24C171.809 161.509 176.939 159.838 181.52 159.786C183.845 159.76 188.381 160.558 191.445 164.797C194.352 168.818 190.949 173.73 186.831 173.176C183.741 172.759 182.623 169.645 183.54 167.426C181.583 167.203 179.744 167.461 178.306 167.891C174.151 169.134 172.659 169.721 171.062 169.667C175.209 181.372 153.989 185.388 151.825 169.624C150.042 169.849 148.146 170.048 146.455 170.71C145.523 173.581 144.453 176.445 141.517 177.771C136.927 179.845 130.252 178.126 130.059 172.332C129.858 166.28 136.575 165.661 138.803 161.156C137.307 158.11 134.564 152.032 137.902 149.106C139.061 148.092 143.816 149.449 145.338 149.677C145.003 142.427 138.335 140.279 138.91 126.479C139.564 110.736 150.239 104.938 160.16 104.938C161.382 104.938 162.594 105.026 163.774 105.194Z" fill="white"/>
</mask>
<g mask="url(#mask11)">
<path fill-rule="evenodd" clip-rule="evenodd" d="M159.732 153.785C159.239 155.715 159.645 158.156 160.831 160.099C162.095 162.17 164.742 164.408 166.505 166C169.62 168.815 172.198 173.594 169.488 177.614C177.407 169.138 164.483 164.282 160.936 158.447C160.252 157.323 159.85 155.073 159.732 153.785Z" fill="#F48EAA"/>
</g>
<mask id="mask12" mask-type="alpha" maskUnits="userSpaceOnUse" x="130" y="104" width="63" height="76">
<path fill-rule="evenodd" clip-rule="evenodd" d="M163.774 105.194C174.057 106.662 183.633 116.731 180.373 131.565C177.076 146.56 163.359 147.549 163.789 154.364C163.927 156.559 165.509 158.23 167.452 159.24C171.809 161.509 176.939 159.838 181.52 159.786C183.845 159.76 188.381 160.558 191.445 164.797C194.352 168.818 190.949 173.73 186.831 173.176C183.741 172.759 182.623 169.645 183.54 167.426C181.583 167.203 179.744 167.461 178.306 167.891C174.151 169.134 172.659 169.721 171.062 169.667C175.209 181.372 153.989 185.388 151.825 169.624C150.042 169.849 148.146 170.048 146.455 170.71C145.523 173.581 144.453 176.445 141.517 177.771C136.927 179.845 130.252 178.126 130.059 172.332C129.858 166.28 136.575 165.661 138.803 161.156C137.307 158.11 134.564 152.032 137.902 149.106C139.061 148.092 143.816 149.449 145.338 149.677C145.003 142.427 138.335 140.279 138.91 126.479C139.564 110.736 150.239 104.938 160.16 104.938C161.382 104.938 162.594 105.026 163.774 105.194Z" fill="white"/>
</mask>
<g mask="url(#mask12)">
<path fill-rule="evenodd" clip-rule="evenodd" d="M163.606 170.902C159.618 172.223 157.837 169.562 156.753 166.042C156.078 163.849 155.95 161.556 155.338 159.352C154.477 156.253 152.033 151.66 148.43 151.153C150.721 150.63 152.935 152.362 154.159 154.147C155.461 156.045 156.329 158.147 156.88 160.379C157.456 162.712 157.735 165.115 158.67 167.35C159.677 169.758 161.069 170.824 163.606 170.902Z" fill="#F48EAA"/>
</g>
<mask id="mask13" mask-type="alpha" maskUnits="userSpaceOnUse" x="130" y="104" width="63" height="76">
<path fill-rule="evenodd" clip-rule="evenodd" d="M163.774 105.194C174.057 106.662 183.633 116.731 180.373 131.565C177.076 146.56 163.359 147.549 163.789 154.364C163.927 156.559 165.509 158.23 167.452 159.24C171.809 161.509 176.939 159.838 181.52 159.786C183.845 159.76 188.381 160.558 191.445 164.797C194.352 168.818 190.949 173.73 186.831 173.176C183.741 172.759 182.623 169.645 183.54 167.426C181.583 167.203 179.744 167.461 178.306 167.891C174.151 169.134 172.659 169.721 171.062 169.667C175.209 181.372 153.989 185.388 151.825 169.624C150.042 169.849 148.146 170.048 146.455 170.71C145.523 173.581 144.453 176.445 141.517 177.771C136.927 179.845 130.252 178.126 130.059 172.332C129.858 166.28 136.575 165.661 138.803 161.156C137.307 158.11 134.564 152.032 137.902 149.106C139.061 148.092 143.816 149.449 145.338 149.677C145.003 142.427 138.335 140.279 138.91 126.479C139.564 110.736 150.239 104.938 160.16 104.938C161.382 104.938 162.594 105.026 163.774 105.194Z" fill="white"/>
</mask>
<g mask="url(#mask13)">
<path fill-rule="evenodd" clip-rule="evenodd" d="M146.543 168.309C146.116 173.233 145.083 180 135.666 178.889C137.527 179.021 140.751 177.524 142.112 176.516C145.217 174.219 145.946 171.136 146.543 168.309Z" fill="#F48EAA"/>
</g>
<mask id="mask14" mask-type="alpha" maskUnits="userSpaceOnUse" x="130" y="104" width="63" height="76">
<path fill-rule="evenodd" clip-rule="evenodd" d="M163.774 105.194C174.057 106.662 183.633 116.731 180.373 131.565C177.076 146.56 163.359 147.549 163.789 154.364C163.927 156.559 165.509 158.23 167.452 159.24C171.809 161.509 176.939 159.838 181.52 159.786C183.845 159.76 188.381 160.558 191.445 164.797C194.352 168.818 190.949 173.73 186.831 173.176C183.741 172.759 182.623 169.645 183.54 167.426C181.583 167.203 179.744 167.461 178.306 167.891C174.151 169.134 172.659 169.721 171.062 169.667C175.209 181.372 153.989 185.388 151.825 169.624C150.042 169.849 148.146 170.048 146.455 170.71C145.523 173.581 144.453 176.445 141.517 177.771C136.927 179.845 130.252 178.126 130.059 172.332C129.858 166.28 136.575 165.661 138.803 161.156C137.307 158.11 134.564 152.032 137.902 149.106C139.061 148.092 143.816 149.449 145.338 149.677C145.003 142.427 138.335 140.279 138.91 126.479C139.564 110.736 150.239 104.938 160.16 104.938C161.382 104.938 162.594 105.026 163.774 105.194Z" fill="white"/>
</mask>
<g mask="url(#mask14)">
<path fill-rule="evenodd" clip-rule="evenodd" d="M170.5 176.538C169.083 177.587 167.534 178.034 165.791 178.119C160.348 178.383 156.217 174.138 154.885 169.087C153.891 165.319 154.803 160.567 153.32 156.882C152.651 155.22 149.845 151.946 147.607 151.848C149.07 154.602 151.091 156.174 151.579 159.33C151.954 161.746 151.799 164.97 151.579 167.356C151.212 171.33 153.159 174.871 155.597 177.915C156.879 179.515 158.564 180.831 160.567 181.344C164.237 182.286 169.055 180.323 170.5 176.538Z" fill="#BC2025"/>
</g>
<mask id="mask15" mask-type="alpha" maskUnits="userSpaceOnUse" x="130" y="104" width="63" height="76">
<path fill-rule="evenodd" clip-rule="evenodd" d="M163.774 105.194C174.057 106.662 183.633 116.731 180.373 131.565C177.076 146.56 163.359 147.549 163.789 154.364C163.927 156.559 165.509 158.23 167.452 159.24C171.809 161.509 176.939 159.838 181.52 159.786C183.845 159.76 188.381 160.558 191.445 164.797C194.352 168.818 190.949 173.73 186.831 173.176C183.741 172.759 182.623 169.645 183.54 167.426C181.583 167.203 179.744 167.461 178.306 167.891C174.151 169.134 172.659 169.721 171.062 169.667C175.209 181.372 153.989 185.388 151.825 169.624C150.042 169.849 148.146 170.048 146.455 170.71C145.523 173.581 144.453 176.445 141.517 177.771C136.927 179.845 130.252 178.126 130.059 172.332C129.858 166.28 136.575 165.661 138.803 161.156C137.307 158.11 134.564 152.032 137.902 149.106C139.061 148.092 143.816 149.449 145.338 149.677C145.003 142.427 138.335 140.279 138.91 126.479C139.564 110.736 150.239 104.938 160.16 104.938C161.382 104.938 162.594 105.026 163.774 105.194Z" fill="white"/>
</mask>
<g mask="url(#mask15)">
<path fill-rule="evenodd" clip-rule="evenodd" d="M163.718 171.058C165.491 171.306 166.292 170.091 164.546 168.343C163.766 167.562 162.661 167.022 161.725 166.46C159.902 165.368 157.883 163.8 157.042 161.762C157.727 165.207 158.643 171.079 163.718 171.058Z" fill="#BC2025"/>
</g>
<path fill-rule="evenodd" clip-rule="evenodd" d="M145.338 149.676C143.816 149.45 139.061 148.091 137.902 149.106C134.564 152.032 137.307 158.11 138.803 161.155C136.576 165.661 129.858 166.28 130.059 172.332C130.252 178.126 136.927 179.845 141.517 177.771C144.453 176.445 145.523 173.582 146.455 170.708C148.145 170.047 150.042 169.848 151.825 169.625C153.989 185.388 175.208 181.372 171.062 169.667C172.658 169.721 174.151 169.134 178.306 167.891C179.744 167.46 181.583 167.203 183.541 167.426C182.623 169.645 183.741 172.76 186.831 173.175C190.95 173.729 194.352 168.819 191.445 164.797C188.381 160.559 183.845 159.76 181.52 159.786C176.938 159.839 171.808 161.509 167.452 159.241C165.509 158.23 163.927 156.559 163.789 154.365C163.359 147.549 177.076 146.561 180.373 131.565C183.633 116.732 174.056 106.663 163.774 105.194C153.025 103.659 139.645 108.795 138.909 126.479C138.337 140.279 145.003 142.427 145.338 149.676Z" stroke="black" stroke-width="0.481" stroke-linecap="round" stroke-linejoin="round"/>
<path fill-rule="evenodd" clip-rule="evenodd" d="M139.009 161.067C139.801 162.978 140.318 165.155 139.739 166.933C139.456 167.8 138.93 168.594 138.03 169.181C137.899 169.268 137.758 169.349 137.607 169.42C137.396 169.517 137.17 169.591 136.926 169.662C136.873 169.685 136.813 169.661 136.79 169.607C136.767 169.554 136.792 169.492 136.845 169.47C137.056 169.35 137.241 169.219 137.423 169.094C137.551 169.007 137.675 168.922 137.793 168.836C138.574 168.262 139.067 167.578 139.317 166.796C139.857 165.107 139.35 163.05 138.597 161.241C138.55 161.126 138.604 160.995 138.717 160.947C138.831 160.899 138.962 160.953 139.009 161.067Z" fill="black"/>
<path fill-rule="evenodd" clip-rule="evenodd" d="M130.586 154.486C130.388 153.64 129.869 152.623 129.123 152.067C128.649 151.713 128.078 151.55 127.43 151.781C126.936 151.942 126.564 152.356 126.428 152.812C126.287 153.287 126.396 153.808 126.895 154.16C126.93 154.183 126.94 154.229 126.919 154.265C126.897 154.301 126.849 154.311 126.814 154.289C126.176 153.932 125.994 153.314 126.113 152.732C126.232 152.149 126.674 151.607 127.276 151.362C128.086 151.057 128.811 151.239 129.407 151.68C130.242 152.297 130.815 153.44 131.027 154.385C131.055 154.506 130.979 154.629 130.858 154.657C130.736 154.685 130.614 154.609 130.586 154.486Z" fill="black"/>
<path fill-rule="evenodd" clip-rule="evenodd" d="M183.254 167.56C183.796 166.708 184.649 166.08 185.573 165.841C186.523 165.596 187.545 165.758 188.379 166.48C188.898 166.957 189.254 167.643 189.218 168.3C189.185 168.893 188.847 169.467 188.024 169.808C187.986 169.826 187.94 169.809 187.923 169.771C187.905 169.733 187.921 169.688 187.959 169.67C188.64 169.31 188.903 168.807 188.89 168.294C188.884 168.07 188.823 167.847 188.724 167.634C188.583 167.326 188.358 167.042 188.087 166.823C187.738 166.529 187.352 166.351 186.956 166.269C186.537 166.18 186.106 166.198 185.692 166.307C184.876 166.515 184.119 167.06 183.634 167.807C183.566 167.912 183.426 167.942 183.321 167.874C183.216 167.806 183.186 167.664 183.254 167.56Z" fill="black"/>
<path fill-rule="evenodd" clip-rule="evenodd" d="M170.857 169.765C170.38 168.762 169.675 167.727 168.858 166.757C168.07 165.821 167.174 164.945 166.269 164.216C164.743 162.983 162.238 161.234 160.781 158.601C160.285 157.701 159.895 156.703 159.735 155.583C159.686 155.239 159.663 154.883 159.662 154.518C159.66 154.172 159.682 153.819 159.724 153.456C159.728 153.386 159.79 153.332 159.86 153.336C159.93 153.342 159.984 153.404 159.979 153.474C159.971 153.828 159.985 154.17 160.012 154.503C160.041 154.852 160.09 155.189 160.15 155.515C160.341 156.576 160.692 157.529 161.17 158.382C162.606 160.951 165.06 162.654 166.555 163.858C167.482 164.605 168.399 165.502 169.207 166.46C170.05 167.463 170.776 168.532 171.268 169.568C171.322 169.682 171.274 169.819 171.16 169.873C171.047 169.928 170.911 169.879 170.857 169.765Z" fill="black"/>
<path fill-rule="evenodd" clip-rule="evenodd" d="M162.396 121.066C161.829 121.264 161.309 121.539 160.832 121.855C160.502 122.074 160.192 122.314 159.903 122.564C159.785 122.668 159.669 122.772 159.556 122.877C159.382 123.04 159.216 123.207 159.058 123.374C158.625 123.836 158.258 124.312 157.97 124.762C157.957 124.784 157.928 124.792 157.905 124.777C157.882 124.765 157.875 124.734 157.889 124.713C158.155 124.24 158.494 123.733 158.911 123.242C159.064 123.063 159.227 122.886 159.401 122.715C159.515 122.603 159.633 122.495 159.755 122.39C160.053 122.134 160.379 121.897 160.726 121.686C161.227 121.384 161.776 121.138 162.365 120.967C162.392 120.959 162.422 120.974 162.43 121.001C162.439 121.029 162.423 121.057 162.396 121.066Z" fill="black"/>
<path fill-rule="evenodd" clip-rule="evenodd" d="M165.39 121.567C165.731 121.703 166.064 121.874 166.374 122.086C166.579 122.225 166.774 122.382 166.954 122.555C167.027 122.624 167.095 122.697 167.161 122.773C167.26 122.885 167.352 123.003 167.438 123.126C167.653 123.433 167.826 123.766 167.953 124.117C167.964 124.141 167.952 124.169 167.928 124.179C167.904 124.189 167.876 124.178 167.866 124.154C167.712 123.827 167.511 123.526 167.282 123.247C167.19 123.134 167.096 123.028 166.996 122.924C166.931 122.856 166.864 122.787 166.795 122.72C166.624 122.552 166.445 122.393 166.257 122.247C165.97 122.022 165.666 121.822 165.348 121.662C165.322 121.65 165.31 121.62 165.322 121.593C165.334 121.567 165.364 121.555 165.39 121.567Z" fill="black"/>
<path fill-rule="evenodd" clip-rule="evenodd" d="M164.307 122.009C166.296 122.381 168.325 124.137 169.458 124.737C170.311 125.189 168.741 126.456 168.673 128.164C168.589 130.248 161.637 121.51 164.307 122.009Z" fill="black"/>
<path fill-rule="evenodd" clip-rule="evenodd" d="M170.138 123.264C169.957 122.438 169.603 121.587 169.106 120.797C168.664 120.094 168.09 119.462 167.354 118.992C166.87 118.646 166.327 118.428 165.774 118.263C165.194 118.09 164.599 117.976 163.999 117.953C162.675 117.9 161.362 118.17 160.359 118.762C160.209 118.87 160 118.835 159.892 118.683C159.784 118.531 159.82 118.322 159.97 118.213C160.991 117.335 162.429 116.718 163.955 116.56C164.701 116.483 165.466 116.526 166.198 116.71C166.94 116.898 167.636 117.251 168.268 117.72C169.112 118.413 169.763 119.27 170.181 120.219C170.609 121.186 170.819 122.212 170.862 123.167C170.887 123.369 170.747 123.554 170.548 123.58C170.347 123.606 170.163 123.464 170.138 123.264Z" fill="black"/>
<path fill-rule="evenodd" clip-rule="evenodd" d="M164.778 122.028C167.922 123.014 169.588 126.669 168.497 130.186C167.405 133.703 163.967 135.759 160.822 134.773C157.678 133.787 156.011 130.131 157.104 126.614C158.195 123.097 161.634 121.042 164.778 122.028Z" fill="white"/>
<mask id="mask16" mask-type="alpha" maskUnits="userSpaceOnUse" x="156" y="121" width="13" height="15">
<path fill-rule="evenodd" clip-rule="evenodd" d="M164.778 122.028C167.922 123.013 169.589 126.669 168.497 130.186C167.406 133.703 163.966 135.759 160.822 134.773C157.678 133.787 156.012 130.131 157.104 126.613C158.01 123.694 160.536 121.781 163.166 121.781C163.704 121.781 164.244 121.86 164.778 122.028Z" fill="white"/>
</mask>
<g mask="url(#mask16)">
<path fill-rule="evenodd" clip-rule="evenodd" d="M164.265 124.135C166.626 124.851 167.886 127.62 167.077 130.312C166.268 133.006 163.695 134.612 161.335 133.896C158.975 133.181 157.715 130.412 158.524 127.719C159.332 125.025 161.905 123.419 164.265 124.135Z" fill="black"/>
</g>
<mask id="mask17" mask-type="alpha" maskUnits="userSpaceOnUse" x="156" y="121" width="13" height="15">
<path fill-rule="evenodd" clip-rule="evenodd" d="M164.778 122.028C167.922 123.013 169.589 126.669 168.497 130.186C167.406 133.703 163.966 135.759 160.822 134.773C157.678 133.787 156.012 130.131 157.104 126.613C158.01 123.694 160.536 121.781 163.166 121.781C163.704 121.781 164.244 121.86 164.778 122.028Z" fill="white"/>
</mask>
<g mask="url(#mask17)">
<path fill-rule="evenodd" clip-rule="evenodd" d="M160.119 128.308C159.979 129.008 160.012 129.601 160.139 130.099C160.359 130.955 160.98 131.434 161.685 131.596C162.293 131.736 162.969 131.652 163.547 131.27C164.077 130.922 164.543 130.377 164.794 129.577C164.876 129.258 165.199 129.065 165.516 129.147C165.832 129.228 166.024 129.553 165.943 129.872C165.593 131.629 164.482 132.681 163.27 133.09C162.628 133.307 161.946 133.329 161.316 133.18C160.877 133.076 160.459 132.887 160.101 132.612C159.016 131.781 158.324 130.219 159.041 128.017C159.121 127.719 159.427 127.541 159.725 127.621C160.022 127.701 160.199 128.01 160.119 128.308Z" fill="#8C181B"/>
</g>
<mask id="mask18" mask-type="alpha" maskUnits="userSpaceOnUse" x="156" y="121" width="13" height="15">
<path fill-rule="evenodd" clip-rule="evenodd" d="M164.778 122.028C167.922 123.013 169.589 126.669 168.497 130.186C167.406 133.703 163.966 135.759 160.822 134.773C157.678 133.787 156.012 130.131 157.104 126.613C158.01 123.694 160.536 121.781 163.166 121.781C163.704 121.781 164.244 121.86 164.778 122.028Z" fill="white"/>
</mask>
<g mask="url(#mask18)">
<path fill-rule="evenodd" clip-rule="evenodd" d="M163.631 125.913C164.083 125.56 164.754 125.662 165.127 126.142C165.5 126.62 165.435 127.295 164.982 127.648C164.529 128 163.859 127.898 163.487 127.418C163.114 126.94 163.178 126.265 163.631 125.913Z" fill="white"/>
</g>
<mask id="mask19" mask-type="alpha" maskUnits="userSpaceOnUse" x="156" y="121" width="13" height="15">
<path fill-rule="evenodd" clip-rule="evenodd" d="M164.778 122.028C167.922 123.013 169.589 126.669 168.497 130.186C167.406 133.703 163.966 135.759 160.822 134.773C157.678 133.787 156.012 130.131 157.104 126.613C158.01 123.694 160.536 121.781 163.166 121.781C163.704 121.781 164.244 121.86 164.778 122.028Z" fill="white"/>
</mask>
<g mask="url(#mask19)">
<path fill-rule="evenodd" clip-rule="evenodd" d="M159.967 131.145C160.278 131.145 160.531 131.41 160.532 131.736C160.532 132.064 160.28 132.328 159.969 132.327C159.659 132.327 159.406 132.062 159.405 131.734C159.405 131.408 159.657 131.144 159.967 131.145Z" fill="white"/>
</g>
<path fill-rule="evenodd" clip-rule="evenodd" d="M164.822 121.89C165.839 122.184 166.718 122.742 167.405 123.494C167.862 123.995 168.229 124.585 168.503 125.227C169.138 126.718 169.252 128.505 168.706 130.255C168.158 132.003 167.049 133.399 165.683 134.259C164.212 135.186 162.446 135.495 160.763 134.962C159.085 134.432 157.815 133.166 157.139 131.563C156.514 130.078 156.399 128.306 156.943 126.568C157.488 124.833 158.59 123.449 159.946 122.595C161.403 121.676 163.153 121.371 164.82 121.899L164.822 121.89ZM164.737 122.165C163.15 121.673 161.489 121.974 160.109 122.854C158.818 123.678 157.773 125.007 157.263 126.668C156.754 128.325 156.871 130.011 157.473 131.42C158.114 132.918 159.306 134.101 160.88 134.59C162.451 135.077 164.095 134.779 165.462 133.907C166.744 133.091 167.781 131.772 168.288 130.124C168.796 128.48 168.678 126.808 168.085 125.405C167.834 124.808 167.492 124.263 167.08 123.783C166.458 123.061 165.672 122.491 164.735 122.172L164.737 122.165Z" fill="black"/>
<path fill-rule="evenodd" clip-rule="evenodd" d="M141.184 120.523C141.396 120.188 141.638 119.861 141.917 119.566C142.102 119.369 142.304 119.188 142.519 119.025C142.605 118.959 142.695 118.899 142.787 118.842C142.926 118.757 143.069 118.68 143.217 118.611C143.583 118.444 143.973 118.333 144.38 118.29C144.407 118.286 144.43 118.304 144.434 118.33C144.439 118.356 144.42 118.38 144.395 118.384C144.007 118.46 143.646 118.603 143.305 118.789C143.169 118.863 143.038 118.945 142.908 119.032C142.822 119.089 142.739 119.15 142.655 119.211C142.446 119.363 142.246 119.529 142.057 119.708C141.768 119.979 141.501 120.272 141.269 120.582C141.253 120.606 141.221 120.612 141.197 120.596C141.174 120.58 141.168 120.546 141.184 120.523Z" fill="black"/>
<path fill-rule="evenodd" clip-rule="evenodd" d="M147.226 119.477C147.454 119.747 147.652 120.049 147.816 120.372C147.924 120.585 148.016 120.805 148.096 121.033C148.127 121.122 148.156 121.214 148.181 121.306C148.22 121.444 148.254 121.583 148.283 121.722C148.358 122.077 148.407 122.433 148.444 122.777C148.449 122.802 148.431 122.827 148.405 122.831C148.38 122.835 148.355 122.818 148.351 122.791C148.308 122.589 148.258 122.385 148.204 122.176C148.152 121.975 148.094 121.772 148.032 121.57C147.991 121.438 147.946 121.306 147.902 121.173C147.857 121.041 147.813 120.91 147.764 120.78C147.699 120.606 147.629 120.434 147.552 120.267C147.434 120.012 147.302 119.766 147.144 119.54C147.127 119.518 147.131 119.485 147.153 119.468C147.176 119.451 147.208 119.454 147.226 119.477Z" fill="black"/>
<path fill-rule="evenodd" clip-rule="evenodd" d="M145.435 119.019C143.903 118.896 142.525 119.039 141.509 119.205C140.364 119.392 141.074 120.527 140.347 122.74C139.697 124.722 148.142 119.237 145.435 119.019Z" fill="black"/>
<path fill-rule="evenodd" clip-rule="evenodd" d="M149.104 115.621C148.674 115.337 148.156 115.137 147.593 115.003C147.116 114.887 146.614 114.864 146.097 114.96C145.748 114.997 145.423 115.117 145.106 115.247C144.766 115.389 144.435 115.54 144.134 115.746C143.444 116.217 142.864 116.797 142.578 117.451C142.528 117.628 142.342 117.733 142.164 117.682C141.986 117.631 141.884 117.445 141.934 117.266C142.004 116.721 142.21 116.168 142.517 115.626C142.71 115.286 142.956 114.976 143.233 114.685C143.581 114.318 143.989 114.004 144.449 113.778C144.912 113.55 145.431 113.436 145.961 113.398C146.697 113.404 147.396 113.544 148.008 113.853C148.639 114.17 149.171 114.596 149.584 115.068C149.735 115.201 149.751 115.434 149.619 115.586C149.486 115.739 149.255 115.755 149.104 115.621Z" fill="black"/>
<path fill-rule="evenodd" clip-rule="evenodd" d="M145.262 119.093C147.593 119.535 148.976 122.601 148.349 125.935C147.722 129.269 145.32 131.617 142.991 131.175C140.66 130.732 139.277 127.667 139.903 124.332C140.53 120.997 142.932 118.65 145.262 119.093Z" fill="white"/>
<mask id="mask20" mask-type="alpha" maskUnits="userSpaceOnUse" x="139" y="119" width="10" height="13">
<path fill-rule="evenodd" clip-rule="evenodd" d="M145.262 119.093C147.593 119.536 148.975 122.602 148.349 125.937C147.722 129.27 145.32 131.618 142.991 131.176C140.66 130.733 139.277 127.667 139.903 124.333C140.48 121.271 142.552 119.039 144.692 119.039C144.882 119.039 145.072 119.057 145.262 119.093Z" fill="white"/>
</mask>
<g mask="url(#mask20)">
<path fill-rule="evenodd" clip-rule="evenodd" d="M145.716 121.107C147.804 121.325 149.05 123.643 148.5 126.278C147.949 128.912 145.808 130.872 143.721 130.652C141.634 130.432 140.387 128.116 140.937 125.481C141.488 122.847 143.629 120.887 145.716 121.107Z" fill="black"/>
</g>
<mask id="mask21" mask-type="alpha" maskUnits="userSpaceOnUse" x="139" y="119" width="10" height="13">
<path fill-rule="evenodd" clip-rule="evenodd" d="M145.262 119.093C147.593 119.536 148.975 122.602 148.349 125.937C147.722 129.27 145.32 131.618 142.991 131.176C140.66 130.733 139.277 127.667 139.903 124.333C140.48 121.271 142.552 119.039 144.692 119.039C144.882 119.039 145.072 119.057 145.262 119.093Z" fill="white"/>
</mask>
<g mask="url(#mask21)">
<path fill-rule="evenodd" clip-rule="evenodd" d="M142.424 125.975C142.324 126.709 142.456 127.294 142.7 127.731C142.95 128.182 143.377 128.403 143.829 128.41C144.274 128.415 144.739 128.215 145.131 127.76C145.478 127.356 145.791 126.81 145.984 126.065C146.043 125.742 146.354 125.529 146.676 125.59C146.997 125.651 147.209 125.962 147.148 126.285C146.949 127.88 146.276 128.915 145.508 129.484C144.974 129.88 144.37 130.048 143.798 130.036C143.374 130.026 142.959 129.918 142.595 129.705C141.555 129.1 140.782 127.709 141.331 125.742C141.396 125.439 141.692 125.245 141.993 125.309C142.295 125.374 142.487 125.672 142.424 125.975Z" fill="#8C181B"/>
</g>
<mask id="mask22" mask-type="alpha" maskUnits="userSpaceOnUse" x="139" y="119" width="10" height="13">
<path fill-rule="evenodd" clip-rule="evenodd" d="M145.262 119.093C147.593 119.536 148.975 122.602 148.349 125.937C147.722 129.27 145.32 131.618 142.991 131.176C140.66 130.733 139.277 127.667 139.903 124.333C140.48 121.271 142.552 119.039 144.692 119.039C144.882 119.039 145.072 119.057 145.262 119.093Z" fill="white"/>
</mask>
<g mask="url(#mask22)">
<path fill-rule="evenodd" clip-rule="evenodd" d="M147.036 123.156C147.447 123.536 147.489 124.136 147.13 124.496C146.77 124.855 146.144 124.839 145.733 124.458C145.321 124.078 145.281 123.478 145.64 123.118C145.999 122.758 146.624 122.776 147.036 123.156Z" fill="white"/>
</g>
<mask id="mask23" mask-type="alpha" maskUnits="userSpaceOnUse" x="139" y="119" width="10" height="13">
<path fill-rule="evenodd" clip-rule="evenodd" d="M145.262 119.093C147.593 119.536 148.975 122.602 148.349 125.937C147.722 129.27 145.32 131.618 142.991 131.176C140.66 130.733 139.277 127.667 139.903 124.333C140.48 121.271 142.552 119.039 144.692 119.039C144.882 119.039 145.072 119.057 145.262 119.093Z" fill="white"/>
</mask>
<g mask="url(#mask23)">
<path fill-rule="evenodd" clip-rule="evenodd" d="M142.671 128.414C142.887 128.689 142.851 129.078 142.594 129.282C142.335 129.486 141.951 129.428 141.736 129.154C141.521 128.879 141.556 128.49 141.814 128.287C142.072 128.082 142.456 128.139 142.671 128.414Z" fill="white"/>
</g>
<path fill-rule="evenodd" clip-rule="evenodd" d="M145.282 118.985C146.374 119.186 147.269 119.943 147.861 121.034C148.565 122.333 148.839 124.105 148.499 125.964C148.158 127.829 147.27 129.393 146.149 130.359C145.193 131.182 144.066 131.571 142.955 131.367C141.84 131.159 140.923 130.387 140.32 129.272C139.612 127.96 139.339 126.167 139.687 124.291C139.854 123.413 140.137 122.601 140.514 121.89C140.943 121.083 141.488 120.404 142.098 119.902C143.063 119.108 144.189 118.747 145.283 118.98L145.282 118.985ZM145.241 119.205C144.221 119.034 143.205 119.424 142.34 120.187C141.782 120.679 141.289 121.328 140.897 122.092C140.547 122.771 140.275 123.539 140.12 124.373C139.782 126.141 140.025 127.832 140.686 129.074C141.219 130.079 142.027 130.789 143.026 130.983C144.259 131.223 145.51 130.632 146.489 129.526C147.296 128.616 147.918 127.357 148.198 125.906C148.543 124.121 148.302 122.412 147.637 121.155C147.093 120.125 146.265 119.401 145.241 119.201V119.205Z" fill="black"/>
<path fill-rule="evenodd" clip-rule="evenodd" d="M148.455 149.533C153.662 151.074 157.996 146.4 158.793 137.34C158.427 137.247 158.322 137.235 157.954 137.154C154.209 139.048 149.068 138.809 144.808 136.391C146.213 138.503 148.573 142.054 148.455 149.533Z" fill="black"/>
<mask id="mask24" mask-type="alpha" maskUnits="userSpaceOnUse" x="144" y="136" width="15" height="14">
<path fill-rule="evenodd" clip-rule="evenodd" d="M157.954 137.157C158.322 137.239 158.427 137.25 158.793 137.343C157.995 146.403 153.662 151.078 148.455 149.536C148.573 142.057 146.213 138.507 144.808 136.395C149.068 138.813 154.208 139.052 157.954 137.157Z" fill="white"/>
</mask>
<g mask="url(#mask24)">
<path fill-rule="evenodd" clip-rule="evenodd" d="M152.425 143.913C155.449 141.293 158.937 140.369 160.209 141.852C161.48 143.335 160.058 146.666 157.035 149.285C154.011 151.905 150.523 152.829 149.251 151.347C147.979 149.865 149.401 146.535 152.425 143.913Z" fill="#F48EAA"/>
</g>
<mask id="mask25" mask-type="alpha" maskUnits="userSpaceOnUse" x="144" y="136" width="15" height="14">
<path fill-rule="evenodd" clip-rule="evenodd" d="M157.954 137.157C158.322 137.239 158.427 137.25 158.793 137.343C157.995 146.403 153.662 151.078 148.455 149.536C148.573 142.057 146.213 138.507 144.808 136.395C149.068 138.813 154.208 139.052 157.954 137.157Z" fill="white"/>
</mask>
<g mask="url(#mask25)">
<path fill-rule="evenodd" clip-rule="evenodd" d="M147.131 134.834C147.415 136.274 147.95 137.041 148.632 137.475C148.937 137.67 149.285 137.732 149.645 137.8C150.281 137.92 150.97 137.907 151.668 137.9C152.298 137.937 152.976 137.899 153.668 137.867C154.695 137.821 155.74 137.762 156.717 137.575C157.962 137.336 159.074 137.036 159.791 136.446C160.008 136.215 160.37 136.203 160.601 136.421C160.831 136.639 160.843 137.003 160.626 137.236C159.813 138.357 158.246 139.303 156.411 139.951C155.487 140.277 154.502 140.506 153.532 140.618C152.847 140.697 152.169 140.682 151.535 140.653C149.93 140.453 148.342 140.22 147.277 139.181C146.425 138.35 145.792 137.086 145.885 134.929C145.859 134.584 146.117 134.282 146.461 134.256C146.805 134.229 147.106 134.489 147.131 134.834Z" fill="white"/>
</g>
<path fill-rule="evenodd" clip-rule="evenodd" d="M143.345 135.216C143.704 134.958 144.014 134.664 144.271 134.329C144.57 133.938 144.797 133.492 144.948 132.98C144.97 132.911 144.931 132.837 144.861 132.815C144.791 132.793 144.717 132.832 144.696 132.902C144.544 133.375 144.324 133.787 144.038 134.146C143.751 134.505 143.398 134.811 142.981 135.072C142.938 135.101 142.91 135.149 142.907 135.201C142.904 135.254 142.928 135.305 142.969 135.337C145.202 137.119 147.754 138.145 150.259 138.506C153.093 138.916 155.861 138.477 158.029 137.378C158.155 137.426 158.278 137.47 158.398 137.506C158.438 137.518 158.476 137.528 158.514 137.538C158.214 139.77 157.962 141.493 157.424 143.096C157.033 144.259 156.493 145.361 155.669 146.553C154.687 147.979 153.412 148.904 152.077 149.36C151.48 149.564 150.871 149.676 150.267 149.697C149.328 149.726 148.403 149.54 147.566 149.118C147.516 149.092 147.452 149.111 147.425 149.161C147.398 149.212 147.416 149.276 147.468 149.304C148.463 149.875 149.604 150.133 150.763 150.05C151.247 150.015 151.732 149.918 152.21 149.763C153.633 149.303 154.987 148.317 156.037 146.811C156.891 145.582 157.454 144.445 157.86 143.244C158.427 141.565 158.685 139.757 159.005 137.381C159.023 137.254 158.933 137.136 158.806 137.118C158.717 137.106 158.625 137.085 158.531 137.057C158.391 137.015 158.246 136.961 158.1 136.904C158.038 136.88 157.968 136.884 157.908 136.914C155.806 138.016 153.099 138.447 150.319 138.071C147.939 137.749 145.503 136.838 143.345 135.216Z" fill="black"/>
<path d="M144.808 136.395C146.374 138.497 148.478 142.786 148.456 149.467" stroke="black" stroke-width="0.481" stroke-linecap="round" stroke-linejoin="round"/>
<path fill-rule="evenodd" clip-rule="evenodd" d="M156.693 135.848C156.943 136.162 157.235 136.404 157.546 136.603C157.758 136.739 157.981 136.846 158.212 136.937C158.443 137.029 158.679 137.105 158.926 137.154C159.294 137.226 159.675 137.255 160.071 137.219C160.137 137.209 160.2 137.255 160.21 137.322C160.22 137.388 160.175 137.452 160.109 137.461C159.688 137.557 159.273 137.59 158.87 137.552C158.585 137.525 158.307 137.464 158.046 137.363C157.782 137.259 157.536 137.114 157.311 136.937C156.992 136.684 156.722 136.363 156.5 135.982C156.463 135.928 156.476 135.855 156.53 135.817C156.583 135.781 156.656 135.794 156.693 135.848Z" fill="black"/>
<path fill-rule="evenodd" clip-rule="evenodd" d="M172.658 121.019C167.073 121.8 160.069 117.258 155.024 115.29C150.333 113.461 145.684 112.95 142.804 113.58C148.316 108.231 170.114 114.829 172.658 121.019Z" fill="white"/>
<mask id="mask26" mask-type="alpha" maskUnits="userSpaceOnUse" x="142" y="111" width="31" height="11">
<path fill-rule="evenodd" clip-rule="evenodd" d="M172.659 121.02C167.073 121.8 160.068 117.257 155.024 115.29C150.332 113.461 145.685 112.95 142.805 113.581C144.229 112.198 146.741 111.613 149.726 111.613C158.296 111.611 170.772 116.427 172.659 121.02Z" fill="white"/>
</mask>
<g mask="url(#mask26)">
<path fill-rule="evenodd" clip-rule="evenodd" d="M151.083 112.253C149.129 112.392 147.187 113.061 145.462 113.982C143.848 114.846 141.439 113.561 139.647 114C141.966 112.746 148.205 111.765 151.083 112.253Z" fill="#BDBDBC"/>
</g>
<path fill-rule="evenodd" clip-rule="evenodd" d="M172.658 121.019C167.073 121.8 160.069 117.258 155.024 115.29C150.333 113.461 145.684 112.95 142.804 113.58C148.316 108.231 170.114 114.829 172.658 121.019Z" stroke="black" stroke-width="0.481" stroke-linecap="round" stroke-linejoin="round"/>
<path fill-rule="evenodd" clip-rule="evenodd" d="M179.698 134.631C181.705 120.826 153.358 107.66 142.804 113.58C147.58 104.955 163.57 99.9035 175.319 110.633C184.717 119.216 181.878 130.556 179.698 134.631Z" fill="white"/>
<mask id="mask27" mask-type="alpha" maskUnits="userSpaceOnUse" x="142" y="104" width="40" height="31">
<path fill-rule="evenodd" clip-rule="evenodd" d="M175.319 110.633C184.717 119.216 181.878 130.556 179.698 134.631C181.705 120.826 153.358 107.661 142.805 113.581C145.657 108.428 152.512 104.552 160.073 104.551C165.17 104.551 170.588 106.312 175.319 110.633Z" fill="white"/>
</mask>
<g mask="url(#mask27)">
<path fill-rule="evenodd" clip-rule="evenodd" d="M163.714 112.976C165.613 113.793 167.61 114.919 169.552 116.241C170.139 114.072 170.685 112.037 171.193 110.125C169.434 108.992 167.637 108.085 165.805 107.398C165.121 109.184 164.494 110.963 163.714 112.976Z" fill="#700D20"/>
</g>
<mask id="mask28" mask-type="alpha" maskUnits="userSpaceOnUse" x="142" y="104" width="40" height="31">
<path fill-rule="evenodd" clip-rule="evenodd" d="M175.319 110.633C184.717 119.216 181.878 130.556 179.698 134.631C181.705 120.826 153.358 107.661 142.805 113.581C145.657 108.428 152.512 104.552 160.073 104.551C165.17 104.551 170.588 106.312 175.319 110.633Z" fill="white"/>
</mask>
<g mask="url(#mask28)">
<path fill-rule="evenodd" clip-rule="evenodd" d="M160.341 109.882C160.489 110.129 160.724 110.293 161.018 110.358C161.728 110.513 162.517 110.038 162.827 109.265C163.128 108.515 162.828 107.792 162.133 107.631C161.846 107.564 161.534 107.604 161.23 107.746C161.225 107.748 161.219 107.75 161.214 107.753C161.113 107.531 161.013 107.312 160.913 107.095C160.918 107.092 160.925 107.09 160.932 107.087C161.434 106.831 161.979 106.752 162.457 106.864C163.576 107.128 164.095 108.322 163.633 109.489C163.149 110.713 161.829 111.48 160.672 111.229C160.174 111.12 159.771 110.824 159.54 110.391L159.532 110.377C159.8 110.205 160.067 110.036 160.333 109.87C160.336 109.874 160.339 109.878 160.341 109.882ZM158.59 110.704C158.322 110.663 158.054 110.627 157.785 110.594C158.392 109.156 158.991 107.778 159.581 106.46C159.84 106.494 160.098 106.532 160.356 106.572C159.777 107.887 159.188 109.267 158.59 110.704ZM155.269 108.815C155.307 108.755 157.848 106.273 157.862 106.281C158.119 106.298 158.374 106.319 158.629 106.344C158.028 107.664 157.416 109.043 156.796 110.479C156.526 110.454 156.254 110.433 155.981 110.416C156.361 109.55 156.739 108.706 157.112 107.88C156.989 107.979 154.533 110.393 154.547 110.395C154.552 110.389 154.341 107.942 154.327 107.843C153.932 108.669 153.536 109.51 153.135 110.371C152.856 110.38 152.576 110.393 152.295 110.41C152.969 108.987 153.635 107.609 154.291 106.279C154.556 106.261 154.821 106.248 155.084 106.238C155.087 106.233 155.269 108.753 155.269 108.815ZM149.991 109.922C150.272 109.879 150.552 109.84 150.829 109.806C150.993 109.473 151.157 109.143 151.32 108.814C151.044 108.85 150.767 108.89 150.488 108.933C150.096 108.994 149.828 109.273 149.709 109.509C149.588 109.75 149.597 109.983 149.991 109.922ZM152.141 107.178C151.886 107.211 151.629 107.248 151.372 107.289C151.048 107.341 150.769 107.541 150.627 107.817C150.484 108.095 150.594 108.226 150.921 108.175C151.18 108.134 151.438 108.097 151.695 108.064C151.844 107.766 151.993 107.472 152.141 107.178ZM149.859 108.679C149.721 108.613 149.553 108.398 149.788 107.946C150.147 107.257 150.876 106.717 151.675 106.586C152.231 106.495 152.783 106.423 153.329 106.368C152.661 107.699 151.984 109.076 151.3 110.495C150.711 110.55 150.117 110.623 149.52 110.714C148.707 110.838 148.434 110.471 148.822 109.712C149.108 109.155 149.579 108.829 149.859 108.679Z" fill="#781214"/>
</g>
<mask id="mask29" mask-type="alpha" maskUnits="userSpaceOnUse" x="142" y="104" width="40" height="31">
<path fill-rule="evenodd" clip-rule="evenodd" d="M175.319 110.633C184.717 119.216 181.878 130.556 179.698 134.631C181.705 120.826 153.358 107.661 142.805 113.581C145.657 108.428 152.512 104.552 160.073 104.551C165.17 104.551 170.588 106.312 175.319 110.633Z" fill="white"/>
</mask>
<g mask="url(#mask29)">
<path fill-rule="evenodd" clip-rule="evenodd" d="M170.563 110.752C169.607 110.167 168.641 109.646 167.665 109.191C166.972 109.551 166.26 109.933 165.531 110.336C165.79 111.218 166.051 112.138 166.316 113.099C167.359 113.596 168.393 114.169 169.415 114.817C169.173 113.785 168.936 112.793 168.701 111.843C169.337 111.461 169.957 111.098 170.563 110.752Z" fill="#EF3737"/>
</g>
<mask id="mask30" mask-type="alpha" maskUnits="userSpaceOnUse" x="142" y="104" width="40" height="31">
<path fill-rule="evenodd" clip-rule="evenodd" d="M175.319 110.633C184.717 119.216 181.878 130.556 179.698 134.631C181.705 120.826 153.358 107.661 142.805 113.581C145.657 108.428 152.512 104.552 160.073 104.551C165.17 104.551 170.588 106.312 175.319 110.633Z" fill="white"/>
</mask>
<g mask="url(#mask30)">
<path fill-rule="evenodd" clip-rule="evenodd" d="M165.531 110.336C166.261 109.932 166.972 109.551 167.665 109.191C168.641 109.645 169.607 110.166 170.562 110.752C169.958 111.098 169.337 111.461 168.701 111.842" fill="white"/>
</g>
<mask id="mask31" mask-type="alpha" maskUnits="userSpaceOnUse" x="142" y="104" width="18" height="10">
<path fill-rule="evenodd" clip-rule="evenodd" d="M159.94 104.551L159.676 104.553C152.272 104.687 145.607 108.517 142.805 113.58L142.84 113.518H142.921L143.127 113.408C146.784 111.55 152.389 111.818 158.125 113.516L159.94 113.518" fill="white"/>
</mask>
<g mask="url(#mask31)">
<path fill-rule="evenodd" clip-rule="evenodd" d="M151.509 105.549C149.134 106.07 146.383 109.161 145.551 113.25C144.042 113.287 142.732 113.525 141.368 114.6C141.665 111.719 142.314 109.736 143.695 107.89C145.413 105.595 146.866 105.072 149.01 105.015C149.783 104.995 150.786 104.909 151.509 105.549Z" fill="#BDBDBC"/>
</g>
<mask id="mask32" mask-type="alpha" maskUnits="userSpaceOnUse" x="142" y="104" width="40" height="31">
<path fill-rule="evenodd" clip-rule="evenodd" d="M175.319 110.633C184.717 119.216 181.878 130.556 179.698 134.631C181.705 120.826 153.358 107.661 142.805 113.581C145.657 108.428 152.512 104.552 160.073 104.551C165.17 104.551 170.588 106.312 175.319 110.633Z" fill="white"/>
</mask>
<g mask="url(#mask32)">
<path fill-rule="evenodd" clip-rule="evenodd" d="M177.078 132.899C178.408 126.567 176.561 113.999 173.579 110.099C172.386 108.899 171.317 107.459 170 107.099C171.979 107.04 173.542 109.699 175.219 110.674C176.682 111.523 178.621 114.823 179.755 116.099C183.717 120.56 182.019 128.333 179.755 134.105C178.799 133.768 178.045 133.211 177.078 132.899Z" fill="#BDBDBC"/>
</g>
<path fill-rule="evenodd" clip-rule="evenodd" d="M179.698 134.631C181.705 120.826 153.358 107.66 142.804 113.58C147.58 104.955 163.57 99.9035 175.319 110.633C184.717 119.216 181.878 130.556 179.698 134.631Z" stroke="black" stroke-width="0.481" stroke-linecap="round" stroke-linejoin="round"/>
<path fill-rule="evenodd" clip-rule="evenodd" d="M170.286 119.285C171.316 116.468 171.753 113.448 171.34 110.969C171.178 109.998 170.881 109.114 170.446 108.351C170.167 107.863 169.835 107.424 169.435 107.047C169.169 106.796 168.877 106.57 168.552 106.377C168.494 106.344 168.473 106.272 168.504 106.215C168.535 106.157 168.607 106.136 168.665 106.166C169.298 106.48 169.838 106.902 170.284 107.417C170.476 107.64 170.649 107.881 170.805 108.135C171.289 108.928 171.605 109.868 171.782 110.894C172.22 113.44 171.769 116.546 170.714 119.443C170.67 119.561 170.539 119.622 170.422 119.579C170.304 119.536 170.243 119.403 170.286 119.285Z" fill="black"/>
<path fill-rule="evenodd" clip-rule="evenodd" d="M146.153 170.918C146.399 169.806 146.382 168.659 146.184 167.529C145.946 166.181 145.419 164.876 144.807 163.657C144.746 163.532 144.684 163.409 144.626 163.284C144.538 163.09 144.463 162.898 144.375 162.707C144.345 162.658 144.359 162.593 144.409 162.563C144.457 162.532 144.52 162.547 144.552 162.595C144.629 162.687 144.705 162.773 144.779 162.869C144.888 163.009 144.991 163.152 145.086 163.304C145.273 163.603 145.426 163.923 145.58 164.245C145.936 164.992 146.225 165.779 146.434 166.579C146.813 168.041 146.91 169.557 146.589 171.016C146.562 171.136 146.443 171.213 146.323 171.186C146.203 171.159 146.127 171.039 146.153 170.918Z" fill="black"/>
<mask id="mask33" mask-type="alpha" maskUnits="userSpaceOnUse" x="134" y="143" width="25" height="30">
<path fill-rule="evenodd" clip-rule="evenodd" d="M158.262 172.15H134.523V143.91H158.262M155.375 167.063C155.946 165.977 155.999 164.466 155.769 163.29C155.352 161.151 152.688 156.152 150.522 155.06L150.287 155.283C151.203 157.284 151.971 159.245 151.995 161.483C152.023 164.164 151.297 166.831 151.743 169.511C153.125 168.964 154.636 168.462 155.375 167.063Z" fill="white"/>
</mask>
<g mask="url(#mask33)">
<path fill-rule="evenodd" clip-rule="evenodd" d="M137.015 148.742C136.9 148.497 136.917 148.211 137.06 147.983C137.204 147.756 137.453 147.617 137.722 147.617C139.663 147.616 143.411 147.614 145.417 147.613C146.236 147.613 146.983 148.088 147.336 148.832C148.893 152.124 153.164 161.15 154.591 164.169C154.694 164.385 154.678 164.639 154.552 164.842C154.424 165.044 154.202 165.167 153.964 165.167C152.098 165.168 148.312 165.169 146.234 165.17C145.35 165.171 144.547 164.659 144.167 163.859C142.596 160.538 138.485 151.847 137.015 148.742Z" fill="#F79120"/>
</g>
<mask id="mask34" mask-type="alpha" maskUnits="userSpaceOnUse" x="134" y="143" width="25" height="30">
<path fill-rule="evenodd" clip-rule="evenodd" d="M158.262 172.15H134.523V143.91H158.262V172.15ZM155.375 167.063C155.946 165.977 155.999 164.466 155.769 163.29C155.352 161.151 152.688 156.152 150.522 155.06L150.287 155.283C151.203 157.284 151.971 159.245 151.995 161.483C152.023 164.164 151.297 166.831 151.743 169.511C153.125 168.964 154.636 168.462 155.375 167.063Z" fill="white"/>
</mask>
<g mask="url(#mask34)">
<path fill-rule="evenodd" clip-rule="evenodd" d="M137.015 148.742C136.9 148.497 136.917 148.211 137.06 147.983C137.204 147.756 137.453 147.617 137.722 147.617C139.663 147.616 143.411 147.614 145.417 147.613C146.236 147.613 146.983 148.088 147.336 148.832C148.893 152.124 153.164 161.15 154.591 164.169C154.694 164.385 154.678 164.639 154.552 164.842C154.424 165.044 154.202 165.167 153.964 165.167C152.098 165.168 148.312 165.169 146.234 165.17C145.35 165.171 144.547 164.659 144.167 163.859C142.596 160.538 138.485 151.847 137.015 148.742Z" stroke="black" stroke-width="0.478" stroke-linecap="round" stroke-linejoin="round"/>
</g>
<mask id="mask35" mask-type="alpha" maskUnits="userSpaceOnUse" x="134" y="143" width="25" height="30">
<path fill-rule="evenodd" clip-rule="evenodd" d="M158.262 172.15H134.523V143.91H158.262M155.375 167.063C155.946 165.977 155.999 164.466 155.769 163.29C155.352 161.151 152.688 156.152 150.522 155.06L150.287 155.283C151.203 157.284 151.971 159.245 151.995 161.483C152.023 164.164 151.297 166.831 151.743 169.511C153.125 168.964 154.636 168.462 155.375 167.063Z" fill="white"/>
</mask>
<g mask="url(#mask35)">
<path d="M152.173 160.222C152.173 160.222 148.226 151.9 146.872 149.049C146.598 148.471 146.019 148.105 145.383 148.105C143.052 148.109 137.621 148.116 137.621 148.116" stroke="#FCBC7B" stroke-width="0.508" stroke-linecap="round" stroke-linejoin="round"/>
</g>
<mask id="mask36" mask-type="alpha" maskUnits="userSpaceOnUse" x="134" y="143" width="25" height="30">
<path fill-rule="evenodd" clip-rule="evenodd" d="M158.262 172.15H134.523V143.91H158.262M155.375 167.063C155.946 165.977 155.999 164.466 155.769 163.29C155.352 161.151 152.688 156.152 150.522 155.06L150.287 155.283C151.203 157.284 151.971 159.245 151.995 161.483C152.023 164.164 151.297 166.831 151.743 169.511C153.125 168.964 154.636 168.462 155.375 167.063Z" fill="white"/>
</mask>
<g mask="url(#mask36)">
<path d="M147.893 150.013C147.618 150.665 146.928 150.887 145.773 150.875C144.618 150.865 137.987 150.8 137.987 150.8" stroke="black" stroke-width="0.478" stroke-linecap="round" stroke-linejoin="round"/>
</g>
<mask id="mask37" mask-type="alpha" maskUnits="userSpaceOnUse" x="134" y="143" width="25" height="30">
<path fill-rule="evenodd" clip-rule="evenodd" d="M158.262 172.15H134.523V143.91H158.262M155.375 167.063C155.946 165.977 155.999 164.466 155.769 163.29C155.352 161.151 152.688 156.152 150.522 155.06L150.287 155.283C151.203 157.284 151.971 159.245 151.995 161.483C152.023 164.164 151.297 166.831 151.743 169.511C153.125 168.964 154.636 168.462 155.375 167.063Z" fill="white"/>
</mask>
<g mask="url(#mask37)">
<path fill-rule="evenodd" clip-rule="evenodd" d="M143.202 149.33C143.188 149.199 143.23 149.069 143.318 148.971C143.405 148.873 143.53 148.816 143.662 148.816H144.899C145.136 148.816 145.334 148.994 145.36 149.231C145.36 149.243 145.362 149.255 145.363 149.267C145.377 149.398 145.335 149.528 145.247 149.627C145.16 149.725 145.035 149.781 144.903 149.781H143.666C143.429 149.781 143.231 149.601 143.206 149.365C143.205 149.353 143.203 149.343 143.202 149.33Z" fill="#231F20"/>
</g>
<mask id="mask38" mask-type="alpha" maskUnits="userSpaceOnUse" x="134" y="143" width="25" height="30">
<path fill-rule="evenodd" clip-rule="evenodd" d="M158.262 172.15H134.523V143.91H158.262V172.15ZM155.375 167.063C155.946 165.977 155.999 164.466 155.769 163.29C155.352 161.151 152.688 156.152 150.522 155.06L150.287 155.283C151.203 157.284 151.971 159.245 151.995 161.483C152.023 164.164 151.297 166.831 151.743 169.511C153.125 168.964 154.636 168.462 155.375 167.063Z" fill="white"/>
</mask>
<g mask="url(#mask38)">
<path fill-rule="evenodd" clip-rule="evenodd" d="M143.202 149.33C143.188 149.199 143.23 149.069 143.318 148.971C143.405 148.873 143.53 148.816 143.662 148.816H144.899C145.136 148.816 145.334 148.994 145.36 149.231C145.36 149.243 145.362 149.255 145.363 149.267C145.377 149.398 145.335 149.528 145.247 149.627C145.16 149.725 145.035 149.781 144.903 149.781H143.666C143.429 149.781 143.231 149.601 143.206 149.365C143.205 149.353 143.203 149.343 143.202 149.33Z" stroke="black" stroke-width="0.478" stroke-linecap="round" stroke-linejoin="round"/>
</g>
<path fill-rule="evenodd" clip-rule="evenodd" d="M148.72 151.228C149.404 151.035 150.302 151.274 151.247 151.867C152.315 152.537 153.434 153.664 154.38 155.191C155.121 156.385 155.611 157.483 155.97 158.535C156.949 161.401 156.955 163.914 158.27 167.01C158.706 168.033 159.16 169.261 160.256 170.13C160.7 170.482 161.245 170.788 161.942 170.976C162.274 171.067 162.641 171.128 163.045 171.161C163.279 171.179 163.525 171.185 163.784 171.182C163.867 171.185 163.938 171.118 163.941 171.032C163.944 170.949 163.878 170.877 163.794 170.874C163.545 170.854 163.311 170.824 163.088 170.79C162.711 170.731 162.371 170.651 162.061 170.556C161.433 170.365 160.931 170.107 160.528 169.785C159.498 168.965 159.088 167.798 158.679 166.834C157.371 163.749 157.37 161.244 156.397 158.386C156.029 157.308 155.525 156.179 154.765 154.951C153.776 153.354 152.604 152.179 151.487 151.48C150.278 150.721 149.125 150.522 148.313 150.892C148.257 150.917 148.214 150.964 148.193 151.021C148.173 151.079 148.176 151.142 148.202 151.198C148.657 152.16 149 152.806 149.403 153.655C149.624 154.117 149.863 154.64 150.147 155.309C151.102 157.553 151.525 159.328 151.681 160.871C152.007 164.092 151.189 166.314 151.6 169.654C151.615 169.779 151.729 169.869 151.854 169.853C151.978 169.837 152.067 169.722 152.051 169.599C151.642 166.263 152.459 164.041 152.134 160.825C151.974 159.245 151.543 157.428 150.565 155.129C150.277 154.454 150.037 153.925 149.814 153.458C149.443 152.677 149.122 152.069 148.72 151.228Z" fill="black"/>
</svg>
