<svg xmlns="http://www.w3.org/2000/svg" fill="none" viewBox="19 18 16 16">
<path d="M27 18C27.3313 18 27.6 18.2686 27.6 18.6V28.2013L29.4041 26.3971C29.6385 26.1628 30.0184 26.1628 30.2527 26.3971C30.4635 26.608 30.4846 26.9368 30.3159 27.1713L30.2527 27.2456L27.8485 29.6498C27.4092 30.0891 26.7139 30.1166 26.2426 29.7322L26.1514 29.6498L23.7473 27.2456C23.513 27.0113 23.513 26.6314 23.7473 26.3971C23.9582 26.1862 24.287 26.1651 24.5214 26.3338L24.5958 26.3971L26.4 28.2013V18.6C26.4 18.2686 26.6686 18 27 18Z" fill="#FF0000"/>
<path d="M19.5984 32.8C19.267 32.8 18.9984 33.0686 18.9984 33.4C18.9984 33.7314 19.267 34 19.5984 34H34.3984C34.7298 34 34.9984 33.7314 34.9984 33.4C34.9984 33.0686 34.7298 32.8 34.3984 32.8H19.5984Z" fill="#FF0000"/>
</svg>