<svg width="25" height="24" viewBox="0 0 25 24" fill="none" xmlns="http://www.w3.org/2000/svg">
<path fill-rule="evenodd" clip-rule="evenodd" d="M8.49999 4C8.16862 4 7.89999 4.26863 7.89999 4.6V6H5.1C4.76863 6 4.5 6.26863 4.5 6.6V19.4C4.5 19.7314 4.76863 20 5.1 20H19.9C20.2314 20 20.5 19.7314 20.5 19.4V6.6C20.5 6.26863 20.2314 6 19.9 6H17.1V4.6C17.1 4.26863 16.8314 4 16.5 4C16.1686 4 15.9 4.26863 15.9 4.6V6H13.1V4.6C13.1 4.26863 12.8314 4 12.5 4C12.1686 4 11.9 4.26863 11.9 4.6V6H9.09999V4.6C9.09999 4.26863 8.83136 4 8.49999 4ZM5.7 7.2H7.89999V8C7.89999 8.33137 8.16862 8.6 8.49999 8.6C8.83136 8.6 9.09999 8.33137 9.09999 8V7.2H11.9V8C11.9 8.33137 12.1686 8.6 12.5 8.6C12.8314 8.6 13.1 8.33137 13.1 8V7.2H15.9V8C15.9 8.33137 16.1686 8.6 16.5 8.6C16.8314 8.6 17.1 8.33137 17.1 8V7.2H19.3V18.8H5.7V7.2ZM11.5 10.6H9.5V12.4H11.5V10.6ZM11.5 14.2H9.5V16H11.5V14.2ZM13.5 14.2H15.5V16H13.5V14.2ZM15.5 10.6H13.5V12.4H15.5V10.6Z" fill="#333739"/>
</svg>
