<svg width="48" height="48" viewBox="0 0 48 48" fill="none" xmlns="http://www.w3.org/2000/svg">
<path fill-rule="evenodd" clip-rule="evenodd" d="M39.0007 6H26.9993C25.3441 6.00201 24.002 7.34396 24 8.99899V16.9993C24.002 18.6544 25.3441 19.9963 26.9993 19.9983H27.9991V22.9983C27.9991 23.6003 28.4945 24 29.0089 24C29.2546 24 29.5043 23.9084 29.7067 23.707L33.4138 19.9983H39.0007C40.6569 19.9963 41.999 18.6554 42 17.0003V9C41.999 7.34396 40.6569 6.00302 39.0007 6.00101V6ZM38.9987 8.01342V8.01443C39.5423 8.01443 39.9864 8.45839 39.9864 9V16.9973C39.9864 17.5419 39.5423 17.9849 39.0007 17.9849H33.4138H32.5791L31.9902 18.5748L30.0128 20.552V19.9983V17.9849H27.9991H27.0013C26.4577 17.9849 26.0147 17.5419 26.0136 16.9993V9.00201C26.0147 8.45738 26.4577 8.01342 26.9993 8.01342H38.9987ZM28.9389 9.9736H36.9399C37.2959 9.9736 37.6269 10.1636 37.8049 10.4736C37.9839 10.7836 37.9839 11.1636 37.8049 11.4736C37.6269 11.7836 37.2959 11.9736 36.9399 11.9736H28.9389C28.5829 11.9736 28.2519 11.7836 28.0739 11.4736C27.8949 11.1636 27.8949 10.7836 28.0739 10.4736C28.2519 10.1636 28.5829 9.9736 28.9389 9.9736ZM28.9401 13.8848H32.9391C33.4921 13.8848 33.9391 14.3318 33.9391 14.8848C33.9391 15.4368 33.4921 15.8848 32.9391 15.8848H28.9401C28.3871 15.8848 27.9391 15.4368 27.9391 14.8848C27.9391 14.3318 28.3871 13.8848 28.9401 13.8848ZM30.0066 31.6773L35.6066 37.2773L36.9696 35.9143C37.3506 35.5323 37.3506 34.9093 36.9686 34.5263L32.7556 30.3143C32.5706 30.1283 32.3246 30.0263 32.0636 30.0263C31.8016 30.0263 31.5566 30.1283 31.3726 30.3133L30.0066 31.6773ZM29.1486 39.9993C29.1826 40.0003 29.2156 40.0003 29.2496 40.0003C30.9586 40.0003 32.6086 39.4913 34.0486 38.5483L28.4536 32.9523C27.8406 33.2833 27.1616 33.4773 26.4456 33.4773H26.4446C25.4326 33.4773 24.4736 33.1263 23.7086 32.4803L23.6656 32.4593L23.4346 32.2303L16.7746 25.5903C15.9666 24.7843 15.5246 23.7143 15.5246 22.5783C15.5246 21.8563 15.7206 21.1723 16.0566 20.5553L10.4306 14.9293C9.54659 16.2613 9.03559 17.8763 9.00259 19.5713C8.95359 21.9913 9.86059 24.2583 11.5546 25.9533L23.0696 37.4453C24.6676 39.0433 26.8816 39.9723 29.1486 39.9993ZM11.7346 13.4043L17.3356 19.0053L18.6876 17.6523C18.8736 17.4663 18.9746 17.2213 18.9746 16.9603C18.9746 16.7023 18.8706 16.4503 18.6886 16.2683L14.4726 12.0523C14.2876 11.8663 14.0416 11.7643 13.7806 11.7643C13.5186 11.7643 13.2726 11.8663 13.0876 12.0513L11.7346 13.4043ZM11.6726 10.6383C12.2316 10.0793 12.9896 9.7643 13.7806 9.7643C14.5696 9.7643 15.3276 10.0783 15.8856 10.6373L15.8866 10.6383L20.1016 14.8523C20.1016 14.8528 20.1018 14.853 20.1021 14.8533C20.1023 14.8535 20.1026 14.8538 20.1026 14.8543C20.6616 15.4133 20.9746 16.1703 20.9746 16.9603C20.9746 17.7503 20.6606 18.5083 20.1016 19.0673L18.1866 20.9823C17.7626 21.4053 17.5246 21.9793 17.5246 22.5783C17.5246 23.1763 17.7616 23.7503 18.1856 24.1733L18.1866 24.1743L24.8466 30.8143H24.8486C24.8486 30.8153 24.8496 30.8153 24.8496 30.8163C25.2736 31.2393 25.8466 31.4773 26.4456 31.4773C27.0436 31.4773 27.6186 31.2393 28.0426 30.8143L29.9576 28.8993C30.5156 28.3403 31.2736 28.0263 32.0636 28.0263C32.8536 28.0263 33.6106 28.3393 34.1696 28.8983V28.8993L38.3846 33.1133C39.5466 34.2773 39.5466 36.1633 38.3846 37.3273L36.9796 38.7323V38.7333C34.7506 40.9633 31.9736 42.0003 29.2516 42.0003C26.4446 42.0003 23.6936 40.8973 21.6576 38.8613L21.6566 38.8603L10.1406 27.3673C5.70459 22.9303 6.16959 15.8263 10.2676 12.0423L11.6726 10.6383Z" fill="#333739"/>
</svg>
