<svg width="48" height="48" viewBox="0 0 48 48" fill="none" xmlns="http://www.w3.org/2000/svg">
<path d="M24.5023 6C24.9994 6 25.4023 6.40294 25.4023 6.9V30.3134L31.5015 24.2492C31.853 23.8977 32.4228 23.8977 32.7743 24.2492C33.0906 24.5655 33.1223 25.0587 32.8692 25.4104L32.7743 25.522L25.7751 32.4811C25.1161 33.1401 24.0732 33.1813 23.3663 32.6046L23.2296 32.4811L16.228 25.522C15.8766 25.1705 15.8766 24.6007 16.228 24.2492C16.5443 23.9329 17.0376 23.9012 17.3893 24.1543L17.5008 24.2492L23.6023 30.3137V6.9C23.6023 6.40294 24.0053 6 24.5023 6Z" fill="#C6C7C8"/>
<path d="M7.4 40.2C6.90294 40.2 6.5 40.6029 6.5 41.1C6.5 41.5971 6.90294 42 7.4 42H41.6C42.0971 42 42.5 41.5971 42.5 41.1C42.5 40.6029 42.0971 40.2 41.6 40.2H7.4Z" fill="#C6C7C8"/>
</svg>
