<svg width="48" height="48" viewBox="0 0 48 48" fill="none" xmlns="http://www.w3.org/2000/svg">
<path fill-rule="evenodd" clip-rule="evenodd" d="M35.9989 9C35.9989 7.34315 34.6558 6 32.999 6H10.4997C8.84292 6 7.49982 7.34315 7.49982 9V34.5C7.49982 36.1569 8.84292 37.5 10.4997 37.5H13.4996V38.2798L13.5075 38.5243C13.6327 40.4636 15.2365 41.9998 17.1995 41.9998H36.7989L37.0423 41.9919C38.9735 41.8658 40.4987 40.2508 40.4987 38.2798V15.7198L40.4909 15.4754C40.3657 13.5361 38.7619 11.9998 36.7989 11.9998H35.9989V9ZM35.9989 12.0795V34.5C35.9989 36.1569 34.6558 37.5 32.999 37.5H15.2996V38.2798C15.2996 39.2753 16.0485 40.0918 17.0055 40.1899L17.1995 40.1998H36.7989C37.7812 40.1998 38.5915 39.4456 38.689 38.4764L38.6988 38.2798V15.7198C38.6988 14.7244 37.9499 13.9079 36.9929 13.8097L36.7989 13.7998H35.9997L35.9989 12.0795ZM10.4997 7.80029H32.999L33.1495 7.80964C33.7412 7.88369 34.199 8.38853 34.199 9.00029V34.5003L34.1896 34.6508C34.1156 35.2425 33.6107 35.7003 32.999 35.7003H10.4997L10.3492 35.6909C9.75752 35.6169 9.29976 35.1121 9.29976 34.5003V9.00029L9.3091 8.84977C9.38315 8.25808 9.88797 7.80029 10.4997 7.80029ZM23.9993 11.9998H13.4996V13.7998H23.9993V11.9998ZM29.9991 19.2H13.4996V17.4H29.9991V19.2ZM13.4996 28.2005H23.9993V30.0005H13.4996V28.2005ZM29.9991 24.5998H13.4996V22.7998H29.9991V24.5998Z" fill="#333739"/>
</svg>
