<svg width="48" height="48" viewBox="0 0 48 48" fill="none" xmlns="http://www.w3.org/2000/svg">
<path fill-rule="evenodd" clip-rule="evenodd" d="M19.5029 12C19.8212 12 20.1264 12.1264 20.3515 12.3515L24 16H38.8C39.4627 16 40 16.5373 40 17.2V34.8C40 35.4627 39.4627 36 38.8 36H9.2C8.53726 36 8 35.4627 8 34.8V13.2C8 12.5373 8.53726 12 9.2 12H19.5029ZM19.006 14.4H10.4V33.6H37.6V18.4H23.4008C23.4005 18.4 23.4003 18.4 23.4 18.4L23.0059 18.4L16.6 18.4C16.2686 18.4 16 18.1314 16 17.8V16.6C16 16.2686 16.2686 16 16.6 16H20.606L19.006 14.4Z" fill="#333739"/>
</svg>
