<?xml version="1.0" encoding="utf-8"?>
<!-- Generator: Adobe Illustrator 25.0.0, SVG Export Plug-In . SVG Version: 6.00 Build 0)  -->
<svg version="1.1" id="Layer_1" xmlns="http://www.w3.org/2000/svg" xmlns:xlink="http://www.w3.org/1999/xlink" x="0px" y="0px"
	 viewBox="0 0 183.2 25" style="enable-background:new 0 0 183.2 25;" xml:space="preserve">
<g>
	<defs>
		<rect id="SVGID_1_" x="31.2" y="3.8" width="152" height="18"/>
	</defs>
	<clipPath id="SVGID_2_">
		<use xlink:href="#SVGID_1_"  style="overflow:visible;"/>
	</clipPath>
	<g style="clip-path:url(#SVGID_2_);">
		<path style="fill-rule:evenodd;clip-rule:evenodd;fill:#780000;" d="M177.1,20.7c2.7,0,4.9-1.3,5.9-3l-1.3-1
			c-1.2,1.9-2.9,2.4-4.6,2.4c-4.1,0-6.6-3.2-6.6-6.9c0-3.7,2.5-6.9,6.6-6.9c1.7,0,3.5,1.1,4.1,2.1l1.4-1.1c-1.4-1.8-3.6-2.5-5.6-2.5
			c-4.8,0-8.4,3.6-8.4,8.4C168.8,17.1,172.4,20.7,177.1,20.7z M108.9,6.9c-0.7-1-1.8-1.6-3.1-1.6c-1.7,0-3.4,0.9-3.4,2.9
			c0,2,1.8,2.6,3.7,3.2c2.2,0.7,4.6,1.5,4.6,4.6c0,2.9-2.7,4.7-5.3,4.7c-2,0-3.8-0.7-5.1-2.4l1.5-1.1c0.7,1.2,2,2,3.7,2
			c1.6,0,3.5-1,3.5-2.9c0-2.1-1.8-2.7-3.7-3.3c-2.2-0.7-4.5-1.5-4.5-4.6c0-3.1,2.6-4.6,5.2-4.6c1.8,0,3.3,0.5,4.5,2L108.9,6.9z
			 M95.2,20.3h1.6V4.2h-1.6V20.3z M123.2,18.8h-7.5V4.2h-1.6v16.1h9.1V18.8z M129.9,14.6h7l-3.5-8.4L129.9,14.6z M127.5,20.3h-1.9
			l7-16.1h1.6l7,16.1h-1.9l-1.8-4.2h-8.2L127.5,20.3z M156.8,4.2l-5.4,13.1l-5.4-13.1h-2.5v16.1h1.6V6.4h0l5.8,13.9h0.9l5.8-13.9h0
			v13.9h1.6V4.2H156.8z M163.7,20.3h1.6V4.2h-1.6V20.3z"/>
		<path style="fill-rule:evenodd;clip-rule:evenodd;fill:#780000;" d="M43.1,16.4c-0.9,0.8-2.1,1.2-3.3,1.2c-2.9,0-5.2-2.3-5.2-5.3
			c0-3,2.3-5.3,5.2-5.3c1.2,0,2.4,0.4,3.3,1.2l0,0l2.3-2.3l-0.1,0c-1.5-1.3-3.5-2.1-5.6-2.1c-4.7,0-8.6,3.8-8.6,8.5
			c0,4.7,3.9,8.5,8.6,8.5c2,0,4-0.7,5.6-2.1l0.1,0L43.1,16.4L43.1,16.4z M48.5,20.3h3.2V4.2h-3.2V20.3z M64.5,14.5
			c-0.1-0.2-5.7-10.3-5.7-10.3h-3.2v16.1h3.2v-9.6c0.2,0.4,5.6,9.7,5.6,9.7s5.3-9.3,5.6-9.7v9.6h3.2V4.2h-3.2
			C70.2,4.2,64.7,14.3,64.5,14.5z M83.6,17.4h-3.2v-3.8h3.2c1.5,0,2,1,2,1.9C85.6,16.4,85.1,17.4,83.6,17.4z M80.4,7.1h3
			c1.2,0,2,0.7,2,1.8c0,1.1-0.7,1.8-2,1.8h-3V7.1z M86.8,12.1c0.7-0.4,1.9-1.5,1.9-3.3c0-2.8-1.9-4.5-5-4.5h-6.5v16.1h6.7
			c3,0,4.9-1.8,4.9-4.7C88.9,13.5,87.6,12.5,86.8,12.1z"/>
	</g>
</g>
<path style="fill-rule:evenodd;clip-rule:evenodd;fill:#780000;" d="M0,25h25V0H0V25z"/>
<path style="fill:#FFFFFF;" d="M16.7,4.7H3.4l5.9,7.8h13.3L16.7,4.7z"/>
<path style="fill:#EC1D23;" d="M22.6,12.5H9.3l-5.9,7.8h13.3L22.6,12.5z"/>
</svg>
