<?xml version="1.0" encoding="utf-8"?>
<!-- Generator: Adobe Illustrator 25.0.0, SVG Export Plug-In . SVG Version: 6.00 Build 0)  -->
<svg version="1.1" id="Layer_1" xmlns="http://www.w3.org/2000/svg" xmlns:xlink="http://www.w3.org/1999/xlink" x="0px" y="0px"
	 viewBox="0 0 89.5 25" style="enable-background:new 0 0 89.5 25;" xml:space="preserve">
<g>
	<defs>
		<rect id="SVGID_1_" x="31.5" y="3.5" width="58" height="18"/>
	</defs>
	<clipPath id="SVGID_2_">
		<use xlink:href="#SVGID_1_"  style="overflow:visible;"/>
	</clipPath>
	<g style="clip-path:url(#SVGID_2_);">
		<path style="fill-rule:evenodd;clip-rule:evenodd;fill:#780000;" d="M43.5,16.7c-1,0.8-2.1,1.1-3.3,1.1c-2.9,0-5.2-2.3-5.2-5.3
			c0-3,2.3-5.3,5.2-5.3c1.2,0,2.4,0.4,3.3,1.2l0,0l2.3-2.3l-0.1,0C44.2,4.7,42.2,4,40.2,4c-4.8,0-8.7,3.8-8.7,8.5
			c0,4.7,3.9,8.5,8.7,8.5c2,0,4-0.7,5.6-2.1l0.1,0L43.5,16.7L43.5,16.7z M48.9,20.5h3.3V4.5h-3.3V20.5z M65,14.7
			c-0.1-0.2-5.7-10.3-5.7-10.3h-3.2v16.1h3.3v-9.6c0.2,0.4,5.6,9.7,5.6,9.7s5.4-9.3,5.6-9.7v9.6h3.3V4.4h-3.2
			C70.7,4.4,65.2,14.5,65,14.7L65,14.7z M84.2,17.6H81v-3.8h3.2c1.5,0,2,1,2,1.9C86.2,16.6,85.7,17.6,84.2,17.6L84.2,17.6z M81,7.4
			h3c1.3,0,2,0.7,2,1.8c0,1.1-0.7,1.8-2,1.8h-3V7.4z M87.4,12.3c0.7-0.4,1.9-1.5,1.9-3.3c0-2.8-1.9-4.5-5-4.5h-6.5v16.1h6.8
			c3.1,0,5-1.8,5-4.7C89.5,13.7,88.2,12.7,87.4,12.3L87.4,12.3z"/>
	</g>
</g>
<path style="fill-rule:evenodd;clip-rule:evenodd;fill:#780000;" d="M0,25h25V0H0V25z"/>
<path style="fill:#FFFFFF;" d="M16.7,4.7H3.4l5.9,7.8h13.3L16.7,4.7z"/>
<path style="fill:#EC1D23;" d="M22.6,12.5H9.3l-5.9,7.8h13.3L22.6,12.5z"/>
</svg>
