<svg width="17" height="18" viewBox="0 0 17 18" fill="none" xmlns="http://www.w3.org/2000/svg">
<path fill-rule="evenodd" clip-rule="evenodd" d="M13.3924 12.2563C13.1816 12.0454 13.1605 11.7166 13.3292 11.4821L13.3924 11.4078L15.1966 9.60359L7.59535 9.60359C7.26398 9.60359 6.99535 9.33496 6.99535 9.00359C6.99535 8.67222 7.26398 8.40359 7.59535 8.40359L15.1966 8.40359L13.3924 6.59943C13.1581 6.36511 13.1581 5.98521 13.3924 5.7509C13.6033 5.54001 13.9321 5.51893 14.1666 5.68763L14.241 5.7509L16.6451 8.15506C17.0845 8.5944 17.1119 9.28965 16.7275 9.76098L16.6451 9.85212L14.241 12.2563C14.0067 12.4906 13.6268 12.4906 13.3924 12.2563ZM10.4001 2.19755C10.7314 2.19753 11 1.92891 11 1.59756C11 1.26617 10.7314 0.997531 10.4 0.997559L1.05626 0.998343C1.02332 0.998346 0.996613 1.02505 0.996613 1.058L0.996613 16.9424C0.996613 16.9753 1.02333 17.002 1.05628 17.002L10.4 17.0012C10.7314 17.0012 11 16.7326 11 16.4012C11 16.0698 10.7314 15.8012 10.4 15.8012L2.19757 15.8012L2.19757 2.19819L10.4001 2.19755Z" fill="#333739"/>
</svg>
