<svg width="48" height="48" viewBox="0 0 48 48" fill="none" xmlns="http://www.w3.org/2000/svg">
<g id="Icon">
<path id="Vector" fill-rule="evenodd" clip-rule="evenodd" d="M15.6215 14.28C15.6215 9.715 19.3793 6 23.9992 6C28.619 6 32.3769 9.715 32.3769 14.28C32.3769 17.8099 30.13 20.8309 26.9752 22.0195C30.1388 22.7282 32.7839 24.7121 34.8643 27.9436C36.7683 30.9056 37.8622 34.5536 37.9602 36.6286L37.9982 37.4596L37.3953 38.0396C35.8363 39.5326 29.0375 41.9996 24.2267 41.9996H23.7717C18.9609 41.9996 12.1621 39.5326 10.6031 38.0396L9.99915 37.4596L10.0381 36.6286C10.1361 34.5536 11.2301 30.9056 13.134 27.9436C15.2137 24.712 17.8592 22.7282 21.0232 22.0195C17.8683 20.8309 15.6215 17.8099 15.6215 14.28ZM30.337 14.28C30.337 10.839 27.4941 8.04 23.9992 8.04C20.5043 8.04 17.6614 10.839 17.6614 14.28C17.6614 17.72 20.5043 20.518 23.9992 20.518C27.4941 20.518 30.337 17.72 30.337 14.28ZM33.1484 29.0466C30.8615 25.4936 27.9426 23.7646 24.2267 23.7646H23.7717C20.0558 23.7646 17.1369 25.4936 14.85 29.0476C13.191 31.6276 12.1961 34.8446 12.0811 36.6266C13.256 37.6186 19.2898 39.9596 23.7717 39.9596H24.2267C28.7055 39.9596 34.7363 37.6206 35.9163 36.6256C35.8033 34.8476 34.8083 31.6296 33.1484 29.0466Z" fill="#333739"/>
</g>
</svg>
