<svg width="48" height="48" viewBox="0 0 48 48" fill="none" xmlns="http://www.w3.org/2000/svg">
<path fill-rule="evenodd" clip-rule="evenodd" d="M24 8C15.1562 8 8 15.1562 8 24C8 32.8438 15.1562 40 24 40C32.8438 40 40 32.8438 40 24C40 15.1562 32.8438 8 24 8ZM24 10.4C27.6393 10.4 31.0519 11.8167 33.6207 14.3793C36.1896 16.9419 37.6 20.3607 37.6 24C37.6 27.6393 36.1833 31.0519 33.6207 33.6207C33.4956 33.7462 33.3685 33.8688 33.2393 33.9887C32.8666 32.8304 32.3132 31.5691 31.5992 30.4456C30.4523 28.6472 29.0637 27.3893 27.4485 26.6813C28.9103 25.6024 29.8593 23.8697 29.8593 21.9199C29.8593 18.6567 27.201 16 23.9297 16C20.6583 16 18 18.6567 18 21.9199C18 23.8628 18.9423 25.5902 20.3954 26.6699C18.7686 27.3757 17.3709 28.6374 16.2188 30.4456C15.5311 31.5263 14.9925 32.7344 14.6206 33.8558C14.5394 33.7785 14.4589 33.7002 14.3793 33.6207C11.8104 31.0581 10.4 27.6393 10.4 24C10.4 20.3607 11.8167 16.9481 14.3793 14.3793C16.9419 11.8104 20.3607 10.4 24 10.4ZM16.8601 35.5843C18.9836 36.8965 21.4355 37.6 24 37.6C26.5002 37.6 28.8964 36.9343 30.9824 35.6846C30.7075 34.5391 30.1319 33.0491 29.3756 31.8615C27.9743 29.6622 26.2875 28.6356 24.0704 28.6356H23.7476C21.5305 28.6356 19.8421 29.6622 18.4424 31.8615C17.7066 33.0161 17.1436 34.4534 16.8601 35.5843ZM23.9297 18.6356C22.1131 18.6356 20.6356 20.1099 20.6356 21.9199C20.6356 23.73 22.1131 25.2027 23.9297 25.2027C25.7462 25.2027 27.2237 23.73 27.2237 21.9199C27.2237 20.1099 25.7462 18.6356 23.9297 18.6356Z" fill="#333739"/>
</svg>
