<svg width="48" height="48" viewBox="0 0 48 48" fill="none" xmlns="http://www.w3.org/2000/svg">
<path d="M24.0026 8C24.6653 8 25.2026 8.53726 25.2026 9.2V28.4025L28.8108 24.7942C29.2794 24.3256 30.0392 24.3256 30.5078 24.7942C30.9295 25.216 30.9717 25.8736 30.6343 26.3425L30.5078 26.4913L25.6996 31.2996C24.821 32.1783 23.4305 32.2332 22.4879 31.4643L22.3056 31.2996L17.4974 26.4913C17.0288 26.0226 17.0288 25.2628 17.4974 24.7942C17.9192 24.3724 18.5768 24.3303 19.0457 24.6677L19.1944 24.7942L22.8026 28.4025V9.2C22.8026 8.53726 23.3399 8 24.0026 8Z" fill="#333739"/>
<path d="M9.19996 37.6C8.53724 37.6 8 38.1373 8 38.8C8 39.4627 8.53724 40 9.19996 40H38.799C39.4617 40 39.999 39.4627 39.999 38.8C39.999 38.1373 39.4617 37.6 38.799 37.6H9.19996Z" fill="#333739"/>
</svg>
