<svg width="48" height="48" viewBox="0 0 48 48" fill="none" xmlns="http://www.w3.org/2000/svg">
<rect width="48" height="48" fill="white"/>
<path d="M22.8926 31.0332V25.3047C21.1061 24.7943 19.7936 24.0241 18.9551 22.9941C18.1257 21.9551 17.7109 20.6973 17.7109 19.2207C17.7109 17.7259 18.1803 16.4727 19.1191 15.4609C20.0671 14.4401 21.3249 13.8522 22.8926 13.6973V12.3438H24.875V13.6973C26.3242 13.8704 27.4772 14.3672 28.334 15.1875C29.1908 15.9987 29.7376 17.0879 29.9746 18.4551L26.5156 18.9062C26.306 17.8307 25.7591 17.1016 24.875 16.7188V22.0645C27.0625 22.6569 28.5527 23.4271 29.3457 24.375C30.1387 25.3138 30.5352 26.5215 30.5352 27.998C30.5352 29.6478 30.0339 31.0378 29.0312 32.168C28.0378 33.2982 26.6523 33.9909 24.875 34.2461V36.8027H22.8926V34.3145C21.3158 34.123 20.0352 33.5352 19.0508 32.5508C18.0664 31.5664 17.4375 30.1764 17.1641 28.3809L20.7324 27.998C20.8783 28.7272 21.1517 29.3561 21.5527 29.8848C21.9538 30.4134 22.4004 30.7962 22.8926 31.0332ZM22.8926 16.6777C22.3548 16.86 21.9264 17.1699 21.6074 17.6074C21.2884 18.0449 21.1289 18.528 21.1289 19.0566C21.1289 19.5397 21.2747 19.9909 21.5664 20.4102C21.8581 20.8203 22.3001 21.153 22.8926 21.4082V16.6777ZM24.875 31.2246C25.5586 31.097 26.1146 30.7826 26.543 30.2812C26.9714 29.7708 27.1855 29.1738 27.1855 28.4902C27.1855 27.8796 27.0033 27.3555 26.6387 26.918C26.2832 26.4714 25.6953 26.1296 24.875 25.8926V31.2246Z" fill="#333739"/>
<circle cx="24" cy="24" r="19" stroke="#333739" stroke-width="2"/>
</svg>
