<svg width="48" height="48" viewBox="0 0 48 48" fill="none" xmlns="http://www.w3.org/2000/svg">
<path fill-rule="evenodd" clip-rule="evenodd" d="M26.6288 6C26.9788 6 27.2843 6.22778 27.3874 6.55494L27.4163 6.68203L28.0842 11.2945C28.1334 11.5898 28.3233 11.8289 28.6045 11.9273C30.0248 12.4406 31.3044 13.1789 32.4364 14.093C32.618 14.2395 32.8583 14.298 33.092 14.2525L33.2309 14.2125L37.6815 12.4547C38.0015 12.3316 38.3591 12.4239 38.5753 12.675L38.6589 12.7922L41.2463 17.1727C41.4308 17.468 41.3839 17.8494 41.1574 18.105L41.0494 18.2063L37.3019 21.075C37.0698 21.2508 36.9574 21.5461 37.0066 21.8414C37.2456 23.2758 37.2456 24.7242 37.0066 26.1516C36.9584 26.4047 37.0393 26.663 37.2095 26.8423L37.3019 26.925L41.0494 29.7938C41.3306 30.0063 41.4286 30.3799 41.2938 30.7072L41.2322 30.8273L38.6448 35.2078C38.4725 35.5031 38.1334 35.6477 37.8064 35.585L37.6675 35.5453L33.2028 33.7875C32.9356 33.682 32.6333 33.7313 32.4153 33.907C31.2622 34.8422 29.9755 35.5734 28.5834 36.0727C28.3549 36.1605 28.1801 36.3412 28.0997 36.5699L28.0631 36.7125L27.3952 41.318C27.3452 41.668 27.0785 41.9346 26.7384 41.9896L26.6077 42H21.3696C21.0196 42 20.714 41.7722 20.611 41.4451L20.5821 41.318L19.9142 36.7055C19.8649 36.4102 19.6751 36.1711 19.3939 36.0727C17.9736 35.5594 16.6939 34.8211 15.562 33.907C15.3803 33.7605 15.1401 33.702 14.9064 33.7475L14.7674 33.7875L10.3168 35.5453C9.9969 35.6684 9.6393 35.5761 9.42302 35.325L9.3395 35.2078L6.75208 30.8273C6.56751 30.532 6.61442 30.1506 6.841 29.895L6.94895 29.7938L10.6965 26.925C10.9285 26.7492 11.041 26.4539 10.9918 26.1586C10.7527 24.7242 10.7527 23.2758 10.9918 21.8484C11.04 21.5953 10.9591 21.337 10.7888 21.1577L10.6965 21.075L6.94895 18.2063C6.6721 17.9909 6.5729 17.6302 6.68902 17.3079L6.75208 17.1727L9.3395 12.7922C9.51176 12.4969 9.85089 12.3523 10.1779 12.415L10.3168 12.4547L14.7815 14.2125C15.0487 14.318 15.351 14.2688 15.569 14.093C16.7221 13.1578 18.0087 12.4266 19.4009 11.9273C19.6294 11.8395 19.8042 11.6588 19.8846 11.4301L19.9212 11.2875L20.6032 6.68203C20.6532 6.33203 20.9199 6.06536 21.26 6.01043L21.3907 6H26.6288ZM25.7586 7.7985H22.2562L21.6966 11.5834C21.5557 12.4293 21.0184 13.1437 20.2297 13.5259L20.0084 13.6217C18.8157 14.0494 17.7056 14.6777 16.6989 15.4941C16.0363 16.0285 15.1522 16.2014 14.3413 15.9627L14.1221 15.8874L10.4531 14.4435L8.75367 17.3205L11.7834 19.6402C12.5023 20.1849 12.8828 21.07 12.798 21.9312L12.767 22.1458C12.5609 23.3765 12.5609 24.6245 12.7672 25.8627C12.9121 26.7319 12.6129 27.6147 11.9733 28.2018L11.7906 28.3543L8.75367 30.678L10.4531 33.555L14.1213 32.1075C14.9114 31.8036 15.793 31.9006 16.4896 32.3584L16.6927 32.5066C17.6944 33.3154 18.8028 33.9451 19.9885 34.3737C20.8215 34.6653 21.4256 35.346 21.6452 36.208L21.6955 36.4475L22.2382 40.1985H25.7376L26.2877 36.4166C26.4286 35.5707 26.9659 34.8563 27.7546 34.4741L27.9758 34.3783C29.1686 33.9506 30.2787 33.3223 31.2854 32.5059C31.948 31.9715 32.8321 31.7986 33.643 32.0373L33.8622 32.1126L37.5287 33.555L39.2342 30.6705L36.215 28.3598C35.496 27.8151 35.1156 26.93 35.2004 26.0688L35.2314 25.8542C35.4375 24.6235 35.4375 23.3755 35.2311 22.1373C35.0863 21.2681 35.3855 20.3853 36.025 19.7982L36.2078 19.6457L39.2432 17.3205L37.5437 14.4435L33.8771 15.8925C33.087 16.1964 32.2053 16.0995 31.5088 15.6416L31.3056 15.4934C30.3039 14.6846 29.1955 14.0549 28.0099 13.6263C27.1768 13.3347 26.5728 12.654 26.3531 11.792L26.3028 11.5525L25.7586 7.7985ZM23.9992 18C27.3007 18 29.999 20.6878 29.999 24C29.999 27.3122 27.3112 30 23.9992 30C20.6871 30 17.9994 27.3122 17.9994 24C17.9994 20.6878 20.6871 18 23.9992 18ZM23.9992 19.8C21.6812 19.8 19.7993 21.6819 19.7993 24C19.7993 26.3181 21.6812 28.2 23.9992 28.2C26.3172 28.2 28.199 26.3181 28.199 24C28.199 21.6861 26.3107 19.8 23.9992 19.8Z" fill="#333739"/>
</svg>
