<svg width="48" height="48" viewBox="0 0 48 48" fill="none" xmlns="http://www.w3.org/2000/svg">
<path fill-rule="evenodd" clip-rule="evenodd" d="M26.5459 8C35.3825 8 42.5459 15.1634 42.5459 24C42.5459 32.8366 35.3825 40 26.5459 40C25.9937 40 25.5459 39.5523 25.5459 39C25.5459 38.4477 25.9937 38 26.5459 38C34.2779 38 40.5459 31.732 40.5459 24C40.5459 16.268 34.2779 10 26.5459 10C18.9233 10 12.7236 16.0919 12.5497 23.6727L15.9307 20.2929C16.2912 19.9324 16.8584 19.9047 17.2507 20.2097L17.3449 20.2929C17.7054 20.6534 17.7331 21.2206 17.4281 21.6129L17.3449 21.7071L12.253 26.799C11.8926 27.1595 11.3253 27.1872 10.933 26.8822L10.8388 26.799L5.74695 21.7071C5.35643 21.3166 5.35643 20.6834 5.74695 20.2929C6.10744 19.9324 6.67467 19.9047 7.06696 20.2097L7.16117 20.2929L10.5491 23.6809C10.719 14.9917 17.816 8 26.5459 8ZM34.2725 15.8129C33.893 15.4116 33.26 15.394 32.8588 15.7735L25.8588 22.3942L25.7786 22.4795C25.6291 22.6584 25.5459 22.8851 25.5459 23.1207V32.5L25.5527 32.6166C25.6104 33.114 26.0331 33.5 26.5459 33.5L26.6626 33.4933C27.1599 33.4355 27.5459 33.0128 27.5459 32.5L27.5451 23.552L34.2331 17.2265L34.3189 17.1347C34.6347 16.751 34.6228 16.1832 34.2725 15.8129Z" fill="#333739"/>
</svg>
