<svg width="375" height="161" viewBox="0 0 375 161" fill="none" xmlns="http://www.w3.org/2000/svg">
<g opacity="0.2">
<path fill-rule="evenodd" clip-rule="evenodd" d="M77.3712 159.1C77.3712 159.1 50.0645 131.683 72.7536 101.999C92.8839 75.6623 116.353 77.4633 133.577 88.1509C140.91 92.7004 162.055 88.7119 180.056 61.9132C204.592 25.3666 289.667 47.5338 274.154 103.759C266.648 130.969 297 131.958 281.534 159.157L77.3712 159.1Z" fill="white"/>
<path fill-rule="evenodd" clip-rule="evenodd" d="M77.3712 159.1C77.3712 159.1 50.0645 131.683 72.7536 101.999C92.8839 75.6623 116.353 77.4633 133.577 88.1509C140.91 92.7004 162.055 88.7119 180.056 61.9132C204.592 25.3666 289.667 47.5338 274.154 103.759C266.648 130.969 297 131.958 281.534 159.157L77.3712 159.1Z" stroke="#C6C7C8" stroke-width="1.149"/>
<path fill-rule="evenodd" clip-rule="evenodd" d="M95.0749 37.3219C96.109 37.3219 96.9472 36.4826 96.9472 35.448C96.9472 34.413 96.109 33.5742 95.0749 33.5742C94.0404 33.5742 93.2021 34.413 93.2021 35.448C93.2021 36.4826 94.0404 37.3219 95.0749 37.3219Z" fill="#C6C7C8"/>
<path fill-rule="evenodd" clip-rule="evenodd" d="M138.863 55.1187C139.764 55.1187 140.496 54.387 140.496 53.4847C140.496 52.5813 139.764 51.8496 138.863 51.8496C137.96 51.8496 137.228 52.5813 137.228 53.4847C137.228 54.387 137.96 55.1187 138.863 55.1187Z" fill="#C6C7C8"/>
<path fill-rule="evenodd" clip-rule="evenodd" d="M11.5855 159.553H271.527C271.527 159.553 246.406 126.889 201.796 133.993C143.214 143.322 121.462 123.128 93.3306 115.962C66.5248 109.132 46.0561 118.178 32.2541 129.435C21.0078 138.608 11.585 149.044 11.585 159.554L11.5855 159.553Z" fill="white"/>
<path fill-rule="evenodd" clip-rule="evenodd" d="M11.5855 159.553H271.527C271.527 159.553 246.406 126.889 201.796 133.993C143.214 143.322 121.462 123.128 93.3306 115.962C66.5248 109.132 46.0561 118.178 32.2541 129.435C21.0078 138.608 11.585 149.044 11.585 159.554L11.5855 159.553Z" stroke="#C6C7C8" stroke-width="1.149"/>
<path fill-rule="evenodd" clip-rule="evenodd" d="M103.657 159.554C103.657 159.554 116.881 142.323 150.371 146.778C196.924 152.974 213.565 118.793 253.273 116.88C326.042 113.376 353.29 159.554 353.29 159.554H103.657Z" fill="white"/>
<path fill-rule="evenodd" clip-rule="evenodd" d="M103.657 159.554C103.657 159.554 116.881 142.323 150.371 146.778C196.924 152.974 213.565 118.793 253.273 116.88C326.042 113.376 353.29 159.554 353.29 159.554H103.657Z" stroke="#C6C7C8" stroke-width="1.149"/>
<path fill-rule="evenodd" clip-rule="evenodd" d="M371.941 48.8816C374.537 48.8816 375.956 45.8226 374.267 43.8498C372.824 42.1702 370.61 41.1249 368.184 40.5946C363.939 39.6687 358.775 42.5935 357.526 43.3293C357.202 37.5428 352.162 32.9486 345.992 32.9486C345.744 32.9486 345.491 32.9563 345.244 32.9722C343.666 24.6847 335.785 18.3833 326.299 18.3833C315.677 18.3833 307.065 26.2849 307.065 36.0312C307.064 36.788 307.117 37.5438 307.222 38.2929C306.754 38.2366 306.283 38.2079 305.811 38.2068C301.594 38.2068 296.75 40.819 296.179 45.015C296.179 45.015 273.385 38.8299 273.253 49.0091L371.941 48.8816Z" stroke="#C6C7C8" stroke-width="1.149"/>
<path fill-rule="evenodd" clip-rule="evenodd" d="M11.4729 44.1666H86.6231C86.4785 43.4452 84.9774 35.7167 66.4753 42.755C66.4753 42.755 67.3889 38.912 61.8383 40.6178C56.2876 42.3235 58.2639 34.697 53.388 33.475C50.4812 32.7479 48.8294 33.9459 47.6661 35.2796C47.1058 27.6572 40.4006 21.6392 32.2108 21.6392C23.6534 21.6392 16.7175 28.2086 16.7175 36.3142C16.717 36.8122 16.7436 37.3092 16.7959 37.8042C15.9172 36.7154 13.9829 35.7398 11.3402 35.8028C11.2802 35.8028 11.2192 35.8028 11.1597 35.8105C5.80643 36.123 6.10737 44.1666 11.4729 44.1666Z" stroke="#C6C7C8" stroke-width="1.149"/>
<path fill-rule="evenodd" clip-rule="evenodd" d="M9.34026 159.554L0 150.05L10.563 157.375L10.22 150.422L15.1703 156.468L14.2977 134.833L17.9864 154.138L21.5161 150.783L21.189 156.591L25.1755 154.942L22.041 159.546L9.34026 159.554Z" fill="white"/>
<path fill-rule="evenodd" clip-rule="evenodd" d="M9.34026 159.554L0 150.05L10.563 157.375L10.22 150.422L15.1703 156.468L14.2977 134.833L17.9864 154.138L21.5161 150.783L21.189 156.591L25.1755 154.942L22.041 159.546L9.34026 159.554Z" stroke="#C6C7C8" stroke-width="1.149"/>
<path fill-rule="evenodd" clip-rule="evenodd" d="M288.823 120.869C288.945 120.772 289.122 120.792 289.22 120.912C289.317 121.035 289.298 121.212 289.176 121.31L289.143 121.337L289.121 121.356C289.08 121.392 289.032 121.434 288.979 121.483L288.951 121.507C288.767 121.679 288.56 121.887 288.336 122.132C287.695 122.835 287.052 123.691 286.451 124.705C285.279 126.684 284.415 129.01 283.989 131.695C283.462 135.018 283.636 138.726 284.642 142.833C284.679 142.985 284.586 143.138 284.435 143.175C284.283 143.211 284.131 143.119 284.094 142.968C283.069 138.789 282.893 135.005 283.431 131.608C283.869 128.849 284.758 126.456 285.965 124.417C286.586 123.369 287.252 122.482 287.918 121.752C288.136 121.513 288.34 121.307 288.525 121.133L288.568 121.093C288.687 120.983 288.774 120.908 288.823 120.869Z" fill="#C6C7C8"/>
<path fill-rule="evenodd" clip-rule="evenodd" d="M285.922 139.128C285.706 138.939 285.602 138.667 285.631 138.384C286.223 132.926 288.69 127.309 292.531 125.249C296.476 123.132 299.168 129.012 293.698 134.47C289.584 138.582 287.381 139.25 286.543 139.334C286.317 139.354 286.092 139.278 285.922 139.128Z" stroke="#C6C7C8" stroke-width="1.149"/>
<path fill-rule="evenodd" clip-rule="evenodd" d="M277.265 137.867C278.885 138.007 280.163 138.894 281.134 140.274C281.502 140.796 281.799 141.353 282.033 141.911C282.105 142.084 282.168 142.248 282.219 142.397L282.238 142.452C282.272 142.552 282.294 142.624 282.305 142.665C282.347 142.815 282.259 142.971 282.108 143.012C281.963 143.053 281.814 142.972 281.766 142.831L281.748 142.77L281.732 142.721C281.723 142.693 281.713 142.664 281.703 142.633C281.652 142.481 281.589 142.312 281.512 142.129C281.293 141.606 281.014 141.084 280.673 140.598C279.789 139.344 278.65 138.553 277.217 138.43C277.062 138.416 276.946 138.28 276.96 138.124C276.973 137.974 277.101 137.862 277.249 137.866L277.265 137.867Z" fill="#C6C7C8"/>
<path fill-rule="evenodd" clip-rule="evenodd" d="M295.93 125.529C296.036 125.634 296.04 125.804 295.943 125.914L295.922 125.936L295.812 126.049L295.708 126.155C295.66 126.205 295.609 126.258 295.555 126.314L295.471 126.401C295.105 126.784 294.695 127.224 294.255 127.712C292.996 129.105 291.737 130.607 290.562 132.156C289.164 134 287.982 135.791 287.083 137.478C286.798 138.014 286.543 138.536 286.32 139.043C286.258 139.186 286.091 139.251 285.948 139.188C285.805 139.126 285.74 138.959 285.803 138.817C286.032 138.296 286.293 137.761 286.585 137.213C287.498 135.497 288.697 133.682 290.112 131.814C291.298 130.251 292.566 128.739 293.835 127.333L293.991 127.162C294.351 126.767 294.688 126.404 294.997 126.08L295.187 125.881C295.254 125.812 295.316 125.747 295.373 125.689L295.531 125.529C295.64 125.419 295.82 125.419 295.93 125.529Z" fill="#C6C7C8"/>
<path fill-rule="evenodd" clip-rule="evenodd" d="M293.812 132.97L293.909 132.965C294.097 132.957 294.259 132.953 294.389 132.953L294.517 132.955C294.673 132.96 294.795 133.09 294.79 133.246C294.785 133.396 294.663 133.516 294.515 133.519L294.471 133.518C294.322 133.516 294.109 133.519 293.843 133.534C293.442 133.555 293.005 133.597 292.539 133.664C291.259 133.85 289.966 134.195 288.728 134.738C288.585 134.8 288.419 134.735 288.355 134.592C288.293 134.449 288.358 134.283 288.501 134.22C289.789 133.656 291.131 133.298 292.458 133.106C292.941 133.036 293.396 132.992 293.812 132.97Z" fill="#C6C7C8"/>
<path fill-rule="evenodd" clip-rule="evenodd" d="M291.331 126.169C291.468 126.246 291.517 126.418 291.44 126.554L291.374 126.673C291.353 126.713 291.33 126.756 291.304 126.803L291.213 126.975C291.128 127.133 291.037 127.305 290.942 127.489C290.568 128.215 290.194 128.984 289.844 129.762C289.568 130.377 289.318 130.973 289.103 131.541L289.049 131.685C288.48 133.215 288.198 134.445 288.274 135.244C288.289 135.399 288.175 135.537 288.02 135.551C287.864 135.566 287.726 135.452 287.712 135.297C287.622 134.363 287.941 133.014 288.575 131.34C288.795 130.762 289.048 130.155 289.328 129.531C289.682 128.742 290.061 127.964 290.44 127.23L290.547 127.025C290.627 126.871 290.704 126.726 290.776 126.592L290.879 126.403L290.946 126.278C291.023 126.143 291.195 126.094 291.331 126.169Z" fill="#C6C7C8"/>
<path fill-rule="evenodd" clip-rule="evenodd" d="M289.959 136.372C290.356 136.338 290.699 136.329 290.963 136.332L291.053 136.334C291.209 136.339 291.331 136.47 291.325 136.626C291.319 136.776 291.198 136.895 291.049 136.898L290.994 136.897C290.743 136.892 290.403 136.9 290.007 136.934C289.41 136.984 288.821 137.081 288.274 137.234C287.758 137.378 287.301 137.569 286.917 137.806C286.785 137.888 286.611 137.847 286.529 137.715C286.446 137.582 286.487 137.408 286.62 137.326C287.052 137.058 287.558 136.849 288.122 136.691C288.707 136.526 289.33 136.424 289.959 136.372Z" fill="#C6C7C8"/>
<path fill-rule="evenodd" clip-rule="evenodd" d="M281.045 134.14C280.753 134.347 280.414 134.375 280.15 134.235C275.001 131.402 270.652 126.114 270.586 120.412C270.51 114.55 277.798 113.317 280.424 122.407C282.4 129.248 281.93 132.324 281.572 133.425C281.469 133.708 281.28 133.971 281.045 134.14Z" stroke="#C6C7C8" stroke-width="1.149"/>
<path fill-rule="evenodd" clip-rule="evenodd" d="M272.342 116.627C272.416 116.49 272.587 116.439 272.725 116.513C275.141 117.819 277.091 120.86 278.646 125.111C279.38 127.116 279.977 129.26 280.449 131.405L280.502 131.653C280.626 132.228 280.733 132.768 280.824 133.267L280.862 133.478C280.901 133.698 280.935 133.892 280.962 134.061L280.994 134.269C281.017 134.423 280.91 134.566 280.756 134.589C280.601 134.612 280.458 134.505 280.435 134.351L280.409 134.184L280.387 134.049C280.366 133.925 280.344 133.789 280.318 133.641L280.307 133.577C280.196 132.959 280.06 132.269 279.896 131.526C279.43 129.404 278.84 127.283 278.116 125.305C276.604 121.172 274.718 118.232 272.456 117.01C272.319 116.935 272.267 116.765 272.342 116.627Z" fill="#C6C7C8"/>
<path fill-rule="evenodd" clip-rule="evenodd" d="M270.619 121.172C270.684 121.03 270.851 120.967 270.993 121.03C272.146 121.549 273.464 122.194 274.745 122.906L274.909 122.998C276.712 124.012 278.099 124.979 278.9 125.858C279.005 125.974 278.996 126.153 278.881 126.257C278.765 126.362 278.587 126.354 278.482 126.239C277.71 125.389 276.303 124.419 274.47 123.4C273.205 122.696 271.901 122.058 270.761 121.545C270.619 121.481 270.555 121.314 270.619 121.172Z" fill="#C6C7C8"/>
<path fill-rule="evenodd" clip-rule="evenodd" d="M280.086 122.051C280.242 122.037 280.379 122.15 280.394 122.306C280.516 123.617 280.579 124.885 280.549 125.994L280.544 126.131C280.496 127.554 280.293 128.579 279.876 129.127C279.781 129.251 279.604 129.275 279.479 129.18C279.356 129.087 279.332 128.909 279.426 128.785C280.053 127.962 280.121 125.453 279.831 122.358C279.817 122.203 279.931 122.065 280.086 122.051Z" fill="#C6C7C8"/>
<path fill-rule="evenodd" clip-rule="evenodd" d="M272.993 127.687C273.092 127.566 273.27 127.547 273.39 127.645C274.044 128.174 275.01 128.734 276.201 129.304C277.037 129.703 277.935 130.083 278.833 130.43L278.988 130.49C279.192 130.569 279.385 130.642 279.566 130.707L279.812 130.796L280.026 130.872C280.174 130.922 280.253 131.083 280.202 131.231C280.153 131.373 280.002 131.451 279.859 131.411L279.809 131.394L279.691 131.352C279.657 131.34 279.622 131.328 279.585 131.314L279.372 131.237C279.143 131.153 278.893 131.06 278.628 130.957C277.718 130.604 276.808 130.219 275.958 129.813L275.796 129.735C274.641 129.175 273.699 128.621 273.035 128.084C272.914 127.985 272.895 127.808 272.993 127.687Z" fill="#C6C7C8"/>
<path fill-rule="evenodd" clip-rule="evenodd" d="M277.816 136.683C277.924 135.89 277.803 135.219 277.545 135.184C277.287 135.149 276.992 135.764 276.884 136.556C276.776 137.349 276.898 138.021 277.156 138.056C277.413 138.09 277.709 137.475 277.816 136.683Z" stroke="#C6C7C8" stroke-width="1.149"/>
<path fill-rule="evenodd" clip-rule="evenodd" d="M277.16 138.052C277.312 137.867 276.98 137.342 276.419 136.88C275.857 136.417 275.278 136.191 275.126 136.375C274.974 136.56 275.306 137.084 275.867 137.547C276.429 138.01 277.008 138.236 277.16 138.052Z" stroke="#C6C7C8" stroke-width="1.149"/>
<path fill-rule="evenodd" clip-rule="evenodd" d="M278.655 137.777C279.355 137.41 279.823 136.922 279.7 136.688C279.577 136.453 278.91 136.56 278.209 136.927C277.51 137.293 277.042 137.781 277.165 138.015C277.288 138.25 277.955 138.143 278.655 137.777Z" stroke="#C6C7C8" stroke-width="1.149"/>
<path fill-rule="evenodd" clip-rule="evenodd" d="M276.214 139.059C276.852 138.709 277.277 138.256 277.162 138.046C277.047 137.837 276.437 137.95 275.798 138.3C275.16 138.65 274.736 139.103 274.851 139.313C274.965 139.522 275.576 139.409 276.214 139.059Z" stroke="#C6C7C8" stroke-width="1.149"/>
<path fill-rule="evenodd" clip-rule="evenodd" d="M278.268 140.462C278.486 140.363 278.416 139.742 278.112 139.076C277.808 138.409 277.384 137.95 277.166 138.048C276.948 138.147 277.019 138.768 277.324 139.435C277.628 140.102 278.051 140.562 278.268 140.462Z" stroke="#C6C7C8" stroke-width="1.149"/>
<path fill-rule="evenodd" clip-rule="evenodd" d="M312.04 129.959C311.984 129.647 310.9 122.324 313.671 114.162C316.333 106.32 314.859 99.6721 314.848 99.606H316.805C316.856 99.8898 316.988 106.416 314.906 115.359C313.03 123.405 316.534 129.959 315.788 129.959H312.04Z" fill="#C6C7C8"/>
<path fill-rule="evenodd" clip-rule="evenodd" d="M292.078 143.671L288.595 159.442H277.533L274.049 143.671C273.852 142.768 274.416 141.883 275.189 141.883H290.948C291.72 141.893 292.285 142.777 292.078 143.671Z" fill="white"/>
<path fill-rule="evenodd" clip-rule="evenodd" d="M290.949 142.167L290.968 142.168C291.528 142.192 291.959 142.872 291.81 143.58L288.369 159.161H277.761L274.327 143.612C274.165 142.872 274.614 142.167 275.19 142.167H290.949ZM290.953 141.603H275.19C274.22 141.603 273.541 142.667 273.775 143.733L277.258 159.503C277.287 159.633 277.401 159.725 277.534 159.725H288.595C288.728 159.725 288.843 159.633 288.871 159.503L292.355 143.734C292.599 142.681 291.921 141.614 290.953 141.603Z" fill="#C6C7C8"/>
<path fill-rule="evenodd" clip-rule="evenodd" d="M331.939 93.8258C339.634 86.1255 339.634 73.64 331.939 65.9387C324.243 58.2379 311.767 58.2379 304.071 65.9387C296.376 73.64 296.376 86.1255 304.071 93.8258C311.767 101.527 324.243 101.527 331.939 93.8258Z" fill="#FFAB00"/>
<g style="mix-blend-mode:multiply">
<path fill-rule="evenodd" clip-rule="evenodd" d="M331.939 93.8258C339.634 86.1255 339.634 73.64 331.939 65.9387C324.243 58.2379 311.767 58.2379 304.071 65.9387C296.376 73.64 296.376 86.1255 304.071 93.8258C311.767 101.527 324.243 101.527 331.939 93.8258Z" fill="#FFAB00"/>
</g>
<path fill-rule="evenodd" clip-rule="evenodd" d="M330.234 94.0421C337.93 86.3413 337.93 73.8558 330.234 66.155C322.539 58.4542 310.062 58.4542 302.366 66.155C294.67 73.8558 294.67 86.3413 302.366 94.0421C310.062 101.742 322.539 101.742 330.234 94.0421Z" fill="#FFAB00"/>
<g style="mix-blend-mode:multiply" opacity="0.5">
<path fill-rule="evenodd" clip-rule="evenodd" d="M314.221 63.5682C304.983 64.7324 298.413 73.1992 299.578 82.4418C300.743 91.6844 309.202 98.2604 318.438 97.0932C327.675 95.927 334.246 87.4632 333.08 78.2212C331.914 68.9786 323.457 62.4051 314.221 63.5657V63.5682ZM318.571 98.1563C314.451 98.6758 310.277 97.7489 306.762 95.5338C303.247 93.3193 300.609 89.9534 299.296 86.01C297.983 82.0666 298.077 77.7896 299.562 73.9072C301.047 70.0253 303.831 66.7793 307.44 64.7215C311.049 62.6632 315.26 61.9218 319.354 62.6212C323.448 63.3221 327.173 65.4214 329.894 68.5614C332.615 71.7024 334.164 75.6893 334.276 79.8443C334.389 83.9998 333.058 88.0652 330.511 91.3481C329.07 93.2168 327.272 94.7806 325.223 95.9494C323.174 97.1182 320.912 97.8683 318.571 98.1563Z" fill="#FFAB00"/>
</g>
<g style="mix-blend-mode:multiply" opacity="0.5">
<path fill-rule="evenodd" clip-rule="evenodd" d="M319.432 85.1929C319.436 84.8424 319.378 84.494 319.26 84.163C319.14 83.8571 318.952 83.582 318.712 83.3591C318.421 83.0931 318.093 82.8697 317.74 82.697C317.271 82.466 316.785 82.2687 316.288 82.1078C315.379 81.8004 314.486 81.4463 313.613 81.0471C312.869 80.7146 312.175 80.2811 311.549 79.7595C310.988 79.286 310.532 78.7009 310.21 78.0409C309.891 77.3835 309.728 76.5995 309.722 75.689C309.706 74.9481 309.844 74.2113 310.127 73.5257C310.397 72.879 310.802 72.297 311.314 71.8174C311.858 71.3142 312.486 70.9109 313.171 70.6291C313.948 70.3089 314.768 70.1085 315.604 70.0337L315.582 67.0516L317.98 67.0347L318.002 70.0583C318.815 70.1505 319.607 70.3755 320.346 70.7239C321.029 71.0436 321.641 71.4966 322.146 72.0561C322.65 72.6167 323.038 73.2721 323.285 73.9848C323.565 74.7923 323.706 75.6424 323.7 76.4971L319.367 76.5288C319.36 75.4139 319.107 74.5817 318.609 74.0319C318.109 73.4832 317.445 73.2116 316.615 73.2177C316.22 73.2111 315.826 73.2777 315.455 73.414C315.154 73.5272 314.882 73.705 314.658 73.9356C314.449 74.157 314.293 74.4224 314.2 74.7119C314.101 75.0229 314.053 75.3483 314.058 75.6747C314.056 75.9918 314.108 76.308 314.214 76.6067C314.326 76.9013 314.505 77.1647 314.737 77.3774C315.03 77.6438 315.36 77.8667 315.716 78.0394C316.207 78.2817 316.712 78.4959 317.228 78.6788C318.2 79.0339 319.082 79.3998 319.877 79.7764C320.618 80.1161 321.31 80.5537 321.933 81.0789C322.493 81.5554 322.949 82.1426 323.272 82.8041C323.592 83.4615 323.755 84.2409 323.761 85.1422C323.778 85.8975 323.639 86.6481 323.35 87.3465C323.076 87.9896 322.668 88.567 322.155 89.0405C321.607 89.5385 320.971 89.9305 320.282 90.197C319.497 90.5029 318.673 90.6966 317.834 90.7729L317.854 93.545L315.47 93.5619L315.451 90.8031C314.629 90.7273 313.819 90.551 313.041 90.2764C312.282 90.014 311.581 89.6113 310.971 89.0887C310.35 88.543 309.854 87.8686 309.518 87.1129C309.153 86.3202 308.966 85.3646 308.958 84.2455L313.29 84.2153C313.294 84.8752 313.391 85.4235 313.579 85.8611C313.742 86.2674 314 86.6281 314.329 86.9156C314.638 87.1759 315 87.3634 315.39 87.4644C315.784 87.5679 316.19 87.6196 316.598 87.616C317.017 87.6201 317.435 87.5566 317.834 87.4259C318.161 87.3178 318.462 87.1451 318.722 86.9176C318.957 86.7081 319.139 86.4462 319.256 86.1542C319.378 85.8488 319.437 85.5219 319.432 85.1929Z" fill="#FFAB00"/>
</g>
<path fill-rule="evenodd" clip-rule="evenodd" d="M294.88 125.697C298.341 122.233 298.341 116.616 294.88 113.152C291.418 109.688 285.805 109.688 282.343 113.152C278.882 116.616 278.882 122.233 282.343 125.697C285.805 129.161 291.418 129.161 294.88 125.697Z" fill="#FFAB00"/>
<g style="mix-blend-mode:multiply">
<path fill-rule="evenodd" clip-rule="evenodd" d="M294.88 125.697C298.341 122.233 298.341 116.616 294.88 113.152C291.418 109.688 285.805 109.688 282.343 113.152C278.882 116.616 278.882 122.233 282.343 125.697C285.805 129.161 291.418 129.161 294.88 125.697Z" fill="#FFAB00"/>
</g>
<path fill-rule="evenodd" clip-rule="evenodd" d="M288.411 128.386C293.295 128.067 296.998 123.846 296.679 118.957C296.361 114.069 292.142 110.364 287.257 110.683C282.372 111.002 278.67 115.223 278.988 120.111C279.307 125 283.525 128.704 288.411 128.386Z" fill="#FFAB00"/>
<g style="mix-blend-mode:multiply" opacity="0.5">
<path fill-rule="evenodd" clip-rule="evenodd" d="M286.909 112.087C285.419 112.274 284.018 112.899 282.883 113.885C281.748 114.869 280.931 116.168 280.534 117.618C280.138 119.067 280.179 120.603 280.653 122.028C281.128 123.455 282.014 124.707 283.201 125.629C284.388 126.551 285.82 127.1 287.319 127.206C288.817 127.313 290.313 126.973 291.618 126.228C292.923 125.484 293.979 124.37 294.65 123.025C295.322 121.681 295.581 120.168 295.392 118.676C295.138 116.678 294.103 114.862 292.513 113.626C290.923 112.39 288.907 111.837 286.909 112.087ZM288.866 127.644C287.012 127.878 285.135 127.461 283.553 126.465C281.973 125.469 280.785 123.955 280.195 122.181C279.604 120.406 279.646 118.483 280.314 116.736C280.982 114.99 282.235 113.529 283.858 112.603C285.482 111.678 287.376 111.344 289.218 111.659C291.059 111.974 292.735 112.918 293.959 114.331C295.184 115.744 295.88 117.538 295.93 119.406C295.981 121.276 295.383 123.105 294.236 124.582C293.588 125.422 292.78 126.126 291.858 126.651C290.936 127.177 289.92 127.515 288.866 127.644Z" fill="#FFAB00"/>
</g>
<g style="mix-blend-mode:multiply" opacity="0.5">
<path fill-rule="evenodd" clip-rule="evenodd" d="M289.254 121.812C289.256 121.655 289.229 121.497 289.177 121.349C289.124 121.209 289.04 121.085 288.93 120.983C288.8 120.863 288.653 120.764 288.494 120.686C288.283 120.582 288.065 120.493 287.842 120.42C287.433 120.282 287.032 120.123 286.638 119.944C286.304 119.794 285.991 119.598 285.71 119.364C285.457 119.151 285.253 118.888 285.108 118.59C284.829 117.946 284.814 117.216 285.069 116.56C285.191 116.269 285.373 116.007 285.603 115.792C285.847 115.565 286.131 115.383 286.439 115.256C286.789 115.112 287.159 115.022 287.535 114.988L287.527 113.647L288.604 113.639L288.615 114.999C288.98 115.041 289.336 115.142 289.669 115.299C289.976 115.442 290.251 115.645 290.478 115.897C290.706 116.147 290.88 116.442 290.991 116.762C291.116 117.126 291.178 117.508 291.174 117.892L289.225 117.906C289.222 117.405 289.107 117.03 288.883 116.783C288.77 116.66 288.631 116.563 288.476 116.5C288.321 116.437 288.154 116.409 287.987 116.417C287.809 116.416 287.632 116.447 287.465 116.509C287.33 116.56 287.207 116.639 287.106 116.743C287.012 116.843 286.942 116.962 286.899 117.092C286.855 117.232 286.834 117.379 286.836 117.526C286.835 117.669 286.859 117.811 286.906 117.945C286.957 118.078 287.037 118.195 287.141 118.291C287.273 118.411 287.421 118.512 287.581 118.589C287.802 118.698 288.029 118.794 288.261 118.875C288.698 119.036 289.096 119.2 289.454 119.368C289.788 119.521 290.099 119.718 290.379 119.954C290.631 120.169 290.838 120.433 290.982 120.731C291.263 121.38 291.274 122.114 291.016 122.773C290.893 123.062 290.71 123.322 290.48 123.536C290.233 123.759 289.947 123.936 289.636 124.056C289.285 124.193 288.916 124.28 288.54 124.314L288.549 125.562L287.476 125.569L287.468 124.328C287.098 124.294 286.734 124.215 286.383 124.092C286.042 123.974 285.726 123.792 285.453 123.556C285.173 123.311 284.95 123.008 284.799 122.667C284.625 122.261 284.539 121.821 284.547 121.378L286.496 121.364C286.49 121.618 286.534 121.869 286.626 122.106C286.699 122.288 286.814 122.451 286.962 122.58C287.101 122.697 287.265 122.781 287.44 122.827C287.618 122.874 287.8 122.896 287.984 122.896C288.172 122.898 288.359 122.869 288.539 122.81C288.686 122.761 288.822 122.683 288.939 122.581C289.044 122.487 289.126 122.369 289.179 122.239C289.231 122.102 289.257 121.958 289.254 121.812Z" fill="#FFAB00"/>
</g>
<path fill-rule="evenodd" clip-rule="evenodd" d="M347.728 134.752C347.806 134.689 347.92 134.702 347.982 134.78C348.045 134.858 348.033 134.972 347.954 135.035L347.933 135.053L347.919 135.065C347.893 135.088 347.861 135.114 347.828 135.146L347.81 135.162C347.691 135.272 347.558 135.406 347.414 135.563C347.002 136.015 346.59 136.565 346.203 137.217C345.45 138.489 344.894 139.984 344.62 141.71C344.282 143.846 344.394 146.229 345.04 148.868C345.064 148.965 345.004 149.064 344.907 149.088C344.81 149.111 344.712 149.052 344.688 148.955C344.03 146.269 343.915 143.837 344.262 141.654C344.544 139.881 345.115 138.342 345.891 137.032C346.29 136.359 346.718 135.789 347.146 135.319C347.286 135.166 347.417 135.033 347.536 134.921L347.564 134.896C347.641 134.825 347.696 134.777 347.728 134.752Z" fill="#C6C7C8"/>
<path fill-rule="evenodd" clip-rule="evenodd" d="M345.862 146.487C345.723 146.365 345.657 146.19 345.675 146.009C346.056 142.501 347.641 138.89 350.11 137.566C352.645 136.206 354.376 139.985 350.86 143.493C348.216 146.136 346.801 146.565 346.262 146.619C346.117 146.632 345.971 146.583 345.862 146.487Z" stroke="#C6C7C8" stroke-width="0.738"/>
<path fill-rule="evenodd" clip-rule="evenodd" d="M340.299 145.676C341.34 145.766 342.161 146.336 342.785 147.223C343.022 147.558 343.212 147.917 343.363 148.275C343.41 148.387 343.45 148.491 343.483 148.587L343.495 148.623C343.516 148.687 343.531 148.733 343.538 148.76C343.565 148.856 343.508 148.956 343.411 148.983C343.318 149.009 343.222 148.957 343.191 148.867L343.18 148.828L343.17 148.795C343.164 148.778 343.158 148.759 343.151 148.739C343.118 148.642 343.077 148.532 343.028 148.416C342.887 148.08 342.708 147.744 342.488 147.431C341.921 146.625 341.189 146.117 340.268 146.038C340.168 146.029 340.094 145.941 340.103 145.841C340.111 145.745 340.193 145.673 340.288 145.675L340.299 145.676Z" fill="#C6C7C8"/>
<path fill-rule="evenodd" clip-rule="evenodd" d="M352.295 137.746C352.363 137.814 352.366 137.923 352.304 137.994L352.29 138.008L352.218 138.08L352.152 138.149C352.121 138.181 352.089 138.215 352.053 138.25L352 138.307C351.764 138.553 351.501 138.836 351.218 139.149C350.409 140.045 349.6 141.01 348.845 142.005C347.946 143.191 347.186 144.342 346.609 145.427C346.425 145.77 346.262 146.106 346.119 146.432C346.079 146.524 345.971 146.566 345.879 146.525C345.788 146.485 345.746 146.378 345.787 146.286C345.933 145.952 346.101 145.608 346.288 145.256C346.875 144.153 347.646 142.987 348.555 141.786C349.317 140.781 350.133 139.809 350.949 138.906L351.049 138.796C351.28 138.542 351.496 138.309 351.695 138.1L351.818 137.972C351.86 137.928 351.901 137.886 351.937 137.849L352.038 137.746C352.109 137.675 352.224 137.675 352.295 137.746Z" fill="#C6C7C8"/>
<path fill-rule="evenodd" clip-rule="evenodd" d="M350.934 142.529L350.996 142.526C351.117 142.52 351.22 142.518 351.304 142.518L351.386 142.519C351.487 142.523 351.565 142.606 351.562 142.707C351.559 142.803 351.481 142.88 351.385 142.882L351.357 142.881C351.261 142.88 351.124 142.882 350.953 142.892C350.696 142.905 350.415 142.933 350.115 142.976C349.292 143.095 348.461 143.316 347.665 143.665C347.574 143.705 347.467 143.663 347.427 143.572C347.386 143.48 347.428 143.373 347.52 143.333C348.348 142.97 349.21 142.74 350.063 142.616C350.374 142.571 350.666 142.543 350.934 142.529Z" fill="#C6C7C8"/>
<path fill-rule="evenodd" clip-rule="evenodd" d="M349.34 138.158C349.427 138.207 349.458 138.318 349.41 138.405L349.367 138.482C349.354 138.507 349.339 138.535 349.323 138.565L349.263 138.675C349.209 138.777 349.151 138.888 349.09 139.006C348.849 139.472 348.608 139.967 348.384 140.467C348.207 140.862 348.046 141.246 347.908 141.61L347.873 141.703C347.507 142.686 347.326 143.477 347.374 143.99C347.384 144.09 347.311 144.178 347.211 144.188C347.111 144.197 347.023 144.124 347.013 144.025C346.956 143.424 347.161 142.557 347.569 141.481C347.709 141.11 347.872 140.72 348.053 140.318C348.28 139.811 348.523 139.311 348.767 138.84L348.836 138.708C348.887 138.609 348.937 138.516 348.983 138.429L349.049 138.308L349.092 138.228C349.142 138.141 349.252 138.11 349.34 138.158Z" fill="#C6C7C8"/>
<path fill-rule="evenodd" clip-rule="evenodd" d="M348.458 144.715C348.713 144.693 348.933 144.687 349.103 144.689L349.161 144.691C349.261 144.694 349.339 144.778 349.336 144.878C349.332 144.975 349.254 145.052 349.158 145.053L349.123 145.053C348.961 145.05 348.743 145.055 348.489 145.077C348.105 145.109 347.726 145.171 347.375 145.27C347.043 145.362 346.749 145.484 346.503 145.637C346.418 145.69 346.305 145.663 346.253 145.578C346.2 145.493 346.226 145.381 346.311 145.328C346.589 145.156 346.914 145.022 347.276 144.92C347.653 144.814 348.054 144.749 348.458 144.715Z" fill="#C6C7C8"/>
<path fill-rule="evenodd" clip-rule="evenodd" d="M342.728 143.281C342.54 143.414 342.322 143.432 342.153 143.342C338.843 141.521 336.048 138.122 336.006 134.458C335.957 130.69 340.641 129.898 342.328 135.74C343.599 140.136 343.297 142.114 343.067 142.821C343.001 143.003 342.879 143.172 342.728 143.281Z" stroke="#C6C7C8" stroke-width="0.738"/>
<path fill-rule="evenodd" clip-rule="evenodd" d="M337.136 132.026C337.183 131.937 337.294 131.904 337.382 131.952C338.935 132.792 340.188 134.746 341.188 137.478C341.659 138.767 342.043 140.145 342.346 141.523L342.381 141.683C342.46 142.052 342.529 142.399 342.587 142.72L342.612 142.856C342.637 142.997 342.658 143.122 342.676 143.23L342.697 143.364C342.711 143.463 342.643 143.555 342.543 143.57C342.444 143.584 342.352 143.516 342.337 143.417L342.321 143.309L342.306 143.222C342.294 143.143 342.279 143.055 342.262 142.961L342.255 142.919C342.183 142.522 342.096 142.079 341.991 141.601C341.692 140.238 341.312 138.874 340.847 137.603C339.875 134.947 338.663 133.057 337.209 132.271C337.121 132.223 337.088 132.114 337.136 132.026Z" fill="#C6C7C8"/>
<path fill-rule="evenodd" clip-rule="evenodd" d="M336.028 134.946C336.069 134.855 336.177 134.814 336.268 134.855C337.01 135.188 337.857 135.603 338.68 136.061L338.786 136.12C339.944 136.772 340.836 137.393 341.35 137.958C341.418 138.033 341.412 138.148 341.338 138.215C341.264 138.282 341.149 138.277 341.081 138.203C340.585 137.657 339.681 137.033 338.504 136.378C337.691 135.926 336.852 135.516 336.119 135.186C336.028 135.145 335.987 135.038 336.028 134.946Z" fill="#C6C7C8"/>
<path fill-rule="evenodd" clip-rule="evenodd" d="M342.113 135.512C342.213 135.502 342.301 135.576 342.31 135.675C342.39 136.518 342.43 137.333 342.411 138.045L342.408 138.133C342.376 139.048 342.246 139.707 341.978 140.059C341.917 140.139 341.803 140.154 341.723 140.093C341.644 140.033 341.628 139.92 341.689 139.84C342.091 139.31 342.135 137.697 341.949 135.709C341.94 135.609 342.013 135.521 342.113 135.512Z" fill="#C6C7C8"/>
<path fill-rule="evenodd" clip-rule="evenodd" d="M337.554 139.134C337.617 139.056 337.732 139.044 337.81 139.108C338.229 139.447 338.85 139.808 339.616 140.173C340.153 140.43 340.73 140.675 341.307 140.897L341.406 140.936C341.538 140.987 341.662 141.033 341.779 141.076L341.936 141.133L342.074 141.181C342.169 141.214 342.22 141.317 342.187 141.412C342.156 141.504 342.059 141.554 341.966 141.528L341.934 141.517L341.858 141.49C341.837 141.483 341.815 141.474 341.79 141.466L341.654 141.416C341.506 141.362 341.345 141.302 341.175 141.236C340.591 141.01 340.006 140.762 339.459 140.501L339.355 140.45C338.613 140.09 338.007 139.735 337.581 139.389C337.503 139.326 337.491 139.212 337.554 139.134Z" fill="#C6C7C8"/>
<path fill-rule="evenodd" clip-rule="evenodd" d="M340.653 144.915C340.723 144.405 340.644 143.974 340.479 143.952C340.313 143.929 340.123 144.324 340.054 144.833C339.984 145.343 340.063 145.775 340.228 145.797C340.394 145.819 340.584 145.425 340.653 144.915Z" stroke="#C6C7C8" stroke-width="0.738"/>
<path fill-rule="evenodd" clip-rule="evenodd" d="M340.232 145.795C340.329 145.677 340.116 145.339 339.755 145.042C339.395 144.744 339.023 144.599 338.925 144.717C338.827 144.836 339.041 145.174 339.401 145.471C339.762 145.769 340.134 145.914 340.232 145.795Z" stroke="#C6C7C8" stroke-width="0.738"/>
<path fill-rule="evenodd" clip-rule="evenodd" d="M341.192 145.619C341.642 145.383 341.943 145.07 341.864 144.919C341.785 144.767 341.356 144.836 340.906 145.072C340.456 145.308 340.156 145.621 340.235 145.772C340.313 145.923 340.743 145.854 341.192 145.619Z" stroke="#C6C7C8" stroke-width="0.738"/>
<path fill-rule="evenodd" clip-rule="evenodd" d="M339.623 146.443C340.033 146.218 340.306 145.927 340.232 145.792C340.158 145.657 339.766 145.73 339.356 145.955C338.945 146.18 338.673 146.471 338.747 146.606C338.821 146.741 339.214 146.667 339.623 146.443Z" stroke="#C6C7C8" stroke-width="0.738"/>
<path fill-rule="evenodd" clip-rule="evenodd" d="M340.945 147.344C341.084 147.28 341.039 146.881 340.844 146.453C340.648 146.024 340.376 145.729 340.236 145.793C340.096 145.857 340.142 146.255 340.337 146.684C340.532 147.112 340.805 147.408 340.945 147.344Z" stroke="#C6C7C8" stroke-width="0.738"/>
<path fill-rule="evenodd" clip-rule="evenodd" d="M349.82 149.407L347.581 159.543H340.472L338.233 149.407C338.106 148.827 338.469 148.258 338.965 148.258H349.094C349.59 148.264 349.953 148.832 349.82 149.407Z" fill="white"/>
<path fill-rule="evenodd" clip-rule="evenodd" d="M349.094 148.44H349.106C349.466 148.456 349.743 148.893 349.647 149.348L347.435 159.362H340.617L338.41 149.369C338.306 148.893 338.595 148.44 338.965 148.44H349.094ZM349.096 148.078H338.965C338.342 148.078 337.906 148.762 338.056 149.446L340.294 159.582C340.313 159.665 340.386 159.725 340.472 159.725H347.581C347.666 159.725 347.741 159.665 347.759 159.582L349.997 149.447C350.154 148.771 349.719 148.085 349.096 148.078Z" fill="#C6C7C8"/>
<path fill-rule="evenodd" clip-rule="evenodd" d="M353.107 134.884C353.762 131.806 351.797 128.778 348.718 128.12C345.64 127.462 342.613 129.423 341.958 132.501C341.303 135.579 343.269 138.608 346.347 139.266C349.426 139.924 352.453 137.962 353.107 134.884Z" fill="#FFAB00"/>
<g style="mix-blend-mode:multiply">
<path fill-rule="evenodd" clip-rule="evenodd" d="M353.107 134.884C353.762 131.806 351.797 128.778 348.718 128.12C345.64 127.462 342.613 129.423 341.958 132.501C341.303 135.579 343.269 138.608 346.347 139.266C349.426 139.924 352.453 137.962 353.107 134.884Z" fill="#FFAB00"/>
</g>
<path fill-rule="evenodd" clip-rule="evenodd" d="M350.559 138.597C353.081 136.718 353.601 133.147 351.719 130.622C349.836 128.097 346.266 127.574 343.743 129.453C341.221 131.333 340.701 134.903 342.583 137.428C344.465 139.952 348.036 140.475 350.559 138.597Z" fill="#FFAB00"/>
<g style="mix-blend-mode:multiply" opacity="0.5">
<path fill-rule="evenodd" clip-rule="evenodd" d="M344.046 130.331C343.307 130.953 342.771 131.78 342.504 132.708C342.236 133.636 342.25 134.622 342.543 135.542C342.836 136.463 343.395 137.276 344.15 137.879C344.905 138.482 345.822 138.848 346.784 138.93C347.746 139.012 348.711 138.807 349.556 138.342C350.402 137.875 351.09 137.169 351.533 136.312C351.976 135.454 352.155 134.484 352.047 133.525C351.939 132.565 351.549 131.658 350.926 130.92C350.09 129.931 348.896 129.314 347.606 129.203C346.316 129.093 345.036 129.499 344.046 130.331ZM350.545 138.036C349.627 138.811 348.469 139.242 347.267 139.257C346.066 139.273 344.896 138.871 343.957 138.121C343.017 137.371 342.367 136.319 342.117 135.143C341.866 133.969 342.03 132.743 342.582 131.676C343.133 130.609 344.038 129.767 345.141 129.294C346.245 128.82 347.479 128.743 348.634 129.077C349.788 129.411 350.791 130.135 351.472 131.126C352.154 132.116 352.471 133.311 352.369 134.508C352.314 135.188 352.124 135.85 351.811 136.456C351.497 137.061 351.067 137.599 350.545 138.036Z" fill="#FFAB00"/>
</g>
<g style="mix-blend-mode:multiply" opacity="0.5">
<path fill-rule="evenodd" clip-rule="evenodd" d="M348.715 134.756C348.66 134.67 348.59 134.595 348.51 134.532C348.433 134.476 348.344 134.438 348.25 134.422C348.137 134.403 348.023 134.4 347.91 134.414C347.76 134.431 347.611 134.46 347.466 134.499C347.197 134.567 346.924 134.622 346.65 134.662C346.417 134.699 346.18 134.703 345.946 134.674C345.735 134.648 345.533 134.577 345.351 134.468C344.975 134.218 344.712 133.829 344.62 133.386C344.583 133.186 344.59 132.982 344.639 132.786C344.691 132.578 344.78 132.381 344.902 132.205C345.04 132.004 345.208 131.826 345.4 131.676L344.926 130.956L345.504 130.575L345.986 131.305C346.197 131.2 346.424 131.13 346.659 131.098C346.875 131.069 347.094 131.082 347.305 131.138C347.515 131.194 347.712 131.292 347.884 131.425C348.079 131.578 348.245 131.762 348.378 131.971L347.332 132.66C347.155 132.391 346.962 132.228 346.755 132.173C346.651 132.147 346.541 132.143 346.436 132.163C346.331 132.183 346.231 132.227 346.143 132.29C346.047 132.351 345.962 132.43 345.894 132.521C345.839 132.596 345.801 132.682 345.782 132.773C345.767 132.859 345.77 132.949 345.793 133.034C345.818 133.124 345.857 133.211 345.91 133.29C345.96 133.367 346.022 133.435 346.095 133.491C346.169 133.545 346.253 133.58 346.343 133.595C346.456 133.614 346.571 133.617 346.684 133.603C346.841 133.583 346.998 133.556 347.151 133.519C347.443 133.453 347.715 133.402 347.967 133.368C348.2 133.334 348.437 133.331 348.671 133.361C348.882 133.388 349.085 133.458 349.268 133.569C349.646 133.821 349.91 134.212 350.001 134.658C350.036 134.857 350.028 135.061 349.978 135.257C349.923 135.464 349.831 135.659 349.705 135.832C349.564 136.029 349.395 136.205 349.205 136.355L349.646 137.024L349.07 137.403L348.631 136.737C348.42 136.848 348.196 136.932 347.963 136.988C347.738 137.044 347.505 137.056 347.274 137.025C347.038 136.99 346.811 136.905 346.611 136.774C346.375 136.615 346.174 136.408 346.024 136.167L347.07 135.478C347.155 135.617 347.267 135.737 347.4 135.833C347.503 135.906 347.622 135.953 347.747 135.971C347.863 135.986 347.98 135.973 348.091 135.937C348.203 135.9 348.309 135.849 348.408 135.784C348.51 135.719 348.601 135.638 348.678 135.544C348.74 135.466 348.786 135.377 348.813 135.281C348.837 135.193 348.84 135.101 348.822 135.012C348.803 134.92 348.767 134.833 348.715 134.756Z" fill="#FFAB00"/>
</g>
<path fill-rule="evenodd" clip-rule="evenodd" d="M312.554 120.183C312.554 120.128 312.856 113.909 309.854 112.478L310.065 112.275C311.436 112.755 312.965 114.241 313.575 116.339C314.032 117.893 313.684 118.24 313.686 118.298L312.554 120.183Z" fill="#C6C7C8"/>
<path fill-rule="evenodd" clip-rule="evenodd" d="M304.714 107.866C304.714 107.866 304.371 111.066 306.045 112.426C307.719 113.786 310.778 112.791 310.778 112.791C310.778 112.791 311.121 109.591 309.446 108.232C307.771 106.874 304.714 107.866 304.714 107.866Z" fill="#C6C7C8"/>
<path fill-rule="evenodd" clip-rule="evenodd" d="M316.154 108.339C316.164 108.298 317.098 102.933 319.613 102.322C318.489 102.468 317.061 103.274 316.262 104.774C315.668 105.888 315.877 106.204 315.866 106.248L316.154 108.339Z" fill="#C6C7C8"/>
<path fill-rule="evenodd" clip-rule="evenodd" d="M306.09 95.9922C306.09 95.9922 303.377 92.16 300.296 91.0343C300.296 91.0343 301.449 100.024 299.764 100.135C298.079 100.247 299.202 90.0254 299.202 90.0254C299.202 90.0254 291.176 85.5675 287.918 85.691C287.918 85.691 292.531 94.6728 290.872 94.3654C289.211 94.0584 283.978 84.9342 283.978 84.9342C283.978 84.9342 275.602 82.8698 273.949 87.8103C272.296 92.7503 274.345 95.3907 275.581 95.778C276.817 96.1659 284.871 96.5323 284.601 97.5668C284.332 98.6008 278.798 99.9551 275.821 98.836C275.821 98.836 278.682 107.295 283.097 107.135C287.511 106.973 289.029 104.334 291.759 104.283C294.49 104.233 296.433 105.083 295.031 105.734C293.629 106.387 289.059 105.626 286.754 107.364C284.45 109.102 282.606 110.149 286.634 111.225C290.661 112.301 296.739 111.086 299.625 109.163C299.633 109.157 301.986 108.97 303.839 119.872C304.553 124.079 304.004 130.311 304.004 130.311L305.5 130.082C306.328 117.862 301.92 107.701 301.92 107.701C301.92 107.701 309.399 102.172 306.09 95.9922Z" fill="#C6C7C8"/>
<path fill-rule="evenodd" clip-rule="evenodd" d="M306.09 95.9922C306.09 95.9922 303.377 92.16 300.296 91.0343C300.296 91.0343 301.449 100.024 299.764 100.135C298.079 100.247 299.202 90.0254 299.202 90.0254C299.202 90.0254 291.176 85.5675 287.918 85.691C287.918 85.691 292.531 94.6728 290.872 94.3654C289.211 94.0584 283.978 84.9342 283.978 84.9342C283.978 84.9342 275.602 82.8698 273.949 87.8103C272.296 92.7503 274.345 95.3907 275.581 95.778C276.817 96.1659 284.871 96.5323 284.601 97.5668C284.332 98.6008 278.798 99.9551 275.821 98.836C275.821 98.836 278.682 107.295 283.097 107.135C287.511 106.973 289.029 104.334 291.759 104.283C294.49 104.233 296.433 105.083 295.031 105.734C293.629 106.387 289.059 105.626 286.754 107.364C284.45 109.102 282.606 110.149 286.634 111.225C290.661 112.301 296.739 111.086 299.625 109.163C299.633 109.157 301.986 108.97 303.839 119.872C304.553 124.079 304.004 130.311 304.004 130.311L305.5 130.082C306.328 117.862 301.92 107.701 301.92 107.701C301.92 107.701 309.399 102.172 306.09 95.9922Z" stroke="#C6C7C8" stroke-width="1.149"/>
<path fill-rule="evenodd" clip-rule="evenodd" d="M330.544 112.125C330.544 112.125 321.533 108.336 324.758 101.445C324.758 101.445 327.474 97.1288 330.748 95.7285C330.748 95.7285 330.027 105.542 331.861 105.563C333.695 105.584 331.876 94.5699 331.876 94.5699C331.876 94.5699 340.315 89.2666 343.856 89.2057C343.856 89.2057 339.378 99.2158 341.163 98.7849C342.947 98.354 348.087 88.1537 348.087 88.1537C348.087 88.1537 357.046 85.4216 359.128 90.6808C361.211 95.9406 359.146 98.9243 357.828 99.4162C356.511 99.9081 347.799 100.781 348.153 101.884C348.507 102.988 354.586 104.133 357.747 102.744C357.747 102.744 355.142 112.084 350.345 112.171C345.55 112.256 343.748 109.482 340.786 109.589C337.822 109.696 335.765 110.73 337.324 111.355C338.881 111.979 343.792 110.885 346.393 112.635C348.993 114.385 351.053 115.41 346.752 116.813C342.451 118.217 334.476 118.551 332.511 115.336L330.544 112.125Z" fill="#DDDEDE"/>
<path fill-rule="evenodd" clip-rule="evenodd" d="M330.544 112.125C330.544 112.125 321.533 108.336 324.758 101.445C324.758 101.445 327.474 97.1288 330.748 95.7285C330.748 95.7285 330.027 105.542 331.861 105.563C333.695 105.584 331.876 94.5699 331.876 94.5699C331.876 94.5699 340.315 89.2666 343.856 89.2057C343.856 89.2057 339.378 99.2158 341.163 98.7849C342.947 98.354 348.087 88.1537 348.087 88.1537C348.087 88.1537 357.046 85.4216 359.128 90.6808C361.211 95.9406 359.146 98.9243 357.828 99.4162C356.511 99.9081 347.799 100.781 348.153 101.884C348.507 102.988 354.586 104.133 357.747 102.744C357.747 102.744 355.142 112.084 350.345 112.171C345.55 112.256 343.748 109.482 340.786 109.589C337.822 109.696 335.765 110.73 337.324 111.355C338.881 111.979 343.792 110.885 346.393 112.635C348.993 114.385 351.053 115.41 346.752 116.813C342.451 118.217 334.476 118.551 332.511 115.336L330.544 112.125Z" stroke="#C6C7C8" stroke-width="1.149"/>
<path fill-rule="evenodd" clip-rule="evenodd" d="M355.141 92.8516C355.141 92.8516 332.286 103.227 330.543 112.125C330.543 112.125 331.091 115.956 329.218 120.634L329.41 122.33C329.41 122.33 331.243 116.283 332.509 115.339C332.512 115.339 326.357 108.478 355.141 92.8516Z" fill="#C6C7C8"/>
<path fill-rule="evenodd" clip-rule="evenodd" d="M329.221 120.634C329.221 120.634 326.191 126.608 329.042 133.14L329.957 132.78C329.957 132.78 328.2 125.429 329.69 121.464C331.18 117.498 329.221 120.634 329.221 120.634Z" fill="#C6C7C8"/>
<path fill-rule="evenodd" clip-rule="evenodd" d="M296.193 71.0864C299.885 75.0175 297.965 82.8274 297.965 82.8274C297.965 82.8274 290.057 84.2621 286.36 80.3295C282.664 76.3963 284.589 68.5869 284.589 68.5869C284.589 68.5869 292.499 67.1532 296.193 71.0864Z" fill="#C6C7C8"/>
<path fill-rule="evenodd" clip-rule="evenodd" d="M296.193 71.0864C299.885 75.0175 297.965 82.8274 297.965 82.8274C297.965 82.8274 290.057 84.2621 286.36 80.3295C282.664 76.3963 284.589 68.5869 284.589 68.5869C284.589 68.5869 292.499 67.1532 296.193 71.0864Z" stroke="#C6C7C8" stroke-width="1.149"/>
<path fill-rule="evenodd" clip-rule="evenodd" d="M296.193 71.0864C299.885 75.0175 297.965 82.8274 297.965 82.8274L284.591 68.5869C284.591 68.5869 292.499 67.1532 296.193 71.0864Z" fill="#DDDEDE"/>
<path fill-rule="evenodd" clip-rule="evenodd" d="M343.818 86.0656C341.892 88.2996 337.538 87.6986 337.538 87.6986C337.538 87.6986 336.308 83.4764 338.235 81.2414C340.162 79.0068 344.516 79.6083 344.516 79.6083C344.516 79.6083 345.746 83.831 343.818 86.0656Z" fill="#C6C7C8"/>
<path fill-rule="evenodd" clip-rule="evenodd" d="M343.818 86.0656C341.892 88.2996 337.538 87.6986 337.538 87.6986C337.538 87.6986 336.308 83.4764 338.235 81.2414C340.162 79.0068 344.516 79.6083 344.516 79.6083C344.516 79.6083 345.746 83.831 343.818 86.0656Z" stroke="#C6C7C8" stroke-width="1.149"/>
<path fill-rule="evenodd" clip-rule="evenodd" d="M321.042 103.829C319.749 104.188 318.253 102.862 318.253 102.862C318.253 102.862 318.853 100.954 320.145 100.596C321.437 100.238 322.932 101.564 322.932 101.564C322.932 101.564 322.334 103.471 321.042 103.829Z" fill="#C6C7C8"/>
<path fill-rule="evenodd" clip-rule="evenodd" d="M298.23 63.7939C299.115 65.8967 297.208 68.7067 297.208 68.7067C297.208 68.7067 293.863 68.1113 292.978 66.0105C292.092 63.9092 294 61.0977 294 61.0977C294 61.0977 297.344 61.6925 298.23 63.7939Z" fill="#C6C7C8"/>
<path fill-rule="evenodd" clip-rule="evenodd" d="M298.23 63.7939C299.115 65.8967 297.208 68.7067 297.208 68.7067C297.208 68.7067 293.863 68.1113 292.978 66.0105C292.092 63.9092 294 61.0977 294 61.0977C294 61.0977 297.344 61.6925 298.23 63.7939Z" stroke="#C6C7C8" stroke-width="1.149"/>
<path fill-rule="evenodd" clip-rule="evenodd" d="M331.017 132.523L325.077 159.635H306.211L300.27 132.523C299.933 130.97 300.896 129.448 302.213 129.448H329.091C330.407 129.465 331.37 130.986 331.017 132.523Z" fill="white"/>
<path fill-rule="evenodd" clip-rule="evenodd" d="M329.274 129.805L329.307 129.806C330.27 129.848 331.011 131.017 330.755 132.236L324.837 159.03H306.593L300.687 132.29C300.409 131.019 301.182 129.805 302.172 129.805H329.274ZM329.28 128.833H302.171C300.504 128.833 299.337 130.665 299.737 132.497L305.728 159.619C305.777 159.842 305.975 160 306.202 160H325.226C325.454 160 325.652 159.842 325.701 159.619L331.691 132.499C332.111 130.689 330.947 128.855 329.28 128.833Z" fill="#C6C7C8"/>
<path fill-rule="evenodd" clip-rule="evenodd" d="M72.2476 120.577C72.1984 120.577 72.1512 120.558 72.1164 120.523C72.0815 120.488 72.0615 120.44 72.0615 120.391V117.35C72.0615 111.176 76.5417 106.153 82.0498 106.153H86.6807C86.7299 106.153 86.7766 106.173 86.8114 106.208C86.8463 106.242 86.8658 106.29 86.8658 106.338C86.8658 106.388 86.8463 106.435 86.8114 106.469C86.7766 106.504 86.7299 106.524 86.6807 106.524H82.0498C76.7468 106.524 72.4327 111.381 72.4327 117.348V120.388C72.4332 120.413 72.4286 120.437 72.4194 120.46C72.4101 120.483 72.3968 120.504 72.3794 120.521C72.3625 120.539 72.342 120.553 72.3189 120.562C72.2963 120.573 72.2722 120.577 72.2476 120.577Z" fill="white"/>
<path fill-rule="evenodd" clip-rule="evenodd" d="M83.2495 159.496V159.555H32.8667V159.298C33.1112 158.642 33.4922 158.046 33.9838 157.548C34.476 157.051 35.0681 156.664 35.7212 156.413C36.3733 156.163 37.0726 156.053 37.7709 156.093C38.4691 156.133 39.151 156.321 39.7713 156.644C40.1148 155.6 40.7971 154.701 41.7097 154.088C42.6217 153.476 43.7121 153.185 44.8077 153.262C45.9043 153.34 46.943 153.78 47.7602 154.515C48.5773 155.249 49.1269 156.236 49.3212 157.318H52.6279C52.9673 155.603 54.9052 154.812 56.6206 154.812C56.8497 154.812 57.0789 154.829 57.3055 154.863C57.267 154.615 57.2481 154.365 57.2481 154.113C57.2481 150.943 60.2713 148.372 63.9999 148.372C67.4101 148.372 70.2329 150.523 70.6876 153.317C71.3941 152.845 72.2133 152.568 73.0612 152.515C73.9092 152.462 74.7566 152.634 75.5164 153.014C76.2767 153.394 76.9226 153.968 77.3897 154.678C77.8562 155.389 78.1274 156.21 78.1746 157.059C78.7236 156.722 79.3568 156.545 80.0017 156.548C81.7955 156.548 83.2495 157.867 83.2495 159.496Z" stroke="#C6C7C8" stroke-width="1.149"/>
<path fill-rule="evenodd" clip-rule="evenodd" d="M91.8345 126.895L94.527 35.5085C94.527 35.3917 94.5731 35.28 94.6562 35.197C94.7387 35.1145 94.8505 35.0684 94.9669 35.0684C95.0838 35.0684 95.1955 35.1145 95.2781 35.197C95.3601 35.28 95.4062 35.3917 95.4062 35.5085L98.0254 126.894L91.8345 126.895Z" fill="#C6C7C8"/>
<mask id="mask0" style="mask-type:alpha" maskUnits="userSpaceOnUse" x="93" y="0" width="6" height="36">
<path fill-rule="evenodd" clip-rule="evenodd" d="M93.9822 0H98.63V35.0545H93.9822V0Z" fill="white"/>
</mask>
<g mask="url(#mask0)">
<path fill-rule="evenodd" clip-rule="evenodd" d="M98.4255 18.3263C97.9554 25.1299 96.7214 31.1111 95.6212 34.726C95.5905 34.827 95.5269 34.9136 95.4403 34.973C95.3536 35.0324 95.2501 35.0606 95.1455 35.0534C95.0404 35.0463 94.9414 35.0043 94.864 34.9335C94.7866 34.8628 94.7353 34.768 94.7184 34.6645C94.1242 30.9497 93.7177 24.8993 94.1868 18.0983C94.7353 10.0798 96.3564 3.20093 97.5571 0C98.3168 3.3362 98.9787 10.3078 98.4255 18.3263Z" fill="#C6C7C8"/>
</g>
<path fill-rule="evenodd" clip-rule="evenodd" d="M78.9371 42.532C84.4837 39.288 89.8251 37.0094 93.4374 35.8165C94.0572 35.6116 94.5094 36.4017 94.0208 36.8362C91.6359 38.9437 87.1388 42.3972 80.8878 46.0531C73.9545 50.1082 67.6226 52.7471 64.3005 53.5515C66.6332 51.0469 72.0028 46.5912 78.9371 42.532Z" fill="#C6C7C8"/>
<path fill-rule="evenodd" clip-rule="evenodd" d="M110.051 40.9261C116.478 44.274 121.73 48.324 123.895 50.5611C120.82 50.0687 114.951 47.7778 108.519 44.4298C103.313 41.7198 98.8853 38.9144 96.2364 36.7577C95.7658 36.378 96.1426 35.6304 96.727 35.7714C100.014 36.5651 104.847 38.217 110.051 40.9261Z" fill="#C6C7C8"/>
<path fill-rule="evenodd" clip-rule="evenodd" d="M135.972 133.201L138.323 53.4917C138.323 53.3897 138.364 53.2919 138.436 53.2206C138.507 53.1489 138.605 53.1079 138.707 53.1079C138.808 53.1079 138.906 53.1489 138.978 53.2206C139.05 53.2919 139.09 53.3897 139.09 53.4917L141.375 133.201H135.972Z" fill="#C6C7C8"/>
<path fill-rule="evenodd" clip-rule="evenodd" d="M143.651 41.7292C142.309 46.5744 140.536 50.715 139.204 53.1617C139.167 53.2299 139.108 53.2832 139.037 53.3134C138.965 53.3441 138.886 53.3493 138.811 53.3288C138.737 53.3083 138.671 53.2627 138.626 53.1996C138.58 53.1371 138.557 53.0608 138.56 52.9834C138.679 50.2119 139.278 45.7817 140.621 40.937C142.203 35.2274 144.383 30.4969 145.728 28.3623C145.783 30.8833 145.233 36.019 143.651 41.7292Z" fill="#C6C7C8"/>
<path fill-rule="evenodd" clip-rule="evenodd" d="M126.001 56.3348C130.487 54.8104 134.681 53.9532 137.469 53.6253C137.569 53.613 137.672 53.6365 137.757 53.6903C137.843 53.7452 137.908 53.8277 137.94 53.925C137.972 54.0213 137.969 54.1259 137.933 54.2212C137.896 54.3155 137.827 54.3949 137.739 54.4456C135.706 55.6164 131.949 57.4462 126.893 59.1642C121.286 61.0688 116.323 62.0398 113.804 62.131C115.857 60.6676 120.393 58.2399 126.001 56.3348Z" fill="#C6C7C8"/>
<path fill-rule="evenodd" clip-rule="evenodd" d="M148.715 59.7699C152.869 63.1378 156.058 66.8383 157.294 68.7747C155.144 67.9641 151.243 65.4431 147.09 62.0751C143.728 59.3476 140.945 56.6632 139.349 54.7176C139.289 54.6444 139.256 54.5532 139.255 54.4584C139.254 54.3646 139.285 54.2719 139.343 54.1976C139.402 54.1227 139.483 54.0705 139.575 54.049C139.667 54.0269 139.763 54.0372 139.849 54.0777C142.104 55.1419 145.355 57.0475 148.715 59.7699Z" fill="#C6C7C8"/>
<path fill-rule="evenodd" clip-rule="evenodd" d="M69.8888 152.886C69.8642 152.886 69.8401 152.881 69.8176 152.872C69.795 152.863 69.775 152.849 69.7576 152.832C69.7401 152.815 69.7268 152.795 69.7176 152.772C69.7084 152.749 69.7032 152.725 69.7032 152.701V84.8833C69.7022 84.8582 69.7058 84.8326 69.714 84.8085C69.7227 84.785 69.7366 84.7624 69.7535 84.7445C69.7714 84.7255 69.7919 84.7107 69.815 84.7009C69.8381 84.6907 69.8637 84.6855 69.8888 84.6855C69.9139 84.6855 69.9396 84.6907 69.9631 84.7009C69.9857 84.7107 70.0072 84.7255 70.0242 84.7445C70.0421 84.7624 70.0554 84.785 70.0636 84.8085C70.0723 84.8326 70.0759 84.8582 70.0744 84.8833V152.701C70.0744 152.751 70.0544 152.798 70.0195 152.833C69.9847 152.866 69.9375 152.886 69.8888 152.886Z" fill="#333739"/>
<path fill-rule="evenodd" clip-rule="evenodd" d="M66.1578 67.0815C66.6284 69.4391 67.582 71.3662 68.5699 72.1681C69.1754 71.0485 69.3184 68.9041 68.8493 66.5456C68.3807 64.187 67.4261 62.2609 66.4372 61.458C65.8328 62.5781 65.6892 64.7245 66.1578 67.0815Z" fill="#C6C7C8"/>
<path fill-rule="evenodd" clip-rule="evenodd" d="M70.6729 89.7715C71.1431 92.1285 72.0971 94.0551 73.084 94.8581C73.6895 93.738 73.8335 91.5941 73.3639 89.235C72.8943 86.8755 71.9408 84.9499 70.9518 84.1475C70.3495 85.2676 70.2028 87.413 70.6729 89.7715Z" fill="#C6C7C8"/>
<path fill-rule="evenodd" clip-rule="evenodd" d="M80.7655 74.5642C78.4103 75.0341 76.4842 75.9882 75.6814 76.9776C76.8016 77.5832 78.9435 77.7262 81.3007 77.2563C83.658 76.787 85.583 75.8324 86.3843 74.8435C85.2657 74.2378 83.1212 74.0933 80.7655 74.5642Z" fill="#C6C7C8"/>
<path fill-rule="evenodd" clip-rule="evenodd" d="M58.0956 79.0847C55.7399 79.5555 53.8143 80.5086 53.012 81.4965C54.1311 82.1032 56.2741 82.2471 58.6313 81.7768C60.9885 81.3074 62.9131 80.3523 63.7149 79.3639C62.5917 78.7552 60.4472 78.6138 58.0956 79.0847Z" fill="#C6C7C8"/>
<path fill-rule="evenodd" clip-rule="evenodd" d="M75.0031 67.8062C73.6707 69.8056 72.9822 71.8434 73.1129 73.11C74.3325 72.7462 75.951 71.3295 77.285 69.3316C78.6179 67.3343 79.3064 65.294 79.1742 64.0278C77.955 64.3911 76.3371 65.8079 75.0031 67.8062Z" fill="#C6C7C8"/>
<path fill-rule="evenodd" clip-rule="evenodd" d="M62.1643 87.0475C60.8319 89.0453 60.1429 91.0826 60.2741 92.3492C61.4943 91.9854 63.1112 90.5692 64.4462 88.5718C65.7812 86.5735 66.4666 84.5347 66.3349 83.2686C65.1163 83.6313 63.4978 85.0471 62.1643 87.0475Z" fill="#C6C7C8"/>
<path fill-rule="evenodd" clip-rule="evenodd" d="M80.0435 83.4356C78.0462 82.1018 76.0104 81.4122 74.7451 81.5444C75.1081 82.7649 76.5241 84.3841 78.5209 85.7183C80.5172 87.0541 82.5551 87.7413 83.8203 87.6091C83.4569 86.3896 82.0373 84.7704 80.0435 83.4356Z" fill="#C6C7C8"/>
<path fill-rule="evenodd" clip-rule="evenodd" d="M60.8187 70.5868C58.8209 69.2531 56.7845 68.5649 55.5193 68.6966C55.8823 69.9171 57.2987 71.5358 59.2951 72.8711C61.2914 74.2054 63.3292 74.893 64.595 74.7618C64.2315 73.5413 62.8166 71.9221 60.8187 70.5868Z" fill="#C6C7C8"/>
<path fill-rule="evenodd" clip-rule="evenodd" d="M70.4165 66.93C70.0084 69.2153 70.1868 71.2848 70.7918 72.3537C71.7325 71.561 72.6164 69.6872 73.0245 67.3978C73.4331 65.1079 73.2536 63.0435 72.6482 61.9741C71.71 62.7668 70.8292 64.6457 70.4165 66.93Z" fill="#C6C7C8"/>
<path fill-rule="evenodd" clip-rule="evenodd" d="M66.4857 88.9183C66.0771 91.2026 66.2555 93.2721 66.8615 94.342C67.8022 93.5488 68.685 91.6745 69.0941 89.3856C69.5037 87.0962 69.3228 85.0318 68.7178 83.9619C67.7791 84.7612 66.8938 86.6366 66.4857 88.9183Z" fill="#C6C7C8"/>
<path fill-rule="evenodd" clip-rule="evenodd" d="M80.9141 78.809C78.6311 78.4006 76.5631 78.58 75.4941 79.1856C76.2867 80.1269 78.1631 81.0108 80.447 81.4197C82.7309 81.8281 84.798 81.6487 85.8669 81.0431C85.0743 80.1033 83.1975 79.2179 80.9141 78.809Z" fill="#C6C7C8"/>
<path fill-rule="evenodd" clip-rule="evenodd" d="M58.9375 74.8788C56.6546 74.4704 54.587 74.6498 53.5176 75.2559C54.3102 76.1972 56.1865 77.08 58.4704 77.49C60.7544 77.8999 62.8215 77.7185 63.8909 77.1128C63.0983 76.1705 61.2209 75.2846 58.9375 74.8788Z" fill="#C6C7C8"/>
<path fill-rule="evenodd" clip-rule="evenodd" d="M78.1842 71.0263C76.2735 72.2956 74.9175 73.8384 74.5679 75.0025C75.7767 75.1317 77.7228 74.4835 79.6345 73.2112C81.5458 71.9384 82.9013 70.3992 83.2524 69.2345C82.0374 69.1049 80.0939 69.7561 78.1842 71.0263Z" fill="#C6C7C8"/>
<path fill-rule="evenodd" clip-rule="evenodd" d="M59.7849 83.2441C57.8737 84.5143 56.5182 86.0561 56.167 87.2208C57.3753 87.3494 59.3219 86.7017 61.2347 85.4295C63.1469 84.1572 64.5014 82.6164 64.8516 81.4528C63.6427 81.3231 61.6966 81.9739 59.7849 83.2441Z" fill="#C6C7C8"/>
<path fill-rule="evenodd" clip-rule="evenodd" d="M76.8701 86.6552C75.6018 84.7435 74.0597 83.3861 72.8969 83.0356C72.7683 84.2439 73.4158 86.1935 74.6867 88.1053C75.9586 90.018 77.4976 91.3754 78.6609 91.7253C78.7906 90.5171 78.1395 88.5685 76.8701 86.6552Z" fill="#C6C7C8"/>
<path fill-rule="evenodd" clip-rule="evenodd" d="M64.6598 68.2441C63.3909 66.3323 61.8499 64.975 60.6861 64.6245C60.5569 65.8343 61.2044 67.7824 62.4764 69.6947C63.7478 71.6069 65.2868 72.9643 66.45 73.3158C66.5792 72.1065 65.9286 70.1574 64.6598 68.2441Z" fill="#C6C7C8"/>
<path fill-rule="evenodd" clip-rule="evenodd" d="M68.0503 110.324V106.964C68.0503 104.718 67.3146 102.532 65.956 100.743C64.597 98.9552 62.6888 97.6614 60.5259 97.0614L55.1106 95.8604L57.8072 103.182C58.2789 104.549 59.1642 105.735 60.3408 106.573C61.5174 107.412 62.9257 107.863 64.3704 107.863C65.1378 107.863 65.8894 108.085 66.5338 108.502C67.1782 108.92 67.6883 109.515 68.0021 110.216L68.0503 110.324Z" stroke="#C6C7C8" stroke-width="1.149"/>
<path fill-rule="evenodd" clip-rule="evenodd" d="M68.0504 109.842C68.0017 109.842 67.954 109.822 67.9191 109.787C67.8843 109.752 67.8648 109.705 67.8648 109.656V106.891C67.8612 104.686 67.1378 102.543 65.8054 100.788C64.4725 99.0319 62.6038 97.7596 60.4824 97.1647L55.1481 96.1143C55.1245 96.1097 55.1015 96.0999 55.0815 96.0866C55.061 96.0728 55.044 96.0554 55.0307 96.0354C55.0169 96.0154 55.0076 95.9923 55.002 95.9688C54.9974 95.9447 54.9974 95.9201 55.002 95.8965C55.0071 95.8724 55.0164 95.8494 55.0297 95.8294C55.043 95.8094 55.0604 95.792 55.0804 95.7782C55.1009 95.7648 55.1235 95.7551 55.1476 95.7505C55.1712 95.7454 55.1958 95.7454 55.2194 95.75L60.5747 96.806C62.775 97.4214 64.7139 98.7398 66.0966 100.56C67.4798 102.38 68.2308 104.602 68.2349 106.888V109.653C68.236 109.677 68.2319 109.702 68.2221 109.724C68.2134 109.748 68.2001 109.768 68.1821 109.786C68.1652 109.803 68.1447 109.818 68.1221 109.827C68.0991 109.836 68.075 109.842 68.0504 109.842Z" fill="white"/>
<path fill-rule="evenodd" clip-rule="evenodd" d="M72.248 120.466V117.424C72.248 111.341 76.6375 106.412 82.0502 106.412H86.6811C86.6811 110.138 85.2016 113.712 82.568 116.346C79.936 118.982 76.3642 120.462 72.6407 120.462L72.248 120.466Z" stroke="#C6C7C8" stroke-width="1.149"/>
<path fill-rule="evenodd" clip-rule="evenodd" d="M69.889 128.663C69.8808 128.664 69.8726 128.664 69.8644 128.663C69.8403 128.66 69.8172 128.652 69.7957 128.64C69.7752 128.627 69.7572 128.611 69.7424 128.591C69.7275 128.572 69.7178 128.55 69.7111 128.526C69.7054 128.503 69.7039 128.479 69.7075 128.455C69.7111 128.425 70.1299 125.396 71.5828 121.695C72.9265 118.271 75.4535 113.547 79.867 110.479C79.887 110.465 79.9095 110.455 79.9331 110.45C79.9572 110.445 79.9813 110.445 80.0054 110.449C80.029 110.454 80.0521 110.462 80.0726 110.475C80.0931 110.489 80.1105 110.506 80.1243 110.526C80.1387 110.546 80.1479 110.568 80.1531 110.592C80.1587 110.616 80.1587 110.64 80.1541 110.664C80.1505 110.688 80.1408 110.711 80.1279 110.731C80.1151 110.752 80.0982 110.77 80.0782 110.783C75.7441 113.794 73.2587 118.446 71.9314 121.819C70.4939 125.483 70.0792 128.472 70.0751 128.502C70.0694 128.546 70.0469 128.588 70.0125 128.618C69.9782 128.647 69.9341 128.664 69.889 128.663Z" fill="#333739"/>
<path fill-rule="evenodd" clip-rule="evenodd" d="M69.8884 120.771H69.8823C69.8331 120.769 69.7864 120.748 69.7531 120.711C69.7198 120.676 69.7018 120.628 69.7034 120.579C69.7034 120.544 69.8085 117.049 68.7165 112.858C68.0767 110.403 67.1564 108.191 65.9819 106.285C64.5177 103.909 62.6516 102.004 60.4344 100.623C60.4128 100.611 60.3933 100.595 60.379 100.574C60.3641 100.554 60.3528 100.532 60.3472 100.508C60.3411 100.484 60.34 100.458 60.3436 100.434C60.3477 100.41 60.3564 100.386 60.3698 100.365C60.3831 100.344 60.4 100.326 60.421 100.311C60.441 100.297 60.4636 100.287 60.4887 100.282C60.5123 100.277 60.5374 100.277 60.562 100.281C60.5861 100.286 60.6097 100.296 60.6302 100.309C62.8977 101.722 64.8059 103.668 66.3013 106.096C67.4948 108.034 68.4294 110.283 69.0779 112.776C70.1817 117.016 70.075 120.557 70.0745 120.592C70.072 120.64 70.052 120.685 70.0171 120.719C69.9828 120.752 69.9366 120.771 69.8884 120.771Z" fill="#333739"/>
<path fill-rule="evenodd" clip-rule="evenodd" d="M69.697 85.0276C73.4804 85.0276 76.5477 81.9584 76.5477 78.1723C76.5477 74.3857 73.4804 71.3159 69.697 71.3159C65.9135 71.3159 62.8457 74.3857 62.8457 78.1723C62.8457 81.9584 65.9135 85.0276 69.697 85.0276Z" fill="white"/>
<path fill-rule="evenodd" clip-rule="evenodd" d="M75.2279 74.1235V82.2153C75.2966 82.1225 75.3628 82.0277 75.4258 81.9299V74.4069C75.3628 74.3121 75.2966 74.2173 75.2279 74.1235Z" fill="#7B7D7E"/>
<path fill-rule="evenodd" clip-rule="evenodd" d="M73.819 72.6948V83.6509C73.8847 83.6012 73.9503 83.5484 74.0154 83.4946V72.8501C73.9503 72.7968 73.8862 72.7466 73.819 72.6948Z" fill="#7B7D7E"/>
<path fill-rule="evenodd" clip-rule="evenodd" d="M72.4086 71.873V84.4667C72.4758 84.438 72.5414 84.4083 72.606 84.377V71.9627C72.5414 71.9299 72.4753 71.9023 72.4086 71.873Z" fill="#7B7D7E"/>
<path fill-rule="evenodd" clip-rule="evenodd" d="M70.9994 71.4395V84.9026C71.0656 84.8903 71.1312 84.8765 71.1973 84.8621V71.4804C71.1312 71.4656 71.0692 71.4518 70.9994 71.4395Z" fill="#7B7D7E"/>
<path fill-rule="evenodd" clip-rule="evenodd" d="M69.5895 71.3176V85.0257H69.7879V71.3176H69.6967C69.6669 71.3176 69.6254 71.316 69.5895 71.3176Z" fill="#7B7D7E"/>
<path fill-rule="evenodd" clip-rule="evenodd" d="M68.1774 71.4849V84.8595C68.242 84.8743 68.3082 84.8876 68.3743 84.9004V71.4424C68.3118 71.4547 68.242 71.469 68.1774 71.4849Z" fill="#7B7D7E"/>
<path fill-rule="evenodd" clip-rule="evenodd" d="M66.7692 71.9702V84.3686C66.8338 84.3998 66.9 84.4301 66.9666 84.4587V71.8779C66.9015 71.9082 66.8359 71.9384 66.7692 71.9702Z" fill="#7B7D7E"/>
<path fill-rule="evenodd" clip-rule="evenodd" d="M65.3605 72.8623V83.4781C65.4246 83.5319 65.4907 83.5842 65.5579 83.6344V72.7065C65.4913 72.7603 65.4251 72.809 65.3605 72.8623Z" fill="#7B7D7E"/>
<path fill-rule="evenodd" clip-rule="evenodd" d="M63.9518 74.4359V81.9061C64.0139 82.005 64.079 82.1013 64.1487 82.193V74.1484C64.0805 74.2432 64.0149 74.339 63.9518 74.4359Z" fill="#7B7D7E"/>
<path fill-rule="evenodd" clip-rule="evenodd" d="M65.6123 83.6736C65.7041 83.7423 65.7969 83.8094 65.8917 83.8719H73.5023C73.5971 83.8094 73.6904 83.7423 73.7822 83.6736H65.6123Z" fill="#7B7D7E"/>
<path fill-rule="evenodd" clip-rule="evenodd" d="M64.2014 82.2642C64.2511 82.3314 64.3009 82.3975 64.3537 82.462H75.0392C75.093 82.3975 75.1432 82.3314 75.196 82.2642H64.2014Z" fill="#7B7D7E"/>
<path fill-rule="evenodd" clip-rule="evenodd" d="M63.3914 80.8531C63.4196 80.9207 63.4483 80.9868 63.479 81.0519H75.9163C75.9466 80.9868 75.9763 80.9207 76.0045 80.8531H63.3914Z" fill="#7B7D7E"/>
<path fill-rule="evenodd" clip-rule="evenodd" d="M62.9639 79.4434C62.9767 79.5111 62.989 79.5756 63.0049 79.6412H76.3901C76.4054 79.5756 76.4188 79.5111 76.4311 79.4434H62.9639Z" fill="#7B7D7E"/>
<path fill-rule="evenodd" clip-rule="evenodd" d="M62.8467 78.1733V78.2332H76.5512V78.036H62.8472C62.8472 78.0785 62.8467 78.1251 62.8467 78.1733Z" fill="#7B7D7E"/>
<path fill-rule="evenodd" clip-rule="evenodd" d="M62.979 76.8199H76.4155C76.4021 76.7533 76.3888 76.6882 76.3734 76.6221H63.0216C63.0067 76.6882 62.9913 76.7518 62.979 76.8199Z" fill="#7B7D7E"/>
<path fill-rule="evenodd" clip-rule="evenodd" d="M63.4246 75.4088H75.9654C75.9362 75.3437 75.9069 75.2776 75.8746 75.212H63.5153C63.484 75.2776 63.4533 75.3422 63.4246 75.4088Z" fill="#7B7D7E"/>
<path fill-rule="evenodd" clip-rule="evenodd" d="M64.2605 73.9994H75.1342C75.0834 73.9323 75.0306 73.8651 74.9778 73.8011H64.4194C64.3646 73.8662 64.3123 73.9323 64.2605 73.9994Z" fill="#7B7D7E"/>
<path fill-rule="evenodd" clip-rule="evenodd" d="M65.7185 72.5895H73.6761C73.5777 72.5213 73.4792 72.4552 73.3803 72.3917H66.0071C65.9123 72.4552 65.8133 72.5259 65.7185 72.5895Z" fill="#7B7D7E"/>
</g>
</svg>
