<svg width="813" height="347" viewBox="0 0 813 347" fill="none" xmlns="http://www.w3.org/2000/svg">
<g opacity="0.2">
<path fill-rule="evenodd" clip-rule="evenodd" d="M168.328 345.046C168.328 345.046 109.273 285.586 158.342 221.21C201.877 164.091 252.634 167.997 289.882 191.176C305.742 201.043 351.472 192.393 390.402 134.273C443.464 55.0125 627.453 103.088 593.905 225.027C577.672 284.038 643.313 286.183 609.865 345.169L168.328 345.046Z" fill="white"/>
<path fill-rule="evenodd" clip-rule="evenodd" d="M168.328 345.046C168.328 345.046 109.273 285.586 158.342 221.21C201.877 164.091 252.634 167.997 289.882 191.176C305.742 201.043 351.472 192.393 390.402 134.273C443.464 55.0125 627.453 103.088 593.905 225.027C577.672 284.038 643.313 286.183 609.865 345.169L168.328 345.046Z" stroke="#C6C7C8" stroke-width="1.149"/>
<path fill-rule="evenodd" clip-rule="evenodd" d="M206.615 80.9402C208.851 80.9402 210.664 79.12 210.664 76.8764C210.664 74.6316 208.851 72.8125 206.615 72.8125C204.378 72.8125 202.565 74.6316 202.565 76.8764C202.565 79.12 204.378 80.9402 206.615 80.9402Z" fill="#C6C7C8"/>
<path fill-rule="evenodd" clip-rule="evenodd" d="M301.314 119.539C303.264 119.539 304.846 117.952 304.846 115.995C304.846 114.036 303.264 112.449 301.314 112.449C299.361 112.449 297.779 114.036 297.779 115.995C297.779 117.952 299.361 119.539 301.314 119.539Z" fill="#C6C7C8"/>
<path fill-rule="evenodd" clip-rule="evenodd" d="M26.0557 346.032H588.223C588.223 346.032 533.894 275.191 437.418 290.598C310.724 310.83 263.682 267.035 202.843 251.493C144.871 236.679 100.604 256.298 70.7551 280.713C46.4329 300.606 26.0546 323.24 26.0546 346.034L26.0557 346.032Z" fill="white"/>
<path fill-rule="evenodd" clip-rule="evenodd" d="M26.0557 346.032H588.223C588.223 346.032 533.894 275.191 437.418 290.598C310.724 310.83 263.682 267.035 202.843 251.493C144.871 236.679 100.604 256.298 70.7551 280.713C46.4329 300.606 26.0546 323.24 26.0546 346.034L26.0557 346.032Z" stroke="#C6C7C8" stroke-width="1.149"/>
<path fill-rule="evenodd" clip-rule="evenodd" d="M225.175 346.031C225.175 346.031 253.775 308.662 326.203 318.323C426.882 331.761 462.87 257.63 548.745 253.482C706.121 245.881 765.049 346.031 765.049 346.031H225.175Z" fill="white"/>
<path fill-rule="evenodd" clip-rule="evenodd" d="M225.175 346.031C225.175 346.031 253.775 308.662 326.203 318.323C426.882 331.761 462.87 257.63 548.745 253.482C706.121 245.881 765.049 346.031 765.049 346.031H225.175Z" stroke="#C6C7C8" stroke-width="1.149"/>
<path fill-rule="evenodd" clip-rule="evenodd" d="M805.384 106.01C810.999 106.01 814.068 99.3761 810.414 95.0978C807.294 91.4551 802.505 89.1881 797.259 88.0379C788.079 86.0299 776.91 92.373 774.211 93.9687C773.51 81.4193 762.609 71.4558 749.264 71.4558C748.729 71.4558 748.182 71.4724 747.647 71.5069C744.234 53.5334 727.192 39.8672 706.677 39.8672C683.703 39.8672 665.08 57.0039 665.08 78.1411C665.078 79.7824 665.191 81.4215 665.418 83.0462C664.406 82.9239 663.388 82.8617 662.367 82.8595C653.246 82.8595 642.772 88.5247 641.536 97.6247C641.536 97.6247 592.24 84.2108 591.956 106.287L805.384 106.01Z" stroke="#C6C7C8" stroke-width="1.149"/>
<path fill-rule="evenodd" clip-rule="evenodd" d="M25.8121 95.7861H188.337C188.024 94.2214 184.778 77.4604 144.764 92.7246C144.764 92.7246 146.74 84.3902 134.736 88.0895C122.731 91.7889 127.006 75.249 116.46 72.5986C110.174 71.0217 106.602 73.6199 104.086 76.5125C102.874 59.9814 88.3731 46.9297 70.6612 46.9297C52.1543 46.9297 37.1544 61.1771 37.1544 78.7561C37.1533 79.8362 37.2109 80.9141 37.324 81.9876C35.4237 79.6262 31.2404 77.5104 25.525 77.647C25.3952 77.647 25.2633 77.647 25.1347 77.6637C13.5574 78.3416 14.2082 95.7861 25.8121 95.7861Z" stroke="#C6C7C8" stroke-width="1.149"/>
<path fill-rule="evenodd" clip-rule="evenodd" d="M21.1999 346.032L1 325.42L23.8442 341.308L23.1024 326.228L33.8083 339.34L31.9212 292.418L39.8985 334.287L47.5321 327.011L46.8247 339.606L55.4462 336.031L48.6674 346.016L21.1999 346.032Z" fill="white"/>
<path fill-rule="evenodd" clip-rule="evenodd" d="M21.1999 346.032L1 325.42L23.8442 341.308L23.1024 326.228L33.8083 339.34L31.9212 292.418L39.8985 334.287L47.5321 327.011L46.8247 339.606L55.4462 336.031L48.6674 346.016L21.1999 346.032Z" stroke="#C6C7C8" stroke-width="1.149"/>
<path fill-rule="evenodd" clip-rule="evenodd" d="M625.628 262.134C625.892 261.923 626.275 261.966 626.486 262.228C626.697 262.494 626.656 262.879 626.391 263.091L626.32 263.15L626.273 263.19C626.183 263.268 626.079 263.359 625.965 263.465L625.905 263.519C625.507 263.891 625.058 264.342 624.574 264.873C623.188 266.398 621.798 268.255 620.499 270.453C617.963 274.746 616.095 279.79 615.173 285.614C614.034 292.82 614.41 300.862 616.586 309.769C616.666 310.098 616.465 310.429 616.137 310.509C615.81 310.589 615.48 310.389 615.4 310.06C613.185 300.998 612.802 292.791 613.967 285.424C614.913 279.441 616.836 274.251 619.448 269.83C620.791 267.557 622.231 265.633 623.671 264.049C624.142 263.531 624.584 263.084 624.984 262.706L625.076 262.62C625.334 262.381 625.523 262.218 625.628 262.134Z" fill="#C6C7C8"/>
<path fill-rule="evenodd" clip-rule="evenodd" d="M619.355 301.734C618.887 301.326 618.663 300.735 618.724 300.122C620.005 288.285 625.339 276.103 633.647 271.635C642.179 267.043 648.001 279.797 636.172 291.633C627.274 300.551 622.51 302 620.697 302.182C620.209 302.225 619.722 302.06 619.355 301.734Z" stroke="#C6C7C8" stroke-width="1.149"/>
<path fill-rule="evenodd" clip-rule="evenodd" d="M600.633 298.999C604.135 299.301 606.9 301.224 608.999 304.217C609.794 305.349 610.437 306.558 610.943 307.769C611.1 308.144 611.234 308.499 611.346 308.822L611.387 308.941C611.459 309.158 611.508 309.314 611.533 309.403C611.622 309.729 611.432 310.067 611.106 310.157C610.793 310.245 610.469 310.069 610.365 309.764L610.327 309.632L610.293 309.524C610.273 309.464 610.252 309.402 610.23 309.333C610.119 309.004 609.983 308.638 609.816 308.241C609.343 307.107 608.74 305.975 608.001 304.92C606.091 302.2 603.627 300.487 600.527 300.219C600.193 300.189 599.942 299.893 599.972 299.555C600.001 299.231 600.277 298.986 600.597 298.996L600.633 298.999Z" fill="#C6C7C8"/>
<path fill-rule="evenodd" clip-rule="evenodd" d="M640.998 272.242C641.227 272.471 641.235 272.837 641.026 273.077L640.98 273.125L640.742 273.37L640.517 273.599C640.414 273.707 640.304 273.822 640.186 273.944L640.005 274.133C639.213 274.964 638.327 275.919 637.375 276.977C634.652 279.998 631.93 283.254 629.39 286.614C626.365 290.614 623.808 294.498 621.865 298.157C621.248 299.319 620.697 300.451 620.215 301.551C620.08 301.861 619.719 302.001 619.41 301.866C619.102 301.73 618.961 301.369 619.097 301.06C619.592 299.93 620.156 298.77 620.787 297.582C622.763 293.859 625.356 289.924 628.415 285.873C630.979 282.483 633.724 279.203 636.468 276.154L636.805 275.783C637.582 274.926 638.311 274.14 638.979 273.436L639.391 273.005C639.536 272.855 639.671 272.715 639.794 272.588L640.134 272.242C640.371 272.003 640.76 272.003 640.998 272.242Z" fill="#C6C7C8"/>
<path fill-rule="evenodd" clip-rule="evenodd" d="M636.418 288.379L636.628 288.369C637.035 288.352 637.384 288.344 637.665 288.344L637.941 288.347C638.28 288.358 638.544 288.642 638.532 288.979C638.521 289.305 638.259 289.564 637.937 289.572L637.842 289.569C637.52 289.564 637.06 289.572 636.484 289.603C635.618 289.648 634.672 289.741 633.664 289.886C630.896 290.288 628.099 291.037 625.422 292.214C625.112 292.349 624.753 292.208 624.616 291.899C624.482 291.589 624.622 291.227 624.932 291.092C627.718 289.868 630.618 289.093 633.489 288.676C634.534 288.524 635.518 288.428 636.418 288.379Z" fill="#C6C7C8"/>
<path fill-rule="evenodd" clip-rule="evenodd" d="M631.052 273.628C631.348 273.793 631.453 274.167 631.288 274.461L631.145 274.721C631.099 274.807 631.049 274.9 630.994 275.002L630.795 275.375C630.612 275.717 630.416 276.09 630.211 276.49C629.401 278.064 628.592 279.732 627.836 281.419C627.239 282.753 626.699 284.046 626.234 285.277L626.117 285.589C624.886 288.908 624.275 291.577 624.44 293.308C624.472 293.645 624.226 293.944 623.89 293.975C623.553 294.007 623.256 293.76 623.224 293.424C623.031 291.398 623.72 288.473 625.092 284.842C625.567 283.588 626.114 282.272 626.721 280.917C627.486 279.207 628.305 277.52 629.125 275.929L629.355 275.485C629.529 275.149 629.697 274.834 629.852 274.544L630.074 274.134L630.22 273.864C630.385 273.57 630.758 273.464 631.052 273.628Z" fill="#C6C7C8"/>
<path fill-rule="evenodd" clip-rule="evenodd" d="M628.086 295.756C628.943 295.683 629.685 295.663 630.257 295.669L630.451 295.674C630.788 295.686 631.052 295.969 631.039 296.308C631.026 296.634 630.764 296.89 630.442 296.897L630.323 296.895C629.78 296.885 629.045 296.903 628.189 296.976C626.898 297.084 625.624 297.294 624.441 297.627C623.325 297.939 622.336 298.352 621.507 298.866C621.221 299.045 620.844 298.956 620.666 298.67C620.488 298.382 620.576 298.004 620.864 297.825C621.798 297.245 622.891 296.792 624.111 296.448C625.377 296.091 626.724 295.87 628.086 295.756Z" fill="#C6C7C8"/>
<path fill-rule="evenodd" clip-rule="evenodd" d="M608.806 290.914C608.176 291.363 607.443 291.424 606.872 291.12C595.735 284.976 586.329 273.507 586.187 261.141C586.023 248.427 601.784 245.755 607.463 265.469C611.738 280.304 610.721 286.976 609.946 289.364C609.723 289.977 609.315 290.549 608.806 290.914Z" stroke="#C6C7C8" stroke-width="1.149"/>
<path fill-rule="evenodd" clip-rule="evenodd" d="M589.985 252.935C590.145 252.637 590.516 252.526 590.813 252.687C596.038 255.52 600.256 262.114 603.62 271.334C605.205 275.681 606.497 280.333 607.517 284.984L607.633 285.523C607.902 286.768 608.132 287.941 608.33 289.022L608.412 289.481C608.496 289.957 608.568 290.379 608.627 290.743L608.697 291.194C608.745 291.529 608.516 291.84 608.182 291.889C607.847 291.939 607.538 291.708 607.488 291.373L607.431 291.011L607.384 290.718C607.339 290.449 607.291 290.154 607.234 289.834L607.21 289.695C606.97 288.354 606.676 286.857 606.323 285.247C605.315 280.645 604.039 276.045 602.472 271.755C599.201 262.792 595.123 256.415 590.231 253.764C589.935 253.603 589.824 253.233 589.985 252.935Z" fill="#C6C7C8"/>
<path fill-rule="evenodd" clip-rule="evenodd" d="M586.26 262.79C586.398 262.482 586.76 262.346 587.068 262.483C589.561 263.608 592.411 265.008 595.182 266.553L595.537 266.752C599.436 268.95 602.436 271.047 604.167 272.955C604.394 273.206 604.376 273.594 604.127 273.819C603.876 274.047 603.49 274.029 603.263 273.779C601.593 271.937 598.551 269.832 594.587 267.623C591.852 266.097 589.031 264.713 586.566 263.599C586.258 263.461 586.121 263.099 586.26 262.79Z" fill="#C6C7C8"/>
<path fill-rule="evenodd" clip-rule="evenodd" d="M606.732 264.698C607.069 264.667 607.365 264.914 607.398 265.25C607.663 268.095 607.798 270.844 607.735 273.249L607.724 273.547C607.618 276.633 607.18 278.856 606.278 280.044C606.073 280.313 605.69 280.366 605.421 280.16C605.155 279.957 605.103 279.572 605.305 279.303C606.661 277.517 606.808 272.076 606.181 265.365C606.15 265.028 606.396 264.729 606.732 264.698Z" fill="#C6C7C8"/>
<path fill-rule="evenodd" clip-rule="evenodd" d="M591.393 276.922C591.607 276.66 591.992 276.619 592.252 276.832C593.666 277.979 595.755 279.193 598.332 280.429C600.14 281.295 602.08 282.119 604.023 282.872L604.357 283.003C604.799 283.173 605.217 283.331 605.609 283.473L606.139 283.665L606.604 283.83C606.923 283.94 607.094 284.289 606.984 284.609C606.879 284.916 606.552 285.086 606.241 285L606.135 284.962L605.878 284.872C605.805 284.846 605.729 284.82 605.649 284.79L605.189 284.623C604.693 284.441 604.152 284.237 603.58 284.014C601.612 283.25 599.644 282.414 597.805 281.533L597.455 281.364C594.958 280.149 592.919 278.949 591.484 277.783C591.222 277.57 591.181 277.185 591.393 276.922Z" fill="#C6C7C8"/>
<path fill-rule="evenodd" clip-rule="evenodd" d="M601.825 296.43C602.057 294.71 601.796 293.256 601.237 293.179C600.68 293.103 600.041 294.437 599.808 296.155C599.574 297.875 599.838 299.332 600.395 299.407C600.952 299.482 601.592 298.15 601.825 296.43Z" stroke="#C6C7C8" stroke-width="1.149"/>
<path fill-rule="evenodd" clip-rule="evenodd" d="M600.404 299.4C600.733 299 600.015 297.861 598.801 296.859C597.586 295.854 596.335 295.365 596.006 295.764C595.678 296.164 596.394 297.302 597.609 298.307C598.823 299.31 600.075 299.8 600.404 299.4Z" stroke="#C6C7C8" stroke-width="1.149"/>
<path fill-rule="evenodd" clip-rule="evenodd" d="M603.637 298.804C605.152 298.008 606.163 296.951 605.897 296.442C605.631 295.932 604.188 296.165 602.674 296.96C601.161 297.755 600.149 298.813 600.414 299.322C600.68 299.831 602.123 299.598 603.637 298.804Z" stroke="#C6C7C8" stroke-width="1.149"/>
<path fill-rule="evenodd" clip-rule="evenodd" d="M598.359 301.586C599.739 300.827 600.657 299.843 600.409 299.388C600.161 298.934 598.84 299.18 597.459 299.939C596.078 300.698 595.161 301.681 595.411 302.137C595.658 302.59 596.98 302.343 598.359 301.586Z" stroke="#C6C7C8" stroke-width="1.149"/>
<path fill-rule="evenodd" clip-rule="evenodd" d="M602.802 304.628C603.273 304.413 603.12 303.066 602.463 301.621C601.805 300.175 600.888 299.179 600.418 299.392C599.947 299.608 600.1 300.954 600.759 302.401C601.416 303.846 602.332 304.844 602.802 304.628Z" stroke="#C6C7C8" stroke-width="1.149"/>
<path fill-rule="evenodd" clip-rule="evenodd" d="M675.839 281.848C675.717 281.17 673.374 265.288 679.367 247.588C685.122 230.581 681.936 216.163 681.911 216.02H686.144C686.254 216.635 686.54 230.788 682.037 250.183C677.979 267.634 685.558 281.848 683.944 281.848H675.839Z" fill="#C6C7C8"/>
<path fill-rule="evenodd" clip-rule="evenodd" d="M632.668 311.588L625.135 345.79H601.212L593.678 311.588C593.251 309.63 594.472 307.711 596.142 307.711H630.225C631.893 307.731 633.115 309.649 632.668 311.588Z" fill="white"/>
<path fill-rule="evenodd" clip-rule="evenodd" d="M630.226 308.326L630.268 308.327C631.479 308.38 632.411 309.855 632.088 311.391L624.645 345.182H601.704L594.277 311.46C593.927 309.855 594.899 308.326 596.145 308.326H630.226ZM630.233 307.102H596.144C594.047 307.102 592.579 309.411 593.083 311.722L600.616 345.923C600.679 346.204 600.927 346.405 601.213 346.405H625.136C625.422 346.405 625.672 346.204 625.732 345.923L633.267 311.723C633.794 309.441 632.329 307.127 630.233 307.102Z" fill="#C6C7C8"/>
<path fill-rule="evenodd" clip-rule="evenodd" d="M718.873 203.483C735.516 186.783 735.516 159.705 718.873 143.002C702.23 126.301 675.248 126.301 658.605 143.002C641.962 159.705 641.962 186.783 658.605 203.483C675.248 220.185 702.23 220.185 718.873 203.483Z" fill="#FFAB00"/>
<g style="mix-blend-mode:multiply">
<path fill-rule="evenodd" clip-rule="evenodd" d="M718.873 203.483C735.516 186.783 735.516 159.705 718.873 143.002C702.23 126.301 675.248 126.301 658.605 143.002C641.962 159.705 641.962 186.783 658.605 203.483C675.248 220.185 702.23 220.185 718.873 203.483Z" fill="#FFAB00"/>
</g>
<path fill-rule="evenodd" clip-rule="evenodd" d="M715.186 203.955C731.829 187.254 731.829 160.176 715.186 143.475C698.544 126.774 671.56 126.774 654.917 143.475C638.274 160.176 638.274 187.254 654.917 203.955C671.56 220.655 698.544 220.655 715.186 203.955Z" fill="#FFAB00"/>
<g style="mix-blend-mode:multiply" opacity="0.5">
<path fill-rule="evenodd" clip-rule="evenodd" d="M680.555 137.864C660.578 140.389 646.368 158.751 648.887 178.796C651.406 198.841 669.701 213.103 689.676 210.571C709.651 208.042 723.862 189.686 721.341 169.643C718.819 149.598 700.529 135.341 680.555 137.858V137.864ZM689.964 212.877C681.052 214.004 672.026 211.993 664.423 207.189C656.823 202.387 651.116 195.087 648.277 186.534C645.439 177.982 645.642 168.707 648.852 160.287C652.066 151.868 658.086 144.828 665.891 140.365C673.696 135.901 682.802 134.293 691.656 135.81C700.511 137.33 708.567 141.883 714.451 148.693C720.336 155.505 723.685 164.152 723.929 173.163C724.171 182.175 721.293 190.992 715.786 198.112C712.668 202.164 708.78 205.556 704.35 208.091C699.917 210.625 695.026 212.252 689.964 212.877Z" fill="#FFAB00"/>
</g>
<g style="mix-blend-mode:multiply" opacity="0.5">
<path fill-rule="evenodd" clip-rule="evenodd" d="M691.824 184.764C691.833 184.003 691.708 183.248 691.454 182.53C691.193 181.866 690.787 181.27 690.267 180.786C689.638 180.21 688.929 179.725 688.165 179.351C687.151 178.849 686.101 178.422 685.026 178.073C683.06 177.406 681.128 176.638 679.24 175.772C677.632 175.051 676.131 174.111 674.777 172.98C673.563 171.953 672.578 170.684 671.881 169.253C671.192 167.827 670.839 166.127 670.825 164.152C670.791 162.545 671.09 160.947 671.701 159.46C672.286 158.058 673.162 156.795 674.268 155.755C675.445 154.664 676.804 153.789 678.285 153.178C679.964 152.484 681.738 152.049 683.546 151.887L683.5 145.419L688.685 145.383L688.733 151.94C690.491 152.14 692.203 152.628 693.802 153.384C695.279 154.077 696.603 155.06 697.694 156.273C698.785 157.489 699.623 158.91 700.157 160.456C700.764 162.207 701.069 164.051 701.056 165.904L691.685 165.973C691.67 163.555 691.122 161.751 690.044 160.558C688.965 159.368 687.528 158.779 685.733 158.792C684.878 158.778 684.027 158.922 683.225 159.218C682.573 159.464 681.984 159.849 681.5 160.349C681.049 160.829 680.711 161.405 680.511 162.033C680.295 162.707 680.191 163.413 680.202 164.121C680.198 164.809 680.312 165.494 680.54 166.142C680.782 166.781 681.17 167.352 681.67 167.814C682.304 168.391 683.018 168.875 683.788 169.249C684.85 169.775 685.942 170.239 687.058 170.636C689.16 171.406 691.069 172.2 692.787 173.016C694.39 173.753 695.886 174.702 697.235 175.841C698.445 176.875 699.431 178.148 700.131 179.583C700.821 181.009 701.174 182.699 701.187 184.654C701.225 186.292 700.923 187.919 700.298 189.434C699.705 190.829 698.823 192.081 697.714 193.108C696.528 194.188 695.153 195.038 693.662 195.616C691.965 196.279 690.184 196.7 688.369 196.865L688.412 202.877L683.257 202.914L683.216 196.931C681.439 196.766 679.687 196.384 678.004 195.788C676.363 195.219 674.845 194.346 673.528 193.212C672.183 192.029 671.111 190.567 670.385 188.927C669.595 187.208 669.192 185.136 669.174 182.709L678.543 182.643C678.551 184.075 678.761 185.264 679.167 186.213C679.52 187.094 680.077 187.876 680.79 188.5C681.456 189.064 682.24 189.471 683.084 189.69C683.935 189.914 684.815 190.026 685.696 190.019C686.603 190.028 687.505 189.89 688.368 189.606C689.075 189.372 689.727 188.997 690.29 188.504C690.797 188.05 691.192 187.482 691.444 186.848C691.708 186.186 691.836 185.477 691.824 184.764Z" fill="#FFAB00"/>
</g>
<path fill-rule="evenodd" clip-rule="evenodd" d="M638.726 272.606C646.213 265.094 646.213 252.913 638.726 245.401C631.24 237.887 619.101 237.887 611.615 245.401C604.129 252.913 604.129 265.094 611.615 272.606C619.101 280.118 631.24 280.118 638.726 272.606Z" fill="#FFAB00"/>
<g style="mix-blend-mode:multiply">
<path fill-rule="evenodd" clip-rule="evenodd" d="M638.726 272.606C646.213 265.094 646.213 252.913 638.726 245.401C631.24 237.887 619.101 237.887 611.615 245.401C604.129 252.913 604.129 265.094 611.615 272.606C619.101 280.118 631.24 280.118 638.726 272.606Z" fill="#FFAB00"/>
</g>
<path fill-rule="evenodd" clip-rule="evenodd" d="M624.736 278.435C635.3 277.743 643.307 268.588 642.619 257.987C641.93 247.385 632.807 239.351 622.242 240.041C611.678 240.734 603.671 249.889 604.359 260.49C605.048 271.093 614.171 279.125 624.736 278.435Z" fill="#FFAB00"/>
<g style="mix-blend-mode:multiply" opacity="0.5">
<path fill-rule="evenodd" clip-rule="evenodd" d="M621.489 243.088C618.266 243.494 615.237 244.85 612.781 246.987C610.328 249.123 608.559 251.94 607.701 255.085C606.844 258.228 606.933 261.557 607.959 264.649C608.985 267.742 610.903 270.459 613.47 272.457C616.035 274.458 619.134 275.648 622.374 275.878C625.615 276.11 628.851 275.372 631.673 273.758C634.495 272.143 636.777 269.727 638.23 266.811C639.682 263.896 640.242 260.614 639.835 257.379C639.285 253.045 637.046 249.107 633.608 246.426C630.168 243.747 625.809 242.547 621.489 243.088ZM625.721 276.829C621.712 277.336 617.652 276.431 614.231 274.271C610.813 272.11 608.244 268.827 606.968 264.979C605.69 261.131 605.782 256.96 607.226 253.171C608.67 249.384 611.38 246.217 614.891 244.209C618.401 242.201 622.499 241.478 626.482 242.161C630.464 242.843 634.089 244.891 636.736 247.956C639.384 251.02 640.891 254.91 640.998 258.963C641.108 263.018 639.814 266.984 637.335 270.187C635.933 272.009 634.185 273.536 632.19 274.675C630.197 275.815 627.999 276.548 625.721 276.829Z" fill="#FFAB00"/>
</g>
<g style="mix-blend-mode:multiply" opacity="0.5">
<path fill-rule="evenodd" clip-rule="evenodd" d="M626.561 264.18C626.564 263.838 626.507 263.496 626.393 263.174C626.279 262.872 626.096 262.602 625.86 262.381C625.579 262.121 625.26 261.905 624.917 261.736C624.46 261.511 623.989 261.318 623.506 261.161C622.622 260.861 621.753 260.515 620.903 260.127C620.179 259.803 619.504 259.378 618.895 258.869C618.349 258.408 617.906 257.837 617.593 257.192C616.989 255.794 616.957 254.211 617.509 252.788C617.773 252.158 618.167 251.59 618.663 251.124C619.192 250.631 619.805 250.237 620.472 249.961C621.228 249.648 622.029 249.452 622.843 249.38L622.824 246.471L625.155 246.453L625.177 249.404C625.967 249.495 626.738 249.712 627.458 250.054C628.121 250.365 628.716 250.805 629.207 251.35C629.7 251.894 630.077 252.533 630.317 253.227C630.587 254.016 630.721 254.845 630.712 255.678L626.497 255.708C626.49 254.622 626.243 253.809 625.758 253.272C625.513 253.006 625.212 252.796 624.878 252.659C624.542 252.522 624.182 252.462 623.819 252.479C623.434 252.476 623.052 252.543 622.69 252.678C622.399 252.788 622.134 252.961 621.914 253.185C621.711 253.402 621.559 253.661 621.467 253.943C621.371 254.246 621.325 254.564 621.33 254.883C621.328 255.193 621.38 255.501 621.482 255.793C621.592 256.08 621.765 256.336 621.99 256.542C622.276 256.802 622.596 257.022 622.942 257.189C623.42 257.425 623.911 257.633 624.413 257.81C625.357 258.159 626.218 258.514 626.993 258.878C627.715 259.21 628.387 259.637 628.992 260.15C629.539 260.615 629.985 261.188 630.297 261.834C630.904 263.242 630.929 264.834 630.372 266.263C630.105 266.89 629.71 267.455 629.211 267.917C628.676 268.403 628.059 268.785 627.387 269.045C626.626 269.343 625.828 269.532 625.015 269.606L625.035 272.311L622.715 272.328L622.697 269.636C621.896 269.563 621.109 269.391 620.351 269.123C619.614 268.867 618.931 268.473 618.339 267.96C617.734 267.429 617.252 266.772 616.925 266.033C616.548 265.152 616.363 264.198 616.381 263.238L620.595 263.208C620.582 263.758 620.678 264.303 620.875 264.817C621.034 265.212 621.283 265.566 621.604 265.845C621.904 266.099 622.258 266.281 622.636 266.38C623.021 266.481 623.415 266.53 623.812 266.529C624.22 266.534 624.625 266.471 625.013 266.343C625.332 266.238 625.626 266.069 625.878 265.848C626.105 265.642 626.284 265.388 626.397 265.104C626.511 264.809 626.566 264.495 626.561 264.18Z" fill="#FFAB00"/>
</g>
<path fill-rule="evenodd" clip-rule="evenodd" d="M753.019 292.242C753.189 292.107 753.435 292.135 753.57 292.303C753.706 292.473 753.679 292.721 753.509 292.857L753.464 292.896L753.433 292.921C753.376 292.971 753.309 293.029 753.236 293.098L753.198 293.132C752.941 293.371 752.652 293.661 752.342 294.003C751.451 294.983 750.558 296.176 749.722 297.589C748.093 300.348 746.891 303.589 746.299 307.333C745.568 311.965 745.809 317.133 747.207 322.857C747.259 323.069 747.13 323.282 746.92 323.334C746.708 323.385 746.497 323.256 746.446 323.045C745.022 317.221 744.775 311.946 745.524 307.211C746.133 303.366 747.368 300.03 749.047 297.189C749.909 295.728 750.835 294.491 751.762 293.472C752.064 293.14 752.347 292.853 752.605 292.61L752.665 292.555C752.831 292.401 752.951 292.297 753.019 292.242Z" fill="#C6C7C8"/>
<path fill-rule="evenodd" clip-rule="evenodd" d="M748.985 317.693C748.685 317.429 748.541 317.05 748.579 316.656C749.404 309.049 752.833 301.218 758.171 298.347C763.655 295.396 767.397 303.593 759.794 311.201C754.075 316.931 751.014 317.863 749.849 317.98C749.535 318.007 749.22 317.901 748.985 317.693Z" stroke="#C6C7C8" stroke-width="0.738"/>
<path fill-rule="evenodd" clip-rule="evenodd" d="M736.953 315.936C739.204 316.129 740.981 317.366 742.33 319.29C742.841 320.018 743.254 320.794 743.58 321.572C743.681 321.815 743.767 322.041 743.839 322.249L743.865 322.326C743.911 322.465 743.943 322.566 743.958 322.624C744.017 322.832 743.893 323.049 743.684 323.107C743.483 323.164 743.275 323.05 743.208 322.856L743.184 322.77L743.162 322.7C743.148 322.662 743.136 322.622 743.121 322.578C743.05 322.367 742.962 322.13 742.856 321.877C742.551 321.148 742.164 320.42 741.688 319.742C740.462 317.994 738.878 316.892 736.885 316.721C736.67 316.701 736.509 316.51 736.528 316.294C736.547 316.085 736.723 315.928 736.93 315.934L736.953 315.936Z" fill="#C6C7C8"/>
<path fill-rule="evenodd" clip-rule="evenodd" d="M762.896 298.737C763.044 298.884 763.049 299.119 762.915 299.274L762.885 299.305L762.731 299.461L762.587 299.609C762.521 299.679 762.451 299.753 762.374 299.83L762.258 299.953C761.749 300.487 761.18 301.099 760.567 301.78C758.817 303.722 757.068 305.815 755.436 307.974C753.492 310.545 751.848 313.041 750.6 315.394C750.203 316.139 749.849 316.867 749.54 317.575C749.453 317.774 749.22 317.864 749.022 317.776C748.823 317.689 748.734 317.457 748.821 317.258C749.138 316.533 749.501 315.787 749.907 315.024C751.176 312.631 752.844 310.102 754.809 307.498C756.457 305.319 758.222 303.21 759.985 301.252L760.201 301.013C760.701 300.462 761.169 299.957 761.599 299.505L761.864 299.227C761.956 299.13 762.044 299.04 762.123 298.96L762.342 298.737C762.494 298.582 762.743 298.582 762.896 298.737Z" fill="#C6C7C8"/>
<path fill-rule="evenodd" clip-rule="evenodd" d="M759.953 309.109L760.087 309.103C760.349 309.09 760.573 309.086 760.755 309.086L760.932 309.088C761.149 309.096 761.319 309.277 761.311 309.495C761.304 309.704 761.136 309.87 760.929 309.875L760.868 309.874C760.66 309.87 760.365 309.875 759.995 309.896C759.438 309.925 758.831 309.985 758.182 310.078C756.403 310.336 754.605 310.817 752.885 311.574C752.686 311.661 752.456 311.57 752.368 311.371C752.28 311.172 752.371 310.94 752.57 310.853C754.36 310.066 756.225 309.567 758.07 309.299C758.742 309.202 759.374 309.14 759.953 309.109Z" fill="#C6C7C8"/>
<path fill-rule="evenodd" clip-rule="evenodd" d="M756.505 299.631C756.695 299.738 756.762 299.978 756.657 300.167L756.565 300.334C756.536 300.389 756.504 300.449 756.468 300.515L756.34 300.753C756.223 300.973 756.097 301.214 755.965 301.471C755.444 302.481 754.924 303.554 754.438 304.638C754.055 305.496 753.708 306.327 753.409 307.118L753.334 307.319C752.542 309.452 752.15 311.167 752.255 312.28C752.276 312.496 752.118 312.688 751.903 312.708C751.685 312.729 751.495 312.571 751.474 312.355C751.351 311.053 751.793 309.172 752.675 306.839C752.979 306.033 753.332 305.187 753.722 304.316C754.213 303.217 754.74 302.133 755.267 301.111L755.415 300.825C755.527 300.609 755.634 300.407 755.734 300.22L755.876 299.957L755.971 299.783C756.077 299.594 756.317 299.527 756.505 299.631Z" fill="#C6C7C8"/>
<path fill-rule="evenodd" clip-rule="evenodd" d="M754.599 313.849C755.15 313.803 755.627 313.789 755.994 313.794L756.119 313.797C756.335 313.804 756.505 313.987 756.497 314.204C756.489 314.414 756.319 314.579 756.113 314.583L756.037 314.582C755.687 314.575 755.215 314.587 754.665 314.634C753.836 314.704 753.017 314.838 752.256 315.053C751.539 315.253 750.903 315.517 750.37 315.849C750.186 315.963 749.943 315.906 749.83 315.722C749.716 315.537 749.771 315.294 749.956 315.18C750.557 314.806 751.26 314.515 752.043 314.294C752.858 314.065 753.724 313.923 754.599 313.849Z" fill="#C6C7C8"/>
<path fill-rule="evenodd" clip-rule="evenodd" d="M742.206 310.742C741.8 311.031 741.329 311.069 740.963 310.874C733.805 306.924 727.761 299.553 727.669 291.606C727.563 283.435 737.693 281.717 741.342 294.387C744.091 303.922 743.437 308.21 742.939 309.745C742.796 310.139 742.533 310.506 742.206 310.742Z" stroke="#C6C7C8" stroke-width="0.738"/>
<path fill-rule="evenodd" clip-rule="evenodd" d="M730.112 286.332C730.215 286.141 730.454 286.068 730.644 286.173C734.003 287.993 736.714 292.231 738.876 298.158C739.895 300.952 740.725 303.941 741.38 306.93L741.456 307.277C741.628 308.077 741.776 308.83 741.902 309.526L741.956 309.82C742.01 310.126 742.055 310.397 742.094 310.632L742.139 310.922C742.17 311.136 742.022 311.336 741.807 311.368C741.592 311.4 741.394 311.252 741.361 311.036L741.326 310.804L741.295 310.615C741.267 310.443 741.235 310.253 741.2 310.047L741.183 309.957C741.029 309.096 740.84 308.135 740.613 307.099C739.966 304.142 739.144 301.185 738.138 298.428C736.036 292.667 733.415 288.569 730.271 286.864C730.08 286.761 730.009 286.523 730.112 286.332Z" fill="#C6C7C8"/>
<path fill-rule="evenodd" clip-rule="evenodd" d="M727.717 292.665C727.806 292.467 728.039 292.379 728.236 292.468C729.84 293.191 731.671 294.091 733.452 295.083L733.68 295.212C736.186 296.624 738.114 297.971 739.226 299.198C739.372 299.359 739.361 299.609 739.201 299.754C739.04 299.9 738.791 299.888 738.645 299.728C737.572 298.545 735.617 297.191 733.07 295.771C731.312 294.791 729.498 293.901 727.914 293.185C727.716 293.096 727.629 292.864 727.717 292.665Z" fill="#C6C7C8"/>
<path fill-rule="evenodd" clip-rule="evenodd" d="M740.876 293.892C741.092 293.872 741.283 294.031 741.303 294.247C741.474 296.075 741.561 297.843 741.52 299.388L741.513 299.579C741.446 301.562 741.164 302.991 740.584 303.755C740.452 303.928 740.206 303.961 740.033 303.829C739.861 303.699 739.828 303.453 739.959 303.279C740.829 302.131 740.925 298.633 740.522 294.32C740.502 294.105 740.661 293.912 740.876 293.892Z" fill="#C6C7C8"/>
<path fill-rule="evenodd" clip-rule="evenodd" d="M731.016 301.748C731.154 301.579 731.401 301.552 731.569 301.69C732.477 302.427 733.819 303.208 735.475 304.001C736.637 304.558 737.885 305.088 739.133 305.571L739.348 305.656C739.632 305.765 739.901 305.866 740.153 305.958L740.494 306.082L740.792 306.187C740.997 306.258 741.107 306.482 741.037 306.687C740.969 306.886 740.759 306.995 740.559 306.939L740.49 306.915L740.325 306.857C740.278 306.841 740.231 306.823 740.179 306.804L739.883 306.697C739.564 306.579 739.216 306.449 738.848 306.306C737.584 305.815 736.319 305.277 735.137 304.711L734.912 304.601C733.307 303.821 731.997 303.05 731.075 302.301C730.906 302.164 730.88 301.917 731.016 301.748Z" fill="#C6C7C8"/>
<path fill-rule="evenodd" clip-rule="evenodd" d="M737.72 314.283C737.87 313.177 737.7 312.242 737.342 312.193C736.984 312.145 736.572 313.001 736.424 314.106C736.273 315.21 736.443 316.147 736.801 316.196C737.159 316.244 737.57 315.388 737.72 314.283Z" stroke="#C6C7C8" stroke-width="0.738"/>
<path fill-rule="evenodd" clip-rule="evenodd" d="M736.809 316.193C737.019 315.936 736.558 315.204 735.777 314.559C734.998 313.913 734.193 313.599 733.981 313.854C733.771 314.112 734.232 314.845 735.011 315.489C735.792 316.135 736.597 316.449 736.809 316.193Z" stroke="#C6C7C8" stroke-width="0.738"/>
<path fill-rule="evenodd" clip-rule="evenodd" d="M738.885 315.809C739.858 315.298 740.508 314.619 740.337 314.291C740.167 313.963 739.239 314.112 738.265 314.625C737.293 315.135 736.643 315.815 736.814 316.141C736.985 316.469 737.913 316.319 738.885 315.809Z" stroke="#C6C7C8" stroke-width="0.738"/>
<path fill-rule="evenodd" clip-rule="evenodd" d="M735.492 317.598C736.379 317.11 736.969 316.478 736.809 316.186C736.65 315.894 735.801 316.051 734.914 316.539C734.026 317.027 733.436 317.659 733.597 317.952C733.757 318.244 734.606 318.085 735.492 317.598Z" stroke="#C6C7C8" stroke-width="0.738"/>
<path fill-rule="evenodd" clip-rule="evenodd" d="M738.349 319.552C738.652 319.413 738.553 318.547 738.131 317.619C737.708 316.689 737.12 316.049 736.817 316.187C736.514 316.326 736.613 317.19 737.035 318.12C737.458 319.048 738.047 319.69 738.349 319.552Z" stroke="#C6C7C8" stroke-width="0.738"/>
<path fill-rule="evenodd" clip-rule="evenodd" d="M757.545 324.027L752.702 346.009H737.328L732.485 324.027C732.211 322.769 732.996 321.535 734.069 321.535H755.974C757.047 321.548 757.832 322.781 757.545 324.027Z" fill="white"/>
<path fill-rule="evenodd" clip-rule="evenodd" d="M755.973 321.931H755.999C756.778 321.966 757.377 322.914 757.17 323.901L752.386 345.618H737.641L732.868 323.945C732.643 322.914 733.267 321.931 734.069 321.931H755.973ZM755.978 321.145H734.069C732.722 321.145 731.777 322.628 732.102 324.113L736.943 346.095C736.984 346.276 737.142 346.404 737.326 346.404H752.702C752.886 346.404 753.047 346.276 753.086 346.095L757.928 324.114C758.267 322.648 757.325 321.16 755.978 321.145Z" fill="#C6C7C8"/>
<path fill-rule="evenodd" clip-rule="evenodd" d="M764.653 292.532C766.069 285.857 761.819 279.288 755.16 277.862C748.504 276.435 741.958 280.689 740.541 287.364C739.125 294.038 743.376 300.608 750.033 302.035C756.692 303.462 763.237 299.208 764.653 292.532Z" fill="#FFAB00"/>
<g style="mix-blend-mode:multiply">
<path fill-rule="evenodd" clip-rule="evenodd" d="M764.653 292.532C766.069 285.857 761.819 279.288 755.16 277.862C748.504 276.435 741.958 280.689 740.541 287.364C739.125 294.038 743.376 300.608 750.033 302.035C756.692 303.462 763.237 299.208 764.653 292.532Z" fill="#FFAB00"/>
</g>
<path fill-rule="evenodd" clip-rule="evenodd" d="M759.142 300.58C764.597 296.505 765.721 288.76 761.651 283.285C757.58 277.809 749.857 276.675 744.401 280.75C738.946 284.826 737.822 292.57 741.892 298.045C745.962 303.52 753.686 304.655 759.142 300.58Z" fill="#FFAB00"/>
<g style="mix-blend-mode:multiply" opacity="0.5">
<path fill-rule="evenodd" clip-rule="evenodd" d="M745.056 282.656C743.46 284.004 742.3 285.799 741.721 287.811C741.142 289.822 741.172 291.962 741.806 293.957C742.441 295.953 743.649 297.718 745.282 299.025C746.916 300.333 748.897 301.126 750.978 301.304C753.059 301.483 755.147 301.038 756.974 300.028C758.802 299.017 760.29 297.485 761.248 295.625C762.207 293.766 762.594 291.663 762.36 289.581C762.126 287.5 761.282 285.534 759.935 283.933C758.127 281.788 755.545 280.449 752.755 280.209C749.966 279.97 747.197 280.85 745.056 282.656ZM759.112 299.366C757.126 301.045 754.621 301.981 752.024 302.014C749.426 302.048 746.896 301.177 744.864 299.55C742.832 297.923 741.426 295.641 740.884 293.092C740.342 290.544 740.697 287.886 741.891 285.572C743.083 283.259 745.04 281.433 747.426 280.406C749.813 279.378 752.48 279.211 754.978 279.936C757.474 280.661 759.644 282.231 761.116 284.379C762.591 286.526 763.277 289.118 763.056 291.714C762.937 293.189 762.526 294.625 761.849 295.938C761.172 297.252 760.241 298.417 759.112 299.366Z" fill="#FFAB00"/>
</g>
<g style="mix-blend-mode:multiply" opacity="0.5">
<path fill-rule="evenodd" clip-rule="evenodd" d="M755.153 292.25C755.036 292.065 754.885 291.901 754.712 291.766C754.544 291.644 754.351 291.561 754.147 291.526C753.905 291.485 753.657 291.479 753.413 291.509C753.089 291.547 752.767 291.609 752.452 291.694C751.87 291.841 751.281 291.959 750.688 292.047C750.185 292.127 749.673 292.135 749.166 292.074C748.71 292.016 748.272 291.863 747.879 291.626C747.066 291.084 746.496 290.24 746.298 289.28C746.219 288.847 746.233 288.404 746.339 287.978C746.452 287.527 746.645 287.1 746.909 286.717C747.207 286.283 747.57 285.897 747.985 285.572L746.96 284.01L748.21 283.184L749.251 284.767C749.709 284.539 750.2 284.387 750.708 284.318C751.174 284.254 751.648 284.283 752.104 284.404C752.559 284.525 752.984 284.737 753.357 285.027C753.778 285.358 754.139 285.758 754.425 286.211L752.163 287.704C751.78 287.121 751.363 286.769 750.914 286.65C750.689 286.592 750.453 286.584 750.226 286.627C749.997 286.671 749.781 286.765 749.592 286.902C749.383 287.035 749.2 287.205 749.053 287.404C748.934 287.566 748.851 287.752 748.811 287.95C748.778 288.138 748.786 288.331 748.834 288.515C748.889 288.712 748.974 288.9 749.088 289.071C749.196 289.238 749.331 289.386 749.489 289.508C749.647 289.624 749.83 289.701 750.024 289.733C750.268 289.774 750.517 289.78 750.762 289.75C751.102 289.708 751.44 289.649 751.773 289.568C752.403 289.426 752.991 289.314 753.537 289.24C754.041 289.167 754.552 289.161 755.059 289.225C755.515 289.284 755.955 289.437 756.349 289.676C757.168 290.222 757.738 291.071 757.935 292.038C758.01 292.469 757.994 292.913 757.886 293.337C757.766 293.786 757.567 294.208 757.295 294.585C756.989 295.012 756.624 295.393 756.213 295.719L757.167 297.17L755.921 297.992L754.972 296.546C754.516 296.788 754.031 296.971 753.529 297.092C753.042 297.212 752.536 297.239 752.038 297.171C751.526 297.097 751.037 296.911 750.603 296.626C750.093 296.283 749.659 295.834 749.334 295.311L751.596 293.817C751.78 294.118 752.023 294.378 752.309 294.586C752.533 294.744 752.79 294.846 753.061 294.885C753.311 294.917 753.565 294.891 753.804 294.813C754.047 294.732 754.276 294.621 754.49 294.481C754.712 294.339 754.908 294.164 755.073 293.959C755.207 293.791 755.308 293.597 755.366 293.388C755.417 293.199 755.425 292.999 755.386 292.806C755.345 292.607 755.266 292.418 755.153 292.25Z" fill="#FFAB00"/>
</g>
<path fill-rule="evenodd" clip-rule="evenodd" d="M676.949 260.646C676.949 260.527 677.602 247.041 671.11 243.937L671.568 243.496C674.532 244.537 677.839 247.761 679.159 252.309C680.146 255.681 679.393 256.432 679.397 256.559L676.949 260.646Z" fill="#C6C7C8"/>
<path fill-rule="evenodd" clip-rule="evenodd" d="M659.994 233.934C659.994 233.934 659.253 240.875 662.872 243.824C666.493 246.773 673.109 244.616 673.109 244.616C673.109 244.616 673.851 237.675 670.228 234.729C666.605 231.782 659.994 233.934 659.994 233.934Z" fill="#C6C7C8"/>
<path fill-rule="evenodd" clip-rule="evenodd" d="M684.735 234.961C684.758 234.871 686.778 223.236 692.217 221.91C689.786 222.228 686.698 223.975 684.969 227.229C683.685 229.645 684.137 230.33 684.113 230.426L684.735 234.961Z" fill="#C6C7C8"/>
<path fill-rule="evenodd" clip-rule="evenodd" d="M662.97 208.183C662.97 208.183 657.103 199.872 650.44 197.431C650.44 197.431 652.933 216.927 649.289 217.169C645.646 217.41 648.074 195.243 648.074 195.243C648.074 195.243 630.717 185.575 623.671 185.843C623.671 185.843 633.648 205.322 630.059 204.655C626.468 203.99 615.149 184.201 615.149 184.201C615.149 184.201 597.035 179.724 593.461 190.439C589.886 201.152 594.317 206.879 596.99 207.719C599.663 208.56 617.081 209.355 616.498 211.598C615.916 213.841 603.946 216.778 597.509 214.351C597.509 214.351 603.697 232.697 613.244 232.349C622.791 231.999 626.074 226.275 631.978 226.165C637.884 226.056 642.085 227.898 639.053 229.312C636.022 230.726 626.138 229.076 621.154 232.846C616.17 236.615 612.182 238.886 620.893 241.22C629.603 243.554 642.748 240.919 648.988 236.747C649.006 236.735 654.096 236.328 658.102 259.974C659.647 269.096 658.46 282.612 658.46 282.612L661.694 282.116C663.485 255.613 653.953 233.578 653.953 233.578C653.953 233.578 670.127 221.586 662.97 208.183Z" fill="#C6C7C8"/>
<path fill-rule="evenodd" clip-rule="evenodd" d="M662.97 208.183C662.97 208.183 657.103 199.872 650.44 197.431C650.44 197.431 652.933 216.927 649.289 217.169C645.646 217.41 648.074 195.243 648.074 195.243C648.074 195.243 630.717 185.575 623.671 185.843C623.671 185.843 633.648 205.322 630.059 204.655C626.468 203.99 615.149 184.201 615.149 184.201C615.149 184.201 597.035 179.724 593.461 190.439C589.886 201.152 594.317 206.879 596.99 207.719C599.663 208.56 617.081 209.355 616.498 211.598C615.916 213.841 603.946 216.778 597.509 214.351C597.509 214.351 603.697 232.697 613.244 232.349C622.791 231.999 626.074 226.275 631.978 226.165C637.884 226.056 642.085 227.898 639.053 229.312C636.022 230.726 626.138 229.076 621.154 232.846C616.17 236.615 612.182 238.886 620.893 241.22C629.603 243.554 642.748 240.919 648.988 236.747C649.006 236.735 654.096 236.328 658.102 259.974C659.647 269.096 658.46 282.612 658.46 282.612L661.694 282.116C663.485 255.613 653.953 233.578 653.953 233.578C653.953 233.578 670.127 221.586 662.97 208.183Z" stroke="#C6C7C8" stroke-width="1.149"/>
<path fill-rule="evenodd" clip-rule="evenodd" d="M715.856 243.17C715.856 243.17 696.369 234.953 703.344 220.008C703.344 220.008 709.217 210.648 716.298 207.611C716.298 207.611 714.739 228.893 718.704 228.94C722.671 228.986 718.736 205.098 718.736 205.098C718.736 205.098 736.988 193.597 744.645 193.464C744.645 193.464 734.962 215.174 738.821 214.239C742.68 213.305 753.796 191.183 753.796 191.183C753.796 191.183 773.172 185.258 777.675 196.664C782.178 208.071 777.714 214.542 774.863 215.608C772.015 216.675 753.173 218.568 753.939 220.961C754.704 223.355 767.851 225.838 774.688 222.826C774.688 222.826 769.054 243.082 758.68 243.27C748.309 243.455 744.413 237.439 738.006 237.67C731.597 237.902 727.148 240.145 730.518 241.501C733.887 242.854 744.508 240.482 750.133 244.277C755.756 248.072 760.211 250.295 750.909 253.338C741.608 256.383 724.36 257.107 720.11 250.135L715.856 243.17Z" fill="#DDDEDE"/>
<path fill-rule="evenodd" clip-rule="evenodd" d="M715.856 243.17C715.856 243.17 696.369 234.953 703.344 220.008C703.344 220.008 709.217 210.648 716.298 207.611C716.298 207.611 714.739 228.893 718.704 228.94C722.671 228.986 718.736 205.098 718.736 205.098C718.736 205.098 736.988 193.597 744.645 193.464C744.645 193.464 734.962 215.174 738.821 214.239C742.68 213.305 753.796 191.183 753.796 191.183C753.796 191.183 773.172 185.258 777.675 196.664C782.178 208.071 777.714 214.542 774.863 215.608C772.015 216.675 753.173 218.568 753.939 220.961C754.704 223.355 767.851 225.838 774.688 222.826C774.688 222.826 769.054 243.082 758.68 243.27C748.309 243.455 744.413 237.439 738.006 237.67C731.597 237.902 727.148 240.145 730.518 241.501C733.887 242.854 744.508 240.482 750.133 244.277C755.756 248.072 760.211 250.295 750.909 253.338C741.608 256.383 724.36 257.107 720.11 250.135L715.856 243.17Z" stroke="#C6C7C8" stroke-width="1.149"/>
<path fill-rule="evenodd" clip-rule="evenodd" d="M769.052 201.371C769.052 201.371 719.624 223.873 715.855 243.17C715.855 243.17 717.04 251.48 712.988 261.625L713.404 265.303C713.404 265.303 717.368 252.188 720.106 250.14C720.113 250.14 706.802 235.261 769.052 201.371Z" fill="#C6C7C8"/>
<path fill-rule="evenodd" clip-rule="evenodd" d="M712.995 261.627C712.995 261.627 706.442 274.583 712.609 288.749L714.587 287.969C714.587 287.969 710.786 272.025 714.01 263.426C717.232 254.825 712.995 261.627 712.995 261.627Z" fill="#C6C7C8"/>
<path fill-rule="evenodd" clip-rule="evenodd" d="M641.567 154.169C649.553 162.694 645.399 179.632 645.399 179.632C645.399 179.632 628.296 182.744 620.302 174.215C612.309 165.685 616.47 148.748 616.47 148.748C616.47 148.748 633.579 145.639 641.567 154.169Z" fill="#C6C7C8"/>
<path fill-rule="evenodd" clip-rule="evenodd" d="M641.567 154.169C649.553 162.694 645.399 179.632 645.399 179.632C645.399 179.632 628.296 182.744 620.302 174.215C612.309 165.685 616.47 148.748 616.47 148.748C616.47 148.748 633.579 145.639 641.567 154.169Z" stroke="#C6C7C8" stroke-width="1.149"/>
<path fill-rule="evenodd" clip-rule="evenodd" d="M641.566 154.169C649.551 162.694 645.398 179.632 645.398 179.632L616.475 148.748C616.475 148.748 633.578 145.639 641.566 154.169Z" fill="#DDDEDE"/>
<path fill-rule="evenodd" clip-rule="evenodd" d="M744.564 186.656C740.398 191.501 730.981 190.198 730.981 190.198C730.981 190.198 728.321 181.041 732.489 176.194C736.657 171.347 746.074 172.652 746.074 172.652C746.074 172.652 748.734 181.81 744.564 186.656Z" fill="#C6C7C8"/>
<path fill-rule="evenodd" clip-rule="evenodd" d="M744.564 186.656C740.398 191.501 730.981 190.198 730.981 190.198C730.981 190.198 728.321 181.041 732.489 176.194C736.657 171.347 746.074 172.652 746.074 172.652C746.074 172.652 748.734 181.81 744.564 186.656Z" stroke="#C6C7C8" stroke-width="1.149"/>
<path fill-rule="evenodd" clip-rule="evenodd" d="M695.306 225.18C692.511 225.957 689.276 223.081 689.276 223.081C689.276 223.081 690.573 218.945 693.367 218.169C696.161 217.391 699.394 220.267 699.394 220.267C699.394 220.267 698.101 224.403 695.306 225.18Z" fill="#C6C7C8"/>
<path fill-rule="evenodd" clip-rule="evenodd" d="M645.972 138.351C647.887 142.912 643.761 149.006 643.761 149.006C643.761 149.006 636.529 147.715 634.613 143.159C632.698 138.601 636.825 132.504 636.825 132.504C636.825 132.504 644.056 133.794 645.972 138.351Z" fill="#C6C7C8"/>
<path fill-rule="evenodd" clip-rule="evenodd" d="M645.972 138.351C647.887 142.912 643.761 149.006 643.761 149.006C643.761 149.006 636.529 147.715 634.613 143.159C632.698 138.601 636.825 132.504 636.825 132.504C636.825 132.504 644.056 133.794 645.972 138.351Z" stroke="#C6C7C8" stroke-width="1.149"/>
<path fill-rule="evenodd" clip-rule="evenodd" d="M716.88 287.41L704.033 346.21H663.232L650.383 287.41C649.655 284.042 651.737 280.742 654.585 280.742H712.714C715.561 280.778 717.644 284.077 716.88 287.41Z" fill="white"/>
<path fill-rule="evenodd" clip-rule="evenodd" d="M713.111 281.514L713.18 281.515C715.265 281.606 716.867 284.142 716.313 286.785L703.513 344.894H664.059L651.286 286.902C650.684 284.145 652.356 281.514 654.497 281.514H713.111ZM713.122 279.406H654.495C650.891 279.406 648.365 283.378 649.232 287.352L662.188 346.173C662.294 346.655 662.721 346.998 663.213 346.998H704.356C704.849 346.998 705.276 346.655 705.382 346.173L718.338 287.355C719.245 283.43 716.728 279.452 713.122 279.406Z" fill="#C6C7C8"/>
<path fill-rule="evenodd" clip-rule="evenodd" d="M157.248 261.501C157.141 261.501 157.039 261.458 156.964 261.383C156.888 261.307 156.845 261.204 156.845 261.097V254.502C156.845 241.112 166.534 230.219 178.447 230.219H188.462C188.568 230.219 188.669 230.261 188.744 230.337C188.82 230.411 188.862 230.514 188.862 230.62C188.862 230.728 188.82 230.829 188.744 230.904C188.669 230.98 188.568 231.022 188.462 231.022H178.447C166.978 231.022 157.648 241.557 157.648 254.496V261.091C157.649 261.144 157.639 261.197 157.619 261.246C157.599 261.296 157.57 261.342 157.533 261.379C157.496 261.417 157.452 261.448 157.402 261.468C157.353 261.491 157.301 261.501 157.248 261.501Z" fill="white"/>
<path fill-rule="evenodd" clip-rule="evenodd" d="M181.041 345.907V346.036H72.0797V345.478C72.6086 344.054 73.4324 342.762 74.4956 341.683C75.56 340.605 76.8406 339.765 78.2531 339.221C79.6634 338.678 81.1757 338.44 82.6858 338.527C84.1959 338.613 85.6705 339.021 87.012 339.722C87.7549 337.459 89.2306 335.507 91.2041 334.18C93.1765 332.85 95.5348 332.22 97.9041 332.387C100.276 332.556 102.522 333.512 104.289 335.105C106.057 336.698 107.245 338.837 107.665 341.184H114.817C115.551 337.464 119.742 335.75 123.451 335.75C123.947 335.749 124.443 335.785 124.933 335.859C124.849 335.322 124.808 334.779 124.808 334.233C124.808 327.358 131.347 321.781 139.41 321.781C146.786 321.781 152.89 326.447 153.874 332.506C155.402 331.483 157.173 330.882 159.007 330.767C160.841 330.651 162.674 331.025 164.317 331.849C165.961 332.673 167.358 333.918 168.368 335.459C169.377 337 169.964 338.78 170.066 340.623C171.253 339.891 172.622 339.508 174.017 339.515C177.896 339.514 181.041 342.375 181.041 345.907Z" stroke="#C6C7C8" stroke-width="1.149"/>
<path fill-rule="evenodd" clip-rule="evenodd" d="M199.607 275.203L205.43 77.0093C205.43 76.7559 205.53 76.5136 205.709 76.3336C205.888 76.1547 206.13 76.0547 206.381 76.0547C206.634 76.0547 206.876 76.1547 207.054 76.3336C207.232 76.5136 207.331 76.7559 207.331 77.0093L212.996 275.202L199.607 275.203Z" fill="#C6C7C8"/>
<mask id="mask0" style="mask-type:alpha" maskUnits="userSpaceOnUse" x="204" y="0" width="11" height="77">
<path fill-rule="evenodd" clip-rule="evenodd" d="M204.252 0H214.304V76.0244H204.252V0Z" fill="white"/>
</mask>
<g mask="url(#mask0)">
<path fill-rule="evenodd" clip-rule="evenodd" d="M213.861 39.7452C212.845 54.5005 210.176 67.4722 207.797 75.3121C207.73 75.531 207.593 75.7188 207.405 75.8477C207.218 75.9766 206.994 76.0377 206.768 76.0222C206.54 76.0066 206.326 75.9155 206.159 75.7621C205.992 75.6088 205.881 75.4032 205.844 75.1787C204.559 67.1221 203.68 54.0004 204.694 39.2507C205.881 21.8606 209.387 6.94202 211.983 0C213.626 7.23539 215.058 22.3551 213.861 39.7452Z" fill="#C6C7C8"/>
</g>
<path fill-rule="evenodd" clip-rule="evenodd" d="M171.715 92.2418C183.71 85.2065 195.262 80.2647 203.074 77.6777C204.414 77.2332 205.392 78.9468 204.336 79.8891C199.178 84.4597 189.452 91.9496 175.933 99.8784C160.939 108.673 147.245 114.396 140.061 116.141C145.105 110.709 156.718 101.045 171.715 92.2418Z" fill="#C6C7C8"/>
<path fill-rule="evenodd" clip-rule="evenodd" d="M239.004 88.7601C252.904 96.021 264.26 104.804 268.944 109.656C262.292 108.588 249.6 103.62 235.69 96.3588C224.431 90.4814 214.856 84.3973 209.127 79.72C208.109 78.8965 208.924 77.2752 210.188 77.5808C217.297 79.3021 227.748 82.8848 239.004 88.7601Z" fill="#C6C7C8"/>
<path fill-rule="evenodd" clip-rule="evenodd" d="M295.061 288.881L300.147 116.012C300.147 115.791 300.235 115.579 300.39 115.424C300.545 115.269 300.757 115.18 300.976 115.18C301.196 115.18 301.408 115.269 301.563 115.424C301.718 115.579 301.806 115.791 301.806 116.012L306.746 288.881H295.061Z" fill="#C6C7C8"/>
<path fill-rule="evenodd" clip-rule="evenodd" d="M311.668 90.5011C308.766 101.009 304.933 109.989 302.051 115.295C301.971 115.443 301.844 115.559 301.69 115.624C301.536 115.691 301.364 115.702 301.202 115.658C301.041 115.613 300.899 115.514 300.801 115.378C300.702 115.242 300.652 115.077 300.66 114.909C300.916 108.898 302.212 99.29 305.117 88.7831C308.537 76.4003 313.253 66.1412 316.161 61.5117C316.281 66.9791 315.09 78.1172 311.668 90.5011Z" fill="#C6C7C8"/>
<path fill-rule="evenodd" clip-rule="evenodd" d="M273.499 122.176C283.2 118.87 292.27 117.011 298.299 116.3C298.516 116.273 298.738 116.324 298.923 116.441C299.108 116.56 299.249 116.739 299.317 116.95C299.386 117.159 299.381 117.386 299.302 117.592C299.223 117.797 299.075 117.969 298.884 118.079C294.487 120.618 286.361 124.587 275.428 128.313C263.3 132.443 252.568 134.549 247.12 134.747C251.56 131.573 261.369 126.308 273.499 122.176Z" fill="#C6C7C8"/>
<path fill-rule="evenodd" clip-rule="evenodd" d="M322.62 129.627C331.604 136.931 338.5 144.957 341.174 149.156C336.526 147.398 328.088 141.931 319.108 134.627C311.837 128.711 305.816 122.89 302.365 118.67C302.235 118.511 302.164 118.313 302.162 118.108C302.16 117.904 302.227 117.703 302.353 117.542C302.479 117.38 302.655 117.267 302.854 117.22C303.053 117.172 303.262 117.194 303.447 117.282C308.323 119.59 315.355 123.723 322.62 129.627Z" fill="#C6C7C8"/>
<path fill-rule="evenodd" clip-rule="evenodd" d="M152.146 331.571C152.093 331.571 152.041 331.559 151.992 331.541C151.943 331.519 151.9 331.491 151.862 331.453C151.824 331.415 151.796 331.372 151.776 331.322C151.756 331.273 151.745 331.222 151.745 331.169V184.089C151.742 184.035 151.75 183.979 151.768 183.927C151.787 183.876 151.817 183.827 151.853 183.788C151.892 183.747 151.936 183.715 151.986 183.693C152.036 183.671 152.092 183.66 152.146 183.66C152.2 183.66 152.256 183.671 152.307 183.693C152.356 183.715 152.402 183.747 152.439 183.788C152.477 183.827 152.506 183.876 152.524 183.927C152.543 183.979 152.551 184.035 152.547 184.089V331.169C152.547 331.276 152.504 331.378 152.429 331.454C152.353 331.527 152.251 331.571 152.146 331.571Z" fill="#333739"/>
<path fill-rule="evenodd" clip-rule="evenodd" d="M144.077 145.485C145.095 150.598 147.157 154.777 149.294 156.517C150.603 154.088 150.912 149.438 149.898 144.323C148.885 139.208 146.82 135.03 144.681 133.289C143.374 135.718 143.064 140.373 144.077 145.485Z" fill="#C6C7C8"/>
<path fill-rule="evenodd" clip-rule="evenodd" d="M153.842 194.693C154.859 199.805 156.922 203.983 159.056 205.725C160.366 203.296 160.677 198.646 159.662 193.53C158.646 188.412 156.584 184.236 154.445 182.496C153.142 184.925 152.825 189.578 153.842 194.693Z" fill="#C6C7C8"/>
<path fill-rule="evenodd" clip-rule="evenodd" d="M175.669 161.712C170.575 162.731 166.41 164.8 164.673 166.946C167.096 168.259 171.728 168.569 176.826 167.55C181.924 166.532 186.087 164.462 187.82 162.317C185.401 161.004 180.763 160.691 175.669 161.712Z" fill="#C6C7C8"/>
<path fill-rule="evenodd" clip-rule="evenodd" d="M126.641 171.515C121.547 172.536 117.382 174.603 115.647 176.745C118.067 178.061 122.702 178.373 127.8 177.353C132.898 176.335 137.06 174.264 138.794 172.12C136.365 170.8 131.727 170.493 126.641 171.515Z" fill="#C6C7C8"/>
<path fill-rule="evenodd" clip-rule="evenodd" d="M163.206 147.054C160.325 151.39 158.836 155.809 159.118 158.556C161.756 157.767 165.256 154.695 168.141 150.362C171.024 146.03 172.513 141.605 172.227 138.859C169.59 139.647 166.091 142.72 163.206 147.054Z" fill="#C6C7C8"/>
<path fill-rule="evenodd" clip-rule="evenodd" d="M135.441 188.785C132.559 193.118 131.069 197.536 131.353 200.284C133.992 199.495 137.489 196.423 140.376 192.091C143.263 187.757 144.745 183.336 144.46 180.59C141.825 181.377 138.325 184.447 135.441 188.785Z" fill="#C6C7C8"/>
<path fill-rule="evenodd" clip-rule="evenodd" d="M174.107 180.949C169.788 178.056 165.385 176.561 162.649 176.847C163.434 179.494 166.496 183.006 170.814 185.9C175.132 188.797 179.539 190.287 182.275 190C181.489 187.355 178.419 183.844 174.107 180.949Z" fill="#C6C7C8"/>
<path fill-rule="evenodd" clip-rule="evenodd" d="M132.53 153.083C128.21 150.191 123.806 148.698 121.069 148.984C121.854 151.631 124.918 155.141 129.235 158.037C133.552 160.931 137.96 162.422 140.697 162.138C139.911 159.491 136.851 155.979 132.53 153.083Z" fill="#C6C7C8"/>
<path fill-rule="evenodd" clip-rule="evenodd" d="M153.287 145.154C152.405 150.11 152.79 154.599 154.099 156.917C156.133 155.198 158.045 151.134 158.927 146.169C159.811 141.203 159.423 136.725 158.113 134.406C156.085 136.125 154.18 140.2 153.287 145.154Z" fill="#C6C7C8"/>
<path fill-rule="evenodd" clip-rule="evenodd" d="M144.786 192.843C143.903 197.797 144.288 202.285 145.599 204.606C147.634 202.885 149.543 198.82 150.428 193.856C151.313 188.891 150.922 184.414 149.614 182.094C147.584 183.827 145.669 187.895 144.786 192.843Z" fill="#C6C7C8"/>
<path fill-rule="evenodd" clip-rule="evenodd" d="M175.99 170.919C171.053 170.033 166.58 170.422 164.269 171.736C165.983 173.777 170.041 175.694 174.98 176.581C179.919 177.466 184.39 177.077 186.701 175.764C184.987 173.726 180.928 171.806 175.99 170.919Z" fill="#C6C7C8"/>
<path fill-rule="evenodd" clip-rule="evenodd" d="M128.462 162.391C123.525 161.506 119.053 161.895 116.74 163.209C118.455 165.251 122.513 167.165 127.452 168.054C132.391 168.943 136.862 168.55 139.174 167.237C137.46 165.193 133.4 163.272 128.462 162.391Z" fill="#C6C7C8"/>
<path fill-rule="evenodd" clip-rule="evenodd" d="M170.086 154.038C165.954 156.791 163.022 160.137 162.265 162.662C164.88 162.942 169.088 161.536 173.223 158.777C177.356 156.017 180.288 152.678 181.047 150.152C178.42 149.871 174.216 151.284 170.086 154.038Z" fill="#C6C7C8"/>
<path fill-rule="evenodd" clip-rule="evenodd" d="M130.295 180.533C126.161 183.288 123.23 186.632 122.47 189.158C125.084 189.437 129.294 188.032 133.43 185.273C137.566 182.514 140.495 179.172 141.252 176.649C138.638 176.367 134.429 177.779 130.295 180.533Z" fill="#C6C7C8"/>
<path fill-rule="evenodd" clip-rule="evenodd" d="M167.244 187.932C164.501 183.786 161.166 180.842 158.651 180.082C158.373 182.702 159.773 186.931 162.522 191.077C165.273 195.225 168.601 198.169 171.117 198.928C171.397 196.307 169.989 192.081 167.244 187.932Z" fill="#C6C7C8"/>
<path fill-rule="evenodd" clip-rule="evenodd" d="M140.837 148.006C138.093 143.86 134.76 140.916 132.244 140.156C131.964 142.78 133.365 147.005 136.115 151.152C138.865 155.299 142.193 158.243 144.709 159.005C144.988 156.383 143.581 152.156 140.837 148.006Z" fill="#C6C7C8"/>
<path fill-rule="evenodd" clip-rule="evenodd" d="M148.17 239.266V231.98C148.17 227.108 146.579 222.368 143.641 218.489C140.702 214.61 136.575 211.805 131.897 210.503L120.186 207.898L126.018 223.778C127.038 226.742 128.952 229.313 131.497 231.131C134.042 232.952 137.087 233.929 140.212 233.929C141.871 233.929 143.497 234.41 144.89 235.315C146.284 236.221 147.387 237.511 148.066 239.031L148.17 239.266Z" stroke="#C6C7C8" stroke-width="1.149"/>
<path fill-rule="evenodd" clip-rule="evenodd" d="M148.17 238.218C148.065 238.218 147.962 238.174 147.886 238.099C147.811 238.023 147.769 237.921 147.769 237.814V231.818C147.761 227.036 146.196 222.388 143.315 218.582C140.432 214.773 136.391 212.014 131.803 210.724L120.267 208.446C120.216 208.436 120.166 208.415 120.123 208.386C120.078 208.356 120.042 208.318 120.013 208.275C119.983 208.231 119.963 208.181 119.951 208.13C119.941 208.078 119.941 208.025 119.951 207.974C119.962 207.921 119.982 207.871 120.011 207.828C120.039 207.785 120.077 207.747 120.12 207.717C120.165 207.688 120.213 207.667 120.266 207.657C120.317 207.646 120.37 207.646 120.421 207.656L132.003 209.946C136.761 211.281 140.954 214.14 143.945 218.087C146.936 222.034 148.56 226.853 148.569 231.811V237.807C148.571 237.86 148.562 237.914 148.541 237.963C148.523 238.013 148.494 238.057 148.455 238.096C148.418 238.134 148.374 238.165 148.325 238.185C148.275 238.205 148.223 238.218 148.17 238.218Z" fill="white"/>
<path fill-rule="evenodd" clip-rule="evenodd" d="M157.248 261.26V254.663C157.248 241.472 166.741 230.781 178.447 230.781H188.462C188.462 238.862 185.262 246.612 179.567 252.326C173.874 258.041 166.15 261.252 158.097 261.252L157.248 261.26Z" stroke="#C6C7C8" stroke-width="1.149"/>
<path fill-rule="evenodd" clip-rule="evenodd" d="M152.147 279.039C152.129 279.041 152.111 279.041 152.093 279.039C152.041 279.032 151.991 279.015 151.945 278.988C151.9 278.961 151.862 278.926 151.829 278.884C151.797 278.841 151.776 278.794 151.762 278.742C151.75 278.692 151.746 278.64 151.754 278.587C151.762 278.522 152.668 271.954 155.81 263.927C158.716 256.502 164.181 246.256 173.726 239.602C173.769 239.573 173.818 239.551 173.869 239.54C173.921 239.529 173.973 239.528 174.025 239.537C174.076 239.547 174.126 239.566 174.17 239.594C174.215 239.624 174.252 239.661 174.282 239.704C174.313 239.747 174.333 239.796 174.344 239.847C174.357 239.9 174.357 239.952 174.347 240.004C174.339 240.056 174.318 240.105 174.29 240.15C174.262 240.194 174.226 240.233 174.182 240.262C164.809 246.792 159.434 256.88 156.564 264.195C153.455 272.142 152.558 278.625 152.549 278.69C152.537 278.786 152.488 278.876 152.414 278.941C152.339 279.005 152.244 279.04 152.147 279.039Z" fill="#333739"/>
<path fill-rule="evenodd" clip-rule="evenodd" d="M152.145 261.921H152.132C152.025 261.917 151.924 261.871 151.852 261.792C151.78 261.714 151.741 261.611 151.745 261.504C151.745 261.43 151.972 253.849 149.61 244.761C148.227 239.434 146.237 234.638 143.697 230.506C140.53 225.352 136.494 221.22 131.699 218.226C131.652 218.199 131.61 218.164 131.579 218.119C131.547 218.076 131.523 218.027 131.511 217.976C131.497 217.923 131.495 217.868 131.503 217.815C131.512 217.763 131.53 217.712 131.559 217.665C131.588 217.619 131.625 217.58 131.67 217.549C131.713 217.518 131.762 217.497 131.817 217.486C131.868 217.474 131.922 217.474 131.975 217.484C132.027 217.494 132.078 217.515 132.123 217.545C137.026 220.608 141.153 224.829 144.387 230.095C146.968 234.298 148.99 239.174 150.392 244.582C152.779 253.779 152.549 261.456 152.547 261.533C152.542 261.637 152.499 261.735 152.423 261.807C152.349 261.88 152.249 261.921 152.145 261.921Z" fill="#333739"/>
<path fill-rule="evenodd" clip-rule="evenodd" d="M151.731 184.405C159.914 184.405 166.547 177.749 166.547 169.538C166.547 161.326 159.914 154.668 151.731 154.668C143.549 154.668 136.914 161.326 136.914 169.538C136.914 177.749 143.549 184.405 151.731 184.405Z" fill="white"/>
<path fill-rule="evenodd" clip-rule="evenodd" d="M163.693 160.754V178.303C163.841 178.102 163.985 177.896 164.121 177.684V161.368C163.985 161.163 163.841 160.957 163.693 160.754Z" fill="#7B7D7E"/>
<path fill-rule="evenodd" clip-rule="evenodd" d="M160.646 157.656V181.417C160.787 181.309 160.929 181.195 161.07 181.078V157.993C160.929 157.877 160.791 157.768 160.646 157.656Z" fill="#7B7D7E"/>
<path fill-rule="evenodd" clip-rule="evenodd" d="M157.595 155.875V183.187C157.741 183.125 157.883 183.061 158.022 182.993V156.069C157.883 155.998 157.74 155.938 157.595 155.875Z" fill="#7B7D7E"/>
<path fill-rule="evenodd" clip-rule="evenodd" d="M154.548 154.934V184.132C154.691 184.105 154.833 184.075 154.976 184.044V155.022C154.833 154.99 154.699 154.96 154.548 154.934Z" fill="#7B7D7E"/>
<path fill-rule="evenodd" clip-rule="evenodd" d="M151.499 154.669V184.399H151.928V154.669H151.73C151.666 154.669 151.576 154.666 151.499 154.669Z" fill="#7B7D7E"/>
<path fill-rule="evenodd" clip-rule="evenodd" d="M148.445 155.034V184.04C148.584 184.072 148.727 184.101 148.87 184.129V154.941C148.735 154.968 148.584 154.999 148.445 155.034Z" fill="#7B7D7E"/>
<path fill-rule="evenodd" clip-rule="evenodd" d="M145.399 156.087V182.976C145.539 183.044 145.682 183.109 145.826 183.171V155.887C145.685 155.952 145.544 156.018 145.399 156.087Z" fill="#7B7D7E"/>
<path fill-rule="evenodd" clip-rule="evenodd" d="M142.353 158.021V181.044C142.491 181.161 142.634 181.274 142.78 181.383V157.684C142.635 157.8 142.492 157.906 142.353 158.021Z" fill="#7B7D7E"/>
<path fill-rule="evenodd" clip-rule="evenodd" d="M139.306 161.432V177.633C139.44 177.847 139.581 178.056 139.732 178.255V160.809C139.585 161.014 139.443 161.222 139.306 161.432Z" fill="#7B7D7E"/>
<path fill-rule="evenodd" clip-rule="evenodd" d="M142.897 181.47C143.096 181.618 143.296 181.764 143.502 181.9H159.961C160.166 181.764 160.368 181.618 160.566 181.47H142.897Z" fill="#7B7D7E"/>
<path fill-rule="evenodd" clip-rule="evenodd" d="M139.846 178.411C139.954 178.557 140.061 178.7 140.175 178.84H163.285C163.401 178.7 163.51 178.557 163.624 178.411H139.846Z" fill="#7B7D7E"/>
<path fill-rule="evenodd" clip-rule="evenodd" d="M138.094 175.352C138.155 175.498 138.217 175.642 138.284 175.783H165.182C165.247 175.642 165.311 175.498 165.372 175.352H138.094Z" fill="#7B7D7E"/>
<path fill-rule="evenodd" clip-rule="evenodd" d="M137.17 172.294C137.197 172.441 137.224 172.581 137.258 172.723H166.206C166.239 172.581 166.268 172.441 166.295 172.294H137.17Z" fill="#7B7D7E"/>
<path fill-rule="evenodd" clip-rule="evenodd" d="M136.916 169.538V169.668H166.555V169.24H136.917C136.917 169.332 136.916 169.433 136.916 169.538Z" fill="#7B7D7E"/>
<path fill-rule="evenodd" clip-rule="evenodd" d="M137.202 166.602H166.261C166.232 166.458 166.203 166.317 166.17 166.173H137.294C137.262 166.317 137.229 166.454 137.202 166.602Z" fill="#7B7D7E"/>
<path fill-rule="evenodd" clip-rule="evenodd" d="M138.166 163.542H165.287C165.224 163.401 165.161 163.258 165.091 163.116H138.362C138.294 163.258 138.228 163.398 138.166 163.542Z" fill="#7B7D7E"/>
<path fill-rule="evenodd" clip-rule="evenodd" d="M139.974 160.486H163.49C163.38 160.34 163.266 160.194 163.152 160.055H140.318C140.199 160.197 140.086 160.34 139.974 160.486Z" fill="#7B7D7E"/>
<path fill-rule="evenodd" clip-rule="evenodd" d="M143.127 157.43H160.337C160.124 157.282 159.911 157.139 159.697 157.001H143.751C143.546 157.139 143.332 157.292 143.127 157.43Z" fill="#7B7D7E"/>
</g>
</svg>
